<?xml version="1.0" encoding="utf-8"?><svg version="1.1" id="Livello_1" xmlns="http://www.w3.org/2000/svg" xmlns:xlink="http://www.w3.org/1999/xlink" x="0px" y="0px" viewBox="0 0 512 512" style="enable-background:new 0 0 512 512" xml:space="preserve"><style type="text/css">.st0{fill:#CA64EA;} .st1{fill:#AE4BD5;} .st2{fill:#9332BF;} .st3{fill:#7719AA;} .st4{opacity:0.2;enable-background:new ;} .st5{opacity:0.5;enable-background:new ;} .st6{fill:url(#SVGID_1_);} .st7{fill:#FFFFFF;}</style><path class="st0" d="M392.93,494.14H140.87c-12.04,0-21.8-9.76-21.8-21.8l0,0V39.66c0-12.04,9.76-21.8,21.8-21.8l0,0H490.2	c12.04,0,21.8,9.76,21.8,21.8l0,0v97.27L392.93,494.14z"/><path class="st1" d="M512,256l-59.53,35.72L392.93,256V136.93H512L512,256L512,256z"/><path class="st2" d="M512,375.07l-59.53,35.72l-59.53-35.72V256H512V375.07z"/><path class="st3" d="M392.93,375.07H512v96.74c0,12.33-10,22.33-22.33,22.33h-96.74V375.07z"/><path class="st4" d="M263.94,113.12H119.07v297.67h144.87c12.04-0.04,21.79-9.79,21.83-21.83V134.94	C285.73,122.9,275.98,113.16,263.94,113.12z"/><path class="st4" d="M252.03,125.02H119.07V422.7h132.97c12.04-0.04,21.79-9.79,21.83-21.83V146.85	C273.82,134.81,264.07,125.06,252.03,125.02z"/><path class="st5" d="M252.03,125.02H119.07v273.86h132.97c12.04-0.04,21.79-9.79,21.83-21.83V146.85	C273.82,134.81,264.07,125.06,252.03,125.02z"/><path class="st5" d="M240.13,125.02H119.07v273.86h121.06c12.04-0.04,21.79-9.79,21.83-21.83V146.85	C261.91,134.81,252.17,125.06,240.13,125.02z"/><linearGradient id="SVGID_1_" gradientUnits="userSpaceOnUse" x1="45.5067" y1="-1887.3635" x2="216.447" y2="-1591.302" gradientTransform="matrix(1 0 0 1 0 1995.3333)"><stop offset="0" style="stop-color:#8324B3"/><stop offset="0.5" style="stop-color:#7A1BAC"/><stop offset="1" style="stop-color:#621197"/></linearGradient><path class="st6" d="M21.83,125.02h218.3c12.05,0,21.83,9.77,21.83,21.83v218.3c0,12.05-9.77,21.83-21.83,21.83H21.83	C9.77,386.98,0,377.21,0,365.15v-218.3C0,134.8,9.77,125.02,21.83,125.02z"/><path class="st7" d="M71.75,185.06h29.59l58.14,94.07c2.64,4.22,4.63,7.61,5.95,10.18h0.38c-0.72-6.4-1.01-12.85-0.86-19.29v-84.96	h25.24v141.88h-27.7l-60.32-96.67c-2.04-3.19-3.84-6.53-5.38-9.99h-0.48c0.61,7.04,0.86,14.11,0.75,21.17v85.49H71.75V185.06z"/></svg>