<?xml version="1.0" encoding="utf-8"?>
<!-- Generator: Adobe Illustrator 25.2.3, SVG Export Plug-In . SVG Version: 6.00 Build 0)  -->
<svg version="1.1" id="圖層_1" xmlns="http://www.w3.org/2000/svg" xmlns:xlink="http://www.w3.org/1999/xlink" x="0px" y="0px"
	 viewBox="0 0 100 100" style="enable-background:new 0 0 100 100;" xml:space="preserve">
<style type="text/css">
	.st0{fill:url(#Rectangle_165_1_);}
	.st1{fill:#B1EEFF;}
	.st2{fill:url(#Path_99_1_);}
	.st3{fill:url(#Ellipse_12_1_);}
	.st4{fill:#2C58A7;}
	.st5{fill:#FFFFFF;}
	.st6{fill:url(#Path_101_1_);}
	.st7{clip-path:url(#SVGID_2_);}
	.st8{opacity:0.14;}
	.st9{fill:#004EBB;}
</style>
<g id="Group_154" transform="translate(-772.145 -1795.296)">
	<g id="Group_166" transform="translate(772.145 1795.296)">
		
			<radialGradient id="Rectangle_165_1_" cx="-250.5629" cy="471.1213" r="0.4645" gradientTransform="matrix(-73.8973 -77.1009 -77.8484 74.7516 18210.0977 -54486.1289)" gradientUnits="userSpaceOnUse">
			<stop  offset="0" style="stop-color:#00A7E4"/>
			<stop  offset="0.44" style="stop-color:#0082D3"/>
			<stop  offset="1" style="stop-color:#004EBB"/>
		</radialGradient>
		<path id="Rectangle_165" class="st0" d="M15.5,0h69C93.1,0,100,6.9,100,15.5v69c0,8.6-6.9,15.5-15.5,15.5h-69
			C6.9,100,0,93.1,0,84.5v-69C0,6.9,6.9,0,15.5,0z"/>
		<g id="Group_161" transform="translate(8.084 7.632)">
			<g id="Group_154-2" transform="translate(43.798)">
				<path id="Path_92" class="st1" d="M-2.3,8.9c-0.5,0-1-0.4-1-1V0.5c0-0.5,0.4-1,1-1c0.5,0,1,0.4,1,1v7.4
					C-1.3,8.4-1.8,8.9-2.3,8.9z"/>
			</g>
			<g id="Group_155" transform="translate(62.055 5.693)">
				<path id="Path_93" class="st1" d="M-3.5,7.5c-0.5,0-1-0.4-1-1c0-0.2,0-0.3,0.1-0.5l3.7-6.4C-0.4-0.8,0.2-1,0.7-0.8
					C1.2-0.6,1.4,0,1.1,0.5c0,0,0,0.1-0.1,0.1L-2.6,7C-2.8,7.3-3.1,7.5-3.5,7.5z"/>
			</g>
			<g id="Group_156" transform="translate(75.547 21.725)">
				<path id="Path_94" class="st1" d="M-4.3,3.8c-0.5,0-1-0.4-1-1c0-0.3,0.2-0.7,0.5-0.8l6.4-3.7C2-2,2.6-1.8,2.9-1.4
					C3.2-0.9,3-0.3,2.5,0l-6.4,3.7C-4,3.7-4.2,3.8-4.3,3.8z"/>
			</g>
			<g id="Group_157" transform="translate(80.659 43.797)">
				<path id="Path_95" class="st1" d="M2.7-1.3h-7.4c-0.5,0-1-0.4-1-1c0-0.5,0.4-1,1-1h7.4c0.5,0,1,0.4,1,1C3.7-1.8,3.3-1.3,2.7-1.3
					L2.7-1.3z"/>
			</g>
			<g id="Group_158" transform="translate(0 44.749)">
				<path id="Path_96" class="st1" d="M7.9-1.4H0.5c-0.5,0-1-0.4-1-1c0-0.5,0.4-1,1-1c0,0,0,0,0,0h7.4c0.5,0,1,0.4,1,1
					C8.8-1.8,8.4-1.4,7.9-1.4C7.9-1.4,7.9-1.4,7.9-1.4L7.9-1.4z"/>
			</g>
			<g id="Group_159" transform="translate(5.694 22.548)">
				<path id="Path_97" class="st1" d="M6.5,3.7c-0.2,0-0.3,0-0.5-0.1l-6.4-3.7C-0.8-0.4-1-1-0.7-1.4C-0.4-1.9,0.1-2,0.6-1.8L7,1.9
					c0.5,0.3,0.6,0.9,0.4,1.3C7.2,3.5,6.8,3.7,6.5,3.7L6.5,3.7z"/>
			</g>
			<g id="Group_160" transform="translate(21.725 6.168)">
				<path id="Path_98" class="st1" d="M2.8,7.5C2.4,7.5,2.1,7.3,1.9,7l-3.7-6.4c-0.2-0.5,0-1.1,0.4-1.3c0.4-0.2,1-0.1,1.3,0.3L3.6,6
					c0.3,0.5,0.1,1.1-0.4,1.3C3.1,7.4,2.9,7.5,2.8,7.5L2.8,7.5z"/>
			</g>
		</g>
		<g id="Group_162" transform="translate(23.002 23.095)">
			
				<linearGradient id="Path_99_1_" gradientUnits="userSpaceOnUse" x1="-265.4943" y1="442.9427" x2="-265.4943" y2="442.0063" gradientTransform="matrix(60.7841 0 0 -76.1597 16164.8174 33732.9062)">
				<stop  offset="0.383" style="stop-color:#67D8FF"/>
				<stop  offset="0.837" style="stop-color:#68DAFF"/>
				<stop  offset="0.865" style="stop-color:#69DBFF"/>
				<stop  offset="0.913" style="stop-color:#71D9FC"/>
				<stop  offset="0.988" style="stop-color:#88D4F5"/>
				<stop  offset="1" style="stop-color:#8DD4F4"/>
			</linearGradient>
			<path id="Path_99" class="st2" d="M55.5,27C55.5,11.3,42.7-1.5,27-1.5C11.3-1.5-1.5,11.3-1.5,27c0,6.1,2,12.1,5.6,17l0,0
				c4.5,6.8,9.2,12.1,11.2,22.9c0.1,0.4,0.3,0.7,0.6,0.8c3.4,1.5,7.2,2.2,10.9,2.1h0.1c3.8,0.1,7.5-0.7,10.9-2.1
				c0.3-0.2,0.6-0.5,0.6-0.8c0.1-0.4,0.1-0.9,0.3-1.5c2.1-9.5,6.3-14.5,10.5-20.7c0.1-0.2,0.3-0.4,0.4-0.6l0,0l0,0
				C53.5,39.1,55.5,33.1,55.5,27z"/>
			<path id="Path_100" class="st1" d="M27-1.1L27-1.1c15.5,0,28.1,12.5,28.1,28c0,6.1-2,12-5.6,16.8l0,0v0c-0.1,0.2-0.3,0.4-0.4,0.6
				l0,0c-0.6,0.9-1.2,1.8-1.8,2.7c-3.6,5.2-6.9,10.1-8.7,18.2v0c-0.1,0.7-0.2,1.2-0.3,1.5c0,0.2-0.2,0.4-0.4,0.5
				c-3.4,1.5-7.1,2.2-10.8,2.1H27c-3.7,0.1-7.4-0.6-10.8-2.1c-0.2-0.1-0.4-0.3-0.4-0.5v0c-1.7-9.1-5.3-14.2-9-19.7
				C6,46,5.3,44.9,4.5,43.8l0,0c-9.3-12.4-6.7-30,5.7-39.3C15.1,0.9,21-1.1,27-1.1 M27-1.5C11.3-1.5-1.4,11.3-1.4,27
				c0,6.1,2,12.1,5.6,17l0,0c4.5,6.8,9.2,12.1,11.2,22.9c0.1,0.4,0.3,0.7,0.6,0.8c3.4,1.5,7.2,2.2,10.9,2.1h0.1
				c3.8,0.1,7.5-0.7,10.9-2.1c0.3-0.2,0.6-0.5,0.6-0.8c0.1-0.4,0.1-0.9,0.3-1.5c2.1-9.5,6.3-14.5,10.5-20.7c0.1-0.2,0.3-0.4,0.4-0.6
				l0,0l0,0c9.4-12.6,6.8-30.4-5.8-39.8C39.1,0.5,33.1-1.5,27-1.5L27-1.5z"/>
		</g>
		<g id="Group_163" transform="translate(23.296 23.307)">
			
				<linearGradient id="Ellipse_12_1_" gradientUnits="userSpaceOnUse" x1="-265.8961" y1="441.3759" x2="-265.5768" y2="440.5069" gradientTransform="matrix(60.196 0 0 -60.196 16023.7373 26571.6953)">
				<stop  offset="0" style="stop-color:#E3FFFF"/>
				<stop  offset="0.206" style="stop-color:#8CEFFF"/>
				<stop  offset="0.718" style="stop-color:#69DBFF"/>
			</linearGradient>
			<circle id="Ellipse_12" class="st3" cx="26.7" cy="26.7" r="28.2"/>
			<circle id="Ellipse_13" class="st4" cx="27.2" cy="27.2" r="16"/>
			<circle id="Ellipse_14" class="st5" cx="27.2" cy="27.2" r="3.4"/>
			<circle id="Ellipse_15" class="st5" cx="15.3" cy="15.3" r="9.5"/>
			<circle id="Ellipse_16" class="st5" cx="33.7" cy="33.7" r="1.2"/>
		</g>
		<g id="Group_165" transform="translate(37.433 75.13)">
			<g id="Group_164" transform="translate(0 6.969)">
				
					<linearGradient id="Path_101_1_" gradientUnits="userSpaceOnUse" x1="-276.734" y1="307.6462" x2="-275.7975" y2="307.6462" gradientTransform="matrix(31.773 0 0 -4.5339 8790.293 1391.7485)">
					<stop  offset="0.383" style="stop-color:#67D8FF"/>
					<stop  offset="0.837" style="stop-color:#68DAFF"/>
					<stop  offset="0.865" style="stop-color:#69DBFF"/>
					<stop  offset="0.913" style="stop-color:#71D9FC"/>
					<stop  offset="0.988" style="stop-color:#88D4F5"/>
					<stop  offset="1" style="stop-color:#8DD4F4"/>
				</linearGradient>
				<path id="Path_101" class="st6" d="M27.4-3.2c0,0.8-7.2,2.2-14.9,2.2S-2.4-2.4-2.4-3.2s7.2-2,14.9-2S27.4-4,27.4-3.2z"/>
				<path id="Path_102" class="st1" d="M12.5-4.9c3.3,0,6.6,0.2,9.9,0.7c1.1,0.1,2.2,0.4,3.3,0.6c0.4,0.1,0.9,0.2,1.3,0.4
					c-1.5,0.6-3,1-4.6,1.2C15.8-1,9.2-1,2.6-2C1-2.2-0.5-2.6-2-3.2c0.4-0.2,0.8-0.4,1.3-0.4c1.1-0.3,2.2-0.5,3.3-0.6
					C5.9-4.7,9.2-4.9,12.5-4.9 M12.5-5.2C4.9-5.2-2.4-4-2.4-3.2S4.9-1,12.5-1s14.9-1.5,14.9-2.2S20.1-5.2,12.5-5.2z"/>
			</g>
			<path id="Path_103" class="st5" d="M12.6,4.3c-0.2,0-0.4-0.2-0.5-0.4l-2-8.1c-0.1-0.3,0.1-0.5,0.4-0.6c0.3-0.1,0.5,0.1,0.6,0.3
				l1.5,6.1L14-4.4c0.1-0.3,0.3-0.4,0.6-0.4C14.9-4.7,15-4.4,15-4.2l-1.9,8.1C13,4.1,12.8,4.3,12.6,4.3L12.6,4.3z"/>
		</g>
		<path id="Path_104" class="st1" d="M65.4,78.5c0,0.8-7.5,2.4-15.4,2.4s-15.4-1.6-15.4-2.4l0,0.1c1.8,3.6,3.1,7.4,3.8,11.3
			c0.1,0.4,0.3,0.7,0.6,0.8c3.4,1.5,7.2,2.2,10.9,2.1h0.1c3.8,0.1,7.5-0.7,10.9-2.1c0.3-0.2,0.6-0.5,0.6-0.8
			c0.1-0.4,0.1-0.9,0.3-1.5C62.6,85,63.8,81.7,65.4,78.5L65.4,78.5z"/>
	</g>
	<g id="Group_169" transform="translate(809.078 1879.172)">
		<g>
			<defs>
				<path id="SVGID_1_" d="M28.5-5.3C28.5-4.5,21-3,13.1-3S-2.3-4.5-2.3-5.3l0,0.1c1.8,3.6,3.1,7.4,3.8,11.3
					c0.1,0.4,0.3,0.7,0.6,0.8C5.5,8.4,9.3,9.1,13,9.1h0.1c3.8,0.1,7.5-0.7,10.9-2.1c0.3-0.2,0.6-0.5,0.6-0.8
					c0.1-0.4,0.1-0.9,0.3-1.5C25.7,1.1,26.9-2.2,28.5-5.3L28.5-5.3z"/>
			</defs>
			<clipPath id="SVGID_2_">
				<use xlink:href="#SVGID_1_"  style="overflow:visible;"/>
			</clipPath>
			<g id="Group_168" class="st7">
				<g id="Group_167" transform="translate(1.129 2.757)" class="st8">
					<path id="Path_105" class="st9" d="M24,2.3c0-0.1,0-0.2,0.1-0.3c-7.9,2.7-16.4,2.7-24.3,0l0.1,0.3C7.7,4.9,16.2,4.9,24,2.3
						L24,2.3z"/>
					<path id="Path_106" class="st9" d="M-0.8-0.5c0,0.1,0.1,0.2,0.1,0.3c8.2,2.6,17,2.7,25.2,0c0-0.1,0.1-0.2,0.1-0.3
						C16.4,2.2,7.5,2.2-0.8-0.5L-0.8-0.5z"/>
					<path id="Path_107" class="st9" d="M-1.5-3c0,0.1,0.1,0.2,0.1,0.4c4.3,1.3,8.8,2,13.3,2c4.5,0,9-0.7,13.3-2
						c0-0.1,0.1-0.2,0.1-0.4c-4.3,1.4-8.8,2.1-13.4,2C7.4-0.9,2.9-1.6-1.5-3z"/>
					<path id="Path_108" class="st9" d="M-2.4-5.5c0,0.1,0.1,0.2,0.1,0.4c9.3,2.6,19.1,2.6,28.4,0c0-0.1,0.1-0.2,0.1-0.4
						C16.9-2.8,6.9-2.8-2.4-5.5L-2.4-5.5z"/>
				</g>
			</g>
		</g>
	</g>
</g>
</svg>
