<?xml version="1.0" encoding="utf-8"?>
<!-- Generator: Adobe Illustrator 22.1.0, SVG Export Plug-In . SVG Version: 6.00 Build 0)  -->
<svg version="1.1" id="圖層_1" xmlns="http://www.w3.org/2000/svg" xmlns:xlink="http://www.w3.org/1999/xlink" x="0px" y="0px"
	 viewBox="0 0 100 100" style="enable-background:new 0 0 100 100;" xml:space="preserve">
<style type="text/css">
	.st0{fill-rule:evenodd;clip-rule:evenodd;fill:#0A49D4;}
	.st1{fill:#FFFFFF;}
	.st2{fill:#666666;}
	.st3{fill:#DBE6E9;}
</style>
<g>
	<g>
		<rect class="st0" width="100" height="100"/>
	</g>
	<g>
		<g>
			
				<ellipse transform="matrix(0.2107 -0.9776 0.9776 0.2107 -10.9917 89.0997)" class="st1" cx="49.7" cy="51.4" rx="28.4" ry="27.7"/>
		</g>
		<g>
			<path class="st2" d="M48.7,48.7c11,2.4,20.6,5.1,25.2,12.6c0.6-1.4,1-2.9,1.3-4.5c3.3-15.3-6.1-30.4-21.1-33.6
				c-14.9-3.2-29.7,6.6-33,21.9c-0.3,1.5-0.5,3.1-0.6,4.6C27.8,44.9,37.7,46.4,48.7,48.7z"/>
		</g>
		<g>
			<path d="M67.2,55.1C64.9,65.9,54.5,72.8,44,70.5c-10.5-2.3-17.1-12.8-14.8-23.6c2.3-10.8,12.7-17.7,23.2-15.4
				C62.9,33.8,69.5,44.4,67.2,55.1z"/>
		</g>
		<g>
			<path class="st3" d="M48,81.9c-2.1,0-4.2-0.2-6.3-0.7c-7.9-1.7-14.6-6.4-18.9-13.4c-4.3-6.9-5.7-15.1-4-23.2
				c1.7-8,6.4-15,13.2-19.5c6.8-4.5,14.9-6.1,22.8-4.4c7.9,1.7,14.6,6.4,18.9,13.4c4.3,6.9,5.7,15.1,4,23.2c-1.7,8-6.4,15-13.2,19.5
				C59.4,80.2,53.8,81.9,48,81.9z M48.4,25.1c-4.8,0-9.6,1.4-13.8,4.2C29,33.1,25,38.9,23.5,45.7c-1.5,6.8-0.3,13.7,3.4,19.5
				c3.6,5.8,9.2,9.7,15.8,11.2c1.7,0.4,3.5,0.6,5.2,0.6c4.8,0,9.6-1.4,13.8-4.2c5.7-3.8,9.6-9.6,11.1-16.4v0
				c1.5-6.8,0.3-13.7-3.4-19.5c-3.6-5.8-9.2-9.7-15.8-11.2C51.9,25.3,50.2,25.1,48.4,25.1z"/>
		</g>
		<g>
			<path class="st3" d="M71.3,79.5C55,92.7,31.5,90.1,18.7,73.6c-5.1-6.6-7.7-14.4-8-22.2l-2,17c0,0,4,19.4,23.9,22.8
				C32.7,91.2,57.4,98.3,71.3,79.5z"/>
		</g>
		<g>
			<path class="st1" d="M50.8,41.4c-1.2,5.4-6.7,8.7-12.3,7.5c-5.7-1.2-9.3-6.6-8.1-11.9c1.2-5.4,6.7-8.7,12.3-7.5
				C48.3,30.7,52,36.1,50.8,41.4z"/>
		</g>
		<g>
			<path class="st1" d="M51.8,52.6c-0.4,1.7-2.1,2.7-3.8,2.3c-1.8-0.4-2.9-2-2.5-3.7c0.4-1.7,2.1-2.7,3.8-2.3
				C51,49.2,52.1,50.9,51.8,52.6z"/>
		</g>
		<g>
			<path class="st1" d="M53.5,57.4c-0.1,0.7-0.9,1.1-1.6,1c-0.7-0.2-1.2-0.9-1.1-1.5c0.1-0.7,0.9-1.1,1.6-1
				C53.2,56,53.7,56.7,53.5,57.4z"/>
		</g>
		<g>
			<g>
				<path class="st3" d="M59.6,8.6c-7.9-1.3-18-0.7-26.8,7.1c7.8-3.9,17.2-5.1,25.1-2.9C58.4,11.5,58.7,10.5,59.6,8.6z"/>
			</g>
			<g>
				<path class="st3" d="M84.5,37.7c1.4,5.6,2.1,13.6,1.1,19.1l5.6-16.1c0,0-0.4-3.6-1.3-6.6C88.3,35.2,86.9,36.1,84.5,37.7z"/>
			</g>
		</g>
	</g>
	<g>
		<path class="st3" d="M63.8,9.3l-2.3,5.4l3.1,1.3c0.2,0.1,0.4,0.2,0.5,0.4c0.1,0.2,0.1,0.4,0,0.5c-0.1,0.2-0.2,0.3-0.4,0.4
			c-0.2,0.1-0.4,0-0.6-0.1l-3.7-1.5c-0.3-0.1-0.5-0.3-0.6-0.5c-0.1-0.2-0.1-0.5,0.1-0.8l2.4-5.8c0.1-0.3,0.3-0.5,0.5-0.6
			c0.2-0.1,0.4-0.1,0.6,0c0.2,0.1,0.4,0.2,0.5,0.5C63.9,8.7,63.9,8.9,63.8,9.3z"/>
		<path class="st3" d="M74.3,15.6l-1.5-1l-3.3,4.9c-0.2,0.3-0.4,0.4-0.6,0.5s-0.4,0-0.6-0.1c-0.2-0.1-0.3-0.3-0.4-0.5
			c0-0.2,0-0.5,0.2-0.8l3.3-4.9l-1.5-1c-0.2-0.2-0.4-0.3-0.4-0.5c0-0.2,0-0.4,0.1-0.5c0.1-0.2,0.3-0.3,0.5-0.3c0.2,0,0.4,0,0.6,0.2
			l4.3,2.9c0.2,0.2,0.4,0.3,0.4,0.5c0,0.2,0,0.4-0.1,0.5c-0.1,0.2-0.3,0.3-0.4,0.3C74.7,15.9,74.5,15.8,74.3,15.6z"/>
		<path class="st3" d="M79.3,26.5c-0.4,0.3-0.8,0.5-1.2,0.6c-0.5,0.1-0.9,0-1.4-0.2c-0.5-0.2-1-0.6-1.4-1.1c-0.5-0.6-0.9-1.2-1-1.8
			c-0.1-0.4-0.1-0.8,0-1.3c0.1-0.4,0.3-0.7,0.5-1c0.1-0.1,0.3-0.2,0.5-0.2c0.2,0,0.4,0.1,0.5,0.2c0.1,0.1,0.2,0.3,0.2,0.4
			c0,0.2-0.1,0.3-0.2,0.6c-0.1,0.3-0.2,0.5-0.3,0.7c0,0.2,0,0.4,0,0.7c0.1,0.2,0.2,0.5,0.5,0.7c0.3,0.4,0.7,0.6,1.1,0.6
			c0.4,0.1,0.7,0,0.9-0.2c0.2-0.2,0.3-0.4,0.3-0.6c0-0.2,0-0.5-0.1-0.7c-0.1-0.3-0.3-0.6-0.5-1c-0.3-0.5-0.5-1-0.6-1.4
			c-0.1-0.4-0.2-0.8-0.1-1.2c0.1-0.4,0.3-0.7,0.6-1c0.3-0.3,0.7-0.5,1.1-0.5c0.4-0.1,0.9,0,1.3,0.2c0.4,0.2,0.9,0.6,1.3,1
			c0.3,0.4,0.6,0.7,0.7,1.1c0.2,0.4,0.2,0.7,0.2,1c0,0.3,0,0.6-0.1,0.8c-0.1,0.2-0.2,0.4-0.4,0.6c-0.1,0.1-0.3,0.2-0.5,0.2
			c-0.2,0-0.4-0.1-0.5-0.2c-0.1-0.1-0.2-0.3-0.2-0.4c0-0.1,0-0.3,0.1-0.5c0.1-0.3,0.2-0.6,0.2-0.9c0-0.3-0.2-0.6-0.5-0.9
			c-0.3-0.3-0.6-0.5-0.9-0.6c-0.3-0.1-0.6,0-0.8,0.2c-0.1,0.1-0.2,0.2-0.2,0.4c0,0.1,0,0.3,0,0.5c0,0.2,0.1,0.3,0.2,0.5
			c0.1,0.1,0.2,0.4,0.4,0.7c0.2,0.4,0.4,0.8,0.6,1.2c0.2,0.4,0.3,0.7,0.3,1c0,0.3,0,0.6-0.1,0.9C79.8,25.9,79.6,26.2,79.3,26.5z"/>
		<path class="st3" d="M87.9,32.2L86.1,29l-1.7,1l1.6,3c0.1,0.2,0.2,0.4,0.1,0.6c0,0.2-0.1,0.3-0.3,0.4c-0.2,0.1-0.3,0.1-0.5,0.1
			c-0.2-0.1-0.3-0.2-0.4-0.4l-1.6-3l-2,1.1l1.8,3.4c0.1,0.2,0.2,0.4,0.1,0.6c0,0.2-0.2,0.3-0.3,0.4c-0.2,0.1-0.3,0.1-0.5,0.1
			c-0.2-0.1-0.3-0.2-0.4-0.4l-2.1-3.9c-0.2-0.3-0.2-0.6-0.2-0.8c0.1-0.2,0.3-0.4,0.6-0.6l5.4-2.9c0.2-0.1,0.4-0.2,0.6-0.2
			c0.2,0,0.3,0,0.4,0.1c0.1,0.1,0.3,0.3,0.4,0.5l2.1,3.8c0.1,0.2,0.2,0.4,0.1,0.6c0,0.2-0.1,0.3-0.3,0.4c-0.2,0.1-0.3,0.1-0.5,0.1
			C88.1,32.6,88,32.4,87.9,32.2z"/>
	</g>
</g>
</svg>
