<?xml version="1.0" encoding="utf-8"?>
<!-- Generator: Adobe Illustrator 26.1.0, SVG Export Plug-In . SVG Version: 6.00 Build 0)  -->
<svg version="1.1" xmlns="http://www.w3.org/2000/svg" xmlns:xlink="http://www.w3.org/1999/xlink" x="0px" y="0px"
	 viewBox="0 0 216 144" style="enable-background:new 0 0 216 144;" xml:space="preserve">
<style type="text/css">
	.st0{display:none;}
	.st1{display:inline;fill:#00853E;}
	.st2{fill:#00853E;}
	.st3{fill:#FFFFFF;}
	.st4{fill:#231F20;}
</style>
<g id="Layer_2" class="st0">
</g>
<g id="Layer_1">
	<g>
		<g>
			<path class="st2" d="M36.22,90.03c-2.23,0-3.79-1.69-3.79-3.75s1.58-3.77,3.81-3.77c2.23,0,3.79,1.69,3.79,3.75
				C40.03,88.32,38.45,90.03,36.22,90.03z M36.22,83.69c-1.44,0-2.45,1.15-2.45,2.57c0,1.42,1.03,2.59,2.47,2.59
				c1.44,0,2.45-1.15,2.45-2.57C38.69,84.87,37.66,83.69,36.22,83.69z"/>
			<path class="st2" d="M47.13,83.81H43v1.98h3.66v1.16H43v2.96h-1.28v-7.26h5.41V83.81z"/>
			<path class="st2" d="M53.92,83.81h-4.13v1.98h3.66v1.16h-3.66v2.96h-1.28v-7.26h5.41V83.81z"/>
			<path class="st2" d="M56.65,82.65v7.26h-1.28v-7.26H56.65z"/>
			<path class="st2" d="M62.04,90.03c-2.12,0-3.69-1.65-3.69-3.75c0-2.08,1.55-3.77,3.75-3.77c1.34,0,2.15,0.47,2.84,1.13
				l-0.82,0.94c-0.58-0.54-1.2-0.9-2.03-0.9c-1.39,0-2.4,1.14-2.4,2.57c0,1.43,1.01,2.59,2.4,2.59c0.89,0,1.46-0.36,2.09-0.94
				l0.82,0.83C64.23,89.53,63.4,90.03,62.04,90.03z"/>
			<path class="st2" d="M71.79,83.79h-4.11v1.89h3.64v1.14h-3.64v1.95h4.16v1.14H66.4v-7.26h5.39V83.79z"/>
			<path class="st2" d="M79.93,90.03c-2.23,0-3.79-1.69-3.79-3.75s1.58-3.77,3.81-3.77c2.23,0,3.79,1.69,3.79,3.75
				C83.74,88.32,82.16,90.03,79.93,90.03z M79.93,83.69c-1.44,0-2.45,1.15-2.45,2.57c0,1.42,1.03,2.59,2.47,2.59
				c1.44,0,2.45-1.15,2.45-2.57C82.4,84.87,81.38,83.69,79.93,83.69z"/>
			<path class="st2" d="M90.84,83.81h-4.13v1.98h3.66v1.16h-3.66v2.96h-1.28v-7.26h5.41V83.81z"/>
			<path class="st2" d="M98.42,89.91h-1.29v-6.08h-2.3v-1.18h5.89v1.18h-2.3V89.91z"/>
			<path class="st2" d="M103.37,86.85v3.06h-1.28v-7.26h1.28v3.02h3.47v-3.02h1.28v7.26h-1.28v-3.06H103.37z"/>
			<path class="st2" d="M115.54,83.79h-4.11v1.89h3.64v1.14h-3.64v1.95h4.16v1.14h-5.44v-7.26h5.38V83.79z"/>
			<path class="st2" d="M122.94,87.57h-1.44v2.33h-1.28v-7.26h2.86c1.69,0,2.76,0.95,2.76,2.44
				C125.85,86.72,124.54,87.57,122.94,87.57z M122.98,83.81h-1.48v2.61h1.48c0.96,0,1.57-0.53,1.57-1.31
				C124.55,84.25,123.94,83.81,122.98,83.81z"/>
			<path class="st2" d="M131.9,89.91l-1.78-2.53h-1.6v2.53h-1.28v-7.26h3.24c1.67,0,2.7,0.88,2.7,2.3c0,1.2-0.72,1.93-1.73,2.21
				l1.96,2.75H131.9z M130.38,83.81h-1.86v2.44h1.87c0.91,0,1.49-0.48,1.49-1.22C131.88,84.22,131.32,83.81,130.38,83.81z"/>
			<path class="st2" d="M138.23,90.03c-2.23,0-3.79-1.69-3.79-3.75s1.58-3.77,3.81-3.77s3.79,1.69,3.79,3.75
				C142.04,88.32,140.46,90.03,138.23,90.03z M138.23,83.69c-1.44,0-2.45,1.15-2.45,2.57c0,1.42,1.03,2.59,2.47,2.59
				s2.45-1.15,2.45-2.57C140.7,84.87,139.67,83.69,138.23,83.69z"/>
			<path class="st2" d="M148.44,82.65h1.38l-3.02,7.31h-1.12l-3.02-7.31h1.41l2.19,5.58L148.44,82.65z"/>
			<path class="st2" d="M154.21,90.03c-2.23,0-3.79-1.69-3.79-3.75s1.58-3.77,3.81-3.77s3.79,1.69,3.79,3.75
				C158.02,88.32,156.44,90.03,154.21,90.03z M154.21,83.69c-1.44,0-2.45,1.15-2.45,2.57c0,1.42,1.03,2.59,2.47,2.59
				s2.45-1.15,2.45-2.57C156.68,84.87,155.65,83.69,154.21,83.69z"/>
			<path class="st2" d="M162.37,85.7c1.54,0.37,2.33,0.92,2.33,2.14c0,1.37-1.07,2.18-2.59,2.18c-1.11,0-2.16-0.38-3.03-1.16
				l0.77-0.91c0.7,0.6,1.39,0.94,2.29,0.94c0.79,0,1.29-0.36,1.29-0.92c0-0.53-0.29-0.81-1.64-1.12c-1.55-0.37-2.42-0.83-2.42-2.18
				c0-1.27,1.04-2.12,2.48-2.12c1.06,0,1.9,0.32,2.64,0.91l-0.68,0.96c-0.65-0.49-1.31-0.75-1.97-0.75c-0.75,0-1.18,0.38-1.18,0.87
				C160.65,85.11,160.98,85.36,162.37,85.7z"/>
			<path class="st2" d="M169.36,89.91h-1.29v-6.08h-2.3v-1.18h5.89v1.18h-2.3V89.91z"/>
			<path class="st2" d="M181.15,90.05l-0.96-0.99c-0.62,0.58-1.35,0.94-2.23,0.94c-1.35,0-2.37-0.81-2.37-2.08
				c0-0.94,0.55-1.62,1.55-2.04c-0.42-0.54-0.6-0.99-0.6-1.52c0-0.99,0.79-1.84,2.09-1.84c1.15,0,1.93,0.77,1.93,1.76
				c0,0.96-0.63,1.54-1.6,1.9l1.25,1.27c0.28-0.42,0.54-0.89,0.78-1.4l0.96,0.51c-0.29,0.58-0.61,1.15-0.99,1.66l1.14,1.16
				L181.15,90.05z M177.84,86.67c-0.67,0.29-0.96,0.74-0.96,1.21c0,0.62,0.51,1.07,1.21,1.07c0.5,0,0.95-0.24,1.37-0.63
				L177.84,86.67z M178.59,83.53c-0.52,0-0.86,0.36-0.86,0.88c0,0.37,0.15,0.64,0.55,1.09c0.75-0.27,1.14-0.6,1.14-1.14
				C179.42,83.85,179.08,83.53,178.59,83.53z"/>
			<path class="st2" d="M19.87,101.58h-2.71v-7.26h2.71c2.28,0,3.86,1.57,3.86,3.62C23.73,99.99,22.16,101.58,19.87,101.58z
				 M19.87,95.48h-1.43v4.94h1.43c1.52,0,2.52-1.03,2.52-2.46S21.4,95.48,19.87,95.48z"/>
			<path class="st2" d="M26.71,94.32v7.26h-1.28v-7.26H26.71z"/>
			<path class="st2" d="M33.82,94.32h1.38l-3.02,7.32h-1.12l-3.02-7.32h1.41l2.19,5.58L33.82,94.32z"/>
			<path class="st2" d="M37.83,94.32v7.26h-1.28v-7.26H37.83z"/>
			<path class="st2" d="M42.67,97.37c1.54,0.37,2.33,0.92,2.33,2.14c0,1.37-1.07,2.18-2.59,2.18c-1.11,0-2.16-0.38-3.03-1.16
				l0.77-0.91c0.7,0.6,1.39,0.94,2.29,0.94c0.79,0,1.29-0.36,1.29-0.92c0-0.53-0.29-0.81-1.64-1.12c-1.55-0.37-2.42-0.83-2.42-2.18
				c0-1.27,1.04-2.12,2.48-2.12c1.06,0,1.9,0.32,2.64,0.91l-0.68,0.96c-0.65-0.49-1.31-0.75-1.97-0.75c-0.75,0-1.18,0.38-1.18,0.87
				C40.95,96.79,41.28,97.04,42.67,97.37z"/>
			<path class="st2" d="M47.98,94.32v7.26H46.7v-7.26H47.98z"/>
			<path class="st2" d="M53.47,101.71c-2.23,0-3.79-1.69-3.79-3.75s1.58-3.77,3.81-3.77c2.23,0,3.79,1.69,3.79,3.75
				C57.28,99.99,55.7,101.71,53.47,101.71z M53.47,95.37c-1.44,0-2.45,1.15-2.45,2.57c0,1.42,1.03,2.59,2.47,2.59
				c1.44,0,2.45-1.15,2.45-2.57S54.91,95.37,53.47,95.37z"/>
			<path class="st2" d="M64.04,94.32h1.26v7.26h-1.07l-4-5.17v5.17h-1.26v-7.26h1.18l3.89,5.02V94.32z"/>
			<path class="st2" d="M73.74,101.71c-2.23,0-3.79-1.69-3.79-3.75s1.58-3.77,3.81-3.77c2.23,0,3.79,1.69,3.79,3.75
				C77.55,99.99,75.98,101.71,73.74,101.71z M73.74,95.37c-1.44,0-2.45,1.15-2.45,2.57c0,1.42,1.03,2.59,2.47,2.59
				c1.44,0,2.45-1.15,2.45-2.57S75.19,95.37,73.74,95.37z"/>
			<path class="st2" d="M84.65,95.48h-4.13v1.98h3.66v1.16h-3.66v2.96h-1.28v-7.26h5.41V95.48z"/>
			<path class="st2" d="M96.11,101.58h-1.35l-0.74-1.75h-3.43l-0.75,1.75h-1.31l3.2-7.32h1.18L96.11,101.58z M92.31,95.79
				l-1.25,2.91h2.5L92.31,95.79z"/>
			<path class="st2" d="M100.41,101.71c-2.12,0-3.69-1.65-3.69-3.75c0-2.08,1.55-3.77,3.75-3.77c1.34,0,2.15,0.47,2.84,1.13
				l-0.82,0.94c-0.58-0.54-1.2-0.9-2.03-0.9c-1.39,0-2.4,1.14-2.4,2.57c0,1.43,1.01,2.59,2.4,2.59c0.89,0,1.46-0.36,2.09-0.94
				l0.82,0.83C102.6,101.21,101.77,101.71,100.41,101.71z"/>
			<path class="st2" d="M111.76,101.58h-1.35l-0.74-1.75h-3.43l-0.75,1.75h-1.31l3.2-7.32h1.18L111.76,101.58z M107.95,95.79
				l-1.25,2.91h2.5L107.95,95.79z"/>
			<path class="st2" d="M115.78,101.58h-2.71v-7.26h2.71c2.28,0,3.86,1.57,3.86,3.62C119.64,99.99,118.07,101.58,115.78,101.58z
				 M115.78,95.48h-1.43v4.94h1.43c1.53,0,2.52-1.03,2.52-2.46S117.31,95.48,115.78,95.48z"/>
			<path class="st2" d="M126.7,95.46h-4.11v1.89h3.64v1.14h-3.64v1.95h4.16v1.14h-5.44v-7.26h5.38V95.46z"/>
			<path class="st2" d="M132.01,99.8h-0.04l-2.27-3.4v5.19h-1.26v-7.26h1.36l2.21,3.43l2.21-3.43h1.36v7.26h-1.28v-5.21L132.01,99.8
				z"/>
			<path class="st2" d="M138.95,94.32v7.26h-1.28v-7.26H138.95z"/>
			<path class="st2" d="M144.34,101.71c-2.12,0-3.69-1.65-3.69-3.75c0-2.08,1.55-3.77,3.75-3.77c1.34,0,2.15,0.47,2.84,1.13
				l-0.82,0.94c-0.58-0.54-1.2-0.9-2.03-0.9c-1.39,0-2.4,1.14-2.4,2.57c0,1.43,1.01,2.59,2.4,2.59c0.89,0,1.46-0.36,2.08-0.94
				l0.82,0.83C146.53,101.21,145.7,101.71,144.34,101.71z"/>
			<path class="st2" d="M158.69,101.58h-1.35l-0.74-1.75h-3.43l-0.75,1.75h-1.31l3.2-7.32h1.18L158.69,101.58z M154.89,95.79
				l-1.25,2.91h2.5L154.89,95.79z"/>
			<path class="st2" d="M165.41,95.48h-4.13v1.98h3.66v1.16h-3.66v2.96h-1.28v-7.26h5.41V95.48z"/>
			<path class="st2" d="M172.21,95.48h-4.13v1.98h3.66v1.16h-3.66v2.96h-1.28v-7.26h5.41V95.48z"/>
			<path class="st2" d="M180.03,101.58h-1.35l-0.74-1.75h-3.43l-0.75,1.75h-1.31l3.2-7.32h1.18L180.03,101.58z M176.22,95.79
				l-1.25,2.91h2.5L176.22,95.79z"/>
			<path class="st2" d="M182.66,94.32v7.26h-1.28v-7.26H182.66z"/>
			<path class="st2" d="M189.39,101.58l-1.79-2.53h-1.6v2.53h-1.28v-7.26h3.24c1.67,0,2.7,0.88,2.7,2.3c0,1.2-0.72,1.93-1.73,2.21
				l1.96,2.75H189.39z M187.86,95.48h-1.86v2.44h1.87c0.91,0,1.49-0.48,1.49-1.22C189.37,95.9,188.81,95.48,187.86,95.48z"/>
			<path class="st2" d="M195.1,97.37c1.54,0.37,2.33,0.92,2.33,2.14c0,1.37-1.07,2.18-2.59,2.18c-1.11,0-2.16-0.38-3.03-1.16
				l0.77-0.91c0.7,0.6,1.39,0.94,2.29,0.94c0.79,0,1.29-0.36,1.29-0.92c0-0.53-0.29-0.81-1.64-1.12c-1.55-0.37-2.42-0.83-2.42-2.18
				c0-1.27,1.04-2.12,2.48-2.12c1.06,0,1.9,0.32,2.64,0.91l-0.69,0.96c-0.65-0.49-1.31-0.75-1.97-0.75c-0.75,0-1.18,0.38-1.18,0.87
				C193.37,96.79,193.7,97.04,195.1,97.37z"/>
			<path class="st2" d="M51.16,113.25h-0.88l-0.85-1.92h-3.95l-0.86,1.92h-0.84l3.31-7.32h0.77L51.16,113.25z M47.45,106.89
				l-1.66,3.7h3.31L47.45,106.89z"/>
			<path class="st2" d="M54.94,113.38c-1.57,0-2.75-1.28-2.75-2.79c0-1.52,1.18-2.81,2.75-2.81c1.02,0,1.65,0.43,2.15,0.96
				l-0.53,0.56c-0.43-0.45-0.9-0.81-1.63-0.81c-1.09,0-1.92,0.92-1.92,2.09c0,1.17,0.85,2.1,1.97,2.1c0.68,0,1.21-0.34,1.64-0.8
				l0.51,0.48C56.59,112.94,55.95,113.38,54.94,113.38z"/>
			<path class="st2" d="M59.11,108.92l-0.24-0.65c0.59-0.27,1.17-0.45,1.95-0.45c1.46,0,2.28,0.75,2.28,2.16v3.28h-0.77v-0.81
				c-0.37,0.49-1,0.92-1.94,0.92c-1,0-2-0.56-2-1.68c0-1.14,0.93-1.74,2.29-1.74c0.69,0,1.17,0.09,1.65,0.23v-0.19
				c0-0.96-0.59-1.46-1.6-1.46C60.1,108.52,59.6,108.69,59.11,108.92z M59.2,111.66c0,0.68,0.62,1.08,1.35,1.08
				c0.99,0,1.79-0.6,1.79-1.45v-0.52c-0.39-0.11-0.92-0.23-1.58-0.23C59.76,110.53,59.2,110.97,59.2,111.66z"/>
			<path class="st2" d="M69.4,113.25v-1.08c-0.44,0.64-1.07,1.19-2.05,1.19c-1.29,0-2.56-1.02-2.56-2.79c0-1.76,1.28-2.8,2.56-2.8
				c1,0,1.64,0.54,2.05,1.14v-3.24h0.8v7.57H69.4z M67.49,108.49c-1.04,0-1.89,0.77-1.89,2.08c0,1.28,0.87,2.09,1.89,2.09
				c1,0,1.94-0.83,1.94-2.09C69.43,109.32,68.49,108.49,67.49,108.49z"/>
			<path class="st2" d="M74.64,112.68c0.74,0,1.26-0.3,1.69-0.76l0.5,0.45c-0.54,0.6-1.19,1.01-2.21,1.01
				c-1.47,0-2.68-1.13-2.68-2.8c0-1.56,1.09-2.8,2.57-2.8c1.59,0,2.5,1.27,2.5,2.84c0,0.07,0,0.16-0.01,0.25h-4.25
				C72.86,112.03,73.69,112.68,74.64,112.68z M76.2,110.28c-0.08-0.98-0.64-1.83-1.71-1.83c-0.93,0-1.64,0.78-1.74,1.83H76.2z"/>
			<path class="st2" d="M84.86,107.77c1.23,0,1.99,0.83,1.99,2.16v3.32h-0.8v-3.13c0-1.04-0.52-1.62-1.39-1.62
				c-0.81,0-1.48,0.6-1.48,1.66v3.09h-0.79v-3.15c0-1.01-0.53-1.6-1.38-1.6c-0.85,0-1.49,0.71-1.49,1.69v3.06h-0.8v-5.36h0.8v0.9
				c0.35-0.53,0.83-1.02,1.73-1.02c0.87,0,1.43,0.47,1.72,1.07C83.36,108.25,83.93,107.77,84.86,107.77z"/>
			<path class="st2" d="M88.85,106.72v-0.88h0.91v0.88H88.85z M88.9,113.25v-5.36h0.8v5.36H88.9z"/>
			<path class="st2" d="M94.19,113.38c-1.57,0-2.75-1.28-2.75-2.79c0-1.52,1.18-2.81,2.75-2.81c1.02,0,1.65,0.43,2.15,0.96
				l-0.53,0.56c-0.43-0.45-0.9-0.81-1.63-0.81c-1.09,0-1.92,0.92-1.92,2.09c0,1.17,0.85,2.1,1.97,2.1c0.68,0,1.21-0.34,1.64-0.8
				l0.51,0.48C95.84,112.94,95.19,113.38,94.19,113.38z"/>
			<path class="st2" d="M104.1,113.25h-0.83v-6.51h-2.44v-0.76h5.71v0.76h-2.44V113.25z"/>
			<path class="st2" d="M109.64,112.68c0.74,0,1.25-0.3,1.69-0.76l0.5,0.45c-0.54,0.6-1.19,1.01-2.21,1.01
				c-1.47,0-2.68-1.13-2.68-2.8c0-1.56,1.09-2.8,2.57-2.8c1.59,0,2.5,1.27,2.5,2.84c0,0.07,0,0.16-0.01,0.25h-4.25
				C107.87,112.03,108.7,112.68,109.64,112.68z M111.21,110.28c-0.08-0.98-0.64-1.83-1.71-1.83c-0.93,0-1.64,0.78-1.74,1.83H111.21z
				"/>
			<path class="st2" d="M116.13,113.38c-1.57,0-2.75-1.28-2.75-2.79c0-1.52,1.18-2.81,2.75-2.81c1.02,0,1.65,0.43,2.15,0.96
				l-0.53,0.56c-0.43-0.45-0.9-0.81-1.63-0.81c-1.09,0-1.92,0.92-1.92,2.09c0,1.17,0.85,2.1,1.97,2.1c0.68,0,1.21-0.34,1.64-0.8
				l0.51,0.48C117.78,112.94,117.14,113.38,116.13,113.38z"/>
			<path class="st2" d="M120.66,113.25h-0.8v-7.57h0.8v3.14c0.35-0.58,0.91-1.05,1.84-1.05c1.3,0,2.05,0.87,2.05,2.15v3.33h-0.8
				v-3.13c0-1-0.54-1.62-1.48-1.62c-0.92,0-1.61,0.67-1.61,1.68V113.25z"/>
			<path class="st2" d="M127.35,113.25h-0.8v-5.36h0.8v0.93c0.35-0.58,0.91-1.05,1.84-1.05c1.3,0,2.05,0.87,2.05,2.15v3.33h-0.8
				v-3.13c0-1-0.54-1.62-1.48-1.62c-0.92,0-1.61,0.67-1.61,1.68V113.25z"/>
			<path class="st2" d="M135.68,113.38c-1.61,0-2.78-1.27-2.78-2.79c0-1.52,1.18-2.81,2.8-2.81c1.61,0,2.79,1.27,2.79,2.79
				S137.29,113.38,135.68,113.38z M135.68,108.48c-1.16,0-1.96,0.92-1.96,2.09s0.85,2.1,1.98,2.1c1.16,0,1.97-0.92,1.97-2.08
				C137.67,109.41,136.81,108.48,135.68,108.48z"/>
			<path class="st2" d="M140.25,113.25v-7.57h0.8v7.57H140.25z"/>
			<path class="st2" d="M145.59,113.38c-1.61,0-2.78-1.27-2.78-2.79c0-1.52,1.18-2.81,2.8-2.81c1.61,0,2.79,1.27,2.79,2.79
				S147.21,113.38,145.59,113.38z M145.59,108.48c-1.16,0-1.96,0.92-1.96,2.09s0.85,2.1,1.98,2.1c1.16,0,1.97-0.92,1.97-2.08
				C147.58,109.41,146.72,108.48,145.59,108.48z"/>
			<path class="st2" d="M152.49,114.93c-0.89,0-1.72-0.25-2.44-0.75l0.36-0.62c0.61,0.45,1.3,0.68,2.06,0.68
				c1.18,0,1.95-0.65,1.95-1.91v-0.63c-0.47,0.62-1.12,1.13-2.11,1.13c-1.29,0-2.52-0.95-2.52-2.52c0-1.58,1.25-2.54,2.52-2.54
				c1.01,0,1.66,0.5,2.1,1.08v-0.96h0.8v4.43C155.22,114.05,154.14,114.93,152.49,114.93z M152.48,108.48
				c-1.02,0-1.86,0.7-1.86,1.82c0,1.1,0.86,1.84,1.86,1.84c1.02,0,1.97-0.73,1.97-1.83C154.45,109.2,153.5,108.48,152.48,108.48z"/>
			<path class="st2" d="M157.26,106.72v-0.88h0.91v0.88H157.26z M157.31,113.25v-5.36h0.8v5.36H157.31z"/>
			<path class="st2" d="M162.56,112.68c0.74,0,1.25-0.3,1.69-0.76l0.5,0.45c-0.54,0.6-1.19,1.01-2.21,1.01
				c-1.47,0-2.68-1.13-2.68-2.8c0-1.56,1.09-2.8,2.57-2.8c1.59,0,2.5,1.27,2.5,2.84c0,0.07,0,0.16-0.01,0.25h-4.25
				C160.79,112.03,161.62,112.68,162.56,112.68z M164.13,110.28c-0.08-0.98-0.64-1.83-1.71-1.83c-0.93,0-1.64,0.78-1.74,1.83H164.13
				z"/>
			<path class="st2" d="M168.37,113.36c-0.77,0-1.62-0.3-2.22-0.79l0.41-0.57c0.58,0.44,1.22,0.69,1.86,0.69
				c0.64,0,1.11-0.33,1.11-0.85v-0.02c0-0.54-0.63-0.75-1.34-0.94c-0.84-0.24-1.77-0.53-1.77-1.51v-0.02c0-0.92,0.77-1.54,1.83-1.54
				c0.65,0,1.38,0.23,1.93,0.59l-0.36,0.6c-0.5-0.32-1.07-0.52-1.59-0.52c-0.63,0-1.04,0.33-1.04,0.78v0.02
				c0,0.51,0.66,0.71,1.38,0.92c0.83,0.25,1.72,0.57,1.72,1.54v0.02C170.28,112.77,169.44,113.36,168.37,113.36z"/>
		</g>
		<g>
			<g>
				<rect x="88.08" y="70.18" class="st2" width="62.57" height="1.68"/>
			</g>
			<g>
				<g>
					<path class="st2" d="M82.09,70.75c-0.42-0.15-1.18,0.17-1.18,0.17c-0.18-1.08-1.39-2.56-1.39-2.56S81.94,70.6,82.09,70.75
						c0.02-0.06,0.77-1.69-0.75-3.1c-2.27-2.12-6.63-6.1-6.62-6.07c0.31,0.97,2.05,4.12,1.13,9.95l2.24,0.42l0.27,0.45
						c0,0,2.56,0.34,2.96,0.72c0,0,0.88,0.62-0.06,1.46c0,0,1.45-0.28,2.26-1.08c0,0,0.74-0.64-0.13-1.53L82.09,70.75"/>
					<path class="st2" d="M70,57.03L37.87,27.05c-1.55-1.51-0.94-3.42-0.94-3.42l-2.63,5.79c-0.71,1.82,0.38,2.97,1.14,3.58
						c0.76,0.61,25.64,20.75,25.64,20.75l0.02,0.84l-24.74-19c-1.23-0.93-1.08-2.43-1.08-2.43l-1.79,3.69
						c-0.87,2.07,1.27,3.4,2.17,4.01c0.89,0.61,25.56,17.79,25.56,17.79l0.22,1.03c0,0-23.9-15.91-24.78-16.45
						c-1.06-0.65-0.98-2.16-0.98-2.16l-1.75,3.74c-0.73,1.53,1.36,2.59,2.28,3.15c0.54,0.33,13.91,8.31,24.93,14.86l-14.3,0
						c-2.11,0-2.81-0.62-2.81-0.62L45.94,64c0.33,0.3,1.19,1.38,2.45,1.38c0.89,0,5.27,0.01,5.27,0.01l1.04,0.45l-4.6,0.36
						c-0.92,0.04-1.17,0.14-2.39-0.54c-0.01-0.01,2.04,2,2.04,2c0.57,0.49,1.03,0.97,2,0.89c0.98-0.08,6.75-1.04,6.75-1.04
						l0.92,0.41l-6.06,1.32c-1.38,0.3-2.38-0.41-2.38-0.41s1.15,1.13,1.91,1.86c0.79,0.76,1.49,1.23,3.99,0.53
						c0.99-0.28,5.92-1.84,5.92-1.84l3.17,1.38c3.19,4.41,7.16,6.75,7.16,6.75c-0.76,0.89-0.12,1.95-0.12,1.95
						c0.66-1.34,2.14-2.07,3.25-1.91c0.97,0.14,0.71,1.32,0.75,1.28c0.6-0.76,1.09-1.67,0.49-2.44c-0.73-0.94-2.61-0.13-2.61-0.13
						l-1.83-3.34l2.48-1.42C76.9,62.89,70,57.03,70,57.03"/>
					<polyline class="st2" points="136.34,29.05 133.54,36.78 137.81,36.78 138.86,33.82 143.05,33.81 143.04,55 140.67,55 
						138.95,59.77 150.72,59.78 152.49,55 149.19,55 149.18,33.82 154.1,33.82 154.09,36.77 157.06,36.77 159.85,29.04 
						136.34,29.05 					"/>
					<path class="st2" d="M130.82,33.81l0.02,25.97l-3.62,0c0,0-16.86-17.77-17.99-18.96c0,2.52-0.01,14.19-0.01,14.19h3.33
						l-1.73,4.79H99.94l1.73-4.79h1.87l0-21.18h-3.96l1.72-4.78h6.68c0,0,12.89,13.45,17.36,18.18c0-1.46-0.01-13.4-0.01-13.4
						l-3.24,0l1.71-4.8h11.14l-1.72,4.8L130.82,33.81"/>
					<path class="st2" d="M88.93,29.05l-1.77,4.78l2.99-0.01v13.89c0,2.56-0.46,3.98-1.71,5.24c-0.98,0.99-2.65,1.61-4.36,1.61
						c-2.07,0-3.92-0.69-5.08-1.9c-1.17-1.15-1.73-3.06-1.73-5.82l-0.01-17.8l-8.67,0.02l-1.76,4.76l3.69-0.02v13.22
						c0,0.07,0,0.13,0,0.19c-0.94-1.22-1.78-2.12-2.24-2.64c-0.42-0.48-15.33-17.24-15.33-17.24c-1.29-1.43-0.84-2.55-0.8-2.64
						l-1.74,3.9c-0.39,1.07,0.34,1.77,0.87,2.38c0.53,0.61,16.2,16.99,16.2,16.99l-0.1,0.9L52.55,34.06
						c-1.19-1.22-0.87-2.15-0.81-2.28l-1.59,3.59c-0.36,1.11,0.78,1.85,1.57,2.61c0.84,0.81,17.35,16.25,18.7,17.48
						c2.89,2.63,4.3,6.11,4.3,6.11c0.25-1.29,0.31-2.54,0.24-3.74c2.96,2.3,6.6,2.59,8.22,2.59c7.67,0,12.63-4.96,12.63-12.63
						l0.03-13.96h2.2l1.71-4.78H88.93z"/>
					<path class="st2" d="M158.73,34.66c0.56,0,1.01,0.47,1.01,1.06c0,0.6-0.45,1.07-1.02,1.07c-0.56,0-1.02-0.47-1.02-1.07
						C157.7,35.13,158.16,34.66,158.73,34.66L158.73,34.66z M158.73,34.83c-0.46,0-0.83,0.4-0.83,0.89c0,0.51,0.37,0.9,0.83,0.9
						c0.46,0,0.83-0.4,0.83-0.9C159.56,35.23,159.19,34.83,158.73,34.83L158.73,34.83z M158.53,36.34h-0.18v-1.19
						c0.09-0.01,0.18-0.03,0.33-0.03c0.17,0,0.28,0.04,0.36,0.09c0.07,0.05,0.11,0.13,0.11,0.25c0,0.16-0.1,0.25-0.22,0.29v0.01
						c0.1,0.02,0.17,0.11,0.19,0.29c0.03,0.18,0.05,0.26,0.07,0.29h-0.19c-0.03-0.04-0.05-0.15-0.08-0.3
						c-0.03-0.15-0.1-0.21-0.25-0.21h-0.13V36.34z M158.53,35.69h0.13c0.15,0,0.28-0.06,0.28-0.2c0-0.1-0.07-0.21-0.28-0.21
						c-0.06,0-0.1,0-0.13,0.01V35.69z"/>
				</g>
			</g>
		</g>
	</g>
</g>
</svg>
