<?xml version="1.0" encoding="utf-8"?>
<!-- Generator: Adobe Illustrator 26.1.0, SVG Export Plug-In . SVG Version: 6.00 Build 0)  -->
<svg version="1.1" xmlns="http://www.w3.org/2000/svg" xmlns:xlink="http://www.w3.org/1999/xlink" x="0px" y="0px"
	 viewBox="0 0 342 72" style="enable-background:new 0 0 342 72;" xml:space="preserve">
<style type="text/css">
	.st0{display:none;}
	.st1{display:inline;fill:#00853E;}
	.st2{fill:#00853E;}
	.st3{fill:#FFFFFF;}
	.st4{fill:#231F20;}
</style>
<g id="Layer_2" class="st0">
</g>
<g id="Layer_1">
	<g>
		<g>
			<path class="st4" d="M154.38,21.15c-2.23,0-3.79-1.69-3.79-3.75c0-2.05,1.58-3.77,3.81-3.77s3.79,1.69,3.79,3.75
				C158.19,19.44,156.61,21.15,154.38,21.15z M154.38,14.81c-1.44,0-2.45,1.15-2.45,2.57c0,1.42,1.03,2.59,2.47,2.59
				s2.45-1.15,2.45-2.57S155.82,14.81,154.38,14.81z"/>
			<path class="st4" d="M165.28,14.92h-4.13v1.98h3.66v1.16h-3.66v2.96h-1.28v-7.26h5.41V14.92z"/>
			<path class="st4" d="M172.08,14.92h-4.13v1.98h3.66v1.16h-3.66v2.96h-1.28v-7.26h5.41V14.92z"/>
			<path class="st4" d="M174.8,13.76v7.26h-1.28v-7.26H174.8z"/>
			<path class="st4" d="M180.2,21.15c-2.12,0-3.69-1.65-3.69-3.75c0-2.08,1.55-3.77,3.75-3.77c1.34,0,2.15,0.47,2.84,1.13
				l-0.82,0.94c-0.58-0.54-1.2-0.9-2.03-0.9c-1.39,0-2.4,1.14-2.4,2.57c0,1.43,1.01,2.59,2.4,2.59c0.89,0,1.46-0.36,2.09-0.94
				l0.82,0.83C182.39,20.65,181.56,21.15,180.2,21.15z"/>
			<path class="st4" d="M189.95,14.9h-4.11v1.89h3.64v1.14h-3.64v1.95H190v1.14h-5.44v-7.26h5.39V14.9z"/>
			<path class="st4" d="M198.09,21.15c-2.23,0-3.79-1.69-3.79-3.75c0-2.05,1.58-3.77,3.81-3.77c2.23,0,3.79,1.69,3.79,3.75
				C201.9,19.44,200.32,21.15,198.09,21.15z M198.09,14.81c-1.44,0-2.45,1.15-2.45,2.57c0,1.42,1.03,2.59,2.47,2.59
				s2.45-1.15,2.45-2.57S199.53,14.81,198.09,14.81z"/>
			<path class="st4" d="M209,14.92h-4.13v1.98h3.66v1.16h-3.66v2.96h-1.28v-7.26H209V14.92z"/>
			<path class="st4" d="M216.58,21.02h-1.29v-6.08h-2.3v-1.18h5.89v1.18h-2.3V21.02z"/>
			<path class="st4" d="M221.52,17.96v3.06h-1.28v-7.26h1.28v3.02h3.47v-3.02h1.28v7.26h-1.28v-3.06H221.52z"/>
			<path class="st4" d="M233.7,14.9h-4.11v1.89h3.64v1.14h-3.64v1.95h4.16v1.14h-5.44v-7.26h5.39V14.9z"/>
			<path class="st4" d="M241.1,18.69h-1.44v2.33h-1.28v-7.26h2.86c1.69,0,2.76,0.95,2.76,2.44C244.01,17.84,242.7,18.69,241.1,18.69
				z M241.14,14.92h-1.48v2.61h1.48c0.96,0,1.57-0.53,1.57-1.31C242.71,15.37,242.1,14.92,241.14,14.92z"/>
			<path class="st4" d="M250.06,21.02l-1.79-2.53h-1.6v2.53h-1.28v-7.26h3.24c1.67,0,2.7,0.88,2.7,2.3c0,1.2-0.72,1.93-1.73,2.21
				l1.96,2.75H250.06z M248.54,14.92h-1.86v2.44h1.87c0.91,0,1.49-0.48,1.49-1.22C250.04,15.34,249.48,14.92,248.54,14.92z"/>
			<path class="st4" d="M256.39,21.15c-2.23,0-3.79-1.69-3.79-3.75c0-2.05,1.58-3.77,3.81-3.77c2.23,0,3.79,1.69,3.79,3.75
				C260.2,19.44,258.62,21.15,256.39,21.15z M256.39,14.81c-1.44,0-2.45,1.15-2.45,2.57c0,1.42,1.03,2.59,2.47,2.59
				c1.44,0,2.45-1.15,2.45-2.57S257.83,14.81,256.39,14.81z"/>
			<path class="st4" d="M266.6,13.76h1.38l-3.02,7.31h-1.12l-3.02-7.31h1.41l2.19,5.58L266.6,13.76z"/>
			<path class="st4" d="M272.37,21.15c-2.23,0-3.79-1.69-3.79-3.75c0-2.05,1.58-3.77,3.81-3.77c2.23,0,3.79,1.69,3.79,3.75
				C276.18,19.44,274.6,21.15,272.37,21.15z M272.37,14.81c-1.44,0-2.45,1.15-2.45,2.57c0,1.42,1.03,2.59,2.47,2.59
				s2.45-1.15,2.45-2.57S273.81,14.81,272.37,14.81z"/>
			<path class="st4" d="M280.53,16.81c1.54,0.37,2.33,0.92,2.33,2.14c0,1.37-1.07,2.18-2.59,2.18c-1.11,0-2.16-0.38-3.03-1.16
				l0.77-0.91c0.7,0.6,1.39,0.94,2.29,0.94c0.79,0,1.29-0.36,1.29-0.92c0-0.53-0.29-0.81-1.64-1.12c-1.55-0.37-2.42-0.83-2.42-2.18
				c0-1.27,1.04-2.12,2.48-2.12c1.06,0,1.9,0.32,2.64,0.91l-0.69,0.96c-0.65-0.49-1.31-0.75-1.97-0.75c-0.75,0-1.18,0.38-1.18,0.87
				C278.8,16.23,279.13,16.48,280.53,16.81z"/>
			<path class="st4" d="M287.51,21.02h-1.29v-6.08h-2.3v-1.18h5.89v1.18h-2.3V21.02z"/>
			<path class="st4" d="M299.31,21.17l-0.96-0.99c-0.62,0.58-1.35,0.94-2.23,0.94c-1.35,0-2.37-0.81-2.37-2.09
				c0-0.94,0.55-1.62,1.55-2.04c-0.42-0.54-0.6-0.99-0.6-1.53c0-0.99,0.79-1.84,2.09-1.84c1.15,0,1.93,0.77,1.93,1.76
				c0,0.96-0.63,1.54-1.6,1.9l1.25,1.27c0.28-0.42,0.54-0.89,0.78-1.4l0.96,0.51c-0.29,0.58-0.61,1.15-0.99,1.66l1.14,1.16
				L299.31,21.17z M296,17.79c-0.67,0.29-0.96,0.74-0.96,1.21c0,0.62,0.51,1.07,1.21,1.07c0.5,0,0.95-0.24,1.37-0.63L296,17.79z
				 M296.75,14.64c-0.52,0-0.86,0.36-0.86,0.88c0,0.37,0.15,0.64,0.55,1.09c0.75-0.27,1.14-0.6,1.14-1.14
				C297.58,14.96,297.24,14.64,296.75,14.64z"/>
			<path class="st4" d="M153.62,32.7h-2.71v-7.26h2.71c2.28,0,3.86,1.57,3.86,3.62C157.48,31.11,155.9,32.7,153.62,32.7z
				 M153.62,26.59h-1.43v4.94h1.43c1.53,0,2.52-1.03,2.52-2.46C156.14,27.64,155.15,26.59,153.62,26.59z"/>
			<path class="st4" d="M160.46,25.43v7.26h-1.28v-7.26H160.46z"/>
			<path class="st4" d="M167.57,25.43h1.38l-3.02,7.31h-1.12l-3.02-7.31h1.41l2.19,5.58L167.57,25.43z"/>
			<path class="st4" d="M171.58,25.43v7.26h-1.28v-7.26H171.58z"/>
			<path class="st4" d="M176.42,28.48c1.54,0.37,2.33,0.92,2.33,2.14c0,1.37-1.07,2.18-2.59,2.18c-1.11,0-2.16-0.38-3.03-1.16
				l0.77-0.91c0.7,0.6,1.39,0.94,2.29,0.94c0.79,0,1.29-0.36,1.29-0.92c0-0.53-0.29-0.81-1.64-1.12c-1.55-0.37-2.42-0.83-2.42-2.18
				c0-1.27,1.04-2.12,2.48-2.12c1.06,0,1.9,0.32,2.64,0.91l-0.68,0.97c-0.65-0.49-1.31-0.75-1.97-0.75c-0.75,0-1.18,0.38-1.18,0.87
				C174.7,27.9,175.03,28.15,176.42,28.48z"/>
			<path class="st4" d="M181.73,25.43v7.26h-1.28v-7.26H181.73z"/>
			<path class="st4" d="M187.22,32.82c-2.23,0-3.79-1.69-3.79-3.75c0-2.05,1.58-3.77,3.81-3.77c2.23,0,3.79,1.69,3.79,3.75
				C191.03,31.11,189.45,32.82,187.22,32.82z M187.22,26.48c-1.44,0-2.45,1.15-2.45,2.57s1.03,2.59,2.47,2.59s2.45-1.15,2.45-2.57
				C189.69,27.65,188.66,26.48,187.22,26.48z"/>
			<path class="st4" d="M197.79,25.43h1.25v7.26h-1.07l-4-5.17v5.17h-1.26v-7.26h1.18l3.89,5.02V25.43z"/>
			<path class="st4" d="M207.49,32.82c-2.23,0-3.79-1.69-3.79-3.75c0-2.05,1.58-3.77,3.81-3.77c2.23,0,3.79,1.69,3.79,3.75
				C211.3,31.11,209.72,32.82,207.49,32.82z M207.49,26.48c-1.44,0-2.45,1.15-2.45,2.57s1.03,2.59,2.47,2.59s2.45-1.15,2.45-2.57
				C209.96,27.65,208.93,26.48,207.49,26.48z"/>
			<path class="st4" d="M218.4,26.59h-4.13v1.98h3.66v1.16h-3.66v2.96h-1.28v-7.26h5.41V26.59z"/>
			<path class="st4" d="M229.86,32.7h-1.35l-0.74-1.75h-3.43l-0.75,1.75h-1.31l3.2-7.31h1.18L229.86,32.7z M226.06,26.91l-1.25,2.91
				h2.5L226.06,26.91z"/>
			<path class="st4" d="M234.16,32.82c-2.12,0-3.69-1.65-3.69-3.75c0-2.08,1.55-3.77,3.75-3.77c1.34,0,2.15,0.47,2.84,1.13
				l-0.82,0.94c-0.58-0.54-1.2-0.9-2.03-0.9c-1.39,0-2.4,1.14-2.4,2.57c0,1.43,1.01,2.59,2.4,2.59c0.89,0,1.46-0.36,2.08-0.94
				l0.82,0.83C236.35,32.32,235.52,32.82,234.16,32.82z"/>
			<path class="st4" d="M245.51,32.7h-1.35l-0.74-1.75h-3.43l-0.75,1.75h-1.31l3.2-7.31h1.18L245.51,32.7z M241.7,26.91l-1.25,2.91
				h2.5L241.7,26.91z"/>
			<path class="st4" d="M249.53,32.7h-2.71v-7.26h2.71c2.28,0,3.86,1.57,3.86,3.62C253.39,31.11,251.81,32.7,249.53,32.7z
				 M249.53,26.59h-1.43v4.94h1.43c1.53,0,2.52-1.03,2.52-2.46C252.05,27.64,251.06,26.59,249.53,26.59z"/>
			<path class="st4" d="M260.45,26.57h-4.11v1.89h3.64v1.14h-3.64v1.95h4.16v1.14h-5.44v-7.26h5.39V26.57z"/>
			<path class="st4" d="M265.76,30.91h-0.04l-2.27-3.4v5.19h-1.26v-7.26h1.36l2.21,3.43l2.21-3.43h1.36v7.26h-1.28v-5.21
				L265.76,30.91z"/>
			<path class="st4" d="M272.7,25.43v7.26h-1.28v-7.26H272.7z"/>
			<path class="st4" d="M278.09,32.82c-2.12,0-3.69-1.65-3.69-3.75c0-2.08,1.55-3.77,3.75-3.77c1.34,0,2.15,0.47,2.84,1.13
				l-0.82,0.94c-0.58-0.54-1.2-0.9-2.03-0.9c-1.39,0-2.4,1.14-2.4,2.57c0,1.43,1.01,2.59,2.4,2.59c0.89,0,1.46-0.36,2.09-0.94
				l0.82,0.83C280.28,32.32,279.45,32.82,278.09,32.82z"/>
			<path class="st4" d="M292.44,32.7h-1.35l-0.74-1.75h-3.43l-0.75,1.75h-1.31l3.2-7.31h1.18L292.44,32.7z M288.63,26.91l-1.25,2.91
				h2.5L288.63,26.91z"/>
			<path class="st4" d="M299.16,26.59h-4.13v1.98h3.66v1.16h-3.66v2.96h-1.28v-7.26h5.41V26.59z"/>
			<path class="st4" d="M305.96,26.59h-4.13v1.98h3.66v1.16h-3.66v2.96h-1.28v-7.26h5.41V26.59z"/>
			<path class="st4" d="M313.78,32.7h-1.35l-0.74-1.75h-3.43l-0.75,1.75h-1.31l3.2-7.31h1.18L313.78,32.7z M309.97,26.91l-1.25,2.91
				h2.5L309.97,26.91z"/>
			<path class="st4" d="M316.41,25.43v7.26h-1.28v-7.26H316.41z"/>
			<path class="st4" d="M323.14,32.7l-1.79-2.53h-1.6v2.53h-1.28v-7.26h3.24c1.67,0,2.7,0.88,2.7,2.3c0,1.2-0.72,1.93-1.73,2.21
				l1.96,2.75H323.14z M321.61,26.59h-1.86v2.44h1.87c0.91,0,1.49-0.48,1.49-1.22C323.12,27.01,322.56,26.59,321.61,26.59z"/>
			<path class="st4" d="M328.84,28.48c1.54,0.37,2.33,0.92,2.33,2.14c0,1.37-1.07,2.18-2.59,2.18c-1.11,0-2.16-0.38-3.03-1.16
				l0.77-0.91c0.7,0.6,1.39,0.94,2.29,0.94c0.79,0,1.29-0.36,1.29-0.92c0-0.53-0.29-0.81-1.64-1.12c-1.55-0.37-2.42-0.83-2.42-2.18
				c0-1.27,1.04-2.12,2.48-2.12c1.06,0,1.9,0.32,2.64,0.91l-0.69,0.97c-0.65-0.49-1.31-0.75-1.97-0.75c-0.75,0-1.18,0.38-1.18,0.87
				C327.12,27.9,327.45,28.15,328.84,28.48z"/>
			<path class="st4" d="M157.77,44.37h-0.88l-0.85-1.92h-3.95l-0.86,1.92h-0.84l3.31-7.31h0.77L157.77,44.37z M154.07,38.01
				l-1.66,3.7h3.31L154.07,38.01z"/>
			<path class="st4" d="M161.56,44.49c-1.57,0-2.75-1.28-2.75-2.79c0-1.53,1.18-2.81,2.75-2.81c1.02,0,1.65,0.42,2.15,0.95
				l-0.53,0.56c-0.43-0.45-0.9-0.81-1.63-0.81c-1.09,0-1.92,0.92-1.92,2.09c0,1.17,0.85,2.1,1.97,2.1c0.68,0,1.21-0.34,1.64-0.8
				l0.51,0.48C163.21,44.06,162.57,44.49,161.56,44.49z"/>
			<path class="st4" d="M165.72,40.03l-0.24-0.65c0.59-0.27,1.17-0.45,1.95-0.45c1.46,0,2.28,0.75,2.28,2.16v3.28h-0.77v-0.81
				c-0.37,0.49-1,0.92-1.94,0.92c-1,0-2-0.56-2-1.68c0-1.14,0.93-1.74,2.29-1.74c0.69,0,1.17,0.09,1.65,0.23V41.1
				c0-0.96-0.59-1.46-1.6-1.46C166.72,39.64,166.22,39.8,165.72,40.03z M165.82,42.77c0,0.68,0.62,1.08,1.35,1.08
				c0.99,0,1.79-0.6,1.79-1.45v-0.52c-0.39-0.11-0.92-0.23-1.58-0.23C166.38,41.65,165.82,42.09,165.82,42.77z"/>
			<path class="st4" d="M176.02,44.37v-1.08c-0.44,0.64-1.07,1.19-2.05,1.19c-1.29,0-2.56-1.02-2.56-2.79c0-1.76,1.28-2.8,2.56-2.8
				c1,0,1.64,0.54,2.05,1.14v-3.24h0.8v7.57H176.02z M174.11,39.61c-1.04,0-1.89,0.77-1.89,2.08c0,1.28,0.87,2.09,1.89,2.09
				c1,0,1.94-0.83,1.94-2.09C176.05,40.44,175.1,39.61,174.11,39.61z"/>
			<path class="st4" d="M181.25,43.8c0.74,0,1.26-0.3,1.69-0.76l0.5,0.45c-0.54,0.6-1.19,1.01-2.21,1.01c-1.47,0-2.68-1.13-2.68-2.8
				c0-1.56,1.09-2.8,2.57-2.8c1.59,0,2.5,1.27,2.5,2.84c0,0.07,0,0.16-0.01,0.25h-4.25C179.48,43.14,180.31,43.8,181.25,43.8z
				 M182.82,41.39c-0.08-0.98-0.64-1.83-1.71-1.83c-0.93,0-1.64,0.78-1.74,1.83H182.82z"/>
			<path class="st4" d="M191.48,38.89c1.23,0,1.99,0.83,1.99,2.16v3.32h-0.8v-3.13c0-1.04-0.52-1.62-1.39-1.62
				c-0.81,0-1.48,0.6-1.48,1.66v3.09h-0.79v-3.15c0-1.01-0.53-1.6-1.38-1.6s-1.49,0.71-1.49,1.69v3.06h-0.8V39h0.8v0.9
				c0.35-0.53,0.83-1.02,1.73-1.02c0.87,0,1.43,0.47,1.72,1.07C189.97,39.37,190.54,38.89,191.48,38.89z"/>
			<path class="st4" d="M195.47,37.83v-0.88h0.91v0.88H195.47z M195.52,44.37V39h0.8v5.36H195.52z"/>
			<path class="st4" d="M200.8,44.49c-1.57,0-2.75-1.28-2.75-2.79c0-1.53,1.18-2.81,2.75-2.81c1.02,0,1.65,0.42,2.15,0.95
				l-0.53,0.56c-0.43-0.45-0.9-0.81-1.63-0.81c-1.09,0-1.92,0.92-1.92,2.09c0,1.17,0.85,2.1,1.97,2.1c0.68,0,1.21-0.34,1.64-0.8
				l0.51,0.48C202.45,44.06,201.81,44.49,200.8,44.49z"/>
			<path class="st4" d="M210.72,44.37h-0.83v-6.51h-2.44v-0.76h5.71v0.76h-2.44V44.37z"/>
			<path class="st4" d="M216.26,43.8c0.74,0,1.26-0.3,1.69-0.76l0.5,0.45c-0.54,0.6-1.19,1.01-2.21,1.01c-1.47,0-2.68-1.13-2.68-2.8
				c0-1.56,1.09-2.8,2.57-2.8c1.59,0,2.5,1.27,2.5,2.84c0,0.07,0,0.16-0.01,0.25h-4.25C214.48,43.14,215.31,43.8,216.26,43.8z
				 M217.82,41.39c-0.08-0.98-0.64-1.83-1.71-1.83c-0.93,0-1.64,0.78-1.74,1.83H217.82z"/>
			<path class="st4" d="M222.75,44.49c-1.57,0-2.75-1.28-2.75-2.79c0-1.53,1.18-2.81,2.75-2.81c1.02,0,1.65,0.42,2.15,0.95
				l-0.53,0.56c-0.43-0.45-0.9-0.81-1.63-0.81c-1.09,0-1.92,0.92-1.92,2.09c0,1.17,0.85,2.1,1.97,2.1c0.68,0,1.21-0.34,1.64-0.8
				l0.51,0.48C224.4,44.06,223.75,44.49,222.75,44.49z"/>
			<path class="st4" d="M227.28,44.37h-0.8v-7.57h0.8v3.14c0.35-0.58,0.91-1.05,1.84-1.05c1.3,0,2.05,0.87,2.05,2.15v3.33h-0.8
				v-3.13c0-1-0.54-1.62-1.48-1.62c-0.92,0-1.61,0.67-1.61,1.68V44.37z"/>
			<path class="st4" d="M233.97,44.37h-0.8V39h0.8v0.93c0.35-0.58,0.91-1.05,1.84-1.05c1.3,0,2.05,0.87,2.05,2.15v3.33h-0.8v-3.13
				c0-1-0.54-1.62-1.48-1.62c-0.92,0-1.61,0.67-1.61,1.68V44.37z"/>
			<path class="st4" d="M242.29,44.49c-1.61,0-2.78-1.27-2.78-2.79s1.18-2.81,2.8-2.81c1.61,0,2.79,1.27,2.79,2.79
				S243.91,44.49,242.29,44.49z M242.29,39.59c-1.16,0-1.96,0.92-1.96,2.09s0.85,2.1,1.98,2.1c1.16,0,1.97-0.92,1.97-2.08
				C244.28,40.53,243.42,39.59,242.29,39.59z"/>
			<path class="st4" d="M246.87,44.37v-7.57h0.8v7.57H246.87z"/>
			<path class="st4" d="M252.2,44.49c-1.61,0-2.78-1.27-2.78-2.79s1.18-2.81,2.8-2.81c1.61,0,2.79,1.27,2.79,2.79
				S253.82,44.49,252.2,44.49z M252.2,39.59c-1.16,0-1.96,0.92-1.96,2.09s0.85,2.1,1.98,2.1c1.16,0,1.97-0.92,1.97-2.08
				C254.2,40.53,253.34,39.59,252.2,39.59z"/>
			<path class="st4" d="M259.11,46.05c-0.89,0-1.72-0.25-2.44-0.75l0.36-0.62c0.61,0.45,1.3,0.68,2.06,0.68
				c1.18,0,1.95-0.65,1.95-1.91v-0.63c-0.47,0.62-1.12,1.13-2.11,1.13c-1.29,0-2.52-0.96-2.52-2.52c0-1.58,1.25-2.54,2.52-2.54
				c1.01,0,1.66,0.5,2.1,1.08V39h0.8v4.43C261.84,45.17,260.76,46.05,259.11,46.05z M259.1,39.59c-1.02,0-1.86,0.7-1.86,1.82
				c0,1.1,0.86,1.84,1.86,1.84c1.02,0,1.97-0.73,1.97-1.83C261.07,40.31,260.11,39.59,259.1,39.59z"/>
			<path class="st4" d="M263.88,37.83v-0.88h0.91v0.88H263.88z M263.93,44.37V39h0.8v5.36H263.93z"/>
			<path class="st4" d="M269.18,43.8c0.74,0,1.26-0.3,1.69-0.76l0.5,0.45c-0.54,0.6-1.19,1.01-2.21,1.01c-1.47,0-2.68-1.13-2.68-2.8
				c0-1.56,1.09-2.8,2.57-2.8c1.59,0,2.5,1.27,2.5,2.84c0,0.07,0,0.16-0.01,0.25h-4.25C267.41,43.14,268.24,43.8,269.18,43.8z
				 M270.75,41.39c-0.08-0.98-0.64-1.83-1.71-1.83c-0.93,0-1.64,0.78-1.74,1.83H270.75z"/>
			<path class="st4" d="M274.98,44.47c-0.77,0-1.62-0.3-2.22-0.79l0.4-0.57c0.58,0.44,1.22,0.69,1.86,0.69
				c0.64,0,1.11-0.33,1.11-0.85v-0.02c0-0.54-0.63-0.75-1.34-0.94c-0.84-0.24-1.77-0.53-1.77-1.51v-0.02c0-0.92,0.77-1.54,1.83-1.54
				c0.65,0,1.38,0.23,1.93,0.59l-0.36,0.6c-0.5-0.32-1.07-0.52-1.59-0.52c-0.63,0-1.04,0.33-1.04,0.78v0.02
				c0,0.51,0.66,0.71,1.38,0.92c0.83,0.25,1.72,0.57,1.72,1.54v0.02C276.89,43.88,276.05,44.47,274.98,44.47z"/>
		</g>
		<rect x="142.77" y="13.76" class="st4" width="1.73" height="30.35"/>
		<g>
			<path class="st4" d="M135.98,19.92h0.45c0.32,0,0.66-0.03,0.66-0.4c0-0.32-0.28-0.42-0.53-0.42h-0.58V19.92 M135.8,18.95h0.79
				c0.47,0,0.68,0.19,0.68,0.57c0,0.34-0.24,0.5-0.54,0.55l0.63,0.96h-0.2l-0.63-0.96h-0.55v0.96h-0.18V18.95z M134.85,20
				c0,0.9,0.69,1.61,1.6,1.61c0.9,0,1.59-0.72,1.59-1.62c0-0.9-0.68-1.6-1.59-1.6C135.54,18.38,134.85,19.08,134.85,20 M138.22,20
				c0,0.98-0.79,1.77-1.77,1.77c-0.98,0-1.77-0.79-1.77-1.77c0-0.98,0.79-1.77,1.77-1.77C137.43,18.23,138.22,19.01,138.22,20"/>
			<polygon class="st4" points="112.31,13.84 109.54,21.46 113.77,21.46 114.81,18.54 118.96,18.53 118.95,39.45 116.6,39.45 
				114.9,44.15 126.55,44.16 128.3,39.45 125.03,39.44 125.03,18.54 129.9,18.54 129.89,21.46 132.83,21.45 135.6,13.83 			"/>
			<path class="st4" d="M65.36,13.83l-1.75,4.72l2.96-0.01v13.71c0,2.52-0.46,3.92-1.7,5.17c-0.97,0.98-2.62,1.59-4.31,1.59
				c-2.05,0-3.88-0.68-5.03-1.87c-1.15-1.14-1.71-3.02-1.71-5.75l0-17.57l-8.59,0.02l-1.75,4.7l3.65-0.02v13.05
				c0,12.25,9.59,13.2,12.53,13.2c7.6,0,12.51-4.89,12.51-12.46l0.03-13.78h2.18l1.69-4.72H65.36"/>
			<path class="st4" d="M106.85,18.53l0.02,25.63l-3.59,0c0,0-16.7-17.54-17.82-18.72c0,2.48-0.01,14.01-0.01,14.01h3.29l-1.71,4.73
				H76.26l1.72-4.73h1.85v-20.9H75.9l1.7-4.72h6.61c0,0,12.77,13.28,17.2,17.94c0-1.43-0.01-13.22-0.01-13.22h-3.21l1.69-4.74h11.03
				l-1.71,4.74L106.85,18.53"/>
			<path class="st4" d="M135.98,19.92h0.45c0.32,0,0.66-0.03,0.66-0.4c0-0.32-0.28-0.42-0.53-0.42h-0.58V19.92z M135.8,18.95h0.79
				c0.47,0,0.68,0.19,0.68,0.57c0,0.34-0.24,0.5-0.54,0.55l0.63,0.96h-0.2l-0.63-0.96h-0.55v0.96h-0.18V18.95z M134.85,20
				c0,0.9,0.69,1.61,1.6,1.61c0.9,0,1.59-0.72,1.59-1.62c0-0.9-0.68-1.6-1.59-1.6C135.54,18.38,134.85,19.08,134.85,20 M138.22,20
				c0,0.98-0.79,1.77-1.77,1.77c-0.98,0-1.77-0.79-1.77-1.77c0-0.98,0.79-1.77,1.77-1.77C137.43,18.23,138.22,19.01,138.22,20"/>
			<path class="st4" d="M46.61,41.46L14.74,11.65c-1.48-1.48-0.89-3.39-0.89-3.39l-2.66,5.76c-0.74,1.77,0.44,2.95,1.18,3.54
				c0.74,0.59,25.53,20.66,25.53,20.66v0.89L13.26,20.21c-1.18-0.89-1.03-2.36-1.03-2.36l-1.77,3.69c-0.89,2.07,1.33,3.39,2.21,3.98
				c0.89,0.59,25.38,17.71,25.38,17.71l0.15,1.03c0,0-23.76-15.79-24.65-16.38c-1.03-0.59-1.03-2.21-1.03-2.21l-1.77,3.69
				c-0.74,1.48,1.33,2.51,2.21,3.1c0.59,0.3,13.87,8.26,24.79,14.76H23.59c-2.07,0-2.8-0.59-2.8-0.59l1.92,1.77
				c0.3,0.3,1.18,1.33,2.51,1.33h5.31l1.03,0.44l-4.57,0.3c-0.89,0-1.18,0.15-2.36-0.59l2.07,1.92c0.59,0.44,1.03,1.03,2.07,0.89
				c1.03-0.15,6.79-1.03,6.79-1.03l0.89,0.44l-6.05,1.33c-1.33,0.3-2.36-0.44-2.36-0.44s1.18,1.18,1.92,1.92
				c0.74,0.74,1.48,1.18,3.98,0.59c1.03-0.3,5.9-1.77,5.9-1.77l3.1,1.33c3.25,4.43,7.08,6.79,7.08,6.79
				c-0.74,0.89-0.15,1.92-0.15,1.92c0.59-1.33,2.07-2.07,3.25-1.92c1.03,0.15,0.74,1.33,0.74,1.33c0.59-0.74,1.03-1.62,0.44-2.36
				c-0.89-1.03-2.8-0.15-2.8-0.15l-1.77-3.39l2.51-1.48C53.55,47.36,46.61,41.46,46.61,41.46"/>
			<path class="st4" d="M44.99,29.06c-0.44-0.44-15.35-17.12-15.35-17.12c-1.33-1.48-0.89-2.51-0.74-2.66l-1.77,3.84
				c-0.44,1.03,0.3,1.77,0.89,2.36c0.59,0.74,16.09,16.97,16.09,16.97v0.89L29.35,18.59c-1.18-1.18-0.89-2.07-0.74-2.21l-1.62,3.54
				c-0.3,1.03,0.74,1.77,1.62,2.66c0.74,0.74,17.12,16.09,18.45,17.41c2.8,2.66,4.28,6.05,4.28,6.05
				C52.96,37.48,46.61,30.98,44.99,29.06"/>
			<path class="st4" d="M57.53,55.33c-0.15-1.03-1.33-2.51-1.33-2.51s2.36,2.21,2.51,2.36c0,0,0.74-1.62-0.74-3.1
				c-2.21-2.07-6.64-6.05-6.64-6.05c0.3,1.03,2.07,4.13,1.18,9.89l2.21,0.44l0.3,0.44c0,0,2.51,0.3,2.95,0.74c0,0,0.89,0.59,0,1.48
				c0,0,1.48-0.3,2.21-1.03c0,0,0.74-0.59-0.15-1.48l-1.33-1.18C58.27,55.04,57.53,55.33,57.53,55.33"/>
		</g>
	</g>
</g>
</svg>
