<svg id="Lockups" xmlns="http://www.w3.org/2000/svg" viewBox="0 0 216 216"><defs><style>.cls-1{fill:#00853e;}</style></defs><path class="cls-1" d="M52.39,123.54v0a3.68,3.68,0,0,1,3.75-3.76A3.8,3.8,0,0,1,59,120.89l-.82,1a2.87,2.87,0,0,0-2-.9,2.44,2.44,0,0,0-2.4,2.56v0a2.46,2.46,0,0,0,2.4,2.58,2.83,2.83,0,0,0,2.08-.94L59,126a3.75,3.75,0,0,1-2.94,1.29A3.66,3.66,0,0,1,52.39,123.54Z"/><path class="cls-1" d="M60.05,123.54v0a3.73,3.73,0,0,1,3.81-3.76,3.69,3.69,0,0,1,3.78,3.74v0a3.8,3.8,0,0,1-7.59,0Zm6.25,0v0a2.48,2.48,0,0,0-2.46-2.58,2.45,2.45,0,0,0-2.45,2.56v0a2.48,2.48,0,0,0,2.47,2.58A2.45,2.45,0,0,0,66.3,123.54Z"/><path class="cls-1" d="M69.19,119.89h1.28V126h3.81v1.16H69.19Z"/><path class="cls-1" d="M75.61,119.89h1.28V126h3.82v1.16h-5.1Z"/><path class="cls-1" d="M82,119.89h5.39V121H83.31v1.89H87v1.14H83.31v2h4.16v1.14H82Z"/><path class="cls-1" d="M88.66,123.54v0a3.71,3.71,0,0,1,3.75-3.76,3.93,3.93,0,0,1,2.79,1l-.81,1a2.87,2.87,0,0,0-2-.77A2.46,2.46,0,0,0,90,123.5v0a2.43,2.43,0,0,0,2.47,2.59,2.93,2.93,0,0,0,1.76-.55v-1.35H92.37v-1.12h3.09v3a4.6,4.6,0,0,1-3,1.14A3.61,3.61,0,0,1,88.66,123.54Z"/><path class="cls-1" d="M97.12,119.89h5.38V121H98.4v1.89H102v1.14H98.4v2h4.16v1.14H97.12Z"/><path class="cls-1" d="M106.86,123.54v0a3.8,3.8,0,0,1,7.6,0v0a3.73,3.73,0,0,1-3.81,3.76A3.69,3.69,0,0,1,106.86,123.54Zm6.26,0v0a2.49,2.49,0,0,0-2.47-2.58,2.45,2.45,0,0,0-2.45,2.56v0a2.49,2.49,0,0,0,2.47,2.58A2.45,2.45,0,0,0,113.12,123.54Z"/><path class="cls-1" d="M116,119.89h5.41v1.16h-4.13v2h3.66v1.16h-3.66v3H116Z"/><path class="cls-1" d="M125.3,119.89h1.41l2.19,5.58,2.18-5.58h1.38l-3,7.31h-1.12Z"/><path class="cls-1" d="M133.78,119.89h1.27v7.26h-1.27Z"/><path class="cls-1" d="M136.5,126.09l.77-.91a3.36,3.36,0,0,0,2.3.94c.78,0,1.28-.36,1.28-.91v0c0-.52-.29-.8-1.64-1.11-1.54-.37-2.41-.83-2.41-2.17v0a2.22,2.22,0,0,1,2.48-2.11,4,4,0,0,1,2.63.92l-.68,1a3.3,3.3,0,0,0-2-.74c-.74,0-1.18.38-1.18.86v0c0,.56.33.81,1.72,1.14,1.54.37,2.34.92,2.34,2.13v0c0,1.36-1.07,2.16-2.6,2.16A4.48,4.48,0,0,1,136.5,126.09Z"/><path class="cls-1" d="M143.52,124.07v-4.18h1.27V124c0,1.35.7,2.07,1.84,2.07s1.83-.68,1.83-2v-4.18h1.27V124c0,2.17-1.22,3.26-3.12,3.26A2.86,2.86,0,0,1,143.52,124.07Z"/><path class="cls-1" d="M154.06,119.84h1.18l3.2,7.31h-1.35l-.74-1.75h-3.43l-.75,1.75h-1.31Zm1.83,4.43-1.26-2.91-1.24,2.91Z"/><path class="cls-1" d="M159.68,119.89H161V126h3.82v1.16h-5.1Z"/><path class="cls-1" d="M70.07,131.51h1.18l3.19,7.31H73.1l-.74-1.75H68.92l-.74,1.75H66.87Zm1.82,4.43L70.64,133l-1.25,2.91Z"/><path class="cls-1" d="M75.69,131.56h3.24a2.89,2.89,0,0,1,2.09.73,2.15,2.15,0,0,1,.6,1.56v0a2.17,2.17,0,0,1-1.73,2.19l2,2.75h-1.5l-1.79-2.53H77v2.53H75.69Zm3.14,3.6c.92,0,1.5-.48,1.5-1.21v0c0-.78-.56-1.21-1.51-1.21H77v2.44Z"/><path class="cls-1" d="M85,132.74H82.67v-1.18h5.9v1.18H86.26v6.08H85Z"/><path class="cls-1" d="M89.43,137.77l.76-.92a3.33,3.33,0,0,0,2.3,1c.79,0,1.28-.37,1.28-.92v0c0-.52-.29-.8-1.64-1.11-1.54-.37-2.41-.83-2.41-2.17v0a2.22,2.22,0,0,1,2.48-2.1,4,4,0,0,1,2.63.91l-.68,1a3.31,3.31,0,0,0-2-.75c-.75,0-1.19.38-1.19.86v0c0,.56.34.81,1.73,1.14s2.33.93,2.33,2.13v0c0,1.36-1.07,2.17-2.59,2.17A4.51,4.51,0,0,1,89.43,137.77Z"/><path class="cls-1" d="M103.73,138a3.18,3.18,0,0,1-2.23,1,2.14,2.14,0,0,1-2.36-2.08v0a2.17,2.17,0,0,1,1.54-2,2.4,2.4,0,0,1-.6-1.52v0a1.9,1.9,0,0,1,2.09-1.82,1.79,1.79,0,0,1,1.93,1.75v0c0,1-.64,1.53-1.6,1.89l1.24,1.27a11,11,0,0,0,.78-1.41l1,.51a10.55,10.55,0,0,1-1,1.66l1.14,1.16-.94.68Zm-.72-.74-1.62-1.65a1.35,1.35,0,0,0-1,1.2v0a1.11,1.11,0,0,0,1.22,1.06A2,2,0,0,0,103,137.24Zm0-4v0a.8.8,0,0,0-.83-.82.83.83,0,0,0-.86.87v0a1.5,1.5,0,0,0,.55,1.07C102.57,134.14,103,133.8,103,133.28Z"/><path class="cls-1" d="M110,131.56h2.71a3.62,3.62,0,0,1,3.86,3.61v0a3.63,3.63,0,0,1-3.86,3.63H110Zm2.71,6.1a2.37,2.37,0,0,0,2.52-2.45v0a2.39,2.39,0,0,0-2.52-2.47h-1.43v4.94Z"/><path class="cls-1" d="M118.11,131.56h5.39v1.14h-4.11v1.89H123v1.14h-3.64v2h4.16v1.14h-5.44Z"/><path class="cls-1" d="M124.58,137.77l.77-.92a3.3,3.3,0,0,0,2.29,1c.79,0,1.29-.37,1.29-.92v0c0-.52-.29-.8-1.64-1.11-1.55-.37-2.42-.83-2.42-2.17v0a2.22,2.22,0,0,1,2.48-2.1,4,4,0,0,1,2.63.91l-.68,1a3.29,3.29,0,0,0-2-.75c-.75,0-1.18.38-1.18.86v0c0,.56.33.81,1.72,1.14s2.33.93,2.33,2.13v0c0,1.36-1.07,2.17-2.59,2.17A4.51,4.51,0,0,1,124.58,137.77Z"/><path class="cls-1" d="M131.78,131.56h1.28v7.26h-1.28Z"/><path class="cls-1" d="M134.67,135.21v0a3.7,3.7,0,0,1,3.75-3.75,3.93,3.93,0,0,1,2.79,1l-.81,1a2.83,2.83,0,0,0-2-.78,2.46,2.46,0,0,0-2.36,2.56v0a2.43,2.43,0,0,0,2.47,2.6,3,3,0,0,0,1.76-.55v-1.36h-1.86v-1.11h3.09v3a4.64,4.64,0,0,1-3,1.13A3.61,3.61,0,0,1,134.67,135.21Z"/><path class="cls-1" d="M143.13,131.56h1.18l3.89,5v-5h1.26v7.26h-1.07l-4-5.16v5.16h-1.26Z"/><rect class="cls-1" x="89.44" y="107.43" width="62.57" height="1.68"/><path class="cls-1" d="M83.45,108a2.18,2.18,0,0,0-1.18.16,7.54,7.54,0,0,0-1.39-2.56L83.44,108a2.69,2.69,0,0,0-.74-3.1c-2.27-2.11-6.63-6.09-6.62-6.07a17,17,0,0,1,1.13,10l2.24.42.27.46a11.48,11.48,0,0,1,3,.71s.89.62-.06,1.46a5.17,5.17,0,0,0,2.26-1.07s.75-.65-.13-1.53L83.45,108"/><path class="cls-1" d="M71.36,94.27l-32.13-30a3.5,3.5,0,0,1-.93-3.41l-2.63,5.79a3,3,0,0,0,1.14,3.58L62.45,91l0,.84-24.74-19a2.91,2.91,0,0,1-1.09-2.43L34.85,74.1c-.86,2.07,1.28,3.4,2.17,4S62.58,95.9,62.58,95.9l.22,1S38.89,81,38,80.48a2.56,2.56,0,0,1-1-2.15l-1.75,3.74c-.73,1.53,1.35,2.59,2.28,3.15L62.5,100.08H48.2a4.42,4.42,0,0,1-2.81-.63l1.91,1.79a3.7,3.7,0,0,0,2.45,1.39H55l1,.45-4.6.36a3.21,3.21,0,0,1-2.39-.54l2,2a2.49,2.49,0,0,0,2,.89c1-.09,6.76-1.05,6.76-1.05l.91.42-6.06,1.32a3.17,3.17,0,0,1-2.37-.41s1.14,1.13,1.9,1.86,1.49,1.23,4,.53c1-.28,5.92-1.84,5.92-1.84L67.33,108a26.58,26.58,0,0,0,7.16,6.76,1.72,1.72,0,0,0-.11,1.94,3.38,3.38,0,0,1,3.25-1.91c1,.15.71,1.33.74,1.28.6-.75,1.09-1.67.49-2.44-.73-.93-2.61-.12-2.61-.12l-1.82-3.34,2.48-1.42c1.35-8.62-5.55-14.48-5.55-14.48"/><polyline class="cls-1" points="137.7 66.29 134.9 74.02 139.17 74.02 140.22 71.06 144.41 71.06 144.4 92.24 142.03 92.25 140.31 97.01 152.08 97.02 153.85 92.25 150.55 92.24 150.54 71.06 155.47 71.06 155.45 74.02 158.41 74.01 161.22 66.28 137.7 66.29"/><path class="cls-1" d="M132.18,71.05l0,26h-3.62l-18-19c0,2.52,0,14.19,0,14.19h3.33l-1.73,4.8H101.3l1.73-4.8h1.87V71.07h-4l1.72-4.78h6.67s12.9,13.45,17.37,18.18c0-1.46,0-13.4,0-13.4h-3.24l1.71-4.79h11.14l-1.72,4.79-2.39,0"/><path class="cls-1" d="M90.29,66.29l-1.77,4.78h3V85c0,2.55-.47,4-1.72,5.24a6.29,6.29,0,0,1-4.35,1.61,7,7,0,0,1-5.08-1.9c-1.17-1.15-1.73-3-1.73-5.82V66.29l-8.67,0-1.77,4.76,3.7,0V84.47c-.94-1.22-1.78-2.12-2.24-2.64S54.32,64.59,54.32,64.59a2.55,2.55,0,0,1-.8-2.64l-1.74,3.9c-.38,1.08.34,1.77.87,2.39s16.21,17,16.21,17l-.11.9L53.91,71.31c-1.19-1.22-.86-2.15-.81-2.28l-1.59,3.59c-.36,1.11.78,1.84,1.57,2.6S70.43,91.47,71.78,92.7a18.9,18.9,0,0,1,4.3,6.11,15,15,0,0,0,.24-3.74,13.74,13.74,0,0,0,8.22,2.59c7.67,0,12.63-5,12.63-12.63l0-14h2.2l1.71-4.78Z"/><path class="cls-1" d="M160.09,71.91a1.07,1.07,0,0,1,0,2.13,1.07,1.07,0,0,1,0-2.13Zm0,.16a.9.9,0,1,0,.83.9.86.86,0,0,0-.83-.9Zm-.2,1.52h-.18V72.4a2.68,2.68,0,0,1,.33,0,.59.59,0,0,1,.35.09.3.3,0,0,1,.11.25.29.29,0,0,1-.22.29h0c.09,0,.16.11.19.29a1.13,1.13,0,0,0,.07.29h-.19a1.07,1.07,0,0,1-.08-.3.22.22,0,0,0-.25-.21h-.13Zm0-.66H160c.15,0,.28-.06.28-.2s-.08-.21-.28-.21h-.14Z"/></svg>