<svg width="130" height="78" xmlns="http://www.w3.org/2000/svg">

 <g>
  <title>Layer 1</title>
  <path id="svg_1" fill="#00853e" d="m17.73983,62.68l0,0a3.68,3.68 0 0 1 3.75,-3.76a3.8,3.8 0 0 1 2.86,1.11l-0.82,1a2.87,2.87 0 0 0 -2,-0.9a2.44,2.44 0 0 0 -2.4,2.56l0,0a2.46,2.46 0 0 0 2.4,2.58a2.83,2.83 0 0 0 2.08,-0.94l0.74,0.81a3.75,3.75 0 0 1 -2.94,1.29a3.66,3.66 0 0 1 -3.67,-3.75z" class="cls-1"/>
  <path id="svg_2" fill="#00853e" d="m25.39983,62.68l0,0a3.73,3.73 0 0 1 3.81,-3.76a3.69,3.69 0 0 1 3.78,3.74l0,0a3.8,3.8 0 0 1 -7.59,0l0,0.02zm6.25,0l0,0a2.48,2.48 0 0 0 -2.46,-2.58a2.45,2.45 0 0 0 -2.45,2.56l0,0a2.48,2.48 0 0 0 2.47,2.58a2.45,2.45 0 0 0 2.44,-2.56z" class="cls-1"/>
  <path id="svg_3" fill="#00853e" d="m34.53983,59.03l1.28,0l0,6.11l3.81,0l0,1.16l-5.09,0l0,-7.27z" class="cls-1"/>
  <path id="svg_4" fill="#00853e" d="m40.95983,59.03l1.28,0l0,6.11l3.82,0l0,1.16l-5.1,0l0,-7.27z" class="cls-1"/>
  <path id="svg_5" fill="#00853e" d="m47.34983,59.03l5.39,0l0,1.11l-4.08,0l0,1.89l3.69,0l0,1.14l-3.69,0l0,2l4.16,0l0,1.14l-5.47,0l0,-7.28z" class="cls-1"/>
  <path id="svg_6" fill="#00853e" d="m54.00983,62.68l0,0a3.71,3.71 0 0 1 3.75,-3.76a3.93,3.93 0 0 1 2.79,1l-0.81,1a2.87,2.87 0 0 0 -2,-0.77a2.46,2.46 0 0 0 -2.39,2.49l0,0a2.43,2.43 0 0 0 2.47,2.59a2.93,2.93 0 0 0 1.76,-0.55l0,-1.35l-1.86,0l0,-1.12l3.09,0l0,3a4.6,4.6 0 0 1 -3,1.14a3.61,3.61 0 0 1 -3.8,-3.67z" class="cls-1"/>
  <path id="svg_7" fill="#00853e" d="m62.46983,59.03l5.38,0l0,1.11l-4.1,0l0,1.89l3.6,0l0,1.14l-3.6,0l0,2l4.16,0l0,1.14l-5.44,0l0,-7.28z" class="cls-1"/>
  <path id="svg_8" fill="#00853e" d="m72.20983,62.68l0,0a3.8,3.8 0 0 1 7.6,0l0,0a3.73,3.73 0 0 1 -3.81,3.76a3.69,3.69 0 0 1 -3.79,-3.76zm6.26,0l0,0a2.49,2.49 0 0 0 -2.47,-2.58a2.45,2.45 0 0 0 -2.45,2.56l0,0a2.49,2.49 0 0 0 2.47,2.58a2.45,2.45 0 0 0 2.45,-2.56z" class="cls-1"/>
  <path id="svg_9" fill="#00853e" d="m81.34983,59.03l5.41,0l0,1.16l-4.13,0l0,2l3.66,0l0,1.16l-3.66,0l0,3l-1.28,0l0,-7.32z" class="cls-1"/>
  <path id="svg_10" fill="#00853e" d="m90.64983,59.03l1.41,0l2.19,5.58l2.18,-5.58l1.38,0l-3,7.31l-1.12,0l-3.04,-7.31z" class="cls-1"/>
  <path id="svg_11" fill="#00853e" d="m99.12983,59.03l1.27,0l0,7.26l-1.27,0l0,-7.26z" class="cls-1"/>
  <path id="svg_12" fill="#00853e" d="m101.84983,65.23l0.77,-0.91a3.36,3.36 0 0 0 2.3,0.94c0.78,0 1.28,-0.36 1.28,-0.91l0,0c0,-0.52 -0.29,-0.8 -1.64,-1.11c-1.54,-0.37 -2.41,-0.83 -2.41,-2.17l0,0a2.22,2.22 0 0 1 2.48,-2.11a4,4 0 0 1 2.63,0.92l-0.68,1a3.3,3.3 0 0 0 -2,-0.74c-0.74,0 -1.18,0.38 -1.18,0.86l0,0c0,0.56 0.33,0.81 1.72,1.14c1.54,0.37 2.34,0.92 2.34,2.13l0,0c0,1.36 -1.07,2.16 -2.6,2.16a4.48,4.48 0 0 1 -3.01,-1.2z" class="cls-1"/>
  <path id="svg_13" fill="#00853e" d="m108.86983,63.21l0,-4.18l1.27,0l0,4.11c0,1.35 0.7,2.07 1.84,2.07s1.83,-0.68 1.83,-2l0,-4.18l1.27,0l0,4.11c0,2.17 -1.22,3.26 -3.12,3.26a2.86,2.86 0 0 1 -3.09,-3.19z" class="cls-1"/>
  <path id="svg_14" fill="#00853e" d="m119.40983,58.98l1.18,0l3.2,7.31l-1.35,0l-0.74,-1.75l-3.43,0l-0.75,1.75l-1.31,0l3.2,-7.31zm1.83,4.43l-1.26,-2.91l-1.24,2.91l2.5,0z" class="cls-1"/>
  <path id="svg_15" fill="#00853e" d="m125.02983,59.03l1.32,0l0,6.11l3.82,0l0,1.16l-5.1,0l-0.04,-7.27z" class="cls-1"/>
  <path id="svg_16" fill="#00853e" d="m35.41983,70.65l1.18,0l3.19,7.31l-1.34,0l-0.74,-1.75l-3.44,0l-0.74,1.75l-1.31,0l3.2,-7.31zm1.82,4.43l-1.25,-2.94l-1.25,2.91l2.5,0.03z" class="cls-1"/>
  <path id="svg_17" fill="#00853e" d="m41.03983,70.7l3.24,0a2.89,2.89 0 0 1 2.09,0.73a2.15,2.15 0 0 1 0.6,1.56l0,0a2.17,2.17 0 0 1 -1.73,2.19l2,2.75l-1.5,0l-1.79,-2.53l-1.6,0l0,2.53l-1.31,0l0,-7.23zm3.14,3.6c0.92,0 1.5,-0.48 1.5,-1.21l0,0c0,-0.78 -0.56,-1.21 -1.51,-1.21l-1.82,0l0,2.44l1.83,-0.02z" class="cls-1"/>
  <path id="svg_18" fill="#00853e" d="m50.34983,71.88l-2.33,0l0,-1.18l5.9,0l0,1.18l-2.31,0l0,6.08l-1.26,0l0,-6.08z" class="cls-1"/>
  <path id="svg_19" fill="#00853e" d="m54.77983,76.91l0.76,-0.92a3.33,3.33 0 0 0 2.3,1c0.79,0 1.28,-0.37 1.28,-0.92l0,0c0,-0.52 -0.29,-0.8 -1.64,-1.11c-1.54,-0.37 -2.41,-0.83 -2.41,-2.17l0,0a2.22,2.22 0 0 1 2.48,-2.1a4,4 0 0 1 2.63,0.91l-0.68,1a3.31,3.31 0 0 0 -2,-0.75c-0.75,0 -1.19,0.38 -1.19,0.86l0,0c0,0.56 0.34,0.81 1.73,1.14s2.33,0.93 2.33,2.13l0,0c0,1.36 -1.07,2.17 -2.59,2.17a4.51,4.51 0 0 1 -3,-1.24z" class="cls-1"/>
  <path id="svg_20" fill="#00853e" d="m69.07983,77.14a3.18,3.18 0 0 1 -2.23,1a2.14,2.14 0 0 1 -2.36,-2.08l0,0a2.17,2.17 0 0 1 1.54,-2a2.4,2.4 0 0 1 -0.6,-1.52l0,0a1.9,1.9 0 0 1 2.09,-1.82a1.79,1.79 0 0 1 1.93,1.75l0,0c0,1 -0.64,1.53 -1.6,1.89l1.24,1.27a11,11 0 0 0 0.78,-1.41l1,0.51a10.55,10.55 0 0 1 -1,1.66l1.14,1.16l-0.94,0.68l-0.99,-1.09zm-0.72,-0.74l-1.62,-1.65a1.35,1.35 0 0 0 -1,1.2l0,0a1.11,1.11 0 0 0 1.22,1.06a2,2 0 0 0 1.39,-0.63l0.01,0.02zm0,-4l0,0a0.8,0.8 0 0 0 -0.83,-0.82a0.83,0.83 0 0 0 -0.86,0.87l0,0a1.5,1.5 0 0 0 0.55,1.07c0.7,-0.24 1.13,-0.58 1.13,-1.1l0.01,-0.02z" class="cls-1"/>
  <path id="svg_21" fill="#00853e" d="m75.34983,70.7l2.71,0a3.62,3.62 0 0 1 3.86,3.61l0,0a3.63,3.63 0 0 1 -3.86,3.63l-2.71,0l0,-7.24zm2.71,6.1a2.37,2.37 0 0 0 2.52,-2.45l0,0a2.39,2.39 0 0 0 -2.52,-2.47l-1.43,0l0,4.94l1.43,-0.02z" class="cls-1"/>
  <path id="svg_22" fill="#00853e" d="m83.45983,70.7l5.39,0l0,1.14l-4.11,0l0,1.89l3.61,0l0,1.14l-3.64,0l0,2l4.16,0l0,1.14l-5.44,0l0.03,-7.31z" class="cls-1"/>
  <path id="svg_23" fill="#00853e" d="m89.92983,76.91l0.77,-0.92a3.3,3.3 0 0 0 2.29,1c0.79,0 1.29,-0.37 1.29,-0.92l0,0c0,-0.52 -0.29,-0.8 -1.64,-1.11c-1.55,-0.37 -2.42,-0.83 -2.42,-2.17l0,0a2.22,2.22 0 0 1 2.48,-2.1a4,4 0 0 1 2.63,0.91l-0.68,1a3.29,3.29 0 0 0 -2,-0.75c-0.75,0 -1.18,0.38 -1.18,0.86l0,0c0,0.56 0.33,0.81 1.72,1.14s2.33,0.93 2.33,2.13l0,0c0,1.36 -1.07,2.17 -2.59,2.17a4.51,4.51 0 0 1 -3,-1.24z" class="cls-1"/>
  <path id="svg_24" fill="#00853e" d="m97.12983,70.7l1.28,0l0,7.26l-1.28,0l0,-7.26z" class="cls-1"/>
  <path id="svg_25" fill="#00853e" d="m100.01983,74.35l0,0a3.7,3.7 0 0 1 3.75,-3.75a3.93,3.93 0 0 1 2.79,1l-0.81,1a2.83,2.83 0 0 0 -2,-0.78a2.46,2.46 0 0 0 -2.36,2.56l0,0a2.43,2.43 0 0 0 2.47,2.6a3,3 0 0 0 1.76,-0.55l0,-1.36l-1.86,0l0,-1.11l3.09,0l0,3a4.64,4.64 0 0 1 -3,1.13a3.61,3.61 0 0 1 -3.83,-3.74z" class="cls-1"/>
  <path id="svg_26" fill="#00853e" d="m108.47983,70.7l1.18,0l3.89,5l0,-5l1.26,0l0,7.26l-1.07,0l-4,-5.16l0,5.16l-1.26,0l0,-7.26z" class="cls-1"/>
  <rect id="svg_27" fill="#00853e" height="1.68" width="62.57" y="46.57" x="54.78983" class="cls-1"/>
  <path id="svg_28" fill="#00853e" d="m48.79983,47.14a2.18,2.18 0 0 0 -1.18,0.16a7.54,7.54 0 0 0 -1.39,-2.56l2.56,2.4a2.69,2.69 0 0 0 -0.74,-3.1c-2.27,-2.11 -6.63,-6.09 -6.62,-6.07a17,17 0 0 1 1.13,10l2.24,0.42l0.27,0.46a11.48,11.48 0 0 1 3,0.71s0.89,0.62 -0.06,1.46a5.17,5.17 0 0 0 2.26,-1.07s0.75,-0.65 -0.13,-1.53l-1.34,-1.28" class="cls-1"/>
  <path id="svg_29" fill="#00853e" d="m36.70983,33.41l-32.13,-30a3.5,3.5 0 0 1 -0.93,-3.41l-2.63,5.79a3,3 0 0 0 1.14,3.58l25.64,20.77l0,0.84l-24.74,-19a2.91,2.91 0 0 1 -1.09,-2.43l-1.77,3.69c-0.86,2.07 1.28,3.4 2.17,4s25.56,17.8 25.56,17.8l0.22,1s-23.91,-15.9 -24.8,-16.42a2.56,2.56 0 0 1 -1,-2.15l-1.75,3.74c-0.73,1.53 1.35,2.59 2.28,3.15l24.97,14.86l-14.3,0a4.42,4.42 0 0 1 -2.81,-0.63l1.91,1.79a3.7,3.7 0 0 0 2.45,1.39l5.25,0l1,0.45l-4.6,0.36a3.21,3.21 0 0 1 -2.39,-0.54l2,2a2.49,2.49 0 0 0 2,0.89c1,-0.09 6.76,-1.05 6.76,-1.05l0.91,0.42l-6.06,1.32a3.17,3.17 0 0 1 -2.37,-0.41s1.14,1.13 1.9,1.86s1.49,1.23 4,0.53c1,-0.28 5.92,-1.84 5.92,-1.84l3.26,1.38a26.58,26.58 0 0 0 7.16,6.76a1.72,1.72 0 0 0 -0.11,1.94a3.38,3.38 0 0 1 3.25,-1.91c1,0.15 0.71,1.33 0.74,1.28c0.6,-0.75 1.09,-1.67 0.49,-2.44c-0.73,-0.93 -2.61,-0.12 -2.61,-0.12l-1.82,-3.34l2.48,-1.42c1.35,-8.62 -5.55,-14.48 -5.55,-14.48" class="cls-1"/>
  <polyline id="svg_30" fill="#00853e" points="103.04983139038086,5.430000305175781 100.24982833862305,13.159996032714844 104.51983261108398,13.159996032714844 105.5698356628418,10.199996948242188 109.75983810424805,10.199996948242188 109.74982833862305,31.37999725341797 107.37983322143555,31.389999389648438 105.65983200073242,36.150001525878906 117.42983627319336,36.159996032714844 119.1998405456543,31.389999389648438 115.89983749389648,31.37999725341797 115.88982772827148,10.199996948242188 120.8198356628418,10.199996948242188 120.79983139038086,13.159996032714844 123.75983810424805,13.150001525878906 126.5698356628418,5.4199981689453125 103.04983139038086,5.430000305175781 " class="cls-1"/>
  <path id="svg_31" fill="#00853e" d="m97.52983,10.19l0,26l-3.62,0l-18,-19c0,2.52 0,14.19 0,14.19l3.33,0l-1.73,4.8l-10.86,0l1.73,-4.8l1.87,0l0,-21.17l-4,0l1.72,-4.78l6.67,0s12.9,13.45 17.37,18.18c0,-1.46 0,-13.4 0,-13.4l-3.24,0l1.71,-4.79l11.14,0l-1.72,4.79l-2.39,0" class="cls-1"/>
  <path id="svg_32" fill="#00853e" d="m55.63983,5.43l-1.77,4.78l3,0l0,13.93c0,2.55 -0.47,4 -1.72,5.24a6.29,6.29 0 0 1 -4.35,1.61a7,7 0 0 1 -5.08,-1.9c-1.17,-1.15 -1.73,-3 -1.73,-5.82l0,-17.84l-8.67,0l-1.77,4.76l3.7,0l0,13.42c-0.94,-1.22 -1.78,-2.12 -2.24,-2.64s-15.34,-17.24 -15.34,-17.24a2.55,2.55 0 0 1 -0.8,-2.64l-1.74,3.9c-0.38,1.08 0.34,1.77 0.87,2.39s16.21,17 16.21,17l-0.11,0.9l-14.84,-14.83c-1.19,-1.22 -0.86,-2.15 -0.81,-2.28l-1.59,3.59c-0.36,1.11 0.78,1.84 1.57,2.6s17.35,16.25 18.7,17.48a18.9,18.9 0 0 1 4.3,6.11a15,15 0 0 0 0.24,-3.74a13.74,13.74 0 0 0 8.22,2.59c7.67,0 12.63,-5 12.63,-12.63l0,-14l2.2,0l1.71,-4.78l-10.79,0.04z" class="cls-1"/>
  <path id="svg_33" fill="#00853e" d="m125.43983,11.05a1.07,1.07 0 0 1 0,2.13a1.07,1.07 0 0 1 0,-2.13zm0,0.16a0.9,0.9 0 1 0 0.83,0.9a0.86,0.86 0 0 0 -0.83,-0.9zm-0.2,1.52l-0.18,0l0,-1.19a2.68,2.68 0 0 1 0.33,0a0.59,0.59 0 0 1 0.35,0.09a0.3,0.3 0 0 1 0.11,0.25a0.29,0.29 0 0 1 -0.22,0.29l0,0c0.09,0 0.16,0.11 0.19,0.29a1.13,1.13 0 0 0 0.07,0.29l-0.19,0a1.07,1.07 0 0 1 -0.08,-0.3a0.22,0.22 0 0 0 -0.25,-0.21l-0.13,0l0,0.49zm0,-0.66l0.11,0c0.15,0 0.28,-0.06 0.28,-0.2s-0.08,-0.21 -0.28,-0.21l-0.14,0l0.03,0.41z" class="cls-1"/>
 </g>
</svg>