<svg id="Lockups" xmlns="http://www.w3.org/2000/svg" viewBox="0 0 216 216"><path d="M65.66,123.54v0a3.8,3.8,0,0,1,7.6,0v0a3.73,3.73,0,0,1-3.81,3.76A3.69,3.69,0,0,1,65.66,123.54Zm6.26,0v0a2.49,2.49,0,0,0-2.47-2.58A2.45,2.45,0,0,0,67,123.5v0a2.49,2.49,0,0,0,2.47,2.58A2.45,2.45,0,0,0,71.92,123.54Z"/><path d="M74.8,119.89h5.41v1.16H76.08v2h3.66v1.16H76.08v3H74.8Z"/><path d="M81.61,119.89H87v1.16H82.88v2h3.67v1.16H82.88v3H81.61Z"/><path d="M88.49,119.89h1.27v7.26H88.49Z"/><path d="M91.38,123.54v0a3.68,3.68,0,0,1,3.75-3.76A3.78,3.78,0,0,1,98,120.89l-.82,1a2.87,2.87,0,0,0-2-.9,2.44,2.44,0,0,0-2.4,2.56v0a2.46,2.46,0,0,0,2.4,2.58,2.83,2.83,0,0,0,2.08-.94L98,126a3.75,3.75,0,0,1-2.94,1.29A3.66,3.66,0,0,1,91.38,123.54Z"/><path d="M99.36,119.89h5.39V121h-4.11v1.89h3.64v1.14h-3.64v2h4.16v1.14H99.36Z"/><path d="M109.1,123.54v0a3.8,3.8,0,0,1,7.6,0v0a3.73,3.73,0,0,1-3.81,3.76A3.69,3.69,0,0,1,109.1,123.54Zm6.26,0v0a2.49,2.49,0,0,0-2.47-2.58,2.45,2.45,0,0,0-2.45,2.56v0a2.49,2.49,0,0,0,2.47,2.58A2.45,2.45,0,0,0,115.36,123.54Z"/><path d="M118.24,119.89h5.41v1.16h-4.13v2h3.66v1.16h-3.66v3h-1.28Z"/><path d="M130,121.07h-2.31v-1.18h5.9v1.18h-2.31v6.08H130Z"/><path d="M134.89,119.89h1.27v3h3.47v-3h1.27v7.26h-1.27v-3.06h-3.47v3.06h-1.27Z"/><path d="M142.77,119.89h5.39V121h-4.11v1.89h3.64v1.14h-3.64v2h4.16v1.14h-5.44Z"/><path d="M51.37,131.56h2.86c1.69,0,2.76,1,2.76,2.43v0c0,1.63-1.3,2.48-2.9,2.48H52.65v2.33H51.37Zm2.76,3.78c1,0,1.57-.54,1.57-1.3v0c0-.85-.62-1.3-1.57-1.3H52.65v2.62Z"/><path d="M58.3,131.56h3.24a2.89,2.89,0,0,1,2.09.73,2.15,2.15,0,0,1,.6,1.56v0a2.17,2.17,0,0,1-1.73,2.19l2,2.75H63l-1.79-2.53H59.58v2.53H58.3Zm3.14,3.6c.92,0,1.5-.48,1.5-1.21v0c0-.78-.56-1.21-1.51-1.21H59.58v2.44Z"/><path d="M65.48,135.21v0a3.8,3.8,0,0,1,7.6,0v0a3.8,3.8,0,0,1-7.6,0Zm6.26,0v0a2.49,2.49,0,0,0-2.47-2.58,2.45,2.45,0,0,0-2.45,2.56v0a2.5,2.5,0,0,0,2.47,2.59A2.46,2.46,0,0,0,71.74,135.21Z"/><path d="M74,131.56h1.41l2.19,5.58,2.18-5.58h1.38l-3,7.32H77Z"/><path d="M82.08,135.21v0a3.8,3.8,0,0,1,7.6,0v0a3.8,3.8,0,0,1-7.6,0Zm6.26,0v0a2.49,2.49,0,0,0-2.47-2.58,2.45,2.45,0,0,0-2.45,2.56v0a2.5,2.5,0,0,0,2.47,2.59A2.46,2.46,0,0,0,88.34,135.21Z"/><path d="M90.73,137.77l.77-.92a3.32,3.32,0,0,0,2.29,1c.79,0,1.29-.37,1.29-.92v0c0-.52-.29-.8-1.64-1.11-1.54-.37-2.42-.83-2.42-2.17v0a2.22,2.22,0,0,1,2.48-2.1,4,4,0,0,1,2.64.91l-.69,1a3.26,3.26,0,0,0-2-.75c-.74,0-1.18.38-1.18.86v0c0,.56.33.81,1.72,1.14,1.54.38,2.34.93,2.34,2.13v0c0,1.36-1.07,2.17-2.6,2.17A4.53,4.53,0,0,1,90.73,137.77Z"/><path d="M99.65,132.74H97.34v-1.18h5.9v1.18h-2.31v6.08H99.65Z"/><path d="M111.76,138a3.18,3.18,0,0,1-2.23,1,2.14,2.14,0,0,1-2.36-2.08v0a2.17,2.17,0,0,1,1.54-2,2.4,2.4,0,0,1-.6-1.52v0a1.9,1.9,0,0,1,2.09-1.82,1.79,1.79,0,0,1,1.93,1.75v0c0,1-.63,1.53-1.6,1.89l1.25,1.27a12.39,12.39,0,0,0,.77-1.41l1,.51a10.55,10.55,0,0,1-1,1.66l1.14,1.16-.94.68Zm-.72-.74-1.62-1.65a1.34,1.34,0,0,0-1,1.2v0a1.1,1.1,0,0,0,1.21,1.06A2,2,0,0,0,111,137.24Zm0-4v0a.8.8,0,0,0-.83-.82.83.83,0,0,0-.86.87v0a1.5,1.5,0,0,0,.55,1.07C110.6,134.14,111,133.8,111,133.28Z"/><path d="M118,131.56h2.71a3.62,3.62,0,0,1,3.86,3.61v0a3.63,3.63,0,0,1-3.86,3.63H118Zm2.71,6.1a2.37,2.37,0,0,0,2.52-2.45v0a2.39,2.39,0,0,0-2.52-2.47h-1.43v4.94Z"/><path d="M126.22,131.56h1.27v7.26h-1.27Z"/><path d="M128.81,131.56h1.41l2.19,5.58,2.18-5.58H136l-3,7.32h-1.12Z"/><path d="M137.29,131.56h1.27v7.26h-1.27Z"/><path d="M140,137.77l.76-.92a3.33,3.33,0,0,0,2.3,1c.79,0,1.28-.37,1.28-.92v0c0-.52-.29-.8-1.64-1.11-1.54-.37-2.41-.83-2.41-2.17v0a2.22,2.22,0,0,1,2.48-2.1,4,4,0,0,1,2.63.91l-.68,1a3.31,3.31,0,0,0-2-.75c-.75,0-1.19.38-1.19.86v0c0,.56.34.81,1.73,1.14s2.33.93,2.33,2.13v0c0,1.36-1.07,2.17-2.59,2.17A4.51,4.51,0,0,1,140,137.77Z"/><path d="M147.22,131.56h1.27v7.26h-1.27Z"/><path d="M150.11,135.21v0a3.8,3.8,0,0,1,7.6,0v0a3.8,3.8,0,0,1-7.6,0Zm6.26,0v0a2.49,2.49,0,0,0-2.47-2.58,2.45,2.45,0,0,0-2.45,2.56v0a2.5,2.5,0,0,0,2.47,2.59A2.46,2.46,0,0,0,156.37,135.21Z"/><path d="M159.25,131.56h1.19l3.89,5v-5h1.25v7.26h-1.07l-4-5.16v5.16h-1.26Z"/><path d="M44.91,146.88v0a3.8,3.8,0,0,1,7.6,0v0a3.8,3.8,0,0,1-7.6,0Zm6.26,0v0a2.49,2.49,0,0,0-2.47-2.58,2.45,2.45,0,0,0-2.45,2.56v0a2.49,2.49,0,0,0,2.47,2.59A2.46,2.46,0,0,0,51.17,146.88Z"/><path d="M54.05,143.23h5.41v1.16H55.33v2H59v1.16H55.33v3H54.05Z"/><path d="M66.54,143.18h1.19l3.19,7.32H69.57l-.73-1.76H65.4l-.75,1.76h-1.3Zm1.83,4.43-1.26-2.9-1.24,2.9Z"/><path d="M71.84,146.88v0a3.68,3.68,0,0,1,3.75-3.75,3.78,3.78,0,0,1,2.84,1.13l-.82.94a2.87,2.87,0,0,0-2-.9,2.44,2.44,0,0,0-2.4,2.56v0a2.46,2.46,0,0,0,2.4,2.59,2.85,2.85,0,0,0,2.09-.95l.82.83a3.76,3.76,0,0,1-2.95,1.29A3.66,3.66,0,0,1,71.84,146.88Z"/><path d="M82.4,143.18h1.18l3.2,7.32H85.43l-.74-1.76H81.25l-.74,1.76H79.2Zm1.82,4.43L83,144.71l-1.25,2.9Z"/><path d="M88,143.23h2.71a3.62,3.62,0,0,1,3.86,3.61v0a3.64,3.64,0,0,1-3.86,3.64H88Zm2.71,6.1a2.37,2.37,0,0,0,2.52-2.45v0a2.39,2.39,0,0,0-2.52-2.47H89.3v4.94Z"/><path d="M96.13,143.23h5.39v1.14H97.41v1.89h3.64v1.14H97.41v1.95h4.16v1.15H96.13Z"/><path d="M103.08,143.23h1.36l2.21,3.44,2.22-3.44h1.35v7.27H109v-5.21l-2.3,3.42h0l-2.27-3.4v5.19h-1.26Z"/><path d="M112.16,143.23h1.28v7.27h-1.28Z"/><path d="M115.06,146.88v0a3.67,3.67,0,0,1,3.74-3.75,3.82,3.82,0,0,1,2.85,1.13l-.82.94a2.9,2.9,0,0,0-2-.9,2.43,2.43,0,0,0-2.39,2.56v0a2.45,2.45,0,0,0,2.39,2.59,2.81,2.81,0,0,0,2.09-.95l.82.83a3.76,3.76,0,0,1-3,1.29A3.66,3.66,0,0,1,115.06,146.88Z"/><path d="M128.72,143.18h1.19l3.19,7.32h-1.35l-.73-1.76h-3.44l-.75,1.76h-1.3Zm1.83,4.43-1.26-2.9-1.24,2.9Z"/><path d="M134.35,143.23h5.4v1.16h-4.13v2h3.67v1.16h-3.67v3h-1.27Z"/><path d="M141.15,143.23h5.41v1.16h-4.13v2h3.66v1.16h-3.66v3h-1.28Z"/><path d="M150.53,143.18h1.18l3.2,7.32h-1.35l-.73-1.76h-3.44l-.75,1.76h-1.3Zm1.83,4.43-1.26-2.9-1.24,2.9Z"/><path d="M156.23,143.23h1.27v7.27h-1.27Z"/><path d="M159.44,143.23h3.24a2.93,2.93,0,0,1,2.1.73,2.2,2.2,0,0,1,.6,1.57v0a2.19,2.19,0,0,1-1.73,2.2l2,2.75H164.1L162.32,148h-1.6v2.54h-1.28Zm3.15,3.6c.91,0,1.49-.47,1.49-1.21v0c0-.78-.56-1.21-1.5-1.21h-1.86v2.44Z"/><path d="M166.46,149.44l.77-.92a3.3,3.3,0,0,0,2.29.95c.79,0,1.29-.36,1.29-.91v0c0-.52-.3-.8-1.64-1.12-1.55-.37-2.42-.83-2.42-2.16v0a2.22,2.22,0,0,1,2.48-2.11,4,4,0,0,1,2.63.91l-.68,1a3.29,3.29,0,0,0-2-.75c-.75,0-1.19.38-1.19.86v0c0,.56.34.81,1.73,1.14s2.33.93,2.33,2.13v0c0,1.36-1.07,2.17-2.59,2.17A4.46,4.46,0,0,1,166.46,149.44Z"/><rect x="89.44" y="107.43" width="62.57" height="1.68"/><path d="M83.45,108a2.18,2.18,0,0,0-1.18.16,7.54,7.54,0,0,0-1.39-2.56L83.44,108a2.69,2.69,0,0,0-.74-3.1c-2.27-2.11-6.63-6.09-6.62-6.07a17,17,0,0,1,1.13,10l2.24.42.27.46a11.48,11.48,0,0,1,3,.71s.89.62-.06,1.46a5.17,5.17,0,0,0,2.26-1.07s.75-.65-.13-1.53L83.45,108"/><path d="M71.36,94.27l-32.13-30a3.5,3.5,0,0,1-.93-3.41l-2.63,5.79a3,3,0,0,0,1.14,3.58L62.45,91l0,.84-24.74-19a2.91,2.91,0,0,1-1.09-2.43L34.85,74.1c-.86,2.07,1.28,3.4,2.17,4S62.58,95.9,62.58,95.9l.22,1S38.89,81,38,80.48a2.56,2.56,0,0,1-1-2.15l-1.75,3.74c-.73,1.53,1.35,2.59,2.28,3.15L62.5,100.08H48.2a4.42,4.42,0,0,1-2.81-.63l1.91,1.79a3.7,3.7,0,0,0,2.45,1.39H55l1,.45-4.6.36a3.21,3.21,0,0,1-2.39-.54l2,2a2.49,2.49,0,0,0,2,.89c1-.09,6.76-1.05,6.76-1.05l.91.42-6.06,1.32a3.17,3.17,0,0,1-2.37-.41s1.14,1.13,1.9,1.86,1.49,1.23,4,.53c1-.28,5.92-1.84,5.92-1.84L67.33,108a26.58,26.58,0,0,0,7.16,6.76,1.72,1.72,0,0,0-.11,1.94,3.38,3.38,0,0,1,3.25-1.91c1,.15.71,1.33.74,1.28.6-.75,1.09-1.67.49-2.44-.73-.93-2.61-.12-2.61-.12l-1.82-3.34,2.48-1.42c1.35-8.62-5.55-14.48-5.55-14.48"/><polyline points="137.7 66.29 134.9 74.02 139.17 74.02 140.22 71.06 144.41 71.06 144.4 92.24 142.03 92.25 140.31 97.01 152.08 97.02 153.85 92.25 150.55 92.24 150.54 71.06 155.47 71.06 155.45 74.02 158.41 74.01 161.22 66.28 137.7 66.29"/><path d="M132.18,71.05l0,26h-3.62l-18-19c0,2.52,0,14.19,0,14.19h3.33l-1.73,4.8H101.3l1.73-4.8h1.87V71.07h-4l1.72-4.78h6.67s12.9,13.45,17.37,18.18c0-1.46,0-13.4,0-13.4h-3.24l1.71-4.79h11.14l-1.72,4.79-2.39,0"/><path d="M90.29,66.29l-1.77,4.78h3V85c0,2.55-.47,4-1.72,5.24a6.29,6.29,0,0,1-4.35,1.61,7,7,0,0,1-5.08-1.9c-1.17-1.15-1.73-3-1.73-5.82V66.29l-8.67,0-1.77,4.76,3.7,0V84.47c-.94-1.22-1.78-2.12-2.24-2.64S54.32,64.59,54.32,64.59a2.55,2.55,0,0,1-.8-2.64l-1.74,3.9c-.38,1.08.34,1.77.87,2.39s16.21,17,16.21,17l-.11.9L53.91,71.31c-1.19-1.22-.86-2.15-.81-2.28l-1.59,3.59c-.36,1.11.78,1.84,1.57,2.6S70.43,91.47,71.78,92.7a18.9,18.9,0,0,1,4.3,6.11,15,15,0,0,0,.24-3.74,13.74,13.74,0,0,0,8.22,2.59c7.67,0,12.63-5,12.63-12.63l0-14h2.2l1.71-4.78Z"/><path d="M160.09,71.91a1.07,1.07,0,0,1,0,2.13,1.07,1.07,0,0,1,0-2.13Zm0,.16a.9.9,0,1,0,.83.9.86.86,0,0,0-.83-.9Zm-.2,1.52h-.18V72.4a2.68,2.68,0,0,1,.33,0,.59.59,0,0,1,.35.09.3.3,0,0,1,.11.25.29.29,0,0,1-.22.29h0c.09,0,.16.11.19.29a1.13,1.13,0,0,0,.07.29h-.19a1.07,1.07,0,0,1-.08-.3.22.22,0,0,0-.25-.21h-.13Zm0-.66H160c.15,0,.28-.06.28-.2s-.08-.21-.28-.21h-.14Z"/></svg>