<?xml version="1.0" encoding="utf-8"?>
<!-- Generator: Adobe Illustrator 24.0.0, SVG Export Plug-In . SVG Version: 6.00 Build 0)  -->
<svg version="1.1" id="Layer_1" xmlns="http://www.w3.org/2000/svg" xmlns:xlink="http://www.w3.org/1999/xlink" x="0px" y="0px"
	 viewBox="0 0 126 57" style="enable-background:new 0 0 126 57;" xml:space="preserve">
<style type="text/css">
	.st0{fill:none;}
	.st1{fill:#FFFFFF;}
</style>
<g id="Layer_1_1_">
</g>
<g id="Layer_2_1_">
	<g>
		<line class="st0" x1="16.6" y1="13.4" x2="16.6" y2="13.4"/>
		<line class="st0" x1="16.4" y1="13.6" x2="16.4" y2="13.6"/>
		<g>
			<path class="st1" d="M47.4,45.8c-0.4-0.2-1.1,0.2-1.1,0.2c-0.2-1-1.3-2.5-1.3-2.5S47.3,45.6,47.4,45.8c0-0.1,0.8-1.6-0.7-3
				c-2.2-2.1-6.4-5.9-6.4-5.9c0.3,1,2,4,1.1,9.7l2.2,0.4l0.3,0.4c0,0,2.5,0.3,2.9,0.7c0,0,0.9,0.6-0.1,1.4c0,0,1.4-0.3,2.2-1.1
				c0,0,0.7-0.6-0.1-1.5L47.4,45.8"/>
		</g>
		<path class="st1" d="M47.4,45.8L47.4,45.8L47.4,45.8C47.4,45.8,47.4,45.8,47.4,45.8L47.4,45.8"/>
		<g>
			<path class="st1" d="M35.7,32.5L4.4,3.3C2.9,1.9,3.5,0,3.5,0L1,5.6C0.3,7.4,1.3,8.5,2.1,9.1C2.8,9.7,27,29.3,27,29.3l0,0.8
				L3,11.6c-1.2-0.9-1-2.4-1-2.4l-1.7,3.6c-0.8,2,1.2,3.3,2.1,3.9S27.1,34,27.1,34l0.2,1c0,0-23.2-15.5-24.1-16c-1-0.6-1-2.1-1-2.1
				l-1.7,3.6c-0.7,1.5,1.3,2.5,2.2,3.1C3.4,24,16.3,31.7,27,38.1H13.2c-2,0-2.7-0.6-2.7-0.6l1.9,1.7c0.3,0.3,1.2,1.3,2.4,1.3
				c0.9,0,5.1,0,5.1,0l1,0.4l-4.5,0.3c-0.9,0-1.1,0.1-2.3-0.5c0,0,2,1.9,2,1.9c0.6,0.5,1,0.9,2,0.9c1-0.1,6.6-1,6.6-1l0.9,0.4
				l-5.9,1.3c-1.3,0.3-2.3-0.4-2.3-0.4s1.1,1.1,1.8,1.8c0.8,0.7,1.5,1.2,3.9,0.5c1-0.3,5.7-1.8,5.7-1.8l3.1,1.3c3.1,4.3,7,6.6,7,6.6
				c-0.7,0.9-0.1,1.9-0.1,1.9c0.6-1.3,2.1-2,3.2-1.8c0.9,0.1,0.7,1.3,0.7,1.2c0.6-0.7,1.1-1.6,0.5-2.4c-0.7-0.9-2.5-0.1-2.5-0.1
				l-1.8-3.2l2.4-1.4C42.4,38.1,35.7,32.5,35.7,32.5"/>
		</g>
		<path class="st1" d="M34,20.4C33.6,19.9,19.1,3.6,19.1,3.6c-1.3-1.4-0.8-2.5-0.8-2.6l-1.7,3.8c-0.4,1,0.3,1.7,0.8,2.3
			C18,7.8,33.2,23.7,33.2,23.7l-0.1,0.9L18.7,10.1c-1.2-1.2-0.8-2.1-0.8-2.2l-1.5,3.5c-0.3,1.1,0.8,1.8,1.5,2.5
			c0.8,0.8,16.9,15.8,18.2,17c2.8,2.6,4.2,5.9,4.2,5.9C41.9,28.6,35.6,22.2,34,20.4"/>
		<polyline class="st1" points="18.3,1 18.3,1 18.3,1 		"/>
		<path class="st1" d="M17.9,7.9L17.9,7.9C17.9,7.9,17.9,7.9,17.9,7.9"/>
		<g>
			<polyline class="st1" points="100.1,5.3 97.4,12.8 101.5,12.8 102.6,9.9 106.6,9.9 106.6,30.5 104.3,30.5 102.6,35.1 114.1,35.1 
				115.8,30.5 112.6,30.5 112.6,9.9 117.4,9.9 117.4,12.8 120.2,12.8 123,5.2 100.1,5.3 			"/>
			<path class="st1" d="M54,5.3l-1.7,4.6l2.9,0v13.5c0,2.5-0.4,3.9-1.7,5.1c-0.9,1-2.6,1.6-4.2,1.6c-2,0-3.8-0.7-4.9-1.8
				c-1.1-1.1-1.7-3-1.7-5.7l0-17.3l-8.4,0l-1.7,4.6l3.6,0v12.8c0,12.1,9.4,13,12.3,13c7.5,0,12.3-4.8,12.3-12.3l0-13.6h2.1l1.7-4.6
				L54,5.3"/>
			<path class="st1" d="M94.8,9.9l0,25.2h-3.5c0,0-16.4-17.3-17.5-18.4c0,2.5,0,13.8,0,13.8H77l-1.7,4.7H64.7l1.7-4.7h1.8V9.9h-3.8
				l1.7-4.6h6.5c0,0,12.5,13.1,16.9,17.7c0-1.4,0-13,0-13h-3.2l1.7-4.7h10.8l-1.7,4.7L94.8,9.9"/>
			<g>
				<path class="st1" d="M124.5,5L124.5,5c-0.9,0-1.5,0.7-1.5,1.6c0,0.9,0.7,1.6,1.5,1.6s1.5-0.7,1.5-1.6C126,5.7,125.3,5,124.5,5z
					 M124.5,7.9c-0.7,0-1.2-0.6-1.2-1.4c0-0.7,0.6-1.3,1.2-1.3h0c0.7,0,1.2,0.6,1.2,1.3C125.7,7.3,125.2,7.9,124.5,7.9z"/>
				<path class="st1" d="M124.8,6.6L124.8,6.6c0.2-0.1,0.3-0.2,0.3-0.4c0-0.2-0.1-0.3-0.2-0.4c-0.1-0.1-0.3-0.1-0.5-0.1
					c-0.2,0-0.3,0-0.5,0v1.8h0.3V6.7h0.2c0.2,0,0.3,0.1,0.4,0.3s0.1,0.4,0.1,0.5h0.3c0,0-0.1-0.2-0.1-0.4
					C125,6.8,124.9,6.7,124.8,6.6z M124.4,6.5h-0.2V5.9c0.1,0,0.1,0,0.2,0c0.3,0,0.4,0.1,0.4,0.3C124.8,6.4,124.6,6.5,124.4,6.5z"/>
			</g>
		</g>
		<g>
			<g>
				<path class="st1" d="M61.3,48.9c-0.9,0-1.8-0.3-2.1-0.8c-0.3-0.4-0.3-0.8-0.3-2.6l0-1.3c0-0.2-0.3-0.2-0.4-0.2h-0.1l0.1-0.3h0
					c0.1,0,0.8,0,1,0c0.3,0,0.9,0,0.9,0l-0.1,0.3c-0.2,0-0.5,0-0.5,0.3v2.3c0,0.7,0,1.8,1.4,1.8c1,0,1.5-0.5,1.5-1.6l0-2.6
					c0-0.2-0.4-0.2-0.4-0.2l0.1-0.3h0c0.1,0,0.4,0,0.7,0c0.3,0,0.7,0,0.7,0l-0.1,0.3h-0.1c-0.1,0-0.3,0-0.3,0.3l0,2.3
					c0,0.3-0.1,1.2-0.5,1.7C62.5,48.7,61.8,48.9,61.3,48.9"/>
				<path class="st1" d="M69.1,48.8c-0.7-0.8-1.2-1.2-1.5-1.6c-0.2-0.2-0.3-0.3-0.5-0.5l-0.5-0.6c-0.5-0.6-0.9-1-1.1-1.2
					c0,0.4,0,1.8,0,1.8l0,2l-0.5,0l-0.7,0l0.1-0.3c0.2,0,0.4,0,0.4-0.3l0-0.2c0-0.2,0-0.5,0-1.1l0-2.6c0-0.2-0.2-0.2-0.4-0.2
					l0.1-0.3h0c0.1,0,0.2,0,0.4,0c0.2,0,0.4,0,0.4,0c1.5,1.7,1.5,1.7,1.5,1.7c0,0,1.6,1.7,2,2.1c0-0.7,0-3,0-3l0-0.8c0,0,0,0,0,0
					c0.1,0,0.3,0,0.6,0c0.3,0,0.7,0,0.7,0L70.1,44c-0.1,0-0.5,0-0.5,0.2c0,0-0.1,2.1-0.1,2.7c0,0.6,0,1.5,0,1.9L69.1,48.8L69.1,48.8
					"/>
				<path class="st1" d="M71.2,48.4L71.2,48.4c0.2,0,0.4,0,0.4-0.2v-4.1c0-0.2-0.3-0.2-0.5-0.2c-0.1,0-0.1,0-0.1,0l0.1-0.3
					c0,0,0,0,0,0c0.1,0,0.5,0,0.8,0c0.4,0,0.9,0,0.9,0l-0.1,0.3c-0.2,0-0.3,0-0.3,0.2v4.1c0,0.1,0.1,0.1,0.2,0.2c0.1,0,0.2,0,0.3,0
					H73l-0.1,0.3h0c-0.1,0-0.4,0-0.8,0c-0.5,0-0.9,0-0.9,0h0L71.2,48.4"/>
				<path class="st1" d="M75.8,48.8c0,0-0.5-1.2-1.1-2.6c-0.4-0.8-0.8-1.6-1-2l-0.1-0.1C73.6,44,73.4,44,73.3,44c-0.1,0-0.1,0-0.1,0
					l0.1-0.3c0,0,0,0,0,0c0.1,0,0.3,0,0.5,0c0.3,0,0.5,0,0.5,0l1.5,3.1c0.2,0.6,0.3,0.8,0.4,1.1c0-0.2,0.7-1.8,0.7-1.8
					c0,0,0.7-1.5,0.8-1.8c0.1-0.3,0.2-0.6,0.2-0.6h0c0.1,0,0.3,0,0.5,0c0.2,0,0.5,0,0.5,0L78.9,44c-0.1,0-0.3,0-0.6,0.5
					c-0.2,0.3-0.7,1.5-0.7,1.5l-1.2,2.8H75.8"/>
				<path class="st1" d="M88.9,48.9c-0.8,0-1.4-0.1-2.2-0.9c-0.9-1-1.9-2.1-1.9-2.2c0,0.2,0,1.8,0,2.2s0,0.7,0,0.7s0,0,0,0
					c-0.1,0-0.2,0-0.5,0c-0.3,0-0.8,0-0.8,0l0.1-0.3c0.2,0,0.3,0,0.4-0.1c0,0,0-0.1,0-0.1v-4.1c0-0.2-0.3-0.2-0.4-0.2l0.1-0.3
					c0,0,0,0,0,0c0.1,0,0.5,0,0.9,0c0.2,0,0.2,0,0.4,0c0.2,0,0.3,0,0.8,0c0.5,0,1.4,0.2,1.4,0.9c0,0.8-0.7,1.2-1.4,1.4
					c2.1,2.2,2.6,2.5,3.5,2.5c0.1,0,0.2,0,0.2,0c0.4-0.1,1.1-0.4,1.1-1.1c0-0.4,0-0.9-1.1-0.9c-0.9-0.1-1.4-0.5-1.4-1.2
					c0-0.4,0.1-0.8,0.4-1.1c0.4-0.4,0.9-0.6,1.5-0.6c0.8,0,1.1,0.4,1.1,0.4L91,44.8l-0.3,0c0,0-0.1-0.4-0.1-0.4
					c0-0.1-0.4-0.3-0.9-0.3c-0.6,0-0.9,0.3-0.9,0.8c0,0.5,0.4,0.8,1.2,0.9c0.9,0.1,1.3,0.5,1.3,1.2C91.3,48,90.1,48.9,88.9,48.9
					 M84.8,44.1c0,0,0,1.6,0,1.7c0.9-0.1,1.4-0.4,1.4-1.1c0-0.6-0.6-0.7-1-0.7C84.9,44,84.9,44.1,84.8,44.1"/>
				<path class="st1" d="M92.3,48.5L92.3,48.5c0.2,0,0.4,0,0.4-0.2v-4.1c0-0.2-0.2-0.2-0.4-0.2c-0.1,0-0.1,0-0.1,0l0.1-0.3h0
					c0.1,0,0.4,0,0.8,0c0.4,0,0.9,0,0.9,0L93.9,44c-0.2,0-0.4,0-0.4,0.2v4.1c0,0.1,0.1,0.1,0.1,0.2c0.1,0,0.2,0,0.3,0H94l-0.1,0.3h0
					c-0.1,0-0.4,0-0.8,0c-0.5,0-0.9,0-0.9,0h0L92.3,48.5"/>
				<path class="st1" d="M100.8,48.8l-0.9,0l0.1-0.3c0,0,0.4,0,0.4-0.2l0-1.4c0-0.3-0.2-0.5-0.5-1c-0.1-0.2-0.2-0.3-0.4-0.5
					c-0.8-1.2-0.9-1.2-1.4-1.2c-0.5,0-1,0-1.1,0v4.1c0,0.1,0.1,0.1,0.1,0.2c0.1,0,0.2,0,0.3,0h0.1l-0.1,0.3h0c-0.1,0-0.4,0-0.8,0
					c-0.5,0-0.9,0-0.9,0l0.1-0.3H96c0.1,0,0.3,0,0.3-0.2l0-4.2l0,0c0,0-0.1,0-0.6,0c-0.3,0-0.7,0-0.7,0c-0.3,0-0.4,0.4-0.4,0.4
					l-0.2-0.1l0.3-0.8l2,0l2,0c0.8,0,0.9,0.3,1.4,1c0.1,0.1,0.2,0.3,0.3,0.5c0.2,0.3,0.3,0.5,0.4,0.7l0.2,0.4
					c0.1-0.2,0.7-1.2,1.1-1.8c0.2-0.3,0.4-0.6,0.4-0.6c0.1-0.1,0.1-0.2,0.1-0.2s0,0,0,0c0,0,0.2,0,0.3,0c0.2,0,0.6,0,0.6,0h0l0,0.1
					c-0.1,0-0.4,0.2-0.6,0.5c-0.1,0.1-0.1,0.2-0.2,0.3c-0.5,0.6-1.5,2-1.5,2.5l0,1.3c0,0.1,0.1,0.1,0.1,0.2c0.1,0,0.2,0,0.3,0
					c0.1,0,0.1,0,0.1,0l-0.1,0.3L100.8,48.8"/>
				<path class="st1" d="M81.9,48.8c-0.6,0-1.3,0-1.8,0c-0.2,0-0.4,0-0.5,0c-0.1,0-0.2,0-0.3,0h-0.1l0.1-0.3c0,0,0.4,0,0.4-0.4
					c0-0.1,0-0.3,0-0.5c0-0.5,0-1.2,0-1.8c0-0.5,0-1,0-1.4l0-0.3c0-0.2-0.2-0.2-0.3-0.2c-0.1,0-0.1,0-0.1,0l0.1-0.3h0
					c0.1,0,0.4,0,0.7,0c0.6,0,1.8,0,1.8,0c0.4,0,0.6,0.1,0.6,0.1s0,0.3,0,0.5l0,0.2c0,0-0.3,0.2-0.3,0.2c0-0.3-0.1-0.5-0.8-0.5
					l-0.8,0c0,0,0,0.1,0,0.4v1.3l0.1,0h0.8h0.9l-0.2,0.6c0,0,0,0,0,0c-0.1,0-0.3,0-0.7,0c-0.3,0-0.5,0-0.7,0h-0.2l0,1
					c0,0.4,0,0.7,0,0.9h0.2c0.2,0,0.5,0,0.7,0c0.3,0,0.6,0,0.8,0c0,0,0-0.7,0-0.7l0.4,0.3l0,0.6c0,0.2,0,0.3,0,0.3l-0.1,0L81.9,48.8
					"/>
			</g>
			<g>
				<path class="st1" d="M50.1,56.7c-1.5,0-2.5-1-2.5-2.5c0-1.1,0.5-2,1.4-2.4c0.5-0.2,1-0.3,1.5-0.3c1.5,0,2.4,0.9,2.4,2.3
					C53.1,55.4,51.8,56.7,50.1,56.7 M50.3,51.9c-0.8,0-1.4,0.4-1.7,1c-0.1,0.3-0.2,0.7-0.2,1.1c0,0.9,0.3,1.5,0.9,1.9
					c0.3,0.2,0.7,0.3,1.1,0.3c1.1,0,1.9-0.9,1.9-2.2c0-0.9-0.3-1.5-1-1.8C51.1,52,50.7,51.9,50.3,51.9"/>
				<path class="st1" d="M54,56.2c0.2,0,0.4-0.1,0.4-0.4v-4c0-0.2-0.3-0.2-0.4-0.2c-0.1,0-0.1,0-0.1,0l0.1-0.3h0c0.1,0,0.3,0,0.8,0
					c0.6,0,1.8,0,1.8,0c0.4,0,0.6,0.1,0.6,0.1c0,0,0,0.3,0,0.5l0,0.2c0,0-0.3,0.2-0.3,0.2c0-0.2-0.1-0.5-0.8-0.5l-0.8,0
					c0,0,0,0.1,0,0.4c0,0,0,1.2,0,1.3l1.8,0l-0.2,0.5l-1.6,0l0,2c0,0.1,0.1,0.1,0.1,0.2c0.1,0,0.2,0,0.3,0s0.1,0,0.1,0l-0.1,0.3h0
					c-0.1,0-0.3,0-0.8,0c-0.5,0-1,0-1,0h0L54,56.2"/>
				<path class="st1" d="M65,56.6c-0.7-0.8-1.1-1.2-1.5-1.6c-0.2-0.2-0.3-0.3-0.5-0.5L62.6,54c-0.6-0.6-1-1.1-1.2-1.3
					c0,0.4,0,1.8,0,1.8l0,2c0,0,0,0-0.1,0c-0.1,0-0.2,0-0.4,0c-0.3,0-0.7,0-0.7,0l0.1-0.3c0.2,0,0.4,0,0.4-0.3v-0.2
					c0-0.2,0-0.5,0-1.1c0,0,0-2.2,0-2.6c0-0.2-0.2-0.2-0.6-0.2l-0.1,0c0,0,0,0,0.1-0.3c0,0,0,0,0,0c0.1,0,0.5,0,0.6,0
					c0.2,0,0.4,0,0.4,0c1.5,1.7,1.5,1.7,1.5,1.7c0,0,1.6,1.7,2,2.1v-3l0-0.8c0,0,0,0,0,0c0.1,0,0.3,0,0.6,0c0.2,0,0.6,0,0.6,0
					l-0.1,0.3c-0.1,0-0.4,0-0.4,0.2c0,0-0.1,2.1-0.1,2.7c0,0.6,0,1.5,0,1.9H65L65,56.6"/>
				<path class="st1" d="M77.6,57c-0.2-0.1-0.5-0.4-0.8-0.8c-0.1-0.2-0.3-0.3-0.4-0.5c-1-1.1-1.9-2.1-1.9-2.2c0,0.2,0,1.8,0,2.2
					s0,0.7,0,0.7s0,0,0,0c-0.1,0-0.3,0-0.5,0c-0.3,0-0.8,0-0.8,0l0.1-0.3c0.2,0,0.3,0,0.4-0.1c0,0,0-0.1,0-0.1l0.1-2.4
					c0-0.6,0-1.1-0.1-1.4c0-0.1,0-0.2,0-0.2c0-0.2-0.3-0.2-0.4-0.2l0.1-0.3c0,0,0,0,0,0c0.1,0,0.5,0,0.9,0c0.2,0,0.2,0,0.4,0
					c0.2,0,0.3,0,0.7,0c0.5,0,1.4,0.2,1.4,0.9c0,0.8-0.6,1.1-1.2,1.3c-0.1,0-0.2,0.1-0.2,0.1c0.1,0.1,0.7,0.6,1.2,1.2
					c0.5,0.5,1,1.1,1.5,1.5c0.3,0.3,0.4,0.4,0.7,0.6l0,0L77.6,57 M74.8,51.8c-0.3,0-0.3,0-0.3,0l0,1.7c0.1,0,0.5,0,0.8-0.2
					c0.4-0.2,0.6-0.5,0.6-0.9C75.8,52,75.5,51.8,74.8,51.8"/>
				<path class="st1" d="M69.2,56.6c-1.5,0-2.5-1-2.5-2.5c0-1.2,0.5-2,1.4-2.5c0.5-0.2,1-0.3,1.5-0.3c1.5,0,2.5,0.9,2.5,2.3
					C72.2,55.4,70.9,56.6,69.2,56.6 M69.4,51.8c-0.8,0-1.4,0.4-1.7,1c-0.1,0.3-0.2,0.7-0.2,1.1c0,0.9,0.3,1.5,0.9,1.9
					c0.3,0.2,0.7,0.3,1.1,0.3c1.1,0,1.9-0.9,1.9-2.2c0-0.8-0.3-1.4-1-1.8C70.1,51.9,69.8,51.8,69.4,51.8"/>
				<path class="st1" d="M79,56.2c0.1,0,0.3,0,0.3-0.2l0-2.4l0-1.7c0,0-0.1,0-0.6,0c-0.3,0-0.7,0-0.7,0c-0.3,0-0.4,0.4-0.4,0.4
					l-0.2-0.1l0.3-0.8l2,0l2.2,0l-0.1,0.8l-0.2,0c0,0,0-0.2-0.1-0.3c-0.1-0.1-0.1-0.1-0.2-0.1c-0.5,0-1.1,0-1.1,0v0.2
					c0,0.3,0,0.9,0,1.5c0,0.8,0,1.6,0,2V56c0,0.1,0.1,0.1,0.2,0.2c0.1,0,0.2,0,0.3,0h0.1l-0.1,0.3c0,0,0,0,0,0c-0.1,0-0.4,0-0.8,0
					c-0.5,0-0.8,0-0.8,0h0L79,56.2"/>
				<path class="st1" d="M86.4,56.2L86.4,56.2c0.2,0,0.4,0,0.4-0.2v-1.9c0,0-0.1,0-0.1,0c-0.2,0-0.7,0-1.4,0c-1,0-1.4,0-1.4,0l0,1.9
					c0,0.1,0.1,0.1,0.2,0.2c0.1,0,0.2,0,0.3,0h0.1l-0.1,0.3c0,0,0,0,0,0c-0.1,0-0.4,0-0.8,0c-0.5,0-0.9,0-0.9,0l0.1-0.3h0.1
					c0.1,0,0.3,0,0.3-0.2l0.1-2.4L83,51.9c0-0.2-0.2-0.2-0.4-0.2c-0.1,0-0.1,0-0.1,0l0.1-0.3c0,0,0,0,0,0c0.1,0,0.4,0,0.8,0
					c0.4,0,0.9,0,0.9,0l-0.1,0.3c-0.2,0-0.4,0-0.4,0.2v1.6c0,0,0.1,0,0.2,0c0.3,0,0.9,0,1.3,0c0.6,0,1.5,0,1.5,0l0-1.6
					c0-0.2-0.2-0.2-0.4-0.2c-0.1,0-0.1,0-0.1,0l0.1-0.3c0,0,0,0,0,0c0.1,0,0.4,0,0.8,0c0.4,0,0.9,0,0.9,0L88,51.7
					c-0.2,0-0.4,0-0.4,0.2c0,0,0,0.1,0,0.2c0,0.3-0.1,0.8-0.1,1.4c0,0.7,0,1.6,0.1,2.1c0,0.2,0,0.3,0,0.4c0,0.2,0.3,0.2,0.4,0.2h0.1
					L88,56.5c0,0,0,0,0,0c-0.1,0-0.4,0-0.8,0c-0.5,0-0.9,0-0.9,0h0L86.4,56.2"/>
				<path class="st1" d="M99.1,57c0,0,0.3-0.2,0.6-0.5c0.3-0.3,1.4-1.6,1.8-2.2c0,0,0.2-0.2,0.2-0.2c-0.1-0.1-0.1-0.2-0.2-0.2
					c-0.1-0.1-0.2-0.3-0.3-0.4c-0.1-0.2-0.3-0.4-0.4-0.7c-0.6-0.9-0.7-1-1.2-1l0.1-0.3l0.5,0c0.1,0,0.6,0,0.6,0c0,0,0.8,1.2,1.2,1.8
					l0.2,0.2c0,0,0.1-0.1,0.1-0.2c0.2-0.3,0.4-0.6,0.7-0.9c0.3-0.3,0.5-0.7,0.6-0.7c0.1-0.1,0.1-0.2,0.1-0.2s0,0,0,0
					c0.1,0,0.3,0,0.4,0c0.2,0,0.5,0,0.5,0c0,0-0.3,0.2-0.5,0.5l-0.4,0.5c-0.3,0.4-0.8,1-1.1,1.4l-0.1,0.1c0,0,0,0.1,0,0.1
					c0,0.1,0.1,0.1,0.1,0.1c0.2,0.3,0.9,1.4,1.3,1.9c0.1,0.1,0.1,0.2,0.1,0.2c0,0,0,0,0.1-0.1l0.9-1.9l1.2-2.8l0.6,0
					c0,0,0.3,0.7,0.9,2c0.7,1.5,1,2,1.3,2.7c0.1,0.1,0.2,0.2,0.5,0.2l0.1-1l0.4,0c0,0,0.1,0.4,0.1,0.4c0,0.1,0.4,0.3,0.9,0.3
					c0.3,0,0.6-0.1,0.8-0.3c0.1-0.2,0.2-0.3,0.2-0.6c0-0.5-0.4-0.8-1.3-0.9c-0.9-0.1-1.4-0.5-1.4-1.2c0-0.3,0.1-0.7,0.3-0.9
					c0.4-0.5,1-0.8,1.7-0.8c0.2,0,0.5,0,0.7,0.1c0.3,0.1,0.4,0.2,0.4,0.3l-0.1,1l-0.4,0c0,0-0.1-0.4-0.1-0.4c0-0.1-0.4-0.3-0.9-0.3
					c-0.6,0-0.9,0.3-1,0.8c0,0.6,0.4,0.9,1.3,1c0.9,0.1,1.4,0.5,1.4,1.2c0,0.3-0.1,0.7-0.3,0.9c-0.4,0.5-1,0.8-1.7,0.8
					c-0.2,0-0.5,0-0.7-0.1l-0.2,0l0,0.1h0c-0.1,0-0.5,0-0.8,0c-0.3,0-0.5,0-0.5,0l-0.9-1.9c0,0,0,0-0.1,0c-0.1,0-0.5,0-1,0
					c-0.7,0-0.9,0-0.9,0l-0.2,0.4c-0.2,0.4-0.3,0.7-0.4,0.9c0,0.1,0,0.1,0,0.2c0.1,0.1,0.3,0.1,0.4,0.1l-0.1,0.3c0,0,0,0,0,0
					c-0.2,0-0.9,0-1.2,0c-0.4,0-0.7,0-0.7,0c-0.3-0.4-0.7-1.1-1-1.5l-0.2-0.3c0,0-0.1-0.1-0.1-0.1l-0.1,0.1l-0.6,0.7
					c-0.5,0.6-1,1.3-1.1,1.4c-0.1,0.2-0.1,0.2-0.1,0.2L99.1,57L99.1,57 M105.7,54.1c0.1,0,0.4,0,0.7,0c0.4,0,0.8,0,0.8,0l-0.3-0.7
					l-0.2-0.6c-0.1-0.2-0.2-0.4-0.2-0.5C106.4,52.6,105.8,54.1,105.7,54.1C105.7,54.1,105.7,54.1,105.7,54.1"/>
				<path class="st1" d="M92.4,56.2c0.1,0,0.3,0,0.3-0.2l0-2.4l0-1.7c0,0-0.1,0-0.6,0c-0.3,0-0.7,0-0.7,0c-0.3,0-0.4,0.4-0.4,0.4
					l-0.2-0.1l0.3-0.8l2,0l2.2,0l-0.1,0.8l-0.2,0c0,0,0-0.2-0.1-0.3c-0.1-0.1-0.1-0.1-0.2-0.1c-0.5,0-1.1,0-1.1,0v0.2
					c0,0.3,0,0.9,0,1.5c0,0.8,0,1.6,0,2l0,0.4c0,0.1,0.1,0.1,0.2,0.2c0.1,0,0.2,0,0.3,0H94l-0.1,0.3h0c-0.1,0-0.4,0-0.8,0
					c-0.5,0-0.8,0-0.8,0h0L92.4,56.2"/>
				<path class="st1" d="M98.8,56.6l-0.6,0c-0.5,0-1.1,0-1.5,0c-0.3,0-0.9,0-0.9,0l0.1-0.3c0,0,0.1,0,0.2-0.1
					c0.1-0.1,0.2-0.2,0.2-0.3c0-0.1,0-0.2,0-0.5c0-0.5,0-1.2,0-1.8c0-0.5,0-1,0-1.3v-0.3c0-0.2-0.3-0.2-0.4-0.2c-0.1,0-0.1,0-0.1,0
					l0.1-0.3h0c0.1,0,0.5,0,0.8,0c0.6,0,1.8,0,1.8,0c0.4,0,0.6,0.1,0.6,0.1c0,0,0,0.3,0,0.5l0,0.2c0,0-0.3,0.2-0.3,0.2
					c0-0.3-0.1-0.5-0.8-0.5l-0.8,0c0,0,0,0.1,0,0.4v1.3l0.1,0H98h1.1l-0.2,0.6c0,0,0,0-0.1,0c-0.1,0-0.5,0-0.8,0c-0.3,0-0.5,0-0.7,0
					h-0.1c0,0.2,0,0.9,0,0.9v0.1c0,0.4,0,0.7,0,0.9l0.1,0c0.2,0,0.5,0,0.8,0c0.3,0,0.4,0,0.7,0l0-0.7l0.4,0.3v0.6c0,0.2,0,0.3,0,0.3
					v0h0L98.8,56.6"/>
				<g>
					<path class="st1" d="M113.9,51.7c0-0.2-0.1-0.2-0.3-0.2h-0.3v0.9h0.1v-0.4h0.2l0.2,0.4v0h0.1l-0.3-0.4
						C113.8,51.9,113.9,51.8,113.9,51.7z M113.4,51.6h0.2c0.1,0,0.2,0,0.2,0.2c0,0.1-0.1,0.2-0.3,0.2h-0.2V51.6z"/>
					<path class="st1" d="M113.5,51.2c-0.4,0-0.7,0.3-0.7,0.8c0,0.4,0.3,0.8,0.7,0.8s0.7-0.3,0.7-0.8
						C114.3,51.5,114,51.2,113.5,51.2z M113.5,52.6c-0.4,0-0.6-0.3-0.6-0.7c0-0.4,0.3-0.7,0.6-0.7s0.6,0.3,0.6,0.7
						S113.9,52.6,113.5,52.6z"/>
				</g>
			</g>
		</g>
	</g>
</g>
</svg>
