<svg id="Layer_1" data-name="Layer 1" xmlns="http://www.w3.org/2000/svg" viewBox="0 0 120.88 122.88"><title>1-minutes</title><path d="M60.22,113.81a4.54,4.54,0,0,1,0,9.07A60.23,60.23,0,1,1,89.71,10.16l-1.26-3.3a5.06,5.06,0,1,1,9.45-3.6l5,13.15a5,5,0,0,1,.32,1.55,5,5,0,0,1-3.51,5.64L86.27,27.72a5,5,0,0,1-2.92-9.65l1.28-.39a50.55,50.55,0,0,0-10.19-4.19A51.17,51.17,0,1,0,60.22,113.81ZM35.83,91.22,38,72.68h4.54l3.82,13,3.82-13h4.49l2.22,18.54H52.25L50.82,79.29l.7,0L48.6,91.22H44.06L41.12,79.31l.77,0-1.4,11.93Zm24,0V72.68h4.84V91.22Zm8.21,0V72.68h3.84L78.35,83V72.68h4.84V91.22H79.35L72.83,80.89V91.22ZM47.86,67a10.08,10.08,0,0,1-4.77-1A6.37,6.37,0,0,1,40.25,63a10.45,10.45,0,0,1-.92-4.56V44.13a10.82,10.82,0,0,1,1-4.88,6.75,6.75,0,0,1,2.92-3,9.88,9.88,0,0,1,4.67-1h6.8a9.08,9.08,0,0,1,4.48,1,6.66,6.66,0,0,1,2.78,3,11.27,11.27,0,0,1,.94,4.88V58.46a8.71,8.71,0,0,1-2.12,6.22A7.93,7.93,0,0,1,54.67,67Zm2-7.31H52.4a2.1,2.1,0,0,0,2.36-2.44V45a2.5,2.5,0,0,0-.59-2,2.19,2.19,0,0,0-1.43-.48H49.59a2,2,0,0,0-1.6.59A2.78,2.78,0,0,0,47.48,45V57.16a2.6,2.6,0,0,0,.59,1.91,2.54,2.54,0,0,0,1.81.57ZM71.53,66.7V43h-5V37.74l5.89-2.53h7.23V66.7Zm39.69-36.94c-3.52-5.29-11.65-.65-8.57,5.21l.14.22A50,50,0,0,1,107,43.27a5,5,0,1,0,9.28-3.83,61.08,61.08,0,0,0-5.07-9.68ZM77.27,110.47a5,5,0,1,0,3.36,9.46,60.29,60.29,0,0,0,9.94-4.55,5,5,0,0,0-5-8.7,55.52,55.52,0,0,1-8.3,3.79ZM99.4,95c-3.66,4.44,2.09,10.86,7.08,7a5.37,5.37,0,0,0,.71-.72,64.19,64.19,0,0,0,6.11-9.06,5,5,0,0,0-8.48-5.34A77.5,77.5,0,0,1,99.4,95Zm10.88-24.81a5,5,0,0,0,9.63,2.58,4.83,4.83,0,0,0,.3-1.13,60.28,60.28,0,0,0,.64-10.9c-.28-6.19-9.41-6.63-10-.12v.82a52.28,52.28,0,0,1-.55,8.75Z"/></svg>