<svg id="Layer_1" data-name="Layer 1" xmlns="http://www.w3.org/2000/svg" viewBox="0 0 120.88 122.88"><title>1-second</title><path d="M60.22,113.81a4.54,4.54,0,0,1,0,9.07A60.23,60.23,0,1,1,89.71,10.16l-1.26-3.3a5.06,5.06,0,1,1,9.45-3.6l5,13.15a5,5,0,0,1,.32,1.55,5,5,0,0,1-3.51,5.64L86.27,27.72a5,5,0,0,1-2.92-9.65l1.28-.39a50.55,50.55,0,0,0-10.19-4.19A51.17,51.17,0,1,0,60.22,113.81ZM45.05,91.37c-.55,0-1.08,0-1.61-.06s-1-.08-1.55-.14l-1.46-.23c-.46-.08-.91-.18-1.34-.3V86.8q.84.08,1.83.12c.66,0,1.32.06,2,.08s1.3,0,1.88,0a6.5,6.5,0,0,0,1.37-.12,1.7,1.7,0,0,0,.83-.4,1,1,0,0,0,.27-.75v-.3a.94.94,0,0,0-.39-.82,1.47,1.47,0,0,0-.91-.28H44.65a6.61,6.61,0,0,1-4.39-1.27q-1.5-1.27-1.5-4.26V78a5,5,0,0,1,1.65-4.1,7.26,7.26,0,0,1,4.74-1.36,19.34,19.34,0,0,1,2.21.11c.69.07,1.34.17,1.94.27s1.16.22,1.64.34v3.84c-.77-.06-1.63-.12-2.58-.16s-1.83-.06-2.61-.06a6.73,6.73,0,0,0-1.25.1,1.54,1.54,0,0,0-.85.4,1.18,1.18,0,0,0-.3.87v.25a1.17,1.17,0,0,0,.4,1,2,2,0,0,0,1.23.32h1.64a5.8,5.8,0,0,1,2.91.66,4.33,4.33,0,0,1,1.75,1.8,5.57,5.57,0,0,1,.58,2.58v.83A6.54,6.54,0,0,1,51,89.24a4,4,0,0,1-2.35,1.69,13.33,13.33,0,0,1-3.64.44Zm14,0a10.48,10.48,0,0,1-1.43-.13A4.86,4.86,0,0,1,56,90.69a3.36,3.36,0,0,1-1.31-1.31A4.76,4.76,0,0,1,54.13,87V77.27A5.16,5.16,0,0,1,54.56,75a3.75,3.75,0,0,1,1.09-1.41,4.17,4.17,0,0,1,1.5-.72,6.46,6.46,0,0,1,1.6-.21q2.1,0,3.6.06c1,0,1.88.09,2.62.14s1.4.1,2,.17v4.09H60.25a1.38,1.38,0,0,0-1,.28,1,1,0,0,0-.33.82v1.55l6.71.25v3.84L59,84.13v1.4a1.69,1.69,0,0,0,.14.73.91.91,0,0,0,.39.43,1.12,1.12,0,0,0,.55.13h6.88v4.1c-.71.1-1.53.18-2.44.25s-1.85.11-2.8.14-1.83.06-2.67.06Zm16.52,0A9.77,9.77,0,0,1,72.72,91a4.7,4.7,0,0,1-2.15-1.37,6.86,6.86,0,0,1-1.37-2.87,20.78,20.78,0,0,1-.47-4.87,18.28,18.28,0,0,1,.5-4.74,6.79,6.79,0,0,1,1.41-2.85,4.66,4.66,0,0,1,2.16-1.4,9.12,9.12,0,0,1,2.74-.39,21.82,21.82,0,0,1,2.73.16,16.54,16.54,0,0,1,2,.39,9,9,0,0,1,1.34.45v3.77c-.32-.07-.72-.14-1.22-.2s-1.07-.12-1.71-.16-1.34-.07-2.09-.07a4.93,4.93,0,0,0-1.43.18,1.68,1.68,0,0,0-.94.7,4,4,0,0,0-.51,1.53,17.52,17.52,0,0,0-.16,2.68,21.62,21.62,0,0,0,.12,2.5A4.54,4.54,0,0,0,74.14,86a1.85,1.85,0,0,0,.94.8,4.63,4.63,0,0,0,1.58.23c1.27,0,2.29,0,3.08-.06s1.42-.09,1.89-.16v3.77a10,10,0,0,1-1.46.42,17,17,0,0,1-2,.28c-.75.06-1.64.1-2.67.1ZM48.55,67a10.08,10.08,0,0,1-4.77-1A6.37,6.37,0,0,1,40.94,63,10.45,10.45,0,0,1,40,58.46V44.13a10.82,10.82,0,0,1,1-4.88,6.75,6.75,0,0,1,2.92-3,9.87,9.87,0,0,1,4.66-1H55.4a9.08,9.08,0,0,1,4.48,1,6.64,6.64,0,0,1,2.77,3,11.12,11.12,0,0,1,1,4.88V58.46a8.75,8.75,0,0,1-2.12,6.22A8,8,0,0,1,55.36,67Zm2-7.31h2.52a2.1,2.1,0,0,0,2.36-2.44V45a2.52,2.52,0,0,0-.59-2,2.21,2.21,0,0,0-1.43-.48H50.27a2,2,0,0,0-1.59.59A2.78,2.78,0,0,0,48.17,45V57.16a2.6,2.6,0,0,0,.59,1.91,2.52,2.52,0,0,0,1.81.57ZM72.22,66.7V43h-5V37.74l5.88-2.53h7.23V66.7Zm39-36.94c-3.52-5.29-11.65-.65-8.57,5.21l.14.22A50,50,0,0,1,107,43.27a5,5,0,1,0,9.28-3.83,61.08,61.08,0,0,0-5.07-9.68ZM77.27,110.47a5,5,0,1,0,3.36,9.46,60.29,60.29,0,0,0,9.94-4.55,5,5,0,0,0-5-8.7,55.52,55.52,0,0,1-8.3,3.79ZM99.4,95c-3.66,4.44,2.09,10.86,7.08,7a5.37,5.37,0,0,0,.71-.72,64.19,64.19,0,0,0,6.11-9.06,5,5,0,0,0-8.48-5.34A77.5,77.5,0,0,1,99.4,95Zm10.88-24.81a5,5,0,0,0,9.63,2.58,4.83,4.83,0,0,0,.3-1.13,60.28,60.28,0,0,0,.64-10.9c-.28-6.19-9.41-6.63-10-.12v.82a52.28,52.28,0,0,1-.55,8.75Z"/></svg>