<svg id="Layer_1" data-name="Layer 1" xmlns="http://www.w3.org/2000/svg" viewBox="0 0 120.88 122.88"><title>13-seconds</title><path d="M60.22,113.81a4.54,4.54,0,0,1,0,9.07A60.23,60.23,0,1,1,89.71,10.16l-1.26-3.3a5.06,5.06,0,1,1,9.45-3.6l5,13.15a5,5,0,0,1,.32,1.55,5,5,0,0,1-3.51,5.64L86.27,27.72a5,5,0,0,1-2.92-9.65l1.28-.39a50.55,50.55,0,0,0-10.19-4.19A51.17,51.17,0,1,0,60.22,113.81ZM43.45,91.21q-.89,0-1.74-.06c-.57,0-1.13-.09-1.67-.16s-1.08-.15-1.59-.24-1-.2-1.46-.33V86.26l2,.14,2.16.08,2,0a6.92,6.92,0,0,0,1.49-.13,1.85,1.85,0,0,0,.89-.43,1.09,1.09,0,0,0,.3-.81V84.8a1,1,0,0,0-.42-.89,1.66,1.66,0,0,0-1-.3H43a7.19,7.19,0,0,1-4.76-1.38q-1.62-1.38-1.62-4.62v-.89a5.46,5.46,0,0,1,1.79-4.45,7.88,7.88,0,0,1,5.13-1.47,22.34,22.34,0,0,1,2.39.12c.75.08,1.45.18,2.11.3s1.25.24,1.77.36v4.17c-.83-.08-1.76-.13-2.8-.18s-2-.07-2.82-.07a7.84,7.84,0,0,0-1.35.11,1.72,1.72,0,0,0-.92.43,1.27,1.27,0,0,0-.32.95v.27a1.25,1.25,0,0,0,.43,1,2.1,2.1,0,0,0,1.32.35h1.79a6.38,6.38,0,0,1,3.15.71,4.79,4.79,0,0,1,1.89,2,6,6,0,0,1,.63,2.8V85a7.17,7.17,0,0,1-.89,3.92,4.34,4.34,0,0,1-2.54,1.82,14.28,14.28,0,0,1-3.95.48Zm15.48,0a10.92,10.92,0,0,1-1.56-.14,5.41,5.41,0,0,1-1.75-.59,3.72,3.72,0,0,1-1.42-1.42,5.17,5.17,0,0,1-.57-2.64V75.93a5.63,5.63,0,0,1,.46-2.43A4,4,0,0,1,55.28,72a4.7,4.7,0,0,1,1.62-.79A7,7,0,0,1,58.63,71c1.51,0,2.82,0,3.91.07s2,.09,2.83.15,1.51.12,2.13.19V75.8H60.25a1.51,1.51,0,0,0-1,.3,1.08,1.08,0,0,0-.36.89v1.68l7.27.27V83.1l-7.27.27v1.51a1.84,1.84,0,0,0,.15.8,1,1,0,0,0,.42.46,1.21,1.21,0,0,0,.6.15H67.5v4.43c-.78.11-1.66.2-2.65.27s-2,.13-3,.16-2,.06-2.89.06Zm18.23,0a10.64,10.64,0,0,1-3.06-.41,5,5,0,0,1-2.32-1.49,7.18,7.18,0,0,1-1.49-3.1,22.31,22.31,0,0,1-.51-5.27,20.22,20.22,0,0,1,.54-5.14,7.39,7.39,0,0,1,1.53-3.09,5.12,5.12,0,0,1,2.33-1.52,10.08,10.08,0,0,1,3-.42,21.67,21.67,0,0,1,3,.18,19.52,19.52,0,0,1,2.19.42,10,10,0,0,1,1.44.48v4.08q-.51-.11-1.32-.21c-.54-.07-1.16-.13-1.85-.18s-1.45-.06-2.26-.06a5.87,5.87,0,0,0-1.56.18,1.82,1.82,0,0,0-1,.76,4.34,4.34,0,0,0-.55,1.66A18.71,18.71,0,0,0,75,81a22.26,22.26,0,0,0,.14,2.7,4.61,4.61,0,0,0,.48,1.69,2,2,0,0,0,1,.87,4.83,4.83,0,0,0,1.71.25c1.37,0,2.49,0,3.34-.06s1.54-.11,2-.18v4.08a9.71,9.71,0,0,1-1.58.46,17.14,17.14,0,0,1-2.12.3c-.81.07-1.78.11-2.89.11ZM42.32,65V40.42H37.19V35l6.08-2.61h7.48V65Zm30.07.26c-2.32,0-4.56-.1-6.74-.3s-4.18-.5-6-.87V57.28h9.48a14.59,14.59,0,0,0,2.62-.18A2.22,2.22,0,0,0,73,56.54a1.6,1.6,0,0,0,.34-1.09v-.82A1.92,1.92,0,0,0,73,53.37a2.31,2.31,0,0,0-1.13-.72A6.9,6.9,0,0,0,70,52.37L62.26,52V45.5L69.61,45a7.5,7.5,0,0,0,2.56-.52A1.41,1.41,0,0,0,73,43.11v-.39a1.9,1.9,0,0,0-.87-1.78,6.83,6.83,0,0,0-3.22-.52H60.05V33.64q2.82-.48,6-.89a39.39,39.39,0,0,1,6.35-.33,12.44,12.44,0,0,1,4.8.93,6.71,6.71,0,0,1,3.1,2.7,8.7,8.7,0,0,1,1.09,4.58v2.18a10,10,0,0,1-.19,2,6.42,6.42,0,0,1-.63,1.69,4.83,4.83,0,0,1-1.14,1.33,5.54,5.54,0,0,1-1.69.91,4.5,4.5,0,0,1,1.8,1,5.71,5.71,0,0,1,1.26,1.58,7.58,7.58,0,0,1,.76,2.07,10.7,10.7,0,0,1,.26,2.45V57.1a7.43,7.43,0,0,1-2.49,6,10.44,10.44,0,0,1-6.89,2.09Zm38.83-35.47c-3.52-5.29-11.65-.65-8.57,5.21l.14.22A50,50,0,0,1,107,43.27a5,5,0,1,0,9.28-3.83,61.08,61.08,0,0,0-5.07-9.68ZM77.27,110.47a5,5,0,1,0,3.36,9.46,60.29,60.29,0,0,0,9.94-4.55,5,5,0,0,0-5-8.7,55.52,55.52,0,0,1-8.3,3.79ZM99.4,95c-3.66,4.44,2.09,10.86,7.08,7a5.37,5.37,0,0,0,.71-.72,64.19,64.19,0,0,0,6.11-9.06,5,5,0,0,0-8.48-5.34A77.5,77.5,0,0,1,99.4,95Zm10.88-24.81a5,5,0,0,0,9.63,2.58,4.83,4.83,0,0,0,.3-1.13,60.28,60.28,0,0,0,.64-10.9c-.28-6.19-9.41-6.63-10-.12v.82a52.28,52.28,0,0,1-.55,8.75Z"/></svg>