<svg id="Layer_1" data-name="Layer 1" xmlns="http://www.w3.org/2000/svg" viewBox="0 0 120.88 122.88"><title>16-seconds</title><path d="M60.22,113.81a4.54,4.54,0,0,1,0,9.07A60.23,60.23,0,1,1,89.71,10.16l-1.26-3.3a5.06,5.06,0,1,1,9.45-3.6l5,13.15a5,5,0,0,1,.32,1.55,5,5,0,0,1-3.51,5.64L86.27,27.72a5,5,0,0,1-2.92-9.65l1.28-.39a50.55,50.55,0,0,0-10.19-4.19A51.17,51.17,0,1,0,60.22,113.81ZM42,91.21c-.59,0-1.18,0-1.74-.06s-1.13-.09-1.68-.16-1.08-.15-1.58-.24-1-.2-1.46-.33V86.26l2,.14,2.16.08,2,0a7,7,0,0,0,1.49-.13,1.9,1.9,0,0,0,.89-.43,1.09,1.09,0,0,0,.3-.81V84.8a1,1,0,0,0-.42-.89,1.66,1.66,0,0,0-1-.3H41.61a7.17,7.17,0,0,1-4.76-1.38q-1.62-1.38-1.62-4.62v-.89A5.45,5.45,0,0,1,37,72.27a7.89,7.89,0,0,1,5.14-1.47,22.61,22.61,0,0,1,2.39.12c.75.08,1.45.18,2.11.3s1.25.24,1.77.36v4.17c-.83-.08-1.76-.13-2.8-.18s-2-.07-2.82-.07a7.68,7.68,0,0,0-1.35.11,1.69,1.69,0,0,0-.92.43,1.28,1.28,0,0,0-.33.95v.27a1.28,1.28,0,0,0,.43,1,2.11,2.11,0,0,0,1.33.35h1.78a6.38,6.38,0,0,1,3.15.71,4.67,4.67,0,0,1,1.89,2,5.93,5.93,0,0,1,.64,2.8V85a7.17,7.17,0,0,1-.89,3.92A4.4,4.4,0,0,1,46,90.73a14.28,14.28,0,0,1-4,.48Zm16.15,0a10.79,10.79,0,0,1-1.55-.14,5.46,5.46,0,0,1-1.76-.59,3.72,3.72,0,0,1-1.42-1.42,5.17,5.17,0,0,1-.57-2.64V75.93a5.63,5.63,0,0,1,.46-2.43A4,4,0,0,1,54.54,72a4.7,4.7,0,0,1,1.62-.79A7.1,7.1,0,0,1,57.89,71c1.52,0,2.82,0,3.91.07s2,.09,2.84.15,1.5.12,2.12.19V75.8H59.51a1.51,1.51,0,0,0-1,.3,1.08,1.08,0,0,0-.35.89v1.68l7.27.27V83.1l-7.27.27v1.51a2,2,0,0,0,.14.8,1,1,0,0,0,.42.46,1.21,1.21,0,0,0,.6.15h7.46v4.43c-.78.11-1.66.2-2.65.27s-2,.13-3,.16-2,.06-2.89.06Zm18.9,0a10.62,10.62,0,0,1-3-.41,5,5,0,0,1-2.32-1.49,7.18,7.18,0,0,1-1.49-3.1,22.31,22.31,0,0,1-.51-5.27,20.22,20.22,0,0,1,.54-5.14,7.5,7.5,0,0,1,1.52-3.09,5.2,5.2,0,0,1,2.34-1.52,10,10,0,0,1,3-.42,21.46,21.46,0,0,1,3,.18,18.67,18.67,0,0,1,2.19.42,9.78,9.78,0,0,1,1.45.48v4.08c-.34-.07-.78-.14-1.33-.21s-1.15-.13-1.85-.18-1.44-.06-2.25-.06a5.82,5.82,0,0,0-1.56.18,1.82,1.82,0,0,0-1,.76,4.18,4.18,0,0,0-.55,1.66A18.71,18.71,0,0,0,75,81a22.52,22.52,0,0,0,.13,2.7,4.8,4.8,0,0,0,.49,1.69,2,2,0,0,0,1,.87,4.92,4.92,0,0,0,1.72.25c1.37,0,2.48,0,3.34-.06s1.54-.11,2-.18v4.08a10,10,0,0,1-1.58.46,17.14,17.14,0,0,1-2.12.3c-.81.07-1.78.11-2.9.11ZM41.84,65V40.42H36.71V35l6.08-2.61h7.48V65Zm27.59.26A12.62,12.62,0,0,1,65,64.51a6.8,6.8,0,0,1-3.18-2.45,12.46,12.46,0,0,1-1.89-4.8,39.39,39.39,0,0,1-.63-7.72,34.62,34.62,0,0,1,.85-8.32A13,13,0,0,1,62.61,36a9,9,0,0,1,4-2.74,16.56,16.56,0,0,1,5.34-.8c1.54,0,3,.07,4.46.2a22.28,22.28,0,0,1,3.89.67V40H73c-2,0-3.34.49-4.1,1.48a6.61,6.61,0,0,0-1.16,4.17A9,9,0,0,1,69.32,45a11.64,11.64,0,0,1,1.9-.26c.72,0,1.62-.06,2.69-.06a10.55,10.55,0,0,1,5.19,1,5.4,5.4,0,0,1,2.46,2.83,11.48,11.48,0,0,1,.65,3.95v4.69a9.1,9.1,0,0,1-1,4.59A6.14,6.14,0,0,1,78.3,64.4a10.81,10.81,0,0,1-4.39.83Zm1.74-7.56h.74A2.08,2.08,0,0,0,73,57.41a1.53,1.53,0,0,0,.57-.76,3.9,3.9,0,0,0,.17-1.2V54.23a4.15,4.15,0,0,0-.2-1.45,1.28,1.28,0,0,0-.69-.72,4,4,0,0,0-1.46-.21H67.69a18.72,18.72,0,0,0,.18,2.86,4.42,4.42,0,0,0,.59,1.78,2.19,2.19,0,0,0,1.08.92,4.6,4.6,0,0,0,1.63.26Zm40.05-27.91c-3.52-5.29-11.65-.65-8.57,5.21l.14.22A50,50,0,0,1,107,43.27a5,5,0,1,0,9.28-3.83,61.08,61.08,0,0,0-5.07-9.68ZM77.27,110.47a5,5,0,1,0,3.36,9.46,60.29,60.29,0,0,0,9.94-4.55,5,5,0,0,0-5-8.7,55.52,55.52,0,0,1-8.3,3.79ZM99.4,95c-3.66,4.44,2.09,10.86,7.08,7a5.37,5.37,0,0,0,.71-.72,64.19,64.19,0,0,0,6.11-9.06,5,5,0,0,0-8.48-5.34A77.5,77.5,0,0,1,99.4,95Zm10.88-24.81a5,5,0,0,0,9.63,2.58,4.83,4.83,0,0,0,.3-1.13,60.28,60.28,0,0,0,.64-10.9c-.28-6.19-9.41-6.63-10-.12v.82a52.28,52.28,0,0,1-.55,8.75Z"/></svg>