<svg id="Layer_1" data-name="Layer 1" xmlns="http://www.w3.org/2000/svg" viewBox="0 0 120.88 122.88"><title>19-seconds</title><path d="M60.22,113.81a4.54,4.54,0,0,1,0,9.07A60.23,60.23,0,1,1,89.71,10.16l-1.26-3.3a5.06,5.06,0,1,1,9.45-3.6l5,13.15a5,5,0,0,1,.32,1.55,5,5,0,0,1-3.51,5.64L86.27,27.72a5,5,0,0,1-2.92-9.65l1.28-.39a50.55,50.55,0,0,0-10.19-4.19A51.17,51.17,0,1,0,60.22,113.81ZM42,91.21c-.6,0-1.18,0-1.75-.06s-1.13-.09-1.67-.16-1.08-.15-1.58-.24a14.93,14.93,0,0,1-1.46-.33V86.26c.61,0,1.27.1,2,.14l2.16.08,2,0a6.92,6.92,0,0,0,1.49-.13,1.81,1.81,0,0,0,.89-.43,1.09,1.09,0,0,0,.3-.81V84.8a1,1,0,0,0-.42-.89,1.65,1.65,0,0,0-1-.3H41.54a7.14,7.14,0,0,1-4.75-1.38q-1.63-1.38-1.63-4.62v-.89A5.46,5.46,0,0,1,37,72.27a7.88,7.88,0,0,1,5.13-1.47,22.67,22.67,0,0,1,2.4.12c.74.08,1.45.18,2.1.3s1.25.24,1.77.36v4.17c-.83-.08-1.76-.13-2.79-.18s-2-.07-2.83-.07a7.84,7.84,0,0,0-1.35.11,1.72,1.72,0,0,0-.92.43,1.31,1.31,0,0,0-.32.95v.27a1.25,1.25,0,0,0,.43,1,2.1,2.1,0,0,0,1.32.35h1.79a6.38,6.38,0,0,1,3.15.71,4.73,4.73,0,0,1,1.89,2,6,6,0,0,1,.63,2.8V85a7.09,7.09,0,0,1-.89,3.92,4.34,4.34,0,0,1-2.54,1.82,14.2,14.2,0,0,1-3.94.48Zm16.14,0a10.79,10.79,0,0,1-1.55-.14,5.54,5.54,0,0,1-1.76-.59,3.79,3.79,0,0,1-1.42-1.42,5.29,5.29,0,0,1-.56-2.64V75.93a5.63,5.63,0,0,1,.46-2.43A3.91,3.91,0,0,1,54.48,72a4.53,4.53,0,0,1,1.62-.79A7,7,0,0,1,57.83,71c1.51,0,2.81,0,3.9.07s2,.09,2.84.15,1.51.12,2.12.19V75.8H59.45a1.56,1.56,0,0,0-1,.3,1.11,1.11,0,0,0-.35.89v1.68l7.27.27V83.1l-7.27.27v1.51a1.84,1.84,0,0,0,.15.8,1,1,0,0,0,.42.46,1.2,1.2,0,0,0,.59.15h7.46v4.43c-.77.11-1.66.2-2.65.27s-2,.13-3,.16-2,.06-2.9.06Zm18.91,0a10.57,10.57,0,0,1-3-.41,5,5,0,0,1-2.33-1.49,7.3,7.3,0,0,1-1.49-3.1,22.31,22.31,0,0,1-.51-5.27,20.22,20.22,0,0,1,.54-5.14,7.39,7.39,0,0,1,1.53-3.09,5.2,5.2,0,0,1,2.34-1.52,10,10,0,0,1,3-.42A21.56,21.56,0,0,1,80,71a19.08,19.08,0,0,1,2.19.42,10,10,0,0,1,1.44.48v4.08q-.51-.11-1.32-.21c-.54-.07-1.16-.13-1.85-.18s-1.45-.06-2.26-.06a5.74,5.74,0,0,0-1.55.18,1.84,1.84,0,0,0-1,.76,4.34,4.34,0,0,0-.55,1.66A18.71,18.71,0,0,0,74.89,81a22.26,22.26,0,0,0,.14,2.7,4.41,4.41,0,0,0,.49,1.69,1.92,1.92,0,0,0,1,.87,4.85,4.85,0,0,0,1.72.25q2.06,0,3.33-.06t2-.18v4.08A9.71,9.71,0,0,1,82,90.8a17.14,17.14,0,0,1-2.12.3c-.81.07-1.77.11-2.89.11ZM41.84,65V40.42H36.71V35l6.08-2.61h7.48V65Zm27.55.26A42.11,42.11,0,0,1,65,65a28,28,0,0,1-3.91-.65V57.67h7.34c2,0,3.34-.49,4.11-1.48A6.69,6.69,0,0,0,73.65,52a10.23,10.23,0,0,1-1.61.56,10,10,0,0,1-1.91.29c-.73,0-1.62.06-2.7.06a10.44,10.44,0,0,1-5.17-1,5.47,5.47,0,0,1-2.45-2.83,11,11,0,0,1-.68-4V40.42a9.07,9.07,0,0,1,1-4.59A6.19,6.19,0,0,1,63,33.25a10.81,10.81,0,0,1,4.39-.83h4.48a12.72,12.72,0,0,1,4.48.72,6.76,6.76,0,0,1,3.17,2.45,12.46,12.46,0,0,1,1.89,4.8,39.39,39.39,0,0,1,.63,7.72,34.12,34.12,0,0,1-.85,8.32,12.84,12.84,0,0,1-2.5,5.26,9,9,0,0,1-4,2.74,16.56,16.56,0,0,1-5.34.8Zm.52-19.43h3.74a18.72,18.72,0,0,0-.18-2.86,4.7,4.7,0,0,0-.58-1.79,2.29,2.29,0,0,0-1.07-.91A4.53,4.53,0,0,0,70.17,40h-.74a2.06,2.06,0,0,0-1.1.26,1.4,1.4,0,0,0-.59.74,3.53,3.53,0,0,0-.18,1.22v1.21a4.25,4.25,0,0,0,.2,1.44,1.25,1.25,0,0,0,.72.74,3.89,3.89,0,0,0,1.43.21Zm41.31-16c-3.52-5.29-11.65-.65-8.57,5.21l.14.22A50,50,0,0,1,107,43.27a5,5,0,1,0,9.28-3.83,61.08,61.08,0,0,0-5.07-9.68ZM77.27,110.47a5,5,0,1,0,3.36,9.46,60.29,60.29,0,0,0,9.94-4.55,5,5,0,0,0-5-8.7,55.52,55.52,0,0,1-8.3,3.79ZM99.4,95c-3.66,4.44,2.09,10.86,7.08,7a5.37,5.37,0,0,0,.71-.72,64.19,64.19,0,0,0,6.11-9.06,5,5,0,0,0-8.48-5.34A77.5,77.5,0,0,1,99.4,95Zm10.88-24.81a5,5,0,0,0,9.63,2.58,4.83,4.83,0,0,0,.3-1.13,60.28,60.28,0,0,0,.64-10.9c-.28-6.19-9.41-6.63-10-.12v.82a52.28,52.28,0,0,1-.55,8.75Z"/></svg>