<?xml version="1.0" encoding="utf-8"?><svg version="1.1" id="Layer_1" xmlns="http://www.w3.org/2000/svg" xmlns:xlink="http://www.w3.org/1999/xlink" x="0px" y="0px" viewBox="0 0 122.88 114.12" style="enable-background:new 0 0 122.88 114.12" xml:space="preserve"><g><path d="M122.88,5.58v44.65c-40.96,0-81.92,0-122.88,0l0,0V5.58c0-1.52,0.63-2.92,1.65-3.94l0.01-0.01C2.67,0.62,4.06,0,5.6,0 h111.68c1.53,0,2.92,0.63,3.94,1.65l0.01,0.01C122.26,2.66,122.88,4.05,122.88,5.58L122.88,5.58L122.88,5.58L122.88,5.58z M122.88,108.54V63.89c-40.96,0-81.92,0-122.88,0l0,0v44.65c0,1.52,0.63,2.92,1.65,3.94l0.01,0.01c1.01,1.01,2.4,1.63,3.94,1.63 h111.68c1.53,0,2.92-0.63,3.94-1.65l0.01-0.01C122.26,111.46,122.88,110.07,122.88,108.54L122.88,108.54L122.88,108.54 L122.88,108.54z"/></g></svg>