<svg id="Layer_1" data-name="Layer 1" xmlns="http://www.w3.org/2000/svg" viewBox="0 0 120.88 122.88"><title>2-second</title><path d="M60.22,113.81a4.54,4.54,0,0,1,0,9.07A60.23,60.23,0,1,1,89.71,10.16l-1.26-3.3a5.06,5.06,0,1,1,9.45-3.6l5,13.15a5,5,0,0,1,.32,1.55,5,5,0,0,1-3.51,5.64L86.27,27.72a5,5,0,0,1-2.92-9.65l1.28-.39a50.55,50.55,0,0,0-10.19-4.19A51.17,51.17,0,1,0,60.22,113.81ZM44.47,91.37c-.55,0-1.08,0-1.61-.06s-1-.08-1.55-.14l-1.46-.23c-.46-.08-.91-.18-1.34-.3V86.8q.84.08,1.83.12c.66,0,1.32.06,2,.08s1.3,0,1.88,0a6.5,6.5,0,0,0,1.37-.12,1.7,1.7,0,0,0,.83-.4,1,1,0,0,0,.27-.75v-.3a1,1,0,0,0-.38-.82,1.52,1.52,0,0,0-.92-.28H44.07a6.61,6.61,0,0,1-4.39-1.27q-1.5-1.27-1.5-4.26V78a5,5,0,0,1,1.65-4.1,7.26,7.26,0,0,1,4.74-1.36,19.34,19.34,0,0,1,2.21.11c.69.07,1.34.17,1.95.27s1.15.22,1.63.34v3.84c-.77-.06-1.63-.12-2.58-.16s-1.83-.06-2.61-.06a6.73,6.73,0,0,0-1.25.1,1.54,1.54,0,0,0-.85.4,1.18,1.18,0,0,0-.3.87v.25a1.17,1.17,0,0,0,.4,1,2,2,0,0,0,1.23.32H46a5.8,5.8,0,0,1,2.91.66,4.33,4.33,0,0,1,1.75,1.8,5.57,5.57,0,0,1,.58,2.58v.83a6.54,6.54,0,0,1-.82,3.61,4,4,0,0,1-2.35,1.69,13.33,13.33,0,0,1-3.64.44Zm14.91,0a10.61,10.61,0,0,1-1.44-.13,5,5,0,0,1-1.62-.55A3.43,3.43,0,0,1,55,89.38,4.77,4.77,0,0,1,54.49,87V77.27A5.32,5.32,0,0,1,54.91,75,3.68,3.68,0,0,1,56,73.61a4.17,4.17,0,0,1,1.5-.72,6.44,6.44,0,0,1,1.59-.21c1.4,0,2.6,0,3.61.06s1.88.09,2.62.14,1.39.1,2,.17v4.09H60.6a1.42,1.42,0,0,0-1,.28,1,1,0,0,0-.32.82v1.55L66,80v3.84l-6.71.25v1.4a1.69,1.69,0,0,0,.14.73,1,1,0,0,0,.38.43,1.14,1.14,0,0,0,.55.13h6.89v4.1c-.72.1-1.53.18-2.45.25s-1.84.11-2.79.14-1.84.06-2.67.06Zm17.45,0A9.77,9.77,0,0,1,74,91a4.62,4.62,0,0,1-2.14-1.37,6.75,6.75,0,0,1-1.38-2.87A20.78,20.78,0,0,1,70,81.88a18.73,18.73,0,0,1,.5-4.74,6.79,6.79,0,0,1,1.41-2.85,4.71,4.71,0,0,1,2.16-1.4,9.12,9.12,0,0,1,2.74-.39,21.82,21.82,0,0,1,2.73.16,17.14,17.14,0,0,1,2,.39,9.22,9.22,0,0,1,1.33.45v3.77c-.32-.07-.72-.14-1.22-.2S80.63,77,80,76.91s-1.34-.07-2.09-.07a4.93,4.93,0,0,0-1.43.18,1.68,1.68,0,0,0-.94.7A4,4,0,0,0,75,79.25a17.52,17.52,0,0,0-.16,2.68,21.62,21.62,0,0,0,.12,2.5A4.54,4.54,0,0,0,75.43,86a1.85,1.85,0,0,0,.94.8A4.67,4.67,0,0,0,78,87Q79.85,87,81,87c.79,0,1.41-.09,1.88-.16v3.77a10,10,0,0,1-1.46.42,17,17,0,0,1-2,.28c-.75.06-1.64.1-2.67.1ZM44.28,67a10.08,10.08,0,0,1-4.77-1A6.3,6.3,0,0,1,36.68,63a10.3,10.3,0,0,1-.93-4.56V44.13a10.82,10.82,0,0,1,1-4.88,6.75,6.75,0,0,1,2.92-3,9.88,9.88,0,0,1,4.67-1h6.81a9.06,9.06,0,0,1,4.47,1,6.66,6.66,0,0,1,2.78,3,11.27,11.27,0,0,1,.94,4.88V58.46a8.71,8.71,0,0,1-2.12,6.22A8,8,0,0,1,51.09,67Zm2-7.31h2.52a2.1,2.1,0,0,0,2.36-2.44V45a2.52,2.52,0,0,0-.59-2,2.19,2.19,0,0,0-1.43-.48H46a2,2,0,0,0-1.6.59,2.78,2.78,0,0,0-.5,1.85V57.16a2.6,2.6,0,0,0,.58,1.91,2.54,2.54,0,0,0,1.81.57ZM63.75,66.7V60.23l9.71-9.92A22,22,0,0,0,75,48.58,8.32,8.32,0,0,0,76,47a3.63,3.63,0,0,0,.36-1.56A2.85,2.85,0,0,0,76,44a1.9,1.9,0,0,0-1-.82A5.28,5.28,0,0,0,73.2,43h-9V36.48c1.37-.31,2.91-.6,4.6-.87a39.41,39.41,0,0,1,5.91-.4,13.79,13.79,0,0,1,5.82,1,6.09,6.09,0,0,1,3,3,11.63,11.63,0,0,1,.9,4.83,11.46,11.46,0,0,1-2.12,6.9,22.48,22.48,0,0,1-2.5,2.94l-5.38,5.51H85.35V66.7Zm47.47-36.94c-3.52-5.29-11.65-.65-8.57,5.21l.14.22A50,50,0,0,1,107,43.27a5,5,0,1,0,9.28-3.83,61.08,61.08,0,0,0-5.07-9.68ZM77.27,110.47a5,5,0,1,0,3.36,9.46,60.29,60.29,0,0,0,9.94-4.55,5,5,0,0,0-5-8.7,55.52,55.52,0,0,1-8.3,3.79ZM99.4,95c-3.66,4.44,2.09,10.86,7.08,7a5.37,5.37,0,0,0,.71-.72,64.19,64.19,0,0,0,6.11-9.06,5,5,0,0,0-8.48-5.34A77.5,77.5,0,0,1,99.4,95Zm10.88-24.81a5,5,0,0,0,9.63,2.58,4.83,4.83,0,0,0,.3-1.13,60.28,60.28,0,0,0,.64-10.9c-.28-6.19-9.41-6.63-10-.12v.82a52.28,52.28,0,0,1-.55,8.75Z"/></svg>