<svg id="Layer_1" data-name="Layer 1" xmlns="http://www.w3.org/2000/svg" viewBox="0 0 120.88 122.88"><title>20-minutes</title><path d="M60.22,113.81a4.54,4.54,0,0,1,0,9.07A60.23,60.23,0,1,1,89.71,10.16l-1.26-3.3a5.06,5.06,0,1,1,9.45-3.6l5,13.15a5,5,0,0,1,.32,1.55,5,5,0,0,1-3.51,5.64L86.27,27.72a5,5,0,0,1-2.92-9.65l1.28-.39a50.55,50.55,0,0,0-10.19-4.19A51.17,51.17,0,1,0,60.22,113.81ZM35.83,91.22,38,72.68h4.54l3.82,13,3.82-13h4.49l2.22,18.54H52.25L50.82,79.29l.7,0L48.6,91.22H44.06L41.12,79.31l.77,0-1.4,11.93Zm24,0V72.68h4.84V91.22Zm8.21,0V72.68h3.84L78.35,83V72.68h4.84V91.22H79.35L72.83,80.89V91.22ZM36.08,66.7V60.23l9.71-9.93a18.75,18.75,0,0,0,1.55-1.72,8.32,8.32,0,0,0,1-1.55,3.63,3.63,0,0,0,.36-1.56A2.76,2.76,0,0,0,48.35,44a1.86,1.86,0,0,0-1-.82A5.22,5.22,0,0,0,45.54,43h-9V36.47c1.38-.3,2.91-.59,4.61-.86a39.18,39.18,0,0,1,5.9-.4,13.79,13.79,0,0,1,5.82,1,6,6,0,0,1,3,3A11.6,11.6,0,0,1,56.85,44a11.56,11.56,0,0,1-2.13,6.9,21.73,21.73,0,0,1-2.5,2.94l-5.38,5.51H57.69V66.7Zm33,.25a10,10,0,0,1-4.77-1A6.32,6.32,0,0,1,61.47,63a10.3,10.3,0,0,1-.93-4.56V44.13a10.82,10.82,0,0,1,1-4.88,6.75,6.75,0,0,1,2.92-3,9.91,9.91,0,0,1,4.67-1h6.81a9.08,9.08,0,0,1,4.48,1,6.64,6.64,0,0,1,2.77,3,11.26,11.26,0,0,1,.95,4.88V58.46A8.71,8.71,0,0,1,82,64.68,7.92,7.92,0,0,1,75.89,67Zm2-7.31h2.52A2.1,2.1,0,0,0,76,57.2V45a2.5,2.5,0,0,0-.59-2A2.19,2.19,0,0,0,74,42.53H70.8a2,2,0,0,0-1.6.59A2.84,2.84,0,0,0,68.7,45V57.16a2.56,2.56,0,0,0,.59,1.91,2.5,2.5,0,0,0,1.81.57Zm40.12-29.88c-3.52-5.29-11.65-.65-8.57,5.21l.14.22A50,50,0,0,1,107,43.27a5,5,0,1,0,9.28-3.83,61.08,61.08,0,0,0-5.07-9.68ZM77.3,110.45c-5.38,1.79-4,10.31,2.33,9.71a5.39,5.39,0,0,0,1-.24,55.41,55.41,0,0,0,10-4.53c5.24-3,1.64-11.12-4.24-9.06a5.35,5.35,0,0,0-.73.34,47.67,47.67,0,0,1-8.29,3.78ZM99.41,95c-3.52,4.28,1.72,10.38,6.51,7.45a5.63,5.63,0,0,0,1.3-1.13,61.52,61.52,0,0,0,6.09-9.08A5,5,0,0,0,105,86.67a6.32,6.32,0,0,0-.49.74A51.65,51.65,0,0,1,99.41,95Zm10.87-24.82a5,5,0,0,0,9.63,2.58,4.83,4.83,0,0,0,.3-1.13,60.28,60.28,0,0,0,.64-10.9c-.28-6.19-9.41-6.63-10-.12v.82a52.28,52.28,0,0,1-.55,8.75Z"/></svg>