<svg id="Layer_1" data-name="Layer 1" xmlns="http://www.w3.org/2000/svg" viewBox="0 0 122.87 122.88"><title>28-days-month</title><path d="M81.6,4.73C81.6,2.12,84.18,0,87.37,0s5.77,2.12,5.77,4.73V25.45c0,2.61-2.58,4.73-5.77,4.73s-5.77-2.12-5.77-4.73V4.73ZM29.34,103.41V94.5L42.71,80.84a28.24,28.24,0,0,0,2.14-2.37,11.64,11.64,0,0,0,1.36-2.14,5,5,0,0,0,.5-2.15,3.83,3.83,0,0,0-.47-2,2.62,2.62,0,0,0-1.42-1.13,7.29,7.29,0,0,0-2.46-.35H30V61.8c1.89-.43,4-.82,6.33-1.19a52.71,52.71,0,0,1,8.14-.55,18.92,18.92,0,0,1,8,1.39,8.35,8.35,0,0,1,4.17,4.11,15.93,15.93,0,0,1,1.24,6.66,16.68,16.68,0,0,1-.75,5.15A16.19,16.19,0,0,1,55,81.71a30.89,30.89,0,0,1-3.44,4.05l-7.41,7.58H59.09v10.07Zm45.73.35a25,25,0,0,1-4.34-.37A11,11,0,0,1,66.88,102a7.42,7.42,0,0,1-2.72-3,11.06,11.06,0,0,1-1-5.13V88.13a9.83,9.83,0,0,1,.41-2.77,6.67,6.67,0,0,1,1.33-2.49,4.4,4.4,0,0,1,2.55-1.45A6.29,6.29,0,0,1,65,79.34a5.51,5.51,0,0,1-.84-2.55c-.08-.93-.12-1.89-.12-2.89V69a8.51,8.51,0,0,1,1.48-5.26,8.15,8.15,0,0,1,3.87-2.84,15,15,0,0,1,5.13-.87h8.22a14.85,14.85,0,0,1,5.15.87,8.24,8.24,0,0,1,3.85,2.84A8.57,8.57,0,0,1,93.18,69V73.9a14.79,14.79,0,0,1-.11,1.62,11.62,11.62,0,0,1-.47,2.17,5.33,5.33,0,0,1-1,1.94,3,3,0,0,1-1.85,1,4.43,4.43,0,0,1,2.92,1.88,7.94,7.94,0,0,1,1.16,3,17,17,0,0,1,.26,2.66v5.73q0,4.23-1.56,6.34A7.51,7.51,0,0,1,88.38,103a20.15,20.15,0,0,1-5.5.72Zm2-9.49h3c1.28,0,2.05-.24,2.32-.72a4,4,0,0,0,.4-1.94V88.89A2.89,2.89,0,0,0,82.16,87a2.42,2.42,0,0,0-1.94-.78H77.09a3.2,3.2,0,0,0-1.21.2A2,2,0,0,0,75,87a2.68,2.68,0,0,0-.5.87,3.29,3.29,0,0,0-.17,1.07v2.72A2.81,2.81,0,0,0,75,93.69a3,3,0,0,0,2.11.58Zm0-17.6h3a2.61,2.61,0,0,0,1.48-.31,1.55,1.55,0,0,0,.55-1,11.76,11.76,0,0,0,.11-1.73v-1.8c0-1.12-.22-1.77-.66-2a3.76,3.76,0,0,0-1.48-.29h-3a3.26,3.26,0,0,0-1.59.32c-.37.21-.55.86-.55,1.94v1.8c0,1.39.16,2.24.49,2.57a2.28,2.28,0,0,0,1.65.49ZM29.61,4.73C29.61,2.12,32.19,0,35.38,0s5.77,2.12,5.77,4.73V25.45c0,2.61-2.58,4.73-5.77,4.73s-5.77-2.12-5.77-4.73V4.73ZM6.4,38.76H116.46V21.47a3,3,0,0,0-.86-2.07,2.92,2.92,0,0,0-2.07-.86H103a3.2,3.2,0,1,1,0-6.4h10.55a9.36,9.36,0,0,1,9.33,9.33v92.08a9.36,9.36,0,0,1-9.33,9.33H9.33A9.36,9.36,0,0,1,0,113.54V21.47a9.36,9.36,0,0,1,9.33-9.33H20.6a3.2,3.2,0,1,1,0,6.4H9.33a3,3,0,0,0-2.07.86,2.92,2.92,0,0,0-.86,2.07V38.76Zm110.07,6.41H6.4v68.37a3,3,0,0,0,.86,2.07,2.92,2.92,0,0,0,2.07.86H113.54a3,3,0,0,0,2.07-.86,2.92,2.92,0,0,0,.86-2.07V45.17Zm-66-26.63a3.2,3.2,0,0,1,0-6.4H71.91a3.2,3.2,0,1,1,0,6.4Z"/></svg>