<svg id="Layer_1" data-name="Layer 1" xmlns="http://www.w3.org/2000/svg" viewBox="0 0 122.87 122.88"><title>30-days-month</title><path d="M81.6,4.73C81.6,2.12,84.18,0,87.37,0s5.77,2.12,5.77,4.73V25.45c0,2.61-2.58,4.73-5.77,4.73s-5.77-2.12-5.77-4.73V4.73Zm-37.12,99q-4.63,0-9-.4a76.26,76.26,0,0,1-8-1.16v-9H40.08a20.8,20.8,0,0,0,3.5-.23,3.1,3.1,0,0,0,1.71-.75,2.1,2.1,0,0,0,.46-1.45v-1.1A2.56,2.56,0,0,0,45.23,88a3.23,3.23,0,0,0-1.51-1,9.28,9.28,0,0,0-2.43-.37L31,86.17V77.48l9.78-.63a10.28,10.28,0,0,0,3.42-.7,1.88,1.88,0,0,0,1.1-1.85v-.52a2.54,2.54,0,0,0-1.16-2.37,9,9,0,0,0-4.28-.7H28v-9c2.51-.42,5.15-.82,7.93-1.18a52.7,52.7,0,0,1,8.45-.44,16.41,16.41,0,0,1,6.39,1.25A8.81,8.81,0,0,1,55,64.89,11.66,11.66,0,0,1,56.4,71v2.9a13.42,13.42,0,0,1-.26,2.69,7.38,7.38,0,0,1-.84,2.25,6.37,6.37,0,0,1-1.5,1.77,7.48,7.48,0,0,1-2.26,1.22,6.14,6.14,0,0,1,2.4,1.3,7.86,7.86,0,0,1,1.68,2.11,10.65,10.65,0,0,1,1,2.75A14.84,14.84,0,0,1,57,91.26v1.68q0,5.27-3.33,8c-2.22,1.86-5.28,2.78-9.17,2.78Zm30.53,0a13.92,13.92,0,0,1-6.57-1.39,8.7,8.7,0,0,1-3.91-4,14.3,14.3,0,0,1-1.27-6.28V72.33a14.86,14.86,0,0,1,1.36-6.71,9.3,9.3,0,0,1,4-4.14,13.48,13.48,0,0,1,6.43-1.42h9.37a12.37,12.37,0,0,1,6.17,1.42,9.14,9.14,0,0,1,3.82,4.14,15.44,15.44,0,0,1,1.3,6.71V92.07c0,3.63-1,6.48-2.92,8.57s-4.76,3.12-8.42,3.12Zm2.78-10.07h3.47a2.89,2.89,0,0,0,3.24-3.36V73.49a3.41,3.41,0,0,0-.81-2.69,3,3,0,0,0-2-.67H77.38a2.76,2.76,0,0,0-2.2.81,3.89,3.89,0,0,0-.69,2.55V90.27a3.56,3.56,0,0,0,.81,2.64,3.47,3.47,0,0,0,2.49.78Zm-48.18-89C29.61,2.12,32.19,0,35.38,0s5.77,2.12,5.77,4.73V25.45c0,2.61-2.58,4.73-5.77,4.73s-5.77-2.12-5.77-4.73V4.73ZM6.4,38.76H116.46V21.47a3,3,0,0,0-.86-2.07,2.92,2.92,0,0,0-2.07-.86H103a3.2,3.2,0,1,1,0-6.4h10.55a9.36,9.36,0,0,1,9.33,9.33v92.08a9.36,9.36,0,0,1-9.33,9.33H9.33A9.36,9.36,0,0,1,0,113.54V21.47a9.36,9.36,0,0,1,9.33-9.33H20.6a3.2,3.2,0,1,1,0,6.4H9.33a3,3,0,0,0-2.07.86,2.92,2.92,0,0,0-.86,2.07V38.76Zm110.07,6.41H6.4v68.37a3,3,0,0,0,.86,2.07,2.92,2.92,0,0,0,2.07.86H113.54a3,3,0,0,0,2.07-.86,2.92,2.92,0,0,0,.86-2.07V45.17Zm-66-26.63a3.2,3.2,0,0,1,0-6.4H71.91a3.2,3.2,0,1,1,0,6.4Z"/></svg>