<?xml version="1.0" encoding="utf-8"?><svg version="1.1" id="Layer_1" xmlns="http://www.w3.org/2000/svg" xmlns:xlink="http://www.w3.org/1999/xlink" x="0px" y="0px" viewBox="0 0 115.28 122.88" style="enable-background:new 0 0 115.28 122.88" xml:space="preserve"><style type="text/css">.st0{fill-rule:evenodd;clip-rule:evenodd;}</style><g><path class="st0" d="M25.38,57h64.88V37.34H69.59c-2.17,0-5.19-1.17-6.62-2.6c-1.43-1.43-2.3-4.01-2.3-6.17l0-20.92H8.15 c-0.18,0-0.32,0.09-0.41,0.18C7.59,7.92,7.55,8.06,7.55,8.24v106.45c0,0.14,0.09,0.32,0.18,0.41c0.09,0.14,0.28,0.18,0.41,0.18 l81.51,0c0.18,0,0.17-0.09,0.27-0.18c0.14-0.09,0.33-0.28,0.33-0.41v-11.16l-64.88,0c-4.14,0-7.56-3.4-7.56-7.56V64.55 C17.82,60.4,21.22,57,25.38,57L25.38,57L25.38,57z M39.37,75.81l-5.9-1.05c0.49-1.88,1.43-3.32,2.83-4.32c1.39-1,3.36-1.5,5.91-1.5 c2.93,0,5.04,0.54,6.35,1.64c1.3,1.09,1.96,2.47,1.96,4.12c0,0.97-0.27,1.85-0.8,2.63c-0.53,0.78-1.32,1.48-2.39,2.07 c0.87,0.21,1.53,0.47,1.99,0.75c0.75,0.46,1.32,1.07,1.74,1.82c0.41,0.75,0.62,1.65,0.62,2.69c0,1.31-0.34,2.56-1.03,3.77 c-0.69,1.2-1.67,2.12-2.96,2.77c-1.29,0.65-2.98,0.97-5.07,0.97c-2.04,0-3.65-0.24-4.83-0.72c-1.18-0.48-2.15-1.18-2.91-2.11 c-0.76-0.93-1.34-2.09-1.75-3.49L39.37,85c0.25,1.26,0.62,2.14,1.14,2.63c0.51,0.49,1.17,0.73,1.97,0.73 c0.83,0,1.53-0.31,2.09-0.92c0.55-0.61,0.83-1.43,0.83-2.45c0-1.04-0.27-1.85-0.8-2.42c-0.53-0.57-1.26-0.86-2.18-0.86 c-0.49,0-1.16,0.12-2.01,0.37l0.32-4.46c0.34,0.05,0.61,0.08,0.8,0.08c0.81,0,1.48-0.26,2.02-0.78c0.54-0.52,0.81-1.13,0.81-1.84 c0-0.69-0.2-1.23-0.61-1.63c-0.41-0.41-0.97-0.61-1.67-0.61c-0.73,0-1.32,0.22-1.78,0.66C39.84,73.93,39.53,74.7,39.37,75.81 L39.37,75.81L39.37,75.81z M54.85,69.31h10.32c2.03,0,3.68,0.28,4.93,0.83c1.25,0.55,2.29,1.34,3.11,2.38 c0.82,1.04,1.41,2.23,1.77,3.6c0.37,1.37,0.55,2.82,0.55,4.35c0,2.4-0.27,4.26-0.82,5.59c-0.54,1.32-1.3,2.43-2.28,3.33 c-0.97,0.89-2.01,1.49-3.13,1.79c-1.52,0.41-2.9,0.61-4.14,0.61l-10.32,0V69.31L54.85,69.31L54.85,69.31z M61.78,74.39v12.27h1.71 c1.45,0,2.49-0.16,3.11-0.48c0.61-0.32,1.09-0.88,1.44-1.68c0.35-0.81,0.52-2.1,0.52-3.9c0-2.38-0.39-4.01-1.17-4.89 c-0.78-0.88-2.07-1.32-3.88-1.32L61.78,74.39L61.78,74.39z M78.03,84.35l6.59-0.41c0.14,1.07,0.43,1.88,0.87,2.44 c0.72,0.91,1.74,1.36,3.07,1.36c0.99,0,1.75-0.23,2.29-0.7c0.54-0.47,0.81-1,0.81-1.62c0-0.58-0.25-1.1-0.76-1.56 c-0.51-0.46-1.69-0.89-3.55-1.3c-3.04-0.68-5.21-1.59-6.51-2.73c-1.31-1.13-1.96-2.57-1.96-4.33c0-1.15,0.33-2.24,1-3.26 c0.67-1.03,1.67-1.84,3.02-2.42c1.34-0.59,3.19-0.88,5.52-0.88c2.87,0,5.06,0.53,6.57,1.61c1.51,1.07,2.4,2.77,2.69,5.1l-6.53,0.39 c-0.17-1.02-0.54-1.76-1.09-2.22c-0.56-0.47-1.33-0.7-2.31-0.7c-0.81,0-1.42,0.17-1.83,0.51c-0.41,0.34-0.61,0.76-0.61,1.25 c0,0.36,0.17,0.67,0.5,0.96c0.32,0.3,1.09,0.57,2.32,0.83c3.03,0.65,5.2,1.32,6.51,1.99c1.31,0.67,2.27,1.5,2.87,2.49 c0.6,0.99,0.89,2.1,0.89,3.33c0,1.44-0.4,2.77-1.19,3.99c-0.8,1.21-1.91,2.14-3.34,2.77c-1.43,0.63-3.23,0.94-5.4,0.94 c-3.82,0-6.47-0.74-7.94-2.21C79.06,88.48,78.23,86.61,78.03,84.35L78.03,84.35L78.03,84.35z M97.79,57h9.93 c4.16,0,7.56,3.41,7.56,7.56v31.42c0,4.15-3.41,7.56-7.56,7.56l-9.93,0v13.55c0,1.61-0.65,3.04-1.7,4.1 c-1.06,1.06-2.49,1.7-4.1,1.7l-86.18,0c-1.61,0-3.04-0.65-4.1-1.7c-1.06-1.06-1.7-2.49-1.7-4.1V5.85c0-1.61,0.65-3.04,1.7-4.1 c1.06-1.06,2.53-1.7,4.1-1.7h58.72C64.66,0,64.8,0,64.94,0c0.65,0,1.29,0.28,1.75,0.69l0.09,0c0.09,0.05,0.14,0.09,0.23,0.18 l30,30.36c0.51,0.51,0.88,1.2,0.88,1.98c0,0.23-0.05,0.41-0.09,0.65L97.79,57L97.79,57L97.79,57z M67.52,27.97V8.94l21.42,21.7 l-18.75,0c-0.74,0-1.38-0.32-1.89-0.78C67.84,29.4,67.52,28.7,67.52,27.97L67.52,27.97L67.52,27.97z"/></g></svg>