<?xml version="1.0" encoding="utf-8"?><svg version="1.1" id="Layer_1" xmlns="http://www.w3.org/2000/svg" xmlns:xlink="http://www.w3.org/1999/xlink" x="0px" y="0px" viewBox="0 0 122.88 65.56" style="enable-background:new 0 0 122.88 65.56" xml:space="preserve"><style type="text/css">.st0{fill-rule:evenodd;clip-rule:evenodd;}</style><g><path class="st0" d="M25.89,26.28c-50.5,15.04,23.46,24.44,38.63,24.31v-7.44l11.21,11.2L64.52,65.56v-6.97 C34.83,59.72-38.93,38.66,25.88,23.65L25.89,26.28L25.89,26.28z M95.97,7.95c0-2.74,0.49-4.66,1.48-5.75 c0.99-1.09,2.49-1.64,4.51-1.64c0.97,0,1.77,0.12,2.39,0.36c0.62,0.24,1.13,0.55,1.52,0.93c0.4,0.38,0.7,0.79,0.93,1.21 c0.23,0.42,0.41,0.92,0.55,1.48c0.27,1.07,0.4,2.2,0.4,3.36c0,2.62-0.44,4.53-1.33,5.74c-0.88,1.21-2.41,1.82-4.57,1.82 c-1.21,0-2.19-0.19-2.94-0.58c-0.75-0.39-1.36-0.95-1.84-1.7c-0.35-0.53-0.62-1.26-0.81-2.18C96.06,10.09,95.97,9.07,95.97,7.95 L95.97,7.95z M99.94,7.96c0,1.83,0.16,3.09,0.49,3.76c0.33,0.67,0.8,1.01,1.41,1.01c0.41,0,0.76-0.14,1.06-0.43 c0.3-0.29,0.52-0.74,0.66-1.35c0.14-0.62,0.21-1.58,0.21-2.88c0-1.91-0.16-3.2-0.49-3.86c-0.33-0.66-0.81-0.99-1.46-0.99 c-0.67,0-1.14,0.34-1.44,1.01C100.08,4.9,99.94,6.14,99.94,7.96L99.94,7.96z M67.71,0.57H90.3v7.61H75l-0.81,5.13 c1.05-0.49,2.1-0.87,3.14-1.12c1.04-0.25,2.06-0.38,3.07-0.38c3.42,0,6.21,1.04,8.34,3.11c2.13,2.07,3.2,4.68,3.2,7.83 c0,2.21-0.55,4.33-1.64,6.37c-1.1,2.04-2.66,3.6-4.68,4.67c-2.02,1.08-4.6,1.61-7.75,1.61c-2.26,0-4.2-0.22-5.81-0.65 c-1.61-0.42-2.98-1.07-4.11-1.91c-1.13-0.85-2.04-1.81-2.74-2.89c-0.7-1.08-1.28-2.42-1.75-4.03l9.62-1.05 c0.23,1.55,0.78,2.73,1.64,3.53c0.86,0.81,1.88,1.2,3.06,1.2c1.33,0,2.43-0.5,3.29-1.51c0.87-1.01,1.3-2.5,1.3-4.5 c0-2.04-0.44-3.53-1.31-4.48c-0.87-0.95-2.03-1.43-3.48-1.43c-0.92,0-1.81,0.22-2.66,0.68c-0.64,0.33-1.34,0.92-2.1,1.78L64.69,19 L67.71,0.57L67.71,0.57z M48.28,28.43H30.95v-7.83L48.28,0h8.28v21.06h4.31v7.37h-4.31v6.41h-8.28V28.43L48.28,28.43z M48.28,21.06 V10.24l-9.15,10.82H48.28L48.28,21.06z M100.71,26.9c19.49,5.05,20.66,15.1-2.06,20.71c-5.3,1.31-11.29,2.5-17.86,2.99v6.05 c7.31-0.51,14.1-2.19,20.06-3.63c32.51-7.88,26.12-22.9-0.13-28.61L100.71,26.9L100.71,26.9z"/></g></svg>