<?xml version="1.0" encoding="utf-8"?><svg version="1.1" id="Layer_1" xmlns="http://www.w3.org/2000/svg" xmlns:xlink="http://www.w3.org/1999/xlink" x="0px" y="0px" viewBox="0 0 122.88 93.28" style="enable-background:new 0 0 122.88 93.28" xml:space="preserve"><g><path d="M24.76,0v6.76h72.85V0h24.76v60.23H97.61v-6.22H24.77v6.22H0V0H24.76L24.76,0z M106.57,65.6h5.27c3.4,0,5.7,0.15,6.9,0.47 s2.11,0.83,2.73,1.54c0.62,0.71,1.02,1.51,1.17,2.38c0.15,0.88,0.23,2.6,0.23,5.17v9.49c0,2.43-0.11,4.06-0.34,4.88 c-0.23,0.82-0.63,1.47-1.19,1.93c-0.57,0.46-1.27,0.78-2.11,0.97c-0.83,0.18-2.1,0.27-3.78,0.27h-8.88V65.6L106.57,65.6z M112.67,70.23v17.85c1,0,3.06-0.21,3.28-0.61c0.23-0.41,0.35-1.52,0.35-3.33V73.6c0-1.23-0.04-2.02-0.11-2.36 c-0.08-0.35-0.25-0.6-0.53-0.76C115.38,70.31,113.43,70.23,112.67,70.23L112.67,70.23z M103.73,65.6v27.1h-7.06V81.33h-2.06V92.7 h-7.06V65.6h7.06v9.69h2.06V65.6H103.73L103.73,65.6z M76.27,65.6l4.03,27.1h-6.24l-0.38-4.86h-4.46l-0.38,4.86h-6.33l3.57-27.1 H76.27L76.27,65.6z M73.5,83.04l-2.03-11.41l-2.28,11.41H73.5L73.5,83.04z M45.67,65.6h4.98c3.32,0,5.57,0.13,6.75,0.38 c1.18,0.26,2.14,0.91,2.88,1.97c0.74,1.05,1.11,2.73,1.11,5.04c0,2.11-0.26,3.52-0.79,4.25c-0.52,0.73-1.55,1.16-3.09,1.3 c1.39,0.35,2.34,0.81,2.81,1.39c0.48,0.58,0.78,1.11,0.89,1.6c0.12,0.49,0.18,1.82,0.18,4.01v7.15h-6.06v-9.02 c0-1.45-0.12-2.35-0.34-2.69c-0.22-0.35-2.26-0.52-3.22-0.52V92.7h-6.1V65.6L45.67,65.6z M51.77,70.23v6.03 c0.79,0,2.78-0.11,3.09-0.33c0.31-0.22,0.47-0.92,0.47-2.12v-1.49c0-0.86-0.15-1.43-0.46-1.7C54.57,70.36,52.57,70.23,51.77,70.23 L51.77,70.23z M44.06,65.6v5.41h-4.15V92.7h-7.06V71.02h-4.18V65.6H44.06L44.06,65.6z M26.36,65.6v21.68h4.25v5.41h-11.3V65.6 H26.36L26.36,65.6z M16.57,65.6v18.12c0,2.06-0.07,3.5-0.2,4.33c-0.14,0.83-0.53,1.69-1.19,2.56c-0.66,0.88-1.52,1.54-2.6,1.99 c-1.08,0.45-2.35,0.68-3.81,0.68c-1.62,0-3.04-0.27-4.28-0.8c-1.24-0.54-2.16-1.23-2.77-2.09c-0.62-0.86-0.98-1.77-1.09-2.72 c-0.11-0.95-0.17-2.96-0.17-6.02V65.6h6.1v20.33c0,1.18,0.06,1.94,0.19,2.27c0.13,0.33,1.34,0.5,1.73,0.5 c0.43,0,1.68-0.18,1.81-0.54c0.13-0.37,0.19-1.22,0.19-2.57V65.6H16.57L16.57,65.6z M60.59,20.14h6.79v8.31l7.12-8.31h9.03 l-8.03,8.27l8.4,13.73h-8.36l-4.64-9.03l-3.53,3.67v5.36h-6.79V20.14L60.59,20.14L60.59,20.14z M49.6,38.02H38.47V33L49.6,19.77 h5.32v13.51h2.77v4.73h-2.77v4.11H49.6V38.02L49.6,38.02L49.6,38.02z M49.6,33.29v-6.94l-5.88,6.94H49.6L49.6,33.29L49.6,33.29z M97.61,13.05H24.77v34.67h72.85L97.61,13.05L97.61,13.05L97.61,13.05z M116.08,53.94V42.19h-12.17v11.75H116.08L116.08,53.94 L116.08,53.94z M116.08,35.92V24.17h-12.17v11.75H116.08L116.08,35.92L116.08,35.92z M116.08,17.87V6.12h-12.17v11.75H116.08 L116.08,17.87L116.08,17.87z M18.46,53.94V42.19H6.29v11.75H18.46L18.46,53.94L18.46,53.94z M18.46,35.92V24.17H6.29v11.75H18.46 L18.46,35.92L18.46,35.92z M18.46,17.87V6.12H6.29v11.75H18.46L18.46,17.87L18.46,17.87z"/></g></svg>