<?xml version="1.0" encoding="utf-8"?><svg version="1.1" id="Layer_1" xmlns="http://www.w3.org/2000/svg" xmlns:xlink="http://www.w3.org/1999/xlink" x="0px" y="0px" viewBox="0 0 122.88 98.08" style="enable-background:new 0 0 122.88 98.08" xml:space="preserve"><g><path d="M13.78,13.25V3.84C13.78,1.72,15.5,0,17.62,0c2.12,0,3.84,1.72,3.84,3.84v9.41h9.73V3.84c0-2.12,1.72-3.84,3.84-3.84 c2.12,0,3.84,1.72,3.84,3.84v9.41h9.73V3.84c0-2.12,1.72-3.84,3.84-3.84c2.12,0,3.84,1.72,3.84,3.84v9.41h9.73V3.84 c0-2.12,1.72-3.84,3.84-3.84c2.12,0,3.84,1.72,3.84,3.84v9.41h9.73V3.84c0-2.12,1.72-3.84,3.84-3.84c2.12,0,3.84,1.72,3.84,3.84 v9.41h9.73V3.84c0-2.12,1.72-3.84,3.84-3.84c2.12,0,3.84,1.72,3.84,3.84v9.41h8.6c1.59,0,3.03,0.65,4.07,1.69 c1.04,1.04,1.69,2.48,1.69,4.07v60.66c0,1.57-0.65,3.01-1.69,4.06l0.01,0.01c-1.04,1.04-2.48,1.69-4.07,1.69h-8.6v8.82 c0,2.12-1.72,3.84-3.84,3.84s-3.84-1.72-3.84-3.84v-8.82h-9.73v8.82c0,2.12-1.72,3.84-3.84,3.84c-2.12,0-3.84-1.72-3.84-3.84v-8.82 H73.7v8.82c0,2.12-1.72,3.84-3.84,3.84c-2.12,0-3.84-1.72-3.84-3.84v-8.82h-9.73v8.82c0,2.12-1.72,3.84-3.84,3.84 c-2.12,0-3.84-1.72-3.84-3.84v-8.82h-9.73v8.82c0,2.12-1.72,3.84-3.84,3.84c-2.12,0-3.84-1.72-3.84-3.84v-8.82h-9.73v8.82 c0,2.12-1.72,3.84-3.84,3.84c-2.12,0-3.84-1.72-3.84-3.84v-8.82H5.75c-1.59,0-3.03-0.65-4.07-1.69C0.65,82.69,0,81.25,0,79.67 V19.01c0-1.59,0.65-3.03,1.69-4.07c0.12-0.12,0.25-0.23,0.38-0.33c1.01-0.84,2.29-1.35,3.69-1.35H13.78L13.78,13.25L13.78,13.25z M37.61,33.54h18.79v6.89H43.67l-0.68,4.64c0.88-0.45,1.74-0.79,2.61-1.01c0.86-0.22,1.71-0.34,2.55-0.34 c2.85,0,5.16,0.94,6.93,2.82c1.77,1.87,2.66,4.23,2.66,7.08c0,2-0.46,3.92-1.37,5.77c-0.92,1.85-2.21,3.26-3.89,4.23 c-1.68,0.97-3.83,1.46-6.44,1.46c-1.88,0-3.49-0.2-4.83-0.58c-1.34-0.38-2.48-0.97-3.42-1.73c-0.94-0.77-1.7-1.64-2.28-2.61 c-0.58-0.97-1.07-2.19-1.46-3.65l8-0.95c0.19,1.4,0.65,2.47,1.36,3.2c0.72,0.73,1.57,1.09,2.55,1.09c1.11,0,2.02-0.45,2.73-1.36 c0.72-0.91,1.08-2.27,1.08-4.07c0-1.85-0.37-3.2-1.09-4.06c-0.72-0.86-1.69-1.29-2.89-1.29c-0.76,0-1.51,0.2-2.22,0.61 c-0.53,0.3-1.11,0.83-1.74,1.61L35.1,50.2L37.61,33.54L37.61,33.54z M75.2,53.33v-6.45h13.61v13.19c-2.61,1.93-4.91,3.26-6.91,3.96 c-2,0.7-4.38,1.05-7.12,1.05c-3.38,0-6.14-0.63-8.27-1.88c-2.13-1.25-3.78-3.12-4.96-5.6c-1.17-2.48-1.76-5.33-1.76-8.54 c0-3.39,0.64-6.32,1.92-8.83c1.28-2.5,3.16-4.4,5.63-5.7c1.93-1,4.53-1.5,7.79-1.5c3.14,0,5.5,0.31,7.06,0.93 c1.57,0.62,2.86,1.58,3.89,2.89c1.03,1.31,1.8,2.96,2.32,4.96l-8.48,1.66c-0.35-1.18-0.94-2.08-1.78-2.7 c-0.84-0.63-1.9-0.94-3.2-0.94c-1.92,0-3.46,0.73-4.61,2.19c-1.15,1.46-1.72,3.77-1.72,6.92c0,3.35,0.58,5.75,1.74,7.18 c1.15,1.44,2.77,2.16,4.84,2.16c0.98,0,1.92-0.15,2.81-0.46c0.89-0.31,1.91-0.84,3.07-1.57v-2.9H75.2L75.2,53.33z M115.2,20.93 H7.68v56.81H115.2V20.93L115.2,20.93z"/></g></svg>