<svg id="Layer_1" data-name="Layer 1" xmlns="http://www.w3.org/2000/svg" viewBox="0 0 120.88 122.88"><title>60-minutes</title><path d="M60.22,113.81a4.54,4.54,0,0,1,0,9.07A60.23,60.23,0,1,1,89.71,10.16l-1.26-3.3a5.06,5.06,0,1,1,9.45-3.6l5,13.15a5,5,0,0,1,.32,1.55,5,5,0,0,1-3.51,5.64L86.27,27.72a5,5,0,0,1-2.92-9.65l1.28-.39a50.55,50.55,0,0,0-10.19-4.19A51.17,51.17,0,1,0,60.22,113.81ZM35.83,91.22,38,72.68h4.54l3.82,13,3.82-13h4.49l2.22,18.54H52.25L50.82,79.29l.7,0L48.6,91.22H44.06L41.12,79.31l.77,0-1.4,11.93Zm24,0V72.68h4.84V91.22Zm8.21,0V72.68h3.84L78.35,83V72.68h4.84V91.22H79.35L72.83,80.89V91.22ZM44.94,67a12.37,12.37,0,0,1-4.33-.69,6.65,6.65,0,0,1-3.07-2.38,12.14,12.14,0,0,1-1.83-4.64,38.57,38.57,0,0,1-.6-7.46,33.57,33.57,0,0,1,.81-8.05,12.58,12.58,0,0,1,2.42-5.09A8.78,8.78,0,0,1,42.21,36a15.87,15.87,0,0,1,5.17-.78c1.48,0,2.92.07,4.31.19a22.72,22.72,0,0,1,3.76.65v6.48h-7.1c-1.91,0-3.23.47-4,1.43a6.44,6.44,0,0,0-1.11,4,7.88,7.88,0,0,1,1.58-.56,9.8,9.8,0,0,1,1.83-.26c.7,0,1.56-.06,2.6-.06a10.23,10.23,0,0,1,5,1,5.15,5.15,0,0,1,2.37,2.73,11.11,11.11,0,0,1,.63,3.83v4.54a8.73,8.73,0,0,1-1,4.43,5.9,5.9,0,0,1-2.79,2.5,10.33,10.33,0,0,1-4.25.8Zm1.68-7.31h.72a2,2,0,0,0,1.09-.25,1.5,1.5,0,0,0,.55-.74,3.59,3.59,0,0,0,.17-1.16V56.32A4.18,4.18,0,0,0,49,54.91a1.21,1.21,0,0,0-.68-.69,3.44,3.44,0,0,0-1.4-.22H43.26a19.08,19.08,0,0,0,.17,2.78A4.57,4.57,0,0,0,44,58.5a2.18,2.18,0,0,0,1.06.89,4.53,4.53,0,0,0,1.57.25ZM68.86,67a10,10,0,0,1-4.77-1A6.32,6.32,0,0,1,61.25,63a10.45,10.45,0,0,1-.92-4.56V44.13a11,11,0,0,1,1-4.88,6.77,6.77,0,0,1,2.93-3,9.87,9.87,0,0,1,4.66-1h6.81a9.08,9.08,0,0,1,4.48,1,6.64,6.64,0,0,1,2.77,3,11.26,11.26,0,0,1,1,4.88V58.46a8.75,8.75,0,0,1-2.12,6.22A8,8,0,0,1,75.67,67Zm2-7.31H73.4a2.1,2.1,0,0,0,2.36-2.44V45a2.5,2.5,0,0,0-.59-2,2.21,2.21,0,0,0-1.43-.48H70.59a2,2,0,0,0-1.6.59A2.78,2.78,0,0,0,68.48,45V57.16a2.6,2.6,0,0,0,.59,1.91,2.52,2.52,0,0,0,1.81.57Zm40.34-29.88c-3.52-5.29-11.65-.65-8.57,5.21l.14.22A50,50,0,0,1,107,43.27a5,5,0,1,0,9.28-3.83,61.08,61.08,0,0,0-5.07-9.68Zm-33.93,80.7c-5.37,1.79-4,10.32,2.33,9.71a5.5,5.5,0,0,0,1-.24,60.77,60.77,0,0,0,10-4.55c5.19-3,1.69-11.13-4.3-9a4.83,4.83,0,0,0-.69.33,52.4,52.4,0,0,1-8.28,3.78ZM99.4,95c-3.66,4.44,2.09,10.86,7.08,7a5.37,5.37,0,0,0,.71-.72,59.52,59.52,0,0,0,6.11-9.07A5,5,0,0,0,105,86.69a6,6,0,0,0-.48.72A50,50,0,0,1,99.4,95Zm10.88-24.81a5,5,0,0,0,9.63,2.58,4.83,4.83,0,0,0,.3-1.13,60.28,60.28,0,0,0,.64-10.9c-.28-6.19-9.41-6.63-10-.12v.82a52.28,52.28,0,0,1-.55,8.75Z"/></svg>