<svg id="Layer_1" data-name="Layer 1" xmlns="http://www.w3.org/2000/svg" viewBox="0 0 122.88 109.7"><defs><style>.cls-1{fill-rule:evenodd;}</style></defs><title>accident</title><path class="cls-1" d="M35.22,72.73H10.34v6.14H1.05c0-14.36-4.34-34,4.61-45.84L10,18.31c1.28-4,3.43-7.63,7.62-7.63h51.2c4.19,0,6.61,3.56,7.62,7.63L79.83,33l.91,2.26H56.49a11,11,0,0,0-8.61,4,20.08,20.08,0,0,0-3.68,7L40.32,60.48H23.82v6.46H37.07a35.17,35.17,0,0,0-1.85,5.79ZM76.63,16.21,82.08.69l7.14,13.48L102.74,0,99.53,20.3l19.68-6.62L107.68,29.75l15.2,4.76-13.5,7.1a11.34,11.34,0,0,1,3.54,6.21l3.38,15.94c8.46,13,4,28.84,4,45.94H111v-6.16H49.17v6.15H39.86c0-14.4-4.35-34,4.62-45.94l4.37-15.94c1.28-4,3.43-7.63,7.64-7.63h48.79a6.81,6.81,0,0,1,1,.07l-.5-.95,7.48-3.93L101.7,31.75l7.83-10.91L94.92,25.75l2.31-14.62-8.87,9.31L82.77,9.89l-2.64,7.53-3.5-1.21Zm-14,75.05H97.09v6.48H62.67V91.26Zm-19.1-15.1c7,.22,11.88,3.16,13,9.27h-13V76.16Zm72.13,0c-7,.22-11.88,3.16-13,9.27h13V76.16ZM48.42,63.76h63.31L109.27,50c-.68-3.13-2.62-5.82-5.82-5.82H57.89C54.69,44.2,53,47,52.07,50L48.42,63.76ZM4.75,45.41c7,.22,11.86,3.15,13,9.25H4.75V45.41ZM9.59,33H75.27L72.81,20.49c-.68-3.11-2.62-5.8-5.81-5.8H19c-3.2,0-4.83,2.76-5.81,5.8L9.59,33Z"/></svg>