<svg xmlns="http://www.w3.org/2000/svg" shape-rendering="geometricPrecision" text-rendering="geometricPrecision" image-rendering="optimizeQuality" fill-rule="evenodd" clip-rule="evenodd" viewBox="0 0 512 393.71"><path d="M219.57 237.25h107.37c6.56-17.15 10.16-35.85 10.16-55.45 0-20.85-4.08-40.69-11.46-58.75l-.27-.62c-7.86-18.96-19.42-36.08-33.76-50.43v-.05a155.684 155.684 0 0 0-50.42-33.73c-18.21-7.54-38.28-11.71-59.39-11.71-20.87 0-40.71 4.07-58.77 11.45l-.62.27A155.348 155.348 0 0 0 72 71.95l-.05.05a155.348 155.348 0 0 0-33.72 50.41c-7.55 18.22-11.72 38.28-11.72 59.39 0 20.87 4.07 40.72 11.45 58.78l.27.61a155.233 155.233 0 0 0 19.04 33.46c21.25-11.3 57.03-10.27 77.51-24.55 1.32-1.99 2.75-4.89 4.13-8.03 2.08-4.75 3.96-9.92 5.17-13.47-5.06-5.96-9.39-12.67-13.55-19.31-6.56-10.44-21.15-30.06-21.5-41.74-.08-2.64.37-5.03 1.35-7.14 1.01-2.22 2.59-4.05 4.72-5.48.99-.67 2.11-1.23 3.32-1.68-.9-11.84-1.21-26.73-.65-39.22.29-2.95.88-5.92 1.69-8.88 3.52-12.51 12.28-22.6 23.16-29.51 5.99-3.82 12.56-6.69 19.42-8.63 4.36-1.23-3.71-15.15.79-15.63 21.78-2.25 57 17.66 72.21 34.1 7.61 8.23 12.4 19.17 13.44 33.61l-.85 35.59c3.8 1.15 6.24 3.57 7.22 7.48 3.29 12.96-14.04 35.72-19.61 44.91-5.74 9.44-11.59 18.95-19.17 26.42.67.99 1.38 1.97 2.05 2.98l.53.79.92-.01zm46.39 55.72c0-3.94 3.19-7.12 7.12-7.12s7.13 3.18 7.13 7.12v9.21l7.63-5.11a7.1 7.1 0 0 1 9.85 1.95c2.19 3.25 1.31 7.66-1.95 9.85l-9.85 6.59 9.86 6.55c3.27 2.17 4.17 6.58 2.01 9.85-2.17 3.27-6.59 4.17-9.86 2.01l-7.69-5.13v9.24c0 3.94-3.2 7.13-7.13 7.13-3.93 0-7.12-3.19-7.12-7.13v-9.2l-7.64 5.11a7.12 7.12 0 0 1-9.85-1.95 7.1 7.1 0 0 1 1.95-9.85l9.86-6.59-9.87-6.56c-3.27-2.16-4.16-6.57-2-9.85a7.117 7.117 0 0 1 9.85-2l7.7 5.12v-9.24zm152.07 0a7.11 7.11 0 0 1 7.12-7.12c3.93 0 7.12 3.18 7.12 7.12v9.21l7.64-5.11a7.101 7.101 0 0 1 7.9 11.8l-9.86 6.59 9.87 6.55a7.117 7.117 0 0 1 2 9.85c-2.16 3.27-6.58 4.17-9.85 2.01l-7.7-5.13v9.24c0 3.94-3.19 7.13-7.12 7.13-3.94 0-7.12-3.19-7.12-7.13v-9.2l-7.64 5.11c-3.26 2.17-7.67 1.3-9.85-1.95-2.18-3.26-1.31-7.67 1.94-9.85l9.86-6.59-9.86-6.56c-3.27-2.16-4.17-6.57-2-9.85 2.16-3.27 6.57-4.16 9.85-2l7.7 5.12v-9.24zm-76.03 0c0-3.94 3.19-7.12 7.12-7.12s7.13 3.18 7.13 7.12v9.21l7.63-5.11a7.1 7.1 0 0 1 9.85 1.95c2.18 3.25 1.31 7.66-1.94 9.85l-9.86 6.59 9.86 6.55c3.27 2.17 4.17 6.58 2 9.85-2.16 3.27-6.58 4.17-9.85 2.01l-7.69-5.13v9.24c0 3.94-3.2 7.13-7.13 7.13-3.93 0-7.12-3.19-7.12-7.13v-9.2l-7.64 5.11c-3.26 2.17-7.67 1.3-9.85-1.95a7.1 7.1 0 0 1 1.95-9.85l9.85-6.59-9.86-6.56c-3.27-2.16-4.17-6.57-2-9.85a7.117 7.117 0 0 1 9.85-2l7.7 5.12v-9.24zm12.95-55.72h123.71c18.33 0 33.34 15.01 33.34 33.33v89.79c0 18.17-15.17 33.34-33.34 33.34H219.57c-9.14 0-17.5-3.76-23.54-9.81a33.577 33.577 0 0 1-9.64-20.35 181.27 181.27 0 0 1-74.07-13.75l-.04-.02c-22.2-9.18-42.2-22.68-58.96-39.44l-.05-.05C36.5 293.52 23 273.52 13.8 251.33l-.27-.7A181.426 181.426 0 0 1 0 181.8c0-24.54 4.91-48.01 13.8-69.48l.02-.04C23 90.08 36.5 70.08 53.27 53.32l.05-.05C70.09 36.5 90.08 23 112.27 13.8l.71-.27A181.337 181.337 0 0 1 181.8 0c24.54 0 48.02 4.91 69.48 13.8l.04.02c22.22 9.19 42.23 22.7 58.99 39.47a181.546 181.546 0 0 1 39.49 59l.27.71a181.127 181.127 0 0 1 13.54 68.8c0 19.29-3.04 37.93-8.66 55.45zm-135.38 19.87h259.09c7.41 0 13.46 6.16 13.46 13.46v89.79c0 7.3-6.15 13.46-13.46 13.46H219.57c-7.3 0-13.46-6.06-13.46-13.46v-89.79c0-7.4 6.06-13.46 13.46-13.46z"/></svg>