<?xml version="1.0" encoding="utf-8"?><svg version="1.1" id="Layer_1" xmlns="http://www.w3.org/2000/svg" xmlns:xlink="http://www.w3.org/1999/xlink" x="0px" y="0px" viewBox="0 0 122.88 83.71" style="enable-background:new 0 0 122.88 83.71" xml:space="preserve"><g><path d="M2.09,83.71C0.93,83.71,0,82.78,0,81.62V31.45c0-1.15,0.93-2.09,2.09-2.09c0.32,0,0.61,0.07,0.88,0.2 c4.91,1.77,9.4,3.27,13.56,4.53V13.54c-0.97-0.35-1.84-0.91-2.56-1.63l0,0c-1.26-1.26-2.04-3.01-2.04-4.93 c0-1.92,0.78-3.66,2.04-4.92l0.01-0.01C15.24,0.78,16.98,0,18.9,0c1.93,0,3.67,0.78,4.93,2.04c0.05,0.05,0.1,0.11,0.15,0.16 c1.18,1.25,1.9,2.93,1.9,4.77c0,1.93-0.78,3.67-2.04,4.93c-0.72,0.72-1.59,1.28-2.56,1.63v21.93c15.89,4.4,26.65,5.07,37.53,4.28 V18.71c-0.97-0.35-1.84-0.91-2.56-1.63c-0.05-0.05-0.1-0.1-0.15-0.16c-1.18-1.25-1.9-2.93-1.9-4.77c0-1.92,0.78-3.66,2.04-4.93 l0.01-0.01c1.26-1.26,3-2.04,4.92-2.04c1.92,0,3.66,0.78,4.92,2.04l0.01,0.01c1.26,1.26,2.04,3,2.04,4.93 c0,1.93-0.78,3.67-2.04,4.93c-0.05,0.05-0.1,0.1-0.16,0.15c-0.69,0.65-1.5,1.15-2.4,1.48v20.61c3.75-0.4,7.6-0.92,11.75-1.49 c7.3-1,15.53-2.13,25.78-2.92V20.54c-0.97-0.35-1.84-0.91-2.55-1.63l0,0l0,0c-1.26-1.26-2.04-3.01-2.04-4.93 c0-1.92,0.78-3.66,2.04-4.92l0.01-0.01C99.79,7.78,101.53,7,103.45,7c1.92,0,3.66,0.78,4.92,2.04l0.01,0.01 c1.26,1.26,2.04,3,2.04,4.92c0,1.93-0.78,3.67-2.04,4.93c-0.05,0.05-0.1,0.1-0.16,0.15c-0.69,0.65-1.5,1.15-2.4,1.48v14.04 c4.57-0.28,9.52-0.5,14.93-0.6c1.15-0.02,2.1,0.89,2.12,2.04v0.04h0.01v45.58c0,1.15-0.93,2.09-2.09,2.09H2.09L2.09,83.71z M20.48,5.4c-0.4-0.4-0.96-0.65-1.58-0.65c-0.62,0-1.18,0.25-1.58,0.64L17.31,5.4c-0.4,0.4-0.64,0.96-0.64,1.58 c0,0.62,0.25,1.18,0.65,1.58l0,0l0,0c0.4,0.4,0.96,0.64,1.58,0.64c0.62,0,1.18-0.25,1.58-0.65c0.4-0.4,0.65-0.96,0.65-1.58 c0-0.58-0.21-1.1-0.56-1.49L20.48,5.4L20.48,5.4z M21.27,39.79v0.99c0,4.5,0.66,3.78-2.32,7.06c-3.11-3.29-2.43-2.54-2.43-7.14 v-2.27c-3.82-1.14-7.91-2.47-12.35-4.04v45.13h114.53V38.17c-4.62,0.12-8.9,0.31-12.89,0.57v9.04c0,4.5,0.66,3.78-2.32,7.06 c-3.12-3.29-2.43-2.54-2.43-7.14v-8.63c-9.99,0.78-18.06,1.89-25.22,2.87c-4.35,0.6-8.38,1.15-12.31,1.56v2.44 c0,4.5,0.66,3.78-2.32,7.06c-3.11-3.29-2.43-2.54-2.43-7.14v-1.95C47.87,44.72,37.03,44.07,21.27,39.79L21.27,39.79z M105.03,12.39 c-0.4-0.4-0.96-0.65-1.58-0.65s-1.18,0.25-1.58,0.65c-0.4,0.4-0.65,0.96-0.65,1.58c0,0.62,0.25,1.18,0.65,1.58l0,0 c0.4,0.4,0.96,0.65,1.58,0.65c0.58,0,1.1-0.21,1.5-0.57l0.08-0.09c0.4-0.4,0.65-0.96,0.65-1.58 C105.68,13.35,105.43,12.79,105.03,12.39L105.03,12.39z M14.27,58.04c-1.07-0.41-1.61-1.61-1.2-2.68c0.41-1.07,1.61-1.61,2.68-1.2 c4.4,1.69,9.79,2.89,15.32,3.67c6.48,0.91,13.12,1.23,18.59,1.06c1.15-0.03,2.1,0.87,2.14,2.02c0.03,1.15-0.87,2.1-2.02,2.14 c-5.7,0.17-12.58-0.15-19.28-1.09C24.71,61.14,19.01,59.86,14.27,58.04L14.27,58.04z M62.76,10.56c-0.4-0.4-0.96-0.65-1.58-0.65 c-0.62,0-1.18,0.25-1.58,0.65c-0.4,0.4-0.65,0.96-0.65,1.58c0,0.58,0.22,1.1,0.57,1.5l0.09,0.08c0.4,0.4,0.96,0.65,1.58,0.65 c0.58,0,1.1-0.22,1.5-0.57l0.08-0.09c0.4-0.4,0.65-0.96,0.65-1.58C63.41,11.53,63.16,10.97,62.76,10.56L62.76,10.56z"/></g></svg>