<?xml version="1.0" encoding="utf-8"?><svg version="1.1" id="Layer_1" xmlns="http://www.w3.org/2000/svg" xmlns:xlink="http://www.w3.org/1999/xlink" x="0px" y="0px" width="122.88px" height="116.316px" viewBox="0 0 122.88 116.316" enable-background="new 0 0 122.88 116.316" xml:space="preserve"><g><path fill-rule="evenodd" clip-rule="evenodd" d="M49.29,94.542l4.168-14.465l-2.043-2.235c-0.922-1.344-1.122-2.52-0.611-3.531 c1.106-2.189,3.396-1.781,5.535-1.781c2.242,0,5.01-0.424,5.71,2.381c0.234,0.938-0.06,1.92-0.716,2.932l-2.044,2.235l4.167,14.465 l-7.083,5.597L49.29,94.542L49.29,94.542z M93.894,77.201h6.989c0.457,0,0.83,0.373,0.83,0.83V86.5h8.469 c0.457,0,0.83,0.373,0.83,0.83v6.989c0,0.457-0.373,0.83-0.83,0.83h-8.469v8.468c0,0.458-0.373,0.831-0.83,0.831h-6.989 c-0.457,0-0.83-0.373-0.83-0.831v-8.468h-8.469c-0.457,0-0.83-0.373-0.83-0.83V87.33c0-0.457,0.373-0.83,0.83-0.83h8.469v-8.469 C93.063,77.574,93.437,77.201,93.894,77.201L93.894,77.201z M97.388,65.333c7.04,0,13.412,2.854,18.025,7.466 c4.613,4.614,7.467,10.986,7.467,18.025s-2.854,13.412-7.467,18.025s-10.985,7.467-18.025,7.467c-6.517,0-12.462-2.446-16.969-6.47 c-25.339-0.062-53.401-0.541-74.873-0.178c-5.38,0.091-5.937,0.478-5.37-7.183c1.887-8.934,5.491-16.008,13.442-20.992 c5.516-3.459,12.627-6.359,19.909-9.188c0.927-0.841,2.128-1.856,3.398-2.931c2.962-2.507,6.327-5.354,6.886-6.346 c-0.995-1-1.913-2.05-2.808-3.089l-3.842-4.46l-2.708,0.071l-5.393,0.142c-4.63-5.326-4.338-16.767-3.895-23.373 c2.16-13.274,7.292-22.833,15.649-28.361c5.664-3.746,9.044-3.954,15.66-3.958c5.775-0.004,9.317-0.126,14.241,3.116 C86.77,13.688,91.742,38.629,83.896,55.434h-5.479c-0.138,0.163-0.271,0.318-0.396,0.466l-0.497,0.581l-2.436,2.928 c-1.432,1.723-2.882,3.448-4.598,4.962c0.933,1.206,3.792,3.71,6.325,5.929c0.769,0.673,1.51,1.321,2.172,1.915l0.695,0.271 C84.269,68.058,90.51,65.333,97.388,65.333L97.388,65.333z M71.919,91.891c-0.015-0.354-0.022-0.709-0.022-1.066 c0-6.228,2.233-11.934,5.943-16.361c-0.746-0.677-1.665-1.481-2.631-2.328c-2.49-2.181-5.272-4.617-6.598-6.284l-0.121,0.083 c-2.754,1.883-6.148,3.137-10.79,3.128c-4.334-0.008-7.597-1.217-10.272-3.004c-0.65-0.434-1.261-0.898-1.842-1.388 c-1.309,1.684-4.354,4.261-7.083,6.569c-2.201,1.862-4.183,3.539-4.616,4.14c-0.049,0.068-0.104,0.13-0.163,0.184 c-2.863,3.614-5.396,7.472-7.539,11.772l9.146-0.223l21.042,18.297L71.919,91.891L71.919,91.891z M112.401,75.811 c-3.842-3.842-9.15-6.218-15.014-6.218s-11.171,2.376-15.013,6.218c-3.843,3.843-6.219,9.15-6.219,15.014 c0,5.864,2.376,11.172,6.219,15.014c3.842,3.842,9.149,6.219,15.013,6.219s11.172-2.377,15.014-6.219 c3.843-3.842,6.219-9.149,6.219-15.014C118.62,84.961,116.244,79.653,112.401,75.811L112.401,75.811z M38.306,53.406 c-4.436-15.295-2.32-29.358,9.723-41.39c2.134,6.897,6.917,12.591,15.053,16.798c3.893,2.891,7.652,6.381,11.297,10.388 c0.647-2.655-1.817-5.888-4.805-9.22c2.765,1.367,5.304,3.274,7.105,6.954c2.086,4.264,2.061,7.86,1.372,12.488 c-0.206,1.384-0.497,2.708-0.878,3.969c-0.178,0.08-0.332,0.191-0.445,0.332c-0.331,0.408-0.667,0.801-0.965,1.15 c-0.099,0.115-0.206,0.242-0.507,0.604l-2.436,2.928c-1.861,2.238-3.75,4.481-6.142,6.115c-2.292,1.566-5.117,2.61-8.979,2.603 c-3.563-0.006-6.261-1.011-8.483-2.494c-2.318-1.547-4.186-3.654-5.967-5.723l-4.449-5.165 C38.674,53.596,38.502,53.483,38.306,53.406L38.306,53.406z"/></g></svg>