<svg xmlns="http://www.w3.org/2000/svg" shape-rendering="geometricPrecision" text-rendering="geometricPrecision" image-rendering="optimizeQuality" fill-rule="evenodd" clip-rule="evenodd" viewBox="0 0 512 469.74"><path d="M412.27 270.29c55.1 0 99.73 44.66 99.73 99.72 0 55.1-44.66 99.73-99.73 99.73-55.09 0-99.72-44.65-99.72-99.73 0-55.1 44.65-99.72 99.72-99.72zM232.93 0c31.47 0 61.6 6.3 89.09 17.69l.91.41c28.11 11.8 53.42 28.95 74.62 50.16 21.54 21.55 38.85 47.2 50.62 75.61 11.4 27.49 17.69 57.61 17.69 89.06 0 8.19-.43 16.3-1.27 24.27a122.985 122.985 0 0 0-34.04-10.18c.33-4.65.49-9.35.49-14.09 0-26.89-5.32-52.48-14.97-75.74a198.26 198.26 0 0 0-43.01-64.33c-18.1-18.13-39.61-32.72-63.49-42.74l-.87-.33c-23.27-9.65-48.85-14.97-75.77-14.97-26.91 0-52.5 5.32-75.76 14.97-24.26 10.02-46.07 24.74-64.31 43.01-18.13 18.1-32.72 39.62-42.74 63.5l-.33.87c-9.65 23.26-14.97 48.85-14.97 75.76 0 26.92 5.32 52.5 14.97 75.77a196.716 196.716 0 0 0 30.66 50.78c-.12-1.12 0-2.1.37-2.88 4.46-9.33 11.77-17.95 24.49-25.92 18.02-11.32 54.02-20.41 77.84-29.64-12.64 13.69-23.5 28.27-32.07 45.47l24.81-.61 55.7 44.49 58.45-44.49h.23c-1.52 7.8-2.33 15.86-2.33 24.11 0 30.5 10.99 58.46 29.24 80.1-26.18 10.16-54.63 15.75-84.25 15.75-31.45 0-61.58-6.29-89.08-17.69l-.92-.41c-28.12-11.8-53.42-28.95-74.62-50.15-21.49-21.5-38.79-47.14-50.59-75.6C6.3 294.53 0 264.4 0 232.93s6.3-61.59 17.69-89.08l.41-.92c11.8-28.12 28.95-53.42 50.16-74.62 21.48-21.49 47.12-38.79 75.6-50.59C171.34 6.3 201.46 0 232.93 0zM121.21 262.42c18.01-6.79 26.3-28.07 27.45-59.89.87-23.66-4.04-38.58 4.03-61.93 15.98-46.23 75.04-62.03 107.96-34.98 25.79-2.75 51.81 10.56 57.41 50.35 4.19 29.71-4.69 55.86 4.67 83.23 4.03 11.76 11.05 20.79 22 26.05l-1.55 1.39c-1.6 1.08-3.18 2.18-4.71 3.32-14.49 8.81-40.42 14.23-69.54 16.44v12.07l19.34 25.84-55.33 44-55.26-43.61 14.76-24.79v-14.68c-33.42-3.6-61.57-11.32-71.23-22.81zm177.26 57.45c-4.85-6.55-10.09-12.78-15.68-18.83 6.44 2.49 13.77 4.98 21.38 7.5-2.08 3.67-3.98 7.44-5.7 11.33zm97.21 6.85c-.04-4.9-.49-8.4 5.58-8.31l19.68.24c6.34-.04 8.03 1.97 7.95 7.93v26.83h26.68c4.89-.05 8.39-.49 8.3 5.58l-.24 19.67c.04 6.35-1.97 8.03-7.92 7.96h-26.82v26.81c.08 5.96-1.61 7.97-7.95 7.93l-19.68.24c-6.07.09-5.62-3.41-5.58-8.31v-26.67h-26.83c-5.95.07-7.96-1.61-7.92-7.96l-.24-19.67c-.09-6.07 3.41-5.63 8.3-5.58h26.69v-26.69z"/></svg>