<svg xmlns="http://www.w3.org/2000/svg" shape-rendering="geometricPrecision" text-rendering="geometricPrecision" image-rendering="optimizeQuality" fill-rule="evenodd" clip-rule="evenodd" viewBox="0 0 512 490.14"><path fill-rule="nonzero" d="M294.46 29.9c12.39 3.8 24.2 9.01 35.27 15.44a156.607 156.607 0 0 0-30.75 14.99 140.81 140.81 0 0 0-18.19-6.12c-4.49-1.17-8.25-4.58-9.64-9.35-1.74-6.02-5.46-10.49-10.07-13.37l-.62-.36c-4.38-2.58-9.63-3.89-14.93-3.89-5.29 0-10.5 1.29-14.79 3.84-4.73 2.82-8.56 7.37-10.33 13.58-1.34 4.54-4.98 8.28-9.89 9.46-26.93 6.56-50.97 21.18-69.53 40.94-18.62 19.82-31.71 44.85-36.66 72.17-3.33 18.46-2.9 41.7-2.53 63.07l.3 19.8c0 31.56-5.51 58.12-17.72 81.51C72.69 354 55.01 373.03 30.3 390.32l429.55.02c-18.55-12.92-33.13-26.88-44.18-42.53 9.55-2.02 18.8-4.9 27.64-8.57 9.21 11.19 20.98 21.46 35.51 31.18 5.63 3.76 9.06 9 10.54 14.56 1.25 4.67 1.09 9.64-.3 14.21-1.39 4.6-4.02 8.83-7.63 12l-1.15.91c-4.2 3.29-9.56 5.34-15.73 5.37l-136.31.03-.1.36c-16.52 96.56-150.1 96.3-166.18-.33l-136.25.03c-7.13 0-13.11-2.71-17.57-6.91-3.5-3.28-5.95-7.5-7.19-11.98-1.23-4.45-1.29-9.28-.04-13.86 1.63-5.92 5.37-11.38 11.47-15.06 22.31-15.21 37.99-31.63 47.94-50.7 10.02-19.19 14.55-41.69 14.55-68.95l-.2-19.38c-.39-22.64-.85-47.25 2.95-68.29 5.9-32.62 21.46-62.42 43.59-85.98 20.42-21.74 46.51-38.25 75.83-46.8 4.42-9.61 11.43-16.9 19.76-21.87C225.49 2.59 235.59 0 245.53 0c9.97 0 20.06 2.59 28.77 7.73l.8.51c8.14 5 14.99 12.22 19.36 21.66zm144.97 154.62v18.36c0 4.3-3.62 7.91-7.93 7.91H400v31.53c0 4.3-3.61 7.91-7.92 7.91h-18.36c-4.3 0-7.91-3.56-7.91-7.91v-31.53h-31.54c-4.3 0-7.91-3.55-7.91-7.91v-18.36c0-4.35 3.56-7.91 7.91-7.91h31.54v-31.52c0-4.36 3.55-7.91 7.91-7.91h18.36c4.36 0 7.92 3.61 7.92 7.91v31.52h31.5c4.35 0 7.93 3.65 7.93 7.91zM382.89 64.59c35.63 0 67.94 14.46 91.29 37.82C497.53 125.76 512 158.04 512 193.7c0 35.63-14.47 67.93-37.82 91.29-23.35 23.35-55.66 37.81-91.29 37.81-35.63 0-67.93-14.46-91.29-37.81l-.58-.63c-23.01-23.33-37.24-55.35-37.24-90.66 0-35.63 14.47-67.94 37.82-91.29 23.36-23.36 55.66-37.82 91.29-37.82zm75.65 53.46c-19.34-19.34-46.1-31.33-75.65-31.33-29.54 0-56.31 11.99-75.65 31.33-19.34 19.33-31.33 46.1-31.33 75.65 0 29.29 11.77 55.84 30.82 75.17l.51.48c19.34 19.34 46.11 31.33 75.65 31.33 29.55 0 56.31-11.99 75.65-31.33 19.34-19.34 31.33-46.11 31.33-75.65 0-29.55-11.99-56.32-31.33-75.65z"/></svg>