<?xml version="1.0" encoding="utf-8"?><svg version="1.1" id="Layer_1" xmlns="http://www.w3.org/2000/svg" xmlns:xlink="http://www.w3.org/1999/xlink" x="0px" y="0px" viewBox="0 0 122.881 122.721" enable-background="new 0 0 122.881 122.721" xml:space="preserve"><g><path fill-rule="evenodd" clip-rule="evenodd" d="M13.86,39.26l62.271,71.701l35-35L39.51,13.61L13.86,39.26L13.86,39.26 L13.86,39.26z M14.62,29.79L0,11.52L11.52,0l18.43,14.46L14.62,29.79L14.62,29.79L14.62,29.79z M86.351,122.721l36.53-36.529 l-6.18-5.381l-35.73,35.721L86.351,122.721L86.351,122.721z"/><path fill="#FFFFFF" d="M45.195,43.365l5.982,5.982L43.7,56.824c-2.181-1.068-4.243-2.574-6.192-4.523 c-2.136-2.136-3.169-4.405-3.094-6.809c0.074-2.405,1.258-4.756,3.554-7.051c2.24-2.24,4.619-3.343,7.141-3.314 c2.524,0.032,4.934,1.198,7.235,3.499c0.87,0.871,1.615,1.776,2.223,2.716c0.609,0.938,1.075,1.818,1.399,2.647l-4.124,1.754 c-0.503-1.492-1.354-2.834-2.548-4.03c-1.094-1.094-2.295-1.583-3.603-1.466c-1.308,0.11-2.622,0.828-3.946,2.152 c-1.294,1.294-2.013,2.551-2.152,3.771c-0.14,1.222,0.301,2.341,1.317,3.357c0.558,0.558,1.123,1.014,1.697,1.373l2.168-2.169 l-2.473-2.474L45.195,43.365L45.195,43.365z M48.874,63.279l-3.71-3.71l14.76-14.76l3.711,3.71L48.874,63.279L48.874,63.279z M58.592,72.996l0.87-1.797l-0.219-0.219c-0.803,0.188-1.612,0.129-2.428-0.162c-0.815-0.293-1.595-0.807-2.343-1.555 c-1.182-1.182-1.758-2.443-1.732-3.791c0.03-1.342,0.67-2.637,1.922-3.89l6.998-6.998l3.707,3.707l-5.869,5.869 c-0.702,0.701-1.133,1.332-1.292,1.893c-0.161,0.557-0.016,1.064,0.441,1.521c0.638,0.639,1.346,0.842,2.119,0.611 c0.774-0.229,1.758-0.941,2.953-2.137l4.702-4.702l3.707,3.706l-10.74,10.74L58.592,72.996L58.592,72.996z M68.439,83.232 c-1.79-1.791-2.703-3.654-2.742-5.596c-0.036-1.941,0.825-3.791,2.583-5.549c1.815-1.816,3.664-2.752,5.555-2.803 c1.887-0.055,3.681,0.766,5.38,2.465c1.618,1.619,2.447,3.289,2.485,5.018c0.035,1.727-0.741,3.383-2.327,4.969l-1.651,1.65 l-6.625-6.625c-0.574,0.625-0.825,1.316-0.751,2.07c0.07,0.752,0.466,1.49,1.178,2.201c0.65,0.652,1.311,1.189,1.98,1.613 c0.671,0.424,1.473,0.807,2.408,1.146l-2.67,2.67c-0.873-0.285-1.684-0.682-2.415-1.186S69.297,84.09,68.439,83.232L68.439,83.232z M76.822,74.408c-0.434-0.434-0.939-0.66-1.509-0.68c-0.568-0.02-1.172,0.238-1.81,0.779l3.183,3.184 c0.505-0.531,0.773-1.092,0.803-1.684S77.298,74.885,76.822,74.408L76.822,74.408z"/></g></svg>