<?xml version="1.0" encoding="utf-8"?><svg version="1.1" id="Layer_1" xmlns="http://www.w3.org/2000/svg" xmlns:xlink="http://www.w3.org/1999/xlink" x="0px" y="0px" viewBox="0 0 122.88 81.77" style="enable-background:new 0 0 122.88 81.77" xml:space="preserve"><g><path d="M122.28,66.44h-5.36c-0.17-0.89-0.43-1.52-0.78-1.87c-0.57-0.57-1.55-0.87-2.9-0.87c-1.33,0-2.25,0.22-2.77,0.67 c-0.39,0.33-0.59,0.79-0.59,1.37c0,0.81,1.13,1.46,3.37,1.96c2.55,0.55,4.38,1.04,5.51,1.42c0.3,0.11,0.55,0.2,0.74,0.3 c2.14,1.01,3.26,2.51,3.39,4.5v0.86c-0.13,2.42-1.23,4.21-3.3,5.35c-0.28,0.15-0.54,0.28-0.83,0.41c-1.42,0.61-3.09,0.92-4.95,0.92 c-2.79,0-5.05-0.5-6.77-1.48c-1.08-0.63-1.89-1.42-2.43-2.37c-0.54-0.95-0.81-2.06-0.81-3.34h5.62c0,0.96,0.35,1.72,1.04,2.24 c0.69,0.54,1.85,0.82,3.49,0.82c1.24,0,2.16-0.26,2.77-0.78c0.48-0.41,0.7-0.85,0.7-1.37c0-0.87-1.11-1.55-3.31-2.03 c-3.29-0.7-5.36-1.28-6.21-1.68c-2.25-1.05-3.36-2.68-3.36-4.94c0-1.81,0.57-3.35,1.76-4.6c1.48-1.57,3.7-2.35,6.64-2.35 c2.42,0,4.36,0.35,5.82,1.04c0.13,0.05,0.24,0.11,0.35,0.19c1.05,0.57,1.85,1.33,2.38,2.28C122.01,64,122.28,65.13,122.28,66.44 L122.28,66.44z"/><path d="M119.86,52.79c0.11,0.15,0.17,0.31,0.17,0.5c0,0.26-0.09,0.48-0.28,0.67c-0.18,0.19-0.42,0.3-0.72,0.32 c0.13,0.05,0.22,0.11,0.29,0.18l0.52,0.69l0.41,0.68h-0.67l-0.31-0.55c-0.2-0.35-0.37-0.61-0.52-0.74 c-0.02-0.02-0.04-0.04-0.07-0.06l-0.44-0.13h-0.33v1.48h-0.56v-3.48h1.2c0.08,0,0.15,0.02,0.2,0.02c0.3,0,0.52,0.04,0.67,0.09 C119.6,52.51,119.75,52.62,119.86,52.79L119.86,52.79z M119.42,53.35c0-0.11-0.02-0.2-0.07-0.28c-0.05-0.09-0.13-0.15-0.24-0.18 c-0.07-0.02-0.19-0.04-0.35-0.06h-0.85v1.04h0.68c0.05,0,0.13,0,0.17,0c0.24-0.02,0.41-0.06,0.5-0.15 C119.36,53.62,119.42,53.49,119.42,53.35L119.42,53.35z"/><path d="M121.97,54.05c0,0.54-0.13,1.07-0.43,1.59c-0.28,0.52-0.67,0.91-1.18,1.18c-0.52,0.3-1.04,0.43-1.59,0.43 c-0.02,0-0.02,0-0.02,0c-0.55,0-1.07-0.13-1.59-0.43c-0.52-0.28-0.91-0.67-1.18-1.18c-0.3-0.52-0.42-1.05-0.42-1.59 c0-0.57,0.13-1.11,0.42-1.63c0.3-0.52,0.69-0.9,1.2-1.18c0.52-0.28,1.04-0.41,1.57-0.42c0,0,0,0,0.02,0c0.54,0,1.06,0.15,1.57,0.42 c0.52,0.28,0.93,0.67,1.2,1.18C121.84,52.94,121.97,53.48,121.97,54.05L121.97,54.05z M121.43,54.05c0-0.48-0.11-0.92-0.35-1.35 c-0.24-0.43-0.57-0.76-1-1c-0.42-0.22-0.87-0.35-1.31-0.35c-0.02,0-0.02,0-0.02,0c-0.44,0-0.89,0.13-1.31,0.35 c-0.43,0.24-0.76,0.57-1,1c-0.24,0.43-0.37,0.87-0.37,1.35c0,0.46,0.13,0.9,0.37,1.33c0.22,0.41,0.56,0.74,0.98,0.98 c0.43,0.24,0.87,0.35,1.33,0.35c0,0,0,0,0.02,0c0.46,0,0.91-0.11,1.33-0.35c0.42-0.24,0.76-0.57,0.98-0.98 C121.32,54.95,121.43,54.51,121.43,54.05L121.43,54.05z"/><polygon points="90.51,27.92 105.7,53.22 81.31,53.22 66.81,29.05 55.83,10.76 66.81,4.16 73.72,0 90.51,27.92"/><path d="M96.49,71.93v-2.29c-0.54-2.77-3-4.88-5.92-4.88c-0.02,0-0.04,0-0.06,0c-3.31,0.02-5.99,2.72-5.99,6.03 c0,3.31,2.68,6.01,5.99,6.05c0.02,0,0.04,0,0.06,0C93.49,76.83,95.95,74.7,96.49,71.93L96.49,71.93z M101.54,70.78v10.37h-5.05 v-1.15c-1.7,1.11-3.74,1.76-5.92,1.76c-0.02,0-0.04,0-0.06,0c-6.03-0.04-10.93-4.96-10.93-10.99s4.9-10.95,10.93-10.98 c0.02,0,0.04,0,0.06,0c2.18,0,4.22,0.65,5.92,1.76v-1.2h5.05V70.78L101.54,70.78z"/><path d="M72.78,71.93v-2.29c-0.54-2.77-3-4.88-5.92-4.88c-0.02,0-0.04,0-0.05,0c-3.31,0.02-5.99,2.72-5.99,6.03 c0,3.31,2.68,6.01,5.99,6.05c0.02,0,0.04,0,0.05,0C69.78,76.83,72.25,74.7,72.78,71.93L72.78,71.93z M77.83,70.78v10.37h-5.05 v-1.15c-1.72,1.11-3.74,1.76-5.92,1.76c-0.02,0-0.04,0-0.05,0c-6.03-0.04-10.93-4.96-10.93-10.99s4.9-10.95,10.93-10.98 c0.02,0,0.04,0,0.05,0c2.18,0,4.2,0.65,5.92,1.76v-8.34h5.05V70.78L77.83,70.78z"/><polygon points="66.81,43.27 72.76,53.22 48.39,53.22 34.86,30.7 34.27,29.71 34.86,29.36 52.18,18.93 66.81,43.27"/><polygon points="48.41,81.16 53.9,81.16 53.9,59.8 48.41,59.8 48.41,81.16"/><polygon points="48.41,58.15 53.9,58.15 53.9,53.33 48.41,53.33 48.41,58.15"/><path d="M40.85,71.93v-2.29c-0.54-2.77-3-4.88-5.94-4.88c-0.02,0-0.04,0-0.06,0c-3.31,0.02-5.99,2.72-5.99,6.03 c0,3.31,2.68,6.01,5.99,6.05c0.02,0,0.04,0,0.06,0C37.85,76.83,40.31,74.7,40.85,71.93L40.85,71.93z M45.89,70.78v10.37h-5.05 v-1.15c-1.72,1.11-3.75,1.76-5.94,1.76c-0.02,0-0.04,0-0.06,0c-6.03-0.04-10.93-4.96-10.93-10.99s4.9-10.95,10.93-10.98 c0.02,0,0.04,0,0.06,0c2.18,0,4.22,0.65,5.94,1.76v-8.34h5.05V70.78L45.89,70.78z"/><polygon points="34.86,44.9 39.85,53.22 15.46,53.22 12.72,48.65 30.64,37.89 34.86,44.9"/><path d="M16.9,71.93v-2.29c-0.54-2.77-3-4.88-5.94-4.88c-0.02,0-0.04,0-0.06,0c-3.29,0.02-5.97,2.72-5.97,6.03 c0,3.31,2.68,6.01,5.97,6.05c0.02,0,0.04,0,0.06,0C13.91,76.83,16.37,74.7,16.9,71.93L16.9,71.93z M21.95,70.78v10.37H16.9v-1.15 c-1.72,1.11-3.76,1.76-5.94,1.76c-0.02,0-0.04,0-0.06,0C4.9,81.73,0,76.81,0,70.78S4.9,59.84,10.91,59.8c0.02,0,0.04,0,0.06,0 c2.18,0,4.21,0.65,5.94,1.76v-1.2h5.05V70.78L21.95,70.78z"/></g></svg>