<?xml version="1.0" encoding="utf-8"?><svg version="1.1" id="Layer_1" xmlns="http://www.w3.org/2000/svg" xmlns:xlink="http://www.w3.org/1999/xlink" x="0px" y="0px" viewBox="0 0 122.88 122.88" style="enable-background:new 0 0 122.88 122.88" xml:space="preserve"><style type="text/css"><![CDATA[
	.st0{fill:#EA4335;}
	.st1{fill:#FBBC04;}
	.st2{fill:#4285F4;}
]]></style><g><path class="st1" d="M58.64,0.2C60.41,0.05,62.13,0,63.9,0c32,1.18,57.71,26.84,58.98,58.83l0,48.31 c-0.05,8.75-7.18,15.78-15.88,15.73c-7.96-1.23-14.06-7.72-14.79-15.73V58.83c-1.33-16.86-16.07-29.49-32.93-28.16 c-0.2,0-0.39,0.05-0.59,0.05L58.64,0.2L58.64,0.2z M58.64,0.2L58.64,0.2L58.64,0.2L58.64,0.2z"/><path class="st2" d="M122.88,107.49c0,8.45-6.88,15.33-15.34,15.33c-8.45,0-15.33-6.88-15.33-15.33c0-8.45,6.88-15.33,15.33-15.33 C116,92.16,122.88,99.04,122.88,107.49L122.88,107.49z"/><path class="st0" d="M59.52,122.34c8.7,0.1,15.83-6.83,15.93-15.53c0-0.05,0-0.05,0-0.1c-0.25-8.45-7.32-15.14-15.78-14.89 c-0.1,0-0.25,0-0.34,0c-16.76-1.28-29.39-15.83-28.21-32.64v-0.25c1.23-15.14,13.27-27.08,28.41-28.21 c8.45,0.34,15.58-6.24,15.93-14.7c0-0.1,0-0.15,0-0.25c-0.1-8.7-7.22-15.73-15.93-15.63l0,0l-1.08,0C25.85,1.67,0.2,28.41,0,61.05 v0.25c0,38.29,33.57,61.1,58.59,61.1h0.93V122.34L59.52,122.34z"/></g></svg>