<?xml version="1.0" encoding="utf-8"?><svg version="1.1" id="Layer_1" xmlns="http://www.w3.org/2000/svg" xmlns:xlink="http://www.w3.org/1999/xlink" x="0px" y="0px" viewBox="0 0 122.88 119.81" style="enable-background:new 0 0 122.88 119.81" xml:space="preserve"><style type="text/css">.st0{fill:#00005B;} .st1{fill:#9999FF;}</style><g><path class="st0" d="M21.76,0h79.36c12.03,0,21.76,9.73,21.76,21.76v76.29c0,12.03-9.73,21.76-21.76,21.76H21.76 C9.73,119.81,0,110.08,0,98.05V21.76C0,9.73,9.73,0,21.76,0L21.76,0z"/><path class="st1" d="M31.08,84.69h-9.83c-0.46,0-0.67-0.26-0.67-0.72l0-52.48c0-0.51,0.15-0.72,0.51-0.72 c1.95-0.05,3.58-0.1,4.97-0.1l3.94-0.1c1.28-0.05,2.56-0.05,3.94-0.05l4.45,0c4.61,0,8.5,0.67,11.62,1.95 c2.92,1.13,5.43,3.07,7.22,5.63c1.69,2.41,2.51,5.43,2.51,9.01c0,2.1-0.41,4.2-1.33,6.14c-0.87,1.84-2.1,3.53-3.64,4.92 c-1.59,1.43-3.38,2.56-5.38,3.33c0.56,0.72,1.33,1.79,2.3,3.28c0.97,1.48,2.1,3.07,3.28,4.86c1.18,1.79,2.36,3.58,3.53,5.43 c1.18,1.79,2.25,3.48,3.23,5.02c0.97,1.54,1.69,2.76,2.2,3.64c0.15,0.2,0.26,0.41,0.2,0.67c0,0.2-0.15,0.36-0.36,0.31 c0,0,0,0-0.05,0l-11.93,0c-0.26,0-0.51-0.05-0.72-0.1c-0.15-0.1-0.31-0.2-0.41-0.36c-0.61-0.87-1.38-2.05-2.25-3.48 s-1.84-3.02-2.87-4.76c-1.02-1.74-2.05-3.48-3.07-5.17c-1.02-1.69-1.89-3.23-2.66-4.61c-0.26-0.41-0.56-0.77-0.92-1.08 c-0.31-0.2-0.67-0.31-1.02-0.31l-6.14,0v19.2C31.74,84.43,31.49,84.69,31.08,84.69L31.08,84.69z M31.74,54.99h6.45 c1.84,0.05,3.64-0.2,5.43-0.77c1.38-0.41,2.61-1.28,3.48-2.46c0.87-1.18,1.28-2.61,1.23-4.1c0-2.51-0.92-4.35-2.82-5.48 c-1.89-1.13-4.35-1.69-7.42-1.69c-1.33,0-2.56,0-3.69,0.05c-1.13,0.05-2.05,0.05-2.66,0.1L31.74,54.99L31.74,54.99z"/><path class="st1" d="M103.22,44.29v31.23c0,1.38,0,2.61,0.05,3.69c0.05,1.08,0.1,2,0.15,2.82c0.05,0.82,0.15,1.49,0.2,2 c0.05,0.46-0.15,0.67-0.56,0.67l-8.86,0c-0.41,0.05-0.82-0.2-0.97-0.56c-0.1-0.41-0.2-0.82-0.31-1.28c-0.1-0.41-0.1-0.87-0.1-1.28 c-1.64,1.48-3.64,2.56-5.79,3.17c-1.84,0.51-3.79,0.77-5.68,0.77c-1.89,0-3.79-0.26-5.58-0.87c-1.64-0.56-3.17-1.54-4.35-2.82 c-1.33-1.43-2.3-3.12-2.87-4.97c-0.72-2.36-1.08-4.81-1.02-7.27l0-25.19c-0.05-0.31,0.15-0.61,0.51-0.67c0.05,0,0.1,0,0.15,0h10.14 c0.31-0.05,0.61,0.15,0.67,0.51c0,0.05,0,0.1,0,0.15V68.3c0,2.25,0.51,4.04,1.49,5.33c0.97,1.28,2.66,1.95,4.97,1.95 c1.18,0,2.36-0.2,3.48-0.61c1.02-0.41,2-0.97,2.87-1.69l0-28.98c0-0.41,0.26-0.56,0.72-0.56l10.14,0c0.26-0.05,0.56,0.15,0.56,0.41 C103.22,44.19,103.22,44.24,103.22,44.29L103.22,44.29z"/></g></svg>