<svg xmlns="http://www.w3.org/2000/svg" viewBox="0 0 511.45 498.66"><defs><style>.a{fill:#001e36;}.b{fill:#31a8ff;}</style></defs><title>adobe-fresco</title><rect class="a" width="511.45" height="498.66" rx="90.57"/><path class="b" d="M180.42,265.63v84.06a2.43,2.43,0,0,1-2.06,2.75,2.66,2.66,0,0,1-.69,0h-42.2a2.21,2.21,0,0,1-1.88-.69,4.11,4.11,0,0,1-.52-2.4V130.11q0-4.8,2.4-4.8H271.34a4.11,4.11,0,0,1,2.4.51c.46.35.8,1.89,1,4.63l3.77,37.4a1.75,1.75,0,0,1-.51,1.89,3,3,0,0,1-2.23.86H180.42v52.15h85.77q3.09,0,3.09,2.4v37.74a2.42,2.42,0,0,1-2.06,2.74,2,2,0,0,1-.69,0Z"/><path class="b" d="M299.47,181.92h37.4a4.67,4.67,0,0,1,4.46,3.43,16.41,16.41,0,0,1,1.72,4.8,56,56,0,0,1,1,6.69c.22,2.4.34,5,.34,7.72a80,80,0,0,1,22.81-18.35A64.13,64.13,0,0,1,399,178.49a2.72,2.72,0,0,1,3.09,2.31,2.55,2.55,0,0,1,0,.78v41.51c0,1.6-1.15,2.4-3.43,2.4a86.71,86.71,0,0,0-40.32,7.21,36.31,36.31,0,0,0-11.49,7.89V349.35c0,2.06-.91,3.09-2.74,3.09H302.56a3,3,0,0,1-3.43-2.57,3.1,3.1,0,0,1,0-.86V231q0-7.54-.17-15.95t-.52-16.64a108.62,108.62,0,0,0-1.37-14.07,2,2,0,0,1,1.42-2.4,1.81,1.81,0,0,1,1,0Z"/></svg>