<svg xmlns="http://www.w3.org/2000/svg" viewBox="0 0 484.78 472.66"><defs><style>.a{fill:#1e3101;}.b{fill:#99e83f;}</style></defs><title>adobe-aero</title><rect class="a" width="484.78" height="472.66" rx="85.85"/><path class="b" d="M218.17,282.79H143l-15.28,47.57a3.83,3.83,0,0,1-3.9,2.93h-38c-2.17,0-2.93-1.2-2.28-3.58l65-186.55c.65-1.95,1.3-3.85,2-6.35a69.36,69.36,0,0,0,1.31-13.17,2,2,0,0,1,1.7-2.28,2.71,2.71,0,0,1,.57,0h51.71c1.51,0,2.38.55,2.6,1.63l73.82,207q1,3.25-2,3.26H238a3,3,0,0,1-3.25-2.28Zm-63.42-40.11h51.38q-1.95-6.51-4.55-14.64t-5.53-17.4l-5.85-18.53q-2.92-9.27-5.37-17.89t-4.39-15.77h-.32a262.6,262.6,0,0,1-6.83,26q-4.56,14.63-9.27,29.91t-9.27,28.3Z"/><path class="b" d="M303.7,171.69h35.44a4.43,4.43,0,0,1,4.23,3.26,22.07,22.07,0,0,1,1.63,5.29,52.18,52.18,0,0,1,1,6.34c.22,2.28.32,4.71.33,7.32a76,76,0,0,1,21.62-17.4,56.48,56.48,0,0,1,28.93-7.32,2.6,2.6,0,0,1,2.93,2.2,3,3,0,0,1,0,.73v39.35c0,1.52-1.09,2.27-3.26,2.27a71.7,71.7,0,0,0-20.14,1.47,79.59,79.59,0,0,0-16.91,5.36c-4.67,2.17-9.61,4.67-12.21,7.48V330.36c0,1.95-.87,2.93-2.6,2.93h-38a2.88,2.88,0,0,1-3.25-2.44,2.82,2.82,0,0,1,0-.82V218.94q0-7.16-.16-15.12T302.72,188a116.42,116.42,0,0,0-1.3-14.07,1.87,1.87,0,0,1,2.28-2.28Z"/></svg>