<svg xmlns="http://www.w3.org/2000/svg" viewBox="0 0 511.45 498.66"><defs><style>.a{fill:#00005b;}.b{fill:#99f;}</style></defs><title>adobe-character-animator</title><rect class="a" width="511.45" height="498.66" rx="90.57"/><path class="b" d="M244.71,309.55v35.34a4.51,4.51,0,0,1-2.74,4.8,86.54,86.54,0,0,1-20.21,4.63,220.37,220.37,0,0,1-26.93,1.55,151.89,151.89,0,0,1-37.91-4.63,111.93,111.93,0,0,1-32.77-14.07A99.89,99.89,0,0,1,98.76,314,102.92,102.92,0,0,1,82.29,282.1a134.77,134.77,0,0,1-5.83-41.17q0-34.65,15.1-60.9a104.13,104.13,0,0,1,42.88-40.83,140.82,140.82,0,0,1,66.22-15.42,216.77,216.77,0,0,1,26.59,1.37,79.5,79.5,0,0,1,18,4.12,4.4,4.4,0,0,1,1.72,4.11V172c0,2.06-.81,2.74-2.4,2.06a75.82,75.82,0,0,0-20.49-6.25,156.68,156.68,0,0,0-25-1.89,78.35,78.35,0,0,0-39.22,9.51A64.17,64.17,0,0,0,134.44,201a79.29,79.29,0,0,0-8.92,38.6,83.48,83.48,0,0,0,4.29,28.13,66.76,66.76,0,0,0,11.84,20.93,58.68,58.68,0,0,0,17.15,14.07,84.87,84.87,0,0,0,20.42,7.72,92.85,92.85,0,0,0,21.1,3.21q11.6.06,23.16-1A79.81,79.81,0,0,0,242,307.83c.91-.68,1.6-.85,2.06-.51A2.71,2.71,0,0,1,244.71,309.55Z"/><path class="b" d="M323.49,228.58V348.87c0,1.84-.8,2.75-2.4,2.75H278.28a2.73,2.73,0,0,1-3.09-2.32,2.49,2.49,0,0,1,0-.77V111.58c0-1.59.91-2.4,2.74-2.4h43.16a2.13,2.13,0,0,1,2.4,1.81,1.94,1.94,0,0,1,0,.59l.25,81a98.22,98.22,0,0,1,19.82-10.12c7.21-2.62,15.61-3.25,25.22-3.25a68.63,68.63,0,0,1,20.07,3.09,47.75,47.75,0,0,1,18.7,10.11c5.71,5.15,9.72,12.13,13.15,20.93s5.15,20.19,5.15,34.14V348.53c0,2.06-.91,3.09-2.74,3.09H382.93a3,3,0,0,1-3.43-2.57,3.1,3.1,0,0,1,0-.86V252.25a42.91,42.91,0,0,0-3.26-18,25.6,25.6,0,0,0-8.92-10.81,29.28,29.28,0,0,0-15.7-3.77,50.79,50.79,0,0,0-15.09,2.23A41.48,41.48,0,0,0,323.49,228.58Z"/></svg>