<svg xmlns="http://www.w3.org/2000/svg" viewBox="0 0 511.45 498.66"><defs><style>.a{fill:#470137;}.b{fill:#ff61f6;}</style></defs><title>adobe-dreamweaver</title><path class="a" d="M90.57,0H420.88a90.49,90.49,0,0,1,90.57,90.57V408.09a90.49,90.49,0,0,1-90.57,90.57H90.57A90.49,90.49,0,0,1,0,408.09V90.57A90.49,90.49,0,0,1,90.57,0Z"/><path class="b" d="M48.59,349.06V130.85a2.57,2.57,0,0,1,2.13-2.78h.21c3.2-.21,8.1-.42,14.28-.42,6.39-.21,13.64-.21,22.16-.43s17.48-.21,27.07-.21c26,0,47.73,4.69,64.78,14.06a93.49,93.49,0,0,1,38.57,38.58c8.53,16.4,12.79,35.16,12.79,56.47A131.73,131.73,0,0,1,224,279.8a103.72,103.72,0,0,1-18.33,32.82,111.23,111.23,0,0,1-26.21,22.8,116.69,116.69,0,0,1-31.32,13.43,130.87,130.87,0,0,1-32.82,4.26H91.21c-8.53,0-16.62,0-23.87-.21-7.46-.21-13-.21-16.62-.43C49.23,352.47,48.59,351.19,48.59,349.06Zm45-179.86V311.34a64.18,64.18,0,0,1,6.61.22c1.92.21,4,.21,6,.42,2.13.22,4.47.22,7,.22a79.81,79.81,0,0,0,29-4.91,57.21,57.21,0,0,0,22.38-14.49,65.75,65.75,0,0,0,14.27-23.65,101.4,101.4,0,0,0,5.12-32,84.7,84.7,0,0,0-4.9-30,55.6,55.6,0,0,0-36.44-34.53,90,90,0,0,0-28.13-4.05c-4.27,0-7.89,0-10.87.22-3,0-6.4.21-10,.42Z"/><path class="b" d="M421.52,352.47H381.67a2.91,2.91,0,0,1-2.56-.85,7.08,7.08,0,0,1-1.28-2.56c-4.05-17.05-7.46-32.39-10.23-45.39-2.77-13.21-5.11-24.29-6.82-33.46s-3.19-16.83-4.47-23.22c-1.07-6.4-2.13-11.72-2.77-16.2h-.22c-2.13,9.38-4,18.54-6,27.28-1.71,8.73-3.84,17.69-6,26.64s-4.47,18.75-7.24,29.4c-2.56,10.66-5.55,22.38-8.74,34.95-.43,2.35-1.49,3.41-3.41,3.41H282.15a4.71,4.71,0,0,1-3-.64,9.16,9.16,0,0,1-1.49-2.34L236.12,184.76c-.64-1.92.21-2.77,2.56-2.77H279c1.92,0,3,.64,3.2,2.13,4.26,18.75,7.88,34.95,10.65,48.59s5.12,25.14,6.61,34.73,3,17.48,4,23.45S305.38,302,306,305.8h.64c.42-3.41.85-6.6,1.49-10q1.28-6.07,3.19-16c1.28-6.6,2.77-14.27,4.69-23.22s4.05-19.18,6.61-31.12c2.34-11.72,5.75-25.14,9.8-40.27a7,7,0,0,1,.85-2.77c.22-.43,1.07-.64,2.35-.64h41.77c1.27,0,1.91.85,2.13,2.34,3.62,15.56,6.6,29.2,9.16,40.92q3.51,17.58,6.39,31.32c1.71,8.95,3.2,16.84,4.05,23.23.85,6.61,1.92,11.93,2.77,16.41a94.27,94.27,0,0,1,1.49,10.87H404c1.07-4.26,1.92-9.38,2.77-15.13s1.92-12.15,3.41-19.39c1.28-7.25,2.77-15.13,4.48-23.87,1.49-8.74,3.62-18.33,6-29.2,2.34-10.65,4.9-22.37,7.88-34.95.43-1.91,1.28-2.77,2.77-2.77h37.29c1.92,0,2.56,1.07,2.13,3l-46,164.3a5.12,5.12,0,0,1-1.27,2.34C423.44,352.26,422.58,352.69,421.52,352.47Z"/></svg>