<?xml version="1.0" encoding="utf-8"?><svg version="1.1" id="Layer_1" xmlns="http://www.w3.org/2000/svg" xmlns:xlink="http://www.w3.org/1999/xlink" x="0px" y="0px" viewBox="0 0 111.62 122.88" style="enable-background:new 0 0 111.62 122.88" xml:space="preserve"><g><path d="M10.47,0.39c1.41,0,2.76,0.28,4,0.8c1.28,0.53,2.43,1.31,3.4,2.28c0.97,0.96,1.75,2.12,2.28,3.4c0.51,1.23,0.8,2.59,0.8,4 v50.29c0.86,0.01,1.94,0.04,3,0.07c1.08,0.04,2.13,0.08,2.93,0.14c2.97,0.2,6.05,0.52,8.89,0.86c3.92,0.48,7.4,1.01,9.47,1.35 c0.36-0.55,0.72-1.09,1.09-1.63c0.34-0.5,0.68-0.99,1.02-1.47c-0.57-0.34-1.11-0.69-1.64-1.05c-0.59-0.4-1.17-0.81-1.74-1.25 c-0.57,0.28-1.18,0.5-1.82,0.66c-0.73,0.19-1.51,0.31-2.34,0.36c-0.95,0.15-1.86,0.16-2.72,0.04c-0.88-0.12-1.72-0.38-2.52-0.76 c-0.78-0.37-1.5-0.86-2.18-1.45c-0.67-0.59-1.29-1.28-1.87-2.06c-1.88-2.55-3.38-5.84-4.47-9.49c-1.12-3.78-1.78-7.96-1.94-12.13 c-0.15-4.05,0.17-8.11,1.02-11.82c0.8-3.47,2.06-6.63,3.83-9.18c1.43-2.06,3.08-3.87,4.9-5.42c1.89-1.61,3.96-2.94,6.15-3.98 c2.26-1.08,4.63-1.86,7.07-2.34c2.47-0.49,5.01-0.68,7.56-0.57c2.19,0.1,4.5,0.45,6.82,1.05c2.29,0.59,4.58,1.4,6.77,2.43 c2.11,0.99,4.13,2.19,5.98,3.56c1.75,1.31,3.35,2.79,4.71,4.43c0.39,0.47,0.76,0.95,1.1,1.42c0.34,0.48,0.66,0.97,0.95,1.46 c0.69,1.17,1.25,2.38,1.65,3.6c0.36,1.1,0.6,2.22,0.69,3.33c5.73,3.15,10.6,7.3,14.59,12.14c4.31,5.22,7.6,11.24,9.88,17.67 c2.45,6.93,3.73,14.35,3.83,21.75c0.1,7.42-0.98,14.83-3.25,21.72c-1.38,4.2-3.22,8.31-5.54,12.03c-2.12,3.4-4.65,6.49-7.6,9.03 c-2.75,2.37-5.86,4.26-9.35,5.51c-3.23,1.15-6.79,1.75-10.68,1.64c-1.97-0.05-3.93-0.31-5.9-0.77c-1.96-0.46-3.94-1.12-5.93-1.98 c-1.96-0.85-3.92-1.89-5.88-3.11c-1.96-1.22-3.92-2.63-5.89-4.23c-0.06-0.05-0.11-0.09-0.16-0.14c-0.05-0.05-0.1-0.1-0.14-0.15 l-0.01-0.01c-0.85-0.98-1.61-2.05-2.29-3.2c-0.68-1.16-1.26-2.41-1.74-3.76c-0.23-0.64-0.44-1.31-0.62-2.02l-0.13-0.52 c-0.41,1.11-0.73,2.14-0.99,3.13c-0.28,1.05-0.49,2.06-0.64,3.07c-0.15,1.03-0.25,2.06-0.31,3.15c-0.06,1.08-0.08,2.25-0.08,3.53 v4.86c0,0.61-0.25,1.17-0.65,1.57c-0.4,0.4-0.96,0.65-1.57,0.65h-8.19c-0.61,0-1.17-0.25-1.57-0.65c-0.4-0.4-0.65-0.96-0.65-1.57 v-12.93c0-1.76,0.02-3.4,0.07-5.02c0.05-1.59,0.15-3.13,0.3-4.68c0.15-1.54,0.36-3.07,0.66-4.68c0.29-1.61,0.66-3.28,1.14-5.1 c0.52-1.98,1.12-3.96,1.81-5.93c0.62-1.75,1.3-3.51,2.06-5.26c-0.52-0.02-1.03-0.03-1.54-0.05c-0.77-0.02-1.53-0.03-2.29-0.04 l-0.05,0c-2.77-0.04-5.56-0.09-8.29-0.38l-0.36-0.04c-1.08-0.11-2.98-0.32-4.42-0.62v36.32c0,1.41-0.28,2.76-0.8,3.99 c-0.53,1.28-1.31,2.44-2.28,3.4c-0.97,0.97-2.12,1.75-3.4,2.28c-1.23,0.51-2.58,0.8-4,0.8s-2.76-0.28-4-0.8 c-1.28-0.53-2.44-1.31-3.4-2.28c-0.97-0.97-1.75-2.12-2.28-3.4c-0.51-1.23-0.8-2.58-0.8-4V10.86c0-1.41,0.28-2.76,0.8-4 c0.53-1.28,1.31-2.44,2.28-3.4C4.04,2.5,5.2,1.72,6.48,1.18C7.71,0.67,9.06,0.39,10.47,0.39L10.47,0.39z M56.52,25.57 c-0.27-0.55-0.29-1.16-0.11-1.69c0.18-0.54,0.57-1.01,1.12-1.28l0.01-0.01c0.55-0.26,1.15-0.29,1.68-0.11 c0.54,0.18,1.01,0.57,1.28,1.12l0,0.01c0.53,1.07,0.93,2.14,1.23,3.2c0.27,0.97,0.44,1.92,0.52,2.86c1.2,0.26,2.34,0.46,3.43,0.58 c1.19,0.14,2.31,0.19,3.35,0.16c1.15-0.04,2.2-0.18,3.16-0.42c0.94-0.24,1.8-0.59,2.56-1.04c0.28-0.16,0.54-0.33,0.78-0.5 c0.25-0.18,0.48-0.35,0.68-0.52c0.8-0.67,1.41-1.4,1.84-2.18c0.44-0.79,0.7-1.62,0.8-2.48c-0.07-0.23-0.11-0.47-0.1-0.71 c0.01-0.24,0.05-0.48,0.14-0.71c-0.05-0.81-0.22-1.65-0.5-2.49c-0.3-0.91-0.72-1.82-1.25-2.71c-0.24-0.4-0.49-0.8-0.77-1.18 c-0.28-0.39-0.57-0.77-0.87-1.13c-1.14-1.37-2.5-2.62-4-3.74c-1.59-1.18-3.34-2.21-5.18-3.07c-1.94-0.91-3.95-1.63-5.95-2.15 c-2.03-0.52-4.04-0.83-5.94-0.92c-2.18-0.1-4.37,0.06-6.49,0.48c-2.09,0.41-4.12,1.08-6.04,1.99c-1.85,0.88-3.6,2-5.19,3.36 c-1.53,1.3-2.92,2.83-4.13,4.57c-1.48,2.13-2.54,4.84-3.21,7.85c-0.73,3.25-1,6.86-0.86,10.48c0.14,3.76,0.73,7.51,1.71,10.88 c0.94,3.22,2.24,6.1,3.85,8.29c0.37,0.5,0.76,0.94,1.16,1.3c0.39,0.35,0.8,0.64,1.22,0.84c0.39,0.18,0.8,0.31,1.25,0.36 c0.45,0.06,0.93,0.04,1.45-0.05c0.14-0.02,0.23-0.03,0.37-0.03c0.63-0.03,1.22-0.14,1.75-0.31c0.52-0.17,1-0.41,1.44-0.71 l0.17-0.13c0.26-0.2,0.5-0.43,0.73-0.68c0.23-0.26,0.45-0.55,0.64-0.86c0.52-0.84,0.94-1.88,1.24-3.12 c0.28-1.13,0.46-2.41,0.56-3.84c-1.15-0.05-2.33-0.19-3.53-0.45c-1.32-0.28-2.67-0.7-4.04-1.27l-0.07-0.03 c-0.55-0.24-0.95-0.67-1.17-1.19c-0.21-0.51-0.23-1.11-0.01-1.66l0.03-0.07c0.24-0.55,0.67-0.95,1.19-1.17 c0.51-0.21,1.11-0.23,1.66-0.01l0.06,0.03c1.65,0.68,3.26,1.1,4.79,1.29c1.62,0.2,3.16,0.13,4.56-0.15 c1.09-0.22,2.11-0.58,3.03-1.05c0.93-0.48,1.76-1.08,2.48-1.77l0.09-0.09c0.71-0.71,1.29-1.51,1.74-2.39 c0.43-0.86,0.73-1.8,0.87-2.8l0.05-0.37l0.03-0.33c-0.01-0.09-0.01-0.19-0.01-0.3c0-0.1,0.01-0.21,0.03-0.3 c0.01-0.86-0.1-1.76-0.32-2.68C57.33,27.45,56.99,26.52,56.52,25.57L56.52,25.57z M61.94,34.14c-0.27,1.16-0.69,2.26-1.24,3.29 c-0.63,1.19-1.44,2.28-2.4,3.24l-0.11,0.1c-1.02,1-2.2,1.85-3.52,2.54c-1.26,0.65-2.65,1.15-4.13,1.46 c-0.1,1.96-0.34,3.73-0.72,5.29c-0.42,1.68-1,3.13-1.76,4.36c-0.14,0.23-0.29,0.45-0.43,0.65l-0.14,0.19 c0.7,0.5,1.42,0.97,2.15,1.42c0.89,0.54,1.81,1.04,2.76,1.51c1.03,0.5,2.11,0.97,3.24,1.4c0.96,0.37,1.96,0.7,2.99,1 c0.19-0.88,0.45-1.7,0.76-2.46c0.38-0.91,0.86-1.74,1.42-2.48c1.03-1.36,2.33-2.42,3.88-3.18c1.53-0.75,3.3-1.22,5.28-1.43l0.01,0 c0.61-0.06,1.18,0.13,1.62,0.49c0.44,0.36,0.74,0.88,0.81,1.49l0,0.01c0.06,0.61-0.13,1.18-0.49,1.62 c-0.36,0.44-0.88,0.74-1.49,0.81c-1.38,0.14-2.6,0.45-3.62,0.93c-1,0.47-1.82,1.11-2.45,1.94c-0.66,0.87-1.14,1.97-1.42,3.31 c-0.29,1.37-0.37,3-0.23,4.9l0.01,0.16v2.26c0,1.3,0.04,2.53,0.15,3.68c0.11,1.15,0.3,2.24,0.6,3.28l0.14,0.45l0.13,0.36 c0.04,0.05,0.08,0.1,0.12,0.16c0.06,0.08,0.11,0.17,0.16,0.27c0.07,0.14,0.13,0.29,0.16,0.44c0.03,0.12,0.05,0.23,0.06,0.35 c0.3,0.62,0.65,1.22,1.07,1.82c0.44,0.62,0.95,1.24,1.55,1.86c0.41,0.43,0.84,0.78,1.27,1.07c0.43,0.29,0.87,0.51,1.32,0.67 c0.45,0.16,0.92,0.27,1.4,0.31c0.49,0.05,0.99,0.04,1.52-0.02l0.02,0c0.6-0.06,1.17,0.12,1.61,0.48c0.44,0.35,0.75,0.88,0.82,1.49 l0,0.02c0.06,0.6-0.12,1.18-0.48,1.62c-0.35,0.44-0.88,0.75-1.49,0.82c-0.85,0.09-1.68,0.1-2.49,0.02 c-0.82-0.09-1.62-0.26-2.39-0.54c-0.77-0.27-1.52-0.65-2.24-1.12c-0.72-0.47-1.4-1.04-2.05-1.71c-0.61-0.63-1.16-1.27-1.65-1.93 c-0.38-0.51-0.73-1.03-1.04-1.54c-1.34,0.79-2.57,1.64-3.68,2.55l-0.03,0.02c-1.21,0.99-2.29,2.07-3.22,3.22 c-0.92,1.14-1.69,2.37-2.31,3.69c-0.6,1.29-1.06,2.66-1.36,4.14c0.06,0.28,0.07,0.56,0.03,0.85c-0.04,0.27-0.13,0.52-0.27,0.76 c0.04,1.41,0.17,2.72,0.39,3.96c0.22,1.27,0.53,2.44,0.92,3.54c0.38,1.06,0.83,2.04,1.35,2.95c0.51,0.89,1.1,1.71,1.74,2.47 c1.79,1.44,3.56,2.71,5.32,3.81c1.77,1.11,3.52,2.04,5.26,2.79c1.72,0.75,3.44,1.32,5.15,1.72c1.7,0.4,3.39,0.62,5.06,0.67 c3.3,0.09,6.32-0.42,9.07-1.4c2.96-1.06,5.61-2.67,7.95-4.69c2.62-2.26,4.88-5.02,6.78-8.09c2.09-3.37,3.76-7.12,5.02-10.97 c2.12-6.44,3.13-13.36,3.03-20.29c-0.09-6.92-1.29-13.85-3.59-20.33c-2.02-5.7-4.89-11.03-8.61-15.7 c-3.38-4.23-7.46-7.91-12.24-10.79c-0.3,0.88-0.72,1.72-1.26,2.53c-0.63,0.95-1.44,1.85-2.43,2.67c-0.32,0.27-0.65,0.52-0.98,0.75 c-0.34,0.24-0.69,0.47-1.06,0.68c-1.1,0.65-2.31,1.15-3.62,1.49c-1.3,0.34-2.71,0.53-4.22,0.58c-1.17,0.04-2.4-0.01-3.68-0.15 C64.35,34.57,63.17,34.39,61.94,34.14L61.94,34.14z M59.21,77.15l-0.01-0.03c-0.38-1.29-0.61-2.61-0.75-3.97 c-0.14-1.36-0.19-2.76-0.19-4.2v-2.24c-0.02-0.33-0.04-0.67-0.05-1.02l-0.01-0.63c-1.23-0.34-2.43-0.72-3.59-1.15 c-1.14-0.42-2.24-0.87-3.31-1.36c-0.48,0.67-0.96,1.36-1.43,2.05c-0.55,0.8-1.06,1.58-1.55,2.34c-0.04,0.09-0.09,0.17-0.13,0.24 l-0.03,0.04c-0.04,0.07-0.09,0.13-0.13,0.18c-0.84,1.33-1.64,2.67-2.39,4.01c-0.76,1.36-1.47,2.69-2.11,4.01l-0.13,0.27 c-0.03,0.11-0.07,0.21-0.12,0.3c-0.04,0.09-0.1,0.18-0.16,0.27c-1.03,2.17-1.95,4.34-2.75,6.52c-0.8,2.19-1.49,4.38-2.06,6.56 c-0.44,1.7-0.79,3.26-1.06,4.76c-0.27,1.49-0.47,2.92-0.61,4.35c-0.14,1.42-0.22,2.85-0.27,4.37c-0.05,1.48-0.06,3.1-0.06,4.89 v10.7h3.75v-2.64c0-1.34,0.02-2.59,0.09-3.81c0.07-1.21,0.18-2.37,0.35-3.52c0.17-1.17,0.41-2.32,0.73-3.53 c0.32-1.2,0.72-2.45,1.21-3.78c0.28-0.76,0.58-1.47,0.89-2.15c0.31-0.68,0.64-1.32,0.98-1.92l0.02-0.03 c0.26-0.46,0.53-0.89,0.8-1.29c0.25-0.38,0.52-0.74,0.79-1.08c0.34-1.97,0.9-3.81,1.68-5.53c0.79-1.76,1.8-3.39,3.02-4.9 c1.15-1.43,2.48-2.75,3.98-3.97C55.99,79.15,57.53,78.11,59.21,77.15L59.21,77.15z M42.7,67.65c-2.13-0.33-5.01-0.74-8.16-1.11 c-2.57-0.3-5.31-0.58-7.95-0.75c-0.5-0.03-3.93-0.18-7.14-0.17c-1.78,0.01-3.5,0.06-4.61,0.2c-0.69,0.09-1.11,0.18-1.23,0.35 c-0.1,0.15,0.02,0.5,0.38,1.15c0.19,0.34,0.45,0.67,0.76,0.97c0.35,0.34,0.76,0.66,1.22,0.96c1.02,0.66,2.55,1.24,4.18,1.71 c2.18,0.63,4.51,1.05,6.05,1.21c1.31,0.14,2.63,0.22,3.94,0.27c1.34,0.05,2.66,0.07,3.97,0.09l0.06,0 c1.94,0.03,3.87,0.06,5.76,0.18c0.45-0.89,0.92-1.79,1.42-2.7C41.78,69.24,42.23,68.45,42.7,67.65L42.7,67.65z M16.5,74.5 c-0.49-0.21-0.97-0.43-1.43-0.66c-0.52-0.27-1.03-0.56-1.52-0.87c-1-0.65-1.9-1.4-2.61-2.26c-0.66-0.79-1.16-1.68-1.46-2.65 c-0.35-1.17-0.43-2.29-0.11-3.27c0.33-1.01,1.06-1.86,2.33-2.46c0.52-0.25,1.12-0.45,1.78-0.62c0.68-0.17,1.43-0.29,2.23-0.38 l0.78-0.07V17.92l-0.03,0.02c-0.29,0.19-0.6,0.36-0.91,0.52c-0.78,0.39-1.6,0.68-2.45,0.87c-0.86,0.19-1.75,0.29-2.64,0.28 c-0.88-0.01-1.76-0.12-2.62-0.33c-0.85-0.2-1.67-0.5-2.44-0.89c-0.31-0.16-0.62-0.33-0.92-0.52l-0.05-0.03v94.42 c0,0.81,0.16,1.59,0.46,2.3c0.31,0.74,0.76,1.4,1.31,1.96c0.56,0.56,1.22,1.01,1.96,1.31c0.71,0.29,1.48,0.46,2.3,0.46 c0.81,0,1.59-0.16,2.3-0.46c0.74-0.31,1.4-0.76,1.96-1.32c0.56-0.56,1.01-1.22,1.32-1.96c0.29-0.71,0.46-1.48,0.46-2.29V74.5 L16.5,74.5z M4.45,10.57c0.17,0.86,0.52,1.61,0.99,2.24c0.52,0.69,1.21,1.24,1.97,1.62c0.47,0.24,0.98,0.42,1.49,0.55 c0.53,0.13,1.07,0.19,1.6,0.2c0.54,0.01,1.08-0.05,1.61-0.16c0.5-0.11,0.99-0.28,1.45-0.52c0.75-0.38,1.42-0.93,1.93-1.66 c0.47-0.66,0.81-1.47,0.99-2.43c-0.05-0.72-0.23-1.4-0.52-2.03c-0.3-0.67-0.73-1.27-1.24-1.78c-0.56-0.56-1.22-1.01-1.96-1.32 c-0.71-0.29-1.48-0.46-2.3-0.46c-0.81,0-1.59,0.16-2.3,0.46C7.44,5.6,6.78,6.05,6.22,6.61L6.19,6.63C5.67,7.16,5.25,7.78,4.95,8.46 C4.66,9.11,4.49,9.83,4.45,10.57L4.45,10.57z"/></g></svg>