<svg xmlns="http://www.w3.org/2000/svg" shape-rendering="geometricPrecision" text-rendering="geometricPrecision" image-rendering="optimizeQuality" fill-rule="evenodd" clip-rule="evenodd" viewBox="0 0 512 512"><g fill-rule="nonzero"><path fill="#D92D27" d="M256 0c38.58 0 75.19 8.54 108 23.83-14.77 10.49-24.8 21.13-33.01 35.9-23.28-8.91-48.57-13.79-74.99-13.79-58.01 0-110.53 23.52-148.54 61.52-38 38.01-61.52 90.53-61.52 148.54 0 58 23.52 110.53 61.52 148.54 38.01 38 90.53 61.52 148.54 61.52 58 0 110.53-23.52 148.54-61.52 38-38.01 61.52-90.54 61.52-148.54 0-15.26-1.63-30.13-4.72-44.46 14.35-8.37 25.67-22.81 37.86-35.69 8.31 25.22 12.8 52.16 12.8 80.15 0 70.68-28.66 134.7-74.98 181.02C390.7 483.34 326.68 512 256 512c-70.69 0-134.7-28.66-181.02-74.98C28.66 390.7 0 326.68 0 256c0-70.69 28.66-134.7 74.98-181.02C121.3 28.66 185.31 0 256 0z"/><path d="M404.42 172.39v-44.21h-40.63V92.31h40.63v-44.2h37.79v44.2h40.92v35.87h-40.92v44.21h-37.79zM184.86 272.62c0-14.19 2.23-27.26 6.66-39.22 4.42-11.96 10.32-22.72 17.73-32.28 7.42-9.57 15.71-17.82 24.83-24.71 9.13-6.9 18.45-12.36 27.98-16.42 9.52-4.07 18.54-6.62 27.07-7.66l9.8 25.59c-11.08 2.71-20.84 7.1-29.34 13.16-8.49 6.06-15.62 13.15-21.36 21.28s-10.04 16.74-12.95 25.82c-2.91 9.09-4.42 18.02-4.5 26.79-.08 10.28.79 19.37 2.59 27.26 1.79 7.89 4.7 14.07 8.76 18.57 4.07 4.51 9.45 6.78 16.15 6.78 5.74 0 10.56-1.2 14.43-3.59 3.86-2.39 6.77-5.86 8.72-10.4 1.96-4.54 2.91-10.01 2.91-16.38 0-7.58-.95-13.64-2.87-18.14-1.91-4.5-4.42-7.73-7.53-9.72-3.11-1.99-6.5-2.99-10.16-2.99-4.07 0-7.26.43-9.57 1.36-2.31.91-4.3 1.75-5.98 2.47l-7.89-22.49c1.2-1.59 3.43-3.46 6.7-5.61 3.26-2.16 7.45-4.03 12.52-5.62 5.05-1.6 10.91-2.39 17.61-2.39 9.81 0 18.49 2.31 26.03 6.97 7.53 4.66 13.39 11.16 17.61 19.45 4.23 8.29 6.34 17.82 6.34 28.58 0 9.17-1.48 17.86-4.43 26.07-2.95 8.21-7.41 15.46-13.43 21.79-6.01 6.34-13.59 11.32-22.67 14.91-9.1 3.59-19.82 5.38-32.17 5.38-13.47 0-25.43-3.23-35.91-9.65-10.48-6.41-18.73-15.22-24.71-26.46s-8.97-24.07-8.97-38.5z"/></g></svg>