<svg xmlns="http://www.w3.org/2000/svg" shape-rendering="geometricPrecision" text-rendering="geometricPrecision" image-rendering="optimizeQuality" fill-rule="evenodd" clip-rule="evenodd" viewBox="0 0 512 512"><g fill-rule="nonzero"><path fill="#D92D27" d="M256 0c38.58 0 75.19 8.54 108 23.83-14.77 10.49-24.8 21.13-33.01 35.9-23.28-8.91-48.57-13.79-74.99-13.79-58.01 0-110.53 23.52-148.54 61.52-38 38.01-61.52 90.53-61.52 148.54 0 58 23.52 110.53 61.52 148.54 38.01 38 90.53 61.52 148.54 61.52 58 0 110.53-23.52 148.54-61.52 38-38.01 61.52-90.54 61.52-148.54 0-15.26-1.63-30.13-4.72-44.46 14.35-8.37 25.67-22.81 37.86-35.69 8.31 25.22 12.8 52.16 12.8 80.15 0 70.68-28.66 134.7-74.98 181.02C390.7 483.34 326.68 512 256 512c-70.69 0-134.7-28.66-181.02-74.98C28.66 390.7 0 326.68 0 256c0-70.69 28.66-134.7 74.98-181.02C121.3 28.66 185.31 0 256 0z"/><path d="M404.42 172.39v-44.21h-40.63V92.31h40.63v-44.2h37.79v44.2h40.92v35.87h-40.92v44.21h-37.79zM200.53 341.73l-.24-28.21c4.3.95 8.81 1.79 13.47 2.51 4.67.71 8.93 1.07 12.84 1.07 8.53 0 16.05-1.11 22.55-3.31 6.5-2.19 11.56-5.38 15.23-9.56 3.67-4.19 5.5-9.21 5.5-15.11 0-3.19-.88-6.37-2.63-9.57-1.76-3.18-4.66-5.77-8.77-7.76-4.11-2-9.65-2.84-16.58-2.52l-15.79 3.59-5.73-26.79c5.42-.95 10.48-2.15 15.14-3.58 4.66-1.43 8.53-3.03 11.64-4.79 5.26-3.02 9.09-6.37 11.44-10.04 2.35-3.66 3.63-7.65 3.87-11.95.39-5.66-1.36-10.05-5.27-13.12-3.9-3.06-9.16-4.58-15.78-4.58-7.89 0-14.7 1.28-20.44 3.83-5.75 2.54-10.65 5.26-14.71 8.13l-12.44-27.03c2.23-2.39 6.34-4.98 12.32-7.73s12.91-5.1 20.77-7.05c7.85-1.95 15.69-2.92 23.59-2.92 11.88 0 22 1.68 30.37 5.03 8.37 3.34 14.79 8.13 19.21 14.39 4.42 6.26 6.61 13.82 6.61 22.68 0 7.97-1.55 15.02-4.66 21.16-3.11 6.14-7.37 11.48-12.83 16.02-5.46 4.55-11.76 8.41-18.85 11.6v-4.07c11.08.4 19.96 2.63 26.66 6.7 6.7 4.06 11.56 9.21 14.55 15.47s4.47 12.83 4.47 19.68c0 9.73-3.28 18.7-9.81 26.91-6.54 8.21-15.71 14.78-27.5 19.73-11.8 4.94-25.59 7.41-41.37 7.41-7.98 0-15.03-.72-21.2-2.15-6.18-1.44-11.41-2.79-15.63-4.07z"/></g></svg>