<svg xmlns="http://www.w3.org/2000/svg" shape-rendering="geometricPrecision" text-rendering="geometricPrecision" image-rendering="optimizeQuality" fill-rule="evenodd" clip-rule="evenodd" viewBox="0 0 512 512"><g fill-rule="nonzero"><path fill="#D92D27" d="M256 0c38.59 0 75.19 8.54 108 23.83-14.77 10.49-24.8 21.13-33.01 35.9-23.28-8.91-48.57-13.79-74.99-13.79-58.01 0-110.53 23.52-148.54 61.52-38 38.01-61.52 90.53-61.52 148.54 0 58 23.52 110.53 61.52 148.54 38.01 38 90.53 61.52 148.54 61.52 58 0 110.53-23.52 148.54-61.52 38-38.01 61.52-90.54 61.52-148.54 0-15.26-1.63-30.13-4.72-44.46 14.35-8.37 25.67-22.81 37.86-35.69 8.31 25.21 12.8 52.16 12.8 80.15 0 70.68-28.66 134.7-74.98 181.02C390.7 483.34 326.68 512 256 512c-70.69 0-134.7-28.66-181.02-74.98C28.66 390.7 0 326.68 0 256c0-70.69 28.66-134.7 74.98-181.02C121.3 28.66 185.31 0 256 0z"/><path d="M404.42 172.39v-44.21h-40.63V92.31h40.63v-44.2h37.79v44.2h40.92v35.87h-40.92v44.21h-37.79zM140.46 345.32l-5.75-18.18c5.66-3.34 12-7.61 18.97-12.79 6.98-5.18 13.96-11.08 20.97-17.7 7.01-6.62 13.47-13.71 19.33-21.28 5.86-7.57 10.56-15.46 14.11-23.67 3.55-8.21 5.3-16.46 5.3-24.76 0-8.84-2.23-15.53-6.7-20.05-4.46-4.5-10.6-6.73-18.41-6.73-7.49 0-14.83 1.2-22.04 3.59-7.21 2.39-12.87 5.58-16.94 9.57l-13.63-23.44c3.19-3.27 7.57-6.78 13.12-10.49 5.53-3.7 12.39-6.85 20.56-9.48 8.16-2.63 17.81-3.94 28.97-3.94 14.67 0 26.35 2.63 34.99 7.93 8.65 5.3 14.87 12.27 18.66 20.88 3.79 8.61 5.66 17.82 5.66 27.62 0 12.04-2.95 23.52-8.88 34.44-5.94 10.92-14.08 21.28-24.36 31.08-10.28 9.81-21.93 19.06-34.92 27.75l74.38-4.79v34.44H140.46zm173.37 0V212.36c-4.62 1.04-9.17 1.95-13.63 2.74-4.47.81-8.93 1.56-13.39 2.28l-3.59-26.3c3.83-.89 8.29-2.27 13.35-4.19 5.06-1.91 10.2-4.06 15.43-6.45 5.22-2.39 10.04-4.87 14.51-7.38 4.46-2.51 7.97-4.78 10.52-6.85l21.52 2.86-.24 176.25h-44.48z"/></g></svg>