<svg id="Layer_1" data-name="Layer 1" xmlns="http://www.w3.org/2000/svg" viewBox="0 0 122.88 66.68"><defs><style>.cls-1{fill-rule:evenodd;}</style></defs><title>airdrone</title><path class="cls-1" d="M2.62,4H15.36v-2A1.93,1.93,0,0,1,17.29,0h0a1.94,1.94,0,0,1,1.93,1.93V4H32A2.63,2.63,0,0,1,34.58,6.6h0A2.63,2.63,0,0,1,32,9.22H19.22v3.46a2.4,2.4,0,0,1,2.11,2.37v5.49h21.4V15.71a2.39,2.39,0,0,1,2.39-2.38H77.76a2.39,2.39,0,0,1,2.39,2.38v4.83h21.4V15.05a2.4,2.4,0,0,1,2.11-2.37V9.22H90.92A2.63,2.63,0,0,1,88.3,6.6h0A2.63,2.63,0,0,1,90.92,4h12.74v-2A1.94,1.94,0,0,1,105.59,0h0a1.93,1.93,0,0,1,1.93,1.93V4h12.74a2.63,2.63,0,0,1,2.62,2.62h0a2.63,2.63,0,0,1-2.62,2.62H107.52v3.46a2.39,2.39,0,0,1,2.11,2.37v16.2a2.39,2.39,0,0,1-2.38,2.39h-3.31a2.4,2.4,0,0,1-2.39-2.39V28H78.35c-.41.41-.79.83-1.14,1.25s-.78,1-1.11,1.45c.43.13.85.27,1.27.42,13.34,4.63,23.77,15.26,23.77,31.9a3.62,3.62,0,0,1-7.24,0C93.9,50,85.62,41.65,75,38c-.57-.2-1.15-.38-1.73-.56-.31,1.46-.53,3-.79,4.72a3.45,3.45,0,0,1-3.25,3.25H64.54v4.93H69.4a2.45,2.45,0,0,1,2.44,2.45V62.82a2.45,2.45,0,0,1-2.44,2.45H53.48A2.45,2.45,0,0,1,51,62.82V52.76a2.45,2.45,0,0,1,2.44-2.45h4.86V45.38H54a3.47,3.47,0,0,1-3.26-3.25c-.26-1.8-.48-3.36-.82-4.82-.7.2-1.4.42-2.09.66C37.26,41.65,29,50,29,63.06a3.62,3.62,0,0,1-7.24,0c0-16.64,10.43-27.27,23.77-31.9.47-.17.93-.32,1.41-.47-.2-.26-.4-.52-.62-.79A21,21,0,0,0,44.61,28H21.33v3.21a2.4,2.4,0,0,1-2.39,2.39H15.63a2.39,2.39,0,0,1-2.38-2.39V15.05a2.39,2.39,0,0,1,2.11-2.37V9.22H2.62A2.63,2.63,0,0,1,0,6.6H0A2.63,2.63,0,0,1,2.62,4Z"/></svg>