<?xml version="1.0" encoding="utf-8"?><svg version="1.1" id="Layer_1" xmlns="http://www.w3.org/2000/svg" xmlns:xlink="http://www.w3.org/1999/xlink" x="0px" y="0px" viewBox="0 0 122.8 122.88" style="enable-background:new 0 0 122.8 122.88" xml:space="preserve"><style type="text/css">.st0{fill-rule:evenodd;clip-rule:evenodd;}</style><g><path class="st0" d="M106.61,30.09C114.76,18.75,122.02,7.84,122.8,0c-9.36,1.3-19.38,9.17-29.8,16.1L74.22,30.72 c3.14,0.02,6.07,0.69,8.64,1.89c2.06,0.97,3.88,2.27,5.38,3.87c1.51,1.6,2.7,3.49,3.49,5.6c0.6,1.61,0.96,3.34,1.05,5.17 L106.61,30.09L106.61,30.09z M46.78,20.49l2.89,2.89l-4.64,4.64l-4.4-1.38L46.78,20.49L46.78,20.49z M41.1,15.08l2.89,2.89 l-7.95,7.95l-4.4-1.38L41.1,15.08L41.1,15.08z M102.12,75.83L99.29,73l-4.64,4.64l1.32,4.34L102.12,75.83L102.12,75.83z M107.53,81.51l-2.83-2.83l-7.95,7.95l1.32,4.34L107.53,81.51L107.53,81.51z M69.25,34.58l-1.47,1.14l-1.32-0.28 c-0.48,0.12-1,0-1.41-0.3l-42.43-9.06l-11.4,11.4l28.39,28.39l-0.1,2.14l-2.97,2.97l6.22,9.46l9.11,5.83l3.1-3.1l1.74,0.1 l28.56,28.56l11.54-11.54L86.74,54.72l2.35-2.91c0.77-3.3,0.57-6.31-0.38-8.87c-0.61-1.65-1.54-3.13-2.72-4.37 c-1.19-1.26-2.63-2.3-4.27-3.07C78.25,33.87,73.9,33.43,69.25,34.58L69.25,34.58z M34.32,73.2l-3.16,3.16l-23.38-2.8L0,81.34 l41.54,41.54l7.83-7.83l-2.8-23.48l3.08-3.08l-8.82-5.64c-0.22-0.14-0.39-0.33-0.51-0.54L34.32,73.2L34.32,73.2z"/></g></svg>