<?xml version="1.0" encoding="utf-8"?><svg version="1.1" id="Layer_1" xmlns="http://www.w3.org/2000/svg" xmlns:xlink="http://www.w3.org/1999/xlink" x="0px" y="0px" viewBox="0 0 97.414 122.881" enable-background="new 0 0 97.414 122.881" xml:space="preserve"><g><path fill-rule="evenodd" clip-rule="evenodd" d="M4.199,113.646c0.057-0.442,0.261-0.874,0.602-1.215 c2.51-2.532,5.689-4.588,9.313-6.008c2.533-0.988,5.281-1.658,8.177-1.953l-0.545-8.643H3.813c-2.056,0-3.736-1.681-3.736-3.736 c0-15.445,3.634-27.063,0-44.655c-1.079-5.213,9.676-5.974,9.676,0.272V87.3h37.227c2.056,0,3.726,2.736,3.726,4.792v2.907 c0,0.454-0.375,0.818-0.829,0.818H28.377l-0.772,8.551c3.055,0.205,5.985,0.829,8.677,1.817c3.464,1.261,6.542,3.111,9.04,5.405 c0.602,0.545,0.817,1.363,0.625,2.09c0.965,0.727,1.59,1.874,1.59,3.18c0,2.192-1.771,3.964-3.964,3.964 c-2.192,0-3.963-1.771-3.963-3.964c0-1.306,0.636-2.476,1.612-3.19c-1.851-1.442-4.009-2.635-6.383-3.498 c-2.544-0.932-5.36-1.488-8.324-1.602l-0.432,4.293l-0.023,0.181c1.669,0.466,2.907,2,2.907,3.828c0,2.192-1.771,3.964-3.963,3.964 c-2.192,0-3.963-1.771-3.963-3.964c0-1.806,1.215-3.339,2.874-3.816l-0.012-0.204l-0.306-4.236 c-2.828,0.193-5.508,0.795-7.939,1.737l-0.011,0.001c-2.374,0.92-4.52,2.18-6.337,3.68c0.727,0.715,1.181,1.726,1.181,2.827 c0,2.192-1.771,3.964-3.963,3.964s-3.963-1.771-3.963-3.964C2.552,115.544,3.199,114.374,4.199,113.646L4.199,113.646 L4.199,113.646z M47.071,67.447c-0.59,0.92-0.92,1.874-1.045,2.839l14.821,0.001c3.985,0,7.257,3.271,7.257,7.257v7.257h-0.08 v28.369c0,3.986-3.271,7.257-7.257,7.257H53.51V86.891c0-3.181-1.192-2.079-4.792-2.079H32.511v-0.057H23.21 c-5.996,0-12.753-5.2-10.914-10.913c5.914-18.335,12.616-27.295,22.713-43.61c3.214-5.19,10.084-6.814,15.274-3.6l4.668,2.885 c4.804,2.976,5.837,5.872,5.871,8.881l6.247,6.451l3.281-13.685c0.148-0.613,0.375-1.181,0.682-1.692 c-1.612,0.579-3.339,0.897-5.145,0.897c-8.381,0-15.184-6.803-15.184-15.184C50.705,6.803,57.508,0,65.889,0 c8.382,0,15.184,6.803,15.184,15.184c0,4.463-1.931,8.472-4.985,11.254c0.557-0.023,1.124,0.023,1.692,0.159 c3.305,0.784,5.349,4.111,4.565,7.416l-5.508,22.941l19.93,0c0.353,0,0.647,0.295,0.647,0.647v9.244 c0,0.353-0.295,0.647-0.647,0.647h-2.908v54.535c0,0.466-0.386,0.853-0.852,0.853h-7.313c-0.465,0-0.852-0.387-0.852-0.853V67.493 H57.053c-0.352,0-0.646-0.295-0.646-0.647v-9.233c0-0.352,0.295-0.647,0.646-0.647h4.577l-4.917-5.088L47.071,67.447L47.071,67.447 L47.071,67.447z"/></g></svg>