<svg xmlns="http://www.w3.org/2000/svg" viewBox="0 0 122.88 122.88"><path d="M17.89 0h88.9c8.85 0 16.1 7.24 16.1 16.1v90.68c0 8.85-7.24 16.1-16.1 16.1H16.1c-8.85 0-16.1-7.24-16.1-16.1v-88.9C0 8.05 8.05 0 17.89 0zm45.46 69.84V57.2h29.02v25.84c-5.56 3.79-10.47 6.38-14.72 7.75-4.27 1.37-9.33 2.05-15.19 2.05-7.21 0-13.1-1.23-17.64-3.69-4.54-2.45-8.06-6.11-10.57-10.98-2.5-4.85-3.75-10.44-3.75-16.73 0-6.63 1.37-12.39 4.1-17.3 2.73-4.89 6.73-8.61 12.01-11.16 4.12-1.97 9.66-2.94 16.62-2.94 6.7 0 11.72.61 15.05 1.82 3.34 1.22 6.1 3.1 8.29 5.66 2.19 2.56 3.85 5.8 4.95 9.72l-18.08 3.25c-.75-2.31-2.01-4.07-3.79-5.29-1.78-1.23-4.05-1.84-6.82-1.84-4.1 0-7.38 1.43-9.83 4.29-2.45 2.86-3.66 7.38-3.66 13.56 0 6.56 1.23 11.26 3.71 14.07 2.46 2.81 5.91 4.23 10.32 4.23 2.09 0 4.09-.3 6-.91 1.89-.61 4.07-1.64 6.53-3.08v-5.69H63.35v.01z" fill-rule="evenodd" clip-rule="evenodd"/></svg>