<svg id="Layer_1" data-name="Layer 1" xmlns="http://www.w3.org/2000/svg" viewBox="0 0 79.37 122.88"><defs><style>.cls-1{fill-rule:evenodd;}</style></defs><title>am</title><path class="cls-1" d="M9.23,0H70.14a9.25,9.25,0,0,1,9.23,9.23V68.35H0V9.23A9.25,9.25,0,0,1,9.23,0ZM27.17,14.79a1.57,1.57,0,0,1,2.72-1.57l2,3.48a1.57,1.57,0,0,1-2.71,1.57l-2-3.48ZM39.69,20a14,14,0,1,1-9.92,4.11A14,14,0,0,1,39.69,20ZM38.44,11.1a1.57,1.57,0,0,1,3.14,0v4a1.57,1.57,0,0,1-3.14,0v-4Zm11.61,2.45a1.56,1.56,0,0,1,2.71,1.55l-2,3.49a1.58,1.58,0,0,1-2.14.57A1.55,1.55,0,0,1,48,17l2-3.48Zm8.82,7.91a1.57,1.57,0,1,1,1.57,2.71l-3.48,2a1.57,1.57,0,0,1-1.57-2.71l3.48-2Zm3.69,11.26a1.58,1.58,0,0,1,0,3.15h-4a1.58,1.58,0,0,1,0-3.15ZM60.11,44.33A1.56,1.56,0,1,1,58.55,47l-3.48-2a1.56,1.56,0,1,1,1.56-2.71l3.48,2ZM52.2,53.16a1.57,1.57,0,1,1-2.71,1.57l-2-3.49a1.57,1.57,0,0,1,2.71-1.57l2,3.49ZM40.93,56.84a1.57,1.57,0,1,1-3.14,0v-4a1.57,1.57,0,1,1,3.14,0v4ZM29.33,54.4a1.58,1.58,0,0,1-2.14.57,1.56,1.56,0,0,1-.58-2.13l2-3.49a1.56,1.56,0,0,1,2.71,1.56l-2,3.49ZM20.5,46.48a1.57,1.57,0,0,1-1.57-2.71l3.48-2A1.57,1.57,0,1,1,24,44.47l-3.48,2ZM16.81,35.22a1.57,1.57,0,1,1,0-3.14h4a1.57,1.57,0,0,1,0,3.14Zm2.45-11.61a1.56,1.56,0,1,1,1.56-2.71l3.48,2a1.56,1.56,0,1,1-1.56,2.71l-3.48-2Zm1.28,85.74H12.46l6.21-23.93H30.5l6.2,23.93H28.62l-.88-3.79H21.42l-.88,3.79Zm3.83-16.58-1.57,6.7h3.52l-1.53-6.7Zm21.41,16.58h-8l1.46-23.93h10l3,12.17h.27l3-12.17h10l1.45,23.93h-8l-.46-11.6h-.27l-2.91,11.6H49.41l-2.95-11.6h-.23l-.45,11.6ZM79.37,73.79v39.86a9.25,9.25,0,0,1-9.23,9.23H9.23A9.25,9.25,0,0,1,0,113.65V73.79Z"/></svg>