<?xml version="1.0" encoding="utf-8"?><svg version="1.1" id="Layer_1" xmlns="http://www.w3.org/2000/svg" xmlns:xlink="http://www.w3.org/1999/xlink" x="0px" y="0px" viewBox="0 0 122.88 120.04" style="enable-background:new 0 0 122.88 120.04" xml:space="preserve"><g><path d="M89.54,61.64l24.65,5.62c-1.3,4.68-2.54,8.41-3.71,11.22c-1.19,2.79-2.89,6.11-5.04,9.92l11.85,8.33 c1.46,0.95,3.31,2.08,5.59,3.41l-16.99,19.9c-3.1-1.68-6.33-3.62-9.65-5.84c-3.34-2.22-6.34-4.11-8.96-5.68 c-5.49,3.68-10.97,6.35-16.46,8.06c-7.58,2.3-16.22,3.46-25.9,3.46c-15.16,0-26.43-3.22-33.82-9.68C3.71,103.93,0,96.12,0,86.92 c0-6.62,2.17-12.87,6.52-18.76c4.35-5.87,11.45-10.87,21.34-14.92c-4.13-5.14-6.97-9.57-8.51-13.36 c-1.56-3.76-2.33-7.62-2.33-11.52c0-8.25,3.07-15.03,9.22-20.36c6.18-5.33,15.51-8,28.04-8c12.77,0,22.16,2.54,28.15,7.6 c6.02,5.08,9.01,11.14,9.01,18.22c0,3.97-0.93,7.76-2.76,11.41c-1.86,3.65-4.05,6.6-6.65,8.87s-7.24,5.65-13.94,10.14 c5.54,5.68,11.32,10.95,17.34,15.82C87.02,68.75,88.4,65.29,89.54,61.64L89.54,61.64z M53.22,41.26c4.08-2.3,7.21-4.76,9.44-7.43 c2.22-2.68,3.34-5.19,3.34-7.57c0-2.49-0.93-4.6-2.78-6.33c-1.85-1.7-4.43-2.57-7.69-2.57c-3.21,0-5.8,0.95-7.82,2.87 c-2.01,1.89-3.02,4.14-3.02,6.73C44.69,30.25,47.52,35.01,53.22,41.26L53.22,41.26z M41.98,69.51c-4.37,3.11-7.26,5.79-8.67,8 c-1.43,2.24-2.15,4.6-2.15,7.08c0,3.87,1.62,7.3,4.88,10.33c3.26,3,7.5,4.51,12.72,4.51c5.65,0,11.98-2.24,19-6.76 C61.07,87.41,52.45,79.68,41.98,69.51L41.98,69.51z"/></g></svg>