<svg id="Layer_1" data-name="Layer 1" xmlns="http://www.w3.org/2000/svg" viewBox="0 0 122.88 121.83"><defs><style>.cls-1,.cls-2{fill-rule:evenodd;}.cls-2{fill:red;}.cls-3{fill:#fff;}</style></defs><title>apk</title><path class="cls-1" d="M102.42,37H81.92a8.52,8.52,0,0,1-8.85-8.7V7.53H21a.58.58,0,0,0-.41.18.45.45,0,0,0-.18.42V113.71a.7.7,0,0,0,.18.41.51.51,0,0,0,.41.18h80.84c.18,0,.17-.09.26-.18s.34-.28.34-.41V37Zm7.47,79.08a5.77,5.77,0,0,1-5.76,5.76H18.66a5.77,5.77,0,0,1-5.76-5.76V5.76a5.7,5.7,0,0,1,1.69-4.07A5.77,5.77,0,0,1,18.66,0H76.9a4.22,4.22,0,0,1,2.46.82l29.75,30.12a2.57,2.57,0,0,1,.78,2.6v82.53ZM80,27.69,79.57,9.63,100.66,31l-18.14-.81A2.4,2.4,0,0,1,80,27.69Z"/><path class="cls-2" d="M6.71,46.28H116.17A6.73,6.73,0,0,1,122.88,53v45.1a6.73,6.73,0,0,1-6.71,6.71H6.71A6.73,6.73,0,0,1,0,98.09V53a6.73,6.73,0,0,1,6.71-6.71Z"/><path class="cls-3" d="M33.4,86.11h-11L20.78,91.3h-10L22.7,59.78H33.36L45.18,91.3H35L33.4,86.11Zm-2.06-6.83L27.9,68,24.44,79.28Zm16.13-19.5H63.68c3.53,0,6.17.83,7.93,2.51s2.63,4.08,2.63,7.18a9.74,9.74,0,0,1-2.87,7.47c-1.92,1.8-4.85,2.69-8.78,2.69H57.25V91.3H47.47V59.78Zm9.78,13.47h2.4a6.21,6.21,0,0,0,4-1,3.15,3.15,0,0,0,1.15-2.51,3.48,3.48,0,0,0-1-2.52c-.66-.69-1.91-1-3.74-1H57.25v7ZM78.63,59.78h9.73V71.69l10.2-11.91h13L100,71.62,112,91.3h-12L93.41,78.36l-5,5.27V91.3H78.63V59.78Z"/></svg>