<?xml version="1.0" encoding="utf-8"?><svg version="1.1" id="Layer_1" xmlns="http://www.w3.org/2000/svg" xmlns:xlink="http://www.w3.org/1999/xlink" x="0px" y="0px" viewBox="0 0 120 99.79" style="enable-background:new 0 0 120 99.79" xml:space="preserve"><style type="text/css">.st0{fill-rule:evenodd;clip-rule:evenodd;fill:#1A1A1A;} .st1{fill-rule:evenodd;clip-rule:evenodd;fill:#6BBE66;}</style><g><path class="st0" d="M58.45,26.15c-4.56-10.71-1.62-18.58,3.82-22.82c6.3-4.91,17.42-4.61,22.18,2.34 c4.15,6.07,2.37,11.98,0.54,18.51c-0.88,3.13-1.8,5.77-2.65,8.24c-3.53,10.34-7.76,30.6,9.38,29.83h18.89 c5.47,0.37,9.31,2.67,9.38,9.38v14.77c-0.62,1.32-1.38,2.29-2.87,2.29h-0.16v10.11c0,0.54-0.43,0.97-0.97,0.97l-88.95,0 c-0.54,0-0.97-0.43-0.97-0.97l-0.03-10.11c-0.7,0-1.24-0.03-1.66-0.15c0.23,0.01,0.47,0.01,0.7,0.01 c17.43,0,31.88-12.7,34.63-29.35C67.67,51.38,62.58,35.85,58.45,26.15L58.45,26.15L58.45,26.15z M113.99,96.82v-7.49 c-28.8,0-56.25,0.8-84.96,0.07v7.42L113.99,96.82L113.99,96.82z"/><path class="st1" d="M17.3,60.95c-0.14-0.16-0.27-0.32-0.38-0.49c-0.11-0.17-0.21-0.36-0.29-0.55c-0.27-0.64-0.34-1.32-0.23-1.98 c0.11-0.65,0.41-1.27,0.88-1.78l0.17-0.18c1.15-1.1,2.9-1.3,4.27-0.48c0.2,0.12,0.38,0.26,0.56,0.42l0.02,0.02 c0.97,0.93,2.61,2.46,3.69,3.42l0.93,0.83l11.33-11.89c0.16-0.16,0.34-0.31,0.52-0.44c0.19-0.13,0.39-0.24,0.6-0.33 c0.21-0.09,0.43-0.16,0.65-0.21c0.22-0.05,0.45-0.08,0.68-0.08l0.01,0c0.23,0,0.45,0.01,0.67,0.05c0.22,0.04,0.44,0.1,0.67,0.19 c0.21,0.08,0.41,0.18,0.61,0.3c0.18,0.12,0.36,0.25,0.53,0.41l0.08,0.07c0.16,0.16,0.3,0.33,0.43,0.51 c0.13,0.19,0.24,0.39,0.33,0.59c0.09,0.21,0.16,0.43,0.21,0.65c0.05,0.22,0.08,0.45,0.08,0.68v0.12c0,0.2-0.02,0.4-0.06,0.61 c-0.04,0.22-0.1,0.43-0.18,0.64c-0.08,0.21-0.18,0.41-0.31,0.61c-0.12,0.19-0.26,0.37-0.42,0.54L29.68,67.55 c-0.16,0.17-0.33,0.32-0.51,0.45c-0.19,0.13-0.39,0.25-0.6,0.34c-0.21,0.09-0.43,0.17-0.65,0.22c-0.22,0.05-0.45,0.08-0.68,0.09 l-0.06,0c-0.21,0-0.42-0.01-0.62-0.04l-0.05-0.01c-0.21-0.04-0.41-0.09-0.61-0.16c-0.21-0.08-0.42-0.17-0.62-0.29l-0.03-0.02 c-0.19-0.11-0.36-0.24-0.52-0.38l-0.03-0.03c-0.79-0.74-1.66-1.49-2.53-2.25C20.66,64.18,18.56,62.28,17.3,60.95L17.3,60.95 L17.3,60.95L17.3,60.95z M30.9,26.76c8.53,0,16.26,3.46,21.86,9.05c5.58,5.6,9.05,13.33,9.05,21.86c0,8.53-3.46,16.26-9.05,21.86 c-5.6,5.58-13.33,9.05-21.86,9.05c-8.53,0-16.26-3.46-21.86-9.05C3.46,73.92,0,66.19,0,57.66c0-8.53,3.46-16.26,9.05-21.86 C14.64,30.22,22.37,26.76,30.9,26.76L30.9,26.76L30.9,26.76z M48.74,39.83c-4.56-4.56-10.87-7.39-17.84-7.39 c-6.97,0-13.27,2.82-17.84,7.39C8.5,44.39,5.68,50.7,5.68,57.66c0,6.97,2.82,13.27,7.39,17.84c4.56,4.56,10.87,7.39,17.84,7.39 c6.97,0,13.27-2.82,17.84-7.39c4.56-4.56,7.39-10.87,7.39-17.84C56.12,50.7,53.3,44.39,48.74,39.83L48.74,39.83L48.74,39.83z"/></g></svg>