<?xml version="1.0" encoding="utf-8"?><svg version="1.1" id="Layer_1" xmlns="http://www.w3.org/2000/svg" xmlns:xlink="http://www.w3.org/1999/xlink" x="0px" y="0px" viewBox="0 0 122.88 97.52" style="enable-background:new 0 0 122.88 97.52" xml:space="preserve"><style type="text/css"><![CDATA[
	.st0{fill-rule:evenodd;clip-rule:evenodd;fill:#3AAF3C;}
]]></style><g><path class="st0" d="M49.12,0.46c2.56-0.8,4.85-0.45,7.26,0.31c3.06,0.95,6.88,3.44,11.07,4.55c5.89,1.55,14.29-5.02,21.06,0.89 c3.95,3.44,4.97,6.7,6.05,9.9c1.17,3.45,2.65,6.52,7.51,10.3c0.69,0.54,1.34,1.06,1.95,1.58H96.3c-0.3,0-0.6,0.01-0.9,0.04 c-0.29-0.03-0.59-0.04-0.9-0.04h-6.28v0.04c-0.46,0-0.91,0.03-1.35,0.1c-0.51-0.09-1.04-0.13-1.57-0.13h-5.06 c-6.79-5.72-16.18-8.13-25.41-5.66l0,0c-4.4,1.18-8.27,3.33-11.44,6.17c-0.69-0.15-1.42-0.27-2.2-0.35 c-1.1-0.11-2.12-0.17-3.05-0.17h-6c-1.21,0-2.37,0.23-3.43,0.66c-0.87-0.23-1.8-0.39-2.82-0.49c-1.1-0.11-2.12-0.17-3.05-0.17 h-5.72c0.16-0.89,0.41-1.84,0.76-2.85c2.92-8.51,13.47-7.01,17.8-11.31c3.08-3.05,5.14-7.12,7.32-9.47 C44.7,2.49,46.5,1.04,49.12,0.46L49.12,0.46L49.12,0.46z M109.1,37.23h4.46c2.87,0,4.82,0.13,5.83,0.4c1.01,0.27,1.79,0.7,2.31,1.3 c0.53,0.6,0.86,1.27,0.99,2.01c0.13,0.74,0.2,2.2,0.2,4.37v8.02c0,2.06-0.1,3.43-0.29,4.12c-0.19,0.69-0.53,1.24-1.01,1.63 c-0.48,0.39-1.08,0.66-1.79,0.82c-0.7,0.15-1.77,0.23-3.19,0.23h-7.5V37.23L109.1,37.23z M115.06,41.14v15.08 c0.84,0,1.37-0.17,1.56-0.52c0.2-0.35,0.29-1.28,0.29-2.81v-8.91c0-1.04-0.03-1.7-0.1-2c-0.07-0.29-0.21-0.51-0.45-0.64 C116.14,41.21,115.7,41.14,115.06,41.14L115.06,41.14z M96.3,37.23h9.93v4.58h-3.97v4.37h3.71v4.34h-3.71v5.04h4.37v4.58H96.3 V37.23L96.3,37.23z M94.51,37.23l-3.02,22.9h-9.02l-3.46-22.9h6.28c0.71,6.32,1.23,11.66,1.55,16.03 c0.32-4.42,0.65-8.33,0.98-11.76l0.4-4.27H94.51L94.51,37.23z M77.37,50.66c0,2.3-0.05,3.93-0.16,4.88 c-0.11,0.96-0.44,1.83-1.01,2.63c-0.57,0.79-1.34,1.4-2.31,1.82s-2.1,0.64-3.39,0.64c-1.23,0-2.32-0.2-3.3-0.6 c-0.97-0.4-1.76-1-2.35-1.8c-0.59-0.8-0.95-1.67-1.06-2.62c-0.11-0.95-0.17-2.6-0.17-4.95v-3.92c0-2.3,0.05-3.93,0.16-4.88 c0.11-0.96,0.44-1.83,1.01-2.63s1.34-1.4,2.31-1.82c0.97-0.42,2.1-0.64,3.39-0.64c1.23,0,2.32,0.2,3.3,0.6 c0.97,0.4,1.76,1,2.35,1.8c0.59,0.8,0.95,1.67,1.06,2.62c0.11,0.95,0.17,2.6,0.17,4.95V50.66L77.37,50.66z M71.41,43.14 c0-1.06-0.06-1.74-0.17-2.04c-0.12-0.29-0.35-0.44-0.71-0.44c-0.3,0-0.54,0.12-0.7,0.36c-0.16,0.24-0.24,0.95-0.24,2.12v10.69 c0,1.33,0.05,2.15,0.16,2.46c0.11,0.31,0.35,0.47,0.74,0.47c0.4,0,0.65-0.18,0.76-0.54c0.11-0.36,0.16-1.21,0.16-2.56V43.14 L71.41,43.14z M47.43,37.23h4.21c2.81,0,4.71,0.11,5.7,0.32c0.99,0.22,1.8,0.77,2.43,1.67c0.63,0.89,0.94,2.31,0.94,4.26 c0,1.78-0.22,2.98-0.67,3.59c-0.44,0.61-1.31,0.98-2.62,1.1c1.18,0.29,1.97,0.69,2.38,1.18c0.41,0.49,0.66,0.94,0.75,1.35 c0.1,0.41,0.15,1.54,0.15,3.39v6.05h-5.53v-7.62c0-1.23-0.1-1.98-0.29-2.28c-0.19-0.29-0.69-0.44-1.51-0.44v10.34h-5.96V37.23 L47.43,37.23z M53.4,41.14v5.1c0.67,0,1.13-0.09,1.4-0.27c0.27-0.18,0.4-0.78,0.4-1.79v-1.26c0-0.73-0.13-1.21-0.39-1.43 S54.08,41.14,53.4,41.14L53.4,41.14z M32.13,37.23h6c1.62,0,2.87,0.13,3.74,0.38c0.87,0.26,1.52,0.62,1.96,1.1 c0.44,0.48,0.73,1.07,0.89,1.75c0.15,0.69,0.23,1.74,0.23,3.18v1.99c0,1.46-0.15,2.52-0.45,3.19c-0.3,0.67-0.85,1.19-1.65,1.54 c-0.81,0.36-1.86,0.54-3.16,0.54h-1.6v9.24h-5.97V37.23L32.13,37.23z M38.1,41.14v5.83c0.17,0.01,0.31,0.01,0.43,0.01 c0.55,0,0.92-0.14,1.13-0.41c0.21-0.27,0.31-0.83,0.31-1.67v-1.89c0-0.78-0.12-1.29-0.37-1.53C39.37,41.26,38.86,41.14,38.1,41.14 L38.1,41.14z M16.83,37.23h6c1.62,0,2.87,0.13,3.74,0.38c0.87,0.26,1.52,0.62,1.96,1.1c0.44,0.48,0.73,1.07,0.89,1.75 c0.15,0.69,0.23,1.74,0.23,3.18v1.99c0,1.46-0.15,2.52-0.45,3.19c-0.3,0.67-0.85,1.19-1.66,1.54c-0.81,0.36-1.86,0.54-3.16,0.54 h-1.6v9.24h-5.96V37.23L16.83,37.23z M22.8,41.14v5.83c0.17,0.01,0.31,0.01,0.43,0.01c0.55,0,0.92-0.14,1.13-0.41 c0.21-0.27,0.31-0.83,0.31-1.67v-1.89c0-0.78-0.12-1.29-0.37-1.53C24.07,41.26,23.56,41.14,22.8,41.14L22.8,41.14z M11.63,37.23 l3.41,22.9H8.96l-0.32-4.11H6.49l-0.32,4.11H0l3.02-22.9H11.63L11.63,37.23z M8.47,51.97c-0.28-2.6-0.58-5.81-0.9-9.65 c-0.59,4.4-0.96,7.62-1.12,9.65H8.47L8.47,51.97z M107.04,69.38L107.04,69.38c-0.97,4.61-3.43,8.13-7.3,10.63 c-3.26,2.1-7.29,1.4-9.82,3.37c-4.46,3.45-6.84,9.35-10.51,11.66c-1.42,0.89-2.89,1.54-4.42,1.94c-1.54,0.42-3.13,0.6-4.8,0.53 c-4.33-0.17-9.34-4.08-14.93-4.85c-3.18-0.44-6.32,2.19-10.19,1.99c-4.6-0.23-8.49-2.05-11.63-5.55c-4.54-5.05-3.15-9.47-6.66-13.9 c-1.6-2.01-6.27-2.91-9.37-5.82h5.39c1.7,0,3.3-0.46,4.67-1.26c1.37,0.8,2.97,1.26,4.67,1.26h5.97c1.23,0,2.4-0.24,3.47-0.67 c6.87,7.33,17.44,10.73,27.82,7.95c4.95-1.33,9.24-3.9,12.62-7.29c0.15,0.01,0.31,0.01,0.46,0.01h9.02v-0.03 c0.81,0,1.59-0.1,2.35-0.3c0.78,0.22,1.61,0.33,2.46,0.33h10.34C106.77,69.39,106.9,69.38,107.04,69.38L107.04,69.38z"/></g></svg>