<svg id="Layer_1" data-name="Layer 1" xmlns="http://www.w3.org/2000/svg" viewBox="0 0 122.87 122.88"><title>april-month</title><path d="M81.6,4.73C81.6,2.12,84.18,0,87.37,0s5.77,2.12,5.77,4.73V25.45c0,2.61-2.58,4.73-5.77,4.73s-5.77-2.12-5.77-4.73V4.73ZM30.17,96H20.84L28,68.34H41.67L48.83,96H39.5l-1-4.38H31.19l-1,4.38Zm4.42-19.15-1.81,7.74h4.07l-1.77-7.74ZM65.77,89.3H60V96H51.18V68.34H65.1q9.51,0,9.51,10.21,0,5.63-2.47,8.32a7.52,7.52,0,0,1-2.57,1.73,9.54,9.54,0,0,1-3.8.7ZM60,75.42v6.81h2a6,6,0,0,0,2.33-.33,1.52,1.52,0,0,0,.72-1.53v-3.1c0-.79-.24-1.3-.72-1.52a6,6,0,0,0-2.33-.33ZM102,96H92.3l-3.62-8.23H86.77V96H77.93V68.34H91.86q9.51,0,9.51,9.69,0,6.63-4.11,8.75L102,96ZM86.77,75.42v5.52h2a6,6,0,0,0,2.32-.33c.49-.22.73-.73.73-1.52V77.27c0-.79-.24-1.3-.73-1.52a6,6,0,0,0-2.32-.33ZM29.61,4.73C29.61,2.12,32.19,0,35.38,0s5.77,2.12,5.77,4.73V25.45c0,2.61-2.58,4.73-5.77,4.73s-5.77-2.12-5.77-4.73V4.73ZM6.4,38.76H116.46V21.47a3,3,0,0,0-.86-2.07,2.92,2.92,0,0,0-2.07-.86H103a3.2,3.2,0,1,1,0-6.4h10.55a9.36,9.36,0,0,1,9.33,9.33v92.08a9.36,9.36,0,0,1-9.33,9.33H9.33A9.36,9.36,0,0,1,0,113.54V21.47a9.36,9.36,0,0,1,9.33-9.33H20.6a3.2,3.2,0,1,1,0,6.4H9.33a3,3,0,0,0-2.07.86,2.92,2.92,0,0,0-.86,2.07V38.76Zm110.07,6.41H6.4v68.37a3,3,0,0,0,.86,2.07,2.92,2.92,0,0,0,2.07.86H113.54a3,3,0,0,0,2.07-.86,2.92,2.92,0,0,0,.86-2.07V45.17Zm-66-26.63a3.2,3.2,0,0,1,0-6.4H71.91a3.2,3.2,0,1,1,0,6.4Z"/></svg>