<?xml version="1.0" encoding="utf-8"?><svg version="1.1" id="Layer_1" xmlns="http://www.w3.org/2000/svg" xmlns:xlink="http://www.w3.org/1999/xlink" x="0px" y="0px" viewBox="0 0 122.88 83.14" style="enable-background:new 0 0 122.88 83.14" xml:space="preserve"><g><path d="M0.3,75.14l36.73-24.32c0.31-0.2,0.73-0.12,0.94,0.19l7.81,18.19l27.78-18.38c0.31-0.2,0.73-0.12,0.94,0.19l7.7,18.19 l27.78-18.38c0.31-0.2,0.73-0.12,0.94,0.19l11.84,27.8c0.15,0.34-0.02,0.74-0.36,0.89l-7.61,3.38c-0.34,0.15-0.74,0-0.89-0.34 l-7.56-18.09L78.43,83.03c-0.31,0.2-0.73,0.12-0.94-0.19l-7.68-18.19L42.15,83.03c-0.31,0.2-0.73,0.12-0.94-0.19l-7.74-18.19 L5.55,83.03c-0.31,0.2-0.73,0.12-0.94-0.19l-4.5-6.76C-0.09,75.77-0.01,75.34,0.3,75.14L0.3,75.14z M0.37,24.43L37.1,0.11 c0.31-0.2,0.73-0.12,0.94,0.19l7.81,18.19L73.64,0.11c0.31-0.2,0.73-0.12,0.94,0.19l7.7,18.19l27.78-18.38 c0.31-0.2,0.73-0.12,0.94,0.19l11.84,27.8c0.15,0.34-0.02,0.74-0.36,0.89l-7.61,3.38c-0.34,0.15-0.74,0-0.89-0.34l-7.56-18.09 L78.43,32.32c-0.31,0.2-0.73,0.12-0.94-0.19l-7.68-18.19L42.15,32.32c-0.31,0.2-0.73,0.12-0.94-0.19l-7.68-18.19L5.61,32.32 c-0.31,0.2-0.73,0.12-0.94-0.19l-4.5-6.76C-0.03,25.06,0.06,24.64,0.37,24.43L0.37,24.43z"/></g></svg>