<svg id="Layer_1" data-name="Layer 1" xmlns="http://www.w3.org/2000/svg" viewBox="0 0 122.88 116.17"><defs><style>.cls-1{fill-rule:evenodd;}</style></defs><title>argument-dispute</title><path class="cls-1" d="M94.5,20.23,83.39,17.3,96.2,0l11.93,2L99.75,11l12.8,3.6L85.15,37.71,94.5,20.23Zm-61,27.86a20.49,20.49,0,0,1,.41-5,6.85,6.85,0,0,1,3.27-4.28c.69-.45,1.3-.89,1.84-1.31a5.75,5.75,0,0,0,1.29-1.33,2.88,2.88,0,0,0,.09-3C38.91,30.68,34.7,31.87,34.7,35H26.44a9.79,9.79,0,0,1,1.61-5.76A9.27,9.27,0,0,1,32.25,26a15.46,15.46,0,0,1,5.74-1,17.65,17.65,0,0,1,6.16,1,9.42,9.42,0,0,1,4.28,3A8.07,8.07,0,0,1,50,34a7.82,7.82,0,0,1-2.52,6,14.74,14.74,0,0,1-2.76,2,7.08,7.08,0,0,0-3.15,3,7.05,7.05,0,0,0-.41,3Zm33.33-5h4.42V22.84a7.61,7.61,0,0,0-7.6-7.6H12.74a7.61,7.61,0,0,0-7.6,7.6V59.75a7.61,7.61,0,0,0,7.6,7.6h13.5A1.94,1.94,0,0,1,28,69.42L29,78,44.21,67.91a2,2,0,0,1,1.36-.56h6.88V55.84a12.71,12.71,0,0,1,3.75-9h0a12.8,12.8,0,0,1,9-3.74Zm9.56,0h33.71a12.78,12.78,0,0,1,12.74,12.74V92.75a12.71,12.71,0,0,1-3.75,9h0a12.94,12.94,0,0,1-8.33,3.73l-.68,6.12a5.13,5.13,0,0,1-8.06,3.63l-14.63-9.74H65.19a12.8,12.8,0,0,1-9-3.74l-.34-.36a12.92,12.92,0,0,1-2.42-3.77,12.68,12.68,0,0,1-1-4.87V72.49H46.59L32,82.23a5.08,5.08,0,0,1-2.4.91,5.14,5.14,0,0,1-5.66-4.54l-.68-6.12H12.74v0a12.85,12.85,0,0,1-9-3.74h0a12.71,12.71,0,0,1-3.75-9V22.84A12.79,12.79,0,0,1,12.74,10.1H63.69a12.8,12.8,0,0,1,9,3.74h0a12.71,12.71,0,0,1,3.75,9V43.1Zm16,13H82.87V68l1.86,14h5.93l1.79-14V56.1ZM90.58,86.29H84.75v5.38h5.83V86.29ZM37.47,58.93a4.43,4.43,0,0,1-3.2-1.31A4.33,4.33,0,0,1,33,54.42a4.27,4.27,0,0,1,1.32-3.15,4.51,4.51,0,0,1,6.34,0A4.3,4.3,0,0,1,42,54.42a4.49,4.49,0,0,1-.66,2.28,4.94,4.94,0,0,1-1.65,1.63,4.23,4.23,0,0,1-2.22.6Z"/></svg>