<?xml version="1.0" encoding="utf-8"?><svg version="1.1" id="Layer_1" xmlns="http://www.w3.org/2000/svg" xmlns:xlink="http://www.w3.org/1999/xlink" x="0px" y="0px" viewBox="0 0 108.3 122.88" style="enable-background:new 0 0 108.3 122.88" xml:space="preserve"><g><path d="M52.73,1.72c0.08-0.26,0.2-0.49,0.35-0.69c0.16-0.21,0.37-0.39,0.6-0.53c0.24-0.14,0.5-0.24,0.78-0.28 c0.27-0.04,0.55-0.03,0.83,0.04l0.02,0.01c0.27,0.07,0.51,0.19,0.72,0.35c0.22,0.17,0.41,0.38,0.55,0.62 c0.14,0.24,0.24,0.5,0.28,0.78c0.04,0.27,0.03,0.55-0.04,0.82c-1.2,4.71-2.54,9.43-3.88,14.13l-0.02,0.08 c-2.07,7.26-4.12,14.47-5.6,21.55c-0.03,0.13-0.06,0.24-0.11,0.36c-0.16,0.45-0.31,0.92-0.45,1.39c-0.13,0.47-0.25,0.94-0.34,1.41 c-0.09,0.47-0.17,0.94-0.22,1.4c-0.05,0.47-0.08,0.92-0.09,1.36c-0.01,0.45,0.01,0.89,0.05,1.34c0.04,0.43,0.1,0.87,0.19,1.32 c0.09,0.44,0.2,0.88,0.34,1.31c0.14,0.44,0.3,0.87,0.49,1.3c0.11,0.26,0.17,0.54,0.18,0.81c0.01,0.28-0.05,0.56-0.15,0.81 c-0.1,0.26-0.25,0.49-0.45,0.7c-0.19,0.19-0.42,0.36-0.68,0.47l-0.04,0.02c-0.25,0.1-0.52,0.16-0.78,0.16 c-0.28,0-0.55-0.05-0.8-0.14c-0.26-0.1-0.5-0.25-0.7-0.45c-0.19-0.19-0.36-0.42-0.47-0.68l-0.01-0.01 c-0.22-0.5-0.41-0.99-0.57-1.48c-0.16-0.49-0.3-1-0.42-1.52c-0.1-0.42-0.18-0.84-0.24-1.27c-0.05-0.31-0.08-0.61-0.11-0.92 c-1.63-0.34-3.29-0.81-4.99-1.39l-0.02-0.01c-1.79-0.61-3.63-1.33-5.51-2.15c-3.93-1.7-7.98-3.76-12.24-5.92l-0.02-0.01 c-2.58-1.31-5.23-2.65-8-3.99c-1.25-0.61-2.51-1.2-3.75-1.77c-1.04-0.48-2.1-0.95-3.18-1.42l0.17,35.01 c2.1,0.77,4.23,1.52,6.4,2.24c2.25,0.74,4.52,1.44,6.8,2.1c2.36,0.68,4.72,1.3,7.07,1.86c2.36,0.57,4.75,1.08,7.16,1.55 c2.46,0.47,4.93,0.89,7.41,1.24c2.49,0.35,4.99,0.64,7.49,0.87c2.51,0.22,5.04,0.39,7.6,0.48c2.54,0.09,5.1,0.12,7.68,0.07l0.03,0 c0.81-0.05,1.55-0.14,2.22-0.28c0.66-0.13,1.26-0.31,1.8-0.53c0.5-0.21,0.93-0.45,1.3-0.74c0.37-0.28,0.67-0.6,0.92-0.96l0.01-0.02 c0.25-0.37,0.45-0.8,0.6-1.29c0.15-0.5,0.25-1.07,0.3-1.7c0.05-0.67,0.03-1.41-0.05-2.22c-0.08-0.81-0.23-1.71-0.44-2.68 c-0.24-1.09-0.23-2.42-0.11-3.79c0.11-1.31,0.34-2.7,0.54-3.95l0.03-0.16c0.1-0.6,0.19-1.17,0.27-1.86 c0.28-2.22,0.53-4.42,0.76-6.58c0.23-2.15,0.44-4.34,0.64-6.56c0.2-2.23,0.37-4.43,0.52-6.59c0.15-2.21,0.29-4.39,0.39-6.54 c0.11-2.21,0.2-4.42,0.27-6.61c0.07-2.21,0.12-4.41,0.15-6.59c0.03-2.21,0.04-4.41,0.03-6.62c-0.01-2.2-0.04-4.4-0.1-6.61l0-0.05 c0-0.27,0.05-0.53,0.14-0.76c0.1-0.26,0.25-0.5,0.44-0.69l0.01-0.01c0.19-0.2,0.42-0.36,0.67-0.47C73.63,0.07,73.9,0.01,74.19,0 l0.05,0c0.27,0,0.53,0.05,0.76,0.14c0.26,0.1,0.5,0.25,0.69,0.44c0.2,0.19,0.36,0.42,0.48,0.68c0.11,0.24,0.17,0.52,0.18,0.81 c0.05,2.23,0.09,4.47,0.1,6.7c0.01,2.24,0,4.47-0.03,6.7c-0.03,2.24-0.08,4.47-0.15,6.68c-0.07,2.24-0.16,4.46-0.28,6.66l0,0.04 c-0.11,2.25-0.25,4.47-0.4,6.66c-0.15,2.25-0.33,4.46-0.52,6.63c-0.19,2.17-0.41,4.38-0.64,6.62c-0.24,2.25-0.49,4.46-0.76,6.64 c-0.06,0.45-0.12,0.92-0.2,1.37c-0.04,0.27-0.08,0.55-0.13,0.81l0,0.02c-0.17,1.08-0.37,2.27-0.47,3.38l0,0.01 c-0.1,1.08-0.13,2.06,0.02,2.75c0.26,1.2,0.44,2.33,0.53,3.38c0.09,1.06,0.1,2.04,0.01,2.97c-0.08,0.95-0.26,1.83-0.53,2.63 c-0.27,0.81-0.64,1.55-1.1,2.22l-0.02,0.02c-0.47,0.67-1.02,1.27-1.65,1.77c-0.64,0.52-1.37,0.95-2.18,1.31 c-0.78,0.35-1.65,0.62-2.59,0.82c-0.93,0.2-1.95,0.34-3.04,0.41l-0.17,0c-2.67,0.05-5.32,0.02-7.94-0.08 c-2.62-0.1-5.23-0.26-7.82-0.49c-2.61-0.23-5.18-0.53-7.73-0.89c-2.56-0.36-5.09-0.78-7.6-1.26c-2.51-0.48-5.01-1.02-7.5-1.63 l-0.02-0.01c-2.48-0.6-4.95-1.25-7.41-1.96c-2.48-0.72-4.92-1.48-7.33-2.28c-2.43-0.81-4.84-1.67-7.23-2.58 c-0.21-0.08-0.41-0.19-0.58-0.33l-0.03-0.02c-0.17-0.14-0.31-0.3-0.42-0.47l-0.02-0.04c-0.11-0.18-0.2-0.37-0.25-0.57l-0.01-0.02 C0.2,66.43,0.18,66.22,0.19,66L0,26.45c0-0.29,0.06-0.56,0.16-0.81c0.11-0.26,0.26-0.5,0.46-0.69c0.19-0.2,0.43-0.35,0.69-0.46 c0.24-0.1,0.51-0.16,0.8-0.16c0.07,0,0.14,0,0.21,0.01l0.2,0.03c0.17,0.04,0.29,0.07,0.45,0.13c6.47,2.62,12.49,5.67,18.13,8.53 l0.09,0.05c2.07,1.05,4.09,2.07,5.98,3c1.94,0.95,3.83,1.85,5.69,2.66c1.71,0.75,3.38,1.42,5.01,1.99c1.44,0.5,2.86,0.93,4.24,1.25 l0.09-0.53c0.06-0.35,0.13-0.7,0.22-1.06l0.01-0.02c0.1-0.46,0.23-0.92,0.36-1.37c0.13-0.44,0.28-0.9,0.44-1.36 c1.53-7.26,3.57-14.44,5.63-21.67l0.06-0.2c1.31-4.6,2.62-9.21,3.82-13.94L52.73,1.72L52.73,1.72z M89.28,105.43l-7.42-0.37 l4.64,14.29c0.08,0.25-0.06,0.52-0.31,0.6c-0.21,0.07-0.43-0.02-0.54-0.19L70.9,101.31c-0.16-0.2-0.13-0.5,0.07-0.67 c0.09-0.07,0.19-0.1,0.29-0.1l6.83-0.12l-5.2-14.28c-0.09-0.25,0.04-0.52,0.28-0.61c0.19-0.07,0.4-0.01,0.52,0.14l16,18.98 c0.08,0.09,0.11,0.2,0.11,0.31c0,0.26-0.21,0.48-0.48,0.48L89.28,105.43L89.28,105.43z M102.83,74.34l-6.96,3.61l12.27,10.32 c0.2,0.17,0.23,0.47,0.06,0.67c-0.13,0.16-0.34,0.21-0.52,0.14l-23.78-8.38c-0.25-0.09-0.38-0.36-0.29-0.61 c0.04-0.11,0.11-0.2,0.21-0.25l6.13-3.97L77.32,65.84c-0.21-0.16-0.24-0.46-0.08-0.67c0.13-0.17,0.36-0.22,0.55-0.15l24.97,8.44 c0.22,0.07,0.35,0.29,0.32,0.51c-0.01,0.04-0.02,0.08-0.03,0.13c-0.02,0.03-0.03,0.07-0.05,0.09l-0.03,0.04 c-0.03,0.03-0.06,0.05-0.09,0.07L102.83,74.34L102.83,74.34z M63.28,110.85l-6.68-4.49l-3.25,16.13c-0.05,0.26-0.3,0.42-0.56,0.37 c-0.2-0.04-0.34-0.2-0.38-0.39l-4.16-25.52c-0.04-0.26,0.13-0.5,0.39-0.55c0.11-0.02,0.21,0,0.3,0.05l6.61,3.57l2.45-16.29 c0.04-0.26,0.28-0.44,0.54-0.4c0.21,0.03,0.37,0.2,0.4,0.41l5.06,26.58c0.01,0.04,0.02,0.08,0.02,0.13c0,0.26-0.21,0.48-0.48,0.48 C63.45,110.94,63.35,110.91,63.28,110.85L63.28,110.85z"/></g></svg>