<?xml version="1.0" encoding="utf-8"?><svg version="1.1" id="Layer_1" xmlns="http://www.w3.org/2000/svg" xmlns:xlink="http://www.w3.org/1999/xlink" x="0px" y="0px" viewBox="0 0 122.88 88.78" style="enable-background:new 0 0 122.88 88.78" xml:space="preserve"><style type="text/css">.st0{fill-rule:evenodd;clip-rule:evenodd;}</style><g><path class="st0" d="M57.25,59.59c4.65,13.67,29,14.17,33.37,0c5.14,4.62,17.86,5.55,23.52,8.7c1.79,1,3.4,2.27,4.7,3.98 c1.97,2.6,3.18,6.01,3.51,10.32l0.53,6.19h-97.9l0.53-6.19c0.33-4.32,1.54-7.72,3.51-10.32c1.3-1.72,2.92-2.99,4.7-3.98 C39.39,65.14,52.11,64.21,57.25,59.59L57.25,59.59z M0.31,7.57h1.78V5.06H0.31C0.14,5.06,0,4.92,0,4.75V3.32 c0-0.17,0.14-0.31,0.31-0.31h1.78V0h4.24l0,0c0,12.36,0,24.87,0,37.23c3.21,0.78,3.37,1.33,2.31,12.48l-0.27,7.55h1.19 c0.88,0,1.68,0.36,2.26,0.94l0,0c0.58,0.58,0.94,1.38,0.94,2.26v5.31c0,0.05-0.01,0.1-0.01,0.15c0.14,0.12,0.28,0.24,0.42,0.37 l4.13,11.81H2.85L2.08,62.89V9.62H0.31C0.14,9.62,0,9.48,0,9.32V7.88C0,7.71,0.14,7.57,0.31,7.57L0.31,7.57z M11.24,64.75 c-0.6-0.43-1.21-0.82-1.82-1.18L11.24,64.75L11.24,64.75z M8.16,62.89l0.15-4.12l0.03,0h1.21c0.47,0,0.89,0.19,1.19,0.49l0,0 c0.3,0.3,0.49,0.73,0.49,1.19v4.29L8.16,62.89L8.16,62.89z M8.16,62.89c0.94-0.34,1.74-0.87,2.17-1.88c0.08,0.97-0.3,1.8-0.91,2.56 L8.16,62.89L8.16,62.89z M92.41,44.79v-6.46c0.29-1.25,0.84-1.62,1.46-1.73C95.53,36.33,95.35,44.4,92.41,44.79L92.41,44.79z M64.98,4.29h18.99c10.48,0,12.91,16.6,15.94,24.96h-4.65c0.04,1.59,0,3.28-0.13,5.1l-1.22,0.76c0.98-0.07,1.68,0.54,2.09,1.58 c0.21,0.52,0.34,1.16,0.39,1.85c0.05,0.65,0.04,1.37-0.04,2.1c-0.29,2.65-1.51,5.41-3.76,5.74c-0.1,0.01-0.2,0.02-0.29,0.01v0.34 c0,0.01,0,0.03,0,0.04c0.23,5.61-3.76,10.12-7.97,13.2c-7.45,5.46-14.9,6.15-22.48-1.69c-2.63-2.71-5.36-5.59-6.15-9.4 c-0.02-0.08-0.03-0.16-0.03-0.24h0v-2.26c-0.12,0.02-0.24,0.02-0.37,0c-2.26-0.33-3.47-3.09-3.76-5.74 c-0.08-0.73-0.09-1.45-0.04-2.1c0.05-0.69,0.18-1.33,0.39-1.85c0.45-1.13,1.22-1.76,2.35-1.55c0.54,0.1,1.03,0.38,1.44,0.85v-0.92 l-0.92-0.52c-0.26-1.72-0.05-3.51,0.52-5.31h-6.12C52.13,20.91,54.52,4.29,64.98,4.29L64.98,4.29z M89.79,29.24H57.97 c-0.21,0.12-0.41,0.24-0.62,0.36v19.03c0.91,4.35,1.49,4.18,4.28,6.91l4.84,4.74c0.87,0.72,1.86,1.14,2.91,1.39 c8.18,1.92,10.99-0.24,16.22-5.33c3.39-3.29,5.16-4.17,4.91-9.63l0-17.19L89.79,29.24L89.79,29.24z M77.5,33.47 c-1.19,0.45-1.44,1.44-0.78,1.81c0.78,0.44,1.76-0.22,2.52-0.46c1.98-0.64,4.35-0.71,6.07,0.37c0.46,0.29,0.92,0.66,1.4,1.11 c-0.18-0.63-0.45-1.2-0.85-1.71C84.14,32.41,79.8,32.28,77.5,33.47L77.5,33.47z M70,33.47c1.19,0.45,1.44,1.44,0.78,1.81 c-0.78,0.44-1.76-0.22-2.52-0.46c-1.98-0.64-4.35-0.71-6.07,0.37c-0.46,0.29-0.92,0.66-1.4,1.11c0.18-0.63,0.45-1.2,0.85-1.71 C63.36,32.41,67.7,32.28,70,33.47L70,33.47z M63.06,38.34c-0.27,0.11-0.57-0.06-0.67-0.37c-0.09-0.31,0.05-0.65,0.33-0.76 c2.11-0.82,4.26-0.77,6.37,0c0.28,0.1,0.43,0.43,0.34,0.75c-0.09,0.31-0.38,0.49-0.66,0.39c-0.35-0.13-0.7-0.23-1.05-0.32 c0.04,0.13,0.05,0.26,0.05,0.4c0,0.81-0.66,1.47-1.47,1.47c-0.81,0-1.47-0.66-1.47-1.47c0-0.2,0.04-0.39,0.11-0.56 C64.32,37.93,63.69,38.09,63.06,38.34L63.06,38.34L63.06,38.34z M80.18,37.9c-0.06,0.16-0.1,0.34-0.1,0.52 c0,0.81,0.66,1.47,1.47,1.47c0.81,0,1.47-0.66,1.47-1.47c0-0.23-0.05-0.45-0.15-0.65c0.64,0.07,1.29,0.21,1.95,0.42 c0.28,0.09,0.57-0.09,0.65-0.41c0.08-0.32-0.08-0.65-0.36-0.74c-1.06-0.35-2.13-0.52-3.19-0.52c-1.06,0-2.11,0.18-3.15,0.52 c-0.28,0.09-0.44,0.42-0.36,0.74s0.37,0.5,0.65,0.41C79.44,38.07,79.81,37.97,80.18,37.9L80.18,37.9L80.18,37.9z M80.48,51.27 c-0.72,0.24-1.46,0.45-2.22,0.62v0c-0.78,0.22-1.51,0.35-2.15,0.36c-0.73,0.02-1.36-0.12-1.86-0.46c-0.15-0.1-0.29-0.21-0.41-0.33 c-0.12,0.12-0.26,0.23-0.41,0.33c-0.5,0.33-1.13,0.47-1.86,0.46c-0.64-0.01-1.36-0.15-2.15-0.36v0c-0.76-0.17-1.5-0.37-2.22-0.62 c-0.72-0.24-1.41-0.52-2.1-0.84c-0.33-0.15-0.46-0.52-0.3-0.83c0.1-0.18,0.28-0.3,0.48-0.33v0c0.36-0.06,0.66-0.1,0.93-0.14l0.02,0 c0.88-0.12,1.56-0.22,2.38-0.55c0.23-0.09,0.46-0.2,0.69-0.3c1.32-0.61,2.76-1.27,4.19-0.13c0.12,0.1,0.24,0.2,0.34,0.31 c0.1-0.11,0.22-0.21,0.34-0.31c1.44-1.14,2.88-0.48,4.19,0.13c0.23,0.11,0.46,0.21,0.69,0.3c0.82,0.33,1.5,0.43,2.38,0.55l0.02,0 c0.27,0.04,0.56,0.08,0.93,0.14l0,0c0.2,0.03,0.38,0.15,0.48,0.33c0.17,0.3,0.03,0.67-0.3,0.83C81.89,50.74,81.2,51.02,80.48,51.27 L80.48,51.27L80.48,51.27z M72.1,45.66c-0.29-0.24-0.33-0.67-0.09-0.96c0.24-0.29,0.67-0.33,0.96-0.09 c0.34,0.29,0.67,0.44,0.98,0.44c0.32,0,0.66-0.14,1.03-0.44c0.29-0.24,0.72-0.2,0.96,0.09c0.24,0.29,0.2,0.72-0.09,0.96 c-0.63,0.52-1.27,0.76-1.91,0.75C73.3,46.41,72.69,46.15,72.1,45.66L72.1,45.66L72.1,45.66z M69.96,54.68 c-0.35-0.19-0.48-0.62-0.3-0.97c0.19-0.35,0.62-0.48,0.97-0.3c1.11,0.59,2.2,0.89,3.27,0.89c1.07,0,2.14-0.29,3.22-0.88 c0.35-0.19,0.78-0.06,0.98,0.28c0.19,0.35,0.06,0.78-0.28,0.98c-1.29,0.71-2.59,1.06-3.91,1.06 C72.58,55.73,71.27,55.38,69.96,54.68L69.96,54.68L69.96,54.68z M55.46,44.79v-6.46c-0.29-1.25-0.84-1.62-1.46-1.73 C52.34,36.33,52.49,44.39,55.46,44.79L55.46,44.79z M2.91,79.28l0.19,3.79l0.18,5.71l17.73-0.03l-3.31-9.47H2.91L2.91,79.28z"/></g></svg>