<?xml version="1.0" encoding="utf-8"?><svg version="1.1" id="Layer_1" xmlns="http://www.w3.org/2000/svg" xmlns:xlink="http://www.w3.org/1999/xlink" x="0px" y="0px" viewBox="0 0 122.88 78.18" style="enable-background:new 0 0 122.88 78.18" xml:space="preserve"><style type="text/css">.st0{fill-rule:evenodd;clip-rule:evenodd;}</style><g><path class="st0" d="M1.92,75.04l-0.03-0.01c-0.95-0.41-1.42-0.71-1.7-1.29c-0.39-0.83-0.16-1.64,0.55-2.19 c0.34-0.26,0.74-0.45,1.18-0.61V9.56H1.74c-0.93,0-1.69-0.76-1.69-1.69V6.09c0-0.32,0.26-0.59,0.58-0.59h1.29V5.08 c0-0.85,0.7-1.55,1.55-1.55h3.61v53.9H5c-0.36,0-0.66,0.29-0.66,0.66c0,0.36,0.29,0.66,0.66,0.66h2.08v1.58H5 c-0.36,0-0.66,0.29-0.66,0.66c0,0.36,0.29,0.66,0.66,0.66h2.08v1.58H5c-0.36,0-0.66,0.3-0.66,0.66c0,0.36,0.29,0.66,0.66,0.66h2.08 v1.58H5c-0.36,0-0.66,0.29-0.66,0.66c0,0.36,0.29,0.66,0.66,0.66h2.08v1.58H5c-0.36,0-0.66,0.3-0.66,0.66 c0,0.36,0.29,0.66,0.66,0.66h2.08v1.58H5c-0.36,0-0.66,0.3-0.66,0.66c0,0.36,0.29,0.66,0.66,0.66h2.08v1.58H5 c-0.36,0-0.66,0.3-0.66,0.66c0,0.36,0.29,0.66,0.66,0.66h2.08v1.97c0,0.02,0,0.04,0,0.07c-0.22,0.01-0.46,0.02-0.71,0.02H3.47 c-0.85,0-1.55-0.7-1.55-1.55V75.04L1.92,75.04L1.92,75.04z M78.34,17.91c-7.47,0.17-15.22,0.86-21.68,2.19l-0.01-0.03 C53.7,6.17,65.92-0.02,78.34,0c12.43-0.02,24.64,6.17,21.69,20.08l-0.01,0.03C93.56,18.78,85.82,18.08,78.34,17.91L78.34,17.91z M77.89,6.82l1.16,2.84l3.06,0.23l-2.34,1.99l0.73,2.98l-2.61-1.62l-2.61,1.62l0.73-2.98l-2.34-1.99l3.06-0.23L77.89,6.82 L77.89,6.82z M46.53,66.98h11.68c0.27,0,0.5,0.22,0.5,0.5v2.69c0,0.27-0.22,0.5-0.5,0.5H46.53c-0.27,0-0.5-0.22-0.5-0.5v-2.69 C46.03,67.2,46.25,66.98,46.53,66.98L46.53,66.98L46.53,66.98z M87.11,46.74c-3.12,2.08-5.03,3.22-9.06,3.12 c-3.93-0.06-5.98-1.39-9.12-3.37C68.69,59.6,87.43,60.38,87.11,46.74L87.11,46.74z M91.78,37.23c0.17-0.58,0.36-1.19,0.58-1.91 c0.08-0.3,0.39-0.52,0.69-0.47c0.91,0.17,1.83-1.16,2.46-2.77c0.36-0.97,0.64-2.02,0.72-2.96c0.08-0.89,0-1.66-0.25-2.13 c-0.25-0.46-0.93-0.19-1.44-0.64c-2.62,6.95-25.45,10.09-34.8,0.53c-0.33,0.53-0.39,1.47-0.28,2.52c0.14,1.11,0.47,2.32,0.97,3.29 c0.58,1.13,1.33,1.91,2.07,1.71c0.3-0.08,0.64,0.08,0.75,0.39c0.22,0.61,0.36,1.08,0.52,1.55C68.63,50.56,87.03,51.67,91.78,37.23 L91.78,37.23L91.78,37.23z M122.88,76.61l-0.52-2c-5.95-26.12-20.24-15.73-32.62-24.41c-0.19-0.16-0.38-0.33-0.56-0.5l-0.15-3.54 c2.24-2.34,4.81-6.59,5.84-9.7c1.28,0,2.38-1.07,3.16-2.59c0.6-1.19,1.01-2.62,1.16-3.99c0.15-1.4,0.03-2.71-0.48-3.55l0.66-3.16 c-6.25-1.29-13.77-1.96-21.04-2.13c-7.27,0.17-14.79,0.84-21.04,2.13l0.66,3.16c-0.51,0.83-0.63,2.15-0.48,3.55 c0.15,1.37,0.57,2.8,1.16,3.99c0.77,1.52,1.88,2.59,3.16,2.59c0.12,0.36,0.27,0.75,0.39,1.13c1.43,3.8,2.54,6.06,5.46,8.8 l-0.15,3.31c-0.18,0.17-0.37,0.34-0.56,0.5c-12.38,8.68-26.67-1.7-32.62,24.41l-0.52,2H122.88L122.88,76.61z M8.4,3.52h0.88 c0.85,0,1.55,0.7,1.55,1.55l1.23,45.8H8.4V3.52L8.4,3.52z M12.21,52.2l0.17,1.59c2.87-0.27,4.79,0.13,5.98,1.83 c1.12,1.6,1.47,4.33,1.24,8.78c0,0.04-0.01,0.08-0.02,0.12l2.91,0.79v12.03c-0.25-0.11-0.52-0.22-0.8-0.36 c-0.97-0.44-1.89-0.95-2.75-1.54c-2.61-1.55-4.9-2.6-6.43-2.71c-3.58-0.25-0.15,4.17-4.1,5.22V52.2h3.74 C12.16,52.2,12.19,52.2,12.21,52.2L12.21,52.2z M23.5,65.59l1.73,0.47c1.45-0.99,2.61-1.23,3.43-0.57 c1.18,0.97,0.88,2.68,0.88,4.04v6.33c-0.15,1.71-1.29,2.38-3.15,2.28c-1.21,0-2.02-0.13-2.89-0.41V65.59L23.5,65.59z M12.51,55.09 l0.41,3.87c0.01,0.42,0.06,0.82,0.13,1.21c0.05-0.02,0.11-0.02,0.17-0.03c0.67-0.02,1.22-0.25,1.61-0.62 c0.42-0.39,0.67-0.92,0.71-1.49c0.02-0.36,0.34-0.64,0.7-0.61c0.36,0.02,0.64,0.33,0.61,0.7c-0.06,0.9-0.46,1.76-1.13,2.38 c-0.57,0.52-1.33,0.88-2.24,0.95c0.63,1.25,1.85,2.15,3.97,2.5l0.84,0.23c0.2-4.05-0.09-6.48-1.01-7.8 C16.42,55.14,14.88,54.87,12.51,55.09L12.51,55.09L12.51,55.09z"/></g></svg>