<?xml version="1.0" encoding="utf-8"?><svg version="1.1" id="Layer_1" xmlns="http://www.w3.org/2000/svg" xmlns:xlink="http://www.w3.org/1999/xlink" x="0px" y="0px" viewBox="0 0 122.88 104.27" style="enable-background:new 0 0 122.88 104.27" xml:space="preserve"><style type="text/css">.st0{fill-rule:evenodd;clip-rule:evenodd;}</style><g><path class="st0" d="M62.01,23.13c-9.64,0.22-19.64,1.11-27.99,2.83l-0.01-0.04C30.2,7.97,45.96-0.02,62.01,0 c16.05-0.02,31.81,7.97,28,25.92L90,25.96C81.65,24.24,71.65,23.34,62.01,23.13L62.01,23.13z M40.5,67.63 c5.83,17.16,36.4,17.79,41.88,0c6.45,5.8,22.42,6.97,29.52,10.92c2.24,1.25,4.27,2.85,5.9,5c2.48,3.27,3.99,7.54,4.41,12.96 l0.67,7.76H0l0.67-7.76c0.41-5.42,1.93-9.69,4.41-12.96c1.63-2.16,3.66-3.75,5.9-5C18.08,74.6,34.05,73.43,40.5,67.63L40.5,67.63z M17.85,90.12L19,92.96l3.05,0.23l-2.33,1.98l0.73,2.97l-2.6-1.61l-2.6,1.61l0.73-2.97l-2.34-1.98l3.05-0.23L17.85,90.12 L17.85,90.12z M93.82,92.22h19.19v3.82H93.82V92.22L93.82,92.22z M41.34,90.12l1.16,2.83l3.05,0.23l-2.33,1.98l0.73,2.97l-2.6-1.61 l-2.6,1.61l0.73-2.97l-2.34-1.98l3.05-0.23L41.34,90.12L41.34,90.12z M29.59,90.12l1.16,2.83l3.05,0.23l-2.33,1.98l0.73,2.97 l-2.6-1.61l-2.6,1.61l0.73-2.97l-2.33-1.98l3.05-0.23L29.59,90.12L29.59,90.12z M67.58,43.58c-1.4,0.53-1.7,1.7-0.92,2.14 c0.92,0.52,2.09-0.26,2.98-0.54c2.35-0.75,5.14-0.84,7.17,0.44c0.54,0.34,1.09,0.78,1.65,1.31c-0.21-0.74-0.53-1.42-1-2.02 C75.43,42.33,70.3,42.18,67.58,43.58L67.58,43.58z M70.74,48.81c-0.07,0.19-0.11,0.4-0.11,0.62c0,0.96,0.78,1.74,1.74,1.74 c0.96,0,1.74-0.78,1.74-1.74c0-0.28-0.06-0.54-0.18-0.77c0.76,0.08,1.53,0.25,2.3,0.5c0.33,0.11,0.67-0.11,0.77-0.49 c0.09-0.38-0.1-0.77-0.43-0.87c-1.26-0.41-2.51-0.61-3.77-0.61c-1.25,0-2.49,0.21-3.72,0.62c-0.33,0.11-0.52,0.5-0.42,0.87 c0.1,0.37,0.44,0.59,0.77,0.48C69.87,49.02,70.31,48.9,70.74,48.81L70.74,48.81L70.74,48.81z M55.31,43.58 c1.4,0.53,1.7,1.7,0.92,2.14c-0.92,0.52-2.09-0.26-2.98-0.54c-2.35-0.75-5.14-0.84-7.17,0.44c-0.54,0.34-1.09,0.78-1.65,1.31 c0.21-0.74,0.53-1.42,1-2.02C47.45,42.33,52.58,42.18,55.31,43.58L55.31,43.58z M47.1,49.34c-0.32,0.13-0.68-0.07-0.79-0.44 c-0.11-0.37,0.06-0.77,0.39-0.9c2.49-0.97,5.03-0.91,7.54,0c0.33,0.12,0.51,0.51,0.4,0.88c-0.1,0.37-0.45,0.58-0.78,0.46 c-0.41-0.15-0.83-0.27-1.24-0.37c0.04,0.15,0.06,0.31,0.06,0.47c0,0.96-0.78,1.74-1.74,1.74c-0.96,0-1.74-0.78-1.74-1.74 c0-0.24,0.05-0.46,0.13-0.67C48.59,48.86,47.85,49.05,47.1,49.34L47.1,49.34L47.1,49.34z M67.97,63.11 c-0.68,0.23-1.39,0.43-2.11,0.59v0c-0.74,0.21-1.43,0.33-2.04,0.34c-0.69,0.01-1.29-0.12-1.77-0.43c-0.15-0.1-0.28-0.2-0.39-0.31 c-0.11,0.11-0.24,0.21-0.39,0.31c-0.48,0.32-1.07,0.45-1.77,0.43c-0.61-0.01-1.29-0.14-2.04-0.34v0c-0.72-0.16-1.43-0.35-2.11-0.59 c-0.68-0.23-1.34-0.5-1.99-0.8c-0.31-0.15-0.44-0.5-0.28-0.78c0.09-0.17,0.27-0.28,0.46-0.31v0c0.35-0.05,0.62-0.09,0.88-0.13 l0.02,0c0.83-0.12,1.48-0.21,2.26-0.52c0.22-0.09,0.43-0.19,0.65-0.29c1.25-0.58,2.62-1.21,3.98-0.13 c0.12,0.09,0.23,0.19,0.32,0.29c0.1-0.1,0.2-0.2,0.32-0.29c1.36-1.08,2.73-0.45,3.98,0.13c0.22,0.1,0.43,0.2,0.65,0.29 c0.78,0.31,1.42,0.4,2.26,0.52l0.02,0c0.26,0.04,0.54,0.07,0.88,0.13l0,0c0.19,0.03,0.37,0.14,0.46,0.31 c0.16,0.29,0.03,0.64-0.28,0.78C69.31,62.61,68.65,62.88,67.97,63.11L67.97,63.11L67.97,63.11z M59.88,57.79 c-0.27-0.23-0.31-0.64-0.08-0.91c0.23-0.27,0.64-0.31,0.91-0.08c0.32,0.27,0.63,0.42,0.93,0.42c0.3,0,0.62-0.13,0.98-0.42 c0.28-0.23,0.68-0.19,0.91,0.09c0.23,0.28,0.19,0.68-0.09,0.91c-0.6,0.49-1.2,0.72-1.81,0.72C61.01,58.5,60.43,58.25,59.88,57.79 L59.88,57.79L59.88,57.79z M57.94,66.35c-0.33-0.18-0.46-0.59-0.28-0.92c0.18-0.33,0.59-0.46,0.92-0.28 c1.05,0.56,2.09,0.84,3.1,0.84c1.02,0,2.03-0.28,3.05-0.84c0.33-0.18,0.74-0.06,0.93,0.27c0.18,0.33,0.06,0.74-0.27,0.93 c-1.22,0.68-2.46,1.01-3.71,1C60.43,67.34,59.18,67.01,57.94,66.35L57.94,66.35L57.94,66.35z M38.5,47.64 c-0.15,0.02-0.31,0.03-0.46,0c-2.83-0.42-4.36-3.88-4.72-7.2c-0.1-0.91-0.12-1.82-0.06-2.63c0.07-0.87,0.23-1.67,0.49-2.33 c0.41-1.02,1.02-1.71,1.86-1.93l-0.76-3.65c8.07-1.66,17.78-2.53,27.16-2.75c9.39,0.22,19.09,1.09,27.16,2.75l-0.82,3.92 c0.53,0.34,0.93,0.91,1.23,1.65c0.26,0.65,0.42,1.45,0.49,2.33c0.06,0.81,0.04,1.72-0.06,2.63c-0.37,3.32-1.89,6.79-4.72,7.2 c-0.16,0.02-0.31,0.02-0.46,0c0,10.63,1.11,10.33-7.76,19.49c-9.55,9.87-21.27,9.87-30.82,0C37.39,57.97,38.5,58.27,38.5,47.64 L38.5,47.64z M40.62,36.49v18.54c1.4,6.73,6.6,9.88,11.44,14.62c4.51,3.72,14.51,3.87,19.2,0c4.84-4.74,10.04-7.89,11.44-14.62 V34.47C79.5,39.49,54.81,42.38,40.62,36.49L40.62,36.49z M85.07,45.64v-8.11c0.37-1.57,1.05-2.03,1.83-2.18 C88.99,35.03,88.79,45.15,85.07,45.64L85.07,45.64z M38.25,45.64v-8.11c-0.37-1.57-1.05-2.03-1.83-2.18 C34.33,35.03,34.53,45.15,38.25,45.64L38.25,45.64z M61.44,4.06l2.29,5.59l6.02,0.45L65.14,14l1.43,5.86l-5.13-3.18l-5.13,3.18 L57.74,14l-4.61-3.9l6.02-0.45L61.44,4.06L61.44,4.06z"/></g></svg>