<svg xmlns="http://www.w3.org/2000/svg" shape-rendering="geometricPrecision" text-rendering="geometricPrecision" image-rendering="optimizeQuality" fill-rule="evenodd" clip-rule="evenodd" viewBox="0 0 512 512"><path d="M256 512c-70.67 0-134.68-28.66-181.02-74.98C28.66 390.69 0 326.68 0 256S28.66 121.31 74.98 74.98C121.32 28.66 185.33 0 256 0c70.68 0 134.69 28.66 181.02 74.98C483.34 121.31 512 185.32 512 256c0 70.67-28.66 134.69-74.98 181.02C390.69 483.34 326.68 512 256 512zm-21.5-160.23v-43.38h-67.93c-7.63 0-13.9-6.27-13.9-13.91V217.5c0-7.62 6.25-13.9 13.9-13.9h67.92v-43.41c0-16.71 19.9-25.11 31.96-14.05l112.05 96.01c9.12 7.54 9.12 21.31.37 29.04l-112.8 94.96c-12.43 10.83-31.55 1.66-31.57-14.38z"/></svg>