<?xml version="1.0" encoding="utf-8"?><svg version="1.1" id="Layer_1" xmlns="http://www.w3.org/2000/svg" xmlns:xlink="http://www.w3.org/1999/xlink" x="0px" y="0px" width="122.88px" height="82.03px" viewBox="0 0 122.88 82.03" enable-background="new 0 0 122.88 82.03" xml:space="preserve"><g><path d="M94.676,14.087H35.127c-9.634,0-18.404,3.818-24.774,9.97C3.965,30.227,0,38.724,0,48.059c0,9.334,3.965,17.831,10.353,24 c6.37,6.152,15.141,9.972,24.774,9.972h66.257V61.069H35.127c-3.744,0-7.134-1.467-9.581-3.83 c-2.429-2.347-3.937-5.596-3.937-9.181c0-3.586,1.508-6.835,3.937-9.181c2.447-2.363,5.837-3.831,9.581-3.831h59.549V49.71 l28.204-24.326L94.676,0V14.087L94.676,14.087z"/></g></svg>