<?xml version="1.0" encoding="utf-8"?><svg version="1.1" id="Layer_1" xmlns="http://www.w3.org/2000/svg" xmlns:xlink="http://www.w3.org/1999/xlink" x="0px" y="0px" width="122.88px" height="122.369px" viewBox="0 0 122.88 122.369" enable-background="new 0 0 122.88 122.369" xml:space="preserve"><g><path d="M24.1,12.037h50.882c8.231,0,15.727,3.263,21.169,8.52c5.458,5.271,8.846,12.531,8.846,20.508 c0,7.976-3.388,15.236-8.846,20.508c-5.442,5.256-12.938,8.52-21.169,8.52H30.255v-0.001h-0.24c-3.199,0-6.096,1.254-8.187,3.272 c-2.076,2.005-3.364,4.781-3.364,7.845c0,3.064,1.288,5.84,3.364,7.845c2.091,2.02,4.988,3.273,8.187,3.273H98.78V79.894 l24.1,21.689l-24.1,20.786v-12.134H30.015c-8.231,0-15.726-3.263-21.169-8.52C3.388,96.444,0,89.185,0,81.208 c0-7.976,3.388-15.236,8.846-20.507c5.443-5.257,12.938-8.52,21.169-8.52h43.521v0h1.446c3.198,0,6.096-1.253,8.187-3.273 c2.075-2.005,3.364-4.781,3.364-7.844c0-3.064-1.289-5.84-3.364-7.845c-2.091-2.02-4.988-3.273-8.187-3.273H24.1v12.529L0,21.69 L24.1,0V12.037L24.1,12.037z"/></g></svg>