<svg xmlns="http://www.w3.org/2000/svg" shape-rendering="geometricPrecision" text-rendering="geometricPrecision" image-rendering="optimizeQuality" fill-rule="evenodd" clip-rule="evenodd" viewBox="0 0 512 512"><path fill-rule="nonzero" d="M27.29 256c0 63.15 25.61 120.34 66.98 161.73C135.65 459.1 192.84 484.7 256 484.7s120.35-25.6 161.73-66.97C459.1 376.34 484.7 319.15 484.7 256c0-63.16-25.6-120.35-66.97-161.73C376.35 52.9 319.16 27.29 256 27.29S135.66 52.9 94.27 94.27C52.9 135.65 27.29 192.84 27.29 256zm229.22-107.08.03 65.43h-86.07v67.86h86.07v65.46c0 1.07.31 1.9.79 2.42.33.35.81.68 1.34.91.46.2 1.04.31 1.67.31a3.5 3.5 0 0 0 2.35-.91l102.74-100.45c.57-.71.88-1.53.88-2.29 0-.85-.29-1.73-.87-2.46-29.19-32.17-70.68-68.1-102.81-99.06-.77-.65-1.56-.95-2.22-.95-.55 0-1.14.14-1.68.38-.48.22-.96.59-1.38 1.07-.54.59-.87 1.4-.84 2.28zm-27.27 38.14v-38.14c.07-7.94 2.97-14.87 7.53-20.13 2.9-3.38 6.59-6.08 10.66-7.95 4.02-1.84 8.47-2.84 12.98-2.84 7 .01 14.11 2.35 20.11 7.58l102.89 99.11c1.14 1.04 2.13 2.08 2.96 3.06 4.81 5.83 7.18 13 7.13 20.12-.08 7.2-2.61 14.37-7.63 20.07-.93 1-1.9 1.97-2.96 2.88l-101.79 99.62c-6.14 5.63-13.55 8.17-20.78 8.17-4.28 0-8.57-.93-12.55-2.67a31.305 31.305 0 0 1-10.5-7.51c-4.91-5.37-8.05-12.49-8.05-20.76V309.5h-59.78c-7.23 0-13.82-2.97-18.56-7.71-4.76-4.82-7.72-11.39-7.72-18.57v-69.88c0-7.18 2.97-13.74 7.72-18.51 4.82-4.8 11.38-7.77 18.56-7.77h59.78zM74.99 437.01C28.66 390.68 0 326.67 0 256c0-70.68 28.66-134.69 74.99-181.01C121.32 28.66 185.33 0 256 0c70.68 0 134.69 28.66 181.01 74.99C483.34 121.31 512 185.32 512 256c0 70.67-28.66 134.68-74.99 181.01C390.69 483.34 326.68 512 256 512c-70.68 0-134.69-28.66-181.01-74.99z"/></svg>