<?xml version="1.0" encoding="utf-8"?><svg version="1.1" id="Layer_1" xmlns="http://www.w3.org/2000/svg" xmlns:xlink="http://www.w3.org/1999/xlink" x="0px" y="0px" width="122.368px" height="122.879px" viewBox="0 0 122.368 122.879" enable-background="new 0 0 122.368 122.879" xml:space="preserve"><g><path d="M12.036,98.779V47.897c0-8.231,3.264-15.726,8.52-21.168c5.271-5.458,12.531-8.846,20.508-8.846s15.236,3.388,20.508,8.846 c5.257,5.442,8.519,12.937,8.519,21.168v44.728l0,0v0.24c0,3.199,1.254,6.096,3.273,8.186c2.004,2.076,4.781,3.365,7.845,3.365 s5.839-1.289,7.845-3.365c2.019-2.09,3.272-4.986,3.272-8.186V24.099H79.893L101.582,0l20.786,24.099h-12.134v68.766 c0,8.232-3.264,15.727-8.52,21.168c-5.271,5.459-12.531,8.846-20.508,8.846c-7.976,0-15.236-3.387-20.507-8.846 c-5.257-5.441-8.52-12.936-8.52-21.168V49.344h0v-1.446c0-3.199-1.253-6.096-3.273-8.187c-2.005-2.076-4.781-3.364-7.845-3.364 c-3.063,0-5.84,1.289-7.845,3.364c-2.019,2.091-3.272,4.987-3.272,8.187v50.881h12.529l-20.786,24.1L0,98.779H12.036L12.036,98.779 L12.036,98.779z"/></g></svg>