<?xml version="1.0" encoding="utf-8"?><svg version="1.1" id="Layer_1" xmlns="http://www.w3.org/2000/svg" xmlns:xlink="http://www.w3.org/1999/xlink" x="0px" y="0px" width="82.03px" height="122.879px" viewBox="0 0 82.03 122.879" enable-background="new 0 0 82.03 122.879" xml:space="preserve"><g><path d="M67.942,28.205v59.548c0,9.634-3.819,18.404-9.971,24.774c-6.169,6.388-14.666,10.352-24,10.352s-17.832-3.964-24-10.352 C3.819,106.157,0,97.387,0,87.753V21.496h20.961v66.257c0,3.743,1.467,7.135,3.83,9.581c2.347,2.429,5.595,3.937,9.181,3.937 c3.585,0,6.834-1.508,9.181-3.937c2.362-2.446,3.83-5.838,3.83-9.581V28.205H32.32L56.646,0L82.03,28.205H67.942L67.942,28.205 L67.942,28.205z"/></g></svg>