<svg xmlns="http://www.w3.org/2000/svg" shape-rendering="geometricPrecision" text-rendering="geometricPrecision" image-rendering="optimizeQuality" fill-rule="evenodd" clip-rule="evenodd" viewBox="0 0 512 512"><path fill-rule="nonzero" d="M512 256c0 70.67-28.66 134.68-74.98 181.02C390.68 483.34 326.67 512 256 512c-70.68 0-134.69-28.66-181.02-74.98C28.66 390.68 0 326.67 0 256c0-70.68 28.66-134.69 74.98-181.02C121.31 28.66 185.32 0 256 0c70.67 0 134.68 28.66 181.02 74.98C483.34 121.31 512 185.32 512 256zm-156.63 31.39-38.15.02v59.79c0 7.17-2.96 13.73-7.72 18.5-4.82 4.81-11.39 7.78-18.56 7.78h-69.88c-7.19 0-13.75-2.97-18.52-7.72-4.79-4.75-7.76-11.34-7.76-18.56v-59.79h-38.16c-8.28 0-15.41-3.14-20.76-8.04-3.26-2.98-5.81-6.6-7.52-10.51-1.74-3.98-2.67-8.27-2.67-12.54 0-7.24 2.54-14.66 8.17-20.79l99.62-101.79c.91-1.05 1.88-2.03 2.89-2.9 5.69-5.07 12.86-7.61 20.06-7.68 7.11-.06 14.29 2.3 20.06 7.08 1.04.87 2.08 1.87 3.12 3.01l99.12 102.89c5.22 5.99 7.56 13.1 7.57 20.11.01 4.5-1 8.95-2.84 12.97-1.87 4.08-4.57 7.76-7.9 10.66-5.31 4.57-12.24 7.47-20.17 7.51zm-51.8-27.27h51.8c.88.06 1.69-.28 2.29-.79.46-.44.83-.93 1.05-1.4.24-.54.39-1.14.39-1.68 0-.67-.31-1.45-.97-2.21-30.94-32.14-66.89-73.64-99.05-102.83-.72-.57-1.6-.87-2.46-.87-.76 0-1.58.31-2.26.91-32.96 29.9-68.67 70.22-100.47 102.71-.63.69-.92 1.54-.92 2.36 0 .63.11 1.21.31 1.67.23.54.56 1.01.91 1.33.53.49 1.36.8 2.43.8h65.45v86.06h67.86v-86.06h13.64zm114.16 157.61c41.37-41.39 66.98-98.58 66.98-161.73 0-63.16-25.61-120.35-66.98-161.73C376.34 52.89 319.15 27.29 256 27.29c-63.16 0-120.35 25.6-161.73 66.98C52.89 135.65 27.29 192.84 27.29 256c0 63.15 25.6 120.34 66.98 161.73 41.38 41.37 98.57 66.98 161.73 66.98 63.15 0 120.34-25.61 161.73-66.98z"/></svg>