<?xml version="1.0" encoding="utf-8"?><svg version="1.1" id="Layer_1" xmlns="http://www.w3.org/2000/svg" xmlns:xlink="http://www.w3.org/1999/xlink" x="0px" y="0px" width="122.879px" height="117.041px" viewBox="0 0 122.879 117.041" enable-background="new 0 0 122.879 117.041" xml:space="preserve"><g><path d="M13.417,90.176V33.458c0-9.176,3.638-17.53,9.497-23.597C28.791,3.777,36.883,0,45.774,0s16.983,3.777,22.86,9.86 c5.859,6.067,9.496,14.421,9.496,23.597v49.859l0,0v0.266c0,3.566,1.396,6.795,3.648,9.127c2.234,2.313,5.328,3.75,8.744,3.75 c3.414,0,6.51-1.438,8.744-3.75c2.25-2.332,3.648-5.561,3.648-9.127V6.801h19.963v76.781c0,9.176-3.637,17.531-9.496,23.598 c-5.875,6.084-13.969,9.861-22.859,9.861c-8.893,0-16.984-3.777-22.859-9.861c-5.861-6.066-9.498-14.422-9.498-23.598V35.069l0,0 v-1.611c0-3.566-1.397-6.795-3.647-9.126c-2.235-2.313-5.33-3.75-8.745-3.75s-6.51,1.437-8.745,3.75 c-2.25,2.331-3.648,5.56-3.648,9.126v56.718h13.966l-23.17,26.863L0,90.176H13.417L13.417,90.176z"/></g></svg>