<?xml version="1.0" encoding="utf-8"?><svg version="1.1" id="Layer_1" xmlns="http://www.w3.org/2000/svg" xmlns:xlink="http://www.w3.org/1999/xlink" x="0px" y="0px" width="82.029px" height="122.881px" viewBox="0 0 82.029 122.881" enable-background="new 0 0 82.029 122.881" xml:space="preserve"><g><path d="M67.942,94.676V35.126c0-9.634-3.818-18.404-9.971-24.774C51.803,3.965,43.306,0,33.971,0c-9.335,0-17.832,3.965-24,10.352 C3.818,16.722,0,25.493,0,35.126v66.258h20.96V35.126c0-3.743,1.467-7.134,3.831-9.581c2.346-2.429,5.595-3.937,9.181-3.937 c3.585,0,6.834,1.508,9.18,3.937c2.363,2.447,3.83,5.837,3.83,9.581v59.549H32.319l24.326,28.205l25.384-28.205H67.942 L67.942,94.676z"/></g></svg>