<?xml version="1.0" encoding="utf-8"?><svg version="1.1" id="Layer_1" xmlns="http://www.w3.org/2000/svg" xmlns:xlink="http://www.w3.org/1999/xlink" x="0px" y="0px" width="117.04px" height="122.88px" viewBox="0 0 117.04 122.88" enable-background="new 0 0 117.04 122.88" xml:space="preserve"><g><path d="M90.177,13.417H33.458c-9.176,0-17.53,3.638-23.597,9.497C3.777,28.79,0,36.883,0,45.774c0,8.891,3.777,16.983,9.86,22.859 c6.067,5.86,14.421,9.497,23.597,9.497h49.858V78.13h0.268c3.566,0,6.795,1.397,9.126,3.648c2.313,2.234,3.75,5.329,3.75,8.744 s-1.437,6.51-3.75,8.745c-2.331,2.25-5.56,3.647-9.126,3.647H6.801v19.965h76.782c9.176,0,17.53-3.638,23.598-9.497 c6.083-5.876,9.859-13.969,9.859-22.86c0-8.891-3.776-16.983-9.859-22.859c-6.067-5.86-14.422-9.497-23.598-9.497H35.069v0h-1.612 c-3.566,0-6.795-1.397-9.125-3.648c-2.313-2.234-3.75-5.33-3.75-8.744c0-3.416,1.437-6.51,3.75-8.745 c2.331-2.25,5.56-3.647,9.125-3.647h56.719v13.966l26.863-23.17L90.177,0V13.417L90.177,13.417z"/></g></svg>