<?xml version="1.0" encoding="utf-8"?><svg version="1.1" id="Layer_1" xmlns="http://www.w3.org/2000/svg" xmlns:xlink="http://www.w3.org/1999/xlink" x="0px" y="0px" width="117.04px" height="122.88px" viewBox="0 0 117.04 122.88" enable-background="new 0 0 117.04 122.88" xml:space="preserve"><g><path d="M26.864,13.417h56.719c9.176,0,17.53,3.638,23.598,9.497c6.083,5.876,9.859,13.969,9.859,22.86 c0,8.891-3.776,16.983-9.859,22.859c-6.067,5.86-14.422,9.497-23.598,9.497H33.725V78.13h-0.267c-3.566,0-6.795,1.397-9.125,3.648 c-2.313,2.234-3.75,5.329-3.75,8.744s1.437,6.51,3.75,8.745c2.331,2.25,5.56,3.647,9.125,3.647h76.782v19.965H33.458 c-9.176,0-17.53-3.638-23.597-9.497C3.777,107.507,0,99.414,0,90.522c0-8.891,3.777-16.983,9.86-22.859 c6.067-5.86,14.421-9.497,23.597-9.497h48.514v0h1.611c3.566,0,6.795-1.397,9.126-3.648c2.313-2.234,3.75-5.33,3.75-8.744 c0-3.416-1.437-6.51-3.75-8.745c-2.331-2.25-5.56-3.647-9.126-3.647H26.864v13.966L0,24.177L26.864,0V13.417L26.864,13.417z"/></g></svg>