<?xml version="1.0" encoding="utf-8"?><svg version="1.1" id="Layer_1" xmlns="http://www.w3.org/2000/svg" xmlns:xlink="http://www.w3.org/1999/xlink" x="0px" y="0px" width="82.03px" height="122.88px" viewBox="0 0 82.03 122.88" enable-background="new 0 0 82.03 122.88" xml:space="preserve"><g><path d="M14.087,28.204v59.549c0,9.634,3.819,18.405,9.971,24.774c6.169,6.388,14.666,10.353,24,10.353 c9.335,0,17.831-3.965,24-10.353c6.152-6.369,9.972-15.141,9.972-24.774V21.496H61.069v66.257c0,3.743-1.467,7.135-3.83,9.581 c-2.347,2.429-5.596,3.937-9.181,3.937s-6.835-1.508-9.181-3.937c-2.363-2.446-3.83-5.838-3.83-9.581V28.204H49.71L25.384,0 L0,28.204H14.087L14.087,28.204L14.087,28.204z"/></g></svg>