<?xml version="1.0" encoding="utf-8"?><svg version="1.1" id="Layer_1" xmlns="http://www.w3.org/2000/svg" xmlns:xlink="http://www.w3.org/1999/xlink" x="0px" y="0px" viewBox="0 0 122.88 77.03" style="enable-background:new 0 0 122.88 77.03" xml:space="preserve"><g><path d="M13.62,0h95.65c3.75,0,7.15,1.53,9.62,4l0.14,0.15c2.38,2.46,3.86,5.8,3.86,9.46v34.37c0,3.74-1.52,7.18-4,9.67 c-2.45,2.47-5.84,4.01-9.62,4.01H25.01L4.05,76.56c-1.15,0.82-2.75,0.55-3.57-0.6c-0.32-0.45-0.47-0.97-0.47-1.48H0V13.62 c0-3.73,1.53-7.14,4-9.61l0.02-0.02C6.48,1.53,9.88,0,13.62,0L13.62,0z M84.99,15.4h7.64c2.07,0,3.65,0.16,4.76,0.49 c1.11,0.33,1.94,0.79,2.5,1.4c0.56,0.61,0.93,1.36,1.14,2.22c0.2,0.87,0.3,2.22,0.3,4.04v2.54c0,1.86-0.19,3.21-0.58,4.06 c-0.38,0.85-1.09,1.51-2.11,1.97c-1.03,0.45-2.37,0.68-4.02,0.68h-2.03v11.76h-7.6V15.4L84.99,15.4z M92.59,20.38v7.43 c0.21,0.01,0.4,0.02,0.55,0.02c0.69,0,1.17-0.17,1.44-0.52c0.26-0.34,0.4-1.05,0.4-2.13v-2.4c0-1-0.15-1.65-0.47-1.95 C94.21,20.53,93.57,20.38,92.59,20.38L92.59,20.38z M79.35,15.4l4.34,29.17h-7.75l-0.41-5.24h-2.73l-0.41,5.24h-7.85l3.85-29.17 H79.35L79.35,15.4z M75.32,34.17c-0.36-3.31-0.74-7.4-1.15-12.29c-0.75,5.61-1.22,9.7-1.43,12.29H75.32L75.32,34.17z M63.23,24.25 h-7.04v-2.16c0-1.01-0.09-1.65-0.27-1.93c-0.18-0.28-0.47-0.41-0.89-0.41c-0.45,0-0.8,0.18-1.03,0.56 c-0.23,0.37-0.35,0.93-0.35,1.68c0,0.97,0.14,1.7,0.4,2.19c0.26,0.49,0.97,1.08,2.15,1.78c3.36,2.01,5.48,3.66,6.35,4.95 c0.88,1.28,1.32,3.36,1.32,6.21c0,2.08-0.25,3.61-0.73,4.6c-0.49,0.98-1.42,1.81-2.82,2.47c-1.39,0.67-3.01,1-4.86,1 c-2.03,0-3.75-0.39-5.19-1.16c-1.43-0.77-2.37-1.75-2.81-2.93c-0.44-1.19-0.66-2.88-0.66-5.06v-1.91h7.04v3.55 c0,1.09,0.1,1.79,0.3,2.11s0.55,0.47,1.05,0.47c0.5,0,0.88-0.2,1.12-0.6c0.25-0.39,0.37-0.98,0.37-1.76c0-1.71-0.23-2.84-0.7-3.36 c-0.49-0.53-1.67-1.41-3.55-2.65c-1.88-1.25-3.12-2.16-3.74-2.72c-0.61-0.57-1.12-1.35-1.52-2.34c-0.4-1-0.6-2.27-0.6-3.82 c0-2.23,0.28-3.87,0.85-4.9c0.57-1.03,1.49-1.84,2.76-2.42c1.27-0.58,2.8-0.87,4.6-0.87c1.97,0,3.64,0.32,5.03,0.95 c1.38,0.64,2.3,1.44,2.75,2.41c0.45,0.97,0.68,2.61,0.68,4.92V24.25L63.23,24.25z M41.55,15.4l4.34,29.17h-7.75l-0.41-5.24h-2.73 l-0.41,5.24h-7.85l3.85-29.17H41.55L41.55,15.4z M37.52,34.17c-0.36-3.31-0.74-7.4-1.15-12.29c-0.75,5.61-1.22,9.7-1.43,12.29 H37.52L37.52,34.17z M109.26,5.14H13.62c-2.34,0-4.46,0.95-5.99,2.48L7.62,7.63c-1.53,1.53-2.48,3.65-2.48,5.99v55.89l17.43-12.39 c0.45-0.37,1.02-0.59,1.64-0.59h85.06c2.36,0,4.47-0.95,5.99-2.48c1.54-1.55,2.49-3.7,2.49-6.05V13.62c0-2.27-0.91-4.35-2.38-5.88 l-0.12-0.11C113.71,6.09,111.59,5.14,109.26,5.14L109.26,5.14z"/></g></svg>