<?xml version="1.0" encoding="utf-8"?><svg version="1.1" id="Layer_1" xmlns="http://www.w3.org/2000/svg" xmlns:xlink="http://www.w3.org/1999/xlink" x="0px" y="0px" viewBox="0 0 122.88 76.92" style="enable-background:new 0 0 122.88 76.92" xml:space="preserve"><style type="text/css">.st0{fill-rule:evenodd;clip-rule:evenodd;}</style><g><path class="st0" d="M13.49,0h95.9c7.42,0,13.49,6.09,13.49,13.49v34.46c0,3.71-1.5,7.11-3.96,9.58c-2.43,2.44-5.79,3.97-9.53,3.97 H24.87L3.81,76.47c-1.08,0.77-2.58,0.52-3.35-0.56c-0.3-0.42-0.45-0.91-0.45-1.39H0V13.49C0,6.07,6.07,0,13.49,0L13.49,0z M41.5,15.26l4.35,29.25h-7.77l-0.41-5.25h-2.74l-0.41,5.25h-7.87l3.86-29.25H41.5L41.5,15.26z M37.47,34.08 c-0.36-3.32-0.75-7.42-1.15-12.32c-0.75,5.62-1.23,9.73-1.43,12.32H37.47L37.47,34.08z M63.25,24.14h-7.06v-2.16 c0-1.01-0.09-1.66-0.27-1.94c-0.18-0.28-0.47-0.41-0.89-0.41c-0.46,0-0.8,0.18-1.04,0.56c-0.23,0.37-0.35,0.93-0.35,1.69 c0,0.97,0.14,1.71,0.4,2.2c0.26,0.49,0.97,1.08,2.15,1.79c3.37,2.02,5.5,3.67,6.37,4.96c0.88,1.29,1.32,3.36,1.32,6.22 c0,2.08-0.25,3.62-0.73,4.61c-0.49,0.99-1.42,1.81-2.82,2.48c-1.39,0.67-3.01,1-4.87,1c-2.03,0-3.77-0.39-5.21-1.16 c-1.44-0.77-2.37-1.75-2.82-2.94c-0.44-1.2-0.67-2.89-0.67-5.08v-1.92h7.06v3.56c0,1.1,0.1,1.8,0.3,2.11 c0.2,0.31,0.55,0.47,1.05,0.47c0.51,0,0.88-0.2,1.13-0.6c0.25-0.39,0.37-0.99,0.37-1.76c0-1.72-0.23-2.85-0.7-3.37 c-0.49-0.53-1.67-1.42-3.56-2.66c-1.89-1.25-3.13-2.16-3.75-2.73c-0.61-0.57-1.12-1.35-1.52-2.35c-0.4-1-0.6-2.27-0.6-3.83 c0-2.24,0.28-3.88,0.86-4.91c0.57-1.04,1.49-1.84,2.77-2.43c1.28-0.59,2.81-0.88,4.62-0.88c1.97,0,3.65,0.32,5.04,0.96 c1.39,0.64,2.31,1.44,2.75,2.42c0.45,0.97,0.68,2.61,0.68,4.94V24.14L63.25,24.14z M79.41,15.26l4.35,29.25h-7.77l-0.41-5.25h-2.74 l-0.41,5.25h-7.87l3.86-29.25H79.41L79.41,15.26z M75.37,34.08c-0.36-3.32-0.75-7.42-1.15-12.32c-0.75,5.62-1.23,9.73-1.43,12.32 H75.37L75.37,34.08z M85.07,15.26h7.66c2.07,0,3.66,0.16,4.78,0.49c1.11,0.33,1.95,0.8,2.51,1.41c0.56,0.62,0.94,1.36,1.14,2.23 c0.2,0.88,0.3,2.23,0.3,4.06v2.55c0,1.86-0.19,3.22-0.58,4.07c-0.38,0.86-1.09,1.52-2.11,1.97c-1.03,0.46-2.37,0.68-4.03,0.68 h-2.04v11.8h-7.62V15.26L85.07,15.26z M92.68,20.25v7.45c0.22,0.01,0.4,0.02,0.55,0.02c0.7,0,1.18-0.17,1.45-0.52 c0.27-0.34,0.4-1.05,0.4-2.14v-2.41c0-1-0.15-1.65-0.47-1.95C94.31,20.4,93.66,20.25,92.68,20.25L92.68,20.25z"/></g></svg>