<svg id="Layer_1" data-name="Layer 1" xmlns="http://www.w3.org/2000/svg" viewBox="0 0 122.88 109.03"><defs><style>.cls-1{fill-rule:evenodd;}.cls-2{fill:#ff4141;}</style></defs><title>ask</title><path class="cls-1" d="M12.2,0h98.48a12.22,12.22,0,0,1,12.2,12.2v56a12.22,12.22,0,0,1-12.2,12.2l-19.23,0a19.53,19.53,0,0,0,.72-2.4h0a27.32,27.32,0,0,0,.54-3h16.17a8.11,8.11,0,0,0,8.08-8.09V14a8.11,8.11,0,0,0-8.08-8.08H13.11C8.66,5.94,5.94,9.58,5.94,14V66.84A8.11,8.11,0,0,0,14,74.93h2.51a2.06,2.06,0,0,1,1.91,2.19l-.19,10.46L31.54,75.52A2,2,0,0,1,33,74.93h4.64l0,.1a24.28,24.28,0,0,0,2.26,5.24H35.1L16.58,96.33a2,2,0,0,1-2.89-.23,2,2,0,0,1-.49-1.46L12.36,80.4H12.2A12.23,12.23,0,0,1,0,68.21v-56A12.22,12.22,0,0,1,12.2,0ZM35.73,46.55A1.62,1.62,0,0,1,34.6,48a12.15,12.15,0,0,1-3.82.41,18,18,0,0,1-4.6-.5c-1.23-.34-1.84-.77-1.84-1.29s1.1-4.4,3.31-11.41,3.48-11.06,3.8-12.13c.12-.32,1.12-.58,3-.8a54.21,54.21,0,0,1,6-.31c2.15,0,3.33.37,3.56,1.11q7,23.4,7,23.77a1,1,0,0,1-.45.74c-.7.55-2.07.82-4.13.82-4.4,0-6.64-.52-6.74-1.56l-.27-2.43H35.92l-.19,2.09Zm3-9.16-.56-6.7h-.81l-.64,6.7ZM63.3,48.79q-6.18,0-9-1.2c-1-.42-1.45-.83-1.45-1.22a9.26,9.26,0,0,1,.89-3.58c.6-1.37,1.12-2,1.57-2a12.9,12.9,0,0,1,2.51.82,10.41,10.41,0,0,0,3.61.82,6.13,6.13,0,0,0,1.94-.19.7.7,0,0,0,.47-.72c0-.36-.25-.65-.75-.86a6.71,6.71,0,0,0-1.86-.43,15.33,15.33,0,0,1-2.4-.44,14.57,14.57,0,0,1-2.41-.86,4.45,4.45,0,0,1-1.86-1.73,5,5,0,0,1-.74-2.61c0-.93,0-1.63.07-2.09a7.47,7.47,0,0,1,.62-1.93,5.21,5.21,0,0,1,1.52-2A9.75,9.75,0,0,1,59,27.07a15.86,15.86,0,0,1,4.63-.63c1.72,0,3.15.06,4.31.17A17.09,17.09,0,0,1,70.7,27a8.07,8.07,0,0,1,1.62.59c.71.37,1.08.78,1.08,1.23a7.1,7.1,0,0,1-1.05,3.35c-.69,1.27-1.25,1.9-1.65,1.9A12.19,12.19,0,0,1,68,33.46a11.39,11.39,0,0,0-3-.65c-1,0-1.57.3-1.57.89,0,.37.36.65,1.06.84s1.56.38,2.55.58a22.36,22.36,0,0,1,3,.83,5.6,5.6,0,0,1,2.57,2,5.79,5.79,0,0,1,1.06,3.58q0,7.29-10.39,7.3Zm23.1-1.23c0,.27-.69.49-2.08.65a38.22,38.22,0,0,1-4.36.24,13.31,13.31,0,0,1-2.94-.2c-.45-.14-.67-.37-.67-.69V21.78c0-.54.7-1.08,2.1-1.6A12.91,12.91,0,0,1,83,19.4q3.42,0,3.42,1.71V35h.49c1.19-5.68,2.07-8.53,2.64-8.53a17.25,17.25,0,0,1,5.22,1c2,.67,3,1.41,3,2.23a9.17,9.17,0,0,1-1.49,3.43,20.08,20.08,0,0,1-3.09,4.13q5.32,6.38,5.32,7.57c0,.74-1.13,1.65-3.39,2.71a13.63,13.63,0,0,1-4.76,1.61c-.45,0-.92-.55-1.42-1.62a32.4,32.4,0,0,1-1.6-4.87l-1,1.16v3.69Z"/><path class="cls-2" d="M49.78,77.07q-2,0-3.43-4.71a30.71,30.71,0,0,1-1.45-9c0-.66.73-1.4,2.2-2.23a24.88,24.88,0,0,1,6.64-2.19,46,46,0,0,1,9.69-1q20.29,0,20.29,14.15a13.84,13.84,0,0,1-1.66,7,10.94,10.94,0,0,1-4,4.28,19,19,0,0,1-8.7,2.69l-1.63.07a13.41,13.41,0,0,0,.36,2.47,15.36,15.36,0,0,1,.35,3c0,.76-1.28,1.34-3.85,1.74a44.32,44.32,0,0,1-6.69.6q-4.3,0-5.33-2.12t-1-9q0-1.64,6.08-2.41a11.27,11.27,0,0,0,4.14-1.48,3.49,3.49,0,0,0,1.87-3.12c0-1.32-1.06-2-3.18-2a15.9,15.9,0,0,0-6.68,1.62,21,21,0,0,1-4,1.63ZM60.88,96.3a17.25,17.25,0,0,1,7.36,1.24c1.7.82,2.54,2.53,2.54,5.13q0,6.36-9.9,6.36T51,102.67q0-6.37,9.9-6.37Z"/></svg>