<svg id="Layer_1" data-name="Layer 1" xmlns="http://www.w3.org/2000/svg" viewBox="0 0 106.58 122.88"><title>assumption</title><path d="M21.56,91.09a1.85,1.85,0,1,1,1.61,3.34,10.09,10.09,0,0,1-5.53.83,18.85,18.85,0,0,1-3.52-.75c.05.48.1.95.16,1.43.18,1.34.42,2.72.73,4.13a1.88,1.88,0,0,1-.23,1.38,14.72,14.72,0,0,0-1.67,5.33,4.33,4.33,0,0,0,1.11,3.48,7.68,7.68,0,0,0,4.06,1.84,29.79,29.79,0,0,0,10.36-.34,65.86,65.86,0,0,0,11.85-3.26,32,32,0,0,0,8.3-4.5c2.18-1.74,3.18-4.59,4-7,.18-.51.35-1,.43-1.2l.25-.67c1.07-2.94,2.93-8,5.34-9.9a1.86,1.86,0,1,1,2.27,3c-1.56,1.2-3.18,5.65-4.12,8.23-.19.53-.15.43-.25.69-.2.54-.31.84-.41,1.14-1,2.91-2.21,6.31-5.23,8.72a35.61,35.61,0,0,1-9.27,5c-.79.31-1.6.6-2.41.87a29.69,29.69,0,0,1-.13,3.65,30,30,0,0,1-.91,5,1.86,1.86,0,0,1-3.6-1,27.26,27.26,0,0,0,.81-4.39c.07-.72.11-1.44.12-2.17-2.19.6-4.37,1.08-6.41,1.45a33.47,33.47,0,0,1-11.7.34,11.24,11.24,0,0,1-6-2.88,7.89,7.89,0,0,1-2.17-6.32,17.58,17.58,0,0,1,1.84-6.3c-.25-1.23-.47-2.5-.64-3.82-.19-1.47-.32-3-.38-4.45a.76.76,0,0,1,0-.16l0-.18c-.27-2.81-.3-5.55-.34-8.32V82.7l-4.3-.25h0a5.76,5.76,0,0,1-3-.92,5.34,5.34,0,0,1-1.9-2.15,6.74,6.74,0,0,1-.61-3,9.4,9.4,0,0,1,1.62-4.85l4.6-9.41c2.26-4.61,2.23-5.22,2.14-7.64,0-1.09-.1-2.48,0-4.57a34.89,34.89,0,0,1,.9-7.09,23.89,23.89,0,0,1,1.55-4.5L2.41,34.71a1.86,1.86,0,0,1-1-2.45,3.07,3.07,0,0,1,.2-.36h0c20-27.26,42.58-34.75,61.69-31A52.88,52.88,0,0,1,92,17.4a55.62,55.62,0,0,1,14.15,29.51C108.6,64.81,101.41,84,79.28,97a1.68,1.68,0,0,1-.6.22,67.73,67.73,0,0,0,.49,7.91,61.56,61.56,0,0,0,3.48,14.27,1.86,1.86,0,0,1-3.49,1.31,64.92,64.92,0,0,1-3.7-15.13,76,76,0,0,1-.08-17,1.86,1.86,0,1,1,3.7.38c-.14,1.36-.24,2.7-.31,4,19.53-12,25.89-29.36,23.65-45.5a51.8,51.8,0,0,0-13.2-27.51A49.28,49.28,0,0,0,62.63,4.56c-17.37-3.41-38,3.33-56.58,27.68l8,3.47A1.85,1.85,0,0,1,15,38.42a18.62,18.62,0,0,0-2.12,5.31,31.86,31.86,0,0,0-.8,6.34c-.06,2,0,3.28,0,4.31.13,3.16.16,3.95-2.51,9.42L4.93,73.24a1.91,1.91,0,0,1-.15.28,5.85,5.85,0,0,0-1.08,3,2.51,2.51,0,0,0,.23,1.18,1.64,1.64,0,0,0,.59.68,2.1,2.1,0,0,0,1.06.32h.15l5.33.31a1.61,1.61,0,0,1,.54-.09h.19l4.91.42A1.86,1.86,0,1,1,16.39,83h-.1l-2.77-.16v.38c0,2.42.06,4.81.26,7.22A16.53,16.53,0,0,0,18,91.54a6.52,6.52,0,0,0,3.56-.45ZM67.42,40.31a20.2,20.2,0,0,1,6.26,7l.16.29-.16.29A20.11,20.11,0,0,1,67.42,55a14.08,14.08,0,0,1-16.19,0A20,20,0,0,1,45,47.94l-.16-.29.16-.29a20.17,20.17,0,0,1,6.25-7,14.14,14.14,0,0,1,16.2,0ZM59.17,43l1,.1a3.24,3.24,0,0,0-.54,1.81,3.15,3.15,0,0,0,3.09,3.2,3,3,0,0,0,1.51-.41c0,.11,0,.22,0,.34a5,5,0,1,1-5-5Zm11.39,4.66a16.19,16.19,0,0,0-4.91-5.46,11,11,0,0,0-12.65,0,16.19,16.19,0,0,0-4.91,5.46A16.19,16.19,0,0,0,53,53.11a11,11,0,0,0,12.65,0,16.19,16.19,0,0,0,4.91-5.46ZM36.26,30.77l-.17.24c-.2.29-.39.59-.57.88s-.37.61-.55,1h0a27.07,27.07,0,0,0-1.75,3.74,28.74,28.74,0,0,0-1.18,4,27.41,27.41,0,0,0-.52,8.21,26.47,26.47,0,0,0,1.93,7.93,26.39,26.39,0,0,0,1.85,3.63,25.57,25.57,0,0,0,2.39,3.32c.33.4.66.78,1,1.14s.66.7,1,1,.72.7,1.08,1,.72.63,1.1.94a27.64,27.64,0,0,0,2.79,2,26,26,0,0,0,3,1.62,26.64,26.64,0,0,0,3.13,1.22,24.26,24.26,0,0,0,3.23.82l.11,0V69.83l-.07,0a22.69,22.69,0,0,1-2.65-.74,23.5,23.5,0,0,1-2.52-1h0a24.13,24.13,0,0,1-2.43-1.35A27.07,27.07,0,0,1,44.11,65q-.53-.42-1-.84c-.33-.29-.65-.59-.95-.88s-.62-.62-.91-.94-.58-.64-.85-1l0,0a23.67,23.67,0,0,1-2.07-2.87A23.3,23.3,0,0,1,35.63,52a23.57,23.57,0,0,1-.58-3.51,24.4,24.4,0,0,1,.45-7.16,25,25,0,0,1,1-3.46,23.09,23.09,0,0,1,1.53-3.27c.18-.33.36-.62.52-.89l.54-.81a.62.62,0,0,1,1.13.33c.06,1.56.06,3.23.17,4.77a1.83,1.83,0,0,0,.16.67,2,2,0,0,0,.37.53l0,0a1.94,1.94,0,0,0,.58.36,1.85,1.85,0,0,0,.63.11h.09a1.68,1.68,0,0,0,.65-.15,1.8,1.8,0,0,0,.53-.37l0,0a1.66,1.66,0,0,0,.36-.58,1.71,1.71,0,0,0,.11-.68l-.18-5.39-.21-5.39a1.69,1.69,0,0,0-.16-.67,1.8,1.8,0,0,0-.37-.53l0,0a1.83,1.83,0,0,0-.58-.36,2,2,0,0,0-.66-.11c-3,.12-7.54,1.05-10.64,1.49a1.78,1.78,0,0,0-.66.22,1.79,1.79,0,0,0-.52.47,1.7,1.7,0,0,0-.3.62,1.75,1.75,0,0,0,0,.69,1.58,1.58,0,0,0,.23.65,1.66,1.66,0,0,0,.46.53,1.88,1.88,0,0,0,.62.3,1.77,1.77,0,0,0,.69,0l4-.57a.62.62,0,0,1,.6,1Zm30.09,42a24.68,24.68,0,0,0,2.84-1,27.3,27.3,0,0,0,2.72-1.33,28.62,28.62,0,0,0,2.58-1.64l.09-.07L72,66.2l-.07,0c-.66.45-1.34.86-2,1.24s-1.39.71-2.11,1a20.93,20.93,0,0,1-2.21.8,20.45,20.45,0,0,1-2.21.57l-.1,0v3.61l.11,0a29.46,29.46,0,0,0,2.92-.69ZM82.82,59.6a26.79,26.79,0,0,0,1.32-2.69l0,0a29.13,29.13,0,0,0,1-2.84,26.84,26.84,0,0,0,.68-3l0-.12h-3.6V51c-.16.76-.35,1.52-.58,2.28a21.46,21.46,0,0,1-.81,2.2,22.06,22.06,0,0,1-2.27,4.12l0,.07,2.55,2.54.06-.09a26.42,26.42,0,0,0,1.65-2.56Zm2.72-19.12c-.09-.39-.19-.78-.29-1.16s-.22-.74-.35-1.15-.26-.78-.4-1.13c-.2-.56-.44-1.13-.69-1.71s-.51-1.11-.79-1.67-.58-1.1-.88-1.59-.61-1-1-1.52l-.07-.1L78.57,33l0,.06q.38.59.72,1.2l0,0c.23.41.45.84.67,1.28s.43.89.62,1.34.39.93.55,1.37.38,1.1.56,1.69.32,1.17.45,1.78h3.6l0-.11c-.06-.37-.14-.76-.24-1.16Zm-12.87-18c-.67-.39-1.37-.75-2.09-1.08s-1.43-.61-2.17-.87h0c-.74-.26-1.5-.48-2.27-.67l-1-.23a25,25,0,0,0-3.1-.4c-.37,0-.72,0-1.05,0H59.82c-.34,0-.7,0-1.08,0h0q-.55,0-1.11.09a1.84,1.84,0,0,0-.65.21,1.8,1.8,0,0,0-.54.45,1.75,1.75,0,0,0-.31.59v0a2,2,0,0,0-.06.69,1.85,1.85,0,0,0,.19.63l0,0a1.86,1.86,0,0,0,1,.85h0a1.74,1.74,0,0,0,.65.07l1-.09.93-.05h.92c.63,0,1.17.06,1.8.12s1.17.16,1.78.27l.87.19c.63.15,1.23.33,1.83.53s1.19.43,1.74.67,1.13.54,1.69.84,1,.62,1.56,1l.1.07,2.55-2.55-.1-.06c-.64-.46-1.3-.89-2-1.28Zm8,16.25Z"/></svg>