<?xml version="1.0" encoding="utf-8"?><svg version="1.1" id="Layer_1" xmlns="http://www.w3.org/2000/svg" xmlns:xlink="http://www.w3.org/1999/xlink" x="0px" y="0px" viewBox="0 0 97.99 122.88" style="enable-background:new 0 0 97.99 122.88" xml:space="preserve"><g><path d="M46.87,58.44c5.21,0,9.44,3.37,9.44,7.53c0,0.82-0.16,1.6-0.46,2.34v9.65l0.02-1.8c1.51-0.57,2.98-1.28,4.37-2.13 c5.52-3.36,9.9-8.86,11.67-16.34l0,0c0.13-0.58,0.65-1.01,1.27-1.02c3.11-0.03,5.24-1.09,6.53-2.63c0.83-0.99,1.33-2.19,1.53-3.44 c0.2-1.28,0.09-2.61-0.3-3.85c-0.62-1.99-1.96-3.7-3.86-4.41c-0.41-0.15-0.7-0.49-0.81-0.88c-12.19-1.16-33.73-8-39.77-14.83 c-2.45,7.07-6.65,12.88-12.52,17.5c-2.73-0.77-5.3-1.15-7.67-1.05c-0.13,0.09-0.27,0.15-0.43,0.19c-0.36,0.09-0.69,0.2-1,0.32 c-0.28,0.11-0.54,0.25-0.8,0.41c-1.09,0.86-1.89,2.25-2.27,3.82c-0.32,1.34-0.34,2.78,0.04,4.12c0.37,1.29,1.11,2.48,2.29,3.36 c1.26,0.94,3.05,1.54,5.46,1.57c0.62-0.04,1.19,0.36,1.36,0.98c2.16,7.97,6.71,13.47,12.27,16.67c1.56,0.9,3.19,1.61,4.87,2.15 c0,0.33-0.01,0.62-0.04,0.88l0.05,0v-8.76c-0.44-0.87-0.68-1.82-0.68-2.82C37.43,61.81,41.66,58.44,46.87,58.44L46.87,58.44z M65.43,85.39c0.41-0.25,0.84-0.32,1.5-0.11c3.7,1.16,7.08,2.81,10.34,5.1c3.22,2.26,6.31,5.15,9.47,8.83 c4.55,5.29,6.77,11.09,8.97,16.86c0.73,1.92,1.46,3.83,2.23,5.61c0.21,0.49-0.18,1.02-0.88,1.17c-0.13,0.03-0.26,0.04-0.38,0.04v0 H79.15h-0.13H17.76h-0.01H1.58c-0.7,0-1.28-0.39-1.32-0.88c-1.08-8.78,1.34-15.3,6.21-20.95c4.83-5.6,12.04-10.28,20.61-15.44 c0.32-0.19,0.73-0.26,1.11-0.2c0.13-0.72,0.33-1.43,0.63-2.1c0.94-2.16,2.74-4,5.63-5c-0.75-0.43-1.6-0.96-2.52-1.5 c-5.91-3.4-10.79-9.13-13.24-17.33c-2.58-0.17-4.59-0.93-6.1-2.05c-1.69-1.25-2.75-2.94-3.26-4.77c-0.5-1.78-0.49-3.69-0.06-5.46 c0.35-1.44,0.98-2.79,1.84-3.89c-6.2-12.38-6.11-20.61-2.14-26.29c4.82-6.67,11.53-9.06,20.24-6.91 C29.14,2.54,48.81-5.53,68.39,5.14c8.94,4.87,13.43,10.47,14.3,21.02c0.4,4.89-0.5,9.83-2.63,14.84c1.62,1.22,2.78,2.99,3.4,4.96 c0.5,1.61,0.64,3.35,0.38,5.04c-0.27,1.71-0.96,3.36-2.11,4.73c-1.6,1.9-4.06,3.26-7.5,3.52C72.15,67,67.46,72.72,61.61,76.28 c-1.26,0.77-2.57,1.43-3.92,1.99l2.45,0.42v0c0.13,0.02,0.26,0.06,0.39,0.12c2.11,0.98,3.67,2.91,4.5,5.18 C65.19,84.45,65.33,84.91,65.43,85.39L65.43,85.39z M28.13,85.72l-0.01,0.04l0-0.02L28.13,85.72L28.13,85.72z M28.08,86.19l0,0.04 l0-0.01L28.08,86.19L28.08,86.19z M28.06,86.43l0,0.04l0-0.01L28.06,86.43L28.06,86.43z M28.06,86.47c0,0.05-0.01,0.11-0.01,0.16 l0,0L28.06,86.47L28.06,86.47z M28.05,86.67l0,0.04l0,0L28.05,86.67L28.05,86.67z M28.04,86.79l0,0.04L28.04,86.79L28.04,86.79 L28.04,86.79z M28.04,86.87l0,0.04L28.04,86.87L28.04,86.87L28.04,86.87z M28.04,86.95l0,0.04L28.04,86.95L28.04,86.95L28.04,86.95 z M28.04,87.03l0,0.04L28.04,87.03L28.04,87.03L28.04,87.03z M28.04,87.35l0,0.08l0-0.07L28.04,87.35L28.04,87.35z M28.04,87.43 l0,0.08l0-0.06L28.04,87.43L28.04,87.43z M28.05,87.71l0,0.04l0,0.02L28.05,87.71L28.05,87.71z M28.07,87.94 c-0.11-0.09-0.22-0.18-0.33-0.27c-7.93,4.81-14.58,9.21-19.02,14.36c-4.43,5.13-6.7,11.06-5.92,18.97h13.81 c0.25-1.26,0.73-3.6,1.21-5.93c0.78-3.83,2.17-7.5,3.04-7.46l0-0.01c0.01,0,0.02,0.01,0.04,0.01c0.01,0,0.01,0,0.02,0 c0.69,0.16,1.07,0.69,0.84,1.18c-1.17,2.52-0.82,4.09-1.32,6.53c-0.26,1.27-0.52,2.54-0.74,3.62c-0.13,0.65-0.26,1.33-0.4,2.05 h58.21c-2.15-10.18-2.39-13.72-1.79-13.85l0.02,0c0.57-0.08,1.37,0.01,1.63,0.62c0.02,0.06,1.47,6.45,1.59,7.02 c0.54,2.45,1.07,4.91,1.35,6.21H94.9c-0.62-1.51-1.18-2.98-1.75-4.45c-2.15-5.63-4.32-11.31-8.67-16.36 c-3.05-3.55-6.02-6.32-9.08-8.47c-2.78-1.96-5.65-3.41-8.76-4.46l-0.06,0.06l0,0l0,0c-0.29,0.27-0.59,0.53-0.89,0.78 c-0.01,0.41-0.04,0.82-0.1,1.22c-0.26,1.83-1,3.61-2.31,5.07c-1.44,1.61-3.53,2.81-6.37,3.24c-1.53,2.06-3.65,3.49-5.95,4.3 c-1.81,0.63-3.73,0.88-5.56,0.73c-1.87-0.15-3.65-0.71-5.15-1.68c-1.24-0.8-2.27-1.88-2.98-3.23c-3.15,0.12-5.85-1.8-7.51-4.52 c-0.88-1.44-1.47-3.1-1.66-4.8C28.09,88.26,28.08,88.1,28.07,87.94L28.07,87.94z M65.47,85.55l-0.01-0.04l0,0.02L65.47,85.55 L65.47,85.55z M42.68,72.73c0-0.37,0.3-0.66,0.66-0.66c0.37,0,0.66,0.3,0.66,0.66v6.12c0,0.37-0.3,0.66-0.66,0.66 c-0.37,0-0.66-0.3-0.66-0.66V72.73L42.68,72.73z M49.73,72.62c0-0.37,0.3-0.66,0.66-0.66c0.37,0,0.66,0.3,0.66,0.66v6.12 c0,0.37-0.3,0.66-0.66,0.66c-0.37,0-0.66-0.3-0.66-0.66V72.62L49.73,72.62z M46.2,75.92c0-0.37,0.3-0.66,0.66-0.66 c0.37,0,0.66,0.3,0.66,0.66v6.12c0,0.37-0.3,0.66-0.66,0.66c-0.37,0-0.66-0.3-0.66-0.66V75.92L46.2,75.92z M31.78,46.7 c-0.51-0.31-0.67-0.97-0.37-1.47c0.31-0.51,0.97-0.67,1.47-0.37l6.54,3.95c0.51,0.31,0.67,0.97,0.37,1.47 c-0.1,0.16-0.23,0.29-0.38,0.37l-5.95,3.99c-0.49,0.33-1.16,0.2-1.49-0.29c-0.33-0.49-0.2-1.16,0.29-1.49l4.61-3.09L31.78,46.7 L31.78,46.7z M61.36,44.86c0.51-0.31,1.17-0.14,1.47,0.37c0.31,0.51,0.14,1.17-0.37,1.47l-5.1,3.08l4.61,3.09 c0.49,0.33,0.62,1,0.29,1.49c-0.33,0.49-1,0.62-1.49,0.29l-5.95-3.99c-0.15-0.09-0.28-0.21-0.38-0.37 c-0.31-0.51-0.14-1.17,0.37-1.47L61.36,44.86L61.36,44.86z M39.68,79.04l-0.11,0c-15.88,0.23-10.07,18.85-1.32,17.01 c2.35,6.73,13.47,6.75,17.78,0.11c10.48-1.07,9.71-13.19,3.84-15.91l-5.6-0.97v-11.1c0-0.91-0.74-1.65-1.65-1.65h-11.3 c-0.91,0-1.65,0.74-1.65,1.65V79.04L39.68,79.04z"/></g></svg>