<svg xmlns="http://www.w3.org/2000/svg" viewBox="0 0 122.88 122.83"><defs><style>.a{fill:#00a8e0;}</style></defs><title>at-and-t</title><path class="a" d="M23.76,109.92a61.44,61.44,0,0,0,78.16-2.31c.13-.12.06-.19-.07-.12C97,110.73,83.19,117.8,61.44,117.8c-18.9,0-30.85-4.22-37.6-8-.13-.06-.17,0-.08.11Zm41.85,3.14c15.12,0,31.74-4.12,41.67-12.28a33.25,33.25,0,0,0,7.63-9.15A59.43,59.43,0,0,0,118.62,84c0-.13,0-.19-.13,0C109.25,97.5,82.49,106,54.86,106c-19.53,0-40.55-6.24-48.77-18.17-.09-.11-.17-.06-.12.06,7.67,16.29,30.92,25.19,59.64,25.19ZM49.09,86C17.65,86,2.82,71.39.13,61.4c0-.15-.13-.12-.13,0A60.76,60.76,0,0,0,.92,72,12.16,12.16,0,0,0,4,77.36c7.61,7.94,26.6,19.06,59.47,19.06,44.8,0,55-14.92,57.13-19.83,1.49-3.51,2.27-9.85,2.27-15.17,0-1.29,0-2.32-.08-3.33,0-.17-.1-.18-.13,0-2.24,12-40.51,28-73.58,28Zm-43.17-51A60.67,60.67,0,0,0,1.53,47.8a4.06,4.06,0,0,0,.32,3c3.77,8,22.83,20.79,67.3,20.79,27.13,0,48.21-6.67,51.62-18.83a14.38,14.38,0,0,0-.15-7.79,59.31,59.31,0,0,0-4-10.62c0-.1-.13-.08-.11,0,.53,16-44,26.23-66.41,26.23-24.31,0-44.59-9.68-44.59-21.92A15.08,15.08,0,0,1,6,35.1c0-.11-.06-.13-.11,0ZM102,15.48a2.57,2.57,0,0,1,.38,1.42c0,6.82-20.88,18.89-54.13,18.89-24.43,0-29-9.06-29-14.82a10,10,0,0,1,2.53-6.31c.09-.13,0-.18-.1-.08a62.17,62.17,0,0,0-8.64,9c-1.22,1.55-2,2.92-2,3.74C11.08,39.24,41,47.9,69,47.9c29.84,0,43.16-9.74,43.16-18.3,0-3.06-1.2-4.85-4.24-8.31a72.32,72.32,0,0,0-5.83-5.89c-.09-.08-.16,0-.09.08ZM92.87,8.66a61.36,61.36,0,0,0-63.29.26c-2.78,1.7-4.33,3.07-4.33,4.83,0,5.18,12.1,10.75,33.58,10.75,21.26,0,37.74-6.11,37.74-12,0-1.4-1.22-2.38-3.7-3.86Z"/></svg>