<?xml version="1.0" encoding="utf-8"?><svg version="1.1" id="Layer_1" xmlns="http://www.w3.org/2000/svg" xmlns:xlink="http://www.w3.org/1999/xlink" x="0px" y="0px" viewBox="0 0 107.21 122.88" style="enable-background:new 0 0 107.21 122.88" xml:space="preserve"><style type="text/css">.st0{fill-rule:evenodd;clip-rule:evenodd;}</style><g><path class="st0" d="M51.12,101.29c0,1.92-0.93,3.63-2.36,4.7c1.43,1.07,2.36,2.77,2.36,4.7c0,3.23-2.62,5.85-5.85,5.85 c-3.23,0-5.85-2.62-5.85-5.85c0-1.92,0.93-3.63,2.36-4.7c-1.43-1.07-2.36-2.77-2.36-4.7c0-3.23,2.62-5.85,5.85-5.85 C48.5,95.44,51.12,98.06,51.12,101.29L51.12,101.29z M19.39,76.69h68.29v4.89h-9.76v37.28c0,1.11-0.45,2.11-1.18,2.84 c-0.73,0.73-1.74,1.18-2.84,1.18H35.37c-1.11,0-2.11-0.45-2.84-1.18c-0.73-0.73-1.18-1.74-1.18-2.84V81.58H19.39V76.69L19.39,76.69 z M75.59,81.58h-6.34v38.97h4.64c0.46,0,0.89-0.19,1.2-0.5c0.31-0.31,0.5-0.73,0.5-1.19V81.58L75.59,81.58z M57.68,81.58 c-16.75,0-5.63,0-24,0v37.28c0,0.46,0.19,0.89,0.5,1.19c0.31,0.31,0.73,0.5,1.19,0.5h22.31l0,0V81.58L57.68,81.58z M19.39,83.51 H9.73c-2.67,0-5.11-1.1-6.87-2.86C1.1,78.89,0,76.45,0,73.77V9.73c0-2.67,1.09-5.1,2.86-6.86V2.86C4.62,1.09,7.05,0,9.73,0h87.74 c2.68,0,5.11,1.1,6.87,2.86c1.76,1.76,2.86,4.2,2.86,6.87v64.04c0,2.67-1.1,5.11-2.86,6.87l-0.01-0.01 c-1.77,1.77-4.2,2.87-6.86,2.87h-9.8v-9h9.8c0.2,0,0.38-0.08,0.51-0.21v-0.02c0.14-0.14,0.23-0.32,0.23-0.51V44.39H9v29.39 c0,0.19,0.09,0.38,0.22,0.51c0.14,0.14,0.32,0.22,0.51,0.22h9.66V83.51L19.39,83.51z M30.21,49.31h10.16v7.64H30.21V49.31 L30.21,49.31z M30.21,63.55h10.16v7.64H30.21V63.55L30.21,63.55z M48.52,49.31h10.16v7.64H48.52V49.31L48.52,49.31z M48.52,63.55 h10.16v7.64H48.52V63.55L48.52,63.55z M66.83,49.31H77v7.64H66.83V49.31L66.83,49.31z M66.83,63.55H77v7.64H66.83V63.55 L66.83,63.55z M63.23,15.5h8.03l3.06,11.98l3.07-11.98h7.99V35.2h-4.98V20.18L76.55,35.2h-4.51l-3.83-15.01V35.2h-4.98V15.5 L63.23,15.5z M42,15.5h18.51v4.87h-6.22V35.2h-6.08V20.37H42V15.5L42,15.5z M35.94,31.95h-6.89l-0.99,3.25h-6.21l7.41-19.69h6.66 l7.38,19.69h-6.37L35.94,31.95L35.94,31.95z M34.65,27.69l-2.15-7.08l-2.16,7.08H34.65L34.65,27.69z M98.21,40.83V9.73 c0-0.19-0.09-0.38-0.22-0.52C97.85,9.08,97.67,9,97.48,9H9.73c-0.2,0-0.38,0.08-0.52,0.22L9.21,9.21C9.08,9.34,9,9.53,9,9.73v31.1 H98.21L98.21,40.83z"/></g></svg>