<svg id="Layer_1" data-name="Layer 1" xmlns="http://www.w3.org/2000/svg" viewBox="0 0 122.87 122.88"><title>august-month</title><path d="M81.6,4.73C81.6,2.12,84.18,0,87.37,0s5.77,2.12,5.77,4.73V25.45c0,2.61-2.58,4.73-5.77,4.73s-5.77-2.12-5.77-4.73V4.73ZM30.57,96H21.24L28.4,68.34H42.07L49.23,96H39.9l-1-4.38h-7.3l-1,4.38ZM35,76.83l-1.81,7.74h4.07l-1.77-7.74Zm24.77-8.49V89.08h3.13a4.41,4.41,0,0,0,2.3-.42c.42-.28.62-.92.62-1.92V68.34h8.85V83.86a29.87,29.87,0,0,1-.49,6.06,8.81,8.81,0,0,1-1.81,3.89A6.86,6.86,0,0,1,68.73,96a23.24,23.24,0,0,1-6,.62A23.07,23.07,0,0,1,56.81,96a6.89,6.89,0,0,1-3.6-2.21,8.71,8.71,0,0,1-1.81-3.89,29.87,29.87,0,0,1-.49-6.06V68.34Zm33.47,19.5V86.65H91V79.88h10.65V94.65a30.37,30.37,0,0,1-10.87,2q-7.58,0-10.4-3.67a11.26,11.26,0,0,1-2-4.46,29.18,29.18,0,0,1-.58-6.35,28,28,0,0,1,.6-6.32,10.81,10.81,0,0,1,2.15-4.45q2.91-3.7,11.27-3.71a36,36,0,0,1,4.49.35,22.2,22.2,0,0,1,4,.8L99,75.59A38.71,38.71,0,0,0,92.5,75a12.75,12.75,0,0,0-4.07.45,1.71,1.71,0,0,0-1.17,1.76V89.7h2.92a6,6,0,0,0,2.32-.33c.49-.22.73-.73.73-1.53ZM29.61,4.73C29.61,2.12,32.19,0,35.38,0s5.77,2.12,5.77,4.73V25.45c0,2.61-2.58,4.73-5.77,4.73s-5.77-2.12-5.77-4.73V4.73ZM6.4,38.76H116.46V21.47a3,3,0,0,0-.86-2.07,2.92,2.92,0,0,0-2.07-.86H103a3.2,3.2,0,1,1,0-6.4h10.55a9.36,9.36,0,0,1,9.33,9.33v92.08a9.36,9.36,0,0,1-9.33,9.33H9.33A9.36,9.36,0,0,1,0,113.54V21.47a9.36,9.36,0,0,1,9.33-9.33H20.6a3.2,3.2,0,1,1,0,6.4H9.33a3,3,0,0,0-2.07.86,2.92,2.92,0,0,0-.86,2.07V38.76Zm110.07,6.41H6.4v68.37a3,3,0,0,0,.86,2.07,2.92,2.92,0,0,0,2.07.86H113.54a3,3,0,0,0,2.07-.86,2.92,2.92,0,0,0,.86-2.07V45.17Zm-66-26.63a3.2,3.2,0,0,1,0-6.4H71.91a3.2,3.2,0,1,1,0,6.4Z"/></svg>