<svg id="Layer_1" data-name="Layer 1" xmlns="http://www.w3.org/2000/svg" viewBox="0 0 122.88 90.9"><title>australian-dollar</title><path d="M90.26,82.41l-1-.06q-3.14-.19-6.16-.6t-5.82-.89q-2.79-.49-5.37-1.19V64.35c2.25.2,4.69.36,7.31.5s5.27.23,8,.29,5.19.1,7.51.1a25.37,25.37,0,0,0,5.47-.49,6.72,6.72,0,0,0,3.29-1.59,4.08,4.08,0,0,0,1.09-3V59A3.75,3.75,0,0,0,103,55.7a6.12,6.12,0,0,0-3.63-1.1H94.14q-11.53,0-17.51-5.07t-6-17V29.24q0-10.93,6.57-16.36,4.9-4.05,13-5.07V0H101V7.59c1.35.07,2.66.18,3.93.32,2.75.3,5.33.66,7.76,1.09s4.59.88,6.51,1.34V25.66q-4.58-.39-10.29-.65c-3.82-.16-7.28-.25-10.4-.25a28.5,28.5,0,0,0-5,.4,6.26,6.26,0,0,0-3.38,1.59A4.71,4.71,0,0,0,89,30.23v1A4.58,4.58,0,0,0,90.56,35a7.64,7.64,0,0,0,4.87,1.29H102a23.11,23.11,0,0,1,11.59,2.64,17.25,17.25,0,0,1,7,7.16,22.07,22.07,0,0,1,2.34,10.29v3.28q0,9.45-3.28,14.43a16.15,16.15,0,0,1-9.35,6.71A45.7,45.7,0,0,1,101,82.36V90.9H90.26V82.41ZM0,82,21.88,8.06H46L67.83,82h-20l-3-11.73H22.68L19.79,82Zm27.15-29H40.38L33.72,24.47,27.15,52.91Z"/></svg>