<?xml version="1.0" encoding="utf-8"?><svg version="1.1" id="Layer_1" xmlns="http://www.w3.org/2000/svg" xmlns:xlink="http://www.w3.org/1999/xlink" x="0px" y="0px" viewBox="0 0 122.88 111.61" style="enable-background:new 0 0 122.88 111.61" xml:space="preserve"><style type="text/css">.st0{fill-rule:evenodd;clip-rule:evenodd;}</style><g><path class="st0" d="M43.66,74.14c5.82,17.11,30.1,17.74,35.56,0c6.43,5.78,25.45,6.94,32.53,10.89c2.24,1.25,4.26,2.84,5.89,4.99 c3.39,4.48,10.33,20.74-0.92,21.6H6.17c-11.25-0.86-4.31-17.12-0.92-21.6c1.63-2.15,3.65-3.74,5.89-4.99 C18.21,81.08,37.23,79.92,43.66,74.14L43.66,74.14L43.66,74.14z M16.46,59.83c0.24,0.3,0.34,0.66,0.31,1 c-0.03,0.36-0.19,0.7-0.49,0.96l-0.01,0c-0.3,0.25-0.67,0.36-1.03,0.33c-0.36-0.03-0.7-0.19-0.96-0.49l0,0 c-2.52-2.94-4.43-6.07-5.7-9.31c-1.28-3.26-1.92-6.64-1.89-10.03c0.03-3.35,0.71-6.71,2.06-9.99c1.31-3.19,3.26-6.31,5.86-9.29l0,0 c0.26-0.29,0.61-0.45,0.97-0.48c0.36-0.02,0.73,0.09,1.02,0.35c0.29,0.26,0.45,0.61,0.48,0.98c0.02,0.36-0.09,0.73-0.35,1.02 l-0.01,0.02c-2.37,2.72-4.14,5.55-5.33,8.44c-1.23,2.97-1.85,5.99-1.87,8.99c-0.03,3.04,0.55,6.07,1.71,9.01 c1.15,2.91,2.87,5.74,5.15,8.41C16.41,59.76,16.44,59.79,16.46,59.83L16.46,59.83z M106.11,60.83c-0.03-0.35,0.07-0.71,0.31-1 c0.02-0.03,0.05-0.06,0.09-0.09c2.27-2.66,4-5.49,5.15-8.41c1.16-2.94,1.74-5.97,1.71-9.01c-0.03-3-0.65-6.02-1.87-8.99 c-1.19-2.89-2.97-5.72-5.33-8.44l-0.02-0.02c-0.26-0.29-0.37-0.66-0.35-1.02c0.02-0.36,0.19-0.72,0.48-0.98 c0.3-0.26,0.67-0.37,1.03-0.35c0.36,0.02,0.71,0.19,0.97,0.48l0,0c2.6,2.97,4.55,6.1,5.86,9.29c1.35,3.29,2.03,6.64,2.06,9.99 c0.03,3.4-0.61,6.77-1.89,10.03c-1.27,3.24-3.18,6.37-5.7,9.31l0,0c-0.26,0.3-0.6,0.46-0.96,0.49c-0.36,0.03-0.73-0.08-1.03-0.33 l0,0C106.3,61.53,106.14,61.19,106.11,60.83L106.11,60.83z M95,48.86L95,48.86c0.02-0.03,0.04-0.05,0.06-0.07l0,0 c0.84-1.04,1.48-2.11,1.91-3.2c0.43-1.08,0.65-2.17,0.66-3.26l0-0.03c0-1.09-0.21-2.18-0.64-3.27c-0.42-1.08-1.06-2.15-1.91-3.2 c-0.24-0.3-0.34-0.68-0.3-1.03c0.04-0.36,0.21-0.7,0.51-0.95c0.3-0.24,0.68-0.34,1.03-0.3c0.36,0.04,0.7,0.21,0.95,0.51 c1.06,1.3,1.85,2.65,2.38,4.01c0.54,1.4,0.8,2.82,0.8,4.24c-0.01,1.44-0.28,2.87-0.83,4.27c-0.54,1.38-1.33,2.72-2.38,4.01 l-0.02,0.03c-0.24,0.3-0.59,0.47-0.94,0.51c-0.35,0.04-0.72-0.06-1.02-0.3l-0.03-0.02c-0.3-0.24-0.47-0.58-0.51-0.93l0-0.01 C94.68,49.51,94.78,49.15,95,48.86L95,48.86z M100.04,55.19c-0.02-0.35,0.09-0.71,0.33-0.99l0.03-0.04c1.71-1.94,3-3.91,3.85-5.91 c0.85-1.98,1.26-3.97,1.23-5.97c-0.03-1.97-0.5-3.95-1.43-5.93c-0.91-1.95-2.26-3.89-4.07-5.81c-0.27-0.28-0.39-0.65-0.38-1.01 c0.01-0.35,0.15-0.7,0.42-0.97l0.02-0.02c0.28-0.27,0.65-0.39,1.01-0.38c0.35,0.01,0.7,0.15,0.96,0.42l0.02,0.02 c2.05,2.18,3.58,4.4,4.62,6.65c1.06,2.31,1.6,4.64,1.65,6.98c0.04,2.37-0.43,4.72-1.41,7.03c-0.97,2.31-2.45,4.59-4.4,6.79l0,0 c-0.26,0.28-0.61,0.44-0.98,0.46c-0.36,0.02-0.73-0.09-1.02-0.35l0,0C100.22,55.9,100.06,55.55,100.04,55.19L100.04,55.19z M27.87,48.85L27.87,48.85c0.23,0.3,0.32,0.66,0.29,1l0,0.01c-0.04,0.35-0.21,0.69-0.51,0.93l-0.03,0.02 c-0.3,0.24-0.66,0.33-1.02,0.3c-0.36-0.04-0.7-0.21-0.94-0.51l-0.02-0.03c-1.05-1.29-1.84-2.63-2.38-4.01 c-0.54-1.4-0.82-2.83-0.83-4.27c-0.01-1.42,0.26-2.84,0.8-4.24c0.53-1.37,1.32-2.71,2.38-4.01l0,0c0.24-0.3,0.59-0.47,0.94-0.51 c0.36-0.04,0.73,0.06,1.03,0.3l0,0c0.3,0.24,0.47,0.59,0.51,0.95c0.04,0.36-0.06,0.73-0.3,1.03c-0.85,1.05-1.49,2.12-1.91,3.2 c-0.43,1.09-0.64,2.18-0.64,3.27l0,0.03c0.01,1.09,0.23,2.18,0.66,3.26c0.43,1.09,1.07,2.16,1.91,3.2l0,0 C27.84,48.81,27.86,48.83,27.87,48.85L27.87,48.85z M22.51,54.2c0.24,0.29,0.35,0.64,0.33,0.99c-0.02,0.36-0.18,0.72-0.46,0.98l0,0 c-0.29,0.26-0.66,0.37-1.02,0.35c-0.36-0.02-0.72-0.18-0.98-0.46l0-0.01c-1.95-2.21-3.42-4.48-4.4-6.79 c-0.97-2.31-1.45-4.66-1.41-7.03c0.04-2.34,0.58-4.67,1.65-6.98c1.04-2.25,2.57-4.48,4.62-6.65l0.02-0.02 c0.26-0.27,0.61-0.41,0.96-0.42c0.36-0.01,0.73,0.11,1.01,0.38l0.02,0.02c0.27,0.26,0.41,0.61,0.42,0.96 c0.01,0.36-0.11,0.73-0.38,1.01l-0.02,0.02c-1.8,1.92-3.15,3.85-4.06,5.8c-0.92,1.98-1.39,3.96-1.43,5.93 c-0.03,2,0.38,3.99,1.23,5.97c0.86,2,2.15,3.99,3.88,5.94L22.51,54.2L22.51,54.2z M39.2,38.68c-1.22,0.05-2.14,0.3-2.77,0.72 c-0.36,0.24-0.62,0.55-0.79,0.92c-0.19,0.41-0.28,0.9-0.26,1.47c0.05,1.67,0.92,3.86,2.62,6.38l0.02,0.04l0,0l5.5,8.74 c2.2,3.51,4.52,7.08,7.39,9.71c2.76,2.53,6.11,4.23,10.54,4.25c4.8,0.01,8.31-1.76,11.16-4.43c2.96-2.77,5.3-6.58,7.6-10.37 l6.19-10.2c1.15-2.63,1.57-4.4,1.31-5.43c-0.16-0.62-0.84-0.92-1.99-0.97c-0.25-0.01-0.5-0.02-0.75-0.01 c-0.28,0.01-0.56,0.03-0.87,0.05c-0.16,0.01-0.33,0-0.48-0.03c-0.55,0.03-1.12-0.01-1.7-0.09l2.12-9.39 c-15.74,2.48-27.51-9.21-44.15-2.34l1.2,11.07C40.42,38.79,39.79,38.77,39.2,38.68L39.2,38.68L39.2,38.68z M87.84,36.71 c1.52,0.46,2.5,1.43,2.9,3c0.44,1.73-0.04,4.18-1.51,7.51l0,0c-0.03,0.06-0.06,0.12-0.09,0.18l-6.27,10.32 c-2.42,3.98-4.87,7.97-8.14,11.03c-3.39,3.17-7.57,5.29-13.28,5.27c-5.33-0.01-9.35-2.05-12.64-5.06 c-3.18-2.91-5.61-6.66-7.93-10.34l-5.5-8.74c-2.01-3-3.06-5.74-3.12-7.99c-0.03-1.06,0.15-2.02,0.54-2.86 c0.41-0.88,1.04-1.62,1.89-2.2c0.4-0.27,0.84-0.49,1.33-0.68c-0.36-4.74-0.49-10.72-0.26-15.72c0.12-1.19,0.35-2.37,0.68-3.56 c0.71-2.53,1.95-4.8,3.57-6.8C52.2-4.97,68.19-1.31,82.8,8.96c0.85,0.92,1.61,1.92,2.28,3.02c1.73,2.83,2.81,6.28,3.11,10.46 L87.84,36.71L87.84,36.71L87.84,36.71z"/></g></svg>