<?xml version="1.0" encoding="utf-8"?><svg version="1.1" id="Layer_1" xmlns="http://www.w3.org/2000/svg" xmlns:xlink="http://www.w3.org/1999/xlink" x="0px" y="0px" viewBox="0 0 104.76 122.88" style="enable-background:new 0 0 104.76 122.88" xml:space="preserve"><style type="text/css">.st0{fill-rule:evenodd;clip-rule:evenodd;}</style><g><path class="st0" d="M0,17.33C9.69,7.56,20.66,0.98,33.87,0c5.81,24.96,32.07,20.55,36.23,0c14.55,2.45,26.26,8.55,34.66,18.91 L92.95,33.08l-8.66-4.73c9.26,34.07,12.26,62.81,3.94,81.92c-0.43,4.94-0.21,9.24,0.93,12.6h-28.5c-2.42-12.57-14.36-14.04-17.33,0 H16.54c0.05-5.64,1.79-7.75-0.91-12.6c-4.4-18.57-5.61-47.34,4.85-83.5L10.24,32.3L0,17.33L0,17.33z M39.07,59.44 c1.75,0,3.17,1.42,3.17,3.17s-1.42,3.17-3.17,3.17c-1.75,0-3.17-1.42-3.17-3.17S37.32,59.44,39.07,59.44L39.07,59.44z M38.26,78.55 C37.3,77.95,37,76.7,37.6,75.74c0.59-0.96,1.85-1.26,2.81-0.66c3.99,2.46,7.97,3.5,11.93,3.4c4.01-0.1,8.07-1.36,12.16-3.48 c1-0.52,2.24-0.12,2.75,0.88c0.52,1,0.12,2.24-0.88,2.75c-4.61,2.39-9.25,3.82-13.94,3.93C47.69,82.67,42.97,81.45,38.26,78.55 L38.26,78.55z M65.7,59.44c1.75,0,3.17,1.42,3.17,3.17s-1.42,3.17-3.17,3.17c-1.75,0-3.17-1.42-3.17-3.17S63.96,59.44,65.7,59.44 L65.7,59.44z M43.63,49.19h17.51c10.81,0,19.65,8.84,19.65,19.65v0c0,10.81-8.84,19.65-19.65,19.65H43.63 c-10.81,0-19.65-8.84-19.65-19.65v0C23.98,58.03,32.82,49.19,43.63,49.19L43.63,49.19z"/></g></svg>