<?xml version="1.0" encoding="utf-8"?><svg version="1.1" id="Layer_1" xmlns="http://www.w3.org/2000/svg" xmlns:xlink="http://www.w3.org/1999/xlink" x="0px" y="0px" viewBox="0 0 105.51 122.88" style="enable-background:new 0 0 105.51 122.88" xml:space="preserve"><g><path d="M26.28,93.2c0.05,1.96-0.05,3.8-0.3,5.53c-0.25,1.76-0.64,3.4-1.16,4.96c-0.47,1.41-1.03,2.73-1.67,3.97 c-0.54,1.05-1.14,2.05-1.79,3.01c4.05,2.64,8.76,4.63,13.81,5.98c5.61,1.51,11.63,2.24,17.62,2.24c6.17,0,12.3-0.77,17.89-2.27 c5.2-1.39,9.94-3.41,13.84-6.01c-0.64-1.09-1.22-2.21-1.75-3.34c-0.61-1.31-1.14-2.64-1.6-4c-0.53-1.55-0.96-3.14-1.3-4.76 c-0.34-1.61-0.58-3.26-0.74-4.94c-0.01-0.11-0.01-0.22-0.01-0.32c0-0.08,0.01-0.15,0.03-0.23c-0.27-5.43,0.57-10.64,1.99-15.83 c1.42-5.19,3.43-10.34,5.5-15.66l0.01-0.04c2.56-6.58,5.23-13.44,6.95-20.85c0.12-0.53,0.45-0.97,0.88-1.24 c0.43-0.27,0.97-0.38,1.5-0.26c0.53,0.12,0.97,0.45,1.24,0.88c0.27,0.43,0.38,0.97,0.26,1.5c-1.78,7.68-4.51,14.69-7.13,21.42 l-0.01,0.03c-1.75,4.49-3.45,8.86-4.76,13.17c-1.07,3.52-1.88,7.01-2.27,10.54c2.53-3.82,4.86-7.71,6.94-11.68 c2.44-4.66,4.55-9.44,6.25-14.36c1.92-5.55,3.34-11.28,4.17-17.23c0.83-5.94,1.06-12.1,0.62-18.51c-0.83-5.04-2.4-7.64-4.47-9.01 c-2.08-1.38-4.76-1.59-7.72-1.82c-1.54-0.12-3.14-0.25-4.82-0.51c-1.68-0.27-3.42-0.68-5.19-1.36c-0.98-0.38-1.91-0.81-2.8-1.28 c-0.89-0.47-1.74-0.99-2.56-1.55c-0.76-0.52-1.48-1.08-2.17-1.66l-0.04-0.04c-0.64-0.54-1.24-1.11-1.81-1.69 c-2.8-0.66-5.58-1.16-8.33-1.49c-2.83-0.34-5.63-0.52-8.39-0.52c-2.77,0-5.53,0.17-8.28,0.51c-2.68,0.33-5.35,0.83-8,1.49 c-0.86,0.85-1.78,1.64-2.76,2.37c-1.03,0.77-2.13,1.48-3.32,2.13c-1.23,0.67-2.54,1.28-3.93,1.8c-1.38,0.53-2.86,0.98-4.42,1.36 c-1.57,0.38-3.02,0.63-4.36,0.81c-1.37,0.18-2.56,0.29-3.66,0.38c-2.86,0.25-5.01,0.44-6.58,1.95c-1.63,1.57-2.78,4.61-3.7,10.62 C4.15,33.8,4.8,39.88,5.87,45.68c1.08,5.82,2.59,11.34,4.48,16.61c1.66,4.63,3.61,9.06,5.82,13.34c1.83,3.54,3.84,6.97,6,10.31 c-0.83-7.84-3.69-15.46-6.71-23.54l0-0.01c-2.45-6.52-5-13.34-6.74-20.85L8.71,41.5c-0.11-0.52,0-1.05,0.26-1.47 c0.27-0.43,0.71-0.76,1.24-0.88l0.02,0c0.53-0.12,1.05-0.01,1.48,0.26c0.43,0.27,0.76,0.71,0.88,1.24l0,0.01 c1.69,7.29,4.19,13.96,6.59,20.35c2.01,5.37,3.95,10.55,5.31,15.77c1.37,5.25,2.15,10.54,1.83,16.11l0,0.01 c0,0.07-0.01,0.14-0.02,0.2L26.28,93.2L26.28,93.2z M54.75,14.49l3.09,6.01l8.72-9.68L59.41,29.1l-3.2-5.33l-8.45,10.08 L54.75,14.49L54.75,14.49L54.75,14.49z M69.4,30.71l-0.49,7.25l13.49-4.54l-16.6,13.57l-0.19-6.79L52.37,45.4L69.4,30.71 L69.4,30.71L69.4,30.71z M21.05,102.43c0.45-1.36,0.79-2.82,1.01-4.39c0.21-1.52,0.29-3.14,0.24-4.88 c-3.21-4.49-6.15-9.15-8.77-14.02c-2.65-4.93-4.98-10.09-6.92-15.52C4.65,58.16,3.08,52.43,1.96,46.4 c-1.12-6.01-1.79-12.33-1.95-18.97C0,27.35,0,27.27,0,27.19v0c0-0.09,0.01-0.18,0.02-0.25c1.13-7.45,2.67-11.29,4.91-13.38 c2.29-2.13,5.16-2.38,9-2.72l0.01,0c2.14-0.19,4.62-0.4,7.41-1.08c1.39-0.34,2.69-0.74,3.93-1.21c1.23-0.47,2.38-0.99,3.45-1.58 c1.06-0.58,2.05-1.22,2.97-1.92c0.92-0.7,1.78-1.45,2.56-2.26l0.04-0.04c0.12-0.11,0.24-0.21,0.39-0.29l0.04-0.02 c0.15-0.08,0.3-0.14,0.46-0.18l0.05-0.01c2.91-0.75,5.83-1.31,8.78-1.68C47,0.19,49.99,0,52.99,0c3,0,6.01,0.19,9.03,0.56 c3.01,0.37,6.05,0.93,9.11,1.67c0.2,0.04,0.4,0.11,0.58,0.21l0.06,0.03c0.16,0.09,0.3,0.21,0.43,0.35 c0.58,0.61,1.18,1.19,1.81,1.74c0.63,0.55,1.29,1.06,1.98,1.53C76.68,6.57,77.4,7,78.16,7.41c0.76,0.4,1.55,0.77,2.37,1.08 c1.49,0.58,2.99,0.92,4.47,1.15c1.47,0.23,2.97,0.35,4.41,0.46c3.72,0.29,7.09,0.55,9.88,2.41c2.78,1.86,4.87,5.25,5.94,11.75 l0.03,0.16l0.02,0.16c0.47,6.7,0.23,13.14-0.64,19.36c-0.86,6.21-2.35,12.21-4.36,18.01c-1.98,5.72-4.47,11.23-7.37,16.58 c-2.86,5.27-6.13,10.4-9.73,15.41c0.15,1.34,0.37,2.67,0.65,3.99c0.3,1.39,0.67,2.74,1.13,4.07c0.48,1.41,1.04,2.79,1.69,4.13 c0.65,1.35,1.4,2.66,2.23,3.94l0.02,0.04c0.27,0.43,0.35,0.93,0.27,1.39c-0.09,0.48-0.35,0.93-0.77,1.24 c-4.35,3.26-9.78,5.77-15.78,7.47c-6.19,1.76-12.99,2.67-19.82,2.67c-6.63,0-13.32-0.86-19.52-2.62 c-5.84-1.66-11.26-4.13-15.82-7.45l-0.12-0.09c-0.43-0.34-0.69-0.82-0.76-1.33c-0.06-0.51,0.07-1.04,0.4-1.47 c0.87-1.12,1.66-2.29,2.34-3.52c0.68-1.23,1.26-2.54,1.73-3.93L21.05,102.43L21.05,102.43z M37.67,37.02 c0.02-0.55,0.26-1.04,0.63-1.39c0.37-0.35,0.87-0.55,1.42-0.54c0.55,0.02,1.04,0.25,1.39,0.63c0.35,0.37,0.56,0.88,0.54,1.42 c-0.07,2.1-0.3,4.09-0.68,5.96c-0.38,1.89-0.91,3.65-1.59,5.31c-0.69,1.67-1.53,3.22-2.53,4.65c-1,1.44-2.15,2.76-3.45,3.97 c-0.4,0.37-0.92,0.55-1.43,0.53c-0.51-0.02-1.01-0.23-1.38-0.64c-0.37-0.4-0.55-0.92-0.53-1.43l0-0.01c0.02-0.5,0.24-1,0.64-1.37 c1.08-1,2.04-2.11,2.88-3.31c0.83-1.2,1.54-2.5,2.12-3.9c0.59-1.42,1.05-2.96,1.38-4.61c0.33-1.64,0.53-3.38,0.59-5.21L37.67,37.02 L37.67,37.02z"/></g></svg>