<svg xmlns="http://www.w3.org/2000/svg" shape-rendering="geometricPrecision" text-rendering="geometricPrecision" image-rendering="optimizeQuality" fill-rule="evenodd" clip-rule="evenodd" viewBox="0 0 512 315.4"><path d="M18.35 177.71c.58-3.59 1.79-6.71 3.67-9.33 21.51-14.96 71.64-20.63 116.4-18.28v123.18c0 8.19 2.64 15.82 7.11 22.08H15.4C4.86 292.4-.33 286.46.02 276.73l18.33-99.02zm355.43-77.97h34.27c10.66 0 19.38 8.73 19.38 19.38v10.35h-12.35v-10.39c0-3.73-3.06-6.79-6.79-6.79h-34.75c-.48 0-.94.05-1.38.14V99.81c.53-.04 1.07-.07 1.62-.07zm-1.62 33.39h89.97v162.23h-97.07c4.46-6.26 7.1-13.89 7.1-22.08V133.13zm100.21 0h22.41c9.47 0 17.22 7.74 17.22 17.22v127.79c0 9.47-7.75 17.22-17.22 17.22h-22.41V133.13zM193.05 0h125.42a2.64 2.64 0 0 1 2.63 2.63v16.98a2.64 2.64 0 0 1-2.63 2.63h-18.84v42.68h-11.09V22.24h-64.37v42.68h-11.09V22.24h-20.03c-1.45 0-2.63-1.18-2.63-2.63V2.63c0-1.45 1.18-2.63 2.63-2.63zm4.2 297.94v7.02c0 5.74-4.69 10.44-10.43 10.44-5.74 0-10.43-4.7-10.43-10.44v-7.02c-13.46-.13-24.43-11.17-24.43-24.66V94.57c0-13.57 11.1-24.66 24.67-24.66h5.64c0 .38.05.77.15 1.16l6.19 23.52c1.77 6.7 4.76 13.04 9.28 17.56 4.12 4.12 9.39 6.69 15.97 6.69h24.74v13.24c0 2.09 1.71 3.79 3.8 3.79h28.74c2.09 0 3.79-1.7 3.79-3.79v-13.24h25.94c6.69 0 12.15-2.63 16.37-6.84 4.51-4.51 7.49-10.84 8.93-17.62l4.94-23.23c.11-.4.17-.81.17-1.24h2.68c13.56 0 24.66 11.09 24.66 24.66v178.71c0 13.49-10.96 24.53-24.42 24.66v7.02c0 5.74-4.7 10.44-10.44 10.44-5.74 0-10.43-4.7-10.43-10.44v-7.02H197.25zM321.08 74.48H192.74l4.69 17.79c1.39 5.28 3.64 10.17 6.89 13.43 2.47 2.46 5.62 4 9.54 4h87.01c4.03 0 7.35-1.6 9.91-4.16 3.2-3.21 5.38-7.92 6.47-13.06l3.83-18zm-126.21 97.24c-2.53 0-4.57-2.05-4.57-4.57 0-2.53 2.04-4.57 4.57-4.57h121.52c2.52 0 4.57 2.04 4.57 4.57 0 2.52-2.05 4.57-4.57 4.57H194.87zm0 88.25c-2.53 0-4.57-2.04-4.57-4.57 0-2.52 2.04-4.57 4.57-4.57h121.52c2.52 0 4.57 2.05 4.57 4.57 0 2.53-2.05 4.57-4.57 4.57H194.87zm0-44.12c-2.53 0-4.57-2.05-4.57-4.57 0-2.53 2.04-4.57 4.57-4.57h121.52c2.52 0 4.57 2.04 4.57 4.57 0 2.52-2.05 4.57-4.57 4.57H194.87zM89.69 103.42h48.73v17.83h-47.2v21.36l-17.67 3.97v-27.02c0-8.88 7.26-16.14 16.14-16.14z"/></svg>