<?xml version="1.0" encoding="utf-8"?><svg version="1.1" id="Layer_1" xmlns="http://www.w3.org/2000/svg" xmlns:xlink="http://www.w3.org/1999/xlink" x="0px" y="0px" viewBox="0 0 115.28 122.88" style="enable-background:new 0 0 115.28 122.88" xml:space="preserve"><style type="text/css">.st0{fill-rule:evenodd;clip-rule:evenodd;}</style><g><path class="st0" d="M21.69,57h68.56V37.34H69.59c-2.17,0-5.19-1.17-6.62-2.6c-1.43-1.43-2.3-4.01-2.3-6.17V7.64l0,0H8.15 c-0.18,0-0.32,0.09-0.41,0.18C7.59,7.92,7.55,8.05,7.55,8.24v106.45c0,0.14,0.09,0.32,0.18,0.41c0.09,0.14,0.28,0.18,0.41,0.18 c22.78,0,58.09,0,81.51,0c0.18,0,0.17-0.09,0.27-0.18c0.14-0.09,0.33-0.28,0.33-0.41v-11.16H21.69c-4.14,0-7.56-3.4-7.56-7.56 V64.55C14.13,60.4,17.53,57,21.69,57L21.69,57z M30.25,68.69h13.04c2.17,0,3.84,0.54,5,1.61c1.16,1.07,1.75,2.41,1.75,4 c0,1.33-0.41,2.47-1.25,3.42c-0.55,0.64-1.36,1.14-2.43,1.51c1.62,0.39,2.81,1.05,3.57,2c0.76,0.95,1.14,2.14,1.14,3.57 c0,1.17-0.27,2.22-0.81,3.15c-0.55,0.93-1.29,1.67-2.23,2.21c-0.59,0.34-1.47,0.58-2.65,0.73c-1.57,0.2-2.61,0.31-3.12,0.31H30.25 V68.69L30.25,68.69z M37.27,77.53h3.04c1.09,0,1.85-0.19,2.27-0.56c0.42-0.38,0.64-0.92,0.64-1.63c0-0.66-0.21-1.17-0.64-1.54 c-0.42-0.37-1.17-0.56-2.22-0.56h-3.08V77.53L37.27,77.53z M37.27,86.37h3.55c1.2,0,2.04-0.21,2.54-0.64 c0.49-0.42,0.74-0.99,0.74-1.71c0-0.67-0.24-1.2-0.73-1.6c-0.49-0.4-1.34-0.61-2.56-0.61h-3.53V86.37L37.27,86.37z M67.54,87.51 h-7.89l-1.13,3.71h-7.1l8.48-22.53h7.62l8.44,22.53h-7.29L67.54,87.51L67.54,87.51z M66.07,82.63l-2.46-8.1l-2.47,8.1H66.07 L66.07,82.63z M77.72,68.69h6.95v8.51l7.29-8.51h9.25L93,77.16l8.6,14.06h-8.56l-4.75-9.25l-3.61,3.76v5.48h-6.95V68.69 L77.72,68.69z M97.79,57h9.93c4.16,0,7.56,3.41,7.56,7.56v31.42c0,4.15-3.41,7.56-7.56,7.56h-9.93v13.55c0,1.61-0.65,3.04-1.7,4.1 c-1.06,1.06-2.49,1.7-4.1,1.7c-29.44,0-56.59,0-86.18,0c-1.61,0-3.04-0.64-4.1-1.7c-1.06-1.06-1.7-2.49-1.7-4.1V5.85 c0-1.61,0.65-3.04,1.7-4.1c1.06-1.06,2.53-1.7,4.1-1.7h58.72C64.66,0,64.8,0,64.94,0c0.64,0,1.29,0.28,1.75,0.69h0.09 c0.09,0.05,0.14,0.09,0.23,0.18l29.99,30.36c0.51,0.51,0.88,1.2,0.88,1.98c0,0.23-0.05,0.41-0.09,0.65V57L97.79,57z M67.52,27.97 V8.94l21.43,21.7H70.19c-0.74,0-1.38-0.32-1.89-0.78C67.84,29.4,67.52,28.71,67.52,27.97L67.52,27.97z"/></g></svg>