<svg xmlns="http://www.w3.org/2000/svg" shape-rendering="geometricPrecision" text-rendering="geometricPrecision" image-rendering="optimizeQuality" fill-rule="evenodd" clip-rule="evenodd" viewBox="0 0 457 511.59"><path fill-rule="nonzero" d="M192.07 93.48c27.88 0 53.13 11.31 71.39 29.57 18.25 18.25 29.57 43.51 29.57 71.39 0 27.87-11.32 53.13-29.57 71.38-18.26 18.26-43.51 29.58-71.39 29.58-27.88 0-53.13-11.32-71.39-29.58-18.25-18.25-29.57-43.51-29.57-71.38 0-27.88 11.32-53.14 29.57-71.39 18.26-18.26 43.51-29.57 71.39-29.57zm225.72 244.87L295.24 461.49c14.74 11.28 33.2 17.98 53.19 17.98 24.17 0 46.11-9.81 61.96-25.62 15.81-15.86 25.63-37.8 25.63-61.97 0-20.15-6.82-38.72-18.23-53.53zM279.05 445.41l122.57-123.16c-14.75-11.28-33.2-17.96-53.19-17.96-24.19 0-46.11 9.82-61.95 25.65-15.83 15.83-25.65 37.75-25.65 61.94 0 20.15 6.81 38.72 18.22 53.53zm69.38-162.1c29.95 0 57.09 12.18 76.73 31.8 19.67 19.64 31.84 46.8 31.84 76.77 0 29.93-12.19 57.1-31.8 76.73-19.68 19.66-46.84 31.84-76.77 31.84-29.97 0-57.14-12.16-76.77-31.8l-.57-.61c-19.29-19.6-31.23-46.51-31.23-76.16 0-29.97 12.16-57.13 31.8-76.77 19.63-19.64 46.8-31.8 76.77-31.8zM197.79 486.45c7.57-4.81 14.92-9.91 22.04-15.3 4.04 6.55 8.57 12.78 13.52 18.6-9.24 6.96-18.88 13.5-28.88 19.59-3.71 2.74-8.89 3.08-13.01.48-44.97-28.55-82.71-63.03-112.44-100.33C38.1 358.11 12.27 301.13 3.44 246.31c-8.97-55.62-.54-109.15 27.12-152.7C41.59 76.38 55.5 60.71 72.48 47.2 111.51 16.09 156.19-.37 200.55.01c42.72.35 85.05 16.28 121.62 49.66 12.81 11.71 23.62 25 32.41 39.51 26.59 43.9 34.56 98.71 26.57 155.17-7.39-1.63-15-2.72-22.75-3.23 7.28-51.4.26-100.88-23.46-140.03a155.82 155.82 0 0 0-28.27-34.39c-32.17-29.35-69.18-43.41-106.32-43.71-39.04-.31-78.62 14.4-113.56 42.23C71.81 77.15 59.57 90.89 50 105.94c-24.52 38.68-31.94 86.62-23.85 136.78 8.22 50.94 32.45 104.19 70.89 152.45 26.82 33.64 60.59 64.88 100.75 91.28zm49.38-347.12c-14.07-14.07-33.59-22.83-55.1-22.83-21.51 0-41.03 8.76-55.1 22.83-14.08 14.08-22.83 33.6-22.83 55.11 0 21.5 8.75 41.02 22.83 55.1 14.07 14.08 33.59 22.83 55.1 22.83 21.51 0 41.03-8.75 55.1-22.83 14.08-14.08 22.83-33.6 22.83-55.1 0-21.51-8.75-41.03-22.83-55.11z"/></svg>