<svg id="Layer_1" data-name="Layer 1" xmlns="http://www.w3.org/2000/svg" viewBox="0 0 122.88 103.74"><defs><style>.cls-1{fill-rule:evenodd;}</style></defs><title>barber-shop</title><path class="cls-1" d="M109.19,4.64,122.4,35.52a3,3,0,0,1,.48,1.63,3.3,3.3,0,0,1-.7,2,4.6,4.6,0,0,1-1.11,1l-.14.1a5.17,5.17,0,0,1-2.66.81h-2.48v60.57a2.08,2.08,0,0,1-2.08,2.08H9.18a2.08,2.08,0,0,1-2.08-2.08V41.07H4.61A5.27,5.27,0,0,1,2,40.26,4.67,4.67,0,0,1,.7,39.13a3.32,3.32,0,0,1-.7-2,3,3,0,0,1,.48-1.63L13.69,4.63c.11-.17.22-.38.33-.58.81-1.45,1.54-2.77,3.8-2.77H53.09a27.88,27.88,0,0,1,16.7,0h35.27c2.26,0,3,1.32,3.8,2.79.09.16.18.33.33.57ZM53.72,81a1.62,1.62,0,1,1-1.61,1.62A1.62,1.62,0,0,1,53.72,81ZM70.83,17.57c1.47-3.14,1.44-5.74,0-7.82L62.07,25l2.18,3.88,6.58-11.31Zm-18.78,0c-1.47-3.14-1.44-5.74,0-7.82L62.66,28.21a3.64,3.64,0,0,1,.84,2.05,5,5,0,0,1-.27,1.53,2,2,0,0,0,.3,1.53l.44.49c.39.43.74,1,1.41.87.45-.06.83-.44,1.15-1A4.36,4.36,0,0,1,68,32.56a5,5,0,0,1,1.84-.41,6.32,6.32,0,0,1,5.39,3.52c1.69,2.75,1.49,5.07.24,7.15A4.17,4.17,0,0,1,72,44.65a6.34,6.34,0,0,1-4.94-2.48,21.07,21.07,0,0,1-2.18-3.39l-3.11-4,.24-.07-10-17.17ZM61.5,29a1,1,0,1,1-1,1,1,1,0,0,1,1-1Zm6.32,6.32a2.48,2.48,0,0,1,3.11-.82,4.87,4.87,0,0,1,2.42,2.09,6,6,0,0,1,.91,3.55C74,42.54,71.9,43,70,41.94a4.81,4.81,0,0,1-2-2.09,6.8,6.8,0,0,1-.69-2.14,3.42,3.42,0,0,1,.44-2.39Zm-8.18-2.68a2.08,2.08,0,0,1-.29.68l-.44.49c-.39.43-.74,1-1.41.87-.45-.06-.83-.44-1.15-1a4.36,4.36,0,0,0-1.48-1.07A5,5,0,0,0,53,32.15a6.32,6.32,0,0,0-5.39,3.52c-1.69,2.75-1.49,5.07-.24,7.15a4.18,4.18,0,0,0,3.46,1.83,6.34,6.34,0,0,0,4.93-2.48A20.41,20.41,0,0,0,58,38.78l3-3.86-.1-.17h0l0,0-1.22-2.06Zm-4.58,2.68A2.48,2.48,0,0,0,52,34.5a4.87,4.87,0,0,0-2.42,2.09,6,6,0,0,0-.91,3.55c.22,2.4,2.36,2.85,4.22,1.8a4.81,4.81,0,0,0,2-2.09,6.8,6.8,0,0,0,.69-2.14,3.42,3.42,0,0,0-.44-2.39Zm13.78,29H54.05a4.81,4.81,0,0,0-4.8,4.8V99.58H73.64V69.14a4.81,4.81,0,0,0-4.8-4.8ZM88.19,67H103a2.08,2.08,0,0,1,2.08,2.08v14.7A2.08,2.08,0,0,1,103,85.89H88.19a2.08,2.08,0,0,1-2.08-2.08V69.11A2.08,2.08,0,0,1,88.19,67Zm12.73,4.16H90.27V81.73h10.66V71.19ZM19.89,67H34.7a2.08,2.08,0,0,1,2.08,2.08v14.7a2.08,2.08,0,0,1-2.08,2.08H19.89a2.08,2.08,0,0,1-2.08-2.08V69.11A2.08,2.08,0,0,1,19.89,67Zm12.73,4.16H22V81.73H32.63V71.19ZM85.83,41.07a27.79,27.79,0,0,1-48.78,0H11.26V99.58H45.09V69.14a9,9,0,0,1,9-9h14.8a9,9,0,0,1,9,9V99.58h33.83V41.07Zm-24.39-38A24.72,24.72,0,1,1,36.73,27.77,24.71,24.71,0,0,1,61.44,3.06Z"/></svg>