<svg id="Layer_1" data-name="Layer 1" xmlns="http://www.w3.org/2000/svg" viewBox="0 0 68.56 122.88"><defs><style>.cls-1{fill-rule:evenodd;}</style></defs><title>battery-recycle</title><path class="cls-1" d="M17.91,86.6l-4.86-8.34a4.42,4.42,0,0,1-.47-4.44L15.43,69l-2.85-1.54,9.58,0,4.78,8.36-3-1.7L19.2,82.6a8.79,8.79,0,0,0-1.06,2.33,7.3,7.3,0,0,0-.23,1.67ZM58.19,14.8H53.4V3.26a3.21,3.21,0,0,0-1-2.3,3.26,3.26,0,0,0-2.3-1H18.41a3.22,3.22,0,0,0-2.29,1,3.22,3.22,0,0,0-1,2.3V14.8H10.37A10.34,10.34,0,0,0,3,17.85L2.86,18A10.33,10.33,0,0,0,0,25.17v87.34a10.38,10.38,0,0,0,10.37,10.37H58.19a10.36,10.36,0,0,0,7.31-3h0a10.34,10.34,0,0,0,3-7.33V25.17A10.41,10.41,0,0,0,58.19,14.8ZM10.37,20.91H58.19a4.27,4.27,0,0,1,4.26,4.26v87.34a4.26,4.26,0,0,1-1.25,3h0a4.25,4.25,0,0,1-3,1.24H10.37a4.27,4.27,0,0,1-4.26-4.26V25.17a4.26,4.26,0,0,1,1.13-2.89l.12-.12a4.26,4.26,0,0,1,3-1.25Zm9.46,39.91,4.61-8A4.16,4.16,0,0,1,28.89,51a3.7,3.7,0,0,1,2.39,2c.84,1.29,1.58,2.66,2.34,4l-5.16,8.86-8.63-5.12Zm10.49-11,9.64,0A4.39,4.39,0,0,1,44,51.64l2.72,4.86,2.76-1.7-4.75,8.31-9.63,0,3-1.7-5-8.39a8.75,8.75,0,0,0-1.49-2.09,7.58,7.58,0,0,0-1.32-1Zm21,14.94,4.65,8a4.18,4.18,0,0,1-.7,4.73,3.71,3.71,0,0,1-3,1c-1.54.09-3.09,0-4.64,0l-5.09-8.9,8.75-4.92Zm4.25,14.57-4.79,8.37a4.41,4.41,0,0,1-3.61,2.62l-5.58-.07.1,3.24-4.82-8.28,4.84-8.31v3.4l9.74-.1A8.8,8.8,0,0,0,54,80a7.6,7.6,0,0,0,1.56-.63ZM32.64,90.2l-9.25,0a4.19,4.19,0,0,1-3.75-3,3.7,3.7,0,0,1,.57-3.1c.69-1.37,1.51-2.69,2.3-4l10.25,0-.12,10Z"/></svg>