<?xml version="1.0" encoding="utf-8"?><svg version="1.1" id="Layer_1" xmlns="http://www.w3.org/2000/svg" xmlns:xlink="http://www.w3.org/1999/xlink" x="0px" y="0px" viewBox="0 0 67.94 122.88" style="enable-background:new 0 0 67.94 122.88" xml:space="preserve"><style type="text/css">.st0{fill-rule:evenodd;clip-rule:evenodd;}</style><g><path class="st0" d="M26.97,0h14c3.22,0,5.85,2.63,5.85,5.85v5.14h16.95c2.29,0,4.17,1.88,4.17,4.17v103.55 c0,2.29-1.88,4.17-4.17,4.17H4.17C1.88,122.88,0,121,0,118.71V15.16c0-2.29,1.88-4.17,4.17-4.17h16.95V5.85 C21.12,2.63,23.75,0,26.97,0L26.97,0z M11.44,22.65h45.07v87.33H11.44V22.65L11.44,22.65z M27.27,47.16l12.98,0.16L34.21,66.9 h14.02L25.15,95.46l5.86-19.69H19.72L27.27,47.16L27.27,47.16z M5.52,16.63h56.9V116H5.52V16.63L5.52,16.63z"/></g></svg>