<?xml version="1.0" encoding="utf-8"?><svg version="1.1" id="Layer_1" xmlns="http://www.w3.org/2000/svg" xmlns:xlink="http://www.w3.org/1999/xlink" x="0px" y="0px" width="122.88px" height="60.378px" viewBox="0 0 122.88 60.378" enable-background="new 0 0 122.88 60.378" xml:space="preserve"><g><path fill-rule="evenodd" clip-rule="evenodd" d="M4.574,0h105.502c1.676,0,3.046,1.372,3.046,3.05v11.3 c0.1-0.021,0.202-0.032,0.306-0.032h7.928c0.84,0,1.524,0.685,1.524,1.524v27.446c0,0.839-0.685,1.523-1.524,1.523h-7.928 c-0.104,0-0.206-0.011-0.306-0.029v12.547c0,1.679-1.37,3.05-3.046,3.05H3.05c-1.678,0-3.05-1.371-3.05-3.05V4.573 C0,2.057,2.057,0,4.574,0L4.574,0z M10.447,8.335h92.229v43.708H10.447V8.335L10.447,8.335z"/></g></svg>