<?xml version="1.0" encoding="utf-8"?><svg version="1.1" id="Layer_1" xmlns="http://www.w3.org/2000/svg" xmlns:xlink="http://www.w3.org/1999/xlink" x="0px" y="0px" viewBox="0 0 69.7 122.88" style="enable-background:new 0 0 69.7 122.88" xml:space="preserve"><g><path d="M61.08,21.21c0.66,2.02,1.44,4.04,2.38,6.07l0,0c1.47,3.2,3.32,6.44,5.68,9.72c0.37,0.51,0.55,1.11,0.55,1.69h0.01v67.23 c0,0.87-0.38,1.65-0.98,2.18c-1.95,2.01-3.68,4.08-5.15,6.23c-1.48,2.16-2.69,4.39-3.6,6.71c-0.45,1.15-1.54,1.85-2.7,1.85v0.01 H14.16c-1.23,0-2.29-0.77-2.71-1.85c-1.01-2.13-2.42-4.24-4.14-6.34c-1.8-2.21-3.97-4.42-6.37-6.64c-0.62-0.57-0.94-1.35-0.94-2.13 H0V38.69c0-0.78,0.31-1.49,0.81-2.01c2.37-2.92,4.51-5.94,6.31-9.09c1.19-2.08,2.23-4.21,3.08-6.38H4.77 c-1.61,0-2.91-1.3-2.91-2.91c0-1.61,1.3-2.91,2.91-2.91h21.82L15.91,4.33c-0.98-1.02-0.95-2.64,0.07-3.62 C17-0.26,18.62-0.23,19.6,0.78l14.1,14.61h30.17c1.61,0,2.91,1.3,2.91,2.91c0,1.61-1.3,2.91-2.91,2.91H61.08L61.08,21.21z M47.4,62.03h3.5c2.33,0,3.91,0.09,4.73,0.27c0.82,0.18,1.5,0.64,2.02,1.38c0.52,0.74,0.78,1.92,0.78,3.54 c0,1.48-0.18,2.47-0.55,2.98c-0.36,0.51-1.09,0.81-2.17,0.91c0.98,0.24,1.64,0.57,1.97,0.98c0.33,0.4,0.54,0.78,0.63,1.12 c0.08,0.34,0.12,1.28,0.12,2.81v5.01h-4.59v-6.31c0-1.02-0.08-1.65-0.24-1.89c-0.16-0.24-0.58-0.36-1.26-0.36v8.57H47.4V62.03 L47.4,62.03z M52.34,65.28v4.23c0.56,0,0.95-0.08,1.17-0.23c0.22-0.15,0.33-0.65,0.33-1.49v-1.04c0-0.6-0.11-1-0.32-1.19 C53.3,65.37,52.91,65.28,52.34,65.28L52.34,65.28z M36.91,62.03h8.24v3.8h-3.3v3.6h3.09v3.62h-3.09v4.18h3.63v3.8h-8.57V62.03 L36.91,62.03z M26.41,62.03h8.24v3.8h-3.3v3.6h3.09v3.62h-3.09v4.18h3.63v3.8h-8.57V62.03L26.41,62.03z M12.64,62.03h4.93 c1.56,0,2.74,0.12,3.54,0.36c0.8,0.24,1.45,0.73,1.94,1.47c0.49,0.74,0.74,1.93,0.74,3.57c0,1.11-0.17,1.89-0.52,2.32 c-0.35,0.44-1.03,0.78-2.06,1.01c1.14,0.26,1.92,0.69,2.32,1.29c0.4,0.6,0.61,1.51,0.61,2.75v1.76c0,1.28-0.15,2.23-0.44,2.85 c-0.29,0.62-0.76,1.04-1.4,1.27c-0.64,0.23-1.95,0.34-3.94,0.34h-5.72V62.03L12.64,62.03z M17.58,65.28v4.23 c0.21-0.01,0.38-0.01,0.5-0.01c0.48,0,0.79-0.12,0.92-0.36c0.13-0.24,0.2-0.92,0.2-2.05c0-0.6-0.06-1.01-0.16-1.25 c-0.11-0.24-0.25-0.39-0.43-0.45C18.43,65.32,18.09,65.28,17.58,65.28L17.58,65.28z M17.58,72.46v5.31 c0.7-0.02,1.14-0.13,1.33-0.33c0.19-0.2,0.29-0.68,0.29-1.44v-1.77c0-0.81-0.09-1.31-0.26-1.48 C18.77,72.58,18.31,72.48,17.58,72.46L17.58,72.46z M5.81,103.64h58.07V41.6H5.81V103.64L5.81,103.64z M59.9,109.48H10.5 c0.45,0.51,0.89,1.03,1.32,1.55c1.62,1.98,3.01,3.99,4.13,6.04h39.41c0.95-2.07,2.1-4.07,3.42-6.01 C59.14,110.52,59.51,110,59.9,109.48L59.9,109.48z M8.77,35.78h52.64c-1.23-2.04-2.29-4.07-3.21-6.07l0,0l0-0.01 c-1.28-2.78-2.29-5.52-3.12-8.22h-38.8c-1.08,3.13-2.47,6.12-4.11,9C11.13,32.28,9.99,34.04,8.77,35.78L8.77,35.78z"/></g></svg>