<svg xmlns="http://www.w3.org/2000/svg" viewBox="0 0 333333 333333" shape-rendering="geometricPrecision" text-rendering="geometricPrecision" image-rendering="optimizeQuality" fill-rule="evenodd" clip-rule="evenodd"><path d="M166667 0c46023 0 87690 18655 117851 48816s48816 71828 48816 117851-18655 87690-48816 117851-71828 48816-117851 48816-87690-18655-117851-48816S0 212690 0 166667 18655 78977 48816 48816 120644 0 166667 0zm-32656 117964c4583 0 8709 398 12470 1216 3770 786 6955 2127 9658 3946 2671 1825 4731 4255 6255 7285 1458 3002 2186 6769 2186 11231 0 4828-1087 8832-3283 12057-2215 3216-5432 5830-9747 7899 5887 1699 10232 4674 13147 8898 2913 4255 4313 9355 4313 15359 0 4858-944 9015-2787 12539-1882 3555-4433 6436-7557 8657-3157 2244-6800 3884-10872 4947-4043 1056-8200 1609-12499 1609l-46368 1v-95637l45089 3-6-12v1zm56371 7715h38777v9446l-38777-2v-9446 3zm8617 71289c2858 2787 6956 4187 12304 4187 3825 0 7170-976 9928-2918 2757-1943 4433-4000 5073-6129l16754 3c-2703 8344-6772 14272-12355 17856-5501 3583-12232 5403-20042 5403-5472 0-10356-887-14760-2617-4402-1759-8074-4215-11173-7443-3004-3216-5372-7041-7044-11538-1642-4459-2485-9414-2485-14757 0-5191 855-10020 2545-14485 1730-4499 4100-8347 7256-11601 3153-3252 6858-5831 11233-7713 4344-1885 9142-2829 14456-2829 5856 0 10987 1128 15391 3432 4373 2273 7985 5343 10809 9171 2829 3831 4829 8229 6075 13144 1245 4915 1670 10046 1328 15428l-50002-2c0 5432 1825 10631 4703 13386l6 20v-1zm21833-36369c-2244-2488-6103-3857-10745-3857-3042 0-5555 513-7558 1546-1971 1028-3583 2301-4829 3825-1214 1518-2069 3159-2543 4884-485 1670-786 3217-887 4557l30975-3c-456-4855-2127-8439-4402-10958l-11 6h-1zm-89561-4015c3730 0 6826-887 9254-2675 2427-1759 3583-4674 3583-8685 0-2212-396-4071-1185-5501-814-1426-1885-2554-3248-3340-1340-815-2852-1372-4639-1672-1730-330-3556-482-5403-482h-19672v22344h21317l-6 11h-1zm1154 40714c2071 0 4043-183 5882-614 1882-424 3555-1059 4947-2028 1398-944 2585-2183 3428-3825 855-1613 1245-3673 1245-6189 0-4915-1400-8442-4157-10571-2757-2101-6431-3127-10985-3127h-22831v26318l22470-3v41zM273296 60038c-27287-27287-64987-44165-106628-44165-41642 0-79341 16878-106628 44165s-44165 64987-44165 106628c0 41642 16878 79341 44165 106628s64987 44165 106628 44165c41642 0 79341-16878 106628-44165s44165-64987 44165-106628c0-41642-16878-79341-44165-106628z" fill="#1769ff" fill-rule="nonzero"/></svg>