<svg xmlns="http://www.w3.org/2000/svg" viewBox="0 0 3333 3333" shape-rendering="geometricPrecision" text-rendering="geometricPrecision" image-rendering="optimizeQuality" fill-rule="evenodd" clip-rule="evenodd"><path d="M1274 1081c55 0 105 5 150 15 45 9 84 26 116 47 32 22 57 51 75 88 18 36 26 81 26 135 0 58-13 106-40 145s-65 70-117 95c71 20 123 56 158 107s52 113 52 185c0 58-11 109-34 151-23 43-53 77-91 104s-82 47-131 60-99 19-150 19H730V1081h543zM1667 0c460 0 877 187 1179 488 302 302 488 718 488 1179 0 460-187 877-488 1179-302 302-718 488-1179 488-460 0-877-187-1179-488C186 2544 0 2128 0 1667c0-460 187-877 488-1179C790 186 1206 0 1667 0zm1093 573c-280-280-666-453-1093-453S853 293 574 573c-280 280-453 666-453 1093s173 814 453 1093c280 280 666 453 1093 453s814-173 1093-453c280-280 453-666 453-1093s-173-814-453-1093zm-808 600h467v114h-467v-114zm104 858c34 34 84 50 148 50 46 0 86-12 119-35s53-48 61-74h202c-33 100-81 172-149 215-66 43-147 65-241 65-66 0-125-11-178-31-53-21-97-51-134-90-36-39-65-85-85-139s-30-113-30-178c0-62 10-121 31-174 21-54 49-100 87-140 38-39 83-70 135-93s110-34 174-34c70 0 132 14 185 41s96 64 130 110 58 99 73 158 20 121 16 186h-602c0 65 22 128 57 161zm263-438c-27-30-73-46-129-46-37 0-67 6-91 19-24 12-43 28-58 46s-25 38-31 59c-6 20-9 39-11 55h373c-5-58-26-102-53-132zm-1078-48c45 0 82-11 111-32s43-56 43-105c0-27-5-49-14-66-10-17-23-31-39-40-16-10-34-17-56-20-21-4-43-6-65-6H984v269h257zm14 490c25 0 49-2 71-7 23-5 43-13 60-24s31-26 41-46c10-19 15-44 15-74 0-59-17-102-50-127s-77-38-132-38H985v317h270z"/></svg>