<?xml version="1.0" encoding="utf-8"?><svg version="1.1" id="Layer_1" xmlns="http://www.w3.org/2000/svg" xmlns:xlink="http://www.w3.org/1999/xlink" x="0px" y="0px" width="122.88px" height="116.1px" viewBox="0 0 122.88 116.1" enable-background="new 0 0 122.88 116.1" xml:space="preserve"><g><path fill-rule="evenodd" clip-rule="evenodd" d="M78.661,102.318c-1.41,7.837-8.262,13.781-16.503,13.781 c-8.24,0-15.094-5.944-16.504-13.781H78.661L78.661,102.318z M70.051,6.933c9.559,1.928,17.906,7.293,23.693,14.735L22.162,63.147 c0.218-5.356,0.059-11.014,0.059-17.033c0-19.394,14.003-35.676,32.4-39.238C55.68-2.324,69.057-2.279,70.051,6.933L70.051,6.933z M114.135,15.897l6.855,11.833L6.855,93.866L0,82.033L114.135,15.897L114.135,15.897z M102.125,44.706 c0.017,0.468,0.027,0.939,0.027,1.408c0,22.746-2.158,39.85,20.728,55.082H4.64L102.125,44.706L102.125,44.706z"/></g></svg>