<?xml version="1.0" encoding="utf-8"?><svg version="1.1" id="Layer_1" xmlns="http://www.w3.org/2000/svg" xmlns:xlink="http://www.w3.org/1999/xlink" x="0px" y="0px" viewBox="0 0 123.38 109.77" style="enable-background:new 0 0 123.38 109.77" xml:space="preserve"><style type="text/css">.st0{fill-rule:evenodd;clip-rule:evenodd;stroke:#000000;stroke-width:0.5;stroke-miterlimit:2.6131;}</style><g><path class="st0" d="M115.74,73.47v35.2c0,0.47-0.39,0.85-0.85,0.85h-6.62c-0.47,0-0.86-0.39-0.86-0.86v-25.3H16.93v25.31 c0,0.47-0.38,0.85-0.85,0.85H9.46c-0.47,0-0.86-0.39-0.86-0.86V73.47H5.72c-1.51,0-2.88-0.61-3.87-1.6 c-0.99-0.99-1.6-2.36-1.6-3.87v-5.5c0-1.51,0.61-2.88,1.6-3.87c0.99-0.99,2.36-1.6,3.87-1.6h6.7V36.19H6 c-1.51,0-2.88-0.61-3.87-1.6c-0.99-0.99-1.6-2.36-1.6-3.87V9.79c0-1.51,0.61-2.88,1.6-3.87C3.12,4.94,4.49,4.32,6,4.32h6.42V1.17 c0-0.5,0.41-0.92,0.92-0.92h6.06c0.5,0,0.92,0.41,0.92,0.92v3.15h82.48V1.17c0-0.5,0.41-0.92,0.92-0.92h6.06 c0.5,0,0.92,0.41,0.92,0.92v3.15h6.97c1.51,0,2.88,0.61,3.87,1.6c0.99,0.99,1.6,2.36,1.6,3.87v20.92c0,1.51-0.61,2.88-1.6,3.87 c-0.99,0.99-2.36,1.6-3.87,1.6h-6.97v20.84h6.7c1.51,0,2.88,0.61,3.87,1.6c0.99,0.99,1.6,2.36,1.6,3.87V68 c0,1.51-0.61,2.88-1.6,3.87c-0.99,0.99-2.36,1.6-3.87,1.6H115.74L115.74,73.47z M5.03,62.02h113.75v6.9H5.03V62.02L5.03,62.02z M5.32,9.55h112.6v20.7H5.32V9.55L5.32,9.55z M107.41,79.54v-6.06H16.93v6.06H107.41L107.41,79.54z M102.79,57.03V36.19H20.31 v20.84H102.79L102.79,57.03z"/></g></svg>