<svg xmlns="http://www.w3.org/2000/svg" viewBox="0 0 122.88 84.67"><defs><style>.a{fill:#010101;}.b{fill:#f6eb16;}</style></defs><title>best-buy</title><path class="a" d="M28.7,0,2.89,20.17,0,50.78l21.42,25,94.33,8.84L122.88,9,28.7,0ZM9.27,39.45a2.64,2.64,0,1,1,2.88-2.38,2.64,2.64,0,0,1-2.88,2.38Z"/><path class="b" d="M29.32,1.72,4.44,21,1.56,50.17l20.65,24L114.36,83l6.8-72.41L29.32,1.72ZM13.68,37.21a4.18,4.18,0,1,1-3.76-4.56,4.19,4.19,0,0,1,3.76,4.56Z"/><polygon class="a" points="46.93 17.54 67.78 19.53 67.18 25.78 57.79 24.88 57.6 26.89 66.17 27.71 65.62 33.43 57.1 32.63 56.89 34.9 66.48 35.81 65.92 41.75 44.92 39.74 46.93 17.54 46.93 17.54"/><path class="a" d="M70.89,34.41l-4,5.82a33.67,33.67,0,0,0,11.83,3.26c6.86.61,11.9-1.36,13.51-4.65a5.84,5.84,0,0,0-3.5-8c-3.18-1-8.7-2.12-8.12-3.22s4-.86,6.14,0A10.44,10.44,0,0,1,89.48,29l3.62-5.18s-3.85-2.81-11-3.24-12.49,3.18-12.86,6.53,1.78,5.33,5.06,6.52c0,0,2.77.9,4.87,1.35s3.41,1.84.92,2.33S72.4,36,70.89,34.41Z"/><polygon class="a" points="99.54 29.91 93.4 29.32 94.09 22.1 117.72 24.35 117.04 31.58 110.9 30.99 109.46 46.01 98.26 44.94 99.54 29.91 99.54 29.91"/><path class="a" d="M48.67,42.91l10.85,1-1.15,12.6s-1.07,3,2.54,3.37S64.36,57,64.36,57l1.19-12.43,10.89,1L75,60.22s-1.28,8-14.6,6.73-13.13-9.69-13.13-9.69l1.36-14.35Z"/><polygon class="a" points="88.92 46.76 92.03 52.88 96.05 47.44 108.69 48.64 96.9 60.32 95.98 69.87 84.89 68.81 85.79 59.42 76.33 45.6 88.92 46.76 88.92 46.76"/><path class="a" d="M41.67,53.19s4.57-.9,4.45-5.57-9.43-5.82-9.43-5.82L21.3,40.27,19.2,62.54s12.28,1.3,15.86,1.58,10.78,0,11.49-4.62-4.88-6.31-4.88-6.31Zm-10.5-6.38s4.73-.44,4.47,1.78-4.76,1.21-4.76,1.21l.29-3Zm-1,11.36.24-3.62s5.91-.22,5.72,2.31-6,1.31-6,1.31Z"/><path class="a" d="M39.43,27.67s4.57-.9,4.45-5.57-9.44-5.83-9.44-5.83L19.05,14.75,17,37s12.28,1.29,15.85,1.58,10.78,0,11.49-4.62-4.87-6.31-4.87-6.31ZM29,21.35s4.73-.44,4.47,1.78-4.76,1.21-4.76,1.21l.29-3ZM28,32.71l.24-3.62s5.9-.22,5.72,2.32-6,1.3-6,1.3Z"/><path class="a" d="M108.77,50.83a1.8,1.8,0,1,1,1.62,2,1.8,1.8,0,0,1-1.62-2Zm3.14.3a1.36,1.36,0,1,0-1.49,1.31,1.37,1.37,0,0,0,1.49-1.31ZM110,49.91l.75.07c.49.05.74.24.7.67a.52.52,0,0,1-.59.5l.46.93-.39,0-.44-.93-.23,0-.08.87-.38,0,.2-2Zm.29.9.33,0c.23,0,.42,0,.45-.27s-.19-.29-.38-.31l-.34,0-.06.58Z"/></svg>