<?xml version="1.0" encoding="utf-8"?><svg version="1.1" id="Layer_1" xmlns="http://www.w3.org/2000/svg" xmlns:xlink="http://www.w3.org/1999/xlink" x="0px" y="0px" viewBox="0 0 115.28 122.88" style="enable-background:new 0 0 115.28 122.88" xml:space="preserve"><style type="text/css">.st0{fill-rule:evenodd;clip-rule:evenodd;}</style><g><path class="st0" d="M25.38,57h64.88V37.34H69.59c-2.17,0-5.19-1.17-6.62-2.6c-1.43-1.43-2.3-4.01-2.3-6.17V7.64l0,0H8.15 c-0.18,0-0.32,0.09-0.41,0.18C7.59,7.92,7.55,8.05,7.55,8.24v106.45c0,0.14,0.09,0.32,0.18,0.41c0.09,0.14,0.28,0.18,0.41,0.18 c22.78,0,58.09,0,81.51,0c0.18,0,0.17-0.09,0.27-0.18c0.14-0.09,0.33-0.28,0.33-0.41v-11.16H25.38c-4.14,0-7.56-3.4-7.56-7.56 V64.55C17.82,60.4,21.22,57,25.38,57L25.38,57z M33.09,67.71h14.72c2.45,0,4.33,0.61,5.65,1.82c1.31,1.21,1.97,2.72,1.97,4.51 c0,1.5-0.47,2.79-1.41,3.87c-0.62,0.72-1.54,1.28-2.74,1.7c1.83,0.44,3.17,1.19,4.03,2.26c0.86,1.07,1.29,2.42,1.29,4.03 c0,1.32-0.31,2.5-0.92,3.56c-0.62,1.05-1.46,1.88-2.52,2.5c-0.66,0.38-1.66,0.66-2.99,0.83c-1.77,0.23-2.94,0.35-3.52,0.35H33.09 V67.71L33.09,67.71z M41.01,77.69h3.43c1.23,0,2.08-0.21,2.56-0.63c0.48-0.43,0.72-1.04,0.72-1.83c0-0.74-0.24-1.32-0.72-1.73 c-0.48-0.42-1.32-0.63-2.51-0.63h-3.48V77.69L41.01,77.69z M41.01,87.67h4.01c1.36,0,2.31-0.24,2.86-0.72 c0.56-0.48,0.83-1.12,0.83-1.93c0-0.75-0.27-1.36-0.82-1.81c-0.55-0.46-1.52-0.69-2.89-0.69h-3.99V87.67L41.01,87.67z M60.47,67.71 h7.88v25.43h-7.88V67.71L60.47,67.71z M73.52,67.71h7.33l9.54,14.04V67.71h7.42v25.43h-7.42L80.9,79.18v13.96h-7.39V67.71 L73.52,67.71z M97.79,57h9.93c4.16,0,7.56,3.41,7.56,7.56v31.42c0,4.15-3.41,7.56-7.56,7.56h-9.93v13.55c0,1.61-0.65,3.04-1.7,4.1 c-1.06,1.06-2.49,1.7-4.1,1.7c-29.44,0-56.59,0-86.18,0c-1.61,0-3.04-0.64-4.1-1.7c-1.06-1.06-1.7-2.49-1.7-4.1V5.85 c0-1.61,0.65-3.04,1.7-4.1c1.06-1.06,2.53-1.7,4.1-1.7h58.72C64.66,0,64.8,0,64.94,0c0.64,0,1.29,0.28,1.75,0.69h0.09 c0.09,0.05,0.14,0.09,0.23,0.18l29.99,30.36c0.51,0.51,0.88,1.2,0.88,1.98c0,0.23-0.05,0.41-0.09,0.65V57L97.79,57z M67.52,27.97 V8.94l21.43,21.7H70.19c-0.74,0-1.38-0.32-1.89-0.78C67.84,29.4,67.52,28.71,67.52,27.97L67.52,27.97z"/></g></svg>