<svg xmlns="http://www.w3.org/2000/svg" xmlns:xlink="http://www.w3.org/1999/xlink" viewBox="0 0 511.42 511.42"><defs><style>.cls-1{isolation:isolate;}.cls-2{fill:url(#linear-gradient);}.cls-3{fill:#f6e03b;}.cls-4{fill:#fff;}.cls-5,.cls-6,.cls-9{opacity:0.5;}.cls-5,.cls-6,.cls-7,.cls-8,.cls-9{mix-blend-mode:multiply;}.cls-5{fill:url(#linear-gradient-2);}.cls-6{fill:url(#linear-gradient-3);}.cls-7,.cls-8{opacity:0.4;}.cls-7{fill:url(#linear-gradient-4);}.cls-8{fill:url(#linear-gradient-5);}.cls-9{fill:url(#linear-gradient-6);}</style><linearGradient id="linear-gradient" x1="478.43" y1="443.57" x2="68.57" y2="98.03" gradientUnits="userSpaceOnUse"><stop offset="0" stop-color="#40aee2"/><stop offset="1" stop-color="#5cc2ea"/></linearGradient><linearGradient id="linear-gradient-2" x1="98.52" y1="226.68" x2="149.04" y2="226.68" gradientUnits="userSpaceOnUse"><stop offset="0" stop-color="#1d1d1b" stop-opacity="0.8"/><stop offset="0.89" stop-color="#fff"/></linearGradient><linearGradient id="linear-gradient-3" x1="257.23" y1="305.31" x2="296.29" y2="304.15" xlink:href="#linear-gradient-2"/><linearGradient id="linear-gradient-4" x1="313.86" y1="306.24" x2="313.86" y2="267.47" xlink:href="#linear-gradient-2"/><linearGradient id="linear-gradient-5" x1="313.86" y1="343.04" x2="313.86" y2="371.95" xlink:href="#linear-gradient-2"/><linearGradient id="linear-gradient-6" x1="138.33" y1="303.01" x2="235.39" y2="303.01" xlink:href="#linear-gradient-2"/></defs><title>bip</title><g class="cls-1"><g id="Layer_1" data-name="Layer 1"><path class="cls-2" d="M457.25,414.43A254.63,254.63,0,0,0,512,256.29C512,115.06,397.51.58,256.29.58S.58,115.06.58,256.29,115.06,512,256.29,512a254.6,254.6,0,0,0,156.2-53.24l55.35,10.91Z" transform="translate(-0.58 -0.58)"/><circle class="cls-3" cx="255.71" cy="148.07" r="19.95"/><path class="cls-4" d="M375.48,187.18a12.89,12.89,0,0,0-1.67-.11,79.22,79.22,0,0,0-79.22,79.22v35a40.08,40.08,0,0,1-20.66-35.14V208.62a19.26,19.26,0,0,0-19.27-19.27h0a19.27,19.27,0,0,0-19.27,19.27v57.52a40.06,40.06,0,0,1-26.46,37.77A79.24,79.24,0,0,0,98.52,198.3V148A19.27,19.27,0,1,0,60,148V266.38a79.2,79.2,0,0,0,78.38,79.2h56.36a79,79,0,0,0,59.94-27.42A79.26,79.26,0,0,0,294.59,343V384.7a19.27,19.27,0,1,0,38.54,0V345.59h40.68a79.21,79.21,0,0,0,1.67-158.41ZM138.33,306.06a39.79,39.79,0,0,1-8.58-.94,40.75,40.75,0,0,1-30.38-30.86,39.77,39.77,0,1,1,39,31.8Zm234.62.08H333.18V266.38h0A39.77,39.77,0,1,1,373,306.14Z" transform="translate(-0.58 -0.58)"/><path class="cls-5" d="M98.52,198.3v68h0A39.79,39.79,0,0,1,149,228V187.68a79.91,79.91,0,0,0-9.85-.61A78.92,78.92,0,0,0,98.52,198.3Z" transform="translate(-0.58 -0.58)"/><path class="cls-6" d="M293.22,342.67c.06-13,.18-32.06.36-42a40,40,0,0,1-19.64-34.31h0a78.89,78.89,0,0,1-19.28,51.78A79.32,79.32,0,0,0,293.22,342.67Z" transform="translate(-0.58 -0.58)"/><path class="cls-7" d="M294.59,301.28V267.47h38.54v38.77H313.88A39.7,39.7,0,0,1,294.59,301.28Z" transform="translate(-0.58 -0.58)"/><path class="cls-8" d="M314.61,345.59a79.08,79.08,0,0,1-20-2.55V372l38.54-.62V345.59Z" transform="translate(-0.58 -0.58)"/><path class="cls-9" d="M235.39,260.42v5.72a40.06,40.06,0,0,1-26.46,37.77,79.22,79.22,0,0,1-69.74,41.6h-.59l-.27.09h56.39a78.82,78.82,0,0,0,40.67-11.23V260.42Z" transform="translate(-0.58 -0.58)"/></g></g></svg>