<?xml version="1.0" encoding="utf-8"?><svg version="1.1" id="Layer_1" xmlns="http://www.w3.org/2000/svg" xmlns:xlink="http://www.w3.org/1999/xlink" x="0px" y="0px" viewBox="0 0 113.21 122.88" style="enable-background:new 0 0 113.21 122.88" xml:space="preserve"><g><path d="M19.06,28.47c-1.79-1.49-3.27-2.91-4.56-4.4c-1.33-1.55-2.45-3.16-3.47-5.01c-1.06-1.92-1.99-4.07-2.94-6.62 C7.16,9.91,6.21,6.99,5.12,3.5L3.73,3.44C3,10.81,3.46,15.59,4.67,19.27c1.22,3.71,3.21,6.33,5.54,9.38 c0.58,0.76,1.18,1.55,1.8,2.39c0.57,0.78,1.16,1.6,1.75,2.48c0.78-0.91,1.61-1.79,2.49-2.63C17.13,30.05,18.07,29.24,19.06,28.47 L19.06,28.47z M14.27,55.48c-0.1-2.35,0.16-4.66,0.73-6.87c0.59-2.29,1.52-4.48,2.72-6.51c1.22-2.07,2.74-3.96,4.48-5.64 c1.74-1.67,3.71-3.11,5.85-4.27c3.66-1.98,7.98-3.49,12.66-4.51c4.83-1.06,10.04-1.6,15.27-1.6c5.17-0.01,10.37,0.51,15.26,1.55 c4.67,1,9.06,2.49,12.88,4.48c2.64,1.38,5.03,3.06,7.09,5c2.01,1.9,3.7,4.06,4.98,6.42c2.26,4.16,3.16,8.05,3.03,11.86 c-0.13,3.81-1.3,7.54-3.19,11.38c-1.93,3.92-4.7,7.3-8.05,10.12c-3.55,2.98-7.77,5.33-12.37,7.03c-4.41,1.63-9.19,2.65-14.06,3.06 c-4.87,0.41-9.85,0.19-14.67-0.67c-2.35-0.42-4.67-0.99-6.93-1.72c-2.21-0.71-4.35-1.58-6.41-2.59c-2.75-1.36-5.38-3.03-7.75-4.97 c-2.28-1.87-4.32-3.99-6.04-6.33c-1.91-2.61-3.2-4.77-4.06-7.1C14.83,61.27,14.41,58.77,14.27,55.48L14.27,55.48z M20.61,43.82 c-1.04,1.76-1.84,3.65-2.35,5.63c-0.49,1.9-0.72,3.89-0.63,5.91c0.04,0.84,0.12,1.67,0.24,2.49c0.11,0.75,0.26,1.49,0.45,2.21 c0.86-0.49,1.77-0.95,2.74-1.39c1.04-0.48,2.16-0.92,3.34-1.33c1.55-0.53,3.21-1,5.01-1.39c1.8-0.39,3.75-0.7,5.86-0.93 c1.26-0.13,2.53-0.15,3.8-0.06c1.27,0.08,2.53,0.26,3.79,0.51c1.22,0.24,2.44,0.55,3.65,0.9c1.21,0.35,2.4,0.75,3.57,1.16 c1.53,0.54,2.86,1.01,4.04,1.4c1.18,0.39,2.23,0.72,3.16,0.96c0.89,0.23,1.7,0.4,2.48,0.5c0.77,0.1,1.51,0.13,2.26,0.1 c3.16-0.14,6.4-1.3,9.7-2.49l0.01,0c1.84-0.66,3.7-1.33,5.6-1.86c1.92-0.53,3.9-0.93,5.96-1.04c0.98-0.05,1.98-0.05,3.04,0.02 c1.05,0.07,2.15,0.2,3.32,0.4c0.91,0.16,1.87,0.36,2.88,0.61c0.93,0.24,1.92,0.51,2.96,0.84c0.24-2.1,0.17-4.11-0.18-6.02 c-0.38-2.06-1.08-4-2.06-5.8c-1.12-2.06-2.6-3.94-4.38-5.61c-1.82-1.71-3.94-3.19-6.3-4.42c-3.58-1.86-7.72-3.26-12.12-4.2 c-4.63-0.99-9.56-1.47-14.47-1.46c-4.96,0.01-9.89,0.51-14.45,1.5c-4.4,0.96-8.47,2.37-11.88,4.22c-1.87,1.01-3.59,2.27-5.11,3.73 C23.01,40.35,21.68,42.01,20.61,43.82L20.61,43.82z M19.8,64.22c0.35,0.76,0.74,1.49,1.16,2.21c0.46,0.78,0.96,1.54,1.5,2.27 c1.55,2.12,3.41,4.05,5.49,5.74c2.17,1.77,4.56,3.29,7.08,4.53c1.91,0.94,3.9,1.74,5.96,2.4c2.1,0.68,4.27,1.21,6.47,1.6 c4.54,0.81,9.22,1.01,13.8,0.63c4.58-0.38,9.06-1.34,13.19-2.87c4.21-1.55,8.06-3.69,11.29-6.38c3.04-2.54,5.54-5.57,7.28-9.09 c0.33-0.67,0.63-1.36,0.91-2.07c0.25-0.64,0.47-1.3,0.67-1.97c-1.02-0.33-1.99-0.61-2.91-0.85c-0.97-0.25-1.89-0.45-2.77-0.6 c-1.01-0.17-1.95-0.29-2.84-0.34c-0.89-0.06-1.74-0.06-2.56-0.02c-3.51,0.19-6.95,1.42-10.33,2.64l-0.01,0 c-3.62,1.3-7.17,2.58-10.98,2.74c-0.98,0.04-1.93,0-2.92-0.12c-0.98-0.12-2-0.33-3.1-0.62c-1.06-0.28-2.18-0.62-3.41-1.03 c-1.23-0.41-2.59-0.89-4.14-1.44c-1.08-0.38-2.18-0.75-3.28-1.07c-1.1-0.32-2.21-0.6-3.32-0.82c-1.07-0.21-2.14-0.36-3.2-0.43 c-1.05-0.07-2.1-0.06-3.11,0.04c-1.94,0.2-3.72,0.49-5.37,0.84c-1.65,0.35-3.15,0.78-4.53,1.25c-1.17,0.4-2.26,0.85-3.29,1.34 C21.56,63.23,20.65,63.71,19.8,64.22L19.8,64.22z M11.61,36.36c-1.39-2.15-2.78-3.97-4.06-5.66l0,0 c-2.64-3.46-4.88-6.41-6.22-10.68c-1.34-4.26-1.77-9.83-0.76-18.53l0.01-0.03c0.06-0.42,0.27-0.8,0.58-1.06 C1.45,0.13,1.86-0.02,2.3,0l4.14,0.2C6.79,0.21,7.13,0.34,7.4,0.55c0.27,0.2,0.48,0.49,0.58,0.84c1.15,3.72,2.14,6.8,3.09,9.42 c0.95,2.61,1.87,4.76,2.91,6.64c0.96,1.74,2.03,3.26,3.32,4.72c1.27,1.43,2.77,2.81,4.59,4.29c4.28-2.75,9.42-4.88,15.01-6.35 c5.81-1.52,12.12-2.33,18.48-2.38c6.52-0.05,13.11,0.69,19.27,2.26c5.82,1.49,11.27,3.73,15.94,6.75l0.21,0.14 c1.98-1.57,3.59-3.01,4.94-4.51c1.38-1.52,2.5-3.1,3.5-4.92c1.04-1.88,1.96-4.03,2.91-6.64c0.95-2.61,1.94-5.69,3.09-9.42 c0.11-0.35,0.32-0.63,0.58-0.84c0.27-0.21,0.61-0.33,0.96-0.35l4.13-0.2c0.44-0.02,0.85,0.13,1.17,0.4 c0.31,0.26,0.52,0.63,0.58,1.06l0.01,0.04c1,8.7,0.51,14.36-0.9,18.73c-1.42,4.38-3.75,7.45-6.45,11 c-0.62,0.82-1.27,1.66-1.92,2.57c-0.63,0.86-1.27,1.77-1.92,2.77c0.59,0.77,1.14,1.57,1.66,2.38c0.53,0.83,1.01,1.69,1.45,2.57 c1.37,2.73,2.31,5.64,2.7,8.72c0.37,2.91,0.26,5.97-0.41,9.16c-0.93,4.41-2.45,8.36-4.42,11.89c-2.11,3.76-4.75,7.04-7.77,9.86 c-2.8,2.61-5.94,4.83-9.29,6.68c-3.46,1.9-7.15,3.41-10.94,4.55c0.22,0.2,0.44,0.41,0.64,0.63c0.28,0.3,0.54,0.62,0.78,0.95 c0.83,1.13,1.38,2.38,1.71,3.68c0.35,1.4,0.44,2.88,0.32,4.36c-0.11,1.34-0.4,2.69-0.83,3.99c-0.45,1.37-1.05,2.7-1.76,3.92 c-0.62,1.06-1.32,2.06-2.08,2.94c-0.76,0.87-1.57,1.63-2.41,2.25c-0.65,0.47-1.29,0.93-1.93,1.36c-0.64,0.43-1.28,0.83-1.91,1.2 c-0.56,0.32-1.1,0.61-1.64,0.86c-0.52,0.24-1.04,0.45-1.55,0.61c-0.36,0.55-0.77,1.05-1.23,1.48c-0.49,0.47-1.04,0.86-1.62,1.19 c-0.61,0.34-1.27,0.61-1.95,0.79c-0.68,0.18-1.39,0.29-2.11,0.31c-0.72,0.02-1.44-0.05-2.15-0.21c-0.69-0.15-1.37-0.39-2.01-0.72 l-0.03-0.02c-0.63-0.32-1.23-0.73-1.79-1.21c-0.52-0.46-1-0.99-1.41-1.6c-0.52-0.16-1.05-0.37-1.58-0.62 c-0.55-0.25-1.11-0.55-1.67-0.87c-0.64-0.37-1.27-0.77-1.91-1.2c-0.64-0.43-1.28-0.88-1.93-1.36c-0.84-0.61-1.65-1.37-2.41-2.25 c-0.76-0.88-1.47-1.87-2.08-2.94c-0.71-1.22-1.31-2.55-1.76-3.92c-0.43-1.31-0.72-2.65-0.83-3.99c-0.13-1.48-0.04-2.96,0.32-4.36 c0.33-1.31,0.89-2.55,1.71-3.68c0.28-0.38,0.59-0.75,0.92-1.1c0.25-0.25,0.51-0.5,0.79-0.74c-4.15-1.14-8.18-2.82-11.91-4.95 c-3.85-2.2-7.38-4.87-10.41-7.9c-3.42-3.42-6.21-7.31-8.1-11.51c-1.79-3.96-2.78-8.2-2.76-12.58C5.9,52.33,6.24,49.6,6.87,47 c0.65-2.64,1.6-5.15,2.84-7.5c0.29-0.55,0.6-1.1,0.93-1.65C10.95,37.35,11.27,36.85,11.61,36.36L11.61,36.36z M44.09,89.79 c0.05,0.01,0.1,0.02,0.16,0.04c0.04,0.01,0.08,0.02,0.12,0.04c0.42,0,0.82,0.05,1.21,0.14c0.41,0.1,0.81,0.24,1.19,0.42 c0.61,0.3,1.17,0.71,1.68,1.21c0.52,0.52,0.98,1.13,1.39,1.83c0.2,0.34,0.38,0.7,0.55,1.09c0.17,0.39,0.33,0.79,0.47,1.21 c0.52,1.57,0.82,4.41,1,7.6c0.18,3.17,0.24,6.71,0.29,9.66c0.01,0.81,0.03,1.58,0.04,2.29c0.01,0.68,0.03,1.3,0.05,1.85 c0.26,0.39,0.56,0.73,0.88,1.02c0.34,0.31,0.71,0.56,1.1,0.76l0.04,0.02c0.39,0.2,0.81,0.34,1.23,0.43 c0.44,0.1,0.88,0.14,1.33,0.13c0.44-0.01,0.87-0.07,1.3-0.19c0.42-0.11,0.82-0.28,1.2-0.49c0.35-0.2,0.68-0.43,0.97-0.71 c0.27-0.26,0.51-0.55,0.72-0.87c0.02-0.56,0.04-1.19,0.05-1.89c0.02-0.72,0.03-1.51,0.04-2.35c0.05-2.95,0.11-6.48,0.29-9.66 c0.18-3.19,0.48-6.03,1-7.6c0.14-0.42,0.3-0.82,0.47-1.21c0.17-0.39,0.36-0.75,0.55-1.09c0.4-0.7,0.87-1.31,1.39-1.83 c0.51-0.5,1.07-0.91,1.68-1.21c0.58-0.28,1.2-0.47,1.85-0.53c0.61-0.06,1.25-0.03,1.91,0.12c4.23-1.01,8.38-2.48,12.23-4.45 c3.61-1.85,6.97-4.13,9.93-6.89c2.78-2.59,5.2-5.6,7.13-9.05c1.82-3.24,3.21-6.87,4.06-10.92c0.59-2.81,0.69-5.49,0.37-8.04 c-0.34-2.7-1.16-5.25-2.36-7.64c-1.3-2.58-3.05-4.98-5.14-7.18c-2.22-2.33-4.83-4.44-7.68-6.29c-4.38-2.84-9.53-4.94-15.04-6.34 c-5.85-1.49-12.1-2.18-18.31-2.13c-6.34,0.05-12.61,0.88-18.33,2.45c-5.52,1.51-10.52,3.71-14.56,6.56 c-2.12,1.49-4.02,3.17-5.67,5.01c-1.64,1.83-3.04,3.83-4.17,5.97c-1.12,2.12-1.98,4.38-2.56,6.75c-0.57,2.34-0.87,4.8-0.88,7.36 c-0.02,3.91,0.88,7.71,2.51,11.28c1.72,3.79,4.26,7.32,7.38,10.44c3.28,3.28,7.19,6.11,11.46,8.32 C34.83,87.4,39.42,88.98,44.09,89.79L44.09,89.79z M93.67,28.88c1.03,0.78,2.01,1.59,2.95,2.43c0.91,0.82,1.79,1.68,2.61,2.57 c0.56-0.82,1.12-1.61,1.68-2.36c0.58-0.78,1.17-1.57,1.75-2.33c2.39-3.14,4.47-5.88,5.76-9.7c1.29-3.79,1.8-8.66,1.08-16.06 l-1.39,0.07c-1.09,3.49-2.04,6.41-2.97,8.93c-0.95,2.56-1.88,4.71-2.94,6.62c-1.06,1.93-2.23,3.61-3.65,5.21 C97.19,25.83,95.6,27.31,93.67,28.88L93.67,28.88z M69.99,93.44c-0.1-0.01-0.2-0.03-0.3-0.05c-0.1-0.03-0.19-0.06-0.28-0.11 c-0.27-0.05-0.52-0.06-0.76-0.03c-0.25,0.03-0.49,0.1-0.71,0.21c-0.3,0.15-0.59,0.36-0.85,0.64c-0.28,0.29-0.54,0.65-0.78,1.06 c-0.14,0.25-0.28,0.51-0.4,0.79c-0.13,0.28-0.24,0.58-0.34,0.89c-0.44,1.31-0.7,3.95-0.85,6.96c-0.16,3.03-0.22,6.44-0.27,9.28 l-0.04,2.15l0.31-0.16c0.2-0.11,0.4-0.22,0.6-0.33c0.57-0.33,1.15-0.7,1.74-1.1c0.6-0.4,1.19-0.83,1.79-1.26 c0.65-0.47,1.28-1.07,1.88-1.77c0.61-0.71,1.17-1.51,1.68-2.39c0.59-1.01,1.08-2.11,1.46-3.24c0.35-1.07,0.59-2.17,0.68-3.26 c0.09-1.1,0.04-2.18-0.21-3.2c-0.22-0.94-0.61-1.81-1.18-2.59c-0.29-0.4-0.64-0.78-1.05-1.14c-0.39-0.34-0.84-0.66-1.34-0.95 c-0.14-0.08-0.28-0.16-0.42-0.22l-0.01,0C70.23,93.54,70.11,93.49,69.99,93.44L69.99,93.44z M47.67,96.83 c-0.1-0.31-0.22-0.61-0.34-0.89c-0.12-0.28-0.26-0.54-0.4-0.79c-0.24-0.41-0.5-0.77-0.78-1.06c-0.27-0.28-0.55-0.49-0.85-0.64 c-0.28-0.13-0.58-0.21-0.9-0.22c-0.32-0.01-0.65,0.04-1.02,0.16c-0.14,0.05-0.29,0.11-0.45,0.18c-0.15,0.07-0.31,0.15-0.47,0.25 c-0.5,0.29-0.95,0.61-1.34,0.95c-0.41,0.36-0.75,0.74-1.05,1.14c-0.57,0.78-0.95,1.66-1.18,2.59c-0.24,1.01-0.3,2.1-0.21,3.2 c0.09,1.09,0.33,2.19,0.68,3.26c0.37,1.13,0.87,2.22,1.46,3.24c0.51,0.87,1.07,1.68,1.68,2.39c0.6,0.7,1.23,1.3,1.88,1.77 c0.6,0.44,1.2,0.86,1.79,1.26c0.59,0.4,1.18,0.77,1.74,1.1c0.19,0.11,0.39,0.22,0.6,0.33l0.31,0.16l-0.04-2.15 c-0.05-2.84-0.11-6.25-0.26-9.28C48.37,100.78,48.11,98.15,47.67,96.83L47.67,96.83z"/></g></svg>