<svg xmlns="http://www.w3.org/2000/svg"  viewBox="0 0 333333 333333" shape-rendering="geometricPrecision" text-rendering="geometricPrecision" image-rendering="optimizeQuality" fill-rule="evenodd" clip-rule="evenodd"><path d="M166667 0c46023 0 87690 18655 117851 48816s48816 71828 48816 117851-18655 87690-48816 117851-71828 48816-117851 48816-87690-18655-117851-48816S0 212690 0 166667 18655 78977 48816 48816 120644 0 166667 0zm62780 148639h-8085c-4950 0-9292-4191-9633-9012 0-25721-20736-45060-46636-45060l-23632-1c-25883 0-46872 20845-46891 46564v51090c0 25721 21008 46548 46891 46548h50465c25899 0 46835-20827 46835-46548l1-33001c0-5139-4146-10575-9321-10575l6-5zm-89817-18023h27037c4955 0 9012 4058 9012 9012 0 4955-4058 9013-9012 9013l-27037-2c-4955 0-9012-4059-9012-9012 0-4958 4058-9013 9012-9013v3zm54076 72093h-54076c-4955 0-9012-4056-9012-9012 0-4955 4058-9013 9012-9013l54076 5c4955 0 9012 4056 9012 9013 0 4955-4058 9013-9012 9013v-5zm79590-142671c-27287-27287-64987-44165-106628-44165-41642 0-79341 16878-106628 44165s-44165 64987-44165 106628c0 41642 16878 79341 44165 106628s64987 44165 106628 44165c41642 0 79341-16878 106628-44165s44165-64987 44165-106628c0-41642-16878-79341-44165-106628z" fill="#f57d00" fill-rule="nonzero"/></svg>