<?xml version="1.0" encoding="utf-8"?><svg version="1.1" id="Layer_1" xmlns="http://www.w3.org/2000/svg" xmlns:xlink="http://www.w3.org/1999/xlink" x="0px" y="0px" viewBox="0 0 92.79 122.88" style="enable-background:new 0 0 92.79 122.88" xml:space="preserve"><g><path d="M65.35,19.13H11.88c-6.84,0-6.84,1.35-6.83,6.86l0,0.84h0.01v7.12h13.73c1.36,0,2.46,1.1,2.46,2.46 c0,1.36-1.1,2.46-2.46,2.46H5.06v5.74h13.73c1.36,0,2.46,1.1,2.46,2.46c0,1.36-1.1,2.46-2.46,2.46H4.99l-0.01,0.51 c-0.05,1.78-0.1,3.52-0.06,5.23h13.87c1.36,0,2.46,1.1,2.46,2.46c0,1.36-1.1,2.46-2.46,2.46H5.4c0.4,2.1,1.11,4.15,2.31,6.13 c2.87,4.72,7.6,9.18,11.95,13.29c1.31,1.24,2.59,2.44,3.81,3.65h27.71c19.02-20.57,18.87-23.44,17.88-40.9 c-0.26-4.58-0.57-10.12-0.64-17.3c-0.02-1.65-0.07-3.44-0.59-4.62C67.5,19.66,66.79,19.13,65.35,19.13L65.35,19.13z M36.52,93.08 c0.1-0.01,0.21-0.02,0.31-0.02c0.11,0,0.21,0.01,0.31,0.02h12.59v-4.85H24.81v4.85H36.52L36.52,93.08z M39.29,97.99v2.41 c0,1.82,0.08,3.72,0.33,5.52c0.24,1.76,0.64,3.49,1.27,5.05c1.09,2.68,3.22,4.54,5.69,5.49c1.77,0.69,3.71,0.92,5.58,0.68 c1.83-0.23,3.58-0.93,5.01-2.1c1.89-1.54,3.26-3.95,3.57-7.29c0.51-5.47,2.82-9.34,5.99-11.78c2.29-1.77,5.02-2.76,7.82-3.04 c2.75-0.28,5.58,0.13,8.17,1.16c4.07,1.62,7.53,4.77,9.1,9.19c1.16,3.27,1,9.33,0.88,13.92c-0.03,1.04-0.05,1.98-0.05,3.21 c0,1.36-1.1,2.46-2.46,2.46s-2.46-1.1-2.46-2.46c0-0.6,0.03-1.9,0.07-3.32c0.11-4.19,0.25-9.72-0.61-12.17 c-1.06-3-3.46-5.15-6.28-6.27c-1.86-0.74-3.9-1.03-5.88-0.84c-1.92,0.19-3.77,0.86-5.3,2.04c-2.16,1.66-3.74,4.39-4.11,8.34 c-0.45,4.8-2.5,8.33-5.36,10.65c-2.17,1.76-4.78,2.8-7.49,3.15c-2.67,0.34-5.44,0.01-7.96-0.97c-3.67-1.42-6.84-4.19-8.47-8.22 c-0.79-1.95-1.28-4.08-1.58-6.24c-0.29-2.12-0.38-4.22-0.38-6.18v-2.41H22.35c-1.36,0-2.46-1.1-2.46-2.46v-8.95 c-1.12-1.1-2.33-2.25-3.58-3.42c-4.58-4.31-9.55-9-12.78-14.33c-3.81-6.28-3.64-12.4-3.45-18.95c0.03-1.22,0.07-2.45,0.07-4.15 v-9.28l0-0.05l0-0.05v-9.52h0.01l0-0.84c-0.02-9.45-0.02-11.77,11.73-11.77h12.48v-1.9c0-5.89,3.25-9.69,7.42-11.36 C33.37,0.32,35.07,0,36.76,0c1.69,0,3.39,0.32,4.98,0.96c4.16,1.67,7.42,5.46,7.42,11.36v1.9h16.2c3.83,0,5.86,1.74,6.96,4.21 c0.91,2.05,0.99,4.43,1.01,6.58c0.07,6.9,0.38,12.46,0.64,17.07c1.09,19.29,1.26,22.41-19.32,44.65v8.81c0,1.36-1.1,2.46-2.46,2.46 H39.29L39.29,97.99z M44.23,14.18v-1.87c0-3.57-1.9-5.83-4.33-6.81c-0.98-0.39-2.06-0.59-3.15-0.59s-2.17,0.2-3.15,0.59 c-2.43,0.98-4.33,3.24-4.33,6.81v1.87H44.23L44.23,14.18z"/></g></svg>