<?xml version="1.0" encoding="utf-8"?><svg version="1.1" id="Layer_1" xmlns="http://www.w3.org/2000/svg" xmlns:xlink="http://www.w3.org/1999/xlink" x="0px" y="0px" viewBox="0 0 122.88 122.88" style="enable-background:new 0 0 122.88 122.88" xml:space="preserve"><g><path d="M57.31,43.77l16.95-16.95l-0.82-10.18c-0.33-4.25,1.09-8.23,3.66-11.23c2.57-3,6.28-5.03,10.52-5.36 c4.25-0.33,8.23,1.09,11.23,3.66c3,2.57,5.03,6.28,5.36,10.52l0.37,4.57l2.44-0.09V18.7l0.12,0c4.18-0.09,8.01,1.48,10.85,4.13 c2.88,2.69,4.74,6.47,4.89,10.72l0,0.08h0.01l0,0.12c0.1,4.18-1.48,8.01-4.13,10.85c-2.69,2.88-6.47,4.74-10.73,4.89l-13.25,0.5 L79.15,65.61c-0.68,0.68-1.69,0.82-2.51,0.43l-16.47-6.17c-0.77-0.29-1.28-0.95-1.4-1.71l-2.07-12.48 C56.57,44.96,56.83,44.26,57.31,43.77L57.31,43.77L57.31,43.77z M22.03,23.3l7.04-0.58l-5.86-12.29l14.79,14.21l-6.43,0.96 l6.36,12.2L22.03,23.3L22.03,23.3L22.03,23.3z M14.15,51.48l6.08-4.24L7.99,39.43l21.39,4.51l-5.27,4.49l12.47,7.47L14.15,51.48 L14.15,51.48L14.15,51.48z M43.57,15.64l6.81,3.38l1-14.84l6.47,21.46l-6.63-2.53l-0.27,14.86L43.57,15.64L43.57,15.64L43.57,15.64 z M14.31,104.22l-0.19-0.02c-4.2-0.36-7.87-2.38-10.41-5.35c-2.55-2.98-3.97-6.92-3.66-11.12c0-0.07,0.01-0.15,0.02-0.22 c0.36-4.2,2.38-7.87,5.35-10.41c3.01-2.57,6.99-3.99,11.23-3.66l10.18,0.82l19.59-19.59c0.86-0.86,2.26-0.86,3.12,0 c0.41,0.41,0.62,0.93,0.64,1.47l1.34,10.46l15.98,6.31c1.13,0.44,1.69,1.72,1.25,2.86c-0.11,0.29-0.29,0.55-0.49,0.76L49.98,94.78 l-0.5,13.25c-0.15,4.25-2.01,8.04-4.89,10.72c-2.88,2.68-6.79,4.27-11.04,4.12c-4.25-0.15-8.04-2.01-10.72-4.89 c-2.68-2.88-4.27-6.79-4.12-11.04l0.09-2.36L14.31,104.22L14.31,104.22z M7.05,95.99c1.82,2.12,4.44,3.56,7.44,3.82l6.75,0.54 l0,0.01c1.17,0.09,2.07,1.09,2.03,2.27l-0.17,4.47c-0.11,3.03,1.03,5.82,2.95,7.88c1.92,2.06,4.62,3.39,7.65,3.49 c3.03,0.11,5.82-1.03,7.88-2.95c2.06-1.92,3.39-4.62,3.49-7.65l0.53-13.96c-0.02-0.59,0.19-1.19,0.64-1.65l16.5-16.5L48.7,70.21 l0,0c-0.73-0.28-1.28-0.95-1.38-1.77l-0.95-7.48L29.22,78.1c-0.44,0.44-1.06,0.69-1.73,0.64l-11.19-0.9 c-3.04-0.24-5.88,0.78-8.02,2.61c-2.14,1.83-3.59,4.48-3.83,7.52C4.21,91,5.22,93.84,7.05,95.99L7.05,95.99z M78.09,29.22 L61.23,46.09L62.9,56.2l14.12,5.29l15.24-15.24l0.01,0.01c0.38-0.38,0.9-0.62,1.48-0.64l14.12-0.53c3.03-0.11,5.74-1.43,7.65-3.49 c1.89-2.02,3.01-4.75,2.95-7.72c-0.01-0.08-0.01-0.16-0.01-0.24l0.01,0c-0.13-3-1.45-5.67-3.49-7.58 c-2.02-1.88-4.75-3.01-7.72-2.95c-0.08,0.01-0.16,0.01-0.24,0.01l0-0.01l-4.3,0.17c-1.21,0.1-2.28-0.81-2.37-2.03l-0.54-6.67 c-0.24-3.04-1.68-5.69-3.83-7.52C93.84,5.22,91,4.21,87.96,4.45c-3.04,0.24-5.69,1.68-7.52,3.83c-1.83,2.14-2.84,4.99-2.61,8.02 l0.89,11.11C78.8,28.06,78.59,28.73,78.09,29.22L78.09,29.22z"/></g></svg>