<svg xmlns="http://www.w3.org/2000/svg" viewBox="0 0 122.88 115.18"><path d="M104.35 6.37v33.29c0 1.76-1.43 3.19-3.19 3.19-.77 0-1.48-.27-2.03-.73l-9.78-6.64-10.64 6.85a3.17 3.17 0 01-4.89-2.68h-.01V6.37h-7.28a2.3 2.3 0 00-1.43.5c-.39.32-.68.75-.8 1.25l-.03.15v91.79c1.9-1.16 3.98-1.79 6.33-1.81.09-.01.18-.01.27-.01h43.35c.62 0 1.19-.26 1.61-.67.42-.42.67-.99.67-1.61V8.66c0-.62-.26-1.19-.67-1.61-.42-.42-.99-.67-1.61-.67h-9.87v-.01zM70.6 104.61c-1.18.02-2.23.38-3.2 1.01-1.09.72-2.12 1.79-3.12 3.18v3.2c0 1.76-1.43 3.19-3.19 3.19s-3.19-1.43-3.19-3.19v-3.75c-.35-.42-.67-.82-.96-1.19-1.4-1.75-1.94-2.43-4.87-2.43H8.66a8.64 8.64 0 01-6.12-2.54A8.682 8.682 0 010 95.96V8.66c0-2.38.97-4.55 2.54-6.12A8.623 8.623 0 018.66 0h47.18c2.01 0 3.87.7 5.34 1.87A8.607 8.607 0 0166.53 0h47.69c2.38 0 4.55.97 6.12 2.54a8.623 8.623 0 012.54 6.12v87.3c0 2.38-.97 4.55-2.54 6.12a8.623 8.623 0 01-6.12 2.54H70.87c-.09 0-.18-.01-.27-.01zM57.9 7.66a2.278 2.278 0 00-2.06-1.29H8.66c-.62 0-1.19.26-1.61.67-.42.42-.68.99-.68 1.62v87.3c0 .62.26 1.19.67 1.61.42.42.99.67 1.61.67h43.41c2.78 0 4.51.29 5.83.96V7.66h.01zm40.07-1.14H80.18v27.31l7.49-4.82v.01c1.04-.66 2.41-.69 3.49.04l6.81 4.62V6.52z"/></svg>