<svg xmlns="http://www.w3.org/2000/svg" shape-rendering="geometricPrecision" text-rendering="geometricPrecision" image-rendering="optimizeQuality" fill-rule="evenodd" clip-rule="evenodd" viewBox="0 0 512 157.24"><path fill-rule="nonzero" d="M61.63 0h365.09c16.95 0 32.36 6.93 43.53 18.1a62.273 62.273 0 0 1 11.76 16.37c-3.04-.05-6.03.61-8.73 1.87-.69.32-1.35.68-1.99 1.08-2.35-4.29-5.29-8.2-8.72-11.63-9.2-9.2-21.9-14.92-35.85-14.92H61.63c-13.95 0-26.64 5.72-35.84 14.92-9.2 9.2-14.92 21.89-14.92 35.84 0 13.95 5.72 26.63 14.92 35.84 9.2 9.2 21.89 14.91 35.84 14.91h345.74v.01a19.523 19.523 0 0 0-.76 10.87H61.63c-16.94 0-32.36-6.94-43.52-18.11C6.94 93.98 0 78.58 0 61.63 0 44.68 6.94 29.27 18.1 18.1 29.27 6.93 44.68 0 61.63 0zm25.92 82.69V41.52h21.34c3.95 0 6.77.77 8.46 2.31 1.69 1.53 2.54 3.77 2.54 6.71 0 2.95-.54 5.22-1.61 6.82-1.08 1.6-2.52 2.65-4.32 3.13v.4c5.31.92 7.97 4.54 7.97 10.86 0 3.3-.88 5.94-2.63 7.94-1.76 2-4.46 3-8.11 3H87.55zm18.31-16.4h-5.14v6.72h5.07c1.85 0 2.77-1.12 2.77-3.37 0-2.23-.9-3.35-2.7-3.35zm-.99-15.75h-4.15v6.13h4.09c1.67 0 2.5-1.02 2.5-3.06s-.81-3.07-2.44-3.07zm20.68 11.6c0-7.51 1.41-12.99 4.22-16.44 2.81-3.44 7.88-5.17 15.21-5.17 7.34 0 12.41 1.73 15.22 5.17 2.81 3.45 4.21 8.93 4.21 16.44 0 3.73-.29 6.87-.89 9.41-.59 2.55-1.61 4.77-3.06 6.66-1.45 1.89-3.44 3.27-5.99 4.15-2.55.88-5.71 1.31-9.49 1.31-3.77 0-6.94-.43-9.48-1.31-2.55-.88-4.55-2.26-5.99-4.15-1.46-1.89-2.47-4.11-3.07-6.66-.59-2.54-.89-5.68-.89-9.41zm14.16-6.85v17.12h5.47c1.8 0 3.11-.21 3.92-.63.81-.41 1.22-1.37 1.22-2.86V51.8h-5.53c-1.76 0-3.04.21-3.86.62-.81.42-1.22 1.37-1.22 2.87zm28.33 6.85c0-7.51 1.4-12.99 4.21-16.44 2.81-3.44 7.88-5.17 15.22-5.17 7.33 0 12.4 1.73 15.21 5.17 2.81 3.45 4.22 8.93 4.22 16.44 0 3.73-.3 6.87-.89 9.41-.59 2.55-1.62 4.77-3.07 6.66-1.44 1.89-3.44 3.27-5.99 4.15-2.55.88-5.71 1.31-9.48 1.31-3.78 0-6.94-.43-9.49-1.31-2.54-.88-4.54-2.26-5.99-4.15-1.45-1.89-2.47-4.11-3.07-6.66-.59-2.54-.88-5.68-.88-9.41zm14.16-6.85v17.12h5.47c1.8 0 3.1-.21 3.91-.63.82-.41 1.22-1.37 1.22-2.86V51.8h-5.53c-1.76 0-3.04.21-3.85.62-.82.42-1.22 1.37-1.22 2.87zm43.47 9.48v17.92H212.5V41.52h13.17v16.8h.26c.09-1.32.31-2.37.66-3.16l6.46-13.64h14.22l-9.88 20.22 10.21 20.95h-14.23l-6.78-14.76c-.35-.79-.57-1.84-.66-3.16h-.26zm61.91 17.92L277.5 68.06c-.35-.48-.57-1.53-.65-3.16h-.27v17.79h-13.17V41.52h12.38l10.08 14.62c.35.49.57 1.54.66 3.16h.26V41.52h13.17v41.17h-12.38zm17.98-20.55c0-7.51 1.41-12.99 4.22-16.44 2.81-3.44 7.88-5.17 15.21-5.17 7.34 0 12.41 1.73 15.22 5.17 2.81 3.45 4.21 8.93 4.21 16.44 0 3.73-.29 6.87-.89 9.41-.59 2.55-1.61 4.77-3.06 6.66-1.45 1.89-3.45 3.27-5.99 4.15-2.55.88-5.71 1.31-9.49 1.31-3.77 0-6.94-.43-9.48-1.31-2.55-.88-4.55-2.26-5.99-4.15-1.46-1.89-2.48-4.11-3.07-6.66-.59-2.54-.89-5.68-.89-9.41zm14.16-6.85v17.12h5.47c1.8 0 3.11-.21 3.92-.63.81-.41 1.22-1.37 1.22-2.86V51.8h-5.54c-1.75 0-3.03.21-3.85.62-.81.42-1.22 1.37-1.22 2.87zm67.32-13.77h13.77l-6.46 41.17h-17.19l-3.03-15.15h-.79l-2.97 15.15h-17.19l-6.45-41.17h13.76l3.1 22.99h.4l4.74-22.99h10.07l4.68 22.99h.4l3.16-22.99zM487.63 157c-2.13.71-4.51-.17-5.51-2.25l-7.11-15.09-8.44 7.97c-.69.66-1.43 1.23-2.16 1.68-4.68 2.9-9.44 1.03-9.35-5.06l1.7-59.63c-.05-2.68 2.96-4.24 5.16-2.72 13.23 8.43 33.97 26.23 47.2 37.06 6.35 5.23 1.03 10.3-4.77 10.99-3.55.64-7.89.94-11.55 1.38l7.05 15.17c.97 2.16.01 4.66-2.04 5.77-2.94 1.34-7.32 3.82-10.18 4.73zm12.26-68.04c-1.19.53-2.48.53-3.61.12a4.86 4.86 0 0 1-2.75-2.51 4.846 4.846 0 0 1-.16-3.73l.03-.06c.43-1.13 1.29-2.1 2.45-2.65l6.64-3.3c1.22-.57 2.55-.58 3.72-.16 1.16.43 2.15 1.3 2.72 2.5.58 1.24.59 2.58.16 3.74a4.835 4.835 0 0 1-2.48 2.71l-6.72 3.34zm-17.94-21.93-.04.12a4.841 4.841 0 0 1-2.49 2.67c-1.09.51-2.37.62-3.59.21l-.22-.08a4.838 4.838 0 0 1-2.65-2.47c-.51-1.1-.62-2.38-.21-3.6.99-2.96 2.05-6.4 3.19-9.25a4.847 4.847 0 0 1 2.49-2.69c1.13-.53 2.46-.63 3.71-.17 1.27.45 2.22 1.38 2.75 2.51.52 1.12.62 2.44.17 3.7l-3.11 9.05zm-25.76-3.73c.55 1.21.56 2.52.15 3.66a4.917 4.917 0 0 1-2.51 2.76l-.07.03c-1.21.54-2.52.55-3.67.13a4.857 4.857 0 0 1-2.72-2.5c-1.41-3-2.98-5.99-4.34-9.01a4.85 4.85 0 0 1-.13-3.66c.42-1.16 1.3-2.17 2.5-2.73 1.23-.57 2.57-.58 3.74-.16a4.87 4.87 0 0 1 2.71 2.5l4.34 8.98zm-19.05 18.38c1.22.47 2.14 1.38 2.66 2.48.53 1.13.63 2.46.17 3.71l-.01.03a4.876 4.876 0 0 1-2.5 2.73l-.1.04c-1.1.48-2.39.57-3.61.12l-9.76-3.45a4.91 4.91 0 0 1-2.67-2.49 4.9 4.9 0 0 1-.17-3.71 4.866 4.866 0 0 1 2.51-2.75c1.12-.52 2.45-.63 3.71-.17l9.77 3.46zm-1.16 26.34c1.22-.57 2.55-.59 3.71-.17a4.88 4.88 0 0 1 2.74 2.51c.58 1.22.6 2.55.17 3.72a4.813 4.813 0 0 1-2.51 2.74l-9.52 4.57c-1.23.58-2.56.59-3.72.17a4.86 4.86 0 0 1-2.75-2.51 4.805 4.805 0 0 1-.16-3.73l.04-.1c.44-1.11 1.3-2.08 2.46-2.62l9.54-4.58z"/></svg>