<svg xmlns="http://www.w3.org/2000/svg" shape-rendering="geometricPrecision" text-rendering="geometricPrecision" image-rendering="optimizeQuality" fill-rule="evenodd" clip-rule="evenodd" viewBox="0 0 512 343.07"><path d="M183.97 0H380.1v273.74c-.37 6.4-8.34 6.14-16.79 5.88H181.07c-11.8 0-21.46 9.65-21.46 21.46s9.66 21.46 21.46 21.46h190.09V299.7h16.79v29.02c0 5.3-4.32 9.61-9.6 9.61H181.9c-25.87 4.88-38.63-9.51-38.63-30.76V40.69c0-22.38 18.31-40.69 40.7-40.69zM30.26 292.05C6.93 254.99-2.91 211.9.74 169.79c3.88-44.72 22.93-88.37 57.14-122.58 12.72-12.72 26.77-23.35 41.7-31.87v44.49a164.31 164.31 0 0 0-15.46 13.62c-27.78 27.79-43.25 63.24-46.4 99.53-2.78 32.11 4.04 64.88 20.46 93.61l19.55-17.82c2.49-2.07 4.93-2.81 7.28-2.22 6.42 1.59 6.34 9.01 6.39 14.15.03 14.62 3.75 56.54 4.04 64.01.18 2.45-.77 4.85-2.59 6.51a8.045 8.045 0 0 1-6.73 1.99c-7.67-.96-50.78-8.56-64.78-10.02-4.86-.51-11.2-1.51-12.11-7.53-.38-2.39.58-4.75 2.87-7.05l18.16-16.56zm453.28-221c21.81 36.04 31.08 77.51 27.82 118.13-3.63 45.16-22.72 89.32-57.24 123.83a197.33 197.33 0 0 1-38.58 30.06v-45.15c4.25-3.47 8.38-7.19 12.34-11.15 28.05-28.04 43.56-63.88 46.5-100.49 2.5-31.07-3.98-62.72-19.46-90.69l-19.5 16.72c-2.56 1.99-5.02 2.66-7.35 2-6.37-1.78-6.07-9.2-5.96-14.34.41-14.61-2.02-56.62-2.09-64.1a8.022 8.022 0 0 1 9.57-8.21c7.65 1.18 50.5 10.1 64.45 11.99 4.84.64 11.15 1.84 11.88 7.89.31 2.4-.73 4.73-3.09 6.96l-19.29 16.55zM178.1 34.2h5.77c2.97 0 5.41 2.46 5.41 5.4v204.91c0 2.95-2.47 5.42-5.41 5.42h-5.77c-2.95 0-5.41-2.44-5.41-5.42V39.6c0-2.97 2.43-5.4 5.41-5.4zm2.92 271.3h174.57c1.77 0 3.21 1.45 3.21 3.22v1.94c0 1.76-1.44 3.22-3.21 3.22H181.02c-1.76 0-3.21-1.45-3.21-3.22v-1.94c0-1.77 1.44-3.22 3.21-3.22zm0-16.58h174.57a3.22 3.22 0 0 1 3.21 3.21v1.94c0 1.77-1.44 3.22-3.21 3.22H181.02c-1.76 0-3.21-1.45-3.21-3.22v-1.94c0-1.77 1.44-3.21 3.21-3.21z"/></svg>