<?xml version="1.0" encoding="utf-8"?><svg version="1.1" id="Layer_1" xmlns="http://www.w3.org/2000/svg" xmlns:xlink="http://www.w3.org/1999/xlink" x="0px" y="0px" viewBox="0 0 122.88 85.99" style="enable-background:new 0 0 122.88 85.99" xml:space="preserve"><g><path d="M81.56,65.78c1.83-9.94,5.74-16.97,11.75-21.16c5.78-4.03,13.42-5.36,22.98-4.08V12.62h-48 c-0.77,7.87-3.12,14.2-6.79,19.28c-3.89,5.38-9.25,9.32-15.76,12.17c-6.79,2.97-10,3.09-14.87,3.26c-0.6,0.02-1.23,0.04-1.91,0.07 c2.7,2.84,4.79,6.19,6.13,10.05c1.49,4.28,2.06,9.17,1.52,14.62c9.55-0.33,19.5-1.35,29.75-2.57c5.26-0.62,10.29-2.2,15.09-3.69 L81.56,65.78L81.56,65.78z M117.11,9.62c0.2-0.1,0.43-0.16,0.68-0.16s0.48,0.06,0.68,0.16h1.41V3H64.67v6.62H117.11L117.11,9.62z M119.29,12.62v52.02c0.09,0.19,0.14,0.41,0.14,0.63v17.82c0,0.83-0.67,1.5-1.5,1.5H82.66c-0.83,0-1.5-0.67-1.5-1.5v-4.5 c-12.3,4.49-25.24,6.84-38.12,7.31c-14.37,0.53-28.67-1.27-41.94-5.04C0.43,80.68,0,80.08,0,79.42h0v-8.47 c0-0.62,0.38-1.15,0.92-1.38l0.27-0.14c0.1-7.13,1.97-12.96,5.89-17.21c3.94-4.27,9.88-6.88,18.08-7.57 c2.11-0.18,3.96-0.24,5.61-0.3c4.52-0.16,7.5-0.27,13.78-3.01c6.03-2.64,10.97-6.26,14.53-11.19c3.32-4.59,5.47-10.35,6.21-17.53 h-0.89c-0.75,0-1.43-0.31-1.92-0.8c-0.49-0.49-0.8-1.17-0.8-1.92V2.72c0-0.75,0.31-1.43,0.8-1.92C62.96,0.31,63.64,0,64.39,0h55.76 c0.75,0,1.43,0.31,1.92,0.8c0.49,0.49,0.8,1.17,0.8,1.92v7.17c0,0.75-0.31,1.43-0.8,1.92c-0.49,0.49-1.17,0.8-1.92,0.8H119.29 L119.29,12.62z M116.3,43.56c-8.97-1.27-16.05-0.12-21.27,3.52c-5.03,3.51-8.42,9.39-10.21,17.7c2.73-0.82,5.39-1.54,8.02-1.97 c4.33-0.71,8.62-0.68,12.87-0.15c3.55,0.44,7.08,1.24,10.58,2.23V43.56L116.3,43.56z M24.92,47.68 c-7.16,0.68-12.29,2.94-15.64,6.57c-3.38,3.67-5.01,8.8-5.11,15.16l0.03,0.06c9.22,2.16,18.93,2.86,29.05,2.7l0.35-0.01 c0.56-5.16,0.06-9.74-1.33-13.71C30.79,54.15,28.26,50.55,24.92,47.68L24.92,47.68z M116.44,68.04c-3.65-1.07-7.35-1.94-11.09-2.4 c-4-0.5-8.02-0.53-12.03,0.13c-3.47,0.57-7.14,1.72-10.97,2.91c-4.93,1.54-10.11,3.15-15.63,3.81c-11.5,1.37-22.65,2.49-33.42,2.67 c-10.55,0.17-20.67-0.57-30.3-2.9v6.04c12.68,3.48,26.28,5.13,39.94,4.63c13.23-0.49,26.52-3,39.08-7.83 c0.2-0.09,0.42-0.15,0.65-0.15c0.83,0,1.5,0.67,1.5,1.5v5.16h32.28V68.04L116.44,68.04z M73.54,14.6c1.2,0,2.28,0.49,3.07,1.27 c0.79,0.79,1.27,1.87,1.27,3.07c0,1.2-0.49,2.28-1.27,3.07c-0.78,0.78-1.87,1.27-3.07,1.27c-1.2,0-2.28-0.49-3.07-1.27 c-0.78-0.79-1.27-1.87-1.27-3.07c0-1.19,0.49-2.28,1.27-3.06l0,0l0,0C71.26,15.08,72.34,14.6,73.54,14.6L73.54,14.6z M74.49,17.99 c-0.24-0.24-0.58-0.39-0.95-0.39c-0.37,0-0.71,0.15-0.95,0.39l0,0c-0.24,0.24-0.39,0.58-0.39,0.95c0,0.37,0.15,0.71,0.39,0.95 c0.24,0.24,0.58,0.39,0.95,0.39c0.37,0,0.71-0.15,0.95-0.39c0.24-0.24,0.39-0.58,0.39-0.95C74.88,18.56,74.73,18.23,74.49,17.99 L74.49,17.99z M70.22,25.38c1.2,0,2.28,0.49,3.07,1.27c0.78,0.78,1.27,1.87,1.27,3.07c0,1.19-0.49,2.28-1.27,3.06l0,0l0,0 c-0.79,0.78-1.87,1.27-3.07,1.27c-1.19,0-2.28-0.49-3.06-1.27l-0.01-0.01c-0.78-0.79-1.27-1.87-1.27-3.06 c0-1.2,0.49-2.28,1.27-3.07c0.03-0.03,0.07-0.06,0.1-0.09C68.03,25.82,69.08,25.38,70.22,25.38L70.22,25.38z M71.17,28.77 c-0.24-0.24-0.58-0.39-0.95-0.39c-0.35,0-0.66,0.13-0.9,0.34c-0.02,0.02-0.03,0.04-0.05,0.05c-0.24,0.24-0.39,0.58-0.39,0.95 c0,0.37,0.15,0.71,0.39,0.95c0.24,0.24,0.58,0.39,0.95,0.39c0.37,0,0.71-0.15,0.95-0.39l0,0c0.24-0.24,0.39-0.58,0.39-0.95 C71.57,29.34,71.42,29.01,71.17,28.77L71.17,28.77z M64.93,33.88c1.2,0,2.28,0.49,3.07,1.27c0.79,0.78,1.27,1.87,1.27,3.07 S68.79,40.5,68,41.29c-0.03,0.03-0.07,0.06-0.1,0.09c-0.78,0.73-1.82,1.18-2.97,1.18c-1.2,0-2.28-0.49-3.07-1.27 c-0.78-0.78-1.27-1.87-1.27-3.07s0.49-2.28,1.27-3.07C62.65,34.37,63.74,33.88,64.93,33.88L64.93,33.88z M65.88,37.27 c-0.24-0.24-0.58-0.39-0.95-0.39c-0.37,0-0.71,0.15-0.95,0.39c-0.24,0.24-0.39,0.58-0.39,0.95s0.15,0.71,0.39,0.95 c0.24,0.24,0.58,0.39,0.95,0.39c0.35,0,0.66-0.13,0.9-0.34c0.02-0.02,0.03-0.04,0.05-0.05c0.24-0.24,0.39-0.58,0.39-0.95 S66.12,37.51,65.88,37.27L65.88,37.27z M57.22,40.66c1.19,0,2.28,0.49,3.06,1.27l0,0l0,0c0.78,0.78,1.27,1.87,1.27,3.07 c0,1.2-0.49,2.28-1.27,3.07c-0.03,0.03-0.07,0.06-0.1,0.09c-0.78,0.73-1.82,1.18-2.97,1.18c-1.2,0-2.28-0.49-3.07-1.27 c-0.03-0.03-0.06-0.07-0.09-0.1c-0.73-0.78-1.18-1.82-1.18-2.97c0-1.2,0.49-2.28,1.27-3.07C54.94,41.14,56.02,40.66,57.22,40.66 L57.22,40.66z M58.17,44.04c-0.24-0.24-0.58-0.39-0.95-0.39c-0.37,0-0.71,0.15-0.95,0.39c-0.24,0.24-0.39,0.58-0.39,0.95 c0,0.35,0.13,0.66,0.34,0.9c0.02,0.02,0.04,0.03,0.05,0.05c0.24,0.24,0.58,0.39,0.95,0.39c0.35,0,0.66-0.13,0.9-0.34 c0.02-0.02,0.03-0.04,0.05-0.05c0.24-0.24,0.39-0.58,0.39-0.95C58.56,44.62,58.41,44.29,58.17,44.04L58.17,44.04L58.17,44.04z"/></g></svg>