<svg xmlns="http://www.w3.org/2000/svg" viewBox="0 0 333334 293039" shape-rendering="geometricPrecision" text-rendering="geometricPrecision" image-rendering="optimizeQuality" fill-rule="evenodd" clip-rule="evenodd"><defs><style>.fil0{fill:#543729}.fil3{fill:#ffcc2f}</style></defs><g id="Layer_x0020_1"><g id="bower.svg"><path class="fil0" d="M326963 143131c-17146-16473-102876-26758-129928-29751 3836-1677 7774-3157 11779-4373 502 1480 2865 7149 4210 9838 54397 1501 57189-40424 59402-51910 2163-11230 2054-22080 20711-41918-27796-8100-67772 12556-81161 43299-5032-1886-10075-3278-15062-4139C196691 40168 178078-1 129237-1 67398 0-1 51018-1 137376c0 72595 49562 136213 77563 136213 12230 0 22749-9157 25219-17366 2070 5630 8424 23127 10510 27581 3083 6587 17345 12287 23586 5451 8024 4458 22749 7145 30775-4746 15454 3270 29117-5946 29416-16943 7584-405 11304-11054 9648-19533-1221-6244-14261-28645-19348-36378 10069 8190 35574 10509 38672 5 16234 12743 41534 6055 43541-4309 19727 5126 42352-6132 38638-19766 31689-2191 27633-35908 18742-44454v-1z"/><path d="M238725 71222c6826-13543 15403-28330 26235-37477-11923 4804-23695 19170-30656 34524-3456-2196-7087-4228-10784-6024 9709-20725 32271-38034 57135-39385-16654 15104-10741 46497-24434 63117-3919-3937-12916-11532-17498-14753l3-1zm-15185 19098c7-519 201-4516 565-6341-954-225-6891-1386-9985-1313-224 3886 1633 10498 3471 14478 12651-265 21789-4053 27168-7537-4580-2134-12393-4031-18334-5166-663 1372-2295 4866-2884 5878z" fill="#00acee"/><path d="M180949 200413l13 61c-1603-3451-3306-7641-5340-13121 7918 11528 32738 5582 31435-4747 12148 9141 37153-1523 31469-14340 12169 5670 26058-5738 22943-10709 20747 4001 40628 7990 46869 9587-4146 6760-13589 11534-27822 8216 7692 10476-7241 23046-28039 16123 4578 10285-13940 19546-34987 8825 268 10291-26111 11475-36539 105zm41154-52009c24079 1850 63898 5439 88549 8889-1557-8022-5811-10314-19194-13909-14392 1535-50906 5122-69355 5020z" fill="#2baf2b"/><path class="fil3" d="M207058 182607c12148 9141 37153-1523 31469-14340 12169 5670 26058-5738 22943-10709-24527-4729-50264-9476-56102-10305 3540 188 9411 591 16737 1154 18449 102 54963-3485 69356-5020-23303-5909-70883-14532-103741-16657-1523 2226-4324 6000-9198 10011-14375 30417-40422 50636-69243 50636-8399 0-17796-1417-28328-4783-6568 7037-34573 12369-57297 1215 18025 42204 59824 70377 106092 70377 38967 0 56246-39792 52465-50320-917-2556-4554-11031-6587-16511 7920 11528 32738 5582 31437-4747z"/><path d="M183444 102523c3439-1872 15330-9078 26660-11787-179-1253-320-2530-400-3794-7433 1779-21447 7785-29476-491 16942 5113 25401-4555 37854-4555 7419 0 18008 2072 26353 5349-6713-6202-28726-24918-55982-24983-6085 7378-12662 23359-5012 40258l3 3z" fill="#cecece"/><path d="M80948 182592c10532 3366 19929 4783 28328 4783 28821 0 54867-20220 69243-50636-10633 8876-29112 16470-57971 16470 25705-5830 47834-18640 59091-37363-7913-12595-16496-40458 5238-62485-3344-10741-19616-39095-55640-39095-62869 0-114971 52607-114971 123110 0 16689 3369 32342 9387 46431 22722 11154 50727 5822 57295-1215z" fill="#ef5734"/><path class="fil3" d="M99810 75245c0 16036 13001 29037 29037 29037 16038 0 29040-13001 29040-29037 0-16038-13002-29039-29040-29039-16037 0-29037 13001-29037 29037v2z"/><path class="fil0" d="M111463 75245c0 9601 7785 17384 17385 17384 9602 0 17386-7785 17386-17386s-7782-17386-17386-17386c-9601 0-17386 7785-17386 17386l1 2z"/><ellipse cx="128847" cy="67531" rx="10131" ry="6299" fill="#fff"/></g></g></svg>