<?xml version="1.0" encoding="utf-8"?><svg version="1.1" id="Layer_1" xmlns="http://www.w3.org/2000/svg" xmlns:xlink="http://www.w3.org/1999/xlink" x="0px" y="0px" viewBox="0 0 122.88 121.74" style="enable-background:new 0 0 122.88 121.74" xml:space="preserve"><style type="text/css">.st0{fill-rule:evenodd;clip-rule:evenodd;}</style><g><path class="st0" d="M2.26,78.29L0,63.22c28.92,14.24,60.87,20.41,89.95,13.95l0.66-0.05v0c0.81-0.06,1.6-0.29,2.31-0.66 c10.48-2.66,20.56-7,29.95-13.24v15.08C119.82,130.02,12,142.1,2.26,78.29L2.26,78.29z M84.7,51.2C88.5,23.96,95.64,21.61,111.6,4 c3.36-3.71,8.17-7.03,9.88,0.66c2.06,9.24-5.34,18.62-10.73,25.35C105.51,36.54,98.49,46.5,84.7,51.2L84.7,51.2z M59.58,73.5 C62,67.2,65.21,61.15,70.78,57c9.19-6.84,14.31-9.7,18.64,0.72c1.83,4.4,2.49,8.79,0.79,13.57L59.58,73.5L59.58,73.5z M5.66,58.48 c19.43-11.8,47.94-16.52,73.81-13.06c-3.79,0.93-7.59,3.5-12.17,6.9c-3.4,2.53-6.06,5.61-8.22,9c-1.94,3.04-3.46,6.31-4.76,9.64 c-0.39,0.8-0.6,1.69-0.59,2.63C36.78,72.18,19.58,67.4,5.66,58.48L5.66,58.48z M99.59,50.01c6.48,2.18,12.52,4.99,17.88,8.47 c-4.9,4.66-12.13,8.41-20.77,11.06c0.34-1.91,0.41-3.78,0.26-5.63c-0.23-2.91-1.01-5.68-2.15-8.43c-0.28-0.68-0.57-1.33-0.87-1.94 C95.99,52.45,97.86,51.26,99.59,50.01L99.59,50.01z M1.91,54.17c6.28-23.51,49.68-32.5,82.59-26.01c-1.49,3.38-2.74,7.3-3.81,12.13 C54.59,36.02,33.05,41.93,1.91,54.17L1.91,54.17z M111.03,38.98c5.08,3.86,8.76,8.6,10.38,14.23c-6.13-2.67-11.89-4.94-17.36-6.83 C106.75,43.93,109.03,41.39,111.03,38.98L111.03,38.98z"/></g></svg>