<?xml version="1.0" encoding="utf-8"?><svg version="1.1" id="Layer_1" xmlns="http://www.w3.org/2000/svg" xmlns:xlink="http://www.w3.org/1999/xlink" x="0px" y="0px" viewBox="0 0 39.5 122.88" style="enable-background:new 0 0 39.5 122.88" xml:space="preserve"><g><path d="M23.13,115.55v5.11h8.06h0h0h0h0h0h0h0v0h0h0l0,0h0h0h0l0,0h0l0,0h0h0h0v0h0h0h0h0h0l0,0h0h0h0l0,0h0l0,0h0l0,0h0l0,0h0h0 h0v0h0l0,0h0h0h0h0l0,0l0,0h0h0h0l0,0h0h0l0,0h0l0.01,0l0,0l0.01,0h0l0.01,0l0,0l0.05,0l0.01,0l0.01,0 c0.25-0.02,0.43-0.1,0.57-0.21c0.09-0.08,0.16-0.17,0.22-0.29l0,0l0,0l0-0.01l0,0l0-0.01l0,0l0-0.01v0l0-0.01l0,0 c0.03-0.07,0.05-0.14,0.06-0.21l0-0.01l0,0l0-0.01v0l0-0.01l0,0l0-0.01l0,0l0-0.01l0-0.01l0,0l0-0.01l0,0l0-0.01l0-0.01l0,0 c0.05-0.32,0-0.69-0.12-1.07c-0.11-0.37-0.3-0.73-0.54-1.07l0,0c-0.19-0.26-0.35-0.39-0.47-0.49c-0.15-0.13-0.28-0.23-0.39-0.36 c-0.24-0.17-0.37-0.44-0.37-0.71h0v-0.59c-1.2-0.48-2.4-0.69-3.59-0.68C25.54,114.86,24.34,115.1,23.13,115.55L23.13,115.55z M16.08,116.15c-1.4-0.59-2.7-0.87-3.91-0.87c-1.17,0-2.26,0.27-3.25,0.8v5.07h7.16V116.15L16.08,116.15z M8.92,114.18 c1.02-0.42,2.1-0.63,3.25-0.63c1.23,0,2.53,0.25,3.91,0.75v-27.6c0-0.37-0.01-0.57-0.01-0.73c-0.02-0.63-0.04-0.96,0.29-1.32 c0.36-0.41,0.7-0.4,1.41-0.38c0.11,0,0.24,0.01,0.58,0.01h2.61c0.34,0,0.43,0,0.5,0c0.69-0.01,1.03-0.02,1.39,0.37 c0.33,0.36,0.32,0.68,0.3,1.3c0,0.13-0.01,0.29-0.01,0.62v27.18c1.19-0.38,2.39-0.59,3.59-0.6c1.2-0.01,2.4,0.17,3.6,0.57V76.22 H8.93v3.1v7.59h0c0,0.04,0,0.07-0.01,0.11V114.18L8.92,114.18z M30.42,59.32c-0.04-0.45-0.12-0.87-0.26-1.25 c-0.07-0.18-0.14-0.35-0.23-0.51c-0.18-0.28-0.4-0.56-0.67-0.84c-0.34-0.32-0.36-0.86-0.04-1.21c0.32-0.35,0.87-0.37,1.22-0.05 c0.41,0.37,0.74,0.79,0.99,1.25c0.16,0.27,0.3,0.54,0.41,0.82c0.23,0.59,0.34,1.19,0.31,1.81c0.01,0.16,0.01,0.33,0.01,0.5 c0,0.02,0,0.05,0,0.07v15.44c0,0.11-0.02,0.21-0.06,0.31v2.79h3.79c0.11-0.35,0.23-0.7,0.33-1.05c0.19-0.62,0.38-1.27,0.56-1.96 c1.11-4.17,1.03-8.56,0.94-12.93c-0.03-1.27-0.05-2.54-0.05-3.58l0-0.02c-0.07-1.32-0.21-2.46-0.41-3.46 c-0.2-1-0.46-1.85-0.77-2.58c-1.26-2.98-4.41-4.34-7.51-5.67c-0.52-0.23-1.05-0.45-1.59-0.7c-0.07,0.09-0.14,0.18-0.21,0.26 c-0.42,0.52-0.92,0.98-1.48,1.38c-1.54,1.11-3.52,1.75-5.56,1.85c-2.04,0.1-4.15-0.33-5.94-1.37c-0.9-0.51-1.71-1.17-2.41-1.99 c-0.49,0.24-1.01,0.47-1.53,0.71c-2.97,1.35-6.32,2.88-7.55,5.43c-0.29,0.6-0.52,1.27-0.68,1.99c-0.16,0.72-0.27,1.5-0.31,2.34h0 v15.16v0.01c0.02,0.38,0.06,0.78,0.1,1.18c0.05,0.42,0.11,0.83,0.19,1.23c0.15,0.77,0.35,1.52,0.62,2.24 c0.19,0.51,0.4,1.02,0.65,1.51h3.91V75.3c0-0.04,0-0.09,0.01-0.13V59.09c0-0.02,0-0.03,0-0.05c0-0.28,0.01-0.55,0.05-0.81 c0.03-0.41,0.12-0.8,0.27-1.15c0.24-0.61,0.63-1.12,1.14-1.54l0,0c0.35-0.32,0.9-0.29,1.22,0.06c0.32,0.35,0.29,0.9-0.06,1.22 c-0.32,0.29-0.55,0.62-0.69,0.98C9.06,57.98,9,58.19,8.97,58.4c-0.01,0.19-0.01,0.39,0.02,0.6c0,0.03,0.01,0.06,0.01,0.09h0v15.34 h21.39V61.89v-2.16h0c0-0.04,0-0.09,0.01-0.13C30.4,59.5,30.41,59.41,30.42,59.32L30.42,59.32z M32.11,80.18v6.09 c1.4-0.12,2.3-0.68,2.82-1.58l0.03-0.05l0-0.01l0.03-0.05l0.01-0.01L35,84.56l0.05-0.09l0-0.01l0.02-0.03l0-0.01l0.02-0.03 l0.01-0.01l0.01-0.03l0.01-0.02l0.02-0.04l0.01-0.02l0.02-0.04l0-0.01l0.02-0.05l0-0.01l0.02-0.06l0,0l0.02-0.06l0,0l0.02-0.05 l0-0.01l0.02-0.05l0.01-0.02l0.01-0.04l0.01-0.02l0.01-0.04l0.01-0.03l0-0.01l0.01-0.04l0-0.02l0.01-0.03l0.01-0.04l0.01-0.02 l0.01-0.05l0-0.01l0.01-0.06l0-0.01l0.02-0.06l0,0l0.02-0.07l0.01-0.06l0-0.01l0.01-0.06l0-0.02l0.01-0.05l0-0.02l0.01-0.04 l0.01-0.03l0.01-0.08v0l0.01-0.03l0.01-0.05l0-0.02l0.01-0.05l0-0.02l0.01-0.06l0-0.01l0.01-0.07l0,0l0.01-0.07l0,0l0.01-0.07 l0-0.01l0.01-0.06l0-0.02l0.01-0.06l0-0.03l0-0.05l0-0.03l0-0.04l0-0.04l0-0.01l0.01-0.14l0-0.02l0-0.02l0-0.06l0-0.01l0-0.07 l0-0.01l0-0.08v0l0-0.08l0-0.01l0-0.07l0-0.02l0-0.06l0-0.03l0-0.05l0-0.03l0-0.05l0-0.04l0-0.04l0-0.05l0-0.03v-0.01v-0.07l0-0.07 l0-0.02l0-0.08l0-0.01l0-0.08v0l0-0.08v-0.01l0-0.08l0-0.02l0-0.07l0-0.03l0-0.06l0-0.03l0-0.05l0-0.04l0-0.04l-0.01-0.17H32.11 L32.11,80.18z M3.68,80.18c-0.02,0.3-0.03,0.58-0.03,0.85v0.01l0,0.03l0,0.07v0.03v0.08l0,0.1v0.01l0,0.09v0 c0,0.2,0.01,0.38,0.02,0.57l0,0.01l0.01,0.08l0,0.01c0.01,0.12,0.02,0.24,0.03,0.35l0,0.01l0.01,0.08l0,0l0.01,0.09l0.01,0.07 l0,0.01l0.01,0.06l0,0.02l0.01,0.06l0,0.03l0,0c0.02,0.1,0.03,0.2,0.05,0.29l0,0.02l0,0.02l0.01,0.05l0,0.02l0.01,0.06l0,0.01 l0.02,0.07l0,0l0.02,0.07l0,0l0.02,0.06l0,0.01l0.02,0.07l0.02,0.05l0,0l0.01,0.04l0.01,0.02l0.01,0.02l0,0.01l0.02,0.05l0,0.01 l0.01,0.03l0,0.01l0.01,0.04l0,0.01l0.01,0.04l0,0l0.02,0.04l0.01,0.02l0.01,0.02l0.02,0.05l0,0.01l0.02,0.05l0,0.01l0.02,0.06l0,0 l0.03,0.06l0.02,0.05l0,0l0,0.01l0.01,0.02l0.02,0.04l0,0l0.02,0.04l0.01,0.02l0.02,0.04l0.01,0.02l0.02,0.03l0,0.01l0.02,0.04 l0,0.01l0.02,0.03l0.01,0.01l0.02,0.03l0.01,0.02l0.02,0.04l0.01,0.01l0.02,0.04l0.01,0.01l0.01,0.01l0.03,0.04l0,0l0.03,0.05 c0.57,0.78,1.47,1.17,2.67,1.19v-5.9H3.68L3.68,80.18z M37.36,81.8c0,0.06-0.01,0.12-0.01,0.17l0,0.02l0,0.08l0,0.01l0,0.06l0,0.04 l0,0.06l0,0.04l0,0.06l0,0.04l0,0.02l-0.01,0.08l0,0.01l-0.01,0.08l0,0.01l-0.01,0.06l0,0.03l-0.01,0.06l0,0.03l-0.01,0.06l0,0.03 l0,0.01l-0.02,0.17l0,0.01l-0.01,0.06l0,0.03l-0.01,0.06l0,0.03l0,0.01c-0.01,0.06-0.02,0.11-0.03,0.17l0,0l-0.02,0.09l-0.01,0.07 l0,0.02l0,0.02c-0.03,0.14-0.06,0.28-0.1,0.41l0,0.01c-0.01,0.05-0.03,0.11-0.04,0.16l0,0l-0.02,0.07l0,0.01l-0.03,0.08l-0.02,0.07 l0,0.01l-0.02,0.07l0,0.01l-0.02,0.07l0,0.01l0,0.01l-0.03,0.07l-0.03,0.07l0,0.01l-0.03,0.07l0,0.01l-0.03,0.07l0,0.01l-0.03,0.07 l0,0.01l-0.03,0.07l0,0.01l-0.03,0.07l0,0l-0.03,0.07l0,0l-0.03,0.07l0,0l-0.04,0.07l0,0l-0.04,0.07l0,0l-0.04,0.07l0,0l-0.04,0.07 C35.58,87,34.19,87.89,32.05,88v26.96v0.47v0.01c0,0.13,0.01,0.22,0.03,0.27c0.26,0.22,0.49,0.46,0.7,0.72l0.01,0.01l0,0 c0.06,0.07,0.11,0.14,0.17,0.23l0,0c0.36,0.49,0.63,1.03,0.79,1.57c0.2,0.64,0.26,1.3,0.16,1.89l-0.01,0.07l0,0.02l0,0l0,0.02 l0,0.02l0,0l0,0.02l0,0.01l0,0.01l0,0.02l0,0l0,0.02l0,0.01l0,0.01l0,0.02l0,0l-0.01,0.02l0,0.01l0,0.01l-0.02,0.08l0,0l-0.01,0.02 l0,0.01l0,0.01l-0.01,0.02l0,0l-0.01,0.02l0,0.01l0,0.01l-0.01,0.04l0,0.01l0,0.01l-0.01,0.02v0l-0.01,0.02l0,0.01l0,0.01 l-0.01,0.02v0l-0.01,0.02l-0.01,0.04v0c-0.16,0.39-0.4,0.74-0.74,1.01c-0.4,0.32-0.91,0.53-1.53,0.59l-0.02,0l-0.01,0l-0.02,0 l-0.01,0l-0.02,0l-0.01,0l-0.03,0l-0.01,0l-0.03,0l0,0l-0.03,0h0l0,0h0h0l0,0h0h0l0,0h0h0h0l0,0h0h0h0l0,0h0h0h0l0,0h0h0h0l0,0h0h0 h0l0,0h0h0h0l-0.01,0h0h0h0l0,0h0l0,0h0h0h0l0,0h0h0h0l0,0h0l0,0h0h0h0l0,0h0h0l0,0l0,0h0l0,0h0l0,0h0l0,0h0h0h0l0,0h0l0,0h0l0,0h0 h0h0h0h0h0h0h0h0h0h0h-8.92c-0.48,0-0.86-0.39-0.86-0.86v-6.57V86.55c0-0.16,0.01-0.37,0.01-0.56c-0.2,0-0.41,0.01-0.47,0.01h-2.61 c-0.12,0-0.34-0.01-0.55-0.01c0.01,0.22,0.02,0.48,0.02,0.71v28.89v6.43c0,0.48-0.39,0.86-0.86,0.86H8.06 c-0.48,0-0.86-0.39-0.86-0.86v-6.43V87.8c-1.78-0.02-3.14-0.64-4.06-1.9l-0.05-0.06l-0.04-0.06L3,85.7v0l-0.04-0.07l-0.04-0.07v0 L2.87,85.5l0,0l-0.04-0.07l0,0l-0.04-0.07l0,0l-0.04-0.07v0l-0.04-0.07l0,0l-0.04-0.07l0,0l-0.04-0.07l0,0l-0.03-0.08v0l-0.03-0.08 v0l-0.03-0.08v0l-0.03-0.08l0,0l-0.03-0.08v0l-0.03-0.08v0l-0.03-0.08v0l-0.03-0.08v0l-0.03-0.08v0l-0.03-0.09v0L2.3,84.17v0 l-0.03-0.09v0L2.25,84v0L2.23,83.9l-0.02-0.09l0,0l-0.02-0.09v0l-0.02-0.09v0l-0.02-0.09v0l-0.02-0.09l0,0l-0.02-0.1v0l-0.02-0.1 l0,0l-0.02-0.1l0,0l-0.02-0.1v0l-0.01-0.1l0,0l-0.01-0.1v0l-0.01-0.1v0L2,82.64l0,0l-0.01-0.1v0l-0.01-0.11v0l-0.01-0.11l0,0 l-0.01-0.11v0L1.95,82.1v0l-0.01-0.11v0l-0.01-0.11v0l-0.01-0.11v0l0-0.11v0l0-0.11v0l0-0.11v0l0-0.12v0l0-0.12v0l0-0.12v0l0-0.12 v0l0-0.12v0l0-0.12l0,0l0-0.12v0l0.01-0.12v0l0.01-0.12v0l0.01-0.13v0l0.01-0.13v0l0.01-0.13l0,0l0.01-0.13l0,0l0.01-0.13 l-0.01-0.01c-0.38-0.7-0.7-1.41-0.97-2.15c-0.3-0.82-0.53-1.66-0.69-2.51c-0.09-0.45-0.16-0.9-0.21-1.35 c-0.05-0.42-0.09-0.85-0.11-1.29C0,72.34,0,72.31,0,72.27V57.11h0l0-0.04c0.05-0.95,0.16-1.84,0.35-2.68 c0.19-0.85,0.46-1.63,0.81-2.35c1.5-3.11,5.15-4.78,8.38-6.25c0.72-0.33,1.42-0.65,2.04-0.96c0.43-0.56,0.78-1.17,1.05-1.81 c0.23-0.55,0.41-1.14,0.52-1.75c-0.65-0.39-1.28-0.85-1.87-1.37c-2.43-2.15-4.12-3.91-5.22-5.94c-1.11-2.06-1.57-4.35-1.51-7.53 l0.17-9.21c0-0.1,0.02-0.19,0.05-0.28l-2.15-0.68C2.33,9.46,6.26,5.39,11.12,3.44c1.77-0.71-1.2-4.6,2.88-3.1 c5.45,1.99,17.54,4.71,20.4,8.13c2.33,2.78,2.42,4.29,2.37,7.92c-0.02,1.18-0.2,2.21-0.74,2.6c-0.25,0.18-0.55,0.25-0.9,0.22v7.88 c0,4.37-1.56,8.01-3.96,10.71c-1.35,1.52-2.97,2.74-4.71,3.62c0.1,0.56,0.25,1.1,0.43,1.61c0.22,0.61,0.5,1.19,0.84,1.74 c0.59,0.27,1.26,0.56,1.94,0.86c3.4,1.47,6.87,2.96,8.41,6.59c0.35,0.83,0.65,1.8,0.87,2.91c0.22,1.09,0.37,2.31,0.45,3.71 c0,0.04,0.01,0.07,0.01,0.11c0,1.33,0.02,2.44,0.04,3.55c0.09,4.49,0.18,9.01-0.99,13.41c-0.18,0.67-0.37,1.34-0.58,2.02 c-0.19,0.61-0.38,1.19-0.56,1.74c0.01,0.09,0.01,0.18,0.02,0.26l0,0.07l0,0.04l0,0.02l0,0.09l0,0.07l0,0.04l0,0.07l0,0.04l0,0.06 l0,0.05l0,0.06l0,0.05l0,0.06l0,0.05l0,0.02l0,0.08l0,0.01l0,0.06l0,0.05l0,0.06l0,0.05l0,0.06v0.02v0.09v0v0.05l0,0.05v0l0,0.09 l0,0.03l0,0.09l0,0.05l0,0.05l0,0.05l0,0.05l0,0.05l0,0.05L37.36,81.8L37.36,81.8z M16.39,42.61c-0.55-0.14-1.1-0.33-1.63-0.55 c-0.13,0.56-0.31,1.1-0.52,1.62c-0.27,0.65-0.62,1.28-1.04,1.87c0.46,0.51,0.98,0.95,1.54,1.31c1.52,0.98,3.36,1.45,5.16,1.4 c1.79-0.04,3.55-0.59,4.92-1.63c0.36-0.28,0.7-0.59,1.01-0.93c0.09-0.11,0.18-0.22,0.26-0.34c-0.32-0.56-0.59-1.14-0.81-1.76 c-0.17-0.47-0.31-0.96-0.42-1.46c-1.76,0.63-3.53,0.94-5.27,0.91C18.49,43.04,17.43,42.89,16.39,42.61L16.39,42.61z M14.58,40.06 c0.57,0.3,1.15,0.55,1.75,0.74l0.02,0.01c1.1,0.34,2.24,0.5,3.4,0.5c1.85,0,3.72-0.42,5.46-1.21c1.75-0.79,3.36-1.96,4.68-3.45 c2.13-2.4,3.52-5.66,3.52-9.57V19.1h0c-0.02-0.55-0.1-1.06-0.25-1.51c-0.14-0.44-0.35-0.83-0.63-1.16 c-1.06-1.24-2.06-1.19-3.49-1.12c-0.13,0.01-0.26,0.01-0.44,0.02c-5.66,0.25-9.37,0.24-12.38-0.02c-2.77-0.24-4.95-0.7-7.49-1.37 c-0.24,0.56-0.52,1.11-0.84,1.65c-0.41,0.68-0.9,1.34-1.44,1.96l-0.17,8.88c-0.05,2.87,0.35,4.9,1.31,6.69 c0.98,1.82,2.56,3.45,4.84,5.47c0.6,0.53,1.24,0.98,1.92,1.36C14.43,39.98,14.51,40.02,14.58,40.06L14.58,40.06z M15.97,34.8 c-0.4-0.26-0.51-0.79-0.25-1.19c0.26-0.4,0.79-0.51,1.19-0.25c0.98,0.64,1.92,0.98,2.82,1c0.87,0.01,1.73-0.29,2.58-0.95 c0.38-0.29,0.92-0.22,1.21,0.15c0.29,0.38,0.22,0.92-0.15,1.21c-1.17,0.91-2.39,1.33-3.66,1.31C18.47,36.05,17.22,35.61,15.97,34.8 L15.97,34.8z M12.75,24c1.03,0,1.86,0.83,1.86,1.86c0,1.03-0.83,1.86-1.86,1.86s-1.86-0.83-1.86-1.86 C10.89,24.83,11.72,24,12.75,24L12.75,24z M26.8,24c1.03,0,1.86,0.83,1.86,1.86c0,1.03-0.83,1.86-1.86,1.86 c-1.03,0-1.86-0.83-1.86-1.86C24.94,24.83,25.77,24,26.8,24L26.8,24z M17.64,85.79c-0.07,0.08-0.03,0.06,0.03,0.04 C17.7,85.75,17.73,85.68,17.64,85.79L17.64,85.79z M21.57,85.8c-0.08-0.09-0.06-0.04-0.04,0.03C21.6,85.85,21.66,85.89,21.57,85.8 L21.57,85.8z"/></g></svg>