<svg xmlns="http://www.w3.org/2000/svg" shape-rendering="geometricPrecision" text-rendering="geometricPrecision" image-rendering="optimizeQuality" fill-rule="evenodd" clip-rule="evenodd" viewBox="0 0 512 412.64"><path fill-rule="nonzero" d="M267.79 356c25.01 11.86 51.52 23.21 77.38 30.5 27.82 7.84 54.83 10.99 78.17 4.9 9.3-2.43 18.07-6.36 26.12-12.07 8.11-5.76 15.54-13.38 22.1-23.15 20.57-30.64 25.29-59.2 20.82-87.45-4.3-27.17-17.1-54.61-32.64-83.41-46.12 10.9-83.7 32.4-114.94 61.78-31.14 29.3-56.11 66.51-77.01 108.9zm62.38-34.15c-2.22 2.85-6.35 3.36-9.2 1.13-2.85-2.23-3.36-6.35-1.13-9.2 10.29-13.21 21.4-25.52 33.42-36.78 12.07-11.29 24.99-21.46 38.83-30.35 3.05-1.96 7.11-1.07 9.07 1.98s1.07 7.11-1.98 9.07c-13.28 8.53-25.58 18.2-36.97 28.87-11.45 10.71-22.09 22.52-32.04 35.28zm-140.81-11.61c2.26 2.82 1.79 6.95-1.03 9.21a6.568 6.568 0 0 1-9.21-1.03c-9.54-11.93-19.8-23.06-30.89-33.28-11.01-10.14-22.79-19.33-35.41-27.44-3.05-1.96-3.94-6.02-1.98-9.07 1.96-3.05 6.02-3.94 9.07-1.98 13.29 8.52 25.66 18.18 37.21 28.82 11.48 10.58 22.19 22.21 32.24 34.77zM244.21 356c-20.9-42.39-45.87-79.61-77.02-108.9-31.23-29.38-68.81-50.88-114.93-61.78-15.54 28.8-28.34 56.24-32.64 83.41-4.47 28.25.25 56.81 20.82 87.45 6.56 9.77 13.99 17.39 22.1 23.15 8.04 5.71 16.82 9.64 26.12 12.07 23.34 6.09 50.35 2.94 78.17-4.9 25.85-7.29 52.37-18.64 77.38-30.5zM55.99 167.65c49.61 11.65 90.01 34.73 123.58 66.3 30.66 28.84 55.52 64.69 76.43 105.31 20.91-40.62 45.77-76.47 76.43-105.31 33.56-31.57 73.97-54.65 123.58-66.3 2.51-31.23 1.53-60.08-4.48-85.45-6.26-26.39-18.04-48.99-37.14-66.52-3.67-3.38-3.91-9.09-.53-12.76 3.37-3.67 9.09-3.91 12.76-.53 21.98 20.16 35.44 45.84 42.51 75.64 6.71 28.32 7.59 60.42 4.52 95.06 17.22 31.61 31.64 61.83 36.55 92.81 5.15 32.58-.19 65.38-23.65 100.32-7.84 11.67-16.79 20.83-26.63 27.82-9.9 7.03-20.66 11.85-32.06 14.82-26.85 7.01-56.97 3.65-87.57-4.97-28.44-8.02-57.34-20.59-84.29-33.51-26.96 12.92-55.85 25.49-84.29 33.51-30.6 8.62-60.72 11.98-87.57 4.97-11.4-2.97-22.17-7.79-32.06-14.82-9.84-6.99-18.79-16.15-26.63-27.82C1.99 331.28-3.36 298.48 1.8 265.9c4.9-30.98 19.32-61.2 36.55-92.81-3.07-34.64-2.2-66.74 4.52-95.06 7.07-29.8 20.53-55.48 42.51-75.64 3.67-3.38 9.39-3.14 12.76.53 3.38 3.67 3.14 9.38-.53 12.76C78.5 33.21 66.73 55.81 60.47 82.2c-6.01 25.37-6.99 54.22-4.48 85.45z"/></svg>