<svg xmlns="http://www.w3.org/2000/svg" shape-rendering="geometricPrecision" text-rendering="geometricPrecision" image-rendering="optimizeQuality" fill-rule="evenodd" clip-rule="evenodd" viewBox="0 0 512 364.44"><path fill-rule="nonzero" d="m4.78 262.21 142.65-161.4a8.712 8.712 0 0 1 6.53-2.94h29.15l3.04 17.48h-28.29L30.18 259.82h461.08L458.1 115.35H350.5l-4.59-17.5 119.14-.01c4.38 0 8 3.21 8.65 7.4l37.06 161.39c1.07 4.7-1.87 9.39-6.57 10.46-.65.15-1.31.22-1.95.22l-491.44.02c-4.84 0-8.76-3.92-8.76-8.75 0-2.51 1.06-4.77 2.74-6.37zM226.9 38.89c-15.89 28.28-4.97 64.44 5.97 100.58 9.36 30.93 18.72 61.87 13.15 90.9-.96 5.02-5.81 8.31-10.83 7.35-5.01-.96-8.3-5.81-7.34-10.82 4.7-24.51-4.01-53.3-12.71-82.07-12.04-39.79-24.07-79.59-4.64-114.48l-15.35 8.06c-4.5 2.35-10.06.6-12.41-3.9-2.35-4.5-.6-10.06 3.9-12.41l40.14-21.05c4.5-2.35 10.06-.61 12.41 3.89.45.86.75 1.77.91 2.68l7.61 43.01c.88 5.02-2.49 9.8-7.5 10.68-5.02.88-9.8-2.49-10.68-7.5l-2.63-14.92zm110.83 0c-15.78 27.98-5.15 62.7 5.69 98.05 10.27 33.5 20.7 67.54 11.62 100.39-1.36 4.91-6.45 7.8-11.37 6.44-4.91-1.36-7.8-6.45-6.44-11.37 7.64-27.65-1.99-59.09-11.48-90.03-11.97-39.07-23.72-77.45-4.42-112.01l-15.35 8.05c-4.5 2.35-10.06.6-12.41-3.9-2.35-4.5-.61-10.06 3.9-12.41l40.14-21.05c4.5-2.35 10.06-.61 12.41 3.89.45.86.75 1.77.91 2.68l7.6 43.01c.88 5.02-2.48 9.8-7.5 10.68-5.01.88-9.8-2.49-10.67-7.5l-2.63-14.92zm-25.44 316.35a9.225 9.225 0 0 1-9.26 9.19c-5.1-.01-9.21-4.17-9.19-9.26.03-9.6 1.46-19.16 3.66-28.67 1.26-5.42 2.79-10.87 4.47-16.33h-91.46c-2.21 6.84-4.23 13.67-5.81 20.46-1.94 8.41-3.2 16.66-3.23 24.61-.02 5.1-4.17 9.21-9.27 9.19-5.09-.01-9.21-4.17-9.19-9.26.04-9.6 1.46-19.16 3.67-28.67 1.26-5.42 2.78-10.87 4.46-16.33H8.76c-4.84 0-8.76-3.93-8.76-8.76 0-4.84 3.92-8.76 8.76-8.76h192.39c1.58-.44 3.28-.47 4.95 0h105.88c1.57-.44 3.28-.47 4.95 0h186.31c4.84 0 8.76 3.92 8.76 8.76 0 4.83-3.92 8.76-8.76 8.76h-181.9c-2.21 6.84-4.23 13.67-5.81 20.46-1.95 8.41-3.2 16.66-3.24 24.61zM234.33 97.86l60.37-.01 3.04 17.5h-58.83l-4.58-17.49z"/></svg>