<?xml version="1.0" encoding="utf-8"?><svg version="1.1" id="Layer_1" xmlns="http://www.w3.org/2000/svg" xmlns:xlink="http://www.w3.org/1999/xlink" x="0px" y="0px" viewBox="0 0 99.23 122.88" style="enable-background:new 0 0 99.23 122.88" xml:space="preserve"><g><path d="M77.73,77.98c-0.58-0.12-0.95-0.69-0.83-1.27c0.12-0.58,0.69-0.95,1.27-0.83c3.11,0.67,5.74,1.79,7.87,3.38 c2.16,1.62,3.78,3.71,4.83,6.3c0.22,0.55-0.04,1.18-0.59,1.4c-0.55,0.22-1.18-0.04-1.4-0.59c-0.91-2.23-2.29-4.02-4.13-5.4 C82.89,79.58,80.54,78.58,77.73,77.98L77.73,77.98z M79.07,39.83c-11.67-1.06-32.54-7.67-38.38-14.26 c-2.35,6.78-6.38,12.37-12.03,16.81c-2.83-0.79-5.47-1.15-7.89-0.98c-0.33,0.08-0.63,0.18-0.91,0.3c-0.28,0.11-0.55,0.25-0.8,0.41 c-1.08,0.85-1.87,2.23-2.25,3.77c-0.32,1.31-0.33,2.73,0.04,4.05c0.36,1.28,1.09,2.45,2.26,3.32c1.24,0.92,3,1.51,5.36,1.54 c0.51-0.03,0.99,0.3,1.12,0.81c2.08,7.7,6.49,13.02,11.86,16.11c4.02,2.31,8.58,3.39,13.12,3.29c4.54-0.1,9.06-1.37,12.98-3.76 c5.34-3.25,9.58-8.57,11.28-15.8l0,0c0.11-0.48,0.54-0.84,1.05-0.84c3.04-0.03,5.13-1.07,6.4-2.58c0.82-0.98,1.31-2.16,1.51-3.39 c0.2-1.25,0.09-2.56-0.29-3.77c-0.61-1.96-1.94-3.64-3.81-4.35C79.4,40.38,79.17,40.13,79.07,39.83L79.07,39.83z M16.37,41.76 c-6.05-11.98-5.98-19.94-2.15-25.42c4.63-6.41,11.07-8.7,19.44-6.64C33.62,2.44,52.51-5.31,71.31,4.94 c8.58,4.68,12.9,10.06,13.73,20.19c0.39,4.75-0.5,9.55-2.6,14.42c1.51,1.15,2.59,2.81,3.16,4.65c0.47,1.52,0.61,3.17,0.36,4.76 c-0.25,1.61-0.9,3.17-1.99,4.46c-1.52,1.82-3.89,3.11-7.21,3.33c-1.88,7.11-6.06,12.45-11.32,15.89c0.33,1.8,0.88,3.67,1.64,5.39 c0.62,1.41,1.36,2.73,2.23,3.84c0.03,0.01,0.06,0.02,0.09,0.03c3.52,1.11,6.95,2.52,10.19,4.65c3.23,2.12,6.23,4.92,8.89,8.81 c4.14,6.04,6.64,13.84,8.93,21c0.6,1.87,1.19,3.7,1.78,5.42c0.16,0.48-0.25,0.97-0.93,1.09c-0.1,0.02-0.2,0.03-0.3,0.03v0H56.26 c-0.04,0-0.08,0-0.11,0H6.64c-0.67,0-1.23-0.37-1.27-0.85c-1.23-9.95,0.15-16.86,4.39-22.83C14,93.25,21.03,88.3,31.13,82.21 c0.14-0.08,0.3-0.14,0.47-0.18c1.11-1.08,2.07-2.29,2.88-3.61c0.87-1.42,1.57-2.99,2.13-4.69c-0.08-0.04-0.15-0.09-0.23-0.13 c-5.67-3.26-10.34-8.77-12.67-16.66c-2.5-0.15-4.44-0.87-5.89-1.94c-1.59-1.18-2.58-2.77-3.07-4.48c-0.48-1.68-0.46-3.49-0.06-5.15 C15.02,44.03,15.59,42.79,16.37,41.76L16.37,41.76z M50.14,56.12c5.01,0,9.06,3.24,9.06,7.24c0,4-4.06,7.24-9.06,7.24 c-5.01,0-9.06-3.24-9.06-7.24C41.07,59.36,45.13,56.12,50.14,56.12L50.14,56.12z M18.16,81.91c0.58-0.12,1.15,0.25,1.27,0.83 c0.12,0.58-0.25,1.15-0.83,1.27c-2.81,0.6-5.16,1.6-7.03,3c-1.84,1.38-3.22,3.17-4.13,5.4C7.22,92.95,6.6,93.22,6.05,93 c-0.55-0.22-0.82-0.85-0.59-1.4c1.05-2.59,2.67-4.69,4.83-6.3C12.41,83.7,15.05,82.58,18.16,81.91L18.16,81.91z M78.31,71.46 c-0.59-0.05-1.03-0.57-0.97-1.16c0.05-0.59,0.57-1.03,1.16-0.97c5.07,0.45,9.15,1.83,12.16,4.21c3.06,2.42,4.98,5.82,5.67,10.31 c0.09,0.58-0.31,1.13-0.9,1.22c-0.58,0.09-1.13-0.31-1.22-0.9c-0.61-3.92-2.26-6.88-4.88-8.95C86.66,73.11,82.96,71.88,78.31,71.46 L78.31,71.46z M66.8,49.85c0.66,0,1.2,0.54,1.2,1.2c0,0.66-0.54,1.2-1.2,1.2h-8.88c-0.66,0-1.2-0.54-1.2-1.2 c0-0.66,0.54-1.2,1.2-1.2H66.8L66.8,49.85z M57.79,76.11c-2.33,0.66-4.74,1.02-7.16,1.07c-3.38,0.07-6.78-0.46-9.99-1.61 c-0.72-0.2-1.44-0.42-2.18-0.67c-0.53,1.47-1.19,2.85-1.97,4.13c-0.84,1.38-1.83,2.64-2.97,3.77c0.07,0.07,0.13,0.13,0.2,0.2 c0.11,0.11,0.22,0.21,0.33,0.31c4.32,3.57,10.14,5.42,15.97,5.48c6.28,0.07,12.58-1.92,17.05-6.04l0.1-0.09l0,0l0.16-0.14 c-0.9-1.18-1.68-2.56-2.32-4.03c-0.64-1.47-1.15-3.03-1.5-4.56C61.56,74.87,59.67,75.6,57.79,76.11L57.79,76.11z M43.03,49.85 c0.66,0,1.2,0.54,1.2,1.2c0,0.66-0.54,1.2-1.2,1.2h-8.46c-0.66,0-1.2-0.54-1.2-1.2c0-0.66,0.54-1.2,1.2-1.2H43.03L43.03,49.85z M33.66,46.49c-0.65-0.07-1.13-0.67-1.05-1.32s0.67-1.13,1.32-1.05c2.02,0.23,3.76,0.06,5.24-0.46c1.46-0.51,2.69-1.37,3.74-2.51 c0.45-0.48,1.2-0.52,1.69-0.07c0.48,0.45,0.52,1.2,0.07,1.69c-1.31,1.42-2.87,2.5-4.71,3.15C38.13,46.55,36.05,46.77,33.66,46.49 L33.66,46.49z M67.05,43.95c0.65-0.07,1.25,0.4,1.32,1.05c0.07,0.65-0.4,1.25-1.05,1.32c-2.39,0.28-4.47,0.06-6.29-0.58 c-1.85-0.65-3.4-1.72-4.71-3.15c-0.45-0.48-0.41-1.24,0.07-1.69c0.48-0.45,1.24-0.41,1.69,0.07c1.05,1.14,2.29,2,3.74,2.51 C63.29,44.01,65.03,44.19,67.05,43.95L67.05,43.95z M85.81,120.69c0.15,0.1,0.27,0.23,0.35,0.38h10.1l-0.86-2.92 c-0.15-0.47-0.3-0.94-0.45-1.41c-2.26-7.06-4.73-14.75-8.74-20.61c-2.51-3.67-5.32-6.3-8.32-8.27c-2.76-1.81-5.7-3.08-8.74-4.08 l-0.07,0.06c-0.17,0.15-0.33,0.3-0.51,0.45c-0.2,0.17-0.4,0.34-0.61,0.51c-4.9,3.95-11.45,5.86-17.98,5.78 c-6.7-0.07-13.37-2.23-18.21-6.4c-9.32,5.67-15.84,10.33-19.74,15.82c-3.9,5.5-5.24,11.89-4.22,21.06h3.61 c0.08-0.21,0.22-0.4,0.42-0.54l16.78-10.97c1.45-0.95,2.41-2.29,3.42-3.7c0.26-0.36,0.53-0.74,0.85-1.17 c1.52-2.02,3.75-4.84,6.3-7.07c2.68-2.35,5.73-4.05,8.76-3.61c0.43,0.06,0.84,0.17,1.23,0.31c0.26-0.12,0.56-0.14,0.84-0.03 c1.61,0.61,2.99,1.11,4.24,1.55c7.72,2.74,10.51,3.73,15.15,14.11L85.81,120.69L85.81,120.69z M82.47,121.07l-14.49-9.48 c-0.19-0.12-0.32-0.29-0.4-0.48c-4.34-9.79-6.88-10.69-14.02-13.23l-0.14-0.05c1.36,1.61,2.36,3.04,3.02,4.4 c0.02,0.03,0.04,0.06,0.05,0.08l0,0l0,0l0,0c0.48,0.85,0.73,1.73,0.8,2.63c0.03,0.19,0.05,0.38,0.06,0.58 c0.2,3.11-1.46,6.09-4.83,10.32l4.47,5.23H82.47L82.47,121.07z M54.16,121.07l-3.77-4.4c-1.05,0.9-2.06,1.64-2.91,2.16 c-0.31,0.19-0.68,0.41-1.09,0.64c-0.34,0.19-0.7,0.39-1.09,0.6c-0.7,0.37-1.28,0.7-1.8,1H54.16L54.16,121.07z M39.89,121.07 c0.07-0.13,0.17-0.25,0.3-0.35c0.55-0.42,1.11-0.81,1.78-1.22c0.65-0.4,1.39-0.82,2.33-1.32c0.32-0.17,0.67-0.36,1.04-0.57 c0.29-0.17,0.63-0.37,1.03-0.61c2.23-1.37,5.69-4.39,7.56-7.65c0.82-1.44,1.32-2.91,1.22-4.26c-0.1-0.57-0.28-1.15-0.55-1.75 c-0.4-0.55-0.79-1.13-1.18-1.74c-0.64-0.96-1.31-1.99-2.05-2.89c-0.26-0.29-0.53-0.59-0.81-0.9c-0.87-0.87-1.81-1.51-2.88-1.66 c-2.3-0.33-4.78,1.11-7.05,3.09c-2.39,2.1-4.53,4.8-6,6.75c-0.25,0.34-0.54,0.73-0.82,1.13c-1.14,1.58-2.21,3.08-3.99,4.25 l-14.85,9.71H39.89L39.89,121.07z M17.84,75.36c0.59-0.05,1.11,0.39,1.16,0.97c0.05,0.59-0.39,1.11-0.97,1.16 c-4.65,0.42-8.35,1.64-11.02,3.75c-2.62,2.07-4.27,5.03-4.88,8.95c-0.09,0.58-0.64,0.99-1.22,0.9c-0.58-0.09-0.99-0.64-0.9-1.22 c0.69-4.48,2.61-7.89,5.67-10.31C8.69,77.19,12.77,75.81,17.84,75.36L17.84,75.36z"/></g></svg>