<?xml version="1.0" encoding="utf-8"?><svg version="1.1" id="Layer_1" xmlns="http://www.w3.org/2000/svg" xmlns:xlink="http://www.w3.org/1999/xlink" x="0px" y="0px" viewBox="0 0 122.88 98.31" style="enable-background:new 0 0 122.88 98.31" xml:space="preserve"><style type="text/css">.st0{fill-rule:evenodd;clip-rule:evenodd;}</style><g><path class="st0" d="M8.32,0h106.24c4.58,0,8.32,3.74,8.32,8.32v81.68c0,4.57-3.74,8.32-8.32,8.32l-106.24,0 C3.74,98.31,0,94.57,0,89.99V8.32C0,3.74,3.74,0,8.32,0L8.32,0z M35.42,51.11l-7.2-1.28c0.6-2.29,1.74-4.04,3.45-5.27 c1.7-1.22,4.1-1.83,7.21-1.83c3.57,0,6.15,0.66,7.75,2c1.59,1.33,2.39,3.01,2.39,5.03c0,1.18-0.33,2.25-0.97,3.21 c-0.64,0.96-1.61,1.8-2.92,2.52c1.06,0.26,1.87,0.57,2.42,0.92c0.91,0.56,1.61,1.3,2.12,2.21c0.5,0.92,0.76,2.01,0.76,3.28 c0,1.6-0.41,3.13-1.25,4.59c-0.84,1.46-2.04,2.59-3.6,3.38c-1.57,0.79-3.63,1.19-6.19,1.19c-2.49,0-4.45-0.29-5.89-0.88 c-1.44-0.59-2.62-1.44-3.55-2.57c-0.93-1.13-1.64-2.55-2.14-4.26l7.62-1.01c0.3,1.54,0.76,2.61,1.39,3.2 c0.63,0.59,1.42,0.89,2.4,0.89c1.01,0,1.86-0.38,2.55-1.12c0.68-0.75,1.01-1.74,1.01-2.99c0-1.27-0.33-2.25-0.98-2.95 c-0.65-0.7-1.54-1.05-2.65-1.05c-0.59,0-1.42,0.15-2.46,0.45l0.4-5.44c0.41,0.06,0.74,0.1,0.98,0.1c0.98,0,1.81-0.32,2.46-0.95 c0.66-0.63,0.99-1.38,0.99-2.25c0-0.84-0.25-1.5-0.74-1.99c-0.5-0.5-1.18-0.75-2.04-0.75c-0.89,0-1.61,0.27-2.18,0.81 C35.99,48.82,35.61,49.76,35.42,51.11L35.42,51.11z M52.92,56.77c0-5.21,0.94-8.85,2.81-10.93c1.88-2.08,4.73-3.12,8.57-3.12 c1.84,0,3.36,0.23,4.54,0.68c1.19,0.45,2.15,1.05,2.9,1.77c0.75,0.73,1.34,1.49,1.77,2.3c0.43,0.8,0.78,1.74,1.04,2.81 c0.51,2.04,0.77,4.17,0.77,6.39c0,4.97-0.84,8.61-2.53,10.91c-1.68,2.3-4.57,3.46-8.69,3.46c-2.3,0-4.17-0.37-5.59-1.1 c-1.42-0.73-2.58-1.81-3.5-3.23c-0.66-1.01-1.17-2.39-1.54-4.13C53.11,60.82,52.92,58.89,52.92,56.77L52.92,56.77z M60.46,56.78 c0,3.48,0.31,5.87,0.93,7.15c0.62,1.28,1.51,1.91,2.69,1.91c0.77,0,1.44-0.27,2.01-0.81c0.57-0.54,0.98-1.4,1.25-2.57 c0.27-1.17,0.4-3,0.4-5.47c0-3.64-0.31-6.08-0.93-7.34c-0.62-1.25-1.54-1.88-2.78-1.88c-1.26,0-2.17,0.64-2.73,1.91 C60.74,50.97,60.46,53.33,60.46,56.78L60.46,56.78z M95.08,42.72v27.87h-7.69V52.36c-1.24,0.94-2.45,1.7-3.62,2.28 c-1.17,0.58-2.63,1.14-4.38,1.67v-6.2c2.59-0.84,4.61-1.85,6.04-3.02c1.44-1.18,2.56-2.64,3.37-4.36H95.08L95.08,42.72z M117.97,23.29H5.29v67.51c0,0.64,0.25,1.2,0.67,1.63c0.42,0.43,0.99,0.67,1.63,0.67h108.04c0.64,0,1.2-0.25,1.63-0.67 c0.43-0.43,0.67-0.99,0.67-1.63l0-67.51H117.97L117.97,23.29z M106.64,9.35c2.27,0,4.11,1.84,4.11,4.11c0,2.27-1.84,4.11-4.11,4.11 c-2.27,0-4.11-1.84-4.11-4.11C102.54,11.19,104.38,9.35,106.64,9.35L106.64,9.35z M78.8,9.35c2.27,0,4.11,1.84,4.11,4.11 c0,2.27-1.84,4.11-4.11,4.11c-2.27,0-4.11-1.84-4.11-4.11C74.69,11.19,76.53,9.35,78.8,9.35L78.8,9.35z M92.72,9.35 c2.27,0,4.11,1.84,4.11,4.11c0,2.27-1.84,4.11-4.11,4.11c-2.27,0-4.11-1.84-4.11-4.11C88.61,11.19,90.45,9.35,92.72,9.35 L92.72,9.35z"/></g></svg>