<svg id="Layer_1" data-name="Layer 1" xmlns="http://www.w3.org/2000/svg" viewBox="0 0 122.88 47.89"><title>bulgarian-lev</title><path d="M108.24,40.78a7,7,0,0,1,1.89-5.31,7.61,7.61,0,0,1,5.47-1.8A7.43,7.43,0,0,1,121,35.51a7,7,0,0,1,1.9,5.27A7,7,0,0,1,121,46a7.19,7.19,0,0,1-5.35,1.9A7.46,7.46,0,0,1,110.17,46a7,7,0,0,1-1.93-5.26Zm-59.68,6H35.81V9.6H24.06Q22.71,25.29,20.79,33c-1.28,5.15-3,8.87-5.13,11.17a10.87,10.87,0,0,1-8.38,3.46A17.05,17.05,0,0,1,0,46.29V36.08a10.76,10.76,0,0,0,4.1.85c1.58,0,2.93-1.15,4-3.43s2-6.11,2.88-11.45,1.59-12.7,2.2-22H48.56V46.78Zm53.21-34.51a9.33,9.33,0,0,1-2.35,6.41,11.43,11.43,0,0,1-7,3.41v.34a13.09,13.09,0,0,1,7.88,3.42,9.27,9.27,0,0,1,2.91,6.95,11.72,11.72,0,0,1-5.35,10.4q-5.36,3.57-15.31,3.58h-24V0h24Q92.2,0,97,3.11a10.23,10.23,0,0,1,4.78,9.16ZM90,32.13a4.28,4.28,0,0,0-2.13-4A13.2,13.2,0,0,0,81.5,26.9H71.37V38H81.74a10.49,10.49,0,0,0,6.17-1.53A5,5,0,0,0,90,32.13ZM88.85,13.27Q88.85,9,82.08,9H71.37v9.25h9.24a12.85,12.85,0,0,0,6.15-1.17,4.06,4.06,0,0,0,2.09-3.81Z"/></svg>