<?xml version="1.0" encoding="utf-8"?><svg version="1.1" id="Layer_1" xmlns="http://www.w3.org/2000/svg" xmlns:xlink="http://www.w3.org/1999/xlink" x="0px" y="0px" viewBox="0 0 122.88 95.11" style="enable-background:new 0 0 122.88 95.11" xml:space="preserve"><style type="text/css">.st0{fill-rule:evenodd;clip-rule:evenodd;}</style><g><path class="st0" d="M13.72,0c22.37,19.19,35.62,33.24,20.71,55.63c-3.72,5.59-8.52,8.3-11.07,14.14 c0.43-0.95,11.43-27.69-3.9-38.62c4.05,8.54-23.42,15.55-1.71,36.44C-23.41,38.01,20.91,15.17,13.72,0L13.72,0L13.72,0z M120.5,22.71l1.89,3.33c1.02,1.8,0.39,4.12-1.41,5.13L34.26,79.3c-0.94-3.5-2.73-6.52-5.2-9.16l87.43-48.54 C117.91,20.82,119.7,21.31,120.5,22.71L120.5,22.71z M9.58,76.44c2.44-1.64,5.49-2.77,8.6-3.41c4.8-0.99,8.96-1.81,11.76,2.86 c2.03,3.39,1.27,6.55-0.6,9.45c-1.63,2.53-4.02,5.13-6.76,7.02c-5.08,3.51-10.39,4.14-14.77-0.95C4.27,87.29,3.28,80.67,9.58,76.44 L9.58,76.44z"/></g></svg>