<svg id="Layer_1" data-name="Layer 1" xmlns="http://www.w3.org/2000/svg" viewBox="0 0 122.88 120.94"><defs><style>.cls-1{fill-rule:evenodd;}</style></defs><title>business-woman</title><path class="cls-1" d="M31.14,67a20.57,20.57,0,0,1-9.6-6c6.43-2.42,9.39-10,9.8-21.38.31-8.45-1.44-14,1.44-22.38C38.49.71,59.57-4.94,71.32,4.72c9.21-1,18.49,3.77,20.5,18,1.49,10.6-1.68,20.21,1.67,30a15.22,15.22,0,0,0,7.85,9.3c-2.51,2.4-6.14,4-10.5,5.05-3.38.83-9.47,1.46-16.56,1.84v3.58L61.52,80.39A12.25,12.25,0,0,1,68,83.25l-3.62,7.43H56.29l-3.14-7.43a10.75,10.75,0,0,1,5.74-2.81L47,72.45V69c-6.88-.33-12.7-1-15.83-2ZM56.59,93.3l-2.25,15L40.22,90.5l2.7-16.68C35.75,76.59,9.51,86,5.89,92.76c-4.25,8-3.62,19.71-5.89,28.18H122.88c-2.27-8.47-1.65-20.22-5.89-28.18C113.37,86,87.13,76.59,80,73.82l2.7,16.68L66.84,108.42,64.54,93.3Z"/></svg>