<?xml version="1.0" encoding="utf-8"?><svg version="1.1" id="Layer_1" xmlns="http://www.w3.org/2000/svg" xmlns:xlink="http://www.w3.org/1999/xlink" x="0px" y="0px" viewBox="0 0 122.88 78.18" style="enable-background:new 0 0 122.88 78.18" xml:space="preserve"><style type="text/css">.st0{fill-rule:evenodd;clip-rule:evenodd;}</style><g><path class="st0" d="M20.76,12.87c0.15,0.01,0.31,0,0.47-0.03l-0.06-0.46c0.01-0.04,0.01-0.08,0.01-0.12 c0-0.08-0.02-0.16-0.05-0.24L20.75,9.1c0.24-0.92,0.61-1.65,1.1-2.18c0.51-0.55,1.16-0.9,1.93-1.04c1.02-0.07,1.32,0.67,2.34,1.32 c3.09,1.98,5.71,2.64,9.53,2.69l-0.43,2.2c-0.15,0.13-0.25,0.33-0.23,0.54c0.01,0.09,0.03,0.17,0.07,0.24l-0.03,0.15 c0.05,0,0.1,0.01,0.15,0.01c0.13,0.12,0.31,0.19,0.5,0.18c0.62-0.06,0.99-0.01,1.08,0.17c0.14,0.28,0.01,0.86-0.41,1.82l-2.08,3.43 c-0.77,1.27-1.56,2.55-2.55,3.48c-0.94,0.88-2.1,1.47-3.69,1.46c-1.46,0-2.57-0.57-3.48-1.4c-0.96-0.88-1.73-2.08-2.47-3.25 l-1.86-2.95l0,0l-0.01-0.01c-0.56-0.83-0.85-1.55-0.87-2.09c-0.01-0.17,0.02-0.33,0.08-0.45c0.05-0.1,0.13-0.19,0.23-0.26 c0.2-0.14,0.51-0.22,0.91-0.23C20.63,12.91,20.7,12.9,20.76,12.87L20.76,12.87z M84.97,12.87c0.15,0.01,0.31,0,0.47-0.03 l-0.06-0.46c0.01-0.04,0.01-0.08,0.01-0.12c0-0.08-0.02-0.16-0.05-0.24L84.97,9.1c0.24-0.92,0.61-1.65,1.1-2.18 c0.51-0.55,1.16-0.9,1.93-1.04c1.02-0.07,1.32,0.67,2.34,1.32c3.09,1.98,5.71,2.64,9.53,2.69l-0.43,2.2 c-0.15,0.13-0.25,0.33-0.23,0.54c0.01,0.09,0.03,0.17,0.07,0.24l-0.03,0.15c0.05,0,0.1,0.01,0.15,0.01 c0.13,0.12,0.31,0.19,0.5,0.18c0.62-0.06,0.99-0.01,1.08,0.17c0.14,0.28,0.01,0.86-0.41,1.82l-2.08,3.43 c-0.77,1.27-1.56,2.55-2.55,3.48c-0.94,0.88-2.1,1.47-3.69,1.46c-1.46,0-2.57-0.57-3.48-1.4c-0.96-0.88-1.73-2.08-2.47-3.25 l-1.86-2.95h0l-0.01-0.01c-0.56-0.83-0.85-1.55-0.87-2.09c0-0.17,0.02-0.33,0.08-0.45c0.05-0.1,0.13-0.19,0.23-0.26 c0.2-0.14,0.51-0.22,0.91-0.23C84.84,12.91,84.91,12.9,84.97,12.87L84.97,12.87z M101.14,12.03l0.11-4.7 c-0.14-1.95-0.79-3.43-1.82-4.55c-2.53-2.74-7.25-3.44-10.82-2.15c-0.6,0.22-1.17,0.49-1.69,0.82c-1.47,0.94-2.66,2.3-3.13,3.99 c-0.11,0.4-0.19,0.8-0.23,1.2c-0.08,1.65-0.03,3.61,0.08,5.19c-0.19,0.07-0.35,0.15-0.5,0.25c-0.3,0.2-0.53,0.47-0.68,0.79 c-0.14,0.3-0.2,0.64-0.19,1.01c0.02,0.78,0.38,1.72,1.07,2.75l1.85,2.95c0.78,1.25,1.61,2.52,2.69,3.51 c1.13,1.03,2.51,1.73,4.34,1.74c1.96,0.01,3.39-0.72,4.55-1.81c1.12-1.04,1.95-2.4,2.77-3.74l2.11-3.48 c0.01-0.02,0.03-0.05,0.04-0.07l0,0c0.59-1.34,0.71-2.28,0.4-2.92C101.92,12.41,101.59,12.16,101.14,12.03L101.14,12.03z M86.24,26.77l3.32,9.76l1.67-5.79l-0.82-0.9c-0.37-0.54-0.45-1.01-0.24-1.41c0.44-0.88,1.36-0.71,2.22-0.71 c0.9,0,2.01-0.17,2.29,0.95c0.09,0.38-0.02,0.77-0.29,1.17l-0.82,0.9l1.67,5.79l3.01-9.76c2.17,1.95,8.59,2.34,10.98,3.67 c0.76,0.42,1.44,0.96,1.99,1.68c0.83,1.1,1.34,2.54,1.48,4.36l0.5,4.84c-0.12,1.29-0.85,2.03-2.29,2.14H92.39H73.59 c-1.44-0.11-2.17-0.85-2.29-2.14l0.5-4.84c0.14-1.82,0.65-3.26,1.48-4.36c0.55-0.73,1.23-1.26,1.99-1.68 C77.65,29.12,84.07,28.73,86.24,26.77L86.24,26.77z M2.55,71.38C1.14,71.38,0,70.24,0,68.83c0-1.41,1.14-2.55,2.55-2.55h17.23 c0.45-1.48,1.25-2.8,2.32-3.87c1.09-1.09,2.46-1.91,3.98-2.35V51.6c0-1.41,1.14-2.55,2.55-2.55c1.41,0,2.55,1.14,2.55,2.55v8.47 c1.53,0.44,2.89,1.26,3.98,2.35c1.07,1.07,1.87,2.39,2.32,3.87h48.17c0.44-1.48,1.25-2.8,2.32-3.87c1.09-1.09,2.46-1.91,3.98-2.35 V51.6c0-1.41,1.14-2.55,2.55-2.55c1.41,0,2.55,1.14,2.55,2.55v8.47c1.53,0.44,2.89,1.26,3.98,2.35c1.06,1.07,1.87,2.39,2.32,3.87 h17c1.41,0,2.55,1.14,2.55,2.55c0,1.41-1.14,2.55-2.55,2.55H103.4c-0.43,1.57-1.26,2.98-2.38,4.1c-1.67,1.67-3.98,2.71-6.53,2.71 c-2.55,0-4.86-1.03-6.53-2.71c-1.12-1.12-1.95-2.52-2.38-4.1H37.53c-0.43,1.57-1.26,2.98-2.38,4.1c-1.67,1.67-3.98,2.71-6.53,2.71 c-2.55,0-4.86-1.03-6.53-2.71c-1.12-1.12-1.95-2.52-2.38-4.1H2.55L2.55,71.38z M31.55,66.01c-0.75-0.75-1.79-1.21-2.93-1.21 c-1.14,0-2.18,0.46-2.93,1.21c-0.75,0.75-1.21,1.79-1.21,2.93c0,1.14,0.46,2.18,1.21,2.93c0.75,0.75,1.78,1.21,2.93,1.21 c1.14,0,2.18-0.46,2.93-1.21c0.75-0.75,1.21-1.78,1.21-2.93C32.76,67.8,32.3,66.76,31.55,66.01L31.55,66.01z M97.41,66.01 c-0.75-0.75-1.79-1.21-2.93-1.21c-1.14,0-2.18,0.46-2.93,1.21c-0.75,0.75-1.21,1.79-1.21,2.93c0,1.14,0.46,2.18,1.21,2.93 c0.75,0.75,1.79,1.21,2.93,1.21c1.14,0,2.18-0.46,2.93-1.21c0.75-0.75,1.21-1.78,1.21-2.93C98.63,67.8,98.16,66.76,97.41,66.01 L97.41,66.01z M36.93,12.03l0.11-4.7c-0.14-1.95-0.79-3.43-1.82-4.55c-2.53-2.74-7.25-3.44-10.82-2.15 c-0.6,0.22-1.17,0.49-1.69,0.82c-1.47,0.94-2.66,2.3-3.13,3.99c-0.11,0.4-0.19,0.8-0.23,1.2c-0.08,1.65-0.03,3.61,0.08,5.19 c-0.19,0.07-0.35,0.15-0.5,0.25c-0.3,0.2-0.53,0.47-0.68,0.79c-0.14,0.3-0.2,0.64-0.19,1.01c0.02,0.78,0.38,1.72,1.07,2.75 l1.85,2.95c0.78,1.25,1.61,2.52,2.69,3.51c1.13,1.03,2.51,1.73,4.34,1.74c1.96,0.01,3.39-0.72,4.55-1.81 c1.12-1.04,1.95-2.4,2.77-3.74l2.11-3.48c0.01-0.02,0.03-0.05,0.04-0.07l0,0c0.59-1.34,0.71-2.28,0.4-2.92 C37.7,12.41,37.38,12.16,36.93,12.03L36.93,12.03z M22.02,26.77l3.32,9.76l1.67-5.79l-0.82-0.9c-0.37-0.54-0.45-1.01-0.24-1.41 c0.44-0.88,1.36-0.71,2.22-0.71c0.9,0,2.01-0.17,2.29,0.95c0.09,0.38-0.02,0.77-0.29,1.17l-0.82,0.9l1.67,5.79l3.01-9.76 c2.17,1.95,8.59,2.34,10.98,3.67c0.75,0.42,1.44,0.96,1.99,1.68c0.83,1.1,1.34,2.54,1.48,4.36l0.5,4.84 c-0.12,1.29-0.85,2.03-2.29,2.14H28.18H9.37c-1.44-0.11-2.17-0.85-2.29-2.14l0.5-4.84c0.14-1.82,0.65-3.26,1.48-4.36 c0.55-0.73,1.23-1.26,1.99-1.68C13.44,29.12,19.85,28.73,22.02,26.77L22.02,26.77z"/></g></svg>