<svg xmlns="http://www.w3.org/2000/svg" viewBox="0 0 122.88 107.37"><defs><style>.a{fill-rule:evenodd;}</style></defs><title>business-investment</title><path class="a" d="M40.07,99.69a3.44,3.44,0,0,1,.52,1.77c0,3.26-5.06,5.91-11.28,5.91S18,104.72,18,101.46a3.45,3.45,0,0,1,.51-1.77c1.44,2.4,5.71,4.14,10.76,4.14s9.33-1.74,10.76-4.14Zm34.74-2.5a4.25,4.25,0,0,1,.64,2.19c0,4.05-6.28,7.35-14,7.35s-14-3.3-14-7.35a4.28,4.28,0,0,1,.64-2.19c1.79,3,7.1,5.14,13.37,5.14S73,100.17,74.81,97.19Zm0-8.88a4.28,4.28,0,0,1,.64,2.2c0,4-6.28,7.34-14,7.34s-14-3.29-14-7.34a4.31,4.31,0,0,1,.64-2.2c1.79,3,7.1,5.15,13.37,5.15S73,91.29,74.81,88.31ZM66.5,69.81l-.16,1.82L59.46,71a6.26,6.26,0,0,1,1.18,2.48L59,73.36a5.48,5.48,0,0,0-.75-1.62,3.35,3.35,0,0,0-1.43-1.28L56.94,69l9.56.83ZM61.44,67C67.79,67,73,69,73,71.47S67.79,76,61.44,76s-11.51-2-11.51-4.52S55.09,67,61.44,67Zm0-1.5c7.73,0,14,3.29,14,7.34s-6.28,7.34-14,7.34-14-3.29-14-7.34,6.28-7.34,14-7.34ZM74.85,79.69a4.14,4.14,0,0,1,.6,2.11c0,4-6.28,7.34-14,7.34s-14-3.29-14-7.34a4.11,4.11,0,0,1,.6-2.11c1.72,3,7.07,5.24,13.41,5.24s11.69-2.22,13.41-5.24ZM35.08,66.39a1.5,1.5,0,1,1-3,0V34.73H3v65.85H8.16a1.5,1.5,0,0,1,0,3H1.49A1.49,1.49,0,0,1,0,102.08V33.93a2.27,2.27,0,0,1,.64-1.56,2.23,2.23,0,0,1,1.56-.64H32.09V2.62A2.56,2.56,0,0,1,32.86.78h0A2.6,2.6,0,0,1,34.71,0H87.93a2.58,2.58,0,0,1,1.85.77l.12.12a2.67,2.67,0,0,1,.66,1.73V31.73h30.12a2.23,2.23,0,0,1,1.55.64h0a2.23,2.23,0,0,1,.64,1.55v68.15a1.49,1.49,0,0,1-1.49,1.49h-7.24a1.5,1.5,0,1,1,0-3h5.75V34.73H90.55V64.84a1.5,1.5,0,1,1-3,0V3H35.08V66.39ZM104,71h8.67c.14,0,.25.08.25.17v4.87c0,.11-.11.19-.25.19H104c-.14,0-.25-.08-.25-.19V71.2c0-.09.11-.17.25-.17Zm-94,0h8.68c.13,0,.25.08.25.17v4.87c0,.11-.12.19-.25.19H10.06c-.13,0-.25-.08-.25-.19V71.2c0-.09.12-.17.25-.17ZM41.77,8.78H80.88A1.2,1.2,0,0,1,82.07,10V23.84A1.2,1.2,0,0,1,80.88,25H41.77a1.2,1.2,0,0,1-1.19-1.19V10a1.19,1.19,0,0,1,1.19-1.19Zm58.9,49.38h12c.14,0,.25.08.25.18v4.87c0,.11-.11.19-.25.19h-12c-.13,0-.25-.08-.25-.19V58.34c0-.1.12-.18.25-.18ZM98.44,46.39h14.25c.14,0,.25.08.25.18v4.88c0,.1-.11.18-.25.18H98.44c-.13,0-.24-.08-.24-.18V46.57c0-.1.11-.18.24-.18ZM10.06,58.16h12c.14,0,.25.08.25.18v4.87c0,.11-.11.19-.25.19h-12c-.13,0-.25-.08-.25-.19V58.34c0-.1.12-.18.25-.18Zm0-11.77H24.31c.14,0,.25.08.25.18v4.88c0,.1-.11.18-.25.18H10.06c-.13,0-.25-.08-.25-.18V46.57c0-.1.12-.18.25-.18Zm62,2.24h8.8a.26.26,0,0,1,.25.25v6.57l-.25.25H72a.26.26,0,0,1-.25-.25V48.88a.26.26,0,0,1,.25-.25Zm-15.12,0h8.8a.26.26,0,0,1,.25.25v6.57a.26.26,0,0,1-.25.25h-8.8a.26.26,0,0,1-.25-.25V48.88a.26.26,0,0,1,.25-.25Zm-15.12,0h8.8a.25.25,0,0,1,.25.25v6.57a.25.25,0,0,1-.25.25H41.8a.26.26,0,0,1-.25-.25V48.88a.26.26,0,0,1,.25-.25ZM72,32.12h8.8a.26.26,0,0,1,.25.25v9.36a.25.25,0,0,1-.25.24H72a.25.25,0,0,1-.25-.24V32.37a.25.25,0,0,1,.25-.25Zm-15.12,0h8.8a.26.26,0,0,1,.25.25v9.36a.25.25,0,0,1-.25.24h-8.8a.25.25,0,0,1-.25-.24V32.37a.25.25,0,0,1,.25-.25Zm-15.12,0h8.8a.25.25,0,0,1,.25.25v9.36a.25.25,0,0,1-.25.24H41.8a.25.25,0,0,1-.25-.24V32.37a.25.25,0,0,1,.25-.25Zm62.53,67.57a3.42,3.42,0,0,1,.51,1.77c0,3.26-5,5.91-11.27,5.91s-11.28-2.65-11.28-5.91a3.46,3.46,0,0,1,.52-1.77c1.44,2.4,5.71,4.14,10.76,4.14s9.33-1.74,10.76-4.14ZM97.64,84.8l-.13,1.47L92,85.78a5.08,5.08,0,0,1,.94,2l-1.33-.11a4.15,4.15,0,0,0-.6-1.31,2.69,2.69,0,0,0-1.15-1L90,84.13l7.69.67Zm-4.07-2.3c5.11,0,9.26,1.63,9.26,3.63s-4.15,3.64-9.26,3.64-9.27-1.63-9.27-3.64,4.15-3.63,9.27-3.63Zm0-1.21c6.22,0,11.27,2.65,11.27,5.92s-5,5.91-11.27,5.91-11.28-2.65-11.28-5.91,5.06-5.92,11.28-5.92Zm10.8,11.46a3.48,3.48,0,0,1,.47,1.7c0,3.26-5,5.91-11.27,5.91s-11.28-2.65-11.28-5.91a3.36,3.36,0,0,1,.48-1.7c1.39,2.44,5.7,4.22,10.8,4.22s9.41-1.78,10.8-4.22Zm-71-8-.13,1.47-5.53-.49a5,5,0,0,1,.94,2l-1.33-.11a4.15,4.15,0,0,0-.6-1.31,2.69,2.69,0,0,0-1.15-1l.11-1.19,7.69.67Zm-4.07-2.3c5.12,0,9.27,1.63,9.27,3.63s-4.15,3.64-9.27,3.64-9.26-1.63-9.26-3.64,4.15-3.63,9.26-3.63Zm0-1.21c6.22,0,11.28,2.65,11.28,5.92s-5.06,5.91-11.28,5.91S18,90.47,18,87.21s5.05-5.92,11.27-5.92Zm10.8,11.46a3.39,3.39,0,0,1,.48,1.7c0,3.26-5.06,5.91-11.28,5.91S18,97.71,18,94.45a3.35,3.35,0,0,1,.47-1.7C19.9,95.19,24.21,97,29.31,97s9.41-1.78,10.8-4.22Z"/></svg>