<svg xmlns="http://www.w3.org/2000/svg" shape-rendering="geometricPrecision" text-rendering="geometricPrecision" image-rendering="optimizeQuality" fill-rule="evenodd" clip-rule="evenodd" viewBox="0 0 512 471.38"><path fill="#EFC151" fill-rule="nonzero" d="M7.32 104.49 186.04 1.68c4.1-2.36 8.98-2.15 12.77.11l.01-.01L505.81 186.4c3.95 2.37 6.15 6.56 6.15 10.85h.04v160.06c0 5.09-2.99 9.47-7.31 11.49L326.48 469.73c-4.2 2.39-9.2 2.1-13.02-.32L6.15 286.02a12.624 12.624 0 0 1-6.14-11.41l.61-158.97c0-4.83 2.71-9.03 6.7-11.15z"/><path fill="#FFDC68" d="M13.25 115.64 192.33 12.63l306.99 184.62v160.06L320.24 458.74 12.64 275.18z"/><path fill="#EFC151" fill-rule="nonzero" d="M13.2 128.07c-8.94-5.25-.96-18.87 7.99-13.62l296.08 175.99 178.18-100.09 7.74 13.8-178.06 100.03v154.56h-15.85V304.06L13.2 128.07z"/><path fill="#C29D42" fill-rule="nonzero" d="m169.04 52.9 15.59 9.9c4.96 3.15 8.28 5.88 9.92 8.19 1.65 2.3 1.84 4.97.62 8.01-1.25 3.03-4.98 6.76-11.16 11.2-4.16 2.98-7.59 4.7-10.31 5.16-2.72.46-6.11-.06-10.17-1.52 2.61 3.02 3.46 5.74 2.54 8.15-.94 2.42-3.66 5.24-8.2 8.48l-6.38 4.58c-4.63 3.31-8.48 5.45-11.59 6.45-3.08.98-5.99 1.12-8.73.4-2.73-.71-7.08-3.07-13.02-7.05l-16.93-11.36 67.82-50.59zm3.53 18.88-15.59 11.43c1.76 1.04 3.48 2.47 5.67 1.82 1.3-.37 4.02-2.09 8.18-5.12 4.57-3.34 6.81-4.74 1.74-8.13zm-26.32 19.3-19.01 13.93c2.14 1.3 3.84 1.9 5.1 1.77 1.27-.12 3.27-1.19 6.01-3.19l6.36-4.64c2.94-2.14 4.46-3.61 4.59-4.42.1-.79-.92-1.94-3.05-3.45zm102.22 12.28-49.52 33.82c-5.44 3.72-9.39 6.21-11.86 7.5-2.48 1.29-5.58 2.24-9.29 2.83-3.71.6-7.3.51-10.8-.26-3.49-.77-6.81-2.2-9.97-4.32-3.47-2.33-5.86-4.87-7.16-7.59-1.3-2.73-1.53-5.3-.68-7.7.85-2.43 2.37-4.58 4.54-6.46 2.18-1.88 7.19-5.61 15.04-11.2l42.5-30.25 16.18 10.28-54.3 37.96c-3.05 2.14-4.87 3.59-5.43 4.36-.58.78-.44 1.45.39 2 .95.63 2.04.72 3.24.25 1.22-.47 3.57-1.92 7.07-4.36l53.62-37.3 16.43 10.44zm40.16 25.51-15.66 10.23-9.8-6.29-59.55 39.33-15.64-10.49 58.65-39.47-9.71-6.23 15.15-10.31 36.56 23.23zm38.54 24.49-16.21 10.15-10.06-6.47-61.61 39.01-16.05-10.76 60.67-39.16-9.96-6.4 15.67-10.23 37.55 23.86zm3.99 2.53 29.44 18.71-16.7 10.07-11.66-7.49-15.51 9.49 10.73 6.97-15.3 9.24-10.59-6.94-17.27 10.55 12.31 8.17-15.57 9.38-28.52-19.12 78.64-49.03zm35.74 22.71 12.72 8.08c8.55 5.43 13.95 9.36 16.18 11.77 2.22 2.42 2.6 5.22 1.13 8.4-1.44 3.16-5.87 6.86-13.2 11.05-6.63 3.81-11.73 5.92-15.32 6.35-3.56.44-7.51-.48-11.81-2.75 2.41 2.9 3.35 5.27 2.76 7.08-.58 1.81-1.49 3.24-2.69 4.29-1.19 1.05-5.14 3.49-11.8 7.3l-21.44 12.28-15.79-10.58 26.72-15.6c4.37-2.55 6.81-4.32 7.3-5.31.5-.98-.45-2.24-2.83-3.81l-36.28 21.31-16.78-11.25 81.13-48.61zm3.45 20.03-18.69 10.98c1.97 1.28 3.68 1.97 5.14 2.09 1.45.12 4.05-.89 7.75-3.05l4.64-2.71c2.7-1.58 4.07-2.87 4.15-3.85.07-.99-.94-2.14-2.99-3.46z"/></svg>