<?xml version="1.0" encoding="utf-8"?><svg version="1.1" id="Layer_1" xmlns="http://www.w3.org/2000/svg" xmlns:xlink="http://www.w3.org/1999/xlink" x="0px" y="0px" viewBox="0 0 122.88 83.29" style="enable-background:new 0 0 122.88 83.29" xml:space="preserve"><g><path d="M14.72,0h93.44c4.05,0,7.73,1.66,10.4,4.32l0.16,0.17c2.58,2.66,4.17,6.27,4.17,10.23v37.16c0,4.05-1.64,7.76-4.32,10.45 c-2.65,2.67-6.32,4.33-10.4,4.33H27.05L4.38,82.78c-1.25,0.89-2.97,0.6-3.86-0.65c-0.35-0.49-0.51-1.05-0.51-1.6H0v-65.8 C0,8.2,1.78,4.52,4.64,2.4C7.45,0.3,10.94,0,14.72,0L14.72,0z M101.34,16.65l-1.28,23.76h-6.08l-1.29-23.76H101.34L101.34,16.65z M100.71,41.89v6.3h-7.38v-6.3H100.71L100.71,41.89z M90.13,35.71H79.93v5.6c0,1.17,0.09,1.93,0.25,2.27 c0.17,0.34,0.5,0.51,0.98,0.51c0.6,0,1.01-0.23,1.21-0.67c0.21-0.45,0.31-1.32,0.31-2.61v-3.42h7.46v1.91c0,1.6-0.1,2.83-0.3,3.69 c-0.21,0.86-0.68,1.77-1.42,2.75c-0.74,0.98-1.68,1.71-2.82,2.2c-1.14,0.48-2.56,0.73-4.27,0.73c-1.66,0-3.13-0.24-4.41-0.72 c-1.27-0.48-2.26-1.14-2.97-1.97c-0.71-0.84-1.2-1.76-1.47-2.77c-0.27-1-0.41-2.47-0.41-4.39v-7.54c0-2.26,0.31-4.04,0.92-5.35 c0.61-1.3,1.61-2.31,3-3c1.4-0.7,2.99-1.04,4.8-1.04c2.21,0,4.03,0.42,5.46,1.26c1.44,0.84,2.45,1.95,3.02,3.33 c0.58,1.38,0.86,3.32,0.86,5.83V35.71L90.13,35.71z M82.28,31.53v-1.89c0-1.34-0.07-2.2-0.22-2.59c-0.15-0.39-0.44-0.59-0.9-0.59 c-0.56,0-0.9,0.17-1.04,0.5c-0.13,0.33-0.2,1.22-0.2,2.68v1.89H82.28L82.28,31.53z M70.9,22.36l-2.25,18.69 c-0.36,2.96-0.66,4.98-0.9,6.06c-0.24,1.08-0.64,1.97-1.2,2.66c-0.55,0.7-1.33,1.22-2.32,1.55c-0.99,0.33-2.58,0.5-4.75,0.5h-4.76 v-4.15c1.22,0,2.01-0.06,2.35-0.19c0.35-0.12,0.53-0.4,0.53-0.82c0-0.21-0.17-1.11-0.49-2.7l-4.31-21.6h7.13l2.58,17.47l1.27-17.47 H70.9L70.9,22.36z M32.66,16.65h8.16c2.58,0,4.53,0.2,5.86,0.6c1.33,0.4,2.4,1.22,3.22,2.44c0.82,1.23,1.22,3.2,1.22,5.93 c0,1.84-0.29,3.12-0.86,3.85c-0.58,0.73-1.72,1.28-3.42,1.67c1.9,0.43,3.19,1.14,3.87,2.13c0.68,1,1.02,2.52,1.02,4.58v2.92 c0,2.13-0.25,3.71-0.73,4.74c-0.49,1.02-1.26,1.73-2.32,2.11c-1.06,0.38-3.24,0.56-6.54,0.56h-9.47V16.65L32.66,16.65z M40.88,22.04v7.02c0.35-0.01,0.61-0.02,0.8-0.02c0.78,0,1.29-0.2,1.5-0.59c0.22-0.4,0.33-1.54,0.33-3.4 c0-0.99-0.09-1.68-0.27-2.08c-0.18-0.39-0.41-0.64-0.7-0.75C42.26,22.11,41.7,22.05,40.88,22.04L40.88,22.04z M40.88,33.96v8.85 c1.13-0.04,1.85-0.22,2.17-0.54c0.31-0.33,0.47-1.13,0.47-2.41v-2.95c0-1.36-0.14-2.17-0.42-2.47C42.81,34.16,42.07,34,40.88,33.96 L40.88,33.96z M108.16,5.55H14.72c-2.79,0-5.27,0.16-6.79,1.29c-1.47,1.09-2.38,3.39-2.38,7.88v60.43l18.85-13.4 c0.48-0.4,1.1-0.64,1.78-0.64h81.98c2.55,0,4.83-1.03,6.48-2.68c1.67-1.68,2.69-4,2.69-6.55V14.72c0-2.46-0.98-4.7-2.57-6.35 l-0.13-0.12C112.97,6.59,110.67,5.55,108.16,5.55L108.16,5.55z"/></g></svg>