<?xml version="1.0" encoding="utf-8"?><svg version="1.1" id="Layer_1" xmlns="http://www.w3.org/2000/svg" xmlns:xlink="http://www.w3.org/1999/xlink" x="0px" y="0px" viewBox="0 0 122.88 83.19" style="enable-background:new 0 0 122.88 83.19" xml:space="preserve"><style type="text/css">.st0{fill-rule:evenodd;clip-rule:evenodd;}</style><g><path class="st0" d="M14.59,0h93.7c4.01,0,7.66,1.64,10.3,4.29c2.64,2.64,4.29,6.29,4.29,10.3v37.27c0,4.01-1.63,7.69-4.28,10.36 c-2.63,2.64-6.26,4.29-10.31,4.29h-81.4L4.12,82.71c-1.17,0.83-2.79,0.56-3.63-0.61c-0.33-0.46-0.48-0.99-0.48-1.51H0v-66 c0-4,1.64-7.65,4.28-10.29L4.3,4.28C6.95,1.64,10.59,0,14.59,0L14.59,0z M31.51,16.51h8.18c2.59,0,4.55,0.2,5.88,0.61 c1.33,0.4,2.41,1.22,3.23,2.45c0.82,1.23,1.23,3.21,1.23,5.95c0,1.85-0.29,3.13-0.87,3.86c-0.58,0.73-1.73,1.29-3.43,1.68 c1.91,0.43,3.2,1.15,3.88,2.14c0.68,1,1.02,2.53,1.02,4.59v2.93c0,2.14-0.25,3.72-0.73,4.75c-0.49,1.03-1.26,1.73-2.33,2.11 c-1.07,0.38-3.25,0.57-6.56,0.57h-9.5V16.51L31.51,16.51z M39.75,21.9v7.04c0.35-0.01,0.61-0.02,0.81-0.02 c0.79,0,1.29-0.2,1.51-0.59c0.22-0.4,0.33-1.54,0.33-3.41c0-0.99-0.09-1.69-0.27-2.09c-0.18-0.39-0.41-0.65-0.7-0.75 C41.13,21.98,40.58,21.92,39.75,21.9L39.75,21.9z M39.75,33.86v8.88c1.13-0.04,1.86-0.22,2.17-0.55c0.31-0.33,0.47-1.13,0.47-2.41 v-2.96c0-1.36-0.14-2.18-0.42-2.47C41.69,34.06,40.95,33.9,39.75,33.86L39.75,33.86z M69.86,22.22L67.6,40.97 c-0.36,2.97-0.66,5-0.9,6.08c-0.24,1.08-0.64,1.97-1.2,2.67c-0.55,0.71-1.33,1.22-2.33,1.55c-0.99,0.33-2.59,0.5-4.77,0.5h-4.78 v-4.16c1.23,0,2.01-0.06,2.36-0.19c0.35-0.12,0.53-0.4,0.53-0.83c0-0.21-0.17-1.11-0.49-2.71l-4.32-21.67h7.15l2.59,17.52 l1.27-17.52H69.86L69.86,22.22z M89.15,35.62H78.91v5.62c0,1.17,0.09,1.93,0.25,2.27c0.17,0.34,0.5,0.51,0.99,0.51 c0.61,0,1.01-0.23,1.21-0.67c0.21-0.45,0.31-1.33,0.31-2.62V37.3h7.48v1.92c0,1.61-0.1,2.84-0.3,3.7 c-0.21,0.86-0.68,1.78-1.42,2.76c-0.74,0.98-1.69,1.71-2.83,2.21c-1.14,0.49-2.57,0.73-4.29,0.73c-1.67,0-3.14-0.24-4.42-0.73 c-1.27-0.48-2.27-1.14-2.98-1.98c-0.71-0.84-1.2-1.77-1.47-2.78c-0.27-1.01-0.41-2.47-0.41-4.41v-7.57c0-2.27,0.31-4.05,0.92-5.37 c0.61-1.31,1.61-2.31,3.01-3.01c1.4-0.7,3-1.05,4.81-1.05c2.21,0,4.04,0.42,5.48,1.26c1.44,0.84,2.45,1.95,3.03,3.34 c0.58,1.38,0.87,3.33,0.87,5.85V35.62L89.15,35.62z M81.27,31.42v-1.89c0-1.35-0.07-2.21-0.22-2.6c-0.15-0.39-0.45-0.59-0.9-0.59 c-0.56,0-0.91,0.17-1.04,0.5c-0.13,0.33-0.2,1.23-0.2,2.69v1.89H81.27L81.27,31.42z M100.4,16.51l-1.29,23.84h-6.1l-1.29-23.84 H100.4L100.4,16.51z M99.76,41.82v6.32h-7.4v-6.32H99.76L99.76,41.82z"/></g></svg>