<?xml version="1.0" encoding="utf-8"?><svg version="1.1" id="Layer_1" xmlns="http://www.w3.org/2000/svg" xmlns:xlink="http://www.w3.org/1999/xlink" x="0px" y="0px" viewBox="0 0 115.28 122.88" style="enable-background:new 0 0 115.28 122.88" xml:space="preserve"><style type="text/css">.st0{fill-rule:evenodd;clip-rule:evenodd;}</style><g><path class="st0" d="M25.38,57h64.88V37.34H69.59c-2.17,0-5.19-1.17-6.62-2.6c-1.43-1.43-2.3-4.01-2.3-6.17V7.64l0,0H8.15 c-0.18,0-0.32,0.09-0.41,0.18C7.59,7.92,7.55,8.05,7.55,8.24v106.45c0,0.14,0.09,0.32,0.18,0.41c0.09,0.14,0.28,0.18,0.41,0.18 c22.78,0,58.09,0,81.51,0c0.18,0,0.17-0.09,0.27-0.18c0.14-0.09,0.33-0.28,0.33-0.41v-11.16H25.38c-4.14,0-7.56-3.4-7.56-7.56 V64.55C17.82,60.4,21.22,57,25.38,57L25.38,57z M46.17,82.4l6.31,1.9c-0.42,1.77-1.09,3.24-2,4.43c-0.91,1.19-2.04,2.08-3.39,2.68 c-1.35,0.6-3.07,0.9-5.15,0.9c-2.54,0-4.6-0.37-6.21-1.1c-1.6-0.74-2.98-2.03-4.15-3.88c-1.16-1.85-1.75-4.22-1.75-7.1 c0-3.85,1.02-6.8,3.07-8.87c2.05-2.06,4.95-3.1,8.7-3.1c2.93,0,5.24,0.59,6.92,1.78c1.67,1.19,2.93,3.01,3.74,5.47l-6.34,1.4 c-0.22-0.7-0.46-1.22-0.7-1.54c-0.41-0.55-0.9-0.97-1.48-1.26c-0.59-0.3-1.24-0.44-1.96-0.44c-1.64,0-2.89,0.66-3.75,1.96 c-0.66,0.97-0.99,2.5-0.99,4.57c0,2.58,0.39,4.34,1.18,5.3c0.79,0.95,1.89,1.43,3.3,1.43c1.38,0,2.42-0.38,3.12-1.16 C45.35,84.99,45.86,83.87,46.17,82.4L46.17,82.4z M69.79,88.09h-8.15l-1.17,3.84h-7.34l8.76-23.27h7.87l8.72,23.27h-7.53 L69.79,88.09L69.79,88.09z M68.26,83.05l-2.54-8.36l-2.55,8.36H68.26L68.26,83.05z M80.3,68.65h13.47c2.24,0,3.97,0.56,5.17,1.67 c1.2,1.11,1.8,2.49,1.8,4.13c0,1.38-0.43,2.56-1.29,3.54c-0.57,0.66-1.41,1.18-2.51,1.56c1.67,0.4,2.9,1.09,3.69,2.07 c0.79,0.98,1.18,2.21,1.18,3.69c0,1.21-0.28,2.29-0.84,3.26c-0.56,0.96-1.33,1.72-2.3,2.29c-0.61,0.35-1.52,0.6-2.74,0.76 c-1.62,0.21-2.69,0.32-3.22,0.32H80.3V68.65L80.3,68.65z M87.55,77.78h3.14c1.12,0,1.91-0.2,2.35-0.58 c0.44-0.39,0.66-0.95,0.66-1.68c0-0.68-0.22-1.21-0.66-1.59c-0.44-0.38-1.21-0.57-2.3-0.57h-3.19V77.78L87.55,77.78z M87.55,86.92 h3.67c1.24,0,2.11-0.22,2.62-0.66c0.51-0.44,0.76-1.02,0.76-1.77c0-0.69-0.25-1.24-0.75-1.66c-0.5-0.42-1.39-0.63-2.65-0.63h-3.65 V86.92L87.55,86.92z M97.79,57h9.93c4.16,0,7.56,3.41,7.56,7.56v31.42c0,4.15-3.41,7.56-7.56,7.56h-9.93v13.55 c0,1.61-0.65,3.04-1.7,4.1c-1.06,1.06-2.49,1.7-4.1,1.7c-29.44,0-56.59,0-86.18,0c-1.61,0-3.04-0.64-4.1-1.7 c-1.06-1.06-1.7-2.49-1.7-4.1V5.85c0-1.61,0.65-3.04,1.7-4.1c1.06-1.06,2.53-1.7,4.1-1.7h58.72C64.66,0,64.8,0,64.94,0 c0.64,0,1.29,0.28,1.75,0.69h0.09c0.09,0.05,0.14,0.09,0.23,0.18l29.99,30.36c0.51,0.51,0.88,1.2,0.88,1.98 c0,0.23-0.05,0.41-0.09,0.65V57L97.79,57z M67.52,27.97V8.94l21.43,21.7H70.19c-0.74,0-1.38-0.32-1.89-0.78 C67.84,29.4,67.52,28.71,67.52,27.97L67.52,27.97z"/></g></svg>