<svg id="Layer_1" data-name="Layer 1" xmlns="http://www.w3.org/2000/svg" viewBox="0 0 106.71 122.88"><title>call-logs</title><path d="M29.39,60.35a88.2,88.2,0,0,0,13.1,18.34A74,74,0,0,0,63.23,94a2,2,0,0,0,1.79.1,7.77,7.77,0,0,0,2.5-1.82,29.76,29.76,0,0,0,2.28-2.78c3.32-4.39,7.46-9.83,13.29-7.12.13.06.22.13.35.2l19.42,11.17a2.14,2.14,0,0,0,.19.13,8.79,8.79,0,0,1,3.66,7.56,20.55,20.55,0,0,1-2.85,9.64,19.82,19.82,0,0,1-9.34,8.26A42.89,42.89,0,0,1,83,122.46,39,39,0,0,1,65.38,121a78.32,78.32,0,0,1-17.71-8.55l-.45-.3c-2.88-1.78-6-3.71-9-6C27,97.74,15.66,85.57,8.26,72.19,2.05,60.94-1.35,48.81.5,37.25c1-6.34,3.76-12.11,8.49-15.91,4.12-3.33,9.7-5.15,16.91-4.52a2.43,2.43,0,0,1,2,1.25L40.31,39.14a6.6,6.6,0,0,1,1.06,7,13.87,13.87,0,0,1-4.77,5.35c-.67.58-1.48,1.16-2.31,1.76-2.78,2-6,4.35-4.88,7.11l0-.06ZM89.62,42.7,73.69,58.62l6.12.2c7.15.45,5.49,9.83-.62,9.45l-15.7-1.1a5,5,0,0,1-4.67-4.44L56.61,46c-.69-6.1,8.6-8.25,9.43-1.16l1.26,7.42L83.23,36.3l6.39,6.4ZM63.84,25.59,79.77,9.66l-6.12-.2C66.5,9,68.16-.36,74.27,0L90,1.11a5,5,0,0,1,4.67,4.44l2.21,16.76c.69,6.1-8.6,8.25-9.43,1.17l-1.26-7.43L70.23,32l-6.39-6.39Z"/></svg>