<svg id="Layer_1" data-name="Layer 1" xmlns="http://www.w3.org/2000/svg" viewBox="0 0 79.52 122.88"><title>cambodian-riel</title><path d="M79.52,51c-3.38,6.15-7.44,10.66-12.21,13.59A45.46,45.46,0,0,1,51,70.39v44.79a6.91,6.91,0,0,1-2.59,5.56,8.27,8.27,0,0,1-5.33,2.14H35.85a15,15,0,0,1-8.37-3,32.57,32.57,0,0,1-8.07-8.15,49.07,49.07,0,0,1-6.12-11.49,36.51,36.51,0,0,1-2.4-13.06c0-4.62,1.09-8.26,3.23-10.85a10.41,10.41,0,0,1,8.33-3.91,12.14,12.14,0,0,1,2.14.34,6.86,6.86,0,0,1,3,1.65,11.05,11.05,0,0,1,2.62,4.13,20.27,20.27,0,0,1,1.17,7.74A12.76,12.76,0,0,1,30,92.69a11.13,11.13,0,0,1-2.89,3.23,9.06,9.06,0,0,1-2.85,1.5c-.86.23-1.31.68-1.31,1.24a12.25,12.25,0,0,0,.56,3.31,16.21,16.21,0,0,0,1.8,4,14.12,14.12,0,0,0,3,3.34,6.36,6.36,0,0,0,4,1.39V71c-3.37-.3-6.6-.64-9.72-1a47.93,47.93,0,0,1-10.06-2.6c-4,0-7.06-1.16-9.24-3.45a11.7,11.7,0,0,1,0-16.29,11.12,11.12,0,0,1,8.23-3.34,12.33,12.33,0,0,1,7.54,2.36,9.84,9.84,0,0,1,4,6.23,17.52,17.52,0,0,0,3.75,1.69c1.47.49,3.31,1.17,5.48,2V50.83c0-3.9-.75-6.57-2.29-8a8.87,8.87,0,0,0-6.38-2.22,22.75,22.75,0,0,0-2.93.19,16.85,16.85,0,0,1-2.25.15c-1.54,0-2.81-1-3.79-3.08s-2.4-4.84-4.24-8.37L38.14,0h3.12L58.72,11.9a4,4,0,0,0,2.66.64,4.75,4.75,0,0,0,3-1l3.19,4.62L54.66,29.4a4.58,4.58,0,0,1-2.51-1.47c-1.13-.94-2.44-2-4-3.11a31.86,31.86,0,0,0-5.45-3.2,16.21,16.21,0,0,0-6.87-1.5,6.16,6.16,0,0,0-2.62.64,7.79,7.79,0,0,0-2.48,1.73,22.8,22.8,0,0,0-2.07,2.33,32.54,32.54,0,0,0-1.95,2.92,30,30,0,0,1,5.48-.56A22,22,0,0,1,40,28.46a19.1,19.1,0,0,1,5.93,3.3,13.89,13.89,0,0,1,3.8,4.66A12.12,12.12,0,0,1,51,42V58.19a37.83,37.83,0,0,0,11.34-3c3.75-1.62,7.47-4.58,11.22-8.9L79.52,51Z"/></svg>