<svg id="Layer_1" data-name="Layer 1" xmlns="http://www.w3.org/2000/svg" viewBox="0 0 122.88 100.82"><title>canadian-dollar</title><path d="M86.7,91.39l-1-.06q-3.47-.21-6.84-.66t-6.45-1q-3.09-.56-6-1.32v-17c2.5.22,5.21.4,8.11.55s5.85.26,8.83.33,5.75.11,8.32.11a27.87,27.87,0,0,0,6.07-.55A7.35,7.35,0,0,0,101.37,70a4.44,4.44,0,0,0,1.21-3.3V65.41a4.17,4.17,0,0,0-1.71-3.64,6.76,6.76,0,0,0-4-1.21H91q-12.8,0-19.41-5.63T65,36.07V32.43q0-12.13,7.28-18.15Q77.69,9.79,86.7,8.66V0H98.61V8.42c1.5.08,3,.2,4.36.35,3,.33,5.92.74,8.6,1.21s5.1,1,7.23,1.49v17q-5.07-.43-11.42-.72t-11.53-.27a30.53,30.53,0,0,0-5.51.44,6.86,6.86,0,0,0-3.75,1.76,5.25,5.25,0,0,0-1.32,3.86v1.11A5.07,5.07,0,0,0,87,38.83a8.53,8.53,0,0,0,5.41,1.43h7.28a25.77,25.77,0,0,1,12.85,2.92,19.12,19.12,0,0,1,7.72,8,24.46,24.46,0,0,1,2.59,11.41v3.64q0,10.48-3.64,16a17.86,17.86,0,0,1-10.37,7.44,51.2,51.2,0,0,1-10.26,1.73v9.47H86.7V91.39Zm-56.59.16A43.46,43.46,0,0,1,17.65,89.9a20.49,20.49,0,0,1-9.49-6.07q-4-4.41-6.06-12.68T0,49.64q0-12.8,2.21-21T8.44,16.05A21,21,0,0,1,18,9.87,40.83,40.83,0,0,1,30.11,8.16a89.66,89.66,0,0,1,12.08.72,74.16,74.16,0,0,1,8.94,1.71,40.52,40.52,0,0,1,5.9,2V29.23c-1.4-.29-3.2-.59-5.41-.88s-4.72-.53-7.55-.72-5.9-.27-9.21-.27a22.36,22.36,0,0,0-6.35.77,7.35,7.35,0,0,0-4.13,3.09A17.18,17.18,0,0,0,22.12,38a77.75,77.75,0,0,0-.72,11.86,91,91,0,0,0,.55,11,18.48,18.48,0,0,0,2,6.89,7.92,7.92,0,0,0,4.13,3.53,19.65,19.65,0,0,0,7,1q8.39,0,13.62-.28T57,71.37V88a39,39,0,0,1-6.45,1.88,76,76,0,0,1-8.66,1.21q-5,.45-11.81.44Z"/></svg>