<svg xmlns="http://www.w3.org/2000/svg" viewBox="0 0 122.88 25.7"><defs><style>.a{fill:#bf1920;}</style></defs><title>canon</title><path class="a" d="M54.28,25.08,50,8.92a6.11,6.11,0,0,0-8-4.16L32.63,8.15h9.59l1.64,6.12a9,9,0,0,0-5.93-2.2c-4.5,0-8.15,3-8.15,6.74s3.65,6.74,8.15,6.74a9.72,9.72,0,0,0,7.88-4l.95,3.56Zm45.87-10A10.66,10.66,0,1,1,89.5,4.39a10.65,10.65,0,0,1,10.65,10.66ZM20.06,23.2a10.35,10.35,0,0,1,0-20.69,10.21,10.21,0,0,1,5.48,1.57l-5.48,8.77,10.32-6A14.06,14.06,0,0,0,25.71,2.4,19.27,19.27,0,0,0,16,0C10.56,0,5.79,2,3.14,4.93A11.76,11.76,0,0,0,0,12.85a11.8,11.8,0,0,0,3.14,7.93c2.66,3,7.35,4.92,12.69,4.92s10-2,12.7-4.92c.14-.16.29-.33.42-.5l-.4-1.51a10.35,10.35,0,0,1-8.49,4.43ZM89.94,7.63A2.35,2.35,0,1,0,85.4,8.84l3.65,13.63a2.35,2.35,0,1,0,4.54-1.22L89.94,7.63Zm29.18-3.24a3.9,3.9,0,0,0-1.6.35l-6,2.79a3.76,3.76,0,0,0-3.71-3.14,3.85,3.85,0,0,0-1.59.35L98.93,8.15h5.14V25.08h7.52V10a1.88,1.88,0,0,1,3.76,0V25.08h7.53V8.15a3.76,3.76,0,0,0-3.76-3.76Zm-47.18,0a3.73,3.73,0,0,0-1.58.35l-6,2.79a3.77,3.77,0,0,0-3.72-3.14,3.89,3.89,0,0,0-1.59.35l-7.3,3.41h5.13V25.08h7.53V10a1.88,1.88,0,0,1,3.76,0V25.08H75.7V8.15a3.76,3.76,0,0,0-3.76-3.76ZM41.07,22.57a3.76,3.76,0,1,1,3.76-3.76,3.76,3.76,0,0,1-3.76,3.76Z"/></svg>