<svg xmlns="http://www.w3.org/2000/svg" shape-rendering="geometricPrecision" text-rendering="geometricPrecision" image-rendering="optimizeQuality" fill-rule="evenodd" clip-rule="evenodd" viewBox="0 0 512 478.63"><path fill="#1F1F1F" d="M42.38 270.34c-45.76-23.24-40.5-49.16 5.46-46.45l10.29 19.29 15.53-48.27a45.57 45.57 0 0 1-17.99-11.08l-.79-.87c-7.73-8.13-12.51-19.11-12.51-31.11V45.28c0-12.46 5.09-23.8 13.29-31.99C63.85 5.09 75.19 0 87.65 0h336.72c12.42 0 23.74 5.12 31.94 13.33 8.24 8.17 13.34 19.52 13.34 31.95v106.57c0 12.36-5.13 23.7-13.32 31.91l-.08.09a45.874 45.874 0 0 1-4.19 3.69l13.34 53.59 9.16-17.24c47.25-2.75 51.46 24.7 1.45 48.42l8.14 12.45c32.87 33.8 29.79 67.54 24.66 150.99v27.42c0 8.5-6.96 15.46-15.46 15.46h-65.96c-8.5 0-15.46-6.96-15.46-15.45v-12.43H100.17v12.42c0 8.5-6.96 15.46-15.46 15.46H18.75c-8.5 0-15.46-6.96-15.46-15.45v-35.63c0-.84.09-1.63.17-2.41-5-64.06-12.04-121.79 38.92-154.8zm384.91-73.3c-.96.06-1.94.09-2.92.09H98.32l-18.19 60.59v3.12-3.12h361.76l-14.6-60.68zm-300.7 149.25-58.58-7.37c-13.84-1.54-17.55 4.3-12.84 16.21l6.34 15.38c2.03 3.95 4.74 6.83 7.91 8.83 3.71 2.29 8.17 3.41 13.13 3.62l52.25.42c12.62-.05 18.08-5.08 14.12-16.67-3.24-10.87-10.66-17.71-22.33-20.42zm258.84 0 58.59-7.37c13.83-1.54 17.53 4.3 12.83 16.21l-6.33 15.38c-2.04 3.95-4.75 6.83-7.92 8.83-3.71 2.29-8.17 3.41-13.12 3.62l-52.25.42c-12.64-.05-18.09-5.08-14.13-16.67 3.25-10.87 10.67-17.71 22.33-20.42z"/><path fill="#FFCB1E" d="M87.65 13.19h336.71c17.66 0 32.09 14.5 32.09 32.09v106.57c0 17.59-14.5 32.09-32.09 32.09H87.65c-17.59 0-32.09-14.43-32.09-32.09V45.28c0-17.65 14.44-32.09 32.09-32.09z"/><path fill-rule="nonzero" d="M149.6 98.63c0-14.1 2.63-24.4 7.92-30.87 5.28-6.47 14.8-9.71 28.58-9.71 13.77 0 23.3 3.24 28.58 9.71 5.28 6.47 7.92 16.77 7.92 30.87 0 7.02-.56 12.91-1.67 17.69-1.11 4.79-3.03 8.96-5.76 12.5-2.72 3.55-6.47 6.15-11.26 7.79-4.77 1.65-10.72 2.48-17.81 2.48-7.1 0-13.04-.83-17.82-2.48-4.79-1.64-8.54-4.24-11.26-7.79-2.72-3.54-4.64-7.71-5.75-12.5-1.11-4.78-1.67-10.67-1.67-17.69zm26.6-12.87v32.17h10.27c3.38 0 5.84-.39 7.36-1.17 1.52-.79 2.29-2.58 2.29-5.38V79.21h-10.4c-3.29 0-5.71.38-7.24 1.17-1.51.78-2.28 2.58-2.28 5.38zm106.41 51.47h-49.48V59.91h24.74v57.53h24.74v19.79zm8.68 0V59.91h34.64c13.94 0 23.51 2.96 28.7 8.9 5.2 5.94 7.79 15.86 7.79 29.76 0 13.9-2.59 23.82-7.79 29.75-5.19 5.94-14.76 8.91-28.7 8.91h-34.64zm35-57.53h-10.26v37.74h10.26c3.39 0 5.84-.39 7.37-1.18 1.53-.78 2.28-2.57 2.28-5.38V86.26c0-2.8-.75-4.6-2.28-5.38-1.53-.79-3.98-1.18-7.37-1.18z"/></svg>