<svg xmlns="http://www.w3.org/2000/svg" shape-rendering="geometricPrecision" text-rendering="geometricPrecision" image-rendering="optimizeQuality" fill-rule="evenodd" clip-rule="evenodd" viewBox="0 0 512 364.58"><path d="M37.74 127.03C-3 106.32 1.67 83.24 42.61 85.65l9.16 17.18 18.89-58.74C78.08 20.97 90.44 0 114.67 0h241.59c24.23 0 38.19 20.56 44.05 44.05l14.18 56.96 8.16-15.36c42.04-2.45 45.83 21.95 1.45 43.05-6.09-2.3-12.26-4.11-18.47-5.33-7.5-1.49-15.16-2.27-22.86-2.27-7.67 0-15.33.78-22.84 2.27-7.64 1.51-15.1 3.8-22.23 6.82-7.18 2.98-14.01 6.65-20.37 10.9-6.76 4.52-12.77 9.41-17.91 14.55-5.14 5.15-10.03 11.15-14.56 17.92-4.27 6.39-7.96 13.26-10.94 20.49-3.01 7.26-5.31 14.67-6.77 22.11-1.49 7.5-2.28 15.16-2.28 22.85 0 7.69.79 15.34 2.28 22.85 1.33 6.67 3.31 13.32 5.87 19.86l.9 2.39c.5 1.2 1.02 2.41 1.56 3.6H89.22v11.06c0 7.56-6.2 13.76-13.77 13.76H16.7c-7.57 0-13.76-6.2-13.76-13.76v-31.74c0-.74.07-1.44.15-2.14-4.46-57.04-10.73-108.47 34.65-137.86zm357.05 25.13c12.61 0 24.66 2.52 35.66 7.07a93.553 93.553 0 0 1 30.28 20.25c8.58 8.59 15.53 18.87 20.25 30.28 4.56 11 7.08 23.06 7.08 35.67 0 9.23-1.36 18.18-3.88 26.63a92.205 92.205 0 0 1-9.48 21.46l36.12 39.38a4.458 4.458 0 0 1-.26 6.3l-26.52 24.22a4.443 4.443 0 0 1-6.28-.28l-34.55-37.99a92.594 92.594 0 0 1-21.42 9.57 92.97 92.97 0 0 1-27 3.99c-12.62 0-24.67-2.52-35.67-7.08-11.41-4.72-21.7-11.67-30.28-20.25l-.21-.22a93.561 93.561 0 0 1-20.03-30.06 92.84 92.84 0 0 1-7.09-35.67c0-12.61 2.52-24.67 7.08-35.67a93.553 93.553 0 0 1 50.53-50.53c11-4.55 23.05-7.07 35.67-7.07zm-6.57 52.65v-8.79h14.79v8.56c6.98.35 13.21 1.38 20.04 2.84v15.75c-3.55-.27-7.54-.49-11.98-.66-4.44-.17-8.47-.26-12.1-.26-2.16 0-4.09.14-5.78.41-7.77 1.25-7.87 11.46 2.2 11.46h7.63c5.4 0 9.9.9 13.49 2.71 3.58 1.81 6.28 4.26 8.1 7.37 1.81 3.1 2.72 6.63 2.72 10.58v3.38c0 6.48-1.27 11.42-3.82 14.83-2.54 3.41-6.18 5.72-10.88 6.91-3.17.8-5.61 1.34-9.62 1.6v9.55h-14.79v-9.51c-7.11-.36-13.22-1.16-20.15-2.81v-15.76c8.75.68 17.72.92 26.51.92 2.54 0 4.66-.17 6.36-.51 7.84-1.57 6.58-10.44-.93-10.44h-6.13c-8.95 0-15.74-1.73-20.37-5.21-4.63-3.48-6.94-9.31-6.94-17.49v-3.39c0-7.5 2.55-13.11 7.64-16.82 3.8-2.77 7.71-4.52 14.01-5.22zm59.2-12.02a74.827 74.827 0 0 0-24.18-16.15l-.23-.11c-8.67-3.55-18.21-5.52-28.22-5.52-10.11 0-19.73 2-28.48 5.63-9.09 3.76-17.28 9.29-24.15 16.15A74.578 74.578 0 0 0 326 216.98l-.11.22c-3.55 8.67-5.52 18.22-5.52 28.23 0 10.11 2.01 19.73 5.63 28.47 3.75 9.09 9.29 17.29 16.16 24.16 6.88 6.87 15.08 12.41 24.14 16.16 8.77 3.62 18.39 5.62 28.49 5.62 10.1 0 19.71-2 28.45-5.62a74.694 74.694 0 0 0 24.18-16.16c6.86-6.87 12.4-15.07 16.15-24.16 3.63-8.74 5.63-18.36 5.63-28.47 0-10.1-2-19.72-5.62-28.45a74.897 74.897 0 0 0-16.16-24.19zm-334.68 1.88-52.18-6.57c-12.32-1.37-15.62 3.82-11.42 14.44l5.64 13.69c1.81 3.53 4.23 6.09 7.05 7.87 3.3 2.04 7.27 3.04 11.69 3.23l46.53.37c11.25-.04 16.11-4.53 12.59-14.84-2.9-9.69-9.51-15.78-19.9-18.19zm-41.37-78.89h322.19L379.34 56.7c-3.89-18-15.1-33.58-33.58-33.58H122.69c-18.45 0-27.91 15.99-33.59 33.58l-17.73 59.08v2.79-2.79z"/></svg>