<svg xmlns="http://www.w3.org/2000/svg" shape-rendering="geometricPrecision" text-rendering="geometricPrecision" image-rendering="optimizeQuality" fill-rule="evenodd" clip-rule="evenodd" viewBox="0 0 512 483.04"><path d="M42.38 274.75c-45.76-23.25-40.5-49.17 5.46-46.46l10.29 19.29 14.18-44.08c-7.52-2.46-14.27-6.68-19.76-12.17l-1.05-1.14c-8.37-8.91-13.54-20.88-13.54-33.94V49.69c0-13.68 5.59-26.11 14.58-35.11C61.54 5.59 73.97 0 87.64 0h336.72c13.6 0 26.03 5.62 35.04 14.63 9.04 8.97 14.64 21.42 14.64 35.06v106.56c0 13.56-5.62 25.99-14.62 35.01l-.09.09a50.01 50.01 0 0 1-6.13 5.22l12.2 48.97 9.16-17.25c47.26-2.75 51.46 24.71 1.45 48.42l8.14 12.46c32.87 33.79 29.79 67.53 24.66 150.99v27.41c0 8.51-6.96 15.47-15.46 15.47h-65.96c-8.5 0-15.46-6.96-15.46-15.46v-12.43H100.17v12.42c0 8.51-6.96 15.47-15.46 15.47H18.75c-8.5 0-15.46-6.96-15.46-15.46v-35.63c0-.83.09-1.62.17-2.41-5-64.05-12.04-121.79 38.92-154.79zm70.4-135.42 3.38-18.9c7.4 1.85 14.05 2.77 19.96 2.77s10.68-.24 14.3-.72v-7.03l-10.86-.96c-9.81-.89-16.55-3.24-20.2-7.06-3.66-3.82-5.49-9.47-5.49-16.95 0-10.29 2.24-17.37 6.69-21.22 4.47-3.87 12.05-5.8 22.74-5.8 10.7 0 20.35 1.01 28.95 3.02l-3.01 18.31c-7.48-1.22-13.47-1.82-17.97-1.82-4.51 0-8.33.21-11.47.6v6.91l8.68.85c10.55 1.04 17.82 3.55 21.84 7.53 4.02 3.99 6.04 9.52 6.04 16.59 0 5.07-.69 9.35-2.06 12.85-1.36 3.5-2.99 6.15-4.88 7.96-1.89 1.8-4.56 3.2-8.02 4.16-3.46.97-6.5 1.55-9.11 1.75-2.61.21-6.09.3-10.43.3-10.46 0-20.15-1.04-29.08-3.14zm73.53-36.3c0-13.76 2.57-23.78 7.72-30.1 5.15-6.31 14.43-9.47 27.87-9.47 13.43 0 22.71 3.16 27.86 9.47 5.15 6.32 7.71 16.34 7.71 30.1 0 6.83-.54 12.59-1.62 17.25-1.09 4.67-2.96 8.73-5.61 12.18-2.66 3.46-6.31 5.99-10.98 7.6-4.66 1.61-10.45 2.41-17.36 2.41-6.92 0-12.71-.8-17.37-2.41-4.67-1.61-8.33-4.14-10.98-7.6-2.66-3.45-4.52-7.51-5.61-12.18-1.09-4.66-1.63-10.42-1.63-17.25zm25.94-12.55v31.37h10.01c3.29 0 5.68-.38 7.18-1.15 1.48-.76 2.22-2.52 2.22-5.25V84.09h-10.13c-3.22 0-5.57.38-7.05 1.14-1.5.77-2.23 2.52-2.23 5.25zm106.45 50.18h-48.24V65.28h24.12v56.08h24.12v19.3zm11.17 0V65.28h33.77c13.59 0 22.91 2.88 27.98 8.68 5.07 5.79 7.6 15.46 7.6 29 0 13.56-2.53 23.23-7.6 29.02-5.07 5.78-14.39 8.68-27.98 8.68h-33.77zM364 84.57h-10.01v36.79H364c3.29 0 5.68-.38 7.18-1.14 1.49-.77 2.23-2.52 2.23-5.25v-24c0-2.74-.74-4.49-2.23-5.25-1.5-.77-3.89-1.15-7.18-1.15zM87.64 17.6h336.72c17.65 0 32.08 14.5 32.08 32.09v106.56c0 17.59-14.5 32.09-32.08 32.09H87.64c-17.58 0-32.09-14.43-32.09-32.09V49.69c0-17.66 14.43-32.09 32.09-32.09zm340.69 188.17c-1.32.12-2.63.17-3.97.17H97l-16.87 56.19v3.11-3.11h361.76l-13.56-56.36zM126.59 350.7l-58.58-7.38c-13.84-1.54-17.55 4.3-12.84 16.21l6.34 15.38c2.03 3.96 4.74 6.83 7.91 8.83 3.71 2.29 8.17 3.42 13.13 3.62l52.25.42c12.63-.04 18.08-5.08 14.12-16.66-3.24-10.88-10.66-17.71-22.33-20.42zm258.84 0 58.59-7.38c13.83-1.54 17.53 4.3 12.83 16.21l-6.33 15.38c-2.04 3.96-4.75 6.83-7.92 8.83-3.71 2.29-8.17 3.42-13.12 3.62l-52.25.42c-12.64-.04-18.09-5.08-14.13-16.66 3.25-10.88 10.67-17.71 22.33-20.42z"/></svg>