<svg id="Layer_1" data-name="Layer 1" xmlns="http://www.w3.org/2000/svg" viewBox="0 0 111.11 122.88"><defs><style>.cls-1{fill-rule:evenodd;}</style></defs><title>car-wash</title><path class="cls-1" d="M44.41,29.54a2.17,2.17,0,0,0-4.26-.82L39.32,33a2.18,2.18,0,0,0,4.27.83l.82-4.27ZM57.79,32a2.17,2.17,0,0,0-4.33-.23l-.23,4.34a2.17,2.17,0,0,0,4.34.22L57.79,32ZM57,46.73,57.11,45a2.17,2.17,0,0,0-4.33-.23l-.11,2H41.08l0-.13.82-4.26a2.17,2.17,0,0,0-4.26-.83l-.83,4.27a2.17,2.17,0,0,0,0,.95H27.94c-5.9,0-8.91,5.11-10.72,10.74L12.61,71.78,10.38,67.6C.41,67-.73,72.63,9.2,77.68h0C-1.86,84.84-.33,97.37.75,111.27a4.38,4.38,0,0,0,0,.52v7.74a3.37,3.37,0,0,0,3.36,3.35H18.38a3.37,3.37,0,0,0,3.36-3.35v-2.7H89.39v2.7a3.37,3.37,0,0,0,3.36,3.35h14.31a3.37,3.37,0,0,0,3.36-3.35v-6c1.11-18.12,1.78-25.44-5.35-32.77l-1.77-2.7C114.15,73,113.24,67,103,67.6l-2,3.74L97.54,57.46c-1.43-5.72-4.83-10.73-10.73-10.73H75a2.13,2.13,0,0,0,.06-1.16l-.79-4.06a2.18,2.18,0,0,0-4.27.83l.8,4.06a1.78,1.78,0,0,0,.09.33ZM40.67,17,40.5,17H33.16A1.19,1.19,0,0,0,32,18.22v3.83a1.19,1.19,0,0,0,1.19,1.19H78a1.19,1.19,0,0,0,1.19-1.19V18.22A1.19,1.19,0,0,0,78,17H72.43l-.3-.22c-1.9-9-7.9-13.62-14.16-14.34V0H53.14V2.68C47.05,3.93,41.65,8.86,40.67,17ZM34.84,28.92a2.17,2.17,0,0,0-4.05-1.55l-1.55,4.06A2.17,2.17,0,0,0,33.3,33l1.54-4ZM23.57,56.32A2,2,0,0,0,24.9,55l.29-.76a6.54,6.54,0,0,1,4.7-1.91H84.25c4.5,0,7.23,3.8,8.18,8.18l3.47,14.4H17.39v0l4.32-14.4a20.14,20.14,0,0,1,1.86-4.22Zm1-12.71a2.17,2.17,0,0,0,4.06,1.54l1.55-4.06a2.17,2.17,0,0,0-4.06-1.54L24.6,43.61ZM82.15,27A2.17,2.17,0,0,0,78.25,29l1.91,3.9a2.17,2.17,0,0,0,3.9-1.91L82.15,27Zm3.73,17.51a2.18,2.18,0,0,0,3.91-1.91l-1.91-3.9A2.17,2.17,0,0,0,84,40.65l1.9,3.9ZM71.79,28.72a2.17,2.17,0,0,0-4.26.83l.83,4.26A2.17,2.17,0,0,0,72.62,33l-.83-4.26ZM27.47,94.16l-12.71-1.6c-3-.33-3.81.93-2.79,3.52l1.38,3.34a4.8,4.8,0,0,0,1.72,1.91,5.81,5.81,0,0,0,2.84.79l11.34.09c2.74,0,3.93-1.1,3.07-3.62a6.15,6.15,0,0,0-4.85-4.43Zm56.17,0,12.72-1.6c3-.33,3.8.93,2.78,3.52l-1.37,3.34a4.87,4.87,0,0,1-1.72,1.91,5.85,5.85,0,0,1-2.85.79l-11.34.09c-2.74,0-3.92-1.1-3.06-3.62a6.12,6.12,0,0,1,4.84-4.43Z"/></svg>