<svg xmlns="http://www.w3.org/2000/svg" shape-rendering="geometricPrecision" text-rendering="geometricPrecision" image-rendering="optimizeQuality" fill-rule="evenodd" clip-rule="evenodd" viewBox="0 0 512 478.63"><path fill="#1F1F1F" d="M42.38 270.34c-45.76-23.24-40.5-49.16 5.46-46.45l10.29 19.29 15.53-48.27c-6.86-2.25-13-6.1-17.99-11.08l-.79-.87c-7.73-8.13-12.51-19.11-12.51-31.11V45.28c0-12.46 5.09-23.8 13.29-31.99C63.85 5.09 75.19 0 87.65 0h336.72c12.41 0 23.74 5.12 31.94 13.33 8.24 8.17 13.34 19.52 13.34 31.95v106.57c0 12.36-5.12 23.7-13.32 31.91l-.08.09c-1.32 1.3-2.74 2.54-4.2 3.69l13.35 53.59 9.16-17.24c47.26-2.75 51.46 24.7 1.45 48.42l8.14 12.45c32.87 33.8 29.79 67.54 24.66 150.99v27.42c0 8.5-6.96 15.46-15.46 15.46h-65.96c-8.5 0-15.46-6.96-15.46-15.45v-12.43H100.17v12.42c0 8.5-6.96 15.46-15.46 15.46H18.75c-8.5 0-15.46-6.96-15.46-15.45v-35.63c0-.84.09-1.63.17-2.41-5-64.06-12.04-121.79 38.92-154.8zm384.91-73.3c-.96.06-1.95.09-2.92.09H98.32l-18.19 60.59v3.12-3.12h361.76l-14.6-60.68zm-300.7 149.25-58.58-7.37c-13.84-1.54-17.55 4.3-12.84 16.21l6.34 15.38c2.03 3.95 4.74 6.83 7.91 8.83 3.71 2.29 8.17 3.41 13.13 3.62l52.25.42c12.63-.05 18.08-5.08 14.12-16.67-3.24-10.87-10.66-17.71-22.33-20.42zm258.84 0 58.59-7.37c13.83-1.54 17.53 4.3 12.83 16.21l-6.33 15.38c-2.04 3.95-4.75 6.83-7.92 8.83-3.71 2.29-8.17 3.41-13.12 3.62l-52.25.42c-12.64-.05-18.09-5.08-14.13-16.67 3.25-10.87 10.67-17.71 22.33-20.42z"/><path fill="#FFCB1E" d="M87.65 13.19h336.71c17.66 0 32.09 14.5 32.09 32.09v106.57c0 17.59-14.49 32.09-32.09 32.09H87.65c-17.59 0-32.09-14.43-32.09-32.09V45.28c0-17.65 14.44-32.09 32.09-32.09z"/><path fill-rule="nonzero" d="m130.28 135.87 3.46-19.41c7.6 1.89 14.42 2.85 20.49 2.85 6.06 0 10.95-.25 14.66-.75v-7.18l-11.14-1c-10.06-.9-16.97-3.31-20.72-7.23-3.75-3.92-5.63-9.71-5.63-17.39 0-10.55 2.28-17.81 6.86-21.77 4.58-3.96 12.35-5.94 23.32-5.94s20.87 1.03 29.7 3.09l-3.09 18.79c-7.67-1.23-13.82-1.84-18.44-1.84-4.61 0-8.53.2-11.75.61v7.06l8.9.86c10.82 1.09 18.27 3.66 22.4 7.74 4.12 4.09 6.19 9.76 6.19 17.02 0 5.19-.71 9.59-2.11 13.17-1.4 3.6-3.06 6.32-5.01 8.17-1.94 1.86-4.68 3.28-8.22 4.27-3.56.98-6.66 1.59-9.34 1.79-2.68.21-6.26.31-10.71.31-10.72 0-20.66-1.08-29.82-3.22zm125.84-27.84h-24.74v9.41h30.31v19.79h-55.05V59.91h54.43l-3.09 19.79h-26.6v10.39h24.74v17.94zm67.44 29.2h-49.49V59.91h24.75v57.53h24.74v19.79zm58.16 0h-49.48V59.91h24.74v57.53h24.74v19.79z"/></svg>