<svg xmlns="http://www.w3.org/2000/svg" shape-rendering="geometricPrecision" text-rendering="geometricPrecision" image-rendering="optimizeQuality" fill-rule="evenodd" clip-rule="evenodd" viewBox="0 0 512 478.63"><path fill="#1F1F1F" d="M42.38 270.34c-45.76-23.24-40.5-49.16 5.46-46.45l10.29 19.29 15.52-48.27a45.64 45.64 0 0 1-17.99-11.08l-.79-.87c-7.73-8.13-12.51-19.11-12.51-31.11V45.28c0-12.46 5.09-23.8 13.29-31.99C63.84 5.09 75.18 0 87.64 0h336.71c12.43 0 23.75 5.12 31.95 13.33 8.24 8.17 13.34 19.52 13.34 31.95v106.57c0 12.36-5.12 23.7-13.32 31.91l-.08.09c-1.32 1.3-2.72 2.55-4.19 3.69l13.35 53.59 9.16-17.24c47.25-2.75 51.46 24.7 1.45 48.42l8.14 12.45c32.87 33.8 29.79 67.54 24.66 150.99v27.42c0 8.5-6.96 15.46-15.46 15.46h-65.96c-8.5 0-15.46-6.96-15.46-15.45v-12.43H100.17v12.42c0 8.5-6.96 15.46-15.46 15.46H18.75c-8.5 0-15.46-6.96-15.46-15.45v-35.63c0-.84.09-1.63.17-2.41-5-64.06-12.04-121.79 38.92-154.8zm384.91-73.3c-.97.06-1.95.09-2.94.09H98.32l-18.19 60.59v3.12-3.12h361.76l-14.6-60.68zm-300.7 149.25-58.58-7.37c-13.84-1.54-17.55 4.3-12.84 16.21l6.34 15.38c2.03 3.95 4.74 6.83 7.91 8.83 3.71 2.29 8.17 3.41 13.13 3.62l52.25.42c12.62-.05 18.08-5.08 14.12-16.67-3.24-10.87-10.66-17.71-22.33-20.42zm258.84 0 58.59-7.37c13.83-1.54 17.53 4.3 12.83 16.21l-6.33 15.38c-2.04 3.95-4.75 6.83-7.92 8.83-3.71 2.29-8.17 3.41-13.12 3.62l-52.25.42c-12.64-.05-18.09-5.08-14.13-16.67 3.25-10.87 10.67-17.71 22.33-20.42z"/><path fill="#FFCB1E" d="M87.64 13.19h336.71c17.66 0 32.09 14.5 32.09 32.09v106.57c0 17.59-14.49 32.09-32.09 32.09H87.64c-17.59 0-32.09-14.43-32.09-32.09V45.28c0-17.65 14.44-32.09 32.09-32.09z"/><path fill-rule="nonzero" d="m178.54 137.23-18.93-27.46c-.67-.91-1.08-2.89-1.25-5.94h-.49v33.4h-24.74V59.91h23.26l18.93 27.46c.66.91 1.07 2.89 1.23 5.94h.5v-33.4h24.74v77.32h-23.25zm86.98-29.2h-24.74v9.41h30.31v19.79h-55.05V59.91h54.43l-3.09 19.79h-26.6v10.39h24.74v17.94zm87.49-48.12h25.86l-12.13 77.32h-32.29l-5.69-28.46h-1.49l-5.57 28.46h-32.29l-12.13-77.32h25.86l5.82 43.18h.74l8.91-43.18h18.93l8.78 43.18h.75l5.94-43.18z"/></svg>