<svg xmlns="http://www.w3.org/2000/svg" shape-rendering="geometricPrecision" text-rendering="geometricPrecision" image-rendering="optimizeQuality" fill-rule="evenodd" clip-rule="evenodd" viewBox="0 0 512 483.04"><path d="M42.38 274.75c-45.76-23.25-40.5-49.17 5.46-46.46l10.29 19.29 14.18-44.08c-7.52-2.46-14.27-6.68-19.76-12.17l-1.05-1.14c-8.37-8.91-13.54-20.88-13.54-33.94V49.69c0-13.68 5.59-26.11 14.58-35.11C61.54 5.59 73.97 0 87.64 0h336.71c13.61 0 26.04 5.62 35.05 14.63 9.04 8.97 14.64 21.42 14.64 35.06v106.56c0 13.56-5.62 25.99-14.62 35.01l-.09.09a50.01 50.01 0 0 1-6.13 5.22l12.2 48.97 9.16-17.25c47.25-2.75 51.46 24.71 1.45 48.42l8.14 12.46c32.87 33.79 29.79 67.53 24.66 150.99v27.41c0 8.51-6.96 15.47-15.46 15.47h-65.96c-8.5 0-15.46-6.96-15.46-15.46v-12.43H100.17v12.42c0 8.51-6.96 15.47-15.46 15.47H18.75c-8.5 0-15.46-6.96-15.46-15.46v-35.63c0-.83.09-1.62.17-2.41-5-64.05-12.04-121.79 38.92-154.79zm110.79-171.72c0-13.76 2.58-23.78 7.72-30.1 5.15-6.31 14.44-9.47 27.87-9.47 13.43 0 22.72 3.16 27.86 9.47 5.15 6.32 7.72 16.34 7.72 30.1 0 6.83-.54 12.59-1.62 17.25-1.09 4.67-2.96 8.73-5.61 12.18-2.66 3.46-6.32 5.99-10.98 7.6-4.67 1.61-10.45 2.41-17.37 2.41-6.92 0-12.71-.8-17.37-2.41-4.67-1.61-8.33-4.14-10.98-7.6-2.66-3.45-4.52-7.51-5.61-12.18-1.09-4.66-1.63-10.42-1.63-17.25zm25.94-12.55v31.37h10.01c3.29 0 5.68-.38 7.18-1.15 1.48-.76 2.22-2.52 2.22-5.25V84.09h-10.13c-3.22 0-5.56.38-7.05 1.14-1.5.77-2.23 2.52-2.23 5.25zm102.83 50.18H233.7V65.28h24.12v56.08h24.12v19.3zm7.54 0V65.28h33.77c13.59 0 22.92 2.88 27.99 8.68 5.06 5.79 7.59 15.46 7.59 29 0 13.56-2.53 23.23-7.59 29.02-5.07 5.78-14.4 8.68-27.99 8.68h-33.77zm34.13-56.09H313.6v36.79h10.01c3.3 0 5.69-.38 7.18-1.14 1.49-.77 2.23-2.52 2.23-5.25v-24c0-2.74-.74-4.49-2.23-5.25-1.49-.77-3.88-1.15-7.18-1.15zM87.64 17.6h336.71c17.66 0 32.09 14.5 32.09 32.09v106.56c0 17.59-14.5 32.09-32.09 32.09H87.64c-17.58 0-32.09-14.43-32.09-32.09V49.69c0-17.66 14.43-32.09 32.09-32.09zm340.69 188.17c-1.32.12-2.63.17-3.98.17H97l-16.87 56.19v3.11-3.11h361.76l-13.56-56.36zM126.59 350.7l-58.58-7.38c-13.84-1.54-17.55 4.3-12.84 16.21l6.34 15.38c2.03 3.96 4.74 6.83 7.91 8.83 3.71 2.29 8.17 3.42 13.13 3.62l52.25.42c12.62-.04 18.08-5.08 14.12-16.66-3.24-10.88-10.66-17.71-22.33-20.42zm258.84 0 58.59-7.38c13.83-1.54 17.53 4.3 12.83 16.21l-6.33 15.38c-2.04 3.96-4.75 6.83-7.92 8.83-3.71 2.29-8.17 3.42-13.12 3.62l-52.25.42c-12.64-.04-18.09-5.08-14.13-16.66 3.25-10.88 10.67-17.71 22.33-20.42z"/></svg>