<svg xmlns="http://www.w3.org/2000/svg" viewBox="0 0 122.88 85.88"><defs><style>.a{fill-rule:evenodd;}</style></defs><title>car-battery</title><path class="a" d="M6.83,27.2H116.05V80.54a5.36,5.36,0,0,1-5.34,5.34H12.17a5.36,5.36,0,0,1-5.34-5.34V27.2ZM55,0h13a1,1,0,0,1,1,1V9H96.23V1a1,1,0,0,1,1-1h13a1,1,0,0,1,1,1V9h11.69v12.5H0V9H12V1a1,1,0,0,1,1-1H26a1,1,0,0,1,1,1V9H54V1a1,1,0,0,1,1-1ZM70.77,42.52l-13.37.12-4.89,17,6.63.07-7,17.69L70.7,54.77H62.55l8.22-12.25Zm34.28-3.93V43.2H91.84V38.59Zm-82.92-4.3h4.61v4.3H31V43.2h-4.3v4.3H22.13V43.2h-4.3V38.59h4.3v-4.3Z"/></svg>