<svg xmlns="http://www.w3.org/2000/svg" shape-rendering="geometricPrecision" text-rendering="geometricPrecision" image-rendering="optimizeQuality" fill-rule="evenodd" clip-rule="evenodd" viewBox="0 0 512 478.63"><path fill="#1F1F1F" d="M42.38 270.34c-45.76-23.24-40.5-49.16 5.46-46.45l10.29 19.29 15.52-48.27a45.64 45.64 0 0 1-17.99-11.08l-.79-.87c-7.73-8.13-12.51-19.11-12.51-31.11V45.28c0-12.46 5.09-23.8 13.29-31.99C63.84 5.09 75.18 0 87.64 0h336.71c12.43 0 23.75 5.12 31.95 13.33 8.24 8.17 13.34 19.52 13.34 31.95v106.57c0 12.36-5.12 23.7-13.32 31.91l-.08.09c-1.32 1.3-2.72 2.55-4.19 3.69l13.35 53.59 9.16-17.24c47.25-2.75 51.46 24.7 1.45 48.42l8.14 12.45c32.87 33.8 29.79 67.54 24.66 150.99v27.42c0 8.5-6.96 15.46-15.46 15.46h-65.96c-8.5 0-15.46-6.96-15.46-15.45v-12.43H100.17v12.42c0 8.5-6.96 15.46-15.46 15.46H18.75c-8.5 0-15.46-6.96-15.46-15.45v-35.63c0-.84.09-1.63.17-2.41-5-64.06-12.04-121.79 38.92-154.8zm384.91-73.3c-.97.06-1.95.09-2.94.09H98.32l-18.19 60.59v3.12-3.12h361.76l-14.6-60.68zm-300.7 149.25-58.58-7.37c-13.84-1.54-17.55 4.3-12.84 16.21l6.34 15.38c2.03 3.95 4.74 6.83 7.91 8.83 3.71 2.29 8.17 3.41 13.13 3.62l52.25.42c12.62-.05 18.08-5.08 14.12-16.67-3.24-10.87-10.66-17.71-22.33-20.42zm258.84 0 58.59-7.37c13.83-1.54 17.53 4.3 12.83 16.21l-6.33 15.38c-2.04 3.95-4.75 6.83-7.92 8.83-3.71 2.29-8.17 3.41-13.12 3.62l-52.25.42c-12.64-.05-18.09-5.08-14.13-16.67 3.25-10.87 10.67-17.71 22.33-20.42z"/><path fill="#FFCB1E" d="M87.64 13.19h336.71c17.66 0 32.09 14.5 32.09 32.09v106.57c0 17.59-14.49 32.09-32.09 32.09H87.64c-17.59 0-32.09-14.43-32.09-32.09V45.28c0-17.65 14.44-32.09 32.09-32.09z"/><path fill="#1F1F1F" fill-rule="nonzero" d="m125.4 135.88 3.46-19.42c7.6 1.9 14.42 2.85 20.48 2.85 6.06 0 10.96-.25 14.66-.74v-7.19l-11.13-.99c-10.06-.91-16.98-3.32-20.73-7.24-3.75-3.92-5.62-9.71-5.62-17.39 0-10.55 2.29-17.81 6.86-21.77 4.58-3.96 12.36-5.94 23.33-5.94 10.97 0 20.87 1.03 29.69 3.1l-3.09 18.79c-7.67-1.24-13.82-1.86-18.43-1.86-4.63 0-8.55.21-11.77.62v7.06l8.91.88c10.82 1.06 18.28 3.64 22.4 7.72 4.13 4.09 6.19 9.76 6.19 17.02 0 5.2-.7 9.59-2.11 13.18-1.39 3.59-3.07 6.31-5.01 8.16-1.93 1.86-4.67 3.29-8.22 4.28-3.55.99-6.66 1.58-9.35 1.79-2.67.21-6.24.31-10.7.31-10.73 0-20.66-1.07-29.82-3.22zm92.93 1.36h-26.11l20.05-77.33h38.23l20.04 77.33h-26.1l-2.85-12.25h-20.42l-2.84 12.25zm12.37-53.58-5.07 21.66h11.38l-4.94-21.66h-1.37zm94.04 53.58h-49.49V59.91H300v57.53h24.74v19.8zm56.3-29.2h-24.75v9.4h30.32v19.8h-55.06V59.91h54.44L382.9 79.7h-26.61v10.4h24.75v17.94z"/></svg>