<svg xmlns="http://www.w3.org/2000/svg" shape-rendering="geometricPrecision" text-rendering="geometricPrecision" image-rendering="optimizeQuality" fill-rule="evenodd" clip-rule="evenodd" viewBox="0 0 512 483.04"><path d="M42.38 274.75c-45.76-23.25-40.5-49.17 5.46-46.46l10.29 19.29 14.18-44.08c-7.52-2.46-14.27-6.68-19.76-12.17l-1.05-1.14c-8.37-8.91-13.54-20.88-13.54-33.94V49.69c0-13.67 5.59-26.11 14.58-35.1 9-9 21.43-14.59 35.1-14.59h336.72c13.6 0 26.03 5.62 35.04 14.63 9.04 8.97 14.64 21.42 14.64 35.06v106.56c0 13.56-5.62 25.99-14.62 35.01l-.09.1c-1.9 1.89-3.95 3.64-6.13 5.21l12.2 48.97 9.16-17.25c47.25-2.75 51.46 24.71 1.45 48.42l8.14 12.46c32.86 33.79 29.79 67.53 24.66 150.98v27.42c0 8.51-6.96 15.47-15.46 15.47h-65.96c-8.5 0-15.46-6.96-15.46-15.46v-12.42H100.17v12.41c0 8.51-6.96 15.47-15.46 15.47H18.75c-8.5 0-15.46-6.96-15.46-15.46v-35.63c0-.83.09-1.62.17-2.41-5-64.05-12.04-121.79 38.92-154.79zm93.79-135.42 3.38-18.9c7.41 1.85 14.06 2.77 19.97 2.77 5.91 0 10.68-.24 14.29-.72v-7.03l-10.85-.96c-9.81-.89-16.55-3.24-20.21-7.06-3.66-3.82-5.48-9.47-5.48-16.95 0-10.29 2.23-17.37 6.69-21.22 4.46-3.87 12.05-5.8 22.73-5.8 10.7 0 20.35 1.01 28.96 3.02l-3.02 18.31c-7.48-1.22-13.47-1.82-17.97-1.82-4.51 0-8.33.21-11.47.6v6.91l8.69.85c10.54 1.04 17.81 3.55 21.83 7.53 4.02 3.99 6.04 9.52 6.04 16.59 0 5.07-.69 9.35-2.06 12.85-1.36 3.5-2.99 6.15-4.88 7.96-1.89 1.81-4.56 3.2-8.02 4.16-3.46.97-6.49 1.55-9.11 1.75-2.61.21-6.09.3-10.43.3-10.46 0-20.14-1.04-29.08-3.14zm120.87-27.13h-24.12v9.16h29.55v19.3H208.8V65.28h53.07l-3.01 19.29h-25.94v10.14h24.12v17.49zm63.93 28.46h-48.25V65.28h24.12v56.08h24.13v19.3zm54.87 0H327.6V65.28h24.12v56.08h24.12v19.3zM87.64 17.6h336.72c17.65 0 32.08 14.5 32.08 32.09v106.56c0 17.59-14.5 32.09-32.08 32.09H87.64c-17.58 0-32.08-14.43-32.08-32.09V49.69c0-17.66 14.42-32.09 32.08-32.09zm340.69 188.17c-1.32.12-2.64.17-3.97.17H97l-16.87 56.19v3.11-3.11h361.76l-13.56-56.36zM126.59 350.69l-58.58-7.37c-13.84-1.54-17.55 4.3-12.84 16.22l6.34 15.37c2.03 3.96 4.75 6.83 7.91 8.83 3.71 2.29 8.17 3.42 13.13 3.62l52.25.42c12.62-.04 18.08-5.08 14.12-16.66-3.24-10.88-10.66-17.71-22.33-20.43zm258.84 0 58.59-7.37c13.83-1.54 17.53 4.3 12.83 16.22l-6.33 15.37c-2.04 3.96-4.76 6.83-7.92 8.83-3.71 2.29-8.17 3.42-13.12 3.62l-52.25.42c-12.64-.04-18.09-5.08-14.13-16.66 3.25-10.88 10.67-17.71 22.33-20.43z"/></svg>