<?xml version="1.0" encoding="utf-8"?><svg version="1.1" id="Layer_1" xmlns="http://www.w3.org/2000/svg" xmlns:xlink="http://www.w3.org/1999/xlink" x="0px" y="0px" viewBox="0 0 122.88 81.68" style="enable-background:new 0 0 122.88 81.68" xml:space="preserve"><style type="text/css">.st0{fill-rule:evenodd;clip-rule:evenodd;}</style><g><path class="st0" d="M119.28,33.83v44.74h-10.46v-6.91H49.94v6.91l-10.46,0V33.83h-3.6v-6.88h8.8l4.91-15.26 c1.45-4.49,3.86-8.58,8.58-8.58h44.26c4.72,0,7.44,4,8.58,8.58l3.79,15.26h8.09v6.88H119.28L119.28,33.83L119.28,33.83z M3.7,58.62 c-2.82,3.72-5.06,7.89-2.73,14.01c1.51,3.97,4.99,7.23,9.38,9.04c-7.17-15.82,13.41-21.49,14.03-2.75 c6.89-5.72,6.83-14.15,1.78-20.97c-2.38-3.22-3.58-5.03-4.1-6.89c-0.3-1.01-0.36-2.03-0.36-3.32c-0.02-4.35,0.48-8.63,0.58-13.24 c0.17-8.7,13.54-13.09,8.83-25.46C29.6,5.07,26.12,1.82,21.73,0C28.9,15.82,8.32,21.49,7.7,2.75C0.81,8.47,0.87,16.9,5.92,23.72 c2.22,2.99,4.83,4.87,4.67,10.76c-0.17,4.09-0.44,8.31-0.71,12.41c-0.1,1.63-0.26,2.71-0.66,3.74c-0.71,1.86-2.15,3.54-5.51,7.94 L3.7,58.62L3.7,58.62z M65.11,57.85h28.09v7.28l-28.09,0V57.85L65.11,57.85L65.11,57.85z M42.98,40.89 c7.87,0.25,12.69,3.55,13.92,10.42H42.98V40.89L42.98,40.89z M114.78,40.89c-7.87,0.25-12.69,3.55-13.92,10.42h13.92V40.89 L114.78,40.89z M48.43,26.95h61.89l-2.77-12.79c-0.76-3.51-2.94-6.54-6.54-6.54H59.07c-3.59,0-5.44,3.11-6.54,6.54L48.43,26.95 L48.43,26.95L48.43,26.95z"/></g></svg>