<svg id="Layer_1" data-name="Layer 1" xmlns="http://www.w3.org/2000/svg" viewBox="0 0 111.05 122.88"><defs><style>.cls-1{fill:#050505;fill-rule:evenodd;}</style></defs><title>carpenter</title><path class="cls-1" d="M83.38,24.69l0,.1c-16.25-3-40.58-2.25-56.74,1.07v0C18.78-11,93.72-5.76,83.38,24.69Zm18.89,84a1.83,1.83,0,0,1-1.41.15l-7.38-2.72-2.67,4a1.25,1.25,0,0,1-1.5.48l-7.6-2.37-3.34,4.5-9-2.29-3.18,4.11-4.39-1.16-3.71-1-2.46,3.27a1.26,1.26,0,0,1-1.37.46l-8-2-2.41,3.75a1.24,1.24,0,0,1-.92.57l-6.41,1.18v1.14a2.07,2.07,0,0,1-2.08,2.07h0l-19.05,0a1.1,1.1,0,0,1-.26,0h-5a1.27,1.27,0,0,1,0-2.53h3.77V92H10.05a1.25,1.25,0,0,1-1.26-1.26,1.27,1.27,0,0,1,1.26-1.27H15a.48.48,0,0,1,.12,0H34.41a2.07,2.07,0,0,1,1.47.61,2,2,0,0,1,.6,1.46h0v1.06h64.79a.9.9,0,0,1,1,.86v15.24ZM20,110.23v-8.86a4.68,4.68,0,0,1,4.65-4.56h0a4.61,4.61,0,0,1,3.26,1.37,4.68,4.68,0,0,1,1.37,3.28h0v8.85a4.58,4.58,0,0,1-1.37,3.19,4.62,4.62,0,0,1-6.57,0A4.59,4.59,0,0,1,20,110.23Zm2.18-8.76v8.76h0a2.47,2.47,0,0,0,.73,1.74,2.5,2.5,0,0,0,1.74.72,2.46,2.46,0,0,0,1.75-.72,2.52,2.52,0,0,0,.73-1.68v-8.82h0a2.49,2.49,0,0,0-.73-1.75A2.46,2.46,0,0,0,24.61,99h0a2.48,2.48,0,0,0-2.45,2.4v.06ZM16.36,92v28.3H34V92ZM39.84,64.57c-4.55,3.19-9.31,4.38-14,5.24l4.06,11.53h4.47a10.35,10.35,0,0,1,7.24,3l.16.16h40l4.07-14.56c-4.13-.42-8-.75-11-2.35A13.51,13.51,0,0,1,71.19,64L71,60.94a19,19,0,0,0,3-3.07c2-2.49,2.76-5.06,3.72-8.32.19-.69.38-1.38.61-2.07,1.87-.19,3.52-2.29,4.52-4.91A18,18,0,0,0,83.93,38a6.9,6.9,0,0,0-.54-3.91,2.4,2.4,0,0,0-2-1.34,15.65,15.65,0,0,1,.75-4.11c-15.67-2.82-39.19-2-54.74,1.15l.85,4.07a7.63,7.63,0,0,0-.61,4.56,15.5,15.5,0,0,0,1.5,5.14c1,2,2.42,3.33,4.06,3.33.15.46.35,1,.5,1.46,1.34,4,2.34,6.94,4.75,9.78a17.63,17.63,0,0,0,2.27,2.3l-.19,3.48c-.24.23-.48.44-.73.65ZM18.19,71.24c-7.28,1.65-13.8,5-18.19,17.33H.91a9.52,9.52,0,0,1,2.47-4.43l.05,0A9.3,9.3,0,0,1,10,81.38v0H21.53c-1.14-4.25-2.77-8-3.34-10.1Zm92.86,17.33c-4-11.67-10.49-15.7-17.17-17.39a116.75,116.75,0,0,0-3,13.32h10.61a9,9,0,0,1,5.78,2.17,8.59,8.59,0,0,1,1.68,1.9ZM68.58,62.16c-4.33,2.89-7,4.48-12.57,4.34-5.45-.08-8.29-1.93-12.65-4.69C43,80,69,81.08,68.58,62.16ZM75.06,49c.23-.81.5-1.65.81-2.65a.88.88,0,0,1,1-.65c1.27.23,2.54-1.6,3.41-3.83a16.35,16.35,0,0,0,1-4.1,5.51,5.51,0,0,0-.35-3c-.34-.64-1.28-.26-2-.88-3.64,9.63-35.3,14-48.25.73a5.91,5.91,0,0,0-.38,3.49,14.14,14.14,0,0,0,1.34,4.56c.8,1.57,1.83,2.65,2.87,2.38a.88.88,0,0,1,1,.54c.31.84.5,1.49.73,2.14C43,67.46,68.48,69,75.06,49Z"/></svg>