<svg xmlns="http://www.w3.org/2000/svg" shape-rendering="geometricPrecision" text-rendering="geometricPrecision" image-rendering="optimizeQuality" fill-rule="evenodd" clip-rule="evenodd" viewBox="0 0 504 512.08"><path fill-rule="nonzero" d="m13.49 173.45 23.38 3.69c12.5-47.72 39.52-89.77 76.2-120.89C152.09 23.15 202.1 2.35 257.25.19c65.47-2.58 125.83 21.67 170.47 62.93 44.62 41.26 73.52 99.53 76.09 164.99.96 24.6-1.81 48.38-7.8 70.78a235.64 235.64 0 0 1-18.85 48.3l-.58-.94a60.454 60.454 0 0 0-23.62-21.56 62.33 62.33 0 0 0-13.7-5.07c4.95-10.41 9-21.33 12.03-32.68a191.43 191.43 0 0 0 6.36-57.02c-2.07-52.79-25.33-99.74-61.25-132.95-35.92-33.2-84.54-52.7-137.34-50.62-44.38 1.74-84.66 18.51-116.12 45.2-28.42 24.11-49.63 56.31-60.17 92.84l18.78 2.96c6.38.99 10.76 6.97 9.77 13.35-.43 2.79-1.82 5.21-3.78 6.95l-52.48 46.73c-4.83 4.3-12.25 3.87-16.56-.97-.73-.81-1.32-1.71-1.78-2.64L1.61 190.93c-3.27-5.57-1.4-12.74 4.17-16.01 2.42-1.42 5.14-1.86 7.71-1.47zm177.24 63.7v-26.47l18.85-8.56v-13.47l-18.85 8.55v-26.46l18.85-8.56v-42.97h49.62v20.52l26.3-11.91v26.47l-26.3 11.9v13.48l26.3-11.91v26.47l-26.3 11.91v52.17c7.69 0 14.1-1.24 19.31-3.76 5.21-2.52 9.39-6 12.53-10.5 3.14-4.47 5.42-9.8 6.78-15.96 1.37-6.12 2.07-12.86 2.07-20.14H350c0 13.94-1.86 26.55-5.58 37.83-3.72 11.29-9.35 20.88-16.87 28.83-7.48 7.93-16.95 14.05-28.28 18.39-11.37 4.35-24.73 6.5-40.11 6.5h-49.58v-70.91l-18.85 8.56zm-80.14 227.32V327.33c67.65 0 79.15-3.05 140.13 35.33h47.92c21.69 1.29 33.05 23.29 11.96 37.73-16.79 12.33-38.96 11.63-61.69 9.59-15.68-.78-16.35 20.28 0 20.35 5.68.45 11.84-.89 17.22-.89 28.35-.04 51.71-5.46 66.01-27.86l7.17-16.75 71.28-35.32c35.66-11.74 61.03 25.56 34.73 51.52-51.63 37.55-104.56 68.45-158.71 93.41-39.34 23.93-78.67 23.1-117.97 0l-58.05-29.97zM4.95 314.15h87.06v164.1H4.95v-164.1z"/></svg>