<svg xmlns="http://www.w3.org/2000/svg" shape-rendering="geometricPrecision" text-rendering="geometricPrecision" image-rendering="optimizeQuality" fill-rule="evenodd" clip-rule="evenodd" viewBox="0 0 504 512.08"><path fill-rule="nonzero" d="m13.49 173.45 23.38 3.69c12.5-47.72 39.52-89.77 76.2-120.89C152.09 23.15 202.1 2.35 257.25.19c65.47-2.58 125.83 21.67 170.47 62.93 44.62 41.26 73.52 99.53 76.09 164.99.96 24.59-1.81 48.38-7.8 70.78a235.64 235.64 0 0 1-18.85 48.3l-.58-.94a60.46 60.46 0 0 0-23.62-21.56 62.33 62.33 0 0 0-13.7-5.07c4.95-10.41 9-21.33 12.03-32.68a191.43 191.43 0 0 0 6.36-57.02c-2.07-52.79-25.33-99.74-61.25-132.95-35.91-33.19-84.54-52.7-137.34-50.62-44.38 1.74-84.66 18.51-116.12 45.2-28.42 24.11-49.63 56.31-60.17 92.84l18.78 2.96c6.38.99 10.76 6.97 9.77 13.35-.43 2.79-1.82 5.21-3.78 6.95l-52.48 46.73c-4.83 4.3-12.25 3.87-16.56-.97-.73-.81-1.32-1.71-1.78-2.64L1.61 190.93c-3.27-5.57-1.4-12.74 4.17-16.01 2.42-1.42 5.14-1.86 7.71-1.47zm279.71 72.79v28.23h-34.18v27.04h-48.54v-27.04h-19.34v-28.23h19.34v-15.2h-19.34v-28.23h19.34v-76.73h75.65c19.3 0 34.17 4.3 44.59 12.91 10.38 8.61 15.61 21.36 15.61 38.32 0 17.46-5.59 30.77-16.81 39.93-11.19 9.22-27.63 13.8-49.3 13.8h-21.2v15.2h34.18zm-34.18-43.43h13.07c5.27 0 9.69-.68 13.27-2.01 3.54-1.33 6.44-3.1 8.57-5.35 2.17-2.21 3.74-4.78 4.66-7.68.97-2.9 1.41-5.87 1.41-8.93 0-2.61-.36-5.23-1.17-7.88-.76-2.69-2.13-5.1-4.06-7.24-1.93-2.17-4.54-3.9-7.88-5.23-3.34-1.32-7.56-2.01-12.67-2.01h-15.2v46.33zM110.59 464.47V327.33c67.65 0 79.15-3.05 140.13 35.33h47.92c21.69 1.29 33.05 23.29 11.96 37.73-16.79 12.33-38.96 11.63-61.69 9.59-15.68-.78-16.35 20.28 0 20.35 5.68.45 11.84-.89 17.22-.89 28.35-.04 51.71-5.46 66.01-27.86l7.17-16.75 71.28-35.32c35.66-11.74 61.03 25.56 34.73 51.52-51.63 37.55-104.56 68.45-158.71 93.41-39.34 23.93-78.67 23.1-117.97 0l-58.05-29.97zM4.95 314.15h87.06v164.1H4.95v-164.1z"/></svg>