<?xml version="1.0" encoding="utf-8"?><svg version="1.1" id="Layer_1" xmlns="http://www.w3.org/2000/svg" xmlns:xlink="http://www.w3.org/1999/xlink" x="0px" y="0px" viewBox="0 0 115.28 122.88" style="enable-background:new 0 0 115.28 122.88" xml:space="preserve"><style type="text/css">.st0{fill-rule:evenodd;clip-rule:evenodd;}</style><g><path class="st0" d="M21.69,57h68.56V37.34H69.59c-2.17,0-5.19-1.17-6.62-2.6c-1.43-1.43-2.3-4.01-2.3-6.17V7.64l0,0H8.15 c-0.18,0-0.32,0.09-0.41,0.18C7.59,7.92,7.55,8.05,7.55,8.24v106.45c0,0.14,0.09,0.32,0.18,0.41c0.09,0.14,0.28,0.18,0.41,0.18 c22.78,0,58.09,0,81.51,0c0.18,0,0.17-0.09,0.27-0.18c0.14-0.09,0.33-0.28,0.33-0.41v-11.16H21.69c-4.14,0-7.56-3.4-7.56-7.56 V64.55C14.13,60.4,17.53,57,21.69,57L21.69,57z M46.32,82.25l6.16,1.86c-0.41,1.72-1.06,3.17-1.96,4.32 c-0.89,1.16-1.99,2.03-3.31,2.62c-1.32,0.59-2.99,0.88-5.03,0.88c-2.48,0-4.49-0.36-6.06-1.07c-1.57-0.72-2.91-1.98-4.05-3.79 c-1.14-1.8-1.71-4.12-1.71-6.94c0-3.76,1-6.64,3-8.66c2-2.02,4.84-3.03,8.5-3.03c2.86,0,5.12,0.58,6.76,1.74 c1.63,1.16,2.86,2.94,3.65,5.34l-6.19,1.37c-0.22-0.69-0.44-1.19-0.68-1.51c-0.4-0.53-0.88-0.95-1.44-1.23 c-0.57-0.29-1.21-0.43-1.91-0.43c-1.6,0-2.82,0.64-3.67,1.92c-0.64,0.95-0.96,2.44-0.96,4.46c0,2.52,0.38,4.24,1.15,5.17 c0.77,0.93,1.84,1.4,3.23,1.4c1.34,0,2.36-0.38,3.05-1.13C45.51,84.77,46.01,83.68,46.32,82.25L46.32,82.25z M55.49,68.82h10.44 c2.05,0,3.72,0.28,4.98,0.84c1.26,0.56,2.31,1.36,3.14,2.4c0.83,1.05,1.42,2.26,1.79,3.64c0.38,1.39,0.56,2.85,0.56,4.4 c0,2.43-0.27,4.31-0.83,5.65c-0.55,1.34-1.32,2.46-2.3,3.36c-0.98,0.9-2.04,1.51-3.16,1.81c-1.54,0.41-2.94,0.62-4.18,0.62H55.49 V68.82L55.49,68.82z M62.51,73.96v12.41h1.72c1.47,0,2.52-0.16,3.14-0.49c0.62-0.33,1.11-0.89,1.46-1.7 c0.35-0.81,0.53-2.13,0.53-3.95c0-2.41-0.39-4.05-1.18-4.94c-0.79-0.89-2.09-1.33-3.92-1.33H62.51L62.51,73.96z M79.71,91.54V68.82 h11.7c2.17,0,3.83,0.19,4.97,0.56c1.15,0.37,2.07,1.06,2.78,2.07c0.7,1.01,1.05,2.24,1.05,3.69c0,1.26-0.27,2.35-0.81,3.26 c-0.53,0.92-1.27,1.66-2.22,2.23c-0.6,0.36-1.42,0.66-2.47,0.9c0.84,0.28,1.44,0.56,1.82,0.84c0.25,0.19,0.63,0.59,1.12,1.2 c0.49,0.61,0.81,1.08,0.98,1.41l3.41,6.56h-7.94l-3.75-6.93c-0.48-0.9-0.9-1.48-1.27-1.75c-0.51-0.35-1.08-0.52-1.72-0.52h-0.62 v9.2H79.71L79.71,91.54z M86.76,78.06h2.97c0.32,0,0.94-0.11,1.86-0.31c0.47-0.09,0.85-0.33,1.14-0.71 c0.3-0.39,0.44-0.83,0.44-1.32c0-0.74-0.23-1.3-0.7-1.69c-0.47-0.4-1.34-0.59-2.62-0.59h-3.09V78.06L86.76,78.06z M97.79,57h9.93 c4.16,0,7.56,3.41,7.56,7.56v31.42c0,4.15-3.41,7.56-7.56,7.56h-9.93v13.55c0,1.61-0.65,3.04-1.7,4.1c-1.06,1.06-2.49,1.7-4.1,1.7 c-29.44,0-56.59,0-86.18,0c-1.61,0-3.04-0.64-4.1-1.7c-1.06-1.06-1.7-2.49-1.7-4.1V5.85c0-1.61,0.65-3.04,1.7-4.1 c1.06-1.06,2.53-1.7,4.1-1.7h58.72C64.66,0,64.8,0,64.94,0c0.64,0,1.29,0.28,1.75,0.69h0.09c0.09,0.05,0.14,0.09,0.23,0.18 l29.99,30.36c0.51,0.51,0.88,1.2,0.88,1.98c0,0.23-0.05,0.41-0.09,0.65V57L97.79,57z M67.52,27.97V8.94l21.43,21.7H70.19 c-0.74,0-1.38-0.32-1.89-0.78C67.84,29.4,67.52,28.71,67.52,27.97L67.52,27.97z"/></g></svg>