<svg id="Layer_1" data-name="Layer 1" xmlns="http://www.w3.org/2000/svg" viewBox="0 0 122.88 52.47"><defs><style>.cls-1{fill:#e94e0f;}</style></defs><title>cell-c-mobile</title><path class="cls-1" d="M96.65,0a26.24,26.24,0,1,0,26.23,26.23A26.24,26.24,0,0,0,96.65,0ZM46,31.75H32.94a4.24,4.24,0,0,0,4.3,3.68,4.39,4.39,0,0,0,4-2.26L45.37,35a9.16,9.16,0,0,1-17.25-4.13,8.9,8.9,0,0,1,9.08-9,8.6,8.6,0,0,1,8.9,8.61A7.48,7.48,0,0,1,46,31.75ZM33.23,28.58h7.88a3.87,3.87,0,0,0-3.9-2.84,4,4,0,0,0-4,2.84ZM0,26.28A13.47,13.47,0,0,1,13.71,12.72,13.32,13.32,0,0,1,25,18.84l-4.16,3A8.37,8.37,0,0,0,5.29,26.28a8.37,8.37,0,0,0,15.64,4.37l4.26,2.84a13.38,13.38,0,0,1-11.48,6.38A13.47,13.47,0,0,1,0,26.28Zm83.13,0A13.48,13.48,0,0,1,96.84,12.72a13.32,13.32,0,0,1,11.3,6.12l-4.16,3a8.37,8.37,0,0,0-15.56,4.48,8.37,8.37,0,0,0,15.64,4.37l4.26,2.84a13.64,13.64,0,0,1-25.19-7.21ZM96.65,47.53a21.3,21.3,0,1,1,21.29-21.3,21.3,21.3,0,0,1-21.29,21.3ZM60.15,12.36h4.73v27H60.15v-27Zm-10.09,0H54.8v27H50.06v-27ZM33.23,28.58ZM0,26.28Z"/></svg>