<svg id="Layer_1" data-name="Layer 1" xmlns="http://www.w3.org/2000/svg" viewBox="0 0 122.88 122.88"><title>cent-symbol</title><path d="M30.27,0H92.61a30.35,30.35,0,0,1,30.27,30.27V92.61a30.35,30.35,0,0,1-30.27,30.27H30.27A30.13,30.13,0,0,1,8.91,114h0A30.14,30.14,0,0,1,0,92.61V30.27A30.14,30.14,0,0,1,8.89,8.89l.37-.34A30.1,30.1,0,0,1,30.27,0ZM62.32,75.81A7.26,7.26,0,0,0,67.67,74a6.84,6.84,0,0,0,1.86-5.19H84.89a18.21,18.21,0,0,1-4.72,12.77,18.73,18.73,0,0,1-11.46,6.54v6.74H57.1V88.17c-6.26-.92-10.22-3.69-13.77-8.36S38,69.07,38,61.55v-.87c0-7.27,1.78-13.24,5.3-18s7.52-7.54,13.81-8.43v-6.2H68.71v6.3a17.93,17.93,0,0,1,11.63,6.89c3,3.65,4.52,8.23,4.52,13.78H69.53a8.78,8.78,0,0,0-2-6.22,6.92,6.92,0,0,0-5-2.19h-.3q-6.37,0-7.44,8.11a57.51,57.51,0,0,0-.34,6.16c0,.29,0,.6,0,.88q0,7.93,1.91,11a6.55,6.55,0,0,0,6,3ZM92.61,12.1H30.27A18.13,18.13,0,0,0,17.7,17.16l-.26.28A18.11,18.11,0,0,0,12.1,30.27V92.61a18.09,18.09,0,0,0,5.34,12.83h0a18.13,18.13,0,0,0,12.84,5.33H92.61a18.23,18.23,0,0,0,18.17-18.17V30.27A18.23,18.23,0,0,0,92.61,12.1Z"/></svg>