<svg id="Layer_1" data-name="Layer 1" xmlns="http://www.w3.org/2000/svg" viewBox="0 0 82.88 122.88"><defs><style>.cls-1{fill-rule:evenodd;}</style></defs><title>cent</title><path class="cls-1" d="M43,86.84c4.08,0,7.22-1.08,9.45-3.29s3.34-5.25,3.29-9.18H82.88c0,8.95-2.75,16.46-8.33,22.57s-12.86,10-21.92,11.56v14.38H35.43v-14.2c-11.07-1.62-19.73-6.52-26-14.77S0,74.93,0,61.63V60.1C0,47.25,3.14,36.69,9.36,28.32S24.3,15,35.43,13.41V0h17.2V13.59c9.44,1.67,16.87,5.72,22.21,12.18s8,14.55,8,24.36H55.74c0-4.79-1.18-8.46-3.56-11a12.23,12.23,0,0,0-9.45-3.85q-11.26,0-13.15,14.33A100.35,100.35,0,0,0,29,62.07q0,14,3.37,19.37c2.23,3.61,5.78,5.4,10.66,5.4Z"/></svg>