<svg id="Layer_1" data-name="Layer 1" xmlns="http://www.w3.org/2000/svg" viewBox="0 0 111.77 122.88"><defs><style>.cls-1{fill-rule:evenodd;}</style></defs><title>ceo</title><path class="cls-1" d="M42.6,60.88c-2.71-2.42-4.86-4.16-5.32-9.18H37a3.92,3.92,0,0,1-1.93-.51,5.24,5.24,0,0,1-2.12-2.57c-1-2.25-1.75-8.17.71-9.86l-.46-.3,0-.66C33,36.61,33,35.17,33,33.66c-.09-5.56-.2-12.3-4.67-13.65l-1.92-.58,1.26-1.57A72.75,72.75,0,0,1,38.86,6.5c4.31-3.4,8.68-5.65,13-6.3A15.61,15.61,0,0,1,64.44,3.72a23.63,23.63,0,0,1,3.38,3.4A14.37,14.37,0,0,1,77.92,13a20.62,20.62,0,0,1,3.28,6.64,22.66,22.66,0,0,1,.89,7.52,18.09,18.09,0,0,1-5.24,12.19,3.74,3.74,0,0,1,1.63.41c1.86,1,1.92,3.17,1.43,5-.48,1.51-1.1,3.28-1.68,4.76-.7,2-1.73,2.37-3.73,2.15-.1,4.94-2.38,6.3-5.45,9.2-1.76,8.3-24,7.19-26.45,0Zm2.91,53.55a21.85,21.85,0,0,1-5.24.63,9.16,9.16,0,0,1-4.13-.76,4.41,4.41,0,0,1-2.08-2.55,15.85,15.85,0,0,1-.64-5.14c0-3.2.49-5.4,1.48-6.58s2.88-1.77,5.66-1.77a21.92,21.92,0,0,1,4.11.48l.84.17-.15,4.32a30.41,30.41,0,0,0-3.65-.24c-1.12,0-1.84.21-2.16.64a4.83,4.83,0,0,0-.49,2.64,11.43,11.43,0,0,0,.23,2.78,1.56,1.56,0,0,0,.74,1,3.46,3.46,0,0,0,1.64.26l3.77-.15.07,4.25Zm2.9.31V98.57H60.53v3.83H54v2h5.07v4.42H54v2.09h6.52v3.82Zm20.19-8.08a7.86,7.86,0,0,0,.4,3,2,2,0,0,0,3.32,0,8.41,8.41,0,0,0,.38-3,8.29,8.29,0,0,0-.37-3,1.59,1.59,0,0,0-1.65-.88,1.63,1.63,0,0,0-1.68.9,7.83,7.83,0,0,0-.4,3Zm9.75,0q0,4.41-1.83,6.41c-1.22,1.33-3.18,2-5.86,2s-4.63-.67-5.86-2S63,109.58,63,106.65s.61-5.07,1.84-6.4,3.17-2,5.86-2,4.65.66,5.87,2,1.83,3.46,1.83,6.41ZM40.64,67.4l8.45,22.17,4.24-12.08-2.08-2.28c-1.56-2.28-1-4.88,1.87-5.35a20.38,20.38,0,0,1,3.14-.06,17.13,17.13,0,0,1,3.45.13c2.69.6,3,3.21,1.63,5.28l-2.08,2.28,4.25,12.08L71.15,67.4c5.51,5,24.92,6,31,9.34,6.62,3.71,7.88,5.92,9,10.8a15.85,15.85,0,0,1,.61,5.6v26a3.84,3.84,0,0,1-3.79,3.79H3.81A3.81,3.81,0,0,1,0,119.09V95.74c0-4.87-.27-5.9,1.24-10.5,1.11-3.39,2.94-5.48,8.39-8.5,7.46-4.15,24.88-3.84,31-9.34Zm66.59,27H4.55v23.92H107.23V94.43Z"/></svg>