<?xml version="1.0" encoding="utf-8"?><svg version="1.1" id="Layer_1" xmlns="http://www.w3.org/2000/svg" xmlns:xlink="http://www.w3.org/1999/xlink" x="0px" y="0px" viewBox="0 0 115.28 122.88" style="enable-background:new 0 0 115.28 122.88" xml:space="preserve"><style type="text/css">.st0{fill-rule:evenodd;clip-rule:evenodd;}</style><g><path class="st0" d="M25.38,57h64.88V37.34H69.59c-2.17,0-5.19-1.17-6.62-2.6c-1.43-1.43-2.3-4.01-2.3-6.17V7.64l0,0H8.15 c-0.18,0-0.32,0.09-0.41,0.18C7.59,7.92,7.55,8.05,7.55,8.24v106.45c0,0.14,0.09,0.32,0.18,0.41c0.09,0.14,0.28,0.18,0.41,0.18 c22.78,0,58.09,0,81.51,0c0.18,0,0.17-0.09,0.27-0.18c0.14-0.09,0.33-0.28,0.33-0.41v-11.16H25.38c-4.14,0-7.56-3.4-7.56-7.56 V64.55C17.82,60.4,21.22,57,25.38,57L25.38,57z M45.95,82.45l6.25,1.89c-0.42,1.75-1.08,3.22-1.99,4.39 c-0.9,1.18-2.02,2.06-3.36,2.66c-1.34,0.6-3.04,0.9-5.11,0.9c-2.51,0-4.56-0.37-6.16-1.09c-1.59-0.73-2.96-2.02-4.12-3.85 c-1.16-1.83-1.74-4.19-1.74-7.04c0-3.82,1.02-6.75,3.05-8.8c2.04-2.05,4.91-3.07,8.63-3.07c2.91,0,5.2,0.59,6.86,1.76 c1.66,1.18,2.9,2.98,3.71,5.42L45.7,77c-0.22-0.7-0.45-1.21-0.69-1.53c-0.4-0.54-0.89-0.96-1.47-1.25 c-0.58-0.3-1.22-0.44-1.94-0.44c-1.62,0-2.86,0.65-3.72,1.95c-0.65,0.96-0.98,2.48-0.98,4.54c0,2.56,0.39,4.3,1.17,5.26 c0.78,0.95,1.87,1.42,3.28,1.42c1.36,0,2.4-0.38,3.1-1.15C45.13,85.02,45.64,83.91,45.95,82.45L45.95,82.45z M55.71,68.81H74.8 v4.93H62.87v3.68h11.06v4.71H62.87v4.55h12.28v5.22H55.71V68.81L55.71,68.81z M79.15,91.9V68.81h11.89c2.2,0,3.89,0.19,5.05,0.57 c1.17,0.38,2.11,1.08,2.82,2.1c0.71,1.03,1.07,2.28,1.07,3.75c0,1.28-0.27,2.39-0.82,3.32c-0.54,0.94-1.29,1.69-2.26,2.27 c-0.61,0.37-1.45,0.67-2.5,0.91c0.85,0.28,1.47,0.56,1.85,0.85c0.26,0.19,0.64,0.6,1.14,1.21c0.49,0.62,0.83,1.1,0.99,1.43 l3.47,6.67h-8.06l-3.81-7.04c-0.48-0.91-0.91-1.5-1.29-1.78c-0.52-0.35-1.1-0.53-1.75-0.53h-0.63v9.35H79.15L79.15,91.9z M86.31,78.19h3.01c0.32,0,0.96-0.11,1.89-0.32c0.47-0.09,0.86-0.33,1.16-0.73c0.3-0.39,0.45-0.84,0.45-1.34 c0-0.75-0.24-1.32-0.71-1.72c-0.47-0.4-1.36-0.6-2.67-0.6h-3.14V78.19L86.31,78.19z M97.79,57h9.93c4.16,0,7.56,3.41,7.56,7.56 v31.42c0,4.15-3.41,7.56-7.56,7.56h-9.93v13.55c0,1.61-0.65,3.04-1.7,4.1c-1.06,1.06-2.49,1.7-4.1,1.7c-29.44,0-56.59,0-86.18,0 c-1.61,0-3.04-0.64-4.1-1.7c-1.06-1.06-1.7-2.49-1.7-4.1V5.85c0-1.61,0.65-3.04,1.7-4.1c1.06-1.06,2.53-1.7,4.1-1.7h58.72 C64.66,0,64.8,0,64.94,0c0.64,0,1.29,0.28,1.75,0.69h0.09c0.09,0.05,0.14,0.09,0.23,0.18l29.99,30.36c0.51,0.51,0.88,1.2,0.88,1.98 c0,0.23-0.05,0.41-0.09,0.65V57L97.79,57z M67.52,27.97V8.94l21.43,21.7H70.19c-0.74,0-1.38-0.32-1.89-0.78 C67.84,29.4,67.52,28.71,67.52,27.97L67.52,27.97z"/></g></svg>