<?xml version="1.0" encoding="utf-8"?><svg version="1.1" id="Layer_1" xmlns="http://www.w3.org/2000/svg" xmlns:xlink="http://www.w3.org/1999/xlink" x="0px" y="0px" viewBox="0 0 80.34 122.88" style="enable-background:new 0 0 80.34 122.88" xml:space="preserve"><style type="text/css">.st0{fill-rule:evenodd;clip-rule:evenodd;}</style><g><path class="st0" d="M15.45,7.03v62.73h58.98c3.25,0,5.91,4.34,5.91,7.59v4.61c0,0.72-0.59,1.3-1.3,1.3H6.03 c-3.25,0-5.91-2.66-5.91-5.91c0-24.48,5.77-42.88,0-70.75C-1.59-1.67,15.45-2.87,15.45,7.03L15.45,7.03z"/><polygon class="st0" points="36.86,77.66 48.25,77.66 46.29,99.54 38.26,99.54 36.86,77.66"/><path class="st0" d="M42.4,110.31c3.47,0,6.29,2.81,6.29,6.29s-2.81,6.29-6.29,6.29c-3.47,0-6.29-2.81-6.29-6.29 S38.93,110.31,42.4,110.31L42.4,110.31z"/><path class="st0" d="M13.12,110.31c3.47,0,6.29,2.81,6.29,6.29s-2.81,6.29-6.29,6.29s-6.29-2.81-6.29-6.29 S9.64,110.31,13.12,110.31L13.12,110.31z"/><path class="st0" d="M71.83,110.31c3.47,0,6.29,2.81,6.29,6.29s-2.81,6.29-6.29,6.29c-3.47,0-6.29-2.81-6.29-6.29 S68.36,110.31,71.83,110.31L71.83,110.31z"/><polygon class="st0" points="39.77,98.15 45.34,98.15 43.92,112.16 40.78,112.16 39.77,98.15"/><path d="M15.14,114.28c-1.3,1.31-3.43,1.32-4.74,0.01c-1.31-1.3-1.32-3.43-0.01-4.74c3.98-4.01,9.01-7.28,14.75-9.51 c5.48-2.14,11.61-3.34,18.04-3.34c6.07,0,11.85,1.07,17.09,2.98c5.48,2,10.36,4.94,14.33,8.56c1.37,1.25,1.47,3.37,0.22,4.74 c-1.25,1.37-3.37,1.47-4.74,0.22c-3.34-3.05-7.46-5.52-12.1-7.22c-4.5-1.65-9.51-2.56-14.81-2.56c-5.61,0-10.9,1.03-15.6,2.86 h-0.01C22.72,108.17,18.48,110.92,15.14,114.28L15.14,114.28z"/></g></svg>