<svg id="Layer_1" data-name="Layer 1" xmlns="http://www.w3.org/2000/svg" viewBox="0 0 122.88 67.66"><title>chairs</title><path d="M.06,5.62A4.86,4.86,0,1,1,9.65,4.09l3,18.78H43.29a3,3,0,1,1,0,6.08h-12L27.65,37h19a4.87,4.87,0,0,1,0,9.74H42.75l8.45,20.9H44.66l-8.49-20.9H23.26l-9.42,20.9H7.18l9.42-20.9H10.82v0A4.85,4.85,0,0,1,6,42.65l-6-37ZM80.13,46.76l-8.45,20.9h6.54l8.49-20.9H99.62L109,67.66h6.66l-9.42-20.9h5.78v0a4.85,4.85,0,0,0,4.8-4.09l6-37a4.86,4.86,0,0,0-9.59-1.53l-3,18.78H79.59a3,3,0,1,0,0,6.08h12L95.23,37h-19a4.87,4.87,0,0,0,0,9.74ZM101.89,37,98.26,29h11L107.93,37ZM24.62,29h-11L15,37h6L24.62,29Z"/></svg>