<svg id="Layer_1" data-name="Layer 1" xmlns="http://www.w3.org/2000/svg" viewBox="0 0 122.88 81.6"><title>change-management</title><path d="M20.41,29.15a2.17,2.17,0,0,1,1.41-1.57c-.21-4.12.46-10.6-3.75-11.87C26.42,5.4,36-.21,43.26,9c8.3.44,11.86,13,6.15,19.25a2.55,2.55,0,0,1,1.29.28,2,2,0,0,1,1,1.2,3.63,3.63,0,0,1,0,2.06l-1.09,3.08A2.21,2.21,0,0,1,49.87,36a2,2,0,0,1-1.48.36l-.3,0c-.07,3.44-1.75,5-3.94,7.08l-.85.8a10.21,10.21,0,0,1-7.12,3.18,11.08,11.08,0,0,1-7.37-3.15c-.35-.32-.59-.52-.82-.72-2.16-1.85-3.95-3.4-4.3-7.18H23.5A2.59,2.59,0,0,1,22.24,36a3.4,3.4,0,0,1-1.39-1.68,7.59,7.59,0,0,1-.56-2.54c0-.27,0-.79,0-1.3a5,5,0,0,1,.12-1.29ZM94,57.18,71,57.06l5.77,5.78C71,71.59,63.59,75.67,53.72,74.5c12.11,10.59,25.33,8.32,34.52-.15l5.89,5.89L94,57.18ZM66.28,39.42a7.27,7.27,0,0,0,5.88-4,21.87,21.87,0,0,0,2.32-8.23c.18-1.58.29-3.24.4-4.93C75.41,14,76,5,85.44,1.17A15.72,15.72,0,0,1,89.91.08a15.94,15.94,0,0,1,9.47,2,15.65,15.65,0,0,1,6.75,7.84,20,20,0,0,1,1.32,5.53v0c0,5,.77,12.06,3,17.23,1.57,3.72,3.85,6.45,7,6.71a.24.24,0,0,1,.22.26v.06c-.57,1.61-3.12,2.83-6.22,3.43,3.53,1,6.08,2.26,7.9,4.26,2.59,2.86,3.56,7.11,3.56,14.18a.85.85,0,0,1-.85.85H100l0-5.3A6,6,0,0,0,97,52c3.87-1.15,7.79-3.69,11.78-7.76-.85-.2-1.75-.39-2.71-.58l-.13,0-.37-.07a16.76,16.76,0,0,1-3-.46,8.82,8.82,0,0,1-3.29-1.48,4.06,4.06,0,0,1-1.7-3.76l-.14-.49-.69.42a8.84,8.84,0,0,1-4.93,1.68,10.09,10.09,0,0,1-5.8-2c-.06,1.12-.71,3.83-1.7,4.43a12.61,12.61,0,0,1-3.76,1.3,12.16,12.16,0,0,1-2.38.57c-.51.07-1,.12-1.57.14L75,44.19a33.34,33.34,0,0,0,9.92,7L71,51.09a6,6,0,0,0-5.3,3.17l0,0v0l0,0,0,0,0,.08,0,0,0,.08v0l0,.08,0,0v0l0,.09v0l0,0h0v0l0,0v0h0v.08l0,0v.09l0,0v0h0v.13h0v0l0,0v.21h0v.27h0v.3h0v.13h0v.31h0V57a6,6,0,0,0,1.73,4.24l1.18,1.18.9.9A17.88,17.88,0,0,1,64,67.07a16.22,16.22,0,0,1-9.6,1.48,6,6,0,0,0-5.25,2L0,70.68c-.2-1.88,1.85-13.22,3.13-14.9a9.79,9.79,0,0,1,3.15-2.67c3.79-2.11,15.9-2.73,19.33-5.83h0l5.27,15.48,2.65-9.19-1.3-1.42a2.14,2.14,0,0,1-.39-2.24c.7-1.39,2.16-1.13,3.52-1.13s3.18-.27,3.62,1.51a2.38,2.38,0,0,1-.45,1.86l-1.3,1.42,2.65,9.19,4.76-15.48c2.93,2.64,12.15,3.48,17.16,5a12.19,12.19,0,0,1,2.38-4.67c1.7-2,4.07-3.27,7.34-4.26-2.7-.68-4.89-2-5.46-3.59a.24.24,0,0,1,.14-.31ZM42.15,16.68c-4.22,4.29-9.51,3-13.23,4.65l-.67.44a6.11,6.11,0,0,0-2.39,3,7.56,7.56,0,0,0-.1,4.09.82.82,0,0,1,0,.49.84.84,0,0,1-1.06.5c-.74-.27-2.32-1-2.7-.16,0,.19,0,.5,0,.82s0,.92,0,1.16a5.89,5.89,0,0,0,.43,2,1.89,1.89,0,0,0,.68.91,1.13,1.13,0,0,0,.47.12,2.17,2.17,0,0,0,.68-.12,1,1,0,0,1,.25,0,.83.83,0,0,1,.84.81c.09,3.75,1.76,5.18,3.78,6.92l.84.73a9.52,9.52,0,0,0,6.27,2.74,8.65,8.65,0,0,0,6-2.72c.3-.3.58-.56.85-.82,2.12-2,3.69-3.46,3.39-7a.81.81,0,0,1,.13-.52.82.82,0,0,1,1.15-.23,1.66,1.66,0,0,0,.8.3.88.88,0,0,0,.36,0,2.7,2.7,0,0,0,.15-.38l1.06-3a2.07,2.07,0,0,0,.06-1.11.41.41,0,0,0-.19-.25,1,1,0,0,0-.52-.07,3,3,0,0,0-1.48.62.81.81,0,0,1-.64.16.84.84,0,0,1-.68-1c.78-4.55.43-7.51-.54-9.54a8.14,8.14,0,0,0-3.68-3.64l-.23.17Zm-8.74,8.88c.84.31,1,1,.55,1.27s-1.24-.15-1.77-.32a5.24,5.24,0,0,0-4.26.25,7.94,7.94,0,0,0-1,.78,3.56,3.56,0,0,1,.6-1.2c1.21-1.52,4.25-1.61,5.86-.78Zm5.26,0c-.83.31-1,1-.54,1.27s1.24-.15,1.77-.32a5.25,5.25,0,0,1,4.26.25,7.94,7.94,0,0,1,1,.78,3.56,3.56,0,0,0-.6-1.2c-1.21-1.52-4.25-1.61-5.87-.78Zm-9.82,3a.36.36,0,0,1-.21-.25.4.4,0,0,1,.21-.49,5.74,5.74,0,0,1,4.16,0,.39.39,0,0,1,.22.49.34.34,0,0,1-.43.25c-.22-.08-.45-.15-.68-.21a1.09,1.09,0,0,1,0,.26,1,1,0,0,1-1.92,0,.9.9,0,0,1,.07-.37,4.71,4.71,0,0,0-1,.24c-.14.05-.28.14-.43.08Zm11.37-.26a1,1,0,0,0,0,.31,1,1,0,0,0,1.93,0,.93.93,0,0,0-.1-.42,5.89,5.89,0,0,1,1.27.27.33.33,0,0,0,.42-.27.41.41,0,0,0-.23-.48,6.61,6.61,0,0,0-2.08-.34,6.68,6.68,0,0,0-2.06.34.41.41,0,0,0-.23.49.33.33,0,0,0,.42.26l.68-.18c.06,0,.05,0,0,0Zm-5.4,7.84a.46.46,0,0,1,.1-.18.43.43,0,0,1,.62-.06,1,1,0,0,0,.64.29,1.1,1.1,0,0,0,.68-.29.44.44,0,1,1,.56.68,1.86,1.86,0,0,1-1.25.49,1.71,1.71,0,0,1-1-.35c-.19-.14-.38-.29-.32-.58Zm-1.5,4a.5.5,0,0,1,0-.29.47.47,0,0,1,.63-.19,4.51,4.51,0,0,0,2.14.58,4.3,4.3,0,0,0,2.1-.58.47.47,0,0,1,.45.83,5.14,5.14,0,0,1-2.55.68,5.23,5.23,0,0,1-2.24-.52c-.24-.11-.53-.21-.58-.51ZM96.43,23.31a1.14,1.14,0,0,0-.05.33,1.14,1.14,0,0,0,2.27,0,1.06,1.06,0,0,0-.12-.5,7.49,7.49,0,0,1,1.5.33.39.39,0,0,0,.49-.32.48.48,0,0,0-.27-.57,8.09,8.09,0,0,0-2.45-.39,7.43,7.43,0,0,0-2.41.4.47.47,0,0,0-.28.57.4.4,0,0,0,.5.31c.27-.09.53-.16.79-.22.08,0,.06,0,0,.06Zm-7,10.26a.64.64,0,0,1-.39-.82.63.63,0,0,1,.82-.38,5.66,5.66,0,0,0,4,0,.65.65,0,0,1,.83.37.66.66,0,0,1-.38.83,6.92,6.92,0,0,1-4.93,0Zm-.31-13.51c1,.37,1.19,1.19.64,1.5s-1.45-.18-2.08-.38a6.21,6.21,0,0,0-5,.3,8.05,8.05,0,0,0-1.16.91,4.24,4.24,0,0,1,.7-1.41c1.43-1.79,5-1.89,6.91-.92Zm5.53,0c-1,.37-1.19,1.19-.64,1.5s1.46-.18,2.08-.38a6.21,6.21,0,0,1,5,.3,8.05,8.05,0,0,1,1.16.91,4.24,4.24,0,0,0-.7-1.41c-1.43-1.79-5-1.89-6.91-.92ZM83.74,23.59a.43.43,0,0,1-.27-.3.47.47,0,0,1,.25-.58,6.76,6.76,0,0,1,4.89,0,.46.46,0,0,1,.26.57.39.39,0,0,1-.5.3,6.08,6.08,0,0,0-.8-.24,1.45,1.45,0,0,1,0,.3,1.14,1.14,0,0,1-2.27,0,1,1,0,0,1,.09-.43,5.28,5.28,0,0,0-1.22.29.77.77,0,0,1-.47.09ZM99.32,34.7a24.17,24.17,0,0,0,4.37-6.56,26.29,26.29,0,0,0,0-10.75c-3.47-1.61-5.74-5.14-6.9-10.45C95.4,17.05,83,16.62,79.86,18.46c0,4.59-.61,7.81,1.42,12h0A26.72,26.72,0,0,0,82.68,33a14.06,14.06,0,0,0,1.38,1.92c4.18,4.5,11.31,3.94,15.26-.24Z"/></svg>