<?xml version="1.0" encoding="utf-8"?><svg version="1.1" id="Layer_1" xmlns="http://www.w3.org/2000/svg" xmlns:xlink="http://www.w3.org/1999/xlink" x="0px" y="0px" viewBox="0 0 122.88 80.14" style="enable-background:new 0 0 122.88 80.14" xml:space="preserve"><style type="text/css">.st0{fill-rule:evenodd;clip-rule:evenodd;}</style><g><path class="st0" d="M61.44,54.76c4.18,0,7.89,2.02,10.2,5.14c2.39-1.29,4.69-2.62,6.9-4c-0.07-0.45-0.11-0.91-0.11-1.37 c0-4.81,3.9-8.71,8.71-8.71c1.46,0,2.83,0.36,4.04,0.99c2.12-1.78,4.13-3.61,6.02-5.5c-1.11-1.67-1.76-3.67-1.76-5.82 c0-5.81,4.71-10.52,10.52-10.52c1.22,0,2.39,0.21,3.49,0.59c4.09-7,6.95-14.6,8.54-22.81c0.26-1.34,1.55-2.21,2.89-1.96 c1.34,0.26,2.21,1.55,1.96,2.89c-1.72,8.86-4.82,17.05-9.24,24.57c1.79,1.89,2.89,4.43,2.89,7.24c0,5.81-4.71,10.52-10.52,10.52 c-1.87,0-3.62-0.49-5.14-1.34c-1.91,1.92-3.94,3.79-6.08,5.6c0.71,1.26,1.11,2.71,1.11,4.26c0,4.81-3.9,8.71-8.71,8.71 c-2.56,0-4.86-1.11-6.46-2.86c-2.23,1.37-4.54,2.7-6.93,3.99c0.25,0.99,0.38,2.02,0.38,3.09c0,7.01-5.68,12.69-12.69,12.69 c-7.01,0-12.69-5.68-12.69-12.69c0-0.67,0.05-1.32,0.15-1.96c-2.93-1.32-5.76-2.77-8.47-4.37c-1.53,1.32-3.51,2.11-5.69,2.11 c-4.81,0-8.71-3.9-8.71-8.71c0-1.24,0.26-2.42,0.73-3.49c-1.49-1.37-2.93-2.8-4.33-4.29c-0.44-0.47-0.88-0.95-1.31-1.44 c-1.18,0.46-2.46,0.71-3.8,0.71C11.51,46.01,6.8,41.3,6.8,35.5c0-2.72,1.03-5.19,2.72-7.06c-3.94-7.46-7.11-15.9-9.45-25.39 c-0.33-1.32,0.48-2.66,1.8-2.98c1.32-0.32,2.66,0.48,2.98,1.8c2.19,8.88,5.13,16.78,8.77,23.77c1.15-0.43,2.39-0.67,3.69-0.67 c5.81,0,10.52,4.71,10.52,10.52c0,2.67-1,5.11-2.64,6.97c0.28,0.31,0.56,0.62,0.84,0.92c1.26,1.35,2.56,2.64,3.9,3.88 c1.38-0.91,3.03-1.44,4.8-1.44c4.81,0,8.71,3.9,8.71,8.71c0,0.85-0.12,1.67-0.35,2.45c2.41,1.41,4.91,2.7,7.5,3.88 C52.82,57.2,56.85,54.76,61.44,54.76L61.44,54.76z M61.44,63.08c2.42,0,4.38,1.96,4.38,4.38c0,2.42-1.96,4.38-4.38,4.38 c-2.42,0-4.38-1.96-4.38-4.38C57.06,65.04,59.02,63.08,61.44,63.08L61.44,63.08z"/></g></svg>