<svg id="Layer_1" data-name="Layer 1" xmlns="http://www.w3.org/2000/svg" viewBox="0 0 122.88 106.07"><defs><style>.cls-1{fill-rule:evenodd;}</style></defs><title>chat-user</title><path class="cls-1" d="M71.54,54.18A30.15,30.15,0,0,1,94.8,45.43V9a1.53,1.53,0,0,0-.47-1.1,1.59,1.59,0,0,0-1.1-.48H9A1.64,1.64,0,0,0,7.41,9V75.46a1.57,1.57,0,0,0,.47,1.11l.1.11A1.64,1.64,0,0,0,9,77H23.66a3.71,3.71,0,0,1,3.71,3.71v13L43.65,78.09a3.68,3.68,0,0,1,2.56-1H62.78a30,30,0,0,1,8.76-22.87Zm30.67-7.31A30.07,30.07,0,1,1,71.54,96.7a30.35,30.35,0,0,1-7.43-12.25H47.68L26.44,104.83a3.75,3.75,0,0,1-2.78,1.24,3.7,3.7,0,0,1-3.7-3.7V84.45H9a9,9,0,0,1-6.06-2.38l-.28-.26A9,9,0,0,1,0,75.46V9A9,9,0,0,1,9,0H93.23a9,9,0,0,1,9,9V46.87ZM25.43,33.31a3.71,3.71,0,1,1,0-7.41H76.79a3.71,3.71,0,1,1,0,7.41Zm0,21.93a3.71,3.71,0,1,1,0-7.41H59.81a3.71,3.71,0,1,1,0,7.41ZM86.14,73.46c-.58-.91-1.66-2.18-1.66-3.26a1.75,1.75,0,0,1,1.17-1.6c-.05-.92-.09-1.19-.09-2.12,0-.55,0-1.1,0-1.64a5,5,0,0,1,.19-1,5.85,5.85,0,0,1,2.6-3.32,7.66,7.66,0,0,1,1.42-.67c.9-.33.45-1.84,1.44-1.86,2.29-.06,6.06,2,7.53,3.64a5.78,5.78,0,0,1,1.51,3.77l-.1,3.37a1.31,1.31,0,0,1,1,.82c.31,1.27-1,2.85-1.62,3.86s-2.72,3.94-2.72,4a.83.83,0,0,0,.2.47c3.34,4.6,13.18,2,13.18,11.18H75.42c0-9.16,9.84-6.58,13.19-11.18.16-.24.24-.37.23-.48s-2.47-3.56-2.7-3.92Z"/></svg>