<svg id="Layer_1" data-name="Layer 1" xmlns="http://www.w3.org/2000/svg" viewBox="0 0 122.88 106.08"><defs><style>.cls-1{fill-rule:evenodd;}</style></defs><title>chat-settings</title><path class="cls-1" d="M114.07,54.18a29.78,29.78,0,0,0-11.86-7.3V9a9,9,0,0,0-9-9H9A9,9,0,0,0,0,9V75.47a9,9,0,0,0,2.65,6.34l.28.26A9,9,0,0,0,9,84.46H20v17.91a3.71,3.71,0,0,0,3.7,3.71,3.76,3.76,0,0,0,2.78-1.25L47.68,84.46H64.11a30.5,30.5,0,0,0,7.43,12.25,30.07,30.07,0,0,0,42.53-42.53ZM94.8,45.43a30.08,30.08,0,0,0-32,31.63H46.21a3.68,3.68,0,0,0-2.56,1L27.37,93.7v-13A3.71,3.71,0,0,0,23.66,77H9a1.64,1.64,0,0,1-1-.36l-.1-.1a1.58,1.58,0,0,1-.47-1.11V9A1.64,1.64,0,0,1,9,7.41H93.23a1.59,1.59,0,0,1,1.11.48A1.56,1.56,0,0,1,94.8,9V45.43ZM25.43,55.24a3.71,3.71,0,1,1,0-7.41H59.82a3.71,3.71,0,0,1,0,7.41Zm0-21.93a3.71,3.71,0,1,1,0-7.41H76.79a3.71,3.71,0,1,1,0,7.41Zm79.51,28a1.8,1.8,0,0,0-2.57,0l-2,2a12.7,12.7,0,0,0-1.66-.91c-.58-.26-1.18-.49-1.78-.69v-3a1.79,1.79,0,0,0-1.81-1.81H91.39a1.75,1.75,0,0,0-1.27.53,1.72,1.72,0,0,0-.54,1.28v2.76a12.89,12.89,0,0,0-1.83.56,15.32,15.32,0,0,0-1.69.78l-2.17-2.14a1.64,1.64,0,0,0-1.25-.54,1.78,1.78,0,0,0-1.29.54l-2.64,2.65a1.8,1.8,0,0,0,0,2.57l2,2a13.26,13.26,0,0,0-.91,1.66q-.39.87-.69,1.77h-3a1.81,1.81,0,0,0-1.82,1.82v3.77a1.8,1.8,0,0,0,.53,1.27,1.73,1.73,0,0,0,1.29.54h2.75a13.72,13.72,0,0,0,.56,1.82,16.89,16.89,0,0,0,.78,1.73L78,84.35a1.66,1.66,0,0,0-.54,1.26A1.75,1.75,0,0,0,78,86.89l2.65,2.68a1.87,1.87,0,0,0,2.57,0l2-2a12.64,12.64,0,0,0,1.66.9,16.84,16.84,0,0,0,1.78.7v3A1.78,1.78,0,0,0,90.45,94h3.77a1.79,1.79,0,0,0,1.27-.52A1.74,1.74,0,0,0,96,92.18V89.43a13.27,13.27,0,0,0,1.82-.56,16,16,0,0,0,1.73-.78l2.14,2.14a1.76,1.76,0,0,0,2.54,0l2.67-2.65a1.79,1.79,0,0,0,.51-1.29,1.77,1.77,0,0,0-.51-1.28l-2-2a13.39,13.39,0,0,0,.91-1.67q.39-.87.69-1.77h3a1.78,1.78,0,0,0,1.81-1.81V74a1.77,1.77,0,0,0-.52-1.27,1.74,1.74,0,0,0-1.29-.54h-2.75a15.67,15.67,0,0,0-.56-1.81,14.83,14.83,0,0,0-.78-1.71l2.14-2.17a1.64,1.64,0,0,0,.54-1.25,1.78,1.78,0,0,0-.54-1.29l-2.65-2.64ZM92.8,68.05A7.38,7.38,0,0,1,98,70.21a7.53,7.53,0,0,1,1.58,2.35,7.44,7.44,0,0,1,0,5.76,7.34,7.34,0,0,1-3.93,3.94,7.41,7.41,0,0,1-2.89.57,7.31,7.31,0,0,1-2.87-.57,7.46,7.46,0,0,1-2.36-1.58A7.58,7.58,0,0,1,86,78.32a7.56,7.56,0,0,1,0-5.76,7.53,7.53,0,0,1,1.58-2.35,7.43,7.43,0,0,1,5.23-2.16Z"/></svg>