<svg id="Layer_1" data-name="Layer 1" xmlns="http://www.w3.org/2000/svg" viewBox="0 0 122.88 106.08"><defs><style>.cls-1{fill-rule:evenodd;}</style></defs><title>chat-verify</title><path class="cls-1" d="M71.54,54.18A30.15,30.15,0,0,1,94.8,45.43V9a1.54,1.54,0,0,0-.47-1.1,1.59,1.59,0,0,0-1.1-.48H9A1.64,1.64,0,0,0,7.41,9V75.47a1.58,1.58,0,0,0,.47,1.11l.1.1A1.64,1.64,0,0,0,9,77H23.66a3.71,3.71,0,0,1,3.71,3.71v13L43.65,78.09a3.68,3.68,0,0,1,2.56-1H62.78a30,30,0,0,1,8.76-22.88Zm30.67-7.3A30.07,30.07,0,1,1,71.54,96.71a30.48,30.48,0,0,1-7.43-12.25H47.68L26.44,104.83a3.76,3.76,0,0,1-2.78,1.25,3.71,3.71,0,0,1-3.7-3.71V84.46H9a9,9,0,0,1-6.06-2.39l-.28-.26A9,9,0,0,1,0,75.47V9A9,9,0,0,1,9,0H93.23a9,9,0,0,1,9,9V46.88ZM25.42,33.31a3.71,3.71,0,0,1,0-7.41H76.79a3.71,3.71,0,1,1,0,7.41Zm0,21.93a3.71,3.71,0,0,1,0-7.41H59.81a3.71,3.71,0,1,1,0,7.41ZM84.24,69.75l5.21,4.89L100.6,63.29c1.1-1.11,1.79-2,3.15-.61l4.42,4.51c1.44,1.43,1.37,2.27,0,3.61L92,86.72c-2.88,2.83-2.38,3-5.3.1L76.81,77a1.28,1.28,0,0,1,.13-2l5.11-5.3c.78-.8,1.39-.76,2.19,0Z"/></svg>