<?xml version="1.0" encoding="utf-8"?><svg version="1.1" id="Layer_1" xmlns="http://www.w3.org/2000/svg" xmlns:xlink="http://www.w3.org/1999/xlink" x="0px" y="0px" viewBox="0 0 122.88 69.55" style="enable-background:new 0 0 122.88 69.55" xml:space="preserve"><g><path d="M6.98,0h93.56c1.92,0,3.67,0.78,4.93,2.05c1.26,1.26,2.05,3.01,2.05,4.93v4.92c-0.72,0.17-1.42,0.4-2.1,0.7 c-1.41,0.63-2.65,1.51-3.72,2.62l-2.41,2.51H4.47v38.97c0,0.69,0.28,1.31,0.74,1.77s1.08,0.74,1.77,0.74H68.6l-1,4.47H6.98 c-1.92,0-3.67-0.79-4.93-2.05C0.79,60.37,0,58.63,0,56.71V6.98c0-1.92,0.79-3.67,2.05-4.93C3.31,0.78,5.06,0,6.98,0L6.98,0z M112.41,21.08c-0.65-0.63-1.41-0.92-2.29-0.91c-0.87,0.02-1.62,0.36-2.24,1l-5.02,5.23l14.1,13.61l5.07-5.28 c0.61-0.62,0.86-1.41,0.85-2.29c-0.01-0.86-0.32-1.65-0.94-2.24L112.41,21.08L112.41,21.08L112.41,21.08z M93.24,64.9L76,69.52 c-0.62,0.12-0.86-0.12-0.76-0.71l3.9-17.47l19.24-20.31l14.08,13.56L93.24,64.9L93.24,64.9z M12.72,44.19h47.85v4.47H12.72V44.19 L12.72,44.19z M12.72,30.97h57.64v4.47H12.72V30.97L12.72,30.97z M4.47,13.26h98.57V6.98c0-0.69-0.28-1.31-0.74-1.77 c-0.46-0.46-1.08-0.74-1.77-0.74H6.98c-0.69,0-1.31,0.28-1.77,0.74C4.76,5.67,4.47,6.29,4.47,6.98V13.26L4.47,13.26z"/></g></svg>