<?xml version="1.0" encoding="utf-8"?><svg version="1.1" id="Layer_1" xmlns="http://www.w3.org/2000/svg" xmlns:xlink="http://www.w3.org/1999/xlink" x="0px" y="0px" viewBox="0 0 122.88 122.67" style="enable-background:new 0 0 122.88 122.67" xml:space="preserve"><style type="text/css">.st0{fill-rule:evenodd;clip-rule:evenodd;fill:#659C35;} .st1{fill-rule:evenodd;clip-rule:evenodd;fill:#D13834;} .st2{fill-rule:evenodd;clip-rule:evenodd;fill:#FFFFFF;}</style><g><path class="st0" d="M77.1,58.67c-2.81,2.31-5.3,4.85-7.37,7.65c-1.85,2.49-3.39,5.17-4.59,8.07c2.65,2.03,4.71,4.64,6.07,7.89 l9.78-10.54c0.76-0.81,2.03-0.86,2.83-0.1c0.81,0.76,0.86,2.03,0.1,2.83l-11.4,12.28c0.4,2.08,0.57,7.55,0.51,10.04 c34.31-9.76,13.66-5.43,28.66-26.71c3.83-5.42,9.09-9.25,16.09-11.13c-0.65-4.89-0.26-9.88,1.04-14.99 c0.91-3.58,2.28-7.22,4.05-10.92c-3.54,1.89-7.07,3.35-10.6,4.3c-5.12,1.38-10.22,1.7-15.29,0.76c-1.73,5.17-4.1,9.5-7.17,12.91 C86.44,54.76,82.24,57.36,77.1,58.67L77.1,58.67L77.1,58.67z"/><path class="st0" d="M53.88,75.22l0.14,2c1.79-0.76,3.57-1.23,5.35-1.42v-14.3c0-1.11,0.91-2.01,2.01-2.01 c1.11,0,2.01,0.91,2.01,2.01v14.38c1.99,0.29,3.94,0.95,5.86,1.99l0.91-3.08l0,0c0.07-0.25,0.2-0.5,0.37-0.71L81.36,60.9 c-5.26-6.71-8.12-13.19-8.86-19.68c-0.72-6.29,0.53-12.53,3.51-18.95c-3.69-1.85-6.75-5.21-9.34-9.71 C64.63,9.03,62.88,4.77,61.37,0c-1.53,4.25-3.32,8.12-5.36,11.53c-2.66,4.46-5.76,8.14-9.24,10.9c3.01,6.96,4.14,13.74,3.2,20.35 c-0.89,6.25-3.62,12.31-8.32,18.21l4.46,1.65l5.71,1.98c0.81,0.21,1.43,0.93,1.49,1.82L53.88,75.22L53.88,75.22L53.88,75.22z"/><path class="st0" d="M32.47,70.03c-0.81-0.77-0.83-2.04-0.07-2.83c0.77-0.81,2.04-0.83,2.83-0.07l16.44,14.65 c1.22-2.88,3.23-5.66,6.27-8.27l-0.24-3.54l-0.53-7.56l-4.7-1.74l-7.16-2.47c-0.22-0.07-0.42-0.19-0.6-0.32 c-5.33-1.82-9.49-4.48-12.63-7.86c-3.02-3.26-5.09-7.14-6.37-11.54c-4.2,0.57-8.78,0.2-13.7-1.04C8.22,36.46,4.21,34.98,0,33 c2.35,4.5,3.94,8.68,4.85,12.52c1.13,4.82,1.17,9.15,0.17,13.02c7.26,2.7,12.33,6.43,16.05,11.66 c11.76,16.54,4.17,18.97,32.51,28.21c-0.26-2.24-3.55-10.17-3.17-12.35L32.47,70.03L32.47,70.03L32.47,70.03z"/><path class="st1" d="M46.51,96.16c0.99,0,1.95,0.11,2.88,0.31c-1.35-2.15-2.13-4.69-2.13-7.41c0-7.71,6.25-13.96,13.96-13.96 s13.96,6.25,13.96,13.96c0,2.72-0.78,5.27-2.13,7.41c0.93-0.2,1.89-0.31,2.88-0.31c7.32,0,13.25,5.93,13.25,13.25 c0,7.32-5.93,13.25-13.25,13.25c-7.32,0-13.25-5.93-13.25-13.25c0-2.48,0.68-4.8,1.87-6.79c-1.07,0.26-2.18,0.4-3.33,0.4 c-1.15,0-2.26-0.14-3.33-0.4c1.19,1.99,1.87,4.31,1.87,6.79c0,7.32-5.93,13.25-13.25,13.25c-7.32,0-13.25-5.93-13.25-13.25 C33.25,102.09,39.19,96.16,46.51,96.16L46.51,96.16z"/><path class="st2" d="M79.01,103.09c-0.45-0.35-0.54-1-0.19-1.45c0.35-0.45,1-0.54,1.45-0.19c1.95,1.49,3.07,3.26,3.45,5.28 c0.38,1.96,0.03,4.12-0.93,6.43c-0.22,0.53-0.82,0.78-1.35,0.57c-0.53-0.22-0.78-0.83-0.57-1.36c0.8-1.95,1.1-3.72,0.81-5.27 C81.39,105.6,80.53,104.26,79.01,103.09L79.01,103.09L79.01,103.09z M66.09,82.77c-0.45-0.35-0.54-1-0.19-1.45 c0.35-0.45,1-0.54,1.45-0.19c1.95,1.49,3.07,3.26,3.45,5.28c0.38,1.96,0.03,4.12-0.93,6.43c-0.22,0.53-0.82,0.78-1.35,0.57 c-0.53-0.22-0.78-0.83-0.57-1.35c0.8-1.95,1.1-3.72,0.81-5.27C68.48,85.27,67.62,83.92,66.09,82.77L66.09,82.77L66.09,82.77z M51.26,103.53c-0.45-0.35-0.54-1-0.19-1.45c0.35-0.45,1-0.54,1.45-0.19c1.96,1.49,3.07,3.26,3.45,5.28 c0.38,1.96,0.03,4.12-0.92,6.43c-0.22,0.53-0.83,0.78-1.36,0.57c-0.53-0.22-0.78-0.82-0.57-1.35c0.8-1.95,1.1-3.72,0.81-5.27 C53.65,106.04,52.78,104.69,51.26,103.53L51.26,103.53L51.26,103.53z"/></g></svg>