<?xml version="1.0" encoding="utf-8"?><svg version="1.1" id="Layer_1" xmlns="http://www.w3.org/2000/svg" xmlns:xlink="http://www.w3.org/1999/xlink" x="0px" y="0px" viewBox="0 0 122.88 116.53" style="enable-background:new 0 0 122.88 116.53" xml:space="preserve"><g><path d="M60.02,109.82c-0.76,0.06-1.42-0.51-1.48-1.26c-0.06-0.76,0.51-1.42,1.26-1.48c0.12-0.01,0.23-0.02,0.34-0.04 c0.11-0.02,0.21-0.04,0.32-0.07c0.2-0.05,0.37-0.12,0.53-0.19c0.17-0.08,0.34-0.18,0.49-0.29c0.61-0.45,1.47-0.32,1.91,0.29 c0.45,0.61,0.32,1.47-0.29,1.91c-0.3,0.22-0.61,0.41-0.93,0.56c-0.33,0.16-0.67,0.29-1.01,0.38c-0.18,0.05-0.37,0.09-0.56,0.12 C60.41,109.78,60.21,109.8,60.02,109.82L60.02,109.82z M102.85,94.91c0.11,0.75-0.42,1.45-1.17,1.55 c-0.75,0.11-1.45-0.42-1.55-1.17l-2.67-18.38c-0.36,4.24-1.01,9.11-1.66,13.95c-1.02,7.55-2.02,15.02-1.83,19.6 c0,0.04,0,0.08,0,0.11l-0.19,4.63c-0.03,0.76-0.67,1.35-1.42,1.32c-0.76-0.03-1.35-0.67-1.32-1.43l0.19-4.58 c-0.19-4.82,0.83-12.37,1.86-20.01c0.83-6.2,1.68-12.47,1.87-17.23c-0.71,0.92-1.48,1.77-2.32,2.53c-2.34,2.11-5.17,3.53-8.36,3.98 c-4.91,0.7-10.63-0.9-16.68-5.8H55.8c-6.04,4.9-11.77,6.5-16.68,5.8c-3.19-0.45-6.02-1.87-8.36-3.98 c-1.06-0.96-2.02-2.06-2.87-3.27c0.13,4.85,1.02,11.45,1.9,17.98c1.03,7.64,2.04,15.19,1.86,20.01l0.19,4.58 c0.03,0.76-0.56,1.4-1.32,1.43c-0.76,0.03-1.4-0.56-1.42-1.32l-0.19-4.63c0-0.04,0-0.08,0-0.11c0.19-4.58-0.82-12.05-1.83-19.6 c-0.65-4.84-1.31-9.71-1.66-13.95L22.75,95.3c-0.11,0.75-0.8,1.27-1.55,1.17c-0.75-0.11-1.27-0.8-1.17-1.55l4.27-29.44 c0.03-0.2,0.1-0.38,0.2-0.53c-1.87-7.29-0.8-16.17,4.46-23.95l-0.99-23.24c-4.48,1.15-8.62,2.73-12.05,6.35 c-1.01,1.07-1.9,2.28-2.65,3.66c-0.75,1.39-1.36,2.96-1.81,4.73c-0.01,0.02-0.01,0.05-0.02,0.07C8.51,43.48,6.56,54.12,5.23,64.56 c-1.33,10.48-2.04,20.79-2.49,31c-0.03,0.76-0.67,1.34-1.43,1.31C0.56,96.84-0.03,96.2,0,95.44c0.45-10.25,1.16-20.63,2.51-31.22 c1.35-10.59,3.32-21.36,6.27-32.36l0.01-0.04c0.5-1.99,1.2-3.76,2.06-5.35c0.87-1.6,1.9-3.01,3.08-4.25 c5.03-5.31,11.09-6.66,17.56-8.1c0.47-0.1,0.92-0.21,1.9-0.43c0.03-0.01,0.06-0.02,0.08-0.02c4.04-0.88,7.26-2.3,9.52-4.37l0,0 c2.19-2,3.51-4.66,3.82-8.05c0.07-0.75,0.74-1.31,1.49-1.24c0.75,0.07,1.31,0.74,1.24,1.49c-0.37,4.12-1.99,7.36-4.7,9.83l0,0l0,0 c-2.47,2.26-5.82,3.84-9.94,4.83l1.52,25.15c5.26,2.36,9.74,5.85,13.68,10.26c3.94,4.41,7.32,9.73,10.36,15.71h2.46 c3.05-5.99,6.42-11.3,10.36-15.71c3.93-4.41,8.42-7.9,13.68-10.26l1.51-25.03c-4.35-0.99-7.88-2.6-10.46-4.95l0,0l0,0 c-2.71-2.47-4.33-5.71-4.7-9.83c-0.07-0.75,0.49-1.42,1.24-1.49c0.75-0.07,1.42,0.49,1.49,1.24c0.31,3.4,1.62,6.05,3.82,8.05l0,0 c2.26,2.07,5.48,3.49,9.52,4.37c0.03,0.01,0.06,0.01,0.08,0.02c0.98,0.22,1.43,0.33,1.9,0.43c0.9,0.2,1.8,0.4,2.68,0.61 c0.04,0,0.07,0,0.11,0c0.23,0.01,0.44,0.07,0.62,0.18c5.18,1.26,10.02,2.95,14.15,7.31c1.18,1.24,2.21,2.65,3.08,4.25 c0.86,1.59,1.56,3.37,2.06,5.35l0.01,0.04c2.96,11,4.93,21.77,6.27,32.36c1.35,10.59,2.06,20.97,2.51,31.22 c0.03,0.76-0.55,1.4-1.31,1.43c-0.76,0.03-1.4-0.55-1.43-1.31c-0.44-10.2-1.15-20.52-2.49-31c-1.33-10.44-3.28-21.08-6.21-31.99 c-0.01-0.02-0.01-0.05-0.02-0.07c-0.45-1.77-1.06-3.34-1.81-4.73c-0.75-1.38-1.64-2.59-2.65-3.66c-3.3-3.48-7.25-5.08-11.53-6.22 l-0.98,23.1c5.49,8.12,6.42,17.44,4.2,24.9L102.85,94.91L102.85,94.91z M95.83,65.67l0.01-0.11c0.02-0.23,0.09-0.45,0.22-0.64 c1.97-6.81,1.02-15.33-4.14-22.74l0,0c-0.16-0.24-0.26-0.53-0.24-0.84l1.03-24.12c-0.5-0.11-1-0.23-1.51-0.34l-1.53,25.35 c0,0.54-0.32,1.05-0.84,1.27c-5.22,2.19-9.63,5.57-13.49,9.89c-3.72,4.17-6.93,9.21-9.85,14.9c6.84,7.13,13.21,9.5,18.39,8.76 c2.62-0.37,4.96-1.55,6.91-3.3c1.98-1.79,3.56-4.18,4.64-6.94C95.57,66.44,95.71,66.06,95.83,65.67L95.83,65.67z M64.52,71.23 c-0.39-0.38-0.78-0.78-1.17-1.19h-3.3c-0.39,0.41-0.78,0.81-1.17,1.19H64.52L64.52,71.23z M30.69,17.11l1.03,24.24 c0.01,0.31-0.08,0.6-0.24,0.84l0,0c-5.66,8.11-6.25,17.56-3.51,24.63c1.07,2.76,2.65,5.15,4.64,6.94c1.95,1.76,4.28,2.93,6.91,3.3 c5.18,0.74,11.56-1.63,18.39-8.76C55,62.6,51.78,57.56,48.06,53.4c-3.86-4.32-8.27-7.7-13.49-9.89c-0.53-0.22-0.85-0.73-0.84-1.27 l-1.54-25.46l-0.11,0.02C31.62,16.9,31.15,17,30.69,17.11L30.69,17.11z M68.58,47.6c0.55-0.52,1.42-0.49,1.94,0.06 c0.52,0.55,0.49,1.42-0.06,1.94c-0.65,0.6-1.26,1.25-1.84,1.94c-0.57,0.67-1.09,1.36-1.56,2.07c-0.42,0.63-1.27,0.81-1.9,0.39 c-0.63-0.42-0.81-1.27-0.39-1.9c0.53-0.8,1.12-1.58,1.75-2.33C67.13,49.03,67.82,48.31,68.58,47.6L68.58,47.6z M52.62,48.27 c-0.59-0.47-0.7-1.33-0.23-1.93c0.47-0.59,1.33-0.7,1.93-0.23c1.2,0.95,2.26,1.94,3.21,2.99c0.96,1.06,1.81,2.17,2.56,3.33 c0.2,0.32,0.4,0.64,0.6,0.98c0.17,0.29,0.35,0.63,0.55,1c0.35,0.67,0.09,1.5-0.58,1.85c-0.67,0.35-1.5,0.09-1.85-0.58 c-0.14-0.27-0.3-0.56-0.49-0.89c-0.17-0.29-0.34-0.58-0.53-0.87c-0.66-1.03-1.42-2.03-2.28-2.97C54.63,50,53.68,49.1,52.62,48.27 L52.62,48.27z"/></g></svg>