<svg id="Layer_1" data-name="Layer 1" xmlns="http://www.w3.org/2000/svg" viewBox="0 0 122.88 120.17"><defs><style>.cls-1{fill-rule:evenodd;}</style></defs><title>chicken-feet</title><path class="cls-1" d="M22.31,47.28c-3.67,3-7.85,6.66-12,9.49A9.85,9.85,0,0,0,6.4,51.36c3.34-3.71,6.51-8.14,10.26-11.22,2.92-2.39,5.58-3.34,8.17-6.4,3.05-3.61,4-6.84,5.49-11.14l.44-1.27c1.53-4.41,2.59-12.47,4.4-15.26A7.88,7.88,0,0,1,39.21,3c2.42-.82,5-.35,5.88,2.18.36,1-.14,3.18-.89,5.49-.91,2.83-2.19,5.9-2.72,7.42L38.07,28c-.57,2.61-2,7.16-1.66,9.64.26,2.06,2.65,7.15,3.62,9.2.62,1.3,1.28,2.58,2,3.83l.34.59a7.57,7.57,0,0,0-4.79,4.27c-.07.14-.13.29-.19.43A30.48,30.48,0,0,1,34,52.31L28.75,73.15a9.87,9.87,0,0,0-6.21-.37L22,73c-.17-6.36.83-12.76,1.06-19.11.06-1.75.21-5-.73-6.56Zm-14.43,11A25.7,25.7,0,0,1,3.1,60.55c-3.36,1.13-4.22-1.14-1.42-4l2.9-3.18a7.17,7.17,0,0,1,3.16,4.25,5.47,5.47,0,0,1,.14.68Zm36-4.6a57.73,57.73,0,0,0,3.89,5.24c1.52,1.73,1.48,2.54.22,2.63a7,7,0,0,1-3-.78,26.51,26.51,0,0,1-5.66-3.21,5.39,5.39,0,0,1,.25-.6,5.53,5.53,0,0,1,3.55-3.14h0a6.26,6.26,0,0,1,.73-.14ZM28.13,75.79c-.69,2.81-1.84,6.72-3.39,6.88-.76.08-1.44-1-2-3a34.86,34.86,0,0,1-.55-3.92,7.37,7.37,0,0,1,1.09-.38,7.14,7.14,0,0,1,4.9.42Zm72.44-31.15a157.44,157.44,0,0,0,12.75,10l0-.07a9.84,9.84,0,0,1,3.6-5.33l-.29-.31c-3.41-3.74-6.62-8.27-10.43-11.4-2.92-2.39-5.58-3.35-8.17-6.4-3-3.61-4-6.84-5.49-11.14l-.44-1.27c-1.53-4.42-2.59-12.47-4.4-15.26a7.88,7.88,0,0,0-4-3.06c-2.42-.82-5-.35-5.88,2.18-.36,1,.14,3.18.89,5.49.91,2.83,2.19,5.9,2.71,7.42l3.42,9.91c.57,2.61,2,7.16,1.66,9.64-.26,2.05-2.65,7.15-3.62,9.2-.62,1.3-1.28,2.58-2,3.83-.31.54-.62,1.07-.95,1.6l.4.09a7.53,7.53,0,0,1,4.73,4,29.27,29.27,0,0,0,3.87-4.07l4.56,18.18c.16-.1.32-.2.49-.29a9.79,9.79,0,0,1,6.93-1.12c-.18-5.08-.86-10.17-1-15.24-.06-1.75-.21-5,.73-6.56Zm15.18,11.44a23.29,23.29,0,0,0,4,1.82c3.36,1.14,4.22-1.13,1.42-4l-2.45-2.7a7.14,7.14,0,0,0-2.82,4,6.44,6.44,0,0,0-.18.85ZM78.27,52.15c-1,1.42-2,2.8-3.15,4.14-1.52,1.73-1.48,2.54-.22,2.63a6.9,6.9,0,0,0,3-.79,25.52,25.52,0,0,0,5.19-2.86,5.53,5.53,0,0,0-3.47-3,5.18,5.18,0,0,0-1.34-.17ZM94.16,70.66l0,.12c.47,1.87,1.85,9,4,9.25.76.08,1.44-1,2-3a42.16,42.16,0,0,0,.73-7.82l-.19-.06a7.17,7.17,0,0,0-5.45.72,7.3,7.3,0,0,0-1.12.79ZM68.71,87c2.49,3.72,5.24,8.16,8.2,11.94.15-.21.31-.41.47-.61a7.68,7.68,0,0,1,5.31-2.87c-2.1-4.5-3.82-9.61-6.49-13.63-2.09-3.14-4.35-4.83-5.93-8.51-1.86-4.35-1.82-7.71-2-12.26l0-1.34C68.07,55,69.41,47,68.5,43.82a7.93,7.93,0,0,0-3-4.12c-2.07-1.49-4.67-1.8-6.26.37-.64.87-.79,3.07-.76,5.51,0,3,.37,6.28.43,7.88l.35,10.48c-.21,2.66-.21,7.43-1.23,9.7-.85,1.89-4.63,6.07-6.15,7.74-1,1.07-2,2.09-3,3.08s-2,1.84-3.09,2.71a9,9,0,0,1,1.29,1.26A10.24,10.24,0,0,1,49,92a28.59,28.59,0,0,0,7.12-3.61L55,110.11v.1a9.11,9.11,0,0,1,1-.06,9.81,9.81,0,0,1,5.45,1.65c2.07-6.08,3-12.56,4.64-18.76.45-1.69,1.27-4.86,2.62-6.06Zm9.77,13.86a27.38,27.38,0,0,0,4.71,4.45c2.89,2.07,4.37.16,2.54-3.41L84,98.17a4.93,4.93,0,0,0-.78-.06,5.51,5.51,0,0,0-4.24,2.1,7.36,7.36,0,0,0-.47.63Zm-34.84-12q-1.3,1-2.67,1.86c-2,1.21-2.16,2-1,2.45a7,7,0,0,0,3.09.12,26.11,26.11,0,0,0,3.71-.62,7.4,7.4,0,0,0-1.29-2.3,6.06,6.06,0,0,0-1.85-1.51Zm11.14,24.13c-.14,2.84-.12,6.59,1.24,7.17.7.29,1.66-.49,2.84-2.27a37.13,37.13,0,0,0,1.62-3.44A7.17,7.17,0,0,0,56,112.83a6.92,6.92,0,0,0-1.22.11Z"/></svg>