<?xml version="1.0" encoding="utf-8"?><svg version="1.1" id="Layer_1" xmlns="http://www.w3.org/2000/svg" xmlns:xlink="http://www.w3.org/1999/xlink" x="0px" y="0px" viewBox="0 0 122.88 96.1" style="enable-background:new 0 0 122.88 96.1" xml:space="preserve"><g><path d="M58.64,67.65c0.39-0.79,1.35-1.12,2.14-0.73c0.79,0.39,1.12,1.35,0.73,2.14c-1.65,3.36-6.51,7.59-11.86,10.88 c-5.14,3.15-10.84,5.51-14.74,5.46c-0.88-0.01-1.59-0.74-1.58-1.62c0.01-0.88,0.74-1.59,1.62-1.58c3.27,0.04,8.34-2.11,13.03-4.99 C52.89,74.2,57.26,70.46,58.64,67.65L58.64,67.65z M77.48,25.92c-0.08,0.09-0.17,0.17-0.27,0.25c-1.54,1.12-3.66,5.48-6.41,11.14 c-2.2,4.53-4.79,9.87-7.95,15.24c-11,18.66-28.49,37.01-58.72,21.17c2.43,7.42,7.02,12.48,12.94,15.52c6.6,3.39,14.9,4.3,23.76,3.2 c8.97-1.11,18.48-4.29,27.38-9.07c17.57-9.43,32.76-25.05,36.74-43.27c-2.41-0.97-4.53-3.31-6.31-7.17 c-1.67,1.68-3.54,2.86-5.63,3.52c-2.85,0.9-6.05,0.8-9.63-0.38c-0.84-0.28-1.29-1.18-1.02-2.02c0.15-0.47,0.51-0.82,0.93-0.99 l0-0.01c1.56-0.62,2.72-1.52,3.43-2.75c0.53-0.92,0.84-2.05,0.9-3.41C83.89,27.3,80.52,26.94,77.48,25.92L77.48,25.92z M108.13,40.62C103.98,59.9,88.1,76.35,69.73,86.2c-9.26,4.97-19.16,8.27-28.51,9.43c-9.46,1.17-18.4,0.16-25.61-3.54 C7.95,88.16,2.28,81.26,0.03,70.82l0,0c-0.08-0.38-0.02-0.78,0.19-1.14c0.45-0.76,1.43-1.02,2.19-0.57 c29.93,17.64,47.04-0.12,57.68-18.17c3.07-5.22,5.64-10.51,7.83-15.01c2.48-5.12,4.48-9.24,6.36-11.37 c-2.29-1.21-4.35-2.83-6.23-4.79c-0.61-0.64-0.58-1.66,0.06-2.27c0.51-0.49,1.26-0.57,1.85-0.26c2.23,1.15,4.25,1.63,6.08,1.55 c1.79-0.08,3.43-0.71,4.96-1.79c1.35-0.95,2.49-1.92,3.5-2.78c4.15-3.51,6.26-5.3,14.35-1.81c3.44-4.97,6.96-8.85,10.62-10.85 c4.21-2.3,8.48-2.19,12.84,1.39c0.68,0.56,0.78,1.57,0.22,2.25c-0.56,0.68-1.57,0.78-2.25,0.22c-3.18-2.61-6.26-2.7-9.28-1.05 c-3.05,1.67-6.12,5.04-9.2,9.42c5.82,3.02,7.09,8.39,8.2,13.08c0.55,2.33,1.06,4.47,2.07,5.74c0.34,0.43,0.73,0.74,1.17,0.94 c0.46,0.2,1,0.29,1.62,0.25c0.88-0.05,1.64,0.62,1.69,1.51c0.03,0.54-0.21,1.04-0.61,1.36C113.21,39.1,110.6,40.46,108.13,40.62 L108.13,40.62z M78.41,22.85c3.03,1.03,6.48,1.3,10.42,0.65c0.07-0.02,0.14-0.03,0.22-0.03c0.88-0.08,1.66,0.58,1.74,1.46 c0.24,2.82-0.21,5.13-1.28,6.98c-0.41,0.7-0.9,1.33-1.47,1.89c1.45,0.12,2.78-0.02,4.02-0.42c2.2-0.7,4.12-2.2,5.8-4.45l0,0 c0.18-0.24,0.43-0.44,0.73-0.55c0.83-0.3,1.75,0.12,2.06,0.95c1.73,4.71,3.69,7.24,5.84,7.9c1.42,0.43,3.04,0.04,4.85-1.09 c-0.68-0.4-1.27-0.92-1.79-1.57c-1.46-1.83-2.04-4.3-2.68-6.99c-0.97-4.1-2.08-8.8-6.83-11.11c-8.41-4.11-10-2.76-13.47,0.17 c-1.02,0.86-2.18,1.84-3.73,2.94c-1.99,1.41-4.16,2.24-6.54,2.38C76.97,22.31,77.68,22.61,78.41,22.85L78.41,22.85z"/></g></svg>