<svg id="Layer_1" data-name="Layer 1" xmlns="http://www.w3.org/2000/svg" viewBox="0 0 122.88 122.88"><defs><style>.cls-1{fill-rule:evenodd;}</style></defs><title>chopsticks</title><path class="cls-1" d="M16.37,122.31l-4.55-4.55a1.91,1.91,0,0,1,0-2.72L119.5,11.81a2,2,0,0,1,2.73,0l.09.09a2,2,0,0,1,0,2.73L19.09,122.31a1.91,1.91,0,0,1-2.72,0ZM5.12,111.06.57,106.51a1.91,1.91,0,0,1,0-2.72L108.25.56a2,2,0,0,1,2.73,0l.09.09a2,2,0,0,1,0,2.73L7.84,111.06a1.91,1.91,0,0,1-2.72,0ZM40.27,67.3,66.53,42.13l3,3L44.33,71.36,40.27,67.3ZM51.52,78.55,77.78,53.38l3,3L55.58,82.61l-4.06-4.06Z"/></svg>