<?xml version="1.0" encoding="utf-8"?><svg version="1.1" id="Layer_1" xmlns="http://www.w3.org/2000/svg" xmlns:xlink="http://www.w3.org/1999/xlink" x="0px" y="0px" viewBox="0 0 85.22 122.88" style="enable-background:new 0 0 85.22 122.88" xml:space="preserve"><g><path d="M45.51,29.86l3.25-3.55c0.51-0.55,1.37-0.59,1.92-0.09c0.55,0.51,0.59,1.37,0.09,1.92l-1.57,1.71h2.12 c0.76,0,1.37,0.61,1.37,1.37c0,0.76-0.61,1.37-1.37,1.37h-1.93l1.49,1.63c0.51,0.55,0.47,1.42-0.09,1.92 c-0.55,0.51-1.42,0.47-1.92-0.09L45.7,32.6h-3.51v3.39l3.65,3.33c0.55,0.51,0.59,1.37,0.09,1.92c-0.51,0.55-1.37,0.59-1.92,0.09 l-1.81-1.65v2.05c0,0.76-0.61,1.37-1.37,1.37s-1.37-0.61-1.37-1.37v-1.92l-1.54,1.41c-0.55,0.51-1.42,0.47-1.92-0.09 c-0.51-0.55-0.47-1.42,0.09-1.92l3.38-3.09V32.6h-3.38l-3.17,3.47c-0.51,0.55-1.37,0.59-1.92,0.09c-0.55-0.51-0.59-1.37-0.09-1.92 l1.49-1.63h-2.07c-0.76,0-1.37-0.61-1.37-1.37c0-0.76,0.61-1.37,1.37-1.37h2.26l-1.57-1.71c-0.51-0.55-0.47-1.42,0.09-1.92 c0.55-0.51,1.42-0.47,1.92,0.09l3.25,3.55h3.18v-3.47l-3.38-3.09c-0.55-0.51-0.59-1.37-0.09-1.92c0.51-0.55,1.37-0.59,1.92-0.09 l1.54,1.41v-1.98c0-0.76,0.61-1.37,1.37-1.37s1.37,0.61,1.37,1.37v2.1L44,21.18c0.55-0.51,1.42-0.47,1.92,0.09 c0.51,0.55,0.47,1.42-0.09,1.92l-3.65,3.33v3.34H45.51L45.51,29.86z M72.28,66.36c6.5,2.87,10.71,6.6,12.27,11.33 c1.6,4.87,0.36,10.57-4.13,17.23c0.25,6.53-0.96,11.68-3.45,15.61c-2.63,4.15-6.64,6.88-11.84,8.37c-0.78,0.22-1.58-0.05-2.06-0.64 l-3.78-4.09c-1.76,2.18-3.81,3.99-6.03,5.38c-3.29,2.07-6.97,3.23-10.67,3.32c-3.73,0.09-7.47-0.9-10.85-3.14 c-2.16-1.43-4.16-3.37-5.91-5.86c-0.27,0.13-0.53,0.31-0.79,0.55c-0.75,0.68-1.46,1.73-2.17,3.15c-0.32,0.65-0.96,1.04-1.63,1.09 l0,0c-0.76,0.05-1.51,0.04-2.25-0.03c-4.16-0.42-7.49-2.78-9.85-6.28c-2.23-3.31-3.58-7.67-3.91-12.31c-0.1-1.5-0.1-3.05,0.02-4.61 c-4.55-5.65-6-10.89-4.9-15.79c1.12-5.01,4.88-9.47,10.68-13.51c0.03-0.02,0.07-0.04,0.1-0.07l0-0.02V55.86 c0-1.82,1.23-3.37,2.9-3.86c2.47-9.13,5.18-17.75,8.4-25.29c3.27-7.68,7.07-14.26,11.66-19.14c3.03-3.22,6.2-5.66,9.77-6.82 c3.67-1.19,7.66-1.02,12.2,1.06c2.26,1.03,4.33,2.54,6.21,4.56c1.64,1.77,3.13,3.92,4.46,6.5c0.3-0.04,0.61-0.06,0.92-0.06 c2.03,0,3.86,0.82,5.19,2.15c1.33,1.33,2.15,3.16,2.15,5.19s-0.82,3.86-2.15,5.19c-1.33,1.33-3.16,2.15-5.19,2.15 c-2.03,0-3.86-0.82-5.19-2.15c-1.33-1.33-2.15-3.16-2.15-5.19c0-0.57,0.06-1.12,0.19-1.65c-1.97-1.22-3.66-1.95-4.95-2.22 c-0.76-0.16-1.2-0.19-1.27-0.09l-0.02,0.02l-0.01,0.01c-1.31,2.32,5.69,15.14,14.87,31.96c0.63,1.16,1.28,2.34,1.93,3.53 c0.25,0.45,0.3,0.96,0.18,1.42c0.66,0.72,1.07,1.68,1.07,2.73v10.19C72.3,66.15,72.29,66.26,72.28,66.36L72.28,66.36z M27.22,81.96 c-0.28,1.02-1.36,1.62-2.42,1.36c-1.06-0.27-1.69-1.31-1.41-2.33c0.61-2.19,1.72-3.73,3.05-4.65c1.06-0.73,2.24-1.07,3.43-1.05 c1.18,0.02,2.33,0.39,3.36,1.09c1.4,0.95,2.55,2.52,3.12,4.61c0.28,1.02-0.35,2.06-1.41,2.33c-1.06,0.27-2.14-0.34-2.42-1.36 c-0.32-1.18-0.91-2.01-1.59-2.48c-0.37-0.25-0.75-0.38-1.12-0.39c-0.35-0.01-0.72,0.1-1.05,0.34 C28.12,79.86,27.57,80.69,27.22,81.96L27.22,81.96z M42.75,84.41c2.4,0,4.58,0.97,6.16,2.55c1.58,1.58,2.55,3.75,2.55,6.16 c0,0.43-0.03,0.85-0.09,1.26c1.85-0.55,3.7-1.29,5.55-2.23c0.97-0.49,2.16-0.1,2.66,0.87c0.49,0.97,0.1,2.16-0.87,2.66 c-3.16,1.6-6.33,2.69-9.5,3.29c-0.09,0.1-0.19,0.2-0.28,0.3c-1.58,1.58-3.75,2.55-6.16,2.55c-2.4,0-4.58-0.97-6.16-2.55 c-0.14-0.14-0.27-0.28-0.4-0.42c-3.09-0.64-6.17-1.69-9.24-3.14c-0.99-0.47-1.41-1.64-0.94-2.63c0.47-0.99,1.64-1.41,2.63-0.94 c1.83,0.86,3.65,1.57,5.48,2.12c-0.05-0.37-0.07-0.75-0.07-1.13c0-2.4,0.97-4.58,2.55-6.16C38.17,85.38,40.35,84.41,42.75,84.41 L42.75,84.41z M46.1,89.76c-0.86-0.86-2.04-1.39-3.35-1.39s-2.49,0.53-3.35,1.39c-0.86,0.86-1.39,2.04-1.39,3.35 c0,1.31,0.53,2.49,1.39,3.35c0.86,0.86,2.04,1.39,3.35,1.39s2.49-0.53,3.35-1.39c0.86-0.86,1.39-2.04,1.39-3.35 C47.49,91.8,46.96,90.62,46.1,89.76L46.1,89.76z M19.99,70.07c-2.1,4.66-3.16,9.52-2.93,13.53c0.19,3.4,1.3,6.09,3.5,7.26 c0.96,0.51,1.33,1.71,0.81,2.67c-0.51,0.96-1.71,1.33-2.67,0.81c-3.55-1.9-5.33-5.78-5.59-10.53c-0.23-4.14,0.7-9.02,2.59-13.75 h-0.55c-0.57,0-1.11-0.12-1.6-0.33h-0.77c-4.71,3.38-7.73,6.94-8.58,10.75c-0.86,3.85,0.49,8.13,4.53,12.97 c0.38,0.4,0.58,0.95,0.52,1.54c-0.16,1.6-0.18,3.2-0.07,4.78c0.28,3.96,1.4,7.63,3.24,10.36c1.72,2.55,4.08,4.27,6.95,4.56 c0.18,0.02,0.35,0.03,0.54,0.04c0.77-1.35,1.58-2.43,2.46-3.24c1.26-1.14,2.65-1.75,4.23-1.79c0.7-0.05,1.41,0.28,1.81,0.92 c1.6,2.55,3.48,4.47,5.51,5.81c2.67,1.77,5.63,2.56,8.57,2.49c2.98-0.07,5.96-1.02,8.66-2.72c2.39-1.51,4.56-3.6,6.29-6.2 c0.09-0.14,0.2-0.28,0.33-0.4c0.8-0.74,2.06-0.69,2.8,0.12l4.62,5c3.7-1.27,6.55-3.34,8.44-6.32c2.13-3.35,3.12-7.92,2.82-13.85 c-0.05-0.46,0.06-0.93,0.34-1.34c4.03-5.79,5.24-10.51,4-14.28c-1.23-3.72-4.89-6.76-10.66-9.2h-0.27l-0.02,0.01 c1.98,4.83,2.96,9.83,2.72,14.07c-0.26,4.75-2.04,8.63-5.59,10.53c-0.96,0.51-2.16,0.15-2.67-0.81c-0.51-0.96-0.15-2.16,0.81-2.67 c2.2-1.17,3.31-3.87,3.5-7.26c0.22-4.01-0.84-8.87-2.93-13.53H19.99L19.99,70.07z M52.8,81.96c-0.28,1.02-1.36,1.62-2.42,1.36 c-1.06-0.27-1.69-1.31-1.41-2.33c0.61-2.19,1.72-3.73,3.05-4.65c1.06-0.73,2.24-1.07,3.43-1.05c1.18,0.02,2.33,0.39,3.36,1.09 c1.4,0.95,2.55,2.52,3.12,4.61c0.28,1.02-0.35,2.06-1.41,2.33c-1.06,0.27-2.15-0.34-2.42-1.36c-0.32-1.18-0.91-2.01-1.59-2.48 c-0.37-0.25-0.75-0.38-1.12-0.39c-0.35-0.01-0.72,0.1-1.05,0.34C53.71,79.86,53.16,80.69,52.8,81.96L52.8,81.96z M32.56,105.66 c-0.26-1.05,0.31-2.14,1.26-2.43c0.96-0.29,1.95,0.33,2.21,1.39c0.25,1.01,1.16,1.78,2.37,2.31c1.31,0.57,2.93,0.83,4.55,0.81 c1.61-0.03,3.19-0.35,4.44-0.94c1.04-0.5,1.79-1.14,1.94-1.89c0.22-1.07,1.18-1.74,2.16-1.5c0.97,0.24,1.58,1.3,1.36,2.37 c-0.44,2.13-1.97,3.69-4.03,4.67c-1.66,0.79-3.73,1.22-5.81,1.25c-2.07,0.04-4.18-0.32-5.94-1.08 C34.86,109.64,33.15,108.01,32.56,105.66L32.56,105.66z M62.38,15.02l0.07-0.07c0.18-0.18,0.37-0.35,0.57-0.51l0.04-0.05 c-1.12-2.12-2.36-3.89-3.7-5.34c-1.52-1.64-3.18-2.85-4.95-3.66c-3.54-1.62-6.59-1.78-9.35-0.89c-2.85,0.92-5.5,2.99-8.1,5.76 c-4.25,4.52-7.8,10.7-10.9,17.98c-2.85,6.69-5.31,14.31-7.57,22.42h47.49l-0.33-0.61c-9.69-17.74-17.1-31.33-14.84-35.77 c0.04-0.09,0.09-0.18,0.15-0.27l0.03-0.05L51,13.95c1.04-1.52,2.89-2.05,5.33-1.55C58,12.74,60.07,13.61,62.38,15.02L62.38,15.02z M65.76,17.33l-1.26,1.56c-0.15,0.39-0.24,0.81-0.24,1.25c0,0.93,0.38,1.78,0.99,2.39c0.61,0.61,1.46,0.99,2.39,0.99 c0.93,0,1.78-0.38,2.39-0.99c0.61-0.61,0.99-1.46,0.99-2.39s-0.38-1.78-0.99-2.39c-0.61-0.61-1.46-0.99-2.39-0.99 C66.95,16.76,66.3,16.97,65.76,17.33L65.76,17.33z"/></g></svg>