<?xml version="1.0" encoding="utf-8"?><svg version="1.1" id="Layer_1" xmlns="http://www.w3.org/2000/svg" xmlns:xlink="http://www.w3.org/1999/xlink" x="0px" y="0px" viewBox="0 0 104.37 122.88" style="enable-background:new 0 0 104.37 122.88" xml:space="preserve"><style type="text/css">.st0{fill-rule:evenodd;clip-rule:evenodd;}</style><g><path class="st0" d="M87.28,32.08c17.8,16.15,22.6,43.05,10.09,64.71c-14.41,24.95-46.32,33.5-71.27,19.1 C1.14,101.47-7.41,69.56,7,44.61C19.5,22.95,45.2,13.65,68.08,21l3.84-6.72c0.33-0.58,0.88-0.95,1.49-1.05L77,6.66l0.01,0 l0.01-0.02c2.8-4.96,7.09-6.89,11-6.63c0.94,0.06,1.86,0.26,2.73,0.56l1.46,0.78l1.41,0.87c0.7,0.6,1.33,1.3,1.85,2.08 c2.18,3.26,2.65,7.94-0.24,12.84l-0.01,0.02l0.01,0l-3.88,6.38c0.22,0.58,0.17,1.25-0.17,1.82L87.28,32.08L87.28,32.08z M90,5.04 c-0.77-0.42-1.64-0.67-2.54-0.73c-2.46-0.16-5.19,1.11-7.04,4.38l0,0l-2.92,5.34l5.55,3.03l5.4,3.29l3.16-5.19l0,0 c1.9-3.23,1.64-6.24,0.27-8.28C91.4,6.13,90.75,5.5,90,5.04L90,5.04z M39.82,80.4L41,89.69l8.84,3.09l-8.47,4l-0.2,9.36l-6.42-6.82 l-8.97,2.7l4.5-8.21l-5.34-7.7l9.2,1.75L39.82,80.4L39.82,80.4z M46.9,30l1.8,14.14l13.46,4.7l-12.89,6.08l-0.31,14.25l-9.77-10.38 L25.53,62.9l6.86-12.5l-8.12-11.71l14.01,2.66L46.9,30L46.9,30z M84.24,58.99l1.18,9.29l8.84,3.09l-8.47,4l-0.2,9.36l-6.42-6.82 l-8.97,2.7l4.5-8.21l-5.34-7.7l9.2,1.75L84.24,58.99L84.24,58.99z"/></g></svg>