<?xml version="1.0" encoding="utf-8"?><svg version="1.1" id="Layer_1" xmlns="http://www.w3.org/2000/svg" xmlns:xlink="http://www.w3.org/1999/xlink" x="0px" y="0px" viewBox="0 0 91.4 122.88" style="enable-background:new 0 0 91.4 122.88" xml:space="preserve"><style type="text/css">.st0{fill-rule:evenodd;clip-rule:evenodd;}</style><g><path class="st0" d="M80.32,25.84H32.94v10.54c0,0.04,0,0.08,0,0.12c0.12,3.41,0.27,6.43,0.41,8.98 c0.39,7.52,0.58,11.22-0.91,14.73c-1.43,3.37-4.16,5.88-9.55,10.81c-2.04,1.87-4.51,4.13-7.74,7.22c-0.1,0.1-0.21,0.19-0.32,0.26 l0,0C6.3,84.36,3.9,92.81,5.49,100.36c0.64,3.05,1.93,5.96,3.72,8.51c1.79,2.54,4.07,4.7,6.7,6.27c6.37,3.78,14.93,4.05,23.74-2.43 c4.37-3.22,13.17-11.68,20.84-19.07c4.96-4.78,9.46-9.11,12.11-11.38c1.33-1.14,2.57-2.41,3.6-3.78c0.9-1.2,1.65-2.47,2.16-3.8 c2.03-5.27,2.01-12.89,1.98-26.2c-0.01-3.72-0.02-3.54-0.02-5.54V25.84L80.32,25.84z M26.33,0h60.15c2.71,0,4.92,2.21,4.92,4.92 v13.69c0,2.71-2.21,4.92-4.92,4.92h-1.12v19.39c0,5.9,0,5.32,0,5.54c0.03,13.89,0.05,21.85-2.31,27.99 c-0.69,1.8-1.67,3.48-2.83,5.02c-1.28,1.7-2.77,3.23-4.35,4.59c-2.53,2.18-6.98,6.46-11.89,11.19c-7.79,7.5-16.72,16.09-21.35,19.5 c-10.7,7.88-21.28,7.45-29.26,2.71c-3.26-1.94-6.07-4.6-8.26-7.7c-2.18-3.09-3.74-6.64-4.53-10.38 c-1.97-9.33,0.92-19.72,11.25-26.91c2.89-2.76,5.51-5.16,7.68-7.16c4.84-4.43,7.29-6.68,8.31-9.08c1.03-2.44,0.86-5.76,0.51-12.51 c-0.13-2.47-0.28-5.39-0.41-9.06c-0.01-0.1-0.02-0.19-0.02-0.29V23.53h-1.58c-2.71,0-4.92-2.21-4.92-4.92V4.92 C21.41,2.21,23.63,0,26.33,0L26.33,0z M61.15,51.26l4.01-4.39c0.63-0.69,1.69-0.73,2.38-0.11c0.69,0.63,0.73,1.69,0.11,2.38 l-1.94,2.12h2.63c0.93,0,1.69,0.76,1.69,1.69c0,0.93-0.76,1.69-1.69,1.69h-2.39l1.85,2.02c0.63,0.69,0.58,1.75-0.11,2.38 c-0.69,0.63-1.75,0.58-2.38-0.11l-3.92-4.29h-4.34v4.2l4.51,4.12c0.69,0.63,0.73,1.69,0.11,2.38c-0.63,0.69-1.69,0.73-2.38,0.11 l-2.24-2.04v2.54c0,0.93-0.76,1.69-1.69,1.69c-0.93,0-1.69-0.76-1.69-1.69v-2.38l-1.9,1.74c-0.69,0.63-1.75,0.58-2.38-0.11 c-0.63-0.69-0.58-1.75,0.11-2.38l4.17-3.82v-4.36h-4.17l-3.92,4.29c-0.63,0.69-1.69,0.73-2.38,0.11c-0.69-0.63-0.73-1.69-0.11-2.38 l1.85-2.02h-2.56c-0.93,0-1.69-0.76-1.69-1.69c0-0.93,0.76-1.69,1.69-1.69h2.8l-1.94-2.12c-0.63-0.69-0.58-1.75,0.11-2.38 c0.69-0.63,1.75-0.58,2.38,0.11l4.01,4.39h3.94v-4.29l-4.17-3.82c-0.69-0.63-0.73-1.69-0.11-2.38c0.63-0.69,1.69-0.73,2.38-0.11 l1.9,1.74v-2.44c0-0.93,0.76-1.69,1.69-1.69c0.93,0,1.69,0.76,1.69,1.69v2.6l2.24-2.04c0.69-0.63,1.75-0.58,2.38,0.11 c0.63,0.69,0.58,1.75-0.11,2.38l-4.51,4.12v4.13H61.15L61.15,51.26z"/></g></svg>