<?xml version="1.0" encoding="utf-8"?><svg version="1.1" id="Layer_1" xmlns="http://www.w3.org/2000/svg" xmlns:xlink="http://www.w3.org/1999/xlink" x="0px" y="0px" viewBox="0 0 110.08 122.88" style="enable-background:new 0 0 110.08 122.88" xml:space="preserve"><g><path d="M69.43,114.65c-0.93,1.63-2.18,3.08-3.68,4.36c-1.51,1.28-3.17,2.24-4.97,2.92c-1.79,0.64-3.68,0.96-5.7,0.96 c-2.02,0-3.91-0.32-5.7-0.96c-1.79-0.64-3.46-1.6-4.97-2.92c-1.51-1.28-2.76-2.76-3.68-4.36c-0.93-1.63-1.57-3.43-1.92-5.35 c-0.6-0.61,29.01-0.04,32.65,0C71.45,110.54,70.07,113.52,69.43,114.65L69.43,114.65z M100.44,16.23c0.71,8.29,0.11,18.35-0.65,22 l-0.06,0.3c-0.3,1.42-0.54,2.6-0.82,3.7c-1.47,5.87-2.77,6.28-8.67,4.82c0.62,1.76,1.1,3.57,1.43,5.4 c0.38,2.15,0.58,4.33,0.58,6.57v7.11c0,2.27,0.03,4.49,0.03,6.66v0.03c0,1.95,0.13,3.94,0.38,5.9c0.26,1.95,0.58,3.84,1.06,5.67 c0.45,1.79,1.09,3.52,1.86,5.16c0.8,1.7,1.76,3.36,2.92,5c1.12,1.6,2.53,3.17,4.23,4.74c1.73,1.6,3.78,3.17,6.09,4.71 c1.31,0.9,1.67,2.69,0.8,4c-0.54,0.83-1.47,1.28-2.4,1.28H2.88c-1.6,0-2.88-1.28-2.88-2.88c0-1.06,0.54-1.95,1.41-2.47 c2.34-1.57,4.36-3.14,6.02-4.71c1.67-1.54,3.08-3.14,4.2-4.74c0.03-0.03,0.06-0.1,0.1-0.13c1.09-1.6,2.02-3.2,2.79-4.87 c0.77-1.67,1.41-3.4,1.89-5.19c0-0.03,0.03-0.06,0.03-0.1c0.45-1.73,0.8-3.56,1.03-5.48c0.22-1.92,0.35-3.91,0.35-5.96V59.07 c0-2.21,0.19-4.39,0.58-6.57c0.34-1.91,0.82-3.75,1.46-5.51c-6.08,1.53-7.39,1.17-8.88-4.77c-0.28-1.1-0.52-2.27-0.82-3.7 l-0.06-0.3c-0.76-3.65-1.37-13.71-0.65-22c0.51-5.97,1.77-11.21,4.26-13.2c3.4-2.71,11.9,1.68,15.26,3.41 c0.17,0.09-0.04-0.02,0.1,0.05l0,0l1.48-3.16c1.75-3.73,4.63-3.99,7.89-2.46c4.07,1.91,8.69,7.15,11.38,10.21 c0.62,0.71,1.14,1.3,1.44,1.61l0.03,0.03h7.33l0.03-0.03c0.3-0.31,0.81-0.9,1.44-1.61c2.69-3.06,7.31-8.3,11.38-10.21 c3.26-1.53,6.14-1.27,7.89,2.46l1.48,3.16l0,0c0.45-0.23-0.11,0.06,0.11-0.05c3.36-1.73,11.86-6.12,15.26-3.41 C98.67,5.01,99.93,10.26,100.44,16.23L100.44,16.23z M82.78,44.57c-5.67-2.41-10.19-5.62-15.26-9.22 c-0.57-0.41-1.16-0.82-1.76-1.25c-0.24,0.36-0.52,0.69-0.83,0.99l-0.01,0.01v0c-1.27,1.27-3.02,2.06-4.95,2.06H49.71 c-1.93,0-3.69-0.79-4.96-2.06c-0.08-0.08-0.15-0.16-0.22-0.24c-0.2-0.21-0.38-0.44-0.54-0.67c-0.56,0.39-1.1,0.78-1.63,1.16 c-5.04,3.58-9.53,6.78-15.15,9.18c-0.63,1.2-1.19,2.45-1.7,3.75c-0.67,1.73-1.15,3.46-1.47,5.22c-0.32,1.76-0.48,3.62-0.48,5.54 v13.68c0,2.27-0.13,4.49-0.42,6.66c-0.26,2.08-0.64,4.16-1.19,6.22c0,0.03-0.03,0.1-0.03,0.13c-0.54,2.08-1.31,4.13-2.24,6.15 c-0.9,1.95-1.99,3.84-3.27,5.67c-0.03,0.06-0.06,0.13-0.13,0.19c-1.31,1.89-3.01,3.81-5.03,5.67l-0.06,0.06h87.5 c-1.99-1.83-3.65-3.72-5-5.64c-1.35-1.89-2.47-3.84-3.4-5.86c-0.96-2.05-1.7-4.1-2.24-6.18c-0.51-2.08-0.93-4.2-1.19-6.38 c-0.26-2.08-0.38-4.26-0.42-6.57c-0.03-2.15-0.03-4.39-0.03-6.7c-0.03-4.33-0.03-6.66-0.03-7.11c0-1.89-0.16-3.75-0.48-5.54 c-0.32-1.79-0.8-3.52-1.44-5.19C83.97,47,83.41,45.76,82.78,44.57L82.78,44.57z M58.74,15.98h-7.61h-1.42 c-2.07,0-3.77,1.7-3.77,3.77v3.36l0.06-0.02l0.04-0.12V29l-0.1,0.03v1.11c0,0.81,0.26,1.57,0.7,2.19c0.05,0.07,0.1,0.13,0.15,0.2 l0.01,0.01l0.01,0.01l0.05,0.06l0,0l0.06,0.06l0,0l0.05,0.06l0.01,0.01l0.06,0.06l0.01,0.01l0.05,0.05l0.01,0.01l0,0l0,0l0.06,0.05 l0.01,0.01l0.06,0.05L47.26,33l0.06,0.05l0,0l0,0l0.06,0.05l0.02,0.01c0.09,0.07,0.18,0.14,0.28,0.2l0.01,0l0.01,0.01l0.05,0.03 l0.01,0.01l0.01,0.01l0.05,0.03l0.02,0.01l0.01,0.01l0.07,0.04l0,0l0.01,0l0.06,0.03L48,33.5l0.01,0.01l0.06,0.03l0.01,0.01 l0.07,0.03l0,0l0,0l0,0l0.07,0.03l0.02,0.01l0.08,0.03l0.01,0l0.08,0.03l0,0l0,0l0.08,0.03l0.01,0l0.09,0.03l0,0l0.07,0.02l0.01,0 l0.01,0l0.01,0l0.06,0.02l0.03,0.01l0.07,0.02l0.01,0l0.01,0l0.07,0.02l0.01,0l0.01,0l0.08,0.01l0.01,0l0.08,0.01l0.01,0l0.01,0 l0.08,0.01l0.01,0l0.01,0l0.07,0.01l0.02,0l0.08,0.01l0,0l0.01,0l0.08,0.01l0.01,0l0.02,0l0.07,0l0.02,0l0.09,0h10.27l0.08,0 l0.02,0l0.08,0l0.01,0l0.08-0.01l0.01,0l0.08-0.01l0.02,0l0.08-0.01h0l0.09-0.01l0.01,0l0.08-0.01l0.01,0l0,0l0.08-0.02l0.01,0 l0.09-0.02l0.01,0l0.08-0.02l0.01,0h0l0.01,0L61,33.77l0.02,0l0.07-0.02l0.01,0l0.01,0c0.05-0.02,0.11-0.04,0.16-0.06l0.01,0 l0.08-0.03h0l0.07-0.03l0.02-0.01l0.06-0.03l0.01,0l0.02-0.01l0.06-0.03l0.01,0l0.07-0.04l0.02-0.01l0.07-0.04l0,0 c0.02-0.01,0.05-0.03,0.07-0.04l0.01-0.01l0.06-0.04l0.01-0.01l0.01,0L62,33.32l0,0l0.07-0.05l0,0l0.07-0.05l0,0l0.07-0.05l0.01,0 l0.06-0.05l0.01-0.01l0.01-0.01l0.05-0.04l0.01-0.01l0.01-0.01l0.06-0.05l0.01-0.01l0.06-0.06l0,0c0.04-0.04,0.08-0.08,0.12-0.12 l0.01-0.01l0.01-0.01c0.04-0.04,0.08-0.08,0.12-0.12l0.01-0.01c0.1-0.11,0.19-0.22,0.28-0.34l0.01-0.01l0.05-0.07l0,0l0,0 c0.41-0.6,0.64-1.32,0.64-2.1v-10.4c0-2.07-1.7-3.77-3.77-3.77H58.74L58.74,15.98z"/></g></svg>