<?xml version="1.0" encoding="utf-8"?><svg version="1.1" id="Layer_1" xmlns="http://www.w3.org/2000/svg" xmlns:xlink="http://www.w3.org/1999/xlink" x="0px" y="0px" viewBox="0 0 88.95 122.88" style="enable-background:new 0 0 88.95 122.88" xml:space="preserve"><style type="text/css">.st0{fill-rule:evenodd;clip-rule:evenodd;}</style><g><path class="st0" d="M56.73,83.64L56.73,83.64L56.73,83.64z M39.93,26.92c-1.11,1.25-2.16,2.69-3.14,4.35 c-2.55,4.31-8.11,5.73-12.42,3.18c-4.31-2.55-5.73-8.11-3.18-12.42c1.85-3.13,3.88-5.85,6.06-8.19L39.93,26.92L39.93,26.92z M63.61,24.62c-0.72-0.64-1.51-1.22-2.34-1.73c-1.98-1.2-4.26-1.98-6.68-2.25c-0.74-0.08-1.5-0.11-2.26-0.08l0.21-18.2 c1.35-0.01,2.7,0.06,4.04,0.2c5.02,0.55,9.86,2.23,14.14,4.83c2.16,1.31,4.17,2.85,5.98,4.59L63.61,24.62L63.61,24.62z M11.65,98.56L31.4,79.41l25.22,1.1l-1.49,1.39c-1.89,1.76-3.67,3.41-6.85,6.5L36.67,99.65L11.65,98.56L11.65,98.56z M53.65,58.28 c1.71-1.7,3.38-3.42,4.97-5.14c2.53-2.74,4.68-5.32,6.16-7.58c1.51-2.32,2.49-4.56,3.03-6.68l18.42,0.8 c-0.76,5.09-2.75,10.42-6.27,15.82c-0.81,1.25-1.73,2.52-2.73,3.81L53.65,58.28L53.65,58.28z M83.38,16.37 c3.71,5.69,5.83,12.47,5.55,19.83c-0.25,6.55-2.39,13.54-6.98,20.58c-1.1,1.68-2.36,3.39-3.75,5.11c-1.39,1.72-2.9,3.45-4.5,5.17 c-1.44,1.56-3.03,3.19-4.71,4.87c-1.67,1.66-3.39,3.34-5.13,5c-2.51,2.4-4.83,4.55-7.03,6.6l-0.09,0.09l-0.01,0.01l-0.02,0.02 l-0.02,0.02c-1.88,1.75-3.67,3.42-6.76,6.42l-30.45,29.53l0,0l-0.18,0.16c-2.25,2.11-5.14,3.13-8,3.09 c-2.93-0.04-5.84-1.2-8.04-3.46l0,0l-0.16-0.18c-2.11-2.25-3.13-5.14-3.09-8c0.05-2.94,1.21-5.86,3.48-8.06l30.48-29.55 c0.51-0.5,1.5-1.43,2.75-2.6l4.44-4.14l0.1-0.09c2.27-2.12,4.66-4.34,6.83-6.41c1.53-1.46,3.05-2.94,4.51-4.4 c1.46-1.46,2.89-2.94,4.29-4.46c1.21-1.31,2.35-2.61,3.38-3.87c1.01-1.23,1.87-2.38,2.53-3.4c1.95-2.99,2.92-5.81,3.12-8.35 c0.21-2.7-0.44-5.08-1.69-7c-0.52-0.8-1.14-1.54-1.84-2.21c-0.72-0.69-1.5-1.29-2.34-1.8c-0.84-0.51-1.76-0.93-2.73-1.26 c-0.95-0.32-1.95-0.54-2.98-0.65c-2.71-0.3-5.63,0.27-8.39,1.92c-2.56,1.53-5.02,3.99-7.11,7.54l0,0.01l0,0 c-1.61,2.72-4.17,4.53-7.01,5.26c-2.83,0.72-5.94,0.37-8.66-1.24c-2.72-1.61-4.53-4.17-5.26-7.01c-0.72-2.83-0.37-5.94,1.24-8.66 l0.08-0.13c4.51-7.61,10.11-12.9,16.16-16.22c6.89-3.79,14.34-5.03,21.43-4.25c2.67,0.29,5.29,0.88,7.8,1.74 c2.54,0.87,4.99,2.02,7.31,3.42c2.31,1.4,4.46,3.04,6.38,4.89C80.22,12.1,81.93,14.14,83.38,16.37L83.38,16.37z"/></g></svg>