<?xml version="1.0" encoding="utf-8"?><svg version="1.1" id="Layer_1" xmlns="http://www.w3.org/2000/svg" xmlns:xlink="http://www.w3.org/1999/xlink" x="0px" y="0px" viewBox="0 0 109.5 122.88" style="enable-background:new 0 0 109.5 122.88" xml:space="preserve"><g><path d="M5.96,88.01c4.16-15.21,8.73-29.54,14.09-42.13c5.66-13.29,12.22-24.65,20.13-33.08c5.15-5.48,10.53-9.62,16.55-11.58 c6.13-1.99,12.81-1.69,20.41,1.79c3.8,1.73,7.29,4.28,10.45,7.69c2.96,3.18,5.63,7.13,8.01,11.87c0.74-0.15,1.51-0.23,2.3-0.23 c3.2,0,6.1,1.3,8.2,3.4c2.1,2.1,3.4,5,3.4,8.2c0,3.2-1.3,6.1-3.4,8.2c-2.1,2.1-5,3.4-8.2,3.4c-3.2,0-6.1-1.3-8.2-3.4 c-2.1-2.1-3.4-5-3.4-8.2c0-1.2,0.18-2.35,0.52-3.44l-0.09-0.06c-3.87-2.47-7.19-3.95-9.73-4.46c-1.85-0.38-3.06-0.26-3.48,0.35 c-0.06,0.09,0.02-0.04-0.02,0.02c-2.85,4.48,9.57,27.24,25.89,57.14c1.11,2.02,2.23,4.08,3.37,6.17c0.15,0.27,0.23,0.56,0.26,0.85 c1.37,1.55,2.21,3.58,2.21,5.8v17.79c0,2.41-0.99,4.61-2.57,6.2c-1.59,1.59-3.78,2.57-6.2,2.57H8.77c-2.41,0-4.61-0.99-6.2-2.57 c-1.59-1.59-2.57-3.78-2.57-6.2V96.32c0-2.41,0.99-4.61,2.57-6.2C3.52,89.18,4.67,88.45,5.96,88.01L5.96,88.01z M10.71,87.55h85.77 l0.09,0l-1.05-1.93c-17.03-31.21-30-54.96-25.74-61.65c0.08-0.12,0.06-0.1,0.09-0.14c1.51-2.21,4.31-2.96,8.04-2.2 c3,0.61,6.77,2.25,11.04,4.96c0.24-0.29,0.5-0.57,0.76-0.84c0.31-0.31,0.64-0.6,0.98-0.88l0.67-0.83 c-2.11-4.12-4.46-7.54-7.02-10.3c-2.77-2.98-5.79-5.19-9.04-6.68c-6.49-2.97-12.11-3.25-17.21-1.6c-5.2,1.69-9.99,5.42-14.67,10.39 c-7.53,8.01-13.81,18.93-19.28,31.77C19.07,59.54,14.7,73.12,10.71,87.55L10.71,87.55z M59.26,50.92l5.67-6.2 c0.89-0.97,2.39-1.04,3.36-0.15c0.97,0.89,1.04,2.39,0.15,3.36l-2.74,2.99h3.71c1.32,0,2.39,1.07,2.39,2.39 c0,1.32-1.07,2.39-2.39,2.39h-3.37l2.61,2.85c0.89,0.97,0.82,2.47-0.15,3.36c-0.97,0.89-2.47,0.82-3.36-0.15L59.6,55.7h-6.14v5.93 l6.37,5.82c0.97,0.89,1.04,2.39,0.15,3.36c-0.89,0.97-2.39,1.04-3.36,0.15l-3.16-2.89v3.58c0,1.32-1.07,2.39-2.39,2.39 c-1.32,0-2.39-1.07-2.39-2.39v-3.36L46,70.75c-0.97,0.89-2.47,0.82-3.36-0.15c-0.89-0.97-0.82-2.47,0.15-3.36l5.9-5.39V55.7h-5.9 l-5.54,6.06c-0.89,0.97-2.39,1.04-3.36,0.15c-0.97-0.89-1.04-2.39-0.15-3.36l2.61-2.85h-3.61c-1.32,0-2.39-1.07-2.39-2.39 c0-1.32,1.07-2.39,2.39-2.39h3.95l-2.74-2.99c-0.89-0.97-0.82-2.47,0.15-3.36c0.97-0.89,2.47-0.82,3.36,0.15l5.67,6.2h5.56v-6.06 l-5.9-5.39c-0.97-0.89-1.04-2.39-0.15-3.36c0.89-0.97,2.39-1.04,3.36-0.15l2.69,2.46v-3.45c0-1.32,1.07-2.39,2.39-2.39 c1.32,0,2.39,1.07,2.39,2.39v3.67l3.16-2.89c0.97-0.89,2.47-0.82,3.36,0.15c0.89,0.97,0.82,2.47-0.15,3.36l-6.37,5.82v5.84H59.26 L59.26,50.92z M93.79,28.12l-2.4,2.98l-0.03,0.04c-0.37,0.86-0.57,1.81-0.57,2.81c0,1.97,0.8,3.75,2.09,5.04 c1.29,1.29,3.07,2.09,5.04,2.09c1.97,0,3.75-0.8,5.04-2.09c1.29-1.29,2.09-3.07,2.09-5.04s-0.8-3.75-2.09-5.04 s-3.07-2.09-5.04-2.09C96.37,26.81,94.95,27.3,93.79,28.12L93.79,28.12z"/></g></svg>