<?xml version="1.0" encoding="utf-8"?><svg version="1.1" id="Layer_1" xmlns="http://www.w3.org/2000/svg" xmlns:xlink="http://www.w3.org/1999/xlink" x="0px" y="0px" viewBox="0 0 122.88 121" style="enable-background:new 0 0 122.88 121" xml:space="preserve"><g><path d="M84.45,2.54c0.38-2.2,3.19-2.33,3.52,0v10.98c0.73,0.11,0.76,0.33,1.42,0.66c2.38,1.2,4.2,3.84,4.17,8 c0,0.03,0,0.06,0,0.09v3.88v0.86c0.56,0.21,0.95,0.75,0.95,1.38v7.3c12.88,2.97,23.17,12.75,26.86,25.34h-46.8 c-3.88-5.93-9.03-10.94-15.07-14.65c4.91-5.25,11.34-9.06,18.6-10.71v-7.28c0-0.47,0.22-0.89,0.57-1.16v-5.27h0v-0.01 c0.06-4.02,2.06-6.67,4.57-7.83c0.6-0.28,0.56-0.47,1.2-0.58V2.54L84.45,2.54z M35.16,1.49c0-1.98,3.52-1.99,3.52,0v25.08 c0.73,0.11,0.76,0.33,1.42,0.66c2.38,1.2,4.2,3.84,4.17,8c0,0.03,0,0.06,0,0.09v3.88v0.86c0.56,0.21,0.95,0.75,0.95,1.38v7.3 c12.88,2.97,23.17,12.75,26.86,25.34H1.85c3.71-12.63,14.03-22.42,26.97-25.36v-7.28c0-0.47,0.22-0.89,0.57-1.16v-5.27h0v-0.01 c0.06-4.02,2.06-6.67,4.57-7.83c0.6-0.28,0.56-0.47,1.2-0.58V1.49L35.16,1.49z M40.76,39.97V39.2v-3.88c0-0.04,0-0.07,0.01-0.1 c0.05-7.48-7.76-6.81-7.86-0.22h0v4.96H40.76L40.76,39.97z M0,84.65l7.62-9.62c0.37-0.47,1.04-0.54,1.51-0.18 c0.08,0.06,0.15,0.14,0.21,0.22l0,0l13.5,18.82L36.2,74.99c0.34-0.49,1.01-0.6,1.5-0.26c0.11,0.08,0.2,0.17,0.27,0.28l13.5,19.17 l13.5-19.03c0.34-0.48,1.02-0.6,1.5-0.25c0.1,0.07,0.19,0.16,0.26,0.26l0,0l6.86,9.77c-0.01,1.17-0.08,2.33-0.2,3.47l-7.54-10.75 L52.37,96.62c-0.07,0.11-0.17,0.22-0.29,0.3c-0.03,0.02-0.06,0.04-0.09,0.05h19.36C66.23,111,52.77,121,36.97,121 C21.18,121,7.72,111,2.59,96.98h48.34c-0.13-0.08-0.25-0.18-0.35-0.32l-13.5-19.18L23.73,96.35l0,0c-0.07,0.1-0.15,0.18-0.25,0.25 c-0.48,0.35-1.15,0.24-1.5-0.24L8.42,77.47L0.16,87.91C0.06,86.83,0,85.75,0,84.65L0,84.65z M90.05,26.92v-0.76v-3.88 c0-0.04,0-0.07,0.01-0.11c0.05-7.48-7.76-6.81-7.86-0.22h0v4.96H90.05L90.05,26.92z M79.4,70.56l6.1-8.62 c0.34-0.49,1.01-0.6,1.5-0.26c0.11,0.08,0.2,0.17,0.27,0.28l13.5,19.17l13.5-19.03c0.34-0.48,1.02-0.6,1.5-0.25 c0.1,0.07,0.19,0.16,0.26,0.26l0,0l6.86,9.77c-0.01,1.17-0.08,2.33-0.2,3.47l-7.54-10.75l-13.47,18.99 c-0.07,0.11-0.17,0.22-0.29,0.3c-0.03,0.02-0.06,0.04-0.09,0.05h19.36c-5.13,14.02-18.59,24.02-34.38,24.02 c-2.82,0-5.56-0.32-8.2-0.92c2.76-6.05,4.3-12.77,4.3-19.85c0-1.09-0.04-2.18-0.11-3.26h17.97c-0.13-0.08-0.25-0.18-0.35-0.32 l-13.5-19.18l-6.12,8.65C79.99,72.24,79.71,71.39,79.4,70.56L79.4,70.56z"/></g></svg>