<?xml version="1.0" encoding="utf-8"?><svg version="1.1" id="Layer_1" xmlns="http://www.w3.org/2000/svg" xmlns:xlink="http://www.w3.org/1999/xlink" x="0px" y="0px" viewBox="0 0 115.28 122.88" style="enable-background:new 0 0 115.28 122.88" xml:space="preserve"><style type="text/css">.st0{fill-rule:evenodd;clip-rule:evenodd;}</style><g><path class="st0" d="M21.44,57h68.81V37.34H69.59c-2.17,0-5.19-1.17-6.62-2.6c-1.43-1.43-2.3-4.01-2.3-6.17V7.64l0,0H8.15 c-0.18,0-0.32,0.09-0.41,0.18C7.59,7.92,7.55,8.05,7.55,8.24v106.45c0,0.14,0.09,0.32,0.18,0.41c0.09,0.14,0.28,0.18,0.41,0.18 c22.78,0,58.09,0,81.51,0c0.18,0,0.17-0.09,0.27-0.18c0.14-0.09,0.33-0.28,0.33-0.41v-11.16H21.44c-4.14,0-7.56-3.4-7.56-7.56 V64.55C13.89,60.4,17.29,57,21.44,57L21.44,57z M34.13,81.65l4.88,1.47c-0.33,1.37-0.84,2.51-1.55,3.43 c-0.7,0.92-1.58,1.61-2.62,2.08c-1.04,0.47-2.37,0.7-3.99,0.7c-1.96,0-3.56-0.28-4.8-0.85c-1.24-0.57-2.31-1.57-3.21-3 c-0.9-1.43-1.35-3.27-1.35-5.5c0-2.98,0.79-5.27,2.38-6.87c1.59-1.6,3.83-2.4,6.73-2.4c2.27,0,4.05,0.46,5.35,1.38 c1.3,0.92,2.26,2.33,2.89,4.23l-4.91,1.09c-0.17-0.55-0.35-0.94-0.54-1.19c-0.31-0.42-0.7-0.75-1.14-0.98 c-0.45-0.23-0.96-0.34-1.51-0.34c-1.27,0-2.23,0.51-2.91,1.52c-0.51,0.75-0.76,1.93-0.76,3.54c0,2,0.3,3.36,0.91,4.1 c0.61,0.74,1.46,1.11,2.56,1.11c1.06,0,1.87-0.3,2.42-0.9C33.49,83.65,33.88,82.79,34.13,81.65L34.13,81.65z M40.9,71.01h5.56 v13.58h8.7v4.43H40.9V71.01L40.9,71.01z M67.97,86.05h-6.31l-0.91,2.97h-5.68l6.78-18.01h6.09l6.75,18.01h-5.83L67.97,86.05 L67.97,86.05z M66.79,82.15l-1.97-6.47l-1.97,6.47H66.79L66.79,82.15z M74.71,83.06l5.28-0.33c0.11,0.86,0.35,1.51,0.7,1.95 c0.57,0.73,1.39,1.09,2.46,1.09c0.79,0,1.4-0.18,1.83-0.56c0.43-0.37,0.65-0.81,0.65-1.3c0-0.47-0.2-0.88-0.61-1.25 c-0.41-0.37-1.35-0.71-2.84-1.04c-2.44-0.55-4.18-1.27-5.22-2.18c-1.05-0.91-1.57-2.06-1.57-3.47c0-0.92,0.27-1.79,0.8-2.62 c0.54-0.83,1.34-1.47,2.42-1.94c1.08-0.47,2.55-0.7,4.43-0.7c2.3,0,4.05,0.43,5.26,1.29c1.21,0.86,1.92,2.22,2.16,4.09l-5.23,0.31 c-0.14-0.82-0.43-1.41-0.88-1.78c-0.45-0.37-1.06-0.56-1.85-0.56c-0.65,0-1.14,0.14-1.46,0.41c-0.33,0.27-0.49,0.61-0.49,1 c0,0.28,0.13,0.54,0.4,0.77c0.26,0.24,0.88,0.46,1.86,0.66c2.43,0.52,4.17,1.06,5.22,1.59c1.05,0.54,1.82,1.2,2.3,2 c0.48,0.79,0.72,1.68,0.72,2.67c0,1.15-0.32,2.22-0.96,3.19c-0.64,0.97-1.53,1.71-2.68,2.22c-1.14,0.5-2.59,0.75-4.33,0.75 c-3.06,0-5.18-0.59-6.36-1.77C75.53,86.38,74.86,84.88,74.71,83.06L74.71,83.06z M92.08,83.06l5.28-0.33 c0.11,0.86,0.35,1.51,0.7,1.95c0.57,0.73,1.39,1.09,2.46,1.09c0.79,0,1.4-0.18,1.83-0.56c0.43-0.37,0.65-0.81,0.65-1.3 c0-0.47-0.2-0.88-0.61-1.25c-0.41-0.37-1.35-0.71-2.84-1.04c-2.44-0.55-4.18-1.27-5.22-2.18c-1.05-0.91-1.57-2.06-1.57-3.47 c0-0.92,0.27-1.79,0.81-2.62c0.54-0.83,1.34-1.47,2.42-1.94c1.08-0.47,2.55-0.7,4.43-0.7c2.3,0,4.05,0.43,5.26,1.29 c1.21,0.86,1.92,2.22,2.15,4.09l-5.23,0.31c-0.14-0.82-0.43-1.41-0.88-1.78c-0.45-0.37-1.06-0.56-1.85-0.56 c-0.65,0-1.14,0.14-1.46,0.41c-0.33,0.27-0.49,0.61-0.49,1c0,0.28,0.13,0.54,0.4,0.77c0.26,0.24,0.88,0.46,1.86,0.66 c2.43,0.52,4.17,1.06,5.22,1.59c1.05,0.54,1.82,1.2,2.3,2c0.48,0.79,0.72,1.68,0.72,2.67c0,1.15-0.32,2.22-0.96,3.19 c-0.64,0.97-1.53,1.71-2.68,2.22c-1.14,0.5-2.59,0.75-4.33,0.75c-3.06,0-5.18-0.59-6.36-1.77C92.9,86.38,92.23,84.88,92.08,83.06 L92.08,83.06z M97.79,57h9.93c4.16,0,7.56,3.41,7.56,7.56v31.42c0,4.15-3.41,7.56-7.56,7.56h-9.93v13.55c0,1.61-0.65,3.04-1.7,4.1 c-1.06,1.06-2.49,1.7-4.1,1.7c-29.44,0-56.59,0-86.18,0c-1.61,0-3.04-0.64-4.1-1.7c-1.06-1.06-1.7-2.49-1.7-4.1V5.85 c0-1.61,0.65-3.04,1.7-4.1c1.06-1.06,2.53-1.7,4.1-1.7h58.72C64.66,0,64.8,0,64.94,0c0.64,0,1.29,0.28,1.75,0.69h0.09 c0.09,0.05,0.14,0.09,0.23,0.18l29.99,30.36c0.51,0.51,0.88,1.2,0.88,1.98c0,0.23-0.05,0.41-0.09,0.65V57L97.79,57z M67.52,27.97 V8.94l21.43,21.7H70.19c-0.74,0-1.38-0.32-1.89-0.78C67.84,29.4,67.52,28.71,67.52,27.97L67.52,27.97z"/></g></svg>