<?xml version="1.0" encoding="utf-8"?><svg version="1.1" id="Layer_1" xmlns="http://www.w3.org/2000/svg" xmlns:xlink="http://www.w3.org/1999/xlink" x="0px" y="0px" viewBox="0 0 61.36 122.88" style="enable-background:new 0 0 61.36 122.88" xml:space="preserve"><style type="text/css">.st0{fill-rule:evenodd;clip-rule:evenodd;}</style><g><path class="st0" d="M4.09,11.87h18.2l39.07,43.97v62.95c0,2.25-1.84,4.09-4.09,4.09H4.09c-2.25,0-4.09-1.84-4.09-4.09V15.96 C0,13.71,1.84,11.87,4.09,11.87L4.09,11.87z M57.39,0l-6.56,6.3l2.9,3.3l6.76-6.3L57.39,0L57.39,0z M29.33,14.35L44.87,2.71 l12.4,14.2l-13.2,13.55L29.33,14.35L29.33,14.35z M15.41,64.72h29.75v3.34H15.41V64.72L15.41,64.72z M15.41,81.31h29.75v3.34H15.41 V81.31L15.41,81.31z M15.41,97.9h29.75v3.34H15.41V97.9L15.41,97.9z M11.87,55.98h37.34c1.42,0,2.58,1.16,2.58,2.57v51.99 c0,1.42-1.16,2.58-2.58,2.58H11.87c-1.42,0-2.58-1.16-2.58-2.58V58.56C9.29,57.14,10.45,55.98,11.87,55.98L11.87,55.98z"/></g></svg>