<svg xmlns="http://www.w3.org/2000/svg" viewBox="0 0 122.88 98.87"><title>coffeescript</title><path d="M48.77,4.35c.12.67-.22,1.23-1.34,1.79a15.11,15.11,0,0,0-7.15-1c-2.8.22-5.14,1.11-4.81,3s3.13,3,7.94,2.57C55.15,9.72,55,1.78,72.25.22,85.66-1,93.15,3.12,94.15,8.15c.79,3.92-2.45,7.72-12.18,8.5-8.6.78-13.64-1.56-14.08-3.91-.23-1.23.44-3,4.58-3.47.45,1.9,2.8,3.92,8.38,3.36,4-.34,7.38-1.79,6.93-4s-4.69-3.69-11.4-3.13c-13.63,1.23-17,8.72-28.61,9.73C39.5,16,32.79,13,31.89,8.49c-.33-1.68-.33-5.59,8.39-6.37,4.47-.34,8,.45,8.49,2.24ZM5.18,51.07A23.21,23.21,0,0,0,0,67c.34,5.47,3,9.94,7.27,13.41a17.56,17.56,0,0,0,14.75,3.46c2.12-.33,4.47-1.45,6.6-2.12a18.59,18.59,0,0,1-12.08-4.47A18.19,18.19,0,0,1,9,64.82a16.64,16.64,0,0,1,2.69-13.19A17.43,17.43,0,0,1,23.74,45a21,21,0,0,1,14.08,4.14,29.64,29.64,0,0,0-3.8-3.8c-4.47-3-9.28-4.48-15.2-3A22.84,22.84,0,0,0,5.18,51.08ZM65.09,25.25a179.41,179.41,0,0,1-36.55-3.46c-9.94-2.46-15.2-5.14-15.2-8.61,0-1.45.67-2.68,2.68-4.13-6.26,2.46-9.61,4.47-9.61,7.6.34,3.46,5.92,6.93,17.33,9.61,10.73,2.68,24.47,4.14,41,4.14,16.87,0,30.29-1.46,41-4.14,11.4-2.68,16.87-6.26,16.87-9.61,0-2.46-2.45-4.81-6.92-6.6a3.79,3.79,0,0,1,1.78,3c0,3.47-5.14,6.26-15.53,8.61a173,173,0,0,1-36.89,3.57Zm41.14,9.62C95.5,37.33,81.75,39,65.21,39a193.62,193.62,0,0,1-41.36-4.13c-9.61-2.46-14.76-5.14-16.54-7.94a101.49,101.49,0,0,0,11.4,33.53C22.84,66.72,27,72.2,31.11,78.12a43.23,43.23,0,0,1,3.8,10.4,20,20,0,0,0,11.41,7.6A46.53,46.53,0,0,0,64.65,98.8h.67a51.91,51.91,0,0,0,18.89-2.68,21.38,21.38,0,0,0,11.06-7.6h.34a42.36,42.36,0,0,1,3.46-10.4c4.14-5.92,8.27-11.4,12.41-17.66a107.82,107.82,0,0,0,11.4-33.53c-2.24,3.13-7.38,5.81-16.66,7.94Z"/></svg>