<?xml version="1.0" encoding="utf-8"?><svg version="1.1" id="Layer_1" xmlns="http://www.w3.org/2000/svg" xmlns:xlink="http://www.w3.org/1999/xlink" x="0px" y="0px" viewBox="0 0 92.26 122.88" style="enable-background:new 0 0 92.26 122.88" xml:space="preserve"><style type="text/css">.st0{fill-rule:evenodd;clip-rule:evenodd;}</style><g><path class="st0" d="M47.49,116.85c6.31-4.02,11.98-8.87,16.92-14.29c10.73-11.75,17.97-26.11,20.87-40.2 c2.88-13.9,1.52-27.54-4.86-38.06c-1.81-3.02-4.08-5.79-6.78-8.26c-7.74-7.05-16.6-10.41-25.52-10.5 c-9.37-0.07-18.87,3.45-27.27,10.14c-3.58,2.86-6.53,6.15-8.82,9.78c-5.9,9.28-7.69,20.8-5.74,32.85 c1.97,12.23,7.78,25.02,17.04,36.61c6.44,8.08,14.54,15.58,24.18,21.91L47.49,116.85L47.49,116.85L47.49,116.85z M63.5,46.38h-2.07 v6.19h2.08v0.01c0.43,0,0.82-0.18,1.11-0.47l0.05-0.05c0.25-0.28,0.41-0.65,0.41-1.05l0,0V51h0v-3.04h0v0h0 c0-0.43-0.18-0.82-0.47-1.11c-0.29-0.29-0.68-0.46-1.11-0.47v0H63.5L63.5,46.38L63.5,46.38z M37.24,25.33 c0.66-0.43,1.53-0.24,1.95,0.44c0.42,0.68,0.23,1.58-0.43,2.01c-1.2,0.79-1.2,1.41-0.84,1.96c0.32,0.48,0.8,1,1.29,1.51 c0.67,0.72,1.34,1.43,1.81,2.26c1.1,1.96,1,3.91-2.45,5.85c-0.68,0.38-1.54,0.12-1.91-0.58c-0.37-0.71-0.12-1.59,0.56-1.97 c1.44-0.81,1.63-1.37,1.36-1.84c-0.28-0.49-0.83-1.09-1.39-1.68c-0.57-0.61-1.15-1.23-1.6-1.9C34.3,29.43,34.07,27.43,37.24,25.33 L37.24,25.33z M53.14,25.33c0.66-0.43,1.53-0.24,1.95,0.44c0.42,0.68,0.23,1.58-0.43,2.01c-1.2,0.79-1.2,1.41-0.84,1.96 c0.32,0.48,0.8,1,1.29,1.51c0.67,0.72,1.35,1.43,1.81,2.26c1.1,1.96,1,3.91-2.45,5.85c-0.68,0.38-1.54,0.12-1.91-0.58 c-0.37-0.71-0.12-1.59,0.56-1.97c1.44-0.81,1.62-1.37,1.36-1.84c-0.28-0.49-0.83-1.09-1.39-1.68c-0.57-0.61-1.15-1.23-1.6-1.9 C50.2,29.43,49.97,27.43,53.14,25.33L53.14,25.33z M45.19,25.33c0.66-0.43,1.53-0.24,1.95,0.44c0.42,0.68,0.23,1.58-0.43,2.01 c-1.2,0.79-1.2,1.41-0.84,1.96c0.32,0.48,0.8,1,1.29,1.51c0.67,0.72,1.34,1.43,1.81,2.26c1.1,1.96,1,3.91-2.45,5.85 c-0.68,0.38-1.54,0.12-1.91-0.58c-0.37-0.71-0.12-1.59,0.56-1.97c1.44-0.81,1.62-1.37,1.36-1.84c-0.28-0.49-0.83-1.09-1.39-1.68 c-0.57-0.61-1.15-1.23-1.6-1.9C42.25,29.43,42.02,27.43,45.19,25.33L45.19,25.33z M29.71,67.22h9.73 c-4.59-2.3-7.77-7.05-7.77-12.51V43.44h27.96v0.15c0.12-0.03,0.25-0.05,0.38-0.05l3.51,0v0.01h0.01c1.21,0,2.3,0.5,3.1,1.29 c0.8,0.8,1.3,1.9,1.3,3.11h0.01v0.01h-0.01v2.98l0,0.06h0v0.01h-0.01v0c0,1.16-0.46,2.21-1.19,3c-0.03,0.04-0.06,0.07-0.1,0.1 c-0.79,0.79-1.9,1.29-3.12,1.29v0.01l-3.5,0c-0.14,0-0.27-0.02-0.39-0.06c-0.24,5.19-3.34,9.66-7.75,11.87h10.49 c0.29,0,0.53,0.29,0.53,0.64v2.68c0,0.35-0.24,0.63-0.53,0.63H29.71c-0.29,0-0.53-0.28-0.53-0.63v-2.68 C29.18,67.51,29.42,67.22,29.71,67.22L29.71,67.22L29.71,67.22z M68.52,106.27c-5.6,6.13-12.09,11.61-19.42,16.06 c-0.88,0.66-2.13,0.75-3.13,0.11c-10.8-6.87-19.85-15.13-26.99-24.09C9.15,86.02,2.94,72.34,0.83,59.16 c-2.16-13.36-0.14-26.2,6.51-36.68c2.63-4.13,5.97-7.89,10.07-11.14C26.78,3.88,37.51-0.07,48.17,0 c10.28,0.09,20.42,3.9,29.22,11.93c3.08,2.81,5.67,5.99,7.78,9.48c7.15,11.77,8.69,26.81,5.56,42.01 c-3.11,15.04-10.8,30.33-22.19,42.8L68.52,106.27L68.52,106.27L68.52,106.27z"/></g></svg>