<?xml version="1.0" encoding="utf-8"?><svg version="1.1" id="Layer_1" xmlns="http://www.w3.org/2000/svg" xmlns:xlink="http://www.w3.org/1999/xlink" x="0px" y="0px" viewBox="0 0 122.88 122.88" style="enable-background:new 0 0 122.88 122.88" xml:space="preserve"><style type="text/css"><![CDATA[
	.st0{fill-rule:evenodd;clip-rule:evenodd;}
]]></style><g><path class="st0" d="M61.44,0c16.96,0,32.33,6.88,43.44,18c11.12,11.12,18,26.48,18,43.44c0,16.97-6.88,32.33-18,43.45 c-11.12,11.12-26.48,18-43.44,18S29.11,116,18,104.88C6.88,93.77,0,78.41,0,61.44C0,44.48,6.88,29.11,18,18 C29.11,6.88,44.48,0,61.44,0L61.44,0z M92.64,63.28h-9.4l-4.36,20.75H67.62l-4.87-20.75h-2.34l-4.74,20.75H44.41l-4.37-20.75h-9.79 v-6.33h8.4l-0.76-3.61h-7.65v-6.33h6.32l-1.71-8.16H45.6l1.52,8.16h8.1l1.77-8.16h9.17L68,47.02h8.16l1.46-8.16h10.82l-1.72,8.16 h5.92v6.33h-7.3l-0.77,3.61h8.07V63.28L92.64,63.28z M73.19,63.28H71.6l0.89,3.92L73.19,63.28L73.19,63.28z M51.62,63.28H50.1 l0.69,3.92L51.62,63.28L51.62,63.28z M48.9,56.95H53l0.83-3.61h-5.57L48.9,56.95L48.9,56.95z M70.21,56.95h4.11l0.7-3.61h-5.64 L70.21,56.95L70.21,56.95z M61.44,17.24c24.41,0,44.2,19.79,44.2,44.19c0,24.41-19.79,44.2-44.2,44.2 c-24.41,0-44.2-19.79-44.2-44.2C17.24,37.03,37.03,17.24,61.44,17.24L61.44,17.24z M61.44,8.74c29.11,0,52.7,23.6,52.7,52.7 c0,29.11-23.6,52.7-52.7,52.7c-29.11,0-52.7-23.59-52.7-52.7C8.74,32.33,32.33,8.74,61.44,8.74L61.44,8.74z"/></g></svg>