<svg id="Layer_1" data-name="Layer 1" xmlns="http://www.w3.org/2000/svg" viewBox="0 0 122.88 122.88"><defs><style>.cls-1{fill-rule:evenodd;}</style></defs><title>coin-pound</title><path class="cls-1" d="M61.44,0a61.29,61.29,0,0,1,43.37,17.92l.07.08.08.07a61.23,61.23,0,0,1,17.92,43.29v.08h0v.07h0A61.25,61.25,0,0,1,105,104.81l-.08.07-.07.08a61.44,61.44,0,0,1-86.74,0l-.07-.08-.08-.07a61.44,61.44,0,0,1,0-86.76h0L18,18h0l.05-.05h0A61.26,61.26,0,0,1,61.44,0ZM59.8,57.42h9.91v7.82H61a17,17,0,0,1-1,5,12.85,12.85,0,0,1-2.29,3.51,14.78,14.78,0,0,1,3.13-.41,20,20,0,0,1,4.35.64,27.64,27.64,0,0,0,5.85.84,14.15,14.15,0,0,0,3.11-.31,18.64,18.64,0,0,0,3.47-1.27L82,83a29.1,29.1,0,0,1-5.68,2.23,21,21,0,0,1-5.25.62,27.39,27.39,0,0,1-7-1.07c-3.46-1-5.6-1.49-6.43-1.65A15,15,0,0,0,55,82.89a18.81,18.81,0,0,0-9.29,3l-4.23-9.3q6.89-4.91,6.88-9.82c0-.18,0-.67-.06-1.48H41.43V57.42h4.88c-.83-2.86-1.31-4.53-1.41-5a14.18,14.18,0,0,1-.2-2.57,12.84,12.84,0,0,1,2.18-7.32,12.35,12.35,0,0,1,5.7-4.71,25.39,25.39,0,0,1,9.54-1.47A25.66,25.66,0,0,1,71,37.62a12.74,12.74,0,0,1,5.54,4.17,16.93,16.93,0,0,1,3.12,7.06L67.17,50.8q-.94-3.46-2.16-4.61a4,4,0,0,0-2.78-1.13,4,4,0,0,0-3,1.23A4.93,4.93,0,0,0,58,49.8a11.8,11.8,0,0,0,.23,2.33q.23,1.14,1.56,5.29Zm1.64-40.48a44.5,44.5,0,1,1-44.5,44.5,44.5,44.5,0,0,1,44.5-44.5Zm2.67-4.33a48.78,48.78,0,0,1,7.4,1l1.86-7A56.38,56.38,0,0,0,64.11,5.4v7.21ZM76.66,15a49.11,49.11,0,0,1,6.9,2.86l3.6-6.24A54.18,54.18,0,0,0,78.52,8l-1.86,7Zm11.5,5.53A49.39,49.39,0,0,1,94.08,25l5.1-5.09a56.31,56.31,0,0,0-7.41-5.7l-3.61,6.25Zm9.69,8.32a47.47,47.47,0,0,1,4.55,5.92l6.25-3.6A55.56,55.56,0,0,0,103,23.7l-5.1,5.1Zm7.22,10.52a49.11,49.11,0,0,1,2.86,6.9l7-1.86a55.12,55.12,0,0,0-3.58-8.64l-6.24,3.6Zm4.24,12a48.78,48.78,0,0,1,1,7.4h7.21a56.38,56.38,0,0,0-1.21-9.26l-7,1.86Zm1,12.74a48.78,48.78,0,0,1-1,7.4l7,1.86a56.38,56.38,0,0,0,1.21-9.26Zm-2.34,12.55a49.11,49.11,0,0,1-2.86,6.9l6.24,3.6a55.12,55.12,0,0,0,3.58-8.64l-7-1.86Zm-5.53,11.5a47.47,47.47,0,0,1-4.55,5.92l5.1,5.1a56.11,56.11,0,0,0,5.7-7.41l-6.25-3.61Zm-8.32,9.69a48.45,48.45,0,0,1-5.92,4.55l3.61,6.25a56.31,56.31,0,0,0,7.41-5.7l-5.1-5.1Zm-10.52,7.22a49.11,49.11,0,0,1-6.9,2.86l1.86,7a54.18,54.18,0,0,0,8.64-3.58l-3.6-6.24Zm-12,4.24a48.78,48.78,0,0,1-7.4,1v7.21a56.38,56.38,0,0,0,9.26-1.21l-1.86-7Zm-12.74,1a48.48,48.48,0,0,1-7.39-1l-1.87,7a56.38,56.38,0,0,0,9.26,1.21v-7.21Zm-12.54-2.34a48.75,48.75,0,0,1-6.91-2.86l-3.6,6.24a55.12,55.12,0,0,0,8.64,3.58l1.87-7ZM34.72,102.4a48.45,48.45,0,0,1-5.92-4.55L23.7,103a55.46,55.46,0,0,0,7.41,5.7l3.61-6.25ZM25,94.08a49.39,49.39,0,0,1-4.54-5.92l-6.25,3.61a56.11,56.11,0,0,0,5.7,7.41L25,94.08ZM17.81,83.56A49.11,49.11,0,0,1,15,76.66L8,78.52a55.12,55.12,0,0,0,3.58,8.64l6.24-3.6Zm-4.24-12a48.78,48.78,0,0,1-1-7.4H5.4a56.38,56.38,0,0,0,1.21,9.26l7-1.86Zm-1-12.74a48.78,48.78,0,0,1,1-7.4l-7-1.86A56.38,56.38,0,0,0,5.4,58.77ZM15,46.22a49.11,49.11,0,0,1,2.86-6.9l-6.24-3.6A55.12,55.12,0,0,0,8,44.36l7,1.86Zm5.52-11.5A49.47,49.47,0,0,1,25,28.8l-5.09-5.1a56.11,56.11,0,0,0-5.7,7.41l6.24,3.61ZM28.8,25a49.39,49.39,0,0,1,5.92-4.54l-3.61-6.25a56.31,56.31,0,0,0-7.41,5.7L28.8,25Zm10.52-7.21A49.11,49.11,0,0,1,46.22,15L44.36,8a54.18,54.18,0,0,0-8.64,3.58l3.6,6.24Zm12-4.24a48.78,48.78,0,0,1,7.4-1V5.4a56.38,56.38,0,0,0-9.26,1.21l1.86,7Z"/></svg>