<svg id="Layer_1" data-name="Layer 1" xmlns="http://www.w3.org/2000/svg" viewBox="0 0 122.88 122.88"><defs><style>.cls-1{fill-rule:evenodd;}</style></defs><title>coin-euro</title><path class="cls-1" d="M61.44,0a61.29,61.29,0,0,1,43.37,17.92l.07.07.08.08a61.23,61.23,0,0,1,17.92,43.29v.08h0v.07h0A61.25,61.25,0,0,1,105,104.81l-.08.08-.07.07a61.44,61.44,0,0,1-86.74,0l-.07-.07-.08-.08a61.44,61.44,0,0,1,0-86.76h0L18,18h0l.05,0h0A61.26,61.26,0,0,1,61.44,0Zm7.33,63.2-1.51,6.3H56.76c1.36,4.29,4.32,6.44,8.85,6.44a23,23,0,0,0,14-4.81V84a22.54,22.54,0,0,1-13,3.68q-12.33,0-18.25-5.63A23.32,23.32,0,0,1,41.09,69.5H34.83l1.64-6.3H40.3a15.08,15.08,0,0,1-.07-1.83,18.89,18.89,0,0,1,.07-2H35.68l1.64-6.3h3.77c4.47-17.69,23.35-21.9,38.06-14.22L76,51.38q-4.69-4.31-9.82-4.31-6.7,0-9.07,6H69.62l-1.51,6.3H55.94c0,.46-.07,1.12-.07,2V63.2ZM61.44,16.94a44.5,44.5,0,1,1-44.5,44.5,44.5,44.5,0,0,1,44.5-44.5Zm2.67-4.33a48.78,48.78,0,0,1,7.4,1l1.86-7A56.38,56.38,0,0,0,64.11,5.4v7.21ZM76.66,15a49.11,49.11,0,0,1,6.9,2.86l3.6-6.24A55.16,55.16,0,0,0,78.52,8l-1.86,7Zm11.5,5.53A47.47,47.47,0,0,1,94.08,25l5.1-5.1a56.31,56.31,0,0,0-7.41-5.7l-3.61,6.25Zm9.69,8.32a48.53,48.53,0,0,1,4.56,5.92l6.24-3.6A55.56,55.56,0,0,0,103,23.7l-5.1,5.1Zm7.22,10.52a48.62,48.62,0,0,1,2.86,6.9l7-1.86a55.63,55.63,0,0,0-3.58-8.65l-6.24,3.61Zm4.24,12a50.07,50.07,0,0,1,1,7.4h7.21a56.38,56.38,0,0,0-1.21-9.26l-7,1.86Zm1,12.74a48.78,48.78,0,0,1-1,7.4l7,1.86a56.38,56.38,0,0,0,1.21-9.26Zm-2.34,12.55a49.11,49.11,0,0,1-2.86,6.9l6.24,3.61a55.63,55.63,0,0,0,3.58-8.65l-7-1.86Zm-5.53,11.5a47.47,47.47,0,0,1-4.55,5.92l5.1,5.1a55.46,55.46,0,0,0,5.7-7.41l-6.25-3.61Zm-8.32,9.69a48.45,48.45,0,0,1-5.92,4.55l3.61,6.24A55.39,55.39,0,0,0,99.18,103l-5.1-5.1Zm-10.52,7.22a49.11,49.11,0,0,1-6.9,2.86l1.86,7a54.18,54.18,0,0,0,8.64-3.58l-3.6-6.24Zm-12,4.24a48.78,48.78,0,0,1-7.4,1v7.21a56.38,56.38,0,0,0,9.26-1.21l-1.86-7Zm-12.74,1a48.78,48.78,0,0,1-7.4-1l-1.86,7a56.38,56.38,0,0,0,9.26,1.21v-7.21Zm-12.55-2.34a49.11,49.11,0,0,1-6.9-2.86l-3.6,6.24a55.12,55.12,0,0,0,8.64,3.58l1.86-7Zm-11.5-5.53a48.45,48.45,0,0,1-5.92-4.55L23.7,103a55.46,55.46,0,0,0,7.41,5.7l3.61-6.25ZM25,94.08a48.45,48.45,0,0,1-4.55-5.92l-6.25,3.61a55.46,55.46,0,0,0,5.7,7.41l5.1-5.1ZM17.81,83.56A49.11,49.11,0,0,1,15,76.66L8,78.52a55.63,55.63,0,0,0,3.58,8.65l6.24-3.61Zm-4.24-12a50.07,50.07,0,0,1-1-7.4H5.4a56.38,56.38,0,0,0,1.21,9.26l7-1.86Zm-1-12.74a48.78,48.78,0,0,1,1-7.4l-7-1.86A56.38,56.38,0,0,0,5.4,58.77ZM15,46.22a48.62,48.62,0,0,1,2.86-6.9l-6.24-3.61A55.63,55.63,0,0,0,8,44.36l7,1.86Zm5.52-11.5A48.53,48.53,0,0,1,25,28.8l-5.1-5.1a55.46,55.46,0,0,0-5.7,7.41l6.24,3.61ZM28.8,25a48.37,48.37,0,0,1,5.92-4.54l-3.61-6.25a56.31,56.31,0,0,0-7.41,5.7L28.8,25Zm10.52-7.21A49.11,49.11,0,0,1,46.22,15L44.36,8a55.16,55.16,0,0,0-8.64,3.59l3.6,6.24Zm12-4.24a48.78,48.78,0,0,1,7.4-1V5.4a56.38,56.38,0,0,0-9.26,1.21l1.86,7Z"/></svg>