<svg id="Layer_1" data-name="Layer 1" xmlns="http://www.w3.org/2000/svg" viewBox="0 0 122.88 122.88"><defs><style>.cls-1{fill-rule:evenodd;}</style></defs><title>coin-rupee</title><path class="cls-1" d="M61.44,0a61.29,61.29,0,0,1,43.37,17.92l.07.07.08.08a61.27,61.27,0,0,1,17.92,43.29v.08h0v.07h0A61.29,61.29,0,0,1,105,104.81l-.08.07-.07.08a61.44,61.44,0,0,1-86.74,0l-.07-.08-.08-.07a61.44,61.44,0,0,1,0-86.76h0L18,18h0l.05,0h0A61.26,61.26,0,0,1,61.44,0Zm-20,56.08,3.39-7.65H57.61a4.8,4.8,0,0,0-.84-1.59,5.93,5.93,0,0,0-1.5-1.36,8.2,8.2,0,0,0-2-.93A7.41,7.41,0,0,0,51,44.19H41.41l3.39-7.65H81.47l-3.39,7.65H69.22a6.13,6.13,0,0,1,1,.94,7.71,7.71,0,0,1,.8,1.1,10.33,10.33,0,0,1,.58,1.15,5.16,5.16,0,0,1,.3,1h9.6l-3.39,7.65h-7a12.83,12.83,0,0,1-2.27,3.69,18.87,18.87,0,0,1-3.51,3.13A23,23,0,0,1,61,65.23a20.41,20.41,0,0,1-4.77,1.27L75.49,86.34H60.26L43.08,67.49v-7h7.6a6.7,6.7,0,0,0,2.16-.36,8.06,8.06,0,0,0,2-1,7.24,7.24,0,0,0,1.57-1.39,5,5,0,0,0,.93-1.66Zm20-39.14a44.5,44.5,0,1,1-44.5,44.5,44.5,44.5,0,0,1,44.5-44.5Zm2.67-4.33a48.78,48.78,0,0,1,7.4,1l1.86-7A56.38,56.38,0,0,0,64.11,5.4v7.21ZM76.66,15a49.11,49.11,0,0,1,6.9,2.86l3.6-6.24A54.18,54.18,0,0,0,78.52,8l-1.86,7Zm11.5,5.53A48.37,48.37,0,0,1,94.08,25l5.1-5.09a55.46,55.46,0,0,0-7.41-5.7l-3.61,6.25Zm9.7,8.32a48.37,48.37,0,0,1,4.54,5.92l6.25-3.6A55.56,55.56,0,0,0,103,23.7l-5.09,5.1Zm7.21,10.52a49.11,49.11,0,0,1,2.86,6.9l7-1.86a55.12,55.12,0,0,0-3.58-8.64l-6.24,3.6Zm4.24,12a48.78,48.78,0,0,1,1,7.4h7.21a56.38,56.38,0,0,0-1.21-9.26l-7,1.86Zm1,12.74a48.78,48.78,0,0,1-1,7.4l7,1.86a56.38,56.38,0,0,0,1.21-9.26Zm-2.34,12.55a49.11,49.11,0,0,1-2.86,6.9l6.24,3.6a55.12,55.12,0,0,0,3.58-8.64l-7-1.86Zm-5.53,11.5a47.47,47.47,0,0,1-4.55,5.92l5.1,5.1a55.56,55.56,0,0,0,5.7-7.42l-6.25-3.6Zm-8.32,9.69a48.45,48.45,0,0,1-5.92,4.55l3.61,6.25a56.31,56.31,0,0,0,7.41-5.7l-5.1-5.1Zm-10.52,7.22a49.11,49.11,0,0,1-6.9,2.86l1.86,7a54.18,54.18,0,0,0,8.64-3.58l-3.6-6.24Zm-12,4.24a48.78,48.78,0,0,1-7.4,1v7.21a56.38,56.38,0,0,0,9.26-1.21l-1.86-7Zm-12.74,1a48.78,48.78,0,0,1-7.4-1l-1.86,7a56.38,56.38,0,0,0,9.26,1.21v-7.21Zm-12.55-2.34a49.11,49.11,0,0,1-6.9-2.86l-3.6,6.24a55.12,55.12,0,0,0,8.64,3.58l1.86-7Zm-11.5-5.53a48.45,48.45,0,0,1-5.92-4.55L23.7,103a55.46,55.46,0,0,0,7.41,5.7l3.61-6.25ZM25,94.08a48.45,48.45,0,0,1-4.55-5.92l-6.25,3.6a55.56,55.56,0,0,0,5.7,7.42l5.1-5.1ZM17.81,83.56A49.11,49.11,0,0,1,15,76.66L8,78.52a55.12,55.12,0,0,0,3.58,8.64l6.24-3.6Zm-4.24-12a48.78,48.78,0,0,1-1-7.4H5.4a56.38,56.38,0,0,0,1.21,9.26l7-1.86Zm-1-12.74a48.78,48.78,0,0,1,1-7.4l-7-1.86A56.38,56.38,0,0,0,5.4,58.77ZM15,46.22a49.11,49.11,0,0,1,2.86-6.9l-6.24-3.6A55.12,55.12,0,0,0,8,44.36l7,1.86Zm5.52-11.5A49.47,49.47,0,0,1,25,28.8l-5.09-5.1a54.93,54.93,0,0,0-5.7,7.42l6.24,3.6ZM28.8,25a48.37,48.37,0,0,1,5.92-4.54l-3.61-6.25a56.31,56.31,0,0,0-7.41,5.7L28.8,25Zm10.52-7.21A49.11,49.11,0,0,1,46.22,15L44.36,8a54.18,54.18,0,0,0-8.64,3.58l3.6,6.24Zm12-4.24a48.78,48.78,0,0,1,7.4-1V5.4a56.38,56.38,0,0,0-9.26,1.21l1.86,7Z"/></svg>