<?xml version="1.0" encoding="utf-8"?><svg version="1.1" id="Layer_1" xmlns="http://www.w3.org/2000/svg" xmlns:xlink="http://www.w3.org/1999/xlink" x="0px" y="0px" viewBox="0 0 122.88 101.25" style="enable-background:new 0 0 122.88 101.25" xml:space="preserve"><g><path d="M9.42,8.13l50.51,55.83L113.18,8.1c-0.76-0.47-1.64-0.76-2.6-0.76H74.19l-63.4,0.18C10.3,7.65,9.83,7.86,9.42,8.13 L9.42,8.13L9.42,8.13z M65.79,76.5l-5.96-2.21L9.95,100.59c-4.3,1.68-8.4-0.23-8.96-11.61C0.34,65.53,0,37.18,0,13.73l0.02-1.55 c0-4.84,3.12-11.89,8.82-11.89h1.17c0.67-0.11,1.36-0.18,2.06-0.18V0.07h0.02H85L113.99,0l0,0c5.91,0,8.69,7.3,8.69,12.18v0.02 c-0.03,16.84,1.22,69.31-2.19,82.38c-2.66,10.23-11.39,6.4-18.33,3.45L65.79,76.5L65.79,76.5L65.79,76.5z M53.3,67.47L7.23,16.36 v72.4c0,3.34,3.29,2.38,7.19,0.99C25.68,85.76,47.61,70.11,53.3,67.47L53.3,67.47L53.3,67.47z M115.43,16.32L66.53,67.45 l44.06,26.17c2.4,1.16,4.86-2.19,4.86-4.86V16.32H115.43L115.43,16.32z"/></g></svg>