<?xml version="1.0" encoding="utf-8"?><svg version="1.1" id="Layer_1" xmlns="http://www.w3.org/2000/svg" xmlns:xlink="http://www.w3.org/1999/xlink" x="0px" y="0px" viewBox="0 0 98.35 122.88" style="enable-background:new 0 0 98.35 122.88" xml:space="preserve"><g><path d="M43.76,91.58c-0.05,0.2-0.14,0.38-0.25,0.54c-0.08,0.11-0.18,0.22-0.29,0.3c-0.25,1.7-0.37,3.63-0.35,5.66 c0.02,2.08,0.19,4.26,0.5,6.4c0.3,2.08,0.74,4.1,1.32,5.94c0.53,1.7,1.18,3.24,1.94,4.51c0.07,0.12,0.13,0.24,0.16,0.37 c0.04,0.13,0.06,0.26,0.07,0.39c0.08,1.03,0.27,1.84,0.53,2.46c0.28,0.65,0.64,1.07,1.04,1.3c0.13,0.07,0.26,0.13,0.4,0.16 c0.14,0.03,0.29,0.04,0.43,0.03c0.16-0.01,0.32-0.05,0.49-0.11c0.17-0.06,0.34-0.15,0.51-0.26c0.54-0.35,1.02-0.92,1.36-1.68 c0.31-0.7,0.51-1.56,0.51-2.56c0-0.17,0.03-0.33,0.07-0.48c0.05-0.15,0.11-0.29,0.2-0.41l0.01-0.02c0.5-0.72,0.91-1.71,1.22-2.85 c0.34-1.25,0.58-2.69,0.7-4.17c0.13-1.58,0.12-3.18-0.01-4.64c-0.13-1.41-0.38-2.68-0.74-3.68c-0.15-0.42-0.12-0.86,0.06-1.24 c0.18-0.37,0.49-0.68,0.91-0.83c0.23-0.08,0.47-0.11,0.7-0.09c0.24,0.02,0.46,0.1,0.66,0.21c0.33,0.17,0.64,0.38,0.91,0.61 l0.05,0.04c0.01-0.47,0.04-0.91,0.09-1.33c0.09-0.72,0.25-1.37,0.47-1.94c0.28-0.72,0.64-1.34,1.1-1.85 c0.46-0.52,1.01-0.93,1.64-1.24c0.4-0.2,0.84-0.22,1.23-0.09c0.39,0.13,0.73,0.41,0.93,0.81c0.09,0.17,0.14,0.35,0.16,0.53 c0.02,0.17,0.01,0.34-0.02,0.5l-0.01,0.06c-0.37,1.56-0.49,2.92-0.42,4.07c0.07,1.25,0.36,2.25,0.8,2.97 c0.15,0.25,0.31,0.46,0.49,0.64c0.17,0.17,0.36,0.31,0.55,0.4c0.16,0.08,0.33,0.14,0.51,0.16c0.18,0.02,0.36,0.02,0.55-0.02 c0.39-0.08,0.79-0.28,1.2-0.62c0.4-0.34,0.79-0.8,1.16-1.4c0.23-0.37,0.58-0.62,0.97-0.72c0.38-0.1,0.8-0.06,1.17,0.14l0.03,0.02 c0.29,0.16,0.58,0.28,0.86,0.34c0.28,0.06,0.55,0.08,0.81,0.04c0.29-0.04,0.58-0.13,0.89-0.27c0.32-0.15,0.65-0.36,0.98-0.62 c0.25-0.2,0.54-0.31,0.83-0.34c0.29-0.03,0.58,0.02,0.85,0.14l0.04,0.02c0.88,0.44,1.66,0.68,2.35,0.76c0.67,0.08,1.25,0,1.77-0.2 c0.54-0.21,1.03-0.57,1.49-1.04c0.47-0.49,0.91-1.09,1.33-1.79c0.16-0.27,0.39-0.48,0.64-0.61c0.26-0.13,0.55-0.2,0.84-0.18l0.04,0 c0.47,0.04,0.89,0.03,1.26-0.02c0.38-0.05,0.72-0.14,1.01-0.27c0.29-0.13,0.53-0.29,0.73-0.49c0.21-0.2,0.37-0.43,0.48-0.7 c0.13-0.29,0.21-0.62,0.24-0.99c0.03-0.37,0.01-0.78-0.06-1.21c-0.1-0.6-0.31-1.24-0.62-1.9c-0.3-0.64-0.71-1.3-1.21-1.96 c-0.27-0.35-0.37-0.78-0.32-1.19v0c0.05-0.41,0.27-0.8,0.62-1.07c0.31-0.24,0.69-0.35,1.05-0.33c0.37,0.02,0.73,0.16,1.01,0.41 c0.55,0.44,1.04,0.72,1.48,0.85c0.43,0.13,0.8,0.13,1.08,0.01c0.12-0.05,0.24-0.13,0.34-0.22c0.11-0.1,0.21-0.22,0.3-0.36 c0.1-0.16,0.19-0.36,0.26-0.57c0.07-0.22,0.13-0.46,0.16-0.71c0.11-0.93-0.07-2.03-0.61-3.12c-0.48-0.97-1.25-1.94-2.36-2.79 c-0.35-0.27-0.56-0.66-0.61-1.07c-0.05-0.41,0.05-0.84,0.32-1.19c0.27-0.35,0.66-0.56,1.07-0.61c0.41-0.05,0.84,0.05,1.19,0.32l0,0 c1.27,0.89,2.27,1.5,3.01,1.84c0.59,0.28,0.96,0.37,1.11,0.29l0.02-0.02c0.21-0.16,0.3-0.67,0.3-1.52c0-0.95-0.15-2.26-0.42-3.95 c-0.04-0.26-0.02-0.52,0.06-0.75c0.08-0.23,0.2-0.44,0.37-0.62l0.03-0.03l0.02-0.02c0.17-0.17,0.29-0.36,0.37-0.58 c0.09-0.23,0.13-0.5,0.12-0.79c-0.01-0.38-0.09-0.8-0.23-1.28c-0.15-0.49-0.38-1.02-0.67-1.6c-0.16-0.31-0.21-0.65-0.16-0.97 c0.05-0.32,0.19-0.63,0.42-0.87c0.32-0.39,0.51-0.78,0.58-1.17c0.06-0.39,0.01-0.78-0.17-1.19c-0.24-0.56-0.68-1.15-1.3-1.78 c-0.63-0.64-1.46-1.31-2.47-2.02c-0.37-0.25-0.59-0.63-0.67-1.04c-0.07-0.41,0.01-0.84,0.26-1.21c0.21-0.3,0.5-0.51,0.83-0.61 c0.33-0.11,0.69-0.11,1.02,0c0.36,0.1,0.67,0.14,0.92,0.13c0.24,0,0.42-0.05,0.56-0.13c0.07-0.04,0.14-0.11,0.19-0.19 c0.07-0.1,0.12-0.23,0.16-0.39c0.06-0.23,0.08-0.48,0.08-0.76c0-0.29-0.04-0.62-0.11-0.96c-0.21-1.08-0.71-2.27-1.47-3.41 c-0.7-1.04-1.61-2.03-2.71-2.84c-0.36-0.26-0.58-0.65-0.64-1.06c-0.06-0.41,0.03-0.84,0.29-1.2c0.13-0.17,0.28-0.31,0.45-0.42 c0.17-0.11,0.36-0.18,0.56-0.22c0.77-0.19,1.34-0.39,1.71-0.61c0.3-0.17,0.45-0.33,0.47-0.48l0,0c0.03-0.23-0.08-0.55-0.33-0.95 c-0.28-0.45-0.72-0.97-1.29-1.56c-0.29-0.3-0.44-0.69-0.46-1.07c-0.01-0.38,0.11-0.77,0.37-1.08c0.01-0.02,0.02-0.03,0.04-0.05 c0.31-0.36,0.58-0.72,0.8-1.07c0.23-0.36,0.41-0.71,0.56-1.05c0.17-0.4,0.27-0.79,0.31-1.16c0.04-0.36,0.02-0.71-0.05-1.04 l-0.01-0.05c-0.08-0.32-0.22-0.63-0.42-0.93c-0.21-0.31-0.48-0.61-0.81-0.89c-0.29-0.25-0.63-0.49-1.01-0.71 c-0.38-0.22-0.81-0.43-1.28-0.63c-0.41-0.17-0.72-0.49-0.87-0.88c-0.16-0.38-0.17-0.83,0-1.24c0.09-0.22,0.23-0.41,0.39-0.57 c0.17-0.16,0.38-0.28,0.6-0.35l0,0c0.53-0.19,1.09-0.27,1.67-0.25c0.58,0.02,1.19,0.14,1.82,0.37c0.38,0.14,0.76,0.31,1.16,0.52 c0.26,0.14,0.53,0.3,0.8,0.47c0.04-0.12,0.07-0.25,0.09-0.37c0.06-0.28,0.08-0.57,0.09-0.86c0-0.53-0.08-1.11-0.25-1.72 c-0.17-0.62-0.44-1.28-0.79-1.97c-0.13-0.26-0.19-0.54-0.18-0.82c0.01-0.27,0.09-0.53,0.23-0.75l0.03-0.05 c0.09-0.14,0.17-0.27,0.25-0.41c0.22-0.39,0.36-0.75,0.42-1.08l0,0c0.06-0.31,0.06-0.6-0.01-0.85c-0.07-0.27-0.23-0.54-0.46-0.8 c-0.25-0.28-0.58-0.56-1.01-0.84c-0.11-0.07-0.2-0.13-0.27-0.17h0c-0.09-0.05-0.17-0.1-0.25-0.15c-0.39-0.22-0.66-0.57-0.77-0.97 c-0.11-0.4-0.07-0.84,0.14-1.23c0.06-0.11,0.13-0.2,0.21-0.29c0.08-0.09,0.17-0.17,0.26-0.24C93.16,15,93.64,14.5,94.01,14 c0.4-0.53,0.68-1.06,0.87-1.59c0.14-0.4,0.21-0.79,0.23-1.17c0.02-0.38-0.02-0.74-0.12-1.08c-0.09-0.33-0.25-0.64-0.45-0.93 c-0.2-0.28-0.46-0.54-0.77-0.77c-0.38-0.28-0.85-0.51-1.38-0.68c-0.52-0.17-1.12-0.28-1.79-0.32c-0.27-0.02-0.53-0.1-0.75-0.24 c-0.22-0.14-0.4-0.32-0.54-0.54c-0.09-0.14-0.2-0.26-0.31-0.36c-0.12-0.11-0.24-0.21-0.38-0.3c-0.29-0.18-0.61-0.3-0.96-0.37 c-0.38-0.07-0.79-0.08-1.2-0.04C86,5.66,85.54,5.77,85.09,5.94c-0.46,0.17-0.91,0.4-1.33,0.68c-0.36,0.24-0.7,0.52-1.01,0.83 c-0.3,0.3-0.56,0.63-0.79,0.99c-0.12,0.19-0.27,0.34-0.44,0.46c-0.18,0.12-0.37,0.21-0.58,0.25c-0.6,0.14-1.16,0.35-1.66,0.63 c-0.51,0.28-0.97,0.64-1.39,1.07c-0.44,0.46-0.83,1-1.17,1.65c-0.35,0.66-0.65,1.41-0.89,2.28c-0.1,0.37-0.33,0.68-0.63,0.89 c-0.3,0.21-0.67,0.32-1.05,0.29l0,0c-0.7-0.01-1.38,0.02-2.02,0.1c-0.64,0.08-1.23,0.21-1.77,0.42c-0.49,0.19-0.93,0.44-1.33,0.78 c-0.39,0.34-0.74,0.76-1.02,1.29c-0.12,0.22-0.28,0.4-0.46,0.54c-0.18,0.13-0.39,0.23-0.61,0.28l-0.05,0.01 c-0.26,0.05-0.49,0.14-0.69,0.25c-0.2,0.12-0.38,0.26-0.53,0.43c-0.18,0.21-0.35,0.45-0.5,0.73c-0.15,0.29-0.28,0.61-0.4,0.95 c-0.14,0.42-0.45,0.75-0.82,0.93c-0.37,0.18-0.81,0.22-1.23,0.08c-0.05-0.02-0.09-0.04-0.14-0.06c-0.62-0.27-1.21-0.46-1.79-0.59 c-0.58-0.13-1.14-0.19-1.68-0.2h0c-0.54,0-1.07,0.05-1.58,0.16c-0.52,0.11-1.03,0.27-1.53,0.47c-0.21,0.09-0.43,0.12-0.64,0.12 c-0.21,0-0.41-0.05-0.6-0.12l-0.04-0.02c-0.6-0.27-1.18-0.49-1.74-0.65c-0.56-0.16-1.1-0.27-1.62-0.33l0,0 c-0.5-0.05-0.98-0.06-1.46-0.02c-0.47,0.04-0.92,0.13-1.36,0.26c-0.27,0.08-0.54,0.09-0.79,0.04c-0.26-0.05-0.5-0.17-0.7-0.33 l-0.02-0.01c-0.59-0.49-1.18-0.87-1.78-1.15c-0.59-0.27-1.2-0.45-1.8-0.54c-0.62-0.09-1.26-0.09-1.9-0.01 c-0.66,0.08-1.33,0.24-2,0.47c-0.31,0.1-0.62,0.11-0.91,0.03c-0.29-0.07-0.55-0.22-0.76-0.44l-0.02-0.02l-0.03-0.03 c-0.51-0.55-0.99-0.99-1.46-1.35c-0.46-0.35-0.91-0.61-1.34-0.79c-0.37-0.15-0.73-0.24-1.08-0.27c-0.35-0.03-0.68,0.01-1.01,0.1 c-0.43,0.12-0.87,0.05-1.23-0.15c-0.35-0.2-0.62-0.52-0.75-0.93c-0.01-0.02-0.01-0.03-0.02-0.05c-0.09-0.34-0.21-0.65-0.36-0.94 c-0.14-0.29-0.31-0.56-0.51-0.81c-0.21-0.26-0.44-0.49-0.7-0.68c-0.25-0.18-0.51-0.33-0.79-0.43c-0.29-0.1-0.6-0.16-0.93-0.17 c-0.32-0.01-0.66,0.03-1.02,0.13l-0.05,0.01c-0.33,0.09-0.67,0.23-1.03,0.43c-0.35,0.19-0.71,0.43-1.08,0.72 c-0.35,0.28-0.78,0.39-1.19,0.34l-0.01,0c-0.41-0.05-0.79-0.25-1.07-0.6c-0.24-0.3-0.36-0.67-0.35-1.03 c0.01-0.36,0.13-0.72,0.37-1.01c0.46-0.64,0.82-1.2,1.05-1.67c0.2-0.41,0.29-0.73,0.25-0.91c0-0.01-0.1-0.04-0.32-0.09 c-0.34-0.08-0.87-0.11-1.6-0.11c-0.42,0-0.8-0.15-1.09-0.41c-0.28-0.25-0.47-0.59-0.53-0.98L19.97,8.1 c-0.1-0.92-0.29-1.71-0.56-2.36c-0.27-0.68-0.62-1.22-1.02-1.62h0c-0.17-0.17-0.36-0.32-0.55-0.44c-0.19-0.12-0.4-0.22-0.61-0.29 c-0.21-0.07-0.43-0.12-0.66-0.14c-0.23-0.02-0.47-0.02-0.72,0.01c-0.58,0.06-1.2,0.27-1.81,0.6c-0.61,0.33-1.23,0.8-1.82,1.4 c-0.1,0.1-0.21,0.18-0.33,0.25c-0.1,0.06-0.22,0.11-0.33,0.15l-0.05,0.02c-0.78,0.22-1.45,0.47-2.01,0.74 C8.95,6.68,8.49,6.97,8.13,7.27C7.87,7.5,7.67,7.72,7.54,7.95C7.4,8.18,7.33,8.4,7.31,8.63C7.29,8.89,7.33,9.18,7.43,9.48 c0.11,0.33,0.28,0.67,0.52,1.03c0.4,0.6,0.96,1.24,1.68,1.9c0.72,0.66,1.6,1.34,2.63,2.02c0.37,0.25,0.61,0.62,0.69,1.03 c0.08,0.41,0.01,0.84-0.24,1.21c-0.2,0.3-0.49,0.52-0.81,0.63c-0.33,0.12-0.69,0.13-1.02,0.02l-0.01,0 c-0.83-0.21-1.51-0.33-2.03-0.35c-0.45-0.02-0.74,0.04-0.88,0.17c-0.1,0.1-0.13,0.34-0.08,0.73c0.06,0.48,0.26,1.14,0.6,1.99 l0.01,0.02c0.09,0.25,0.12,0.51,0.09,0.76c-0.03,0.26-0.12,0.51-0.27,0.72c-0.25,0.45-0.44,0.91-0.57,1.36 c-0.13,0.45-0.19,0.91-0.18,1.36c0,0.46,0.08,0.94,0.24,1.42c0.16,0.49,0.39,1,0.7,1.51c0.18,0.3,0.26,0.64,0.23,0.96 c-0.02,0.33-0.15,0.65-0.37,0.91c-0.34,0.46-0.58,0.92-0.73,1.38c-0.15,0.46-0.21,0.92-0.18,1.38c0.03,0.49,0.16,1,0.4,1.52 c0.24,0.54,0.57,1.09,1.01,1.65C9.15,35.16,9.25,35.59,9.2,36c-0.05,0.41-0.26,0.8-0.61,1.07L8.55,37.1 c-1.15,0.86-2.06,1.62-2.65,2.27c-0.53,0.58-0.8,1.02-0.76,1.31c0.03,0.22,0.37,0.43,1.07,0.66c0.82,0.26,2.07,0.48,3.8,0.65 c0.44,0.04,0.83,0.26,1.09,0.58c0.26,0.32,0.4,0.74,0.36,1.18c-0.04,0.38-0.2,0.72-0.46,0.98c-0.24,0.25-0.57,0.42-0.93,0.47 c-0.02,0-0.04,0.01-0.06,0.01l-0.01,0c-1.28,0.15-2.37,0.4-3.29,0.72C5.76,46.28,5,46.71,4.42,47.2c-0.31,0.26-0.55,0.54-0.74,0.83 c-0.19,0.29-0.31,0.58-0.38,0.87c-0.07,0.28-0.08,0.57-0.04,0.87c0.04,0.3,0.13,0.6,0.27,0.91c0.22,0.47,0.57,0.94,1.03,1.39 c0.46,0.44,1.03,0.86,1.71,1.24c0.39,0.22,0.66,0.57,0.77,0.97c0.11,0.4,0.07,0.84-0.14,1.23l-0.08,0.12 c-0.65,1.02-1.14,1.9-1.42,2.62c-0.25,0.64-0.34,1.11-0.22,1.37c0.09,0.18,0.42,0.29,1.06,0.32C7,59.97,8.1,59.85,9.61,59.56 c0.44-0.08,0.87,0.02,1.21,0.25c0.34,0.23,0.6,0.6,0.68,1.03c0.08,0.42-0.01,0.83-0.22,1.17c-0.21,0.33-0.54,0.59-0.94,0.7 c-1.03,0.32-1.9,0.72-2.62,1.16c-0.75,0.46-1.34,0.98-1.76,1.53c-0.25,0.32-0.44,0.65-0.57,0.98c-0.13,0.33-0.2,0.66-0.22,0.98 c-0.01,0.31,0.03,0.62,0.12,0.92c0.09,0.3,0.24,0.6,0.43,0.88c0.28,0.4,0.66,0.77,1.13,1.1c0.47,0.32,1.03,0.61,1.68,0.83 c0.42,0.15,0.74,0.45,0.92,0.82c0.18,0.37,0.22,0.81,0.07,1.23c-0.02,0.06-0.05,0.12-0.07,0.18c-0.02,0.05-0.05,0.1-0.08,0.15 c-0.68,1.18-1.16,2.26-1.46,3.2c-0.31,0.97-0.42,1.79-0.35,2.43c0.02,0.2,0.06,0.36,0.12,0.5c0.05,0.11,0.1,0.2,0.17,0.26 c0.06,0.06,0.15,0.1,0.26,0.13c0.13,0.03,0.29,0.05,0.48,0.04c0.53-0.02,1.18-0.2,1.96-0.55c0.75-0.34,1.6-0.84,2.56-1.52 c0.18-0.14,0.36-0.29,0.55-0.43c0.21-0.16,0.41-0.3,0.59-0.43l0.02-0.01c0.35-0.23,0.76-0.32,1.14-0.26 c0.39,0.06,0.77,0.26,1.03,0.6c0.28,0.35,0.38,0.78,0.33,1.19c-0.05,0.41-0.26,0.8-0.61,1.08c-0.16,0.13-0.35,0.27-0.55,0.42 c-0.19,0.14-0.37,0.27-0.53,0.39c-0.62,0.5-1.17,1.03-1.63,1.56c-0.47,0.53-0.85,1.07-1.15,1.61c-0.25,0.46-0.44,0.91-0.55,1.34 c-0.1,0.41-0.14,0.81-0.1,1.18c0.03,0.34,0.14,0.68,0.32,1c0.18,0.31,0.43,0.61,0.76,0.89c0.37,0.32,0.84,0.6,1.42,0.86 c0.56,0.25,1.22,0.47,1.98,0.65l0.02,0c0.2,0.05,0.39,0.14,0.55,0.25l0.03,0.02c0.16,0.12,0.29,0.26,0.39,0.42 c0.79,1.09,1.57,1.89,2.36,2.41c0.76,0.5,1.53,0.73,2.29,0.69c0.83-0.04,1.7-0.36,2.63-0.96c0.96-0.62,1.96-1.54,3.02-2.74 c0.26-0.29,0.59-0.47,0.95-0.53c0.29-0.05,0.6-0.02,0.88,0.1c0.27-0.15,0.51-0.31,0.73-0.49c0.27-0.22,0.49-0.45,0.68-0.69 c0.29-0.37,0.5-0.79,0.64-1.22c0.15-0.47,0.21-0.96,0.21-1.46c-0.01-0.5-0.09-1.01-0.23-1.51c-0.15-0.52-0.36-1.02-0.62-1.48 c-0.3-0.53-0.66-1-1.07-1.4c-0.39-0.37-0.81-0.67-1.25-0.86c-0.34-0.15-0.62-0.41-0.79-0.73c-0.17-0.31-0.23-0.68-0.16-1.06 c0.12-0.65,0.16-1.25,0.13-1.79c-0.03-0.56-0.14-1.06-0.32-1.5c-0.15-0.38-0.35-0.71-0.59-1c-0.25-0.3-0.54-0.54-0.86-0.73 c-0.24-0.15-0.51-0.26-0.78-0.35c-0.25-0.08-0.52-0.13-0.8-0.16c-0.17,0.06-0.34,0.09-0.52,0.09c-0.17,0-0.35-0.02-0.52-0.08 c-0.45,0.06-0.9,0.18-1.36,0.37c-0.47,0.19-0.94,0.46-1.4,0.8c-0.36,0.26-0.79,0.36-1.2,0.29c-0.41-0.06-0.79-0.28-1.06-0.64 c-0.26-0.36-0.36-0.79-0.29-1.2c0.06-0.41,0.28-0.79,0.64-1.06c0.71-0.52,1.45-0.93,2.2-1.23c0.72-0.28,1.45-0.46,2.17-0.55 c0.22-0.37,0.38-0.74,0.49-1.11c0.11-0.41,0.15-0.83,0.12-1.25c-0.05-0.54-0.21-1.1-0.5-1.69c-0.29-0.6-0.71-1.22-1.26-1.87 c-0.24-0.26-0.38-0.58-0.42-0.92c-0.04-0.33,0.03-0.68,0.22-1c0.47-0.8,0.78-1.51,0.93-2.15c0.15-0.61,0.15-1.15,0.03-1.63 c-0.12-0.46-0.36-0.89-0.71-1.3c-0.36-0.42-0.84-0.81-1.42-1.18c-0.05-0.03-0.09-0.06-0.14-0.1c-0.35-0.28-0.55-0.67-0.59-1.09 c-0.04-0.41,0.07-0.84,0.35-1.19c0.9-1.12,1.51-2.11,1.83-2.97c0.31-0.82,0.36-1.52,0.16-2.11c-0.2-0.59-0.67-1.13-1.41-1.62 c-0.78-0.52-1.83-0.97-3.16-1.36l-0.03-0.01c-0.41-0.13-0.73-0.41-0.93-0.76l-0.01-0.02c-0.19-0.36-0.24-0.78-0.12-1.2 c0.12-0.43,0.41-0.77,0.77-0.97c0.35-0.19,0.78-0.26,1.2-0.14l0.03,0.01l0,0l0.09,0.03c0.48,0.13,0.91,0.17,1.29,0.13 c0.4-0.04,0.73-0.16,1.01-0.34c0.18-0.12,0.34-0.27,0.48-0.44c0.15-0.18,0.27-0.39,0.37-0.61c0.11-0.24,0.18-0.5,0.23-0.78 c0.05-0.28,0.06-0.57,0.05-0.87c-0.03-0.61-0.21-1.24-0.53-1.83c-0.3-0.54-0.73-1.05-1.3-1.48l-0.03-0.03 c-0.17-0.14-0.32-0.32-0.42-0.52c-0.11-0.21-0.17-0.44-0.18-0.69c-0.03-0.87-0.2-1.67-0.49-2.39c-0.29-0.72-0.7-1.36-1.24-1.94 c-0.57-0.61-1.27-1.15-2.11-1.62c-0.85-0.48-1.84-0.89-2.95-1.24c-0.43-0.13-0.76-0.43-0.95-0.79c-0.19-0.37-0.25-0.81-0.11-1.23 c0.13-0.43,0.43-0.76,0.79-0.95c0.37-0.19,0.81-0.25,1.23-0.11c0.63,0.2,1.23,0.41,1.79,0.65c0.34,0.14,0.68,0.29,1,0.45 c-0.02-0.23-0.02-0.46-0.03-0.7c-0.01-0.48,0-0.97,0.03-1.48c0.03-0.45,0.23-0.84,0.54-1.11l0.03-0.02 c0.31-0.26,0.71-0.41,1.14-0.38c0.45,0.03,0.84,0.23,1.11,0.54l0.02,0.03c0.26,0.31,0.41,0.71,0.38,1.14 c-0.07,1.13-0.02,2.1,0.13,2.92c0.16,0.85,0.43,1.53,0.78,2.05c0.19,0.29,0.42,0.52,0.66,0.71c0.25,0.19,0.51,0.33,0.8,0.41 c0.29,0.09,0.61,0.13,0.94,0.12c0.34-0.01,0.7-0.07,1.06-0.18c0.69-0.21,1.39-0.59,2.07-1.13c0.66-0.53,1.28-1.2,1.84-2.02 c0.25-0.37,0.63-0.6,1.04-0.68c0.41-0.08,0.84,0,1.21,0.25c0.26,0.18,0.45,0.42,0.57,0.69c0.12,0.28,0.16,0.58,0.12,0.88l0,0 c-0.11,1.11-0.09,2.01,0.04,2.72c0.12,0.67,0.35,1.15,0.67,1.47l0.05,0.05c0.29,0.26,0.7,0.42,1.21,0.48 c0.56,0.07,1.24,0.02,2.02-0.14l0.02,0c0.24-0.05,0.48-0.03,0.71,0.03c0.23,0.06,0.45,0.18,0.63,0.33 c0.87,0.69,1.66,1.13,2.36,1.35c0.67,0.21,1.27,0.21,1.8,0.03c0.59-0.2,1.15-0.61,1.69-1.21c0.56-0.63,1.1-1.46,1.61-2.45 c0.2-0.4,0.55-0.67,0.94-0.8c0.39-0.13,0.83-0.1,1.23,0.1c0.36,0.18,0.62,0.48,0.76,0.83c0.14,0.33,0.16,0.71,0.05,1.07 c0,0.02-0.01,0.04-0.02,0.06l0,0c-0.44,1.31-0.71,2.35-0.8,3.1c-0.07,0.63-0.03,1.01,0.13,1.14c0.2,0.15,0.67,0.12,1.4-0.11 c0.82-0.26,1.92-0.76,3.29-1.52c0.32-0.17,0.67-0.23,1-0.18c0.34,0.05,0.66,0.2,0.91,0.44c0.53,0.49,1.05,0.85,1.54,1.07 c0.47,0.21,0.92,0.3,1.35,0.26c0.45-0.04,0.93-0.23,1.41-0.57c0.51-0.35,1.04-0.86,1.58-1.54c0.21-0.27,0.5-0.45,0.81-0.54 c0.3-0.09,0.62-0.09,0.92,0c0.02,0,0.04,0.01,0.06,0.01h0c1.34,0.46,2.49,0.72,3.44,0.78c0.91,0.06,1.63-0.06,2.16-0.36 c0.46-0.26,0.81-0.71,1.03-1.35c0.24-0.68,0.36-1.57,0.34-2.66c-0.01-0.45,0.17-0.85,0.46-1.15c0.29-0.3,0.69-0.48,1.13-0.49 c0.36-0.01,0.7,0.11,0.98,0.31c0.28,0.2,0.49,0.5,0.6,0.84l0,0.01c0.39,1.11,0.77,1.91,1.14,2.42c0.3,0.41,0.57,0.6,0.82,0.59 l0.03,0c0.41-0.06,0.91-0.41,1.49-1.03c0.63-0.68,1.33-1.67,2.1-2.93c0.2-0.34,0.51-0.57,0.86-0.69c0.35-0.12,0.74-0.12,1.1,0.02 l0.01,0c0.9,0.3,1.68,0.43,2.33,0.39c0.61-0.04,1.11-0.23,1.49-0.58c0.45-0.42,0.81-1.07,1.06-1.95c0.26-0.92,0.41-2.07,0.44-3.47 l0-0.01c0.01-0.44,0.2-0.84,0.49-1.13c0.3-0.29,0.7-0.46,1.15-0.45h0c0.36,0.01,0.7,0.13,0.96,0.34c0.26,0.2,0.46,0.49,0.55,0.81 l0.02,0.05c0.11,0.42,0.24,0.8,0.38,1.12c0.14,0.32,0.29,0.6,0.46,0.82c0.14,0.19,0.28,0.34,0.44,0.47 c0.15,0.12,0.31,0.21,0.49,0.28c0.42,0.15,0.74,0.46,0.91,0.83c0.18,0.37,0.21,0.82,0.06,1.24c-0.15,0.42-0.46,0.74-0.83,0.91 c-0.37,0.18-0.82,0.21-1.23,0.06c-0.32-0.12-0.63-0.27-0.92-0.45c-0.12-0.08-0.24-0.16-0.36-0.25c-0.18,0.57-0.4,1.09-0.65,1.55 c-0.34,0.62-0.74,1.15-1.21,1.58c-0.51,0.47-1.08,0.83-1.71,1.07c-0.47,0.18-0.97,0.3-1.5,0.35c0.35,0.93,0.49,1.88,0.52,2.83 c0.03,1.1-0.09,2.17-0.21,3.18c-0.1,0.9-0.2,1.75-0.11,2.39c0.08,0.56,0.3,0.98,0.82,1.19c0.07,0.02,0.15,0.05,0.22,0.09l0.02,0.01 c0.06,0.03,0.13,0.07,0.18,0.11c0.37,0.26,0.59,0.64,0.66,1.05c0.07,0.41-0.01,0.84-0.27,1.21c-0.77,1.09-1.32,2.02-1.65,2.78 c-0.31,0.72-0.43,1.27-0.35,1.67c0.04,0.19,0.21,0.34,0.51,0.47c0.38,0.16,0.94,0.26,1.66,0.29c0.23,0,0.45,0.04,0.66,0.14 c0.21,0.09,0.4,0.23,0.56,0.41c0.29,0.34,0.43,0.76,0.4,1.17c-0.03,0.41-0.21,0.82-0.55,1.11c-1.2,1.05-2.06,2.3-2.64,3.6 c-0.65,1.45-0.93,2.97-0.91,4.37c0.01,0.54,0.06,1.06,0.16,1.55c0.1,0.48,0.24,0.94,0.43,1.34c0.16,0.36,0.36,0.68,0.58,0.94 c0.21,0.25,0.44,0.45,0.69,0.59c0.29,0.17,0.62,0.26,1,0.26c0.37,0,0.78-0.08,1.24-0.26l0.03-0.01c0.4-0.15,0.83-0.13,1.2,0.02 c0.38,0.16,0.7,0.46,0.87,0.87c0.17,0.41,0.16,0.86,0,1.24c-0.16,0.38-0.46,0.69-0.86,0.86l-0.08,0.03 c-1.41,0.59-2.52,1.19-3.33,1.81l-0.02,0.02c-0.77,0.59-1.27,1.19-1.5,1.79c-0.2,0.52-0.19,1.1,0.02,1.72 c0.22,0.66,0.67,1.38,1.33,2.15l0.02,0.03c0.19,0.23,0.31,0.51,0.35,0.81c0.04,0.3,0,0.61-0.14,0.9l-1.88,4 c-0.12,0.28-0.33,0.52-0.58,0.69c-0.25,0.16-0.54,0.26-0.86,0.27c-0.98,0.02-1.72,0.19-2.23,0.5c-0.48,0.28-0.77,0.69-0.92,1.19 c-0.12,0.43-0.17,0.94-0.15,1.5c0.02,0.57,0.11,1.2,0.25,1.88c0.08,0.17,0.15,0.36,0.22,0.55c0.08,0.21,0.15,0.42,0.21,0.62 c0.08,0.28,0.16,0.57,0.22,0.88c0.06,0.3,0.12,0.61,0.16,0.94c0.06,0.44-0.06,0.87-0.31,1.2c-0.25,0.33-0.63,0.56-1.07,0.63 c-0.41,0.06-0.8-0.05-1.12-0.26c-0.31-0.21-0.55-0.53-0.66-0.91c-0.14-0.44-0.28-0.88-0.4-1.31c-0.12-0.41-0.22-0.81-0.31-1.22 c-0.18-0.36-0.4-0.66-0.63-0.91c-0.25-0.27-0.53-0.48-0.84-0.64c-0.43-0.23-0.93-0.37-1.49-0.44c-0.59-0.07-1.24-0.05-1.94,0.04 c-0.32,0.04-0.64,0.1-0.97,0.18c-0.33,0.08-0.68,0.17-1.05,0.28l-0.04,0.01c-0.09,0.03-0.19,0.04-0.29,0.05 c-0.11,0.01-0.22,0.01-0.34-0.01c-0.44-0.06-0.82-0.29-1.07-0.62c-0.25-0.33-0.38-0.75-0.32-1.19c0.04-0.31,0.05-0.6,0.04-0.87 c-0.01-0.26-0.05-0.51-0.11-0.72c-0.08-0.29-0.2-0.54-0.37-0.75c-0.18-0.23-0.4-0.43-0.66-0.59c-0.29-0.18-0.64-0.33-1.01-0.45 c-0.42-0.13-0.88-0.23-1.36-0.29c-1.18-0.15-2.46-0.13-3.65-0.02c-1.94,0.18-3.65,0.56-4.34,0.74c-0.99,0.59-1.92,1.24-2.77,1.96 c-0.87,0.73-1.66,1.54-2.36,2.43c-0.72,0.91-1.36,1.92-1.91,3.03C44.56,89.04,44.11,90.25,43.76,91.58L43.76,91.58z M40.77,90.23 c0.41-1.41,0.92-2.71,1.53-3.92c0.63-1.24,1.36-2.38,2.18-3.42c0.86-1.09,1.82-2.07,2.86-2.95c1.04-0.88,2.17-1.66,3.37-2.36 c0.06-0.04,0.13-0.07,0.19-0.09c0.06-0.02,0.11-0.04,0.17-0.06l0.03-0.01c0.53-0.14,2.62-0.66,5.08-0.88 c1.41-0.13,2.94-0.16,4.37,0.03c0.69,0.09,1.37,0.23,2,0.44c0.59,0.19,1.14,0.44,1.65,0.75c0.61,0.38,1.14,0.84,1.56,1.4 c0.4,0.53,0.71,1.14,0.9,1.85c0.04,0.15,0.08,0.31,0.11,0.49l0.02,0.11l0.03-0.01c0.14-0.02,0.27-0.04,0.42-0.06 c1.02-0.14,2-0.16,2.91-0.04c0.75,0.1,1.45,0.29,2.1,0.59l0.02-0.13c0.04-0.22,0.09-0.43,0.15-0.64c0.32-1.14,0.91-2.07,1.8-2.76 c0.84-0.65,1.95-1.06,3.38-1.22l1.07-2.26c-0.76-1.04-1.26-2.07-1.48-3.09c-0.24-1.09-0.17-2.16,0.24-3.21 c0.24-0.6,0.58-1.19,1.05-1.74c0.36-0.43,0.79-0.85,1.29-1.26c-0.36-0.27-0.7-0.58-1-0.94c-0.43-0.5-0.79-1.09-1.08-1.73 c-0.27-0.6-0.49-1.27-0.63-1.97c-0.14-0.7-0.23-1.43-0.24-2.2c-0.02-1.46,0.21-3.02,0.73-4.56c0.43-1.27,1.06-2.51,1.9-3.68 c-0.54-0.24-0.98-0.55-1.34-0.93c-0.46-0.49-0.77-1.09-0.92-1.81c-0.16-0.76-0.09-1.63,0.21-2.6c0.27-0.87,0.71-1.83,1.35-2.88 c-0.8-0.71-1.16-1.58-1.28-2.58c-0.13-1.05,0-2.21,0.15-3.44c0.11-0.92,0.22-1.9,0.16-2.84c-0.05-0.74-0.2-1.46-0.54-2.12 c-0.73,0.99-1.45,1.78-2.16,2.37c-0.85,0.7-1.7,1.11-2.55,1.21l-0.02,0c-0.66,0.08-1.29-0.02-1.89-0.29 c-0.44-0.2-0.86-0.49-1.25-0.88c-0.2,0.4-0.45,0.76-0.72,1.09c-0.4,0.47-0.87,0.86-1.41,1.17c-0.9,0.51-1.98,0.78-3.23,0.79 c-1.17,0.01-2.49-0.2-3.97-0.63c-0.67,0.71-1.37,1.27-2.07,1.67c-0.77,0.44-1.57,0.7-2.38,0.78c-0.81,0.08-1.62-0.02-2.41-0.29 c-0.72-0.25-1.43-0.64-2.13-1.16c-1.62,0.81-3.01,1.29-4.16,1.46c-1.27,0.18-2.29-0.02-3.05-0.6c-0.39-0.29-0.69-0.66-0.92-1.11 c-0.14-0.28-0.24-0.58-0.32-0.91c-0.14,0.09-0.27,0.17-0.41,0.24c-0.32,0.17-0.64,0.32-0.98,0.43c-1.03,0.35-2.11,0.4-3.25,0.14 c-1.08-0.25-2.22-0.79-3.4-1.64c-1.09,0.15-2.07,0.14-2.95-0.06c-0.94-0.21-1.75-0.62-2.42-1.26l-0.09-0.08 c-0.42-0.42-0.76-0.92-1.03-1.5c-0.19-0.41-0.34-0.86-0.45-1.36c-0.37,0.27-0.75,0.52-1.13,0.73c-0.56,0.31-1.14,0.56-1.72,0.74 c-0.5,0.15-1,0.25-1.5,0.3c-0.32,0.03-0.63,0.03-0.94,0.02l0.04,0.25c0.03,0.2,0.06,0.42,0.08,0.63c0.76,0.69,1.34,1.48,1.75,2.31 c0.47,0.94,0.72,1.94,0.77,2.92c0.03,0.55,0,1.09-0.09,1.61c-0.09,0.53-0.24,1.03-0.45,1.51c-0.22,0.5-0.5,0.97-0.85,1.38 c-0.23,0.27-0.48,0.52-0.75,0.75c0.45,0.35,0.84,0.73,1.16,1.14c0.42,0.53,0.74,1.1,0.95,1.72c0.35,1.03,0.38,2.14,0.08,3.34 c-0.27,1.09-0.81,2.24-1.63,3.46c0.49,0.44,0.91,0.9,1.25,1.41c0.41,0.6,0.71,1.25,0.89,1.96c0.2,0.8,0.24,1.65,0.1,2.56 c-0.13,0.84-0.42,1.72-0.87,2.66c0.54,0.73,0.96,1.46,1.26,2.18c0.34,0.8,0.54,1.59,0.61,2.37c0.05,0.58,0.02,1.15-0.07,1.72 c-0.07,0.43-0.19,0.86-0.35,1.28c0.14,0.05,0.28,0.11,0.42,0.17c0.26,0.11,0.52,0.25,0.76,0.39c0.62,0.37,1.19,0.85,1.66,1.42 c0.46,0.55,0.85,1.19,1.13,1.9c0.24,0.6,0.41,1.26,0.49,1.97c0.07,0.6,0.09,1.25,0.03,1.93c0.51,0.34,1,0.76,1.43,1.23 c0.5,0.54,0.94,1.15,1.31,1.81c0.39,0.69,0.71,1.44,0.92,2.22c0.21,0.75,0.33,1.53,0.34,2.31c0.01,0.85-0.1,1.7-0.37,2.52 c-0.25,0.77-0.63,1.51-1.16,2.19c-0.37,0.48-0.82,0.93-1.34,1.33c-0.42,0.33-0.9,0.62-1.42,0.89c0.2,0.96,0.09,1.96-0.18,3.02 c-0.3,1.13-0.78,2.31-1.3,3.55c-1.42,3.43-3.07,7.43,0.36,10.67c0.32,0.31,0.49,0.71,0.5,1.13c0.01,0.41-0.13,0.83-0.44,1.15 c-0.31,0.32-0.71,0.49-1.13,0.5c-0.41,0.01-0.83-0.13-1.15-0.44c-2.52-2.39-3.25-4.88-3.12-7.33c0.13-2.41,1.1-4.75,1.99-6.91 c0.33-0.8,0.65-1.56,0.89-2.27c0.11-0.32,0.2-0.62,0.27-0.91c-0.74,0.58-1.48,1.05-2.22,1.39c-1,0.48-2,0.74-3,0.78 c-1.31,0.06-2.57-0.26-3.78-0.95c-1.16-0.67-2.27-1.69-3.32-3.06c-0.85-0.23-1.6-0.51-2.27-0.83c-0.73-0.35-1.36-0.76-1.89-1.21 c-0.66-0.55-1.16-1.17-1.52-1.83c-0.38-0.69-0.6-1.43-0.68-2.2c-0.06-0.64-0.03-1.28,0.1-1.93c0.09-0.45,0.23-0.9,0.4-1.35 c-0.07,0.01-0.15,0.01-0.23,0.01c-0.61,0.02-1.16-0.05-1.66-0.21c-0.52-0.17-0.98-0.43-1.37-0.78C5.3,81.94,5,81.52,4.77,81.04 c-0.22-0.47-0.37-1-0.43-1.59c-0.09-0.85,0-1.85,0.27-2.96c0.24-0.95,0.62-2,1.15-3.11c-0.52-0.29-0.98-0.61-1.4-0.96 c-0.52-0.44-0.96-0.92-1.31-1.43c-0.4-0.57-0.69-1.18-0.88-1.82c-0.19-0.64-0.27-1.29-0.24-1.96c0.03-0.66,0.17-1.33,0.42-1.98 C2.6,64.6,2.95,63.99,3.4,63.4c0.16-0.2,0.33-0.4,0.52-0.61l0.14-0.14c-0.33-0.14-0.61-0.3-0.86-0.5c-0.4-0.31-0.71-0.7-0.92-1.15 c-0.38-0.79-0.42-1.71-0.19-2.76c0.2-0.92,0.63-1.93,1.22-3.02c-0.57-0.43-1.07-0.88-1.49-1.36c-0.51-0.57-0.91-1.18-1.21-1.8 c-0.3-0.63-0.49-1.28-0.57-1.93c-0.08-0.65-0.04-1.3,0.1-1.95c0.15-0.64,0.41-1.26,0.78-1.84c0.36-0.56,0.82-1.1,1.4-1.59 c0.31-0.26,0.65-0.51,1.01-0.75c0.16-0.1,0.33-0.21,0.51-0.3c-0.46-0.27-0.83-0.56-1.12-0.89c-0.44-0.49-0.7-1.04-0.79-1.65 c-0.14-0.93,0.16-1.9,0.83-2.91c0.6-0.9,1.5-1.83,2.66-2.8c-0.32-0.55-0.58-1.1-0.77-1.65c-0.23-0.65-0.36-1.31-0.41-1.96 c-0.05-0.73,0.02-1.46,0.21-2.17c0.17-0.64,0.44-1.28,0.8-1.9c-0.28-0.58-0.5-1.16-0.65-1.74c-0.17-0.64-0.25-1.29-0.26-1.93 c-0.01-0.67,0.07-1.33,0.23-1.98c0.15-0.6,0.36-1.19,0.64-1.78c-0.42-1.24-0.6-2.3-0.53-3.19c0.07-0.97,0.42-1.75,1.03-2.34 c0.22-0.22,0.47-0.4,0.75-0.55l0.03-0.01c0.09-0.05,0.18-0.09,0.27-0.13c-0.23-0.24-0.45-0.47-0.65-0.71 c-0.33-0.38-0.61-0.76-0.86-1.14c-0.44-0.66-0.75-1.32-0.95-1.97L4.3,10.3C4.11,9.65,4.03,9.01,4.08,8.38 C4.14,7.7,4.33,7.06,4.67,6.45C4.99,5.86,5.45,5.31,6.04,4.8c0.51-0.44,1.13-0.84,1.86-1.2c0.68-0.34,1.46-0.65,2.35-0.92 c0.81-0.76,1.65-1.35,2.51-1.79l0.02-0.01c0.91-0.46,1.83-0.74,2.73-0.84c0.48-0.05,0.95-0.06,1.41-0.01 c0.46,0.05,0.91,0.15,1.35,0.29c0.44,0.15,0.87,0.35,1.28,0.61c0.4,0.25,0.77,0.55,1.12,0.9l0.02,0.02 c0.56,0.57,1.05,1.26,1.45,2.08c0.35,0.72,0.62,1.53,0.82,2.44c1.04,0.11,1.84,0.38,2.44,0.79c0.68,0.46,1.09,1.1,1.26,1.88 c0.06,0.26,0.08,0.52,0.07,0.8c0,0.1-0.01,0.2-0.02,0.3c0.42-0.05,0.83-0.07,1.23-0.04c0.59,0.04,1.16,0.16,1.7,0.35 c0.57,0.21,1.11,0.49,1.59,0.85c0.5,0.36,0.95,0.8,1.34,1.29c0.21,0.27,0.41,0.55,0.59,0.85c0.13,0.23,0.26,0.46,0.37,0.7 c0.4-0.01,0.8,0.02,1.2,0.09c0.49,0.08,0.98,0.23,1.48,0.43c0.57,0.23,1.13,0.54,1.7,0.94c0.51,0.35,1.03,0.78,1.55,1.28 c0.71-0.19,1.41-0.31,2.11-0.37c0.77-0.06,1.54-0.05,2.3,0.06c0.8,0.11,1.6,0.33,2.38,0.66c0.73,0.3,1.45,0.71,2.15,1.22 c0.5-0.11,1.01-0.17,1.52-0.2c0.57-0.03,1.16-0.01,1.75,0.05c0.62,0.07,1.26,0.19,1.9,0.36c0.6,0.16,1.21,0.37,1.82,0.62 c0.57-0.2,1.15-0.35,1.74-0.46c0.64-0.11,1.29-0.17,1.97-0.16c0.58,0,1.16,0.05,1.75,0.15c0.49,0.08,0.99,0.2,1.5,0.35 c0.1-0.18,0.21-0.36,0.32-0.53c0.17-0.26,0.36-0.51,0.57-0.74c0.32-0.35,0.67-0.67,1.07-0.93c0.37-0.24,0.76-0.44,1.2-0.59 c0.46-0.71,1-1.29,1.6-1.76c0.63-0.5,1.33-0.88,2.08-1.17c0.63-0.24,1.3-0.41,2-0.53c0.61-0.1,1.23-0.16,1.88-0.18 c0.29-0.8,0.63-1.54,1.02-2.2c0.43-0.73,0.91-1.37,1.45-1.93c0.59-0.61,1.23-1.12,1.93-1.53c0.66-0.39,1.37-0.7,2.12-0.92 c0.31-0.42,0.66-0.8,1.04-1.16c0.42-0.4,0.87-0.75,1.35-1.07C82.62,3.5,83.3,3.16,84,2.9c0.7-0.26,1.41-0.43,2.12-0.5 c0.77-0.08,1.53-0.05,2.26,0.1c0.7,0.15,1.37,0.41,1.98,0.79c0.24,0.15,0.47,0.32,0.69,0.52c0.18,0.15,0.34,0.32,0.51,0.51 c0.79,0.1,1.51,0.28,2.17,0.51c0.73,0.27,1.38,0.61,1.95,1.02c0.61,0.44,1.11,0.95,1.52,1.52c0.42,0.58,0.72,1.22,0.92,1.9 c0.19,0.66,0.27,1.35,0.24,2.06c-0.03,0.7-0.17,1.41-0.41,2.13c-0.21,0.6-0.49,1.19-0.86,1.77c-0.29,0.46-0.62,0.91-1.01,1.35 c0.4,0.35,0.74,0.73,1.02,1.12c0.35,0.5,0.6,1.02,0.76,1.58c0.19,0.69,0.23,1.39,0.11,2.12c-0.11,0.67-0.34,1.35-0.71,2.04 c0.33,0.74,0.58,1.46,0.74,2.15c0.18,0.75,0.27,1.48,0.27,2.19c0,0.85-0.13,1.66-0.39,2.42c-0.26,0.77-0.64,1.49-1.14,2.18 l-0.06,0.07l-0.02,0.03c-0.16,0.19-0.36,0.33-0.58,0.43c-0.07,0.03-0.14,0.05-0.21,0.07c0.04,0.12,0.07,0.24,0.1,0.37l0.02,0.06 c0.16,0.67,0.2,1.36,0.13,2.07c-0.07,0.7-0.26,1.41-0.55,2.12c-0.15,0.35-0.32,0.7-0.52,1.06c-0.16,0.27-0.33,0.55-0.51,0.82 c0.55,0.68,0.97,1.35,1.24,2c0.31,0.75,0.43,1.47,0.32,2.18c-0.09,0.63-0.34,1.2-0.77,1.72c-0.33,0.4-0.75,0.75-1.29,1.06 c0.82,0.89,1.5,1.86,2.04,2.84c0.66,1.19,1.11,2.4,1.33,3.53c0.11,0.56,0.17,1.12,0.17,1.65c0,0.53-0.06,1.03-0.18,1.49 c-0.14,0.56-0.37,1.06-0.68,1.5c-0.26,0.36-0.57,0.67-0.94,0.92c0.39,0.4,0.73,0.79,1.02,1.19c0.38,0.51,0.69,1.03,0.91,1.55 c0.38,0.89,0.54,1.75,0.48,2.6c-0.06,0.79-0.33,1.56-0.79,2.32c0.25,0.58,0.44,1.14,0.58,1.67c0.15,0.6,0.23,1.17,0.24,1.72 c0.01,0.61-0.06,1.18-0.23,1.71c-0.15,0.49-0.37,0.94-0.67,1.35c0.28,1.97,0.36,3.59,0.2,4.86c-0.17,1.36-0.63,2.34-1.39,2.94 c-0.02,0.01-0.03,0.02-0.05,0.03c-0.38,0.28-0.8,0.47-1.28,0.55c-0.3,0.05-0.62,0.06-0.96,0.04c0.16,0.5,0.27,1,0.34,1.49 c0.1,0.72,0.11,1.42,0.03,2.07c-0.06,0.49-0.17,0.96-0.32,1.4c-0.15,0.44-0.35,0.86-0.6,1.24c-0.26,0.41-0.57,0.78-0.93,1.08 c-0.35,0.3-0.74,0.55-1.17,0.73c-0.32,0.13-0.65,0.23-1,0.29c-0.16,0.03-0.33,0.05-0.5,0.06c0.04,0.14,0.09,0.28,0.12,0.42 c0.09,0.31,0.15,0.62,0.2,0.91c0.13,0.74,0.15,1.45,0.08,2.13c-0.07,0.69-0.24,1.33-0.51,1.93c-0.28,0.63-0.67,1.2-1.16,1.68 c-0.48,0.47-1.05,0.86-1.71,1.15c-0.44,0.19-0.92,0.34-1.43,0.44c-0.44,0.08-0.9,0.13-1.39,0.14c-0.51,0.75-1.06,1.41-1.67,1.96 c-0.67,0.61-1.4,1.08-2.22,1.41c-0.86,0.34-1.79,0.5-2.8,0.45c-0.94-0.05-1.96-0.28-3.05-0.72c-0.4,0.25-0.81,0.46-1.22,0.62 c-0.47,0.18-0.94,0.3-1.42,0.37c-0.43,0.05-0.86,0.06-1.29,0.02c-0.34-0.04-0.68-0.1-1.02-0.2c-0.5,0.61-1.05,1.11-1.62,1.49 c-0.67,0.45-1.36,0.74-2.06,0.88c-0.54,0.11-1.08,0.12-1.6,0.05c-0.53-0.07-1.04-0.23-1.53-0.48c-0.47-0.24-0.91-0.55-1.31-0.94 c-0.39-0.38-0.74-0.82-1.05-1.33c-0.07-0.13-0.15-0.25-0.21-0.39c-0.11,0.26-0.25,0.49-0.4,0.7c-0.29,0.37-0.63,0.64-1.01,0.82 c-0.26,0.12-0.54,0.2-0.83,0.23c0.04,0.64,0.06,1.31,0.06,1.98c0,0.8-0.04,1.61-0.1,2.39c-0.13,1.62-0.39,3.23-0.79,4.69 c-0.36,1.33-0.84,2.52-1.42,3.49c-0.07,1.42-0.42,2.67-0.94,3.71c-0.6,1.19-1.44,2.11-2.37,2.73c-0.39,0.26-0.81,0.46-1.23,0.61 c-0.43,0.15-0.87,0.24-1.31,0.27c-0.46,0.03-0.93,0-1.38-0.1c-0.44-0.1-0.88-0.27-1.29-0.5c-0.85-0.49-1.61-1.27-2.17-2.37 c-0.49-0.96-0.84-2.16-0.99-3.62c-0.82-1.44-1.52-3.13-2.09-4.97c-0.62-1.99-1.09-4.16-1.41-6.37c-0.35-2.39-0.52-4.84-0.53-7.17 c-0.01-2.35,0.16-4.57,0.49-6.49c0.04-0.24,0.13-0.46,0.27-0.65C40.49,90.47,40.63,90.34,40.77,90.23L40.77,90.23z"/></g></svg>