<?xml version="1.0" encoding="utf-8"?><svg version="1.1" id="Layer_1" xmlns="http://www.w3.org/2000/svg" xmlns:xlink="http://www.w3.org/1999/xlink" x="0px" y="0px" viewBox="0 0 122.88 107.47" style="enable-background:new 0 0 122.88 107.47" xml:space="preserve"><g><path d="M36,104.59h-2.88V33.51H2.88v71.08H112.3v2.88H1.44c-0.8,0-1.44-0.65-1.44-1.44V32.74c0-0.58,0.24-1.11,0.62-1.5 c0.38-0.38,0.91-0.62,1.5-0.62h31V2.53c0-0.69,0.28-1.33,0.74-1.78V0.74C34.32,0.28,34.95,0,35.65,0H87c0.7,0,1.33,0.28,1.79,0.74 l0.11,0.12c0.4,0.45,0.64,1.03,0.64,1.67v28.09h31.22c0.58,0,1.11,0.24,1.49,0.62l0.01,0.01c0.38,0.38,0.62,0.91,0.62,1.49v73.29 c0,0.8-0.65,1.44-1.44,1.44h-9.14v-2.88H120V33.51H89.53v71.08h-2.88V2.88H36V104.59L36,104.59z M71.67,81.18h8.49 c0.13,0,0.24,0.11,0.24,0.24v8.49c0,0.13-0.11,0.24-0.24,0.24h-8.49c-0.13,0-0.24-0.11-0.24-0.24v-8.49 C71.43,81.29,71.54,81.18,71.67,81.18L71.67,81.18z M57.08,81.18h8.49c0.13,0,0.24,0.11,0.24,0.24v8.49c0,0.13-0.11,0.24-0.24,0.24 h-8.49c-0.13,0-0.24-0.11-0.24-0.24v-8.49C56.84,81.29,56.95,81.18,57.08,81.18L57.08,81.18z M42.49,81.18h8.49 c0.13,0,0.24,0.11,0.24,0.24v8.49c0,0.13-0.11,0.24-0.24,0.24h-8.49c-0.13,0-0.24-0.11-0.24-0.24v-8.49 C42.25,81.29,42.36,81.18,42.49,81.18L42.49,81.18z M97.15,71h15.9c0.13,0,0.24,0.08,0.24,0.17v4.7c0,0.09-0.11,0.18-0.24,0.18 h-15.9c-0.13,0-0.24-0.08-0.24-0.18v-4.7C96.91,71.08,97.02,71,97.15,71L97.15,71z M9.71,71h15.9c0.13,0,0.24,0.08,0.24,0.17v4.7 c0,0.09-0.11,0.18-0.24,0.18H9.71c-0.13,0-0.24-0.08-0.24-0.18v-4.7C9.47,71.08,9.58,71,9.71,71L9.71,71z M42.46,8.47H80.2 c0.63,0,1.15,0.52,1.15,1.15v29.52c0,0.63-0.52,1.15-1.15,1.15H42.46c-0.63,0-1.15-0.52-1.15-1.15V9.62 C41.3,8.99,41.82,8.47,42.46,8.47L42.46,8.47z M97.15,60.73h15.9c0.13,0,0.24,0.08,0.24,0.18v4.7c0,0.09-0.11,0.18-0.24,0.18h-15.9 c-0.13,0-0.24-0.08-0.24-0.18v-4.7C96.91,60.8,97.02,60.73,97.15,60.73L97.15,60.73z M97.15,50.45h15.9c0.13,0,0.24,0.08,0.24,0.18 v4.7c0,0.09-0.11,0.18-0.24,0.18h-15.9c-0.13,0-0.24-0.08-0.24-0.18v-4.7C96.91,50.53,97.02,50.45,97.15,50.45L97.15,50.45z M9.71,60.73h15.9c0.13,0,0.24,0.08,0.24,0.18v4.7c0,0.09-0.11,0.18-0.24,0.18H9.71c-0.13,0-0.24-0.08-0.24-0.18v-4.7 C9.47,60.8,9.58,60.73,9.71,60.73L9.71,60.73z M9.71,50.45h15.9c0.13,0,0.24,0.08,0.24,0.18v4.7c0,0.09-0.11,0.18-0.24,0.18H9.71 c-0.13,0-0.24-0.08-0.24-0.18v-4.7C9.47,50.53,9.58,50.45,9.71,50.45L9.71,50.45z M71.67,66.29h8.49c0.13,0,0.24,0.11,0.24,0.24 v8.49c0,0.13-0.11,0.24-0.24,0.24h-8.49c-0.13,0-0.24-0.11-0.24-0.24v-8.49C71.43,66.4,71.54,66.29,71.67,66.29L71.67,66.29z M57.08,66.29h8.49c0.13,0,0.24,0.11,0.24,0.24v8.49c0,0.13-0.11,0.24-0.24,0.24h-8.49c-0.13,0-0.24-0.11-0.24-0.24v-8.49 C56.84,66.4,56.95,66.29,57.08,66.29L57.08,66.29z M42.49,66.29h8.49c0.13,0,0.24,0.11,0.24,0.24v8.49c0,0.13-0.11,0.24-0.24,0.24 h-8.49c-0.13,0-0.24-0.11-0.24-0.24v-8.49C42.25,66.4,42.36,66.29,42.49,66.29L42.49,66.29z M71.67,49.81h8.49 c0.13,0,0.24,0.11,0.24,0.24v8.49c0,0.13-0.11,0.24-0.24,0.24h-8.49c-0.13,0-0.24-0.11-0.24-0.24v-8.49 C71.43,49.92,71.54,49.81,71.67,49.81L71.67,49.81z M57.08,49.81h8.49c0.13,0,0.24,0.11,0.24,0.24v8.49c0,0.13-0.11,0.24-0.24,0.24 h-8.49c-0.13,0-0.24-0.11-0.24-0.24v-8.49C56.84,49.92,56.95,49.81,57.08,49.81L57.08,49.81z M42.49,49.81h8.49 c0.13,0,0.24,0.11,0.24,0.24v8.49c0,0.13-0.11,0.24-0.24,0.24h-8.49c-0.13,0-0.24-0.11-0.24-0.24v-8.49 C42.25,49.92,42.36,49.81,42.49,49.81L42.49,49.81z"/></g></svg>