<?xml version="1.0" encoding="utf-8"?><svg version="1.1" id="Layer_1" xmlns="http://www.w3.org/2000/svg" xmlns:xlink="http://www.w3.org/1999/xlink" x="0px" y="0px" viewBox="0 0 122.88 57.94" style="enable-background:new 0 0 122.88 57.94" xml:space="preserve"><style type="text/css"><![CDATA[
	.st0{fill-rule:evenodd;clip-rule:evenodd;}
]]></style><g><path class="st0" d="M88.22,38.23l2.43-0.06l1.15-0.03l1.74,2.03c0.41,0.48,0.83,0.96,1.29,1.41c-0.32,0.49-1.78,1.72-3.07,2.81 c-0.42,0.35-1.31,1.23-1.77,1.41c4.62,3.09,6.6,5.9,7.01,11.43l23.43-0.62c2.58-0.05,2.61,0.06,2.35-2.62 c-0.17-1.82-10.07-7.55-12.08-8.33c-0.3-0.27-0.64-0.56-0.97-0.86c-1.09-0.95-2.31-2.03-2.8-2.64c0.78-0.68,1.43-1.47,2.08-2.25 l1.1-1.32c0.02-0.02,0.1-0.12,0.22-0.26c0.06-0.07,0.13-0.15,0.2-0.24h2.4c3.54-7.57,1.29-18.8-5.94-23.56 c-2.22-1.47-3.82-1.41-6.42-1.41c-2.98,0-4.5,0.09-7.05,1.78c-3.76,2.49-6.07,6.8-7.05,12.77C86.27,30.68,86.14,35.83,88.22,38.23 L88.22,38.23L88.22,38.23L88.22,38.23z M34.66,38.23l-2.43-0.06l-1.15-0.03l-1.74,2.03c-0.41,0.48-0.83,0.96-1.29,1.41 c0.32,0.49,1.78,1.72,3.07,2.81c0.42,0.35,1.31,1.23,1.77,1.41c-4.62,3.09-6.6,5.9-7.01,11.43L2.46,56.62 c-2.58-0.05-2.61,0.06-2.35-2.62c0.17-1.82,10.07-7.55,12.08-8.33c0.3-0.27,0.64-0.56,0.97-0.86c1.09-0.95,2.31-2.03,2.8-2.64 c-0.78-0.68-1.43-1.47-2.08-2.25l-1.1-1.32c-0.02-0.02-0.1-0.12-0.22-0.26c-0.06-0.07-0.13-0.15-0.2-0.24h-2.4 c-3.54-7.57-1.29-18.8,5.94-23.56c2.22-1.47,3.82-1.41,6.42-1.41c2.98,0,4.5,0.09,7.05,1.78c3.76,2.49,6.07,6.8,7.05,12.77 C36.61,30.68,36.74,35.83,34.66,38.23L34.66,38.23L34.66,38.23L34.66,38.23z M14.17,45.37c1.04-0.9,2.12-1.88,2.65-2.52l0.04,0.02 c1.25,0.86,2.79,1.42,4.9,1.42c1.97-0.01,3.45-0.56,4.67-1.36c0.29-0.2,0.57-0.4,0.82-0.62c0.84,1.05,2.36,2.27,3.43,3.14 C25.78,50.35,19.03,50.23,14.17,45.37L14.17,45.37L14.17,45.37L14.17,45.37z M30.51,37.15c1.98-6.87,1.01-13.18-4.4-18.59 c-0.96,3.1-3.11,5.67-6.78,7.57c-1.75,1.3-3.45,2.88-5.09,4.67c-0.29-1.19,0.82-2.66,2.17-4.16c-1.25,0.61-2.39,1.48-3.2,3.13 c-0.94,1.92-0.93,3.54-0.61,5.63c0.09,0.6,0.21,1.18,0.38,1.73c0.11,0.04,0.2,0.1,0.27,0.19c0.15,0.18,0.3,0.36,0.43,0.52 c0.04,0.05,0.08,0.09,0.23,0.28l1.1,1.32c0.83,1.01,1.68,2.01,2.76,2.74c1.02,0.7,2.28,1.16,4.01,1.16 c1.59-0.01,2.79-0.45,3.78-1.12c1.04-0.69,1.88-1.64,2.68-2.57l2-2.33C30.29,37.25,30.4,37.19,30.51,37.15L30.51,37.15L30.51,37.15 L30.51,37.15z M45.62,31.78l3.08-0.08l1.46-0.04l2.22,2.57c0.52,0.61,1.05,1.21,1.63,1.79c-0.41,0.61-2.25,2.18-3.89,3.56 c-0.72,0.61-1.41,1.19-1.94,1.67c-4.27,1.67-15.98,7.96-16.96,12.57c-0.32,4.37-0.01,4.15,3.06,4.09 c23.08-0.41,47.31,0.13,54.02-0.01c3.28-0.06,3.31,0.09,2.98-3.32c-0.5-5.3-12.71-11.66-17.17-13.39c-0.38-0.34-0.8-0.71-1.24-1.09 c-1.38-1.21-2.93-2.56-3.56-3.34c0.98-0.86,1.81-1.85,2.64-2.84l1.39-1.67c0.02-0.02,0.13-0.15,0.28-0.33 c0.08-0.09,0.17-0.19,0.25-0.29h3.04c4.48-9.59,1.63-23.82-7.52-29.86C66.58-0.07,64.56,0,61.27,0c-3.78,0-5.7,0.12-8.94,2.26 c-4.77,3.15-7.69,8.61-8.93,16.18C43.14,22.22,42.98,28.74,45.62,31.78L45.62,31.78L45.62,31.78L45.62,31.78z M50.87,30.41 c-2.51-8.7-1.29-16.7,5.57-23.55c1.22,3.94,3.94,7.19,8.59,9.58c2.22,1.65,4.37,3.64,6.45,5.92c0.37-1.52-1.04-3.36-2.74-5.26 c1.58,0.78,3.02,1.87,4.05,3.97c1.19,2.44,1.18,4.49,0.78,7.13c-0.12,0.76-0.27,1.49-0.48,2.19c-0.13,0.05-0.26,0.13-0.34,0.24 c-0.19,0.23-0.38,0.46-0.55,0.65c-0.05,0.06-0.1,0.12-0.29,0.35l-1.39,1.67c-1.06,1.27-2.14,2.54-3.5,3.48 c-1.3,0.89-2.89,1.48-5.08,1.47c-2.01-0.01-3.54-0.57-4.79-1.41c-1.32-0.87-2.37-2.07-3.39-3.25l-2.53-2.93 C51.16,30.53,51.02,30.45,50.87,30.41L50.87,30.41L50.87,30.41L50.87,30.41z M71.58,40.83c-1.31-1.15-2.69-2.37-3.35-3.2 l-0.05,0.03c-1.59,1.08-3.54,1.81-6.21,1.8c-2.5-0.01-4.38-0.7-5.91-1.73c-0.37-0.24-0.71-0.51-1.04-0.78 c-0.76,0.96-2.47,2.4-4,3.7l-0.34,0.28C50.43,49.54,69.07,52.15,71.58,40.83L71.58,40.83L71.58,40.83L71.58,40.83z M108.71,45.37 c-1.04-0.9-2.12-1.88-2.65-2.52l-0.04,0.02c-1.25,0.86-2.79,1.42-4.9,1.42c-1.97-0.01-3.45-0.56-4.67-1.36 c-0.29-0.2-0.57-0.4-0.82-0.62c-0.84,1.05-2.36,2.27-3.43,3.14C97.1,50.35,103.85,50.23,108.71,45.37L108.71,45.37L108.71,45.37 L108.71,45.37z M92.37,37.15c-1.98-6.87-1.01-13.18,4.4-18.59c0.96,3.1,3.11,5.67,6.78,7.57c1.75,1.3,3.45,2.88,5.09,4.67 c0.29-1.19-0.82-2.66-2.17-4.16c1.25,0.61,2.39,1.48,3.2,3.13c0.94,1.92,0.93,3.54,0.61,5.63c-0.09,0.6-0.21,1.18-0.38,1.73 c-0.11,0.04-0.2,0.1-0.27,0.19c-0.15,0.18-0.3,0.36-0.43,0.52c-0.04,0.05-0.08,0.09-0.23,0.28l-1.1,1.32 c-0.83,1.01-1.68,2.01-2.76,2.74c-1.02,0.7-2.28,1.16-4.01,1.16c-1.59-0.01-2.79-0.45-3.78-1.12c-1.04-0.69-1.88-1.64-2.68-2.57 l-2-2.33C92.59,37.25,92.48,37.19,92.37,37.15L92.37,37.15L92.37,37.15L92.37,37.15z"/></g></svg>