<?xml version="1.0" encoding="utf-8"?><svg version="1.1" id="Layer_1" xmlns="http://www.w3.org/2000/svg" xmlns:xlink="http://www.w3.org/1999/xlink" x="0px" y="0px" viewBox="0 0 122.88 122.88" style="enable-background:new 0 0 122.88 122.88" xml:space="preserve"><g><path d="M109.27,20.73c6.06,7.7,9.09,17.04,9.09,26.37c0,10.92-4.15,21.85-12.44,30.15l-33.19,33.19 c-8.29,8.29-19.22,12.44-30.15,12.44c-10.92,0-21.85-4.15-30.15-12.44C4.15,102.14,0,91.22,0,80.29c0-10.92,4.15-21.85,12.44-30.15 l33.19-33.19C53.92,8.67,64.85,4.52,75.77,4.52c9.34,0,18.68,3.03,26.37,9.09l12.13-12.13c1.97-1.97,5.16-1.97,7.13,0 c1.97,1.97,1.97,5.16,0,7.13L109.27,20.73L109.27,20.73z M82.03,40.16L82.03,40.16c3.15,3.15,3.15,8.31,0,11.47l-5.91,5.91 c-3.15,3.15-8.31,3.15-11.47,0l0,0c-3.15-3.15-3.15-8.31,0-11.47l5.91-5.91C73.71,37,78.87,37,82.03,40.16L82.03,40.16z M108.29,47.11c0-8.35-3.16-16.69-9.49-23.02c-6.33-6.33-14.67-9.49-23.02-9.49c-8.35,0-16.69,3.16-23.02,9.49L19.57,57.27 c-6.33,6.33-9.49,14.67-9.49,23.02c0,8.35,3.16,16.69,9.49,23.02c6.33,6.33,14.67,9.49,23.02,9.49c8.35,0,16.69-3.16,23.02-9.49 l33.19-33.19C105.12,63.8,108.29,55.45,108.29,47.11L108.29,47.11z"/></g></svg>