<?xml version="1.0" encoding="utf-8"?><svg version="1.1" id="Layer_1" xmlns="http://www.w3.org/2000/svg" xmlns:xlink="http://www.w3.org/1999/xlink" x="0px" y="0px" viewBox="0 0 122.88 122.88" style="enable-background:new 0 0 122.88 122.88" xml:space="preserve"><g><path d="M117.14,22.33c3.83,6.75,5.74,14.32,5.74,21.88c0,11.34-4.31,22.69-12.92,31.3l-34.45,34.45 c-8.61,8.61-19.96,12.92-31.3,12.92c-11.34,0-22.69-4.31-31.3-12.92C4.31,101.35,0,90.01,0,78.67c0-11.34,4.31-22.69,12.92-31.3 l34.45-34.45C55.98,4.31,67.32,0,78.67,0c8.81,0,17.63,2.6,25.16,7.8C108.37,10.94,114.57,17.8,117.14,22.33L117.14,22.33z M85.16,37L85.16,37c3.27,3.27,3.27,8.63,0,11.91l-6.13,6.13c-3.27,3.27-8.63,3.27-11.91,0l0,0c-3.27-3.27-3.27-8.63,0-11.9 L73.25,37C76.53,33.72,81.89,33.72,85.16,37L85.16,37z M112.42,44.21c0-8.67-3.28-17.33-9.85-23.9s-15.23-9.85-23.9-9.85 c-8.67,0-17.33,3.28-23.9,9.85L20.31,54.77c-6.57,6.57-9.85,15.23-9.85,23.9c0,8.67,3.28,17.33,9.85,23.9 c6.57,6.57,15.23,9.85,23.9,9.85c8.67,0,17.33-3.28,23.9-9.85l34.45-34.45C109.14,61.54,112.42,52.88,112.42,44.21L112.42,44.21z"/></g></svg>