<?xml version="1.0" encoding="utf-8"?><svg version="1.1" id="Layer_1" xmlns="http://www.w3.org/2000/svg" xmlns:xlink="http://www.w3.org/1999/xlink" x="0px" y="0px" viewBox="0 0 91.16 122.88" style="enable-background:new 0 0 91.16 122.88" xml:space="preserve"><g><path d="M41.43,20.44c1.57,0,3.11,0.16,4.59,0.47V8.83c0-1.26-0.52-2.41-1.35-3.24c-0.83-0.83-1.98-1.35-3.24-1.35 c-1.26,0-2.41,0.52-3.24,1.35c-0.83,0.83-1.35,1.98-1.35,3.24V20.9C38.32,20.6,39.85,20.44,41.43,20.44L41.43,20.44z M39.5,83.1 c0-1.17,0.95-2.12,2.12-2.12c1.17,0,2.12,0.95,2.12,2.12v7.29c4.2-0.04,8.21-0.59,12.01-1.62L44.08,65.49 c-0.87,0.1-1.76,0.15-2.65,0.15c-0.91,0-1.81-0.05-2.69-0.16L27.37,88.14c4.16,1.15,8.21,1.85,12.13,2.12V83.1L39.5,83.1z M43.75,94.62v7.05c0,1.17-0.95,2.12-2.12,2.12c-1.17,0-2.12-0.95-2.12-2.12v-7.17c-4.54-0.29-9.24-1.12-14.06-2.51l-14.86,29.62 c-0.24,0.53-0.69,0.96-1.29,1.16c-1.11,0.36-2.31-0.25-2.66-1.37l-6.5-20.26c-0.18-0.52-0.17-1.1,0.09-1.63l21.77-44.95 c-2.01-3.38-3.16-7.32-3.16-11.53c0-6.24,2.53-11.89,6.62-15.98c2.04-2.04,4.46-3.69,7.15-4.83V8.83c0-2.43,0.99-4.64,2.59-6.24 C36.79,0.99,39,0,41.43,0c2.43,0,4.64,0.99,6.24,2.59c1.6,1.6,2.59,3.81,2.59,6.24v13.39c2.69,1.14,5.11,2.79,7.15,4.83 c4.09,4.09,6.62,9.74,6.62,15.98c0,4.22-1.16,8.18-3.18,11.56l12.09,24.96c6.03-5.28,10.86-12.38,14.12-21.05 c0.41-1.09,1.63-1.65,2.72-1.24c1.09,0.41,1.65,1.63,1.24,2.72c-3.67,9.77-9.21,17.71-16.17,23.51l7.76,16.02 c0.26,0.53,0.27,1.12,0.09,1.63l-6.5,20.26c-0.36,1.11-1.55,1.72-2.66,1.37c-0.6-0.19-1.05-0.63-1.29-1.16l-14.55-29 C53.29,93.89,48.63,94.58,43.75,94.62L43.75,94.62z M22.39,88.64c0.04-0.09,0.08-0.18,0.14-0.27l11.95-23.82 c-3.45-1.11-6.53-3.03-9.03-5.53c-0.21-0.21-0.41-0.42-0.61-0.63L4.39,100.6l4.68,14.59L22.39,88.64L22.39,88.64z M59.83,87.45 c1-0.38,1.99-0.79,2.96-1.25c2.37-1.11,4.63-2.42,6.76-3.95L58,58.42c-0.19,0.21-0.39,0.41-0.59,0.61 c-2.51,2.51-5.6,4.43-9.06,5.54L59.83,87.45L59.83,87.45z M71.41,86.11c-2.17,1.5-4.45,2.81-6.83,3.92 c-0.93,0.44-1.88,0.84-2.84,1.22l12.01,23.94l4.68-14.59L71.41,86.11L71.41,86.11z M56.51,53.51c0.09-0.18,0.2-0.35,0.34-0.5 c1.86-2.87,2.94-6.29,2.94-9.97c0-5.07-2.05-9.66-5.38-12.98c-3.32-3.32-7.91-5.38-12.98-5.38s-9.66,2.05-12.98,5.38 c-3.32,3.32-5.38,7.91-5.38,12.98s2.05,9.66,5.38,12.98c3.32,3.32,7.91,5.38,12.98,5.38s9.66-2.06,12.98-5.38 C55.18,55.25,55.88,54.41,56.51,53.51L56.51,53.51z M41.43,34.09c2.47,0,4.71,1,6.33,2.62c1.62,1.62,2.62,3.86,2.62,6.33 c0,2.47-1,4.71-2.62,6.33c-1.62,1.62-3.86,2.62-6.33,2.62s-4.71-1-6.33-2.62c-1.62-1.62-2.62-3.86-2.62-6.33 c0-2.47,1-4.71,2.62-6.33C36.72,35.09,38.96,34.09,41.43,34.09L41.43,34.09z M44.75,39.71c-0.85-0.85-2.03-1.38-3.33-1.38 s-2.48,0.53-3.33,1.38c-0.85,0.85-1.38,2.03-1.38,3.33c0,1.3,0.53,2.48,1.38,3.33c0.85,0.85,2.03,1.38,3.33,1.38 s2.48-0.53,3.33-1.38c0.85-0.85,1.38-2.03,1.38-3.33C46.13,41.74,45.6,40.56,44.75,39.71L44.75,39.71z"/></g></svg>