<svg xmlns="http://www.w3.org/2000/svg" shape-rendering="geometricPrecision" text-rendering="geometricPrecision" image-rendering="optimizeQuality" fill-rule="evenodd" clip-rule="evenodd" viewBox="0 0 509 512.12"><path fill-rule="nonzero" d="M184.33 331.62c23.88 11.38 49.41 17.08 73.93 16.87 23.23-.2 45.55-5.71 64.63-16.72l-14.55-19.41c-14.81 10.73-31.48 17.9-47.25 19.22-1.78.15-3.54.23-5.25.23-19.37-.01-39.68-8.18-57.16-21-4.88 6.88-9.5 13.93-14.35 20.81zm147.53-5.18a7 7 0 0 1 4.03.03c18.92 5.9 35.06 10.57 49.49 14.74C486.69 370.51 509 376.97 509 505.15a6.97 6.97 0 0 1-6.97 6.97H6.97A6.97 6.97 0 0 1 0 505.15c0-127.28 29.02-135.66 131.66-165.29 12.54-3.62 26.23-7.57 40.84-12.03l.34-.09 16.94-24.06c-1.47-1.28-2.9-2.6-4.31-3.94-18.33-17.53-31.65-40.3-34.02-62.77-13.56-4.39-21.01-19.04-23.54-34.29-1.66-10.05-1.19-20.53 1.08-28.17 3.11-10.48 9.46-16.7 18.77-14.27-2.3-2.27-4.52-4.61-6.66-7.07l1.34-37.94c-5.84-7.39-10.75-16.39-14.52-24.97-5.94-13.54-4.96-15.32 6.44-20.79 21.9-10.52 41.46-19.74 58.82-32.31C217.9 19.26 226.8-4.64 262.65.78c19.09 2.89 36.16 25.32 51.23 38 17.02 14.3 35.61 24.22 54.13 31.05 22.59 7.31 19.25 14.1 8.31 33.51-2.81 4.99-6.04 9.39-9.62 13.28l1.34 35.63c-2.31 2.63-4.72 5.14-7.21 7.56-.24 1.88-.51 3.83-.8 5.8 5.01-2.54 9.34-2.11 12.95.41 5.83 4.05 8.04 14.35 7.28 25.84-.67 10.08-3.47 21.66-7.9 30.28-4.32 8.43-10.15 14.4-17.29 15.2-1.27 21.8-13.53 43.93-30.62 61.2-2.31 2.33-4.71 4.59-7.19 6.74 4.89 7.04 9.62 14.19 14.6 21.16zm12.98-153.29c-50.71 36.18-124.42 38.06-176.42 3.83l.62 8c.18 2.66-1.18 5.31-3.68 6.63-3.38 1.77-7.56.48-9.34-2.9-5.24-9.94-9.08-14.39-11.7-15.1-.4-.11-1.2 1.9-2.07 4.82-1.72 5.79-2.04 13.97-.7 22.03 1.96 11.83 7.42 23.06 17.04 23.97 3.46.29 6.22 3.16 6.3 6.71.49 20.37 12.73 41.96 30.11 58.59 17.52 16.75 40.05 28.26 60.84 28.25 1.38-.02 2.76-.09 4.12-.2 18.52-1.55 38.88-12.99 54.69-28.98 15.72-15.89 26.74-36.08 26.73-55.22-.02-1.35-.08-2.68-.18-3.96-.08-1.24.15-2.52.75-3.71a6.903 6.903 0 0 1 9.28-3c3.01 1.53 6.19-1.87 8.85-7.04 3.56-6.93 5.82-16.48 6.38-24.91.47-6.98.1-12.55-1.38-13.58-.48-.34-3.27 2.89-9.65 12.06a6.905 6.905 0 0 1-6.84 2.87 6.919 6.919 0 0 1-5.66-7.98l.4-2.32 1.51-8.86zm-89.59 286.74c6.3 0 11.4 5.1 11.4 11.4 0 6.3-5.1 11.4-11.4 11.4-6.3 0-11.4-5.1-11.4-11.4 0-6.3 5.1-11.4 11.4-11.4zm0-53.2c6.3 0 11.4 5.11 11.4 11.4 0 6.3-5.1 11.4-11.4 11.4-6.3 0-11.4-5.1-11.4-11.4 0-6.29 5.1-11.4 11.4-11.4zm42.73-49.7c-.21.16-.43.31-.66.45l-69.44 42.76c-9.12 7.41-15.38 14.18-19.22 21.92-3.86 7.81-5.48 17-5.33 29.28l.02 46.79h291.69c-.83-111.03-22.34-117.27-113.52-143.65-14.16-4.09-29.91-8.65-46.64-13.84-11.34 7.27-23.78 12.69-36.9 16.29zm-108.65 141.2v-46.71c-.14-14.55 1.9-25.7 6.78-35.55 4.88-9.85 12.43-18.08 23.27-26.84l.71-.5 42.76-26.33c-1.49.06-2.98.09-4.48.11-28.18.24-57.52-6.68-84.56-20.44-13.96 4.24-26.63 7.9-38.28 11.26-92.87 26.81-120.48 34.8-121.56 145h175.36z"/></svg>