<?xml version="1.0" encoding="utf-8"?><svg version="1.1" id="Layer_1" xmlns="http://www.w3.org/2000/svg" xmlns:xlink="http://www.w3.org/1999/xlink" x="0px" y="0px" viewBox="0 0 92.52 122.88" enable-background="new 0 0 92.52 122.88" xml:space="preserve"><g><path fill-rule="evenodd" clip-rule="evenodd" d="M44.104,75.412c-0.553,0.861-0.862,1.756-0.979,2.66h13.887 c3.734,0,6.8,3.064,6.8,6.8v6.799l-0.075,0.001v24.026c0,3.734-3.064,6.799-6.799,6.799h-6.8V93.63c0-2.98-1.117-1.948-4.49-1.948 H30.461v-0.053h-8.715c-5.618,0-11.95-4.873-10.226-10.226c5.542-17.18,11.821-25.576,21.282-40.862 c3.012-4.863,9.45-6.385,14.312-3.374l4.374,2.703c4.501,2.788,5.47,5.501,5.501,8.321l5.853,6.044l3.075-12.822 c0.139-0.575,0.352-1.107,0.639-1.585c-1.511,0.542-3.128,0.841-4.82,0.841c-7.854,0-14.228-6.374-14.228-14.227 s6.374-14.227,14.228-14.227s14.227,6.374,14.227,14.227c0,4.182-1.809,7.938-4.671,10.545c0.521-0.021,1.053,0.021,1.585,0.149 c3.097,0.734,5.012,3.853,4.278,6.949L71.993,65.58h18.674c0.33,0,0.606,0.276,0.606,0.606v8.662c0,0.329-0.276,0.606-0.606,0.606 h-2.725v45.988c0,0.436-0.361,0.798-0.798,0.798h-6.853c-0.437,0-0.799-0.361-0.799-0.798V75.455H53.456 c-0.329,0-0.606-0.277-0.606-0.606v-8.651c0-0.33,0.277-0.606,0.606-0.606h4.289l-4.607-4.768L44.104,75.412L44.104,75.412 L44.104,75.412z M83.843,0.801c0.181,0.339,0.233,0.745,0.11,1.139L81.995,8.22c-0.123,0.39-0.395,0.7-0.733,0.881 c-0.332,0.176-0.727,0.23-1.111,0.118l-0.043-0.013c-0.162-0.056-0.313-0.135-0.443-0.233c-0.135-0.101-0.253-0.225-0.346-0.367 l-0.589-0.879l-0.845,2.79c-0.096,0.403-0.349,0.725-0.678,0.923c-0.328,0.196-0.732,0.27-1.131,0.175 c-0.402-0.096-0.726-0.349-0.924-0.678c-0.196-0.328-0.27-0.732-0.175-1.131l1.719-6.002c0.05-0.173,0.126-0.344,0.231-0.496 c0.104-0.151,0.236-0.286,0.392-0.39l0.02-0.01c0.34-0.224,0.736-0.291,1.103-0.219c0.366,0.071,0.706,0.281,0.935,0.611 l0.699,1.034l1.012-3.272c0.123-0.392,0.396-0.703,0.733-0.884c0.34-0.181,0.745-0.233,1.139-0.109 C83.352,0.19,83.662,0.462,83.843,0.801L83.843,0.801z M91.81,31.949c-0.135,0.359-0.405,0.667-0.777,0.838 c-1.985,0.906-3.984,1.858-5.981,2.729c-0.375,0.164-0.779,0.163-1.13,0.031c-0.355-0.134-0.657-0.402-0.823-0.771l-0.003-0.009 c-0.067-0.148-0.11-0.306-0.127-0.466l-0.002-0.018c-0.016-0.159-0.006-0.319,0.029-0.47l0.22-0.866l-3.054,1.889 c-0.369,0.188-0.777,0.21-1.14,0.094c-0.35-0.111-0.658-0.35-0.852-0.687l-0.031-0.054c-0.188-0.368-0.208-0.776-0.092-1.14 c0.115-0.362,0.366-0.681,0.724-0.872l6.065-3.572c0.152-0.079,0.32-0.132,0.497-0.153l0.019-0.003 c0.17-0.018,0.351-0.007,0.532,0.039l0.026,0.006c0.391,0.102,0.706,0.35,0.899,0.67c0.193,0.322,0.267,0.717,0.173,1.111 l-0.309,1.217l3.116-1.424c0.374-0.172,0.783-0.174,1.141-0.041c0.358,0.135,0.667,0.405,0.838,0.778 C91.941,31.183,91.943,31.592,91.81,31.949L91.81,31.949z M92.469,18.041c-0.095,0.352-0.319,0.668-0.654,0.877l-0.049,0.032 l-5.694,3.257c-0.361,0.206-0.767,0.25-1.134,0.15c-0.354-0.095-0.674-0.324-0.883-0.665l-0.023-0.036 c-0.086-0.15-0.144-0.309-0.174-0.468c-0.031-0.169-0.034-0.338-0.013-0.498l0.164-1.018l-2.68,1.68 c-0.341,0.218-0.732,0.283-1.097,0.212l-0.027-0.005c-0.359-0.077-0.69-0.286-0.917-0.608l-0.031-0.043 c-0.218-0.341-0.282-0.733-0.212-1.097l0.005-0.027c0.077-0.363,0.29-0.698,0.619-0.924l5.484-3.467 c0.156-0.11,0.333-0.188,0.521-0.23c0.183-0.042,0.373-0.05,0.563-0.021l0.009,0.002c0.408,0.067,0.754,0.291,0.979,0.599 c0.227,0.31,0.334,0.706,0.267,1.115l-0.191,1.202l2.975-1.705c0.361-0.206,0.765-0.246,1.129-0.148 c0.37,0.1,0.702,0.342,0.91,0.694l0.002,0.006C92.524,17.268,92.567,17.674,92.469,18.041L92.469,18.041z M3.934,116.145 c0.053-0.415,0.245-0.819,0.564-1.139c2.351-2.373,5.331-4.299,8.726-5.629c2.373-0.926,4.948-1.554,7.662-1.83l-0.511-5.543H3.572 c-1.926,0-3.5-1.575-3.5-3.501c0-14.472,3.405-25.357,0-41.841c-1.011-4.884,9.066-5.597,9.066,0.255v37.095h34.881 c1.926,0,3.49,2.564,3.49,4.49v2.725c0,0.425-0.351,0.766-0.776,0.766H26.588l-0.724,5.458c2.863,0.191,5.608,0.776,8.129,1.702 c3.246,1.182,6.129,2.916,8.471,5.065c0.564,0.511,0.766,1.276,0.585,1.957c0.904,0.682,1.49,1.757,1.49,2.98 c0,2.054-1.66,3.714-3.714,3.714s-3.714-1.66-3.714-3.714c0-1.224,0.596-2.32,1.511-2.99c-1.734-1.352-3.756-2.469-5.98-3.277 c-2.383-0.873-5.022-1.395-7.8-1.501l-0.404,4.022l-0.021,0.17c1.564,0.437,2.724,1.873,2.724,3.586 c0,2.054-1.66,3.714-3.713,3.714c-2.054,0-3.714-1.66-3.714-3.714c0-1.691,1.139-3.128,2.692-3.575l-0.011-0.191l-0.287-3.969 c-2.649,0.181-5.161,0.745-7.438,1.628h-0.01c-2.224,0.861-4.235,2.043-5.937,3.447c0.681,0.671,1.106,1.618,1.106,2.65 c0,2.054-1.66,3.714-3.714,3.714s-3.713-1.66-3.713-3.714C2.391,117.922,2.997,116.825,3.934,116.145L3.934,116.145L3.934,116.145z"/></g></svg>