<?xml version="1.0" encoding="utf-8"?><svg version="1.1" id="Layer_1" xmlns="http://www.w3.org/2000/svg" xmlns:xlink="http://www.w3.org/1999/xlink" x="0px" y="0px" viewBox="0 0 115.3 122.88" style="enable-background:new 0 0 115.3 122.88" xml:space="preserve"><style type="text/css"><![CDATA[
	.st0{fill-rule:evenodd;clip-rule:evenodd;fill:#4BA042;}
	.st1{fill:#393939;}
]]></style><g><path class="st1" d="M43,37.32c-0.4,0.35-0.99,0.29-1.33-0.14c-0.33-0.42-0.28-1.05,0.13-1.41c1.93-1.69,4.98-1.1,7.61-0.61 c1.1,0.21,2.12,0.4,2.82,0.38c0.52-0.02,0.95,0.41,0.98,0.96c0.02,0.55-0.39,1.01-0.91,1.04c-0.9,0.03-2.01-0.18-3.21-0.41 C46.85,36.72,44.25,36.22,43,37.32L43,37.32L43,37.32z M76.31,66.73c8.93,3.45,18.03,6.87,24.79,11.1c4.3,2.69,6.52,4.72,8.26,7.98 c4.28,8.02,3.65,13.55,5.94,22.09H91.12c0.42-1.03,0.65-2.15,0.65-3.32v-4.24c0-2.45-0.99-4.66-2.59-6.26 c-1.6-1.6-3.81-2.59-6.26-2.59H78.5l-7.4-8.29c-0.21-0.29-0.45-0.56-0.71-0.82c-0.11-0.12-0.23-0.23-0.35-0.34 C76.1,79,79.66,73.67,76.31,66.73L76.31,66.73z M24.17,107.91H0c2.29-8.54,1.66-14.07,5.94-22.09c1.74-3.26,3.96-5.29,8.26-7.98 c6.75-4.23,15.86-7.65,24.79-11.1c-1.45,7.56,1.55,12.53,6.43,15.33l-0.16,0.15l-0.45,0.48l0.02,0.01l-7.84,8.78h-0.85h-3.74 c-2.45,0-4.66,0.99-6.26,2.59c-1.6,1.6-2.6,3.82-2.6,6.26v4.24C23.53,105.76,23.76,106.88,24.17,107.91L24.17,107.91z M34.86,27.1 c7.16,7.71,18.23-2.39,29.02-5.22c6.12-1.61,9.41,9.29,17.31,5.31l0.74,8.63c4.91-1.12,1.42,14.08-2.84,13.29 c-1.4,4.64-1.94,7.93-4.23,11.01c-4.29,5.76-11.24,8.7-16.81,8.58c-5.25-0.11-11.94-3.01-16.23-8.33 c-2.63-3.27-3.49-6.86-5.13-11.88c-4.54,1.35-7.58-14.07-2.64-12.75L34.86,27.1L34.86,27.1L34.86,27.1z M72.33,64.96 C96,63.04,92,28.78,78.88,10.09C68.21-5.13,43.55-0.91,36.01,8.17c-6.15,7.41-9.01,17.53-9.68,28.97v5.22 c0,16.38,5.19,19.55,17.55,22.27c1.45,1.21,3.03,2.24,4.64,3.07c3.17,1.63,6.53,2.5,9.49,2.57c3.13,0.07,6.66-0.76,9.96-2.44 C69.49,67.05,70.96,66.09,72.33,64.96L72.33,64.96L72.33,64.96z M72.76,40.69c0.44,0.15,0.7,0.71,0.57,1.24 c-0.12,0.53-0.59,0.84-1.03,0.69c-0.9-0.31-1.79-0.5-2.67-0.57c0.07,0.19,0.11,0.41,0.11,0.63c0,1.01-0.77,1.82-1.72,1.82 s-1.72-0.81-1.72-1.82c0-0.11,0.01-0.22,0.03-0.33c-0.29,0.07-0.58,0.17-0.87,0.27c-0.44,0.15-0.9-0.15-1.03-0.68 c-0.13-0.53,0.12-1.09,0.57-1.24c1.27-0.45,2.56-0.67,3.86-0.67C70.16,40.01,71.46,40.23,72.76,40.69L72.76,40.69L72.76,40.69z M43.57,42.8c-0.44,0.18-0.91-0.1-1.06-0.62c-0.15-0.53,0.08-1.1,0.52-1.27c1.3-0.54,2.61-0.79,3.92-0.78 c1.31,0.01,2.6,0.28,3.9,0.77c0.44,0.17,0.68,0.73,0.54,1.26c-0.14,0.53-0.6,0.82-1.04,0.65c-0.29-0.11-0.57-0.21-0.86-0.29 c0.02,0.11,0.03,0.24,0.03,0.36c0,1.01-0.77,1.82-1.71,1.82c-0.95,0-1.72-0.81-1.72-1.82c0-0.26,0.05-0.5,0.14-0.73 C45.35,42.21,44.46,42.43,43.57,42.8L43.57,42.8L43.57,42.8z M74.03,35.59c0.4,0.35,0.46,0.98,0.13,1.41 c-0.33,0.42-0.92,0.49-1.33,0.14c-1.26-1.1-3.85-0.61-6.08-0.18c-1.2,0.23-2.32,0.44-3.21,0.41c-0.52-0.02-0.93-0.48-0.91-1.03 c0.02-0.55,0.45-0.98,0.98-0.96c0.7,0.03,1.72-0.17,2.82-0.38C69.05,34.49,72.1,33.9,74.03,35.59L74.03,35.59L74.03,35.59z M55.29,50.27c-0.38-0.37-0.42-1.01-0.06-1.41c0.35-0.41,0.95-0.44,1.33-0.07c0.46,0.45,0.89,0.66,1.29,0.65 c0.41-0.01,0.85-0.23,1.33-0.67c0.39-0.36,0.99-0.31,1.33,0.1c0.34,0.42,0.3,1.05-0.1,1.41c-0.81,0.75-1.66,1.14-2.55,1.16 C56.98,51.45,56.12,51.07,55.29,50.27L55.29,50.27L55.29,50.27z M51.63,56.4c-0.4-0.34-0.47-0.97-0.15-1.4 c0.32-0.43,0.92-0.5,1.32-0.15c1.88,1.6,3.65,2.38,5.29,2.38c1.6-0.01,3.14-0.78,4.62-2.32c0.37-0.38,0.97-0.38,1.33,0.02 c0.36,0.4,0.36,1.03-0.02,1.41c-1.84,1.9-3.82,2.87-5.93,2.88C56.02,59.23,53.87,58.29,51.63,56.4L51.63,56.4L51.63,56.4z"/><path class="st0" d="M36.13,98.84h4.1l10.06-11.27c0.89-1,2.44-1.08,3.44-0.2l0,0c1,0.89,1.09,2.44,0.2,3.44l-7.15,8.01H68.7 l-7.15-8.01c-0.89-1-0.81-2.55,0.2-3.44l0,0c1-0.89,2.55-0.81,3.44,0.2l10.06,11.27h3.93h0.05h3.69c0.83,0,1.5,0.67,1.5,1.5v4.24 c0,0.83-0.67,1.5-1.5,1.5h-3.19l-1.64,15.75c-0.04,0.57-0.48,1.04-1.04,1.04H38.25c-0.57,0-1-0.48-1.04-1.04l-1.64-15.75h-3.18 c-0.83,0-1.5-0.67-1.5-1.5v-4.24c0-0.83,0.67-1.5,1.5-1.5h3.69H36.13L36.13,98.84L36.13,98.84L36.13,98.84z M64.72,106.91h4.75 v8.79h-4.75V106.91L64.72,106.91L64.72,106.91L64.72,106.91z M55.48,106.91h4.75v8.79h-4.75V106.91L55.48,106.91L55.48,106.91 L55.48,106.91z M46.22,106.91h4.76v8.79h-4.76V106.91L46.22,106.91L46.22,106.91L46.22,106.91z"/></g></svg>