<svg xmlns="http://www.w3.org/2000/svg" shape-rendering="geometricPrecision" text-rendering="geometricPrecision" image-rendering="optimizeQuality" fill-rule="evenodd" clip-rule="evenodd" viewBox="0 0 512 500.55"><path fill-rule="nonzero" d="M7.47 33.16h207.37v434.23H7.47c-2.05 0-3.92-.84-5.28-2.19A7.465 7.465 0 0 1 0 459.93V40.63c0-2.05.84-3.91 2.19-5.26 1.37-1.37 3.23-2.21 5.28-2.21zm443 36.69c7.15 0 13.63 2.9 18.31 7.58 4.69 4.69 7.6 11.18 7.6 18.32 0 7.14-2.91 13.62-7.6 18.31-4.7 4.7-11.17 7.6-18.31 7.6-7.15 0-13.63-2.9-18.32-7.59-4.68-4.69-7.59-11.17-7.59-18.32 0-7.14 2.91-13.62 7.59-18.31 4.7-4.69 11.17-7.59 18.32-7.59zm16.31 9.59a22.997 22.997 0 0 0-16.31-6.75 22.98 22.98 0 0 0-16.31 6.75 22.98 22.98 0 0 0-6.75 16.31c0 6.37 2.58 12.14 6.75 16.31 4.17 4.17 9.94 6.76 16.31 6.76 6.38 0 12.14-2.59 16.31-6.75 4.17-4.17 6.75-9.94 6.75-16.32 0-6.37-2.58-12.14-6.75-16.31zm-16.31-.51c9.29 0 16.82 7.53 16.82 16.82 0 3.74-1.22 7.18-3.27 9.97L440.5 82.2c2.79-2.05 6.24-3.27 9.97-3.27zm9.97 30.37a16.733 16.733 0 0 1-9.97 3.28c-9.29 0-16.83-7.54-16.83-16.83 0-3.73 1.23-7.17 3.28-9.97l23.52 23.52zm-101.75 73.75c7.15 0 13.63 2.91 18.32 7.59a25.833 25.833 0 0 1 7.59 18.32c0 7.14-2.9 13.62-7.59 18.31-4.7 4.7-11.18 7.6-18.32 7.6-7.14 0-13.63-2.91-18.32-7.6a25.825 25.825 0 0 1-7.58-18.31c0-7.15 2.9-13.63 7.58-18.31 4.7-4.69 11.18-7.6 18.32-7.6zm16.31 9.6a22.98 22.98 0 0 0-16.31-6.75c-6.37 0-12.14 2.58-16.31 6.75a22.98 22.98 0 0 0-6.75 16.31c0 6.37 2.58 12.14 6.75 16.31 4.17 4.17 9.94 6.75 16.31 6.75 6.38 0 12.15-2.58 16.31-6.75 4.17-4.17 6.76-9.93 6.76-16.31 0-6.37-2.59-12.14-6.76-16.31zm-16.31-.51c9.29 0 16.83 7.53 16.83 16.82 0 3.73-1.22 7.18-3.28 9.97l-23.52-23.52c2.79-2.05 6.24-3.27 9.97-3.27zm9.97 30.37a16.77 16.77 0 0 1-9.97 3.27c-9.29 0-16.82-7.53-16.82-16.82 0-3.73 1.22-7.18 3.28-9.97l23.51 23.52zm81.81 43.18c7.15 0 13.63 2.9 18.31 7.58 4.69 4.69 7.6 11.17 7.6 18.32 0 7.14-2.91 13.62-7.6 18.31-4.7 4.7-11.17 7.6-18.31 7.6-7.15 0-13.63-2.91-18.32-7.59-4.68-4.69-7.59-11.17-7.59-18.32s2.91-13.62 7.59-18.31c4.7-4.69 11.17-7.59 18.32-7.59zm16.31 9.59a22.997 22.997 0 0 0-16.31-6.75 22.98 22.98 0 0 0-16.31 6.75 22.98 22.98 0 0 0-6.75 16.31c0 6.37 2.58 12.14 6.75 16.31 4.17 4.17 9.94 6.75 16.31 6.75 6.38 0 12.14-2.58 16.31-6.75a22.98 22.98 0 0 0 6.75-16.31c0-6.37-2.58-12.14-6.75-16.31zm-16.31-.51c9.29 0 16.82 7.53 16.82 16.82 0 3.73-1.22 7.18-3.27 9.97l-23.52-23.52c2.79-2.05 6.24-3.27 9.97-3.27zm9.97 30.37a16.733 16.733 0 0 1-9.97 3.28c-9.29 0-16.83-7.54-16.83-16.83a16.8 16.8 0 0 1 3.28-9.97l23.52 23.52zm-101.75 73.75c7.15 0 13.63 2.9 18.32 7.59a25.833 25.833 0 0 1 7.59 18.32c0 7.14-2.9 13.62-7.59 18.31-4.7 4.7-11.18 7.59-18.32 7.59-7.14 0-13.63-2.9-18.32-7.59a25.825 25.825 0 0 1-7.58-18.31c0-7.15 2.9-13.63 7.58-18.32 4.7-4.69 11.18-7.59 18.32-7.59zm16.31 9.59a23.013 23.013 0 0 0-16.31-6.74 23.03 23.03 0 0 0-23.06 23.06c0 6.37 2.58 12.14 6.75 16.31 4.17 4.17 9.94 6.75 16.31 6.75 6.38 0 12.15-2.58 16.31-6.75 4.17-4.17 6.76-9.94 6.76-16.31 0-6.37-2.59-12.15-6.76-16.32zm-16.31-.51c9.29 0 16.83 7.54 16.83 16.83 0 3.73-1.22 7.18-3.28 9.97l-23.52-23.52c2.79-2.06 6.24-3.28 9.97-3.28zm9.97 30.38a16.77 16.77 0 0 1-9.97 3.27c-9.29 0-16.82-7.53-16.82-16.82 0-3.74 1.22-7.18 3.28-9.97l23.51 23.52zM153.31 69.85c7.15 0 13.63 2.9 18.31 7.58 4.69 4.69 7.6 11.18 7.6 18.32 0 7.14-2.91 13.62-7.6 18.31-4.7 4.7-11.17 7.6-18.31 7.6-7.15 0-13.63-2.9-18.32-7.59a25.833 25.833 0 0 1-7.59-18.32c0-7.14 2.9-13.62 7.59-18.31a25.833 25.833 0 0 1 18.32-7.59zm16.31 9.59a22.997 22.997 0 0 0-16.31-6.75A22.98 22.98 0 0 0 137 79.44a22.98 22.98 0 0 0-6.75 16.31c0 6.37 2.58 12.14 6.75 16.31 4.16 4.17 9.94 6.76 16.31 6.76 6.37 0 12.14-2.59 16.31-6.75 4.17-4.17 6.75-9.94 6.75-16.32 0-6.37-2.58-12.14-6.75-16.31zm-16.31-.51c9.29 0 16.82 7.53 16.82 16.82 0 3.74-1.22 7.18-3.27 9.97L143.34 82.2c2.79-2.05 6.24-3.27 9.97-3.27zm9.97 30.37a16.733 16.733 0 0 1-9.97 3.28c-9.29 0-16.83-7.54-16.83-16.83 0-3.73 1.22-7.17 3.28-9.97l23.52 23.52zM61.53 183.05c7.15 0 13.63 2.91 18.32 7.59a25.833 25.833 0 0 1 7.59 18.32c0 7.14-2.9 13.62-7.59 18.31-4.7 4.7-11.18 7.6-18.32 7.6-7.14 0-13.63-2.91-18.32-7.6a25.825 25.825 0 0 1-7.58-18.31c0-7.15 2.9-13.63 7.58-18.31 4.7-4.69 11.18-7.6 18.32-7.6zm16.31 9.6a22.997 22.997 0 0 0-16.31-6.75 22.98 22.98 0 0 0-16.31 6.75 22.98 22.98 0 0 0-6.75 16.31c0 6.37 2.58 12.14 6.75 16.31 4.17 4.17 9.94 6.75 16.31 6.75 6.38 0 12.15-2.58 16.31-6.75a22.98 22.98 0 0 0 6.75-16.31c0-6.37-2.58-12.14-6.75-16.31zm-16.31-.51c9.29 0 16.83 7.53 16.83 16.82 0 3.73-1.22 7.18-3.28 9.97l-23.52-23.52c2.79-2.05 6.24-3.27 9.97-3.27zm9.97 30.37a16.77 16.77 0 0 1-9.97 3.27c-9.29 0-16.82-7.53-16.82-16.82 0-3.73 1.22-7.18 3.27-9.97l23.52 23.52zm81.81 43.18c7.15 0 13.63 2.9 18.31 7.58 4.69 4.69 7.6 11.17 7.6 18.32 0 7.14-2.91 13.62-7.6 18.31-4.7 4.7-11.17 7.6-18.31 7.6-7.15 0-13.63-2.91-18.32-7.59a25.833 25.833 0 0 1-7.59-18.32c0-7.15 2.9-13.62 7.59-18.31a25.833 25.833 0 0 1 18.32-7.59zm16.31 9.59a22.997 22.997 0 0 0-16.31-6.75 22.98 22.98 0 0 0-16.31 6.75 22.98 22.98 0 0 0-6.75 16.31c0 6.37 2.58 12.14 6.75 16.31a22.98 22.98 0 0 0 16.31 6.75c6.37 0 12.14-2.58 16.31-6.75a22.98 22.98 0 0 0 6.75-16.31c0-6.37-2.58-12.14-6.75-16.31zm-16.31-.51c9.29 0 16.82 7.53 16.82 16.82 0 3.73-1.22 7.18-3.27 9.97l-23.52-23.52c2.79-2.05 6.24-3.27 9.97-3.27zm9.97 30.37a16.733 16.733 0 0 1-9.97 3.28c-9.29 0-16.83-7.54-16.83-16.83 0-3.73 1.22-7.18 3.28-9.97l23.52 23.52zM61.53 378.89c7.15 0 13.63 2.9 18.32 7.59a25.833 25.833 0 0 1 7.59 18.32c0 7.14-2.9 13.62-7.59 18.31-4.7 4.7-11.18 7.59-18.32 7.59-7.14 0-13.63-2.9-18.32-7.59a25.825 25.825 0 0 1-7.58-18.31c0-7.15 2.9-13.63 7.58-18.32 4.7-4.69 11.18-7.59 18.32-7.59zm16.31 9.59a23.03 23.03 0 0 0-16.31-6.74c-6.37 0-12.15 2.58-16.31 6.74a23.021 23.021 0 0 0-6.75 16.32c0 6.37 2.58 12.14 6.75 16.31 4.17 4.17 9.94 6.75 16.31 6.75 6.38 0 12.15-2.58 16.31-6.75 4.17-4.17 6.75-9.94 6.75-16.31 0-6.37-2.58-12.15-6.75-16.32zm-16.31-.51c9.29 0 16.83 7.54 16.83 16.83 0 3.73-1.22 7.18-3.28 9.97l-23.52-23.52c2.79-2.06 6.24-3.28 9.97-3.28zm9.97 30.38a16.77 16.77 0 0 1-9.97 3.27c-9.29 0-16.82-7.53-16.82-16.82 0-3.74 1.22-7.18 3.27-9.97l23.52 23.52zm163.36-189.86h42.28V125.91h-42.28v102.58zm42.28 14.21h-42.28v15.15h42.28V242.7zM234.86 404h42.28v-15.15h-42.28V404zm42.28 14.21h-42.28v52.32c0 5.82 2.38 11.11 6.2 14.94 3.83 3.82 9.12 6.2 14.94 6.2s11.11-2.39 14.93-6.21c3.84-3.82 6.21-9.11 6.21-14.93v-52.32zm-42.28-43.57h42.28V272.06h-42.28v102.58zm0-262.94h42.28V96.55h-42.28v15.15zm0-29.36h42.28V30.02c0-5.71-2.29-10.92-6-14.73l-.21-.2c-3.82-3.82-9.11-6.21-14.92-6.21-5.72 0-10.93 2.29-14.74 6l-.2.21c-3.83 3.83-6.21 9.12-6.21 14.93v52.32zM256 0c8.26 0 15.77 3.38 21.21 8.82l.24.26c5.29 5.42 8.57 12.82 8.57 20.94v440.51c0 8.24-3.38 15.75-8.81 21.19-5.44 5.45-12.95 8.83-21.2 8.83s-15.76-3.38-21.2-8.82c-5.45-5.45-8.83-12.96-8.83-21.2V30.02c0-8.25 3.38-15.77 8.81-21.2l.26-.24C240.47 3.28 247.88 0 256 0zm247.12 42.04H306.05v416.47h197.07V42.04zM301.6 33.16h202.94c2.03 0 3.9.84 5.26 2.21a7.38 7.38 0 0 1 2.2 5.26v419.3c0 2.03-.84 3.9-2.19 5.25-1.37 1.37-3.23 2.21-5.27 2.21H297.16V33.16h4.44zm-95.64 8.88H8.88v416.47h197.08V42.04z"/></svg>