<?xml version="1.0" encoding="utf-8"?><svg version="1.1" id="Layer_1" xmlns="http://www.w3.org/2000/svg" xmlns:xlink="http://www.w3.org/1999/xlink" x="0px" y="0px" viewBox="0 0 122.88 105.69" style="enable-background:new 0 0 122.88 105.69" xml:space="preserve"><style type="text/css">.st0{fill-rule:evenodd;clip-rule:evenodd;}</style><g><path class="st0" d="M61.44,24.71c-10.31,0.23-20.99,1.19-29.91,3.02l-0.01-0.04C27.45,8.51,44.29-0.03,61.44,0 c17.15-0.03,34,8.51,29.92,27.7l-0.01,0.04C82.43,25.9,71.75,24.95,61.44,24.71L61.44,24.71z M60.82,9.41l1.6,3.92l4.23,0.31 l-3.23,2.74l1.01,4.12l-3.6-2.23l-3.6,2.23l1.01-4.12l-3.23-2.74l4.23-0.31L60.82,9.41L60.82,9.41z M17.55,92.4h16.11 c0.38,0,0.69,0.31,0.69,0.69v3.72c0,0.38-0.31,0.69-0.69,0.69H17.55c-0.38,0-0.69-0.31-0.69-0.69v-3.72 C16.86,92.71,17.17,92.4,17.55,92.4L17.55,92.4L17.55,92.4z M73.53,64.48c-4.3,2.87-6.93,4.45-12.5,4.31 c-5.42-0.08-8.25-1.91-12.58-4.65C48.12,82.23,73.98,83.3,73.53,64.48L73.53,64.48z M79.98,51.36c0.23-0.8,0.5-1.64,0.8-2.63 c0.11-0.42,0.53-0.72,0.95-0.65c1.26,0.23,2.52-1.6,3.39-3.81c0.5-1.33,0.88-2.78,0.99-4.08c0.12-1.22,0-2.29-0.34-2.94 c-0.34-0.63-1.28-0.26-1.98-0.88c-3.61,9.58-35.12,13.92-48.01,0.72c-0.46,0.73-0.53,2.02-0.38,3.47c0.19,1.53,0.65,3.2,1.34,4.54 c0.8,1.56,1.83,2.63,2.86,2.36c0.42-0.11,0.88,0.11,1.03,0.53c0.3,0.84,0.5,1.49,0.72,2.14C48.04,69.75,73.43,71.29,79.98,51.36 L79.98,51.36L79.98,51.36z M122.88,105.69l-0.72-2.76c-8.2-36.03-27.92-21.7-45-33.68c-0.26-0.23-0.52-0.46-0.77-0.7l-0.21-4.88 c3.09-3.23,6.63-9.1,8.06-13.38c1.77,0,3.29-1.48,4.36-3.58c0.82-1.64,1.4-3.62,1.6-5.51c0.21-1.93,0.04-3.74-0.66-4.89l0.91-4.36 c-8.62-1.78-18.99-2.71-29.03-2.94c-10.03,0.23-20.4,1.16-29.03,2.94l0.91,4.36c-0.7,1.15-0.86,2.96-0.66,4.89 c0.21,1.89,0.78,3.87,1.6,5.51c1.07,2.1,2.59,3.58,4.36,3.58c0.16,0.49,0.37,1.03,0.54,1.56c1.97,5.24,3.51,8.35,7.53,12.13 l-0.21,4.56c-0.25,0.24-0.5,0.47-0.77,0.7c-17.08,11.98-36.8-2.35-45,33.68L0,105.69H122.88L122.88,105.69z"/></g></svg>