<svg xmlns="http://www.w3.org/2000/svg" shape-rendering="geometricPrecision" text-rendering="geometricPrecision" image-rendering="optimizeQuality" fill-rule="evenodd" clip-rule="evenodd" viewBox="0 0 509 511.96"><path d="M247.1 0h.01c14.64 0 26.63 11.98 26.63 26.63v68.35h-53.28V26.63C220.46 11.98 232.45 0 247.1 0zM3.15 34.53h205.3v61.63h-27.31c-2.04 0-3.77 1.73-3.77 3.77v325.79c0 2.03 1.69 3.77 3.77 3.77h27.31v47.94H3.15c-1.69 0-3.15-1.42-3.15-3.15V37.68c0-1.74 1.42-3.15 3.15-3.15zm92.66 49.94c14.05 0 25.45 11.39 25.45 25.45 0 5.65-1.84 10.86-4.95 15.08L80.73 89.42a25.32 25.32 0 0 1 15.08-4.95zm15.08 45.95a25.343 25.343 0 0 1-15.08 4.95c-14.06 0-25.45-11.39-25.45-25.45 0-5.64 1.84-10.86 4.95-15.08l35.58 35.58zM95.81 230.53c14.05 0 25.45 11.39 25.45 25.45 0 5.65-1.84 10.86-4.95 15.08l-35.58-35.58a25.32 25.32 0 0 1 15.08-4.95zm15.08 45.95a25.343 25.343 0 0 1-15.08 4.95c-14.06 0-25.45-11.4-25.45-25.45 0-5.64 1.84-10.86 4.95-15.08l35.58 35.58zM95.81 376.59c14.05 0 25.45 11.39 25.45 25.45 0 5.65-1.84 10.86-4.95 15.08l-35.58-35.58a25.32 25.32 0 0 1 15.08-4.95zm15.08 45.95a25.343 25.343 0 0 1-15.08 4.95c-14.06 0-25.45-11.39-25.45-25.45 0-5.64 1.84-10.86 4.95-15.08l35.58 35.58zM505.85 34.53H308.96v61.63h-23.4v333.33h23.4v47.94h196.89c1.71 0 3.15-1.42 3.15-3.15V37.68c0-1.74-1.48-3.15-3.15-3.15zM397.28 84.47c14.06 0 25.45 11.39 25.45 25.45 0 5.65-1.84 10.86-4.95 15.08L382.2 89.42a25.32 25.32 0 0 1 15.08-4.95zm15.08 45.95a25.343 25.343 0 0 1-15.08 4.95c-14.06 0-25.45-11.39-25.45-25.45 0-5.64 1.84-10.86 4.95-15.08l35.58 35.58zm-15.08 100.11c14.06 0 25.45 11.39 25.45 25.45 0 5.65-1.84 10.86-4.95 15.08l-35.58-35.58a25.32 25.32 0 0 1 15.08-4.95zm15.08 45.95a25.343 25.343 0 0 1-15.08 4.95c-14.06 0-25.45-11.4-25.45-25.45 0-5.64 1.84-10.86 4.95-15.08l35.58 35.58zm-15.08 100.11c14.06 0 25.45 11.39 25.45 25.45 0 5.65-1.84 10.86-4.95 15.08l-35.58-35.58a25.32 25.32 0 0 1 15.08-4.95zm15.08 45.95a25.343 25.343 0 0 1-15.08 4.95c-14.06 0-25.45-11.39-25.45-25.45 0-5.64 1.84-10.86 4.95-15.08l35.58 35.58zM273.74 109.78v138.8h-53.28v-138.8h53.28zm0 153.6v146.11h-53.28V263.38h53.28zm0 160.91v61.03c0 14.65-11.99 26.64-26.63 26.64h-.01c-14.65 0-26.64-11.99-26.64-26.64v-61.03h53.28z"/></svg>