<?xml version="1.0" encoding="utf-8"?><svg version="1.1" id="Layer_1" xmlns="http://www.w3.org/2000/svg" xmlns:xlink="http://www.w3.org/1999/xlink" x="0px" y="0px" width="114.35px" height="122.88px" viewBox="0 0 114.35 122.88" enable-background="new 0 0 114.35 122.88" xml:space="preserve"><g><path fill-rule="evenodd" clip-rule="evenodd" d="M5.361,0h95.059c2.949,0,5.361,2.413,5.361,5.361v15.083h7.787 c0.43,0,0.781,0.349,0.781,0.778V37.81c0,0.22-0.182,0.399-0.402,0.399h-8.166v14.348h7.787c0.43,0,0.781,0.349,0.781,0.777v16.589 c0,0.22-0.182,0.398-0.402,0.398h-8.166v14.347h7.787c0.43,0,0.781,0.349,0.781,0.779v16.589c0,0.22-0.182,0.399-0.402,0.399 h-8.166v15.082c0,2.948-2.412,5.361-5.361,5.361H5.361c-2.948,0-5.361-2.413-5.361-5.361V5.361C0,2.413,2.414,0,5.361,0L5.361,0z M14.269,99.61V87.268c6.604-2.939,26.802-8.38,27.769-16.45c0.204-1.84-4.091-8.929-5.08-12.267 c-1.236-1.977-1.909-2.683-1.88-5.127c0.019-1.368,0.05-2.715,0.245-4.039c0.245-1.683,0.199-1.735,1.079-3.098 c0.921-1.408,0.522-6.556,0.522-8.506c0-19.342,33.9-19.353,33.9,0c0,2.456-0.564,6.951,0.764,8.867 c0.656,0.928,0.531,1.052,0.752,2.2c0.277,1.495,0.311,3.028,0.33,4.577c0.025,2.444-0.635,3.15-1.879,5.127 c-1.201,3.502-5.775,10.126-5.377,12.116c1.453,7.38,20.193,12.332,26.1,14.956L91.51,99.61H14.269L14.269,99.61z"/></g></svg>