<svg xmlns="http://www.w3.org/2000/svg" shape-rendering="geometricPrecision" text-rendering="geometricPrecision" image-rendering="optimizeQuality" fill-rule="evenodd" clip-rule="evenodd" viewBox="0 0 512 260.49"><path fill-rule="nonzero" d="M197.29 127.36h21.25c-.79-2.05-1.22-4.27-1.22-6.58V18.56c0-5.1 2.1-9.75 5.45-13.11C226.17 2.1 230.81 0 235.88 0h111.89c5.11 0 9.75 2.09 13.11 5.45 3.36 3.36 5.44 7.99 5.44 13.11v102.22c0 2.31-.43 4.53-1.22 6.58h80.34c18.31 0 34.96 7.49 47.02 19.54 12.05 12.06 19.54 28.71 19.54 47.02 0 18.31-7.49 34.96-19.55 47.01-12.05 12.06-28.72 19.56-47.01 19.56H66.57c-18.31 0-34.96-7.49-47.03-19.56C7.49 228.88 0 212.23 0 193.92c0-18.27 7.5-34.92 19.57-47 8.63-8.66 19.63-14.96 31.93-17.83a18.35 18.35 0 0 1-1.99-8.31V18.56c0-5.1 2.1-9.75 5.45-13.11C58.35 2.1 63 0 68.06 0h111.9c5.11 0 9.74 2.09 13.1 5.45 3.36 3.36 5.45 7.99 5.45 13.11v102.22c0 2.31-.43 4.53-1.22 6.58zm238.83-94.78 38.28 36.15-40.08 37.99-12.4-13.03 15.92-15.08-47.94.07V60.71l49.73-.07-15.84-14.96 12.33-13.1zm-330.79-5.04h37.66l.63 46.21-20.22-12.33-18.98 12.03.91-45.91zm74.63-11.76H68.06c-.76 0-1.46.31-1.96.81a2.86 2.86 0 0 0-.81 1.97v102.22c0 .77.3 1.47.79 1.96.53.5 1.22.81 1.98.81h111.9c.74 0 1.44-.32 1.95-.82.5-.51.82-1.21.82-1.95V18.56c0-.77-.31-1.46-.81-1.96-.5-.51-1.2-.82-1.96-.82zm93.17 11.76h37.66l.63 46.21-20.22-12.33-18.99 12.03.92-45.91zm74.64-11.76H235.88c-.77 0-1.47.31-1.97.81a2.86 2.86 0 0 0-.81 1.97v102.22c0 .77.31 1.47.79 1.96.53.5 1.22.81 1.99.81h111.89c.74 0 1.44-.32 1.95-.82.5-.51.82-1.21.82-1.95V18.56c0-.77-.31-1.46-.81-1.96-.5-.51-1.2-.82-1.96-.82zm61.5 152.52c14.15 0 25.63 11.47 25.63 25.62s-11.48 25.63-25.63 25.63c-14.15 0-25.62-11.48-25.62-25.63 0-14.15 11.47-25.62 25.62-25.62zm-102.18 0c14.15 0 25.62 11.47 25.62 25.62s-11.47 25.63-25.62 25.63c-14.16 0-25.63-11.48-25.63-25.63 0-14.15 11.47-25.62 25.63-25.62zm-102.18 0c14.15 0 25.63 11.47 25.63 25.62s-11.48 25.63-25.63 25.63c-14.15 0-25.62-11.48-25.62-25.63 0-14.15 11.47-25.62 25.62-25.62zm-102.18 0c14.15 0 25.63 11.47 25.63 25.62s-11.48 25.63-25.63 25.63c-14.15 0-25.63-11.48-25.63-25.63 0-14.15 11.48-25.62 25.63-25.62zm342.71-20.66H66.57c-12.72 0-24.29 5.22-32.68 13.61-8.41 8.36-13.6 19.93-13.6 32.67 0 12.71 5.21 24.29 13.6 32.67 8.39 8.4 19.97 13.61 32.68 13.61h378.87c12.7 0 24.28-5.22 32.67-13.61s13.61-19.96 13.61-32.67-5.22-24.28-13.61-32.67-19.96-13.61-32.67-13.61z"/></svg>