<svg id="Layer_1" data-name="Layer 1" xmlns="http://www.w3.org/2000/svg" viewBox="0 0 83.53 122.88"><title>costa-rica-colon</title><path d="M69.32,72.76l13.09-.22a.51.51,0,0,1,.52.5v0c-.54,11.49-4.45,20.84-11.12,27.32s-15.92,10-27.32,10l-2.14,0-1.66-.07-3.51,12.24a.53.53,0,0,1-.5.37h-8a.51.51,0,0,1-.52-.51l0-.19,3.61-13.09c-1.23-.27-2.42-.59-3.57-1s-2.21-.76-3.26-1.2L20.5,122.51a.51.51,0,0,1-.49.37H12a.51.51,0,0,1-.51-.51l0-.19L17,102.27a36.47,36.47,0,0,1-6.76-6.94A44.51,44.51,0,0,1,5,86.05,62.64,62.64,0,0,1,1.25,73.82,67.63,67.63,0,0,1,0,60.74a64.4,64.4,0,0,1,1.41-13.8A48.78,48.78,0,0,1,5.64,35a40.86,40.86,0,0,1,6.86-9.71,38.25,38.25,0,0,1,9.25-7.06,45.54,45.54,0,0,1,9.78-4A48.73,48.73,0,0,1,41.8,12.58L45.17.38A.51.51,0,0,1,45.66,0H55a.51.51,0,0,1,.51.51l0,.18L51.88,13.1c1,.17,2,.38,3,.62s2,.52,3,.84L61.84.38a.52.52,0,0,1,.5-.38h9.3a.51.51,0,0,1,.51.51l0,.18L67,18.66a35.44,35.44,0,0,1,12,11.78,32,32,0,0,1,4.61,15.92.51.51,0,0,1-.5.52l-13.68-.63a.52.52,0,0,1-.49-.44,29,29,0,0,0-2.28-7.69A25.71,25.71,0,0,0,63,32.39L44.14,98.23a28.49,28.49,0,0,0,8.75-1.47,24.64,24.64,0,0,0,7.83-4.4,19.92,19.92,0,0,0,5.22-7.57A41.41,41.41,0,0,0,68.8,73.22a.51.51,0,0,1,.52-.46ZM54.66,26.39a24.83,24.83,0,0,0-2.92-.92,27.53,27.53,0,0,0-3.23-.59L28.59,94.32a30.09,30.09,0,0,0,3.27,1.62,32.37,32.37,0,0,0,3.26,1.15l19.54-70.7ZM38.33,25.11a30.1,30.1,0,0,0-5.89,1.56,25.25,25.25,0,0,0-5.69,3A24.26,24.26,0,0,0,21,35.4a27.94,27.94,0,0,0-3.68,7.44,55.33,55.33,0,0,0-2.91,17.84,63.76,63.76,0,0,0,1.86,16.07,33.51,33.51,0,0,0,4.85,10.79L38.33,25.11Z"/></svg>