<?xml version="1.0" encoding="utf-8"?><svg version="1.1" id="Layer_1" xmlns="http://www.w3.org/2000/svg" xmlns:xlink="http://www.w3.org/1999/xlink" x="0px" y="0px" viewBox="0 0 122.88 122.88" style="enable-background:new 0 0 122.88 122.88" xml:space="preserve"><g><path d="M61.44,0c16.97,0,32.33,6.88,43.44,18c11.12,11.12,18,26.48,18,43.44c0,16.97-6.88,32.33-18,43.44 c-11.12,11.12-26.48,18-43.44,18c-16.97,0-32.33-6.88-43.44-18C6.88,93.77,0,78.41,0,61.44C0,44.47,6.88,29.11,18,18 C29.11,6.88,44.47,0,61.44,0L61.44,0z M27.97,62.24c0-2.28,0.38-4.53,1.15-6.74c0.77-2.21,1.88-4.2,3.35-5.95 c1.47-1.76,3.25-3.18,5.34-4.27s4.48-1.63,7.17-1.63c3.22,0,6.01,0.75,8.36,2.24s4.12,3.47,5.27,5.93l-6.98,5.58 c-0.31-0.91-0.73-1.67-1.24-2.26c-0.52-0.6-1.09-1.07-1.71-1.42c-0.62-0.35-1.27-0.6-1.94-0.74c-0.67-0.14-1.32-0.21-1.94-0.21 c-1.31,0-2.44,0.29-3.4,0.87c-0.95,0.58-1.73,1.33-2.34,2.26c-0.61,0.93-1.06,1.98-1.36,3.16c-0.3,1.18-0.45,2.34-0.45,3.5 c0,1.3,0.17,2.55,0.52,3.74c0.34,1.19,0.84,2.25,1.5,3.16c0.66,0.91,1.46,1.64,2.41,2.19c0.95,0.54,2.02,0.82,3.21,0.82 c0.62,0,1.27-0.08,1.92-0.24c0.66-0.16,1.29-0.42,1.9-0.79c0.61-0.37,1.16-0.84,1.64-1.42c0.48-0.58,0.87-1.29,1.15-2.13l7.45,5 c-0.5,1.37-1.26,2.6-2.27,3.69c-1.02,1.09-2.17,2-3.47,2.74c-1.3,0.74-2.69,1.3-4.17,1.69c-1.48,0.39-2.93,0.58-4.33,0.58 c-2.47,0-4.72-0.55-6.77-1.66c-2.05-1.11-3.81-2.57-5.29-4.4c-1.48-1.83-2.63-3.9-3.44-6.21C28.37,66.98,27.97,64.63,27.97,62.24 L27.97,62.24z M62.47,62.24c0-2.28,0.38-4.53,1.15-6.74c0.77-2.21,1.88-4.2,3.35-5.95c1.47-1.76,3.25-3.18,5.34-4.27 c2.09-1.09,4.48-1.63,7.17-1.63c3.22,0,6.01,0.75,8.36,2.24c2.36,1.49,4.12,3.47,5.27,5.93l-6.98,5.58 c-0.31-0.91-0.73-1.67-1.24-2.26c-0.52-0.6-1.09-1.07-1.71-1.42c-0.62-0.35-1.27-0.6-1.94-0.74c-0.67-0.14-1.32-0.21-1.94-0.21 c-1.31,0-2.44,0.29-3.4,0.87c-0.95,0.58-1.73,1.33-2.34,2.26c-0.61,0.93-1.06,1.98-1.36,3.16c-0.3,1.18-0.45,2.34-0.45,3.5 c0,1.3,0.17,2.55,0.52,3.74c0.34,1.19,0.84,2.25,1.5,3.16c0.66,0.91,1.46,1.64,2.41,2.19s2.02,0.82,3.21,0.82 c0.62,0,1.27-0.08,1.92-0.24c0.66-0.16,1.29-0.42,1.9-0.79c0.61-0.37,1.16-0.84,1.64-1.42c0.48-0.58,0.87-1.29,1.15-2.13l7.45,5 c-0.5,1.37-1.26,2.6-2.27,3.69c-1.02,1.09-2.17,2-3.47,2.74c-1.3,0.74-2.69,1.3-4.17,1.69c-1.48,0.39-2.93,0.58-4.33,0.58 c-2.47,0-4.72-0.55-6.77-1.66c-2.05-1.11-3.81-2.57-5.29-4.4c-1.48-1.83-2.63-3.9-3.44-6.21C62.87,66.98,62.47,64.63,62.47,62.24 L62.47,62.24z M95.81,27.07c-8.8-8.8-20.95-14.24-34.37-14.24c-13.42,0-25.57,5.44-34.37,14.24c-8.8,8.8-14.24,20.95-14.24,34.37 s5.44,25.57,14.24,34.37c8.8,8.8,20.95,14.24,34.37,14.24c13.42,0,25.57-5.44,34.37-14.24c8.8-8.8,14.24-20.95,14.24-34.37 C110.04,48.02,104.6,35.87,95.81,27.07L95.81,27.07z"/></g></svg>