<svg id="Layer_1" data-name="Layer 1" xmlns="http://www.w3.org/2000/svg" viewBox="0 0 122.88 47.43"><defs><style>.cls-1{fill:#303538;fill-rule:evenodd;}</style></defs><title>creativemarket</title><path class="cls-1" d="M38.43,38.72H37.08a.27.27,0,0,0-.22.11l-2.41,4.06c-.11.15-.2.15-.31,0l-2.33-4.06a.27.27,0,0,0-.22-.11H30.27A.28.28,0,0,0,30,39v8.15a.29.29,0,0,0,.28.28h1.32a.28.28,0,0,0,.27-.28V43c0-.27.26-.39.42-.17l1.81,3a.27.27,0,0,0,.44,0l1.86-3c.16-.22.42-.1.42.16v4.2a.28.28,0,0,0,.27.28h1.35a.28.28,0,0,0,.27-.28V39a.27.27,0,0,0-.27-.28ZM47.8,44H46.05a.28.28,0,0,1-.25-.38l.88-2.34a.26.26,0,0,1,.49,0l.88,2.34a.28.28,0,0,1-.25.38Zm.05-5.14a.26.26,0,0,0-.24-.16H46.24a.27.27,0,0,0-.24.16L42.6,47a.28.28,0,0,0,.24.39h1.37a.26.26,0,0,0,.24-.18L45,45.89a.26.26,0,0,1,.24-.18h3.46a.27.27,0,0,1,.25.18l.51,1.36a.27.27,0,0,0,.25.18H51a.28.28,0,0,0,.24-.39l-3.41-8.16Zm23.45,4a.29.29,0,0,1,0-.33l2.49-3.09a.27.27,0,0,0-.2-.43H72.22a.23.23,0,0,0-.2.1l-2.8,3.58a.26.26,0,0,1-.46-.17V39.26A.26.26,0,0,0,68.5,39H67.27a.26.26,0,0,0-.26.26v7.9a.27.27,0,0,0,.26.27H68.5a.27.27,0,0,0,.26-.27V45.79a.27.27,0,0,1,.06-.17l1.05-1.3a.25.25,0,0,1,.41,0l2,3a.24.24,0,0,0,.21.12h1.53a.27.27,0,0,0,.21-.42l-3-4.16ZM85.7,45.8h-4a.3.3,0,0,1-.31-.3V44.26a.3.3,0,0,1,.31-.3h2.71a.31.31,0,0,0,.31-.3v-.93a.3.3,0,0,0-.31-.3H81.65a.31.31,0,0,1-.31-.3V40.92a.31.31,0,0,1,.31-.3h3.77a.3.3,0,0,0,.31-.3v-1a.3.3,0,0,0-.31-.3H79.81a.3.3,0,0,0-.31.3v7.82a.31.31,0,0,0,.31.31H85.7a.31.31,0,0,0,.31-.31v-1a.31.31,0,0,0-.31-.3Zm9.84-7.08H89.26A.26.26,0,0,0,89,39v1.13a.27.27,0,0,0,.24.28h2a.26.26,0,0,1,.25.27v6.48a.27.27,0,0,0,.25.28H93a.28.28,0,0,0,.25-.28V40.67a.26.26,0,0,1,.24-.27h2.06a.27.27,0,0,0,.25-.28V39a.26.26,0,0,0-.25-.27ZM59.21,43.49c-.33,0-.66,0-1,0a.28.28,0,0,1-.27-.28V40.64a.26.26,0,0,1,.27-.27c.31,0,.61,0,.94,0,1.1,0,1.94.57,1.94,1.54s-.58,1.47-1.87,1.56ZM62.89,42c0-1.9-1.4-3.25-3.84-3.26l-2.66,0a.28.28,0,0,0-.27.28v8.12a.28.28,0,0,0,.27.28h1.27a.28.28,0,0,0,.27-.28V45.43c0-.22,0-.28.27-.28h1.18c.3,0,.38,0,.46.14l1,2a.28.28,0,0,0,.24.15h1.46a.28.28,0,0,0,.24-.4l-1.12-2.27a.28.28,0,0,1,.09-.35A2.9,2.9,0,0,0,62.89,42Zm51.4-27.34c2.21,0,.95,9-2.92,9.57a8.41,8.41,0,0,1-.28-2c0-2.93,1.1-7.54,3.2-7.54ZM59.37,28.4c-4,0-1.2-13.78,2-13.78,2.15,0,1.81,13.78-2,13.78ZM45.42,14.57c2.3,0,.94,8.7-2.84,10.13a9.06,9.06,0,0,1-.42-2.52c0-2.93,1.16-7.61,3.26-7.61Zm76,7.93c-.11.11-1.15,6.37-5.64,6.37-1.74,0-3-1.31-3.73-2.87a8.76,8.76,0,0,0,7.33-8.47,4.34,4.34,0,0,0-4.55-4.67c-3.42,0-7.86,3.15-7.86,9.32a14,14,0,0,0,.09,1.61,5.07,5.07,0,0,1-2.9-2.05c1-4.56.84-8.92-1.28-8.92-1.19,0-2.21,1.56-2.21,4.95a9.19,9.19,0,0,0,1.07,4.2c-.44,2.06-1.94,7.11-3.84,7.11-2.63,0-1.82-12.39-1.82-14.22,0-1.5-3.63-3.06-4.43-2.27-.35.34-.41,2.37-.41,5a36.88,36.88,0,0,0,.64,7c-.26,1.28-1.34,4.55-3.36,4.55C85.36,29.14,87,17.4,87,15.51c0-1.35-3.5-2.61-4.35-1.77-.34.34-.58,2.71-.58,6.41a32.65,32.65,0,0,0,.32,4.72c-.33,1.64-1.63,4.27-3.73,4.27-3.35,0-1.87-12.86-1-20.79.54-.1,1.1-.19,1.67-.25,1.47-.16,3.27-.45,3.27.44A2.42,2.42,0,0,0,85,11.27c1.13,0,2.15-.89,2.15-2.58s-1.46-3.25-4.07-3.25a32.09,32.09,0,0,0-5.18.48c.14-1.33.23-2.38.23-3,0-1.77-3.66-3.46-4.38-2.74a44.55,44.55,0,0,0-1,6.74,38.61,38.61,0,0,1-7.53,1c-.86,0-.75,2.58,2.19,2.58a19.74,19.74,0,0,0,5.07-.83c-.23,2.69-.4,5.66-.4,8.52a41.14,41.14,0,0,0,.47,6.71c-.32,1.42-1.37,4.3-3.25,4.3-3.68,0-1.94-12.63-1.94-14.52,0-.9-3.35-2.83-4-2.15a1.86,1.86,0,0,0-.15.63,3.12,3.12,0,0,0-1.68-.32c-4.7,0-8.47,5.75-8.47,11,0,.25,0,.49,0,.73-.73,1.69-2.57,4.62-5.9,4.62a4.38,4.38,0,0,1-3.69-2.51,9.58,9.58,0,0,0,7.19-8.81,5,5,0,0,0-5-5C42,12.79,38,16.4,38,22.49a11.12,11.12,0,0,0,.92,4.6,3.75,3.75,0,0,1-3,2.05c-3.76,0-1.24-12.55-1.24-13.89a1.49,1.49,0,0,0-.59-1.37c-.79-.55-5.32-1.15-6.85-1.45,0-.33,0-.64,0-.91,0-2.43-1.53-3-2.52-3-1.67,0-2,1.86-2,2.31a3.44,3.44,0,0,0,1.79,3c0,4.53-2.91,15.22-10.71,15.22-5.89,0-8-6-8-10.51,0-7.55,4.46-13.4,7.35-13.4,3.62,0,.42,6.94,4.05,6.94,2.55,0,2.91-2.45,2.91-3.58a6.78,6.78,0,0,0-7-6.07C5.59,2.43,0,11.54,0,19.36c0,7.5,5.19,13.55,12.47,13.55,11.25,0,14.06-11.86,14.65-18.5a25.54,25.54,0,0,1,2.67.68c.3.29-.57,4.32-.57,8.19,0,4.86,1.61,8.75,5.46,8.75C37.09,32,39,30.29,40.05,29a7.75,7.75,0,0,0,6,3,9.09,9.09,0,0,0,7.55-4.24C54.69,30.57,56.85,32,58.81,32c2.74,0,4.39-3.64,4.48-4.23.83,2.54,2.76,4.29,4.94,4.29,2.75,0,4.41-2.48,5.08-4,1,2.62,2.55,4,4.79,4,2.56,0,4.26-2.31,5-3.87.81,2.27,2.16,3.87,4.31,3.87,2.88,0,4.66-2.91,5.26-4.4,1,2.51,2.43,4.31,4.7,4.31,2.53,0,4.73-3.6,6-7.67a7.59,7.59,0,0,0,4.15,2,8,8,0,0,0,7.42,5.7c5.51,0,7.62-5.61,7.84-6.93s-1-2.93-1.46-2.51Zm0,0Z"/></svg>