<svg xmlns="http://www.w3.org/2000/svg" shape-rendering="geometricPrecision" text-rendering="geometricPrecision" image-rendering="optimizeQuality" fill-rule="evenodd" clip-rule="evenodd" viewBox="0 0 512 512"><path fill-rule="nonzero" d="M255.55 0c71.92 0 132.57 24.69 181.94 74.06C487.16 123.43 512 184.08 512 256c0 71.93-24.38 131.82-73.14 179.66C387.04 486.56 325.94 512 255.55 512c-69.5 0-129.53-25.29-180.12-75.89C25.15 385.82 0 325.79 0 256c0-70.09 25.15-130.74 75.43-181.94C124.8 24.69 184.84 0 255.55 0zM57.6 186.97C49.98 208 46.17 231.01 46.17 256c0 56.68 20.72 105.76 62.17 147.2 41.75 41.14 91.12 61.71 148.12 61.71 57.6 0 107.27-20.87 149.03-62.62 14.93-14.33 26.66-29.26 35.19-44.81l-96.45-42.97c-3.35 16.16-11.51 29.34-24.46 39.55-12.95 10.21-28.27 16.07-45.94 17.6v39.31h-29.71v-39.31c-28.35-.31-54.26-10.52-77.72-30.63l35.2-35.66c16.76 15.54 35.81 23.31 57.14 23.31 8.84 0 16.38-1.97 22.63-5.94 6.24-3.95 9.37-10.51 9.37-19.65 0-6.41-2.28-11.58-6.85-15.55l-24.69-10.51-30.17-13.72-40.68-17.83L57.6 186.97zM256.46 45.71c-58.21 0-107.43 20.57-147.66 61.72-10.06 10.06-19.51 21.48-28.34 34.29l97.82 43.88c4.28-13.41 12.35-24.15 24.24-32.23 11.88-8.07 25.75-12.57 41.6-13.48v-39.32h29.71v39.32c23.47 1.22 44.8 9.14 64 23.77l-33.38 34.28c-14.32-10.06-28.95-15.08-43.88-15.08-7.93 0-15.01 1.53-21.25 4.57-6.26 3.05-9.38 8.22-9.38 15.54 0 2.14.76 4.27 2.29 6.4L264.68 224l22.41 10.06 41.14 18.28 131.2 58.52c4.26-17.98 6.4-36.27 6.4-54.86 0-58.82-20.42-108.34-61.26-148.57-40.53-41.15-89.91-61.72-148.11-61.72z"/></svg>