<svg id="Layer_1" data-name="Layer 1" xmlns="http://www.w3.org/2000/svg" viewBox="0 0 97.18 122.88"><defs><style>.cls-1{fill-rule:evenodd;}</style></defs><title>cross-sell</title><path class="cls-1" d="M75.94,107.69a7.6,7.6,0,1,1-7.59,7.6,7.59,7.59,0,0,1,7.59-7.6ZM72.69,0c-1,0-1.63.4-1.69,1.33V6.22c0,3.19.08,4.74-2.09,7.45a12.18,12.18,0,0,1-1.59,1.63c-2.89,2.42-6.38,3.29-10.07,4.19C50.07,21.24,42.5,24,39.5,31.47c-1.71,4.24-1.38,9.71-1.38,14.28v2.81H32.76c-2.67,0-3.13.63-1.3,2.55l9.9,10.42c1.19,1.25,2,1.08,3.12-.12l9.86-10.29c1.82-1.79,1.3-2.6-1.21-2.57H46.84c-.27-18.12.9-17,18.17-22.08,5.35-1.86,9.1-4.69,11.56-8.3A19.31,19.31,0,0,0,80,6.45V3.09C80-.08,79.82,0,76.58,0ZM44.35,0c1,0,1.63.41,1.7,1.34V6.67c0,3.19-.09,4.74,2.08,7.45a11.17,11.17,0,0,0,1.6,1.63,13.59,13.59,0,0,0,2.32,1.58,36.21,36.21,0,0,0-7.2,3.1c-.63.37-1.25.77-1.85,1.19a18.67,18.67,0,0,1-2.52-3A19.25,19.25,0,0,1,37.07,6.9V3.54C37.07.38,37.22,0,40.46,0ZM73.22,25.92a15.54,15.54,0,0,1,4.33,6c1.7,4.23,1.38,9.7,1.38,14.28V49h5.35c2.67,0,3.13.63,1.31,2.55L75.69,62c-1.2,1.26-2,1.08-3.13-.12L62.71,51.59C60.89,49.79,61.4,49,63.91,49H70.2c.2-13.21-.37-16.21-7.38-18.82l3.55-1,.15-.05h0a31.31,31.31,0,0,0,6.7-3.2ZM91.07,54.05a3.1,3.1,0,0,1,6,1.48L89,88.28a3.1,3.1,0,0,1-3,2.36H35.71c1,3.27,2,5.13,3.33,6,1.79,1.21,5,1.3,10.31,1.2H85.12a3.11,3.11,0,1,1,0,6.21H49.39c-6.53.12-10.57-.07-13.8-2.24s-5-6-6.78-12.89L18.13,48.62a5.67,5.67,0,0,0-2.35-3.56,8.61,8.61,0,0,0-4.35-1H3.11a3.11,3.11,0,1,1,0-6.21H11.5a14.6,14.6,0,0,1,7.56,1.95A11.66,11.66,0,0,1,24.13,47c1.72,7.4,3.8,14.8,5.86,22.2H55.45v-12l2.88-3a11,11,0,0,0,.81.9l2.52,2.63v11.5H87.32l3.75-15.14Zm-57,30.41a3,3,0,0,1,.42,0H55.45v-9H31.71Q33,79.93,34.1,84.46Zm27.56,0h21.9l2.23-9H61.66v9Zm-19,23.26a7.6,7.6,0,1,1-7.59,7.6,7.6,7.6,0,0,1,7.59-7.6Z"/></svg>