<?xml version="1.0" encoding="utf-8"?><svg version="1.1" id="Layer_1" xmlns="http://www.w3.org/2000/svg" xmlns:xlink="http://www.w3.org/1999/xlink" x="0px" y="0px" viewBox="0 0 115.28 122.88" style="enable-background:new 0 0 115.28 122.88" xml:space="preserve"><g><path d="M66.69,0.69C66.23,0.28,65.58,0,64.94,0c-0.14,0-0.28,0-0.42,0.05H5.81c-1.57,0-3.04,0.64-4.1,1.7C0.65,2.81,0,4.24,0,5.85 v111.22c0,1.61,0.65,3.04,1.7,4.1c1.06,1.06,2.49,1.71,4.1,1.71c29.59,0,56.74,0,86.18,0c1.61,0,3.04-0.65,4.1-1.71 s1.7-2.49,1.7-4.1v-13.55h9.93c4.14,0,7.56-3.41,7.56-7.56V64.55c0-4.15-3.4-7.56-7.56-7.56h-9.93V33.87 c0.05-0.23,0.09-0.42,0.09-0.65c0-0.78-0.37-1.47-0.88-1.98l-30-30.36c-0.09-0.09-0.14-0.14-0.23-0.18H66.69L66.69,0.69z M90.25,103.53v11.16c0,0.14-0.19,0.32-0.33,0.41c-0.09,0.09-0.08,0.18-0.27,0.18c-23.42,0-58.73,0-81.51,0 c-0.14,0-0.32-0.05-0.41-0.18c-0.09-0.09-0.18-0.28-0.18-0.41V8.24c0-0.18,0.05-0.32,0.18-0.42c0.09-0.09,0.23-0.18,0.41-0.18 h52.52l0,0v20.92c0,2.17,0.88,4.74,2.3,6.17c1.43,1.43,4.45,2.6,6.62,2.6h20.66V57h-66.6c-4.16,0-7.56,3.4-7.56,7.56v31.42 c0,4.16,3.41,7.56,7.56,7.56H90.25L90.25,103.53z M42.76,82.52l6.74,2.03c-0.45,1.89-1.16,3.47-2.14,4.73 c-0.97,1.27-2.18,2.22-3.63,2.87c-1.44,0.64-3.28,0.97-5.51,0.97c-2.71,0-4.92-0.39-6.64-1.18c-1.71-0.79-3.19-2.17-4.44-4.15 c-1.25-1.97-1.87-4.51-1.87-7.59c0-4.11,1.09-7.27,3.28-9.49c2.19-2.21,5.29-3.31,9.3-3.31c3.13,0,5.6,0.63,7.4,1.9 c1.79,1.27,3.13,3.21,4,5.84l-6.78,1.5C42.24,75.9,42,75.35,41.73,75c-0.43-0.58-0.96-1.04-1.58-1.35 c-0.63-0.32-1.32-0.48-2.09-0.48c-1.75,0-3.09,0.7-4.01,2.1c-0.7,1.04-1.05,2.67-1.05,4.89c0,2.76,0.42,4.64,1.26,5.66 c0.84,1.02,2.01,1.53,3.53,1.53c1.47,0,2.58-0.41,3.34-1.24C41.87,85.29,42.42,84.09,42.76,82.52L42.76,82.52z M53.96,92.7V67.82 h12.81c2.38,0,4.19,0.2,5.44,0.61c1.26,0.41,2.27,1.16,3.04,2.26c0.77,1.11,1.15,2.46,1.15,4.04c0,1.38-0.29,2.57-0.89,3.57 c-0.58,1.01-1.39,1.82-2.43,2.44c-0.66,0.39-1.56,0.72-2.7,0.98c0.92,0.31,1.58,0.61,2,0.92c0.28,0.2,0.69,0.64,1.23,1.31 c0.53,0.67,0.89,1.18,1.07,1.55l3.74,7.19h-8.69l-4.11-7.59c-0.52-0.98-0.98-1.62-1.39-1.92c-0.56-0.38-1.19-0.57-1.89-0.57h-0.68 V92.7H53.96L53.96,92.7z M61.67,77.93h3.25c0.35,0,1.03-0.12,2.04-0.34c0.51-0.1,0.93-0.36,1.25-0.78c0.32-0.42,0.49-0.9,0.49-1.45 c0-0.81-0.26-1.42-0.77-1.85c-0.51-0.43-1.46-0.65-2.87-0.65h-3.38V77.93L61.67,77.93z M79.82,67.82h8.48l4.41,7.66l4.28-7.66h8.37 l-7.73,12.05l8.46,12.83h-8.65l-4.88-7.99l-4.92,7.99h-8.58l8.58-12.97L79.82,67.82L79.82,67.82z M67.52,27.97V8.94l21.42,21.7 H70.19c-0.74,0-1.38-0.32-1.89-0.78C67.84,29.4,67.52,28.7,67.52,27.97L67.52,27.97z"/></g></svg>