<?xml version="1.0" encoding="utf-8"?><svg version="1.1" id="Layer_1" xmlns="http://www.w3.org/2000/svg" xmlns:xlink="http://www.w3.org/1999/xlink" x="0px" y="0px" viewBox="0 0 115.28 122.88" style="enable-background:new 0 0 115.28 122.88" xml:space="preserve"><style type="text/css">.st0{fill-rule:evenodd;clip-rule:evenodd;}</style><g><path class="st0" d="M25.38,57h64.88V37.34H69.59c-2.17,0-5.19-1.17-6.62-2.6c-1.43-1.43-2.3-4.01-2.3-6.17V7.64l0,0H8.15 c-0.18,0-0.32,0.09-0.41,0.18C7.59,7.92,7.55,8.05,7.55,8.24v106.45c0,0.14,0.09,0.32,0.18,0.41c0.09,0.14,0.28,0.18,0.41,0.18 c22.78,0,58.09,0,81.51,0c0.18,0,0.17-0.09,0.27-0.18c0.14-0.09,0.33-0.28,0.33-0.41v-11.16H25.38c-4.14,0-7.56-3.4-7.56-7.56 V64.55C17.82,60.4,21.22,57,25.38,57L25.38,57z M46.69,82.37l6.53,1.97c-0.44,1.83-1.13,3.36-2.07,4.58 c-0.94,1.23-2.11,2.15-3.51,2.78c-1.4,0.62-3.17,0.94-5.33,0.94c-2.62,0-4.76-0.38-6.43-1.14c-1.66-0.76-3.09-2.1-4.29-4.01 c-1.21-1.91-1.81-4.37-1.81-7.35c0-3.98,1.06-7.04,3.18-9.18c2.12-2.14,5.12-3.21,9-3.21c3.03,0,5.42,0.61,7.16,1.84 c1.73,1.23,3.03,3.11,3.87,5.66l-6.56,1.45c-0.23-0.73-0.47-1.26-0.72-1.6c-0.42-0.57-0.93-1-1.53-1.31 c-0.61-0.31-1.28-0.46-2.02-0.46c-1.69,0-2.99,0.68-3.89,2.03c-0.68,1-1.02,2.58-1.02,4.73c0,2.67,0.4,4.49,1.22,5.48 c0.81,0.99,1.95,1.48,3.42,1.48c1.42,0,2.5-0.4,3.23-1.2C45.83,85.05,46.36,83.89,46.69,82.37L46.69,82.37z M55.03,84.26l7.06-0.44 c0.15,1.14,0.47,2.02,0.94,2.61c0.77,0.97,1.86,1.46,3.29,1.46c1.06,0,1.88-0.25,2.45-0.75c0.58-0.5,0.86-1.08,0.86-1.73 c0-0.62-0.27-1.18-0.81-1.68c-0.54-0.49-1.81-0.95-3.8-1.4c-3.26-0.73-5.58-1.7-6.97-2.92c-1.4-1.21-2.1-2.76-2.1-4.64 c0-1.23,0.36-2.4,1.08-3.5c0.72-1.1,1.79-1.97,3.24-2.6c1.44-0.63,3.41-0.94,5.92-0.94c3.08,0,5.42,0.57,7.04,1.72 c1.61,1.14,2.57,2.97,2.88,5.47l-7,0.41c-0.19-1.09-0.58-1.89-1.17-2.38c-0.6-0.5-1.42-0.75-2.47-0.75c-0.86,0-1.52,0.19-1.96,0.55 c-0.44,0.36-0.66,0.81-0.66,1.34c0,0.38,0.18,0.72,0.53,1.03c0.34,0.32,1.17,0.61,2.48,0.89c3.25,0.7,5.58,1.41,6.98,2.13 c1.41,0.72,2.43,1.6,3.07,2.67c0.64,1.06,0.96,2.25,0.96,3.57c0,1.54-0.43,2.97-1.28,4.27c-0.86,1.3-2.05,2.29-3.58,2.97 c-1.53,0.67-3.46,1.01-5.79,1.01c-4.09,0-6.93-0.79-8.51-2.37C56.13,88.69,55.24,86.69,55.03,84.26L55.03,84.26z M80.21,92.23 V68.14h12.4c2.3,0,4.06,0.2,5.27,0.59c1.22,0.39,2.2,1.13,2.94,2.19c0.75,1.07,1.12,2.38,1.12,3.91c0,1.33-0.29,2.49-0.86,3.46 c-0.57,0.98-1.35,1.76-2.35,2.37c-0.63,0.38-1.51,0.7-2.61,0.95c0.89,0.3,1.53,0.59,1.93,0.89c0.27,0.2,0.67,0.62,1.19,1.27 c0.52,0.64,0.86,1.14,1.04,1.5l3.62,6.96h-8.41l-3.98-7.34c-0.5-0.95-0.95-1.57-1.35-1.86c-0.54-0.37-1.15-0.56-1.83-0.56h-0.66 v9.76H80.21L80.21,92.23z M87.68,77.93h3.15c0.34,0,1-0.11,1.97-0.33c0.49-0.1,0.9-0.35,1.21-0.76c0.31-0.41,0.47-0.87,0.47-1.4 c0-0.78-0.25-1.38-0.74-1.79c-0.49-0.42-1.42-0.63-2.78-0.63h-3.27V77.93L87.68,77.93z M97.79,57h9.93c4.16,0,7.56,3.41,7.56,7.56 v31.42c0,4.15-3.41,7.56-7.56,7.56h-9.93v13.55c0,1.61-0.65,3.04-1.7,4.1c-1.06,1.06-2.49,1.7-4.1,1.7c-29.44,0-56.59,0-86.18,0 c-1.61,0-3.04-0.64-4.1-1.7c-1.06-1.06-1.7-2.49-1.7-4.1V5.85c0-1.61,0.65-3.04,1.7-4.1c1.06-1.06,2.53-1.7,4.1-1.7h58.72 C64.66,0,64.8,0,64.94,0c0.64,0,1.29,0.28,1.75,0.69h0.09c0.09,0.05,0.14,0.09,0.23,0.18l29.99,30.36c0.51,0.51,0.88,1.2,0.88,1.98 c0,0.23-0.05,0.41-0.09,0.65V57L97.79,57z M67.52,27.97V8.94l21.43,21.7H70.19c-0.74,0-1.38-0.32-1.89-0.78 C67.84,29.4,67.52,28.71,67.52,27.97L67.52,27.97z"/></g></svg>