<svg id="Layer_1" data-name="Layer 1" xmlns="http://www.w3.org/2000/svg" viewBox="0 0 122.88 89.67"><title>czech-koruna</title><path d="M122.88,0V1.52q-4.74,4.74-8.73,9.44a73.22,73.22,0,0,0-5.72,7.53H88.29a60.16,60.16,0,0,0-4.68-6.34q-3-3.69-9.77-10.63V0H85.3A73.41,73.41,0,0,1,98.23,9.92,62.34,62.34,0,0,1,111.42,0ZM66.35,88.52H46.49L24.88,53.75l-7.39,5.3V88.52H0V6H17.49V43.76l6.89-9.71L46.7,6H66.12L37.36,42.53l29,46ZM98,89.67q-29.45,0-29.43-32.33,0-16.1,8-24.58t23-8.49a43.89,43.89,0,0,1,19.64,4.27l-5.08,13.31c-2.72-1.08-5.22-2-7.55-2.68a24.52,24.52,0,0,0-7-1q-13.44,0-13.43,19.07,0,18.49,13.43,18.49a30.45,30.45,0,0,0,9.18-1.33,33.22,33.22,0,0,0,8.46-4.14V85a27.3,27.3,0,0,1-8.44,3.67,47.07,47.07,0,0,1-10.74,1Z"/></svg>