<svg id="Layer_1" data-name="Layer 1" xmlns="http://www.w3.org/2000/svg" viewBox="0 0 122.88 74.18"><title>danish-krone</title><path d="M58.58,72.85H41.05L22,42.15l-6.53,4.68v26H0V0H15.44V33.33l6.09-8.57L41.24,0H58.38L33,32.24,58.58,72.85ZM95,16.12a25.27,25.27,0,0,1,5.14.44L99,30.81a18.05,18.05,0,0,0-4.49-.49q-7.28,0-11.32,3.74T79.09,44.52V72.85H63.91V17.14H75.42l2.22,9.39h.75a21.26,21.26,0,0,1,7-7.55A17.15,17.15,0,0,1,95,16.12Zm10.48,49.59q0-4.18,2.24-6.33c1.5-1.43,3.66-2.14,6.52-2.14a8.85,8.85,0,0,1,6.41,2.19,8.34,8.34,0,0,1,2.26,6.28,8.32,8.32,0,0,1-2.3,6.2,8.59,8.59,0,0,1-6.37,2.27A8.86,8.86,0,0,1,107.75,72a8.27,8.27,0,0,1-2.3-6.25Z"/></svg>