<svg id="Layer_1" data-name="Layer 1" xmlns="http://www.w3.org/2000/svg" viewBox="0 0 122.88 116.67"><defs><style>.cls-1{fill-rule:evenodd;}</style></defs><title>data-sources</title><path class="cls-1" d="M16.94,25.56c7.76,2.6,18.58,4.2,30.59,4.2s22.82-1.6,30.58-4.2c6.82-2.28,11-5,11-7.72s-4.22-5.45-11-7.73c-7.76-2.58-18.57-4.2-30.57-4.2s-22.83,1.62-30.6,4.2c-14.45,4.83-14.85,10.49,0,15.45ZM85.37,85.72h11.3V81.44a1.78,1.78,0,0,1,.71-1.52c1.2-.8,2.38.3,3.21,1,2.36,2.13,6.62,7,7.86,8a1.74,1.74,0,0,1,0,2.74c-1.27,1.1-5.79,6.22-8.08,8.26-.8.7-1.88,1.58-3,.84a1.78,1.78,0,0,1-.71-1.52V95.06H85.37V85.72ZM106,50.33a1.49,1.49,0,0,0-1-.37.86.86,0,0,0-.22,0H72.89a3.12,3.12,0,0,0-2.22.93,3.09,3.09,0,0,0-.93,2.22v60.38a3.18,3.18,0,0,0,3.15,3.16h46.79a3.18,3.18,0,0,0,3.15-3.16V68.34a1.34,1.34,0,0,0,0-.35,1.51,1.51,0,0,0-.48-1.07L106.12,50.43a.53.53,0,0,0-.12-.1Zm-4.43,4.36V65.46a5.08,5.08,0,0,0,1.25,3.36c.77.77,3.58,2.57,4.75,2.57h10.64v40.25c0,.07-.11.17-.18.22s0,.1-.15.1H74.75a.26.26,0,0,1-.23-.1.37.37,0,0,1-.1-.22V55a.25.25,0,0,1,.1-.22.33.33,0,0,1,.23-.1Zm4.88,10.45V55.39l10.47,11.2h-9a1.46,1.46,0,0,1-1.45-1.45ZM6,47c.53,2.52,4.63,5,11,7.16,7.76,2.6,18.58,4.2,30.59,4.2,4.18,0,8.23-.2,12.05-.56v6c-3.84.35-7.88.54-12,.54-12.62,0-24.09-1.72-32.45-4.52A37,37,0,0,1,6,55.5V73.22c.53,2.52,4.63,5,11,7.17,7.76,2.58,18.58,4.19,30.59,4.19,4.17,0,8.22-.19,12-.55V90c-3.85.35-7.89.54-12.05.54-12.61,0-24.09-1.73-32.45-4.53A37.33,37.33,0,0,1,6,81.67V99.4c.53,2.51,4.63,5,11,7.16,7.77,2.59,18.58,4.2,30.59,4.2,4.19,0,8.23-.2,12-.57v4.6a8.41,8.41,0,0,0,.07,1.33c-3.87.36-7.93.55-12.11.55-12.61,0-24.09-1.73-32.45-4.53C10.68,110.67,0,105.83,0,100.05V98.16C0,71.77,0,44.23,0,17.88,0,12.31,5.76,7.63,15.06,4.52,23.44,1.72,34.93,0,47.54,0S71.61,1.72,80,4.53s14,7,14.94,11.85a2.91,2.91,0,0,1,.17,1V39.78H89.17v-13A36.86,36.86,0,0,1,80,31.14C71.63,34,60.16,35.67,47.55,35.67S23.45,34,15.06,31.14A36.93,36.93,0,0,1,6,26.86V47Z"/></svg>