<?xml version="1.0" encoding="utf-8"?><svg version="1.1" id="Layer_1" xmlns="http://www.w3.org/2000/svg" xmlns:xlink="http://www.w3.org/1999/xlink" x="0px" y="0px" viewBox="0 0 122.88 102.93" style="enable-background:new 0 0 122.88 102.93" xml:space="preserve"><style type="text/css"><![CDATA[
	.st0{fill-rule:evenodd;clip-rule:evenodd;}
]]></style><g><path class="st0" d="M11.51,102.89v-44c-2.34,0.9-4.53,0.92-6.35,0.3c-1.42-0.48-2.62-1.34-3.5-2.45 c-0.88-1.11-1.44-2.46-1.61-3.95c-0.26-2.31,0.43-4.92,2.4-7.37l0,0c0.1-0.12,0.21-0.24,0.34-0.34L59.85,0.55 c0.74-0.68,1.88-0.75,2.7-0.11l57.18,44.46l0,0c0.09,0.07,0.17,0.14,0.25,0.23c2.65,2.85,3.31,6.01,2.67,8.68 c-0.32,1.32-0.95,2.5-1.82,3.48c-0.87,0.98-1.98,1.74-3.24,2.19c-2,0.72-4.38,0.7-6.79-0.44v43.74h-5.6v-46.2 c0-1.01-39.23-32.02-43.56-35.39c-4.59,3.49-44.54,34.25-44.54,35.55v46.18L11.51,102.89L11.51,102.89L11.51,102.89z"/><path class="st0" d="M81.69,79.44c6.41,0,11.6,5.19,11.6,11.6s-5.19,11.6-11.6,11.6s-11.6-5.19-11.6-11.6S75.29,79.44,81.69,79.44 L81.69,79.44L81.69,79.44z M81.8,88.55c1.38,0,2.5,1.12,2.5,2.5c0,1.38-1.12,2.5-2.5,2.5c-1.38,0-2.5-1.12-2.5-2.5 C79.3,89.67,80.42,88.55,81.8,88.55L81.8,88.55L81.8,88.55z M86.2,85.6l0.99,0.99c0.26,0.26,0.26,0.69,0,0.95l-0.8,0.8 c0.22,0.41,0.39,0.86,0.49,1.32h1.03c0.37,0,0.67,0.3,0.67,0.67v1.4c0,0.37-0.3,0.67-0.67,0.67h-1.13 c-0.14,0.45-0.33,0.88-0.58,1.28l0.73,0.73c0.26,0.26,0.26,0.69,0,0.95l-0.99,0.99c-0.26,0.26-0.69,0.26-0.95,0l-0.8-0.8 c-0.41,0.22-0.86,0.39-1.32,0.5v1.03c0,0.37-0.3,0.67-0.67,0.67h-1.4c-0.37,0-0.67-0.3-0.67-0.67v-1.13 c-0.45-0.14-0.88-0.33-1.28-0.58l-0.73,0.73c-0.26,0.26-0.69,0.26-0.95,0l-0.99-0.99c-0.26-0.26-0.26-0.69,0-0.95l0.8-0.8 c-0.22-0.41-0.39-0.86-0.5-1.32h-1.03c-0.37,0-0.67-0.3-0.67-0.67v-1.4c0-0.37,0.3-0.67,0.67-0.67h1.13 c0.14-0.45,0.33-0.88,0.58-1.28l-0.73-0.73c-0.26-0.26-0.26-0.69,0-0.95l0.99-0.99c0.26-0.26,0.69-0.26,0.95,0l0.8,0.8 c0.41-0.22,0.85-0.39,1.32-0.5v-1.03c0-0.37,0.3-0.67,0.67-0.67h1.4c0.37,0,0.67,0.3,0.67,0.67v1.13c0.45,0.14,0.88,0.33,1.29,0.58 l0.73-0.73C85.51,85.34,85.93,85.34,86.2,85.6L86.2,85.6L86.2,85.6L86.2,85.6z M48.4,62.87c3.46,1.16,8.27,1.87,13.62,1.87 c5.35,0,10.16-0.71,13.62-1.87c3.04-1.01,4.91-2.24,4.91-3.44c0-1.2-1.88-2.43-4.91-3.44c-3.46-1.15-8.27-1.87-13.62-1.87 c-5.35,0-10.16,0.71-13.62,1.87C41.96,58.14,41.78,60.66,48.4,62.87L48.4,62.87L48.4,62.87z M43.51,71.91 c0.24,1.12,2.06,2.25,4.89,3.19c3.46,1.16,8.27,1.87,13.62,1.87c5.35,0,10.16-0.71,13.62-1.87c3.04-1.01,4.91-2.24,4.91-3.44h0.01 v-8.24c-1.08,0.74-2.47,1.39-4.09,1.93c-3.73,1.24-8.84,2.01-14.45,2.01c-5.62,0-10.72-0.77-14.45-2.01 c-1.61-0.54-2.98-1.18-4.05-1.91L43.51,71.91L43.51,71.91L43.51,71.91z M67.86,90.98c-1.86,0.19-3.82,0.29-5.85,0.29 c-5.62,0-10.72-0.77-14.45-2.01c-1.61-0.54-2.98-1.18-4.05-1.91v7.89c0.24,1.12,2.06,2.25,4.89,3.19 c3.46,1.15,8.27,1.87,13.62,1.87c3.21,0,6.22-0.26,8.87-0.71c0.67,0.83,1.42,1.58,2.26,2.24c-3.21,0.7-7.04,1.11-11.13,1.11 c-5.62,0-10.73-0.77-14.45-2.01c-1.96-0.66-6.69-2.81-6.69-5.39c0-0.3,0-0.55,0-0.84c-0.01-11.75-0.03-23.5-0.03-35.25 c0-2.46,2.57-4.54,6.71-5.93c3.73-1.24,8.84-2.01,14.45-2.01c5.62,0,10.73,0.77,14.45,2.01c3.78,1.26,6.24,3.1,6.65,5.28 c0.05,0.14,0.08,0.29,0.08,0.44V77.3c-0.51-0.06-1.03-0.09-1.56-0.09c-0.36,0-0.72,0.01-1.07,0.04v-1.6 c-1.08,0.74-2.47,1.39-4.09,1.93c-3.73,1.24-8.84,2.01-14.45,2.01c-5.62,0-10.73-0.77-14.45-2.01c-1.61-0.54-2.98-1.18-4.05-1.91 v7.89c0.24,1.12,2.06,2.25,4.89,3.19c3.46,1.15,8.27,1.87,13.62,1.87c2.14,0,4.19-0.12,6.11-0.32 C67.95,89.17,67.86,90.07,67.86,90.98L67.86,90.98L67.86,90.98z"/></g></svg>