<?xml version="1.0" encoding="utf-8"?><svg version="1.1" id="Layer_1" xmlns="http://www.w3.org/2000/svg" xmlns:xlink="http://www.w3.org/1999/xlink" x="0px" y="0px" viewBox="0 0 106.46 122.88" style="enable-background:new 0 0 106.46 122.88" xml:space="preserve"><style type="text/css"><![CDATA[
	.st0{fill-rule:evenodd;clip-rule:evenodd;}
]]></style><g><path class="st0" d="M27.04,0h51.17c10.61,0,18.1,8.75,19.28,19.28l7.02,62.23c0.45,3.97,0.96,7.96,1.35,11.93 c0.27,2.71,0.46,5.21,0.54,7.53c0.14,3.85-0.02,7.15-0.63,10c-0.01,0.05-0.03,0.11-0.04,0.16c-0.56,6.55-6.1,11.75-12.8,11.75 H13.13c-3.62,0-6.89-1.51-9.24-3.94c-3.77-3.91-3.57-7.46-3.72-12.13c-0.08-2.33-0.16-4.83-0.18-7.34 c-0.04-5.8,0.43-9.6,1.02-15.28l6.74-64.91C8.85,8.73,16.44,0,27.04,0L27.04,0L27.04,0z M28.5,27.2l-0.09,17.34l17.34,0.09 l2.04,0.01l-1.44-1.46l-5.03-5.08c0.34-0.32,0.68-0.63,1.05-0.93c0.48-0.39,0.98-0.75,1.5-1.09l0,0c2.67-1.72,5.85-2.71,9.26-2.7h0 v0c4.67,0.02,8.9,1.94,11.95,5.02c3.05,3.08,4.93,7.32,4.9,11.99l0,0v0.02h0c-0.02,4.68-1.94,8.9-5.02,11.95 c-3.08,3.05-7.32,4.93-11.99,4.9v0h-0.04v0c-1.63-0.01-3.26-0.25-4.82-0.73l0,0c-0.86-0.26-1.71-0.6-2.52-0.99 c-4.13-2.02-7.32-5.69-8.72-10.14l-0.19-0.59l-10.41-0.04l0.2,1.02l0,0.03v0c0.34,1.7,0.87,3.37,1.53,4.97v0 c0.66,1.57,1.48,3.09,2.42,4.51c4.83,7.28,13.09,12.1,22.48,12.14h0v0c7.49,0.04,14.29-2.97,19.21-7.85v0 c4.92-4.88,8-11.64,8.03-19.12h0v-0.02h0c0.04-7.49-2.97-14.28-7.85-19.21l0,0c-4.87-4.92-11.63-7.99-19.11-8.03v0h-0.03v0 c-3.85-0.02-7.51,0.77-10.83,2.2c-0.54,0.23-1.07,0.48-1.59,0.75c-2.43,1.24-4.64,2.83-6.57,4.71l-4.23-4.26l-1.44-1.46L28.5,27.2 L28.5,27.2L28.5,27.2L28.5,27.2z M102.95,102.41c0-0.74-0.02-1.51-0.05-2.3c-0.13-3.45-0.51-6.46-1.04-11.02 c-0.87-0.34-1.81-0.52-2.79-0.52H7.46c-1.23,0-2.39,0.29-3.42,0.8c-0.56,3.9-0.56,7.77-0.45,12.36c2.33-3.32,6.18-4.53,10.52-4.53 h77.87C96.47,97.2,100.62,98.59,102.95,102.41L102.95,102.41z M14.96,107.86h19.74v7.01H14.96V107.86L14.96,107.86L14.96,107.86z"/></g></svg>