<svg id="Layer_1" data-name="Layer 1" xmlns="http://www.w3.org/2000/svg" viewBox="0 0 122.87 122.88"><title>date-23</title><path d="M81.6,4.73C81.6,2.12,84.18,0,87.37,0s5.77,2.12,5.77,4.73V25.45c0,2.61-2.58,4.73-5.77,4.73s-5.77-2.12-5.77-4.73V4.73ZM27.92,103.41V94.12L41.86,79.88a27.45,27.45,0,0,0,2.23-2.47,11.79,11.79,0,0,0,1.42-2.23A5.22,5.22,0,0,0,46,73a4.09,4.09,0,0,0-.48-2.09,2.74,2.74,0,0,0-1.48-1.17,7.65,7.65,0,0,0-2.56-.36H28.64V60q3-.66,6.61-1.23a55.44,55.44,0,0,1,8.48-.58,19.84,19.84,0,0,1,8.35,1.45A8.7,8.7,0,0,1,56.43,64a16.68,16.68,0,0,1,1.29,6.93,17.37,17.37,0,0,1-.78,5.37,17.15,17.15,0,0,1-2.26,4.53A31.37,31.37,0,0,1,51.09,85l-7.72,7.91H58.93v10.49Zm54,.37q-4.83,0-9.35-.42a82.41,82.41,0,0,1-8.39-1.21V92.74H77.33A20.08,20.08,0,0,0,81,92.49a3.11,3.11,0,0,0,1.78-.78,2.15,2.15,0,0,0,.49-1.51V89.06a2.62,2.62,0,0,0-.55-1.75,3.17,3.17,0,0,0-1.57-1,9.54,9.54,0,0,0-2.53-.39l-10.74-.49V76.38l10.2-.66A10.74,10.74,0,0,0,81.62,75a2,2,0,0,0,1.14-1.93v-.55a2.65,2.65,0,0,0-1.2-2.47,9.61,9.61,0,0,0-4.47-.72H64.78V59.91c2.62-.44,5.37-.85,8.27-1.23a54.87,54.87,0,0,1,8.81-.46,17.22,17.22,0,0,1,6.67,1.3,9.28,9.28,0,0,1,4.31,3.74,12.14,12.14,0,0,1,1.51,6.37v3a13.75,13.75,0,0,1-.27,2.81,8.05,8.05,0,0,1-.88,2.35,6.28,6.28,0,0,1-1.57,1.84,7.42,7.42,0,0,1-2.35,1.27,6.27,6.27,0,0,1,2.5,1.36,7.84,7.84,0,0,1,1.75,2.2,10.6,10.6,0,0,1,1.06,2.87,15.41,15.41,0,0,1,.36,3.4v1.75c0,3.66-1.15,6.46-3.47,8.39s-5.5,2.9-9.56,2.9Zm-52.31-99C29.61,2.12,32.19,0,35.38,0s5.77,2.12,5.77,4.73V25.45c0,2.61-2.58,4.73-5.77,4.73s-5.77-2.12-5.77-4.73V4.73ZM6.4,38.76H116.46V21.47a3,3,0,0,0-.86-2.07,2.92,2.92,0,0,0-2.07-.86H103a3.2,3.2,0,1,1,0-6.4h10.55a9.36,9.36,0,0,1,9.33,9.33v92.08a9.36,9.36,0,0,1-9.33,9.33H9.33A9.36,9.36,0,0,1,0,113.54V21.47a9.36,9.36,0,0,1,9.33-9.33H20.6a3.2,3.2,0,1,1,0,6.4H9.33a3,3,0,0,0-2.07.86,2.92,2.92,0,0,0-.86,2.07V38.76Zm110.07,6.41H6.4v68.37a3,3,0,0,0,.86,2.07,2.92,2.92,0,0,0,2.07.86H113.54a3,3,0,0,0,2.07-.86,2.92,2.92,0,0,0,.86-2.07V45.17Zm-66-26.63a3.2,3.2,0,0,1,0-6.4H71.91a3.2,3.2,0,1,1,0,6.4Z"/></svg>