<svg id="Layer_1" data-name="Layer 1" xmlns="http://www.w3.org/2000/svg" viewBox="0 0 122.87 122.88"><title>date-25</title><path d="M81.6,4.73C81.6,2.12,84.18,0,87.37,0s5.77,2.12,5.77,4.73V25.45c0,2.61-2.58,4.73-5.77,4.73s-5.77-2.12-5.77-4.73V4.73ZM27.44,103.41V94.12L41.37,79.88a27.68,27.68,0,0,0,2.24-2.47A11.71,11.71,0,0,0,45,75.18,5.09,5.09,0,0,0,45.54,73a4,4,0,0,0-.49-2.09,2.72,2.72,0,0,0-1.47-1.17A7.71,7.71,0,0,0,41,69.33H28.16V60c2-.44,4.18-.85,6.61-1.23a55.4,55.4,0,0,1,8.47-.58,19.89,19.89,0,0,1,8.36,1.45A8.68,8.68,0,0,1,55.94,64a16.52,16.52,0,0,1,1.3,6.93,17.37,17.37,0,0,1-.78,5.37,17.15,17.15,0,0,1-2.26,4.53A32.12,32.12,0,0,1,50.61,85l-7.73,7.91H58.45v10.49Zm52.19.37q-3.39,0-7.45-.4c-2.72-.26-5.36-.53-7.94-.81V93.28H80.17a4,4,0,0,0,2.59-.63,2.4,2.4,0,0,0,.85-1.51,11.32,11.32,0,0,0,.12-1.48V87.79a4.2,4.2,0,0,0-.57-2.36A2.51,2.51,0,0,0,81,84.59H78.3a3.18,3.18,0,0,0-2.08.54,2.38,2.38,0,0,0-.76,1.57H64.36l1.27-28.11H93.56V69.08H75.64l-.3,6.82a5.28,5.28,0,0,1,2.48-1,20.09,20.09,0,0,1,2.89-.22H85.3A10.4,10.4,0,0,1,91,76.14a8.87,8.87,0,0,1,3.32,3.92,13.75,13.75,0,0,1,1.09,5.56v6.57a11.81,11.81,0,0,1-1.72,6.67,9.77,9.77,0,0,1-5.22,3.74,28.42,28.42,0,0,1-8.87,1.18Zm-50-99C29.61,2.12,32.19,0,35.38,0s5.77,2.12,5.77,4.73V25.45c0,2.61-2.58,4.73-5.77,4.73s-5.77-2.12-5.77-4.73V4.73ZM6.4,38.76H116.46V21.47a3,3,0,0,0-.86-2.07,2.92,2.92,0,0,0-2.07-.86H103a3.2,3.2,0,1,1,0-6.4h10.55a9.36,9.36,0,0,1,9.33,9.33v92.08a9.36,9.36,0,0,1-9.33,9.33H9.33A9.36,9.36,0,0,1,0,113.54V21.47a9.36,9.36,0,0,1,9.33-9.33H20.6a3.2,3.2,0,1,1,0,6.4H9.33a3,3,0,0,0-2.07.86,2.92,2.92,0,0,0-.86,2.07V38.76Zm110.07,6.41H6.4v68.37a3,3,0,0,0,.86,2.07,2.92,2.92,0,0,0,2.07.86H113.54a3,3,0,0,0,2.07-.86,2.92,2.92,0,0,0,.86-2.07V45.17Zm-66-26.63a3.2,3.2,0,0,1,0-6.4H71.91a3.2,3.2,0,1,1,0,6.4Z"/></svg>