<svg id="Layer_1" data-name="Layer 1" xmlns="http://www.w3.org/2000/svg" viewBox="0 0 122.87 122.88"><title>date-20</title><path d="M81.6,4.73C81.6,2.12,84.18,0,87.37,0s5.77,2.12,5.77,4.73V25.45c0,2.61-2.58,4.73-5.77,4.73s-5.77-2.12-5.77-4.73V4.73ZM26.2,103.41V94.12L40.14,79.88a27.45,27.45,0,0,0,2.23-2.47,11.79,11.79,0,0,0,1.42-2.23A5.22,5.22,0,0,0,44.3,73a4.09,4.09,0,0,0-.48-2.09,2.74,2.74,0,0,0-1.48-1.17,7.65,7.65,0,0,0-2.56-.36H26.92V60c2-.44,4.18-.85,6.61-1.23A55.44,55.44,0,0,1,42,58.22a19.84,19.84,0,0,1,8.35,1.45A8.7,8.7,0,0,1,54.71,64,16.68,16.68,0,0,1,56,70.89a17.37,17.37,0,0,1-.78,5.37A17.15,17.15,0,0,1,53,80.79,31.37,31.37,0,0,1,49.37,85l-7.72,7.91H57.21v10.49Zm48.87.37a14.65,14.65,0,0,1-6.85-1.45,9.17,9.17,0,0,1-4.07-4.19,15,15,0,0,1-1.33-6.55V71a15.6,15.6,0,0,1,1.42-7,9.72,9.72,0,0,1,4.19-4.32,14.17,14.17,0,0,1,6.7-1.48h9.78a13,13,0,0,1,6.42,1.48,9.54,9.54,0,0,1,4,4.32,16,16,0,0,1,1.36,7V91.59q0,5.67-3,8.93t-8.77,3.26ZM78,93.28h3.62A3,3,0,0,0,85,89.78V72.22a3.55,3.55,0,0,0-.85-2.8,3.09,3.09,0,0,0-2.05-.7H77.54a2.85,2.85,0,0,0-2.29.85,4,4,0,0,0-.72,2.65v17.5a3.7,3.7,0,0,0,.84,2.74,3.61,3.61,0,0,0,2.6.82ZM29.61,4.73C29.61,2.12,32.19,0,35.38,0s5.77,2.12,5.77,4.73V25.45c0,2.61-2.58,4.73-5.77,4.73s-5.77-2.12-5.77-4.73V4.73ZM6.4,38.76H116.46V21.47a3,3,0,0,0-.86-2.07,2.92,2.92,0,0,0-2.07-.86H103a3.2,3.2,0,1,1,0-6.4h10.55a9.36,9.36,0,0,1,9.33,9.33v92.08a9.36,9.36,0,0,1-9.33,9.33H9.33A9.36,9.36,0,0,1,0,113.54V21.47a9.36,9.36,0,0,1,9.33-9.33H20.6a3.2,3.2,0,1,1,0,6.4H9.33a3,3,0,0,0-2.07.86,2.92,2.92,0,0,0-.86,2.07V38.76Zm110.07,6.41H6.4v68.37a3,3,0,0,0,.86,2.07,2.92,2.92,0,0,0,2.07.86H113.54a3,3,0,0,0,2.07-.86,2.92,2.92,0,0,0,.86-2.07V45.17Zm-66-26.63a3.2,3.2,0,0,1,0-6.4H71.91a3.2,3.2,0,1,1,0,6.4Z"/></svg>