<svg id="Layer_1" data-name="Layer 1" xmlns="http://www.w3.org/2000/svg" viewBox="0 0 122.87 122.88"><title>date-21</title><path d="M81.6,4.73C81.6,2.12,84.18,0,87.37,0s5.77,2.12,5.77,4.73V25.45c0,2.61-2.58,4.73-5.77,4.73s-5.77-2.12-5.77-4.73V4.73ZM34.26,103.41V94.12L48.19,79.88a26,26,0,0,0,2.23-2.47,11.31,11.31,0,0,0,1.42-2.23A5.22,5.22,0,0,0,52.35,73a4.09,4.09,0,0,0-.48-2.09,2.7,2.7,0,0,0-1.48-1.17,7.61,7.61,0,0,0-2.56-.36H35V60q3-.66,6.61-1.23a55.31,55.31,0,0,1,8.47-.58,19.89,19.89,0,0,1,8.36,1.45A8.68,8.68,0,0,1,62.76,64a16.52,16.52,0,0,1,1.3,6.93,17.37,17.37,0,0,1-.78,5.37A17.18,17.18,0,0,1,61,80.79,30.66,30.66,0,0,1,57.42,85L49.7,92.92H65.27v10.49Zm42.65,0V69.33H69.79V61.84l8.45-3.62H88.62v45.19ZM29.61,4.73C29.61,2.12,32.19,0,35.38,0s5.77,2.12,5.77,4.73V25.45c0,2.61-2.58,4.73-5.77,4.73s-5.77-2.12-5.77-4.73V4.73ZM6.4,38.76H116.46V21.47a3,3,0,0,0-.86-2.07,2.92,2.92,0,0,0-2.07-.86H103a3.2,3.2,0,1,1,0-6.4h10.55a9.36,9.36,0,0,1,9.33,9.33v92.08a9.36,9.36,0,0,1-9.33,9.33H9.33A9.36,9.36,0,0,1,0,113.54V21.47a9.36,9.36,0,0,1,9.33-9.33H20.6a3.2,3.2,0,1,1,0,6.4H9.33a3,3,0,0,0-2.07.86,2.92,2.92,0,0,0-.86,2.07V38.76Zm110.07,6.41H6.4v68.37a3,3,0,0,0,.86,2.07,2.92,2.92,0,0,0,2.07.86H113.54a3,3,0,0,0,2.07-.86,2.92,2.92,0,0,0,.86-2.07V45.17Zm-66-26.63a3.2,3.2,0,0,1,0-6.4H71.91a3.2,3.2,0,1,1,0,6.4Z"/></svg>