<svg id="Layer_1" data-name="Layer 1" xmlns="http://www.w3.org/2000/svg" viewBox="0 0 122.87 122.88"><title>date-28</title><path d="M81.6,4.73C81.6,2.12,84.18,0,87.37,0s5.77,2.12,5.77,4.73V25.45c0,2.61-2.58,4.73-5.77,4.73s-5.77-2.12-5.77-4.73V4.73ZM27.33,103.41V94.12L41.27,79.88a27.45,27.45,0,0,0,2.23-2.47,11.31,11.31,0,0,0,1.42-2.23A5.22,5.22,0,0,0,45.43,73,4.09,4.09,0,0,0,45,70.86a2.74,2.74,0,0,0-1.48-1.17,7.65,7.65,0,0,0-2.56-.36H28.06V60q3-.66,6.6-1.23a55.54,55.54,0,0,1,8.48-.58,19.92,19.92,0,0,1,8.36,1.45A8.72,8.72,0,0,1,55.84,64a16.68,16.68,0,0,1,1.3,6.93,17.07,17.07,0,0,1-.79,5.37,16.85,16.85,0,0,1-2.26,4.53A31.37,31.37,0,0,1,50.5,85l-7.72,7.91H58.34v10.49Zm48.42.37a25.35,25.35,0,0,1-4.53-.4,11.53,11.53,0,0,1-4-1.47,7.77,7.77,0,0,1-2.83-3.11,11.49,11.49,0,0,1-1.06-5.34v-6a10.38,10.38,0,0,1,.42-2.9A7.14,7.14,0,0,1,65.13,82a4.57,4.57,0,0,1,2.65-1.51,6.67,6.67,0,0,1-2.56-2.17,5.9,5.9,0,0,1-.87-2.66c-.08-1-.12-2-.12-3V67.58a9,9,0,0,1,1.53-5.5,8.63,8.63,0,0,1,4-2.95,15.68,15.68,0,0,1,5.34-.91h8.56a15.56,15.56,0,0,1,5.37.91,8.64,8.64,0,0,1,4,2.95,9,9,0,0,1,1.53,5.5v5.06a16.23,16.23,0,0,1-.12,1.69A12.47,12.47,0,0,1,94,76.6a5.55,5.55,0,0,1-1.09,2,3,3,0,0,1-1.93,1,4.63,4.63,0,0,1,3,2,8.4,8.4,0,0,1,1.21,3.11,17.43,17.43,0,0,1,.27,2.78v6q0,4.41-1.63,6.61a7.83,7.83,0,0,1-4.28,3,20.64,20.64,0,0,1-5.74.76Zm2.11-9.9H81c1.33,0,2.13-.25,2.41-.75a4.18,4.18,0,0,0,.42-2V88.27a3,3,0,0,0-.69-2,2.52,2.52,0,0,0-2-.82H77.86a3.55,3.55,0,0,0-1.27.22,2.12,2.12,0,0,0-.87.6,2.84,2.84,0,0,0-.51.9A3.42,3.42,0,0,0,75,88.27v2.84a3,3,0,0,0,.63,2.17,3.18,3.18,0,0,0,2.2.6Zm0-18.34H81a2.71,2.71,0,0,0,1.54-.33,1.55,1.55,0,0,0,.57-1.06,11.28,11.28,0,0,0,.12-1.81V70.47c0-1.16-.23-1.85-.69-2a3.88,3.88,0,0,0-1.54-.3H77.86a3.38,3.38,0,0,0-1.66.33c-.38.22-.57.9-.57,2v1.87c0,1.45.17,2.35.51,2.69a2.39,2.39,0,0,0,1.72.51ZM29.61,4.73C29.61,2.12,32.19,0,35.38,0s5.77,2.12,5.77,4.73V25.45c0,2.61-2.58,4.73-5.77,4.73s-5.77-2.12-5.77-4.73V4.73ZM6.4,38.76H116.46V21.47a3,3,0,0,0-.86-2.07,2.92,2.92,0,0,0-2.07-.86H103a3.2,3.2,0,1,1,0-6.4h10.55a9.36,9.36,0,0,1,9.33,9.33v92.08a9.36,9.36,0,0,1-9.33,9.33H9.33A9.36,9.36,0,0,1,0,113.54V21.47a9.36,9.36,0,0,1,9.33-9.33H20.6a3.2,3.2,0,1,1,0,6.4H9.33a3,3,0,0,0-2.07.86,2.92,2.92,0,0,0-.86,2.07V38.76Zm110.07,6.41H6.4v68.37a3,3,0,0,0,.86,2.07,2.92,2.92,0,0,0,2.07.86H113.54a3,3,0,0,0,2.07-.86,2.92,2.92,0,0,0,.86-2.07V45.17Zm-66-26.63a3.2,3.2,0,0,1,0-6.4H71.91a3.2,3.2,0,1,1,0,6.4Z"/></svg>