<svg id="Layer_1" data-name="Layer 1" xmlns="http://www.w3.org/2000/svg" viewBox="0 0 122.87 122.88"><title>date-13</title><path d="M81.6,4.73C81.6,2.12,84.18,0,87.37,0s5.77,2.12,5.77,4.73V25.45c0,2.61-2.58,4.73-5.77,4.73s-5.77-2.12-5.77-4.73V4.73Zm-41,98.68V69.33H33.5V61.84L42,58.22H52.33v45.19Zm35.72.37q-4.83,0-9.35-.42a82.41,82.41,0,0,1-8.39-1.21V92.74H71.75a20.08,20.08,0,0,0,3.65-.25,3.11,3.11,0,0,0,1.78-.78,2.15,2.15,0,0,0,.49-1.51V89.06a2.62,2.62,0,0,0-.55-1.75,3.17,3.17,0,0,0-1.57-1A9.54,9.54,0,0,0,73,85.92l-10.74-.49V76.38l10.2-.66A10.74,10.74,0,0,0,76,75a2,2,0,0,0,1.14-1.93v-.55A2.65,2.65,0,0,0,76,70.05a9.61,9.61,0,0,0-4.47-.72H59.2V59.91c2.62-.44,5.37-.85,8.27-1.23a54.87,54.87,0,0,1,8.81-.46A17.22,17.22,0,0,1,83,59.52a9.28,9.28,0,0,1,4.31,3.74,12.14,12.14,0,0,1,1.51,6.37v3a13.75,13.75,0,0,1-.27,2.81,8.05,8.05,0,0,1-.88,2.35,6.28,6.28,0,0,1-1.57,1.84,7.42,7.42,0,0,1-2.35,1.27,6.27,6.27,0,0,1,2.5,1.36A7.84,7.84,0,0,1,88,84.47,10.6,10.6,0,0,1,89,87.34a15.41,15.41,0,0,1,.36,3.4v1.75c0,3.66-1.15,6.46-3.47,8.39s-5.5,2.9-9.56,2.9Zm-46.73-99C29.61,2.12,32.19,0,35.38,0s5.77,2.12,5.77,4.73V25.45c0,2.61-2.58,4.73-5.77,4.73s-5.77-2.12-5.77-4.73V4.73ZM6.4,38.76H116.46V21.47a3,3,0,0,0-.86-2.07,2.92,2.92,0,0,0-2.07-.86H103a3.2,3.2,0,1,1,0-6.4h10.55a9.36,9.36,0,0,1,9.33,9.33v92.08a9.36,9.36,0,0,1-9.33,9.33H9.33A9.36,9.36,0,0,1,0,113.54V21.47a9.36,9.36,0,0,1,9.33-9.33H20.6a3.2,3.2,0,1,1,0,6.4H9.33a3,3,0,0,0-2.07.86,2.92,2.92,0,0,0-.86,2.07V38.76Zm110.07,6.41H6.4v68.37a3,3,0,0,0,.86,2.07,2.92,2.92,0,0,0,2.07.86H113.54a3,3,0,0,0,2.07-.86,2.92,2.92,0,0,0,.86-2.07V45.17Zm-66-26.63a3.2,3.2,0,0,1,0-6.4H71.91a3.2,3.2,0,1,1,0,6.4Z"/></svg>