<svg id="Layer_1" data-name="Layer 1" xmlns="http://www.w3.org/2000/svg" viewBox="0 0 122.87 122.88"><title>date-10</title><path d="M81.6,4.73C81.6,2.12,84.18,0,87.37,0s5.77,2.12,5.77,4.73V25.45c0,2.61-2.58,4.73-5.77,4.73s-5.77-2.12-5.77-4.73V4.73ZM39.28,103.41V69.33H32.16V61.84l8.45-3.62H51v45.19Zm29.83.37a14.65,14.65,0,0,1-6.85-1.45,9.17,9.17,0,0,1-4.07-4.19,15,15,0,0,1-1.32-6.55V71a15.6,15.6,0,0,1,1.41-7,9.75,9.75,0,0,1,4.2-4.32,14.12,14.12,0,0,1,6.69-1.48H79a13,13,0,0,1,6.42,1.48,9.54,9.54,0,0,1,4,4.32,16,16,0,0,1,1.36,7V91.59q0,5.67-3,8.93t-8.78,3.26ZM72,93.28h3.62A3,3,0,0,0,79,89.78V72.22c0-1.41-.28-2.34-.85-2.8a3.07,3.07,0,0,0-2-.7H71.59a2.86,2.86,0,0,0-2.3.85,4,4,0,0,0-.72,2.65v17.5a3.7,3.7,0,0,0,.84,2.74,3.61,3.61,0,0,0,2.6.82ZM29.61,4.73C29.61,2.12,32.19,0,35.38,0s5.77,2.12,5.77,4.73V25.45c0,2.61-2.58,4.73-5.77,4.73s-5.77-2.12-5.77-4.73V4.73ZM6.4,38.76H116.46V21.47a3,3,0,0,0-.86-2.07,2.92,2.92,0,0,0-2.07-.86H103a3.2,3.2,0,1,1,0-6.4h10.55a9.36,9.36,0,0,1,9.33,9.33v92.08a9.36,9.36,0,0,1-9.33,9.33H9.33A9.36,9.36,0,0,1,0,113.54V21.47a9.36,9.36,0,0,1,9.33-9.33H20.6a3.2,3.2,0,1,1,0,6.4H9.33a3,3,0,0,0-2.07.86,2.92,2.92,0,0,0-.86,2.07V38.76Zm110.07,6.41H6.4v68.37a3,3,0,0,0,.86,2.07,2.92,2.92,0,0,0,2.07.86H113.54a3,3,0,0,0,2.07-.86,2.92,2.92,0,0,0,.86-2.07V45.17Zm-66-26.63a3.2,3.2,0,0,1,0-6.4H71.91a3.2,3.2,0,1,1,0,6.4Z"/></svg>