<svg id="Layer_1" data-name="Layer 1" xmlns="http://www.w3.org/2000/svg" viewBox="0 0 122.87 122.88"><title>date-8</title><path d="M81.6,4.73C81.6,2.12,84.18,0,87.37,0s5.77,2.12,5.77,4.73V25.45c0,2.61-2.58,4.73-5.77,4.73s-5.77-2.12-5.77-4.73V4.73ZM57.76,103.78a25.35,25.35,0,0,1-4.53-.4,11.46,11.46,0,0,1-4-1.47,7.79,7.79,0,0,1-2.84-3.11,11.63,11.63,0,0,1-1.05-5.34v-6a10.38,10.38,0,0,1,.42-2.9A6.85,6.85,0,0,1,47.14,82a4.54,4.54,0,0,1,2.65-1.51,6.67,6.67,0,0,1-2.56-2.17,5.79,5.79,0,0,1-.88-2.66c-.08-1-.12-2-.12-3V67.58a8.93,8.93,0,0,1,1.54-5.5,8.6,8.6,0,0,1,4-2.95,15.68,15.68,0,0,1,5.34-.91h8.57a15.6,15.6,0,0,1,5.37.91,8.57,8.57,0,0,1,4,2.95,8.93,8.93,0,0,1,1.54,5.5v5.06a16.23,16.23,0,0,1-.12,1.69A12.47,12.47,0,0,1,76,76.6a5.7,5.7,0,0,1-1.09,2,3,3,0,0,1-1.93,1,4.65,4.65,0,0,1,3,2,8.38,8.38,0,0,1,1.2,3.11,16.47,16.47,0,0,1,.28,2.78v6c0,2.94-.55,5.14-1.63,6.61a7.85,7.85,0,0,1-4.29,3,20.62,20.62,0,0,1-5.73.76Zm2.11-9.9H63c1.33,0,2.14-.25,2.42-.75a4.18,4.18,0,0,0,.42-2V88.27a3,3,0,0,0-.69-2,2.53,2.53,0,0,0-2-.82H59.87a3.48,3.48,0,0,0-1.27.22,2.12,2.12,0,0,0-.87.6,2.69,2.69,0,0,0-.52.9A3.42,3.42,0,0,0,57,88.27v2.84a3,3,0,0,0,.63,2.17,3.21,3.21,0,0,0,2.21.6Zm0-18.34H63a2.68,2.68,0,0,0,1.54-.33,1.52,1.52,0,0,0,.58-1.06,11.28,11.28,0,0,0,.12-1.81V70.47c0-1.16-.23-1.85-.7-2a3.81,3.81,0,0,0-1.54-.3H59.87a3.36,3.36,0,0,0-1.66.33c-.38.22-.58.9-.58,2v1.87c0,1.45.18,2.35.52,2.69a2.37,2.37,0,0,0,1.72.51ZM29.61,4.73C29.61,2.12,32.19,0,35.38,0s5.77,2.12,5.77,4.73V25.45c0,2.61-2.58,4.73-5.77,4.73s-5.77-2.12-5.77-4.73V4.73ZM6.4,38.76H116.46V21.47a3,3,0,0,0-.86-2.07,2.92,2.92,0,0,0-2.07-.86H103a3.2,3.2,0,1,1,0-6.4h10.55a9.36,9.36,0,0,1,9.33,9.33v92.08a9.36,9.36,0,0,1-9.33,9.33H9.33A9.36,9.36,0,0,1,0,113.54V21.47a9.36,9.36,0,0,1,9.33-9.33H20.6a3.2,3.2,0,1,1,0,6.4H9.33a3,3,0,0,0-2.07.86,2.92,2.92,0,0,0-.86,2.07V38.76Zm110.07,6.41H6.4v68.37a3,3,0,0,0,.86,2.07,2.92,2.92,0,0,0,2.07.86H113.54a3,3,0,0,0,2.07-.86,2.92,2.92,0,0,0,.86-2.07V45.17Zm-66-26.63a3.2,3.2,0,0,1,0-6.4H71.91a3.2,3.2,0,1,1,0,6.4Z"/></svg>