<svg id="Layer_1" data-name="Layer 1" xmlns="http://www.w3.org/2000/svg" viewBox="0 0 122.87 122.88"><title>date-12</title><path d="M81.6,4.73C81.6,2.12,84.18,0,87.37,0s5.77,2.12,5.77,4.73V25.45c0,2.61-2.58,4.73-5.77,4.73s-5.77-2.12-5.77-4.73V4.73ZM40.32,103.41V69.33H33.2V61.84l8.45-3.62H52v45.19Zm18.34,0V94.12L72.6,79.88a27.45,27.45,0,0,0,2.23-2.47,11.31,11.31,0,0,0,1.42-2.23A5.22,5.22,0,0,0,76.76,73a4.09,4.09,0,0,0-.48-2.09,2.74,2.74,0,0,0-1.48-1.17,7.65,7.65,0,0,0-2.56-.36H59.38V60q3-.66,6.61-1.23a55.54,55.54,0,0,1,8.48-.58,19.92,19.92,0,0,1,8.36,1.45A8.72,8.72,0,0,1,87.17,64a16.68,16.68,0,0,1,1.3,6.93,17.36,17.36,0,0,1-.79,5.37,16.85,16.85,0,0,1-2.26,4.53A31.37,31.37,0,0,1,81.83,85l-7.72,7.91H89.67v10.49Zm-29-98.68C29.61,2.12,32.19,0,35.38,0s5.77,2.12,5.77,4.73V25.45c0,2.61-2.58,4.73-5.77,4.73s-5.77-2.12-5.77-4.73V4.73ZM6.4,38.76H116.46V21.47a3,3,0,0,0-.86-2.07,2.92,2.92,0,0,0-2.07-.86H103a3.2,3.2,0,1,1,0-6.4h10.55a9.36,9.36,0,0,1,9.33,9.33v92.08a9.36,9.36,0,0,1-9.33,9.33H9.33A9.36,9.36,0,0,1,0,113.54V21.47a9.36,9.36,0,0,1,9.33-9.33H20.6a3.2,3.2,0,1,1,0,6.4H9.33a3,3,0,0,0-2.07.86,2.92,2.92,0,0,0-.86,2.07V38.76Zm110.07,6.41H6.4v68.37a3,3,0,0,0,.86,2.07,2.92,2.92,0,0,0,2.07.86H113.54a3,3,0,0,0,2.07-.86,2.92,2.92,0,0,0,.86-2.07V45.17Zm-66-26.63a3.2,3.2,0,0,1,0-6.4H71.91a3.2,3.2,0,1,1,0,6.4Z"/></svg>