<svg id="Layer_1" data-name="Layer 1" xmlns="http://www.w3.org/2000/svg" viewBox="0 0 122.87 122.88"><title>date-30</title><path d="M81.6,4.73C81.6,2.12,84.18,0,87.37,0s5.77,2.12,5.77,4.73V25.45c0,2.61-2.58,4.73-5.77,4.73s-5.77-2.12-5.77-4.73V4.73ZM44.35,103.78q-4.83,0-9.36-.42a82.2,82.2,0,0,1-8.38-1.21V92.74H39.76a20.08,20.08,0,0,0,3.65-.25,3.11,3.11,0,0,0,1.78-.78,2.19,2.19,0,0,0,.48-1.51V89.06a2.67,2.67,0,0,0-.54-1.75,3.17,3.17,0,0,0-1.57-1A9.61,9.61,0,0,0,41,85.92l-10.74-.49V76.38l10.19-.66A10.81,10.81,0,0,0,44.05,75a2,2,0,0,0,1.14-1.93v-.55A2.64,2.64,0,0,0,44,70.05a9.53,9.53,0,0,0-4.46-.72H27.21V59.91c2.62-.44,5.37-.85,8.27-1.23a54.81,54.81,0,0,1,8.81-.46A17.17,17.17,0,0,1,51,59.52a9.31,9.31,0,0,1,4.32,3.74,12.23,12.23,0,0,1,1.51,6.37v3a13.72,13.72,0,0,1-.28,2.81,8,8,0,0,1-.87,2.35,6.43,6.43,0,0,1-1.57,1.84,7.53,7.53,0,0,1-2.35,1.27,6.33,6.33,0,0,1,2.5,1.36A8,8,0,0,1,56,84.47,11,11,0,0,1,57,87.34a15.41,15.41,0,0,1,.36,3.4v1.75q0,5.49-3.47,8.39t-9.56,2.9Zm30.31,0a14.58,14.58,0,0,1-6.84-1.45,9.19,9.19,0,0,1-4.08-4.19,15,15,0,0,1-1.32-6.55V71a15.6,15.6,0,0,1,1.41-7A9.75,9.75,0,0,1,68,59.7a14.12,14.12,0,0,1,6.69-1.48H84.5a13,13,0,0,1,6.42,1.48,9.62,9.62,0,0,1,4,4.32,16.19,16.19,0,0,1,1.35,7V91.59q0,5.67-3,8.93t-8.78,3.26Zm2.9-10.5h3.62a3,3,0,0,0,3.38-3.5V72.22c0-1.41-.28-2.34-.85-2.8a3.07,3.07,0,0,0-2-.7H77.14a2.86,2.86,0,0,0-2.3.85,4,4,0,0,0-.72,2.65v17.5A3.65,3.65,0,0,0,75,92.46a3.56,3.56,0,0,0,2.59.82ZM29.61,4.73C29.61,2.12,32.19,0,35.38,0s5.77,2.12,5.77,4.73V25.45c0,2.61-2.58,4.73-5.77,4.73s-5.77-2.12-5.77-4.73V4.73ZM6.4,38.76H116.46V21.47a3,3,0,0,0-.86-2.07,2.92,2.92,0,0,0-2.07-.86H103a3.2,3.2,0,1,1,0-6.4h10.55a9.36,9.36,0,0,1,9.33,9.33v92.08a9.36,9.36,0,0,1-9.33,9.33H9.33A9.36,9.36,0,0,1,0,113.54V21.47a9.36,9.36,0,0,1,9.33-9.33H20.6a3.2,3.2,0,1,1,0,6.4H9.33a3,3,0,0,0-2.07.86,2.92,2.92,0,0,0-.86,2.07V38.76Zm110.07,6.41H6.4v68.37a3,3,0,0,0,.86,2.07,2.92,2.92,0,0,0,2.07.86H113.54a3,3,0,0,0,2.07-.86,2.92,2.92,0,0,0,.86-2.07V45.17Zm-66-26.63a3.2,3.2,0,0,1,0-6.4H71.91a3.2,3.2,0,1,1,0,6.4Z"/></svg>