<svg id="Layer_1" data-name="Layer 1" xmlns="http://www.w3.org/2000/svg" viewBox="0 0 122.87 122.88"><title>date-26</title><path d="M81.6,4.73C81.6,2.12,84.18,0,87.37,0s5.77,2.12,5.77,4.73V25.45c0,2.61-2.58,4.73-5.77,4.73s-5.77-2.12-5.77-4.73V4.73ZM27.66,103.41V94.12L41.6,79.88a26,26,0,0,0,2.23-2.47,11.31,11.31,0,0,0,1.42-2.23A5.22,5.22,0,0,0,45.76,73a4.09,4.09,0,0,0-.48-2.09,2.7,2.7,0,0,0-1.48-1.17,7.65,7.65,0,0,0-2.56-.36H28.39V60q3-.66,6.6-1.23a55.54,55.54,0,0,1,8.48-.58,19.89,19.89,0,0,1,8.36,1.45A8.68,8.68,0,0,1,56.17,64a16.52,16.52,0,0,1,1.3,6.93,17.07,17.07,0,0,1-.79,5.37,16.85,16.85,0,0,1-2.26,4.53A30.66,30.66,0,0,1,50.83,85l-7.72,7.91H58.68v10.49Zm49.81.37a17.51,17.51,0,0,1-6.21-1,9.47,9.47,0,0,1-4.41-3.41,17.18,17.18,0,0,1-2.62-6.66A54,54,0,0,1,63.35,82a47.47,47.47,0,0,1,1.18-11.56A17.81,17.81,0,0,1,68,63.14a12.51,12.51,0,0,1,5.55-3.8A22.91,22.91,0,0,1,81,58.22q3.19,0,6.18.28a31.2,31.2,0,0,1,5.4.93v9.29H82.36c-2.74,0-4.64.69-5.71,2a9.29,9.29,0,0,0-1.59,5.8,11.24,11.24,0,0,1,2.26-.82,15.07,15.07,0,0,1,2.62-.36c1-.06,2.26-.09,3.74-.09a14.53,14.53,0,0,1,7.21,1.45,7.37,7.37,0,0,1,3.41,3.92,15.73,15.73,0,0,1,.91,5.49v6.52A12.53,12.53,0,0,1,93.79,99a8.48,8.48,0,0,1-4,3.59,14.89,14.89,0,0,1-6.1,1.15Zm2.41-10.5h1a2.87,2.87,0,0,0,1.57-.36,2,2,0,0,0,.78-1.06,5.06,5.06,0,0,0,.24-1.66V88.51a5.84,5.84,0,0,0-.27-2,1.73,1.73,0,0,0-1-1,5.14,5.14,0,0,0-2-.31H75.06a27.29,27.29,0,0,0,.24,4,6.51,6.51,0,0,0,.81,2.47,3.1,3.1,0,0,0,1.51,1.27,6.3,6.3,0,0,0,2.26.36ZM29.61,4.73C29.61,2.12,32.19,0,35.38,0s5.77,2.12,5.77,4.73V25.45c0,2.61-2.58,4.73-5.77,4.73s-5.77-2.12-5.77-4.73V4.73ZM6.4,38.76H116.46V21.47a3,3,0,0,0-.86-2.07,2.92,2.92,0,0,0-2.07-.86H103a3.2,3.2,0,1,1,0-6.4h10.55a9.36,9.36,0,0,1,9.33,9.33v92.08a9.36,9.36,0,0,1-9.33,9.33H9.33A9.36,9.36,0,0,1,0,113.54V21.47a9.36,9.36,0,0,1,9.33-9.33H20.6a3.2,3.2,0,1,1,0,6.4H9.33a3,3,0,0,0-2.07.86,2.92,2.92,0,0,0-.86,2.07V38.76Zm110.07,6.41H6.4v68.37a3,3,0,0,0,.86,2.07,2.92,2.92,0,0,0,2.07.86H113.54a3,3,0,0,0,2.07-.86,2.92,2.92,0,0,0,.86-2.07V45.17Zm-66-26.63a3.2,3.2,0,0,1,0-6.4H71.91a3.2,3.2,0,1,1,0,6.4Z"/></svg>