<?xml version="1.0" encoding="utf-8"?><svg version="1.1" id="Layer_1" xmlns="http://www.w3.org/2000/svg" xmlns:xlink="http://www.w3.org/1999/xlink" x="0px" y="0px" viewBox="0 0 115.28 122.88" style="enable-background:new 0 0 115.28 122.88" xml:space="preserve"><style type="text/css">.st0{fill-rule:evenodd;clip-rule:evenodd;}</style><g><path class="st0" d="M25.38,57h64.88V37.34H69.59c-2.17,0-5.19-1.17-6.62-2.6c-1.43-1.43-2.3-4.01-2.3-6.17V7.64l0,0H8.15 c-0.18,0-0.32,0.09-0.41,0.18C7.59,7.92,7.55,8.05,7.55,8.24v106.45c0,0.14,0.09,0.32,0.18,0.41c0.09,0.14,0.28,0.18,0.41,0.18 c22.78,0,58.09,0,81.51,0c0.18,0,0.17-0.09,0.27-0.18c0.14-0.09,0.33-0.28,0.33-0.41v-11.16H25.38c-4.14,0-7.56-3.4-7.56-7.56 V64.55C17.82,60.4,21.22,57,25.38,57L25.38,57z M29.83,68.08h11.33c2.23,0,4.04,0.3,5.41,0.91c1.37,0.61,2.51,1.48,3.41,2.61 c0.9,1.14,1.54,2.45,1.95,3.96c0.41,1.5,0.61,3.09,0.61,4.78c0,2.63-0.3,4.68-0.9,6.13c-0.6,1.45-1.43,2.67-2.5,3.65 c-1.07,0.98-2.21,1.64-3.43,1.96c-1.67,0.45-3.19,0.67-4.54,0.67H29.83V68.08L29.83,68.08z M37.45,73.66v13.47h1.87 c1.6,0,2.73-0.18,3.41-0.53c0.67-0.36,1.2-0.97,1.58-1.85c0.38-0.88,0.57-2.31,0.57-4.28c0-2.61-0.42-4.4-1.28-5.36 c-0.86-0.96-2.27-1.45-4.25-1.45H37.45L37.45,73.66z M55.44,68.08h20.39v5.27H63.08v3.93H74.9v5.03H63.08v4.86h13.12v5.58H55.44 V68.08L55.44,68.08z M79.26,68.08h14.28c2.38,0,4.2,0.59,5.48,1.77c1.27,1.18,1.91,2.64,1.91,4.37c0,1.46-0.45,2.71-1.37,3.75 c-0.6,0.7-1.49,1.25-2.66,1.65c1.77,0.42,3.07,1.15,3.91,2.19c0.83,1.04,1.25,2.34,1.25,3.91c0,1.28-0.3,2.43-0.89,3.45 c-0.6,1.02-1.41,1.83-2.44,2.42c-0.64,0.37-1.61,0.64-2.9,0.8c-1.72,0.22-2.85,0.34-3.42,0.34H79.26V68.08L79.26,68.08z M86.94,77.75h3.32c1.19,0,2.02-0.21,2.49-0.61c0.47-0.41,0.7-1,0.7-1.78c0-0.72-0.24-1.28-0.7-1.68 c-0.46-0.41-1.28-0.61-2.43-0.61h-3.38V77.75L86.94,77.75z M86.94,87.43h3.89c1.31,0,2.24-0.24,2.78-0.7 c0.54-0.46,0.81-1.09,0.81-1.87c0-0.73-0.26-1.31-0.8-1.76c-0.53-0.44-1.47-0.67-2.81-0.67h-3.87V87.43L86.94,87.43z M97.79,57 h9.93c4.16,0,7.56,3.41,7.56,7.56v31.42c0,4.15-3.41,7.56-7.56,7.56h-9.93v13.55c0,1.61-0.65,3.04-1.7,4.1 c-1.06,1.06-2.49,1.7-4.1,1.7c-29.44,0-56.59,0-86.18,0c-1.61,0-3.04-0.64-4.1-1.7c-1.06-1.06-1.7-2.49-1.7-4.1V5.85 c0-1.61,0.65-3.04,1.7-4.1c1.06-1.06,2.53-1.7,4.1-1.7h58.72C64.66,0,64.8,0,64.94,0c0.64,0,1.29,0.28,1.75,0.69h0.09 c0.09,0.05,0.14,0.09,0.23,0.18l29.99,30.36c0.51,0.51,0.88,1.2,0.88,1.98c0,0.23-0.05,0.41-0.09,0.65V57L97.79,57z M67.52,27.97 V8.94l21.43,21.7H70.19c-0.74,0-1.38-0.32-1.89-0.78C67.84,29.4,67.52,28.71,67.52,27.97L67.52,27.97z"/></g></svg>