<?xml version="1.0" encoding="utf-8"?><svg version="1.1" id="Layer_1" xmlns="http://www.w3.org/2000/svg" xmlns:xlink="http://www.w3.org/1999/xlink" x="0px" y="0px" viewBox="0 0 122.88 91.12" style="enable-background:new 0 0 122.88 91.12" xml:space="preserve"><style type="text/css"><![CDATA[
	.st0{fill-rule:evenodd;clip-rule:evenodd;}
]]></style><g><path class="st0" d="M33.32,70.81l5.07,14.9l2.55-8.84l-1.25-1.36c-0.57-0.82-0.69-1.54-0.38-2.16c0.68-1.33,2.08-1.09,3.38-1.09 c1.37,0,3.06-0.26,3.49,1.45c0.15,0.58-0.04,1.17-0.44,1.79l-1.25,1.36l2.55,8.84l4.59-14.9c3.31,2.98,13.1,3.58,16.75,5.61 c1.15,0.64,2.19,1.46,3.03,2.57c1.27,1.67,2.05,3.87,2.26,6.65l0.76,4.8c-0.02,0.24-0.06,0.47-0.11,0.69h-63.7 c-0.05-0.22-0.09-0.45-0.11-0.69l0.76-4.8c0.21-2.78,0.99-4.97,2.26-6.65c0.84-1.11,1.88-1.92,3.04-2.57 C20.22,74.38,30.01,73.79,33.32,70.81L33.32,70.81L33.32,70.81z M70.12,0.02H57.68c-1.09,0-2.12,0.2-3.09,0.59 C53.63,1,52.76,1.59,51.98,2.37c-0.78,0.78-1.37,1.65-1.76,2.61c-0.39,0.95-0.59,1.98-0.59,3.09v12.15c0,1.11,0.2,2.14,0.59,3.09 c0.39,0.95,0.98,1.83,1.76,2.61c0.78,0.78,1.65,1.36,2.61,1.76c0.95,0.39,1.98,0.59,3.09,0.59h4.03c0.7,0.89,1.47,1.73,2.28,2.5 c0.97,0.91,2,1.72,3.11,2.44c1.11,0.73,2.3,1.37,3.56,1.92c1.25,0.55,2.59,1,4,1.37c0.41,0.11,0.84-0.02,1.14-0.34 c0.42-0.47,0.38-1.19-0.09-1.61c-0.66-0.58-1.22-1.17-1.67-1.76c-0.44-0.58-0.8-1.17-1.06-1.78v-0.02c-0.3-0.66-0.56-1.33-0.8-2 c-0.08-0.23-0.16-0.48-0.23-0.73l3.84,0c1.09,0,2.12-0.2,3.09-0.59c0.95-0.39,1.83-0.98,2.61-1.76c0.78-0.78,1.37-1.65,1.76-2.61 c0.39-0.97,0.59-2,0.59-3.09V8.06c0-1.09-0.2-2.12-0.59-3.09c-0.39-0.95-0.98-1.83-1.76-2.61c-0.78-0.78-1.66-1.37-2.61-1.76 C77.91,0.2,76.88,0,75.77,0h-5.64L70.12,0.02L70.12,0.02L70.12,0.02z M69.48,9c0-0.01,0.05-0.04,0.05-0.05 c0.66-0.48,1.6-0.35,2.1,0.3c0.5,0.66,0.38,1.6-0.27,2.11l-2.48,2.63h-0.01c0.94,0.84,1.94,1.73,3.15,2.86 c0.01-0.01,0.04,0.04,0.04,0.05c0.49,0.66,0.36,1.59-0.3,2.1c-0.65,0.5-1.59,0.38-2.1-0.27l-2.68-2.56l-2.49,2.87 c-0.45,0.7-1.38,0.9-2.08,0.45c-0.7-0.44-0.92-1.36-0.49-2.06c0.01-0.01,0.04-0.06,0.04-0.06c1.1-1.22,1.98-2.21,2.81-3.15 l-2.8-2.36c-0.7-0.45-0.9-1.38-0.45-2.08c0.44-0.7,1.36-0.91,2.06-0.48c0.01,0.01,0.06,0.04,0.06,0.04 c1.18,1.06,2.14,1.92,3.05,2.72C67.51,11.15,68.39,10.19,69.48,9L69.48,9L69.48,9z M63.31,2.3h12.44c0.81,0,1.56,0.14,2.23,0.42 c0.67,0.28,1.29,0.7,1.86,1.26s0.98,1.19,1.26,1.86s0.42,1.42,0.42,2.23v12.15c0,0.81-0.14,1.56-0.42,2.23 c-0.28,0.67-0.7,1.3-1.26,1.86c-0.58,0.56-1.2,1-1.87,1.26C77.3,25.86,76.57,26,75.76,26h-5.34c-0.63,0-1.14,0.52-1.14,1.14 c0,0.14,0.03,0.27,0.06,0.39c0.2,0.75,0.42,1.5,0.67,2.22c0.27,0.76,0.55,1.48,0.86,2.19c0.16,0.36,0.34,0.7,0.55,1.06 c-1.09-0.48-2.12-1.05-3.08-1.67c-1-0.66-1.94-1.39-2.79-2.19c-0.87-0.81-1.65-1.7-2.37-2.65c-0.22-0.3-0.56-0.45-0.91-0.45h-4.59 c-0.81,0-1.55-0.14-2.22-0.42c-0.67-0.28-1.3-0.7-1.87-1.27c-0.56-0.56-0.98-1.19-1.26-1.86s-0.42-1.42-0.42-2.23V8.1 c0-0.81,0.14-1.56,0.42-2.23c0.28-0.67,0.7-1.3,1.26-1.86c0.56-0.56,1.19-0.98,1.86-1.26c0.67-0.28,1.42-0.42,2.23-0.42h5.64V2.3 L63.31,2.3L63.31,2.3z M12.66,10.1h11.5c0.75,0,1.44,0.13,2.06,0.39c0.62,0.26,1.2,0.65,1.72,1.17c0.52,0.52,0.91,1.1,1.17,1.72 c0.26,0.62,0.39,1.31,0.39,2.06v11.23c0,0.75-0.13,1.44-0.39,2.06c-0.26,0.62-0.65,1.2-1.17,1.72c-0.53,0.52-1.11,0.92-1.73,1.17 c-0.62,0.26-1.3,0.39-2.05,0.39h-4.94c-0.58,0-1.05,0.48-1.05,1.05c0,0.13,0.03,0.25,0.06,0.36c0.19,0.69,0.39,1.39,0.62,2.05 c0.25,0.71,0.5,1.37,0.79,2.02c0.14,0.33,0.32,0.65,0.5,0.98c-1.01-0.45-1.96-0.97-2.84-1.54c-0.92-0.61-1.79-1.28-2.58-2.02 c-0.81-0.75-1.53-1.57-2.19-2.45c-0.2-0.27-0.52-0.42-0.84-0.42H7.45c-0.75,0-1.43-0.13-2.05-0.39C4.78,31.39,4.2,31,3.67,30.48 c-0.52-0.52-0.91-1.1-1.17-1.72s-0.39-1.31-0.39-2.06V15.47c0-0.75,0.13-1.44,0.39-2.06c0.26-0.62,0.65-1.2,1.17-1.72 c0.52-0.52,1.1-0.91,1.72-1.17C6,10.26,6.7,10.13,7.45,10.13h5.21V10.1L12.66,10.1L12.66,10.1z M9.71,23.68 c-0.35-0.33-0.53-0.78-0.54-1.23C9.17,22,9.33,21.55,9.67,21.2c0.33-0.35,0.78-0.53,1.22-0.54c0.45-0.02,0.91,0.15,1.25,0.48 l2.15,2.06l5.15-6.35c0-0.01,0.05-0.05,0.06-0.05c0.72-0.63,1.81-0.56,2.45,0.15c0.64,0.72,0.59,1.81-0.11,2.46l-6.35,7.5 c0,0-0.04,0.04-0.05,0.05c-0.34,0.29-0.76,0.44-1.19,0.43c-0.43-0.01-0.85-0.17-1.19-0.48L9.71,23.68L9.71,23.68L9.71,23.68z M18.95,8H7.45C6.44,8,5.48,8.19,4.59,8.55C3.71,8.91,2.9,9.46,2.18,10.18s-1.27,1.53-1.63,2.41C0.19,13.47,0,14.42,0,15.45v11.23 c0,1.02,0.19,1.98,0.55,2.86c0.36,0.88,0.91,1.69,1.63,2.41c0.72,0.72,1.53,1.26,2.41,1.63c0.88,0.36,1.83,0.55,2.86,0.55h3.72 c0.65,0.82,1.36,1.6,2.11,2.31c0.9,0.84,1.85,1.59,2.87,2.25c1.02,0.68,2.12,1.27,3.29,1.78c1.15,0.5,2.4,0.92,3.69,1.27 c0.38,0.1,0.78-0.01,1.05-0.32c0.39-0.43,0.35-1.1-0.09-1.49c-0.61-0.53-1.13-1.08-1.54-1.63c-0.4-0.53-0.74-1.08-0.98-1.65v-0.01 c-0.27-0.61-0.52-1.23-0.74-1.85c-0.07-0.22-0.14-0.45-0.22-0.68h3.55c1.01,0,1.96-0.19,2.86-0.55c0.88-0.36,1.69-0.91,2.41-1.63 c0.72-0.72,1.27-1.53,1.63-2.41c0.36-0.89,0.55-1.85,0.55-2.86V15.43c0-1.01-0.19-1.96-0.55-2.86c-0.36-0.88-0.91-1.69-1.63-2.41 c-0.72-0.72-1.53-1.27-2.41-1.63c-0.88-0.36-1.83-0.55-2.86-0.55h-5.21L18.95,8L18.95,8L18.95,8z M79.02,59.3l2.88-0.07l2.4-0.06 c-2.8-8.6-1.86-16.51,4.86-23.22c1.14,3.69,3.7,6.73,8.05,8.98c2.08,1.55,4.1,3.41,6.04,5.56c0.35-1.42-0.97-3.14-2.57-4.93 c1.48,0.73,2.83,1.75,3.8,3.72c1.12,2.28,1.11,4.21,0.73,6.68c-0.17,1.15-0.46,2.22-0.85,3.21h3.98c4.2-8.99,1.54-22.33-7.05-27.98 c-2.63-1.73-4.53-1.66-7.62-1.66c-3.54,0-5.35,0.11-8.38,2.11c-4.47,2.95-7.21,8.07-8.37,15.17C76.7,50.34,76.54,56.46,79.02,59.3 L79.02,59.3L79.02,59.3z M89.97,75.66l2.15-7.46l-1.05-1.15c-0.48-0.7-0.58-1.3-0.31-1.82c0.57-1.13,1.76-0.91,2.85-0.91 c1.15,0,2.58-0.22,2.94,1.22c0.12,0.49-0.03,0.99-0.37,1.51l-1.05,1.15l2.15,7.46l-3.66,2.89L89.97,75.66L89.97,75.66L89.97,75.66z M109.2,73.08c-1.63-3.26-3.69-6.04-6.1-8.64c4.53,1.76,9.15,3.48,12.58,5.63c2.18,1.36,3.31,2.4,4.19,4.05 c1.87,3.52,2.08,6.68,2.36,10.49l0.65,6.51H79.3c-0.17-4.04,0-7.05-1.34-10.94c-0.57-1.64-1.34-3.1-2.31-4.39 c-0.65-0.86-1.41-1.63-2.25-2.33c-0.79-0.66-1.61-1.21-2.44-1.67c-0.35-0.19-0.71-0.38-1.1-0.54c0.49-0.38,1.06-0.77,1.72-1.18 c3.43-2.15,8.05-3.88,12.58-5.63c-2.41,2.61-4.47,5.38-6.1,8.64l4.72-0.12l10.85,9.44l10.85-9.44L109.2,73.08L109.2,73.08 L109.2,73.08z M30.73,49.64c-0.46,0.04-0.8,0.15-1.06,0.33c-0.16,0.11-0.28,0.25-0.37,0.42c-0.09,0.19-0.13,0.43-0.12,0.69 c0.03,0.83,0.47,1.94,1.33,3.21l0.02,0.02l0,0l2.83,4.5c1.13,1.8,2.31,3.63,3.79,4.97c1.4,1.28,3.1,2.15,5.34,2.15 c2.43,0.01,4.21-0.9,5.65-2.25c1.51-1.42,2.72-3.37,3.9-5.31l3.18-5.24c0.65-1.47,0.84-2.38,0.63-2.81 c-0.12-0.25-0.56-0.34-1.27-0.3c-0.49,0.15-1.07,0.13-1.75-0.05l1.29-4.95c-5.83-0.07-9.82-1.09-14.54-4.11 c-1.55-0.99-2.02-2.12-3.57-2.01c-1.17,0.23-2.16,0.75-2.94,1.59c-0.75,0.8-1.32,1.91-1.68,3.32l0.94,5.85 C31.7,49.8,31.17,49.78,30.73,49.64L30.73,49.64L30.73,49.64z M56.07,48.33c0.67,0.2,1.15,0.59,1.44,1.18 c0.48,0.96,0.28,2.39-0.61,4.43l0,0c-0.02,0.04-0.04,0.07-0.05,0.11l-3.23,5.31c-1.25,2.06-2.51,4.12-4.22,5.71 c-1.76,1.65-3.95,2.76-6.93,2.75c-2.78-0.01-4.88-1.07-6.59-2.64c-1.65-1.51-2.91-3.45-4.11-5.35l-2.83-4.5 c-1.05-1.56-1.59-3-1.63-4.18c-0.02-0.57,0.08-1.08,0.29-1.54c0.22-0.48,0.56-0.88,1.02-1.19c0.22-0.15,0.48-0.27,0.75-0.38 c-0.17-2.42-0.24-5.43-0.12-7.96c0.06-0.61,0.17-1.23,0.35-1.84c0.72-2.59,2.54-4.66,4.78-6.1c0.8-0.5,1.65-0.92,2.58-1.25 c5.44-1.97,12.65-0.9,16.51,3.28c1.57,1.7,2.56,3.96,2.77,6.94L56.07,48.33L56.07,48.33L56.07,48.33z"/></g></svg>