<svg id="Layer_1" data-name="Layer 1" xmlns="http://www.w3.org/2000/svg" viewBox="0 0 122.88 122.89"><title>december-month</title><path d="M81.61,4.73C81.61,2.12,84.19,0,87.38,0s5.77,2.12,5.77,4.73V25.45c0,2.61-2.58,4.73-5.77,4.73s-5.77-2.12-5.77-4.73V4.73ZM25.35,96V67.88H37.94q7.61,0,10.44,3.24t2.83,10.81q0,7.59-2.83,10.82T37.94,96ZM38.08,75.08H34.35V88.79h3.73a6.25,6.25,0,0,0,2.67-.42c.56-.29.83-.94.83-2v-9c0-1-.27-1.67-.83-2a6.25,6.25,0,0,0-2.67-.42Zm34.5,10.3h-9V89h11V96h-20V67.88H74.38l-1.12,7H63.59v4h9v6.53Zm24.51,2.56.68,7.55a18.74,18.74,0,0,1-7.11,1.17,21.38,21.38,0,0,1-6.86-.9,8.44,8.44,0,0,1-4.07-2.83,11.51,11.51,0,0,1-2.06-4.54A29.9,29.9,0,0,1,77.08,82a30.33,30.33,0,0,1,.59-6.46,11.47,11.47,0,0,1,2.06-4.56q2.88-3.73,10.57-3.73a29.18,29.18,0,0,1,4,.33,14.38,14.38,0,0,1,3.44.84l-1.35,6.88a25.63,25.63,0,0,0-5.35-.63,8.75,8.75,0,0,0-3.38.45,1.8,1.8,0,0,0-.94,1.8V88.66A17.6,17.6,0,0,0,90.3,89a19.78,19.78,0,0,0,6.79-1.08ZM29.61,4.73C29.61,2.12,32.19,0,35.38,0s5.77,2.12,5.77,4.73V25.45c0,2.61-2.58,4.73-5.77,4.73s-5.77-2.12-5.77-4.73V4.73ZM6.4,38.76H116.47V21.47a3,3,0,0,0-.86-2.07,2.92,2.92,0,0,0-2.07-.86H103a3.2,3.2,0,0,1,0-6.4h10.55a9.36,9.36,0,0,1,9.33,9.33v92.09a9.36,9.36,0,0,1-9.33,9.33H9.33A9.36,9.36,0,0,1,0,113.55V21.47a9.36,9.36,0,0,1,9.33-9.33H20.6a3.2,3.2,0,1,1,0,6.4H9.33a3,3,0,0,0-2.07.86,2.92,2.92,0,0,0-.86,2.07V38.76Zm110.08,6.41H6.4v68.38a3,3,0,0,0,.86,2.07,2.92,2.92,0,0,0,2.07.86H113.55a3,3,0,0,0,2.07-.86,2.92,2.92,0,0,0,.86-2.07V45.17ZM50.43,18.54a3.2,3.2,0,0,1,0-6.4H71.92a3.2,3.2,0,1,1,0,6.4Z"/></svg>