<?xml version="1.0" encoding="utf-8"?><svg version="1.1" id="Layer_1" xmlns="http://www.w3.org/2000/svg" xmlns:xlink="http://www.w3.org/1999/xlink" x="0px" y="0px" viewBox="0 0 122.6 122.88" style="enable-background:new 0 0 122.6 122.88" xml:space="preserve"><style type="text/css">.st0{fill-rule:evenodd;clip-rule:evenodd;}</style><g><path class="st0" d="M63.14,91.34l-1.28-5.65l7.92-1.81l-2.7,28.34l0.83,1.66l-0.55,0.07l1.24,3.87h-2.21l-1.45,2.77h-7.19 l0.55-1.66c0.95-2.52,1.64-3.1,3.32-5.18c-0.47-1.77,0.26-4.35,1.41-7.21c1.57-3.93,1.5-5.06,1.06-8.99 C63.83,95.25,63.55,93.23,63.14,91.34L63.14,91.34z M4.59,57.51l2.07,0.62c0.7,1.85,2.19,2.3,4.49,1.98 c0.58-0.08,1.22-0.21,1.91-0.38c1.71-0.22,8.12-1.38,9.4-0.89c0.66,0.25,1.32,0.73,2,1.49l2.39,4.45c0.8,1.13,1.71,2.11,2.78,2.82 c2.02,1.35,4.3,1.7,6.94,3.56c1.54,1.08,3.14,2.38,4.78,3.87c2.46,5.31,6.26,5.05,7.93,9.35c1.83,4.7,0.62,10.89-0.14,15.77 c-0.77,4.97-1.75,9.11-2.8,12.97l-0.22,1.06l-1.7,2.18l-0.09,0.87l-2.35,1.18l-2.18,4.27h7.06l3.09-2.53h1.96l-1.26-2.4v-0.57 l0.22-0.39v-1.05l-0.29-0.08l-0.15-2.31l0.35-0.74l3.88-14.08l1.83-8.5l1.53-4.4c0.33-0.72,0.8-1.32,1.45-1.77 c1.51-1.06,7.76-2.05,9.84-2.5c5.9-0.37,11.88-0.62,17.97-0.73c2.97-0.05,2.83-0.35,5.01,1.87c1.23,1.25,2.48,2.82,3.75,4.67 c1.16,1.61,2.17,3.36,3.21,5.39c3.32,6.48,1.02,14.41-2.2,21.01c-0.57,1.18-0.67,1.12-0.73,2.44l-0.04,0.83 c-0.91,0.34-1.9,0.82-2.78,1.39c-1.29,0.83-1.67,1.19-2.25,2.62c-0.27,0.66-0.48,1.35-0.63,2.04h7.13l3.09-2.52h2.15l-1.14-2.23 v-0.65l0.33-0.12l-0.04-1.22l-0.48-0.25l-0.01-1.37l0.89-2.48l2.11-6.58l1.5-6.95c0.24-1.05,0.33-1.95,0.3-2.75 c-0.03-1.09-0.28-1.98-0.63-2.78c-0.81-1.69-1.38-3.55-1.52-5.7c-0.1-1.51-0.14-1.29,0.86-2.34c2.02-1.3,3.71-2.97,5.23-4.83 c2.15-2.65,4.02-5.81,5.18-9.02c0.6-1.65,1.12-3.37,1.3-5.29c0.52,0.32,0.87,0.87,0.85,1.87c-0.55,3.03-0.31,5.2,0.85,6.38 c0.51,0.73,1.08,1.33,1.72,1.81c0.67,0.51,1.42,0.89,2.22,1.15c0.46-2.33-1.61-2.79-1.29-6.27c0.37-4.02,0.4-7-0.22-9.09 c-0.73-3.53-3.07-5.54-6.58-6.42c-5.68-8.67-16.23-8.96-28.65-4.89c-8.84,2.9-18.06-3.21-27.48-3.47 c-14.61-0.39-13.49,8.41-21.19,2.75l-5.12-3.21l1.06-4.14l2.44-2.44c-0.92-0.66-1.83-0.97-2.73-1c-2.77-0.11-3.12,1.47-4.96,2.26 c-0.66,0.28-1.34,0.37-2.06,0.28c0.31-0.58,0.65-1.13,1.1-1.56c1.91-1.86,7.11-5.23,11.24-8c3.21-2.15,7.59-4.86,10.21-7.5 c1.39-1.4,2.81-3.5,3.33-5.44c0.44-1.65,0.45-3.82,0.58-5.86L53.83,12c5.32-0.17,10-3.58,11.39-8.58c0.68-2.45,0.44-1.92-0.95-0.63 c-1,0.93-2.02,1.76-3.08,2.42c-0.98,0.64-0.95-1.58-0.79-3.34c0.11-1.26,0.7-2.9-0.9-1.05c-1.31,1.51-1.19,3.77-1.73,5.46 c-0.84,2.6-2.03,1.35-2.44-0.2c-0.35-1.34-0.48-3.02-1.12-3.87c-0.6-0.78-1.39-1.45-1.49-0.06c-0.13,1.82,1.58,6.54,0.07,7.8 c-1.17,0.97-4-0.23-5.13,1.08c-0.39,0.45-0.35,1.15,0.25,2.15c0.6,1.71,1.72,3.92,1.05,5.69c-0.54,1.43-5.3,5.15-6.62,6.15 c-2.17,1.65-4.49,3.17-6.89,4.62c-0.46,0.27-0.8,0.36-1.01,0.23c-0.17-0.11-0.24-0.4-0.17-0.88l0.31-2.13 c0.28-1.93,0.4-2.75,0.26-4.7c-0.86-1.53-0.74-2.48-0.33-3.54c0.38-0.97,1.87-1.62,3.16-1.99c3.74-1.06,4.56-3.62,2.35-2.91 c-1.79,0.58-2.19,1.7-5.27,1.44c-0.89-0.07-1.63-0.45-2.23-1.01c-0.98-0.71-2.23-2.25-2.65-0.79c-0.1,0.34-0.1,0.7-0.03,1.07 c0.67,0.58,1.91,1.21,1.99,2.14c-0.45,0.09-0.92,0.07-1.4-0.01c-0.94-0.16-1.93-0.58-2.91-1l-4.87-2.67 c-1.36-0.75-1.14-0.31-0.43,0.99c0.76,1.39,2.05,2.17,3.28,3.11l3.97,3.04c0.74,0.64,1.34,1.33,1.66,2.13 c1.1,2.74,0.73,6.58,0.07,9.31c-0.49,2.02-1.03,2.58-1.79,2.21c-1.8-0.88-5.04-1.44-8.75-2.48c-1.57-0.44-3.93-1.91-5.14-2.73 c-1.34-0.9-0.61,1.04,0.29,1.65l2.09,1.41c-0.42,0.15-0.81,0.12-1.13,0.2c-0.93,0.25-6.58-3.6-7-3.65 c2.12,7.3,15.28,5.04,16.85,7.58c0.24,0.39,0.22,0.76-0.19,1.15l-4.83,3.21c-0.53,0.19-1.11,0.4-1.73,0.31 c-2.6-0.38-9.93-2.49-12.82-2.75c0.41,0.59,0.91,1.15,1.59,1.62c0.65,0.45,2.65,1.04,2.44,1.89c-0.26,1.06-4.17,0.68-5,0.56 c-2.12-0.3-4.11-0.97-6.06-1.75c0.39,0.84,0.97,1.61,1.97,2.22c1.51,0.92,4.4,1.49,6.16,1.58c5.43,0.27,5.1-2.55,8.52-1.99 c0.91,0.15,1.85,0.49,2.52,1.04l-7.23,7.35l-8,4.47C3.49,55.69,3.75,56.66,4.59,57.51L4.59,57.51z M107.42,86.96l5.93-6.11 c1.23,5.5,3.03,8.78,5.04,11.28c1.49,5.88,0.39,13.06-0.42,20.08l0.28,1.73l0.68,1.26l-0.8-0.01l1.09,2.55l-1.99,0.09l-0.76,2.58 h-7.11l0.55-1.66c0.95-2.52,1.92-3.6,3.6-5.69c-0.24-0.91-0.13-1.36,0.17-2.63c0.96-3.99,1.15-10.31-0.46-14.14 C111.79,92.89,109.48,89.7,107.42,86.96L107.42,86.96z"/></g></svg>