<svg id="Layer_1" data-name="Layer 1" xmlns="http://www.w3.org/2000/svg" viewBox="0 0 84 122.88"><defs><style>.cls-1{fill:#42a5f5;fill-rule:evenodd;}.cls-2{fill:#ff4141;}</style></defs><path class="cls-1" d="M71.94,91a34.65,34.65,0,0,1-5.6,7.17,32.22,32.22,0,0,1-23.42,9.68,32.17,32.17,0,0,1-23.38-9.68,32.75,32.75,0,0,1-7.48-11C37.59,97,64.42,72.76,71.94,91Zm-27-88.59C50,23.94,55.79,31.3,63.92,41.59h0A213.69,213.69,0,0,1,76.64,59.07c5.61,8.66,8.06,18,7.19,27C83,94.88,79,103.37,71.62,110.63A42.48,42.48,0,0,1,58,119.79a41.38,41.38,0,0,1-16,3.09,41.21,41.21,0,0,1-16-3.09,42.31,42.31,0,0,1-13.58-9.16C5,103.34,1,94.85.17,86-.69,77,1.8,67.64,7.45,58.94c3.18-4.9,6.1-8.9,8.8-12.41q1.42,2.51,2.66,5.21c-1,2.74-2.49,4.42-4.19,7.25-.7,1-1.43,2.13-2.17,3.27-4.88,7.53-7,15.52-6.32,23.18.7,7.42,4.13,14.61,10.45,20.85a36.26,36.26,0,0,0,11.65,7.87A35.22,35.22,0,0,0,42,116.77a35.38,35.38,0,0,0,13.7-2.61,36.48,36.48,0,0,0,11.65-7.87c6.28-6.21,9.71-13.39,10.43-20.81.74-7.64-1.39-15.61-6.23-23.1h0a208.69,208.69,0,0,0-12.41-17h0c-7.07-9-12.48-15.83-17.15-30.6A83.66,83.66,0,0,1,36.2,29c-1.24-2-2.57-3.92-4-5.77A104.22,104.22,0,0,0,39,2.37a3,3,0,0,1,5.94,0Z"/><path class="cls-2" d="M35.4,73.88a3.06,3.06,0,0,0,4.22-1L47,61a3.07,3.07,0,1,0-5.21-3.23l-2.9,4.69a81.83,81.83,0,0,0-10.2-26.31C22.8,26,14.19,17.54,5.11,13.23a3.06,3.06,0,1,0-2.62,5.54c8,3.8,15.68,11.34,21.56,21a75.45,75.45,0,0,1,9.19,23.12l-3.38-3.44a3.07,3.07,0,0,0-4.39,4.29l9.93,10.1Z"/></svg>