<svg xmlns="http://www.w3.org/2000/svg" shape-rendering="geometricPrecision" text-rendering="geometricPrecision" image-rendering="optimizeQuality" fill-rule="evenodd" clip-rule="evenodd" viewBox="0 0 512 435.14"><path d="M404.1 0c29.79 0 56.77 12.08 76.3 31.61 19.52 19.52 31.6 46.5 31.6 76.29 0 29.79-12.08 56.77-31.6 76.29-19.53 19.53-46.51 31.61-76.3 31.61s-56.77-12.08-76.29-31.61c-19.53-19.52-31.61-46.5-31.61-76.29 0-29.79 12.08-56.77 31.61-76.29C347.33 12.08 374.31 0 404.1 0zM15.26 45.36C7.04 45.36 0 38.32 0 29.71c0-8.22 7.04-15.26 15.26-15.26h22.7c14.08.39 26.61 3.13 37.17 9.78 20.48 12.97 24.12 31.51 29.35 52.44h173.44c-2.41 9.79-3.72 20.02-3.77 30.54h-70.29v-.02h-90.77l34.83 131.1h246.94l.19-.74c2.99.2 6.01.31 9.05.31 7.76 0 15.35-.68 22.73-1.99l-5.36 21.6c-1.57 7.04-7.83 11.74-14.87 11.74H156.14c5.48 20.35 10.96 31.31 18.39 36.4 9 5.87 24.66 6.26 50.88 5.87h177.28c8.6 0 15.26 7.04 15.26 15.26 0 8.61-7.05 15.26-15.26 15.26H225.8c-32.48.39-52.44-.39-68.49-10.96-16.43-10.95-25.04-29.74-33.65-63.79L71.22 68.84c0-.39 0-.39-.39-.78-2.35-8.61-6.26-14.48-11.74-17.61-5.48-3.52-12.92-5.09-21.52-5.09H15.26zm238.37 94.09c0-4.82 4.77-8.73 10.65-8.73 5.88 0 10.64 3.91 10.64 8.73v59.03c0 4.82-4.76 8.73-10.64 8.73-5.88 0-10.65-3.91-10.65-8.73v-59.03zm-63.75 0c0-4.82 4.77-8.73 10.65-8.73 5.88 0 10.65 3.91 10.65 8.73v59.03c0 4.82-4.77 8.73-10.65 8.73-5.88 0-10.65-3.91-10.65-8.73v-59.03zM356.9 360c20.74 0 37.57 16.83 37.57 37.57 0 20.74-16.83 37.57-37.57 37.57-20.74 0-37.57-16.83-37.57-37.57 0-20.74 16.83-37.57 37.57-37.57zm-164.76 0c20.75 0 37.57 16.83 37.57 37.57 0 20.74-16.82 37.57-37.57 37.57-20.74 0-37.56-16.83-37.56-37.57 0-20.74 16.82-37.57 37.56-37.57zM435.93 61.91l14.17 14.17c3.34 3.34 3.34 8.87 0 12.21l-19.61 19.61 19.61 19.61c3.35 3.34 3.35 8.86 0 12.21l-14.17 14.17c-3.34 3.34-8.85 3.36-12.21 0l-19.61-19.61-19.61 19.61c-3.34 3.34-8.86 3.36-12.21 0l-14.17-14.17c-3.36-3.36-3.36-8.85-.01-12.21l19.62-19.61-19.61-19.61c-3.36-3.36-3.36-8.85 0-12.21l14.17-14.17c3.36-3.36 8.87-3.35 12.22 0l19.6 19.61 19.61-19.62c3.36-3.35 8.89-3.32 12.21.01z"/></svg>