<svg id="Layer_1" data-name="Layer 1" xmlns="http://www.w3.org/2000/svg" viewBox="0 0 122.88 122.51"><defs><style>.cls-1{fill:#1283c6;}.cls-2{fill:#fff;}</style></defs><title>dell</title><path class="cls-1" d="M122.88,63.1V59.41c-1-18.71-8.22-31.6-18-41.47S82,1,63.34,0h-3.8C41.13,1,27.73,8.14,18,17.88S1,40.76,0,59.41V63.1c1,18.7,8.22,31.6,18,41.47s22.91,16.9,41.54,17.94h3.74c18.9-.93,31.42-8.24,41.6-17.88a61.6,61.6,0,0,0,18-41.53Z"/><path class="cls-2" d="M47.49,8.79A54.74,54.74,0,0,0,15.91,31.52,52.22,52.22,0,0,0,7.07,63.28,53.32,53.32,0,0,0,12.48,85a54,54,0,0,0,28,26.3,52.37,52.37,0,0,0,22.92,4.12,54.07,54.07,0,0,0,21.81-5.35c11.88-6,21.23-15.18,26.42-27.89a52.13,52.13,0,0,0,4.18-22.77c-.8-17-7.76-28.61-16.89-37.41A52.84,52.84,0,0,0,82.53,11.28,54.42,54.42,0,0,0,59.48,7.16a56.51,56.51,0,0,0-12,1.72V8.79Z"/><path class="cls-1" d="M91.28,46.87h9.31V64.32h8.11v8.27H91.32V47.14l0-.27ZM55.79,45.34l5.77,3.93L49.21,57.2c.62.47,1.35.87,2.07,1.34l12.48-7.92,5.41,3.62-12.29,8a20,20,0,0,0,2,1.29l12.59-8V46.87h9.31V64.25l8.28.07v8.27H71.7V64.3L56.23,74.19,40.37,63.56a12.19,12.19,0,0,1-11.31,9c-3.79.27-8.1-.2-12.46,0V47c5.46.37,11.46-.72,15.79.63a11.9,11.9,0,0,1,7.8,8L56.1,45.44l-.31-.1ZM25.06,55.11v9.31c2.19,0,3.87.13,5.17-.86a5.37,5.37,0,0,0,.61-7.13c-1-1.3-3.05-1.58-5.71-1.42l-.07.1Z"/></svg>