<?xml version="1.0" encoding="utf-8"?><svg version="1.1" id="Layer_1" xmlns="http://www.w3.org/2000/svg" xmlns:xlink="http://www.w3.org/1999/xlink" x="0px" y="0px" viewBox="0 0 122.88 123.02" style="enable-background:new 0 0 122.88 123.02" xml:space="preserve"><g><path d="M59.22,11.18c-0.5,0.01-0.95-0.19-1.28-0.51c-0.33-0.32-0.54-0.77-0.54-1.27c-0.01-0.5,0.19-0.95,0.51-1.28 c0.32-0.33,0.77-0.54,1.27-0.54c0.75-0.01,1.51-0.01,2.26-0.02c1.18,0,2.39,0.02,3.64,0.05c1.24,0.03,2.47,0.07,3.71,0.13 c1.22,0.06,2.43,0.13,3.62,0.21c1.19,0.09,2.39,0.19,3.59,0.3c0.5,0.05,0.93,0.29,1.22,0.65c0.29,0.36,0.45,0.82,0.41,1.32 c-0.05,0.5-0.29,0.93-0.65,1.22c-0.36,0.29-0.82,0.45-1.32,0.41c-1.13-0.11-2.3-0.21-3.49-0.29c-1.18-0.08-2.36-0.15-3.55-0.21 c-1.16-0.05-2.33-0.1-3.53-0.12c-1.16-0.03-2.38-0.04-3.64-0.04l-1.11,0L59.22,11.18L59.22,11.18z M76.6,94.07 c0.05-0.5,0.3-0.93,0.66-1.22c0.36-0.29,0.83-0.45,1.33-0.4c0.5,0.05,0.93,0.3,1.22,0.66c0.29,0.36,0.45,0.83,0.4,1.33 c-0.06,0.56-0.11,1.12-0.15,1.69c-0.03,0.4-0.06,0.79-0.08,1.17c7.44-4.68,12.53-10.29,15.65-16.3c3.54-6.82,4.54-14.15,3.56-21.21 c-0.17-1.21-0.4-2.42-0.68-3.61c-0.27-1.13-0.58-2.25-0.94-3.35c-5.1,1.48-10.82,2.65-16.97,3.45c-6.03,0.78-12.47,1.21-19.15,1.21 c-6.48,0-12.74-0.4-18.61-1.14c-6-0.76-11.6-1.87-16.63-3.27c-0.28,0.54-0.52,1.09-0.74,1.66c-0.24,0.64-0.44,1.3-0.6,1.99 c-0.2,0.81-0.35,1.66-0.45,2.54c-0.11,0.88-0.18,1.79-0.21,2.71c-0.03,0.81-0.03,1.49-0.02,2.07c0.01,0.58,0.03,1.07,0.05,1.51 c0.05,1.34,0.09,2.18-0.18,3.28c-0.26,1.09-0.82,2.41-1.94,4.71l-3.86,7.88c-0.02,0.04-0.04,0.09-0.06,0.13 c-0.03,0.05-0.05,0.09-0.08,0.13l-0.01,0.01c-0.28,0.43-0.49,0.85-0.63,1.23c-0.15,0.41-0.22,0.78-0.23,1.12 c0,0.17,0.01,0.33,0.04,0.48c0.03,0.15,0.07,0.28,0.13,0.39c0.05,0.1,0.11,0.19,0.18,0.27l0.01,0.01c0.06,0.07,0.14,0.13,0.22,0.19 c0.1,0.07,0.22,0.12,0.34,0.16c0.13,0.04,0.27,0.06,0.42,0.07c1.43,0,3.08,0.18,4.54,0.26c0.07-0.02,0.14-0.04,0.21-0.05 c0.08-0.01,0.17-0.02,0.27-0.02l0.13,0c0.02,0,0.04,0,0.06,0l4.1,0.35c0.5,0.04,0.93,0.28,1.23,0.63c0.3,0.35,0.46,0.82,0.42,1.32 c-0.04,0.5-0.28,0.93-0.63,1.23c-0.35,0.3-0.82,0.46-1.32,0.42c-0.7-0.06-1.42-0.09-2.12-0.13l0,0.05 c0.01,0.86,0.02,1.72,0.04,2.58c0.02,0.76,0.05,1.51,0.09,2.28c0.46-0.08,0.91-0.13,1.37-0.16c0.55-0.03,1.09-0.03,1.62,0.02 c0.86,0.07,1.71,0.25,2.53,0.53c0.83,0.28,1.63,0.67,2.42,1.18l0.01,0c0.42,0.27,0.69,0.68,0.79,1.13c0.1,0.45,0.02,0.94-0.25,1.36 l0,0c-0.27,0.42-0.68,0.69-1.13,0.79c-0.45,0.1-0.94,0.02-1.36-0.25c-0.53-0.34-1.06-0.6-1.61-0.79c-0.55-0.19-1.11-0.3-1.68-0.35 c-0.43-0.04-0.86-0.03-1.3,0c-0.37,0.03-0.75,0.09-1.14,0.17c0.02,0.32,0.05,0.63,0.08,0.93c0.04,0.38,0.08,0.77,0.13,1.14 c0.07,0.55,0.16,1.11,0.26,1.69c0.1,0.57,0.22,1.15,0.35,1.74c0.05,0.23,0.05,0.47,0.02,0.69c-0.04,0.23-0.12,0.45-0.24,0.64 c-0.42,0.85-0.74,1.63-0.96,2.34c-0.23,0.73-0.36,1.4-0.4,1.99c-0.04,0.59,0.02,1.11,0.16,1.55c0.15,0.45,0.38,0.84,0.69,1.16 c0.34,0.35,0.78,0.64,1.31,0.88c0.56,0.25,1.21,0.45,1.94,0.58c1.14,0.21,2.43,0.29,3.84,0.24c1.47-0.05,3.07-0.23,4.73-0.53 c1.64-0.29,3.38-0.68,5.13-1.16c1.59-0.44,3.18-0.95,4.71-1.55c1.35-0.52,2.66-1.11,3.86-1.77c1.11-0.6,2.12-1.25,3-1.95 c0.88-0.7,1.52-1.63,2.03-2.63c0.52-1.02,0.9-2.11,1.26-3.12l0.36-1.01l0.21-0.58c0.45-1.23,1.06-2.91,1.81-4.49 c0.77-1.6,1.68-3.09,2.73-3.89c0.39-0.3,0.88-0.42,1.33-0.36c0.46,0.06,0.9,0.29,1.2,0.69c0.3,0.39,0.42,0.88,0.36,1.33 c-0.06,0.46-0.29,0.9-0.69,1.2c-0.61,0.47-1.26,1.62-1.84,2.91c-0.6,1.32-1.13,2.78-1.52,3.85l-0.41,1.13l-0.14,0.4 c-0.43,1.22-0.9,2.55-1.57,3.83c-0.68,1.29-1.58,2.53-2.87,3.56c-1.03,0.82-2.19,1.57-3.45,2.26c-1.36,0.74-2.83,1.41-4.35,2 c-0.33,0.13-0.66,0.25-0.99,0.37c-0.28,0.1-0.56,0.2-0.85,0.3c0.01,0.45,0.01,0.9-0.01,1.35c-0.02,0.51-0.05,1.03-0.1,1.54 c-0.07,0.72-0.17,1.43-0.3,2.13c-0.13,0.71-0.29,1.41-0.47,2.09c-0.13,0.48-0.44,0.87-0.84,1.1c-0.4,0.23-0.89,0.31-1.37,0.18 c-0.48-0.13-0.87-0.44-1.1-0.84c-0.23-0.4-0.31-0.89-0.18-1.37c0.16-0.61,0.3-1.22,0.41-1.82c0.11-0.61,0.2-1.21,0.26-1.81 c0.03-0.29,0.05-0.59,0.07-0.89c0.01-0.19,0.02-0.38,0.02-0.56c-0.79,0.21-1.57,0.4-2.34,0.58c-0.92,0.21-1.82,0.39-2.7,0.55 c-1.87,0.34-3.68,0.54-5.37,0.59c-1.63,0.05-3.15-0.05-4.5-0.3c-1.08-0.2-2.07-0.51-2.95-0.93c-0.85-0.41-1.6-0.92-2.21-1.55 c-0.68-0.7-1.2-1.51-1.52-2.44c-0.31-0.89-0.44-1.9-0.37-3.03c0.05-0.79,0.2-1.63,0.47-2.54c0.25-0.86,0.6-1.77,1.05-2.73 c-0.1-0.49-0.19-0.99-0.28-1.49c-0.09-0.53-0.17-1.07-0.24-1.64c-0.08-0.63-0.15-1.26-0.2-1.88c-0.05-0.62-0.09-1.25-0.12-1.9 c0-0.08-0.02-0.16-0.03-0.24c-0.11-1.18-0.17-2.35-0.21-3.5c-0.04-1.15-0.05-2.31-0.07-3.47l0-0.3c-1.13-0.07-2.28-0.11-3.41-0.2 c-0.48-0.02-0.94-0.1-1.36-0.23c-0.44-0.14-0.86-0.33-1.23-0.57c-0.36-0.23-0.68-0.51-0.97-0.83c-0.28-0.32-0.52-0.67-0.71-1.06 c-0.19-0.38-0.33-0.78-0.42-1.21l0-0.01c-0.09-0.42-0.13-0.86-0.12-1.32c0.01-0.66,0.13-1.37,0.38-2.09 c0.23-0.68,0.56-1.38,1.01-2.08l3.83-7.84c0.93-1.91,1.39-2.98,1.61-3.83c0.21-0.83,0.19-1.44,0.15-2.43l0-0.01 c-0.04-0.91-0.08-2.08-0.03-3.83c0.03-1.05,0.11-2.08,0.23-3.07c0.12-1,0.3-1.97,0.52-2.92c0.16-0.67,0.35-1.32,0.57-1.95 c0.19-0.55,0.4-1.09,0.64-1.61l-4.57-2c-5.65-2.26-10.19-4.99-13.3-8.05C1.66,39.3,0,36.01,0,32.52c0-2.23,0.67-4.37,1.93-6.4 c1.29-2.08,3.2-4.03,5.65-5.84c2.35-1.74,5.22-3.34,8.53-4.79c3.31-1.45,7.06-2.74,11.16-3.83c0.48-0.13,0.97-0.05,1.37,0.19 l0.01,0.01c0.39,0.23,0.7,0.62,0.82,1.09c0.13,0.48,0.05,0.97-0.19,1.37c-0.23,0.4-0.62,0.71-1.1,0.84 c-3.89,1.04-7.42,2.25-10.53,3.6c-3.09,1.35-5.77,2.84-7.94,4.44c-1.99,1.46-3.53,3.01-4.57,4.6c-1,1.53-1.53,3.11-1.53,4.72 c0,2.35,1.12,4.64,3.17,6.8c2.12,2.23,5.23,4.31,9.13,6.17c7.74-10.25,15.93-17.02,24.06-21.01c9.26-4.54,18.46-5.47,26.85-3.82 c4.59,0.91,8.94,2.59,12.92,4.89c4.15,2.39,7.9,5.44,11.13,8.97c1.89,2.07,3.6,4.31,5.11,6.67c1.46,2.29,2.72,4.69,3.75,7.18 c0.53-0.18,1.04-0.35,1.53-0.53c0.57-0.2,1.13-0.41,1.68-0.63c5.16-2,9.3-4.35,12.13-6.91c2.69-2.44,4.17-5.07,4.17-7.78 c0-1.11-0.25-2.2-0.73-3.27c-0.5-1.11-1.24-2.2-2.21-3.26c-1.06-1.16-2.38-2.28-3.93-3.35c-1.57-1.08-3.38-2.11-5.4-3.08 c-0.02-0.01-0.03-0.01-0.04-0.02c-0.44-0.22-0.75-0.59-0.9-1.02c-0.15-0.43-0.14-0.91,0.06-1.36c0.01-0.02,0.01-0.03,0.02-0.05 c0.22-0.44,0.59-0.75,1.02-0.9c0.44-0.15,0.93-0.14,1.38,0.07c2.24,1.07,4.26,2.22,6.02,3.44c1.75,1.21,3.24,2.49,4.46,3.82 c1.27,1.39,2.25,2.85,2.91,4.36c0.65,1.49,0.98,3.02,0.98,4.6c0,3.56-1.73,6.91-4.85,9.93c-3.22,3.11-7.93,5.87-13.77,8.14 c-0.55,0.22-1.12,0.43-1.71,0.64c-0.5,0.18-1.02,0.36-1.54,0.53c0.39,1.2,0.74,2.41,1.02,3.64c0.3,1.29,0.55,2.59,0.73,3.91 c1.1,7.95-0.06,16.2-4.14,23.82c-3.65,6.81-9.62,13.11-18.39,18.25c-0.09,0.05-0.19,0.1-0.28,0.13l-0.09,0.03 c0.01,1.06,0.05,2.1,0.11,3.14c0.07,1.09,0.17,2.17,0.3,3.24c0.26,2.11,0.63,4.14,1.12,6.12c0.48,1.97,1.08,3.89,1.78,5.74 c0.18,0.47,0.15,0.96-0.04,1.38c-0.19,0.42-0.54,0.77-1.01,0.95c-0.47,0.18-0.96,0.15-1.38-0.04c-0.42-0.19-0.77-0.54-0.95-1.01 c-0.75-1.99-1.39-4.04-1.91-6.16c-0.52-2.12-0.92-4.29-1.2-6.53c-0.27-2.23-0.42-4.53-0.43-6.92C76.22,99.05,76.34,96.6,76.6,94.07 L76.6,94.07z M71.47,75.43c0.09,0.49-0.03,0.97-0.29,1.35c-0.26,0.38-0.67,0.66-1.16,0.75c-0.49,0.09-0.97-0.03-1.35-0.29 c-0.38-0.26-0.66-0.67-0.75-1.16c-0.09-0.51-0.13-1-0.11-1.48c0.02-0.5,0.1-0.98,0.23-1.43c0.18-0.62,0.44-1.2,0.78-1.72 c0.35-0.54,0.79-1.03,1.28-1.45c0.47-0.4,1-0.74,1.56-1c0.56-0.26,1.16-0.46,1.78-0.57c0.53-0.1,1.07-0.14,1.62-0.11 c0.53,0.02,1.07,0.11,1.59,0.26c1.45,0.41,2.49,0.99,3.2,1.7c0.72,0.73,1.11,1.59,1.25,2.56c0.12,0.83,0.02,1.69-0.22,2.57 c-0.24,0.87-0.61,1.75-1.04,2.66c-0.37,0.78-1.27,2.67-2.43,4.81c-1.16,2.15-2.59,4.56-4.01,6.39c-2.07,2.68-4.14,4.5-5.81,4.23 c-1.68-0.27-2.9-2.63-3.21-8.29c-0.03-0.5,0.15-0.96,0.46-1.3l0.02-0.02c0.31-0.33,0.74-0.55,1.24-0.58 c0.5-0.03,0.96,0.15,1.3,0.46c0.34,0.31,0.57,0.75,0.59,1.25c0.12,2.11,0.46,3.04,0.91,3.22c0.42,0.16,1.01-0.36,1.64-1.18 c1.3-1.67,2.63-3.93,3.72-5.96c1.1-2.03,1.96-3.83,2.31-4.57c0.31-0.65,0.58-1.26,0.75-1.82c0.17-0.53,0.25-1,0.2-1.37 c-0.03-0.23-0.16-0.44-0.43-0.65c-0.3-0.23-0.75-0.44-1.41-0.62c-0.26-0.07-0.52-0.12-0.78-0.13c-0.27-0.01-0.54,0.01-0.8,0.05 l-0.01,0c-0.31,0.06-0.6,0.15-0.88,0.28c-0.28,0.13-0.54,0.3-0.77,0.5c-0.22,0.19-0.42,0.41-0.57,0.64 c-0.15,0.23-0.27,0.48-0.34,0.74c-0.06,0.2-0.09,0.41-0.1,0.62C71.42,74.98,71.43,75.2,71.47,75.43L71.47,75.43z M33.44,71.94 c0.07-0.16,0.15-0.31,0.24-0.44c-0.46-0.09-0.91-0.19-1.36-0.31c-0.59-0.16-1.18-0.34-1.76-0.54l0,0 c-0.39-0.13-0.68-0.41-0.85-0.75c-0.17-0.34-0.2-0.74-0.07-1.13l0-0.01c0.13-0.39,0.41-0.68,0.75-0.85s0.75-0.2,1.13-0.07 c0.79,0.27,1.58,0.51,2.35,0.68c0.77,0.17,1.54,0.28,2.31,0.31c0.74,0.03,1.47-0.02,2.22-0.17c0.74-0.15,1.48-0.39,2.23-0.76 c0.37-0.18,0.77-0.19,1.13-0.07c0.36,0.12,0.67,0.38,0.85,0.75c0.18,0.37,0.19,0.77,0.07,1.13c-0.12,0.36-0.38,0.67-0.75,0.85 c-0.76,0.37-1.52,0.65-2.28,0.84c-0.61,0.16-1.22,0.26-1.83,0.32c0.06,0.11,0.11,0.22,0.15,0.34c0.09,0.25,0.14,0.53,0.14,0.81 c0,0.67-0.27,1.28-0.71,1.72l0,0c-0.44,0.44-1.05,0.71-1.72,0.71c-0.67,0-1.28-0.27-1.72-0.71c-0.44-0.44-0.71-1.05-0.71-1.72 C33.25,72.55,33.32,72.24,33.44,71.94L33.44,71.94z M42.38,18.94h-0.3c-0.14,0-0.26-0.11-0.26-0.26c0-1.18-0.22-2.28-0.66-3.3 c-0.44-1.03-1.1-1.98-1.98-2.86l-0.01-0.01c-0.88-0.88-1.83-1.53-2.85-1.97c-1.03-0.44-2.13-0.66-3.31-0.66 c-0.14,0-0.26-0.11-0.26-0.26v-0.3c0-0.14,0.11-0.26,0.26-0.26c1.18,0,2.28-0.22,3.31-0.66c1.03-0.44,1.98-1.1,2.86-1.99 c0.88-0.88,1.54-1.84,1.98-2.87c0.44-1.03,0.66-2.12,0.66-3.3c0-0.14,0.11-0.26,0.26-0.26h0.3c0.14,0,0.26,0.11,0.26,0.26 c0,1.18,0.22,2.28,0.66,3.3c0.44,1.03,1.1,1.98,1.98,2.86c0.88,0.88,1.84,1.54,2.86,1.98c1.03,0.44,2.13,0.66,3.3,0.66 c0.14,0,0.26,0.11,0.26,0.26v0.3c0,0.14-0.11,0.26-0.26,0.26c-1.18,0-2.28,0.22-3.3,0.66c-1.03,0.44-1.98,1.1-2.86,1.98 c-0.88,0.88-1.54,1.84-1.98,2.86c-0.44,1.03-0.66,2.13-0.66,3.3C42.64,18.82,42.52,18.94,42.38,18.94L42.38,18.94z M92.36,21.1 h-0.3c-0.14,0-0.26-0.11-0.26-0.26c0-1.18-0.22-2.28-0.66-3.3c-0.44-1.03-1.1-1.98-1.98-2.86l-0.01-0.01 c-0.88-0.88-1.83-1.53-2.85-1.97c-1.03-0.44-2.13-0.66-3.3-0.66c-0.14,0-0.26-0.11-0.26-0.26v-0.3c0-0.14,0.11-0.26,0.26-0.26 c1.18,0,2.28-0.22,3.3-0.66c1.03-0.44,1.98-1.1,2.86-1.99c0.88-0.88,1.54-1.84,1.98-2.87c0.44-1.03,0.66-2.12,0.66-3.3 c0-0.14,0.11-0.26,0.26-0.26h0.3c0.14,0,0.26,0.11,0.26,0.26c0,1.18,0.22,2.28,0.66,3.3c0.44,1.03,1.1,1.98,1.98,2.86 c0.88,0.88,1.84,1.54,2.86,1.98c1.03,0.44,2.13,0.66,3.3,0.66c0.14,0,0.26,0.11,0.26,0.26v0.3c0,0.14-0.11,0.26-0.26,0.26 c-1.18,0-2.28,0.22-3.3,0.66c-1.03,0.44-1.98,1.1-2.86,1.98c-0.88,0.88-1.54,1.84-1.98,2.86c-0.44,1.03-0.66,2.13-0.66,3.3 C92.62,20.99,92.5,21.1,92.36,21.1L92.36,21.1z M96.28,49.45c-0.95-2.23-2.09-4.38-3.41-6.44c-1.37-2.14-2.93-4.17-4.65-6.05 c-2.97-3.25-6.42-6.06-10.23-8.25c-3.65-2.11-7.64-3.65-11.85-4.48c-7.64-1.51-16.04-0.64-24.54,3.52 c-7.48,3.66-15.04,9.86-22.26,19.24c0.19,0.08,0.39,0.16,0.59,0.23c5.39,2.09,11.85,3.78,19.03,4.93 c6.92,1.11,14.51,1.72,22.48,1.72c6.48,0,12.71-0.4,18.53-1.15C85.88,51.96,91.38,50.85,96.28,49.45L96.28,49.45z"/></g></svg>