<?xml version="1.0" encoding="utf-8"?><svg version="1.1" id="Layer_1" xmlns="http://www.w3.org/2000/svg" xmlns:xlink="http://www.w3.org/1999/xlink" x="0px" y="0px" viewBox="0 0 122.88 74.39" style="enable-background:new 0 0 122.88 74.39" xml:space="preserve"><style type="text/css">.st0{fill-rule:evenodd;clip-rule:evenodd;}</style><g><path class="st0" d="M89.62,15l-0.02,1.92c0.32-0.28,0.81-0.3,1.15-0.02c0.38,0.31,0.44,0.87,0.13,1.25l-1.06,1.31 c-0.07,0.09-0.16,0.16-0.25,0.22L89.44,34c0.2-0.08,0.39-0.17,0.56-0.27c0.38-0.23,0.74-0.56,1.06-0.98 c0.77-1.02,1.18-2.04,1.4-3.13c-0.07-0.05-0.13-0.1-0.18-0.17l-1.07-1.31c-0.31-0.39-0.25-0.95,0.13-1.26 c0.39-0.31,0.95-0.25,1.26,0.14l0.08,0.1c0.01-0.56,0-1.15,0-1.76l0-0.27c-0.16-0.05-0.3-0.15-0.41-0.29l-1.07-1.31 c-0.31-0.38-0.25-0.95,0.14-1.26c0.38-0.31,0.95-0.25,1.25,0.13l0.06,0.07v-0.81c0-2.42,1.97-4.39,4.39-4.39 c2.42,0,4.39,1.97,4.39,4.39v1.21c0.32-0.26,0.79-0.27,1.13,0c0.38,0.31,0.44,0.87,0.13,1.26l-1.06,1.31 c-0.06,0.07-0.13,0.14-0.2,0.18c0.01,0.65,0.01,1.28,0,1.9c0.32-0.26,0.79-0.27,1.13,0c0.38,0.31,0.44,0.87,0.13,1.26l-1.06,1.31 c-0.1,0.12-0.22,0.22-0.36,0.27c-0.3,2.49-1.11,4.9-3.22,7.7c-0.99,1.32-2.18,2.39-3.56,3.22c-1.36,0.82-2.85,1.36-4.46,1.65 c-0.22,0.04-0.45,0.06-0.67,0.06L89.2,55.84l0.1-0.01c10.61-0.52,21.75,0.53,32.17,4.43c1.12,0.42,1.69,1.66,1.27,2.79 c-0.42,1.12-1.66,1.69-2.79,1.27c-9.8-3.67-20.36-4.66-30.46-4.16c-14.03,0.69-27.14,4.26-36.15,7.54 c-1.13,0.41-2.37-0.17-2.78-1.3c-0.41-1.13,0.17-2.37,1.3-2.78c3.68-1.34,8.02-2.72,12.83-3.95c-9.75-2.05-19.26-2.27-28.47-0.6 c-11.36,2.06-22.32,6.99-32.76,14.89c-0.96,0.72-2.32,0.53-3.04-0.42c-0.72-0.96-0.53-2.32,0.42-3.04 c10.98-8.31,22.55-13.5,34.61-15.68c12.2-2.21,24.84-1.31,37.81,2.58c0.21,0.06,0.4,0.15,0.58,0.27c0.9-0.16,1.81-0.32,2.72-0.47 l-0.08-6.37c-0.45,0.06-0.92,0.06-1.39-0.02c-1.61-0.29-3.1-0.83-4.46-1.65c-1.38-0.82-2.57-1.89-3.56-3.22 c-1.9-2.52-2.75-5.1-3.11-7.69c-0.23-0.02-0.45-0.13-0.61-0.33l-1.07-1.31c-0.31-0.38-0.25-0.95,0.14-1.26 c0.38-0.31,0.95-0.25,1.26,0.14l0.05,0.05c-0.03-0.67-0.04-1.34-0.04-2.02c-0.13-0.06-0.24-0.14-0.33-0.26l-1.07-1.32 c-0.31-0.38-0.25-0.95,0.14-1.26c0.38-0.31,0.95-0.25,1.26,0.14l0.01,0.01v-0.48v-0.65c-0.13-0.06-0.25-0.14-0.34-0.26l-1.06-1.31 c-0.31-0.38-0.25-0.95,0.14-1.25c0.38-0.31,0.95-0.25,1.26,0.13l0.01,0.01v-1.97c-0.13-0.06-0.25-0.14-0.34-0.26l-1.07-1.32 c-0.31-0.38-0.25-0.95,0.13-1.25c0.38-0.31,0.95-0.25,1.25,0.13l0.15,0.19c0.49-1.88,2.21-3.27,4.24-3.27 c2.02,0,3.72,1.36,4.23,3.22l0.11-0.13c0.31-0.38,0.87-0.44,1.25-0.13c0.38,0.31,0.44,0.87,0.14,1.25l-1.06,1.32 c-0.08,0.1-0.17,0.17-0.28,0.23v1.93c0.32-0.33,0.84-0.37,1.21-0.08c0.38,0.31,0.44,0.87,0.13,1.25l-1.06,1.32 c-0.08,0.1-0.17,0.17-0.28,0.23v0.68v0.41c0.32-0.33,0.84-0.37,1.2-0.08c0.38,0.31,0.44,0.87,0.14,1.26l-1.06,1.32 c-0.09,0.11-0.19,0.19-0.31,0.25c0,0.64,0.02,1.27,0.06,1.89c0.32-0.31,0.82-0.34,1.18-0.06c0.38,0.31,0.44,0.87,0.14,1.25 l-0.99,1.22c0.24,1.05,0.63,2.01,1.25,2.84c0.32,0.43,0.68,0.76,1.06,0.98c0.35,0.21,0.77,0.37,1.26,0.47l-0.24-22.43 c-0.1-0.05-0.19-0.13-0.26-0.22l-1.06-1.32c-0.31-0.38-0.25-0.95,0.13-1.25c0.35-0.28,0.83-0.26,1.15,0.03L76.1,15 c-0.08-0.05-0.15-0.11-0.21-0.19l-1.06-1.31c-0.31-0.38-0.25-0.95,0.13-1.25c0.36-0.29,0.87-0.25,1.19,0.06 c1.01-7.81,12.37-7.8,13.39,0c0.32-0.32,0.83-0.36,1.19-0.07c0.38,0.31,0.44,0.87,0.14,1.25l-1.07,1.31 C89.77,14.89,89.7,14.95,89.62,15L89.62,15L89.62,15z M27.07,4.15c-0.34-0.59-0.14-1.35,0.45-1.69c0.59-0.34,1.35-0.14,1.69,0.45 l1.59,2.75c0.34,0.59,0.14,1.35-0.45,1.69C29.76,7.69,29,7.49,28.66,6.9L27.07,4.15L27.07,4.15L27.07,4.15z M36.94,8.22 c3.05,0,5.82,1.24,7.82,3.24c2,2,3.24,4.77,3.24,7.82c0,3.05-1.24,5.82-3.24,7.82c-2,2-4.77,3.24-7.82,3.24 c-3.06,0-5.82-1.24-7.82-3.24c-2-2-3.24-4.77-3.24-7.82s1.24-5.82,3.24-7.82C31.12,9.46,33.89,8.22,36.94,8.22L36.94,8.22 L36.94,8.22z M43.1,13.14c-1.57-1.57-3.75-2.55-6.15-2.55c-2.4,0-4.58,0.97-6.15,2.55c-1.57,1.57-2.55,3.75-2.55,6.15 c0,2.4,0.97,4.58,2.55,6.15c1.57,1.57,3.75,2.55,6.15,2.55c2.4,0,4.58-0.97,6.15-2.55c1.57-1.57,2.55-3.75,2.55-6.15 C45.64,16.88,44.67,14.71,43.1,13.14L43.1,13.14L43.1,13.14z M35.96,1.24C35.96,0.55,36.51,0,37.2,0c0.69,0,1.24,0.55,1.24,1.24 v3.17c0,0.69-0.55,1.24-1.24,1.24c-0.68,0-1.24-0.55-1.24-1.24V1.24L35.96,1.24L35.96,1.24z M45.12,3.17 c0.34-0.59,1.09-0.79,1.68-0.46c0.59,0.34,0.79,1.09,0.46,1.69l-1.59,2.75c-0.34,0.59-1.09,0.8-1.68,0.46 c-0.59-0.34-0.79-1.09-0.46-1.68L45.12,3.17L45.12,3.17L45.12,3.17z M52.08,9.41c0.59-0.34,1.35-0.14,1.69,0.45 c0.34,0.59,0.14,1.35-0.45,1.69l-2.75,1.59c-0.59,0.34-1.35,0.14-1.69-0.45c-0.34-0.59-0.14-1.35,0.45-1.69L52.08,9.41L52.08,9.41 L52.08,9.41z M54.99,18.3c0.69,0,1.24,0.55,1.24,1.24c0,0.68-0.55,1.24-1.24,1.24h-3.17c-0.69,0-1.24-0.55-1.24-1.24 c0-0.69,0.55-1.24,1.24-1.24H54.99L54.99,18.3L54.99,18.3z M53.06,27.47c0.59,0.34,0.79,1.09,0.45,1.68 c-0.34,0.59-1.09,0.79-1.68,0.46l-2.75-1.59c-0.59-0.34-0.8-1.09-0.46-1.68c0.34-0.59,1.09-0.79,1.68-0.46L53.06,27.47L53.06,27.47 L53.06,27.47z M46.82,34.43c0.34,0.59,0.14,1.35-0.45,1.69c-0.59,0.34-1.35,0.14-1.69-0.45l-1.59-2.75 c-0.34-0.59-0.14-1.35,0.45-1.69c0.59-0.34,1.35-0.14,1.69,0.45L46.82,34.43L46.82,34.43L46.82,34.43z M37.93,37.34 c0,0.68-0.55,1.24-1.24,1.24c-0.68,0-1.24-0.55-1.24-1.24v-3.18c0-0.69,0.56-1.24,1.24-1.24c0.69,0,1.24,0.55,1.24,1.24V37.34 L37.93,37.34L37.93,37.34z M28.77,35.41c-0.34,0.59-1.09,0.79-1.68,0.46c-0.59-0.34-0.79-1.09-0.46-1.69l1.59-2.75 c0.34-0.59,1.09-0.8,1.68-0.46c0.59,0.34,0.79,1.09,0.46,1.68L28.77,35.41L28.77,35.41L28.77,35.41z M21.8,29.16 c-0.59,0.34-1.35,0.14-1.69-0.45c-0.34-0.59-0.14-1.35,0.45-1.69l2.75-1.59c0.59-0.34,1.35-0.14,1.69,0.45 c0.34,0.59,0.14,1.35-0.45,1.69L21.8,29.16L21.8,29.16L21.8,29.16z M18.89,20.27c-0.68,0-1.24-0.55-1.24-1.24 c0-0.68,0.55-1.24,1.24-1.24h3.18c0.68,0,1.24,0.55,1.24,1.24c0,0.69-0.56,1.24-1.24,1.24H18.89L18.89,20.27L18.89,20.27z M20.82,11.11c-0.59-0.34-0.8-1.09-0.46-1.68c0.34-0.59,1.09-0.79,1.68-0.46l2.75,1.59c0.59,0.34,0.79,1.09,0.46,1.68 c-0.34,0.59-1.09,0.79-1.68,0.46L20.82,11.11L20.82,11.11L20.82,11.11z"/></g></svg>