<svg id="Layer_1" data-name="Layer 1" xmlns="http://www.w3.org/2000/svg" viewBox="0 0 81.25 122.88"><defs><style>.cls-1{fill-rule:evenodd;}</style></defs><title>dessert</title><path class="cls-1" d="M40.62,93.68C72.3,93.68,76,80.17,76,56.8H5.23c0,23.61,3.87,36.88,35.39,36.88ZM57.44,0a11.09,11.09,0,0,1,7.87,3.26l.12.13a11.13,11.13,0,0,1-5.07,18.48,14.41,14.41,0,0,1,4.8,8.66c4.59,1.62,8.18,4.07,10.39,7.66S78.48,46.24,77.47,52l-.06.75h1.82a2,2,0,0,1,2,2h0c0,26.18-4,42.12-37.42,44.63v19.45H58.72a2,2,0,0,1,0,4H25.38a2,2,0,1,1,0-4H38.61V99.48C4.69,98.09,0,81.23,0,54.77a2,2,0,0,1,2-2H4c-.1-.45-.18-.91-.25-1.36A20.7,20.7,0,0,1,5.39,39.21a18.43,18.43,0,0,1,8.43-8.58A20.49,20.49,0,0,1,18.07,29a27.27,27.27,0,0,1,1.46-13.39,22.81,22.81,0,0,1,7.22-9.72,25.07,25.07,0,0,1,11-4.87,29.31,29.31,0,0,1,13.53.8A11.1,11.1,0,0,1,57.44,0ZM46.74,8.06a10.85,10.85,0,0,1,1-2.3,23.89,23.89,0,0,0-9.1-.14,20.15,20.15,0,0,0-8.88,3.92A18.24,18.24,0,0,0,24,17.3a23.72,23.72,0,0,0-.89,13.15,2.25,2.25,0,0,1-.53,1.91c-.85,1-5.16,1.68-6.56,2.39a13.83,13.83,0,0,0-6.32,6.42,16.28,16.28,0,0,0-1.23,9.54,19.26,19.26,0,0,0,.44,2H72.1a3.74,3.74,0,0,1,.65-1.29c.87-4.71.35-8.26-1.27-10.9S67.23,36.21,63.72,35a31.81,31.81,0,0,1-12.13,6.76,18.54,18.54,0,0,1-12.5-.63A2.3,2.3,0,0,1,37.89,38,2.4,2.4,0,0,1,41,36.85a13.92,13.92,0,0,0,9.31.4A27,27,0,0,0,60.5,31.54c-.37-4.21-4.16-7.12-7.58-9.75a38.79,38.79,0,0,1-4.37-3.7c-2.78-2.9-4.1-6-1.81-10Z"/></svg>