<svg id="Layer_1" data-name="Layer 1" xmlns="http://www.w3.org/2000/svg" viewBox="0 0 122.88 60.34"><defs><style>.cls-1{fill:#de1574;}</style></defs><title>deutsche-telekom</title><path class="cls-1" d="M.06,27.77H12.32V40H.06V27.77ZM122.88,40V27.77H110.62V40ZM29.26,47.44c0,3.89.57,6.41,1.71,7.58,1,1,2.6,1.6,4.9,1.83.69.06,1.86.08,3.51.08v3.41H9.84V56.93a29,29,0,0,0,5.25-.34,5.25,5.25,0,0,0,4.32-4,21,21,0,0,0,.47-5.15V2.9q-7.51.21-11.76,5-4,4.56-4.93,14L0,21.3.59,0h48l.6,21.3-3.2.55q-.9-9.41-5-14-4.26-4.77-11.81-5V47.44Zm7.8-19.67H49.32V40H37.06V27.77Zm36.79,0H86.1V40H73.85V27.77Z"/></svg>