<svg xmlns="http://www.w3.org/2000/svg" shape-rendering="geometricPrecision" text-rendering="geometricPrecision" image-rendering="optimizeQuality" fill-rule="evenodd" clip-rule="evenodd" viewBox="0 0 721 999.43"><path d="M721 29.48v940.47c0 16.22-13.28 29.48-29.48 29.48H29.48C13.28 999.43 0 986.15 0 969.95V29.48C0 13.28 13.27 0 29.48 0h662.04C707.74 0 721 13.27 721 29.48zM334.82 243.56h51.36c11.81 0 21.46 9.66 21.46 21.46v18.87h62.19c8.41 0 15.29 6.88 15.29 15.29v379.86c0 8.4-6.88 15.28-15.29 15.28H251.17c-8.41 0-15.29-6.88-15.29-15.28V299.18c0-8.41 6.88-15.29 15.29-15.29h62.19v-18.87c0-11.8 9.66-21.46 21.46-21.46zm1.11 173 47.63.58-22.18 71.83h51.41l-84.65 104.76 21.49-72.24h-41.41l27.71-104.93zm-70.06-101.85h189.26v344.25H265.87V314.71zm94.63 586.63c18.63 0 33.72 15.1 33.72 33.73 0 18.62-15.09 33.72-33.72 33.72s-33.72-15.1-33.72-33.72c0-18.63 15.09-33.73 33.72-33.73zM681.1 52.5v818.81h-637V52.5h637z"/></svg>