<?xml version="1.0" encoding="utf-8"?><svg version="1.1" id="Layer_1" xmlns="http://www.w3.org/2000/svg" xmlns:xlink="http://www.w3.org/1999/xlink" x="0px" y="0px" viewBox="0 0 88.65 122.88" style="enable-background:new 0 0 88.65 122.88" xml:space="preserve"><style type="text/css">.st0{fill-rule:evenodd;clip-rule:evenodd;}</style><g><path class="st0" d="M88.65,3.62v115.63c0,1.99-1.63,3.62-3.62,3.62H3.62c-1.99,0-3.62-1.63-3.62-3.62V3.62C0,1.63,1.63,0,3.62,0 h81.4C87.02,0,88.65,1.63,88.65,3.62L88.65,3.62z M27.12,78.52c0.4,0.48,0.35,1.18-0.12,1.58c-0.48,0.4-1.18,0.35-1.58-0.12 c-4.85-5.66-7.35-12.08-7.29-18.56c0.06-6.34,2.53-12.7,7.61-18.52c0.4-0.46,1.1-0.51,1.58-0.11c0.46,0.4,0.51,1.1,0.11,1.58 c-4.71,5.39-7.01,11.26-7.06,17.06C20.32,67.38,22.62,73.27,27.12,78.52L27.12,78.52z M32.98,73.07c0.41,0.46,0.37,1.17-0.09,1.58 c-0.46,0.41-1.17,0.37-1.58-0.09c-3.73-4.22-5.65-8.68-5.57-13.21c0.08-4.4,2.03-8.82,6-13.04c0.43-0.45,1.14-0.48,1.58-0.05 c0.44,0.43,0.48,1.14,0.05,1.58c-3.58,3.8-5.34,7.7-5.4,11.54c-0.06,3.96,1.66,7.92,5,11.71L32.98,73.07L32.98,73.07z M38.16,67.88 c0.38,0.48,0.32,1.18-0.17,1.57c-0.48,0.38-1.18,0.32-1.57-0.17c-2.01-2.47-3.05-5.16-3.07-7.89c-0.02-2.65,0.98-5.32,3.02-7.83 c0.38-0.48,1.09-0.55,1.57-0.17c0.48,0.38,0.55,1.09,0.17,1.57c-1.7,2.09-2.53,4.28-2.53,6.41c0,2.19,0.89,4.4,2.56,6.47 L38.16,67.88L38.16,67.88z M63.23,79.97c-0.4,0.48-1.1,0.52-1.58,0.12c-0.48-0.4-0.52-1.1-0.12-1.58 c4.5-5.25,6.81-11.15,6.75-17.09c-0.05-5.8-2.35-11.68-7.06-17.06c-0.4-0.46-0.35-1.17,0.11-1.58c0.46-0.4,1.17-0.35,1.58,0.11 c5.08,5.81,7.55,12.18,7.61,18.52C70.58,67.9,68.08,74.31,63.23,79.97L63.23,79.97z M57.36,74.54c-0.41,0.46-1.12,0.51-1.58,0.09 c-0.46-0.41-0.51-1.12-0.09-1.58c3.36-3.79,5.06-7.75,5-11.71c-0.06-3.85-1.83-7.75-5.4-11.54c-0.43-0.44-0.4-1.15,0.05-1.58 c0.44-0.43,1.15-0.4,1.58,0.05c3.97,4.22,5.92,8.62,6,13.04c0.08,4.53-1.83,8.99-5.57,13.21L57.36,74.54L57.36,74.54z M52.23,69.28 c-0.38,0.48-1.09,0.55-1.57,0.17c-0.48-0.38-0.55-1.09-0.17-1.57c1.69-2.07,2.56-4.28,2.56-6.47c0-2.15-0.81-4.33-2.53-6.41 c-0.38-0.48-0.32-1.18,0.17-1.57c0.48-0.38,1.18-0.32,1.57,0.17c2.04,2.5,3.04,5.17,3.02,7.82c-0.02,2.73-1.06,5.4-3.07,7.89 L52.23,69.28L52.23,69.28z M44.3,65.57c-0.36,0-0.73-0.03-1.09-0.09c-0.57-0.16-1.11-0.44-1.56-0.8c-0.1-0.09-0.2-0.18-0.3-0.27 c-0.77-0.77-1.23-1.81-1.23-2.98c0-1.17,0.48-2.21,1.23-2.98c0.77-0.77,1.81-1.23,2.98-1.23c1.17,0,2.21,0.48,2.98,1.23 c0.77,0.77,1.23,1.81,1.23,2.98c0,0.65-0.15,1.25-0.4,1.8C47.39,64.78,46.02,65.57,44.3,65.57L44.3,65.57z M44.32,110.33 c2.29,0,4.15,1.86,4.15,4.15c0,2.29-1.86,4.15-4.15,4.15c-2.29,0-4.15-1.86-4.15-4.15C40.18,112.18,42.03,110.33,44.32,110.33 L44.32,110.33z M83.74,6.46v100.18H5.42V6.46H83.74L83.74,6.46z"/></g></svg>