<?xml version="1.0" encoding="utf-8"?><svg version="1.1" id="Layer_1" xmlns="http://www.w3.org/2000/svg" xmlns:xlink="http://www.w3.org/1999/xlink" x="0px" y="0px" viewBox="0 0 89.36 122.88" style="enable-background:new 0 0 89.36 122.88" xml:space="preserve"><g><path d="M44.68,99.38c3.24,0,6.18,1.32,8.31,3.44c2.13,2.13,3.44,5.06,3.44,8.31c0,3.24-1.31,6.18-3.44,8.31 c-2.13,2.13-5.06,3.44-8.31,3.44c-3.24,0-6.18-1.31-8.31-3.44c-2.13-2.13-3.44-5.06-3.44-8.31c0-3.24,1.31-6.18,3.44-8.31 C38.5,100.7,41.43,99.38,44.68,99.38L44.68,99.38z M77.61,66.17c3.24,0,6.18,1.32,8.31,3.44c2.13,2.13,3.44,5.06,3.44,8.31 c0,3.24-1.32,6.18-3.44,8.31c-2.13,2.13-5.06,3.44-8.31,3.44c-3.24,0-6.18-1.32-8.31-3.44c-2.13-2.13-3.44-5.06-3.44-8.31 c0-3.24,1.32-6.18,3.44-8.31C71.43,67.49,74.37,66.17,77.61,66.17L77.61,66.17z M82.66,72.87c-1.29-1.29-3.08-2.09-5.05-2.09 c-1.97,0-3.76,0.8-5.05,2.09c-1.29,1.29-2.09,3.08-2.09,5.05c0,1.97,0.8,3.76,2.09,5.05c1.29,1.29,3.08,2.09,5.05,2.09 c1.97,0,3.76-0.8,5.05-2.09c1.29-1.29,2.09-3.08,2.09-5.05C84.75,75.95,83.95,74.16,82.66,72.87L82.66,72.87z M44.68,66.17 c3.24,0,6.18,1.32,8.31,3.44c2.13,2.13,3.44,5.06,3.44,8.31c0,3.24-1.31,6.18-3.44,8.31c-2.13,2.13-5.06,3.44-8.31,3.44 c-3.24,0-6.18-1.32-8.31-3.44c-2.13-2.13-3.44-5.06-3.44-8.31c0-3.24,1.31-6.18,3.44-8.31C38.5,67.49,41.43,66.17,44.68,66.17 L44.68,66.17z M49.73,72.87c-1.29-1.29-3.08-2.09-5.05-2.09c-1.97,0-3.76,0.8-5.05,2.09c-1.29,1.29-2.09,3.08-2.09,5.05 c0,1.97,0.8,3.76,2.09,5.05c1.29,1.29,3.08,2.09,5.05,2.09c1.97,0,3.76-0.8,5.05-2.09c1.29-1.29,2.09-3.08,2.09-5.05 C51.82,75.95,51.02,74.16,49.73,72.87L49.73,72.87z M11.75,66.17c3.24,0,6.18,1.32,8.31,3.44c2.13,2.13,3.44,5.06,3.44,8.31 c0,3.24-1.32,6.18-3.44,8.31c-2.13,2.13-5.06,3.44-8.31,3.44c-3.24,0-6.18-1.32-8.31-3.44C1.31,84.1,0,81.16,0,77.92 c0-3.24,1.31-6.18,3.44-8.31C5.57,67.49,8.5,66.17,11.75,66.17L11.75,66.17z M16.8,72.87c-1.29-1.29-3.08-2.09-5.05-2.09 c-1.97,0-3.76,0.8-5.05,2.09C5.4,74.16,4.6,75.95,4.6,77.92c0,1.97,0.8,3.76,2.09,5.05c1.29,1.29,3.08,2.09,5.05,2.09 c1.97,0,3.76-0.8,5.05-2.09c1.29-1.29,2.09-3.08,2.09-5.05C18.89,75.95,18.09,74.16,16.8,72.87L16.8,72.87z M77.61,33.09 c3.24,0,6.18,1.32,8.31,3.44c2.13,2.13,3.44,5.06,3.44,8.31s-1.32,6.18-3.44,8.31c-2.13,2.13-5.06,3.44-8.31,3.44 c-3.24,0-6.18-1.32-8.31-3.44c-2.13-2.13-3.44-5.06-3.44-8.31c0-3.24,1.32-6.18,3.44-8.31C71.43,34.4,74.37,33.09,77.61,33.09 L77.61,33.09z M82.66,39.78c-1.29-1.29-3.08-2.09-5.05-2.09c-1.97,0-3.76,0.8-5.05,2.09c-1.29,1.29-2.09,3.08-2.09,5.05 c0,1.97,0.8,3.76,2.09,5.05c1.29,1.29,3.08,2.09,5.05,2.09c1.97,0,3.76-0.8,5.05-2.09c1.29-1.29,2.09-3.08,2.09-5.05 C84.75,42.86,83.95,41.08,82.66,39.78L82.66,39.78z M44.68,33.09c3.24,0,6.18,1.32,8.31,3.44c2.13,2.13,3.44,5.06,3.44,8.31 s-1.31,6.18-3.44,8.31c-2.13,2.13-5.06,3.44-8.31,3.44c-3.24,0-6.18-1.32-8.31-3.44c-2.13-2.13-3.44-5.06-3.44-8.31 c0-3.24,1.31-6.18,3.44-8.31C38.5,34.4,41.43,33.09,44.68,33.09L44.68,33.09z M49.73,39.78c-1.29-1.29-3.08-2.09-5.05-2.09 c-1.97,0-3.76,0.8-5.05,2.09c-1.29,1.29-2.09,3.08-2.09,5.05c0,1.97,0.8,3.76,2.09,5.05c1.29,1.29,3.08,2.09,5.05,2.09 c1.97,0,3.76-0.8,5.05-2.09c1.29-1.29,2.09-3.08,2.09-5.05C51.82,42.86,51.02,41.08,49.73,39.78L49.73,39.78z M11.75,33.09 c3.24,0,6.18,1.32,8.31,3.44c2.13,2.13,3.44,5.06,3.44,8.31s-1.32,6.18-3.44,8.31c-2.13,2.13-5.06,3.44-8.31,3.44 c-3.24,0-6.18-1.32-8.31-3.44C1.31,51.01,0,48.08,0,44.83c0-3.24,1.31-6.18,3.44-8.31C5.57,34.4,8.5,33.09,11.75,33.09L11.75,33.09 z M16.8,39.78c-1.29-1.29-3.08-2.09-5.05-2.09c-1.97,0-3.76,0.8-5.05,2.09C5.4,41.08,4.6,42.86,4.6,44.83 c0,1.97,0.8,3.76,2.09,5.05c1.29,1.29,3.08,2.09,5.05,2.09c1.97,0,3.76-0.8,5.05-2.09c1.29-1.29,2.09-3.08,2.09-5.05 C18.89,42.86,18.09,41.08,16.8,39.78L16.8,39.78z M77.61,0c3.24,0,6.18,1.31,8.31,3.44c2.13,2.13,3.44,5.06,3.44,8.31 c0,3.24-1.32,6.18-3.44,8.31c-2.13,2.13-5.06,3.44-8.31,3.44c-3.24,0-6.18-1.31-8.31-3.44c-2.13-2.13-3.44-5.06-3.44-8.31 c0-3.24,1.32-6.18,3.44-8.31C71.43,1.31,74.37,0,77.61,0L77.61,0z M82.66,6.7C81.37,5.4,79.58,4.6,77.61,4.6 c-1.97,0-3.76,0.8-5.05,2.09c-1.29,1.29-2.09,3.08-2.09,5.05c0,1.97,0.8,3.76,2.09,5.05c1.29,1.29,3.08,2.09,5.05,2.09 c1.97,0,3.76-0.8,5.05-2.09c1.29-1.29,2.09-3.08,2.09-5.05C84.75,9.77,83.95,7.99,82.66,6.7L82.66,6.7z M44.68,0 c3.24,0,6.18,1.31,8.31,3.44c2.13,2.13,3.44,5.06,3.44,8.31c0,3.24-1.31,6.18-3.44,8.31c-2.13,2.13-5.06,3.44-8.31,3.44 c-3.24,0-6.18-1.31-8.31-3.44c-2.13-2.13-3.44-5.06-3.44-8.31c0-3.24,1.31-6.18,3.44-8.31C38.5,1.31,41.43,0,44.68,0L44.68,0z M49.73,6.7C48.44,5.4,46.65,4.6,44.68,4.6c-1.97,0-3.76,0.8-5.05,2.09c-1.29,1.29-2.09,3.08-2.09,5.05c0,1.97,0.8,3.76,2.09,5.05 c1.29,1.29,3.08,2.09,5.05,2.09c1.97,0,3.76-0.8,5.05-2.09c1.29-1.29,2.09-3.08,2.09-5.05C51.82,9.77,51.02,7.99,49.73,6.7 L49.73,6.7z M11.75,0c3.24,0,6.18,1.31,8.31,3.44c2.13,2.13,3.44,5.06,3.44,8.31c0,3.24-1.32,6.18-3.44,8.31 c-2.13,2.13-5.06,3.44-8.31,3.44c-3.24,0-6.18-1.31-8.31-3.44C1.31,17.93,0,14.99,0,11.75C0,8.5,1.31,5.57,3.44,3.44 C5.57,1.31,8.5,0,11.75,0L11.75,0z M16.8,6.7C15.51,5.4,13.72,4.6,11.75,4.6C9.77,4.6,7.99,5.4,6.7,6.7 C5.4,7.99,4.6,9.77,4.6,11.75c0,1.97,0.8,3.76,2.09,5.05c1.29,1.29,3.08,2.09,5.05,2.09c1.97,0,3.76-0.8,5.05-2.09 c1.29-1.29,2.09-3.08,2.09-5.05C18.89,9.77,18.09,7.99,16.8,6.7L16.8,6.7z M49.73,106.08c-1.29-1.29-3.08-2.09-5.05-2.09 c-1.97,0-3.76,0.8-5.05,2.09c-1.29,1.29-2.09,3.08-2.09,5.05c0,1.97,0.8,3.76,2.09,5.05c1.29,1.29,3.08,2.09,5.05,2.09 c1.97,0,3.76-0.8,5.05-2.09c1.29-1.29,2.09-3.08,2.09-5.05C51.82,109.16,51.02,107.37,49.73,106.08L49.73,106.08z"/></g></svg>