<?xml version="1.0" encoding="utf-8"?><svg version="1.1" id="Layer_1" xmlns="http://www.w3.org/2000/svg" xmlns:xlink="http://www.w3.org/1999/xlink" x="0px" y="0px" viewBox="0 0 121.43 122.88" style="enable-background:new 0 0 121.43 122.88" xml:space="preserve"><g><path d="M62.75,112.67L115.3,6.45L62.75,34.44V112.67L62.75,112.67z M59,121.62L0.2,2.78C-0.27,1.82,0.12,0.67,1.08,0.2 C1.66-0.09,2.3-0.05,2.83,0.23l0-0.01l57.98,30.88l57.98-30.88l2.64,2.56L62.55,121.8l-0.01,0c-0.31,0.64-0.97,1.08-1.72,1.08 c0,0,0,0,0,0C60,122.88,59.28,122.38,59,121.62L59,121.62L59,121.62z"/></g></svg>