<svg id="Layer_1" data-name="Layer 1" xmlns="http://www.w3.org/2000/svg" viewBox="0 0 122.88 122.88"><title>direction-arrows</title><path d="M51.6,95.29h.13V71.41H27.4V78.9a3.82,3.82,0,0,1-1.53,3.26,4.22,4.22,0,0,1-3.77.17,1.41,1.41,0,0,1-.45-.25C14.16,76.21,9,70.34,1.51,64.46l-.1-.09A3.5,3.5,0,0,1,.08,60.88,5,5,0,0,1,2,58.19L20.37,41.9a8.78,8.78,0,0,1,2.72-1.52,3.63,3.63,0,0,1,2.28,0,3.11,3.11,0,0,1,1.79,1.77,6.6,6.6,0,0,1,.44,2.57v6.71a.86.86,0,0,1,0,.17h0v.13H51.73V27.59h-7a6.6,6.6,0,0,1-2.57-.44,3.11,3.11,0,0,1-1.77-1.79,3.63,3.63,0,0,1,0-2.28,8.78,8.78,0,0,1,1.52-2.72L58.19,2A5,5,0,0,1,60.88.08a3.5,3.5,0,0,1,3.49,1.33l.09.1C70.34,9,76.21,14.16,82.08,21.65a1.41,1.41,0,0,1,.25.45,4.22,4.22,0,0,1-.17,3.77A3.82,3.82,0,0,1,78.9,27.4H71.41V51.73H95.29V51.6h0a.86.86,0,0,1,0-.17V44.72a6.6,6.6,0,0,1,.44-2.57,3.11,3.11,0,0,1,1.79-1.77,3.63,3.63,0,0,1,2.28,0,8.89,8.89,0,0,1,2.72,1.52l18.36,16.29a5,5,0,0,1,1.93,2.69,3.5,3.5,0,0,1-1.33,3.49l-.1.09c-7.49,5.88-12.65,11.75-20.14,17.62a1.41,1.41,0,0,1-.45.25A4.22,4.22,0,0,1,97,82.16a3.82,3.82,0,0,1-1.53-3.26V71.41H71.41V95.48H78.9A3.82,3.82,0,0,1,82.16,97a4.22,4.22,0,0,1,.17,3.77,1.41,1.41,0,0,1-.25.45c-5.87,7.49-11.74,12.65-17.62,20.14l-.09.1a3.5,3.5,0,0,1-3.49,1.33,5,5,0,0,1-2.69-1.93L41.9,102.51a8.89,8.89,0,0,1-1.52-2.72,3.63,3.63,0,0,1,0-2.28,3.11,3.11,0,0,1,1.77-1.79,6.6,6.6,0,0,1,2.57-.44H51.6Z"/></svg>