<?xml version="1.0" encoding="utf-8"?><svg version="1.1" id="Layer_1" xmlns="http://www.w3.org/2000/svg" xmlns:xlink="http://www.w3.org/1999/xlink" x="0px" y="0px" viewBox="0 0 119.48 122.88" style="enable-background:new 0 0 119.48 122.88" xml:space="preserve"><style type="text/css">.st0{fill-rule:evenodd;clip-rule:evenodd;}</style><g><path class="st0" d="M113.73,28.62H30.81L7.69,44.83L30.9,62.87h82.82V28.62L113.73,28.62z M60.81,13.51L73.43,0l13.95,13.51v9.36 h29.23c1.59,0,2.87,1.29,2.87,2.87v40c0,1.59-1.29,2.87-2.87,2.87H87.37v32.4h21.83c2.33,0,4.24,1.91,4.24,4.24v13.37 c0,2.33-1.91,4.24-4.24,4.24H38.98c-2.33,0-4.24-1.91-4.24-4.24v-10.18c0-4.09,3.34-7.43,7.43-7.43h18.64v-32.4H29.92 c-0.62,0-1.24-0.2-1.76-0.61L1.1,46.98l0.01-0.01c-0.22-0.17-0.42-0.38-0.59-0.62c-0.91-1.3-0.59-3.08,0.71-3.99l26.84-18.82 c0.5-0.42,1.15-0.68,1.86-0.68h30.88V13.51L60.81,13.51z"/></g></svg>