<?xml version="1.0" encoding="utf-8"?><svg version="1.1" id="Layer_1" xmlns="http://www.w3.org/2000/svg" xmlns:xlink="http://www.w3.org/1999/xlink" x="0px" y="0px" viewBox="0 0 119.48 122.88" style="enable-background:new 0 0 119.48 122.88" xml:space="preserve"><style type="text/css">.st0{fill-rule:evenodd;clip-rule:evenodd;}</style><g><path class="st0" d="M5.75,28.62h82.92l23.12,16.21L88.57,62.87H5.75V28.62L5.75,28.62z M58.67,13.51L46.05,0L32.1,13.51v9.36H2.87 C1.29,22.87,0,24.16,0,25.74v40c0,1.59,1.29,2.87,2.87,2.87H32.1v32.4H10.27c-2.33,0-4.24,1.91-4.24,4.24v13.37 c0,2.33,1.91,4.24,4.24,4.24H80.5c2.33,0,4.24-1.91,4.24-4.24v-10.18c0-4.09-3.34-7.43-7.43-7.43H58.67v-32.4h30.88 c0.62,0,1.24-0.2,1.76-0.61l27.06-21.03l-0.01-0.01c0.22-0.17,0.42-0.38,0.59-0.62c0.91-1.3,0.59-3.08-0.71-3.99L91.41,23.55 c-0.5-0.42-1.15-0.68-1.86-0.68H58.67V13.51L58.67,13.51z"/></g></svg>