<?xml version="1.0" encoding="utf-8"?><svg version="1.1" id="Layer_1" xmlns="http://www.w3.org/2000/svg" xmlns:xlink="http://www.w3.org/1999/xlink" x="0px" y="0px" viewBox="0 0 115.28 122.88" style="enable-background:new 0 0 115.28 122.88" xml:space="preserve"><style type="text/css">.st0{fill-rule:evenodd;clip-rule:evenodd;}</style><g><path class="st0" d="M25.38,57h64.88V37.34H69.59c-2.17,0-5.19-1.17-6.62-2.6c-1.43-1.43-2.3-4.01-2.3-6.17V7.64l0,0H8.15 c-0.18,0-0.32,0.09-0.41,0.18C7.59,7.92,7.55,8.05,7.55,8.24v106.45c0,0.14,0.09,0.32,0.18,0.41c0.09,0.14,0.28,0.18,0.41,0.18 c22.78,0,58.09,0,81.51,0c0.18,0,0.17-0.09,0.27-0.18c0.14-0.09,0.33-0.28,0.33-0.41v-11.16H25.38c-4.14,0-7.56-3.4-7.56-7.56 V64.55C17.82,60.4,21.22,57,25.38,57L25.38,57z M29.97,67.34H41.9c2.35,0,4.25,0.32,5.7,0.96c1.44,0.64,2.64,1.55,3.59,2.74 c0.94,1.2,1.63,2.58,2.05,4.17c0.43,1.58,0.64,3.26,0.64,5.03c0,2.77-0.31,4.93-0.95,6.46c-0.63,1.53-1.51,2.81-2.63,3.85 c-1.12,1.03-2.33,1.72-3.62,2.07c-1.76,0.47-3.36,0.71-4.78,0.71H29.97V67.34L29.97,67.34z M37.98,73.22V87.4h1.97 c1.68,0,2.88-0.19,3.59-0.56c0.71-0.37,1.26-1.02,1.67-1.95c0.41-0.93,0.6-2.43,0.6-4.51c0-2.75-0.45-4.63-1.35-5.65 c-0.9-1.02-2.39-1.52-4.48-1.52H37.98L37.98,73.22z M57.53,67.34h8.02v19.59H78.1v6.38H57.53V67.34L57.53,67.34z M81.19,67.34h8.02 v19.59h12.55v6.38H81.19V67.34L81.19,67.34z M97.79,57h9.93c4.16,0,7.56,3.41,7.56,7.56v31.42c0,4.15-3.41,7.56-7.56,7.56h-9.93 v13.55c0,1.61-0.65,3.04-1.7,4.1c-1.06,1.06-2.49,1.7-4.1,1.7c-29.44,0-56.59,0-86.18,0c-1.61,0-3.04-0.64-4.1-1.7 c-1.06-1.06-1.7-2.49-1.7-4.1V5.85c0-1.61,0.65-3.04,1.7-4.1c1.06-1.06,2.53-1.7,4.1-1.7h58.72C64.66,0,64.8,0,64.94,0 c0.64,0,1.29,0.28,1.75,0.69h0.09c0.09,0.05,0.14,0.09,0.23,0.18l29.99,30.36c0.51,0.51,0.88,1.2,0.88,1.98 c0,0.23-0.05,0.41-0.09,0.65V57L97.79,57z M67.52,27.97V8.94l21.43,21.7H70.19c-0.74,0-1.38-0.32-1.89-0.78 C67.84,29.4,67.52,28.71,67.52,27.97L67.52,27.97z"/></g></svg>