<?xml version="1.0" encoding="utf-8"?><svg version="1.1" id="Layer_1" xmlns="http://www.w3.org/2000/svg" xmlns:xlink="http://www.w3.org/1999/xlink" x="0px" y="0px" viewBox="0 0 115.28 122.88" style="enable-background:new 0 0 115.28 122.88" xml:space="preserve"><style type="text/css">.st0{fill-rule:evenodd;clip-rule:evenodd;}</style><g><path class="st0" d="M25.38,57h64.88V37.34H69.59c-2.17,0-5.19-1.17-6.62-2.6c-1.43-1.43-2.3-4.01-2.3-6.17V7.64l0,0H8.15 c-0.18,0-0.32,0.09-0.41,0.18C7.59,7.92,7.55,8.05,7.55,8.24v106.45c0,0.14,0.09,0.32,0.18,0.41c0.09,0.14,0.28,0.18,0.41,0.18 c22.78,0,58.09,0,81.51,0c0.18,0,0.17-0.09,0.27-0.18c0.14-0.09,0.33-0.28,0.33-0.41v-11.16H25.38c-4.14,0-7.56-3.4-7.56-7.56 V64.55C17.82,60.4,21.22,57,25.38,57L25.38,57z M29.87,69.02h10.47c2.06,0,3.73,0.28,5,0.84c1.27,0.56,2.32,1.36,3.15,2.41 c0.83,1.05,1.43,2.27,1.8,3.66c0.38,1.39,0.56,2.86,0.56,4.42c0,2.44-0.28,4.33-0.83,5.67c-0.55,1.34-1.32,2.47-2.31,3.38 c-0.99,0.91-2.04,1.51-3.17,1.82c-1.54,0.41-2.95,0.62-4.2,0.62H29.87V69.02L29.87,69.02z M36.91,74.18v12.45h1.73 c1.48,0,2.53-0.16,3.15-0.49c0.62-0.33,1.11-0.9,1.46-1.71c0.36-0.82,0.53-2.13,0.53-3.96c0-2.42-0.39-4.07-1.18-4.96 c-0.79-0.89-2.1-1.34-3.93-1.34H36.91L36.91,74.18z M53.48,69.02h9.29l3.54,13.88l3.55-13.88h9.25v22.8h-5.76V74.44l-4.45,17.38 h-5.22l-4.44-17.38v17.38h-5.76V69.02L53.48,69.02z M82.57,69.02h11.72c2.55,0,4.46,0.61,5.74,1.82c1.27,1.22,1.91,2.95,1.91,5.19 c0,2.3-0.7,4.11-2.08,5.4c-1.39,1.3-3.5,1.95-6.35,1.95h-3.86v8.44h-7.07V69.02L82.57,69.02z M89.64,78.77h1.74 c1.37,0,2.33-0.24,2.88-0.71c0.55-0.47,0.83-1.08,0.83-1.82c0-0.72-0.24-1.32-0.72-1.82c-0.48-0.5-1.38-0.75-2.71-0.75h-2.02V78.77 L89.64,78.77z M97.79,57h9.93c4.16,0,7.56,3.41,7.56,7.56v31.42c0,4.15-3.41,7.56-7.56,7.56h-9.93v13.55c0,1.61-0.65,3.04-1.7,4.1 c-1.06,1.06-2.49,1.7-4.1,1.7c-29.44,0-56.59,0-86.18,0c-1.61,0-3.04-0.64-4.1-1.7c-1.06-1.06-1.7-2.49-1.7-4.1V5.85 c0-1.61,0.65-3.04,1.7-4.1c1.06-1.06,2.53-1.7,4.1-1.7h58.72C64.66,0,64.8,0,64.94,0c0.64,0,1.29,0.28,1.75,0.69h0.09 c0.09,0.05,0.14,0.09,0.23,0.18l29.99,30.36c0.51,0.51,0.88,1.2,0.88,1.98c0,0.23-0.05,0.41-0.09,0.65V57L97.79,57z M67.52,27.97 V8.94l21.43,21.7H70.19c-0.74,0-1.38-0.32-1.89-0.78C67.84,29.4,67.52,28.71,67.52,27.97L67.52,27.97z"/></g></svg>