<svg id="Layer_1" data-name="Layer 1" xmlns="http://www.w3.org/2000/svg" viewBox="0 0 122.88 122.88"><title>do-not-drop</title><path d="M61.44,0A61.44,61.44,0,1,1,18,18,61.21,61.21,0,0,1,61.44,0Zm-21,65.51,0,.1,2.78,2.27,13-22.48,17.13,2.17,3.17-3.18L56.18,41.83,41.24,23.27a2.73,2.73,0,0,1,.57,0h0l21.83,3.09a3.21,3.21,0,0,1,2.14,1.27l12.56,14.9L98.61,22.29A54,54,0,0,0,22.29,98.61h0L33.85,87.05l-8,1.57L43.89,77l2.64-2.63L33.36,63.64l4.28,0L26.32,49.73h0a3.16,3.16,0,0,1-.2-3.49L38.31,25.36l0-.05L53.1,43.66,40.48,65.51Zm3.48,3,4.66,3.8,2.76-2.76-7.42-1Zm6.77,12.24,4.61-.91L54.25,94.35,64.13,80.2l9.23,6.14L72.2,76.25,86.13,76,73.44,72.78l9.29-8.25c-5.12.54-9.13,1-12.73,1.29l-2.31,4.05a3.05,3.05,0,0,1-3.1,1.48h0l-3.95-.55-9.9,9.9Zm21.05-18,19.77-2.06-12,10.64,28.66,7.27-32.72.58L77,92.32,64.89,84.25l-14.4,20.62L52.1,83.45l-5.12,1L27.79,103.65a54,54,0,0,0,75.86-75.86h0L75.82,55.62l-4,7.09Z"/></svg>