<svg id="Layer_1" data-name="Layer 1" xmlns="http://www.w3.org/2000/svg" viewBox="0 0 122.88 122.88"><defs><style>.cls-1{fill-rule:evenodd;}</style></defs><title>do-not-use-hooks</title><path class="cls-1" d="M61.44,0A61.46,61.46,0,1,1,18,18,61.21,61.21,0,0,1,61.44,0ZM50.5,38.59H45.7v-19H69.45v19H66.17V46a58.54,58.54,0,0,1,5.5,3.24L98.61,22.29A54,54,0,0,0,22.29,98.61h0l15.09-15.1c-.8-5.66.4-10.27-1-14.88-.67-2.19-2.79-3.89-1.74-6.07a2.42,2.42,0,0,1,4-.55,28.23,28.23,0,0,1,2.81,3.31c2.33,3.17,2.55,4.24,3.8,7.72.23.64.47,1.25.73,1.83L60.45,60.44c-.74-.72-1.46-1.39-2.15-2A46.19,46.19,0,0,0,50.5,53V38.59ZM77.63,53.81c5.51,5,9.76,11.21,10.69,18.54,1.57,12.4-5.86,24.28-17.3,28.94-11.15,4.55-25.24,1.14-31.07-9.8L27.79,103.65a54,54,0,0,0,75.86-75.86h0l-26,26ZM50.19,81.25c6.94,6.92,16.42,2.88,18.22-4.31.91-3.64-.66-7.45-3-10.86L50.19,81.25Z"/></svg>