<svg id="Layer_1" data-name="Layer 1" xmlns="http://www.w3.org/2000/svg" viewBox="0 0 122.88 122.88"><defs><style>.cls-1{fill:#d92d27;}</style></defs><title>do-not-step-sign</title><path d="M31.6,72.72c.45,2,.91,4.27,1.41,7.14L53.3,79c-.52-7.18,1.38-17.29,2.86-23.28C57.88,48.36,58,41.51,52.5,35.65a12,12,0,0,0-12.3-3.4,14.75,14.75,0,0,0-7.63,5.61c-3.54,5-5.3,12.41-4.94,18.4.33,5.8,2.67,10.81,4,16.46Zm1.72,11.43c0,.51,0,1,0,1.53,0,.72,0,1.35-.08,2-.2,4.31-.34,7.49,3.4,11.28a12,12,0,0,0,6.66,3.38A12.51,12.51,0,0,0,48.7,102a10.53,10.53,0,0,0,4.52-2.61,9.43,9.43,0,0,0,2.7-5.32,14.2,14.2,0,0,0-.16-4.91,34.5,34.5,0,0,0-1.43-4.92c-.12-.32-.22-.63-.31-1l-20.7.87Z"/><path d="M91.28,61.38c-.45,2-.91,4.27-1.41,7.14l-20.29-.84C70.1,60.5,68.2,50.4,66.72,44.4,65,37,64.87,30.18,70.38,24.31c5.88-6.27,15-4.59,19.93,2.22,3.54,4.94,5.3,12.41,4.94,18.39-.33,5.8-2.67,10.82-4,16.46ZM89.56,72.81c0,.51,0,1,0,1.54,0,.72,0,1.35.08,2,.2,4.32.34,7.49-3.4,11.28A12,12,0,0,1,79.6,91a12.51,12.51,0,0,1-5.42-.32,10.61,10.61,0,0,1-4.52-2.6A9.46,9.46,0,0,1,67,82.74a14.26,14.26,0,0,1,.16-4.92,34,34,0,0,1,1.43-4.91c.12-.32.22-.64.31-1l20.7.86Z"/><path class="cls-1" d="M61.44,0A61.46,61.46,0,1,1,18,18,61.21,61.21,0,0,1,61.44,0Zm42.21,27.79L27.79,103.65a54,54,0,0,0,75.86-75.86ZM22.29,98.61,98.61,22.29A54,54,0,0,0,22.29,98.61Z"/></svg>