<svg id="Layer_1" data-name="Layer 1" xmlns="http://www.w3.org/2000/svg" viewBox="0 0 122.88 121.83"><defs><style>.cls-1,.cls-2{fill-rule:evenodd;}.cls-2{fill:red;}.cls-3{fill:#fff;}</style></defs><title>doc</title><path class="cls-1" d="M102.42,37H81.92a8.52,8.52,0,0,1-8.85-8.7V7.53H21a.58.58,0,0,0-.41.18.45.45,0,0,0-.18.42V113.71a.7.7,0,0,0,.18.41.51.51,0,0,0,.41.18h80.84c.18,0,.17-.09.26-.18s.34-.28.34-.41V37Zm7.47,79.08a5.77,5.77,0,0,1-5.76,5.76H18.66a5.77,5.77,0,0,1-5.76-5.76V5.76a5.7,5.7,0,0,1,1.69-4.07A5.77,5.77,0,0,1,18.66,0H76.9a4.22,4.22,0,0,1,2.46.82l29.75,30.12a2.57,2.57,0,0,1,.78,2.6v82.53ZM80,27.69,79.57,9.63,100.66,31l-18.14-.81A2.4,2.4,0,0,1,80,27.69Z"/><path class="cls-2" d="M6.71,46.28H116.17A6.73,6.73,0,0,1,122.88,53v45.1a6.73,6.73,0,0,1-6.71,6.71H6.71A6.73,6.73,0,0,1,0,98.09V53a6.73,6.73,0,0,1,6.71-6.71Z"/><path class="cls-3" d="M12.5,59.78H27a17.41,17.41,0,0,1,6.91,1.16,11.26,11.26,0,0,1,4.36,3.33,14,14,0,0,1,2.49,5,23.36,23.36,0,0,1,.77,6.11,21.16,21.16,0,0,1-1.15,7.84,12.77,12.77,0,0,1-3.19,4.66,10.27,10.27,0,0,1-4.39,2.51,22.26,22.26,0,0,1-5.8.86H12.5V59.78Zm9.73,7.13V84.13h2.39A10.16,10.16,0,0,0,29,83.45a4.67,4.67,0,0,0,2-2.36,14.84,14.84,0,0,0,.73-5.48c0-3.34-.54-5.62-1.64-6.85s-2.9-1.85-5.43-1.85Zm21.92,8.65q0-7.71,4.3-12t12-4.3q7.86,0,12.13,4.22T76.82,75.3A19.36,19.36,0,0,1,75,84.36a13.26,13.26,0,0,1-5.38,5.5,17.7,17.7,0,0,1-8.77,2A20.24,20.24,0,0,1,52,90.14a13.29,13.29,0,0,1-5.66-5.38,17.8,17.8,0,0,1-2.18-9.2Zm9.73,0c0,3.18.6,5.47,1.78,6.86a6,6,0,0,0,4.84,2.08,6,6,0,0,0,4.87-2q1.72-2,1.72-7.33c0-3-.6-5.13-1.79-6.49a6.15,6.15,0,0,0-4.88-2.06,6,6,0,0,0-4.75,2.09c-1.19,1.38-1.79,3.69-1.79,6.89Zm48,2.82L110.38,81a15.54,15.54,0,0,1-2.72,6,11.72,11.72,0,0,1-4.59,3.64,17.3,17.3,0,0,1-7,1.22,20.27,20.27,0,0,1-8.41-1.49,13.33,13.33,0,0,1-5.62-5.25,17.79,17.79,0,0,1-2.37-9.62q0-7.81,4.16-12t11.79-4.2q6,0,9.37,2.41a14.1,14.1,0,0,1,5.06,7.4L101.49,71a7.54,7.54,0,0,0-.95-2.09,5.73,5.73,0,0,0-2-1.71,5.83,5.83,0,0,0-2.65-.6,5.76,5.76,0,0,0-5.09,2.65c-.88,1.32-1.33,3.39-1.33,6.2,0,3.49.52,5.88,1.59,7.17a6.29,6.29,0,0,0,8.7.37,9.79,9.79,0,0,0,2.08-4.55Z"/></svg>