<?xml version="1.0" encoding="utf-8"?><svg version="1.1" id="Layer_1" xmlns="http://www.w3.org/2000/svg" xmlns:xlink="http://www.w3.org/1999/xlink" x="0px" y="0px" viewBox="0 0 122.88 109.84" style="enable-background:new 0 0 122.88 109.84" xml:space="preserve"><style type="text/css">.st0{fill-rule:evenodd;clip-rule:evenodd;}</style><g><path class="st0" d="M2.72,29.79c-2.68,2.54-3.6,4.54-1.75,5.75c1.58,1.04,3.62,0.7,5.42,0.7c11.47,0.02,22.71,0.7,33,3.18 c-0.25,4.81,3.67,9.39,9.99,15.64c2.85,2.81,4.88,3.89,6.38,2.26c2.16-2.33,2.4-6.18,1.94-9.15l-0.2-1.28 c9.1,6.07,18.03,15.35,26.8,27.62l-6.23,9.77c-1.33,3.49,1.15,4.64,3.59,3.16c6.77-3.51,13.82-6.05,21.32-6.74 c1.44-0.13,3.39,0.06,4.58-0.14c2.91-0.49,3.27-3.62,0.13-5.35l-10.35-4.46C95.67,46.8,85.67,23.98,66.35,12.05 c4.9-3.93,6.62-7.71,4.97-11.45c-7.7-2.06-22.01,1.46-24.16,6.47C33.29,6.92,18.31,15.82,2.72,29.79L2.72,29.79z M42.15,105.1 c-0.71-0.31-1.09-1.29-0.85-2.19c0.25-0.9,1.02-1.38,1.73-1.07c5.99,2.62,10.18,4.12,13.78,4.47c3.5,0.34,6.49-0.42,10.14-2.31 c6.28-3.26,10.49-1.99,15.1-0.61c4.47,1.34,9.35,2.81,17.14-0.29c0.04-0.01,0.07-0.03,0.11-0.04c6.28-2.29,10.26-1.01,15.18,0.58 c2.14,0.69,4.47,1.45,7.22,1.95c0.75,0.13,1.27,1.01,1.16,1.96c-0.11,0.95-0.8,1.6-1.55,1.47c-2.93-0.54-5.31-1.31-7.51-2.02 c-4.53-1.46-8.2-2.65-13.76-0.62c-0.02,0.01-0.03,0.01-0.05,0.02c-8.51,3.39-13.77,1.81-18.58,0.36c-4.17-1.25-7.98-2.4-13.44,0.43 c-4.06,2.11-7.41,2.95-11.37,2.57C52.76,109.38,48.37,107.82,42.15,105.1L42.15,105.1z M42.15,93.83 c-0.71-0.31-1.09-1.29-0.85-2.19c0.25-0.9,1.02-1.38,1.73-1.07c5.99,2.62,10.18,4.12,13.78,4.47c3.5,0.34,6.49-0.42,10.14-2.31 c6.28-3.26,10.49-1.99,15.1-0.61c4.47,1.34,9.35,2.81,17.14-0.29c0.04-0.01,0.07-0.03,0.11-0.04c6.28-2.29,10.26-1.01,15.18,0.58 c2.14,0.69,4.47,1.45,7.22,1.95c0.75,0.13,1.27,1.01,1.16,1.96c-0.11,0.95-0.8,1.6-1.55,1.47c-2.93-0.54-5.31-1.31-7.51-2.02 c-4.53-1.46-8.2-2.65-13.76-0.62c-0.02,0.01-0.03,0.01-0.05,0.02c-8.51,3.39-13.77,1.81-18.58,0.36c-4.17-1.25-7.98-2.4-13.44,0.43 c-4.06,2.11-7.41,2.95-11.37,2.57C52.76,98.11,48.37,96.55,42.15,93.83L42.15,93.83z M23.92,22.49c1.14,0.2,2.01,1.19,2.01,2.39 c0,1.34-1.09,2.43-2.44,2.43c-1.24,0-2.27-0.92-2.42-2.11C20.91,23.44,21.97,22.62,23.92,22.49L23.92,22.49z"/></g></svg>