<?xml version="1.0" encoding="utf-8"?><svg version="1.1" id="Layer_1" xmlns="http://www.w3.org/2000/svg" xmlns:xlink="http://www.w3.org/1999/xlink" x="0px" y="0px" viewBox="0 0 102.57 122.88" style="enable-background:new 0 0 102.57 122.88" xml:space="preserve"><g><path d="M86.7,46.48c0.85,0,1.58,0.51,1.89,1.24L102.35,69c0.17,0.34,0.24,0.7,0.23,1.05l-0.91,50.77c0,1.13-0.92,2.05-2.05,2.05 v0.01H3.15c-1.14,0-2.06-0.92-2.06-2.06L0,69.94l0-0.02l0-0.02v0l0-0.02l0-0.02l0-0.01l0,0l0-0.02l0-0.03v0l0-0.01l0-0.04l0-0.01 l0-0.01l0-0.04l0-0.01l0-0.01l0.01-0.04l0,0l0-0.01l0.01-0.04l0,0l0,0l0.01-0.03l0-0.02v0l0.01-0.03l0-0.02l0-0.02l0-0.02l0-0.01 l0-0.01l0-0.02l0-0.02l0-0.01l0-0.01l0-0.02l0.01-0.02l0-0.01l0-0.01l0.01-0.02l0-0.01l0.01-0.03l0.01-0.02l0.01-0.02l0.01-0.02 l0.01-0.02l0.01-0.02v0l0.01-0.02l0.01-0.02v0l0.01-0.03l0.01-0.02l0.01-0.03l0,0l0.01-0.02l0-0.01l0-0.01l0.01-0.02l0.01-0.02 l0.01-0.02L0.24,69l0.02-0.03l0.01-0.02l0,0l0.02-0.03l0.01-0.01L0.3,68.9l0.01-0.01l13.94-21.3c0.37-0.7,1.08-1.1,1.82-1.1v0 C41.44,46.48,61.33,46.48,86.7,46.48L86.7,46.48z M42.01,0v23.56h-9.84l19.12,21.33l19.12-21.33h-9.84V0H42.01L42.01,0z M17.3,50.59L5.46,67.9h91.7l-11.7-17.31C60.91,50.59,41.84,50.59,17.3,50.59L17.3,50.59z M67.96,57.04c1.14,0,2.06,0.92,2.06,2.06 c0,1.14-0.92,2.06-2.06,2.06H37.64c-1.14,0-2.06-0.92-2.06-2.06c0-1.14,0.92-2.06,2.06-2.05h3.47 C51.52,57.05,57.54,57.04,67.96,57.04L67.96,57.04z M4.11,72.02l1.1,46.75h92.35l0.93-46.75H4.11L4.11,72.02z"/></g></svg>