<svg id="Layer_1" data-name="Layer 1" xmlns="http://www.w3.org/2000/svg" viewBox="0 0 122.88 87.61"><defs><style>.cls-1,.cls-2{fill-rule:evenodd;}.cls-2{stroke:#000;stroke-miterlimit:22.93;stroke-width:0.48px;}</style></defs><title>door-mat</title><path class="cls-1" d="M2.87,3.62H31.33a3.39,3.39,0,0,1,6.77,0H120a2.88,2.88,0,0,1,2.87,2.87V59.61A2.88,2.88,0,0,1,120,62.48h-.71a3.38,3.38,0,0,1-6.76,0h0a3.39,3.39,0,0,1-6.77,0h0a3.39,3.39,0,0,1-6.77,0h0a3.38,3.38,0,0,1-6.76,0h0a3.37,3.37,0,0,1-3.38,3.33,4.34,4.34,0,0,1-.63,0,37.38,37.38,0,0,0-.36,6.42c0,.52,0,1.07.07,1.6.17,3.94.31,6.85-3.25,10.45a11.37,11.37,0,0,1-6.34,3.22,11.86,11.86,0,0,1-5.14-.3,10.32,10.32,0,0,1-4.37-2.52,9.28,9.28,0,0,1-2.66-5.25,12.8,12.8,0,0,1,.13-4.58,30.92,30.92,0,0,1,1.24-4.28,12.39,12.39,0,0,0,.4-1.39c.12-.5.22-1,.33-1.57s.2-1.17.27-1.75a3.37,3.37,0,0,1-3.37-3.33h0a3.39,3.39,0,0,1-6.77,0h0A3.38,3.38,0,0,1,55,65.81a3.85,3.85,0,0,1-.69-.06c.07.6.16,1.2.28,1.81s.21,1.07.33,1.57a12.39,12.39,0,0,0,.4,1.39,30.92,30.92,0,0,1,1.24,4.28,12.85,12.85,0,0,1,.13,4.59h0a9.22,9.22,0,0,1-2.66,5.24,10.21,10.21,0,0,1-4.37,2.52,11.86,11.86,0,0,1-5.14.31,11.39,11.39,0,0,1-6.34-3.23c-3.56-3.6-3.42-6.5-3.25-10.45,0-.53,0-1.07.07-1.6a36.84,36.84,0,0,0-.35-6.37,3.38,3.38,0,0,1-3.34-3.33h0a3.39,3.39,0,0,1-6.77,0h0a3.38,3.38,0,0,1-6.76,0h0a3.38,3.38,0,0,1-6.76,0h0a3.39,3.39,0,0,1-6.77,0H2.87A2.88,2.88,0,0,1,0,59.61V6.49A2.88,2.88,0,0,1,2.87,3.62ZM45.28,35.23a1.23,1.23,0,0,1,1.32-1.15,1.25,1.25,0,0,1,1.16,1.32l-.14,2.07c0,.05,0,.09,0,.13a8.65,8.65,0,0,1,3.75,2.18,16.49,16.49,0,0,1,4.07,7.69,24.87,24.87,0,0,0,.74-8.72,13.79,13.79,0,0,0-3.76-7.88A11.22,11.22,0,0,0,51,29.6a10.42,10.42,0,0,0-1.58-1,9.81,9.81,0,0,0-7.16-.58,12.26,12.26,0,0,0-6.3,4.64,18.67,18.67,0,0,0-2.08,3.92,39.78,39.78,0,0,0-1.53,4.8,21.89,21.89,0,0,0-.47,6.48,22.35,22.35,0,0,0,1.23,6.46l0,.1a18.74,18.74,0,0,1,.57-7.53c1.53-4.7,6.44-9.34,11.44-9.59v0l.15-2.07Zm7.61,31.21,0-.08c-1.65-3.06-1.75-3-.41-6.8.22-.49.42-1,.59-1.49.21-1.41.49-2.78.8-4.15A19.9,19.9,0,0,0,52.52,46a16.52,16.52,0,0,0-2.92-5.28c-4.63-5-11.36,1.19-12.77,6.21-.84,3-.94,6.86-.41,11.51l1,3.64a8.94,8.94,0,0,1-1,6.36,36.38,36.38,0,0,1,.07,3.77c0,.59,0,1.11-.07,1.62-.16,3.57-.27,6.19,2.82,9.32A9.94,9.94,0,0,0,44.77,86a10.43,10.43,0,0,0,4.49-.26A8.84,8.84,0,0,0,53,83.55a7.83,7.83,0,0,0,2.23-4.4,11.54,11.54,0,0,0-.13-4.06A29.36,29.36,0,0,0,53.91,71a13.75,13.75,0,0,1-.45-1.55c-.12-.52-.23-1.06-.34-1.63s-.17-.94-.23-1.41Zm36.86-12A18.68,18.68,0,0,0,89.18,47c-1.53-4.7-6.44-9.35-11.44-9.6v0l-.14-2.08a1.23,1.23,0,0,0-1.32-1.15,1.25,1.25,0,0,0-1.16,1.32l.14,2.07c0,.05,0,.09,0,.13a8.65,8.65,0,0,0-3.75,2.18,16.49,16.49,0,0,0-4.07,7.69,24.87,24.87,0,0,1-.74-8.72,13.79,13.79,0,0,1,3.76-7.88,10.45,10.45,0,0,1,3-2.23,9.86,9.86,0,0,1,7.16-.58A12.3,12.3,0,0,1,87,32.71,18.67,18.67,0,0,1,89,36.63a39.78,39.78,0,0,1,1.53,4.8A21.89,21.89,0,0,1,91,47.91a22.35,22.35,0,0,1-1.23,6.46l0,.1ZM70,66.44l0-.08c1.65-3.06,1.75-3,.41-6.8-.22-.49-.42-1-.59-1.49-.21-1.41-.49-2.78-.81-4.15A20.09,20.09,0,0,1,70.36,46a16.52,16.52,0,0,1,2.92-5.28c4.63-5,11.36,1.19,12.77,6.21.84,3,.94,6.86.41,11.51l-1,3.64a9,9,0,0,0,1,6.36c-.08,1.25-.1,2.5-.06,3.77,0,.59,0,1.11.06,1.62.17,3.57.28,6.19-2.81,9.32A9.94,9.94,0,0,1,78.11,86a10.43,10.43,0,0,1-4.49-.26,8.84,8.84,0,0,1-3.73-2.15,7.83,7.83,0,0,1-2.23-4.4,11.54,11.54,0,0,1,.13-4.06A29.36,29.36,0,0,1,69,71a11.94,11.94,0,0,0,.45-1.55c.12-.52.23-1.06.34-1.63s.17-.94.23-1.41Z"/><path class="cls-2" d="M7.64.24A3.38,3.38,0,0,1,11,3.62H4.26A3.38,3.38,0,0,1,7.64.24Z"/><path class="cls-2" d="M14.41.24A3.38,3.38,0,0,0,11,3.62h6.76A3.38,3.38,0,0,0,14.41.24Z"/><path class="cls-2" d="M21.18.24a3.38,3.38,0,0,1,3.38,3.38H17.79A3.38,3.38,0,0,1,21.18.24Z"/><path class="cls-2" d="M28,.24a3.38,3.38,0,0,0-3.39,3.38h6.77A3.38,3.38,0,0,0,28,.24Z"/><path class="cls-2" d="M41.48.24A3.38,3.38,0,0,0,38.1,3.62h6.76A3.38,3.38,0,0,0,41.48.24Z"/><path class="cls-2" d="M48.25.24a3.38,3.38,0,0,1,3.38,3.38H44.86A3.38,3.38,0,0,1,48.25.24Z"/><path class="cls-2" d="M55,.24a3.38,3.38,0,0,0-3.39,3.38H58.4A3.38,3.38,0,0,0,55,.24Z"/><path class="cls-2" d="M61.78.24a3.38,3.38,0,0,1,3.39,3.38H58.4A3.38,3.38,0,0,1,61.78.24Z"/><path class="cls-2" d="M68.55.24a3.38,3.38,0,0,0-3.38,3.38h6.76A3.38,3.38,0,0,0,68.55.24Z"/><path class="cls-2" d="M75.32.24A3.38,3.38,0,0,1,78.7,3.62H71.93A3.38,3.38,0,0,1,75.32.24Z"/><path class="cls-2" d="M82.08.24A3.38,3.38,0,0,0,78.7,3.62h6.77A3.38,3.38,0,0,0,82.08.24Z"/><path class="cls-2" d="M88.85.24a3.38,3.38,0,0,1,3.39,3.38H85.47A3.38,3.38,0,0,1,88.85.24Z"/><path class="cls-2" d="M95.62.24a3.38,3.38,0,0,0-3.38,3.38H99A3.38,3.38,0,0,0,95.62.24Z"/><path class="cls-2" d="M102.39.24a3.38,3.38,0,0,1,3.38,3.38H99A3.38,3.38,0,0,1,102.39.24Z"/><path class="cls-2" d="M109.15.24a3.38,3.38,0,0,0-3.38,3.38h6.77A3.38,3.38,0,0,0,109.15.24Z"/><path class="cls-2" d="M115.92.24a3.38,3.38,0,0,1,3.38,3.38h-6.76A3.38,3.38,0,0,1,115.92.24Z"/></svg>