<?xml version="1.0" encoding="utf-8"?><svg version="1.1" id="Layer_1" xmlns="http://www.w3.org/2000/svg" xmlns:xlink="http://www.w3.org/1999/xlink" x="0px" y="0px" viewBox="0 0 109.33 122.88" style="enable-background:new 0 0 109.33 122.88" xml:space="preserve"><style type="text/css"><![CDATA[
	.st0{fill:#FFFFFF;}
	.st1{fill-rule:evenodd;clip-rule:evenodd;fill:#262626;}
	.st2{fill-rule:evenodd;clip-rule:evenodd;fill:#FF0000;}
]]></style><g><path class="st1" d="M82.28,105.33h-10.8V90.47H56.14v14.86H45l18.64,17.54L82.28,105.33L82.28,105.33z M102.4,33.95H83.61 c-1.98,0-4.73-1.06-6.03-2.36c-1.3-1.3-2.09-3.65-2.09-5.61V6.95l0,0H25.83c-0.16,0-0.29,0.08-0.37,0.16 c-0.14,0.09-0.18,0.21-0.18,0.38v87.74c0,0.12,0.09,0.29,0.16,0.37c0.09,0.13,0.26,0.16,0.38,0.16h12.96 c-1.03,2.17-1.79,4.49-2.23,6.92H23.7c-1.46,0-2.76-0.58-3.73-1.55c-0.96-0.96-1.54-2.26-1.54-3.73V5.32 c0-1.46,0.59-2.76,1.54-3.73c0.97-0.97,2.31-1.55,3.73-1.55h55.31C79.13,0,79.25,0,79.38,0c0.58,0,1.18,0.25,1.59,0.62h0.08 c0.08,0.05,0.13,0.09,0.21,0.16l27.27,27.61c0.46,0.46,0.8,1.09,0.8,1.8c0,0.21-0.04,0.37-0.08,0.6c0,25.22,0,41.39,0,66.61 c0,1.46-0.59,2.77-1.55,3.73c-0.97,0.96-2.27,1.55-3.73,1.55H90c-0.44-2.43-1.19-4.75-2.23-6.92h14.07c0.16,0,0.16-0.08,0.25-0.16 c0.13-0.08,0.3-0.26,0.3-0.37C102.39,71.78,102.4,57.39,102.4,33.95L102.4,33.95z M81.73,25.43V8.12l19.49,19.74H84.16 c-0.67,0-1.26-0.29-1.72-0.71C82.01,26.74,81.73,26.1,81.73,25.43L81.73,25.43L81.73,25.43z"/><polygon class="st2" points="0,38.51 88.91,38.51 88.91,81.22 0,81.22 0,38.51"/><path class="st0" d="M17.65,55.22l-6.01-1.07c0.5-1.9,1.46-3.36,2.88-4.38c1.42-1.01,3.43-1.52,6.02-1.52 c2.99,0,5.14,0.55,6.47,1.66c1.33,1.11,1.99,2.5,1.99,4.18c0,0.98-0.27,1.87-0.81,2.67s-1.35,1.5-2.44,2.1 c0.89,0.22,1.56,0.47,2.03,0.76c0.76,0.47,1.35,1.08,1.77,1.84c0.42,0.76,0.63,1.67,0.63,2.73c0,1.33-0.35,2.6-1.05,3.82 c-0.7,1.22-1.7,2.16-3.01,2.81c-1.31,0.66-3.03,0.99-5.17,0.99c-2.08,0-3.72-0.24-4.92-0.73c-1.21-0.49-2.19-1.2-2.97-2.14 c-0.77-0.94-1.37-2.12-1.79-3.54l6.37-0.84c0.25,1.28,0.63,2.17,1.16,2.66c0.52,0.49,1.19,0.74,2,0.74c0.85,0,1.56-0.31,2.13-0.93 c0.56-0.62,0.85-1.45,0.85-2.49c0-1.06-0.27-1.87-0.82-2.46c-0.54-0.58-1.29-0.87-2.22-0.87c-0.5,0-1.18,0.12-2.05,0.37l0.33-4.53 c0.35,0.05,0.62,0.08,0.82,0.08c0.82,0,1.51-0.27,2.06-0.79c0.55-0.53,0.83-1.15,0.83-1.87c0-0.7-0.21-1.25-0.62-1.66 c-0.42-0.41-0.99-0.62-1.71-0.62c-0.75,0-1.35,0.22-1.82,0.67C18.13,53.31,17.81,54.1,17.65,55.22L17.65,55.22z M33.61,48.63h10.52 c2.07,0,3.75,0.28,5.02,0.84c1.27,0.56,2.33,1.36,3.17,2.41c0.83,1.05,1.43,2.27,1.81,3.66c0.38,1.39,0.57,2.86,0.57,4.42 c0,2.44-0.28,4.32-0.84,5.67c-0.55,1.34-1.33,2.47-2.32,3.38c-0.99,0.91-2.05,1.51-3.19,1.81c-1.55,0.41-2.96,0.62-4.22,0.62H33.61 V48.63L33.61,48.63z M40.68,53.78v12.45h1.74c1.48,0,2.54-0.17,3.17-0.49c0.62-0.33,1.11-0.9,1.47-1.71 c0.36-0.82,0.53-2.13,0.53-3.96c0-2.41-0.4-4.06-1.19-4.96c-0.79-0.89-2.11-1.34-3.95-1.34H40.68L40.68,53.78z M56.87,63.88 l6.72-0.42c0.14,1.08,0.44,1.91,0.89,2.47c0.73,0.92,1.77,1.38,3.13,1.38c1.01,0,1.79-0.23,2.33-0.71 c0.55-0.47,0.82-1.02,0.82-1.64c0-0.59-0.26-1.12-0.77-1.59c-0.52-0.47-1.72-0.9-3.62-1.32c-3.1-0.69-5.31-1.61-6.63-2.77 c-1.33-1.15-2-2.61-2-4.39c0-1.17,0.34-2.27,1.02-3.31c0.68-1.05,1.71-1.86,3.08-2.46c1.37-0.59,3.25-0.89,5.63-0.89 c2.93,0,5.16,0.54,6.69,1.63c1.54,1.08,2.45,2.81,2.74,5.17l-6.65,0.39c-0.18-1.03-0.55-1.79-1.11-2.26 c-0.57-0.47-1.35-0.71-2.35-0.71c-0.82,0-1.45,0.17-1.86,0.52c-0.42,0.34-0.62,0.77-0.62,1.27c0,0.36,0.17,0.68,0.51,0.98 c0.33,0.3,1.11,0.58,2.36,0.84c3.09,0.66,5.3,1.34,6.64,2.02c1.34,0.68,2.31,1.52,2.92,2.53c0.61,1,0.91,2.13,0.91,3.38 c0,1.46-0.4,2.81-1.21,4.04c-0.82,1.23-1.95,2.17-3.41,2.81c-1.46,0.64-3.29,0.96-5.51,0.96c-3.89,0-6.59-0.75-8.09-2.24 C57.91,68.07,57.06,66.18,56.87,63.88L56.87,63.88z"/></g></svg>