<?xml version="1.0" encoding="utf-8"?><svg version="1.1" id="Layer_1" xmlns="http://www.w3.org/2000/svg" xmlns:xlink="http://www.w3.org/1999/xlink" x="0px" y="0px" viewBox="0 0 109.33 122.88" style="enable-background:new 0 0 109.33 122.88" xml:space="preserve"><style type="text/css"><![CDATA[
	.st0{fill:#FFFFFF;}
	.st1{fill-rule:evenodd;clip-rule:evenodd;fill:#262626;}
	.st2{fill-rule:evenodd;clip-rule:evenodd;fill:#FF0000;}
]]></style><g><path class="st1" d="M82.28,105.33h-10.8V90.47H56.14v14.86H44.99l18.64,17.54L82.28,105.33L82.28,105.33z M102.4,33.95H83.61 c-1.98,0-4.73-1.06-6.03-2.36c-1.3-1.3-2.09-3.65-2.09-5.61V6.95l0,0H25.83c-0.16,0-0.29,0.08-0.37,0.16 c-0.14,0.09-0.18,0.21-0.18,0.38v87.73c0,0.12,0.09,0.29,0.16,0.37c0.09,0.13,0.26,0.17,0.38,0.17h12.96 c-1.03,2.16-1.79,4.49-2.23,6.91H23.7c-1.46,0-2.76-0.58-3.73-1.55c-0.96-0.96-1.54-2.26-1.54-3.73V5.32 c0-1.46,0.59-2.76,1.54-3.73c0.97-0.97,2.31-1.55,3.73-1.55h55.31C79.13,0,79.25,0,79.38,0c0.58,0,1.18,0.25,1.59,0.62h0.08 c0.08,0.05,0.13,0.09,0.21,0.16l27.27,27.61c0.46,0.46,0.8,1.09,0.8,1.8c0,0.21-0.04,0.37-0.08,0.6c0,25.22,0,41.39,0,66.61 c0,1.46-0.59,2.77-1.55,3.73c-0.97,0.96-2.27,1.55-3.73,1.55H90c-0.44-2.43-1.19-4.75-2.23-6.91h14.07c0.16,0,0.16-0.09,0.25-0.17 c0.13-0.08,0.3-0.26,0.3-0.37C102.39,71.78,102.4,57.39,102.4,33.95L102.4,33.95z M81.73,25.43V8.12l19.49,19.74H84.16 c-0.67,0-1.26-0.29-1.72-0.71C82.01,26.74,81.73,26.1,81.73,25.43L81.73,25.43L81.73,25.43z"/><polygon class="st2" points="0,38.51 88.91,38.51 88.91,81.22 0,81.22 0,38.51"/><path class="st0" d="M9.49,63.73l6.72-0.42c0.14,1.08,0.44,1.91,0.89,2.47c0.73,0.92,1.77,1.38,3.12,1.38 c1.01,0,1.79-0.23,2.33-0.71c0.55-0.47,0.82-1.02,0.82-1.64c0-0.59-0.26-1.12-0.77-1.59c-0.52-0.47-1.72-0.9-3.62-1.32 c-3.1-0.69-5.31-1.61-6.63-2.76c-1.33-1.15-2-2.61-2-4.39c0-1.17,0.34-2.27,1.02-3.31c0.68-1.05,1.71-1.86,3.08-2.46 c1.37-0.59,3.25-0.89,5.63-0.89c2.93,0,5.16,0.54,6.69,1.63c1.54,1.08,2.45,2.81,2.74,5.17l-6.65,0.39 c-0.18-1.03-0.55-1.79-1.11-2.26c-0.57-0.47-1.35-0.71-2.35-0.71c-0.82,0-1.44,0.17-1.86,0.52c-0.42,0.34-0.62,0.77-0.62,1.27 c0,0.36,0.17,0.68,0.51,0.98c0.33,0.3,1.11,0.58,2.36,0.84c3.09,0.66,5.3,1.34,6.64,2.02c1.34,0.68,2.31,1.52,2.92,2.53 c0.61,1,0.91,2.13,0.91,3.37c0,1.46-0.4,2.81-1.22,4.04c-0.82,1.23-1.95,2.17-3.41,2.81c-1.46,0.64-3.29,0.96-5.51,0.96 c-3.89,0-6.59-0.75-8.09-2.24C10.53,67.92,9.69,66.02,9.49,63.73L9.49,63.73z M31.25,48.47h7.4l5.16,16.41l5.09-16.41h7.18 l-8.5,22.8H39.9L31.25,48.47L31.25,48.47z M68.48,63.02v-4.74h10.94v9.69c-2.1,1.42-3.95,2.39-5.55,2.91 c-1.61,0.51-3.52,0.77-5.73,0.77c-2.72,0-4.94-0.46-6.65-1.39c-1.71-0.92-3.04-2.29-3.98-4.12c-0.94-1.82-1.41-3.92-1.41-6.28 c0-2.49,0.52-4.65,1.54-6.49c1.03-1.84,2.54-3.23,4.53-4.19c1.55-0.74,3.64-1.1,6.26-1.1c2.53,0,4.42,0.23,5.67,0.68 c1.26,0.46,2.3,1.16,3.13,2.12c0.83,0.96,1.45,2.18,1.87,3.65l-6.81,1.22c-0.28-0.86-0.76-1.53-1.43-1.98 c-0.67-0.46-1.53-0.69-2.57-0.69c-1.55,0-2.78,0.54-3.71,1.61c-0.92,1.07-1.38,2.77-1.38,5.09c0,2.46,0.46,4.22,1.4,5.28 c0.93,1.06,2.23,1.59,3.89,1.59c0.79,0,1.54-0.11,2.26-0.34c0.71-0.23,1.54-0.62,2.46-1.16v-2.13H68.48L68.48,63.02z"/></g></svg>