<?xml version="1.0" encoding="utf-8"?><svg version="1.1" id="Layer_1" xmlns="http://www.w3.org/2000/svg" xmlns:xlink="http://www.w3.org/1999/xlink" x="0px" y="0px" viewBox="0 0 109.33 122.88" style="enable-background:new 0 0 109.33 122.88" xml:space="preserve"><style type="text/css">.st0{fill-rule:evenodd;clip-rule:evenodd;fill:#262626;} .st1{fill-rule:evenodd;clip-rule:evenodd;fill:#FF0000;} .st2{fill:#FFFFFF;}</style><g><path class="st0" d="M82.28,105.34h-10.8V90.47H56.14v14.86H45l18.64,17.55L82.28,105.34L82.28,105.34z M102.4,33.95H83.61 c-1.98,0-4.73-1.06-6.03-2.36c-1.3-1.3-2.09-3.65-2.09-5.61V6.95l0,0H25.83c-0.16,0-0.29,0.08-0.37,0.16 c-0.14,0.09-0.18,0.21-0.18,0.38v87.74c0,0.12,0.09,0.29,0.16,0.37c0.09,0.13,0.26,0.16,0.38,0.16h12.96 c-1.03,2.16-1.79,4.49-2.23,6.91H23.7c-1.46,0-2.76-0.58-3.73-1.55c-0.96-0.96-1.54-2.26-1.54-3.73V5.32 c0-1.46,0.59-2.76,1.54-3.73c0.97-0.97,2.31-1.55,3.73-1.55h55.31C79.13,0,79.25,0,79.38,0c0.58,0,1.18,0.25,1.59,0.62h0.08 c0.09,0.05,0.13,0.09,0.21,0.16l27.27,27.61c0.46,0.46,0.8,1.09,0.8,1.8c0,0.21-0.04,0.37-0.08,0.6c0,25.22,0,41.39,0,66.61 c0,1.46-0.59,2.77-1.55,3.73c-0.97,0.96-2.27,1.55-3.73,1.55H90c-0.44-2.43-1.19-4.75-2.23-6.91h14.07c0.16,0,0.16-0.09,0.25-0.16 c0.13-0.09,0.3-0.26,0.3-0.37C102.39,71.78,102.4,57.39,102.4,33.95L102.4,33.95z M81.73,25.43V8.12l19.49,19.74H84.16 c-0.67,0-1.26-0.29-1.72-0.71C82.01,26.74,81.73,26.1,81.73,25.43L81.73,25.43L81.73,25.43z"/><polygon class="st1" points="0,38.51 88.91,38.51 88.91,81.22 0,81.22 0,38.51"/><path class="st2" d="M11.89,48.47h18.96v4.87H18.99v3.62H30v4.65H18.99v4.49H31.2v5.16H11.89V48.47L11.89,48.47z M34.66,48.47 h11.76c2.56,0,4.48,0.6,5.75,1.82c1.27,1.22,1.91,2.94,1.91,5.17c0,2.3-0.69,4.1-2.08,5.4c-1.39,1.29-3.51,1.94-6.37,1.94h-3.87 v8.46h-7.11V48.47L34.66,48.47z M41.77,58.19h1.73c1.36,0,2.32-0.23,2.87-0.71c0.55-0.47,0.83-1.07,0.83-1.81 c0-0.72-0.24-1.33-0.72-1.82c-0.47-0.5-1.38-0.75-2.7-0.75h-2.02V58.19L41.77,58.19z M56.24,63.72l6.73-0.42 c0.14,1.09,0.44,1.92,0.89,2.49c0.73,0.92,1.77,1.38,3.12,1.38c1.01,0,1.79-0.23,2.34-0.71c0.54-0.47,0.82-1.02,0.82-1.64 c0-0.59-0.26-1.12-0.78-1.59c-0.52-0.47-1.73-0.91-3.63-1.32c-3.1-0.7-5.32-1.61-6.64-2.76c-1.33-1.15-2-2.62-2-4.4 c0-1.17,0.34-2.28,1.02-3.32c0.68-1.04,1.71-1.86,3.08-2.46c1.37-0.59,3.25-0.89,5.63-0.89c2.93,0,5.16,0.54,6.7,1.62 c1.54,1.08,2.45,2.81,2.74,5.17l-6.67,0.39c-0.18-1.02-0.55-1.77-1.12-2.24c-0.57-0.46-1.35-0.7-2.35-0.7 c-0.83,0-1.44,0.18-1.86,0.52c-0.42,0.35-0.62,0.77-0.62,1.27c0,0.36,0.17,0.68,0.51,0.98c0.34,0.3,1.13,0.58,2.38,0.84 c3.09,0.66,5.31,1.34,6.64,2.02c1.34,0.68,2.31,1.52,2.92,2.53c0.61,1,0.91,2.13,0.91,3.37c0,1.46-0.41,2.81-1.22,4.04 c-0.82,1.24-1.95,2.17-3.41,2.81c-1.46,0.64-3.29,0.96-5.51,0.96c-3.9,0-6.59-0.75-8.09-2.24C57.29,67.92,56.44,66.02,56.24,63.72 L56.24,63.72z"/></g></svg>