<?xml version="1.0" encoding="utf-8"?><svg version="1.1" id="Layer_1" xmlns="http://www.w3.org/2000/svg" xmlns:xlink="http://www.w3.org/1999/xlink" x="0px" y="0px" viewBox="0 0 109.334 122.88" enable-background="new 0 0 109.334 122.88" xml:space="preserve"><g><path fill-rule="evenodd" clip-rule="evenodd" fill="#262626" d="M82.281,105.335H71.484V90.471H56.139v14.864H44.995 l18.638,17.545L82.281,105.335L82.281,105.335z M102.4,33.95H83.613c-1.979,0-4.729-1.063-6.025-2.361 c-1.299-1.302-2.09-3.648-2.09-5.613V6.947l0,0H25.826c-0.164,0-0.292,0.079-0.371,0.164c-0.136,0.093-0.178,0.207-0.178,0.378 v87.735c0,0.121,0.085,0.285,0.164,0.37c0.085,0.129,0.257,0.165,0.378,0.165h12.959c-1.034,2.164-1.787,4.486-2.229,6.914H23.697 c-1.462,0-2.76-0.584-3.733-1.548c-0.963-0.955-1.541-2.264-1.541-3.727V5.317c0-1.462,0.592-2.76,1.541-3.727 c0.974-0.97,2.307-1.548,3.733-1.548H79.01C79.131,0,79.252,0,79.381,0c0.584,0,1.178,0.25,1.59,0.62h0.08 c0.084,0.05,0.127,0.086,0.213,0.164l27.271,27.606c0.463,0.464,0.799,1.091,0.799,1.804c0,0.21-0.043,0.375-0.08,0.596 c0,25.22,0,41.389,0,66.608c0,1.463-0.592,2.771-1.547,3.727c-0.967,0.964-2.271,1.548-3.727,1.548H90.002 c-0.441-2.428-1.193-4.75-2.229-6.914h14.07c0.164,0,0.158-0.086,0.25-0.165c0.129-0.085,0.299-0.256,0.299-0.37 C102.393,71.779,102.4,57.394,102.4,33.95L102.4,33.95z M81.729,25.427V8.124l19.488,19.739H84.156c-0.67,0-1.26-0.292-1.723-0.713 C82.012,26.735,81.729,26.104,81.729,25.427L81.729,25.427L81.729,25.427z"/><polygon fill-rule="evenodd" clip-rule="evenodd" fill="#FF0000" points="0,38.515 88.908,38.515 88.908,81.223 0,81.223 0,38.515"/><path fill="#FFFFFF" d="M9.981,48.469H21.71c2.555,0,4.468,0.605,5.743,1.822c1.27,1.217,1.907,2.948,1.907,5.195 c0,2.306-0.696,4.112-2.082,5.408c-1.387,1.301-3.506,1.95-6.354,1.95h-3.867v8.446H9.981V48.469L9.981,48.469z M17.057,58.222 h1.737c1.371,0,2.332-0.239,2.885-0.712c0.552-0.473,0.829-1.078,0.829-1.817c0-0.717-0.239-1.322-0.722-1.822 c-0.479-0.5-1.381-0.749-2.709-0.749h-2.019V58.222L17.057,58.222z"/><polygon fill="#FFFFFF" points="33.062,48.469 40.106,48.469 40.106,56.438 47.819,56.438 47.819,48.469 54.895,48.469 54.895,71.29 47.819,71.29 47.819,62.047 40.106,62.047 40.106,71.29 33.062,71.29 33.062,48.469"/><path fill="#FFFFFF" d="M59.549,48.469h11.729c2.555,0,4.467,0.605,5.742,1.822c1.27,1.217,1.908,2.948,1.908,5.195 c0,2.306-0.697,4.112-2.084,5.408c-1.385,1.301-3.506,1.95-6.352,1.95h-3.869v8.446h-7.074V48.469L59.549,48.469z M66.623,58.222 h1.738c1.371,0,2.332-0.239,2.885-0.712s0.828-1.078,0.828-1.817c0-0.717-0.238-1.322-0.723-1.822 c-0.479-0.5-1.381-0.749-2.709-0.749h-2.02V58.222L66.623,58.222z"/></g></svg>