<?xml version="1.0" encoding="utf-8"?><svg version="1.1" id="Layer_1" xmlns="http://www.w3.org/2000/svg" xmlns:xlink="http://www.w3.org/1999/xlink" x="0px" y="0px" viewBox="0 0 109.33 122.88" style="enable-background:new 0 0 109.33 122.88" xml:space="preserve"><style type="text/css"><![CDATA[
	.st0{fill:#FFFFFF;}
	.st1{fill-rule:evenodd;clip-rule:evenodd;fill:#262626;}
	.st2{fill-rule:evenodd;clip-rule:evenodd;fill:#FF0000;}
]]></style><g><path class="st1" d="M82.28,105.33h-10.8V90.47H56.14v14.86H44.99l18.64,17.54L82.28,105.33L82.28,105.33z M102.4,33.95H83.61 c-1.98,0-4.73-1.06-6.03-2.36c-1.3-1.3-2.09-3.65-2.09-5.61V6.95l0,0H25.83c-0.16,0-0.29,0.08-0.37,0.16 c-0.14,0.09-0.18,0.21-0.18,0.38v87.73c0,0.12,0.09,0.29,0.16,0.37c0.09,0.13,0.26,0.17,0.38,0.17h12.96 c-1.03,2.16-1.79,4.49-2.23,6.91H23.7c-1.46,0-2.76-0.58-3.73-1.55c-0.96-0.96-1.54-2.26-1.54-3.73V5.32 c0-1.46,0.59-2.76,1.54-3.73c0.97-0.97,2.31-1.55,3.73-1.55h55.31C79.13,0,79.25,0,79.38,0c0.58,0,1.18,0.25,1.59,0.62h0.08 c0.08,0.05,0.13,0.09,0.21,0.16l27.27,27.61c0.46,0.46,0.8,1.09,0.8,1.8c0,0.21-0.04,0.37-0.08,0.6c0,25.22,0,41.39,0,66.61 c0,1.46-0.59,2.77-1.55,3.73c-0.97,0.96-2.27,1.55-3.73,1.55H90c-0.44-2.43-1.19-4.75-2.23-6.91h14.07c0.16,0,0.16-0.09,0.25-0.17 c0.13-0.08,0.3-0.26,0.3-0.37C102.39,71.78,102.4,57.39,102.4,33.95L102.4,33.95z M81.73,25.43V8.12l19.49,19.74H84.16 c-0.67,0-1.26-0.29-1.72-0.71C82.01,26.74,81.73,26.1,81.73,25.43L81.73,25.43L81.73,25.43z"/><polygon class="st2" points="0,38.51 88.91,38.51 88.91,81.22 0,81.22 0,38.51"/><path class="st0" d="M8.63,71.27v-22.8h11.79c2.19,0,3.86,0.19,5.01,0.56c1.16,0.37,2.09,1.07,2.8,2.07 c0.71,1.01,1.06,2.25,1.06,3.7c0,1.26-0.27,2.36-0.82,3.27c-0.54,0.92-1.28,1.67-2.24,2.24c-0.6,0.36-1.43,0.66-2.48,0.9 c0.84,0.28,1.46,0.56,1.84,0.84c0.26,0.19,0.63,0.59,1.13,1.2c0.49,0.61,0.82,1.08,0.99,1.42l3.44,6.58h-8l-3.78-6.95 c-0.48-0.9-0.91-1.49-1.28-1.76c-0.51-0.35-1.09-0.53-1.74-0.53h-0.62v9.23H8.63L8.63,71.27z M15.73,57.74h2.99 c0.32,0,0.95-0.11,1.88-0.31c0.47-0.09,0.85-0.33,1.15-0.72c0.3-0.39,0.45-0.83,0.45-1.33c0-0.74-0.23-1.31-0.7-1.7 c-0.47-0.4-1.35-0.59-2.64-0.59h-3.11V57.74L15.73,57.74z M47.19,67.51h-8.02l-1.15,3.76h-7.22l8.62-22.8h7.75l8.58,22.8h-7.41 L47.19,67.51L47.19,67.51z M45.69,62.57l-2.5-8.19l-2.51,8.19H45.69L45.69,62.57z M57.76,71.27v-22.8h11.79 c2.19,0,3.86,0.19,5.01,0.56c1.16,0.37,2.09,1.07,2.8,2.07c0.71,1.01,1.06,2.25,1.06,3.7c0,1.26-0.27,2.36-0.82,3.27 c-0.54,0.92-1.28,1.67-2.24,2.24c-0.6,0.36-1.44,0.66-2.48,0.9c0.84,0.28,1.46,0.56,1.84,0.84c0.25,0.19,0.63,0.59,1.13,1.2 c0.49,0.61,0.82,1.08,0.99,1.42l3.44,6.58h-8l-3.78-6.95c-0.48-0.9-0.91-1.49-1.28-1.76c-0.51-0.35-1.09-0.53-1.74-0.53h-0.63v9.23 H57.76L57.76,71.27z M64.86,57.74h2.99c0.32,0,0.95-0.11,1.88-0.31c0.47-0.09,0.85-0.33,1.14-0.72c0.3-0.39,0.45-0.83,0.45-1.33 c0-0.74-0.23-1.31-0.7-1.7c-0.47-0.4-1.35-0.59-2.64-0.59h-3.12V57.74L64.86,57.74z"/></g></svg>