<?xml version="1.0" encoding="utf-8"?><svg version="1.1" id="Layer_1" xmlns="http://www.w3.org/2000/svg" xmlns:xlink="http://www.w3.org/1999/xlink" x="0px" y="0px" viewBox="0 0 109.34 122.89" style="enable-background:new 0 0 109.34 122.89" xml:space="preserve"><style type="text/css"><![CDATA[
	.st0{fill:#FFFFFF;}
	.st1{fill-rule:evenodd;clip-rule:evenodd;fill:#262626;}
	.st2{fill-rule:evenodd;clip-rule:evenodd;fill:#FF0000;}
]]></style><g><path class="st1" d="M82.29,105.34h-10.8V90.48H56.14v14.87H45l18.64,17.54L82.29,105.34L82.29,105.34z M102.41,33.95H83.62 c-1.98,0-4.73-1.06-6.03-2.36c-1.3-1.3-2.09-3.65-2.09-5.61V6.95l0,0H25.83c-0.16,0-0.29,0.08-0.37,0.16 c-0.14,0.09-0.18,0.21-0.18,0.38v87.74c0,0.12,0.09,0.29,0.16,0.37c0.09,0.13,0.26,0.16,0.38,0.16h12.96 c-1.03,2.17-1.79,4.49-2.23,6.92H23.7c-1.46,0-2.76-0.58-3.73-1.55c-0.96-0.96-1.54-2.27-1.54-3.73V5.32 c0-1.46,0.59-2.76,1.54-3.73c0.97-0.97,2.31-1.55,3.73-1.55h55.32C79.14,0,79.26,0,79.39,0c0.58,0,1.18,0.25,1.59,0.62h0.08 c0.09,0.05,0.13,0.09,0.21,0.16l27.27,27.61c0.46,0.46,0.8,1.09,0.8,1.8c0,0.21-0.04,0.37-0.08,0.6c0,25.22,0,41.39,0,66.61 c0,1.46-0.59,2.77-1.55,3.73c-0.96,0.96-2.27,1.55-3.73,1.55H90.01c-0.44-2.43-1.19-4.75-2.23-6.92h14.07 c0.16,0,0.16-0.08,0.25-0.16c0.13-0.08,0.3-0.26,0.3-0.37C102.4,71.79,102.41,57.4,102.41,33.95L102.41,33.95z M81.73,25.43V8.12 l19.49,19.74H84.16c-0.67,0-1.26-0.29-1.72-0.71C82.02,26.74,81.73,26.11,81.73,25.43L81.73,25.43L81.73,25.43z"/><polygon class="st2" points="0,38.52 88.91,38.52 88.91,81.23 0,81.23 0,38.52"/><path class="st0" d="M8.88,48.67h9.34l3.56,13.87l3.57-13.87h9.29v22.8h-5.79V54.08l-4.47,17.38h-5.25l-4.46-17.38v17.38H8.88 V48.67L8.88,48.67z M38.79,48.67h11.77c2.56,0,4.48,0.6,5.76,1.82c1.28,1.22,1.91,2.95,1.91,5.19c0,2.3-0.7,4.11-2.09,5.4 c-1.39,1.3-3.52,1.95-6.38,1.95h-3.88v8.44h-7.1V48.67L38.79,48.67z M45.89,58.41h1.74c1.38,0,2.34-0.24,2.9-0.71 s0.83-1.08,0.83-1.81c0-0.72-0.24-1.32-0.73-1.82c-0.48-0.5-1.39-0.75-2.72-0.75h-2.03V58.41L45.89,58.41z M71.62,67.2H60.04v-5.21 l11.58-13.71h5.53v14.01h2.88v4.9h-2.88v4.27h-5.53V67.2L71.62,67.2z M71.62,62.29V55.1l-6.12,7.19H71.62L71.62,62.29z"/></g></svg>