<?xml version="1.0" encoding="utf-8"?><svg version="1.1" id="Layer_1" xmlns="http://www.w3.org/2000/svg" xmlns:xlink="http://www.w3.org/1999/xlink" x="0px" y="0px" viewBox="0 0 109.33 122.88" style="enable-background:new 0 0 109.33 122.88" xml:space="preserve"><style type="text/css"><![CDATA[
	.st0{fill:#FFFFFF;}
	.st1{fill-rule:evenodd;clip-rule:evenodd;fill:#262626;}
	.st2{fill-rule:evenodd;clip-rule:evenodd;fill:#FF0000;}
]]></style><g><path class="st1" d="M82.28,105.33h-10.8V90.47H56.14v14.86H45l18.64,17.54L82.28,105.33L82.28,105.33z M102.4,33.95H83.61 c-1.98,0-4.73-1.06-6.03-2.36c-1.3-1.3-2.09-3.65-2.09-5.61V6.95l0,0H25.83c-0.16,0-0.29,0.08-0.37,0.16 c-0.14,0.09-0.18,0.21-0.18,0.38v87.74c0,0.12,0.09,0.29,0.16,0.37c0.09,0.13,0.26,0.16,0.38,0.16h12.96 c-1.03,2.17-1.79,4.49-2.23,6.92H23.7c-1.46,0-2.76-0.59-3.73-1.55c-0.96-0.96-1.54-2.26-1.54-3.73V5.32 c0-1.46,0.59-2.76,1.54-3.73c0.97-0.97,2.31-1.55,3.73-1.55h55.31C79.13,0,79.25,0,79.38,0c0.58,0,1.18,0.25,1.59,0.62h0.08 c0.09,0.05,0.13,0.09,0.21,0.16l27.27,27.61c0.46,0.46,0.8,1.09,0.8,1.8c0,0.21-0.04,0.37-0.08,0.6c0,25.22,0,41.39,0,66.61 c0,1.46-0.59,2.77-1.55,3.73c-0.97,0.96-2.27,1.55-3.73,1.55H90c-0.44-2.43-1.19-4.75-2.23-6.92h14.07c0.16,0,0.16-0.08,0.25-0.16 c0.13-0.08,0.3-0.26,0.3-0.37C102.39,71.78,102.4,57.39,102.4,33.95L102.4,33.95z M81.73,25.43V8.12l19.49,19.74H84.16 c-0.67,0-1.26-0.29-1.72-0.71C82.01,26.74,81.73,26.1,81.73,25.43L81.73,25.43L81.73,25.43z"/><polygon class="st2" points="0,38.51 88.91,38.51 88.91,81.22 0,81.22 0,38.51"/><path class="st0" d="M28.41,63.02v-4.74h10.94v9.7c-2.1,1.42-3.95,2.39-5.55,2.91c-1.61,0.52-3.52,0.77-5.73,0.77 c-2.72,0-4.94-0.46-6.65-1.38c-1.71-0.92-3.04-2.29-3.98-4.12c-0.94-1.82-1.41-3.92-1.41-6.28c0-2.49,0.52-4.65,1.55-6.49 c1.03-1.84,2.54-3.23,4.53-4.19c1.55-0.74,3.64-1.1,6.27-1.1c2.53,0,4.42,0.23,5.67,0.68c1.26,0.46,2.3,1.16,3.12,2.12 s1.45,2.18,1.87,3.65l-6.81,1.22c-0.28-0.86-0.76-1.53-1.43-1.98c-0.67-0.46-1.53-0.69-2.57-0.69c-1.55,0-2.78,0.54-3.71,1.61 c-0.92,1.07-1.38,2.77-1.38,5.09c0,2.46,0.46,4.22,1.4,5.28c0.93,1.05,2.23,1.59,3.89,1.59c0.79,0,1.54-0.11,2.26-0.34 c0.71-0.23,1.54-0.62,2.46-1.16v-2.13H28.41L28.41,63.02z M43.51,48.47h7.1v22.8h-7.1V48.47L43.51,48.47z M55.38,48.47h17.5v4.9 h-10.4v3.98h8.89v4.62h-8.89v9.3h-7.1V48.47L55.38,48.47z"/></g></svg>