<?xml version="1.0" encoding="utf-8"?><svg version="1.1" id="Layer_1" xmlns="http://www.w3.org/2000/svg" xmlns:xlink="http://www.w3.org/1999/xlink" x="0px" y="0px" viewBox="0 0 112.7 122.88" style="enable-background:new 0 0 112.7 122.88" xml:space="preserve"><style type="text/css"><![CDATA[
	.st0{fill:#FFFFFF;}
	.st1{fill-rule:evenodd;clip-rule:evenodd;fill:#262626;}
	.st2{fill-rule:evenodd;clip-rule:evenodd;fill:#FF0000;}
]]></style><g><path class="st1" d="M85.64,105.33h-10.8V90.47H59.5v14.86H48.36l18.64,17.54L85.64,105.33L85.64,105.33z M105.76,33.95H86.97 c-1.98,0-4.73-1.06-6.03-2.36c-1.3-1.3-2.09-3.65-2.09-5.61V6.95l0,0H29.19c-0.16,0-0.29,0.08-0.37,0.16 c-0.14,0.09-0.18,0.21-0.18,0.38v87.73c0,0.12,0.09,0.29,0.16,0.37c0.09,0.13,0.26,0.17,0.38,0.17h12.96 c-1.03,2.16-1.79,4.49-2.23,6.91H27.06c-1.46,0-2.76-0.58-3.73-1.55c-0.96-0.96-1.54-2.26-1.54-3.73V5.32 c0-1.46,0.59-2.76,1.54-3.73c0.97-0.97,2.31-1.55,3.73-1.55h55.31C82.49,0,82.61,0,82.74,0c0.58,0,1.18,0.25,1.59,0.62h0.08 c0.08,0.05,0.13,0.09,0.21,0.16l27.27,27.61c0.46,0.46,0.8,1.09,0.8,1.8c0,0.21-0.04,0.37-0.08,0.6c0,25.22,0,41.39,0,66.61 c0,1.46-0.59,2.77-1.55,3.73c-0.97,0.96-2.27,1.55-3.73,1.55H93.36c-0.44-2.43-1.19-4.75-2.23-6.91h14.07 c0.16,0,0.16-0.09,0.25-0.17c0.13-0.08,0.3-0.26,0.3-0.37C105.75,71.78,105.76,57.39,105.76,33.95L105.76,33.95z M85.09,25.43V8.12 l19.49,19.74H87.52c-0.67,0-1.26-0.29-1.72-0.71C85.37,26.74,85.09,26.1,85.09,25.43L85.09,25.43L85.09,25.43z"/><polygon class="st2" points="0,38.51 112.62,38.51 112.62,81.22 0,81.22 0,38.51"/><polygon class="st0" points="8.56,48.47 15.63,48.47 15.63,56.43 23.37,56.43 23.37,48.47 30.47,48.47 30.47,71.27 23.37,71.27 23.37,62.03 15.63,62.03 15.63,71.27 8.56,71.27 8.56,48.47"/><polygon class="st0" points="32.73,48.47 54.25,48.47 54.25,54.11 47.02,54.11 47.02,71.27 39.96,71.27 39.96,54.11 32.73,54.11 32.73,48.47"/><polygon class="st0" points="56.51,48.47 65.85,48.47 69.4,62.34 72.97,48.47 82.26,48.47 82.26,71.27 76.47,71.27 76.47,53.89 72.01,71.27 66.76,71.27 62.3,53.89 62.3,71.27 56.51,71.27 56.51,48.47"/><polygon class="st0" points="85.92,48.47 92.99,48.47 92.99,65.66 104.05,65.66 104.05,71.27 85.92,71.27 85.92,48.47"/></g></svg>