<svg xmlns="http://www.w3.org/2000/svg"  viewBox="0 0 333333 333333" shape-rendering="geometricPrecision" text-rendering="geometricPrecision" image-rendering="optimizeQuality" fill-rule="evenodd" clip-rule="evenodd"><path d="M166667 0c46023 0 87690 18655 117851 48816s48816 71828 48816 117851-18655 87690-48816 117851-71828 48816-117851 48816-87690-18655-117851-48816S0 212690 0 166667 18655 78977 48816 48816 120644 0 166667 0zm0 250565c-46267 0-83898-37625-83898-83898 0-46272 37618-83898 83898-83898 46267 0 83898 37618 83898 83898s-37625 83898-83898 83898zm70755-72422c-2452-787-22193-6649-44635-3053 9373 25755 13173 46731 13929 51094 16056-10875 27529-28087 30707-48042h-1zm-42765 54595c-1081-6296-5211-28189-15267-54334-168 66-325 96-461 167-40436 14093-54962 42118-56232 44737 12157 9469 27436 15145 43985 15145 9933 0 19404-2034 27990-5704l-16-11h1zm-81247-18060c1638-2790 21302-35330 58236-47285 922-291 1867-586 2821-848-1803-4069-3766-8156-5800-12155-35751 10718-70493 10256-73639 10225-33 726-33 1447-33 2193 0 18382 6986 35193 18415 47883v-13zm-16873-62596c3211 31 32741 164 66268-8717-11857-21109-24676-38863-26575-41455-20060 9466-35070 27959-39683 50172h-10zm53353-54983c1970 2650 15006 20388 26743 41947 25496-9534 36274-24061 37557-25894-12650-11241-29301-18059-47519-18059-5766 31-11411 724-16777 2001l-3 6h-1zm72267 24379c-1511 2031-13542 17440-40021 28254 1666 3406 3279 6881 4751 10393 523 1248 1049 2452 1541 3700 23857-2976 47549 1806 49912 2295-168-16905-6231-32446-16193-44635l9-6 1-1zm51139-61439c-27287-27287-64987-44165-106628-44165-41642 0-79341 16878-106628 44165s-44165 64987-44165 106628c0 41642 16878 79341 44165 106628s64987 44165 106628 44165c41642 0 79341-16878 106628-44165s44165-64987 44165-106628c0-41642-16878-79341-44165-106628z" fill="#ea4c89" fill-rule="nonzero"/></svg>