<svg xmlns="http://www.w3.org/2000/svg" viewBox="0 0 3333 3333" shape-rendering="geometricPrecision" text-rendering="geometricPrecision" image-rendering="optimizeQuality" fill-rule="evenodd" clip-rule="evenodd"><path d="M1667 0c920 0 1667 746 1667 1667 0 920-746 1667-1667 1667C747 3334 0 2588 0 1667 0 747 746 0 1667 0zm0 2677c-557 0-1010-453-1010-1010S1110 657 1667 657s1010 453 1010 1010-453 1010-1010 1010zm852-872c-30-9-267-80-537-37 113 310 159 563 168 615 193-131 331-338 370-578zm-515 657c-13-76-63-339-184-654-2 1-4 1-6 2-487 170-662 507-677 539 146 114 330 182 530 182 120 0 234-24 337-69zm-978-217c20-34 257-425 701-569 11-4 22-7 34-10-22-49-45-98-70-146-431 129-849 124-887 123v26c0 221 84 424 222 577zm-203-754c39 0 394 2 798-105-143-254-297-468-320-499-242 114-422 337-478 604zm642-662c24 32 181 246 322 505 307-115 437-290 452-312-152-135-353-217-572-217-69 0-137 9-202 24zm870 294c-18 24-163 210-482 340 20 41 39 83 57 125 6 15 13 30 19 45 287-36 573 22 601 28-2-204-75-391-195-537z"/></svg>