<?xml version="1.0" encoding="utf-8"?>
<!-- Generator: Adobe Illustrator 16.0.0, SVG Export Plug-In . SVG Version: 6.00 Build 0)  -->
<!DOCTYPE svg PUBLIC "-//W3C//DTD SVG 1.1//EN" "http://www.w3.org/Graphics/SVG/1.1/DTD/svg11.dtd">
<svg version="1.1" id="Layer_1" xmlns="http://www.w3.org/2000/svg" xmlns:xlink="http://www.w3.org/1999/xlink" x="0px" y="0px"
	 width="78.96px" height="122.88px" viewBox="0 0 78.96 122.88" style="enable-background:new 0 0 78.96 122.88;"
	 xml:space="preserve">
<style type="text/css">
<![CDATA[
	.st0{fill-rule:evenodd;clip-rule:evenodd;}
]]>
</style>
<g>
	<path class="st0" d="M45.03,73.58h18.75c3.97,0,7.22,3.25,7.22,7.22v7.22h-0.08v28.24c0,3.97-3.25,6.44-7.22,6.44h-7.22V90.63
		c0-2.98,0.56-2.62-2.31-2.62H35.6v-0.04h-9.26c-5.98,0-10.86-4.88-10.86-10.86V45.68c0-6.08,4.97-11.04,11.04-11.04l5.47,0
		c7.69,0,9.36,3.59,11.19,7.43l9.78,4.69c6.69,3.01,4.96,3.61,9.5-2.01l1.64-2.03c-2.63-1.67-5.62-3.62-7.7-8.12
		c-1.54-3.09-2.03-4.62-4.66-6.93c-1.17,1.2-3.22-0.16-2.12-1.62c0.49-0.65,2.66-3.17,3.19-3.64c1.38-1.21,2.92,0.41,1.85,1.93
		c2.63,2.31,4.25,2.54,7.52,3.67c5.58,1.74,7.88,5.08,10.22,7.64c2.63,0.14,5.55,1.86,6.35,4.55c0.18,0.3,0.26,0.64,0.19,1.03
		c0.11,1.24-0.23,2.65-1.19,4.17L69.2,57.06c-3.56,4.86-8.3,5.55-14.03,3.16l-9.97-3.51C45.2,63.75,45.15,66.54,45.03,73.58
		L45.03,73.58z M62.91,34.5c0.73-0.83,1.99-0.91,2.81-0.18c0.83,0.73,0.91,1.99,0.19,2.81c-0.73,0.83-1.99,0.91-2.82,0.18
		C62.26,36.59,62.18,35.33,62.91,34.5L62.91,34.5L62.91,34.5z M64.25,41.88c-1.98-1.45-4-3.13-5.6-5.38l5.57-6.35
		c2.44,1.3,4.37,3.08,6.07,4.85L64.25,41.88L64.25,41.88L64.25,41.88z M2,53h5.27c1.07,0,1.78,0.89,1.95,1.95
		c2,12.54,3.07,25.09,3.01,37.63h36.03c1.42,0,2.58,1.16,2.58,2.58v5.22h-2.06v21.54c0,0.43-0.36,0.79-0.79,0.79h-6.9
		c-0.43,0-0.79-0.35-0.79-0.79v-11.62H10.81c-0.43,3.54-0.96,7.08-1.59,10.62c-0.19,1.06-0.88,1.95-1.95,1.95H2
		c-1.07,0-2.26-0.92-1.95-1.95C7,96.76,5.54,78.3,0.05,54.95C-0.21,53.9,0.92,53,2,53L2,53L2,53z M40.29,106.71v-6.31H12.11
		c-0.16,4.88-0.5,1.43-1.02,6.33h29.19V106.71L40.29,106.71z M31.65,0c8.34,0,15.11,6.77,15.11,15.11s-6.77,15.11-15.11,15.11
		s-15.11-6.77-15.11-15.11C16.55,6.77,23.31,0,31.65,0L31.65,0L31.65,0z"/>
</g>
</svg>
