<svg id="Layer_1" data-name="Layer 1" xmlns="http://www.w3.org/2000/svg" viewBox="0 0 110.32 122.88"><defs><style>.cls-1{fill-rule:evenodd;}</style></defs><title>dth-bill</title><path class="cls-1" d="M46.79,8ZM14.66,20h9.4l-2.25-3.91A1.27,1.27,0,0,1,23.71,15l2.89,5h1.14l5.14-8.62c1-.26,1.72-.07,1.9,1.09L30.3,20h9.87a1,1,0,0,1,.94.94V38.67a1,1,0,0,1-.94.94H14.66a1,1,0,0,1-.94-.94V20.94a1,1,0,0,1,.94-.94ZM35.38,36.08a1.23,1.23,0,1,1-1.22,1.23,1.23,1.23,0,0,1,1.22-1.23Zm-18.32.27h4.78a.26.26,0,0,1,.26.26V38a.26.26,0,0,1-.26.26H17.06A.26.26,0,0,1,16.8,38V36.61a.26.26,0,0,1,.26-.26Zm.5-13.13H37.27A.76.76,0,0,1,38,24V34.11a.76.76,0,0,1-.76.75H17.56a.76.76,0,0,1-.76-.75V24a.76.76,0,0,1,.76-.75ZM88.23,85.49H29.7V80.06H88.23v5.43Zm0-18H29.7v-5c1.17-.08,2.31-.21,3.44-.39H88.23v5.43Zm2.21-18H62.31V44H90.44v5.44ZM103,107.93l1.88,1.1V22.19H62.1a33.76,33.76,0,0,0-1.26-5.43h46.77a2.72,2.72,0,0,1,2.71,2.72v94.26a2.65,2.65,0,0,1-.37,1.36,2.7,2.7,0,0,1-3.7,1L102,113.64,93.11,122a2.7,2.7,0,0,1-3.68,0l-8.58-7.84-8.47,7.64a2.72,2.72,0,0,1-3.59,0l-8.92-7.74-8.21,8a2.71,2.71,0,0,1-3.75,0l-8.49-8-8.65,7.75a2.71,2.71,0,0,1-3.77,0l-8.81-8.38L14.06,116a2.68,2.68,0,0,1-1.52.47,2.72,2.72,0,0,1-2.72-2.72v-56a35.44,35.44,0,0,0,5.43,2.56V109l1.95-1.15a2.72,2.72,0,0,1,3.33.45l8.4,8,8.74-7.82a2.7,2.7,0,0,1,3.65.05l8.42,7.92,8.14-7.89a2.71,2.71,0,0,1,3.71-.07l8.94,7.76L79,108.55a2.72,2.72,0,0,1,3.8.16l8.38,7.67,8.58-8.08a2.71,2.71,0,0,1,3.21-.37ZM27.42,4.06A23.36,23.36,0,1,1,4.06,27.42,23.36,23.36,0,0,1,27.42,4.06ZM46.8,46.79Zm-38.75,0ZM8.05,8A27.38,27.38,0,1,1,0,27.42,27.31,27.31,0,0,1,8.05,8Z"/></svg>