<?xml version="1.0" encoding="utf-8"?><svg version="1.1" id="Layer_1" xmlns="http://www.w3.org/2000/svg" xmlns:xlink="http://www.w3.org/1999/xlink" x="0px" y="0px" viewBox="0 0 92.63 122.88" style="enable-background:new 0 0 92.63 122.88" xml:space="preserve"><g><path d="M39.86,54.33l-3.68-43.85c-0.01-0.14-0.01-0.28,0.01-0.41c0.28-4.71,2.87-7.78,6.13-9.19c1.38-0.6,2.88-0.89,4.38-0.88 c1.5,0.01,3,0.33,4.35,0.96c3.2,1.48,5.67,4.59,5.79,9.32c0,0.09,0,0.18-0.01,0.27l-4.3,43.75l13.57-0.04v0 c5.32-0.43,9.97,0.45,13.67,3.15c3.68,2.69,6.3,7.1,7.53,13.69c0.01,0.05,0.02,0.1,0.02,0.15h0l5.31,49.37 c0.12,1.12-0.69,2.12-1.81,2.24c-0.07,0.01-0.14,0.01-0.22,0.01v0H2.04c-1.13,0-2.04-0.91-2.04-2.04c0-0.11,0.01-0.22,0.03-0.33 l6.19-51.93c0.01-0.1,0.03-0.19,0.05-0.29c0.71-3.78,2.31-6.85,4.8-9.19c2.5-2.34,5.85-3.91,10.08-4.68 c0.15-0.03,0.3-0.04,0.45-0.03L39.86,54.33L39.86,54.33z M13.86,62.07c-1.85,1.74-3.05,4.06-3.6,6.97l0,0.02L4.34,118.8h83.99 l-5.06-47.05c-1.03-5.44-3.07-8.99-5.9-11.05c-2.83-2.07-6.57-2.73-10.96-2.37l0-0.01c-0.05,0-0.11,0.01-0.16,0.01l-44.52,0.13 C18.37,59.09,15.75,60.3,13.86,62.07L13.86,62.07z M79.59,113.55L74,77.49l-0.02-0.16c-0.21-2.8-0.94-4.9-2.26-6.22 c-1.28-1.28-3.23-1.91-5.93-1.81l-0.07,0.01H25.71c-1.93,0.17-3.54,0.73-4.77,1.8c-1.26,1.09-2.18,2.77-2.69,5.14l-5.2,37.52 l-4.04-0.56l5.21-37.59l0.02-0.14c0.7-3.35,2.08-5.78,4.01-7.46c1.95-1.7,4.39-2.57,7.23-2.8l0.16-0.01h40.07v0.01 c3.86-0.13,6.79,0.91,8.87,2.99c2.05,2.05,3.17,5.02,3.46,8.79l5.57,35.91L79.59,113.55L79.59,113.55z M43.92,53.91l4.55-0.09 l4.29-43.56c-0.11-2.88-1.56-4.74-3.42-5.6c-0.84-0.39-1.76-0.58-2.68-0.59c-0.93-0.01-1.86,0.17-2.72,0.55 c-1.95,0.85-3.5,2.73-3.69,5.66L43.92,53.91L43.92,53.91z"/></g></svg>