<svg id="Layer_1" data-name="Layer 1" xmlns="http://www.w3.org/2000/svg" viewBox="0 0 105.31 122.88"><title>duty-free</title><path d="M43.21,29.28H62.1c-1,1.8-2,1.93-2,4.13a12.47,12.47,0,0,0,.2,2.22H44a13.57,13.57,0,0,0,.19-2.22,6,6,0,0,0-1-4.13ZM29.54,96.16l-.09,3.15h1.84l3.15-.09.29.38-.32,4-3.49-.09H29.35v.36l.21,5.68H24.12l.27-5.14L24.12,92h11.7l.29.38-.35,4-4.33-.17Zm19,6.45q1.95,3,3.9,5.63l-.08.6a24.14,24.14,0,0,1-5.44,1l-.51-.44-.33-.67-.87-1.83c-.43-.93-.81-1.8-1.13-2.61H42.21l.19,5.22H37l.27-5.14L37,92l8.31,0a6.69,6.69,0,0,1,4.55,1.39,5,5,0,0,1,1.6,4,5.8,5.8,0,0,1-.77,2.9,7.35,7.35,0,0,1-2.16,2.33Zm-2.78-4.69a2.13,2.13,0,0,0-.56-1.61,2.77,2.77,0,0,0-1.8-.58l-1,.08-.11,4.52,2,.11a2.34,2.34,0,0,0,1.11-1,3,3,0,0,0,.36-1.57Zm20.53,7.26.29.38-.32,4H53.86l.27-5.14L53.86,92H66.43l.29.38-.35,4-4.3-.17H59.28l-.06,2.47H61.9l2.82-.08.3.38-.33,3.95-3.14-.08H59.11l0,1,0,1.51h2.6l4.5-.16Zm14.46,0,.3.38-.33,4H68.33l.27-5.14L68.33,92H80.89l.3.38-.35,4-4.31-.17H73.74l0,2.47h2.68l2.81-.08.3.38-.32,3.95L76,102.8H73.58l0,1,.06,1.51h2.6l4.49-.16ZM25.52,64.24a8.86,8.86,0,0,1,6.59,2.33q2.3,2.33,2.3,6.71,0,5.2-2.67,8t-7.66,2.79c-2.09,0-4.53-.08-7.33-.27l.3-5.7-.3-13.73,8.77-.12Zm-.3,15.35a2.4,2.4,0,0,0,2.14-1.13,6.93,6.93,0,0,0,.74-3.71,15.58,15.58,0,0,0-.3-3.45,3.31,3.31,0,0,0-1-1.82A2.76,2.76,0,0,0,25,68.93a21.25,21.25,0,0,0-2.26.12l-.21,8.44.06,1.86a22.63,22.63,0,0,0,2.62.24Zm27.72-5.38,0,3.1a6.22,6.22,0,0,1-2.22,5.07,9.79,9.79,0,0,1-6.28,1.77,9.07,9.07,0,0,1-6-1.77,6.05,6.05,0,0,1-2-5.07l.09-3.1-.18-9.85h6L42.07,76.5a3.19,3.19,0,0,0,.58,2.22,2.56,2.56,0,0,0,2,.69,2.65,2.65,0,0,0,2-.69,3.14,3.14,0,0,0,.6-2.22L47,64.36h6.13l-.21,9.85Zm17-9.43-.33,4.39-4-.18h-.36l-.15,8.5.24,6.3h-6l.3-5.7L59.52,69h-.39l-4,.18-.36-.42.33-4.39H69.61l.33.42ZM81.59,78.69l.24,5.1h-6l.3-5.1,0-.93-6.22-13.4h6.31L76.67,66l2.19,5.86h.36l2.52-5.65.69-1.83h6.13L81.65,77.55l-.06,1.14ZM32.54,27.58V24.23h0A19.38,19.38,0,0,1,51.81,4.93h0A19.38,19.38,0,0,1,71.14,24.22h0v3.49a5.89,5.89,0,1,0,5,.59V24.22h0A24.28,24.28,0,0,0,51.86,0h0a24.29,24.29,0,0,0-24.2,24.22h0V28.6a5.89,5.89,0,1,0,4.93-1Zm-20.2,1.7H19.7c-1,1.8-3.48,2.9-3.48,5.1a12.5,12.5,0,0,0,.19,2.23h-5.1L5.07,118h95.18L94,36.61H87.37a12.58,12.58,0,0,0,.19-2.23c0-2.2-2.51-3.28-3.48-5.1H93a5.57,5.57,0,0,1,4,1.66,5.91,5.91,0,0,1,1.72,3.77l6.61,82.15c0,.18,0,.32,0,.4a5.73,5.73,0,0,1-5.32,5.6l-.41,0H5.73l-.41,0A5.71,5.71,0,0,1,0,117.24c0-.07,0-.2,0-.39L6.64,34.7a6,6,0,0,1,1.71-3.77,5.68,5.68,0,0,1,4-1.65Z"/></svg>