<svg id="Layer_1" data-name="Layer 1" xmlns="http://www.w3.org/2000/svg" viewBox="0 0 122.88 70.42"><defs><style>.cls-1{fill-rule:evenodd;}</style></defs><title>e-invoice</title><path class="cls-1" d="M3.16,64.09H14.55A2.13,2.13,0,0,1,14,62.66V2.15A2.16,2.16,0,0,1,16.16,0h90a2.15,2.15,0,0,1,2.14,2.15V62.66a2.13,2.13,0,0,1-.54,1.43h12A3.11,3.11,0,0,1,122,65a3.17,3.17,0,0,1-2.23,5.4H3.16A3.16,3.16,0,0,1,.93,65a3.11,3.11,0,0,1,2.23-.93ZM83.28,49.36,86,50.7V10.22H36.28V50.69L39.1,49.3a1.09,1.09,0,0,1,1.28.23L45,54.16l4.73-4.51a1.1,1.1,0,0,1,1.53,0l4.57,4.56,4.42-4.55a1.1,1.1,0,0,1,1.53,0l4.86,4.48,4.61-4.42a1.09,1.09,0,0,1,1.53,0l4.62,4.49L82,49.56a1.1,1.1,0,0,1,1.28-.2ZM45.61,40.71l-.54-.07-.94-.13-.58-.1L43,40.3l-.54-.13-.22-.06V36.46l1,.08.76.05.79,0,.81,0h1.5a5,5,0,0,0,.59,0,2.66,2.66,0,0,0,.45-.07,1,1,0,0,0,.33-.11.53.53,0,0,0,.19-.13.4.4,0,0,0,.1-.15.88.88,0,0,0,0-.24V35.7a.49.49,0,0,0-.18-.42.64.64,0,0,0-.25-.12,1,1,0,0,0-.31,0H47a8.07,8.07,0,0,1-2.13-.26A4.29,4.29,0,0,1,43.27,34a3.4,3.4,0,0,1-1-1.5A6.64,6.64,0,0,1,42,30.36v-.67a5.38,5.38,0,0,1,.36-2,3.68,3.68,0,0,1,1.08-1.49,5.23,5.23,0,0,1,1.07-.71,4.34,4.34,0,0,1,1.15-.34V23.49H49V25c.55.05,1,.12,1.53.22l.28,0,.71.14.63.14.23.05V29.3l-.33,0-1-.08L50,29.14l-1.09,0h-1a4,4,0,0,0-.51,0l-.44.05a1.34,1.34,0,0,0-.32.1,1.1,1.1,0,0,0-.21.14.54.54,0,0,0-.11.18,1,1,0,0,0,0,.31v.2a1,1,0,0,0,0,.33.65.65,0,0,0,.16.21.87.87,0,0,0,.29.14,2.44,2.44,0,0,0,.51.05h1.32a6.29,6.29,0,0,1,1.35.14,4.42,4.42,0,0,1,1.14.43A3.83,3.83,0,0,1,52.59,33,4.25,4.25,0,0,1,53,34a4.94,4.94,0,0,1,.13,1.17v.66a7.72,7.72,0,0,1-.18,1.75,3.72,3.72,0,0,1-.54,1.33,3.63,3.63,0,0,1-.87.92,4.15,4.15,0,0,1-1.18.56l-.11,0a6.47,6.47,0,0,1-1.24.26v1.76H45.61V40.71Zm24.44-2.14a1.25,1.25,0,0,1,0,2.5H58.35a1.25,1.25,0,0,1,0-2.5Zm9-6.85a1.25,1.25,0,0,1,0,2.49H58.35a1.25,1.25,0,1,1,0-2.49Zm0-6.78a1.25,1.25,0,1,1,0,2.49H58.33a1.25,1.25,0,0,1,0-2.49ZM76.39,13.63a2.66,2.66,0,0,1,1.88.78,2.64,2.64,0,0,1,.79,1.89A2.66,2.66,0,0,1,76.39,19a2.68,2.68,0,0,1-2.68-2.67,2.68,2.68,0,0,1,2.68-2.67Zm-10.17,0a2.67,2.67,0,1,1,0,5.34,2.66,2.66,0,0,1-2.67-2.67,2.66,2.66,0,0,1,2.67-2.67Zm-10.16,0a2.66,2.66,0,0,1,2.67,2.67A2.66,2.66,0,0,1,56.06,19a2.67,2.67,0,0,1-1.89-.78,2.7,2.7,0,0,1-.78-1.89,2.66,2.66,0,0,1,2.67-2.67Zm-10.16,0a2.66,2.66,0,0,1,2.67,2.67A2.66,2.66,0,0,1,45.9,19a2.68,2.68,0,0,1-2.68-2.67A2.64,2.64,0,0,1,44,14.41a2.67,2.67,0,0,1,1.89-.78ZM86.65,53.44,83,51.67l-4.85,4.85a1.11,1.11,0,0,1-1.54,0L72,52,67.4,56.39a1.11,1.11,0,0,1-1.53,0L61,52l-4.46,4.6a1.1,1.1,0,0,1-1.56,0L50.43,52l-4.74,4.51a1.1,1.1,0,0,1-1.53,0l-4.8-4.85L35.75,53.4a1.1,1.1,0,0,1-1.66-.95V9.12A1.1,1.1,0,0,1,35.19,8H87.13a1.1,1.1,0,0,1,1.1,1.1V52.45a1.14,1.14,0,0,1-.12.48,1.09,1.09,0,0,1-1.46.51Zm-69-50.07h87.26V62.06H17.68V3.37ZM57.91,65.68H65a1.2,1.2,0,0,1,1.2,1.2h0A1.21,1.21,0,0,1,65,68.09H57.91a1.21,1.21,0,0,1-1.2-1.21h0a1.2,1.2,0,0,1,1.2-1.2Z"/></svg>