<svg id="Layer_1" data-name="Layer 1" xmlns="http://www.w3.org/2000/svg" viewBox="0 0 93.59 122.88"><title>ear-cotton-buds</title><path d="M18,82.49a29.24,29.24,0,0,0-8,3.35c-7.06,4-14.3,11-7,18.74,8,8.49,15.58.5,19.76-7.09a25.23,25.23,0,0,0,2.92-7.25L42.58,73.4V70.94l-18,18-5.29-5.28L42.58,60.37V57.91L18,82.49ZM51.11,64.87,75.6,40.38a25.83,25.83,0,0,0,7.25-2.92c7.59-4.19,15.58-11.74,7.09-19.76-7.76-7.33-14.72-.09-18.74,7a28.84,28.84,0,0,0-3.34,8L51,49.48l0,2.44,18-18,5.29,5.29L51.09,62.43l0,2.44Z"/><path d="M52.27,26.18a28.84,28.84,0,0,0,3.26-8C57.68,10.35,57.88.31,47.22,0c-11.68-.34-11.37,10.66-9,19a25.23,25.23,0,0,0,3.07,7.19V96.7a25.23,25.23,0,0,0-3.07,7.19c-2.4,8.32-2.71,19.32,9,19,10.66-.3,10.46-10.34,8.31-18.18a28.84,28.84,0,0,0-3.26-8V26.18Zm-9.21.06h7.47v70.4H43.06V26.24Z"/></svg>