<?xml version="1.0" encoding="utf-8"?><svg version="1.1" id="Layer_1" xmlns="http://www.w3.org/2000/svg" xmlns:xlink="http://www.w3.org/1999/xlink" x="0px" y="0px" viewBox="0 0 122.88 51.52" style="enable-background:new 0 0 122.88 51.52" xml:space="preserve"><style type="text/css">.st0{fill-rule:evenodd;clip-rule:evenodd;}</style><g><path class="st0" d="M122.88,0.04v10.44H97.89L93.55,0.04C107.95,0.04,108.46,0.04,122.88,0.04L122.88,0.04z M28.83,0.04 l-4.36,10.44H0V0.04C14.23,0.04,14.6,0.04,28.83,0.04L28.83,0.04z M108.15,51.52L87.54,0H72.3l1.74,1.51l-8.73,9.93l4.01,3.44 L56.63,29.06l11.57,8.53l-4.58,13.93H108.15L108.15,51.52z M64.79,0h-29L12.48,51.52h25.29L49.8,37.96l-6.43-6.5L59.6,14.61 l-3.09-3.09l10.06-9.63L64.79,0L64.79,0z M0,35.82h12.97l-7.12,15.7H0V35.82L0,35.82L0,35.82z M109.33,35.82h13.55v15.7h-6.46 L109.33,35.82L109.33,35.82L109.33,35.82z M0,17.8h21.13l-4.84,10.67H0V17.8L0,17.8L0,17.8z M101.21,17.8h21.67v10.67h-16.86 L101.21,17.8L101.21,17.8L101.21,17.8z"/></g></svg>