<?xml version="1.0" encoding="utf-8"?><svg version="1.1" id="Layer_1" xmlns="http://www.w3.org/2000/svg" xmlns:xlink="http://www.w3.org/1999/xlink" x="0px" y="0px" viewBox="0 0 122.88 90.29" style="enable-background:new 0 0 122.88 90.29" xml:space="preserve"><g><path d="M115.29,43.63L36.32,4.56l20.81,39.07H115.29L115.29,43.63L115.29,43.63z M10.75,32.31v11.51h0.56 c1.8,0,3.1-0.56,3.91-1.68c0.8-1.12,1.32-2.78,1.54-4.97h0.81v14.8h-0.81c-0.16-1.61-0.52-2.94-1.05-3.96 c-0.54-1.03-1.16-1.72-1.87-2.08c-0.71-0.35-1.74-0.53-3.09-0.53v7.95c0,1.56,0.06,2.5,0.2,2.85c0.13,0.35,0.38,0.63,0.74,0.85 c0.36,0.22,0.95,0.33,1.75,0.33h1.69c2.64,0,4.76-0.61,6.35-1.83c1.59-1.22,2.74-3.07,3.43-5.57h0.77l-1.27,8.98H0v-0.72h0.93 c0.82,0,1.48-0.15,1.98-0.44c0.36-0.2,0.64-0.53,0.83-1.01c0.15-0.33,0.23-1.21,0.23-2.64V35.51c0-1.29-0.04-2.08-0.11-2.37 C3.72,32.64,3.47,32.26,3.09,32c-0.53-0.39-1.24-0.59-2.16-0.59H0v-0.73h23.63v8.36h-0.81c-0.4-2.05-0.97-3.51-1.69-4.4 c-0.73-0.89-1.75-1.54-3.08-1.96c-0.77-0.25-2.22-0.38-4.36-0.38H10.75L10.75,32.31z M121.94,46.42L33.59,90.14 c-0.71,0.35-1.57,0.06-1.92-0.65c-0.22-0.43-0.19-0.91,0.03-1.31h-0.01l22.95-43.11L31.68,1.96L33.59,0l88.49,43.78v0.01 c0.48,0.23,0.8,0.71,0.8,1.28l0,0C122.88,45.67,122.51,46.21,121.94,46.42L121.94,46.42L121.94,46.42L121.94,46.42z"/></g></svg>