<svg xmlns="http://www.w3.org/2000/svg" shape-rendering="geometricPrecision" text-rendering="geometricPrecision" image-rendering="optimizeQuality" fill-rule="evenodd" clip-rule="evenodd" viewBox="0 0 512 342.68"><path d="M3.6 300.55c-2 0-3.6-1.61-3.6-3.6 0-1.02.14-2.03.39-3.03 5.76-45.65 41.51-57.84 66.86-64.42 12.69-3.29 44.26-15.82 31.69-33.04-7.05-9.67-13.45-16.47-19.83-26.68-4.62-6.81-7.05-12.88-7.05-17.75 0-5.19 2.75-11.27 8.27-12.64-.73-10.45-.98-24.2-.49-35.39 1.76-19.2 15.52-33.35 33.31-39.62 7.05-2.68 3.65-13.38 11.43-13.62 18.23-.49 48.14 15.07 59.81 27.71 6.81 7.3 11.18 17.02 11.91 29.91l-.73 32.22c3.4.98 5.6 3.16 6.57 6.56.98 3.89 0 9.25-3.4 16.79 0 .24-.25.24-.25.48-7.5 12.37-15.32 20.56-23.92 32.03-3.83 5.11-3.08 10.01.1 14.41-4.47 2.62-8.85 5.62-13.05 9.16-16.75 14.06-29.67 35.07-34.13 68.58l-.51 2.93c-.24 1.9-.38 3.48-.38 4.66 0 1.48.13 2.93.37 4.35H3.6zM428 174.68c46.41 0 84 37.62 84 84 0 46.4-37.61 84-84 84-46.4 0-83.99-37.62-83.99-84 0-46.41 37.61-84 83.99-84zm-4.56 107.06-29.21 7.78 4.2-31.35 25.01 23.57zm-18.56-30.68 30.66-34.68a2.6 2.6 0 0 1 1.91-.91c.47-.01.93.08 1.34.3L461.04 236c.45.41.71 1 .72 1.59.01.68-.27 1.34-.79 1.81l-31.17 35.22-24.96-23.56h.04zm-252.11 49.53c-2.43 0-4.39-1.96-4.39-4.39 0-1.25.17-2.48.48-3.7 7.02-55.71 40.42-67.83 71.32-75.78 14.85-3.82 44.44-18.71 40.85-37.91-7.48-6.94-14.91-16.53-16.21-30.83l-.9.02c-2.07-.03-4.08-.5-5.95-1.56-4.13-2.35-6.39-6.85-7.48-11.99-2.3-15.67-2.87-23.67 5.49-27.17l.06-.02c-1.03-19.34 2.24-47.79-17.62-53.8 39.2-48.44 84.4-74.8 118.33-31.7 37.81 1.98 54.67 55.54 31.2 85.52h-.99c8.35 3.5 7.09 12.49 5.48 27.17-1.09 5.14-3.36 9.64-7.49 11.99-1.86 1.06-3.87 1.53-5.94 1.56l-.9-.02c-1.3 14.3-8.75 23.89-16.23 30.83-1.02 5.43.62 10.52 3.83 15.11-14.05 17.82-22.43 40.31-22.43 64.76 0 14.89 3.11 29.07 8.73 41.91H152.77z"/></svg>