<?xml version="1.0" encoding="utf-8"?><svg version="1.1" id="Layer_1" xmlns="http://www.w3.org/2000/svg" xmlns:xlink="http://www.w3.org/1999/xlink" x="0px" y="0px" viewBox="0 0 114.3 122.88" style="enable-background:new 0 0 114.3 122.88" xml:space="preserve"><g><path d="M42.62,37c-0.4,0.35-0.98,0.29-1.32-0.14c-0.33-0.42-0.27-1.04,0.13-1.39c1.91-1.67,4.94-1.09,7.54-0.6 c1.09,0.21,2.1,0.4,2.79,0.37c0.51-0.02,0.95,0.41,0.97,0.95c0.02,0.54-0.39,1-0.9,1.03c-0.89,0.03-1.99-0.18-3.18-0.4 C46.44,36.4,43.87,35.91,42.62,37L42.62,37L42.62,37z M55.78,118.94V91.12c-2.18-3.26-5.7-5.44-9.68-6.73 c-4.51-1.46-9.58-1.79-13.99-1.26l-0.23,29.92c4.82-0.15,9.53,0.37,13.97,1.6C49.36,115.63,52.71,117.05,55.78,118.94L55.78,118.94 L55.78,118.94z M83.85,89.56c-0.01-0.08-0.02-0.17-0.02-0.27c0-0.09,0.01-0.18,0.02-0.27v-5.82c-4.81-0.39-9.78,0.06-14.11,1.45 c-4.05,1.3-7.54,3.44-9.81,6.51v28.11c3.53-2,7.14-3.64,10.85-4.76c4.23-1.28,8.57-1.88,13.07-1.58V89.56L83.85,89.56L83.85,89.56z M88.64,118.87c-4.34-0.86-8.65-1.39-12.93-1.41c-5.57-0.03-11.13,3.04-16.71,5.13c-0.35,0.19-0.76,0.3-1.19,0.29 c-0.42,0-0.83-0.1-1.19-0.29c-5.58-2.09-11.15-5.16-16.71-5.13c-4.32,0.02-8.66,0.56-13.04,1.43c0-4.72,0.09-8.74,0.22-12.44H0 c2.27-8.46,1.65-13.95,5.89-21.9c1.72-3.23,3.93-5.25,8.19-7.92c6.7-4.2,15.72-7.58,24.58-11c-1.32,6.92,1.11,11.65,5.29,14.52 c1.23,0.25,2.45,0.57,3.63,0.95c1.8,0.58,3.53,1.33,5.13,2.24c4.44,0.63,9.25,0.18,13.41-1.18c0.59-0.24,1.2-0.46,1.81-0.67 c6.9-2.85,11.32-8.43,7.73-15.86c8.85,3.42,17.88,6.81,24.57,11c4.26,2.67,6.46,4.68,8.19,7.92c4.24,7.95,3.62,13.43,5.89,21.9 H88.5C88.58,110.13,88.64,114.12,88.64,118.87L88.64,118.87z M34.55,26.86c7.1,7.65,18.08-2.37,28.77-5.18 c6.07-1.59,9.33,9.21,17.16,5.27l0.73,8.56c4.87-1.11,1.41,13.96-2.82,13.17c-1.39,4.6-1.92,7.86-4.19,10.91 c-4.26,5.71-11.15,8.63-16.67,8.51c-5.21-0.11-11.84-2.99-16.09-8.25c-2.61-3.24-3.46-6.8-5.08-11.78 c-4.5,1.34-7.51-13.95-2.62-12.64L34.55,26.86L34.55,26.86L34.55,26.86z M71.71,64.39C95.17,62.5,91.2,28.53,78.2,10 C67.62-5.08,43.17-0.9,35.7,8.1c-6.1,7.35-8.94,17.38-9.6,28.71v5.17c0,16.24,5.15,19.38,17.4,22.08c1.44,1.2,3,2.22,4.6,3.04 c3.14,1.62,6.48,2.48,9.41,2.54c3.11,0.07,6.6-0.75,9.88-2.42C68.89,66.47,70.35,65.52,71.71,64.39L71.71,64.39L71.71,64.39z M72.13,40.33c0.44,0.15,0.7,0.7,0.57,1.23c-0.12,0.53-0.58,0.83-1.02,0.69c-0.89-0.31-1.78-0.5-2.65-0.57 c0.07,0.19,0.11,0.41,0.11,0.62c0,1-0.76,1.8-1.7,1.8s-1.7-0.8-1.7-1.8c0-0.11,0.01-0.22,0.03-0.33c-0.29,0.07-0.58,0.16-0.87,0.27 c-0.44,0.15-0.89-0.15-1.02-0.67c-0.13-0.53,0.12-1.08,0.56-1.23c1.26-0.44,2.54-0.67,3.82-0.67 C69.55,39.66,70.84,39.89,72.13,40.33L72.13,40.33L72.13,40.33z M43.19,42.43c-0.43,0.18-0.9-0.1-1.05-0.62 c-0.15-0.52,0.08-1.09,0.51-1.26c1.29-0.53,2.59-0.78,3.89-0.77c1.29,0.01,2.58,0.28,3.86,0.76c0.43,0.16,0.67,0.73,0.53,1.25 s-0.6,0.81-1.03,0.65c-0.28-0.11-0.57-0.2-0.85-0.29c0.02,0.11,0.03,0.24,0.03,0.36c0,1-0.76,1.8-1.7,1.8c-0.94,0-1.7-0.81-1.7-1.8 c0-0.25,0.05-0.5,0.14-0.72C44.96,41.85,44.07,42.06,43.19,42.43L43.19,42.43L43.19,42.43z M73.39,35.28 c0.39,0.35,0.45,0.97,0.13,1.39c-0.33,0.42-0.91,0.48-1.31,0.14c-1.25-1.09-3.82-0.6-6.03-0.18c-1.19,0.23-2.3,0.44-3.18,0.4 c-0.51-0.02-0.92-0.48-0.9-1.03c0.02-0.54,0.45-0.98,0.97-0.95c0.7,0.03,1.7-0.16,2.79-0.37C68.45,34.19,71.48,33.61,73.39,35.28 L73.39,35.28L73.39,35.28z M54.81,49.83c-0.38-0.37-0.41-1-0.06-1.4c0.35-0.4,0.94-0.44,1.32-0.07c0.46,0.44,0.88,0.65,1.28,0.65 c0.41-0.01,0.84-0.23,1.31-0.66c0.39-0.36,0.98-0.31,1.32,0.1c0.34,0.41,0.29,1.04-0.1,1.4c-0.81,0.74-1.65,1.13-2.52,1.15 C56.49,51.01,55.64,50.63,54.81,49.83L54.81,49.83L54.81,49.83z M51.19,55.91c-0.4-0.34-0.47-0.96-0.14-1.39s0.91-0.49,1.31-0.15 c1.87,1.58,3.62,2.36,5.24,2.36c1.59-0.01,3.11-0.78,4.58-2.3c0.37-0.38,0.96-0.37,1.32,0.02c0.36,0.39,0.35,1.02-0.02,1.4 c-1.82,1.89-3.79,2.85-5.88,2.85C55.53,58.71,53.4,57.79,51.19,55.91L51.19,55.91L51.19,55.91z"/></g></svg>