<?xml version="1.0" encoding="utf-8"?><svg version="1.1" id="Layer_1" xmlns="http://www.w3.org/2000/svg" xmlns:xlink="http://www.w3.org/1999/xlink" x="0px" y="0px" viewBox="0 0 121 122.88" style="enable-background:new 0 0 121 122.88" xml:space="preserve"><g><path d="M89.58,31c8.48,0,15.63,3.96,21.03,12.07c4.98,7.48,8.42,18.55,9.98,33.35c2.22,21.11-4.69,34.89-14.59,41.63 c-4.86,3.31-10.45,4.91-16.05,4.83c-5.59-0.07-11.18-1.81-16.05-5.16c-5.92-4.08-10.8-10.55-13.34-19.33 c-2.47,9.1-7.32,15.64-13.23,19.66c-4.86,3.31-10.45,4.91-16.05,4.83c-5.59-0.07-11.18-1.81-16.05-5.16 C5.1,110.73-1.98,96.75,0.5,76.19c1.67-13.83,5.16-25.13,10.27-32.95C15.91,35.38,22.69,31,30.92,31c0.62,0,1.23,0.02,1.84,0.06 c2.36-9.42,5.83-17.02,10.32-22.33C47.84,3.09,53.72,0,60.62,0c7.15,0,13.36,2.82,18.38,8.58C83.46,13.7,86.94,21.15,89.26,31 C89.36,31,89.47,31,89.58,31L89.58,31z M76.01,11.14c-4.22-4.84-9.42-7.22-15.39-7.22c-5.64,0-10.51,2.59-14.5,7.32 c-4.03,4.77-7.19,11.68-9.4,20.3c6.68,1.44,12.34,5.73,16.71,12.98c3.08,5.1,5.51,11.7,7.2,19.82c1.83-8.13,4.45-15.01,7.78-20.35 c4.4-7.05,10.06-11.48,16.86-12.67C83.11,22.39,79.97,15.68,76.01,11.14L76.01,11.14z M48.64,45.21 c-4.6-6.91-10.63-10.29-17.73-10.29c-6.78,0-12.44,3.74-16.83,10.45c-4.78,7.3-7.94,18.03-9.53,31.28 c-2.28,18.9,3.9,31.61,12.95,37.84c4.22,2.91,9.04,4.41,13.83,4.47c4.79,0.06,9.58-1.31,13.77-4.16 c8.81-5.99,14.94-18.53,12.89-37.99C56.5,62.66,53.27,52.17,48.64,45.21L48.64,45.21z M107.31,45.21 c-4.6-6.91-10.63-10.29-17.73-10.29c-6.78,0-12.44,3.74-16.83,10.45c-4.78,7.3-8.06,18.03-9.65,31.28 c-2.28,18.9,4.02,31.61,13.07,37.84c4.22,2.91,9.04,4.41,13.83,4.47c4.79,0.06,9.58-1.31,13.77-4.16 c8.81-5.99,14.94-18.53,12.89-37.99C115.16,62.66,111.94,52.18,107.31,45.21L107.31,45.21z"/></g></svg>