<svg id="Layer_1" data-name="Layer 1" xmlns="http://www.w3.org/2000/svg" viewBox="0 0 122.88 120.76"><defs><style>.cls-1{fill:#ef4136;}.cls-2{fill:#1a1a1a;}</style></defs><title>eight-weeks</title><path class="cls-1" d="M34.19,84.72h6.22l-2.92,18.59H29.73l-1.37-6.84H28l-1.33,6.84H18.9L16,84.72H22.2L23.6,95.1h.18l2.14-10.38h4.55L32.58,95.1h.18l1.43-10.38ZM54,96.29h-6v2.26h7.28v4.76H42.12V84.72H55.21l-.75,4.76H48.07V92h6v4.31Zm16,0H64.06v2.26h7.28v4.76H58.11V84.72H71.19l-.74,4.76H64.06V92H70v4.31Zm10-1.07v8.09h-6V84.72h6v7.59h.11a4.25,4.25,0,0,1,.3-1.43l2.92-6.16H89.8l-4.46,9.14L90,103.31H83.52l-3.06-6.66a4.25,4.25,0,0,1-.3-1.43ZM91.22,103l.83-4.91a20.73,20.73,0,0,0,4.92.68,30,30,0,0,0,3.53-.17V97.1l-2.68-.24q-3.63-.33-5-1.74a5.8,5.8,0,0,1-1.36-4.18q0-3.81,1.65-5.23c1.1-1,3-1.43,5.61-1.43a31.77,31.77,0,0,1,7.14.74l-.74,4.76a29.21,29.21,0,0,0-4.44-.45,22.39,22.39,0,0,0-2.82.15v1.46l2.14.21q3.9.39,5.38,1.86a5.45,5.45,0,0,1,1.49,4.09,8.84,8.84,0,0,1-.5,3.16,5.4,5.4,0,0,1-1.21,2,4.52,4.52,0,0,1-2,1,11,11,0,0,1-2.24.43c-.65.06-1.51.08-2.58.08a31.69,31.69,0,0,1-7.16-.77Z"/><path class="cls-2" d="M82.69,4.21C82.69,1.87,85,0,87.84,0S93,1.91,93,4.21v18.5c0,2.34-2.3,4.21-5.16,4.21s-5.15-1.9-5.15-4.21V4.21Zm-27.93,30a18.86,18.86,0,0,1,6.18-.92,18.88,18.88,0,0,1,6.19.92,9.42,9.42,0,0,1,4.53,3.43,10.56,10.56,0,0,1,1.86,6.45q0,5.67-3.46,8.6v.41a8.44,8.44,0,0,1,3.25,3.34,9.67,9.67,0,0,1,1.29,4.84q0,11.1-13.66,11.1T47.29,61.27a9.67,9.67,0,0,1,1.29-4.84,8.42,8.42,0,0,1,3.24-3.34v-.41q-3.45-2.82-3.45-8.6a10.62,10.62,0,0,1,1.85-6.45,9.44,9.44,0,0,1,4.54-3.43Zm8.76,25.28-3.56-2a2.76,2.76,0,0,0-1-.36c-.37,0-.56.34-.56,1v5.19h2.11a4.52,4.52,0,0,0,2.37-.45c.45-.3.67-1,.67-2.06V59.48ZM58.37,46.23l3.34,2a1.59,1.59,0,0,0,.78.24c.68,0,1-.36,1-1.08V42.59H61.41A4.47,4.47,0,0,0,59,43c-.45.29-.67,1-.67,2.05v1.14Zm-28.7-42C29.67,1.87,32,0,34.83,0S40,1.91,40,4.21v18.5c0,2.34-2.3,4.21-5.16,4.21s-5.16-1.9-5.16-4.21V4.21ZM6.76,111.3a2.66,2.66,0,0,0,.76,1.87,2.56,2.56,0,0,0,1.87.75h104a2.65,2.65,0,0,0,1.86-.75,2.56,2.56,0,0,0,.75-1.87v-91a2.56,2.56,0,0,0-2.57-2.58h-8.33c-1.59,0-2.86-2.35-2.86-3.94a2.85,2.85,0,0,1,2.86-2.86h9.41a8.4,8.4,0,0,1,8.34,8.34v93.2a8.38,8.38,0,0,1-8.34,8.34H8.34a8.28,8.28,0,0,1-5.88-2.45A8.37,8.37,0,0,1,0,112.42V19.22a8.29,8.29,0,0,1,2.46-5.88,8.35,8.35,0,0,1,5.88-2.46H18.43a2.85,2.85,0,0,1,2.86,2.86c0,1.59-1.27,3.94-2.86,3.94h-9a2.69,2.69,0,0,0-1.87.75A2.59,2.59,0,0,0,6.8,20.3c0,28.81,0,62.06,0,91ZM51.55,17.64c-1.59,0-2.86-2.35-2.86-3.94a2.85,2.85,0,0,1,2.86-2.86H70.77a2.85,2.85,0,0,1,2.86,2.86c0,1.59-1.27,3.94-2.86,3.94Z"/></svg>