<?xml version="1.0" encoding="utf-8"?><svg version="1.1" id="Layer_1" xmlns="http://www.w3.org/2000/svg" xmlns:xlink="http://www.w3.org/1999/xlink" x="0px" y="0px" viewBox="0 0 122.88 109.19" style="enable-background:new 0 0 122.88 109.19" xml:space="preserve"><style type="text/css">.st0{fill-rule:evenodd;clip-rule:evenodd;}</style><g><path class="st0" d="M82.67,8.83C77.22,3.38,69.7,0,61.43,0c-8.27,0-15.79,3.38-21.24,8.83c-0.6,0.6-2-0.13-3.59-0.08 C19.46,9.32,17.45,31.24,24.37,38.4c-0.98,5.66,3.91,9.99,6.98,9.69c-0.02-1.37,0.01-2.73,0-4.07c-3.78-1.1-4.29-7.79-0.02-9.38 v1.73c0.01-0.31,0.01-0.61,0.02-0.91v12.59c0,7.46,2.75,14.31,7.29,19.58c-4.48,4.51-6.83,5.55-11.61,7.68 c-1.16,0.51-2.44,1.09-3.64,1.64l0,0c-6.43,2.83-11.51,6.92-15.37,12.13c-3.84,5.2-6.47,11.5-8,18.79 c-0.12,0.6,0.26,1.19,0.86,1.31c0.08,0.02,0.15,0.02,0.23,0.02v0h120.66c0.61,0,1.11-0.5,1.11-1.11c0-0.11-0.02-0.22-0.05-0.32 c-1.85-7.81-5-14.15-9.17-19.35c-4.18-5.2-9.39-9.23-15.34-12.4c-0.04-0.02-0.08-0.04-0.11-0.05l0,0 c-1.19-0.47-2.49-0.96-3.64-1.39c-4.65-1.75-6.35-2.38-10.66-6.6c4.72-5.31,7.59-12.3,7.59-19.92V34.47 c0.02,0.62,0.03,1.26,0.04,1.9v-1.73c4.28,1.59,3.74,8.28-0.04,9.38c-0.01,1.34,0.01,2.7,0,4.07c3.08,0.29,7.99-4.03,7.01-9.69 c5.93-6.15,5.3-23.16-5.83-28.22C87.34,7.75,84.74,10.91,82.67,8.83L82.67,8.83L82.67,8.83z M41.45,70.47 c5.32,4.75,12.33,7.64,19.98,7.64c7.46,0,14.3-2.75,19.57-7.28c4.67,4.58,5.82,4.51,12.57,7.3c-11.46,28.34-58.99,21.5-66.16,0.92 C34.26,75.87,36.38,75.56,41.45,70.47L41.45,70.47z M71.54,23.24c-0.71,0-1.28-0.58-1.28-1.29c0-0.71,0.58-1.28,1.29-1.28 c2.12,0.01,4.07,0.41,5.81,1.23c1.76,0.83,3.3,2.07,4.61,3.76c0.43,0.56,0.33,1.37-0.23,1.8c-0.56,0.43-1.37,0.33-1.8-0.23 c-1.05-1.36-2.28-2.36-3.66-3.01C74.88,23.57,73.29,23.25,71.54,23.24L71.54,23.24L71.54,23.24z M55.48,63.3 c-0.54-0.29-0.74-0.95-0.46-1.49c0.29-0.54,0.95-0.74,1.49-0.46c1.7,0.9,3.37,1.36,5.02,1.37c1.64,0,3.29-0.45,4.94-1.36 c0.53-0.29,1.2-0.1,1.5,0.44c0.29,0.53,0.1,1.2-0.44,1.5c-1.98,1.09-3.98,1.63-6,1.62C59.51,64.91,57.49,64.37,55.48,63.3 L55.48,63.3L55.48,63.3z M71.63,58.06c-1.1,0.37-2.24,0.69-3.41,0.95v0c-1.2,0.33-2.31,0.54-3.3,0.56 c-1.12,0.02-2.09-0.19-2.86-0.7c-0.24-0.16-0.45-0.33-0.63-0.5c-0.18,0.18-0.39,0.35-0.63,0.5c-0.77,0.51-1.74,0.72-2.86,0.7 c-0.98-0.02-2.09-0.22-3.3-0.56v0c-1.17-0.25-2.31-0.57-3.41-0.95c-1.1-0.37-2.17-0.8-3.22-1.29c-0.51-0.23-0.71-0.8-0.45-1.27 c0.15-0.28,0.43-0.46,0.74-0.51v0c0.56-0.09,1.01-0.15,1.43-0.21l0.03,0c1.35-0.19,2.39-0.33,3.65-0.84 c0.36-0.14,0.7-0.3,1.06-0.47c2.02-0.93,4.23-1.96,6.44-0.2c0.19,0.15,0.36,0.31,0.52,0.48c0.16-0.17,0.33-0.32,0.52-0.48 c2.21-1.75,4.42-0.73,6.44,0.2c0.35,0.16,0.7,0.32,1.05,0.47c1.26,0.51,2.3,0.65,3.65,0.84l0.03,0c0.42,0.06,0.87,0.12,1.43,0.21 l0,0c0.31,0.05,0.59,0.23,0.74,0.51c0.26,0.47,0.05,1.03-0.45,1.27C73.81,57.25,72.73,57.69,71.63,58.06L71.63,58.06L71.63,58.06z M58.78,47.65c-0.44-0.37-0.5-1.03-0.13-1.48c0.37-0.44,1.03-0.5,1.48-0.13c0.52,0.44,1.03,0.67,1.51,0.68 c0.49,0.01,1.01-0.21,1.58-0.68c0.45-0.37,1.11-0.3,1.47,0.14c0.37,0.45,0.3,1.11-0.14,1.47c-0.97,0.8-1.94,1.17-2.93,1.16 C60.61,48.8,59.67,48.4,58.78,47.65L58.78,47.65L58.78,47.65z M44.21,30.88c-0.42,0.16-0.88-0.09-1.02-0.57 c-0.14-0.48,0.08-1,0.5-1.16c1.63-0.64,3.26-0.93,4.9-0.92c1.63,0.01,3.25,0.33,4.87,0.91c0.42,0.15,0.66,0.67,0.52,1.15 c-0.13,0.48-0.59,0.75-1.01,0.59c-0.54-0.19-1.08-0.36-1.61-0.48c0.05,0.19,0.08,0.4,0.08,0.61c0,1.25-1.01,2.26-2.26,2.26 c-1.25,0-2.26-1.01-2.26-2.26c0-0.31,0.06-0.6,0.17-0.87C46.14,30.26,45.17,30.5,44.21,30.88L44.21,30.88L44.21,30.88z M70.46,30.2 c-0.1,0.25-0.16,0.04-0.16,0.8c0,0.77,1.01,2.26,2.26,2.26c1.25,0,2.26-1.01,2.26-2.26c0-0.36-0.08-0.7-0.23-1 c0.99,0.11,1.98,0.32,2.99,0.65c0.43,0.14,0.87-0.14,1-0.63c0.12-0.49-0.13-0.99-0.56-1.13c-1.63-0.53-3.26-0.8-4.89-0.79 c-1.62,0-3.23,0.27-4.83,0.8c-0.43,0.14-0.67,0.65-0.55,1.13c0.12,0.48,0.57,0.76,1,0.62C69.31,30.47,69.9,30.32,70.46,30.2 L70.46,30.2L70.46,30.2z M51.28,20.93c0.71-0.03,1.31,0.52,1.34,1.23c0.03,0.71-0.52,1.31-1.23,1.34 c-1.97,0.09-3.65,0.49-5.06,1.17c-1.37,0.66-2.49,1.61-3.38,2.8c-0.42,0.57-1.23,0.69-1.8,0.27c-0.57-0.42-0.69-1.23-0.27-1.8 c1.14-1.53,2.57-2.74,4.32-3.59C46.93,21.52,48.94,21.04,51.28,20.93L51.28,20.93L51.28,20.93z M61.43,3.94 c-7.19,0-13.72,2.94-18.46,7.68c-4.74,4.74-7.68,11.27-7.68,18.46v17.96c0,7.19,2.94,13.72,7.68,18.46 c4.74,4.74,11.27,7.68,18.46,7.68c7.19,0,13.72-2.94,18.46-7.68c4.74-4.74,7.68-11.27,7.68-18.46V30.08 c0-7.19-2.94-13.72-7.68-18.46C75.15,6.88,68.61,3.94,61.43,3.94L61.43,3.94z"/></g></svg>