<svg id="Layer_1" data-name="Layer 1" xmlns="http://www.w3.org/2000/svg" viewBox="0 0 110.32 122.88"><defs><style>.cls-1{fill-rule:evenodd;}</style></defs><title>electricity-bill</title><path class="cls-1" d="M46.79,8Zm42.54,41.4H61.21V44H89.33v5.44Zm0,36.06H30.81V80.06H89.33v5.43Zm0-18H30.81V62H89.33v5.43ZM103,107.93l1.88,1.1V22.19H62.1a33.76,33.76,0,0,0-1.26-5.43h46.77a2.72,2.72,0,0,1,2.71,2.72v94.26a2.65,2.65,0,0,1-.37,1.36,2.7,2.7,0,0,1-3.7,1L102,113.64,93.11,122a2.7,2.7,0,0,1-3.68,0l-8.58-7.84-8.47,7.64a2.72,2.72,0,0,1-3.59,0l-8.92-7.74-8.21,8a2.71,2.71,0,0,1-3.75,0l-8.49-8-8.65,7.75a2.71,2.71,0,0,1-3.77,0l-8.81-8.38L14.06,116a2.68,2.68,0,0,1-1.52.47,2.72,2.72,0,0,1-2.72-2.72v-56a35.44,35.44,0,0,0,5.43,2.56V109l1.95-1.15a2.72,2.72,0,0,1,3.33.45l8.4,8,8.74-7.82a2.7,2.7,0,0,1,3.65.05l8.42,7.92,8.14-7.89a2.71,2.71,0,0,1,3.71-.07l8.94,7.76L79,108.55a2.72,2.72,0,0,1,3.8.16l8.38,7.67,8.58-8.08a2.71,2.71,0,0,1,3.21-.37ZM33.35,14.25a10.45,10.45,0,0,1,2.44,2.11,9.82,9.82,0,0,1,1.71,2.83A11.63,11.63,0,0,1,38,21a9.89,9.89,0,0,1,.21,2A10.84,10.84,0,0,1,38,25.23a12.35,12.35,0,0,1-.69,2.2,22.09,22.09,0,0,1-2.78,4.38l-.1.13c-.48.64-1,1.27-1.36,1.9a1.77,1.77,0,0,1-1.6.8l-8,1a1.75,1.75,0,0,1-1.9-1.21,11.54,11.54,0,0,0-.71-1.71l0-.07a7,7,0,0,0-.78-1.19,19.33,19.33,0,0,1-1.24-1.56l-.07-.09a11.61,11.61,0,0,1-1.14-2,12.6,12.6,0,0,1-.81-2.43,11.32,11.32,0,0,1-.24-2.55A11,11,0,0,1,17,20.22a13,13,0,0,1,1.07-2.61l.08-.14a10.43,10.43,0,0,1,2.19-2.58l.1-.08a9.81,9.81,0,0,1,2.8-1.63,10.36,10.36,0,0,1,2.52-.64,11.65,11.65,0,0,1,2.64,0,11.35,11.35,0,0,1,2.52.56,11.81,11.81,0,0,1,2.33,1.09l.12.08ZM31.46,40a4.93,4.93,0,0,1-1.86,1.8,4.66,4.66,0,0,1-2.1.6,4.21,4.21,0,0,1-3.41-1.43l7.37-1Zm.77-4.1v.64a7.53,7.53,0,0,1,0,1l-.16.69-8.93,1.18L23,39l-.32-1.43v-.42l9.56-1.25ZM29,22l2.07,0a.54.54,0,0,1,.53.55.54.54,0,0,1-.09.31L26.4,31.24a.54.54,0,0,1-.75.17.53.53,0,0,1-.24-.57l.81-5.16H23.77a.54.54,0,0,1-.46-.82l5-8.34a.53.53,0,0,1,.74-.17.5.5,0,0,1,.25.54L29,22Zm-1.55-18A23.36,23.36,0,1,1,4.06,27.42,23.36,23.36,0,0,1,27.42,4.06ZM46.8,46.79Zm-38.75,0ZM8.05,8A27.38,27.38,0,1,1,0,27.42,27.31,27.31,0,0,1,8.05,8Z"/></svg>