<?xml version="1.0" encoding="utf-8"?><svg version="1.1" id="Layer_1" xmlns="http://www.w3.org/2000/svg" xmlns:xlink="http://www.w3.org/1999/xlink" x="0px" y="0px" viewBox="0 0 122.88 121.29" style="enable-background:new 0 0 122.88 121.29" xml:space="preserve"><style type="text/css">.st0{fill-rule:evenodd;clip-rule:evenodd;}</style><g><path class="st0" d="M11.51,0h99.86c6.33,0,11.51,5.18,11.51,11.51v98.27c0,6.33-5.18,11.51-11.51,11.51H11.51 C5.18,121.29,0,116.11,0,109.78V11.51C0,5.18,5.18,0,11.51,0L11.51,0z M42.46,37.86h6.83c0.96,0,1.83,0.4,2.47,1.03l0,0 c0.64,0.64,1.03,1.51,1.03,2.48v14.97c0,0.96-0.4,1.83-1.03,2.46l-0.01,0.01v0c-0.64,0.63-1.51,1.03-2.47,1.03h-6.83 c-0.95,0-1.83-0.4-2.47-1.04l0,0c-0.63-0.63-1.03-1.51-1.03-2.47V41.37c0-0.96,0.39-1.84,1.03-2.48 C40.62,38.26,41.49,37.86,42.46,37.86L42.46,37.86z M55.24,83.81h12.41v-7.96c0-1.18-0.48-2.25-1.26-3.02 c-0.78-0.78-1.85-1.26-3.02-1.26h-3.88c-1.16,0-2.23,0.48-3,1.25c-0.77,0.77-1.25,1.83-1.25,3V83.81L55.24,83.81z M68.16,87.4 H54.72c-0.85,0-1.61-0.34-2.17-0.9c-0.56-0.56-0.9-1.32-0.9-2.17v-8.52c0-2.15,0.88-4.11,2.3-5.53s3.37-2.3,5.53-2.3h3.88 c2.17,0,4.13,0.88,5.56,2.31c1.43,1.43,2.31,3.39,2.31,5.56v8.48c0,0.85-0.34,1.61-0.9,2.17C69.77,87.05,69,87.4,68.16,87.4 L68.16,87.4z M73.59,37.86h6.83c0.96,0,1.83,0.4,2.47,1.03l0,0c0.64,0.64,1.03,1.51,1.03,2.48v14.97c0,0.96-0.4,1.83-1.03,2.46 l-0.01,0.01l0,0c-0.64,0.63-1.51,1.03-2.47,1.03h-6.83c-0.95,0-1.83-0.4-2.47-1.04l0,0c-0.63-0.63-1.03-1.51-1.03-2.47V41.37 c0-0.96,0.39-1.84,1.03-2.48C71.75,38.26,72.62,37.86,73.59,37.86L73.59,37.86z M80.34,41.44h-6.68v14.81h6.68V41.44L80.34,41.44z M49.21,41.44h-6.68v14.81h6.68V41.44L49.21,41.44z M108.88,9.55c2.76,0,5,2.24,5,5c0,2.76-2.24,5-5,5c-2.76,0-5-2.24-5-5 C103.88,11.78,106.12,9.55,108.88,9.55L108.88,9.55z M14.62,101.14c2.76,0,5,2.24,5,5c0,2.76-2.24,5-5,5c-2.76,0-5-2.24-5-5 C9.63,103.38,11.86,101.14,14.62,101.14L14.62,101.14z M61.04,19.61c22.66,0,41.03,18.37,41.03,41.03 c0,22.66-18.37,41.03-41.03,41.03c-22.66,0-41.03-18.37-41.03-41.03C20.01,37.98,38.38,19.61,61.04,19.61L61.04,19.61z"/></g></svg>