<?xml version="1.0" encoding="utf-8"?><svg version="1.1" id="Layer_1" xmlns="http://www.w3.org/2000/svg" xmlns:xlink="http://www.w3.org/1999/xlink" x="0px" y="0px" viewBox="0 0 122.88 88.71" style="enable-background:new 0 0 122.88 88.71" xml:space="preserve"><style type="text/css">.st0{fill-rule:evenodd;clip-rule:evenodd;}</style><g><path class="st0" d="M83.27,31.14l0,5.62c0,9.78,3.83,14.56,13.79,15.76v0.54c-0.04,0.25-0.07,0.5-0.07,0.76V65.1v14.78 C86.48,79.9,81,79.99,70.66,80.08c-8.93,0.08-17.87,0.16-31.12,0.17V69.48H63.8c3.63,0,6.59-2.97,6.59-6.59V6.59 C70.39,2.97,67.42,0,63.8,0H6.59C2.97,0,0,2.97,0,6.59v56.3c0,3.63,2.97,6.59,6.59,6.59h24.5v15c0,2.33,1.89,4.23,4.23,4.23 c11.98,0,23.69-0.1,35.41-0.21c9.85-0.09,14.85-0.17,30.49-0.17c2.33,0,4.23-1.89,4.23-4.23V65.1V53.82c0-0.29-0.03-0.57-0.09-0.85 v-0.54c9.86-0.95,13.79-6.75,13.79-16.22v-5.07H83.27L83.27,31.14z M31.68,47.97h7.03v-4.52c0-0.67-0.27-1.27-0.71-1.71l0,0 c-0.44-0.44-1.04-0.71-1.71-0.71h-2.22c-0.66,0-1.25,0.27-1.69,0.7c-0.43,0.43-0.7,1.03-0.7,1.69V47.97L31.68,47.97z M39.04,50.1 h-7.69c-0.49,0-0.94-0.2-1.27-0.53s-0.53-0.77-0.53-1.27v-4.88c0-1.24,0.51-2.37,1.33-3.19c0.82-0.82,1.95-1.33,3.19-1.33h2.22 c1.25,0,2.39,0.51,3.21,1.33l0,0l0,0c0.82,0.82,1.33,1.96,1.33,3.21v4.85c0,0.5-0.2,0.94-0.53,1.27 C39.99,49.9,39.54,50.1,39.04,50.1L39.04,50.1z M24.32,21.65h3.91c0.56,0,1.07,0.23,1.44,0.6c0.37,0.37,0.6,0.88,0.6,1.45v8.58 c0,0.56-0.23,1.07-0.6,1.44c-0.37,0.37-0.88,0.6-1.44,0.6h-3.91c-0.56,0-1.07-0.23-1.44-0.6c-0.03-0.03-0.05-0.06-0.08-0.09 c-0.33-0.36-0.53-0.84-0.53-1.36V23.7c0-0.56,0.23-1.07,0.6-1.44l0,0l0,0l0,0C23.25,21.88,23.76,21.65,24.32,21.65L24.32,21.65z M28.15,23.78H24.4v8.41h3.75V23.78L28.15,23.78z M42.16,21.65h3.91c0.56,0,1.07,0.23,1.44,0.6c0.37,0.37,0.6,0.88,0.6,1.45v8.58 c0,0.56-0.23,1.07-0.6,1.44c-0.37,0.37-0.88,0.6-1.44,0.6h-3.91c-0.56,0-1.07-0.23-1.44-0.6l0,0l0,0c-0.37-0.37-0.6-0.88-0.6-1.44 V23.7c0-0.56,0.23-1.07,0.6-1.45C41.08,21.88,41.59,21.65,42.16,21.65L42.16,21.65z M45.99,23.78h-3.75v8.41h3.75V23.78 L45.99,23.78z M8.38,57.94c1.58,0,2.86,1.28,2.86,2.86c0,1.58-1.28,2.86-2.86,2.86c-1.58,0-2.86-1.28-2.86-2.86 C5.51,59.22,6.8,57.94,8.38,57.94L8.38,57.94z M62.37,5.47c1.58,0,2.86,1.28,2.86,2.86s-1.28,2.86-2.86,2.86 c-1.58,0-2.86-1.28-2.86-2.86S60.79,5.47,62.37,5.47L62.37,5.47z M34.96,11.23c12.98,0,23.5,10.52,23.5,23.5 c0,12.98-10.52,23.5-23.5,23.5c-12.98,0-23.5-10.52-23.5-23.5C11.46,21.76,21.98,11.23,34.96,11.23L34.96,11.23z M81.46,23.87h7.02 V9.75c0-2,1.64-3.64,3.64-3.64l0,0c2,0,3.64,1.64,3.64,3.64v14.12h10.69V9.75c0-2,1.64-3.64,3.64-3.64l0,0c2,0,3.64,1.64,3.64,3.64 v14.12h6.83c1.27,0,2.3,1.04,2.3,2.3v2.67c0,1.27-1.04,2.3-2.3,2.3H81.46c-1.27,0-2.3-1.04-2.3-2.3v-2.67 C79.16,24.91,80.19,23.87,81.46,23.87L81.46,23.87z M91.5,33.22h19.41v2.88H91.5V33.22L91.5,33.22z"/></g></svg>