<svg id="Layer_1" data-name="Layer 1" xmlns="http://www.w3.org/2000/svg" viewBox="0 0 122.88 120.79"><defs><style>.cls-1{fill-rule:evenodd;}</style></defs><title>employee-insurance</title><path class="cls-1" d="M64.7,4.88a63.15,63.15,0,0,1,58.18,48.56h0L114.73,63l-7.81-9.59h-1.07l-8.17,9.64-7.86-9.64H87.87L79.74,63l-7.82-9.59h-1v.15c0,1.16-1.36,4.77-4.14,5.69v8a20.2,20.2,0,0,0-9.28,0V58.91c-2.25-1-3.19-4.3-3.19-5.32s0-.1,0-.15H51L43.18,63l-8.13-9.59H33.1l-7.86,9.64-8.17-9.64H16L8.19,63,.05,53.44H0A63.13,63.13,0,0,1,57.52,4.92L61.28,0,64.7,4.88ZM54.57,100.94c.16-1.25-3.55-6-4.23-8.31-1.45-2.3-2-6-.38-8.41.62-1,.35-1.81.35-3.14,0-13.27,23.25-13.28,23.25,0,0,1.67-.38,2.07.53,3.39,1.51,2.21.74,6.12-.55,8.17-.82,2.4-4.71,7-4.44,8.31.24,6.81-14.57,6.58-14.53,0ZM26.74,114.31h-.66A1.08,1.08,0,0,1,25,113.23v-1.74a1.08,1.08,0,0,1,1.07-1.08H30a1.08,1.08,0,0,1,1.07,1.08v1.74A1.08,1.08,0,0,1,30,114.31h-.67l1.28,6.48H25.51l1.23-6.48Zm6.81-9.47c-.12-1,2.86-4.84,3.4-6.68,1.17-1.85,1.58-4.8.31-6.76-.5-.78-.29-1.46-.29-2.53,0-10.67-18.68-10.67-18.68,0,0,1.35.3,1.66-.42,2.73-1.23,1.77-.6,4.92.44,6.56.66,1.94,3.78,5.59,3.57,6.68-.2,5.48,11.71,5.3,11.67,0ZM19,108a39.07,39.07,0,0,1-8.16,3.55c-5.11,1.7-5.1,1.94-5.06,9.21H23.9L19,108Zm77.1,6.28h.66a1.08,1.08,0,0,0,1.07-1.08v-1.74a1.08,1.08,0,0,0-1.07-1.08H92.9a1.08,1.08,0,0,0-1.07,1.08v1.74a1.08,1.08,0,0,0,1.07,1.08h.67l-1.28,6.48h5.08l-1.23-6.48Zm-6.81-9.47c.12-1-2.86-4.84-3.4-6.68-1.17-1.85-1.58-4.8-.31-6.76.5-.78.29-1.46.29-2.53,0-10.67,18.68-10.67,18.68,0,0,1.35-.31,1.66.42,2.73,1.23,1.77.6,4.92-.44,6.56-.66,1.94-3.78,5.59-3.57,6.68.2,5.48-11.71,5.3-11.67,0ZM103.84,108a39.07,39.07,0,0,0,8.16,3.55c5.11,1.7,5.09,1.94,5.06,9.21H99L103.84,108Zm-40.79,4.69h.81a1.34,1.34,0,0,0,1.34-1.34v-2.16a1.34,1.34,0,0,0-1.34-1.34H59a1.35,1.35,0,0,0-1.34,1.34v2.16A1.35,1.35,0,0,0,59,112.72h.83l-1.59,8.07h6.31l-1.52-8.07Zm-27.93,8.07c.63-8.14-1-7.79,5.85-10.34a52.25,52.25,0,0,0,9.55-4.84l5.85,15.18Zm37.5-15.87a38.78,38.78,0,0,0,8.83,4.41c6.36,2.12,6.34,2.41,6.3,11.46H66.58l6-15.87Z"/></svg>