<?xml version="1.0" encoding="utf-8"?><svg version="1.1" id="Layer_1" xmlns="http://www.w3.org/2000/svg" xmlns:xlink="http://www.w3.org/1999/xlink" x="0px" y="0px" viewBox="0 0 122.879 116.012" enable-background="new 0 0 122.879 116.012" xml:space="preserve"><g><path d="M102.911,0H19.968c-5.481,0-10.484,2.252-14.1,5.868C2.251,9.484,0,14.464,0,19.968v76.075c0,5.48,2.251,10.484,5.868,14.1 c3.616,3.617,8.597,5.869,14.1,5.869h82.943c5.48,0,10.484-2.252,14.1-5.869c3.616-3.615,5.868-8.596,5.868-14.1V19.946 c0-5.504-2.252-10.485-5.868-14.101C113.396,2.252,108.392,0,102.911,0L102.911,0L102.911,0z M38.89,10.03v0.022v27.519H10.052 V19.946c0-2.729,1.115-5.208,2.912-7.005c1.796-1.797,4.275-2.911,7.004-2.911H38.89L38.89,10.03L38.89,10.03z M10.029,48.01H38.89 v18.808H10.052V48.01H10.029L10.029,48.01z M10.029,77.234H38.89v28.725H19.968c-2.729,0-5.208-1.115-7.004-2.912 c-1.797-1.797-2.912-4.275-2.912-7.004V77.234H10.029L10.029,77.234z M48.919,105.959V73.504c0.136-0.477,0.205-0.955,0.205-1.477 c0-0.523-0.068-1.002-0.205-1.479V44.28c0.136-0.478,0.205-0.955,0.205-1.478s-0.068-1-0.205-1.479V10.075v-0.023h53.992 c2.729,0,5.208,1.115,7.004,2.911c1.797,1.797,2.911,4.276,2.911,7.005V37.64H80.1c-2.774,0-5.026,2.251-5.026,5.026v27.452 c-0.091,0.387-0.159,0.818-0.159,1.25s0.046,0.842,0.159,1.25v33.365l-26.154-0.002V105.959L48.919,105.959z M112.826,47.646v18.49 h-27.7v-18.49H112.826L112.826,47.646L112.826,47.646z M112.826,76.574v19.469c0,2.729-1.114,5.207-2.911,7.004 c-1.796,1.797-4.275,2.912-7.004,2.912H85.126V76.574H112.826L112.826,76.574L112.826,76.574z"/></g></svg>