<?xml version="1.0" encoding="utf-8"?><svg version="1.1" id="Layer_1" xmlns="http://www.w3.org/2000/svg" xmlns:xlink="http://www.w3.org/1999/xlink" x="0px" y="0px" viewBox="0 0 122.88 101.25" style="enable-background:new 0 0 122.88 101.25" xml:space="preserve"><style type="text/css"><![CDATA[
	.st0{fill-rule:evenodd;clip-rule:evenodd;fill:#DE4C3C;}
	.st1{fill:#C84436;}
	.st2{fill:#FFFFFF;}
]]></style><g><path class="st1" d="M61.44,0c16.77,0,32.01,5.55,43.09,14.53c11.34,9.18,18.35,21.94,18.35,36.1s-7.01,26.91-18.35,36.09 c-11.08,8.98-26.32,14.53-43.09,14.53s-32.01-5.55-43.09-14.53C7.01,77.54,0,64.78,0,50.62s7.01-26.91,18.35-36.1 C29.43,5.55,44.67,0,61.44,0L61.44,0z"/><path class="st0" d="M61.44,4.5c31.44,0,56.94,20.65,56.94,46.12c0,25.47-25.49,46.12-56.94,46.12C30,96.74,4.5,76.09,4.5,50.62 C4.5,25.15,30,4.5,61.44,4.5L61.44,4.5z"/><path class="st1" d="M34.93,34.68h12.85c0.5,0,0.9,0.4,0.9,0.9v5.92c0,0.5-0.4,0.9-0.9,0.9h-4.23v3.86h3.89c0.5,0,0.9,0.4,0.9,0.9 v5.62c0,0.5-0.4,0.9-0.9,0.9h-3.89v4.72h4.76c0.5,0,0.9,0.4,0.9,0.9v5.92c0,0.5-0.4,0.9-0.9,0.9H34.93c-0.5,0-0.9-0.4-0.9-0.9 V35.58C34.03,35.08,34.43,34.68,34.93,34.68L34.93,34.68z M46.88,36.48H35.83v27.83H47.4V60.2h-4.76c-0.5,0-0.9-0.4-0.9-0.9v-6.52 c0-0.5,0.4-0.9,0.9-0.9h3.89v-3.82h-3.89c-0.5,0-0.9-0.4-0.9-0.9V41.5c0-0.5,0.4-0.9,0.9-0.9h4.23V36.48L46.88,36.48z M58.11,43.15 l0.07-1.31h-5.65v22.48h5.58V48.81c0-0.91,0.02-1.66,0.05-2.27c0.03-0.56,0.09-0.99,0.16-1.28l0.02-0.1 c0.13-0.42,0.38-0.74,0.73-0.96c0.31-0.2,0.69-0.3,1.13-0.3c0.42,0,0.78,0.09,1.07,0.27c0.35,0.21,0.59,0.52,0.71,0.93 c0.07,0.25,0.13,0.67,0.16,1.26c0.03,0.55,0.05,1.24,0.05,2.05v15.91h5.58V48.2c0-1.04-0.03-1.93-0.08-2.65 c-0.05-0.71-0.13-1.27-0.24-1.67c-0.09-0.35-0.23-0.67-0.43-0.96c-0.2-0.3-0.47-0.56-0.79-0.8c-0.32-0.23-0.68-0.41-1.1-0.53 c-0.43-0.12-0.92-0.19-1.47-0.19c-0.44,0-0.85,0.05-1.22,0.14c-0.36,0.09-0.7,0.23-1.01,0.41c-0.32,0.19-0.61,0.42-0.88,0.7 c-0.27,0.28-0.53,0.62-0.76,1c-0.16,0.29-0.47,0.47-0.82,0.46C58.47,44.07,58.08,43.65,58.11,43.15L58.11,43.15z M59.99,40.73 c0.17-0.13,0.34-0.24,0.52-0.35c0.46-0.27,0.95-0.47,1.49-0.6c0.52-0.13,1.08-0.2,1.65-0.2c0.71,0,1.36,0.09,1.97,0.26 c0.63,0.18,1.18,0.45,1.67,0.81c0.48,0.36,0.88,0.76,1.2,1.22c0.32,0.47,0.55,0.98,0.7,1.54c0.13,0.5,0.22,1.16,0.29,1.98 c0.06,0.79,0.09,1.72,0.09,2.79v17.02c0,0.5-0.4,0.9-0.9,0.9h-7.38c-0.5,0-0.9-0.4-0.9-0.9V48.4c0-0.84-0.01-1.49-0.04-1.95 c-0.02-0.35-0.04-0.6-0.07-0.75l-0.22,0.01l-0.01,0.04c-0.04,0.15-0.07,0.45-0.1,0.9c-0.03,0.52-0.05,1.24-0.05,2.16v16.41 c0,0.5-0.4,0.9-0.9,0.9h-7.38c-0.5,0-0.9-0.4-0.9-0.9V40.94c0-0.5,0.4-0.9,0.9-0.9h7.49C59.54,40.04,59.9,40.34,59.99,40.73 L59.99,40.73z M89.57,35.58v29.63c0,0.5-0.4,0.9-0.9,0.9h-7.38c-0.44,0-0.81-0.32-0.89-0.74c-0.31,0.21-0.64,0.39-0.97,0.55 c-0.45,0.21-0.92,0.37-1.39,0.48c-0.48,0.11-0.97,0.17-1.45,0.17c-0.66,0-1.29-0.09-1.87-0.27c-0.59-0.18-1.13-0.45-1.64-0.81 c-0.49-0.35-0.9-0.74-1.23-1.16c-0.34-0.44-0.58-0.91-0.73-1.41c-0.13-0.45-0.23-1.03-0.3-1.74c-0.06-0.7-0.1-1.5-0.1-2.4V47.41 c0-0.93,0.03-1.75,0.1-2.47c0.06-0.73,0.17-1.31,0.3-1.76c0.15-0.5,0.4-0.97,0.74-1.4c0.33-0.41,0.75-0.79,1.25-1.14 c0.5-0.35,1.06-0.61,1.67-0.79c0.6-0.17,1.24-0.26,1.91-0.26c0.51,0,1.01,0.05,1.49,0.14c0.48,0.09,0.94,0.24,1.39,0.43 c0.28,0.12,0.56,0.26,0.82,0.42v-5.01c0-0.5,0.4-0.9,0.9-0.9h7.38C89.17,34.68,89.57,35.08,89.57,35.58L89.57,35.58z M87.77,64.32 V36.48h-5.58v6c0,0.24-0.1,0.48-0.29,0.66c-0.36,0.34-0.93,0.32-1.27-0.05c-0.26-0.28-0.53-0.52-0.81-0.72l-0.05-0.03 c-0.3-0.21-0.6-0.39-0.92-0.52c-0.32-0.14-0.66-0.25-1.02-0.32c-0.36-0.07-0.74-0.11-1.15-0.11c-0.52,0-0.99,0.06-1.41,0.18 c-0.42,0.12-0.8,0.3-1.15,0.54c-0.35,0.24-0.64,0.51-0.86,0.78c-0.21,0.26-0.35,0.52-0.43,0.8c-0.1,0.33-0.18,0.8-0.23,1.4 c-0.05,0.61-0.08,1.38-0.08,2.31v11.37c0,0.9,0.03,1.64,0.08,2.24c0.05,0.58,0.13,1.04,0.24,1.39c0.09,0.29,0.23,0.57,0.43,0.83 c0.22,0.28,0.5,0.55,0.85,0.8c0.33,0.24,0.71,0.42,1.11,0.54c0.41,0.13,0.87,0.19,1.35,0.19c0.37,0,0.72-0.04,1.06-0.12 c0.35-0.08,0.69-0.2,1.02-0.35s0.66-0.36,0.99-0.6c0.31-0.23,0.63-0.51,0.93-0.82c0.17-0.2,0.42-0.33,0.7-0.33 c0.5,0,0.9,0.4,0.9,0.9v0.87H87.77L87.77,64.32z M80.39,47.05c0-0.42-0.02-0.76-0.05-1c-0.02-0.16-0.04-0.27-0.06-0.34l-0.14-0.01 L80,45.71c-0.01,0.06-0.03,0.15-0.04,0.28c-0.03,0.27-0.05,0.62-0.05,1.06v11.89c0,0.47,0.02,0.84,0.05,1.12 c0.02,0.18,0.04,0.32,0.07,0.39l0.06,0c0.07,0,0.12,0,0.15-0.01c0.04-0.09,0.07-0.29,0.1-0.6c0.04-0.37,0.05-0.89,0.05-1.56V47.05 L80.39,47.05z M82.13,45.82c0.04,0.35,0.07,0.76,0.07,1.23v11.24c0,0.68-0.02,1.25-0.07,1.72c-0.05,0.53-0.14,0.93-0.26,1.2 c-0.16,0.35-0.41,0.63-0.75,0.81c-0.3,0.16-0.64,0.24-1.03,0.24c-0.36,0-0.68-0.08-0.96-0.23c-0.31-0.17-0.54-0.42-0.7-0.75 c-0.12-0.25-0.21-0.59-0.25-1.01c-0.04-0.37-0.06-0.81-0.06-1.33V47.05c0-0.51,0.02-0.94,0.06-1.28c0.05-0.37,0.13-0.68,0.25-0.92 l0.04-0.08c0.17-0.31,0.42-0.54,0.75-0.68c0.27-0.12,0.58-0.18,0.93-0.18c0.36,0,0.69,0.07,0.97,0.21 c0.33,0.16,0.58,0.41,0.75,0.74C81.99,45.09,82.07,45.42,82.13,45.82L82.13,45.82z"/><path class="st2" d="M34.93,35.58h12.85v5.92h-5.13v5.66h4.8v5.62h-4.8v6.52h5.66v5.92H34.93V35.58L34.93,35.58z M59.12,40.94 L59,43.19c0.54-0.9,1.19-1.58,1.97-2.03c0.77-0.45,1.67-0.67,2.69-0.67c1.27,0,2.3,0.3,3.11,0.9c0.8,0.6,1.32,1.35,1.55,2.26 c0.23,0.9,0.35,2.42,0.35,4.55v17.02h-7.38V48.4c0-1.67-0.06-2.69-0.17-3.05c-0.11-0.37-0.41-0.55-0.92-0.55 c-0.53,0-0.87,0.21-1,0.63c-0.13,0.42-0.2,1.55-0.2,3.38v16.41h-7.38V40.94H59.12L59.12,40.94z M88.67,35.58v29.63h-7.38v-1.77 c-0.71,0.74-1.46,1.29-2.24,1.66c-0.78,0.37-1.6,0.56-2.46,0.56c-1.15,0-2.15-0.3-2.99-0.91c-0.84-0.61-1.39-1.31-1.62-2.1 c-0.24-0.79-0.36-2.09-0.36-3.88V47.41c0-1.87,0.12-3.19,0.36-3.97c0.24-0.78,0.79-1.47,1.64-2.06c0.86-0.59,1.88-0.89,3.07-0.89 c0.92,0,1.76,0.17,2.52,0.5c0.76,0.33,1.46,0.82,2.08,1.49v-6.9H88.67L88.67,35.58z M81.29,47.05c0-0.89-0.07-1.49-0.23-1.79 c-0.16-0.31-0.46-0.46-0.92-0.46c-0.45,0-0.75,0.14-0.91,0.41c-0.16,0.27-0.23,0.89-0.23,1.84v11.89c0,0.98,0.08,1.64,0.22,1.95 s0.43,0.47,0.86,0.47c0.48,0,0.8-0.18,0.96-0.52c0.16-0.34,0.24-1.19,0.24-2.55V47.05L81.29,47.05z"/></g></svg>