<svg id="Layer_1" data-name="Layer 1" xmlns="http://www.w3.org/2000/svg" viewBox="0 0 99.39 122.88"><defs><style>.cls-1,.cls-2,.cls-3{fill-rule:evenodd;}.cls-2{fill:#fff;stroke:#000;stroke-miterlimit:22.93;stroke-width:0.48px;}.cls-3{fill:#de9c2d;}</style></defs><title>engine-oil</title><path class="cls-1" d="M5.79,53.52C2.66,57.21.28,61.37.12,67v51.89a4,4,0,0,0,4,4H95.43a4,4,0,0,0,4-4V71.58a55.29,55.29,0,0,0-1.66-14.2C95.1,46.12,90.21,33.8,86.5,22.32c-2.19-6-6.66-8.32-12.44-8.57H53.47c-3.81,0-5.84-.27-9.51,1a24.47,24.47,0,0,0-8.61,4.9L5.79,53.52ZM50.79,29c-1-1-.62-2.19.51-2.24H70.64a6.06,6.06,0,0,1,4.73,4l8.33,23c.48,1.44-.46,2.19-1.89.94L50.79,29Z"/><path class="cls-1" d="M2.35,13h2V10.61H1.21A1.21,1.21,0,0,1,0,9.4V1.21A1.21,1.21,0,0,1,1.21,0H34.54a1.21,1.21,0,0,1,1.21,1.21V9.4a1.21,1.21,0,0,1-1.21,1.21H31.43V13h2.84a2,2,0,0,1,1.85,1.36L3.86,49.87C1.06,53.37.44,53,.4,50.12V15a2,2,0,0,1,2-2Zm.3-10.94H4.39V8.53H2.65V2.08Zm28.86,0h1.75V8.53H31.51V2.08Zm-4.81,0h1.75V8.53H26.7V2.08Zm-4.81,0h1.75V8.53H21.89V2.08Zm-4.81,0h1.75V8.53H17.08V2.08Zm-4.81,0H14V8.53H12.27V2.08Zm-4.81,0H9.21V8.53H7.46V2.08Z"/><path class="cls-2" d="M16.43,62.32H81a4.79,4.79,0,0,1,4.77,4.77V106A4.78,4.78,0,0,1,81,110.72H16.43A4.78,4.78,0,0,1,11.66,106V67.09a4.78,4.78,0,0,1,4.77-4.77Z"/><path class="cls-3" d="M48.65,69.3c1.25,5.35,5.62,10.5,8.4,15.49,4.71,8.45,1.16,17.24-8.4,17.24-10.42,0-13-9.54-7.8-18.25,2.77-4.68,6.65-9.5,7.8-14.48ZM41.42,89.61a1.11,1.11,0,0,1,2.21-.2,10.61,10.61,0,0,0,1.08,4,7.07,7.07,0,0,0,2.75,2.85c2.08,1.22-1.42,4.48-4.71-1.82a13.1,13.1,0,0,1-1.33-4.82Z"/></svg>