<?xml version="1.0" encoding="utf-8"?><svg version="1.1" id="Layer_1" xmlns="http://www.w3.org/2000/svg" xmlns:xlink="http://www.w3.org/1999/xlink" x="0px" y="0px" viewBox="0 0 115.28 122.88" style="enable-background:new 0 0 115.28 122.88" xml:space="preserve"><style type="text/css">.st0{fill-rule:evenodd;clip-rule:evenodd;}</style><g><path class="st0" d="M25.38,57h64.88V37.34H69.59c-2.17,0-5.19-1.17-6.62-2.6c-1.43-1.43-2.3-4.01-2.3-6.17V7.64l0,0H8.15 c-0.18,0-0.32,0.09-0.41,0.18C7.59,7.92,7.55,8.05,7.55,8.24v106.45c0,0.14,0.09,0.32,0.18,0.41c0.09,0.14,0.28,0.18,0.41,0.18 c22.78,0,58.09,0,81.51,0c0.18,0,0.17-0.09,0.27-0.18c0.14-0.09,0.33-0.28,0.33-0.41v-11.16H25.38c-4.14,0-7.56-3.4-7.56-7.56 V64.55C17.82,60.4,21.22,57,25.38,57L25.38,57z M29.76,67.38h21.41v5.53H37.79v4.12H50.2v5.28H37.79v5.1h13.78v5.86H29.76V67.38 L29.76,67.38z M54.7,67.38h13.31c2.9,0,5.07,0.69,6.52,2.07c1.44,1.38,2.16,3.35,2.16,5.9c0,2.62-0.79,4.67-2.36,6.14 c-1.57,1.48-3.98,2.21-7.21,2.21h-4.39v9.58H54.7V67.38L54.7,67.38z M62.73,78.44h1.97c1.56,0,2.65-0.27,3.27-0.81 c0.63-0.54,0.94-1.22,0.94-2.06c0-0.81-0.27-1.5-0.82-2.07c-0.54-0.57-1.57-0.85-3.07-0.85h-2.29V78.44L62.73,78.44z M78.34,84.71 l7.6-0.48c0.16,1.23,0.5,2.17,1.01,2.81c0.83,1.04,2,1.57,3.53,1.57c1.14,0,2.02-0.27,2.63-0.8c0.62-0.54,0.93-1.16,0.93-1.86 c0-0.67-0.29-1.27-0.87-1.8c-0.58-0.53-1.95-1.02-4.09-1.5c-3.51-0.78-6-1.83-7.5-3.14c-1.51-1.3-2.26-2.97-2.26-4.99 c0-1.33,0.39-2.58,1.16-3.76c0.77-1.19,1.93-2.12,3.48-2.79c1.55-0.68,3.67-1.01,6.37-1.01c3.31,0,5.83,0.61,7.57,1.85 c1.74,1.23,2.77,3.19,3.1,5.88l-7.52,0.45c-0.2-1.18-0.62-2.03-1.26-2.56c-0.65-0.54-1.53-0.8-2.66-0.8c-0.93,0-1.63,0.2-2.1,0.59 c-0.47,0.39-0.71,0.87-0.71,1.44c0,0.41,0.19,0.78,0.57,1.11c0.37,0.34,1.26,0.66,2.67,0.95c3.5,0.75,6,1.52,7.5,2.29 c1.51,0.77,2.62,1.72,3.3,2.87c0.69,1.14,1.03,2.42,1.03,3.83c0,1.66-0.46,3.19-1.37,4.59c-0.92,1.4-2.2,2.47-3.85,3.19 c-1.65,0.72-3.72,1.09-6.23,1.09c-4.4,0-7.45-0.85-9.14-2.54C79.53,89.47,78.57,87.32,78.34,84.71L78.34,84.71z M97.79,57h9.93 c4.16,0,7.56,3.41,7.56,7.56v31.42c0,4.15-3.41,7.56-7.56,7.56h-9.93v13.55c0,1.61-0.65,3.04-1.7,4.1c-1.06,1.06-2.49,1.7-4.1,1.7 c-29.44,0-56.59,0-86.18,0c-1.61,0-3.04-0.64-4.1-1.7c-1.06-1.06-1.7-2.49-1.7-4.1V5.85c0-1.61,0.65-3.04,1.7-4.1 c1.06-1.06,2.53-1.7,4.1-1.7h58.72C64.66,0,64.8,0,64.94,0c0.64,0,1.29,0.28,1.75,0.69h0.09c0.09,0.05,0.14,0.09,0.23,0.18 l29.99,30.36c0.51,0.51,0.88,1.2,0.88,1.98c0,0.23-0.05,0.41-0.09,0.65V57L97.79,57z M67.52,27.97V8.94l21.43,21.7H70.19 c-0.74,0-1.38-0.32-1.89-0.78C67.84,29.4,67.52,28.71,67.52,27.97L67.52,27.97z"/></g></svg>