<?xml version="1.0" encoding="utf-8"?><svg version="1.1" id="Layer_1" xmlns="http://www.w3.org/2000/svg" xmlns:xlink="http://www.w3.org/1999/xlink" x="0px" y="0px" viewBox="0 0 93.75 122.88" style="enable-background:new 0 0 93.75 122.88" xml:space="preserve"><g><path d="M51.27,50.45c0.86,0.47,1.17,1.54,0.71,2.4c-0.47,0.86-1.54,1.17-2.4,0.71c-4.48-2.45-8.11-5.38-10.11-9.44 c-1.76-3.58-2.22-7.94-0.83-13.47c-2.61,0.37-5.59,1.28-8.64,2.2c-5.9,1.8-12.06,3.67-17.3,2.31c-0.5,1.05-0.88,2.18-1.17,3.37 c-0.42,1.72-0.63,3.58-0.69,5.54c-0.06,1.7-0.01,2.86,0.03,3.77c0.11,2.79,0.14,3.5-2.22,8.32L4.6,64.42 c-0.04,0.09-0.08,0.18-0.14,0.26c-0.63,0.96-0.91,1.82-0.92,2.54c-0.01,0.38,0.06,0.71,0.19,0.97C3.84,68.42,4,68.61,4.2,68.74l0,0 c0.23,0.15,0.52,0.24,0.85,0.26c0.05,0,0.09,0,0.14,0l4.65,0.27c0.15-0.05,0.32-0.08,0.49-0.08c0.06,0,0.12,0,0.18,0.01l0-0.01 l4.31,0.37c0.98,0.08,1.7,0.94,1.62,1.91c-0.08,0.98-0.94,1.7-1.91,1.62l-0.09-0.01l-2.28-0.13l0.01,0.87 c0.01,1.68,0.02,3.45,0.1,5.1c27.98-6.02,37.64,1.25,40.67,15.19c1.09,5.02,1.37,10.88,1.68,17.29c0.16,3.3,0.32,7.67,0.64,11.46 H49.7c-0.3-3.53-0.47-7.68-0.64-11.2c-0.29-6.13-0.56-11.74-1.57-16.38c-2.22-10.24-10.43-15.7-32.24-11.48 c-0.25,0.13-0.51,0.17-0.76,0.15c-0.52,0.1-1.04,0.21-1.57,0.33l0.01,0.14c0.04,0.8,0.06,1.19,0.11,1.52 c0.05,0.33,0.12,0.65,0.26,1.27l0.14,0.65h0c0.08,0.38,0.04,0.79-0.14,1.17c-0.95,1.89-1.43,3.46-1.51,4.75 c-0.08,1.29,0.26,2.26,0.93,2.94c0.76,0.77,1.96,1.28,3.49,1.57c2.46,0.46,5.61,0.32,9.04-0.3c0.97-0.17,2.03-0.39,3.17-0.66 c1.07-0.25,2.11-0.52,3.09-0.81c0.94-0.27,1.92,0.27,2.19,1.2l0.01,0.05c0.03,0.12,0.06,0.24,0.07,0.37 c0.07,0.9,0.12,1.45,0.19,2.15l1.35,22.57h-3.55c0.55-2.04-0.78-16.34-1.32-22.25l-0.01-0.14c-0.41,0.11-0.82,0.21-1.22,0.3 c-1.08,0.25-2.21,0.48-3.35,0.69c-3.84,0.69-7.44,0.84-10.32,0.3c-2.22-0.42-4.06-1.25-5.36-2.57c-1.38-1.4-2.1-3.27-1.95-5.64 c0.1-1.6,0.61-3.43,1.6-5.53l-0.01-0.05c-0.17-0.75-0.26-1.14-0.31-1.55c-0.06-0.47-0.09-0.91-0.14-1.82L9.38,84.2 c-0.04-0.73,0.68-1.42,1.71-2.09c-1.27-0.14-2.19-0.56-2.27-1.63c-0.15-1.97-0.16-4.38-0.18-6.63c0-0.37,0-0.74-0.01-1.1 l-3.64-0.21l-0.05,0c-1-0.04-1.91-0.33-2.67-0.83l0,0l0,0c-0.73-0.48-1.31-1.14-1.71-1.94C0.18,69-0.02,68.12,0,67.16 c0.03-1.32,0.47-2.81,1.44-4.32l4.03-8.24c1.96-4.01,1.94-4.54,1.86-6.63c-0.04-0.95-0.09-2.18-0.03-4.02 c0.07-2.19,0.32-4.29,0.79-6.26c0.32-1.35,0.76-2.63,1.31-3.84L2.2,30.7c-0.89-0.39-1.3-1.43-0.91-2.33 c0.05-0.12,0.12-0.24,0.19-0.34l0,0C19.05,4.08,38.92-2.51,55.72,0.8c9.82,1.94,18.56,7.27,25.18,14.51 c6.61,7.23,11.11,16.38,12.44,25.95c2.19,15.76-4.13,32.63-23.6,44.04c-0.09,0.05-0.19,0.1-0.28,0.13 c0.1,3.74,0.45,7.92,0.95,12.06c0.93,7.6,2.39,21.36,3.9,25.39H71c-1.62-4.29-3.16-17.12-4.11-24.97c-0.9-7.39-1.29-15-0.76-20.15 l3.52,0.36c-0.1,0.98-0.17,2.06-0.2,3.22c16.85-10.53,22.34-25.57,20.39-39.6c-1.23-8.86-5.4-17.34-11.54-24.05 c-6.12-6.7-14.2-11.63-23.26-13.42C39.88,1.29,21.92,7.16,5.66,28.35l6.81,2.97c0.1,0.04,0.2,0.09,0.3,0.15l0.02,0.01 c4.38,1.58,10.42-0.26,16.19-2.02c4.24-1.29,8.35-2.54,11.94-2.53c0.22-0.02,0.46,0.01,0.68,0.08c0.93,0.31,1.43,1.31,1.13,2.24 c-1.9,5.76-1.7,10.01-0.09,13.29C44.27,45.85,47.39,48.32,51.27,50.45L51.27,50.45z M60.48,58.19c0.18,0.96-0.46,1.88-1.42,2.06 c-0.96,0.18-1.88-0.46-2.06-1.42c-0.19-1.07-0.13-2.07,0.12-2.99c0.37-1.3,1.13-2.42,2.12-3.26c0.97-0.82,2.17-1.39,3.46-1.62 c1.08-0.2,2.21-0.16,3.31,0.15c3.01,0.85,4.3,2.39,4.57,4.36c0.24,1.7-0.41,3.52-1.31,5.41c-0.78,1.64-3.78,7.9-6.75,11.74 c-4.36,5.63-8.59,7.68-9.24-4.2c-0.05-0.98,0.7-1.81,1.68-1.86c0.98-0.05,1.81,0.7,1.86,1.68c0.24,4.4,1.56,3.96,2.91,2.22 c2.74-3.53,5.61-9.52,6.35-11.09c0.65-1.36,1.13-2.59,1.01-3.42c-0.08-0.56-0.64-1.05-2.02-1.44c-0.58-0.16-1.17-0.18-1.72-0.08 c-0.67,0.12-1.3,0.42-1.81,0.85c-0.48,0.4-0.83,0.92-1,1.52C60.42,57.22,60.39,57.69,60.48,58.19L60.48,58.19z"/></g></svg>