<?xml version="1.0" encoding="utf-8"?><svg version="1.1" id="Layer_1" xmlns="http://www.w3.org/2000/svg" xmlns:xlink="http://www.w3.org/1999/xlink" x="0px" y="0px" viewBox="0 0 108.22 122.88" style="enable-background:new 0 0 108.22 122.88" xml:space="preserve"><style type="text/css">.st0{fill:#F45800;}</style><g><path class="st0" d="M36.25,12.3v45.48c0,0,16.02,0,24.6-0.65c6.74-1.18,7.99-1.83,9.23-8.58l2.48-9.88h7.33l-1.24,21.59 l0.65,22.12h-7.4l-1.83-8.64c-1.83-6.15-4.31-7.39-9.23-7.99c-6.15-0.65-24.6-0.65-24.6-0.65v38.14c0,7.33,3.72,10.47,12.3,10.47 h25.84c7.99,0,15.96-0.65,20.94-12.3l6.68-14.78h6.21c-0.65,3.07-3.72,30.16-4.31,36.25c0,0-23.36-0.59-33.18-0.59h-44.3L0,122.88 v-6.68l8.58-1.89c6.21-1.24,8.04-3.07,8.04-7.99c0,0,0.65-16.61,0.65-44.3c0-27.61-0.65-44.24-0.65-44.24 c0-5.5-1.83-6.74-8.04-7.99L0,7.98V1.24l25.84,0.53h49.2c9.82,0,26.37-1.77,26.37-1.77s-0.59,10.41-1.24,35.01l-6.74,0l-2.48-8.64 C88.52,15.31,84.85,9.81,78.05,9.81H39.38C36.25,9.82,36.25,10.41,36.25,12.3L36.25,12.3z"/></g></svg>