<?xml version="1.0" encoding="utf-8"?><svg version="1.1" id="Layer_1" xmlns="http://www.w3.org/2000/svg" xmlns:xlink="http://www.w3.org/1999/xlink" x="0px" y="0px" viewBox="0 0 122.88 122.88" style="enable-background:new 0 0 122.88 122.88" xml:space="preserve"><style type="text/css"><![CDATA[
	.st0{fill-rule:evenodd;clip-rule:evenodd;}
]]></style><g><path class="st0" d="M61.44,0c16.96,0,32.33,6.88,43.44,18c11.12,11.12,18,26.48,18,43.44c0,16.97-6.88,32.33-18,43.45 c-11.12,11.12-26.48,18-43.44,18S29.11,116,18,104.88C6.88,93.77,0,78.41,0,61.44C0,44.48,6.88,29.11,18,18 C29.11,6.88,44.48,0,61.44,0L61.44,0z M69.44,63.11l-1.46,6.08H57.85c1.31,4.14,4.16,6.21,8.53,6.21c4.8,0,9.3-1.55,13.47-4.64 v12.43c-3.47,2.37-7.66,3.55-12.56,3.55c-7.93,0-13.8-1.81-17.6-5.43c-3.79-3.62-6.11-7.66-6.96-12.12H36.7l1.58-6.08h3.69 c-0.05-0.33-0.07-0.92-0.07-1.76c0-0.89,0.02-1.53,0.07-1.92h-4.45l1.58-6.08h3.63c2.89-11.43,10.83-17.14,23.82-17.14 c4.24,0,8.55,1.14,12.9,3.41l-3,12.08c-3.03-2.78-6.19-4.17-9.48-4.17c-4.31,0-7.24,1.93-8.75,5.8h12.04l-1.46,6.08H57.06 c-0.05,0.44-0.07,1.08-0.07,1.92v1.76H69.44L69.44,63.11z M61.44,17.24c24.41,0,44.2,19.79,44.2,44.19 c0,24.41-19.79,44.2-44.2,44.2c-24.41,0-44.2-19.79-44.2-44.2C17.24,37.03,37.03,17.24,61.44,17.24L61.44,17.24z M61.44,8.74 c29.11,0,52.7,23.6,52.7,52.7c0,29.11-23.6,52.7-52.7,52.7c-29.11,0-52.7-23.59-52.7-52.7C8.74,32.33,32.33,8.74,61.44,8.74 L61.44,8.74z"/></g></svg>