<?xml version="1.0" encoding="utf-8"?><svg version="1.1" id="Layer_1" xmlns="http://www.w3.org/2000/svg" xmlns:xlink="http://www.w3.org/1999/xlink" x="0px" y="0px" viewBox="0 0 122.88 97.91" style="enable-background:new 0 0 122.88 97.91" xml:space="preserve"><style type="text/css">.st0{fill-rule:evenodd;clip-rule:evenodd;}</style><g><path class="st0" d="M11.08,0H111.8c6.09,0,11.08,5,11.08,11.08v75.75c0,6.08-5,11.08-11.08,11.08H11.08 C4.99,97.91,0,92.93,0,86.83V11.08C0,4.98,4.98,0,11.08,0L11.08,0z M29.58,20.59h25.47v11.09H44.88v10.6h9.51v10.53h-9.51v12.22 h11.21v11.09H29.58V20.59L29.58,20.59z M93.82,20.59l-5.35,24.56l8.09,30.98H82.46c-1.68-5.55-3.24-12.3-4.68-20.28 c-0.43,3.56-1.09,7.29-1.68,11.22l-1.36,9.06H59.88l5.57-30.98l-5.57-24.56h14.78c0.31,1.53,0.81,4.11,1.57,7.68 c0.58,2.71,1.13,5.23,1.55,7.52l3.27-15.2H93.82L93.82,20.59z"/></g></svg>