<?xml version="1.0" encoding="utf-8"?><svg version="1.1" id="Layer_1" xmlns="http://www.w3.org/2000/svg" xmlns:xlink="http://www.w3.org/1999/xlink" x="0px" y="0px" viewBox="0 0 122.88 120.48" style="enable-background:new 0 0 122.88 120.48" xml:space="preserve"><style type="text/css"><![CDATA[
	.st0{fill-rule:evenodd;clip-rule:evenodd;}
]]></style><g><path class="st0" d="M106.91,56.1c1.41-20.5-1.74-33.09-24.15-33.09h-3.28l-0.01-6.25c0-3.12-0.74-3.66-2.98-1.52L64.32,26.8 c-1.46,1.39-1.26,2.3,0.14,3.65l12.01,11.51c2.1,2.12,3.04,1.52,3-1.4v-7.35C99.63,31.94,96.6,44.18,96.6,56.1H106.91L106.91,56.1 L106.91,56.1z M94.83,64.38c-7.75,0-14.76,3.14-19.83,8.22c-5.08,5.08-8.22,12.09-8.22,19.83c0,7.74,3.14,14.76,8.22,19.83 c5.08,5.08,12.09,8.22,19.83,8.22c7.74,0,14.76-3.14,19.83-8.22c5.08-5.07,8.22-12.08,8.22-19.83s-3.14-14.76-8.22-19.83 C109.59,67.52,102.58,64.38,94.83,64.38L94.83,64.38L94.83,64.38z M82.84,96.21V92.3l3.1-1.41v-2.65l-3.1,1.41v-3.92l3.1-1.41 v-6.63h8.16v2.94l4.32-1.96v3.92l-4.32,1.96v2.65l4.32-1.96v3.92l-4.32,1.96v9.02c1.26,0,2.32-0.21,3.18-0.62 c0.86-0.41,1.54-0.99,2.06-1.72c0.52-0.73,0.89-1.61,1.12-2.63c0.22-1.01,0.34-2.12,0.34-3.31h8.24c0,2.29-0.31,4.36-0.92,6.22 c-0.61,1.86-1.54,3.43-2.77,4.74c-1.23,1.3-2.79,2.31-4.65,3.03c-1.87,0.71-4.07,1.07-6.6,1.07h-8.15v-12.1L82.84,96.21 L82.84,96.21L82.84,96.21z M39.63,19.23l-7.49,1.17c-0.38-0.95-0.71-1.6-1.02-1.96c-0.3-0.36-0.8-0.73-1.49-1.1v5.81 c4.07,1.09,6.78,2.24,8.15,3.43c1.8,1.63,2.71,3.67,2.71,6.17c0,1.46-0.32,2.8-0.97,4.01c-0.65,1.22-1.48,2.24-2.49,3.06 c-1.01,0.82-2.08,1.4-3.22,1.77s-2.53,0.58-4.18,0.65v3.78h-2.92v-3.78c-1.97-0.17-3.57-0.49-4.79-0.95 c-1.22-0.46-2.29-1.09-3.17-1.91c-0.88-0.81-1.58-1.68-2.06-2.63c-0.48-0.94-0.84-2.08-1.08-3.41l8.1-0.94 c0.24,1.32,0.57,2.27,0.98,2.85c0.4,0.58,1.08,1.11,2.02,1.56v-7.1c-2.72-0.75-4.63-1.4-5.77-1.94s-2.11-1.44-2.94-2.65 s-1.25-2.69-1.25-4.43c0-2.39,0.83-4.38,2.5-5.98c1.67-1.6,4.16-2.5,7.45-2.67v-1.97h2.92v1.98c3,0.19,5.3,0.89,6.89,2.13 C38.11,15.4,39.15,17.08,39.63,19.23L39.63,19.23L39.63,19.23z M26.71,17.23c-0.87,0.28-1.46,0.63-1.8,1.04s-0.5,0.9-0.5,1.47 c0,0.58,0.17,1.09,0.52,1.53c0.35,0.44,0.94,0.8,1.79,1.09L26.71,17.23L26.71,17.23L26.71,17.23z M29.64,37.02 c1.14-0.25,1.97-0.68,2.5-1.26s0.8-1.24,0.8-1.96c0-0.63-0.22-1.21-0.67-1.75c-0.45-0.53-1.32-1.02-2.62-1.47L29.64,37.02 L29.64,37.02L29.64,37.02z M28.05,0C20.3,0,13.29,3.14,8.22,8.22C3.14,13.29,0,20.31,0,28.05s3.14,14.76,8.22,19.83 c5.08,5.08,12.09,8.22,19.83,8.22s14.76-3.14,19.83-8.22c5.08-5.07,8.22-12.08,8.22-19.83s-3.14-14.76-8.22-19.83 C42.81,3.14,35.8,0,28.05,0L28.05,0L28.05,0z M15.76,64.55c-1.41,20.5,1.74,33.09,24.15,33.09h3.28l0.01,6.25 c0,3.12,0.73,3.66,2.98,1.52l12.17-11.56c1.47-1.39,1.26-2.3-0.14-3.65L46.2,78.69c-2.1-2.13-3.04-1.53-3,1.4v7.35 c-20.15,1.27-17.12-10.97-17.12-22.89H15.76L15.76,64.55L15.76,64.55z"/></g></svg>