<?xml version="1.0" encoding="utf-8"?><svg version="1.1" id="Layer_1" xmlns="http://www.w3.org/2000/svg" xmlns:xlink="http://www.w3.org/1999/xlink" x="0px" y="0px" viewBox="0 0 122.88 120.48" style="enable-background:new 0 0 122.88 120.48" xml:space="preserve"><style type="text/css"><![CDATA[
	.st0{fill-rule:evenodd;clip-rule:evenodd;}
]]></style><g><path class="st0" d="M106.91,56.1c1.41-20.5-1.74-33.09-24.15-33.09l-3.28,0l-0.01-6.25c0-3.12-0.73-3.66-2.98-1.52L64.32,26.8 c-1.47,1.39-1.26,2.3,0.14,3.65l12.01,11.51c2.1,2.12,3.04,1.52,3-1.4v-7.35C99.63,31.94,96.6,44.18,96.6,56.1H106.91L106.91,56.1 L106.91,56.1z M94.83,64.38c-7.75,0-14.76,3.14-19.83,8.22c-5.08,5.08-8.22,12.09-8.22,19.83c0,7.74,3.14,14.76,8.22,19.83 c5.08,5.08,12.09,8.22,19.83,8.22c7.74,0,14.76-3.14,19.83-8.22c5.08-5.07,8.22-12.08,8.22-19.83c0-7.75-3.14-14.76-8.22-19.83 C109.59,67.52,102.58,64.38,94.83,64.38L94.83,64.38L94.83,64.38z M82.37,89.1l2.11-4.76h7.97c-0.1-0.34-0.28-0.67-0.53-1 c-0.25-0.32-0.56-0.6-0.93-0.84c-0.37-0.24-0.78-0.43-1.23-0.58c-0.45-0.15-0.94-0.22-1.44-0.22h-5.95l2.11-4.76h22.8l-2.11,4.76 h-5.51c0.22,0.17,0.42,0.36,0.61,0.58c0.19,0.22,0.35,0.44,0.5,0.69c0.14,0.24,0.26,0.48,0.36,0.71c0.09,0.24,0.16,0.46,0.19,0.66 h5.97l-2.11,4.76h-4.31c-0.32,0.81-0.79,1.57-1.41,2.29c-0.63,0.73-1.36,1.37-2.18,1.95c-0.84,0.58-1.74,1.05-2.71,1.45 c-0.97,0.39-1.96,0.65-2.96,0.79l11.98,12.33h-9.47L83.41,96.19v-4.37h4.73c0.45,0,0.9-0.07,1.34-0.22 c0.45-0.15,0.86-0.35,1.23-0.6c0.38-0.25,0.7-0.54,0.97-0.86c0.27-0.33,0.47-0.67,0.58-1.03H82.37L82.37,89.1L82.37,89.1z M39.11,20.48l-7.15,1.13c-0.36-0.9-0.68-1.52-0.97-1.87c-0.29-0.35-0.76-0.7-1.43-1.05v5.55c3.88,1.04,6.48,2.13,7.78,3.28 c1.72,1.55,2.59,3.51,2.59,5.89c0,1.39-0.31,2.67-0.93,3.83c-0.62,1.17-1.41,2.13-2.38,2.92c-0.96,0.78-1.99,1.34-3.08,1.69 c-1.09,0.35-2.42,0.56-3.99,0.62v2.49h-2.79v-2.49c-1.88-0.16-3.4-0.46-4.57-0.9c-1.17-0.44-2.18-1.05-3.03-1.83 c-0.84-0.77-1.5-1.61-1.96-2.51c-0.46-0.9-0.81-1.99-1.03-3.25l7.74-0.9c0.23,1.26,0.54,2.17,0.94,2.72 c0.38,0.56,1.03,1.05,1.93,1.49V30.5c-2.59-0.71-4.43-1.33-5.5-1.86c-1.08-0.52-2.02-1.37-2.81-2.53 c-0.79-1.16-1.19-2.57-1.19-4.23c0-2.28,0.8-4.18,2.39-5.71c1.6-1.53,3.97-2.38,7.12-2.55v-2.48h2.79v2.48 c2.87,0.18,5.06,0.85,6.58,2.03C37.65,16.84,38.65,18.44,39.11,20.48L39.11,20.48L39.11,20.48z M26.77,18.58 c-0.83,0.27-1.39,0.6-1.71,1c-0.32,0.39-0.48,0.86-0.48,1.4c0,0.56,0.17,1.05,0.49,1.46c0.33,0.42,0.9,0.76,1.71,1.05V18.58 L26.77,18.58L26.77,18.58z M29.56,37.48c1.09-0.24,1.88-0.65,2.38-1.2s0.76-1.19,0.76-1.87c0-0.6-0.22-1.16-0.64-1.67 c-0.43-0.5-1.26-0.98-2.5-1.41V37.48L29.56,37.48L29.56,37.48z M28.05,0C20.3,0,13.29,3.14,8.22,8.22C3.14,13.29,0,20.31,0,28.05 s3.14,14.76,8.22,19.83c5.08,5.08,12.09,8.22,19.83,8.22s14.76-3.14,19.83-8.22c5.08-5.07,8.22-12.08,8.22-19.83 s-3.14-14.76-8.22-19.83C42.81,3.14,35.8,0,28.05,0L28.05,0L28.05,0z M15.76,64.55c-1.41,20.5,1.74,33.09,24.15,33.09h3.28 l0.01,6.25c0,3.12,0.73,3.66,2.98,1.52l12.17-11.56c1.47-1.39,1.26-2.3-0.14-3.65L46.2,78.69c-2.1-2.12-3.04-1.53-3,1.4v7.35 c-20.15,1.27-17.12-10.97-17.12-22.89H15.76L15.76,64.55L15.76,64.55z"/></g></svg>