<svg xmlns="http://www.w3.org/2000/svg" shape-rendering="geometricPrecision" text-rendering="geometricPrecision" image-rendering="optimizeQuality" fill-rule="evenodd" clip-rule="evenodd" viewBox="0 0 512 512.04"><path fill-rule="nonzero" d="m412.85 310.33 29.16-29.15c18.28-19.58 55.76-13.06 57.73 15.71l12.22 176.7c.92 22.88-15.21 39.82-37.8 38.36l-174.9-11.41c-27.01-3.29-38.55-38.11-18.87-57.79l29.89-29.81L99.12 201.77l-29.04 29.04c-19.21 20.47-56.6 10.28-58.48-18.58L.12 38.35C-1.58 16.3 15.82-.84 37.91.03l174.87 11.42c28.2 3.43 38.03 38.92 18.23 58.73l-29.16 29.15 211 211zm0 33.79L168.06 99.33l46.05-46.05c5.73-5.73 4.14-16.99-4.02-18.11L36.33 23.84c-6.79-.44-13.34 4.64-12.49 11.83L35.4 210.74c.51 7.7 12.5 9.13 17.36 3.69l.42-.52 45.94-45.93L344.04 412.9l-46.77 46.72c-5.48 5.62-2.62 16.23 4.81 17.2 57.06 3.72 118.94 10.13 175.53 11.37 8.09-.35 10.39-6.33 10.56-13.34l-12.24-176.37c-.45-6.77-12.54-5.48-16.61-.92l-46.47 46.56z"/></svg>