<?xml version="1.0" encoding="utf-8"?><svg version="1.1" id="Layer_1" xmlns="http://www.w3.org/2000/svg" xmlns:xlink="http://www.w3.org/1999/xlink" x="0px" y="0px" viewBox="0 0 122.88 113.03" style="enable-background:new 0 0 122.88 113.03" xml:space="preserve"><style type="text/css"><![CDATA[
	.st0{fill-rule:evenodd;clip-rule:evenodd;}
]]></style><g><path class="st0" d="M36.9,23.5h71.13c8.17,0,14.85,6.69,14.85,14.85v59.83c0,8.17-6.69,14.85-14.85,14.85H36.9 c-8.17,0-14.85-6.68-14.85-14.85V38.35C22.05,30.19,28.73,23.5,36.9,23.5L36.9,23.5z M10.08,73.96c0,2.78-2.26,5.04-5.04,5.04 C2.26,79,0,76.74,0,73.96V19.89C0,14.42,2.24,9.44,5.84,5.84C9.44,2.24,14.42,0,19.89,0h65.37c2.78,0,5.04,2.26,5.04,5.04 c0,2.78-2.26,5.04-5.04,5.04H19.89c-2.69,0-5.15,1.1-6.93,2.88c-1.78,1.78-2.88,4.23-2.88,6.93V73.96L10.08,73.96z M84.6,56.42 l0.08-0.08c0.91-0.86,2.09-1.3,3.26-1.3c1.2,0,2.41,0.46,3.32,1.38c0.02,0.01,0.06,0.06,0.08,0.08c0.86,0.91,1.3,2.08,1.29,3.26 c0,1.19-0.45,2.38-1.35,3.29C86.61,68.17,80.72,75.5,75.86,80c-1.01,0.98-2.21,1.48-3.42,1.48c-1.24,0-2.46-0.51-3.51-1.55 c-3.53-2.85-11.68-12.89-15.29-16.87c-0.91-0.92-1.36-2.14-1.35-3.34c0.01-1.21,0.48-2.41,1.4-3.32c0.73-0.72,1.65-1.16,2.59-1.3 c0.97-0.15,1.98,0.01,2.87,0.47c0.12,0.06,0.22,0.14,0.3,0.23l13.07,14.22c2.21-2.28,3.86-4.27,5.5-6.26 C79.93,61.46,81.84,59.16,84.6,56.42L84.6,56.42z"/></g></svg>