<svg xmlns="http://www.w3.org/2000/svg" shape-rendering="geometricPrecision" text-rendering="geometricPrecision" image-rendering="optimizeQuality" fill-rule="evenodd" clip-rule="evenodd" viewBox="0 0 469 512.42"><path fill-rule="nonzero" d="M191.82 93.36c27.85 0 53.07 11.31 71.31 29.54 18.23 18.23 29.53 43.46 29.53 71.3 0 27.85-11.3 53.07-29.53 71.31-18.24 18.23-43.46 29.53-71.31 29.53-27.84 0-53.07-11.3-71.3-29.53-18.23-18.24-29.54-43.46-29.54-71.31 0-27.84 11.31-53.07 29.54-71.3 18.23-18.23 43.46-29.54 71.3-29.54zm156.18 240 56.1 67.54h-34.84v44.58h-42.53V400.9h-34.85L348 333.36zm0-62.97c33.39 0 63.66 13.55 85.55 35.44l.61.65c21.53 21.84 34.84 51.85 34.84 84.91 0 33.4-13.55 63.68-35.45 85.58l-.65.61c-21.83 21.52-51.84 34.84-84.9 34.84-33.4 0-63.65-13.57-85.54-35.45-21.94-21.9-35.49-52.18-35.49-85.58 0-33.37 13.57-63.62 35.45-85.52 21.89-21.93 52.18-35.48 85.58-35.48zm69.05 51.95c-17.66-17.67-42.1-28.6-69.05-28.6-26.96 0-51.42 10.93-69.08 28.6-17.65 17.64-28.59 42.1-28.59 69.05 0 26.96 10.92 51.42 28.59 69.08 17.64 17.64 42.1 28.59 69.08 28.59 26.7 0 50.94-10.73 68.56-28.06l.49-.53c17.67-17.66 28.6-42.12 28.6-69.08 0-26.7-10.74-50.94-28.07-68.56l-.53-.49zM197.53 485.87c7.56-4.8 14.91-9.92 22.02-15.28a149.47 149.47 0 0 0 13.51 18.57c-9.26 6.93-18.87 13.49-28.85 19.57-3.7 2.74-8.88 3.08-13 .48-44.87-28.52-82.58-62.92-112.28-100.19C38.05 357.7 12.26 300.79 3.44 246.01c-8.96-55.55-.56-109.03 27.07-152.51C41.4 76.35 55.34 60.72 72.37 47.15 111.36 16.08 156-.37 200.29.01c42.69.35 84.97 16.28 121.48 49.6 12.8 11.7 23.59 24.97 32.37 39.46 26.56 43.85 34.52 98.6 26.54 154.99-7.4-1.63-14.96-2.72-22.72-3.23 7.27-51.33.26-100.76-23.43-139.87-7.6-12.52-17-24.08-28.24-34.34-32.14-29.32-69.08-43.36-106.2-43.65-38.97-.32-78.53 14.37-113.42 42.18C71.78 77 59.56 90.73 49.97 105.83c-24.52 38.59-31.92 86.5-23.85 136.6 8.19 50.88 32.39 104.07 70.81 152.29 26.78 33.59 60.51 64.79 100.6 91.15zm49.33-346.7c-14.06-14.06-33.55-22.81-55.04-22.81-21.48 0-40.97 8.75-55.03 22.81-14.06 14.06-22.81 33.55-22.81 55.03 0 21.49 8.75 40.98 22.81 55.04 14.06 14.06 33.55 22.8 55.03 22.8 21.49 0 40.98-8.74 55.04-22.8 14.06-14.06 22.8-33.55 22.8-55.04 0-21.48-8.74-40.97-22.8-55.03z"/></svg>