<?xml version="1.0" encoding="utf-8"?><svg version="1.1" id="Layer_1" xmlns="http://www.w3.org/2000/svg" xmlns:xlink="http://www.w3.org/1999/xlink" x="0px" y="0px" viewBox="0 0 122.67 122.88" style="enable-background:new 0 0 122.67 122.88" xml:space="preserve"><g><path d="M31.24,104.46l-0.01-0.03c-1.42-1-2.82-2.09-4.2-3.27c-1.43-1.22-2.83-2.53-4.19-3.93c-0.54-0.56-1.1-1.15-1.67-1.78 c-0.56-0.62-1.08-1.22-1.57-1.8C13.25,88.03,8.42,82.62,5.14,77.31C1.81,71.92,0.08,66.62,0,61.29C-0.07,55.97,1.5,50.7,4.76,45.37 c3.22-5.25,8.09-10.57,14.66-16.06c0.05-0.07,0.11-0.14,0.17-0.2c0.07-0.07,0.13-0.14,0.21-0.21c1.7-2.19,3.52-4.2,5.45-6.01 c1.94-1.83,3.99-3.47,6.11-4.93c0.4-0.96,0.77-1.94,1.11-2.93c0.36-1.06,0.68-2.11,0.94-3.15c0.26-1.05,0.47-2.11,0.61-3.16 c0.14-1.06,0.22-2.12,0.23-3.18h0c0-0.05,0-0.13,0.01-0.22l0.01-0.11c0-0.04,0.01-0.09,0.02-0.13c0.08-0.39,0.17-0.75,0.29-1.11 c0.12-0.37,0.26-0.7,0.41-0.99l0.03-0.05c0.18-0.33,0.38-0.63,0.6-0.9c0.24-0.29,0.5-0.55,0.78-0.77c0.3-0.23,0.62-0.43,0.96-0.59 c0.33-0.16,0.68-0.28,1.07-0.38c0.31-0.08,0.65-0.14,0.99-0.19c0.34-0.04,0.7-0.07,1.06-0.08c0.69-0.02,1.38-0.02,2.05,0.06 c0.71,0.09,1.4,0.26,2.07,0.58c0.76,0.36,1.43,0.88,1.96,1.6c0.52,0.7,0.9,1.59,1.11,2.72c0.02,0.1,0.03,0.19,0.03,0.27l0.01,0.23 l-0.28,5.19c0.42-0.11,0.83-0.21,1.25-0.31c0.8-0.19,1.63-0.36,2.48-0.53c4.85-0.91,9.79-1.17,14.67-0.8 c4.95,0.37,9.84,1.39,14.48,2.99c4.69,1.62,9.13,3.85,13.14,6.63c3.91,2.71,7.4,5.95,10.33,9.66c3.33,4.22,5.92,9.06,7.55,14.46 c1.52,5.04,2.2,10.57,1.83,16.53c0.1,1.67,0.26,3.21,0.47,4.61c0.21,1.39,0.47,2.61,0.81,3.63c0.27,0.82,0.57,1.49,0.89,1.95 c0.26,0.37,0.53,0.6,0.8,0.68l0.25,0.09c0.33,0.12,0.65,0.26,0.96,0.42l0,0c0.33,0.16,0.65,0.35,0.95,0.55 c0.31,0.2,0.61,0.43,0.9,0.68c0.29,0.24,0.57,0.52,0.85,0.83c1.31,1.44,1.97,2.63,2.3,3.87c0.32,1.21,0.32,2.39,0.31,3.88l0,0.05 c0,0.07-0.01,0.14-0.02,0.21c0.02,0.15,0.03,0.31,0.03,0.5v10.41c0.03,0.35,0.02,0.7-0.01,1.05c-0.03,0.37-0.1,0.72-0.2,1.05 c-0.11,0.36-0.25,0.7-0.41,1.02c-0.17,0.32-0.37,0.62-0.59,0.89c-0.05,0.06-0.09,0.12-0.14,0.17c-0.75,0.84-1.57,1.35-2.42,1.6 c-0.86,0.26-1.74,0.25-2.61,0.07c-0.71-0.14-1.36-0.39-1.98-0.68c-0.61-0.29-1.16-0.61-1.7-0.93c-1.28-0.75-2.27-1.51-3.13-2.17 l0,0c-0.99-0.76-1.71-1.31-2.54-1.17c-1.01,0.17-2.42,1.15-4.85,3.51c-0.62,0.6-1.27,1.21-1.94,1.82 c-0.68,0.62-1.34,1.19-1.97,1.72c-5.64,4.72-11.78,8.34-18.17,10.77c-6.41,2.43-13.06,3.66-19.7,3.59 c-2.39-0.03-4.76-0.22-7.1-0.57c-1.92-0.29-3.84-0.7-5.73-1.23l0.26,5.24c0,0.08,0,0.16,0,0.23l0,0.03 c-0.01,0.07-0.02,0.15-0.03,0.24l0,0c-0.21,1.13-0.59,2.02-1.11,2.72c-0.53,0.72-1.2,1.24-1.96,1.6c-0.67,0.32-1.36,0.5-2.07,0.58 c-0.66,0.08-1.35,0.09-2.05,0.06c-0.37-0.01-0.72-0.04-1.06-0.08c-0.35-0.04-0.69-0.11-1-0.19l-0.04-0.01 c-0.37-0.1-0.71-0.22-1.03-0.37c-0.35-0.16-0.67-0.36-0.96-0.59c-0.28-0.22-0.54-0.48-0.78-0.77c-0.23-0.28-0.44-0.6-0.62-0.95 c-0.15-0.29-0.29-0.62-0.41-0.99c-0.12-0.36-0.22-0.73-0.29-1.12l-0.03-0.22c-0.01-0.09-0.01-0.17-0.01-0.22h0 c0-1.06-0.09-2.14-0.23-3.22c-0.15-1.08-0.36-2.17-0.62-3.25c-0.27-1.09-0.59-2.17-0.95-3.24 C32.08,106.55,31.67,105.5,31.24,104.46L31.24,104.46z M37.55,108.27c0.14,0.48,0.27,0.98,0.39,1.48c0.3,1.21,0.54,2.43,0.71,3.67 c0.16,1.2,0.26,2.41,0.28,3.64c0.03,0.13,0.07,0.26,0.11,0.38c0.04,0.12,0.08,0.22,0.12,0.3l0.02,0.03 c0.02,0.04,0.04,0.07,0.06,0.1c0.02,0.02,0.04,0.04,0.06,0.06c0.03,0.03,0.07,0.05,0.1,0.06c0.06,0.03,0.12,0.05,0.2,0.07l0,0 c0.12,0.03,0.27,0.06,0.44,0.08c0.2,0.02,0.39,0.04,0.59,0.04c0.42,0.01,0.83,0.02,1.19-0.02c0.3-0.03,0.57-0.08,0.76-0.17 c0.08-0.04,0.15-0.1,0.22-0.2c0.08-0.12,0.16-0.29,0.21-0.51l-0.33-6.71c-1.11-0.43-2.22-0.9-3.31-1.41 C38.75,108.88,38.15,108.58,37.55,108.27L37.55,108.27z M108.47,59.11c0.34-5.38-0.26-10.37-1.62-14.92 c-1.45-4.84-3.78-9.19-6.76-12.97c-2.65-3.36-5.81-6.29-9.35-8.74c-3.65-2.53-7.69-4.56-11.96-6.03c-4.25-1.47-8.74-2.4-13.3-2.74 c-4.48-0.34-9.02-0.11-13.46,0.73c-3.39,0.64-6.72,1.63-9.93,2.99c-2.93,1.24-5.76,2.79-8.45,4.68c0.65,4.7,0.02,7.82-1.27,10.13 c-1.34,2.41-3.33,3.86-5.31,5.29l-0.04,0.03c-0.73,0.53-1.45,1.06-2.09,1.62v2.85c0.33-0.14,0.66-0.27,1-0.37 c0.81-0.25,1.65-0.38,2.51-0.38c1.87,0,3.62,0.61,5.2,1.71c1.59,1.11,3,2.73,4.16,4.72c1.06,1.83,1.91,4.01,2.49,6.42 c0.56,2.31,0.86,4.83,0.86,7.45c0,2.62-0.31,5.14-0.86,7.45c-0.58,2.41-1.43,4.59-2.49,6.42c-1.15,2-2.56,3.61-4.16,4.72 c-1.58,1.1-3.34,1.71-5.2,1.71c-0.85,0-1.69-0.13-2.51-0.38c-0.34-0.1-0.67-0.23-1-0.37v2.59c0.68,0.58,1.43,1.1,2.19,1.61 l0.04,0.03c1.96,1.33,3.9,2.66,5.2,4.97c1.25,2.22,1.84,5.28,1.16,9.99c4.02,2.89,8.25,5.06,12.59,6.54 c4.65,1.58,9.42,2.38,14.2,2.43c6.06,0.06,12.16-1.07,18.05-3.31c5.88-2.24,11.56-5.59,16.77-9.96c0.66-0.55,1.28-1.09,1.86-1.61 c0.59-0.53,1.18-1.09,1.79-1.68c3.64-3.54,5.96-4.97,7.92-5.16c2.09-0.2,3.54,0.9,5.53,2.42c0.04,0.02,0.07,0.05,0.1,0.07 c0.74,0.57,1.59,1.22,2.63,1.82c0.4,0.23,0.81,0.48,1.22,0.68l0.04,0.02c0.35,0.17,0.67,0.3,0.95,0.36c0.17,0.03,0.34,0,0.47-0.08 c0.14-0.08,0.25-0.22,0.3-0.39l0.04-0.52c-0.02-0.07-0.03-0.15-0.03-0.22l0-4.56c-1.24-0.5-2.47-1.04-3.69-1.6 c-1.4-0.65-2.82-1.35-4.25-2.12c-1.46-0.78-2.92-1.62-4.39-2.53c-1.37-0.85-2.74-1.75-4.1-2.71l-11.87,1.59 c-0.59,0.53-0.98,1.15-1.27,1.83c-0.33,0.79-0.55,1.71-0.77,2.66c-0.26,1.11-0.53,2.26-0.98,3.46c-0.43,1.14-1.03,2.3-1.92,3.46 c0,0.91-0.04,1.76-0.11,2.58c-0.09,0.92-0.23,1.78-0.44,2.6c-0.25,0.99-0.6,1.9-1.05,2.74c-0.46,0.85-1.03,1.64-1.73,2.37 l-0.06,0.06c-0.44,0.43-1.01,0.65-1.58,0.67c-0.6,0.01-1.2-0.2-1.67-0.64l-0.06-0.06c-0.43-0.44-0.65-1.01-0.67-1.58 c-0.01-0.6,0.2-1.2,0.64-1.67c0.41-0.43,0.74-0.89,1.01-1.39l0.02-0.04c0.26-0.49,0.46-1.03,0.61-1.6c0.11-0.44,0.2-0.91,0.26-1.41 l0.05-0.44l-0.29,0.07c-0.63,0.16-1.26,0.06-1.77-0.25c-0.52-0.3-0.92-0.81-1.08-1.43c-0.16-0.63-0.06-1.26,0.25-1.77 c0.3-0.52,0.81-0.92,1.43-1.08l2.61-0.67c0.55-0.75,0.93-1.54,1.22-2.33c0.32-0.88,0.54-1.8,0.74-2.69c0.28-1.2,0.55-2.37,1.02-3.5 c0.4-0.97,0.95-1.89,1.75-2.75c-0.21-0.32-0.46-0.66-0.64-1c-1.01-1.57-2.03-3.13-3.31-4.67c-1.25-1.5-2.73-2.97-4.69-4.35 c-1.46-0.14-2.85-0.24-4.19-0.28c-1.4-0.04-2.76-0.03-4.09,0.03c-1.31,0.07-2.6,0.19-3.88,0.36c-1.28,0.18-2.54,0.41-3.82,0.69 c-0.63,0.14-1.26,0.01-1.76-0.3c-0.51-0.32-0.89-0.84-1.03-1.47c-0.14-0.63-0.01-1.26,0.31-1.76c0.32-0.51,0.84-0.89,1.47-1.03 c1.41-0.32,2.81-0.57,4.22-0.77c1.41-0.19,2.83-0.33,4.29-0.4c0.89-0.04,1.76-0.07,2.61-0.07l0.32,0 c-2.53-2.29-4.88-4.19-7.25-4.77c-0.63-0.15-1.14-0.55-1.45-1.06l-0.04-0.08c-0.28-0.5-0.37-1.1-0.23-1.69 c0.15-0.63,0.55-1.13,1.06-1.44c0.51-0.31,1.15-0.43,1.77-0.27c4.04,1,7.3,4,10.93,7.36l0.04,0.04c0.65,0.6,1.32,1.22,1.71,1.57h0 c0.58,0.52,1.14,1.03,1.68,1.48c2.34,1.65,4.1,3.37,5.56,5.13c1.44,1.73,2.58,3.49,3.72,5.24c0.36,0.47,0.69,1.05,1.02,1.55 l9.7-1.3c-0.02-0.53-0.07-1.08-0.14-1.64c-0.1-0.84-0.24-1.69-0.44-2.54c-0.23-1.02-0.53-2.08-0.9-3.18 c-0.34-1.01-0.74-2.04-1.2-3.09c-1.06-0.53-2.07-1.15-3.02-1.88c-1.04-0.8-2-1.74-2.87-2.83c-0.85-1.07-1.62-2.3-2.28-3.69 c-0.6-1.27-1.1-2.68-1.51-4.24c-0.33-0.15-0.67-0.29-1.01-0.43c-0.45-0.18-0.85-0.32-1.21-0.43l0,0c-0.41-0.12-0.81-0.21-1.19-0.26 c-0.38-0.05-0.74-0.08-1.08-0.07l-0.01,0c-0.64,0.02-1.23-0.23-1.66-0.63c-0.44-0.41-0.72-0.99-0.74-1.63 c-0.02-0.65,0.22-1.24,0.63-1.68c0.41-0.44,0.99-0.72,1.63-0.74c0.62-0.02,1.23,0.01,1.85,0.1c0.43,0.06,0.86,0.15,1.31,0.26 l-0.04-0.21c-0.15-0.81-0.26-1.59-0.35-2.33c-0.09-0.75-0.14-1.48-0.18-2.18c-0.04-0.64,0.2-1.24,0.6-1.69 c0.4-0.45,0.97-0.74,1.62-0.78c0.64-0.04,1.24,0.2,1.69,0.6c0.45,0.4,0.74,0.97,0.78,1.62c0.03,0.61,0.09,1.25,0.16,1.92 c0.08,0.67,0.17,1.34,0.3,2.01c0.13,0.69,0.28,1.39,0.47,2.08c0.17,0.62,0.37,1.25,0.62,1.89c0.03,0.06,0.05,0.13,0.07,0.2 c0.03,0.08,0.05,0.16,0.07,0.24c0.34,1.56,0.78,2.92,1.31,4.11c0.52,1.17,1.14,2.19,1.84,3.06c0.42,0.53,0.88,1.01,1.37,1.45 l0.32,0.28l0.07-0.49c0.11-0.68,0.25-1.34,0.43-1.96c0.28-1,0.65-1.94,1.11-2.83c0.46-0.89,1-1.72,1.64-2.49 c0.41-0.5,0.99-0.78,1.58-0.84c0.59-0.06,1.21,0.11,1.71,0.52l0.07,0.06c0.45,0.4,0.71,0.95,0.77,1.52 c0.06,0.59-0.11,1.21-0.52,1.71c-0.42,0.52-0.79,1.07-1.09,1.67c-0.31,0.6-0.56,1.25-0.76,1.95c-0.19,0.69-0.33,1.42-0.41,2.19 c-0.08,0.73-0.1,1.5-0.08,2.31c0.6,1.32,1.13,2.63,1.58,3.93c0.46,1.33,0.83,2.64,1.12,3.92c0.26,1.15,0.44,2.26,0.56,3.35 c0.1,0.93,0.15,1.84,0.15,2.74c1.23,0.86,2.45,1.66,3.65,2.4c1.34,0.83,2.68,1.6,4.02,2.31c1.14,0.61,2.3,1.19,3.48,1.75 c0.76,0.36,1.51,0.7,2.26,1.02v-0.83c0-0.21,0-0.27,0.01-0.36l0.01-0.39h0l0-0.08c0.01-1.88,0-3-1.38-4.51 c-0.14-0.15-0.28-0.29-0.43-0.41c-0.14-0.12-0.29-0.23-0.47-0.35c-0.15-0.1-0.3-0.19-0.45-0.27c-0.14-0.07-0.29-0.14-0.44-0.2 c-1.17-0.34-2.14-1.03-2.95-2.02c-0.78-0.95-1.4-2.19-1.88-3.66c-0.41-1.25-0.73-2.71-0.98-4.32c-0.24-1.58-0.41-3.34-0.53-5.24 l0-0.14h0L108.47,59.11L108.47,59.11z M29.18,25.65c-0.61,0.56-1.22,1.13-1.82,1.73c-0.9,0.91-1.78,1.86-2.62,2.86 c0.22,0.82,0.24,1.97,0.23,3c1.13-0.84,2.2-1.73,2.97-2.94C28.66,29.16,29.13,27.7,29.18,25.65L29.18,25.65z M18.78,36.11 c-4.59,4.24-8.05,8.32-10.38,12.32c-2.55,4.35-3.77,8.59-3.71,12.81c0.06,4.21,1.4,8.48,3.98,12.87c2.35,4.01,5.73,8.12,10.12,12.4 V76.41c-0.17-0.57-0.33-1.15-0.49-1.73c-0.17-0.62-0.32-1.23-0.46-1.82c-0.67-1.62-1.2-3.42-1.56-5.35 c-0.35-1.89-0.54-3.88-0.54-5.94c0-1.99,0.18-3.93,0.51-5.76c0.34-1.88,0.84-3.64,1.47-5.24c0.16-0.6,0.32-1.2,0.51-1.8 c0.18-0.6,0.37-1.17,0.56-1.72V36.11L18.78,36.11z M24.69,92.36l0.55,0.6c0.32,0.35,0.64,0.68,0.95,1c0.69,0.71,1.39,1.39,2.1,2.05 c0.26,0.25,0.53,0.49,0.8,0.73c-0.03-1.99-0.46-3.38-1.14-4.43c-0.75-1.19-1.84-2.01-2.98-2.79 C24.99,90.49,24.96,91.56,24.69,92.36L24.69,92.36z M37.61,14.32c0.59-0.29,1.18-0.56,1.77-0.83c1.08-0.48,2.17-0.93,3.27-1.33 L43,5.58c-0.06-0.22-0.13-0.39-0.21-0.51c-0.07-0.09-0.14-0.16-0.22-0.19c-0.19-0.09-0.45-0.14-0.76-0.17 c-0.36-0.03-0.77-0.03-1.19-0.02c-0.2,0.01-0.39,0.02-0.59,0.04c-0.17,0.02-0.32,0.05-0.44,0.08l-0.03,0.01 c-0.06,0.02-0.12,0.04-0.17,0.06c-0.04,0.02-0.07,0.04-0.1,0.06C39.27,4.96,39.25,4.98,39.24,5c-0.03,0.04-0.06,0.08-0.08,0.13l0,0 c-0.04,0.08-0.08,0.19-0.12,0.31c-0.04,0.12-0.07,0.25-0.11,0.38c-0.02,1.22-0.11,2.42-0.27,3.6c-0.17,1.22-0.4,2.41-0.7,3.59 C37.85,13.45,37.73,13.89,37.61,14.32L37.61,14.32z M24.94,47.66c-0.01,0.18-0.03,0.37-0.07,0.55c-0.05,0.21-0.11,0.42-0.2,0.61 c-0.83,2.31-1.4,4.59-1.74,6.83c-0.35,2.26-0.47,4.45-0.41,6.6c0.06,2.21,0.32,4.38,0.71,6.52c0.4,2.15,0.93,4.26,1.57,6.34h0 c0.03,0.09,0.05,0.2,0.08,0.32c0.54,0.55,1.11,0.98,1.7,1.28c0.6,0.31,1.23,0.47,1.87,0.47c0.93,0,1.85-0.35,2.71-0.99 c0.95-0.71,1.84-1.77,2.6-3.09c0.85-1.47,1.54-3.24,2.01-5.23c0.46-1.93,0.71-4.05,0.71-6.29c0-2.24-0.25-4.36-0.71-6.29 c-0.47-1.99-1.16-3.76-2.01-5.23c-0.76-1.32-1.65-2.38-2.6-3.09l-0.04-0.03c-0.85-0.62-1.74-0.96-2.66-0.96 c-0.64,0-1.26,0.16-1.86,0.47C26.01,46.72,25.46,47.13,24.94,47.66L24.94,47.66z"/></g></svg>