<?xml version="1.0" encoding="utf-8"?><svg version="1.1" id="Layer_1" xmlns="http://www.w3.org/2000/svg" xmlns:xlink="http://www.w3.org/1999/xlink" x="0px" y="0px" viewBox="0 0 122.88 108.95" style="enable-background:new 0 0 122.88 108.95" xml:space="preserve"><g><path d="M23.01,0h76.87c6.33,0,12.08,2.59,16.25,6.76c4.17,4.17,6.76,9.92,6.76,16.25v62.93c0,6.33-2.59,12.08-6.76,16.25 c-4.17,4.17-9.92,6.76-16.25,6.76H23.01c-6.33,0-12.08-2.59-16.25-6.76C2.59,98.02,0,92.27,0,85.94V23.01 c0-6.33,2.59-12.08,6.76-16.25C10.92,2.59,16.68,0,23.01,0L23.01,0z M4.95,77.41c0.86,3.23,2.57,6.12,4.86,8.41 c3.38,3.38,8.05,5.49,13.19,5.49h76.87c0.2,0,0.41,0,0.61-0.01l1.27-0.09c4.38-0.44,8.34-2.43,11.3-5.39c2.3-2.3,4-5.19,4.86-8.41 V23.01c0-4.96-2.03-9.47-5.31-12.75c-3.27-3.27-7.79-5.31-12.75-5.31H23.01c-4.96,0-9.48,2.03-12.75,5.3 c-3.27,3.27-5.3,7.79-5.3,12.75V77.41L4.95,77.41z M82.19,33.32v29.46H74.5V43.5c-1.24,1-2.45,1.8-3.62,2.41 c-1.17,0.61-2.63,1.21-4.38,1.77v-6.55c2.59-0.89,4.6-1.96,6.03-3.2c1.43-1.25,2.56-2.79,3.37-4.61H82.19L82.19,33.32z M40.69,33.8 h20.93v6.23H49.18v5.06h10.64v5.87H49.18v11.81h-8.49V33.8L40.69,33.8z"/></g></svg>