<?xml version="1.0" encoding="utf-8"?><svg version="1.1" id="Layer_1" xmlns="http://www.w3.org/2000/svg" xmlns:xlink="http://www.w3.org/1999/xlink" x="0px" y="0px" viewBox="0 0 122.88 108.95" style="enable-background:new 0 0 122.88 108.95" xml:space="preserve"><g><path d="M23.01,0h76.87c6.33,0,12.08,2.59,16.25,6.76c4.17,4.17,6.76,9.92,6.76,16.25v62.93c0,6.33-2.59,12.08-6.76,16.25 c-4.17,4.17-9.92,6.76-16.25,6.76H23.01c-6.33,0-12.08-2.59-16.25-6.76C2.59,98.02,0,92.27,0,85.94V23.01 c0-6.33,2.59-12.08,6.76-16.25C10.92,2.59,16.68,0,23.01,0L23.01,0z M4.95,77.41c0.86,3.23,2.57,6.12,4.86,8.41 c3.38,3.38,8.05,5.49,13.19,5.49h76.87c0.2,0,0.41,0,0.61-0.01l1.27-0.09c4.38-0.44,8.34-2.43,11.3-5.39c2.3-2.3,4-5.19,4.86-8.41 V23.01c0-4.96-2.03-9.47-5.31-12.75c-3.27-3.27-7.79-5.31-12.75-5.31H23.01c-4.96,0-9.48,2.03-12.75,5.3 c-3.27,3.27-5.3,7.79-5.3,12.75V77.41L4.95,77.41z M73.81,48.16c0-5.5,0.94-9.35,2.81-11.55c1.87-2.2,4.73-3.3,8.56-3.3 c1.84,0,3.36,0.24,4.54,0.72c1.19,0.48,2.15,1.11,2.89,1.87c0.75,0.77,1.34,1.58,1.77,2.43c0.43,0.85,0.77,1.84,1.04,2.97 c0.51,2.16,0.77,4.41,0.77,6.76c0,5.25-0.84,9.1-2.52,11.53c-1.68,2.43-4.57,3.65-8.68,3.65c-2.3,0-4.16-0.39-5.59-1.17 c-1.42-0.78-2.58-1.92-3.49-3.42c-0.65-1.07-1.18-2.52-1.54-4.37C73.99,52.45,73.81,50.4,73.81,48.16L73.81,48.16z M81.35,48.18 c0,3.68,0.31,6.2,0.92,7.55c0.62,1.35,1.51,2.02,2.68,2.02c0.77,0,1.44-0.28,2.01-0.86c0.57-0.57,0.98-1.48,1.25-2.72 c0.27-1.24,0.4-3.17,0.4-5.79c0-3.84-0.3-6.43-0.92-7.76c-0.62-1.32-1.54-1.98-2.77-1.98c-1.26,0-2.17,0.67-2.73,2.02 C81.63,42.03,81.35,44.53,81.35,48.18L81.35,48.18z M66.87,33.32v29.46h-7.69V43.5c-1.24,1-2.45,1.8-3.62,2.41 c-1.17,0.61-2.63,1.21-4.38,1.77v-6.55c2.59-0.89,4.6-1.96,6.03-3.2c1.43-1.25,2.56-2.79,3.37-4.61H66.87L66.87,33.32z M25.36,33.8 h20.93v6.23H33.86v5.06h10.64v5.87H33.86v11.81h-8.49V33.8L25.36,33.8z"/></g></svg>