<?xml version="1.0" encoding="utf-8"?><svg version="1.1" id="Layer_1" xmlns="http://www.w3.org/2000/svg" xmlns:xlink="http://www.w3.org/1999/xlink" x="0px" y="0px" viewBox="0 0 122.88 108.95" style="enable-background:new 0 0 122.88 108.95" xml:space="preserve"><g><path d="M23.01,0h76.87c6.33,0,12.08,2.59,16.25,6.76c4.17,4.17,6.76,9.92,6.76,16.25v62.93c0,6.33-2.59,12.08-6.76,16.25 c-4.17,4.17-9.92,6.76-16.25,6.76H23.01c-6.33,0-12.08-2.59-16.25-6.76C2.59,98.02,0,92.27,0,85.94V23.01 c0-6.33,2.59-12.08,6.76-16.25C10.92,2.59,16.68,0,23.01,0L23.01,0z M4.95,77.41c0.86,3.23,2.57,6.12,4.86,8.41 c3.38,3.38,8.05,5.49,13.19,5.49h76.87c0.2,0,0.41,0,0.61-0.01l1.27-0.09c4.38-0.44,8.34-2.43,11.3-5.39c2.3-2.3,4-5.19,4.86-8.41 V23.01c0-4.96-2.03-9.47-5.31-12.75c-3.27-3.27-7.79-5.31-12.75-5.31H23.01c-4.96,0-9.48,2.03-12.75,5.3 c-3.27,3.27-5.3,7.79-5.3,12.75V77.41L4.95,77.41z M69.76,42.18l-7.19-1.36c0.6-2.42,1.74-4.28,3.44-5.57 c1.7-1.29,4.1-1.94,7.21-1.94c3.57,0,6.15,0.7,7.74,2.11c1.59,1.41,2.38,3.18,2.38,5.31c0,1.25-0.32,2.38-0.97,3.39 c-0.64,1.01-1.61,1.9-2.91,2.66c1.06,0.28,1.87,0.6,2.42,0.97c0.91,0.59,1.61,1.38,2.12,2.34c0.5,0.97,0.76,2.12,0.76,3.47 c0,1.69-0.41,3.3-1.25,4.86c-0.84,1.54-2.03,2.74-3.6,3.57c-1.57,0.84-3.63,1.25-6.18,1.25c-2.49,0-4.45-0.31-5.89-0.93 c-1.44-0.62-2.62-1.52-3.55-2.72c-0.92-1.19-1.64-2.7-2.14-4.5l7.61-1.07c0.3,1.63,0.76,2.76,1.39,3.39 c0.62,0.63,1.42,0.94,2.4,0.94c1.01,0,1.86-0.4,2.54-1.19c0.68-0.79,1.01-1.84,1.01-3.16c0-1.34-0.33-2.38-0.98-3.12 c-0.65-0.74-1.54-1.11-2.65-1.11c-0.59,0-1.42,0.16-2.45,0.47l0.4-5.75c0.41,0.07,0.74,0.1,0.98,0.1c0.98,0,1.8-0.34,2.46-1 c0.66-0.67,0.99-1.46,0.99-2.37c0-0.88-0.25-1.58-0.74-2.1c-0.5-0.53-1.18-0.79-2.04-0.79c-0.89,0-1.61,0.28-2.17,0.86 C70.33,39.76,69.96,40.75,69.76,42.18L69.76,42.18z M38.12,33.8h20.93v6.23H46.62v5.06h10.64v5.87H46.62v11.81h-8.49V33.8 L38.12,33.8z"/></g></svg>