<?xml version="1.0" encoding="utf-8"?><svg version="1.1" id="Layer_1" xmlns="http://www.w3.org/2000/svg" xmlns:xlink="http://www.w3.org/1999/xlink" x="0px" y="0px" viewBox="0 0 122.88 108.95" style="enable-background:new 0 0 122.88 108.95" xml:space="preserve"><g><path d="M23.01,0h76.87c6.33,0,12.08,2.59,16.25,6.76c4.17,4.17,6.76,9.92,6.76,16.25v62.93c0,6.33-2.59,12.08-6.76,16.25 c-4.17,4.17-9.92,6.76-16.25,6.76H23.01c-6.33,0-12.08-2.59-16.25-6.76C2.59,98.02,0,92.27,0,85.94V23.01 c0-6.33,2.59-12.08,6.76-16.25C10.92,2.59,16.68,0,23.01,0L23.01,0z M4.95,77.41c0.86,3.23,2.57,6.12,4.86,8.41 c3.38,3.38,8.05,5.49,13.19,5.49h76.87c0.2,0,0.41,0,0.61-0.01l1.27-0.09c4.38-0.44,8.34-2.43,11.3-5.39c2.3-2.3,4-5.19,4.86-8.41 V23.01c0-4.96-2.03-9.47-5.31-12.75c-3.27-3.27-7.79-5.31-12.75-5.31H23.01c-4.96,0-9.48,2.03-12.75,5.3 c-3.27,3.27-5.3,7.79-5.3,12.75V77.41L4.95,77.41z M75.08,57.35H61.23v-6.62l13.85-17.42h6.62v17.8h3.44v6.23H81.7v5.42h-6.62 V57.35L75.08,57.35z M75.08,51.12v-9.14l-7.31,9.14H75.08L75.08,51.12z M37.74,33.8h20.93v6.23H46.23v5.06h10.64v5.87H46.23v11.81 h-8.49V33.8L37.74,33.8z"/></g></svg>