<?xml version="1.0" encoding="utf-8"?><svg version="1.1" id="Layer_1" xmlns="http://www.w3.org/2000/svg" xmlns:xlink="http://www.w3.org/1999/xlink" x="0px" y="0px" viewBox="0 0 122.88 108.95" style="enable-background:new 0 0 122.88 108.95" xml:space="preserve"><g><path d="M23.01,0h76.87c6.33,0,12.08,2.59,16.25,6.76c4.17,4.17,6.76,9.92,6.76,16.25v62.93c0,6.33-2.59,12.08-6.76,16.25 c-4.17,4.17-9.92,6.76-16.25,6.76H23.01c-6.33,0-12.08-2.59-16.25-6.76C2.59,98.02,0,92.27,0,85.94V23.01 c0-6.33,2.59-12.08,6.76-16.25C10.92,2.59,16.68,0,23.01,0L23.01,0z M4.95,77.41c0.86,3.23,2.57,6.12,4.86,8.41 c3.38,3.38,8.05,5.49,13.19,5.49h76.87c0.2,0,0.41,0,0.61-0.01l1.27-0.09c4.38-0.44,8.34-2.43,11.3-5.39c2.3-2.3,4-5.19,4.86-8.41 V23.01c0-4.96-2.03-9.47-5.31-12.75c-3.27-3.27-7.79-5.31-12.75-5.31H23.01c-4.96,0-9.48,2.03-12.75,5.3 c-3.27,3.27-5.3,7.79-5.3,12.75V77.41L4.95,77.41z M84.3,40.31l-7.57,0.98c-0.2-1.11-0.53-1.89-0.99-2.35 c-0.47-0.46-1.05-0.69-1.73-0.69c-1.23,0-2.19,0.65-2.87,1.97c-0.5,0.95-0.87,2.97-1.1,6.08c0.91-0.98,1.84-1.7,2.8-2.16 c0.96-0.47,2.07-0.7,3.32-0.7c2.44,0,4.51,0.92,6.19,2.76c1.69,1.85,2.53,4.19,2.53,7.02c0,1.91-0.43,3.65-1.28,5.24 c-0.85,1.58-2.03,2.78-3.55,3.59c-1.52,0.81-3.41,1.21-5.69,1.21c-2.74,0-4.94-0.49-6.59-1.48c-1.66-0.98-2.98-2.56-3.97-4.73 c-0.99-2.16-1.49-5.03-1.49-8.6c0-5.23,1.04-9.05,3.12-11.48c2.08-2.43,4.96-3.64,8.65-3.64c2.18,0,3.9,0.26,5.16,0.8 c1.26,0.53,2.31,1.31,3.15,2.33C83.23,37.47,83.86,38.76,84.3,40.31L84.3,40.31z M70.29,53.22c0,1.57,0.38,2.8,1.12,3.69 c0.75,0.89,1.66,1.34,2.75,1.34c1,0,1.84-0.4,2.51-1.21c0.67-0.8,1.01-2,1.01-3.6c0-1.63-0.35-2.88-1.05-3.74 c-0.7-0.86-1.57-1.29-2.6-1.29c-1.06,0-1.95,0.42-2.67,1.25C70.65,50.48,70.29,51.67,70.29,53.22L70.29,53.22z M38.01,33.8h20.93 v6.23H46.5v5.06h10.64v5.87H46.5v11.81h-8.49V33.8L38.01,33.8z"/></g></svg>