<?xml version="1.0" encoding="utf-8"?><svg version="1.1" id="Layer_1" xmlns="http://www.w3.org/2000/svg" xmlns:xlink="http://www.w3.org/1999/xlink" x="0px" y="0px" viewBox="0 0 122.88 108.95" style="enable-background:new 0 0 122.88 108.95" xml:space="preserve"><g><path d="M23.01,0h76.87c6.33,0,12.08,2.59,16.25,6.76c4.17,4.17,6.76,9.92,6.76,16.25v62.93c0,6.33-2.59,12.08-6.76,16.25 c-4.17,4.17-9.92,6.76-16.25,6.76H23.01c-6.33,0-12.08-2.59-16.25-6.76C2.59,98.02,0,92.27,0,85.94V23.01 c0-6.33,2.59-12.08,6.76-16.25C10.92,2.59,16.68,0,23.01,0L23.01,0z M4.95,77.41c0.86,3.23,2.57,6.12,4.86,8.41 c3.38,3.38,8.05,5.49,13.19,5.49h76.87c0.2,0,0.41,0,0.61-0.01l1.27-0.09c4.38-0.44,8.34-2.43,11.3-5.39c2.3-2.3,4-5.19,4.86-8.41 V23.01c0-4.96-2.03-9.47-5.31-12.75c-3.27-3.27-7.79-5.31-12.75-5.31H23.01c-4.96,0-9.48,2.03-12.75,5.3 c-3.27,3.27-5.3,7.79-5.3,12.75V77.41L4.95,77.41z M66.95,47.19c-1.19-0.67-2.07-1.42-2.61-2.25c-0.75-1.13-1.12-2.43-1.12-3.9 c0-2.42,1.08-4.4,3.23-5.95c1.68-1.18,3.91-1.77,6.68-1.77c3.67,0,6.37,0.74,8.12,2.21c1.75,1.47,2.63,3.33,2.63,5.56 c0,1.31-0.35,2.52-1.05,3.65c-0.53,0.84-1.35,1.66-2.48,2.45c1.48,0.75,2.59,1.75,3.32,2.98c0.73,1.24,1.1,2.61,1.1,4.11 c0,1.45-0.31,2.8-0.94,4.06c-0.63,1.26-1.4,2.23-2.31,2.91c-0.92,0.69-2.06,1.19-3.42,1.51c-1.36,0.32-2.82,0.49-4.37,0.49 c-2.9,0-5.11-0.36-6.65-1.09c-1.53-0.73-2.69-1.79-3.49-3.2c-0.8-1.41-1.2-2.98-1.2-4.72c0-1.7,0.38-3.14,1.12-4.32 C64.25,48.75,65.39,47.84,66.95,47.19L66.95,47.19z M70.37,41.51c0,1,0.3,1.81,0.89,2.42c0.59,0.61,1.38,0.92,2.38,0.92 c0.87,0,1.59-0.3,2.16-0.91c0.57-0.61,0.85-1.39,0.85-2.35c0-1-0.29-1.81-0.88-2.44c-0.59-0.63-1.35-0.94-2.26-0.94 c-0.92,0-1.68,0.3-2.26,0.92C70.67,39.74,70.37,40.54,70.37,41.51L70.37,41.51z M69.95,53.97c0,1.28,0.37,2.32,1.1,3.14 c0.73,0.81,1.57,1.21,2.52,1.21c0.91,0,1.73-0.41,2.45-1.23c0.72-0.82,1.08-1.87,1.08-3.14c0-1.28-0.36-2.33-1.09-3.14 c-0.73-0.82-1.58-1.23-2.53-1.23c-0.95,0-1.77,0.4-2.47,1.19C70.3,51.56,69.95,52.63,69.95,53.97L69.95,53.97z M38.12,33.8h20.93 v6.23H46.62v5.06h10.64v5.87H46.62v11.81h-8.49V33.8L38.12,33.8z"/></g></svg>