<?xml version="1.0" encoding="utf-8"?><svg version="1.1" id="Layer_1" xmlns="http://www.w3.org/2000/svg" xmlns:xlink="http://www.w3.org/1999/xlink" x="0px" y="0px" viewBox="0 0 122.88 108.95" style="enable-background:new 0 0 122.88 108.95" xml:space="preserve"><g><path d="M23.01,0h76.87c6.33,0,12.08,2.59,16.25,6.76c4.17,4.17,6.76,9.92,6.76,16.25v62.93c0,6.33-2.59,12.08-6.76,16.25 c-4.17,4.17-9.92,6.76-16.25,6.76H23.01c-6.33,0-12.08-2.59-16.25-6.76C2.59,98.02,0,92.27,0,85.94V23.01 c0-6.33,2.59-12.08,6.76-16.25C10.92,2.59,16.68,0,23.01,0L23.01,0z M4.95,77.41c0.86,3.23,2.57,6.12,4.86,8.41 c3.38,3.38,8.05,5.49,13.19,5.49h76.87c0.2,0,0.41,0,0.61-0.01l1.27-0.09c4.38-0.44,8.34-2.43,11.3-5.39c2.3-2.3,4-5.19,4.86-8.41 V23.01c0-4.96-2.03-9.47-5.31-12.75c-3.27-3.27-7.79-5.31-12.75-5.31H23.01c-4.96,0-9.48,2.03-12.75,5.3 c-3.27,3.27-5.3,7.79-5.3,12.75V77.41L4.95,77.41z M62.74,56.28l7.57-1c0.2,1.11,0.54,1.89,1.01,2.35 c0.48,0.46,1.06,0.69,1.74,0.69c1.22,0,2.17-0.65,2.86-1.95c0.5-0.96,0.87-2.99,1.12-6.1c-0.91,0.99-1.84,1.71-2.81,2.17 c-0.96,0.47-2.07,0.69-3.33,0.69c-2.45,0-4.53-0.92-6.22-2.76c-1.69-1.85-2.53-4.18-2.53-7c0-1.92,0.43-3.68,1.29-5.26 c0.86-1.58,2.05-2.78,3.55-3.59c1.5-0.81,3.4-1.21,5.68-1.21c2.74,0,4.94,0.5,6.59,1.49c1.66,1,2.98,2.58,3.97,4.74 c0.99,2.16,1.49,5.02,1.49,8.58c0,5.23-1.04,9.05-3.12,11.48c-2.08,2.43-4.96,3.64-8.65,3.64c-2.18,0-3.9-0.26-5.16-0.8 c-1.26-0.53-2.3-1.32-3.14-2.33C63.83,59.1,63.19,57.82,62.74,56.28L62.74,56.28z M76.77,43.36c0-1.57-0.38-2.8-1.12-3.69 c-0.75-0.89-1.66-1.34-2.73-1.34c-1.01,0-1.85,0.4-2.52,1.21c-0.67,0.8-1,2.01-1,3.62c0,1.62,0.34,2.86,1.04,3.72 c0.69,0.86,1.56,1.29,2.59,1.29c1.07,0,1.96-0.42,2.68-1.25C76.41,46.09,76.77,44.9,76.77,43.36L76.77,43.36z M38.14,33.8h20.93 v6.23H46.63v5.06h10.64v5.87H46.63v11.81h-8.49V33.8L38.14,33.8z"/></g></svg>