<svg id="Layer_1" data-name="Layer 1" xmlns="http://www.w3.org/2000/svg" viewBox="0 0 108.6 122.88"><defs><style>.cls-1{fill:#3b5998;}.cls-1,.cls-2,.cls-4{fill-rule:evenodd;}.cls-2{fill:#e74040;}.cls-3,.cls-4{fill:#fff;}</style></defs><title>facebook-live</title><path class="cls-1" d="M102.74,0H5.87A5.89,5.89,0,0,0,0,5.87V76.06H108.6V5.87A5.88,5.88,0,0,0,102.74,0Z"/><path class="cls-2" d="M0,79.34V117a5.89,5.89,0,0,0,5.87,5.87h96.87A5.88,5.88,0,0,0,108.6,117V79.34Z"/><path class="cls-3" d="M58.23,24.92h6.56V17.06H58.23a9.19,9.19,0,0,0-9.17,9.18v3.93H43.82V38h5.24V59h7.87V38h6.54l1.32-7.86H56.93V26.24a1.32,1.32,0,0,1,1.3-1.32Z"/><path class="cls-4" d="M69.68,88.84H80.94v4.9H76.45v4.69h4.2v4.65h-4.2v5.4h5v4.9H69.68V88.84ZM34,88.84v19.63H38v4.9H27.2V88.84Zm13.6,0v24.53H40.81V88.84Zm19.83,0L64,113.37H53.76L49.84,88.84H57Q58.16,99,58.72,106q.54-7.1,1.11-12.6l.45-4.57Z"/></svg>