<?xml version="1.0" encoding="utf-8"?><svg version="1.1" id="Layer_1" xmlns="http://www.w3.org/2000/svg" xmlns:xlink="http://www.w3.org/1999/xlink" x="0px" y="0px" viewBox="0 0 75.41 122.88" style="enable-background:new 0 0 75.41 122.88" xml:space="preserve"><style type="text/css">.st0{fill-rule:evenodd;clip-rule:evenodd;}</style><g><path class="st0" d="M25.63,38.25c2.06,0,3.73,1.67,3.73,3.73c0,2.06-1.67,3.73-3.73,3.73c-2.06,0-3.73-1.67-3.73-3.73 C21.9,39.92,23.57,38.25,25.63,38.25L25.63,38.25z M26.73,87.77c0.13,0.11,0.27,0.22,0.41,0.32c2.89,2.23,6.27,3.39,9.66,3.44 c3.38,0.05,6.78-1,9.69-3.17c1.16-0.86,2.24-1.9,3.2-3.11c-0.68-1.25-1.27-1.68-1.77-3.12c-0.37-1.08-0.69-1.99-0.94-3.12 c-2.91,1.31-6.06,2.01-9.21,2.06c-3.2,0.05-6.38-0.56-9.31-1.85c-0.13-0.06-0.26-0.12-0.39-0.18c-0.38,1.31-0.83,2.3-1.34,3.49 c-0.61,1.4-1.31,1.79-2.1,2.98C25.27,86.34,25.98,87.1,26.73,87.77L26.73,87.77z M58.16,54.54c1.27-2,2.35-4.4,3.35-6.65 c1.02-2.28,1.96-4.4,3.03-5.94c-0.03-5.3-0.27-10.85-0.27-15.55c-6.12,0.94-8.67-3.15-9.8-9.26c-12.5,11.4-27.07,13.91-43.39,8.87 c0,4.71-0.23,10.15-0.27,15.37c1.4,1.75,3.18,5.17,5.01,8.69c0.82,1.57,1.36,3.11,2.04,4.51c6.66-2.59,13.33-4.19,20.02-4.36 C44.64,50.06,51.4,51.34,58.16,54.54L58.16,54.54z M64.43,48.52l-0.25,0.56c-1.09,2.44-2.25,5.06-3.72,7.3 c0.03,0.13,0.05,0.27,0.05,0.4h0c0,2.56-0.31,4.94-0.87,7.11c0.98-1.46,1.87-3.03,2.65-4.7c1.23-2.64,1.71-5.1,1.93-7.52 C64.31,50.67,64.38,49.61,64.43,48.52L64.43,48.52z M51.22,76.52c-0.33,0.24-0.66,0.48-1,0.7c0.25,1.44,0.59,2.78,1.02,4.02 c0.48,1.38,1.07,1.5,1.77,2.72c2.77,1.25,5.47,2.86,8.02,5.21c2.65,2.45,5.12,5.69,7.3,10.15c2.84,5.82,4.28,11.87,5.74,17.99 l0.68,2.83l0.66,2.72h-3.62l-0.46-1.89c-0.47-1.94-0.58-2.37-0.69-2.85c-1.42-5.94-2.81-11.79-5.48-17.27 c-1.97-4.05-4.17-6.95-6.52-9.11c-1.95-1.8-4.03-3.11-6.17-4.16c-1.34,1.68-2.91,3.08-4.62,4.2c-3.27,2.14-7.09,3.25-10.9,3.26 c-3.82,0.01-7.63-1.09-10.88-3.35c-0.63-0.44-1.23-0.91-1.81-1.44c-0.78-0.66-1.52-1.38-2.22-2.17c-0.89,0.75-1.69,1.4-2.44,2.03 c-8.39,6.93-11.96,9.89-14.86,23.25c-0.6,2.78-0.99,5.37-1.16,7.97c-0.03,0.5-0.06,1.01-0.07,1.52H0c0.02-0.58,0.05-1.16,0.08-1.74 c0.18-2.81,0.59-5.56,1.22-8.49c3.16-14.55,7.01-17.74,16.06-25.22c1.22-1.01,2.54-2.1,3.78-3.15c0.02-0.02,0.05-0.04,0.07-0.06 c0.89-1.2,1.65-1.36,2.29-2.83c0.53-1.21,0.98-2.53,1.36-3.95c-3.84-1.99-7.41-5.02-10.44-9.16c-5.52,1.36-9.79,2.56-11.79,3.01 C1.3,56.4,0.06,28.65,8.41,15.52C15.49,4.37,26.02-0.31,39.25,0.02c10.89,0.27,21.12,5.24,27.61,15.83 c8.71,14.23,6.59,38.1,5.09,54.11c-1.87-2.66-4.82-4.45-8.45-5.57C60.28,69.68,56.01,73.79,51.22,76.52L51.22,76.52z M16.54,65.17 c-0.73-2.48-1.15-5.27-1.21-8.36c0-0.19,0.02-0.37,0.08-0.55c-0.78-1.54-1.33-3.16-2.2-4.83c-0.82-1.57-1.63-3.13-2.36-4.47 c0.04,1.29,0.11,2.54,0.2,3.74c0.18,2.24,0.58,4.52,1.58,7.01C13.76,60.52,15.08,63,16.54,65.17L16.54,65.17z M37.96,53.74 c-6.34,0.16-12.7,1.71-19.07,4.21c0.46,8.53,4.2,14.15,9.16,17.1c6.9,2.96,14.59,2.25,21.22-1.46c4.32-3.29,7.42-8.58,7.7-15.73 C50.63,54.81,44.3,53.58,37.96,53.74L37.96,53.74z M50.1,38.25c2.06,0,3.73,1.67,3.73,3.73c0,2.06-1.67,3.73-3.73,3.73 c-2.06,0-3.73-1.67-3.73-3.73C46.37,39.92,48.04,38.25,50.1,38.25L50.1,38.25z M13.6,122.88c0.24-0.61,0.49-1.24,0.75-1.88 c0.13-0.54,0.27-1.08,0.42-1.62c0.87-3.18,1.95-6.31,3.3-9.61l0,0c0.26-0.63,0.88-1.08,1.61-1.09c0.97-0.01,1.76,0.77,1.77,1.74 c0.03,2.41-1.67,6.56-3.3,10.54l-0.42,1.02c-0.07,0.3-0.15,0.6-0.22,0.9H13.6L13.6,122.88z M58.46,122.88 c-0.34-0.75-0.69-1.52-1.05-2.28c-2.33-5.05-4.6-9.96-2.22-11.33c0.05-0.03,0.11-0.06,0.17-0.09c0.88-0.41,1.93-0.04,2.34,0.84 c1.32,2.79,2.48,5.84,3.46,9.16c0.27,0.93,0.53,1.87,0.77,2.83c0.13,0.29,0.26,0.58,0.38,0.87H58.46L58.46,122.88z"/></g></svg>