<svg id="Layer_1" data-name="Layer 1" xmlns="http://www.w3.org/2000/svg" viewBox="0 0 122.88 101.21"><defs><style>.cls-1{fill-rule:evenodd;}</style></defs><title>factory-industrial</title><path class="cls-1" d="M69.24,25.54,68,35.32H81.36l-1.23-9.78Zm53.64,19.7L87.77,59H84.06L82.44,45.67H66.94L65.31,59H57.57L55.94,45.67H40.44L38.81,59H35.06L0,45.24V95.67H122.88V45.24Zm0,56V97.43H0v3.78ZM115,63.2,108.81,66c-.82.37-1.65.75-1.65,1.65V85.31A1.66,1.66,0,0,0,108.81,87H115a1.65,1.65,0,0,0,1.64-1.65V64.85c0-.91-.82-2-1.64-1.65ZM99,68.82l-6.19,2.8c-.82.37-1.64.75-1.64,1.65v12A1.66,1.66,0,0,0,92.83,87H99a1.66,1.66,0,0,0,1.65-1.65V70.46c0-.9-.83-2-1.65-1.64ZM7.88,63.2,14.07,66c.82.37,1.65.75,1.65,1.65V85.31A1.66,1.66,0,0,1,14.07,87H7.88a1.65,1.65,0,0,1-1.64-1.65V64.85c0-.91.82-2,1.64-1.65Zm16,5.62,6.19,2.8c.82.37,1.64.75,1.64,1.65v12A1.66,1.66,0,0,1,30.05,87H23.86a1.66,1.66,0,0,1-1.65-1.65V70.46c0-.9.83-2,1.65-1.64ZM79.2,22.49a1.14,1.14,0,1,1-2.09.92,4.15,4.15,0,0,1-.35-2.14,4.75,4.75,0,0,1,.6-1.84A1.14,1.14,0,0,1,78.91,19a1.39,1.39,0,0,1,.27.21,6.05,6.05,0,0,0,2.62,1.44,2.32,2.32,0,0,0,1.33-.08,1.62,1.62,0,0,0,.8-.83,4.56,4.56,0,0,0,.27-2.36,1.15,1.15,0,0,1,2.19-.56,4.75,4.75,0,0,0,3.67,2.37A5.37,5.37,0,0,0,92.22,19a3.44,3.44,0,0,0,1.63-.93,3.83,3.83,0,0,0,.7-3.54,1.15,1.15,0,0,1,.9-1.35,1.09,1.09,0,0,1,.36,0A4.33,4.33,0,0,0,100.06,11a3.92,3.92,0,0,0,.45-1.78,3.14,3.14,0,0,0-.42-1.61c-.57-1-1.8-1.59-3.77-1.37a1.16,1.16,0,0,1-1.23-.84,4.39,4.39,0,0,0-2.15-2.84,2.85,2.85,0,0,0-1.59-.25A3.33,3.33,0,0,0,89.79,3a4.16,4.16,0,0,0-1.56,3,1.15,1.15,0,0,1-2.25.2A5.15,5.15,0,0,0,84.4,3.62a3,3,0,0,0-2-.64,4.26,4.26,0,0,0-2.11.65,4.86,4.86,0,0,0-2,2.28,1.14,1.14,0,0,1-1.49.63,1.2,1.2,0,0,1-.4-.26,4.78,4.78,0,0,0-3.1-1.49,2.52,2.52,0,0,0-2.49,1.59,5.2,5.2,0,0,0,.1,3.74,1.16,1.16,0,0,1-.72,1.46l-.09,0a3.28,3.28,0,0,0-2.55,3.84,3.25,3.25,0,0,0,.57,1.27A3.8,3.8,0,0,0,72,17.85a1.16,1.16,0,0,1,1.31,1,1.18,1.18,0,0,1-.17.79,9.22,9.22,0,0,0-.82,1.76A5.72,5.72,0,0,0,72,23.07a1.15,1.15,0,0,1-1.17,1.12A1.14,1.14,0,0,1,69.7,23a8.18,8.18,0,0,1,.43-2.39l.16-.46a5.49,5.49,0,0,1-3.89-2.07,5.13,5.13,0,0,1-1-2.23,5.65,5.65,0,0,1,0-2.42,5.47,5.47,0,0,1,3.07-3.69,7,7,0,0,1,.27-4.29,4.87,4.87,0,0,1,1.88-2.23,4.93,4.93,0,0,1,2.77-.75A6.58,6.58,0,0,1,77,3.73a7.34,7.34,0,0,1,2.18-2,6.52,6.52,0,0,1,3.28-1,5.28,5.28,0,0,1,3.38,1.13,6.54,6.54,0,0,1,1,1.06,6.16,6.16,0,0,1,1.57-1.75A5.62,5.62,0,0,1,91.06,0a5.19,5.19,0,0,1,2.86.45A6.3,6.3,0,0,1,97,3.91a5.49,5.49,0,0,1,5.07,2.52,5.36,5.36,0,0,1,.75,2.79,6.26,6.26,0,0,1-.72,2.84A6.37,6.37,0,0,1,97,15.44a5.53,5.53,0,0,1-1.47,4.23,5.83,5.83,0,0,1-2.67,1.56,7.53,7.53,0,0,1-3.07.18A7.78,7.78,0,0,1,86.25,20a4.47,4.47,0,0,1-.25.64,3.82,3.82,0,0,1-2,1.95,4.48,4.48,0,0,1-2.71.23,7.3,7.3,0,0,1-2.3-1,1.93,1.93,0,0,0,.16.59ZM45,23.41a1.15,1.15,0,0,1-2.1-.92,2,2,0,0,0,.17-.59,7.35,7.35,0,0,1-2.31,1,4.45,4.45,0,0,1-2.7-.23,3.78,3.78,0,0,1-2-1.95,4.47,4.47,0,0,1-.25-.64,7.83,7.83,0,0,1-3.51,1.38,7.58,7.58,0,0,1-3.08-.18,5.83,5.83,0,0,1-2.67-1.56,5.56,5.56,0,0,1-1.46-4.23,6.39,6.39,0,0,1-5.12-3.38,6.25,6.25,0,0,1-.71-2.84,5.45,5.45,0,0,1,.74-2.79,5.51,5.51,0,0,1,5.07-2.52A6.31,6.31,0,0,1,28.22.49,5.19,5.19,0,0,1,31.08,0a5.55,5.55,0,0,1,2.63,1.09,6,6,0,0,1,1.58,1.75,6.54,6.54,0,0,1,1-1.06A5.28,5.28,0,0,1,39.71.69a6.58,6.58,0,0,1,3.28,1,7.34,7.34,0,0,1,2.18,2.05A6.53,6.53,0,0,1,48.7,2.5a5,5,0,0,1,2.78.75,4.87,4.87,0,0,1,1.88,2.23,7,7,0,0,1,.26,4.29,5.42,5.42,0,0,1,3.07,3.69,5.5,5.5,0,0,1,.06,2.42,5.25,5.25,0,0,1-1,2.23,5.51,5.51,0,0,1-3.9,2.07l.17.46A8.18,8.18,0,0,1,52.44,23a1.15,1.15,0,0,1-2.29,0,5.72,5.72,0,0,0-.31-1.71A9.22,9.22,0,0,0,49,19.6a1.12,1.12,0,0,1-.17-.79,1.15,1.15,0,0,1,1.3-1,3.79,3.79,0,0,0,3.78-1.14,3,3,0,0,0,.57-1.27,3.14,3.14,0,0,0,0-1.43A3.3,3.3,0,0,0,52,11.6l-.09,0a1.16,1.16,0,0,1-.72-1.46,5.2,5.2,0,0,0,.1-3.74,2.52,2.52,0,0,0-2.49-1.59,4.8,4.8,0,0,0-3.11,1.49,1.07,1.07,0,0,1-.39.26,1.13,1.13,0,0,1-1.49-.63,4.91,4.91,0,0,0-2-2.28A4.27,4.27,0,0,0,39.68,3a3,3,0,0,0-1.94.64,5.08,5.08,0,0,0-1.58,2.56A1.15,1.15,0,0,1,33.9,6a4.09,4.09,0,0,0-1.56-3,3.29,3.29,0,0,0-1.55-.64,2.9,2.9,0,0,0-1.6.25A4.42,4.42,0,0,0,27,5.4a1.15,1.15,0,0,1-1.22.84c-2-.22-3.2.42-3.77,1.37a3,3,0,0,0-.42,1.61A3.79,3.79,0,0,0,22.08,11a4.32,4.32,0,0,0,4.25,2.19,1,1,0,0,1,.35,0,1.14,1.14,0,0,1,.9,1.35,3.8,3.8,0,0,0,.71,3.54,3.46,3.46,0,0,0,1.62.93,5.43,5.43,0,0,0,2.17.13,4.75,4.75,0,0,0,3.67-2.37,1.15,1.15,0,0,1,2.19.56,4.56,4.56,0,0,0,.27,2.36,1.55,1.55,0,0,0,.8.83,2.32,2.32,0,0,0,1.33.08A6.11,6.11,0,0,0,43,19.17a1.13,1.13,0,0,1,1.82.26,4.92,4.92,0,0,1,.6,1.84A4.15,4.15,0,0,1,45,23.41Zm-2.29,2.13-1.23,9.78H54.86l-1.23-9.78Zm-1.46,12-.61,5.83h15l-.6-5.83Zm26.5,0-.61,5.83h15l-.6-5.83Zm-5.61,27V90.85H80.33a2.52,2.52,0,0,0,2.51-2.5V67.12a2.52,2.52,0,0,0-2.51-2.51ZM60.6,90.85V64.61H42.43a2.5,2.5,0,0,0-2.5,2.51V88.35a2.51,2.51,0,0,0,2.5,2.5Zm3.23-15.91h1.1a.67.67,0,0,1,.66.66v4.27a.66.66,0,0,1-.66.65h-1.1V74.94Zm-4.9,0h-1.1a.67.67,0,0,0-.66.66v4.27a.66.66,0,0,0,.66.65h1.1V74.94Z"/></svg>