<svg id="Layer_1" data-name="Layer 1" xmlns="http://www.w3.org/2000/svg" viewBox="0 0 117.48 122.88"><defs><style>.cls-1{fill-rule:evenodd;}.cls-2{fill:#fff;}</style></defs><title>fact</title><path class="cls-1" d="M7.56,57H9.8V5.85a5.74,5.74,0,0,1,1.7-4.1A5.83,5.83,0,0,1,15.6.05H74.32a1.21,1.21,0,0,1,.42,0,2.72,2.72,0,0,1,1.75.69h.09a.77.77,0,0,1,.23.19l30,30.36a2.83,2.83,0,0,1,.88,2,3.63,3.63,0,0,1-.09.65V57h2.33a7.58,7.58,0,0,1,7.56,7.55V96a7.6,7.6,0,0,1-7.56,7.56h-2.33v13.54a5.82,5.82,0,0,1-5.81,5.81H15.6a5.8,5.8,0,0,1-5.8-5.81V103.53H7.56A7.59,7.59,0,0,1,0,96V64.55A7.58,7.58,0,0,1,7.56,57Zm20.6-6.89a2.44,2.44,0,1,1,0-4.88H89.32a2.44,2.44,0,0,1,0,4.88ZM16.53,57h84.34V36.53H79.39c-5.09,0-8.11-2.86-8.11-8V6.83H17.13a.61.61,0,0,0-.6.6V57Zm84.34,46.53H16.53v12a.62.62,0,0,0,.6.6h83.14c.16,0,.6-.45.6-.6v-12ZM77.32,28V8.13L98.74,30.64H80A2.69,2.69,0,0,1,77.32,28Z"/><path class="cls-2" d="M25.8,73.81l-.11,4.42h2.59l4.41-.12.42.53-.46,5.56-4.91-.11h-2.2v.49l.3,8H18.19l.38-7.24L18.19,68H34.63l.42.53L34.56,74l-6.09-.23ZM58,92.58H50.3l-.69-4.08,0-.11-3.73-.08-3.12.16-.65,4.11H34.61L42.07,68h9.22L58,92.58Zm-9.59-9.75-1.67-8.07H46.3l-2.13,8.07,2.13,0,2.13,0Zm23.89-15.3a18.1,18.1,0,0,1,6.16,1l-1.29,6-.49.3A11.14,11.14,0,0,0,72,73.73a4,4,0,0,0-3.35,1.36,7.63,7.63,0,0,0-1,4.51q0,3.69,1.18,5.38a4.17,4.17,0,0,0,3.69,1.7,15.26,15.26,0,0,0,2.38-.21,11.83,11.83,0,0,0,2.3-.59l.61.38-.61,6A17.61,17.61,0,0,1,71.9,93q-6.14,0-9.23-3.2t-3.1-9.33q0-6.16,3.33-9.55t9.42-3.39Zm27,1L98.87,74l-5-.23h-.45L93.2,84.58l.3,8H85.89l.38-7.24-.19-11.53h-.5L80.52,74l-.46-.53L80.48,68H98.87l.42.53Z"/></svg>