<?xml version="1.0" encoding="utf-8"?><svg version="1.1" id="Layer_1" xmlns="http://www.w3.org/2000/svg" xmlns:xlink="http://www.w3.org/1999/xlink" x="0px" y="0px" viewBox="0 0 122.88 99.35" style="enable-background:new 0 0 122.88 99.35" xml:space="preserve"><style type="text/css">.st0{fill-rule:evenodd;clip-rule:evenodd;}</style><g><path class="st0" d="M87.81,26.77c-1.9-0.94-4.18-1.61-6.9-1.95L68.7,23.01l-5.13-3.03l-10.14-9.56c-3.64-2.21-8.31,1.77-6.29,5.95 l7.02,8.89c3.73,4.73,3.07,4.79,8.78,6.89c3.27,1.2,7.16,2.44,10.84,3.41L63.68,50.79L43.93,40.02c-2.46-1.15-4.16-0.68-6.82,0.36 l-18.95,9.02c-3.17,2.85-0.44,10.85,4.83,9.37l17-5.1l18.49,14.54c7.96,4.63,14.79,4.69,19.57-3.59l10.53-16.77 c1.37,0.69,2.39,1.11,2.76,2.4l-8.26,18.32c-2.2,5.13,5.19,9.73,7.36,4.67l11.85-18.85c1.9-2.25,1.66-4.91-0.36-7.9l-9.36-14.47 C90.91,29.46,90.6,28.16,87.81,26.77L87.81,26.77z M79.14,99.35c-1,0-1.82-0.82-1.82-1.82c0-1,0.82-1.82,1.82-1.82h41.92 c1,0,1.82,0.82,1.82,1.82c0,1.01-0.82,1.82-1.82,1.82H79.14L79.14,99.35z M47.94,87.09c-1,0-1.82-0.82-1.82-1.82 c0-1,0.82-1.82,1.82-1.82h65.47c1,0,1.82,0.82,1.82,1.82c0,1-0.82,1.82-1.82,1.82H47.94L47.94,87.09z M11.72,53.64 c0.71,0.04,1.26,0.65,1.23,1.36c-0.04,0.71-0.65,1.27-1.36,1.23L1.23,55.67C0.52,55.64-0.03,55.02,0,54.31 c0.04-0.71,0.65-1.27,1.36-1.23L11.72,53.64L11.72,53.64z M12.93,58.21c0.6-0.4,1.4-0.23,1.8,0.37c0.4,0.6,0.23,1.4-0.36,1.8 L8,64.58c-0.6,0.4-1.4,0.23-1.8-0.37c-0.4-0.6-0.23-1.4,0.36-1.8L12.93,58.21L12.93,58.21z M13.06,47.93 c0.65,0.3,0.93,1.07,0.63,1.72c-0.3,0.65-1.07,0.93-1.72,0.63l-6.2-2.9c-0.65-0.3-0.93-1.07-0.63-1.72 c0.3-0.65,1.07-0.93,1.72-0.63L13.06,47.93L13.06,47.93z M87.3,0c6.43,0,11.64,5.21,11.64,11.64c0,6.43-5.21,11.64-11.64,11.64 c-6.43,0-11.64-5.21-11.64-11.64C75.66,5.21,80.87,0,87.3,0L87.3,0z M26.52,80.32l14.34-19.94l10.73,8.36L34.78,87.06 C29.67,91.98,23.75,84.48,26.52,80.32L26.52,80.32z"/></g></svg>