<svg xmlns="http://www.w3.org/2000/svg" shape-rendering="geometricPrecision" text-rendering="geometricPrecision" image-rendering="optimizeQuality" fill-rule="evenodd" clip-rule="evenodd" viewBox="0 0 512 438.22"><path d="M309.22 235.44c46.38-46.39 121.59-46.39 167.98 0 46.4 46.39 46.4 121.6 0 167.99-46.39 46.38-121.6 46.38-167.98 0-46.4-46.39-46.4-121.6 0-167.99zM109.95 390.19l70.24-67.37c2.64-2.54 6.04-3.8 9.44-3.8l53.68-.01v.42c0 8.99.8 17.99 2.4 26.87h-50.65l-88.6 84.98c-2.5 2.79-6.14 4.55-10.17 4.55-7.54 0-13.66-6.13-13.66-13.67V346.3h-47.1C16.04 346.3 0 330.26 0 310.77V35.53C0 16.15 16.15 0 35.53 0h341.86c19.4 0 35.53 16.13 35.53 35.53v135.3c-6.54-.87-13.12-1.3-19.71-1.3-2.54 0-5.08.07-7.61.2V35.53c0-4.45-3.76-8.21-8.21-8.21H35.53c-4.3 0-8.21 3.91-8.21 8.21v275.24c0 4.47 3.74 8.2 8.21 8.2h60.76c7.54 0 13.66 6.13 13.66 13.67v57.55zm38.79-259.66c-5.68-5.59-10.23-9.1-3.14-15.99l6.25-5.7c7.27-7.35 11.52-6.98 18.29-.05l36.96 36.97 36.77-36.77c5.59-5.68 9.11-10.23 16-3.13l5.69 6.24c7.35 7.27 6.97 11.53.05 18.29l-36.94 36.94 36.95 36.93c6.92 6.76 7.3 11.03-.05 18.3l-5.7 6.24c-6.89 7.1-10.41 2.55-15.99-3.13l-36.78-36.78-36.96 36.97c-6.77 6.94-11.03 7.31-18.3-.05l-6.24-5.69c-7.1-6.89-2.54-10.39 3.13-15.99l36.81-36.8-36.8-36.8zm264.08 131.49c7.51 7.54 4.75 19.21-3.1 25.61-7.6 6.14-21.33 9.08-29.15 1.87-7.88-7.34-4.75-19.18 2.81-25.63 7.3-6.14 21.74-9.54 29.44-1.85zm-44.6 101.42h6.45v-44.33h-12.2c0-16.62 30.52-5.84 53-11.52v55.85h8.48v17.84h-55.73v-17.84z"/></svg>