<?xml version="1.0" encoding="utf-8"?><svg version="1.1" id="Layer_1" xmlns="http://www.w3.org/2000/svg" xmlns:xlink="http://www.w3.org/1999/xlink" x="0px" y="0px" viewBox="0 0 122.88 122.88" style="enable-background:new 0 0 122.88 122.88" xml:space="preserve"><style type="text/css"><![CDATA[
	.st0{fill:#E74040;}
]]></style><g><path d="M71.67,96.76l0.03-31.95l8.31-8.32l0.87,40.41C81.03,103.55,71.66,104.16,71.67,96.76L71.67,96.76z M66.68,50 c-6.43-10.36-1.74-29.44,9.2-29.32c5.5,0.06,9.32,3.77,11.39,8.73L66.68,50L66.68,50z M50.04,53.59l0.35,12.7l-7.88,7.88 l0.53-20.55c-0.92-0.13-1.72-0.32-2.3-0.57c-3.78-1.61-5.05-5.37-5.14-10l0.55-15.93c0.06-1.63-0.26-3.55,1.31-4.5 c1.47-0.89,3.63-0.22,3.73,1.67l-0.16,13.87c-0.09,2.77,3.58,2.45,3.38,0c0-3.88,0.17-10.09,0.17-13.97c0.06-2.75,4.25-2.49,4.31,0 l-0.17,13.97c-0.01,2.61,3.94,2.53,3.96,0l0.17-13.5c0.23-2.6,4.63-2.33,4.66,0V41.3c0.28,6.47-1.38,9.3-4.69,11.47 C52.24,53.14,51.24,53.41,50.04,53.59L50.04,53.59z M50.92,85.58l0.37,13.38c0.07,2.59-2.12,4.71-4.71,4.71h-0.52 c-2.3,0-4.25-1.89-4.19-4.19l0.13-4.97L50.92,85.58L50.92,85.58z"/><path class="st0" d="M61.44,0c16.97,0,32.33,6.88,43.44,18c11.12,11.12,18,26.48,18,43.45c0,16.97-6.88,32.32-18,43.44 c-11.12,11.12-26.48,18-43.44,18c-16.97,0-32.33-6.88-43.44-18C6.88,93.77,0,78.41,0,61.44C0,44.47,6.88,29.11,18,18 C29.11,6.88,44.48,0,61.44,0L61.44,0L61.44,0z M103.65,27.79l-75.86,75.86c9.23,7.37,20.93,11.77,33.65,11.77 c14.91,0,28.4-6.04,38.17-15.81c9.77-9.77,15.81-23.27,15.81-38.17C115.42,48.71,111.02,37.02,103.65,27.79L103.65,27.79 L103.65,27.79z M22.29,98.61l76.32-76.32C88.93,13.1,75.84,7.46,61.44,7.46c-14.91,0-28.4,6.04-38.17,15.81 C13.5,33.04,7.46,46.53,7.46,61.44C7.46,75.84,13.1,88.93,22.29,98.61L22.29,98.61L22.29,98.61z"/></g></svg>