<svg id="Layer_1" data-name="Layer 1" xmlns="http://www.w3.org/2000/svg" viewBox="0 0 122.87 122.88"><title>february-month</title><path d="M81.6,4.73C81.6,2.12,84.18,0,87.37,0s5.77,2.12,5.77,4.73V25.45c0,2.61-2.58,4.73-5.77,4.73s-5.77-2.12-5.77-4.73V4.73Zm-38.78,81H35.3V96H26.45V68.34H44.59l-1.11,7.08H35.3v3.71h7.52v6.59Zm23.43-.18H57.41V88.9H68.24V96H48.57V68.34H68l-1.1,7.08H57.41v3.71h8.84v6.41ZM73.33,96V68.34H87.66c2.65,0,4.55.52,5.68,1.55A5.76,5.76,0,0,1,95,74.4,8.23,8.23,0,0,1,94,79a5,5,0,0,1-2.9,2.1v.26q5.35.93,5.36,7.3A7.78,7.78,0,0,1,94.65,94c-1.18,1.34-3,2-5.44,2ZM85.62,85H82.18v4.51h3.4c1.24,0,1.86-.75,1.86-2.26S86.83,85,85.62,85ZM85,74.4H82.18v4.11h2.74c1.12,0,1.68-.68,1.68-2.06s-.55-2-1.64-2ZM29.61,4.73C29.61,2.12,32.19,0,35.38,0s5.77,2.12,5.77,4.73V25.45c0,2.61-2.58,4.73-5.77,4.73s-5.77-2.12-5.77-4.73V4.73ZM6.4,38.76H116.46V21.47a3,3,0,0,0-.86-2.07,2.92,2.92,0,0,0-2.07-.86H103a3.2,3.2,0,1,1,0-6.4h10.55a9.36,9.36,0,0,1,9.33,9.33v92.08a9.36,9.36,0,0,1-9.33,9.33H9.33A9.36,9.36,0,0,1,0,113.54V21.47a9.36,9.36,0,0,1,9.33-9.33H20.6a3.2,3.2,0,1,1,0,6.4H9.33a3,3,0,0,0-2.07.86,2.92,2.92,0,0,0-.86,2.07V38.76Zm110.07,6.41H6.4v68.37a3,3,0,0,0,.86,2.07,2.92,2.92,0,0,0,2.07.86H113.54a3,3,0,0,0,2.07-.86,2.92,2.92,0,0,0,.86-2.07V45.17Zm-66-26.63a3.2,3.2,0,0,1,0-6.4H71.91a3.2,3.2,0,1,1,0,6.4Z"/></svg>