<svg id="Layer_1" data-name="Layer 1" xmlns="http://www.w3.org/2000/svg" viewBox="0 0 512 156.84"><defs><style>.cls-1{fill:#d5652c;}.cls-1,.cls-2{fill-rule:evenodd;}.cls-2{fill:#43338e;}</style></defs><title>fedex</title><path class="cls-1" d="M466.71,151.34l-21-23.52L425,151.34H381.22l42.74-48-42.74-48h45.1L447.5,78.61l20.39-23.33H511.4l-42.54,47.83L512,151.34Zm-169.51,0V0h84V33.74H332.79V55.28h48.43V87.73H332.79v29.79h48.43v33.82Z"/><path class="cls-2" d="M261.78,0V61.94h-.4c-7.85-9-17.65-12.15-29-12.15-23.49,0-40.94,16.17-47,37.38-6.91-23.38-25-37.82-52.06-37.82-22,0-39.1,10.07-48,26.25V55.27H40.21V33.73H89.42V0H0V151.34H40.21V87.73h40.3a59.32,59.32,0,0,0-2.06,15c0,31.57,24.11,53.72,54.89,53.72,25.89,0,42.95-12.15,52-34.31H150.86c-4.66,6.67-8.2,8.64-17.52,8.64-10.8,0-20.12-9.42-20.12-20.6h70.35c3.06,25,22.39,46.7,49.18,46.7a34.32,34.32,0,0,0,28.63-15.29h.4v9.8h35.43V0ZM114.34,88.18c2.23-9.62,9.69-15.89,19-15.89,10.25,0,17.32,6.09,19.18,15.89ZM240.26,128.3c-13.06,0-21.18-12.17-21.18-24.87,0-13.59,7.06-26.65,21.18-26.65,14.65,0,20.47,13.06,20.47,26.65C260.73,116.31,254.55,128.3,240.26,128.3Z"/></svg>