<svg id="Layer_1" data-name="Layer 1" xmlns="http://www.w3.org/2000/svg" viewBox="0 0 122.88 110.53"><defs><style>.cls-1{fill:#2fb14b;}</style></defs><title>feedly</title><path class="cls-1" d="M69.64,34.74,36.15,68.85a1.87,1.87,0,0,1-1.37.57h-4.1a1.91,1.91,0,0,1-1.27-.48l-4.88-5a2,2,0,0,1,0-2.77L60.07,25a1.91,1.91,0,0,1,2.69,0l0,0,6.85,7a2,2,0,0,1,0,2.77ZM46.9,110.53H76a13.46,13.46,0,0,0,9.42-4L119,72.3A13.91,13.91,0,0,0,122.88,63v-.75A13.91,13.91,0,0,0,119,52.87L71,4h0a13.34,13.34,0,0,0-18.88-.19,1.7,1.7,0,0,0-.19.19l-48,48.83a14,14,0,0,0,0,19.43l34.22,34.86a13.4,13.4,0,0,0,8.75,3.4ZM69.64,64,50.5,83.46a1.91,1.91,0,0,1-1.37.57H45a1.89,1.89,0,0,1-1.28-.48l-4.87-5a2,2,0,0,1,0-2.78L60.07,54.23a1.91,1.91,0,0,1,2.7,0l0,0,6.84,7a2,2,0,0,1,0,2.77Zm0,29.24-4.79,4.86a1.9,1.9,0,0,1-1.37.58h-4.1a1.92,1.92,0,0,1-1.27-.49l-4.88-5a2,2,0,0,1,0-2.78l6.84-7a1.91,1.91,0,0,1,2.69,0s0,0,0,0l6.85,7a2,2,0,0,1,0,2.78Z"/></svg>