<?xml version="1.0" encoding="utf-8"?><svg version="1.1" id="Layer_1" xmlns="http://www.w3.org/2000/svg" xmlns:xlink="http://www.w3.org/1999/xlink" x="0px" y="0px" viewBox="0 0 122.88 107.95" style="enable-background:new 0 0 122.88 107.95" xml:space="preserve"><style type="text/css">.st0{fill-rule:evenodd;clip-rule:evenodd;}</style><g><path class="st0" d="M6.38,0h5.8v12.01h10.91V0h5.8v12.01h10.91V0h5.8v12.01h10.91V0h5.8v12.01h10.91V0h5.8v12.01h10.91V0h5.8 v12.01h10.91V0h5.8v12.01h10.41v5.8h-10.41v84.33h10.41v5.8h-10.41v0h-5.8v0H95.76v0h-5.8v0H79.04v0h-5.8v0H62.33v0h-5.8v0H45.61v0 h-5.8v0H28.9v0h-5.8v0H12.18v0h-5.8v0H0v-5.8h6.38V17.82H0v-5.8h6.38V0L6.38,0z M106.67,102.15V17.82H95.76v84.33H106.67 L106.67,102.15z M89.95,102.15V17.82H79.04v84.33H89.95L89.95,102.15z M73.24,102.15V17.82H62.33v84.33H73.24L73.24,102.15z M56.52,102.15V17.82H45.61v84.33H56.52L56.52,102.15z M39.81,102.15V17.82H28.9v84.33H39.81L39.81,102.15z M23.09,102.15V17.82 H12.18v84.33H23.09L23.09,102.15z"/></g></svg>