<?xml version="1.0" encoding="UTF-8"?>
<!DOCTYPE svg PUBLIC "-//W3C//DTD SVG 1.1//EN" "http://www.w3.org/Graphics/SVG/1.1/DTD/svg11.dtd">
<!-- Creator: CorelDRAW 2021 (64-Bit) -->
<svg xmlns="http://www.w3.org/2000/svg" xml:space="preserve" width="441px" height="512px" version="1.1" shape-rendering="geometricPrecision" text-rendering="geometricPrecision" image-rendering="optimizeQuality" fill-rule="evenodd" clip-rule="evenodd"
viewBox="0 0 441 512.02"
 xmlns:xlink="http://www.w3.org/1999/xlink"
 xmlns:xodm="http://www.corel.com/coreldraw/odm/2003">
 <g id="Layer_x0020_1">
  <metadata id="CorelCorpID_0Corel-Layer"/>
  <path fill="black" d="M324.87 279.77c32.01,0 61.01,13.01 82.03,34.02 21.09,21 34.1,50.05 34.1,82.1 0,32.06 -13.01,61.11 -34.02,82.11l-1.32 1.22c-20.92,20.29 -49.41,32.8 -80.79,32.8 -32.06,0 -61.1,-13.01 -82.1,-34.02 -21.01,-21 -34.02,-50.05 -34.02,-82.11 0,-32.06 13.01,-61.1 34.02,-82.1 21,-21.01 50.04,-34.02 82.1,-34.02zm-81.76 -241.69l0 54.18c0.99,12.93 5.5,23.09 13.42,29.85 8.2,7.01 20.46,10.94 36.69,11.23l37.92 -0.04 -88.03 -95.22zm91.21 120.49l-41.3 -0.04c-22.49,-0.35 -40.21,-6.4 -52.9,-17.24 -13.23,-11.31 -20.68,-27.35 -22.19,-47.23l-0.11 -1.74 0 -67.03 -154.95 0c-10.34,0 -19.75,4.23 -26.55,11.03 -6.8,6.8 -11.03,16.21 -11.03,26.55l0 336.49c0,10.3 4.25,19.71 11.06,26.52 6.8,6.8 16.22,11.05 26.52,11.05l119.41 0c2.54,8.79 5.87,17.25 9.92,25.29l-129.33 0c-17.28,0 -33.02,-7.08 -44.41,-18.46 -11.38,-11.39 -18.46,-27.12 -18.46,-44.4l0 -336.49c0,-17.26 7.08,-32.98 18.45,-44.36 11.44,-11.43 27.16,-18.51 44.42,-18.51l173.88 0c4.11,0 7.76,1.96 10.07,5l109.39 118.34c2.24,2.43 3.34,5.49 3.34,8.55l0.03 119.72c-8.18,-1.97 -16.62,-3.25 -25.26,-3.79l0 -89.25zm-229.76 54.49c-6.98,0 -12.64,-5.66 -12.64,-12.64 0,-6.99 5.66,-12.65 12.64,-12.65l150.49 0c6.98,0 12.65,5.66 12.65,12.65 0,6.98 -5.67,12.64 -12.65,12.64l-150.49 0zm0 72.3c-6.98,0 -12.64,-5.66 -12.64,-12.65 0,-6.98 5.66,-12.64 12.64,-12.64l142.52 0c3.71,0 7.05,1.6 9.37,4.15 -11.07,5.77 -21.33,12.89 -30.54,21.14l-121.35 0zm0 72.3c-6.98,0 -12.64,-5.66 -12.64,-12.65 0,-6.98 5.66,-12.64 12.64,-12.64l86.2 0c-3.82,8.05 -6.95,16.51 -9.29,25.29l-76.91 0zm226.94 -7.29c-0.15,-3.57 -1.33,-6.09 -3.56,-7.55 -5.94,-3.97 -11.81,1.45 -15.94,5.2l-40.71 40.04c-4.26,4.32 -4.31,9.32 0,13.64l41.82 41c3.95,3.51 9.36,7.86 14.83,4.2 2.23,-1.49 3.41,-4 3.56,-7.56l0 -19.75 35.08 0c5.84,0 10.7,-4.81 10.7,-10.69l0 -28.06c0,-5.9 -4.84,-10.71 -10.7,-10.71l-35.08 0 0 -19.76z"/>
 </g>
</svg>
