<svg xmlns="http://www.w3.org/2000/svg" shape-rendering="geometricPrecision" text-rendering="geometricPrecision" image-rendering="optimizeQuality" fill-rule="evenodd" clip-rule="evenodd" viewBox="0 0 512 512"><path d="M512 256C512 114.61 397.38 0 256 0 114.61 0 0 114.61 0 256c0 141.38 114.61 256 256 256 141.38 0 256-114.62 256-256zm-211.58-88.56c3.96-4.07 3.91-10.63-.12-14.63s-10.52-3.95-14.48.12l-94.23 97.13c-3.95 4.06-3.91 10.58.08 14.59l94.23 94.5c4 4.02 10.49 4 14.48-.05s3.97-10.6-.04-14.62l-87.02-87.27 87.1-89.77z"/></svg>