<?xml version="1.0" encoding="utf-8"?><svg version="1.1" id="Layer_1" xmlns="http://www.w3.org/2000/svg" xmlns:xlink="http://www.w3.org/1999/xlink" x="0px" y="0px" viewBox="0 0 75.7 122.88" style="enable-background:new 0 0 75.7 122.88" xml:space="preserve"><style type="text/css">.st0{fill-rule:evenodd;clip-rule:evenodd;}</style><g><path class="st0" d="M31.27,0C46.94,33.28-1.43,33.39,0.03,67.8c0.53,5.43,1.54,10.17,3.04,14.21c-0.3,1.84-0.45,3.72-0.45,5.64 c0,9.73,3.94,18.54,10.32,24.91c6.38,6.38,15.18,10.32,24.91,10.32s18.54-3.94,24.91-10.32c6.38-6.38,10.32-15.18,10.32-24.91 c0-4.3-0.77-8.42-2.18-12.23c2.85-4.98,4.6-10.7,4.8-17.05c-1.67-14.22-15.86-18.14-8.25-33.22c-9.76,0.56-12.11,7.17-12.09,17.4 c1.21,13.15-23.8,11.19-10.69-4.89C55.94,23.84,44.86,7.69,31.27,0L31.27,0L31.27,0z M41.97,66.5c0.53,0.14,1.04,0.31,1.54,0.5 c0.74,0.28,1.44,0.64,2.11,1.04c0.02,0.01,0.05,0.04,0.08,0.05c0.65,0.4,1.25,0.83,1.8,1.32c0.58,0.5,1.13,1.06,1.62,1.66 c0.49,0.59,0.93,1.23,1.32,1.9c0.39,0.68,0.72,1.38,1,2.11c0.28,0.75,0.5,1.52,0.64,2.3c0.14,0.79,0.21,1.6,0.21,2.43v2.63 c0,0.84,0.01,1.66,0.01,2.47v0.01c0,0.72,0.05,1.46,0.14,2.18c0.09,0.72,0.21,1.42,0.39,2.1c0.17,0.66,0.4,1.3,0.69,1.91 c0.3,0.63,0.65,1.25,1.08,1.85c0.42,0.59,0.94,1.17,1.57,1.76c0.64,0.59,1.4,1.17,2.25,1.74c0.49,0.33,0.62,1,0.3,1.48 c-0.2,0.31-0.55,0.47-0.89,0.47H19.22c-0.59,0-1.07-0.47-1.07-1.07c0-0.39,0.2-0.72,0.52-0.91c0.87-0.58,1.61-1.16,2.23-1.74 c0.62-0.57,1.14-1.16,1.55-1.76c0.01-0.01,0.02-0.04,0.04-0.05c0.4-0.59,0.75-1.19,1.03-1.8c0.28-0.62,0.52-1.26,0.7-1.92 c0-0.01,0.01-0.02,0.01-0.04c0.17-0.64,0.3-1.32,0.38-2.03c0.08-0.71,0.13-1.45,0.13-2.21v-5.06c0-0.82,0.07-1.63,0.21-2.43 c0.14-0.81,0.36-1.58,0.64-2.31c0.28-0.74,0.62-1.45,1.01-2.12c0.39-0.68,0.83-1.3,1.33-1.91v-0.01c0.5-0.59,1.04-1.15,1.64-1.65 c0.58-0.5,1.22-0.96,1.9-1.36c0.69-0.42,1.4-0.76,2.14-1.03c0.51-0.19,1.03-0.36,1.58-0.49c0.19-0.64,0.5-1.16,0.95-1.57 c0.62-0.55,1.44-0.82,2.44-0.82c1,0.01,1.8,0.28,2.42,0.83c0.45,0.4,0.77,0.93,0.95,1.55L41.97,66.5L41.97,66.5z M44.55,102.36 c-0.13,0.7-0.37,1.34-0.7,1.92c-0.34,0.6-0.81,1.14-1.36,1.61c-0.56,0.47-1.17,0.83-1.84,1.08c-0.66,0.24-1.36,0.36-2.11,0.36 c-0.75,0-1.45-0.12-2.11-0.36c-0.66-0.24-1.28-0.59-1.84-1.08c-0.56-0.47-1.02-1.02-1.36-1.61c-0.34-0.6-0.58-1.27-0.71-1.98 c-0.06-0.36,0.18-0.69,0.52-0.76c0.01,0,0.12-0.01,0.12-0.01h10.79c0.36,0,0.65,0.3,0.65,0.65c0,0.06-0.01,0.12-0.02,0.18H44.55 L44.55,102.36z M37.85,56.39c17.27,0,31.26,14,31.26,31.26c0,17.27-14,31.26-31.26,31.26s-31.26-14-31.26-31.26 C6.58,70.38,20.58,56.39,37.85,56.39L37.85,56.39z"/></g></svg>