<?xml version="1.0" encoding="utf-8"?><svg version="1.1" id="Layer_1" xmlns="http://www.w3.org/2000/svg" xmlns:xlink="http://www.w3.org/1999/xlink" x="0px" y="0px" viewBox="0 0 122.88 98.62" style="enable-background:new 0 0 122.88 98.62" xml:space="preserve"><g><path d="M43.66,71.47l-1.43,5.23c-0.18,0.66,0.2,1.36,0.85,1.56l5,1.54l-5,1.54c-0.65,0.2-1.04,0.9-0.85,1.56l0.55,2.01H3.73 c-2.05,0-3.72,1.67-3.72,3.72v9.98h122.87v-9.98c0-2.04-1.67-3.72-3.72-3.72H80.14l0.55-2.01c0.18-0.66-0.2-1.36-0.85-1.56l-5-1.54 l5-1.54c0.65-0.2,1.04-0.9,0.85-1.56l-1.43-5.23c-0.18-0.66-0.86-1.03-1.51-0.83l-16.3,5.03l-16.29-5.03 C44.52,70.44,43.84,70.81,43.66,71.47L43.66,71.47L43.66,71.47z M0,0h122.88v6.64l-4.76,4.92H5.05L0,6.53V0L0,0z M58.26,84.91 l3.2-0.99l3.2,0.99H58.26L58.26,84.91z M7.84,13.79h107.2v69.18H92.49V61.01c0-17.08-13.97-31.05-31.05-31.05l0,0 c-17.08,0-31.05,13.97-31.05,31.05v21.96H7.84V13.79L7.84,13.79z M48.12,42.44c0.71,5.08,1.82,8.93,3.7,10.35 c0.03-1.72,0.21-3.42,0.54-5.08c1.09-5.43,2.83-5.72,4.51-9.74c0.82-1.97,1.05-4.07,0.55-6.36c6.02,1.04,11.61,10.11,13.01,21.65 c1.5-1.96,2.4-4.22,2.57-6.84c2.65,2.72,3.97,5.95,4.46,9.5c0.99,6.79-1.09,11.19-6.6,12.93c1.23-2.81,0.94-4.99-0.34-7.86 c-0.55-1.22-1.25-2.28-2.15-3.16c-0.39,2.79-1,4.9-2.03,5.68c-0.02-0.95-0.11-1.88-0.3-2.78c-0.6-2.98-1.55-3.14-2.48-5.35 c-0.45-1.08-0.58-2.24-0.3-3.49c-3.3,0.57-6.37,5.55-7.14,11.88c-0.82-1.07-1.32-2.31-1.41-3.75c-1.45,1.49-2.18,3.27-2.45,5.21 c-0.27,1.87-0.12,3.41,0.48,4.6c-4.23-0.49-7.08-2.84-8.87-6.66c-2.58-5.46-2.11-9.52,0.32-14.98 C45.19,45.99,46.48,44.05,48.12,42.44L48.12,42.44L48.12,42.44z"/></g></svg>