<?xml version="1.0" encoding="utf-8"?><svg version="1.1" id="Layer_1" xmlns="http://www.w3.org/2000/svg" xmlns:xlink="http://www.w3.org/1999/xlink" x="0px" y="0px" viewBox="0 0 122.88 119.19" style="enable-background:new 0 0 122.88 119.19" xml:space="preserve"><style type="text/css">.st0{fill-rule:evenodd;clip-rule:evenodd;}</style><g><path class="st0" d="M66.41,102.96h21.91c1.76-1.75,3.69-3.57,5.65-5.42c4.11-3.89,8.4-7.95,12.81-13.03 c5.04-5.81,5.58-7.82,7.11-13.51c0.29-1.07,0.61-2.27,1.03-3.76l2.62-9.21l0.03-0.1c1.4-4.1,1.51-6.81,0.93-8.37 c-0.18-0.48-0.41-0.8-0.68-0.97c-0.21-0.14-0.49-0.19-0.78-0.16c-0.68,0.07-1.45,0.5-2.15,1.27l-7.78,18.53 c-0.07,0.17-0.17,0.33-0.28,0.47c-0.46,0.83-1.08,1.64-1.88,2.41l-13.8,15.39c-0.75,0.84-2.04,0.91-2.87,0.16 c-0.84-0.75-0.91-2.04-0.16-2.87l13.81-15.39c0.06-0.07,0.12-0.14,0.19-0.2c1.43-1.36,1.88-2.83,1.63-3.9 c-0.08-0.33-0.22-0.61-0.42-0.8c-0.19-0.17-0.44-0.29-0.75-0.32v0c-1.23-0.13-3.04,0.78-5.25,3.39l0,0 c-0.06,0.07-0.13,0.14-0.2,0.21l-5.35,4.72l-0.03,0.03c-5.79,5.48-8.28,6.78-12.82,9.15c-0.95,0.5-1.99,1.04-3.28,1.74 c-0.51,0.28-1.01,0.62-1.5,0.99c-0.52,0.4-1.02,0.81-1.49,1.21c-2.4,2.02-3.66,3.66-4.38,5.48c-0.75,1.88-1.02,4.17-1.39,7.31 c-0.15,1.27-0.26,2.52-0.35,3.77C66.47,101.77,66.44,102.37,66.41,102.96L66.41,102.96L66.41,102.96z M57.65,0 C68.56,23.16,34.9,23.24,35.92,47.18c0.69,16.19,13.18,22.11,25.83,20.39c-0.37-0.24-0.73-0.5-1.09-0.76 c-0.77-0.58-1.53-1.26-2.29-2.05c-0.75-0.79-1.38-1.63-1.88-2.51c-0.49-0.88-0.89-1.91-1.2-3.09c-0.3-1.18-0.45-2.43-0.45-3.78 c0-1.07,0.13-2.05,0.4-2.95c0.27-0.9,0.62-1.67,1.06-2.31c0.44-0.63,0.92-1.24,1.45-1.8c0.51-0.47,0.99-0.97,1.45-1.48 c0.43-0.49,0.79-1.05,1.06-1.67c0.27-0.62,0.4-1.28,0.4-1.98c0-1.29-0.36-2.82-1.09-4.6l0.05,0.02l-0.02-0.02 c0.99,0.56,1.87,1.13,2.65,1.7c0.77,0.58,1.53,1.26,2.28,2.05c0.75,0.79,1.38,1.63,1.88,2.51c0.5,0.88,0.9,1.91,1.2,3.09 c0.3,1.18,0.45,2.43,0.45,3.78c0,1.07-0.13,2.05-0.4,2.95c-0.27,0.9-0.62,1.67-1.06,2.31c-0.43,0.64-0.92,1.24-1.45,1.8 c-0.53,0.57-1.06,1.1-1.59,1.6c-0.53,0.49-1.01,0.99-1.45,1.48c-0.43,0.49-0.79,1.05-1.06,1.67c-0.27,0.62-0.4,1.28-0.4,1.98 c0,1.02,0.97,1.01,1.42,2.3c12.7-2.19,24.44-10.84,24.9-25.6c-1.16-9.89-11.04-12.62-5.74-23.11c-6.79,0.39-8.42,4.99-8.41,12.11 c0.84,9.15-16.56,7.79-7.44-3.4c7.84-9.61,2-22.32-7.46-27.67L57.65,0L57.65,0z M56.47,102.96H34.55 c-1.76-1.75-3.69-3.57-5.65-5.42c-4.11-3.89-8.4-7.95-12.81-13.03C11.05,78.7,10.51,76.69,8.99,71c-0.29-1.07-0.61-2.27-1.03-3.76 l-2.62-9.21l-0.03-0.1c-1.4-4.1-1.51-6.81-0.93-8.37c0.18-0.48,0.41-0.8,0.68-0.97c0.21-0.14,0.49-0.19,0.78-0.16 c0.68,0.07,1.45,0.5,2.15,1.27l7.78,18.53c0.07,0.17,0.17,0.33,0.28,0.47c0.46,0.83,1.08,1.64,1.88,2.41l13.8,15.39 c0.75,0.84,2.04,0.91,2.87,0.16c0.84-0.75,0.91-2.04,0.16-2.87L20.96,68.38c-0.06-0.07-0.12-0.14-0.19-0.2 c-1.43-1.36-1.88-2.83-1.63-3.9c0.08-0.33,0.22-0.61,0.42-0.8c0.19-0.17,0.44-0.29,0.75-0.32v0c1.23-0.13,3.05,0.78,5.25,3.39 c0,0,0.19,0.19,0.21,0.21l5.35,4.72l0.03,0.03c5.79,5.48,8.28,6.78,12.82,9.15c0.95,0.5,1.99,1.04,3.28,1.74 c0.51,0.28,1.01,0.62,1.5,0.99c0.52,0.4,1.02,0.81,1.49,1.21c2.4,2.02,3.66,3.66,4.38,5.48c0.75,1.88,1.02,4.17,1.39,7.31 c0.15,1.27,0.26,2.52,0.35,3.77C56.41,101.77,56.44,102.37,56.47,102.96L56.47,102.96L56.47,102.96z M29.45,103.66 c-0.31,0.36-0.5,0.83-0.5,1.34v12.14c0,1.13,0.92,2.04,2.04,2.04h27.58c1.13,0,2.04-0.91,2.04-2.04v-12.26c0-1.3-0.08-2.7-0.17-4 c-0.09-1.33-0.21-2.65-0.36-3.96c-0.4-3.43-0.7-5.94-1.66-8.35c-0.99-2.47-2.58-4.6-5.53-7.09c-0.54-0.46-1.09-0.92-1.67-1.35 c-0.61-0.46-1.27-0.9-2.01-1.31c-1.2-0.65-2.32-1.24-3.34-1.78c-4.2-2.2-6.5-3.4-11.91-8.52c-0.04-0.04-0.09-0.08-0.13-0.11 l-5.22-4.61c-3.19-3.73-6.31-4.97-8.7-4.71l-0.01,0v0c-1.17,0.12-2.17,0.58-2.97,1.28l-5.27-12.55l-0.01,0 c-0.08-0.18-0.18-0.35-0.31-0.51c-1.46-1.75-3.31-2.77-5.08-2.95c-1.21-0.12-2.38,0.14-3.4,0.8c-0.97,0.63-1.77,1.61-2.27,2.96 c-0.88,2.35-0.86,6,0.86,11.05l2.6,9.15c0.38,1.32,0.71,2.59,1.02,3.71c1.7,6.35,2.3,8.6,7.97,15.12 c4.49,5.17,8.88,9.33,13.1,13.32C27.23,101.54,28.33,102.58,29.45,103.66L29.45,103.66L29.45,103.66z M33.35,107.04 c0.27,0.06,0.55,0.06,0.83,0h22.34v8.06H33.03v-8.06H33.35L33.35,107.04z M93.43,103.66c0.31,0.36,0.5,0.83,0.5,1.34v12.14 c0,1.13-0.91,2.04-2.04,2.04H64.32c-1.13,0-2.04-0.91-2.04-2.04v-12.26c0-0.07,0-0.15,0.01-0.22c0.03-1.31,0.08-2.58,0.16-3.78 c0.09-1.33,0.21-2.65,0.36-3.96c0.4-3.43,0.7-5.94,1.66-8.35c0.99-2.47,2.58-4.6,5.53-7.09c0.54-0.46,1.09-0.92,1.67-1.35 c0.61-0.46,1.27-0.9,2.01-1.31c1.2-0.65,2.32-1.24,3.34-1.78c4.2-2.2,6.5-3.4,11.91-8.52c0.04-0.04,0.09-0.08,0.13-0.11l5.22-4.61 c3.19-3.73,6.31-4.97,8.7-4.71l0.01,0v0c1.17,0.12,2.17,0.58,2.97,1.28l5.27-12.55l0.01,0c0.08-0.18,0.18-0.35,0.31-0.51 c1.46-1.75,3.31-2.77,5.08-2.95c1.21-0.12,2.38,0.14,3.4,0.8c0.97,0.63,1.77,1.61,2.27,2.96c0.88,2.35,0.86,6-0.86,11.05l-2.6,9.15 c-0.38,1.32-0.71,2.59-1.02,3.71c-1.7,6.35-2.3,8.6-7.97,15.12c-4.49,5.17-8.88,9.33-13.1,13.32 C95.65,101.54,94.55,102.58,93.43,103.66L93.43,103.66L93.43,103.66z M89.53,107.04c-0.27,0.06-0.55,0.06-0.83,0H66.36v8.06h23.49 v-8.06H89.53L89.53,107.04z"/></g></svg>