<svg id="Layer_1" data-name="Layer 1" xmlns="http://www.w3.org/2000/svg" viewBox="0 0 122.88 120.76"><defs><style>.cls-1{fill:#ef4136;}.cls-2{fill:#1a1a1a;}</style></defs><title>five-years</title><path class="cls-1" d="M23.45,84.19l1.68,6.73h.22l1.71-6.73h6.76L28.31,98.11v5.2H22.19v-5.2l-5.5-13.92ZM48,96.09H41.93v2.33h7.49v4.89H35.81V84.19H49.26l-.76,4.9H41.93v2.57H48v4.43Zm9,7.22H50.58l5-19.12H65l5,19.12H63.49l-.7-3h-5l-.7,3ZM60.1,90.07l-1.26,5.35h2.81l-1.22-5.35Zm28.14,13.24H81.51L79,97.62H77.69v5.69H71.57V84.19h9.64q6.57,0,6.57,6.7,0,4.59-2.84,6.06l3.3,6.36ZM77.69,89.09v3.82h1.4a4,4,0,0,0,1.61-.23q.51-.23.51-1.05V90.37q0-.83-.51-1.05a4.21,4.21,0,0,0-1.61-.23ZM90.07,103l.86-5a21,21,0,0,0,5.06.7,29.25,29.25,0,0,0,3.63-.18V96.92l-2.76-.24c-2.48-.23-4.19-.82-5.12-1.79a6,6,0,0,1-1.39-4.3c0-2.61.56-4.41,1.7-5.39s3-1.46,5.76-1.46a32.36,32.36,0,0,1,7.35.76l-.77,4.89a30.66,30.66,0,0,0-4.56-.45,23.67,23.67,0,0,0-2.9.15v1.5l2.2.21c2.67.27,4.52.9,5.54,1.91a5.66,5.66,0,0,1,1.52,4.21,9.18,9.18,0,0,1-.51,3.26,5.59,5.59,0,0,1-1.24,2,4.67,4.67,0,0,1-2,1,11.64,11.64,0,0,1-2.31.45c-.66,0-1.54.07-2.64.07a32.43,32.43,0,0,1-7.38-.79Z"/><path class="cls-2" d="M82.68,4.21C82.68,1.87,85,0,87.84,0S93,1.91,93,4.21v18.5c0,2.34-2.3,4.21-5.16,4.21s-5.16-1.9-5.16-4.21V4.21ZM48.26,71l1.44-9.28A34.1,34.1,0,0,0,58.3,63a45.24,45.24,0,0,0,6.07-.34V59.82l-3.87-.45Q54.1,58.64,51.8,57c-1.54-1.11-2.3-3.08-2.3-5.93q0-.61.51-14.62h23.5l-.77,9.67L60.5,45.31v2.87l3,.39q6.77.9,9.34,3.63t2.59,7.62a17.73,17.73,0,0,1-.88,6,10.23,10.23,0,0,1-2.09,3.7,7.71,7.71,0,0,1-3.44,1.95,18.87,18.87,0,0,1-3.9.81c-1.11.09-2.6.14-4.46.14A50,50,0,0,1,48.26,71ZM29.67,4.21C29.67,1.87,32,0,34.83,0S40,1.91,40,4.21v18.5c0,2.34-2.3,4.21-5.16,4.21s-5.16-1.9-5.16-4.21V4.21ZM6.76,111.3a2.65,2.65,0,0,0,.76,1.86,2.56,2.56,0,0,0,1.87.75h104a2.65,2.65,0,0,0,1.86-.75,2.56,2.56,0,0,0,.75-1.86v-91a2.56,2.56,0,0,0-2.57-2.58h-8.33c-1.59,0-2.86-2.35-2.86-3.94a2.85,2.85,0,0,1,2.86-2.86h9.41a8.4,8.4,0,0,1,8.34,8.34v93.2a8.38,8.38,0,0,1-8.34,8.34H8.34A8.38,8.38,0,0,1,0,112.42V19.22a8.29,8.29,0,0,1,2.46-5.88,8.35,8.35,0,0,1,5.88-2.46H18.43a2.85,2.85,0,0,1,2.86,2.86c0,1.59-1.27,3.94-2.86,3.94h-9a2.69,2.69,0,0,0-1.87.75A2.59,2.59,0,0,0,6.8,20.3c0,28.8,0,62.06,0,91ZM51.54,17.64c-1.58,0-2.86-2.35-2.86-3.94a2.85,2.85,0,0,1,2.86-2.86H70.77a2.84,2.84,0,0,1,2.85,2.86c0,1.59-1.27,3.94-2.85,3.94Z"/></svg>