<?xml version="1.0" encoding="UTF-8"?>
<!DOCTYPE svg PUBLIC "-//W3C//DTD SVG 1.1//EN" "http://www.w3.org/Graphics/SVG/1.1/DTD/svg11.dtd">
<!-- Creator: CorelDRAW -->
<svg xmlns="http://www.w3.org/2000/svg" xml:space="preserve" width="451px" height="512px" version="1.1" shape-rendering="geometricPrecision" text-rendering="geometricPrecision" image-rendering="optimizeQuality" fill-rule="evenodd" clip-rule="evenodd"
viewBox="0 0 451 512.426"
 xmlns:xlink="http://www.w3.org/1999/xlink"
 xmlns:xodm="http://www.corel.com/coreldraw/odm/2003">
 <g id="Layer_x0020_1">
  <metadata id="CorelCorpID_0Corel-Layer"/>
  <path fill="#FF7B24" d="M56.642 62.995c190.964,-132.008 206.819,128.832 394.358,-34.293l0 266.205c-178.869,160.839 -219.046,-98.605 -394.358,33.463l0 -265.375z"/>
  <path fill="#6E350F" d="M57.161 62.944l0 386.537c8.162,6.463 13.394,16.446 13.394,27.664 0,19.486 -15.794,35.281 -35.28,35.281 -19.485,0 -35.275,-15.795 -35.275,-35.281 0,-11.888 5.88,-22.404 14.89,-28.793l0 -384.279c-9.01,-6.389 -14.89,-16.905 -14.89,-28.793 0,-19.485 15.79,-35.28 35.275,-35.28 19.486,0 35.28,15.795 35.28,35.28 0,11.218 -5.232,21.202 -13.394,27.664z"/>
 </g>
</svg>
