<svg xmlns="http://www.w3.org/2000/svg" width="64" height="64" shape-rendering="geometricPrecision" text-rendering="geometricPrecision" image-rendering="optimizeQuality" fill-rule="evenodd" clip-rule="evenodd" viewBox="0 0 640 640"><path d="M579.999-.012H60C27-.012-.013 27-.013 60.001V580C-.013 613 27 640.012 60 640.012h519.999c33 0 60.013-27.012 60.013-60.012V60c0-33-27.013-60.012-60.013-60.012zM180.002 420.005c-55.24 0-100.005-44.764-100.005-100.005 0-55.24 44.764-100.005 100.005-100.005 55.24 0 100.005 44.764 100.005 100.005 0 55.241-44.764 100.005-100.005 100.005zm279.996 0c-55.24 0-100.005-44.764-100.005-100.005 0-55.24 44.764-100.005 100.005-100.005 55.24 0 100.005 44.764 100.005 100.005 0 55.241-44.764 100.005-100.005 100.005z"/></svg>