<svg xmlns="http://www.w3.org/2000/svg"  viewBox="0 0 333333 333333" shape-rendering="geometricPrecision" text-rendering="geometricPrecision" image-rendering="optimizeQuality" fill-rule="evenodd" clip-rule="evenodd"><path d="M166667 0c46023 0 87690 18655 117851 48816s48816 71828 48816 117851-18655 87690-48816 117851-71828 48816-117851 48816-87690-18655-117851-48816S0 212690 0 166667 18655 78977 48816 48816 120644 0 166667 0zM78921 166667c0-21201 17184-38388 38388-38388 21196 0 38388 17188 38388 38388 0 21197-17191 38388-38388 38388-21203 0-38388-17191-38388-38388zM273295 60039c-27287-27287-64987-44165-106628-44165-41642 0-79341 16878-106628 44165s-44165 64987-44165 106628c0 41642 16878 79341 44165 106628s64987 44165 106628 44165c41642 0 79341-16878 106628-44165s44165-64987 44165-106628c0-41642-16878-79341-44165-106628z" fill="#0063dc" fill-rule="nonzero"/><path d="M177635 166667c0-21201 17191-38388 38388-38388 21204 0 38389 17187 38389 38388 0 21197-17184 38388-38388 38388-21196 0-38388-17191-38388-38388h-1z" fill="#ff0084"/></svg>