<?xml version="1.0" encoding="utf-8"?><svg version="1.1" id="Layer_1" xmlns="http://www.w3.org/2000/svg" xmlns:xlink="http://www.w3.org/1999/xlink" x="0px" y="0px" viewBox="0 0 122.88 125.34" style="enable-background:new 0 0 122.88 125.34" xml:space="preserve"><style type="text/css">.st0{fill-rule:evenodd;clip-rule:evenodd;}</style><g><path class="st0" d="M25.06,20.02c9.91,5.72,11.43,13.86,12.67,24.13l25.93,14.97L69.92,0c18.09,10.45,20.32,3.52,21.07,23.46 l0.01,0.2l11.31,6.53l-6.07,10.51l-4.76-2.75l0.35,10.5l12.67,7.31l-6.07,10.51l-6.12-3.54l0.44,13.19l26.77,15.45 c3.76,2.17,4.48,8.04,1.6,13.04l0,0c-2.89,5-8.33,7.31-12.09,5.14L82.25,94.1l-11.77,6.28l6.19,3.57l-6.07,10.51l-12.73-7.35 l-9.27,4.95l4.82,2.79l-6.07,10.5l-11.37-6.56c-17.47,9.35-12.49,4.8-31.19-6l48.38-35.46L27.35,62.4 C17.86,67.09,11.08,69.82,0,63.42l6.82-12.06c3.74-1.5,6.48-2.46,8.45-3.27c0.28-1.31,0.78-2.64,1.51-3.91l0,0 c0.83-1.44,1.87-2.65,3.02-3.6c-0.24-2.24-0.73-5.3-1.17-9.68L25.06,20.02L25.06,20.02L25.06,20.02z"/></g></svg>