<?xml version="1.0" encoding="utf-8"?><svg version="1.1" id="Layer_1" xmlns="http://www.w3.org/2000/svg" xmlns:xlink="http://www.w3.org/1999/xlink" x="0px" y="0px" viewBox="0 0 117.52 122.88" style="enable-background:new 0 0 117.52 122.88" xml:space="preserve"><g><path d="M81.58,79.21c-8.16,2.61-14.62,8.87-18.76,16.52c2.74-14.44,6.24-31.51,1.21-45.79c7.34,7.34,15.51-2.78,9.82-8.47 l-5.37-5.37h7.59c8.5,0,8.5-12.94,0-12.94h-7.59l5.37-5.37c6.01-6.01-3.14-15.16-9.15-9.15l-5.37,5.37v-7.6 c0-8.59-12.94-8.52-12.94,0v7.59l-5.37-5.37c-6.01-6.01-15.16,3.14-9.15,9.15l5.37,5.37h-7.6c-8.5,0-8.5,12.94,0,12.94l7.6,0 l-5.37,5.37c-6.01,6.01,3.14,15.16,9.15,9.15l5.37-5.37v7.6c0,8.21,12.94,9.24,12.94-0.78c1.61,9.46-2.32,27.71-4.04,44.03 c-4.05-8.08-10.71-14.59-19.36-16.88l-0.03,0c21.38-0.73,15.17-23.97-7.05-5.62c4.83-12.01,2.45-18.06-3.64-22.96 c-6.26,4.7-6.41,13.14-2.92,22.72C12.88,65.12,5.66,65.42,0,69.15c3.96,9.61,10.69,11.14,20.12,9.53C9.95,85.67,6.38,92.46,9.86,99 c8.68-0.85,13.13-6.91,15.06-16.88c2.39,11.26,7.66,16.61,15.99,17.11c1.73-6.48-0.15-12.77-9.44-19.15 c10.96,2.96,19.15,11.72,23.28,22.07c-0.5,7.45-0.27,14.16,1.51,18.97c0.52,1.44,1.99,2.13,3.28,1.56c1.29-0.58,1.92-2.21,1.4-3.64 c-0.68-2.81-0.66-6.25-0.26-10.14c1.43-6.58,4.53-13.16,9.18-18.49c4.16-4.79,9.6-8.55,16.16-10.32 c-9.29,6.37-11.17,12.67-9.44,19.15c8.33-0.49,13.6-5.84,15.99-17.11c1.94,9.97,6.39,16.03,15.06,16.88 c3.48-6.54-0.09-13.33-10.25-20.32c9.42,1.61,16.15,0.08,20.12-9.53c-5.66-3.74-12.88-4.03-22.29,4.2 c3.49-9.58,3.34-18.02-2.92-22.72c-6.09,4.9-8.47,10.95-3.64,22.96c-22.22-18.35-28.43,4.89-7.05,5.62L81.58,79.21L81.58,79.21z M52.87,22.91c3.71,0,6.72,3.01,6.72,6.72s-3.01,6.72-6.72,6.72c-3.71,0-6.72-3.01-6.72-6.72S49.16,22.91,52.87,22.91L52.87,22.91z"/></g></svg>