<?xml version="1.0" encoding="utf-8"?><svg version="1.1" id="Layer_1" xmlns="http://www.w3.org/2000/svg" xmlns:xlink="http://www.w3.org/1999/xlink" x="0px" y="0px" viewBox="0 0 120 92.97" style="enable-background:new 0 0 120 92.97" xml:space="preserve"><style type="text/css">.st0{fill-rule:evenodd;clip-rule:evenodd;}</style><g><path class="st0" d="M59.95,43.18c5.08,3.21,9.66,4.73,13.59,4.38C74.24,61.46,69.1,69.67,60,73.1 c-8.78-3.2-13.98-11.06-13.59-25.74C51.03,47.6,55.56,46.6,59.95,43.18L59.95,43.18L59.95,43.18z M2.42,20.25h4.39v-9.63 c0-1.34,1.09-2.42,2.42-2.42h4.31V2.42c0-1.34,1.09-2.42,2.42-2.42h39.32c1.34,0,2.42,1.09,2.42,2.42V8.2h53.02 c1.34,0,2.42,1.09,2.42,2.42v9.63h4.42c1.34,0,2.42,1.09,2.42,2.42c0,0.18-0.02,0.35-0.05,0.51l-8.48,62.32 c-0.28,2.03-1.16,3.92-2.53,5.28c-1.35,1.35-3.13,2.19-5.23,2.19H14.35c-2.11,0-3.93-0.85-5.3-2.21c-1.37-1.37-2.26-3.27-2.48-5.34 l-6.56-62.5c-0.14-1.33,0.83-2.52,2.16-2.65C2.25,20.27,2.34,20.26,2.42,20.25L2.42,20.25L2.42,20.25L2.42,20.25z M9.23,25.1H5.1 l6.28,59.83c0.1,0.96,0.49,1.81,1.07,2.4c0.49,0.49,1.14,0.79,1.89,0.79h89.35c0.73,0,1.35-0.29,1.82-0.77 c0.61-0.61,1.01-1.5,1.14-2.49l8.13-59.76L9.23,25.1L9.23,25.1L9.23,25.1z M11.66,13.05v7.19l96.65-1.03v-6.16H55.28 c-1.34,0-2.42-1.09-2.42-2.42V4.85H18.39v5.78c0,1.34-1.09,2.42-2.42,2.42L11.66,13.05L11.66,13.05L11.66,13.05z M60,30.64 c7.27,0,13.85,2.95,18.61,7.71c4.76,4.76,7.71,11.34,7.71,18.61c0,7.27-2.95,13.85-7.71,18.61c-4.76,4.76-11.34,7.71-18.61,7.71 c-7.27,0-13.85-2.95-18.61-7.71c-4.76-4.76-7.71-11.34-7.71-18.61c0-7.27,2.95-13.85,7.71-18.61C46.15,33.59,52.73,30.64,60,30.64 L60,30.64z M75.35,41.61c-3.93-3.93-9.35-6.36-15.35-6.36c-5.99,0-11.42,2.43-15.35,6.36c-3.93,3.93-6.36,9.35-6.36,15.35 c0,5.99,2.43,11.42,6.36,15.35c3.93,3.93,9.35,6.36,15.35,6.36c5.99,0,11.42-2.43,15.35-6.36c3.93-3.93,6.36-9.35,6.36-15.35 C81.7,50.97,79.27,45.54,75.35,41.61L75.35,41.61z M60.07,46.62c3.91,2.47,7.44,3.65,10.47,3.38c0.53,10.71-3.43,17.03-10.43,19.67 c-0.04-0.02-0.09-0.03-0.13-0.05V46.69L60.07,46.62L60.07,46.62L60.07,46.62z"/></g></svg>