<?xml version="1.0" encoding="utf-8"?><svg version="1.1" id="Layer_1" xmlns="http://www.w3.org/2000/svg" xmlns:xlink="http://www.w3.org/1999/xlink" x="0px" y="0px" viewBox="0 0 122.88 95.2" style="enable-background:new 0 0 122.88 95.2" xml:space="preserve"><g><path d="M2.48,20.74h4.5v-9.86c0-1.37,1.11-2.48,2.48-2.48h4.41V2.48c0-1.37,1.11-2.48,2.48-2.48h40.26c1.37,0,2.48,1.11,2.48,2.48 V8.4h54.3c1.37,0,2.48,1.11,2.48,2.48v9.86h4.53c1.37,0,2.48,1.11,2.48,2.48c0,0.18-0.02,0.36-0.06,0.52l-8.68,63.81 c-0.28,2.08-1.19,4.01-2.59,5.41c-1.38,1.38-3.21,2.24-5.36,2.24H14.7c-2.16,0-4.03-0.87-5.43-2.26c-1.41-1.41-2.31-3.35-2.54-5.46 l-6.72-64c-0.14-1.36,0.85-2.58,2.21-2.72C2.31,20.75,2.39,20.75,2.48,20.74L2.48,20.74L2.48,20.74L2.48,20.74z M41.89,43.82h32.4 c0.33,0,0.6,0.27,0.6,0.6v2.6c0,0.33-0.27,0.6-0.6,0.6h-32.4c-0.1,0-0.2,0.02-0.29,0.05c-0.09,0.04-0.18,0.1-0.25,0.16 c-0.07,0.07-0.12,0.15-0.16,0.25l-0.01,0.02c-0.03,0.08-0.05,0.17-0.05,0.27v19.06c0,0.1,0.02,0.2,0.05,0.29 c0.04,0.09,0.1,0.18,0.16,0.25c0.07,0.07,0.15,0.13,0.24,0.16c0.09,0.04,0.18,0.05,0.29,0.05h32.4c0.33,0,0.6,0.27,0.6,0.6v2.6 c0,0.33-0.27,0.6-0.6,0.6h-32.4c-0.61,0-1.2-0.12-1.73-0.35c-0.55-0.23-1.06-0.57-1.47-0.99l-0.02-0.02 c-0.41-0.42-0.74-0.91-0.97-1.46c-0.22-0.54-0.35-1.12-0.35-1.73V48.37c0-0.61,0.12-1.2,0.35-1.73c0.23-0.55,0.57-1.06,0.99-1.47 l0.04-0.04c0.41-0.4,0.9-0.73,1.44-0.96C40.69,43.94,41.28,43.82,41.89,43.82L41.89,43.82z M74.99,59.86 c-0.53,0-1.01-0.22-1.36-0.57c-0.35-0.35-0.57-0.83-0.57-1.36c0-0.53,0.22-1.01,0.57-1.36c0.35-0.35,0.83-0.57,1.36-0.57h5.57 V41.98c-0.09-0.83-0.26-1.55-0.5-2.17c-0.25-0.64-0.57-1.17-0.96-1.6c-0.4-0.45-0.89-0.81-1.46-1.09c-0.6-0.3-1.29-0.51-2.05-0.63 c-0.52-0.09-0.96-0.38-1.25-0.77c-0.29-0.4-0.42-0.91-0.34-1.43c0.09-0.53,0.38-0.97,0.78-1.25c0.4-0.29,0.91-0.42,1.43-0.34 c1.18,0.19,2.27,0.53,3.25,1.03c0.95,0.49,1.79,1.13,2.51,1.93L82,35.68c0.16,0.18,0.31,0.37,0.46,0.56l0.1-0.13 c0.22-0.29,0.46-0.56,0.72-0.81c0.77-0.76,1.66-1.35,2.66-1.78c0.99-0.43,2.09-0.7,3.28-0.85l0.02,0c0.52-0.06,1.01,0.1,1.39,0.4 c0.39,0.3,0.66,0.76,0.73,1.28l0,0.02c0.06,0.52-0.1,1.02-0.4,1.4c-0.31,0.39-0.76,0.66-1.28,0.73c-0.8,0.1-1.52,0.27-2.15,0.53 c-0.61,0.25-1.13,0.58-1.56,1c-0.42,0.42-0.77,0.95-1.03,1.59c-0.27,0.66-0.45,1.45-0.53,2.37v1.82h11.3c0.61,0,1.2,0.12,1.73,0.35 c0.55,0.23,1.06,0.57,1.47,0.99l0.04,0.04c0.4,0.41,0.73,0.9,0.96,1.44c0.22,0.54,0.35,1.12,0.35,1.73v19.06 c0,0.61-0.12,1.2-0.35,1.73c-0.23,0.55-0.56,1.05-0.98,1.46l-0.04,0.04c-0.42,0.41-0.91,0.74-1.46,0.97 c-0.54,0.22-1.12,0.35-1.73,0.35h-11.3v1.82c0.08,0.93,0.26,1.71,0.53,2.37c0.26,0.65,0.61,1.17,1.03,1.59 c0.43,0.42,0.95,0.75,1.56,1.01c0.62,0.26,1.33,0.43,2.12,0.53l0.05,0.01c0.51,0.07,0.95,0.34,1.25,0.72 c0.3,0.38,0.45,0.87,0.4,1.39l-0.01,0.06c-0.07,0.51-0.34,0.96-0.72,1.25c-0.38,0.3-0.87,0.45-1.39,0.4l-0.06-0.01 c-1.18-0.15-2.27-0.43-3.26-0.85c-1-0.43-1.9-1.02-2.66-1.78c-0.26-0.25-0.49-0.52-0.72-0.81l-0.1-0.13 c-0.16,0.21-0.32,0.41-0.49,0.6c-0.72,0.8-1.56,1.44-2.51,1.93c-0.98,0.5-2.07,0.84-3.24,1.03c-0.52,0.09-1.03-0.05-1.43-0.33 l-0.05-0.04c-0.37-0.29-0.65-0.71-0.73-1.21l0-0.04c-0.07-0.51,0.06-1.01,0.34-1.4c0.29-0.4,0.73-0.69,1.25-0.78l0.02,0 c0.75-0.12,1.43-0.33,2.03-0.63c0.56-0.28,1.05-0.64,1.46-1.09l0.03-0.03c0.38-0.43,0.69-0.95,0.93-1.57 c0.24-0.63,0.41-1.36,0.5-2.19l0-13.93H74.99L74.99,59.86z M84.42,47.62V56h5.67c0.53,0,1.01,0.22,1.36,0.57 c0.35,0.35,0.57,0.83,0.57,1.36c0,0.53-0.22,1.01-0.57,1.36s-0.83,0.57-1.36,0.57h-5.67v8.32h11.3c0.11,0,0.2-0.02,0.29-0.05 c0.09-0.04,0.17-0.09,0.24-0.16c0.07-0.07,0.12-0.15,0.16-0.25l0.01-0.02c0.03-0.08,0.05-0.17,0.05-0.27V48.37 c0-0.1-0.02-0.2-0.05-0.29c-0.04-0.09-0.1-0.18-0.16-0.25c-0.07-0.07-0.15-0.12-0.25-0.16l-0.02-0.01 c-0.08-0.03-0.17-0.05-0.27-0.05H84.42L84.42,47.62z M9.46,25.71H5.23l6.43,61.27c0.1,0.98,0.5,1.85,1.1,2.46 c0.5,0.5,1.17,0.81,1.93,0.81l91.5,0c0.75,0,1.38-0.3,1.87-0.79c0.62-0.62,1.03-1.53,1.17-2.55l8.32-61.19L9.46,25.71L9.46,25.71 L9.46,25.71z M11.94,13.37v7.36l98.97-1.05v-6.31h-54.3c-1.37,0-2.48-1.11-2.48-2.48V4.97h-35.3v5.92c0,1.37-1.11,2.48-2.48,2.48 H11.94L11.94,13.37L11.94,13.37z"/></g></svg>