<?xml version="1.0" encoding="utf-8"?><svg version="1.1" id="Layer_1" xmlns="http://www.w3.org/2000/svg" xmlns:xlink="http://www.w3.org/1999/xlink" x="0px" y="0px" viewBox="0 0 122.88 95.21" style="enable-background:new 0 0 122.88 95.21" xml:space="preserve"><style type="text/css">.st0{fill-rule:evenodd;clip-rule:evenodd;}</style><g><path class="st0" d="M2.48,20.74h4.5v-9.86c0-1.37,1.11-2.48,2.48-2.48h4.41V2.48c0-1.37,1.11-2.48,2.48-2.48h40.26 c1.37,0,2.48,1.11,2.48,2.48V8.4h54.3c1.37,0,2.48,1.11,2.48,2.48v9.86h4.53c1.37,0,2.48,1.11,2.48,2.48 c0,0.18-0.02,0.36-0.06,0.53l-8.68,63.81c-0.28,2.08-1.19,4.01-2.59,5.41c-1.38,1.38-3.21,2.24-5.36,2.24H14.7 c-2.16,0-4.03-0.87-5.43-2.26c-1.41-1.41-2.31-3.35-2.54-5.46l-6.72-64c-0.14-1.36,0.85-2.58,2.21-2.72 C2.31,20.75,2.39,20.75,2.48,20.74L2.48,20.74L2.48,20.74L2.48,20.74z M68.42,25.71l0.14,46.7l15.68-8.48l15.4,8.37l0.53-46.59 h17.39l-8.32,61.19c-0.14,1.02-0.55,1.93-1.17,2.55c-0.48,0.48-1.12,0.79-1.87,0.79H14.7c-0.77,0-1.44-0.31-1.93-0.81 c-0.6-0.6-1-1.48-1.1-2.46L5.23,25.71h4.23v0H68.42L68.42,25.71z M11.94,13.37v7.36l98.97-1.05v-6.31h-54.3 c-1.37,0-2.48-1.11-2.48-2.48V4.97h-35.3v5.92c0,1.37-1.11,2.48-2.48,2.48L11.94,13.37L11.94,13.37L11.94,13.37z M86.58,35.29 l-2.28-6.99c2.22,0,4.19,0.63,5.91,1.88c1.72,1.25,2.96,2.96,3.72,5.11H86.58L86.58,35.29z M87.98,39.63l5.96-4.33 c0.33,1.17,0.49,2.22,0.49,3.16c0,3.33-1.39,6.05-4.18,8.16L87.98,39.63L87.98,39.63L87.98,39.63z M84.3,42.29l5.95,4.33 c-1.88,1.29-3.86,1.93-5.95,1.93c-2.08,0-4.06-0.64-5.95-1.93L84.3,42.29L84.3,42.29z M80.62,39.63l-2.27,6.99 c-2.78-2.2-4.18-4.93-4.18-8.18c0-0.95,0.17-1.99,0.5-3.13L80.62,39.63L80.62,39.63L80.62,39.63z M82.03,35.29h-7.35 c0.74-2.14,1.98-3.84,3.71-5.11c1.73-1.26,3.7-1.89,5.91-1.89L82.03,35.29L82.03,35.29L82.03,35.29z"/></g></svg>