<?xml version="1.0" encoding="utf-8"?><svg version="1.1" id="Layer_1" xmlns="http://www.w3.org/2000/svg" xmlns:xlink="http://www.w3.org/1999/xlink" x="0px" y="0px" viewBox="0 0 122.88 95.21" style="enable-background:new 0 0 122.88 95.21" xml:space="preserve"><g><path d="M61.44,31.38c7.44,0,14.18,3.02,19.05,7.89c4.88,4.88,7.89,11.61,7.89,19.06c0,7.44-3.02,14.18-7.89,19.06 c-4.88,4.88-11.61,7.89-19.05,7.89c-7.44,0-14.18-3.02-19.06-7.89c-4.88-4.88-7.89-11.61-7.89-19.06c0-7.44,3.02-14.18,7.89-19.06 C47.26,34.4,54,31.38,61.44,31.38L61.44,31.38z M2.48,20.74h4.5v-9.86c0-1.37,1.11-2.48,2.48-2.48h4.41V2.48 c0-1.37,1.11-2.48,2.48-2.48h40.26c1.37,0,2.48,1.11,2.48,2.48V8.4h54.3c1.37,0,2.48,1.11,2.48,2.48v9.86h4.53 c1.37,0,2.48,1.11,2.48,2.48c0,0.18-0.02,0.36-0.06,0.52l-8.68,63.81c-0.28,2.08-1.19,4.01-2.59,5.41 c-1.38,1.38-3.21,2.24-5.36,2.24l-91.5,0c-2.16,0-4.03-0.87-5.43-2.26c-1.41-1.41-2.31-3.35-2.54-5.46l-6.72-64 c-0.14-1.36,0.85-2.58,2.21-2.72C2.31,20.75,2.39,20.75,2.48,20.74L2.48,20.74L2.48,20.74L2.48,20.74z M9.46,25.71H5.23l6.44,61.27 c0.1,0.98,0.5,1.85,1.1,2.46c0.5,0.5,1.17,0.81,1.93,0.81h91.5c0.75,0,1.38-0.3,1.87-0.79c0.62-0.62,1.03-1.53,1.17-2.55 l8.32-61.19L9.46,25.71L9.46,25.71L9.46,25.71z M11.94,13.37v7.36l98.97-1.05v-6.31h-54.3c-1.37,0-2.48-1.11-2.48-2.48V4.97h-35.3 v5.92c0,1.37-1.11,2.48-2.48,2.48L11.94,13.37L11.94,13.37L11.94,13.37z M49.87,48.11h8.46v-1.47c0-0.52,0.37-0.94,0.83-0.94h4.67 c0.46,0,0.83,0.42,0.83,0.94v1.47h8.35c0.29,0,0.52,0.26,0.52,0.59v2.88H49.35v-2.88C49.35,48.37,49.58,48.11,49.87,48.11 L49.87,48.11z M51.27,53.11h20.52c0.43,0,0.82,0.4,0.78,0.88l-1.74,16.09c-0.04,0.48-0.35,0.88-0.78,0.88l-17.07,0 c-0.43,0-0.74-0.4-0.78-0.88l-1.71-16.09C50.45,53.51,50.84,53.11,51.27,53.11L51.27,53.11L51.27,53.11z M77.15,42.61 c-4.02-4.02-9.58-6.51-15.71-6.51c-6.14,0-11.69,2.49-15.71,6.51c-4.02,4.02-6.51,9.58-6.51,15.72c0,6.14,2.49,11.69,6.51,15.71 c4.02,4.02,9.58,6.51,15.71,6.51c6.14,0,11.69-2.49,15.71-6.51c4.02-4.02,6.51-9.58,6.51-15.71 C83.66,52.19,81.18,46.63,77.15,42.61L77.15,42.61z"/></g></svg>