<?xml version="1.0" encoding="utf-8"?><svg version="1.1" id="Layer_1" xmlns="http://www.w3.org/2000/svg" xmlns:xlink="http://www.w3.org/1999/xlink" x="0px" y="0px" width="122.879px" height="94.035px" viewBox="0 0 122.879 94.035" enable-background="new 0 0 122.879 94.035" xml:space="preserve"><g><path fill-rule="evenodd" clip-rule="evenodd" d="M7.272,8.754h7.181V0h41.954v8.754h59.167v11.708L7.272,15.257V8.754L7.272,8.754 z M57.741,34.997c5.626,0,10.73,2.289,14.425,5.97c3.695,3.696,5.971,8.784,5.971,14.425c0,4.115-1.227,7.961-3.322,11.164 l8.83,9.621l-6.092,5.567l-8.514-9.368c-3.232,2.155-7.124,3.412-11.298,3.412c-5.626,0-10.729-2.289-14.426-5.971 c-3.696-3.696-5.971-8.784-5.971-14.426c0-5.626,2.29-10.729,5.971-14.425C47.011,37.271,52.099,34.997,57.741,34.997 L57.741,34.997z M69.475,43.659c-3.002-3.002-7.154-4.867-11.734-4.867c-4.579,0-8.732,1.864-11.734,4.867 c-3.002,3.002-4.867,7.156-4.867,11.734c0,4.579,1.865,8.732,4.867,11.734c3.002,3.003,7.156,4.867,11.734,4.867 c4.58,0,8.732-1.864,11.734-4.867c3.002-3.002,4.867-7.155,4.867-11.734C74.342,50.814,72.477,46.661,69.475,43.659L69.475,43.659 L69.475,43.659z M0,21.613h122.879l-9.072,66.698c-0.424,3.112-2.586,5.724-5.727,5.724H12.735c-3.145,0-5.401-2.594-5.73-5.729 L0,21.613L0,21.613z"/></g></svg>