<?xml version="1.0" encoding="utf-8"?><svg version="1.1" id="Layer_1" xmlns="http://www.w3.org/2000/svg" xmlns:xlink="http://www.w3.org/1999/xlink" x="0px" y="0px" viewBox="0 0 122.88 97.36" style="enable-background:new 0 0 122.88 97.36" xml:space="preserve"><style type="text/css">.st0{fill-rule:evenodd;clip-rule:evenodd;}</style><g><path class="st0" d="M87.28,0v26.32h-2.57c-1.54-6.09-3.23-10.45-5.09-13.09c-1.86-2.67-4.43-4.77-7.68-6.33 c-1.81-0.88-4.99-1.3-9.52-1.3l-7.24,0v74.95c0,4.97,0.27,8.07,0.81,9.32c0.56,1.25,1.64,2.32,3.23,3.25 c1.62,0.95,3.79,1.42,6.56,1.42h3.23v2.64H18.13v-2.64h3.23c2.81,0,5.09-0.51,6.8-1.52c1.25-0.66,2.23-1.81,2.94-3.45 c0.54-1.12,0.81-4.13,0.81-9.03l0-74.95h-7.05c-6.53,0-11.3,1.37-14.26,4.16c-4.16,3.86-6.78,9.39-7.88,16.56l-2.72,0V0H87.28 L87.28,0z M103.7,79.33v-61.3h-9.14L108.72,0l14.16,18.03h-9.14v61.3h9.14l-14.16,18.03L94.56,79.33H103.7L103.7,79.33z"/></g></svg>