<?xml version="1.0" encoding="utf-8"?><svg version="1.1" id="Layer_1" xmlns="http://www.w3.org/2000/svg" xmlns:xlink="http://www.w3.org/1999/xlink" x="0px" y="0px" viewBox="0 0 82.94 122.88" style="enable-background:new 0 0 82.94 122.88" xml:space="preserve"><g><path d="M82.94,0v23.61h-2.31c-1.38-5.46-2.9-9.37-4.56-11.74c-1.67-2.39-3.97-4.28-6.89-5.68c-1.62-0.79-4.48-1.16-8.54-1.16 l-6.5,0v67.24c0,4.46,0.24,7.24,0.73,8.36c0.5,1.12,1.47,2.08,2.9,2.92c1.45,0.85,3.4,1.27,5.88,1.27h2.9v2.37H20.9v-2.37h2.9 c2.52,0,4.57-0.46,6.1-1.36c1.12-0.59,2-1.62,2.63-3.09c0.48-1.01,0.73-3.71,0.73-8.1V5.03h-6.32c-5.86,0-10.14,1.23-12.79,3.73 c-3.73,3.47-6.08,8.43-7.07,14.86l-2.44,0V0H82.94L82.94,0z M67.48,114.68H15.34v8.2L0,110.18l15.34-12.7v8.2l52.14,0v-8.2 l15.34,12.7l-15.34,12.7V114.68L67.48,114.68z"/></g></svg>