<?xml version="1.0" encoding="utf-8"?><svg version="1.1" id="Layer_1" xmlns="http://www.w3.org/2000/svg" xmlns:xlink="http://www.w3.org/1999/xlink" x="0px" y="0px" viewBox="0 0 78.239 122.88" enable-background="new 0 0 78.239 122.88" xml:space="preserve"><g><path fill-rule="evenodd" clip-rule="evenodd" d="M2.168,122.244c-1.225,0-2.168-1.032-2.168-2.326V38.499 c0-0.56,0.175-1.084,0.506-1.486l10.455-18.219V2.325C10.961,1.049,11.905,0,13.095,0h51.069c1.03,0,1.905,0.804,2.097,1.871 l1.104,18.091l10.875,19.184l-0.336,83.333C55.743,123.502,29.892,122.244,2.168,122.244L2.168,122.244z M27.086,66.468 c7.696,0,13.934,6.237,13.934,13.934c0,7.695-6.237,13.934-13.934,13.934s-13.934-6.238-13.934-13.934 C13.152,72.705,19.39,66.468,27.086,66.468L27.086,66.468z M21.994,15.927h4.633v4.721h-4.633V15.927L21.994,15.927L21.994,15.927 L21.994,15.927z M31.05,15.927h4.633v4.721H31.05V15.927L31.05,15.927L31.05,15.927L31.05,15.927z M40.071,15.927h4.633v4.721 h-4.633V15.927L40.071,15.927L40.071,15.927L40.071,15.927z M62.013,4.615H15.228v11.312h2.553v4.721h-2.833 c-2.955,5.174-5.805,10.438-8.706,15.647h43.947l11.678-15.629c-3.653,0-8.945-0.018-12.599-0.018v-4.721l0,0 c4.196,0,8.426-0.069,12.675-0.069C61.96,12.082,61.978,8.375,62.013,4.615L62.013,4.615L62.013,4.615z M65.557,23.026 l-9.756,13.27h17.115L65.557,23.026L65.557,23.026z M55.096,40.929v76.699h18.002l-0.142-76.699H55.096L55.096,40.929z M4.249,40.929v76.699h0.175h46.582V40.929H4.249L4.249,40.929z"/></g></svg>