<svg id="Layer_1" data-name="Layer 1" xmlns="http://www.w3.org/2000/svg" viewBox="0 0 122.88 69.08"><defs><style>.cls-1{fill-rule:evenodd;}</style></defs><title>food-truck</title><path class="cls-1" d="M77.3,20.21H79c3.78,0,9.07-.25,12.11,2.32,5.18,3.69,9.2,14.2,13.57,18.47,3.55.46,11.78,1.67,13.66,3.36,2.19,1.94,2.17,5.44,2.14,8.1,4.06-.08,2.42,9.75-.21,10.31h-5.66c3.63-21.62-27.18-18.94-22.54,0H54.46C59.22,44.64,27.65,40,30.58,62.6c-5.39,0-22.49-.08-28.13,0C.21,62.09,0,60.84,0,57.85l2.2-.27-.07-1.24c0-.73,0-1.47-.07-2.19a103.29,103.29,0,0,1,.14-10.8h0V3.67A3.69,3.69,0,0,1,5.83,0H70.12a3.69,3.69,0,0,1,3.67,3.67V22.59a3.43,3.43,0,0,1,3.51-2.38ZM33.21,37.68c1.35-.93,2-2.14,1.92-4.91V25.65c0-1-1.82-1.11-1.91,0l-.07,5.77a.81.81,0,1,1-1.62,0l.07-6a.89.89,0,0,0-1.77,0c0,1.66-.07,4.32-.07,6a.49.49,0,0,1,0,.12.7.7,0,0,1-.71.7.7.7,0,0,1-.7-.7.49.49,0,0,1,0-.12l.07-5.93a1,1,0,0,0-1-.89.91.91,0,0,0-.55.18c-.64.4-.51,1.23-.54,1.92l-.22,6.82c0,2,.55,3.59,2.11,4.27.29.12.94-.08.92.24l-.25,4.78H13.13a1.41,1.41,0,0,1-1.41-1.41V21.12l.21.09a7.63,7.63,0,0,0,7.79-1.06,7.63,7.63,0,0,0,9.55,0,7.64,7.64,0,0,0,9.56,0,7.63,7.63,0,0,0,9.55,0,7.64,7.64,0,0,0,9.56,0,7.56,7.56,0,0,0,4.77,1.68,8.18,8.18,0,0,0,2.73-.46v20A1.41,1.41,0,0,1,64,42.81H43.88l-.16-3.28C49.19,38.1,48.44,25,42.07,25c-5.24-.07-6.91,11.58-1.67,14.61v3.23H32.3L32.07,38a3,3,0,0,0,1.14-.35ZM66.89,12.89l-.61-1.36L64.19,6.82h-51L11,12.59a4,4,0,0,0,.3,5.16,5,5,0,0,0,3.67,1.56,4.57,4.57,0,0,0,4.78-4.23,4.58,4.58,0,0,0,4.78,4.23,4.56,4.56,0,0,0,4.77-4.23,4.59,4.59,0,0,0,4.78,4.23,4.57,4.57,0,0,0,4.78-4.23,4.81,4.81,0,0,0,9.55,0,4.82,4.82,0,0,0,9.56,0,4.57,4.57,0,0,0,4.77,4.23c3.78,0,5.58-3.26,4.18-6.42ZM19.71,14.74h0s0,.1,0,.15a.76.76,0,0,0,0-.15Zm9.56,0h0a.92.92,0,0,1,0,.16v-.16Zm9.55,0h0a.81.81,0,0,0,0,.16.81.81,0,0,0,0-.16Zm9.55,0h0s0,.1,0,.16a.81.81,0,0,0,0-.16Zm9.56,0h0v.15a.76.76,0,0,1,0-.15ZM42.64,55.39a4.51,4.51,0,1,0,4.52,4.51,4.51,4.51,0,0,0-4.52-4.51ZM78,24.12h7.26C89,24.12,94,33.5,96.8,38.83c.29.54,2.54,4.27,1,4.27H78v-19Zm25.51,31.27A4.51,4.51,0,1,0,108,59.9a4.51,4.51,0,0,0-4.51-4.51Zm0-4.66a9.18,9.18,0,1,0,9.18,9.17,9.17,9.17,0,0,0-9.18-9.17Zm-60.83,0a9.18,9.18,0,1,0,9.18,9.17,9.17,9.17,0,0,0-9.18-9.17Z"/></svg>