<?xml version="1.0" encoding="utf-8"?><svg version="1.1" id="Layer_1" xmlns="http://www.w3.org/2000/svg" xmlns:xlink="http://www.w3.org/1999/xlink" x="0px" y="0px" viewBox="0 0 122.88 114.35" style="enable-background:new 0 0 122.88 114.35" xml:space="preserve"><g><path d="M105.2,78.21c-0.86-0.29-1.32-1.23-1.03-2.09c0.29-0.86,1.23-1.32,2.09-1.03c0.26,0.09,0.53,0.18,0.79,0.28 c-1.75-2.26-3.46-4.71-5.1-7.58c-6.25-10.92-12.41-21.66-18.19-30.22c-5.67-8.39-10.96-14.71-15.6-17.07 c-0.16-0.07-0.31-0.17-0.45-0.3l-5.73-5.26l0,0c-0.31-0.28-0.51-0.69-0.53-1.14c-0.06-1.55-0.23-3-0.68-4.21 c-0.39-1.04-1.03-1.91-2.05-2.47c-0.87-0.48-1.81-0.76-2.62-0.65c-0.55,0.07-1.07,0.37-1.48,0.97c-0.1,0.15-0.19,0.32-0.25,0.49 c-0.03,0.08-0.06,0.17-0.08,0.26c1.12,2.25,2.05,4.7,2.88,6.9c0.33,0.88,0.65,1.71,0.94,2.45c0.86-0.2,1.72-0.36,2.58-0.49 c0.9-0.13,1.74,0.49,1.87,1.39c0.13,0.9-0.49,1.74-1.39,1.87c-6.13,0.91-12.62,3.99-18.32,8.44c-5.63,4.39-10.45,10.1-13.38,16.36 c-0.07,0.14-0.15,0.27-0.25,0.38c-1.24,3.4-1.02,6.62,0.2,9.4c1.12,2.55,3.08,4.74,5.53,6.38c2.48,1.66,5.45,2.73,8.54,3 c4.17,0.37,8.57-0.7,12.34-3.73c0.71-0.57,1.74-0.46,2.32,0.25c0.57,0.71,0.46,1.74-0.25,2.32c-3.67,2.95-7.84,4.35-11.95,4.51 c18.38,8.09,24.65,13.96,36.43,26.95c-0.59-2.36-0.83-4.8-0.68-7.33c0.06-0.91,0.83-1.6,1.74-1.54c0.91,0.06,1.6,0.83,1.54,1.74 c-0.18,2.92,0.26,5.7,1.2,8.36c0.95,2.69,2.43,5.27,4.32,7.77c0.05,0.06,0.09,0.13,0.13,0.2c2.16,2.2,4.31,3.89,6.42,5.08 c3.06,1.73,6.04,2.42,8.88,2.17c3.75-0.34,7.26-2.33,9.78-5.19c2.5-2.83,4.02-6.49,3.86-10.24c-0.07-1.7-0.4-3.49-1.09-5.28 c-0.61-1.57-1.5-3.15-2.76-4.65c-0.87-1.04-1.86-2.18-2.86-3.33c-1.17-0.86-2.36-1.63-3.56-2.29 C107.98,79.3,106.6,78.68,105.2,78.21L105.2,78.21L105.2,78.21z M51.59,44.1l6.79-2.88L47.27,30.27l19.9,8.81l-5.24,4.1l10.6,9.85 L51.59,44.1L51.59,44.1L51.59,44.1z M80.02,57.23l5.08,0.65l-2.31-9.6l8.35,12.3l-4.7-0.29l2.67,9.6L80.02,57.23L80.02,57.23 L80.02,57.23z M70.79,76.62l4.95-2.1l-8.09-7.97l14.48,6.41l-3.82,2.99l7.72,7.17L70.79,76.62L70.79,76.62L70.79,76.62z M115.14,79.9l0.16,0.12c0.23,0.18,0.4,0.4,0.51,0.65c0.77,0.89,1.57,1.82,2.45,2.87c1.51,1.81,2.58,3.69,3.3,5.56 c0.83,2.15,1.22,4.3,1.31,6.34c0.2,4.63-1.65,9.13-4.69,12.56c-3.05,3.45-7.32,5.86-11.94,6.28c-3.51,0.32-7.14-0.5-10.8-2.58 c-3.39-1.92-6.82-4.92-10.21-9.08l-1.59-1.76C68.73,84.29,63.52,78.5,40.58,68.89c-0.03-0.01-0.07-0.03-0.1-0.05 c-3.88-1.92-6.92-3.93-9.49-6.25c-2.58-2.32-4.66-4.92-6.61-8.02c-0.02-0.03-0.03-0.05-0.05-0.08c-1.9-3.22-3.86-6.11-5.82-8.7 c-1.91-2.52-3.8-4.74-5.65-6.7c-2.09-1.16-4.05-2.43-5.78-3.87c-1.83-1.53-3.4-3.24-4.61-5.22c-0.63-1.03-1.15-2.1-1.56-3.19 c-0.88-2.37-1.19-4.83-0.7-7.07c0.51-2.34,1.86-4.41,4.27-5.88c0.64-0.39,1.35-0.73,2.14-1.03c0.62-0.23,1.25-0.4,1.9-0.5 c0.65-0.1,1.32-0.15,2.04-0.13c2.35,0.06,3.99,0.48,5.34,1.2c0.02-0.63,0.1-1.23,0.24-1.8c0.54-2.25,1.94-4.02,3.92-4.98 c2.05-1,3.61-1.06,5.05-0.5c0.76,0.3,1.43,0.75,2.09,1.32c0.17-0.89,0.48-1.69,0.91-2.39c0.67-1.1,1.62-1.94,2.74-2.45l0.01,0l0,0 c1.11-0.51,2.38-0.7,3.71-0.54c1.62,0.2,3.35,0.96,4.96,2.36c0.04-0.25,0.1-0.49,0.16-0.72c0.38-1.38,1.09-2.35,2.04-2.96 c0.95-0.61,2.08-0.83,3.29-0.69c1.36,0.15,2.84,0.75,4.29,1.71c1.16,0.77,2.17,1.87,3.08,3.18c0.92-1.04,2.05-1.57,3.26-1.73 c1.56-0.21,3.2,0.24,4.64,1.04c1.8,0.99,2.89,2.45,3.55,4.18c0.52,1.38,0.75,2.93,0.85,4.55l5.07,4.66 c5.18,2.7,10.8,9.35,16.7,18.08c5.89,8.72,12.06,19.49,18.33,30.43c3.15,5.51,6.62,9.48,10.13,13.52L115.14,79.9L115.14,79.9 L115.14,79.9z M19.78,16.61l0.4,0.42c0.26,0.27,0.53,0.55,1.2,1.22l1,1c0.02,0.02,0.04,0.04,0.07,0.07l12.35,12.35 c1.59-1.69,3.29-3.28,5.07-4.74c-2.41-2.49-4.56-5.16-6.72-7.83l-0.38-0.47c-0.36,1.12-0.95,2.12-1.67,2.87 c-0.63,0.65-1.67,0.67-2.32,0.04c-0.65-0.63-0.67-1.67-0.04-2.32c0.51-0.53,0.9-1.33,1.06-2.23c0.12-0.69,0.1-1.42-0.12-2.12 c-1.09-1.29-2.21-2.54-3.37-3.73c-0.9-0.93-1.65-1.65-2.36-1.93c-0.58-0.22-1.3-0.14-2.41,0.39c-1.09,0.53-1.86,1.52-2.17,2.8 C19.07,13.58,19.18,15.03,19.78,16.61L19.78,16.61L19.78,16.61z M32.61,34.14l-6.72-6.72c-0.11,1.46-0.72,2.76-1.76,3.95 c-0.6,0.68-1.64,0.75-2.32,0.15c-0.68-0.6-0.75-1.64-0.15-2.32c0.75-0.86,1.08-1.79,0.92-2.87l-0.01,0c-0.19-1.29-1-2.84-2.5-4.72 l-1.03-1.03c-0.2-0.2-0.73-0.75-1.23-1.26l-0.07-0.07c-0.34-0.16-0.62-0.44-0.78-0.8c-1.76-1.76-3.24-2.86-6.48-2.94 C10,15.49,9.52,15.52,9.06,15.6c-0.46,0.07-0.88,0.18-1.27,0.33c-0.59,0.22-1.11,0.47-1.57,0.75c-1.57,0.96-2.44,2.28-2.76,3.78 c-0.35,1.6-0.11,3.41,0.56,5.22c0.33,0.89,0.76,1.77,1.28,2.62c1.01,1.66,2.34,3.11,3.91,4.41c1.6,1.33,3.45,2.52,5.45,3.62 c0.16,0.08,0.31,0.19,0.44,0.33c1.99,2.11,4.03,4.48,6.06,7.16c1.32,1.75,2.65,3.64,3.96,5.67c0.06-1.68,0.39-3.41,1.04-5.18 c0.07-0.2,0.18-0.37,0.31-0.52c0.01-0.03,0.02-0.05,0.03-0.08C28.08,40.33,30.17,37.1,32.61,34.14L32.61,34.14L32.61,34.14z M30.66,10.98c0.43,0.48,0.86,0.97,1.28,1.46c0.26,0.17,0.48,0.41,0.61,0.72c1.07,1.28,2.11,2.56,3.15,3.85 c2.21,2.74,4.4,5.46,6.78,7.89c1.75-1.26,3.57-2.4,5.42-3.4l-4.73-6.81c-0.46,0.92-1.13,1.72-1.94,2.32 c-0.73,0.55-1.76,0.4-2.31-0.33c-0.55-0.73-0.4-1.76,0.33-2.31c0.64-0.48,1.11-1.19,1.25-2.01c0.11-0.61,0.02-1.29-0.32-1.98 l-1.23-1.77l-0.04-0.05c-1.53-2.05-3.23-3.06-4.74-3.25c-0.71-0.09-1.36,0.01-1.92,0.26l0,0c-0.54,0.25-1,0.65-1.32,1.17 c-0.6,0.98-0.78,2.42-0.27,4.2L30.66,10.98L30.66,10.98L30.66,10.98z M43.01,8.71l7.87,11.31c1.34-0.61,2.69-1.13,4.05-1.58 c-0.27-0.69-0.55-1.42-0.84-2.18c-0.4-1.05-0.82-2.16-1.27-3.26c-0.44,0.52-0.93,0.98-1.39,1.4c-0.14,0.13-0.28,0.26-0.37,0.35 c-0.65,0.63-1.69,0.62-2.32-0.04c-0.63-0.65-0.62-1.69,0.04-2.32c0.16-0.16,0.28-0.27,0.4-0.38c0.88-0.82,1.98-1.85,1.75-3.16 c-1.01-1.9-2.14-3.5-3.43-4.36c-1.01-0.67-1.99-1.08-2.82-1.18c-0.47-0.05-0.86,0-1.14,0.18c-0.28,0.18-0.51,0.53-0.66,1.07 c-0.25,0.91-0.26,2.23,0.07,4.01L43.01,8.71L43.01,8.71L43.01,8.71z"/></g></svg>