<?xml version="1.0" encoding="utf-8"?><svg version="1.1" id="Layer_1" xmlns="http://www.w3.org/2000/svg" xmlns:xlink="http://www.w3.org/1999/xlink" x="0px" y="0px" viewBox="0 0 96.65 122.88" style="enable-background:new 0 0 96.65 122.88" xml:space="preserve"><style type="text/css">.st0{fill-rule:evenodd;clip-rule:evenodd;}</style><g><path class="st0" d="M70.86,17.11c-3.23-0.33-6.28-1.44-8.4,0.33c-1.68,1.97-2.79,3.89-3.35,5.75c-1.66,5.53,1.54,10.59,8.9,15.25 c7.29,3.07,10.38,13.5,5.41,22.69c-4.04,7.47-11.43,9.91-16.72,16.49c-5.03,6.27-5.27,12.29-0.23,18.05 c9.62,5.84,17.69,2.61,20.09-9.05c1.35-6.55,1.03-11.68,3.32-18.68c1.81-5.54,4.67-11.12,9.24-16.77 c5.91-6.14,7.02-13.04,3.37-20.67c-1.54-1.34-2.93-2.92-4.12-4.85c-1.29-2.09-1.65-1.98-3.32-3.62c-0.34-0.34-0.66-0.68-0.97-1.04 C78.15,14.17,77.31,17.76,70.86,17.11L70.86,17.11z M39.31,47.13c0.86-0.96,1.73-1.55,3.05-0.79c1.37,0.78,1.62,2.28,1.41,3.74 c-0.09,0.63-0.21,1.24-0.52,1.76c-1.08,1.01-2.22,0.74-3.38-0.06c-0.39-0.24-0.72-0.53-0.97-0.87c-0.79-1.05-0.77-1.94-0.31-2.8 C38.77,47.78,39.01,47.46,39.31,47.13L39.31,47.13z M40.25,40.08c0.87,1.8,0.76,3.53-0.69,4.99c-1,1-2.32,1.33-3.29,0.78 c-1.08-0.61-2.16-2.14-2.17-3.79c-0.01-0.85,0.55-1.73,1.57-2.57C37.48,38.01,39.01,37.5,40.25,40.08L40.25,40.08z M32.64,32.23 c0.91-0.06,1.63,0.18,2.15,1.05c0.7,1.19,0.69,1.91,0.26,3.18c-0.08,0.25-0.18,0.49-0.29,0.73c-0.67,1.4-2.19,2.81-3.82,2.02 c-1.64-0.8-2.16-2.27-1.66-3.95C29.77,33.58,30.88,32.35,32.64,32.23L32.64,32.23z M21.71,33.85c-0.72-2.39,0.06-4.77,2.11-6.04 c0.45-0.28,0.93-0.45,1.44-0.52c1.11-0.12,2.03,0.25,2.7,1.22c1.08,1.56,1.07,3.75,0.07,5.39C26.54,36.35,22.47,36.36,21.71,33.85 L21.71,33.85z M17.36,25.04c2.79,1.39,4.2,4.58,1.31,9.3c-1.9,2.21-1.63,2.58-4.52,4.18c-1.56,0.87-2.69,0.26-3.46-1.54l-1.05-3.95 c-0.34-1.65,0.1-3.42,0.76-4.96C11.78,24.9,14.07,23.4,17.36,25.04L17.36,25.04z M18.05,41.48c-3.23-0.33-6.28-1.44-8.4,0.33 c-1.68,1.97-2.79,3.89-3.35,5.75c-1.66,5.53,1.54,10.59,8.9,15.25c7.29,3.07,10.38,13.5,5.41,22.69 C16.58,92.97,9.18,95.4,3.9,101.98c-5.03,6.26-5.27,12.29-0.23,18.05c9.62,5.84,17.69,2.61,20.09-9.05 c1.35-6.55,1.03-11.68,3.32-18.68c1.81-5.54,4.67-11.12,9.23-16.77c5.91-6.14,7.02-13.04,3.37-20.67 c-1.54-1.34-2.93-2.92-4.12-4.85c-1.29-2.09-1.65-1.98-3.32-3.62c-0.34-0.34-0.66-0.68-0.97-1.04 C25.35,38.54,24.51,42.13,18.05,41.48L18.05,41.48z M92.11,22.76c0.86-0.96,1.73-1.55,3.05-0.79c1.37,0.78,1.62,2.28,1.41,3.74 c-0.09,0.63-0.21,1.24-0.52,1.76c-1.08,1.01-2.22,0.74-3.38-0.06c-0.39-0.24-0.72-0.53-0.97-0.87c-0.79-1.05-0.77-1.94-0.31-2.8 C91.57,23.41,91.82,23.09,92.11,22.76L92.11,22.76z M93.06,15.71c0.87,1.8,0.76,3.53-0.69,5c-1,1.01-2.32,1.33-3.29,0.78 c-1.08-0.61-2.16-2.14-2.17-3.79c-0.01-0.85,0.55-1.73,1.57-2.57C90.29,13.63,91.81,13.13,93.06,15.71L93.06,15.71z M85.44,7.85 c0.91-0.06,1.63,0.18,2.15,1.05c0.7,1.19,0.69,1.91,0.26,3.18c-0.08,0.25-0.18,0.49-0.29,0.73c-0.67,1.4-2.19,2.81-3.82,2.02 c-1.64-0.8-2.16-2.27-1.66-3.95C82.57,9.21,83.68,7.98,85.44,7.85L85.44,7.85z M74.51,9.48c-0.72-2.39,0.06-4.77,2.11-6.04 c0.45-0.28,0.93-0.45,1.44-0.52c1.11-0.12,2.03,0.25,2.7,1.22c1.08,1.56,1.07,3.75,0.07,5.39C79.35,11.98,75.27,11.99,74.51,9.48 L74.51,9.48z M70.16,0.67c2.79,1.39,4.2,4.58,1.31,9.3c-1.9,2.21-1.63,2.58-4.52,4.18c-1.56,0.87-2.69,0.26-3.46-1.54l-1.05-3.95 c-0.34-1.65,0.1-3.42,0.76-4.96C64.58,0.53,66.88-0.97,70.16,0.67L70.16,0.67z"/></g></svg>