<?xml version="1.0" encoding="utf-8"?><svg version="1.1" id="Layer_1" xmlns="http://www.w3.org/2000/svg" xmlns:xlink="http://www.w3.org/1999/xlink" x="0px" y="0px" width="96.107px" height="122.879px" viewBox="0 0 96.107 122.879" enable-background="new 0 0 96.107 122.879" xml:space="preserve"><g><path fill-rule="evenodd" clip-rule="evenodd" d="M2.892,56.036h8.959V37.117c0-10.205,4.177-19.483,10.898-26.208v-0.009 C29.473,4.177,38.754,0,48.966,0C59.17,0,68.449,4.177,75.173,10.9l0.009,0.009c6.722,6.724,10.898,16.003,10.898,26.208v18.918 l7.136,0.001c1.591,0,2.892,1.301,2.892,2.891v61.061c0,1.59-1.302,2.891-2.892,2.891H2.892c-1.59,0-2.892-1.301-2.892-2.891 V58.926C0,57.337,1.302,56.036,2.892,56.036L2.892,56.036z M51.823,98.139h-8.962v-0.992c0-1.684,0.176-3.049,0.522-4.096 c0.346-1.055,0.852-2.012,1.535-2.881c0.683-0.867,2.219-2.393,4.605-4.582c1.271-1.143,1.905-2.197,1.905-3.146 c0-0.957-0.257-1.701-0.771-2.225c-0.507-0.531-1.286-0.797-2.323-0.797c-1.125,0-2.05,0.408-2.781,1.223 c-0.731,0.807-1.198,2.234-1.406,4.254l-9.116-1.25c0.314-3.695,1.536-6.674,3.666-8.924c2.13-2.262,5.394-3.387,9.791-3.387 c3.424,0,6.188,0.789,8.295,2.367c2.861,2.127,4.292,4.973,4.292,8.525c0,1.473-0.369,2.891-1.108,4.264 c-0.732,1.365-2.243,3.041-4.518,5.016c-1.584,1.383-2.589,2.5-2.999,3.342C52.033,95.693,51.823,96.783,51.823,98.139 L51.823,98.139z M42.556,102.711h9.598v7.34h-9.598V102.711L42.556,102.711z M26.271,56.036h45.387V36.911 c0-6.241-2.554-11.917-6.662-16.03l-0.005,0.004c-4.111-4.114-9.787-6.669-16.025-6.669c-6.24,0-11.916,2.554-16.032,6.665 c-4.108,4.113-6.662,9.79-6.662,16.03V56.036L26.271,56.036L26.271,56.036z"/></g></svg>