<?xml version="1.0" encoding="utf-8"?><svg version="1.1" id="Layer_1" xmlns="http://www.w3.org/2000/svg" xmlns:xlink="http://www.w3.org/1999/xlink" x="0px" y="0px" viewBox="0 0 122.88 122.88" style="enable-background:new 0 0 122.88 122.88" xml:space="preserve"><style type="text/css">.st0{fill-rule:evenodd;clip-rule:evenodd;fill:#EE350F;}</style><g><path class="st0" d="M0,61.44c0-14.77,5.21-28.32,13.89-38.91h95.1l-67.84,96.92C17.19,111.07,0,88.26,0,61.44L0,61.44z M114.03,29.65c5.62,9.27,8.85,20.15,8.85,31.79c0,33.93-27.51,61.44-61.44,61.44c-4.07,0-8.04-0.39-11.88-1.15L114.03,29.65 L114.03,29.65z M21.99,14.34C32.66,5.39,46.42,0,61.44,0c15.02,0,28.78,5.39,39.45,14.34H21.99L21.99,14.34L21.99,14.34z"/></g></svg>