<?xml version="1.0" encoding="utf-8"?><svg version="1.1" id="Layer_1" xmlns="http://www.w3.org/2000/svg" xmlns:xlink="http://www.w3.org/1999/xlink" x="0px" y="0px" viewBox="0 0 70.29 122.88" style="enable-background:new 0 0 70.29 122.88" xml:space="preserve"><style type="text/css">.st0{fill-rule:evenodd;clip-rule:evenodd;fill:#EE350F;} .st1{fill-rule:evenodd;clip-rule:evenodd;}</style><g><path class="st0" d="M10.88,61.44c0-5.83,2.06-11.18,5.49-15.37h37.56L27.13,84.35C17.67,81.04,10.88,72.03,10.88,61.44 L10.88,61.44z M55.92,48.89c2.22,3.66,3.5,7.96,3.5,12.55c0,13.4-10.86,24.27-24.27,24.27c-1.61,0-3.17-0.16-4.69-0.45L55.92,48.89 L55.92,48.89z M19.56,42.84c4.22-3.53,9.65-5.66,15.58-5.66s11.37,2.13,15.58,5.66H19.56L19.56,42.84L19.56,42.84z"/><path class="st1" d="M13.26,0h43.76C60.67,0,64,1.49,66.4,3.88c2.4,2.4,3.89,5.73,3.89,9.38v96.36c0,3.65-1.49,6.98-3.89,9.38 c-2.39,2.39-5.73,3.88-9.38,3.88H13.26c-3.65,0-6.98-1.49-9.38-3.88C1.49,116.6,0,113.27,0,109.62V13.26 c0-3.65,1.49-6.98,3.89-9.38C6.28,1.49,9.61,0,13.26,0L13.26,0L13.26,0L13.26,0z M67.09,104.67V13.69H3.18v90.96 C25.41,104.66,44.87,104.67,67.09,104.67L67.09,104.67L67.09,104.67z"/></g></svg>