<svg id="Layer_1" data-name="Layer 1" xmlns="http://www.w3.org/2000/svg" viewBox="0 0 122.87 122.88"><defs><style>.cls-1{fill:#fd5;}.cls-1,.cls-2{fill-rule:evenodd;}</style></defs><title>free-tag</title><path class="cls-1" d="M121.51,2.44l1.36,41.28a2.28,2.28,0,0,1-.68,1.71h0L45.44,122.2a2.32,2.32,0,0,1-3.29,0L.68,80.73a2.32,2.32,0,0,1,0-3.29L77.44.68A2.33,2.33,0,0,1,79.08,0h40.11a2.32,2.32,0,0,1,2.32,2.32v.12ZM101.35,13.2a7.72,7.72,0,1,1-5.46,2.26,7.69,7.69,0,0,1,5.46-2.26Z"/><path class="cls-2" d="M65.64,33.49,76.05,23.08l4.53,4.53-4.16,4.16,4.34,4.33,3.88-3.88L89,36.52l-3.88,3.89,5,5,4.58-4.58,4.53,4.53L88.33,56.19,65.64,33.49Zm-42.9,42.9L33.3,65.83l4.53,4.53-4.31,4.31L37.86,79l3.82-3.82L46,79.49l-3.82,3.82,9.53,9.52-6.25,6.25L22.74,76.39Zm12.7-12.7,4.42-4.42a48.76,48.76,0,0,1,6.3-5.65,5.78,5.78,0,0,1,4.19-.9q2.31.33,5.22,3.24c1.76,1.76,2.72,3.18,2.85,4.25S58,62.56,56.77,64a7,7,0,0,1,3.66-1.33,4.86,4.86,0,0,1,2.13.55,28.09,28.09,0,0,1,3.51,3.2l6,6-5.79,5.79-7.56-7.55a6.92,6.92,0,0,0-2.56-2c-.49-.1-1.15.29-2,1.14L64.38,80.13l-6.25,6.25L35.44,63.69Zm10.12-2.38,5,5a4.16,4.16,0,0,0,1.2-1.73c.09-.46-.35-1.2-1.36-2.2L49.2,61.18c-.72-.72-1.33-1.06-1.82-1a3.47,3.47,0,0,0-1.82,1.15Zm6.85-14.59L62.82,36.31l4.53,4.53L63.19,45l4.33,4.34,3.89-3.89,4.3,4.31-3.88,3.88,5,5,4.58-4.59,4.54,4.53L75.1,69.42,52.41,46.72Z"/></svg>