<svg id="Layer_1" data-name="Layer 1" xmlns="http://www.w3.org/2000/svg" viewBox="0 0 122.88 50.95"><defs><style>.cls-1{fill-rule:evenodd;}</style></defs><title>free-wifi</title><path class="cls-1" d="M61.94,0h54.91a6.06,6.06,0,0,1,6,6V21.76a6.06,6.06,0,0,1-6,6H61.94a6,6,0,0,1-6-6V6a6,6,0,0,1,6-6ZM89.76,11.25a7.41,7.41,0,0,1-.16,1.62,5,5,0,0,1-.48,1.34,5.07,5.07,0,0,1-.86,1.12,7.45,7.45,0,0,1-1.28,1l2.73,4.87-5.16,1-1.77-4.89-1.42,0-.21,4.78H76.21c0-1.75.08-3.49.11-5.21s.08-3.47.12-5.22c0-.88,0-1.75,0-2.61s0-1.74.09-2.62A14.38,14.38,0,0,1,78.16,6c.53-.12,1-.23,1.57-.3s1.06-.12,1.6-.15,1.09,0,1.66,0a8.89,8.89,0,0,1,2.53.36,6.28,6.28,0,0,1,2.16,1.09,5.39,5.39,0,0,1,1.51,1.8,5.32,5.32,0,0,1,.57,2.52ZM74.39,5.75c0,.73-.09,1.44-.13,2.14s-.09,1.42-.15,2.14l-4.87.25v2.18h4.23L73.24,16l-4,.12,0,6.06-5.81.11L63.8,5.75Zm28.37,0c-.05.73-.09,1.44-.12,2.14s-.1,1.42-.15,2.14l-4.88.25-.11,1.45h3.42l-.25,3.55-3.44.12-.12,1.68H102c0,.84-.09,1.67-.14,2.5s-.1,1.67-.14,2.5l-9.89.23.37-16.56Zm12.6,0c0,.73-.09,1.44-.13,2.14s-.09,1.42-.15,2.14l-4.87.25-.11,1.45h3.42l-.25,3.55-3.45.12-.11,1.68h4.87l-.15,2.5c-.05.83-.09,1.67-.13,2.5l-9.9.23.37-16.56ZM84.62,11.61a3,3,0,0,0-.13-.88,1.94,1.94,0,0,0-.4-.7,1.91,1.91,0,0,0-.64-.46,2.26,2.26,0,0,0-.9-.16l-.45,0c-.14,0-.28.06-.42.09l-.18,4.27h.27a4.34,4.34,0,0,0,1-.12,3.06,3.06,0,0,0,.92-.4,2,2,0,0,0,.67-.67,1.87,1.87,0,0,0,.26-1ZM5.27,44.46a2.65,2.65,0,0,1-.91,1.8,2.61,2.61,0,0,1-1.92.62h0A2.64,2.64,0,0,1,.63,46,2.6,2.6,0,0,1,0,44.05H0A52,52,0,0,1,4.07,27.18,42,42,0,0,1,26.79,4.84,53.19,53.19,0,0,1,43.73,1h.2a2.64,2.64,0,0,1,2.69,2.35,1.77,1.77,0,0,1,0,.23A2.62,2.62,0,0,1,46,5.35a2.59,2.59,0,0,1-1.81.89A48,48,0,0,0,28.9,9.68a36.64,36.64,0,0,0-20,19.69A46.72,46.72,0,0,0,5.27,44.46ZM39.5,40.11a5.78,5.78,0,0,1,8.17,8.17,5.77,5.77,0,0,1-9.86-4.08h0a5.76,5.76,0,0,1,1.69-4.09Zm-9.27,4.83a2.66,2.66,0,0,1-2.8,2.37l-.21,0a2.65,2.65,0,0,1-1.67-.95A2.68,2.68,0,0,1,25,44.51a1.36,1.36,0,0,1,0-.2,24.39,24.39,0,0,1,1.85-7.22,18.63,18.63,0,0,1,9.66-9.71,23.68,23.68,0,0,1,7.24-1.85,2.64,2.64,0,0,1,2.9,2.35h0a2.66,2.66,0,0,1-2.36,2.9h0a18.14,18.14,0,0,0-5.56,1.39A13.46,13.46,0,0,0,34.49,35a13.68,13.68,0,0,0-2.84,4.27,18.6,18.6,0,0,0-1.42,5.64Zm-11.94-.09a.91.91,0,0,1,0,.17,2.65,2.65,0,0,1-.87,1.7,2.6,2.6,0,0,1-1.85.66.55.55,0,0,1-.18,0,2.63,2.63,0,0,1-1.7-.87A2.67,2.67,0,0,1,13,44.59,39.84,39.84,0,0,1,15.72,32,27,27,0,0,1,31.83,16.4a40,40,0,0,1,12.7-2.29h.09a2.65,2.65,0,0,1,2.63,2.56v.09a2.66,2.66,0,0,1-.71,1.81,2.63,2.63,0,0,1-1.84.82A35,35,0,0,0,33.79,21.3,21.63,21.63,0,0,0,20.55,34.1a34.9,34.9,0,0,0-2.26,10.75ZM75.5,33.2h5.93L78.65,51H71.24l-1.31-6.53h-.34L68.31,51H60.9L58.12,33.2h5.93l1.34,9.91h.17l2-9.91H72l2,9.91h.17L75.5,33.2ZM82.85,51V37.46l5.68-.71V51Zm.33-15.11a2.07,2.07,0,0,1-.64-1.76,2.16,2.16,0,0,1,.64-1.79,4.3,4.3,0,0,1,2.52-.51,4.36,4.36,0,0,1,2.53.51,2.16,2.16,0,0,1,.64,1.79,2.07,2.07,0,0,1-.64,1.76,4.58,4.58,0,0,1-2.53.48,4.52,4.52,0,0,1-2.52-.48Zm7.48,9.43V42.2c0-.51.15-.84.47-1A3.89,3.89,0,0,1,92.62,41h6.56v3.07a1,1,0,0,1-.47,1,3.89,3.89,0,0,1-1.49.21Zm21.15-.91H107V51h-5.68V33.2H113l-.71,4.54H107v2.39h4.82v4.23ZM114.65,51V37.46l5.68-.71V51ZM115,35.84a2.07,2.07,0,0,1-.64-1.76,2.16,2.16,0,0,1,.64-1.79,6.51,6.51,0,0,1,5,0,2.16,2.16,0,0,1,.64,1.79,2.07,2.07,0,0,1-.64,1.76,6.88,6.88,0,0,1-5,0Z"/></svg>