<svg id="Layer_1" data-name="Layer 1" xmlns="http://www.w3.org/2000/svg" viewBox="0 0 118.02 122.88"><defs><style>.cls-1{fill-rule:evenodd;}</style></defs><title>free-time</title><path class="cls-1" d="M16.17,75h85.68a9.48,9.48,0,0,1,6.23,2.33,52.36,52.36,0,1,0-98.13,0A9.44,9.44,0,0,1,16.17,75Zm95.17,11.31v27.08a9.49,9.49,0,0,1-9.49,9.49H16.16a9.49,9.49,0,0,1-9.46-9.47h0V86.31a59,59,0,1,1,104.66,0ZM56.16,15.58a2.85,2.85,0,1,1,5.69,0v4.24a2.85,2.85,0,1,1-5.69,0V15.58ZM62,53a6.74,6.74,0,0,1,2.79,2.63h9.52a2.56,2.56,0,0,1,3.92-3L83.92,57a2.56,2.56,0,0,1,1,2h0v0h0a2.52,2.52,0,0,1-1,2l-5.65,4.37a2.56,2.56,0,0,1-3.92-3H64.83a6.73,6.73,0,1,1-9.57-9l.08-13a2.56,2.56,0,0,1-3-3.95l4.49-5.55a2.59,2.59,0,0,1,1.9-.95h.07A2.56,2.56,0,0,1,60.89,31l4.24,5.75a2.55,2.55,0,0,1-3,3.88L62,53ZM34.83,22.82A2.84,2.84,0,0,1,39.75,20l2.12,3.68A2.84,2.84,0,0,1,37,26.49l-2.12-3.67ZM20,39.75a2.84,2.84,0,1,1,2.85-4.91L26.49,37a2.84,2.84,0,1,1-2.85,4.91L20,39.75Zm82.47,16.41a2.85,2.85,0,0,1,0,5.7H98.2a2.85,2.85,0,0,1,0-5.7ZM15.57,61.85a2.84,2.84,0,0,1,0-5.68h4.24a2.84,2.84,0,1,1,0,5.67Zm79.62-27A2.84,2.84,0,1,1,98,39.75l-3.67,2.12A2.84,2.84,0,1,1,91.52,37l3.67-2.12ZM78.26,20a2.84,2.84,0,0,1,4.92,2.85l-2.12,3.67a2.84,2.84,0,1,1-4.92-2.84L78.26,20ZM35.86,86.45c-.07,1.11-.14,2.2-.19,3.28s-.14,2.17-.23,3.27L28,93.4v2.21h6.48l-.35,5.46-6.17.17,0,10.43-8.91.18.57-25.4Zm23.67,8.42a11.82,11.82,0,0,1-.24,2.49,7.66,7.66,0,0,1-.75,2.06,7.38,7.38,0,0,1-1.32,1.72,11.68,11.68,0,0,1-1.95,1.52l4.19,7.46-7.93,1.55-2.71-7.5-2.18.07-.32,7.32H38.75c.06-2.67.12-5.34.17-8s.13-5.32.19-8c0-1.35,0-2.69.06-4s.07-2.66.15-4a21.69,21.69,0,0,1,2.42-.76,22.28,22.28,0,0,1,2.41-.47c.8-.11,1.62-.19,2.44-.23S48.27,86,49.14,86a13.65,13.65,0,0,1,3.89.56,9.91,9.91,0,0,1,3.31,1.66A8.51,8.51,0,0,1,58.66,91a8.23,8.23,0,0,1,.87,3.86Zm-7.89.57a4.46,4.46,0,0,0-.2-1.36,3.05,3.05,0,0,0-.6-1.06,2.76,2.76,0,0,0-1-.71,3.44,3.44,0,0,0-1.38-.25,5.32,5.32,0,0,0-.69,0c-.22,0-.43.08-.64.13l-.29,6.55h.42a6.3,6.3,0,0,0,1.54-.19,4.58,4.58,0,0,0,1.41-.6,3.41,3.41,0,0,0,1-1,2.83,2.83,0,0,0,.39-1.51Zm27.91-9c-.07,1.11-.13,2.2-.19,3.28s-.14,2.17-.23,3.27l-7.47.4-.17,2.21h5.25l-.39,5.46-5.28.17-.18,2.58h7.47c-.07,1.29-.15,2.57-.22,3.84s-.15,2.56-.21,3.83l-15.17.36.56-25.4Zm19.41,0c-.07,1.11-.13,2.2-.19,3.28s-.14,2.17-.23,3.27l-7.47.4-.17,2.21h5.24l-.38,5.46-5.28.17-.18,2.58h7.47c-.08,1.29-.15,2.57-.23,3.84s-.14,2.56-.2,3.83l-15.18.36.57-25.4Z"/></svg>