<svg id="Layer_1" data-name="Layer 1" xmlns="http://www.w3.org/2000/svg" viewBox="0 0 122.88 116.75"><defs><style>.cls-1{fill:#ff4141;}.cls-1,.cls-2{fill-rule:evenodd;}.cls-2{fill:#fff;}</style></defs><title>free-cancellation</title><path class="cls-1" d="M91.09,53.17a31.77,31.77,0,1,1-22.48,9.3,31.73,31.73,0,0,1,22.48-9.3Z"/><path class="cls-2" d="M97.31,73.42a3.62,3.62,0,0,1,5.16,0,3.72,3.72,0,0,1,0,5.22L96.24,85l6.25,6.34a3.68,3.68,0,0,1,0,5.18,3.63,3.63,0,0,1-5.15,0l-6.21-6.3-6.21,6.31a3.63,3.63,0,0,1-5.17,0,3.7,3.7,0,0,1,0-5.21L85.94,85l-6.25-6.33a3.69,3.69,0,0,1,0-5.19,3.62,3.62,0,0,1,5.15,0l6.21,6.29,6.22-6.31Z"/><path d="M69.43,4.52c0-2.23,2.19-4,4.92-4s4.93,1.8,4.93,4V8.74c0,2.22-2.2,4-4.93,4s-4.92-1.81-4.92-4V4.52ZM52.81,25.26a9.73,9.73,0,0,1-.21,2.11A6.17,6.17,0,0,1,52,29.12a6.39,6.39,0,0,1-1.12,1.46,9.42,9.42,0,0,1-1.66,1.28l3.56,6.34L46,39.51l-2.29-6.36-1.86.06-.27,6.21H35.18q.07-3.41.14-6.78t.16-6.78c0-1.15,0-2.28.06-3.41s.06-2.26.12-3.4a18.79,18.79,0,0,1,2.06-.65c.68-.16,1.36-.3,2-.39s1.38-.16,2.07-.2,1.43,0,2.16,0a11.7,11.7,0,0,1,3.3.47,8.73,8.73,0,0,1,2.81,1.41,7.24,7.24,0,0,1,2,2.35,7,7,0,0,1,.74,3.27Zm-20-7.14c-.06.94-.11,1.86-.16,2.78s-.12,1.84-.19,2.78L26.11,24v2.84h5.5l-.3,4.63-5.23.15,0,7.88-7.56.15L19,18.12Zm36.92,0c-.06.94-.12,1.86-.16,2.78s-.12,1.84-.2,2.78L63,24l-.15,1.88h4.45L67,30.52l-4.48.15-.15,2.18h6.34c-.07,1.1-.13,2.18-.19,3.26s-.13,2.17-.18,3.25l-12.87.3L56,18.12Zm16.39,0C86.05,19.06,86,20,86,20.9s-.12,1.84-.2,2.78L79.41,24l-.14,1.88h4.45l-.33,4.63-4.48.15-.15,2.18h6.33C85,34,85,35,84.9,36.11s-.12,2.17-.17,3.25l-12.87.3.48-21.54Zm-40,7.62a3.51,3.51,0,0,0-.18-1.15,2.47,2.47,0,0,0-1.34-1.51,3,3,0,0,0-1.18-.21,3.77,3.77,0,0,0-.58,0,3.35,3.35,0,0,0-.55.11l-.24,5.56h.36a5.48,5.48,0,0,0,1.31-.17,3.86,3.86,0,0,0,1.19-.51,2.71,2.71,0,0,0,.87-.88,2.39,2.39,0,0,0,.34-1.28ZM13.44,66.56c-.28,0-.53-1.23-.53-2.73s.22-2.73.53-2.73H26.87c.28,0,.53,1.22.53,2.73s-.22,2.73-.53,2.73Zm21.41,0c-.28,0-.52-1.23-.52-2.73s.21-2.73.52-2.73H48.29c.28,0,.53,1.22.53,2.73s-.22,2.73-.53,2.73ZM13.47,84.12c-.28,0-.53-1.23-.53-2.74s.22-2.73.53-2.73H26.9c.28,0,.53,1.23.53,2.73s-.22,2.74-.53,2.74Zm21.41,0c-.28,0-.52-1.23-.52-2.74s.21-2.73.52-2.73H48A39.42,39.42,0,0,0,47.69,84v.12ZM25.21,4c0-2.23,2.19-4,4.92-4s4.92,1.8,4.92,4V9.22c0,2.22-2.2,4-4.92,4s-4.92-1.81-4.92-4V4ZM5.42,45.33H71.36a44,44,0,0,0-8.18,5.43H5.42V93.34a2.44,2.44,0,0,0,.73,1.75,2.51,2.51,0,0,0,1.75.73H49.06a42.86,42.86,0,0,0,1.83,5.51H8A8,8,0,0,1,0,93.39V12.06A8,8,0,0,1,8,4.11h9.6a2.73,2.73,0,0,1,0,5.46H8a2.49,2.49,0,0,0-2.48,2.48V45.34h0Zm93.77-3V12a2.42,2.42,0,0,0-.73-1.75,2.51,2.51,0,0,0-1.75-.73h-9a2.73,2.73,0,0,1,0-5.46h9a8,8,0,0,1,8,8V43.72a45.21,45.21,0,0,0-5.47-1.41ZM42.93,9.56a2.73,2.73,0,1,1,0-5.46h18.3a2.73,2.73,0,1,1,0,5.46Z"/></svg>