<svg xmlns="http://www.w3.org/2000/svg" shape-rendering="geometricPrecision" text-rendering="geometricPrecision" image-rendering="optimizeQuality" fill-rule="evenodd" clip-rule="evenodd" viewBox="0 0 512 440.9"><path fill-rule="nonzero" d="M489.67 388.48V42.37h-49.41c-4.49 11.72-15.85 20.03-29.15 20.03-13.3 0-24.65-8.31-29.14-20.03h-47.49c-4.5 11.72-15.85 20.03-29.15 20.03-13.3 0-24.65-8.31-29.15-20.03H228.7c-4.5 11.72-15.85 20.03-29.15 20.03-13.3 0-24.65-8.31-29.15-20.03h-47.48c-4.49 11.72-15.84 20.03-29.14 20.03-13.31 0-24.66-8.31-29.15-20.03H22.34v346.09c50.6 20.01 142.51 30.1 234.64 30.1 91.53 0 182.56-9.97 232.69-30.08zM411.11 0c13.3 0 24.66 8.32 29.15 20.04h60.57c6.17 0 11.17 5 11.17 11.16v364.64c-.02 4.25-2.47 8.31-6.59 10.17-51.39 23.32-150.02 34.89-248.43 34.89-98.33 0-197.25-11.57-249.39-34.48C3.18 404.93 0 400.76 0 395.84V31.2c0-6.16 5-11.16 11.17-11.16h53.46C69.12 8.32 80.47 0 93.78 0c13.3 0 24.65 8.32 29.14 20.04h47.48C174.9 8.32 186.25 0 199.55 0c13.3 0 24.65 8.32 29.15 20.04h47.48C280.68 8.32 292.03 0 305.33 0c13.3 0 24.65 8.32 29.15 20.04h47.49C386.46 8.32 397.81 0 411.11 0zM125.1 333.69l-11.34 3.07c-14.93 0-24.97-3.82-30.12-11.47-2.67-3.81-4.54-8.1-5.6-12.85-1.07-4.76-1.6-10.52-1.6-17.27 0-15.2 2.84-26.28 8.53-33.26 5.69-6.98 15.91-10.46 30.66-10.46s25.02 3.51 30.79 10.53c5.78 7.02 8.67 18.08 8.67 33.19 0 11.29-2.36 20.4-7.07 27.33l9.6 5.59-6.93 15.34-25.59-4.67v-5.07zm-20-17.73h11.06c3.65 0 6.29-.42 7.93-1.26 1.65-.84 2.47-2.78 2.47-5.8v-34.66h-11.2c-3.55 0-6.15.42-7.8 1.27-1.64.84-2.46 2.77-2.46 5.8v34.65zm84.65-45.85v49.18h4.12c3.21 0 5.54-.33 7.01-.99 1.46-.67 2.2-2.2 2.2-4.6v-43.59h26.65v66.65H216.4l-7.73-7.6c-5.33 6.4-12.93 9.6-22.79 9.6-7.91 0-13.69-1.69-17.33-5.07-3.65-3.37-5.47-9.01-5.47-16.93v-46.65h26.67zm58.98 59.92c-5.55-5.82-8.33-14.69-8.33-26.6 0-11.9 2.78-20.77 8.33-26.59 5.55-5.82 14.55-8.73 27-8.73 12.44 0 21.43 2.91 26.99 8.73 5.55 5.82 8.33 14.69 8.33 26.59 0 11.91-2.78 20.78-8.33 26.6-5.56 5.82-14.55 8.73-26.99 8.73-12.45 0-21.45-2.91-27-8.73zm20.33-36.86v26.12h4.13c3.2 0 5.54-.33 7-.99 1.47-.67 2.2-2.2 2.2-4.6v-26.13h-4.13c-3.2 0-5.53.34-7 1-1.47.67-2.2 2.2-2.2 4.6zm48.66-5.86v-17.2h6.66v-10.66l26.66-6.67v17.33h9.2v17.2h-9.2v30.39c2.31.44 4.93.75 7.86.93l-1.19 19.6c-12.18 0-20.09-.67-23.73-2.01-4.53-1.59-7.38-3.72-8.54-6.39-.71-1.6-1.06-3.46-1.06-5.6v-36.92h-6.66zm78.51 26.79v4.67c2.67.26 5.34.39 8 .39 8.27 0 16.61-1.33 25.06-3.99l3.2 19.59c-9.96 2.67-19.82 4-29.59 4-12.45 0-21.44-2.91-27-8.73-5.55-5.82-8.33-14.69-8.33-26.6 0-11.9 2.78-20.77 8.33-26.59 5.56-5.82 14.53-8.73 26.93-8.73s20.95 1.69 25.66 5.07c4.71 3.37 7.06 9.68 7.06 18.92 0 7.83-2.81 13.45-8.46 16.87-5.64 3.42-15.93 5.13-30.86 5.13zm0-21.99v7.06h5.47c3.19 0 5.55-.35 6.99-1 1.46-.65 2.2-3.79 2.2-6.19v-5.46h-5.46c-3.17 0-5.55.34-7 .99-1.45.65-2.2 2.24-2.2 4.6zM144.41 183.95h-28.74v39.22h-33.8V117.5h69.31l-4.23 25.99h-31.28v16.33h28.74v24.13zm109.05 39.22h-37.19l-13.87-31.45h-7.27v31.45h-33.81V117.5h53.26c24.23 0 36.35 12.35 36.35 37.03 0 16.9-5.25 28.06-15.73 33.47l18.26 35.17zm-58.33-79.68v23.26h7.78c4.06 0 7.03-.44 8.88-1.27 1.84-.83 2.79-2.79 2.79-5.83v-9.06c0-3.04-.95-5-2.79-5.83-1.85-.83-4.83-1.27-8.88-1.27h-7.78zm137.79 39.78H299.1v13.91h41.43v25.99H265.3V117.5h74.38l-4.22 25.99H299.1v15.27h33.82v24.51zm89.6 0h-33.81v13.91h41.42v25.99H354.9V117.5h74.38l-4.22 25.99h-36.35v15.27h33.81v24.51z"/></svg>