<?xml version="1.0" encoding="utf-8"?><svg version="1.1" id="Layer_1" xmlns="http://www.w3.org/2000/svg" xmlns:xlink="http://www.w3.org/1999/xlink" x="0px" y="0px" viewBox="0 0 122.88 100.06" style="enable-background:new 0 0 122.88 100.06" xml:space="preserve"><style type="text/css">.st0{fill-rule:evenodd;clip-rule:evenodd;}</style><g><path class="st0" d="M6.38,0h110.11c3.51,0,6.39,2.87,6.39,6.38v87.29c0,3.51-2.87,6.38-6.39,6.38H6.38 c-3.51,0-6.38-2.87-6.38-6.38V6.38C0,2.87,2.87,0,6.38,0L6.38,0z M27.01,31.43h28.43v8H38.55v6.5H53v7.54H38.55v15.18H27.01V31.43 L27.01,31.43z M59.28,68.64V31.43h19.16c3.55,0,6.27,0.3,8.14,0.92c1.88,0.61,3.4,1.74,4.55,3.39c1.15,1.65,1.72,3.67,1.72,6.05 c0,2.06-0.44,3.85-1.33,5.34c-0.87,1.51-2.09,2.72-3.64,3.66c-0.98,0.59-2.33,1.08-4.04,1.47c1.37,0.46,2.36,0.91,2.99,1.37 c0.42,0.3,1.03,0.96,1.84,1.96c0.8,1,1.33,1.77,1.6,2.31l5.59,10.75H82.87l-6.14-11.35c-0.78-1.47-1.47-2.43-2.08-2.87 c-0.83-0.57-1.78-0.86-2.82-0.86h-1.01v15.07H59.28L59.28,68.64z M70.82,46.55h4.86c0.52,0,1.54-0.17,3.05-0.51 c0.76-0.15,1.39-0.54,1.86-1.17c0.49-0.63,0.73-1.35,0.73-2.17c0-1.2-0.38-2.13-1.14-2.77c-0.76-0.65-2.19-0.97-4.3-0.97h-5.06 V46.55L70.82,46.55z"/></g></svg>