<?xml version="1.0" encoding="utf-8"?><svg version="1.1" id="Layer_1" xmlns="http://www.w3.org/2000/svg" xmlns:xlink="http://www.w3.org/1999/xlink" x="0px" y="0px" viewBox="0 0 122.88 122.89" style="enable-background:new 0 0 122.88 122.89" xml:space="preserve"><style type="text/css">.st0{fill-rule:evenodd;clip-rule:evenodd;}</style><g><path class="st0" d="M7.49,50.97c2.04,0,3.8,1.25,4.54,3.02c3.59,1.69,7.12,4.57,10.63,8.01c2.48,0.91,5.14,2.99,8.04,6.72 c0.47,0.61,0.95,1.26,1.44,1.96c0.53-2.24,1.36-4.26,2.47-6.08c0.5-0.81,1.05-1.58,1.65-2.3c-1.81-0.88-3.59-1.88-5.35-3 c-2.52-1.61-4.98-3.46-7.35-5.61c-2.4-2.17-5.22-4.83-7.57-7.84c-2.43-3.13-4.33-6.6-4.71-10.27c-0.4-3.85,0.79-5.86,3.29-6.32 c0.49-0.09,1.03-0.1,1.61-0.02c-1.13-1.65-2.16-3.34-3.01-5.02c-1.23-2.44-2.08-4.87-2.3-7.12c-0.24-2.49,0.29-4.75,1.88-6.6 c0.73-0.85,1.68-1.59,2.88-2.19c4.28-2.16,15.7-2.79,23.32-3.2c1.49-0.08,2.83-0.15,4-0.24c3.88-4.11,7.4-5.5,10.59-4.59 c3,0.85,5.46,3.74,7.47,8.3c0.5,0.03,0.99,0.08,1.48,0.13c9.19,0.95,18.23,4.75,26.27,10.91c1.56-2.33,3.07-4.23,4.6-5.67 c2.07-1.93,4.19-3.05,6.54-3.23c3.63-0.29,7.17,1.69,10.25,4.56c4.03,3.76,7.36,9.16,8.91,12.72c2.66,6.12,4.03,15.75,3.79,26.28 c-0.22,9.37-1.7,19.5-4.68,28.55c0.07,2.57,0.06,5.18-0.06,7.84c-0.07,1.51-0.17,3.03-0.3,4.56l-0.08,1.73 c0,0.64-0.35,1.26-0.95,1.58c-0.12,0.08-0.26,0.14-0.4,0.18c-1.89,0.82-3.73,1.13-5.55,1.12c-1.87-0.01-3.66-0.37-5.41-0.86 c-1.82-0.52-3.26-0.96-4.48-1.34c-5.25-1.64-5.96-1.86-14.39,0.57c-0.77,0.22-1.47,0.43-2.06,0.62c-0.59,0.19-1.26,0.42-2.02,0.69 c-1.8,0.64-3.51,1.34-5.13,2.1c-1.43,0.67-2.84,1.42-4.23,2.25c-0.18,0.21-0.42,0.39-0.69,0.5c-3.84,1.54-7.23,3.29-10.06,5.3 c-2.67,1.9-4.82,4.03-6.36,6.45c0.23,0.57,0.36,1.2,0.36,1.86c0,2.72-2.2,4.92-4.92,4.92c-2.72,0-4.93-2.2-4.93-4.92 c0-2.72,2.21-4.92,4.93-4.92c0.72,0,1.41,0.16,2.03,0.43c1.75-2.52,4.05-4.75,6.83-6.72c0.86-0.61,1.77-1.2,2.72-1.77 c-2.58,0.24-5.01,0.55-7.23,0.92c-4.26,0.71-7.7,1.64-9.95,2.69c0.17,0.5,0.26,1.03,0.26,1.59c0,2.72-2.21,4.92-4.92,4.92 c-2.72,0-4.93-2.2-4.93-4.92c0-2.72,2.21-4.93,4.93-4.93c0.83,0,1.62,0.21,2.3,0.57c0.1-0.08,0.21-0.16,0.33-0.22 c2.54-1.29,6.51-2.41,11.39-3.23c1.51-0.25,3.1-0.48,4.78-0.67c-1.64-0.38-3.2-0.73-4.67-1.04c-4.38-0.93-7.79-1.49-9.68-1.46 c-0.09,0-0.17,0-0.25-0.01c-0.8,1.63-2.48,2.75-4.42,2.75c-2.72,0-4.93-2.21-4.93-4.92c0-2.72,2.21-4.93,4.93-4.93 c2.24,0,4.14,1.5,4.73,3.55c1.53-0.01,3.73,0.27,6.45,0.76c-1.54-1.18-2.87-2.49-3.77-3.9c-0.5-0.8-0.89-1.61-1.17-2.45 c-0.28-0.84-0.44-1.7-0.5-2.59c-0.03-0.41-0.03-0.83-0.01-1.26c0.02-0.41,0.07-0.84,0.13-1.27c0.06-0.37,0.13-0.74,0.21-1.09 c-2.29,1.53-4.73,2.94-7.33,4.22c-0.88,0.44-1.95,0.07-2.39-0.81l-0.01-0.03l0,0c-1.88-3.98-3.64-7.33-5.29-10.12 c-0.22-0.21-0.38-0.48-0.46-0.78c-1.28-2.13-2.5-3.91-3.66-5.4c-2.16-2.78-4.05-4.43-5.73-5.26c-2.66,0.98-4.57,2.07-5.68,3.29 c-0.91,1-1.21,2.12-0.84,3.37c0.02,0.08,0.04,0.16,0.05,0.24c1.18,0.9,1.95,2.32,1.95,3.92c0,2.72-2.2,4.92-4.92,4.92 c-2.72,0-4.92-2.21-4.92-4.92c0-2.44,1.78-4.47,4.11-4.86c-0.12-1.82,0.51-3.48,1.84-4.98l-3.98,0.49 c-0.46,2.24-2.45,3.93-4.82,3.93C2.2,71.06,0,68.86,0,66.14c0-2.72,2.2-4.92,4.92-4.92c1.79,0,3.36,0.96,4.22,2.39l8.86-1.08 c-2.03-1.83-4.06-3.4-6.06-4.55c-0.78,1.68-2.49,2.85-4.47,2.85c-2.72,0-4.93-2.21-4.93-4.92C2.56,53.17,4.77,50.97,7.49,50.97 L7.49,50.97z M20.51,34.85c-2.48-1.52-4.31-2.28-5.29-2.1c-0.4,0.07-0.55,0.85-0.38,2.45c0.3,2.91,1.9,5.79,3.97,8.44 c2.15,2.77,4.84,5.3,7.15,7.38c2.26,2.04,4.55,3.78,6.88,5.26c2.01,1.28,4.06,2.39,6.13,3.34c1.21-0.99,2.54-1.87,4.01-2.64 c0.87-0.46,1.95-0.12,2.4,0.75c0.46,0.87,0.12,1.95-0.75,2.4c-1.53,0.8-2.9,1.75-4.08,2.84c-0.03,0.03-0.06,0.06-0.09,0.09 c-1.08,1.01-2.01,2.14-2.77,3.39c-1.49,2.44-2.38,5.37-2.6,8.8c1.47,2.5,3.02,5.4,4.66,8.77c4.3-2.28,8.13-4.94,11.54-7.94 c0.36-0.35,0.74-0.69,1.12-1.02c4-3.7,7.4-7.89,10.31-12.48c0.53-0.83,1.63-1.08,2.47-0.55c0.83,0.53,1.08,1.63,0.55,2.47 c-1.23,1.94-2.55,3.82-3.96,5.62c0.9-0.33,1.8-0.65,2.7-0.96c4.47-1.54,8.89-2.48,13.25-2.73c4.39-0.25,8.69,0.2,12.9,1.47 c4.83,1.45,9.53,3.97,14.08,7.7c3.41,2.8,6.73,6.29,9.95,10.53c0-0.69,0-1.38-0.02-2.07c-0.26-0.44-0.33-0.98-0.15-1.49l0.11-0.31 c-0.66-18.67-6.49-34.62-15.19-46.58c-9.87-13.58-23.42-22.01-37.25-23.45c-0.81-0.08-1.61-0.14-2.4-0.18 c-0.72-0.03-1.33-0.49-1.58-1.12l0,0C56.5,6.82,54.66,4.29,52.6,3.7c-1.95-0.56-4.41,0.69-7.47,4.08 c-0.32,0.36-0.75,0.55-1.19,0.59v0c-1.13,0.09-2.84,0.18-4.79,0.29c-7.32,0.4-18.28,1-21.9,2.83c-0.76,0.39-1.35,0.84-1.79,1.34 c-0.89,1.03-1.17,2.39-1.03,3.93c0.17,1.77,0.89,3.78,1.93,5.85c3.36,6.65,9.91,13.63,13.03,16.32c2.57,2.21,5.13,3.88,7.68,5.13 c2.54,1.24,5.09,2.08,7.64,2.61c0.96,0.2,1.58,1.15,1.38,2.11c-0.2,0.96-1.15,1.58-2.11,1.38c-2.82-0.59-5.64-1.52-8.48-2.91 c-2.82-1.38-5.64-3.22-8.44-5.64C25.46,40.25,23.02,37.81,20.51,34.85L20.51,34.85z M114.18,95.74c0.02-0.26,0.05-0.52,0.07-0.78 l0.14-3.06c-3.86-5.69-7.85-10.16-11.96-13.53c-4.16-3.42-8.45-5.71-12.84-7.03c-3.81-1.14-7.71-1.55-11.69-1.33 c-4,0.23-8.1,1.11-12.29,2.55c-3.64,1.25-7.28,2.58-10.07,4.58c-0.26,0.19-0.52,0.38-0.77,0.59l-0.12,0.11 c-0.31,0.29-0.63,0.58-0.95,0.86c-1.69,1.7-2.91,3.88-3.37,6.77c-0.05,0.29-0.08,0.59-0.09,0.89c-0.01,0.28-0.01,0.57,0.01,0.87 c0.04,0.57,0.15,1.13,0.33,1.69c0.19,0.56,0.45,1.11,0.79,1.66c0.91,1.43,2.49,2.78,4.31,3.97c2.64,1.74,5.75,3.14,8.11,4.07 c1.12,0.44,2.26,0.83,3.44,1.18c1.02,0.26,2.07,0.52,3.13,0.79c0.31,0.07,0.63,0.13,0.95,0.19c1.43-0.85,2.94-1.65,4.52-2.39 c1.79-0.84,3.6-1.59,5.43-2.24c0.61-0.22,1.32-0.46,2.13-0.72c0.8-0.26,1.52-0.48,2.18-0.67c9.44-2.72,10.28-2.46,16.43-0.54 c1.21,0.38,2.64,0.82,4.38,1.31c1.5,0.42,2.99,0.73,4.46,0.74C111.94,96.28,113.05,96.12,114.18,95.74L114.18,95.74z M91.55,21.86 c3.89,3.35,7.51,7.28,10.74,11.73c7.48,10.29,12.93,23.38,15.01,38.54c1.21-5.97,1.86-12.1,1.99-17.93 c0.23-10.05-1.04-19.13-3.5-24.8c-1.4-3.22-4.41-8.12-8.07-11.52c-2.41-2.25-5.05-3.8-7.54-3.61c-1.48,0.12-2.91,0.9-4.37,2.27 C94.43,17.83,93.03,19.63,91.55,21.86L91.55,21.86z M58.9,39.71c-0.98-0.09-1.7-0.96-1.61-1.94c0.09-0.98,0.96-1.7,1.94-1.61 c8.05,0.75,15.64,3.35,22.77,7.76c7.08,4.38,13.7,10.55,19.87,18.47c0.61,0.78,0.47,1.9-0.31,2.5c-0.78,0.61-1.9,0.47-2.5-0.31 C93.14,57,86.83,51.11,80.11,46.95C73.45,42.83,66.38,40.41,58.9,39.71L58.9,39.71z M43.68,20.31c2.03,0,3.87,0.82,5.19,2.15 c1.33,1.33,2.15,3.17,2.15,5.19c0,2.03-0.82,3.87-2.15,5.19c-1.33,1.33-3.17,2.15-5.19,2.15c-2.03,0-3.87-0.82-5.19-2.15 c-1.33-1.33-2.15-3.17-2.15-5.19c0-2.03,0.82-3.87,2.15-5.19C39.81,21.14,41.65,20.31,43.68,20.31L43.68,20.31z M46.34,25 c-0.68-0.68-1.62-1.1-2.67-1.1c-1.04,0-1.98,0.42-2.67,1.1c-0.68,0.68-1.1,1.62-1.1,2.67c0,1.04,0.42,1.98,1.1,2.67 c0.68,0.68,1.62,1.1,2.67,1.1c1.04,0,1.98-0.42,2.67-1.1c0.68-0.68,1.1-1.62,1.1-2.67C47.44,26.62,47.02,25.68,46.34,25L46.34,25z"/></g></svg>