<?xml version="1.0" encoding="utf-8"?><svg version="1.1" id="Layer_1" xmlns="http://www.w3.org/2000/svg" xmlns:xlink="http://www.w3.org/1999/xlink" x="0px" y="0px" viewBox="0 0 121.55 122.88" style="enable-background:new 0 0 121.55 122.88" xml:space="preserve"><g><path d="M7.59,120.72c0.19,0.92-0.41,1.82-1.33,2.01c-0.92,0.19-1.82-0.41-2.01-1.33c-9.61-46.35-0.94-67.25,6.51-85.24 c4.49-10.84,8.53-20.58,7.6-34.34C18.3,0.88,19.01,0.07,19.95,0c0.94-0.06,1.75,0.65,1.82,1.59c0.99,14.55-3.19,24.65-7.85,35.87 c-0.25,0.61-0.5,1.21-0.76,1.83c33.91,10.43,65.49,9.83,95.12-0.06l-0.63-1.54c-4.66-11.33-8.86-21.52-7.87-36.1 c0.06-0.94,0.88-1.65,1.82-1.59c0.94,0.06,1.65,0.88,1.59,1.82c-0.94,13.8,3.11,23.64,7.61,34.58c7.45,18.1,16.09,39.09,6.51,85.03 c-0.19,0.92-1.1,1.51-2.02,1.32c-0.92-0.19-1.51-1.1-1.32-2.02c7.78-37.34,3.28-57.78-2.64-73.76 c-17.39,7.28-31.19,18.34-43.75,32.3c0.05,0.23,0.05,0.47,0,0.72c-1.08,5.11-1.86,11.48-2.28,18.52 c-0.43,7.09-0.51,14.82-0.2,22.59c0.04,0.94-0.7,1.73-1.64,1.77c-0.94,0.04-1.73-0.7-1.77-1.64c-0.31-7.91-0.23-15.75,0.2-22.92 c0.33-5.44,0.86-10.5,1.59-14.92h-6.21c0.81,4.42,1.41,9.43,1.78,14.8c0.5,7.2,0.59,15.04,0.25,22.94 c-0.04,0.94-0.83,1.67-1.77,1.64c-0.94-0.04-1.67-0.83-1.64-1.77c0.33-7.75,0.24-15.48-0.25-22.58 c-0.48-6.91-1.34-13.22-2.57-18.37c-0.01-0.05-0.02-0.09-0.03-0.14C40.53,65.21,26.69,54.5,9.93,47.5 C4.15,63.28-0.09,83.67,7.59,120.72L7.59,120.72z"/></g></svg>