<svg id="Layer_1" data-name="Layer 1" xmlns="http://www.w3.org/2000/svg" viewBox="0 0 122.88 109.87"><defs><style>.cls-1{fill:#ed1d7f;}</style></defs><title>fuchsia-os</title><path class="cls-1" d="M51.19.12a54.75,54.75,0,1,0,7.36,109.26,57,57,0,0,0,16.7-3.93,1.27,1.27,0,0,0,.73-1.72,1.19,1.19,0,0,0-1.47-.74H74a58.27,58.27,0,0,1-16,3.69c-28.23,2-53-19.65-55-48.37a52.05,52.05,0,1,1,103.86-7.12,25.23,25.23,0,0,1,0,6.14,1.46,1.46,0,0,0,.25,1,1.28,1.28,0,0,0,1,.49h.24a1.16,1.16,0,0,0,1.23-1.23V50.94A55,55,0,0,0,51.19.12Zm62.61,67A22.29,22.29,0,0,0,99.8,62a51,51,0,0,1-3.68,12.28A11.7,11.7,0,0,1,99.06,74a10.86,10.86,0,0,1,7.37,2.7,12,12,0,1,1-19.64,9.33A11.43,11.43,0,0,1,89,79.18,42,42,0,1,0,30.56,89.49a41.23,41.23,0,0,0,42,3.44,27,27,0,0,1,0-14,30,30,0,0,1-42.72-41A30,30,0,1,1,78.93,72.3a24.14,24.14,0,0,0-4.42,13.75,23.84,23.84,0,0,0,23.82,23.82c13,0,24.55-10.81,24.55-24.06a23.39,23.39,0,0,0-9.08-18.66Z"/></svg>