<svg id="Layer_1" data-name="Layer 1" xmlns="http://www.w3.org/2000/svg" viewBox="0 0 91.84 122.88"><title>furnace</title><path d="M11.91,28.43H81.84l10,74.73H0L10,28.43ZM34,60.1c.59,4.43,1.51,7.79,3.07,9a26.92,26.92,0,0,1,.45-4.42c1.08-5.64,5.45-8.07,4.2-14,5,.91,9.64,8.81,10.81,18.87a11.18,11.18,0,0,0,2.13-6,14.55,14.55,0,0,1,3.7,8.28c.83,5.91-.9,9.75-5.48,11.27,1-2.46.79-4.35-.28-6.85a8.88,8.88,0,0,0-1.79-2.76c-.32,2.43-.83,4.27-1.68,5A15.17,15.17,0,0,0,48.83,76c-.49-2.59-1.29-2.73-2-4.65a5.23,5.23,0,0,1-.26-3c-2.74.5-5.28,4.84-5.92,10.36a6.13,6.13,0,0,1-1.17-3.27,7.93,7.93,0,0,0-2,4.54,7.08,7.08,0,0,0,.39,4c-3.51-.42-5.87-2.48-7.36-5.8-2.14-4.76-1.76-8.3.27-13.06a16.33,16.33,0,0,1,3.25-5Zm40.27,49.33v13.45h-10V109.43Zm-23.27,0v13.45H40.89V109.43Zm-23.28,0v13.45h-10V109.43ZM65.38,56.85h2.1v-11H25.22L20.6,89.5H67.48V79.81H63.63v-23Zm5.86,0h3.4v23h-3.4V93.27H16.43l5.42-51.18H71.24V56.85Zm-.1,3.76h-4V76.05h4V60.61ZM62.16,0H29.68L23.47,21.81h44.9L62.16,0ZM78,32.82H13.83L5,98.77H86.84L78,32.82Z"/></svg>