<svg xmlns="http://www.w3.org/2000/svg" viewBox="0 0 122.88 107.27"><path d="M22.48 0h77.92c6.15 0 11.75 2.53 15.82 6.6 4.11 4.11 6.67 9.8 6.67 16.06v61.96c0 6.26-2.55 11.94-6.67 16.06-4.07 4.07-9.67 6.6-15.82 6.6H22.48c-6.15 0-11.75-2.53-15.82-6.6C2.55 96.56 0 90.88 0 84.62V22.65C0 16.39 2.55 10.7 6.66 6.59 10.73 2.53 16.33 0 22.48 0zm40.15 52.77V44.9H80.7v16.09c-3.46 2.36-6.52 3.97-9.17 4.83-2.66.85-5.81 1.28-9.46 1.28-4.49 0-8.16-.77-10.98-2.3-2.83-1.52-5.02-3.8-6.58-6.83-1.56-3.02-2.33-6.5-2.33-10.42 0-4.13.85-7.72 2.55-10.77 1.7-3.05 4.19-5.36 7.48-6.95C54.77 28.61 58.23 28 62.56 28c4.17 0 7.3.38 9.37 1.14 2.08.76 3.8 1.93 5.16 3.52 1.37 1.59 2.4 3.61 3.08 6.05l-11.26 2.03c-.47-1.44-1.25-2.54-2.36-3.29-1.11-.77-2.52-1.14-4.25-1.14-2.55 0-4.6.89-6.12 2.67-1.52 1.78-2.28 4.6-2.28 8.45 0 4.09.77 7.01 2.31 8.76 1.53 1.75 3.68 2.63 6.43 2.63 1.3 0 2.55-.19 3.73-.56 1.18-.38 2.54-1.02 4.07-1.92V52.8h-7.81v-.03zM4.54 76.22c.79 3.18 2.34 6.02 4.44 8.29 3.09 3.33 7.35 5.4 12.05 5.4h80.83c.19 0 .38 0 .57-.01l1.15-.08c4.01-.44 7.62-2.39 10.33-5.31 2.1-2.26 3.65-5.1 4.44-8.28V22.65c0-4.85-2-9.28-5.21-12.49a17.95 17.95 0 00-12.73-5.28H22.48c-4.97 0-9.48 2.02-12.73 5.28-3.22 3.22-5.21 7.64-5.21 12.49v53.57z"/></svg>