<?xml version="1.0" encoding="utf-8"?><svg version="1.1" id="Layer_1" xmlns="http://www.w3.org/2000/svg" xmlns:xlink="http://www.w3.org/1999/xlink" x="0px" y="0px" viewBox="0 0 122.88 95.19" style="enable-background:new 0 0 122.88 95.19" xml:space="preserve"><style type="text/css"><![CDATA[
	.st0{fill-rule:evenodd;clip-rule:evenodd;}
]]></style><g><path class="st0" d="M2.49,20.74h4.5v-9.86c0-1.37,1.11-2.48,2.48-2.48h4.41V2.48c0-1.37,1.11-2.48,2.48-2.48h40.26 c1.37,0,2.48,1.11,2.48,2.48V8.4h54.29c1.37,0,2.48,1.11,2.48,2.48v9.86h4.53c1.37,0,2.48,1.11,2.48,2.48 c0,0.18-0.02,0.36-0.06,0.52l-8.68,63.8c-0.28,2.08-1.19,4.01-2.59,5.41c-1.38,1.38-3.21,2.24-5.36,2.24H14.7 c-2.16,0-4.03-0.87-5.43-2.26c-1.41-1.41-2.31-3.35-2.54-5.46L0.01,23.48c-0.14-1.36,0.85-2.58,2.21-2.72 C2.32,20.75,2.4,20.75,2.49,20.74L2.49,20.74L2.49,20.74L2.49,20.74L2.49,20.74z M77.1,47.82c1.03,1.02,1.03,2.68,0,3.7 c-1.02,1.03-2.68,1.03-3.7,0c-1.03-1.02-1.03-2.68,0-3.7C74.42,46.81,76.08,46.81,77.1,47.82L77.1,47.82L77.1,47.82z M43.24,48.29 h4.55v4.64h4.64v4.55h-4.64v4.64h-4.55v-4.64H38.6v-4.55h4.64V48.29L43.24,48.29L43.24,48.29z M77.1,57.71 c1.03,1.03,1.03,2.68,0,3.7c-1.02,1.02-2.68,1.02-3.7,0s-1.03-2.68,0-3.7C74.42,56.7,76.08,56.7,77.1,57.71L77.1,57.71L77.1,57.71z M82.93,52.49c1.02,1.03,1.02,2.68,0,3.7c-1.03,1.02-2.68,1.02-3.7,0c-1.02-1.03-1.02-2.68,0-3.7 C80.25,51.47,81.9,51.47,82.93,52.49L82.93,52.49L82.93,52.49z M71.27,52.49c1.02,1.03,1.02,2.68,0,3.7c-1.02,1.02-2.68,1.02-3.7,0 c-1.03-1.03-1.03-2.68,0-3.7C68.59,51.47,70.25,51.47,71.27,52.49L71.27,52.49L71.27,52.49z M83.7,41.59h0.14 c0.4,0,0.76,0.19,1,0.47c5.91,6.08,9.01,19.28,8.32,28.12c-0.19,2.45-0.67,4.6-1.47,6.23c-0.9,1.85-2.2,3.07-3.94,3.39 c-2.22,0.41-4.99-0.76-8.32-4.15c-0.43-0.43-0.88-0.88-1.33-1.33c-1.55-1.53-3.19-3.14-4.57-5.08H49.34 c-1.39,1.96-3.02,3.57-4.58,5.1c-0.45,0.44-0.9,0.88-1.32,1.31c-3.33,3.39-6.1,4.56-8.32,4.15c-1.74-0.32-3.05-1.54-3.94-3.39 c-0.79-1.63-1.27-3.78-1.47-6.23c-0.69-8.88,2.44-22.16,8.4-28.2c0.25-0.26,0.59-0.39,0.92-0.39v0h0.14c0.73-1,1.64-1.81,2.66-2.42 c1.55-0.93,3.35-1.39,5.14-1.39c1.8,0,3.6,0.46,5.14,1.39c1.02,0.61,1.92,1.41,2.64,2.42c4.45,0,8.9,0.01,13.36,0.01 c0.72-1,1.64-1.82,2.65-2.42c1.55-0.93,3.35-1.39,5.14-1.39c1.79,0,3.59,0.47,5.14,1.39C82.06,39.77,82.98,40.58,83.7,41.59 L83.7,41.59L83.7,41.59z M9.47,25.71H5.24l6.44,61.26c0.1,0.98,0.5,1.85,1.1,2.46c0.5,0.5,1.17,0.81,1.93,0.81h91.49 c0.75,0,1.38-0.3,1.87-0.79c0.62-0.62,1.03-1.53,1.17-2.55l8.32-61.18L9.47,25.71L9.47,25.71L9.47,25.71L9.47,25.71z M11.95,13.37 v7.36l98.96-1.05v-6.31H56.62c-1.37,0-2.48-1.11-2.48-2.48V4.97h-35.3v5.92c0,1.37-1.11,2.48-2.48,2.48H11.95L11.95,13.37 L11.95,13.37L11.95,13.37z"/></g></svg>