<?xml version="1.0" encoding="utf-8"?><svg version="1.1" id="Layer_1" xmlns="http://www.w3.org/2000/svg" xmlns:xlink="http://www.w3.org/1999/xlink" x="0px" y="0px" viewBox="0 0 122.88 107.65" style="enable-background:new 0 0 122.88 107.65" xml:space="preserve"><g><path d="M26.21,28.03h7.77v-9.36c0-1.4,1.14-2.54,2.54-2.54s2.54,1.14,2.54,2.54v7.65c2.5-1.17,5.09-2.12,7.76-2.85v-9.56 c0-1.41,1.14-2.54,2.54-2.54c1.41,0,2.54,1.14,2.54,2.54v8.47c2.23-0.35,4.52-0.55,6.88-0.59l0.08,0V8.86 c0-1.4,1.14-2.54,2.54-2.54c1.4,0,2.54,1.14,2.54,2.54v13.09c2.26,0.18,4.58,0.5,6.96,0.97v-9.01c0-1.41,1.14-2.54,2.54-2.54 c1.41,0,2.54,1.14,2.54,2.54v10.23c2.52,0.7,5.11,1.57,7.76,2.6v-8.07c0-1.4,1.14-2.54,2.54-2.54c1.4,0,2.54,1.14,2.54,2.54v9.36 h7.82v-6.91h-2.31c-1.34,0-2.43-1.09-2.43-2.43v-1.21c0-1.34,1.09-2.43,2.43-2.43h3.67c-0.69-1.39-1.07-2.96-1.07-4.61 C96.95,4.67,101.63,0,107.39,0c5.77,0,10.44,4.67,10.44,10.44c0,1.66-0.39,3.22-1.07,4.61h3.7c1.34,0,2.43,1.09,2.43,2.43v1.21 c0,1.34-1.09,2.43-2.43,2.43h-2.31v86.53H96.67v-7.44H86.48c-0.06,0-0.11,0.01-0.17,0.01c-0.06,0-0.12,0-0.17-0.01H73.72 c-0.08,0.01-0.17,0.01-0.25,0.01c-0.08,0-0.17,0-0.25-0.01H61.65c-0.08,0.01-0.16,0.01-0.24,0.01c-0.08,0-0.16,0-0.24-0.01H49.62 c-0.08,0.01-0.17,0.01-0.25,0.01c-0.08,0-0.17,0-0.25-0.01H36.69c-0.06,0-0.11,0.01-0.17,0.01c-0.06,0-0.12,0-0.17-0.01H26.21v7.44 H4.74V21.12H2.43C1.09,21.12,0,20.03,0,18.69v-1.21c0-1.34,1.09-2.43,2.43-2.43H6.1c-0.69-1.39-1.07-2.96-1.07-4.61 C5.02,4.67,9.7,0,15.46,0S25.9,4.67,25.9,10.44c0,1.66-0.39,3.22-1.07,4.61h3.7c1.34,0,2.43,1.09,2.43,2.43v1.21 c0,1.34-1.09,2.43-2.43,2.43h-2.31V28.03L26.21,28.03z M51.91,52.07h6.96V37.65c-2.39,0.04-4.71,0.27-6.96,0.66V52.07L51.91,52.07z M63.96,52.07h6.96V38.9c-2.39-0.52-4.71-0.87-6.96-1.07V52.07L63.96,52.07z M70.92,68.19h-6.96v26.95h6.96V68.19L70.92,68.19z M58.87,68.19h-6.96v26.95h6.96V68.19L58.87,68.19z M60.21,60.82l-1.59,4.15h5.58l-1.47-4.21c0.93-0.47,1.58-1.45,1.58-2.57 c0-1.59-1.3-2.89-2.89-2.89c-1.59,0-2.89,1.3-2.89,2.89C58.53,59.35,59.21,60.36,60.21,60.82L60.21,60.82L60.21,60.82z M96.67,33.1 h-7.82v5.75h7.82V33.1L96.67,33.1z M96.67,43.91h-7.82v51.23h7.82V43.91L96.67,43.91z M26.21,95.14h7.77V43.91h-7.77V95.14 L26.21,95.14z M26.21,38.85h7.77V33.1h-7.77V38.85L26.21,38.85z M76.01,29.4v5.56c2.52,0.7,5.11,1.57,7.76,2.6v-5.37 C81.11,31.08,78.52,30.15,76.01,29.4L76.01,29.4z M76.01,40.22v54.93h7.76V43.01C81.11,41.9,78.52,40.97,76.01,40.22L76.01,40.22z M70.92,33.74v-5.66c-2.39-0.52-4.71-0.87-6.96-1.07v5.75C66.22,32.95,68.54,33.27,70.92,33.74L70.92,33.74z M58.87,26.83 c-2.39,0.04-4.71,0.27-6.96,0.66v5.7c2.23-0.35,4.52-0.55,6.88-0.59l0.08,0V26.83L58.87,26.83z M46.82,28.72 c-2.69,0.83-5.27,1.91-7.76,3.23v5.19c2.5-1.17,5.09-2.12,7.76-2.85V28.72L46.82,28.72z M46.82,39.54 c-2.69,0.83-5.27,1.91-7.76,3.23v52.37h7.76V39.54L46.82,39.54z"/></g></svg>