<?xml version="1.0" encoding="utf-8"?><svg version="1.1" id="Layer_1" xmlns="http://www.w3.org/2000/svg" xmlns:xlink="http://www.w3.org/1999/xlink" x="0px" y="0px" viewBox="0 0 115.28 122.88" style="enable-background:new 0 0 115.28 122.88" xml:space="preserve"><style type="text/css">.st0{fill-rule:evenodd;clip-rule:evenodd;}</style><g><path class="st0" d="M25.38,57h64.88V37.34H69.59c-2.17,0-5.19-1.17-6.62-2.6c-1.43-1.43-2.3-4.01-2.3-6.17V7.64l0,0H8.15 c-0.18,0-0.32,0.09-0.41,0.18C7.59,7.92,7.55,8.05,7.55,8.24v106.45c0,0.14,0.09,0.32,0.18,0.41c0.09,0.14,0.28,0.18,0.41,0.18 c22.78,0,58.09,0,81.51,0c0.18,0,0.17-0.09,0.27-0.18c0.14-0.09,0.33-0.28,0.33-0.41v-11.16H25.38c-4.14,0-7.56-3.4-7.56-7.56 V64.55C17.82,60.4,21.22,57,25.38,57L25.38,57z M42.21,83.28v-4.65h10.68v9.51c-2.05,1.4-3.85,2.35-5.42,2.85 c-1.57,0.51-3.44,0.75-5.59,0.75c-2.65,0-4.82-0.45-6.49-1.36c-1.67-0.9-2.97-2.25-3.89-4.04c-0.92-1.79-1.38-3.84-1.38-6.16 c0-2.44,0.5-4.56,1.51-6.37c1-1.8,2.48-3.17,4.42-4.11c1.52-0.72,3.56-1.08,6.12-1.08c2.47,0,4.32,0.22,5.54,0.67 c1.23,0.45,2.24,1.14,3.05,2.08c0.81,0.94,1.42,2.13,1.82,3.58l-6.65,1.2c-0.28-0.85-0.74-1.5-1.4-1.95 c-0.66-0.45-1.49-0.68-2.51-0.68c-1.51,0-2.72,0.53-3.62,1.58c-0.9,1.05-1.35,2.72-1.35,4.99c0,2.42,0.45,4.14,1.36,5.18 c0.91,1.04,2.18,1.56,3.8,1.56c0.77,0,1.5-0.11,2.21-0.33c0.7-0.22,1.5-0.6,2.41-1.13v-2.09H42.21L42.21,83.28z M56.55,69H69.5 c2.16,0,3.81,0.54,4.97,1.6c1.16,1.07,1.73,2.39,1.73,3.97c0,1.32-0.41,2.46-1.24,3.4c-0.55,0.63-1.35,1.13-2.41,1.5 c1.61,0.39,2.79,1.05,3.55,1.99c0.75,0.94,1.13,2.12,1.13,3.55c0,1.16-0.27,2.2-0.81,3.13c-0.54,0.93-1.28,1.66-2.21,2.2 c-0.58,0.33-1.46,0.58-2.63,0.73c-1.56,0.2-2.59,0.31-3.1,0.31H56.55V69L56.55,69z M63.51,77.78h3.01c1.08,0,1.83-0.19,2.25-0.56 c0.42-0.37,0.63-0.91,0.63-1.61c0-0.65-0.21-1.16-0.63-1.53c-0.42-0.37-1.16-0.55-2.21-0.55h-3.06V77.78L63.51,77.78z M63.51,86.56 h3.52c1.19,0,2.03-0.21,2.52-0.63c0.49-0.42,0.73-0.98,0.73-1.7c0-0.66-0.24-1.19-0.72-1.59c-0.48-0.4-1.33-0.6-2.55-0.6h-3.51 V86.56L63.51,86.56z M80.44,91.37V69h11.52c2.13,0,3.77,0.18,4.89,0.55c1.13,0.36,2.04,1.05,2.73,2.04 c0.69,0.99,1.04,2.21,1.04,3.63c0,1.24-0.27,2.31-0.8,3.21c-0.53,0.91-1.25,1.63-2.19,2.2c-0.59,0.35-1.4,0.65-2.43,0.88 c0.82,0.28,1.42,0.55,1.8,0.82c0.25,0.18,0.62,0.58,1.1,1.18c0.48,0.6,0.8,1.06,0.96,1.39l3.36,6.46h-7.81l-3.69-6.82 c-0.47-0.88-0.88-1.46-1.25-1.72c-0.5-0.34-1.07-0.52-1.7-0.52h-0.61v9.06H80.44L80.44,91.37z M87.38,78.09h2.92 c0.31,0,0.93-0.1,1.83-0.31c0.46-0.09,0.83-0.32,1.12-0.7c0.29-0.38,0.44-0.81,0.44-1.3c0-0.72-0.23-1.28-0.69-1.67 c-0.46-0.39-1.32-0.58-2.58-0.58h-3.04V78.09L87.38,78.09z M97.79,57h9.93c4.16,0,7.56,3.41,7.56,7.56v31.42 c0,4.15-3.41,7.56-7.56,7.56h-9.93v13.55c0,1.61-0.65,3.04-1.7,4.1c-1.06,1.06-2.49,1.7-4.1,1.7c-29.44,0-56.59,0-86.18,0 c-1.61,0-3.04-0.64-4.1-1.7c-1.06-1.06-1.7-2.49-1.7-4.1V5.85c0-1.61,0.65-3.04,1.7-4.1c1.06-1.06,2.53-1.7,4.1-1.7h58.72 C64.66,0,64.8,0,64.94,0c0.64,0,1.29,0.28,1.75,0.69h0.09c0.09,0.05,0.14,0.09,0.23,0.18l29.99,30.36c0.51,0.51,0.88,1.2,0.88,1.98 c0,0.23-0.05,0.41-0.09,0.65V57L97.79,57z M67.52,27.97V8.94l21.43,21.7H70.19c-0.74,0-1.38-0.32-1.89-0.78 C67.84,29.4,67.52,28.71,67.52,27.97L67.52,27.97z"/></g></svg>