<?xml version="1.0" encoding="utf-8"?><svg version="1.1" id="Layer_1" xmlns="http://www.w3.org/2000/svg" xmlns:xlink="http://www.w3.org/1999/xlink" x="0px" y="0px" viewBox="0 0 115.28 122.88" style="enable-background:new 0 0 115.28 122.88" xml:space="preserve"><style type="text/css">.st0{fill-rule:evenodd;clip-rule:evenodd;}</style><g><path class="st0" d="M25.38,57h64.88V37.34H69.59c-2.17,0-5.19-1.17-6.62-2.6c-1.43-1.43-2.3-4.01-2.3-6.17V7.64l0,0H8.15 c-0.18,0-0.32,0.09-0.41,0.18C7.59,7.92,7.55,8.05,7.55,8.24v106.45c0,0.14,0.09,0.32,0.18,0.41c0.09,0.14,0.28,0.18,0.41,0.18 c22.78,0,58.09,0,81.51,0c0.18,0,0.17-0.09,0.27-0.18c0.14-0.09,0.33-0.28,0.33-0.41v-11.16H25.38c-4.14,0-7.56-3.4-7.56-7.56 V64.55C17.82,60.4,21.22,57,25.38,57L25.38,57z M42.75,83.47v-4.91h11.26V88.6c-2.16,1.47-4.06,2.47-5.71,3.01 c-1.66,0.53-3.62,0.8-5.89,0.8c-2.8,0-5.08-0.48-6.84-1.43c-1.76-0.95-3.13-2.37-4.1-4.26c-0.97-1.88-1.45-4.05-1.45-6.49 c0-2.57,0.53-4.81,1.59-6.71c1.06-1.9,2.61-3.34,4.66-4.33c1.6-0.76,3.75-1.14,6.45-1.14c2.6,0,4.55,0.24,5.84,0.71 c1.3,0.47,2.37,1.2,3.22,2.2c0.85,0.99,1.49,2.25,1.92,3.77l-7.01,1.26c-0.29-0.89-0.78-1.58-1.47-2.05 c-0.69-0.48-1.57-0.71-2.65-0.71c-1.59,0-2.86,0.55-3.81,1.66c-0.95,1.11-1.42,2.86-1.42,5.26c0,2.55,0.48,4.37,1.44,5.46 c0.95,1.09,2.29,1.64,4.01,1.64c0.81,0,1.59-0.12,2.33-0.35c0.74-0.24,1.58-0.64,2.54-1.2v-2.21H42.75L42.75,83.47z M57.29,68.43 h19.49v5.04H64.6v3.75h11.29v4.81H64.6v4.64h12.55V92H57.29V68.43L57.29,68.43z M80.13,68.43h10.83c2.13,0,3.86,0.29,5.17,0.87 c1.31,0.58,2.4,1.41,3.26,2.49c0.86,1.09,1.48,2.34,1.86,3.78c0.39,1.44,0.58,2.96,0.58,4.57c0,2.52-0.29,4.47-0.86,5.86 c-0.57,1.39-1.37,2.55-2.39,3.49c-1.02,0.94-2.11,1.56-3.28,1.88C93.7,91.79,92.25,92,90.96,92H80.13V68.43L80.13,68.43z M87.41,73.76v12.87h1.79c1.53,0,2.61-0.17,3.26-0.5c0.64-0.34,1.15-0.93,1.51-1.77c0.37-0.85,0.55-2.21,0.55-4.09 c0-2.5-0.41-4.2-1.22-5.13c-0.82-0.92-2.17-1.38-4.07-1.38H87.41L87.41,73.76z M97.79,57h9.93c4.16,0,7.56,3.41,7.56,7.56v31.42 c0,4.15-3.41,7.56-7.56,7.56h-9.93v13.55c0,1.61-0.65,3.04-1.7,4.1c-1.06,1.06-2.49,1.7-4.1,1.7c-29.44,0-56.59,0-86.18,0 c-1.61,0-3.04-0.64-4.1-1.7c-1.06-1.06-1.7-2.49-1.7-4.1V5.85c0-1.61,0.65-3.04,1.7-4.1c1.06-1.06,2.53-1.7,4.1-1.7h58.72 C64.66,0,64.8,0,64.94,0c0.64,0,1.29,0.28,1.75,0.69h0.09c0.09,0.05,0.14,0.09,0.23,0.18l29.99,30.36c0.51,0.51,0.88,1.2,0.88,1.98 c0,0.23-0.05,0.41-0.09,0.65V57L97.79,57z M67.52,27.97V8.94l21.43,21.7H70.19c-0.74,0-1.38-0.32-1.89-0.78 C67.84,29.4,67.52,28.71,67.52,27.97L67.52,27.97z"/></g></svg>