<?xml version="1.0" encoding="utf-8"?><svg version="1.1" id="Layer_1" xmlns="http://www.w3.org/2000/svg" xmlns:xlink="http://www.w3.org/1999/xlink" x="0px" y="0px" viewBox="0 0 88.59 122.88" style="enable-background:new 0 0 88.59 122.88" xml:space="preserve"><style type="text/css">.st0{fill-rule:evenodd;clip-rule:evenodd;}</style><g><path class="st0" d="M44.16,0.04c12.75,0,23.1,10.35,23.1,23.1c0,8.92-5.05,16.62-12.42,20.49l21.19,8.73l-6.45,15.88l-2.95-1.29 c-2.87-0.52-4.68,0.63-5.45,3.35v12.12l12.27,16.8L59.9,109.48L48.44,93.41c-2.73-2.95-5.42-2.98-8.03,0l-11.75,16.07L15.09,99.2 l12.2-16.36V71.78c0-4.42-2.51-5.45-6.3-4.72l-1.99,0.85l-6.3-15.51l21.04-8.66c-7.52-3.8-12.68-11.61-12.68-20.64 C21.06,10.35,31.41,0,44.16,0V0.04L44.16,0.04z M44.2,59.33c2.28,0,4.13,1.84,4.13,4.13s-1.84,4.13-4.13,4.13s-4.13-1.84-4.13-4.13 S41.91,59.33,44.2,59.33L44.2,59.33z M44.2,74.43c2.28,0,4.13,1.84,4.13,4.13c0,2.28-1.84,4.13-4.13,4.13s-4.13-1.84-4.13-4.13 C40.07,76.28,41.91,74.43,44.2,74.43L44.2,74.43z M24.15,115.67l-0.11,0.18c-7.89,14.63-25.2,3.46-13.52-10.5L24.15,115.67 L24.15,115.67z M78.1,105.35c2.98,3.91,5.67,8.22,3.35,13.04c-2.62,5.53-10.87,7.3-17.13-2.62L78.1,105.35L78.1,105.35L78.1,105.35 z M83.11,55.31c3.43,1.66,5.9,3.8,5.42,8.99c-0.66,7.22-6.34,8.11-11.79,6.71L83.11,55.31L83.11,55.31z M12.03,71.15 C0.16,75.58-4.66,60.25,5.62,55.35L12.03,71.15L12.03,71.15z M52.82,14.63c2.43,0,4.42,1.99,4.42,4.42c0,2.43-1.99,4.42-4.42,4.42 c-2.43,0-4.42-1.99-4.42-4.42C48.4,16.62,50.39,14.63,52.82,14.63L52.82,14.63z M35.61,14.63c2.43,0,4.42,1.99,4.42,4.42 c0,2.43-1.99,4.42-4.42,4.42c-2.43,0-4.42-1.99-4.42-4.42C31.19,16.62,33.18,14.63,35.61,14.63L35.61,14.63z M34.21,30.29 c-0.15-0.74,0.37-1.47,1.14-1.66c0.81-0.15,1.58,0.33,1.77,1.11c0.63,2.91,2.1,4.79,3.87,5.79c1.07,0.59,2.28,0.85,3.46,0.81 c1.18-0.04,2.4-0.41,3.46-1.03c1.77-1.07,3.21-2.95,3.61-5.49c0.11-0.77,0.88-1.29,1.7-1.18c0.81,0.11,1.36,0.85,1.25,1.58 c-0.59,3.43-2.51,5.97-4.97,7.44c-1.51,0.88-3.21,1.4-4.94,1.44c-1.73,0.07-3.46-0.33-5.05-1.22c-2.47-1.36-4.46-3.83-5.27-7.63 L34.21,30.29L34.21,30.29z"/></g></svg>