<?xml version="1.0" encoding="utf-8"?><svg version="1.1" id="Layer_1" xmlns="http://www.w3.org/2000/svg" xmlns:xlink="http://www.w3.org/1999/xlink" x="0px" y="0px" viewBox="0 0 79.96 122.88" style="enable-background:new 0 0 79.96 122.88" xml:space="preserve"><g><path d="M4.65,31.13c19.75,15.2,31.93,9.21,43.24,3.63c8.67-4.27,16.89-8.32,27.42-4.05V4.65H4.65V31.13L4.65,31.13L4.65,31.13z M79.96,2.32v39.28c0,19.24-15.34,38.39-34.96,39.86v34.77h15.85c1.29,0,2.32,2.04,2.32,3.32c0,1.28-1.04,3.32-2.32,3.32H22.4 c-1.29,0-2.32-2.04-2.32-3.32c0-1.28,1.04-3.32,2.32-3.32h13.95V81.56C16.06,80.73,0,61.37,0,41.61V2.32C0,1.04,1.04,0,2.32,0 h75.31C78.91,0,79.96,1.04,79.96,2.32L79.96,2.32L79.96,2.32z"/></g></svg>