<?xml version="1.0" encoding="utf-8"?><svg version="1.1" id="Layer_1" xmlns="http://www.w3.org/2000/svg" xmlns:xlink="http://www.w3.org/1999/xlink" x="0px" y="0px" viewBox="0 0 122.88 72.7" style="enable-background:new 0 0 122.88 72.7" xml:space="preserve"><g><path d="M24.65,62.51c0,1.08-0.87,1.95-1.95,1.95c-1.08,0-1.95-0.87-1.95-1.95v-0.08V50.87c-0.05-0.18-0.08-0.36-0.08-0.56 c0-0.19,0.03-0.38,0.08-0.56V38.98c-0.05-0.18-0.08-0.36-0.08-0.56c0-0.19,0.03-0.38,0.08-0.56V27.1 c-0.05-0.18-0.08-0.36-0.08-0.56s0.03-0.38,0.08-0.56V15.39l-7.67-8.35v54.91c0,1.08-0.87,1.95-1.95,1.95 c-1.08,0-1.95-0.87-1.95-1.95V1.95C9.18,0.87,10.05,0,11.13,0h101.24c1.08,0,1.95,0.87,1.95,1.95v59.99c0,1.08-0.87,1.95-1.95,1.95 c-1.08,0-1.95-0.87-1.95-1.95V6.88l-7.21,7.85c-0.01,0.17-0.03,0.33-0.08,0.48v10.77c0.05,0.18,0.08,0.36,0.08,0.56 s-0.03,0.38-0.08,0.56v10.77c0.05,0.18,0.08,0.36,0.08,0.56c0,0.19-0.03,0.38-0.08,0.56v10.77c0.05,0.18,0.08,0.36,0.08,0.56 c0,0.19-0.03,0.38-0.08,0.56v11.33v0.08c0,1.08-0.87,1.95-1.95,1.95c-1.08,0-1.95-0.87-1.95-1.95v-0.08v-9.93H87.44v10.17v0.08 c0,1.08-0.87,1.95-1.95,1.95s-1.95-0.87-1.95-1.95v-0.08V52.26H71.74v10.17v0.08c0,1.08-0.87,1.95-1.95,1.95 c-1.08,0-1.95-0.87-1.95-1.95v-0.08V52.26H56.05v10.17v0.08c0,1.08-0.87,1.95-1.95,1.95c-1.08,0-1.95-0.87-1.95-1.95v-0.08V52.26 H40.35v10.17v0.08c0,1.08-0.87,1.95-1.95,1.95c-1.08,0-1.95-0.87-1.95-1.95v-0.08V52.26H24.65v10.17V62.51L24.65,62.51z M107.87,3.9H15.49l8.08,8.8H38.4h15.7h15.7h15.7h14.3L107.87,3.9L107.87,3.9z M1.95,72.7C0.87,72.7,0,71.82,0,70.75 c0-1.08,0.87-1.95,1.95-1.95h118.98c1.08,0,1.95,0.87,1.95,1.95c0,1.08-0.87,1.95-1.95,1.95H1.95L1.95,72.7z M24.65,16.61v7.98 h11.79v-7.98H24.65L24.65,16.61z M40.35,16.61v7.98h11.79v-7.98H40.35L40.35,16.61z M56.05,16.61v7.98h11.79v-7.98H56.05 L56.05,16.61z M71.74,16.61v7.98h11.79v-7.98H71.74L71.74,16.61z M87.44,16.61v7.98h11.79v-7.98H87.44L87.44,16.61z M24.65,28.49 v7.98h11.79v-7.98H24.65L24.65,28.49z M40.35,28.49v7.98h11.79v-7.98H40.35L40.35,28.49z M56.05,28.49v7.98h11.79v-7.98H56.05 L56.05,28.49z M71.74,28.49v7.98h11.79v-7.98H71.74L71.74,28.49z M87.44,28.49v7.98h11.79v-7.98H87.44L87.44,28.49z M24.65,40.38 v7.98h11.79v-7.98H24.65L24.65,40.38z M40.35,40.38v7.98h11.79v-7.98H40.35L40.35,40.38z M56.05,40.38v7.98h11.79v-7.98H56.05 L56.05,40.38z M71.74,40.38v7.98h11.79v-7.98H71.74L71.74,40.38z M87.44,40.38v7.98h11.79v-7.98H87.44L87.44,40.38z"/></g></svg>