<svg id="Layer_1" data-name="Layer 1" xmlns="http://www.w3.org/2000/svg" xmlns:xlink="http://www.w3.org/1999/xlink" viewBox="0 0 254.14 511.86"><defs><style>.cls-1{fill:#34a853;}.cls-2{fill:url(#linear-gradient);}.cls-3{fill:#ea4335;}.cls-4{fill:#fbbc04;}</style><linearGradient id="linear-gradient" x1="239.57" y1="102.75" x2="239.57" y2="449.98" gradientTransform="matrix(1, 0, 0, -1, -42.14, 506.72)" gradientUnits="userSpaceOnUse"><stop offset="0" stop-color="#1a73e8"/><stop offset="1" stop-color="#4285f4"/></linearGradient></defs><title>google-one</title><path class="cls-1" d="M254.14,401.29V455a56.71,56.71,0,1,1-113.41,0V314.43Z"/><path class="cls-2" d="M254.14,56.88V401.29L140.73,314.43v-137l92.79-76.71A56.67,56.67,0,0,0,254.14,56.88Z"/><path class="cls-3" d="M254.11,54.91c0,.64,0,1.28,0,1.94a56.67,56.67,0,0,1-20.62,43.86l-92.79,76.72V56.88a56.78,56.78,0,0,1,22.8-45.57c1-.75,2-1.45,3.05-2.12.49-.32,1-.64,1.45-.93.9-.58,1.86-1.11,2.74-1.57l2.5-1.25,2.09-1c.85-.35,1.69-.7,2.59-1s1.74-.61,2.62-.9c1.63-.5,3.28-1,5-1.31.49-.12,1-.2,1.57-.32l1.13-.17c.67-.12,1.34-.21,2-.29s1.57-.21,2.39-.27c.63-.05,1.27-.11,1.91-.14.94,0,1.89-.06,2.85-.06h0c2.07,0,4.08.12,6.11.32,1,.12,2,.26,3.05.44s2,.35,3,.58,2,.46,3,.75c.81.21,1.65.47,2.47.76,1.6.52,3.2,1.11,4.71,1.77.75.32,1.51.67,2.27,1,1,.47,1.92,1,2.85,1.46,1.39.78,2.73,1.6,4.07,2.5.14.11.29.2.43.29,1.43,1,2.8,2.06,4.16,3.17.67.58,1.34,1.13,2,1.74l.06.06c.64.61,1.28,1.22,1.92,1.86s1.28,1.31,1.89,2a47.87,47.87,0,0,1,3.46,4.22c.75,1,1.45,2,2.12,3.05.32.5.64,1,.93,1.45.58.91,1.11,1.87,1.57,2.74.35.7.9,1.83,1.25,2.5s.64,1.4.93,2.09c.35.85.7,1.72,1,2.59s.61,1.75.87,2.62c.38,1.25.7,2.5,1,3.72a11.78,11.78,0,0,1,.38,1.72c.17.81.32,1.6.47,2.38s.17,1.28.26,1.92.2,1.57.26,2.39c.06.64.12,1.28.14,1.92,0,.29,0,.61,0,.93Z"/><path class="cls-4" d="M161.32,13c.69-.58,1.42-1.13,2.15-1.66a56.85,56.85,0,0,0-22.74,45.57V177.45L92.57,217.33a56.44,56.44,0,0,1-79.66-7.71,57.05,57.05,0,0,1,7.68-80Z"/></svg>