<svg xmlns="http://www.w3.org/2000/svg" viewBox="0 0 333334 333334" shape-rendering="geometricPrecision" text-rendering="geometricPrecision" image-rendering="optimizeQuality" fill-rule="evenodd" clip-rule="evenodd"><defs><style>.fil4{fill:#185abc}</style></defs><g id="Layer_x0020_1"><path fill="none" d="M0 0h333334v333334H0z"/><path d="M319524 175333c-4770 80751-71690 143809-152588 143809-84406 0-152857-68451-152857-152857S82530 13428 166936 13428h128208c13481 52 24382 10997 24382 24476v191l-2 137237z" fill="#1a73e8"/><path d="M295143 13905H166667c-84143 0-152381 68238-152381 152382 775-83589 68789-150953 152375-150953h128483c13480 51 24381 10996 24381 24476v95l-1-1810c-156-13367-11012-24142-24381-24190z" fill="#fff" fill-opacity=".2"/><path d="M319524 175333v-3905c-1881 82989-69729 149325-152761 149325-84376 0-152802-68426-152802-152801 0-1157 19-2331 37-3469 19-1138 0 1429 0 1714 356 84161 68694 152201 152858 152201 81458 0 148640-63916 152671-145262m-3 2196z" fill="#1a237e" fill-opacity=".2"/><path class="fil4" d="M229048 196191v60c0 13410-10875 24286-24285 24286-569 0-1148-21-1714-59l-86667-1c-566 39-1145 60-1714 60-13399 0-24268-10852-24286-24250v8571c2 89-2 192-2 287 0 14199 11515 25714 25714 25714 94 0 198-3 289-3l86760 2h193c14199 0 25714-11515 25714-25714 0-94-3-194-3-286l1-8667zM270858 203143c-162 2715-2413 4834-5133 4834-1314 0-2579-504-3533-1406l-33143-32952v8667l32953 32953c940 1067 2295 1679 3717 1679 2734 0 4952-2218 4952-4953 0-51-1-104-2-155l190-8667z"/><path d="M262191 119810l-33143 32572v20857l32953 32952c950 977 2257 1529 3620 1529 2753 0 4999-2206 5048-4959l-1-79523c-241-2647-2463-4673-5121-4673-1231 0-2422 443-3355 1245z" fill="#f1f3f4"/><path d="M203143 104190h-86762c-14357 1-26000 11644-26000 26001l-1 66000v95c0 14304 11600 25905 25905 25905h86857c14322-51 25905-11678 25905-26000v-66000c1-31 1-63 1-95 0-14304-11600-25905-25905-25905l-1-1z" fill="#fff"/><path fill="#bdc1c6" d="M229239 175715v-2096l6952 6953v-34762l-6952 6952z"/></g></svg>