<?xml version="1.0" encoding="utf-8"?><svg version="1.1" id="Layer_1" xmlns="http://www.w3.org/2000/svg" xmlns:xlink="http://www.w3.org/1999/xlink" x="0px" y="0px" viewBox="0 0 122.88 122.88" style="enable-background:new 0 0 122.88 122.88" xml:space="preserve"><style type="text/css">.st0{fill:#0066D9;} .st1{fill:#4285F4;} .st2{fill:#EA4335;} .st3{fill:#34A853;} .st4{fill:#FAB908;}</style><g><path class="st0" d="M15.36,57.25v8.38c0,4.24-3.44,7.68-7.68,7.68S0,69.87,0,65.63v-8.38c0-4.24,3.44-7.68,7.68-7.68 S15.36,53.01,15.36,57.25L15.36,57.25z"/><path class="st1" d="M107.52,57.47c0-0.07,0-0.15,0-0.22c0-4.24,3.44-7.68,7.68-7.68c4.24,0,7.68,3.44,7.68,7.68 c0,0.07,0,0.15,0,0.22l0,0v8.38h0c-0.12,4.14-3.51,7.46-7.68,7.46s-7.56-3.32-7.68-7.46h0L107.52,57.47L107.52,57.47L107.52,57.47 L107.52,57.47z"/><path class="st2" d="M41.89,82.39v8.38c0,4.24-3.44,7.68-7.68,7.68c-4.24,0-7.68-3.44-7.68-7.68v-8.38c0-4.24,3.44-7.68,7.68-7.68 C38.45,74.71,41.89,78.14,41.89,82.39L41.89,82.39L41.89,82.39z M41.89,32.12v27.4h0c-0.09,4.16-3.49,7.51-7.68,7.51 c-4.18,0-7.58-3.34-7.68-7.51h0v-27.4c0-4.24,3.44-7.68,7.68-7.68S41.89,27.87,41.89,32.12L41.89,32.12L41.89,32.12z"/><path class="st3" d="M80.99,40.49c0,4.24,3.44,7.68,7.68,7.68s7.68-3.44,7.68-7.68v-8.38c0-4.24-3.44-7.68-7.68-7.68 c-4.24,0-7.68,3.44-7.68,7.68V40.49L80.99,40.49z"/><path class="st4" d="M53.76,16.06c0,4.24,3.44,7.68,7.68,7.68s7.68-3.44,7.68-7.68V7.68c0-4.24-3.44-7.68-7.68-7.68 s-7.68,3.44-7.68,7.68V16.06L53.76,16.06z M53.76,106.82c0-4.24,3.44-7.68,7.68-7.68s7.68,3.44,7.68,7.68v8.38 c0,4.24-3.44,7.68-7.68,7.68s-7.68-3.44-7.68-7.68V106.82L53.76,106.82z"/><path class="st3" d="M80.99,63.53c0-4.24,3.44-7.68,7.68-7.68s7.68,3.44,7.68,7.68v27.23c0,4.24-3.44,7.68-7.68,7.68 c-4.24,0-7.68-3.44-7.68-7.68V63.53L80.99,63.53z"/><path class="st4" d="M69.12,39.1v44.68c0,4.24-3.44,7.68-7.68,7.68s-7.68-3.44-7.68-7.68V39.1c0-4.24,3.44-7.68,7.68-7.68 S69.12,34.86,69.12,39.1L69.12,39.1z"/></g></svg>