<svg xmlns="http://www.w3.org/2000/svg" shape-rendering="geometricPrecision" text-rendering="geometricPrecision" image-rendering="optimizeQuality" fill-rule="evenodd" clip-rule="evenodd" viewBox="0 0 429 511.74"><path fill-rule="nonzero" d="M375 294.87v140.09h12.99c4.63 0 8.86 1.91 11.93 4.97l.03.03c3.07 3.09 4.97 7.32 4.97 11.93v12.22h7.14c4.66 0 8.9 1.91 11.97 4.98 3.06 3.06 4.97 7.3 4.97 11.96v24.57c0 3.38-2.74 6.12-6.13 6.12H6.13C2.74 511.74 0 509 0 505.62v-24.57c0-4.67 1.9-8.9 4.97-11.97 3.07-3.06 7.3-4.97 11.97-4.97h7.13v-12.22c0-4.66 1.91-8.9 4.97-11.96 3.07-3.07 7.3-4.97 11.96-4.97h8.38V294.87h-24.6a6.13 6.13 0 0 1-6.13-6.13v-6.88c0-7.35 3-14.02 7.83-18.85 4.83-4.83 11.5-7.83 18.85-7.83h1.9v-10.5c0-7.35 3-14.02 7.83-18.85 4.83-4.83 11.5-7.84 18.85-7.84h276.57c7.33 0 14 3.02 18.83 7.85 4.84 4.84 7.85 11.53 7.85 18.84v10.5h1.89c7.32 0 13.99 3.01 18.81 7.83 4.87 4.84 7.87 11.52 7.87 18.85v6.88a6.13 6.13 0 0 1-6.13 6.13H375zm-73.08 0v140.09h60.83V294.87h-60.83zm-12.26 140.09V294.87H132.75v140.09h156.91zm-169.16 0V294.87H61.64v140.09h58.86zm229.98-204.71H73.91c-3.96 0-7.57 1.63-10.19 4.24-2.61 2.62-4.24 6.23-4.24 10.19v9.93H364.9v-9.93c0-3.94-1.63-7.55-4.26-10.18-2.61-2.61-6.22-4.25-10.16-4.25zm-29.59 83.07h21.35v20.09h-21.35v-20.09zm0 41.55h21.35v20.08h-21.35v-20.08zm0 41.55h21.35v20.08h-21.35v-20.08zm-238.75-83.1h21.35v20.09H82.14v-20.09zm0 41.55h21.35v20.08H82.14v-20.08zm0 41.55h21.35v20.08H82.14v-20.08zm317.91 79.95c-.41.08-.83.13-1.25.13H30.2c-.43 0-.85-.05-1.25-.13H16.94c-1.28 0-2.46.53-3.3 1.38-.85.85-1.38 2.02-1.38 3.3v18.44h404.48v-18.44c0-1.28-.53-2.45-1.38-3.3a4.666 4.666 0 0 0-3.3-1.38h-12.01zM36.33 464.11h356.34v-12.22c0-1.28-.53-2.46-1.36-3.29l-.03-.03c-.83-.83-2-1.35-3.29-1.35H41c-1.27 0-2.44.53-3.29 1.38-.85.84-1.38 2.02-1.38 3.29v12.22zm116.21-283.84c-1.53 2.53-4.82 3.35-7.34 1.82a5.34 5.34 0 0 1-1.82-7.34c4.75-7.87 10.55-14.58 17.27-20.04 6.76-5.48 14.43-9.68 22.89-12.53 2.79-.93 5.82.57 6.75 3.37.94 2.79-.57 5.82-3.36 6.75-7.23 2.43-13.78 6.02-19.54 10.69-5.74 4.66-10.73 10.45-14.85 17.28zm66.95-162.32c47.19-32.62 50.71 31.95 97.07-8.36v65.79c-44.21 39.75-53.75-24.48-97.07 8.16V17.95zM207.83 0a9 9 0 0 1 9 9c0 3.31-1.77 6.19-4.42 7.76h.43v80.79c31.04.16 59.48 11.37 81.58 29.9 22.61 18.96 38.58 45.6 43.9 75.89.58 3.33-1.65 6.5-4.98 7.08-3.33.58-6.51-1.65-7.08-4.98-4.81-27.38-19.25-51.47-39.69-68.61-20.11-16.87-46.06-27.02-74.38-27.02-28.32 0-54.26 10.15-74.38 27.02-20.44 17.14-34.87 41.23-39.68 68.61-.58 3.33-3.76 5.56-7.09 4.98a6.122 6.122 0 0 1-4.97-7.08c5.32-30.29 21.28-56.93 43.89-75.89 20.02-16.79 45.23-27.56 72.87-29.56V16.76h.42A9.003 9.003 0 0 1 198.82 9c0-4.97 4.03-9 9.01-9zM55.51 282.61h337.97v-.75c0-3.95-1.63-7.56-4.26-10.18-2.6-2.62-6.21-4.25-10.17-4.25H45.33c-3.96 0-7.57 1.63-10.18 4.25-2.62 2.61-4.25 6.22-4.25 10.18v.75h24.61z"/></svg>