<?xml version="1.0" encoding="utf-8"?><svg version="1.1" id="Layer_1" xmlns="http://www.w3.org/2000/svg" xmlns:xlink="http://www.w3.org/1999/xlink" x="0px" y="0px" viewBox="0 0 119.59 122.88" style="enable-background:new 0 0 119.59 122.88" xml:space="preserve"><g><path d="M53.34,9.46c-0.3-0.55-0.36-1.16-0.21-1.72c0.15-0.57,0.52-1.09,1.08-1.41l0.01-0.01C54.77,6,55.4,5.94,55.96,6.09 c0.57,0.15,1.09,0.52,1.41,1.08l0.01,0.01c0.22,0.38,0.45,0.7,0.7,0.95c0.23,0.23,0.48,0.4,0.74,0.5c0.26,0.1,0.57,0.14,0.92,0.11 c0.38-0.03,0.81-0.13,1.3-0.31c0.6-0.22,1.23-0.18,1.77,0.06c0.54,0.25,0.98,0.7,1.21,1.3c0.22,0.6,0.18,1.23-0.06,1.77 c-0.25,0.54-0.7,0.98-1.3,1.21c-1.03,0.38-2,0.58-2.91,0.61c-0.92,0.03-1.78-0.12-2.58-0.42c-0.8-0.31-1.52-0.76-2.15-1.35 c-0.62-0.57-1.16-1.27-1.63-2.08L53.34,9.46L53.34,9.46z M67.75,80.18L67.7,80.4c-0.03,0.1-0.06,0.21-0.1,0.31 c-0.92,2.25-1.65,4.78-2.18,7.54c-0.56,2.89-0.92,6.02-1.09,9.32c-0.18,3.48-0.15,7.13,0.07,10.88c0.22,3.85,0.65,7.81,1.25,11.77 l0,0.01c0.09,0.63-0.08,1.24-0.43,1.72c-0.35,0.48-0.89,0.82-1.52,0.92l-0.02,0c-0.63,0.09-1.23-0.08-1.7-0.43 c-0.48-0.35-0.82-0.89-0.92-1.52l0-0.01c-0.41-2.68-0.73-5.36-0.98-8.03c-0.2,2.61-0.49,5.26-0.87,7.91 c-0.09,0.63-0.43,1.17-0.9,1.53c-0.47,0.35-1.06,0.53-1.69,0.45l-0.07-0.01c-0.62-0.1-1.14-0.43-1.49-0.9 c-0.35-0.47-0.53-1.06-0.45-1.69l0.01-0.06c0.54-3.76,0.89-7.49,1.04-11.12c0.16-3.67,0.12-7.24-0.12-10.65 c-0.22-3.25-0.62-6.34-1.2-9.2c-0.56-2.78-1.28-5.35-2.17-7.65c-0.4-0.47-0.87-1-1.37-1.57c-0.54-0.62-1.1-1.24-1.65-1.85 c-1.07-1.19-2.15-2.36-3.16-3.44c-1.18-1.27-2.27-2.42-3.13-3.32l-0.03-0.03c-0.43-0.46-0.63-1.04-0.62-1.62 c0.01-0.59,0.25-1.18,0.7-1.62L42.94,68c0.46-0.43,1.04-0.63,1.63-0.62l0.01,0c0.59,0.01,1.18,0.25,1.62,0.71 c0.92,0.96,2.05,2.15,3.24,3.43c1.04,1.12,2.12,2.3,3.16,3.44c0.55,0.61,1.08,1.2,1.58,1.77c0.44,0.5,0.9,1.03,1.36,1.57 c0.13,0.1,0.25,0.21,0.35,0.34c0.1,0.12,0.19,0.25,0.27,0.4l0.52,0.62l0.5,0.61c0.44,0.49,0.85,0.86,1.23,1.09 c0.35,0.21,0.66,0.32,0.95,0.32c0.29,0,0.6-0.11,0.95-0.32c0.38-0.23,0.79-0.59,1.22-1.06c0.69-0.83,1.48-1.74,2.31-2.69 c0.94-1.06,1.94-2.16,2.93-3.24c1.13-1.23,2.3-2.47,3.41-3.64c1.18-1.24,2.3-2.4,3.24-3.34c0.45-0.45,1.04-0.68,1.64-0.68 c0.59,0,1.19,0.22,1.64,0.67l0.03,0.03c0.43,0.45,0.65,1.03,0.66,1.61c0,0.59-0.22,1.19-0.67,1.64l-0.02,0.02 c-0.89,0.9-1.97,2.01-3.13,3.23c-1.08,1.13-2.23,2.36-3.38,3.6l-1.32,1.44L67.75,80.18L67.75,80.18z M59.88,94.71 c0.11-1.29,0.24-2.56,0.41-3.79c0.23-1.69,0.52-3.33,0.86-4.91c-0.14,0.05-0.29,0.09-0.44,0.12c-0.44,0.1-0.89,0.16-1.34,0.16 c-0.29,0-0.58-0.02-0.86-0.06l-0.07-0.01c0.4,1.68,0.73,3.44,1.01,5.25C59.62,92.54,59.76,93.61,59.88,94.71L59.88,94.71z M115.46,118.92l-0.01,0.07c-0.14,0.61-0.5,1.11-0.99,1.43c-0.49,0.32-1.09,0.45-1.7,0.34l-0.08-0.02 c-0.61-0.14-1.11-0.5-1.43-0.99c-0.32-0.5-0.46-1.12-0.33-1.74c9.07-43.51,0.91-63.33-6.12-80.42l0-0.01 c-2.28-5.53-4.44-10.79-5.92-16.46c-1.48-5.69-2.27-11.78-1.78-18.95l0-0.01c0.05-0.63,0.34-1.19,0.79-1.58 c0.44-0.38,1.02-0.6,1.65-0.57l0.07,0c0.62,0.05,1.17,0.35,1.56,0.79c0.38,0.44,0.6,1.02,0.57,1.65l0,0.06 c-0.45,6.62,0.3,12.3,1.7,17.63c1.41,5.36,3.48,10.39,5.66,15.68C116.36,53.51,124.81,74.04,115.46,118.92L115.46,118.92z M8.69,118c0.12,0.62-0.02,1.23-0.34,1.72c-0.33,0.49-0.84,0.86-1.47,0.99c-0.63,0.13-1.25-0.01-1.74-0.34 c-0.49-0.33-0.86-0.84-0.99-1.47c-4.69-22.64-4.92-39.07-3.07-52.04c1.86-12.99,5.8-22.49,9.44-31.28 c2.17-5.25,4.24-10.23,5.64-15.55c1.4-5.3,2.15-10.96,1.7-17.57l0-0.01c-0.04-0.63,0.18-1.22,0.57-1.67 c0.39-0.45,0.95-0.75,1.59-0.79c0.64-0.04,1.23,0.18,1.68,0.57c0.45,0.39,0.74,0.95,0.79,1.59c0.49,7.16-0.3,13.21-1.78,18.86 c-1.47,5.63-3.63,10.83-5.9,16.31L14.8,37.4c-7.04,16.97-15.2,36.71-6.11,80.59L8.69,118L8.69,118z"/></g></svg>