<svg xmlns="http://www.w3.org/2000/svg" shape-rendering="geometricPrecision" text-rendering="geometricPrecision" image-rendering="optimizeQuality" fill-rule="evenodd" clip-rule="evenodd" viewBox="0 0 512 341.38"><path d="M3.62 302.83c-2 0-3.62-1.63-3.62-3.62 0-1.04.14-2.05.39-3.06 5.81-46 41.83-58.27 67.38-64.9 12.79-3.32 44.59-15.94 31.92-33.3-7.1-9.74-13.54-16.58-19.98-26.87-4.65-6.86-7.1-12.99-7.1-17.89 0-5.23 2.78-11.35 8.33-12.74-.73-10.53-.98-24.38-.49-35.65 1.77-19.35 15.64-33.61 33.57-39.93 7.1-2.7 3.67-13.49 11.51-13.72 18.37-.5 48.5 15.19 60.27 27.92 6.85 7.35 11.27 17.15 12 30.14l-.73 32.46c3.43.98 5.63 3.19 6.61 6.62.99 3.92 0 9.31-3.43 16.91 0 .24-.25.24-.25.48-7.56 12.47-15.43 20.73-24.1 32.27-3.86 5.16-3.1 10.09.1 14.53-4.51 2.63-8.91 5.66-13.15 9.22-16.88 14.17-29.89 35.31-34.39 69.06l-.51 2.98c-.25 1.93-.38 3.51-.38 4.7 0 1.49.12 2.96.37 4.39H3.62zm441.35-72.93c2.5-2.54 4.06-4.56 7.14-1.4l9.98 10.22c3.27 3.24 3.1 5.14.01 8.16l-13.78 13.77 13.7 13.69c2.53 2.5 4.56 4.06 1.4 7.14l-10.22 9.98c-3.25 3.27-5.14 3.1-8.16.01l-13.77-13.76-13.76 13.76c-3.02 3.09-4.92 3.26-8.16-.01l-10.22-9.98c-3.16-3.08-1.14-4.64 1.4-7.14l13.69-13.69-13.78-13.77c-3.09-3.02-3.26-4.92.02-8.16l9.98-10.22c3.07-3.16 4.64-1.14 7.13 1.4l13.7 13.7 13.7-13.7zm-13.7-49.99c22.29 0 42.48 9.04 57.08 23.65l.45.48c14.35 14.58 23.2 34.58 23.2 56.61 0 22.29-9.04 42.48-23.65 57.09-14.6 14.6-34.79 23.64-57.08 23.64s-42.48-9.04-57.09-23.64l-.44-.49c-14.36-14.58-23.21-34.58-23.21-56.6 0-22.26 9.05-42.45 23.67-57.07 14.59-14.63 34.78-23.67 57.07-23.67zm45.32 35.42c-11.6-11.6-27.62-18.77-45.32-18.77s-33.73 7.18-45.33 18.77c-11.6 11.57-18.76 27.6-18.76 45.32 0 17.53 7.01 33.4 18.37 44.94l.4.38c11.59 11.59 27.62 18.76 45.32 18.76 17.69 0 33.72-7.17 45.32-18.76 11.59-11.59 18.76-27.62 18.76-45.32 0-17.51-7.01-33.39-18.37-44.95l-.39-.37zm-322.65 87.53c-2.45 0-4.43-1.97-4.43-4.42 0-1.25.18-2.5.48-3.73 7.08-56.13 40.73-68.33 71.87-76.34 14.96-3.84 44.78-18.85 41.17-38.2-7.55-6.99-15.03-16.65-16.34-31.06l-.91.02c-2.09-.03-4.11-.51-5.99-1.58-4.17-2.36-6.44-6.9-7.54-12.07-2.31-15.79-2.89-23.86 5.52-27.38l.07-.03c-1.04-19.48 2.25-48.14-17.75-54.2 39.5-48.81 85.04-75.37 119.23-31.94 38.1 2 55.09 55.96 31.43 86.17h-1c8.42 3.52 7.15 12.58 5.53 27.38-1.1 5.17-3.38 9.71-7.54 12.07-1.88 1.07-3.91 1.55-6 1.58l-.9-.02c-1.31 14.41-8.81 24.07-16.36 31.06-1.22 6.55 1.38 12.58 5.93 17.87-13.43 17.3-21.41 39.03-21.41 62.61 0 15.05 3.26 29.35 9.1 42.21H153.94z"/></svg>