<?xml version="1.0" encoding="utf-8"?><svg version="1.1" id="Layer_1" xmlns="http://www.w3.org/2000/svg" xmlns:xlink="http://www.w3.org/1999/xlink" x="0px" y="0px" viewBox="0 0 122.88 122.88" style="enable-background:new 0 0 122.88 122.88" xml:space="preserve"><g><path d="M67.12,67.12v20.73c2.13-0.47,4.11-1.11,5.93-1.93c2.89-1.29,5.42-3.02,7.58-5.2l0.01-0.01l-0.01-0.01l0.01-0.01 c0.06-0.06,0.13-0.13,0.2-0.18c0.54-0.55,1.06-1.12,1.54-1.72c0.51-0.62,1.01-1.32,1.51-2.08c1.8-2.76,3.12-5.96,3.94-9.6H67.12 L67.12,67.12z M61.55,61.54v-0.19h-0.22v0.19H61.55L61.55,61.54z M67.12,55.76h20.72c-0.15-0.68-0.31-1.35-0.49-1.99 c-0.51-1.84-1.16-3.57-1.96-5.2c-3.41-6.99-9.51-11.48-18.27-13.49V55.76L67.12,55.76z M55.76,55.76v-20.7 c-0.65,0.14-1.27,0.3-1.87,0.47c-4.68,1.32-8.58,3.54-11.69,6.65c-0.06,0.06-0.13,0.13-0.2,0.19c-2.08,2.11-3.75,4.58-5.01,7.39 c-0.82,1.84-1.48,3.84-1.97,6.01H55.76L55.76,55.76z M55.76,67.12H35.08c0.43,2.1,1.03,4.06,1.82,5.86 c1.26,2.88,2.98,5.42,5.16,7.62l0.01-0.01c2.22,2.22,4.78,3.98,7.68,5.29c1.85,0.83,3.85,1.48,6.01,1.96V67.12L55.76,67.12z M63.38,122.88H59.5c-2.06,0-3.74-1.67-3.74-3.74V99.32c-3.82-0.64-7.33-1.66-10.53-3.07c-4.21-1.85-7.88-4.35-11.03-7.5 c-3.14-3.14-5.64-6.82-7.5-11.06c-1.41-3.22-2.44-6.74-3.07-10.58H3.74C1.67,67.12,0,65.45,0,63.38c0-0.11,0.01-0.22,0.01-0.33 V59.5c0-2.06,1.67-3.72,3.72-3.72v-0.01h19.84c0.57-3.68,1.56-7.11,2.95-10.29c1.84-4.19,4.37-7.9,7.6-11.14 c3.23-3.24,6.94-5.8,11.15-7.68c3.22-1.44,6.72-2.47,10.5-3.1V3.74c0-2.06,1.67-3.72,3.72-3.72V0h3.89c2.06,0,3.74,1.67,3.74,3.74 c0,0.11-0.01,0.22-0.01,0.33v19.49c3.78,0.63,7.29,1.67,10.52,3.12c4.23,1.89,7.96,4.48,11.21,7.74c3.26,3.28,5.81,6.99,7.64,11.15 c1.39,3.16,2.36,6.56,2.92,10.21h19.75c2.06,0,3.74,1.67,3.74,3.74c0,0.11-0.01,0.22-0.01,0.33v3.56c0,2.06-1.67,3.72-3.72,3.72 v0.01H99.39c-0.03,0.21-0.06,0.41-0.1,0.62c-0.22,1.32-0.5,2.61-0.83,3.88c-1.73,6.55-4.95,12.19-9.65,16.91l-0.01,0.01l0.01,0.01 l-0.01,0.01c-0.07,0.07-0.14,0.14-0.22,0.2c-0.84,0.83-1.72,1.62-2.65,2.37c-1.03,0.84-2.05,1.59-3.08,2.27 c-4.57,3-9.82,4.99-15.74,5.95v19.8C67.12,121.21,65.45,122.88,63.38,122.88L63.38,122.88z"/></g></svg>