<?xml version="1.0" encoding="utf-8"?><svg version="1.1" id="Layer_1" xmlns="http://www.w3.org/2000/svg" xmlns:xlink="http://www.w3.org/1999/xlink" x="0px" y="0px" viewBox="0 0 122.88 122.44" style="enable-background:new 0 0 122.88 122.44" xml:space="preserve"><style type="text/css">.st0{fill-rule:evenodd;clip-rule:evenodd;}</style><g><path class="st0" d="M50.14,42.06l39.38,37.6C107.96,56.04,88.92,15.88,61.27,0c41.32,9.42,65.89,58.63,42.23,92.52l17.75,16.87 c5.75,6.5-5.04,17.12-12.41,11.44l-16.7-18.12c-22.17,10-41.35,5.93-55.09-10.11c-0.34,2.18-2.33,3.69-4.92,5.31 c-6.12,3.84-8.02,7.07-9.27,9.99c-0.84,1.96-1.38,3.78-2.7,5.55c-4.09,5.46-8.33,9.51-15.44,8.54c-2.8,0.85-5.06-0.76-4.45-3.48 c-1.51-6.83,3.42-14.05,10.86-17.91c2.33-1.21,4.47-1.75,6.74-3.21c0.87-0.56,1.67-1.17,2.37-1.88c5.01-5.11,3.75-6.61,6.51-9.04 c0.96-0.85,2.08-1.36,3.39-1.42c0.95-1.46,3.13-2.47,5.62-1.6l3.36-2.86c11.66,11.96,25.97,12.95,39.02,7.77L41.68,50.65 L27.29,64.77L11.98,49.44l30.59-30.29l26.76,3.86L50.14,42.06L50.14,42.06z"/></g></svg>