<?xml version="1.0" encoding="utf-8"?><svg version="1.1" id="Layer_1" xmlns="http://www.w3.org/2000/svg" xmlns:xlink="http://www.w3.org/1999/xlink" x="0px" y="0px" viewBox="0 0 122.88 119.48" style="enable-background:new 0 0 122.88 119.48" xml:space="preserve"><style type="text/css">.st0{fill-rule:evenodd;clip-rule:evenodd;}</style><g><path class="st0" d="M0,65.25h25.6l-1.03,44.31l-24.57,0V65.25L0,65.25z M80.44,8.07C83.86,23.7,94.1,31.51,94.1,39.32 c0,7.82-3.41,15.63-13.66,15.63c-10.25,0-13.66-7.81-13.66-15.63C66.78,31.51,77.03,23.7,80.44,8.07L80.44,8.07z M104.15,0 c1.83,8.37,7.32,12.55,7.32,16.74c0,4.19-1.83,8.37-7.32,8.37c-5.49,0-7.32-4.18-7.32-8.37C96.83,12.55,102.32,8.37,104.15,0 L104.15,0z M24.87,30.3c2.65-0.5,5.19,1.24,5.69,3.89c0.5,2.65-1.24,5.19-3.89,5.69c-2.65,0.5-5.19-1.24-5.69-3.89 C20.49,33.35,22.23,30.8,24.87,30.3L24.87,30.3z M47.38,12.39c4.68-0.88,9.19,2.2,10.07,6.88c0.88,4.68-2.2,9.19-6.88,10.07 c-4.68,0.88-9.19-2.2-10.07-6.88C39.62,17.78,42.7,13.28,47.38,12.39L47.38,12.39z M29.64,105.98L30.5,69.2l16.54,0.39 c6.98,1.42,13.91,5.39,20.82,9.97l12.85,0.3c5.81,0.49,8.72,6.45,2.98,10.19c-4.58,3.2-10.52,2.87-16.6,2.18 c-4.2-0.3-4.51,5.34-0.13,5.46c1.52,0.15,3.18-0.16,4.63-0.13c7.61,0.17,13.9-1.14,17.88-7.06l2.03-4.45l19.33-9.03 c9.64-2.93,16.2,7.24,8.99,14.03c-14.08,9.75-28.47,17.71-43.15,24.07c-10.7,6.17-21.24,5.71-31.64-0.74L29.64,105.98L29.64,105.98 z"/></g></svg>