<?xml version="1.0" encoding="utf-8"?><svg version="1.1" id="Layer_1" xmlns="http://www.w3.org/2000/svg" xmlns:xlink="http://www.w3.org/1999/xlink" x="0px" y="0px" viewBox="0 0 53.02 122.88" style="enable-background:new 0 0 53.02 122.88" xml:space="preserve"><g><path d="M16.19,79.15c-0.04-0.01-0.09-0.03-0.13-0.04c-0.61-0.22-1.08-0.67-1.35-1.21c-0.27-0.54-0.34-1.18-0.15-1.8 c0.01-0.05,0.03-0.1,0.05-0.14c0.22-0.61,0.67-1.08,1.21-1.35c0.56-0.28,1.23-0.34,1.87-0.13c2.02,0.68,3.65,1.17,5.06,1.48 c1.39,0.31,2.57,0.44,3.73,0.43c1.15-0.02,2.35-0.2,3.77-0.52c1.42-0.32,3.09-0.81,5.16-1.42l0.01,0c0.65-0.19,1.31-0.1,1.86,0.2 c0.55,0.3,0.99,0.81,1.19,1.46l0,0.01c0.19,0.65,0.1,1.31-0.2,1.86c-0.3,0.55-0.81,0.99-1.46,1.19c-2.21,0.66-4.01,1.17-5.65,1.54 c-1.65,0.37-3.11,0.57-4.61,0.59c-1.5,0.02-2.98-0.14-4.65-0.5C20.25,80.45,18.43,79.9,16.19,79.15L16.19,79.15z M26.51,0 c1.96,0,3.89,0.22,5.75,0.64C34.16,1.06,36,1.7,37.73,2.52c1.76,0.83,3.42,1.85,4.95,3.04c1.54,1.19,2.94,2.55,4.19,4.05 c3.14,3.78,4.69,7.36,5.46,11.05c0.75,3.65,0.72,7.35,0.68,11.45l0,0.01l0,0.07c0,0.37-0.01,0.84-0.01,2.65v85.58 c0,0.68-0.28,1.29-0.72,1.74l0,0c-0.45,0.45-1.06,0.72-1.74,0.72H2.48c-0.68,0-1.29-0.28-1.74-0.72l0,0 c-0.45-0.45-0.72-1.06-0.72-1.74V34.59c0-1.97,0-2.28-0.01-2.57l0-0.1c-0.07-8.18-0.11-14.93,6-22.41c1.25-1.53,2.66-2.91,4.2-4.11 c1.54-1.19,3.21-2.22,4.99-3.04c1.74-0.8,3.58-1.42,5.51-1.82c1.83-0.38,3.73-0.57,5.69-0.53L26.51,0L26.51,0z M35.63,6.96 c-1.41-0.66-2.9-1.18-4.44-1.52c-1.5-0.33-3.07-0.51-4.69-0.51c-0.04,0-0.09,0-0.13-0.01c-1.59-0.03-3.14,0.12-4.63,0.43 c-1.56,0.32-3.06,0.82-4.47,1.48c-1.44,0.67-2.79,1.49-4.04,2.46c-1.26,0.98-2.4,2.09-3.41,3.32c-5.02,6.14-4.96,12.1-4.9,19.34 c0.23,28.64,0.02,57.36,0.02,86.01h43.13V34.84c0-0.24,0.03-2.76,0.02-2.76l0-0.07c0.07-7.24,0.11-13.12-5-19.26 c-1.01-1.22-2.16-2.33-3.42-3.3C38.43,8.47,37.08,7.64,35.63,6.96L35.63,6.96z M26.69,12.83c1.94,0,3.79,0.39,5.49,1.09 c1.76,0.73,3.35,1.8,4.67,3.13c1.33,1.33,2.4,2.91,3.13,4.67c0.7,1.69,1.09,3.55,1.09,5.49v12.63c0,0.6,0.01,1.02,0.02,1.35 c0.01,0.36,0.02,0.69,0.04,0.99l0,0.06c0.08,1.83,0.11,2.82-0.79,3.89c-0.55,0.66-1.16,0.98-1.97,1.14 c-0.7,0.13-1.54,0.12-2.67,0.1l-0.06,0c-0.39-0.01-0.83-0.01-1.28-0.01L19.29,47.3c-0.71,0-1.35,0.01-1.88,0.03l-0.03,0 c-0.95,0.02-1.66,0.04-2.28-0.06c-0.71-0.12-1.28-0.38-1.82-0.92c-1.07-1.06-1.05-2.08-1-4.12c0-0.03,0-0.05,0-0.08 c0.01-0.34,0.02-0.78,0.02-1.77V27.13c0-1.93,0.39-3.78,1.09-5.47c0.73-1.75,1.8-3.33,3.13-4.65c1.33-1.32,2.91-2.38,4.67-3.11 C22.9,13.21,24.75,12.83,26.69,12.83L26.69,12.83z M26.69,17.75c-1.29,0-2.51,0.25-3.63,0.71c-1.16,0.48-2.2,1.18-3.07,2.04 c-0.87,0.86-1.57,1.9-2.05,3.04c-0.46,1.1-0.71,2.31-0.71,3.59v13.24c0,0.18-0.01,0.53-0.02,0.94l-0.03,1.12l0.99-0.02 c0.33-0.01,0.7-0.01,1.11-0.01l15.07,0.05c0.55,0,0.99,0.01,1.39,0.01l0.03,0c0.17,0,0.32,0.01,0.46,0.03l-0.01-0.12 c-0.03-0.74-0.07-1.66-0.07-2.54V27.21c0-1.28-0.26-2.49-0.72-3.61c-0.48-1.15-1.19-2.2-2.06-3.07 C31.65,18.81,29.29,17.75,26.69,17.75L26.69,17.75z M12.9,70.18c-0.64-0.22-1.14-0.67-1.42-1.23c-0.28-0.56-0.34-1.23-0.13-1.87 l0-0.01c0.22-0.64,0.67-1.13,1.23-1.41c0.56-0.28,1.23-0.34,1.87-0.13l0.01,0c2.01,0.67,4.01,1.16,6.01,1.47 c2,0.31,4.01,0.45,6.01,0.43c2.01-0.02,4.02-0.2,6.05-0.53c2.02-0.33,4.05-0.8,6.09-1.41c0.65-0.19,1.32-0.11,1.87,0.19 c0.55,0.3,0.99,0.81,1.19,1.46c0.19,0.65,0.11,1.32-0.19,1.87c-0.3,0.55-0.81,0.99-1.46,1.19c-2.23,0.67-4.48,1.19-6.73,1.55 c-2.25,0.36-4.51,0.56-6.78,0.58c-2.27,0.02-4.54-0.14-6.81-0.49C17.44,71.49,15.17,70.94,12.9,70.18L12.9,70.18z"/></g></svg>