<svg xmlns="http://www.w3.org/2000/svg" viewBox="0 0 122.88 92.65"><path d="M0 39.37h24.83v44.18H0V39.37zM81.73 0c12.2 0 22.11 9.89 22.11 22.11 0 12.2-9.89 22.11-22.11 22.11-12.2 0-22.11-9.89-22.11-22.11C59.63 9.91 69.52 0 81.73 0zm-.32 24.89l.08 1.77c0 1.2-.31 2.14-.93 2.82h9.59v4.26H73.29v-4.26h1.62c.6-.16.92-.7.95-1.63l.02-.83-.08-2.13h-2.55v-4.12h2.43l-.1-3.42c0-2.15.65-3.84 1.93-5.06 1.29-1.21 3.03-1.82 5.23-1.82 2.36 0 4.19.6 5.51 1.81 1.32 1.21 1.98 2.85 1.98 4.92h-5.21c0-1.65-.72-2.48-2.14-2.48-.54 0-.97.21-1.29.64-.33.43-.49 1.08-.49 1.98l.14 3.42h4.85v4.12h-4.68v.01zM29.83 79.84V42.91h16.61c7.04 1.26 14.08 5.08 21.12 9.51h12.9c5.84.35 8.9 6.27 3.22 10.16-4.52 3.32-10.49 3.13-16.61 2.58-4.22-.21-4.4 5.46 0 5.48 1.53.12 3.19-.24 4.64-.24 7.64-.01 13.92-1.47 17.77-7.5l1.93-4.51 19.19-9.51c9.6-3.16 16.42 6.88 9.35 13.87-13.9 10.11-28.15 18.43-42.73 25.15-10.59 6.44-21.18 6.22-31.76 0l-15.63-8.06z" fill-rule="evenodd" clip-rule="evenodd"/></svg>