<svg xmlns="http://www.w3.org/2000/svg" shape-rendering="geometricPrecision" text-rendering="geometricPrecision" image-rendering="optimizeQuality" fill-rule="evenodd" clip-rule="evenodd" viewBox="0 0 363 511.48"><path d="M95.1 150.06h38.47c3.42 0 6.21 2.79 6.21 6.2v82.5c0 3.41-2.79 6.21-6.21 6.21l-38.47-.01c-3.41 0-6.21-2.79-6.21-6.2v-82.5c0-3.41 2.8-6.2 6.21-6.2zm63.22 266.95c-.24-.13-.57-.3-.81-.49-3.35-2.65-6.99-5.61-10.13-8.17-4.59-3.77-9.88-8.13-13.59-11.2-2.52-2.07-5.43-3.52-8.13-4.09-1.75-.32-3.33-.32-4.61.19-.99.44-1.89 1.26-2.45 2.51-.76 1.7-1.14 4.1-.94 7.37.19 2.91 1.21 6.05 2.52 9.12 1.96 4.47 4.64 8.62 6.68 11.27.13.19.24.31.32.49L167 480.89c.51.75.82 1.57.88 2.39.82 6.55 2.19 11.52 4.23 14.61 1.5 2.26 3.41 3.4 5.84 3.33h62.67c3.91-.08 7.43-1.2 10.7-3.45 3.6-2.46 6.8-6.3 9.77-11.46.06-.06.13-.19.19-.25 1.12-1.94 2.64-4.46 4.09-6.87 6.35-10.45 11.88-19.57 12.51-32.54l-.38-17.86c-.07-.24-.06-.49-.06-.75 0-.27 0-1.96.06-4.21.13-11.83.32-26.43-10.51-28.25h-6.98c-.06 3.33-.25 6.73-.44 9.99-.19 2.97-.38 5.73-.37 8.43 0 2.9-2.32 5.22-5.22 5.22-2.89 0-5.21-2.32-5.21-5.22 0-2.71.18-5.86.38-9.12.7-11.13 1.52-23.91-7.37-25.48h-6.93c-.38 0-.76-.07-1.12-.13.05 4.03-.19 8.16-.44 12.21-.19 2.97-.38 5.73-.37 8.44 0 2.89-2.32 5.21-5.22 5.21-2.89 0-5.21-2.32-5.21-5.21 0-2.72.19-5.87.38-9.12.7-11.14 1.52-23.91-7.37-25.49h-6.93c-.49 0-.93-.07-1.39-.2v20.32c0 2.89-2.32 5.22-5.21 5.22-2.9 0-5.22-2.33-5.22-5.22l-.04-54.56c0-9.12-3.72-14.91-8.51-17.3-1.75-.88-3.66-1.32-5.47-1.32-1.81 0-3.71.44-5.47 1.32-4.71 2.38-8.35 8.18-8.37 17.55v95.58c0 2.9-2.33 5.22-5.22 5.22-2.89 0-5.21-2.32-5.21-5.22V417l-.14.01zm48.84-62.04c.43-.12.88-.19 1.39-.19h7.24c.38 0 .82.06 1.2.12 9.63 1.5 13.97 7.1 15.73 14.41.69-.31 1.44-.51 2.2-.51h7.25c.39 0 .82.06 1.2.11 10.38 1.64 14.54 8 16.05 16.05.25-.07.5-.05.82-.05h7.24c.39 0 .83.05 1.21.11 19.89 3.09 19.62 22.84 19.44 38.76v4.15l.43 18.39v.56c-.75 15.66-6.91 25.79-14.03 37.5-1.19 1.96-2.38 3.96-4.01 6.74-.07.05-.07.11-.14.18-3.71 6.49-7.99 11.45-12.89 14.86-4.97 3.44-10.51 5.22-16.55 5.28l-62.67.04c-6.22.11-11.07-2.58-14.66-7.94-2.89-4.27-4.79-10.32-5.78-17.86l-39.01-55.76-.19-.19c-2.32-3.08-5.48-7.94-7.87-13.27-1.76-4.02-3.08-8.37-3.4-12.64-.3-5.11.38-9.12 1.81-12.34 1.77-3.96 4.65-6.55 8.11-7.94 3.22-1.31 6.86-1.5 10.51-.74 4.42.87 8.93 3.08 12.77 6.29 3.15 2.64 8.44 6.91 13.6 11.13l4.28 3.52v-72.55c0-13.91 6.15-22.84 14.16-26.87 3.22-1.64 6.67-2.46 10.21-2.46 3.53 0 6.98.82 10.19 2.46 8 4.01 14.29 13.02 14.3 26.68v24.03l-.14-.06zM181.5 0c50.11 0 95.49 20.32 128.34 53.16C342.68 86.01 363 131.38 363 181.5c0 50.11-20.32 95.49-53.16 128.34a182.128 182.128 0 0 1-56.52 38.39c-2.32-.92-4.84-1.65-7.57-2.18l-2.72-.49-2.27-2.49c-3.62-3.6-7.99-6.48-13.25-8.41v-.6c25.49-7.68 48.29-21.57 66.64-39.91 28.82-28.83 46.65-68.66 46.65-112.65 0-43.99-17.83-83.82-46.65-112.65C265.32 40.03 225.49 22.2 181.5 22.2c-43.99 0-83.82 17.83-112.65 46.65-28.82 28.83-46.66 68.66-46.66 112.65 0 43.99 17.84 83.82 46.66 112.65 19.34 19.34 43.63 33.72 70.81 41.1v22.9c-33.32-7.86-63.09-24.91-86.5-48.31C20.32 276.99 0 231.61 0 181.5c0-50.12 20.32-95.49 53.16-128.34C86 20.32 131.38 0 181.5 0zm-.86 93.01c.87-4.42 3.15-7.26 6.26-8.7 2.54-1.18 5.49-1.29 8.56-.49 2.67.71 5.47 2.13 8.16 4.18 7.28 5.54 14.09 15.97 14.96 29.02.27 4.02.2 8.31-.18 12.86-.26 3.01-.65 6.17-1.17 9.47h30.95l.15.01c5.03.2 9.9 1.42 14 3.57 3.55 1.86 6.55 4.41 8.63 7.58 2.13 3.26 3.3 7.14 3.13 11.57-.13 3.29-1.01 6.86-2.8 10.67 1.03 4.28 1.49 8.87.84 12.9-.56 3.43-1.89 6.47-4.29 8.73.12 5.67-.63 10.41-2.15 14.52-1.57 4.23-3.92 7.73-6.93 10.84-.25 2.7-.7 5.3-1.39 7.73-.85 3.04-2.1 5.84-3.85 8.31l-.01-.01c-5.27 7.44-9.5 7.28-16.18 7-.93-.04-1.93-.08-3.48-.08H173.3c-5.45 0-9.73-.78-13.64-2.74-3.87-1.93-7.17-4.91-10.69-9.33l-.91-2.57v-70.62l3.07-.82c7.81-2.11 13.95-8.78 18.72-16.77 4.91-8.22 8.35-17.85 10.7-25.62V93.81l.09-.8zm9.72-1.2c-.67.3-1.21 1.09-1.53 2.41v20.58l-.18 1.19c-2.49 8.33-6.23 18.88-11.72 28.08-5.16 8.65-11.87 16.07-20.6 19.5v63.01c2.4 2.84 4.61 4.77 7.02 5.97 2.66 1.33 5.79 1.87 9.95 1.87h60.55c1.08 0 2.49.05 3.8.11 3.97.16 6.47.26 9.15-3.52v-.02c1.16-1.64 2.01-3.58 2.63-5.75.65-2.32 1.03-4.9 1.22-7.64l1.28-2.71c2.66-2.53 4.7-5.38 6-8.86 1.33-3.6 1.9-7.93 1.58-13.36l-.14-2.44 2.08-1.3c1.42-.88 2.2-2.56 2.53-4.6.53-3.25-.02-7.25-1.04-10.96l.32-2.99c1.68-3.21 2.49-6.08 2.59-8.59.1-2.61-.58-4.87-1.81-6.75-1.3-1.98-3.22-3.59-5.52-4.8-2.98-1.56-6.58-2.46-10.34-2.63v.01h-40.83l.92-4.9c.89-4.73 1.52-9.24 1.88-13.52.36-4.19.43-8.08.19-11.63-.7-10.42-6.03-18.68-11.73-23.01-1.81-1.39-3.62-2.32-5.25-2.75-1.23-.32-2.26-.34-2.99 0h-.01zM118.6 214.62c4.36 0 7.89 3.53 7.89 7.89 0 4.36-3.53 7.9-7.89 7.9-4.37 0-7.9-3.54-7.9-7.9s3.53-7.89 7.9-7.89z"/></svg>