<?xml version="1.0" encoding="utf-8"?><svg version="1.1" id="Layer_1" xmlns="http://www.w3.org/2000/svg" xmlns:xlink="http://www.w3.org/1999/xlink" x="0px" y="0px" viewBox="0 0 122.88 92.65" style="enable-background:new 0 0 122.88 92.65" xml:space="preserve"><style type="text/css">.st0{fill-rule:evenodd;clip-rule:evenodd;}</style><g><path class="st0" d="M81.73,0c12.2,0,22.11,9.89,22.11,22.11c0,12.2-9.89,22.11-22.11,22.11c-12.2,0-22.11-9.89-22.11-22.11 C59.63,9.91,69.52,0,81.73,0L81.73,0z M29.83,79.84V42.91h16.61c7.04,1.26,14.08,5.08,21.12,9.51h12.9 c5.84,0.35,8.9,6.27,3.22,10.16c-4.52,3.32-10.49,3.13-16.61,2.58c-4.22-0.21-4.4,5.46,0,5.48c1.53,0.12,3.19-0.24,4.64-0.24 c7.64-0.01,13.92-1.47,17.77-7.5l1.93-4.51l19.19-9.51c9.6-3.16,16.42,6.88,9.35,13.87c-13.9,10.11-28.15,18.43-42.73,25.15 c-10.59,6.44-21.18,6.22-31.76,0L29.83,79.84L29.83,79.84z M0,39.37h24.83v44.18H0V39.37L0,39.37z M81.74,19.67l3.78-9.23h6.07 l-7.13,14.48v1.27h4.6v3.03h-4.6v4.54l-5.59,0v-4.54h-5.11V26.2h5.11v-1.27l-7.01-14.48h6.08L81.74,19.67L81.74,19.67z"/></g></svg>