<?xml version="1.0" encoding="utf-8"?><svg version="1.1" id="Layer_1" xmlns="http://www.w3.org/2000/svg" xmlns:xlink="http://www.w3.org/1999/xlink" x="0px" y="0px" viewBox="0 0 122.88 118.73" style="enable-background:new 0 0 122.88 118.73" xml:space="preserve"><style type="text/css">.st0{fill-rule:evenodd;clip-rule:evenodd;}</style><g><path class="st0" d="M41.67,53.39L41.67,53.39c-0.24-0.01-0.48-0.01-0.72-0.01c-1.5,0-2.97,0.11-4.41,0.33l0,0 c-1.46,0.22-2.88,0.55-4.26,0.97v0c-1.86,0.58-3.65,1.33-5.33,2.25L40.66,78.5L52.5,55.8l0.02-0.04c-2.61-1.12-5.41-1.88-8.34-2.2 v0C43.35,53.47,42.52,53.41,41.67,53.39L41.67,53.39z M54.2,49.23h49.99c1.34,0,2.56,0.55,3.45,1.44l0,0 c0.88,0.88,1.43,2.11,1.43,3.45l0,0c0,1.34-0.55,2.56-1.43,3.45l0,0l0,0l0,0c-0.89,0.88-2.1,1.43-3.44,1.43H93.55l7.38,27.61 c0.17,0.23,0.3,0.5,0.37,0.8l5.57,19.57l13.51-2.08c1.19-0.18,2.3,0.64,2.48,1.83c0.18,1.19-0.64,2.3-1.83,2.48l-15.41,2.37v0 c-1.07,0.16-2.12-0.49-2.42-1.56l-5.67-19.94H76.21c-3.4,16.36-17.89,28.65-35.26,28.65c-19.89,0-36.01-16.12-36.01-36.01 c0-16.3,10.83-30.07,25.69-34.5L19.61,5.15h-1.69v1.2H3.18C1.43,6.35,0,4.92,0,3.18v0C0,1.43,1.43,0,3.18,0h14.74v0.78h3.39 c1.05,0,1.92,0.74,2.13,1.72l11.44,44.72c1.97-0.34,4-0.51,6.07-0.51C45.63,46.71,50.1,47.6,54.2,49.23L54.2,49.23z M70.13,79.66 l0-0.05c-0.01-0.12-0.03-0.24-0.04-0.36l-0.01-0.12c-0.01-0.12-0.03-0.23-0.04-0.34l-0.02-0.13c-0.02-0.11-0.03-0.22-0.05-0.33 l-0.02-0.13c-0.02-0.12-0.04-0.24-0.06-0.35l-0.01-0.04c-0.07-0.42-0.15-0.84-0.24-1.26l0-0.02c-0.03-0.12-0.05-0.24-0.08-0.36 l-0.02-0.09c-0.03-0.12-0.05-0.23-0.08-0.35l-0.03-0.1c-0.03-0.12-0.06-0.23-0.09-0.35l-0.02-0.09c-0.03-0.12-0.06-0.24-0.1-0.36 l-0.02-0.05c-0.11-0.4-0.23-0.8-0.36-1.2l-0.01-0.02c-0.04-0.11-0.07-0.21-0.11-0.32l-0.05-0.14c-0.03-0.1-0.07-0.2-0.1-0.3 l-0.05-0.14c-0.04-0.1-0.07-0.2-0.11-0.3l-0.04-0.12c-0.04-0.11-0.08-0.21-0.12-0.31l-0.03-0.08c-0.14-0.36-0.3-0.72-0.45-1.08 l-0.03-0.06c-0.05-0.1-0.09-0.2-0.14-0.3l-0.06-0.13c-0.04-0.09-0.09-0.18-0.13-0.27l-0.07-0.14c-0.04-0.09-0.09-0.18-0.13-0.27 l-0.08-0.15c-0.05-0.09-0.09-0.18-0.14-0.26l-0.06-0.11c-0.17-0.33-0.35-0.65-0.53-0.97l-0.05-0.09c-0.05-0.09-0.1-0.18-0.16-0.27 l-0.08-0.14c-0.05-0.08-0.1-0.17-0.15-0.25l-0.08-0.14c-0.05-0.08-0.1-0.17-0.16-0.25l-0.09-0.14c-0.05-0.08-0.1-0.16-0.16-0.24 l-0.08-0.13c-0.12-0.18-0.23-0.35-0.35-0.52l-0.06-0.08c-0.05-0.07-0.11-0.15-0.16-0.22c-0.04-0.05-0.07-0.1-0.11-0.15 c-0.05-0.07-0.11-0.14-0.16-0.22l-0.11-0.15c-0.05-0.07-0.11-0.14-0.16-0.21l-0.12-0.16L64,64.57l-0.14-0.17 c-0.05-0.06-0.1-0.13-0.15-0.19c-0.05-0.07-0.11-0.13-0.16-0.19c-0.08-0.09-0.15-0.18-0.23-0.27c-0.06-0.07-0.12-0.14-0.18-0.22 l-0.15-0.17c-0.05-0.06-0.11-0.12-0.17-0.19l-0.14-0.15c-0.06-0.06-0.12-0.13-0.18-0.19l-0.15-0.16l-0.17-0.18l-0.16-0.16 c-0.06-0.06-0.12-0.12-0.18-0.19L61.71,62c-0.07-0.07-0.15-0.14-0.22-0.22c-0.07-0.06-0.13-0.13-0.2-0.19 c-0.08-0.08-0.16-0.15-0.24-0.23c-0.05-0.04-0.1-0.09-0.14-0.13c-0.06-0.06-0.13-0.12-0.19-0.18l-0.16-0.15 c-0.06-0.06-0.13-0.11-0.19-0.17l-0.15-0.13c-0.07-0.06-0.14-0.12-0.21-0.18l-0.15-0.13c-0.07-0.06-0.15-0.12-0.22-0.18l-0.14-0.12 c-0.11-0.09-0.23-0.18-0.34-0.27l-0.01-0.01l0,0l-0.02-0.02c-0.11-0.09-0.23-0.18-0.35-0.27l-0.12-0.09 c-0.09-0.07-0.18-0.13-0.27-0.2l-0.13-0.09c-0.08-0.06-0.17-0.12-0.26-0.19l-0.14-0.1c-0.09-0.06-0.18-0.13-0.27-0.19l-0.11-0.08 c-0.1-0.07-0.2-0.13-0.3-0.2l-0.1-0.07c-0.25-0.16-0.5-0.32-0.75-0.48l-0.03,0.05L44.39,80.63l25.76-0.11l0.04,0 C70.18,80.23,70.16,79.95,70.13,79.66L70.13,79.66z M65.61,56.48h38.58c0.65,0,1.25-0.27,1.67-0.69l0-0.01 c0.43-0.43,0.69-1.02,0.69-1.67l0,0c0-0.65-0.27-1.24-0.7-1.67l0,0l0,0c-0.43-0.43-1.02-0.69-1.67-0.69H59.32 C61.59,53.09,63.7,54.68,65.61,56.48L65.61,56.48z M70.21,84.82l-0.03,0l-25.43,0.11l13.6,21.4 C65.06,101.38,69.58,93.64,70.21,84.82L70.21,84.82z M54.7,108.63L41.02,87.1l-11.75,22.53c3.58,1.56,7.53,2.42,11.69,2.42 C45.92,112.05,50.6,110.81,54.7,108.63L54.7,108.63z M25.46,107.63l11.83-22.66l-25.57,0.11C12.47,94.6,17.78,102.84,25.46,107.63 L25.46,107.63z M11.68,80.78l25.24-0.11l-13.6-21.4C16.7,64.26,12.26,71.99,11.68,80.78L11.68,80.78z"/></g></svg>