<svg xmlns="http://www.w3.org/2000/svg" viewBox="0 0 122.88 92.65"><path d="M0 39.37h24.83v44.18H0V39.37zM81.73 0c12.2 0 22.11 9.89 22.11 22.11 0 12.2-9.89 22.11-22.11 22.11-12.2 0-22.11-9.89-22.11-22.11C59.63 9.91 69.52 0 81.73 0zm13.92 22.9h-4.48l-1.89 8.9h-4.84l-2.09-8.9h-1l-2.05 8.9h-4.82l-1.89-8.9h-4.77v-2.72h4.2l-.33-1.56h-3.86V15.9h3.29l-.74-3.49H75l.64 3.49h3.48l.76-3.5h3.96l.78 3.5h3.51l.64-3.5h4.63l-.74 3.5h3v2.72h-3.58l-.33 1.56h3.91v2.72h-.01zm-8.81 0h-.68l.37 1.67.31-1.67zm-9.26 0h-.67l.3 1.67.37-1.67zm-1.16-2.72h1.76l.34-1.56h-2.39l.29 1.56zm9.14 0h1.77l.29-1.56h-2.41l.35 1.56zM29.83 79.84V42.91h16.61c7.04 1.26 14.08 5.08 21.12 9.51h12.9c5.84.35 8.9 6.27 3.22 10.16-4.52 3.32-10.49 3.13-16.61 2.58-4.22-.21-4.4 5.46 0 5.48 1.53.12 3.19-.24 4.64-.24 7.64-.01 13.92-1.47 17.77-7.5l1.93-4.51 19.19-9.51c9.6-3.16 16.42 6.88 9.35 13.87-13.9 10.11-28.15 18.43-42.73 25.15-10.59 6.44-21.18 6.22-31.76 0l-15.63-8.06z" fill-rule="evenodd" clip-rule="evenodd"/></svg>