<svg xmlns="http://www.w3.org/2000/svg" viewBox="0 0 122.88 92.65"><path d="M0 39.37h24.83v44.18H0V39.37zM81.73 0c12.2 0 22.11 9.89 22.11 22.11 0 12.2-9.89 22.11-22.11 22.11-12.2 0-22.11-9.89-22.11-22.11C59.63 9.91 69.52 0 81.73 0zM71.12 26.69h5.12v-2.56h-5.12v-3.74h5.12v-9.73h8.16c1.56 0 2.95.29 4.15.86 1.2.58 2.13 1.4 2.79 2.46.66 1.06.99 2.27.99 3.62 0 1.99-.71 3.59-2.14 4.78-1.43 1.19-3.39 1.79-5.88 1.79h-3.15v2.52h7.59v3.74h-7.59v3.14h-4.93v-3.14h-5.12v-3.74h.01zm10.05-6.33h3.23c.96 0 1.68-.24 2.19-.72.5-.48.75-1.16.75-2.03 0-.95-.26-1.72-.78-2.29-.51-.57-1.21-.86-2.1-.87h-3.29v5.91zM29.83 79.84V42.91h16.61c7.04 1.26 14.08 5.08 21.12 9.51h12.9c5.84.35 8.9 6.27 3.22 10.16-4.52 3.32-10.49 3.13-16.61 2.58-4.22-.21-4.4 5.46 0 5.48 1.53.12 3.19-.24 4.64-.24 7.64-.01 13.92-1.47 17.77-7.5l1.93-4.51 19.19-9.51c9.6-3.16 16.42 6.88 9.35 13.87-13.9 10.11-28.15 18.43-42.73 25.15-10.59 6.44-21.18 6.22-31.76 0l-15.63-8.06z" fill-rule="evenodd" clip-rule="evenodd"/></svg>