<svg xmlns="http://www.w3.org/2000/svg" shape-rendering="geometricPrecision" text-rendering="geometricPrecision" image-rendering="optimizeQuality" fill-rule="evenodd" clip-rule="evenodd" viewBox="0 0 363 511.48"><path d="M95.09 209.98h38.48c3.42 0 6.21-2.78 6.21-6.2v-82.49c0-3.42-2.79-6.21-6.21-6.21H95.09c-3.41 0-6.2 2.79-6.2 6.21v82.49c0 3.42 2.79 6.2 6.2 6.2zm63.23 207.03c-.24-.13-.57-.3-.81-.49-3.35-2.65-6.99-5.62-10.13-8.17-4.59-3.77-9.88-8.13-13.6-11.2-2.51-2.07-5.42-3.52-8.12-4.09-7.22-1.32-8.38 3.94-8 10.07.19 2.91 1.21 6.05 2.51 9.12 1.96 4.47 4.65 8.62 6.69 11.27.13.19.24.31.32.49L167 480.89c.51.75.82 1.57.88 2.39.82 6.55 2.19 11.52 4.23 14.6 1.5 2.27 3.4 3.41 5.84 3.33h62.67c3.91-.07 7.43-1.19 10.7-3.44 3.6-2.46 6.8-6.31 9.77-11.46.06-.06.13-.19.19-.25 1.12-1.94 2.64-4.46 4.09-6.87 6.35-10.45 11.88-19.57 12.51-32.54l-.38-17.86c-.07-.24-.06-.49-.06-.75 0-.27 0-1.96.06-4.21.13-11.83.32-26.43-10.51-28.26h-6.98c-.06 3.34-.26 6.74-.44 10-.19 2.96-.38 5.73-.37 8.43 0 2.9-2.32 5.22-5.22 5.22-2.89 0-5.21-2.32-5.21-5.22 0-2.71.18-5.86.38-9.12.7-11.13 1.52-23.91-7.37-25.48h-6.93c-.38 0-.76-.07-1.12-.14.05 4.04-.19 8.17-.44 12.22-.19 2.97-.38 5.73-.37 8.44 0 2.89-2.32 5.21-5.22 5.21-2.89 0-5.21-2.32-5.21-5.21 0-2.72.19-5.87.38-9.13.7-11.13 1.52-23.9-7.37-25.48h-6.93c-.49 0-.93-.07-1.39-.2v20.32c0 2.89-2.32 5.22-5.21 5.22-2.9 0-5.22-2.33-5.22-5.22l-.04-54.56c0-24.55-27.77-25.26-27.82.25v95.58c0 2.9-2.33 5.22-5.22 5.22-2.89 0-5.21-2.32-5.21-5.22V417l-.14.01zm48.84-62.04c.43-.12.88-.19 1.39-.19h7.24c.38 0 .82.06 1.2.12 9.63 1.5 13.97 7.1 15.73 14.41.69-.31 1.44-.51 2.2-.51h7.25c.39 0 .83.06 1.2.11 10.38 1.64 14.54 8 16.05 16.05.25-.07.5-.06.82-.06h7.24c.39 0 .83.06 1.21.12 19.89 3.09 19.62 22.84 19.43 38.76v4.15l.44 18.39v.56c-.75 15.66-6.91 25.79-14.03 37.5-1.19 1.96-2.38 3.96-4.01 6.74-.07.05-.07.11-.14.19-3.71 6.48-7.99 11.44-12.89 14.85-4.97 3.44-10.51 5.22-16.55 5.28l-62.67.03c-6.22.12-11.07-2.57-14.66-7.93-2.89-4.27-4.79-10.32-5.78-17.86l-39.01-55.76-.19-.19c-2.32-3.08-5.48-7.94-7.87-13.27-1.76-4.02-3.08-8.37-3.4-12.64-.3-5.11.38-9.12 1.81-12.34 1.77-3.96 4.65-6.55 8.11-7.94 3.22-1.31 6.86-1.5 10.51-.74 4.42.87 8.94 3.08 12.77 6.29 3.15 2.64 8.44 6.91 13.6 11.13l4.28 3.52v-72.55c0-39.3 48.82-38.73 48.86-.19v24.03l-.14-.06zM181.5 0c50.11 0 95.49 20.32 128.34 53.16C342.68 86.01 363 131.39 363 181.5c0 50.12-20.32 95.49-53.16 128.34a182.128 182.128 0 0 1-56.52 38.39c-2.32-.92-4.85-1.65-7.57-2.18l-2.72-.49-2.27-2.49c-3.62-3.6-7.99-6.47-13.25-8.41v-.6c25.49-7.68 48.29-21.57 66.64-39.91 28.82-28.83 46.65-68.66 46.65-112.65 0-43.99-17.83-83.82-46.65-112.65C265.32 40.03 225.49 22.2 181.5 22.2c-43.99 0-83.82 17.83-112.65 46.65C40.03 97.68 22.2 137.51 22.2 181.5c0 43.99 17.83 83.82 46.65 112.65 19.34 19.34 43.63 33.72 70.81 41.1v22.9c-33.32-7.86-63.09-24.9-86.5-48.31C20.32 276.99 0 231.61 0 181.5S20.32 86.01 53.16 53.16C86.01 20.32 131.38 0 181.5 0zm-.87 267.03c.87 4.42 3.15 7.26 6.27 8.7 2.54 1.17 5.48 1.29 8.56.48 2.67-.7 5.47-2.12 8.16-4.17 7.27-5.53 14.09-15.97 14.96-29.02.26-4.01.19-8.31-.19-12.86-.25-3.01-.64-6.16-1.16-9.47h30.95l.14-.01c5.03-.2 9.91-1.42 14.01-3.58 3.54-1.85 6.54-4.4 8.62-7.57 2.14-3.26 3.31-7.14 3.14-11.57-.13-3.29-1.01-6.86-2.8-10.66 1.02-4.29 1.49-8.88.83-12.91-.55-3.43-1.88-6.47-4.28-8.73.12-5.67-.63-10.41-2.16-14.52-1.56-4.22-3.91-7.73-6.92-10.83-.26-2.71-.7-5.31-1.39-7.74-.86-3.04-2.1-5.84-3.85-8.3h-.01c-5.28-7.44-9.5-7.27-16.18-7-.93.04-1.93.08-3.49.08h-60.55c-5.44 0-9.72.79-13.64 2.74-3.86 1.93-7.16 4.92-10.69 9.33l-.9 2.57v70.61l3.07.83c7.81 2.11 13.95 8.79 18.72 16.77 4.9 8.22 8.35 17.84 10.7 25.62v20.42l.08.79zm9.73 1.2c-.67-.3-1.21-1.09-1.54-2.41v-20.59l-.17-1.18c-2.5-8.33-6.23-18.88-11.73-28.08-5.15-8.65-11.87-16.07-20.59-19.5v-63.01c2.4-2.84 4.6-4.77 7.01-5.97 2.66-1.33 5.8-1.87 9.95-1.87h60.55c1.08 0 2.49-.05 3.81-.11 3.96-.16 6.46-.26 9.14 3.52v.02c1.17 1.64 2.01 3.58 2.63 5.76.66 2.31 1.04 4.88 1.23 7.63l1.27 2.72c2.67 2.52 4.71 5.36 6 8.85 1.33 3.6 1.91 7.94 1.59 13.35l-.15 2.46 2.09 1.29c1.42.88 2.2 2.56 2.53 4.6.53 3.26-.03 7.26-1.05 10.97l.33 2.98c1.68 3.21 2.49 6.08 2.58 8.59.1 2.61-.57 4.87-1.81 6.75-1.3 1.98-3.21 3.59-5.51 4.81-2.99 1.56-6.58 2.46-10.34 2.62v-.01h-40.84l.93 4.89c.89 4.74 1.52 9.25 1.88 13.53.36 4.2.42 8.08.18 11.63-.69 10.42-6.03 18.68-11.73 23.02-1.81 1.38-3.61 2.31-5.24 2.74-1.23.33-2.27.34-3 0zm-71.77-122.81c4.36 0 7.89-3.53 7.89-7.89 0-4.36-3.53-7.9-7.89-7.9-4.36 0-7.89 3.54-7.89 7.9s3.53 7.89 7.89 7.89z"/></svg>