<svg xmlns="http://www.w3.org/2000/svg" viewBox="0 0 122.88 92.65"><path d="M0 39.37h24.83v44.18H0V39.37zM81.73 0c12.2 0 22.11 9.89 22.11 22.11 0 12.2-9.89 22.11-22.11 22.11-12.2 0-22.11-9.89-22.11-22.11C59.63 9.91 69.52 0 81.73 0zm-1.87 10.81v2.94l6.35-2.02c.39-.12.35-.09.35.29v2.69c0 .26.05.28-.2.36l-6.51 2.07v1.54l6.71-2.13v3.39l-6.71 2.13v7.96c4.05.02 7.57-3.03 8.08-7.49.08-.66-.1-.72.58-.72h2.19c1.21 0 1.08.82 1.03 1.88-.18 3.86-3.64 8.12-8.64 9.59-2.04.6-4.17.53-6.28.5-1.13-.01-1.08-.05-1.08-1.17v-9.3l-3.33 1.11c-.7.23-.7.39-.7-.37v-2.22c0-.53-.08-.53.42-.7l3.62-1.2V18.4l-3.62 1.2c-.5.17-.41.16-.41-.36v-2.5c0-.47.01-.4.46-.55L75.73 15v-4.29c0-.31-.05-.31.26-.31h3.58c.38.01.29.05.29.41zM29.83 79.84V42.91h16.61c7.04 1.26 14.08 5.08 21.12 9.51h12.9c5.84.35 8.9 6.27 3.22 10.16-4.52 3.32-10.49 3.13-16.61 2.58-4.22-.21-4.4 5.46 0 5.48 1.53.12 3.19-.24 4.64-.24 7.64-.01 13.92-1.47 17.77-7.5l1.93-4.51 19.19-9.51c9.6-3.16 16.42 6.88 9.35 13.87-13.9 10.11-28.15 18.43-42.73 25.15-10.59 6.44-21.18 6.22-31.76 0l-15.63-8.06z" fill-rule="evenodd" clip-rule="evenodd"/></svg>