<svg xmlns="http://www.w3.org/2000/svg" shape-rendering="geometricPrecision" text-rendering="geometricPrecision" image-rendering="optimizeQuality" fill-rule="evenodd" clip-rule="evenodd" viewBox="0 0 510 511.76"><path d="M255 0c15.34 0 29.24 6.23 39.29 16.28 10.06 10.05 16.28 23.95 16.28 39.3 0 5.11-.69 10.06-1.98 14.76l121.04 94.01c.73.57 1.38 1.2 1.96 1.87h39.82c10.56 0 20.21 4.35 27.21 11.33l.05.05c7 7.03 11.33 16.66 11.33 27.22v268.36c0 10.62-4.34 20.27-11.33 27.26-6.98 6.98-16.64 11.32-27.26 11.32H38.53c-10.57 0-20.18-4.33-27.16-11.29a38.329 38.329 0 0 1-11.32-27.2L0 204.82c0-10.62 4.34-20.29 11.32-27.27 6.99-6.98 16.65-11.33 27.27-11.33h39.82c.58-.67 1.23-1.3 1.96-1.87l121.04-94c-1.29-4.7-1.99-9.66-1.99-14.77 0-15.35 6.23-29.25 16.28-39.3C225.76 6.22 239.65 0 255 0zM93.38 277.72c-6.07 0-10.99-4.93-10.99-10.99 0-6.07 4.92-10.99 10.99-10.99h323.24c6.07 0 10.99 4.92 10.99 10.99 0 6.06-4.92 10.99-10.99 10.99H93.38zm0 72.27c-6.07 0-10.99-4.92-10.99-10.99s4.92-10.99 10.99-10.99h323.24c6.07 0 10.99 4.92 10.99 10.99s-4.92 10.99-10.99 10.99H93.38zm48.5 72.27c-6.07 0-10.99-4.92-10.99-10.99 0-6.06 4.92-10.99 10.99-10.99h226.25c6.07 0 10.99 4.93 10.99 10.99 0 6.07-4.92 10.99-10.99 10.99H141.88zm247-256.04-93.42-72.55-1.17 1.2c-10.05 10.06-23.95 16.28-39.29 16.28-15.35 0-29.24-6.22-39.3-16.28l-1.16-1.2-93.41 72.55h267.75zm82.53 24.43H38.59c-3.89 0-7.44 1.6-10.01 4.16a14.171 14.171 0 0 0-4.15 10.01v268.45c-.05 3.82 1.56 7.35 4.15 9.94 2.53 2.55 6.06 4.13 9.95 4.13h432.88c3.88 0 7.44-1.6 10-4.16 2.57-2.57 4.16-6.12 4.16-10V204.82c0-3.93-1.58-7.47-4.12-10.01l-.04-.04a14.1 14.1 0 0 0-10-4.12zM255 32.07c6.49 0 12.37 2.63 16.62 6.88a23.46 23.46 0 0 1 6.88 16.63c0 6.49-2.63 12.36-6.88 16.62A23.436 23.436 0 0 1 255 79.08c-6.49 0-12.37-2.63-16.62-6.88-4.26-4.26-6.89-10.13-6.89-16.62s2.63-12.38 6.89-16.63A23.436 23.436 0 0 1 255 32.07z"/></svg>