<?xml version="1.0" encoding="utf-8"?><svg version="1.1" id="Layer_1" xmlns="http://www.w3.org/2000/svg" xmlns:xlink="http://www.w3.org/1999/xlink" x="0px" y="0px" viewBox="0 0 84.34 122.88" style="enable-background:new 0 0 84.34 122.88" xml:space="preserve"><style type="text/css">.st0{fill-rule:evenodd;clip-rule:evenodd;}</style><g><path class="st0" d="M3.42,122.88c3.35-12.72,7.72-16.33,16.84-23.88c1.35-1.11,2.8-2.32,4.2-3.5c0.03-0.02,0.06-0.05,0.09-0.07 c0.31-0.4,0.52-0.67,0.73-0.93c1.04-1.32,1.9-2.41,2.59-3.86c-4.38-2.35-8.46-5.86-11.95-10.61c-2.46,0.62-14.05,5.13-13.95,1.01 C0.54,72.01-0.29,62.94,0.09,53.8c0.44-10.47,2.78-26.55,8.57-35.67C12.8,11.63,17.96,7,24.02,4.04C30.04,1.1,36.94-0.17,44.6,0.02 c6.58,0.16,12.96,1.79,18.63,5.05c5.3,3.04,9.98,7.49,13.64,13.46c1.35,2.21,2.51,4.52,3.49,6.95c3.54,8.75,3.87,18.27,3.98,27.62 c0.04,3.63-0.23,26.6-2.37,28.1c-1.81,1.28-5.81-3.96-9.53-5.38c-4.05,6.58-9.34,11.5-15.2,14.6c0.53,1.52,1.26,2.68,2.17,4.11 l0.39,0.62c12.08,5.46,17.49,15.48,21.03,27.74h-4.08c-3.07-10.13-7.64-18.85-17.51-23.68c-1.49,1.86-3.23,3.42-5.13,4.66 c-3.63,2.38-7.87,3.61-12.1,3.62c-4.24,0.01-8.47-1.21-12.08-3.72c-0.69-0.48-1.36-1.01-2.01-1.59c-0.87-0.73-1.69-1.54-2.47-2.41 c-0.98,0.82-1.87,1.55-2.71,2.25c-8.18,6.76-12.23,10.11-15.28,20.87L3.42,122.88L3.42,122.88L3.42,122.88z M28.54,47.61 c2.28,0,4.13,1.85,4.13,4.13c0,2.28-1.85,4.13-4.13,4.13c-2.28,0-4.13-1.85-4.13-4.13C24.41,49.46,26.26,47.61,28.54,47.61 L28.54,47.61z M55.8,47.61c2.28,0,4.13,1.85,4.13,4.13c0,2.28-1.85,4.13-4.13,4.13s-4.13-1.85-4.13-4.13 C51.67,49.46,53.52,47.61,55.8,47.61L55.8,47.61z M29.32,68.29c8.36,0,16.72,0,25.09,0c2.33-0.09,2.93,1.14,2.15,2.84 c-7.51,12.72-29.4,6.04-29.1-0.21C27.52,69.76,28.01,68.39,29.32,68.29L29.32,68.29z M65.19,46.06c0.59,0.79,0.43,1.91-0.36,2.5 c-0.79,0.59-1.91,0.43-2.5-0.36c-1.43-1.91-2.96-2.92-4.57-3.3c-1.64-0.39-3.43-0.14-5.29,0.48c-0.94,0.31-1.95-0.19-2.26-1.13 c-0.31-0.94,0.19-1.95,1.13-2.26c2.45-0.83,4.88-1.14,7.23-0.58C60.98,41.99,63.21,43.42,65.19,46.06L65.19,46.06z M22.01,48.2 c-0.59,0.79-1.71,0.95-2.5,0.36c-0.79-0.59-0.95-1.71-0.36-2.5c1.98-2.65,4.22-4.08,6.61-4.64c2.35-0.56,4.78-0.25,7.23,0.58 c0.94,0.31,1.44,1.33,1.13,2.26c-0.31,0.94-1.33,1.44-2.26,1.13c-1.85-0.63-3.64-0.87-5.29-0.48C24.97,45.28,23.43,46.3,22.01,48.2 L22.01,48.2z M31.3,70.75h21.75C50.96,74.44,32.81,74.53,31.3,70.75L31.3,70.75z M52.37,86.24c0.44-0.2,0.89-0.41,1.35-0.63 c0.06-0.03,0.12-0.05,0.17-0.07c6.65-3.33,12.52-9.45,16.21-17.88c1.3-2.97,1.89-5.66,2.15-8.35c0.78-8.28,0.06-19.46,0.06-28.05 c-6.79,1.05-9.63-3.5-10.88-10.28c-13.88,12.66-30.05,15.45-48.17,9.85c0,8.5-0.68,19.17-0.01,27.39c0.2,2.48,0.69,5,1.75,7.78 C22.86,86.56,38.95,92,52.37,86.24L52.37,86.24L52.37,86.24z M31.43,92.27c-0.83,1.78-1.85,3.07-3.08,4.63 c0.71,0.92,1.48,1.75,2.31,2.48c0.15,0.12,0.3,0.24,0.45,0.36c3.21,2.48,6.96,3.76,10.72,3.81c3.75,0.06,7.52-1.11,10.75-3.52 c1.27-0.95,2.46-2.09,3.53-3.41L56.1,96.6c-1-1.58-1.83-2.88-2.45-4.55C46.45,94.86,38.65,95.03,31.43,92.27L31.43,92.27 L31.43,92.27z"/></g></svg>