<?xml version="1.0" encoding="utf-8"?><svg version="1.1" id="Layer_1" xmlns="http://www.w3.org/2000/svg" xmlns:xlink="http://www.w3.org/1999/xlink" x="0px" y="0px" viewBox="0 0 122.88 76.38" style="enable-background:new 0 0 122.88 76.38" xml:space="preserve"><g><path d="M26.09,40.5c-2.61,0.64-5.06,1.35-7.33,2.11C8.44,46.1,2.08,50.73,2.1,55.68v0.02c0.04,4.99,6.56,9.59,17.07,13 c10.86,3.52,25.86,5.66,42.42,5.58l0.66,0c16.4-0.13,31.19-2.43,41.86-6.04c10.32-3.49,16.69-8.12,16.66-13.07l0-0.02 c-0.04-4.99-6.56-9.59-17.07-13c-2.15-0.7-4.46-1.34-6.92-1.92v17.98c0,0.52-0.38,0.96-0.88,1.04 c-11.04,2.39-22.31,3.71-33.81,3.77c-11.5,0.06-23.23-1.14-35.18-3.78c-0.49-0.11-0.82-0.54-0.82-1.03h0V40.5L26.09,40.5z M69.23,3.34H57.2c-7.89,0-14.87,3.16-19.89,8.26c-5.1,5.17-8.2,12.35-8.2,20.25v14.62c11.27,2.41,22.32,3.51,33.16,3.46 c10.82-0.05,21.44-1.26,31.88-3.46V28.72c0-7.04-2.74-13.43-7.27-18.04C82.43,6.15,76.25,3.34,69.23,3.34L69.23,3.34z M96.79,38.07 c2.69,0.62,5.22,1.32,7.56,2.08c11.38,3.69,18.46,8.96,18.53,14.95l0,0.03v0.01v0l0,0.02c0.03,5.96-6.88,11.28-18.1,15.07 c-10.87,3.67-25.89,6.01-42.51,6.14h0l-0.66,0c-16.79,0.08-32.02-2.1-43.07-5.68C7.15,67.01,0.08,61.73,0,55.74l0-0.03l0-0.01v0 v-0.02c-0.03-5.96,6.88-11.28,18.1-15.07c2.46-0.83,5.14-1.6,7.99-2.28v-6.93c0-8.69,3.39-16.58,8.99-22.29 C40.6,3.49,48.26,0,56.91,0h12.3c7.76,0,14.61,3.13,19.55,8.18c5,5.12,8.03,12.21,8.03,20.01V38.07L96.79,38.07z"/></g></svg>