<?xml version="1.0" encoding="utf-8"?><svg version="1.1" id="Layer_1" xmlns="http://www.w3.org/2000/svg" xmlns:xlink="http://www.w3.org/1999/xlink" x="0px" y="0px" viewBox="0 0 122.88 101.9" style="enable-background:new 0 0 122.88 101.9" xml:space="preserve"><style type="text/css"><![CDATA[
	.st0{fill-rule:evenodd;clip-rule:evenodd;}
]]></style><g><path class="st0" d="M3.34,0h116.2c1.84,0,3.34,1.5,3.34,3.34v76.98c0,1.84-1.5,3.34-3.34,3.34H3.34C1.5,83.66,0,82.16,0,80.32 V3.34C0,1.5,1.5,0,3.34,0L3.34,0L3.34,0L3.34,0z M22.69,20.82h11.72v13.26h12.84V20.82h11.78V58.8H47.26V43.42H34.42V58.8H22.69 V20.82L22.69,20.82z M65.22,20.82h17.45c3.43,0,6.21,0.47,8.33,1.4c2.12,0.94,3.87,2.27,5.25,4.01c1.38,1.75,2.38,3.78,3,6.09 c0.63,2.32,0.94,4.77,0.94,7.36c0,4.06-0.46,7.21-1.39,9.44c-0.92,2.24-2.2,4.11-3.85,5.62c-1.64,1.51-3.4,2.52-5.29,3.03 c-2.57,0.69-4.91,1.03-6.99,1.03H65.22V20.82L65.22,20.82z M76.95,29.41v20.74h2.88c2.46,0,4.21-0.27,5.25-0.81 c1.04-0.55,1.85-1.49,2.44-2.85c0.59-1.36,0.88-3.55,0.88-6.6c0-4.02-0.65-6.77-1.97-8.26c-1.32-1.49-3.5-2.23-6.55-2.23H76.95 L76.95,29.41z M46.29,88.27h30.3c0.08,5.24,2.24,9.94,8.09,13.63H38.2C42.88,98.51,46.31,94.39,46.29,88.27L46.29,88.27 L46.29,88.27L46.29,88.27z M7.16,4.37h108.56c1.63,0,2.95,1.33,2.95,2.95v65.21c0,1.62-1.33,2.95-2.95,2.95H7.16 c-1.62,0-2.95-1.33-2.95-2.95V7.32C4.2,5.7,5.53,4.37,7.16,4.37L7.16,4.37L7.16,4.37L7.16,4.37z"/></g></svg>