<?xml version="1.0" encoding="utf-8"?><svg version="1.1" id="Layer_1" xmlns="http://www.w3.org/2000/svg" xmlns:xlink="http://www.w3.org/1999/xlink" x="0px" y="0px" viewBox="0 0 122.88 83.06" style="enable-background:new 0 0 122.88 83.06" xml:space="preserve"><g><path d="M2.08,0H120.8h2.08v2.08v69.2v2.08h-2.08H77.57v4.55h16.61v5.15H28.55v-5.15h16.61v-4.55H2.08H0v-2.08V2.08V0H2.08L2.08,0 L2.08,0z M22.89,17.78h11.66v13.19h12.77V17.78h11.72v37.79H47.33V40.26H34.55v15.31H22.89V17.78L22.89,17.78z M65.2,17.78h17.36 c3.41,0,6.18,0.47,8.29,1.39c2.1,0.93,3.85,2.26,5.22,3.99c1.37,1.74,2.37,3.76,2.98,6.06c0.63,2.3,0.93,4.74,0.93,7.32 c0,4.04-0.46,7.17-1.38,9.39c-0.92,2.23-2.19,4.09-3.83,5.6c-1.64,1.5-3.39,2.51-5.26,3.01c-2.56,0.69-4.88,1.03-6.96,1.03H65.2 V17.78L65.2,17.78z M76.86,26.33v20.64h2.87c2.45,0,4.19-0.27,5.22-0.81c1.03-0.54,1.84-1.49,2.43-2.83 c0.59-1.35,0.88-3.54,0.88-6.56c0-4-0.65-6.74-1.96-8.22s-3.48-2.22-6.52-2.22H76.86L76.86,26.33z M118.73,4.15H4.15V69.2h114.57 V4.15H118.73L118.73,4.15z"/></g></svg>