<svg id="Layer_1" data-name="Layer 1" xmlns="http://www.w3.org/2000/svg" viewBox="0 0 122.83 122.88"><title>hdmi-cable</title><path d="M60.63,17.1l2.13,2.13L80.23,1.76a6.08,6.08,0,0,1,8.56,0L121.07,34a6.08,6.08,0,0,1,0,8.56L103.6,60.07l2.18,2.18a4.23,4.23,0,0,1,1.24,3,2.53,2.53,0,0,1,0,.28,4.17,4.17,0,0,1-1.23,2.72L55,119a13.21,13.21,0,0,1-18.64,0l-8.56-8.57-5.33,5.33a7.1,7.1,0,0,1-10,0l-.37-.36-5.49,5.49c-.86.86-2.49.61-3.65-.55s-1.41-2.79-.55-3.65l5.49-5.49-.51-.51a7,7,0,0,1,0-9.83l5.44-5.43L3.85,86.52a13.22,13.22,0,0,1,0-18.65L54.63,17.1a4.18,4.18,0,0,1,3-1.24h0a4.23,4.23,0,0,1,3,1.24ZM37.47,68.15l-3-3.05,3-2.69.73-.76L36.56,60l-1.43-1.34-3.46,3.67-3-3,9.66-9.66,3,3-3.75,3.56,1.48,1.54,1.4,1.34,3.59-3.73,3,3.05-9.66,9.66ZM53,64.26a6.13,6.13,0,0,1,2.12,4.43,6.44,6.44,0,0,1-2.2,4.48,7.81,7.81,0,0,1-5.3,2.64,7.09,7.09,0,0,1-5.19-2.42q-1.56-1.55-3.51-3.78l3-2.68,6.67-7L53,64.26Zm-7.78,7.48a1.71,1.71,0,0,0,1.63.5,5.09,5.09,0,0,0,2.21-1.47,11.2,11.2,0,0,0,1.56-1.87,2.36,2.36,0,0,0,.43-1.38,2,2,0,0,0-.63-1.19,14.66,14.66,0,0,0-1.18-1.06L45,69.36l-.9,1a17.3,17.3,0,0,0,1.18,1.42ZM59.32,90,56.7,87.37l2.85-3,2.27-2.6-.18-.18-6,2.9-2.26-2.25,3.17-5.74-.18-.18L54,78.26l-3.36,3.07-2.49-2.5,10.6-8.72,3.45,3.45-1.1,1.66-2.65,4.36.18.18L63,77.3l1.82-1.14,3.41,3.4L59.32,90Zm4.18,4.17-3-3,9.66-9.66,3,3-9.7,9.61ZM94.13,35.26a2.08,2.08,0,0,1,2.94-2.94l3.54,3.54a2.08,2.08,0,1,1-2.94,2.93l-3.54-3.53Zm-10-10A2.08,2.08,0,0,1,87,22.27l3.54,3.54a2.08,2.08,0,0,1-2.94,2.93l-3.53-3.53Zm6.41-14.7L72.32,28.69,94.19,50.56l18.18-18.18L90.5,10.51Zm-21,15.35L87.67,7.68l-2.4-2.4a1.06,1.06,0,0,0-1.52,0L66.33,22.69l3.16,3.17Zm45.71,9.35L97,53.39l3.11,3.11,17.42-17.42a1.07,1.07,0,0,0,0-1.52l-2.35-2.35Zm-75.32,80.3a8.24,8.24,0,0,0,11.61,0l50.26-50.26L57.63,21.13,7.36,71.39A8.24,8.24,0,0,0,7.36,83l32.52,32.51Z"/></svg>