<svg id="Layer_1" data-name="Layer 1" xmlns="http://www.w3.org/2000/svg" viewBox="0 0 122.88 97.18"><defs><style>.cls-1{fill-rule:evenodd;}</style></defs><title>headquarter</title><path class="cls-1" d="M39.53,6.85H83.35a2.57,2.57,0,0,1,2.56,2.56V41.85a2.57,2.57,0,0,1-2.56,2.56H39.53A2.57,2.57,0,0,1,37,41.85V9.41a2.57,2.57,0,0,1,2.56-2.56ZM33.45,94H89.18V3.17H33.45V94Zm58.9,0h27.36V38.09H92.35V94ZM30.28,94V38.09H3.17V94ZM1.59,97.18A1.59,1.59,0,0,1,0,95.59V37.25a2.32,2.32,0,0,1,2.33-2.33h28V2.79a2.77,2.77,0,0,1,.82-2h0a2.75,2.75,0,0,1,2-.82H89.56a2.75,2.75,0,0,1,2,.82l.12.13a2.78,2.78,0,0,1,.7,1.84V34.92h28.2a2.31,2.31,0,0,1,1.64.68h0a2.31,2.31,0,0,1,.68,1.64V95.59a1.59,1.59,0,0,1-1.59,1.59ZM99.5,75.65h12.57c.15,0,.27.1.27.19V81c0,.1-.13.19-.27.19H99.5c-.14,0-.27-.08-.27-.19V75.84c0-.1.12-.19.27-.19Zm-88.82,0H23.26c.15,0,.27.09.27.19V81c0,.1-.13.19-.27.19H10.68c-.14,0-.26-.08-.26-.19V75.84c0-.1.12-.19.26-.19ZM99.5,64.35h12.57c.15,0,.27.09.27.19v5.17c0,.09-.13.19-.27.19H99.5c-.14,0-.27-.09-.27-.19V64.54c0-.11.12-.19.27-.19ZM99.5,53h12.57c.15,0,.27.09.27.19V58.4c0,.1-.13.19-.27.19H99.5c-.14,0-.27-.08-.27-.19V53.23c0-.1.12-.19.27-.19ZM10.68,64.35H23.26c.15,0,.27.09.27.19v5.17c0,.1-.13.19-.27.19H10.68c-.14,0-.26-.09-.26-.19V64.54c0-.11.12-.19.26-.19Zm0-11.31H23.26c.15,0,.27.09.27.19V58.4c0,.1-.13.19-.27.19H10.68c-.14,0-.26-.08-.26-.19V53.23c0-.1.12-.19.26-.19Zm62,17.42H82a.28.28,0,0,1,.27.27v9.34a.27.27,0,0,1-.27.26H72.7a.27.27,0,0,1-.27-.26V70.73a.27.27,0,0,1,.27-.27Zm-16.05,0H66a.28.28,0,0,1,.27.27v9.34a.27.27,0,0,1-.27.26H56.65a.27.27,0,0,1-.27-.26V70.73a.27.27,0,0,1,.27-.27Zm-16,0h9.33a.28.28,0,0,1,.27.27v9.34a.27.27,0,0,1-.27.26H40.6a.27.27,0,0,1-.27-.26V70.73a.27.27,0,0,1,.27-.27ZM72.7,52.34H82a.27.27,0,0,1,.27.26v9.34a.27.27,0,0,1-.27.27H72.7a.27.27,0,0,1-.27-.27V52.6a.27.27,0,0,1,.27-.26Zm-16.05,0H66a.27.27,0,0,1,.27.26v9.34a.27.27,0,0,1-.27.27H56.65a.27.27,0,0,1-.27-.27V52.6a.27.27,0,0,1,.27-.26Zm-16,0h9.33a.27.27,0,0,1,.27.26v9.34a.27.27,0,0,1-.27.27H40.6a.27.27,0,0,1-.27-.27V52.6a.27.27,0,0,1,.27-.26Zm13.21-20v-6H50.44v6h-6V15.14h6V21.5h3.37V15.14h6V32.38Zm16.39.34q-4.29,0-6.21-2.1c-1.28-1.4-1.92-3.68-1.92-6.86S62.7,18.3,64,16.9s3.34-2.09,6.24-2.09,5,.7,6.28,2.09,1.93,3.78,1.93,7.15-.82,5.73-2.47,7.1L78,34.21l-4.53,2.24L71,32.69a6.45,6.45,0,0,1-.75,0Zm-2.26-9a7.58,7.58,0,0,0,.48,3.13,1.79,1.79,0,0,0,1.8,1,1.72,1.72,0,0,0,1.75-1,8.58,8.58,0,0,0,.42-3.15A8.48,8.48,0,0,0,72,20.61a1.73,1.73,0,0,0-1.75-1,1.8,1.8,0,0,0-1.8,1,7.56,7.56,0,0,0-.48,3.12Z"/></svg>