<?xml version="1.0" encoding="utf-8"?><svg version="1.1" id="Layer_1" xmlns="http://www.w3.org/2000/svg" xmlns:xlink="http://www.w3.org/1999/xlink" x="0px" y="0px" viewBox="0 0 113.42 122.88" style="enable-background:new 0 0 113.42 122.88" xml:space="preserve"><g><path d="M5.76,82.29c0.19-0.3,0.49-0.5,0.82-0.57c0.33-0.07,0.68-0.02,0.99,0.17c0.3,0.19,0.5,0.49,0.57,0.82 c0.07,0.33,0.02,0.68-0.17,0.99l-5.55,8.71c-0.19,0.3-0.49,0.5-0.82,0.57c-0.33,0.07-0.68,0.02-0.99-0.17 C0.3,92.62,0.1,92.32,0.03,92c-0.07-0.33-0.02-0.68,0.17-0.99L5.76,82.29L5.76,82.29z M46.25,112.84c0.02,0.56,0.02,1.12,0,1.69 c-0.02,0.66-0.06,1.32-0.13,1.97c-0.08,0.85-0.2,1.69-0.35,2.52c-0.15,0.84-0.34,1.67-0.56,2.48c-0.13,0.49-0.45,0.89-0.86,1.12 c-0.4,0.23-0.89,0.32-1.38,0.19l-0.05-0.01c-0.48-0.14-0.87-0.45-1.1-0.86c-0.23-0.4-0.32-0.89-0.19-1.38l0.01-0.04 c0.2-0.73,0.36-1.46,0.49-2.18c0.13-0.73,0.24-1.46,0.31-2.19c0.04-0.44,0.07-0.89,0.09-1.34c0.01-0.28,0.02-0.57,0.02-0.85 c-0.99,0.27-1.97,0.52-2.94,0.74c-1.18,0.27-2.35,0.51-3.48,0.71c-2.22,0.4-4.37,0.64-6.37,0.7c-1.93,0.06-3.73-0.06-5.34-0.36 c-1.27-0.24-2.42-0.6-3.44-1.08c-0.99-0.47-1.86-1.07-2.58-1.8c-0.79-0.8-1.38-1.74-1.75-2.82c-0.35-1.03-0.5-2.19-0.42-3.49 c0.06-0.94,0.25-1.95,0.57-3.04c0.3-1.01,0.72-2.1,1.27-3.26c-0.12-0.6-0.24-1.21-0.34-1.82c-0.11-0.65-0.21-1.32-0.3-2.01 c-0.1-0.76-0.18-1.51-0.24-2.25c-0.06-0.74-0.11-1.5-0.14-2.28l0-0.07l-0.02-0.09c-0.01-0.04-0.01-0.08-0.02-0.13 c-0.09-0.97-0.16-1.93-0.2-2.89c-0.03,0.14-0.09,0.27-0.17,0.4l-4.15,6.45c-0.2,0.31-0.5,0.5-0.82,0.57 c-0.33,0.07-0.68,0.02-0.99-0.18c-0.31-0.2-0.5-0.5-0.57-0.82c-0.07-0.33-0.02-0.68,0.18-0.99l4.15-6.45c0.2-0.3,0.5-0.5,0.82-0.57 c0.33-0.07,0.68-0.02,0.99,0.18c0.26,0.17,0.44,0.41,0.53,0.68l-0.02-0.56c-0.05-1.37-0.06-2.75-0.08-4.14l-0.01-0.66 c-1.45-0.09-2.93-0.14-4.37-0.26c-0.55-0.02-1.07-0.11-1.56-0.26l-0.02-0.01c-0.5-0.16-0.97-0.38-1.39-0.65l-0.02-0.01 c-0.4-0.26-0.76-0.58-1.07-0.93c-0.32-0.36-0.59-0.76-0.81-1.2c-0.21-0.43-0.37-0.89-0.48-1.39c-0.1-0.48-0.15-0.98-0.14-1.51 c0.02-0.77,0.16-1.59,0.44-2.43c0.27-0.79,0.65-1.6,1.18-2.42l4.6-9.41c1.14-2.32,1.7-3.64,1.96-4.67 c0.26-1.01,0.23-1.76,0.18-2.97l0-0.02c-0.04-1.08-0.1-2.48-0.03-4.56c0.04-1.25,0.13-2.47,0.28-3.64 c0.15-1.18,0.35-2.34,0.62-3.46c0.21-0.86,0.45-1.7,0.74-2.5c0.24-0.68,0.51-1.35,0.82-2l-8.38-3.66c-0.47-0.2-0.81-0.58-0.98-1.02 c-0.17-0.44-0.18-0.95,0.03-1.41c0.03-0.07,0.06-0.13,0.09-0.18l0.02-0.03c0.03-0.05,0.06-0.1,0.09-0.14 c9.37-12.77,19.3-21.2,29.19-26.17c11.22-5.64,22.36-6.83,32.52-4.82c5.47,1.08,10.64,3.08,15.39,5.82 c4.94,2.85,9.41,6.48,13.25,10.68c3.79,4.15,6.97,8.85,9.39,13.89c2.37,4.95,4.01,10.23,4.76,15.62 c1.31,9.46-0.07,19.28-4.94,28.35c-4.34,8.1-11.46,15.6-21.9,21.72c-0.16,0.09-0.32,0.16-0.48,0.2c-0.04,0.01-0.08,0.02-0.12,0.03 c0.01,1.3,0.05,2.58,0.13,3.85c0.08,1.37,0.21,2.73,0.37,4.07c0.31,2.54,0.76,4.99,1.34,7.36c0.58,2.38,1.3,4.68,2.14,6.91 c0.18,0.48,0.15,0.98-0.05,1.41c-0.2,0.43-0.55,0.79-1.03,0.97l0,0c-0.48,0.18-0.98,0.15-1.41-0.05c-0.43-0.19-0.79-0.55-0.97-1.03 l0,0c-0.89-2.37-1.66-4.82-2.28-7.34c-0.62-2.52-1.1-5.12-1.43-7.79c-0.32-2.66-0.5-5.41-0.52-8.25c-0.02-2.84,0.13-5.76,0.44-8.78 c0.05-0.51,0.31-0.95,0.67-1.24c0.37-0.3,0.85-0.46,1.35-0.41s0.95,0.31,1.24,0.67c0.3,0.37,0.46,0.85,0.41,1.35 c-0.08,0.8-0.15,1.6-0.21,2.4c-0.04,0.56-0.08,1.11-0.1,1.65c9.14-5.64,15.4-12.42,19.24-19.7c4.39-8.3,5.63-17.24,4.44-25.86 c-0.7-5.03-2.22-9.94-4.44-14.56c-2.25-4.7-5.23-9.09-8.77-12.97c-3.58-3.91-7.74-7.3-12.33-9.95c-4.41-2.54-9.21-4.4-14.29-5.41 C60.2,2.71,50.03,3.78,39.72,8.85c-9.04,4.45-18.18,12-26.88,23.39l7.97,3.48c0.05,0.02,0.1,0.04,0.16,0.07 c0.05,0.02,0.1,0.05,0.16,0.08l0.03,0.02c2.51,0.91,5.47,0.85,8.63,0.31c3.21-0.55,6.62-1.59,9.96-2.6c2.42-0.74,4.8-1.46,7.07-2 c2.28-0.54,4.48-0.89,6.52-0.88c0.12-0.01,0.24-0.01,0.36,0.01c0.12,0.01,0.23,0.04,0.35,0.08c0.49,0.16,0.86,0.5,1.07,0.92 c0.21,0.42,0.27,0.93,0.11,1.41c-1.1,3.32-1.58,6.21-1.56,8.74c0.02,2.51,0.55,4.66,1.47,6.55c0.94,1.9,2.29,3.56,3.97,5.05 c1.69,1.5,3.71,2.82,5.94,4.05l0.01,0c0.44,0.24,0.75,0.64,0.88,1.1c0.13,0.45,0.09,0.96-0.15,1.4l0,0.01 c-0.24,0.44-0.64,0.75-1.1,0.88c-0.45,0.13-0.96,0.09-1.4-0.15c-2.53-1.39-4.83-2.9-6.77-4.65c-1.96-1.76-3.56-3.74-4.69-6.05 c-1.04-2.11-1.68-4.47-1.83-7.13c-0.14-2.5,0.15-5.27,0.95-8.37c-1.43,0.19-2.95,0.52-4.54,0.93c-1.81,0.47-3.69,1.04-5.59,1.62 c-3.43,1.04-6.93,2.11-10.32,2.7c-3.31,0.57-6.52,0.69-9.46-0.1c-0.28,0.58-0.53,1.17-0.75,1.78c-0.26,0.71-0.48,1.45-0.66,2.21 c-0.24,0.98-0.42,2.01-0.55,3.07c-0.13,1.07-0.21,2.16-0.25,3.28c-0.03,0.98-0.03,1.8-0.02,2.5c0.01,0.69,0.03,1.29,0.06,1.81 c0.06,1.57,0.1,2.56-0.22,3.86c-0.31,1.28-0.97,2.84-2.3,5.55l-4.62,9.45c-0.02,0.05-0.04,0.1-0.07,0.14 c-0.02,0.04-0.05,0.08-0.08,0.13c-0.36,0.55-0.62,1.07-0.8,1.57c-0.18,0.52-0.28,0.99-0.28,1.42c0,0.23,0.01,0.45,0.05,0.65 c0.04,0.2,0.1,0.38,0.18,0.54l0.01,0.02c0.07,0.14,0.15,0.26,0.25,0.37c0.1,0.11,0.21,0.21,0.34,0.29c0.15,0.1,0.31,0.17,0.49,0.23 c0.18,0.05,0.38,0.09,0.59,0.1c1.73,0,3.72,0.21,5.47,0.32c0.07-0.02,0.15-0.04,0.23-0.06c0.1-0.02,0.21-0.03,0.32-0.03l0.12,0 c0.02,0,0.04,0,0.06,0l4.92,0.42c0.51,0.04,0.95,0.29,1.26,0.65c0.31,0.36,0.48,0.84,0.43,1.35c-0.04,0.51-0.29,0.95-0.65,1.26 c-0.36,0.31-0.84,0.48-1.35,0.43c-0.95-0.08-1.93-0.12-2.88-0.17l0.01,0.4c0.01,1.11,0.03,2.21,0.06,3.32 c0.03,0.95,0.06,1.9,0.12,2.87c0.58-0.11,1.16-0.19,1.73-0.24c0.72-0.05,1.42-0.05,2.12,0c1.01,0.08,1.99,0.29,2.96,0.62 c0.96,0.33,1.91,0.79,2.82,1.37c0.43,0.28,0.71,0.7,0.81,1.16c0.1,0.46,0.02,0.96-0.25,1.39c-0.28,0.43-0.7,0.71-1.16,0.81 c-0.46,0.1-0.96,0.02-1.39-0.25c-0.65-0.42-1.32-0.74-2.01-0.98l-0.02-0.01c-0.67-0.23-1.36-0.37-2.07-0.43 c-0.58-0.05-1.16-0.04-1.76,0.01c-0.5,0.05-1,0.13-1.52,0.25c0.03,0.42,0.06,0.83,0.1,1.24c0.05,0.51,0.11,1.03,0.18,1.54 c0.09,0.66,0.19,1.35,0.32,2.05c0.12,0.69,0.26,1.38,0.42,2.08l0,0.02c0.05,0.23,0.05,0.47,0.01,0.69 c-0.04,0.23-0.12,0.45-0.24,0.64c-0.52,1.05-0.91,2.01-1.19,2.89c-0.28,0.9-0.44,1.72-0.49,2.46c-0.05,0.76,0.03,1.42,0.21,1.99 c0.19,0.58,0.49,1.08,0.9,1.49c0.43,0.44,0.99,0.81,1.65,1.11c0.7,0.32,1.51,0.56,2.42,0.73c1.38,0.26,2.95,0.35,4.65,0.3 c1.78-0.06,3.71-0.28,5.72-0.64c1.97-0.35,4.07-0.82,6.18-1.4c1.91-0.52,3.83-1.14,5.67-1.86c1.64-0.64,3.22-1.35,4.67-2.14v0 c1.34-0.73,2.57-1.51,3.63-2.37c1.08-0.87,1.88-2,2.5-3.22c0.63-1.24,1.1-2.58,1.54-3.81l0.43-1.2l0.26-0.69 c0.53-1.46,1.26-3.45,2.14-5.3c0.9-1.89,1.98-3.65,3.2-4.59c0.4-0.31,0.9-0.43,1.36-0.37c0.47,0.06,0.92,0.3,1.23,0.7 c0.31,0.4,0.43,0.9,0.37,1.36c-0.06,0.47-0.3,0.92-0.7,1.23c-0.77,0.59-1.56,1.99-2.28,3.56c-0.73,1.6-1.38,3.38-1.85,4.68 c-0.17,0.43-0.32,0.89-0.48,1.33l-0.18,0.5c-0.51,1.44-1.06,3.01-1.85,4.52c-0.81,1.53-1.86,2.99-3.37,4.2 c-1.22,0.97-2.6,1.86-4.1,2.68c-1.61,0.88-3.36,1.67-5.17,2.37c-0.43,0.17-0.87,0.33-1.32,0.49 C46.98,112.59,46.62,112.72,46.25,112.84L46.25,112.84z M75.48,66.24c0.09,0.5-0.03,0.99-0.3,1.38c-0.27,0.39-0.69,0.68-1.19,0.77 c-0.5,0.09-0.99-0.03-1.38-0.3c-0.39-0.27-0.68-0.69-0.77-1.19l0-0.01c-0.1-0.58-0.14-1.14-0.12-1.68 c0.02-0.57,0.11-1.12,0.26-1.64c0.2-0.71,0.51-1.38,0.9-1.98c0.41-0.62,0.9-1.18,1.47-1.66c0.54-0.46,1.15-0.85,1.81-1.16 c0.65-0.31,1.34-0.53,2.06-0.66l0.01,0c0.61-0.11,1.23-0.15,1.85-0.13c0.61,0.03,1.23,0.12,1.83,0.29 c1.66,0.47,2.85,1.12,3.66,1.93c0.84,0.83,1.28,1.81,1.43,2.91c0.13,0.96,0.01,1.96-0.27,2.98c-0.28,1.01-0.71,2.04-1.21,3.1 c-0.44,0.93-1.52,3.18-2.9,5.74c-1.39,2.56-3.09,5.44-4.78,7.62c-2.33,3.01-4.67,5.06-6.58,4.73c-1.92-0.33-3.31-3.01-3.66-9.42 c-0.03-0.51,0.16-0.98,0.48-1.33c0.32-0.35,0.77-0.58,1.28-0.61c0.51-0.03,0.98,0.16,1.33,0.47c0.35,0.32,0.58,0.77,0.61,1.28 c0.16,2.9,0.63,4.16,1.27,4.37c0.59,0.2,1.45-0.57,2.36-1.74c1.56-2.02,3.17-4.74,4.48-7.18c1.32-2.45,2.36-4.61,2.78-5.5 c0.38-0.81,0.71-1.57,0.93-2.26c0.21-0.66,0.3-1.25,0.24-1.73c-0.05-0.33-0.22-0.65-0.57-0.93c-0.39-0.32-0.99-0.61-1.86-0.85 c-0.34-0.09-0.68-0.15-1.01-0.16c-0.35-0.02-0.69,0.01-1.03,0.07c-0.4,0.07-0.78,0.2-1.14,0.37c-0.36,0.17-0.7,0.38-1,0.64 c-0.29,0.25-0.55,0.53-0.75,0.84c-0.2,0.3-0.35,0.63-0.45,0.98c-0.07,0.26-0.12,0.53-0.13,0.82C75.4,65.66,75.42,65.95,75.48,66.24 L75.48,66.24z M38.81,57.11c0.46-0.22,0.97-0.24,1.41-0.08c0.45,0.15,0.84,0.48,1.06,0.94c0.22,0.46,0.24,0.96,0.08,1.41 c-0.15,0.45-0.48,0.84-0.94,1.06c-0.91,0.44-1.83,0.78-2.74,1.01c-0.7,0.18-1.4,0.3-2.09,0.38c0.05,0.1,0.09,0.21,0.13,0.32 c0.11,0.31,0.17,0.65,0.17,1c0,0.83-0.33,1.57-0.88,2.11c-0.54,0.54-1.29,0.88-2.11,0.88c-0.83,0-1.57-0.33-2.11-0.88l-0.02-0.02 c-0.53-0.54-0.85-1.28-0.85-2.09c0-0.41,0.08-0.8,0.23-1.16c0.07-0.16,0.15-0.31,0.24-0.45c-0.51-0.1-1.01-0.22-1.52-0.36 c-0.71-0.19-1.42-0.41-2.12-0.65c-0.48-0.17-0.85-0.51-1.06-0.94c-0.21-0.43-0.25-0.93-0.09-1.41c0.17-0.48,0.51-0.85,0.94-1.06 c0.43-0.21,0.93-0.25,1.41-0.09c0.95,0.33,1.89,0.61,2.81,0.81c0.92,0.21,1.84,0.34,2.75,0.37c0.88,0.03,1.75-0.02,2.64-0.2 C37.04,57.83,37.92,57.54,38.81,57.11L38.81,57.11z M68.24,23.94l6.03,3.85l2.55-14.38c0.04-0.21,0.23-0.35,0.44-0.31 c0.17,0.03,0.3,0.17,0.31,0.33l4.19,22.45c0.04,0.21-0.1,0.4-0.31,0.44c-0.09,0.02-0.18,0-0.25-0.04l-5.96-3.05l-2.16,14.52 c-0.03,0.21-0.22,0.35-0.43,0.32c-0.16-0.02-0.29-0.15-0.32-0.3l-4.7-23.46c-0.04-0.21,0.09-0.41,0.3-0.45 C68.05,23.85,68.16,23.88,68.24,23.94L68.24,23.94z M8.81,86.96c0.19-0.3,0.49-0.5,0.82-0.57c0.33-0.07,0.68-0.02,0.99,0.17 c0.3,0.19,0.5,0.49,0.57,0.82c0.07,0.33,0.02,0.68-0.17,0.99l-5.3,8.31c-0.19,0.3-0.49,0.5-0.82,0.57 c-0.33,0.07-0.68,0.02-0.99-0.17c-0.3-0.19-0.5-0.49-0.57-0.82c-0.07-0.33-0.02-0.68,0.17-0.99L8.81,86.96L8.81,86.96z"/></g></svg>