<?xml version="1.0" encoding="utf-8"?><svg version="1.1" id="Layer_1" xmlns="http://www.w3.org/2000/svg" xmlns:xlink="http://www.w3.org/1999/xlink" x="0px" y="0px" viewBox="0 0 122.88 106.2" style="enable-background:new 0 0 122.88 106.2" xml:space="preserve"><g><path d="M71.23,48.78c0.12-0.55,0.66-0.9,1.21-0.79c0.55,0.12,0.9,0.66,0.79,1.21c-0.29,1.35-0.82,2.47-1.58,3.38 c-0.77,0.92-1.76,1.6-2.96,2.06c-0.53,0.2-1.12-0.06-1.32-0.59c-0.2-0.53,0.06-1.12,0.59-1.32c0.87-0.33,1.58-0.82,2.12-1.46 C70.63,50.62,71.02,49.79,71.23,48.78L71.23,48.78L71.23,48.78z M112.98,84.1l-6.23,1.7l7.33,10.06L98.4,85.57l5.61-1.94 l-6.51-8.65L112.98,84.1L112.98,84.1L112.98,84.1z M115.33,57.46l-4.75,4.83l12.29,4.96l-19.97-0.46l3.98-4.92l-12.46-4.62 L115.33,57.46L115.33,57.46L115.33,57.46z M94.92,94.59l-6.68-1.89l1.59,13.5l-9.41-18.19l6.38,1.16l-2.25-13.4L94.92,94.59 L94.92,94.59L94.92,94.59z M54.74,1.61c-0.11-0.74,0.39-1.44,1.13-1.55c0.74-0.12,1.44,0.39,1.55,1.13 c0.32,2.02,0.4,7.74,0.25,13.37c-0.13,4.9-0.45,9.78-0.94,12.18c-0.9,4.34-2.4,8.58-4.55,11.69c-1.91,2.77-4.33,4.67-7.3,5.05 c-1.88,0.62-3.66,1.33-5.36,2.11c-1.74,0.79-3.38,1.64-4.92,2.5c-3.06,1.72-4.99,3.34-6.8,4.86c-2.84,2.39-5.37,4.53-11.04,6.35 l0,0l-6.06,2.37c-0.09,0.03-0.18,0.06-0.27,0.07v0c-4.59,0.78-6.81,2.07-7.5,3.4c-0.25,0.48-0.26,0.99-0.09,1.46 c0.21,0.59,0.66,1.16,1.27,1.65c1.62,1.31,4.19,2,6.31,1.15c0.09-0.04,0.18-0.06,0.27-0.08l3.31-0.79 c4.39-1.32,5.81-0.94,8.49-0.22c1.02,0.27,2.24,0.6,3.92,0.89c2.03,0.34,3.98,0.42,5.81,0.24c1.82-0.18,3.54-0.62,5.14-1.3 c0.02-0.01,0.05-0.02,0.07-0.03c1.79-0.77,3.13-1.67,4.37-2.5c2.9-1.94,5.36-3.58,11.29-3.25c1,0.06,2.01,0.2,3.03,0.43 c1.01,0.22,2.02,0.52,3.02,0.89c2,0.73,3.51,1.54,4.95,2.3c2.18,1.17,4.17,2.23,7.58,2.68c2.52,0.33,4.9,0.2,6.95-0.38 c1.8-0.51,3.33-1.36,4.46-2.54c1.11-1.15,1.84-2.62,2.08-4.41c0.19-1.47,0.06-3.16-0.48-5.06c-0.35-1.22-0.8-2.43-1.26-3.68 c-0.17-0.46-0.34-0.93-0.54-1.47c-0.01-0.02-0.02-0.04-0.02-0.07c-0.52-1.62-1.16-3.37-1.81-5.12c-1.99-5.38-3.99-10.8-3.63-16.76 c0.47-7.63,1.09-9.96,1.61-11.89c0.63-2.35,1.09-4.06,0.82-15.93C79.85,0.64,80.45,0.02,81.2,0c0.75-0.01,1.37,0.58,1.39,1.33 c0.28,12.27-0.22,14.13-0.91,16.68c-0.49,1.81-1.07,4-1.53,11.34c-0.33,5.4,1.57,10.55,3.47,15.67c0.63,1.69,1.25,3.39,1.84,5.22 c0.16,0.43,0.34,0.93,0.52,1.42c0.49,1.33,0.97,2.62,1.33,3.89c0.64,2.26,0.8,4.32,0.56,6.14c-0.32,2.39-1.31,4.38-2.81,5.94 c-1.48,1.53-3.43,2.63-5.69,3.27c-2.39,0.68-5.14,0.84-8.04,0.46c-3.9-0.52-6.1-1.69-8.51-2.98c-1.34-0.72-2.76-1.47-4.59-2.14 c-0.91-0.33-1.8-0.6-2.68-0.79c-0.86-0.19-1.73-0.32-2.59-0.36c-5.03-0.28-7.14,1.13-9.63,2.79c-1.35,0.9-2.8,1.87-4.81,2.74 c-0.02,0.01-0.05,0.02-0.07,0.03c-1.84,0.79-3.84,1.3-5.95,1.5c-2.08,0.2-4.26,0.12-6.53-0.26c-1.84-0.31-3.11-0.65-4.18-0.94 c-2.21-0.59-3.38-0.91-7.04,0.2v0c-0.03,0.01-0.05,0.02-0.08,0.02l-3.32,0.79c-3.07,1.19-6.68,0.24-8.95-1.59 c-1-0.8-1.75-1.79-2.14-2.85c-0.42-1.17-0.4-2.42,0.24-3.64c1.04-2,3.85-3.84,9.33-4.8l5.93-2.32l0,0 c0.03-0.01,0.06-0.02,0.08-0.03c5.21-1.66,7.57-3.65,10.2-5.87c1.91-1.61,3.96-3.34,7.21-5.16c1.63-0.91,3.33-1.79,5.12-2.61 c1.8-0.82,3.71-1.58,5.77-2.25v0c0.09-0.03,0.18-0.05,0.28-0.06c2.15-0.24,3.99-1.72,5.5-3.91c1.92-2.79,3.29-6.68,4.12-10.69 c0.46-2.25,0.76-6.95,0.89-11.71C55.11,9,55.03,3.48,54.74,1.61L54.74,1.61L54.74,1.61z"/></g></svg>