<svg xmlns="http://www.w3.org/2000/svg" shape-rendering="geometricPrecision" text-rendering="geometricPrecision" image-rendering="optimizeQuality" fill-rule="evenodd" clip-rule="evenodd" viewBox="0 0 223.03 511.12"><path fill-rule="nonzero" d="M165.66 367.12h30.81c4.24-.15 8.14.65 11.58 2.18 14.36 6.39 19.06 26.46 9.83 38.28-13.68 17.46-28.61 32.47-43.53 47.48-14.58 14.67-29.16 29.34-42.12 45.87-11.23 12.89-29.08 13.95-40.67.89-9.47-10.71-21.4-23.15-33.65-35.93-19.05-19.88-38.89-40.57-52.79-58.31-11.87-14.76-1.29-40.48 20.56-40.48l31.55.05v-223.2H26.54c-20.83.72-34.48-23.58-21.42-40.31C20.69 83.73 43.66 59.68 64.78 37.6c9.59-10.03 18.79-19.67 26.88-28.49C96.54 3.27 103.51 0 111.15 0c7.78 0 15.18 3.46 20.3 9.22 9.36 10.59 21.16 22.9 33.27 35.54 19.17 20.01 39.17 40.88 53.17 58.73 13.09 16.7-.56 40.62-21.42 40.62h-30.81v223.01zm29.86 17.86H147.8V126.25h48.67c6.17 0 11.23-6.92 7.39-11.81-13.34-17.02-33.07-37.61-51.98-57.34-12.07-12.6-23.82-24.86-33.74-36.04-4-4.22-9.58-4.61-13.36.12-7.87 8.58-17.29 18.43-27.1 28.69C56.8 71.72 34.07 95.51 19.15 114.6c-3.69 4.71.99 11.85 6.9 11.53 15.09-1.04 33.4-.04 49.04-.04v258.86l-49.41-.02c-7.28.17-9.53 7.98-5.8 12.64 13.24 16.71 32.42 36.73 50.87 55.97 12.22 12.75 24.13 25.18 34.13 36.49 4.75 4.75 8.82 4.2 13.55-.34 13.62-17.32 28.46-32.26 43.3-47.18 14.55-14.64 29.12-29.29 42.05-45.79l-.07-.03.14-.25c3.31-7.43-1.2-11.46-8.33-11.46zm8.37 11.61-.07.01.07-.01zm-.03-.01.03.01c.09-.12.03-.06-.03-.01z"/></svg>