<?xml version="1.0" encoding="utf-8"?><svg version="1.1" id="Layer_1" xmlns="http://www.w3.org/2000/svg" xmlns:xlink="http://www.w3.org/1999/xlink" x="0px" y="0px" viewBox="0 0 122.88 72.49" style="enable-background:new 0 0 122.88 72.49" xml:space="preserve"><g><path d="M12.81,0h97.25c3.52,0,6.73,1.44,9.05,3.76c2.32,2.32,3.76,5.53,3.76,9.05v32.34c0,3.52-1.43,6.75-3.76,9.1 c-2.31,2.32-5.5,3.77-9.05,3.77H23.54L3.81,72.05c-1.08,0.77-2.59,0.52-3.36-0.57c-0.3-0.42-0.45-0.91-0.45-1.4H0V12.81 C0,7.14,1.55,3.94,4.04,2.09C6.49,0.26,9.52,0,12.81,0L12.81,0z M98.53,27.35v5.51c0,2.02-0.1,3.51-0.31,4.45 c-0.2,0.94-0.64,1.82-1.3,2.64c-0.67,0.82-1.52,1.42-2.57,1.82c-1.05,0.39-2.24,0.58-3.6,0.58c-1.52,0-2.8-0.17-3.85-0.5 c-1.05-0.34-1.87-0.84-2.45-1.51c-0.58-0.68-1-1.49-1.25-2.45c-0.25-0.95-0.37-2.39-0.37-4.3v-5.77c0-2.09,0.23-3.73,0.68-4.9 c0.45-1.17,1.27-2.12,2.44-2.83c1.17-0.71,2.68-1.07,4.51-1.07c1.53,0,2.85,0.23,3.96,0.69c1.1,0.46,1.95,1.05,2.55,1.79 c0.6,0.73,1.01,1.49,1.23,2.27C98.42,24.57,98.53,25.76,98.53,27.35L98.53,27.35z M91.7,25.66c0-1.15-0.06-1.88-0.19-2.17 c-0.13-0.3-0.39-0.45-0.8-0.45c-0.41,0-0.68,0.15-0.82,0.45c-0.13,0.3-0.2,1.02-0.2,2.17v10.15c0,1.06,0.07,1.76,0.2,2.08 c0.14,0.32,0.41,0.49,0.8,0.49c0.41,0,0.68-0.14,0.81-0.44c0.13-0.3,0.2-0.93,0.2-1.9V25.66L91.7,25.66z M80.59,14.49v27.45h-7.05 V14.49H80.59L80.59,14.49z M71.08,14.49v27.45h-7.04V14.49H71.08L71.08,14.49z M61.81,31.08h-8.88v4.88c0,1.02,0.07,1.68,0.22,1.97 c0.15,0.29,0.43,0.44,0.86,0.44c0.53,0,0.88-0.2,1.05-0.58c0.18-0.39,0.27-1.15,0.27-2.27v-2.97h6.49v1.67 c0,1.39-0.09,2.46-0.26,3.21c-0.18,0.75-0.59,1.54-1.23,2.39s-1.46,1.49-2.45,1.91c-0.99,0.42-2.23,0.64-3.72,0.64 c-1.45,0-2.72-0.21-3.83-0.63c-1.1-0.42-1.97-0.99-2.59-1.72c-0.62-0.73-1.04-1.53-1.28-2.41c-0.24-0.87-0.36-2.15-0.36-3.82v-6.56 c0-1.97,0.27-3.52,0.8-4.66c0.53-1.13,1.4-2.01,2.61-2.61c1.21-0.61,2.6-0.91,4.18-0.91c1.92,0,3.51,0.36,4.75,1.09 c1.25,0.73,2.13,1.69,2.63,2.9c0.5,1.2,0.75,2.89,0.75,5.07V31.08L61.81,31.08z M54.97,27.44V25.8c0-1.17-0.06-1.91-0.19-2.26 c-0.13-0.34-0.39-0.51-0.78-0.51c-0.49,0-0.79,0.14-0.9,0.43c-0.12,0.29-0.17,1.06-0.17,2.33v1.64H54.97L54.97,27.44z M43.62,14.49 v27.45h-7.15V30.42h-2.08v11.52h-7.15V14.49h7.15v9.82h2.08v-9.82H43.62L43.62,14.49z M110.07,4.83H12.81 c-2.42,0-4.59,0.14-5.91,1.12c-1.28,0.95-2.07,2.95-2.07,6.86v52.6l16.4-11.66c0.42-0.35,0.96-0.56,1.55-0.56h87.29 c2.22,0,4.21-0.9,5.64-2.33c1.45-1.46,2.34-3.48,2.34-5.7V12.81c0-2.19-0.9-4.18-2.35-5.63C114.25,5.73,112.26,4.83,110.07,4.83 L110.07,4.83z"/></g></svg>