<?xml version="1.0" encoding="utf-8"?><svg version="1.1" id="Layer_1" xmlns="http://www.w3.org/2000/svg" xmlns:xlink="http://www.w3.org/1999/xlink" x="0px" y="0px" viewBox="0 0 122.88 101.21" style="enable-background:new 0 0 122.88 101.21" xml:space="preserve"><g><path d="M122.15,88.5l-2.47,3.05l-0.02,0.06c-1.38,4.61-5.24,7.41-11.14,8.71c-5.33,1.18-12.42,1.13-20.91,0.1l0,0 c-0.08-0.01-0.16-0.02-0.24-0.04L9.64,82.31c-3.84-0.76-6.36-2.95-7.89-6.23c-1.38-2.97-1.86-6.81-1.73-11.26l0-0.02 c-0.01-0.14-0.01-0.28,0.01-0.43l0,0c0.55-4.37,1.28-8.63,2.22-12.78c0.93-4.13,2.05-8.1,3.39-11.91 c1.61-4.59,3.42-8.87,5.56-12.79c2.17-3.97,4.67-7.54,7.61-10.66c2.9-3.07,6.15-5.68,9.68-7.85c11.99-7.39,27.06-9.67,41.63-7.71 c14.54,1.95,28.64,8.12,38.73,17.65c3.26,3.08,6.11,6.51,8.43,10.27c0.95,1.54,1.89,3.09,2.72,4.58c0.81,1.45,1.61,2.97,2.38,4.61 c0.31,0.39,0.5,0.89,0.5,1.43v39.83h-0.01c0,0.21-0.03,0.42-0.09,0.63v7.24C122.78,87.53,122.54,88.09,122.15,88.5L122.15,88.5z M29.94,27.36c-0.87,0.91-2.32,0.94-3.23,0.06c-0.91-0.88-0.94-2.32-0.06-3.23c4.21-4.38,9.05-7.83,14.56-10.27 c5.48-2.43,11.63-3.85,18.49-4.19c1.26-0.06,2.33,0.91,2.39,2.18c0.06,1.26-0.91,2.33-2.18,2.39c-6.27,0.31-11.87,1.6-16.86,3.81 C38.09,20.31,33.74,23.42,29.94,27.36L29.94,27.36z M27.34,41.88c2.4,0,4.57,0.97,6.14,2.55c1.57,1.57,2.55,3.74,2.55,6.14 c0,2.4-0.97,4.57-2.55,6.14c-1.57,1.57-3.75,2.54-6.14,2.54c-2.4,0-4.57-0.97-6.14-2.54c-1.57-1.57-2.55-3.75-2.55-6.14 c0-2.4,0.97-4.57,2.55-6.14C22.77,42.85,24.94,41.88,27.34,41.88L27.34,41.88z M30.24,47.67c-0.74-0.74-1.77-1.2-2.9-1.2 s-2.16,0.46-2.9,1.2c-0.74,0.74-1.2,1.77-1.2,2.9c0,1.13,0.46,2.16,1.2,2.9c0.74,0.74,1.77,1.2,2.9,1.2s2.16-0.46,2.9-1.2 c0.74-0.74,1.2-1.77,1.2-2.9C31.44,49.44,30.98,48.41,30.24,47.67L30.24,47.67z M113.91,92.7L4.59,67.53 c0.1,2.64,0.5,4.9,1.31,6.64c0.9,1.95,2.4,3.24,4.66,3.67c0.03,0.01,0.06,0.01,0.09,0.02v0l77.6,18.04 c7.98,0.96,14.53,1.03,19.28-0.03C110.4,95.23,112.56,94.2,113.91,92.7L113.91,92.7z M118.2,80.53L78.46,64.11 c-3.61-0.91-6.36-4.18-7.79-8.03c-0.55-1.48-0.92-3.06-1.07-4.62c-0.15-1.6-0.08-3.19,0.26-4.65c0.67-2.98,2.36-5.45,5.3-6.62 c0.25-0.12,0.53-0.19,0.82-0.21l41-2.8c-0.31-0.59-0.63-1.18-0.96-1.76c-0.9-1.61-1.77-3.05-2.61-4.42 c-2.1-3.4-4.69-6.53-7.68-9.34C96.33,12.78,83.14,7.03,69.52,5.2c-13.59-1.82-27.58,0.26-38.63,7.07c-3.19,1.96-6.13,4.32-8.75,7.1 c-2.68,2.84-4.95,6.09-6.93,9.71c-2.01,3.67-3.73,7.73-5.26,12.11C8.68,44.83,7.6,48.64,6.71,52.6c-0.74,3.3-1.36,6.74-1.86,10.3 l111.39,25.65l1.97-2.43V80.53L118.2,80.53z"/></g></svg>