<?xml version="1.0" encoding="utf-8"?><svg version="1.1" id="Layer_1" xmlns="http://www.w3.org/2000/svg" xmlns:xlink="http://www.w3.org/1999/xlink" x="0px" y="0px" viewBox="0 0 122.88 77.03" style="enable-background:new 0 0 122.88 77.03" xml:space="preserve"><g><path d="M13.62,0h95.65c3.73,0,7.13,1.53,9.6,4l0.02,0.02c2.46,2.47,4,5.87,4,9.6v34.37c0,3.74-1.52,7.18-4,9.67 c-2.45,2.47-5.84,4.01-9.62,4.01H25.01L4.05,76.56c-1.15,0.82-2.75,0.55-3.57-0.6c-0.32-0.45-0.47-0.97-0.47-1.48H0V13.62 C0,9.87,1.53,6.46,4,4C6.46,1.53,9.87,0,13.62,0L13.62,0z M85.07,20.67l-0.13,2.11c0.65-0.86,1.36-1.5,2.14-1.92 c0.78-0.42,1.63-0.63,2.56-0.63c1.13,0,2.11,0.3,2.93,0.91c0.82,0.61,1.33,1.31,1.54,2.1c0.2,0.79,0.31,2.14,0.31,4.04v10.07 c0,2.18-0.13,3.72-0.39,4.64c-0.26,0.92-0.79,1.65-1.59,2.2c-0.8,0.55-1.76,0.82-2.9,0.82c-0.9,0-1.73-0.21-2.5-0.63 c-0.77-0.42-1.47-1.05-2.11-1.89v5.47h-7.26V20.67H85.07L85.07,20.67z M87.15,27.62c0-1.48-0.06-2.37-0.17-2.69 c-0.1-0.31-0.41-0.47-0.9-0.47c-0.49,0-0.79,0.18-0.93,0.54c-0.14,0.36-0.21,1.23-0.21,2.61v9.91c0,1.44,0.07,2.34,0.21,2.7 c0.15,0.36,0.46,0.54,0.95,0.54c0.47,0,0.76-0.17,0.88-0.5c0.12-0.33,0.17-1.13,0.17-2.4V27.62L87.15,27.62z M75.05,15.4v29.17 h-7.49V15.4H75.05L75.05,15.4z M65.2,33.03h-9.44v5.18c0,1.08,0.08,1.78,0.23,2.1c0.16,0.31,0.46,0.47,0.91,0.47 c0.56,0,0.93-0.21,1.12-0.62c0.19-0.42,0.28-1.22,0.28-2.42v-3.16h6.9v1.77c0,1.48-0.09,2.62-0.28,3.41 c-0.19,0.79-0.63,1.64-1.31,2.54c-0.68,0.9-1.56,1.58-2.61,2.03c-1.05,0.45-2.37,0.68-3.95,0.68c-1.54,0-2.89-0.22-4.07-0.67 c-1.17-0.44-2.09-1.05-2.75-1.82c-0.66-0.77-1.11-1.63-1.36-2.56c-0.25-0.93-0.38-2.28-0.38-4.06v-6.98c0-2.09,0.28-3.74,0.85-4.95 c0.57-1.2,1.49-2.13,2.77-2.77c1.29-0.65,2.77-0.97,4.44-0.97c2.04,0,3.72,0.39,5.05,1.16c1.33,0.77,2.26,1.8,2.8,3.08 c0.53,1.27,0.8,3.07,0.8,5.39V33.03L65.2,33.03z M57.94,29.16v-1.75c0-1.24-0.07-2.03-0.2-2.4c-0.14-0.36-0.41-0.54-0.83-0.54 c-0.52,0-0.84,0.15-0.96,0.46c-0.12,0.31-0.18,1.13-0.18,2.48v1.75H57.94L57.94,29.16z M45.87,15.4v29.17h-7.6V32.33h-2.21v12.24 h-7.6V15.4h7.6v10.44h2.21V15.4H45.87L45.87,15.4z M109.26,5.14H13.62c-2.33,0-4.45,0.95-5.99,2.49c-1.54,1.54-2.49,3.66-2.49,5.99 v55.89l17.43-12.39c0.45-0.37,1.02-0.59,1.64-0.59h85.06c2.36,0,4.47-0.95,5.99-2.48c1.54-1.55,2.49-3.7,2.49-6.05V13.62 c0-2.33-0.95-4.45-2.49-5.99l-0.01-0.01C113.72,6.09,111.6,5.14,109.26,5.14L109.26,5.14z"/></g></svg>