<?xml version="1.0" encoding="utf-8"?><svg version="1.1" id="Layer_1" xmlns="http://www.w3.org/2000/svg" xmlns:xlink="http://www.w3.org/1999/xlink" x="0px" y="0px" viewBox="0 0 109.63 122.88" style="enable-background:new 0 0 109.63 122.88" xml:space="preserve"><g><path d="M64.18,71.62c-1.46,6.15-2.11,13.32-2.25,21.19c-0.16,8.71,0.32,18.31,1.05,28.34c0.06,0.89-0.61,1.66-1.5,1.72 c-0.89,0.06-1.66-0.61-1.73-1.5c-0.73-10.06-1.21-19.74-1.05-28.62c0.16-8.63,0.91-16.46,2.63-23.09 c-3.02-2.67-5.18-6.83-6.51-12.43c-1.33,5.6-3.49,9.76-6.51,12.43c1.71,6.63,2.47,14.46,2.63,23.09 c0.16,8.88-0.32,18.56-1.05,28.62c-0.06,0.89-0.84,1.56-1.73,1.5c-0.89-0.06-1.56-0.84-1.5-1.72c0.73-10.03,1.21-19.63,1.05-28.34 c-0.14-7.87-0.8-15.04-2.25-21.19c-6.04,3.1-14.43,1.65-25.32-4.64c-0.77-0.45-1.03-1.43-0.59-2.21c0.45-0.77,1.43-1.03,2.21-0.59 c10.82,6.25,18.63,7.37,23.64,3.69c5.14-3.76,7.68-12.56,7.81-26.02v-0.02l0-0.03V41.8l0-0.03l0,0l0-0.03l0-0.01l0-0.02l0-0.01 l0-0.03l0,0l0-0.02l0-0.01l0-0.02l0-0.01l0-0.01l0-0.01l0-0.02l0-0.01l0-0.02l0.01-0.03l0,0l0.01-0.03l0-0.02l0.01-0.03l0-0.01 l0.01-0.03l0,0l0.01-0.03l0-0.01l0.01-0.01l0-0.01l0.01-0.02l0-0.01l0.01-0.03l0-0.01l0.01-0.02l0.01-0.01l0.01-0.02l0.01-0.01 l0.01-0.02l0.01-0.01l0-0.01l0.01-0.02l0-0.01c0.01-0.02,0.02-0.04,0.04-0.06l0,0l0.02-0.03l0-0.01l0.02-0.03l0-0.01l0.02-0.03l0,0 l0.01-0.02l0,0l0.01-0.02l0.01-0.01l0.01-0.01l0.01-0.01l0.02-0.02l0,0l0.02-0.02l0.01-0.01l0-0.01l0.02-0.02l0,0l0.02-0.02l0,0 l0.02-0.02l0.01-0.01l0.01-0.01l0.02-0.02l0.01-0.01l0.01-0.01l0.02-0.02l0,0l0.02-0.02l0,0l0.02-0.02l0.01,0l0.01-0.01l0.02-0.02 l0,0l0.02-0.02l0.01-0.01l0.01-0.01l0.01-0.01l0.02-0.01l0,0l0.02-0.01l0,0l0.03-0.02l0.01,0l0.03-0.02l0.01,0l0.03-0.02l0,0 c0.02-0.01,0.04-0.02,0.06-0.04l0.01,0l0.02-0.01l0.01,0l0.01-0.01l0.02-0.01l0.01-0.01l0.02-0.01l0.01-0.01l0.02-0.01l0.01,0 l0.03-0.01l0.01,0l0.02-0.01l0.01,0l0.01-0.01l0.01,0l0.03-0.01l0,0l0.03-0.01l0.01,0l0.03-0.01l0.02,0l0.03-0.01l0,0l0.03-0.01 l0.02-0.01l0.01,0l0.02,0l0.01,0l0.02,0l0.01,0l0.02,0l0.01,0l0.02,0l0,0l0.03,0l0.01,0l0.02,0l0.01,0l0.03,0l0,0l0.03,0l0.01,0 l0.03,0l0.01,0l0.01,0h0.03l0.01,0h0.01l0.03,0h0.01l0.02,0l0,0l0.03,0l0.01,0l0.02,0l0.01,0l0.03,0l0,0l0.02,0l0.01,0l0.02,0 l0.01,0l0.01,0l0.01,0l0.02,0l0.01,0l0.02,0.01l0.03,0.01l0,0l0.03,0.01l0.02,0l0.03,0.01l0.01,0l0.03,0.01l0,0l0.03,0.01l0.01,0 l0.01,0.01l0.01,0l0.02,0.01l0.01,0l0.03,0.01l0.01,0l0.02,0.01l0.01,0.01l0.02,0.01l0.01,0.01l0.02,0.01l0.01,0.01l0.01,0 l0.02,0.01l0.01,0c0.02,0.01,0.04,0.02,0.06,0.04l0,0l0.03,0.02l0.01,0l0.03,0.02l0.01,0l0.03,0.02l0,0l0.02,0.01l0.01,0l0.02,0.01 l0.01,0.01l0.01,0.01l0.01,0.01l0.02,0.02l0,0l0.02,0.02l0.01,0.01l0.01,0l0.02,0.02l0,0l0.02,0.02l0,0l0.02,0.02l0.01,0.01 l0.01,0.01l0.02,0.02l0.01,0.01l0.01,0.01L56,40.78l0,0l0.02,0.02l0,0l0.02,0.02l0,0.01l0.01,0.01l0.02,0.02l0,0l0.02,0.02 l0.01,0.01l0.01,0.01l0.01,0.01l0.01,0.02l0,0l0.01,0.02l0,0l0.02,0.03l0,0.01l0.02,0.03l0,0.01l0.02,0.03l0,0 c0.01,0.02,0.02,0.04,0.04,0.06l0,0.01l0.01,0.02l0,0.01l0.01,0.01l0.01,0.02l0.01,0.01l0.01,0.02l0.01,0.01l0.01,0.02l0,0.01 l0.01,0.03l0,0.01l0.01,0.02l0,0.01l0,0.01l0,0.01l0.01,0.03l0,0l0.01,0.03l0,0.01l0.01,0.03l0,0.02l0.01,0.03l0,0l0.01,0.03 l0,0.02l0,0.01l0,0.02l0,0.01l0,0.01l0,0.01l0,0.02l0,0.01l0,0.02l0,0l0,0.03l0,0.01l0,0.02l0,0.01l0,0.03l0,0l0,0.03v0.01l0,0.03 v0.02c0.14,13.46,2.68,22.26,7.81,26.02c5.01,3.67,12.83,2.56,23.64-3.69c0.77-0.45,1.76-0.18,2.21,0.59 c0.45,0.77,0.18,1.76-0.59,2.21C78.6,73.28,70.21,74.72,64.18,71.62L64.18,71.62L64.18,71.62z M48.57,10.3l6.45,4.16L58.09,0 l3.34,22.02l-6.17-3.42l-2.59,14.7L48.57,10.3L48.57,10.3L48.57,10.3z M23.16,29.35l8.04,0.36l-5.37-14.8l15.43,18.02l-7.5,0.38 l5.8,14.68L23.16,29.35L23.16,29.35L23.16,29.35z M72.17,17.94l3.63,7.41l10.68-12.12l-8.62,22.75l-4.04-6.56L63.77,42.04 L72.17,17.94L72.17,17.94L72.17,17.94z M14.42,9.54c0.44-0.77,1.42-1.05,2.19-0.61c0.78,0.44,1.05,1.42,0.61,2.19 c-9.22,16.3-13.99,33.46-14,51.53c-0.01,18.11,4.76,37.18,14.63,57.27c0.39,0.8,0.06,1.76-0.74,2.15c-0.8,0.39-1.76,0.06-2.16-0.74 C4.86,100.79-0.01,81.25,0,62.65C0.01,44,4.93,26.32,14.42,9.54L14.42,9.54z M92.41,11.12c-0.44-0.77-0.16-1.76,0.61-2.19 c0.77-0.44,1.76-0.16,2.19,0.61c9.49,16.79,14.41,34.47,14.42,53.11c0.01,18.6-4.86,38.14-14.96,58.69 c-0.39,0.8-1.36,1.13-2.16,0.74c-0.8-0.39-1.13-1.36-0.74-2.15c9.87-20.09,14.64-39.16,14.63-57.27 C106.4,44.57,101.62,27.42,92.41,11.12L92.41,11.12z"/></g></svg>