<?xml version="1.0" encoding="utf-8"?><svg version="1.1" id="Layer_1" xmlns="http://www.w3.org/2000/svg" xmlns:xlink="http://www.w3.org/1999/xlink" x="0px" y="0px" viewBox="0 0 122.88 88.54" style="enable-background:new 0 0 122.88 88.54" xml:space="preserve"><g><path d="M15.65,0h91.58c4.3,0,8.22,1.76,11.05,4.6c2.84,2.84,4.6,6.75,4.6,11.05v39.5c0,4.3-1.75,8.25-4.59,11.11 c-2.82,2.84-6.72,4.6-11.06,4.6H28.75L4.66,87.99c-1.32,0.94-3.16,0.63-4.1-0.69c-0.37-0.52-0.55-1.11-0.54-1.71H0V15.65 c0-4.31,1.76-8.22,4.6-11.05C7.43,1.76,11.34,0,15.65,0L15.65,0z M92.66,23.76l-2.39,19.87c-0.38,3.15-0.7,5.3-0.95,6.44 c-0.25,1.14-0.68,2.09-1.27,2.83c-0.59,0.75-1.41,1.29-2.47,1.65c-1.05,0.35-2.74,0.53-5.05,0.53h-5.06v-4.41 c1.3,0,2.13-0.06,2.5-0.2c0.37-0.13,0.57-0.42,0.57-0.88c0-0.23-0.18-1.18-0.52-2.87l-4.58-22.97H81l2.74,18.57l1.35-18.57H92.66 L92.66,23.76z M72.44,37.96H61.59v5.95c0,1.24,0.09,2.05,0.27,2.41c0.18,0.36,0.53,0.54,1.05,0.54c0.64,0,1.07-0.24,1.29-0.71 c0.22-0.48,0.33-1.41,0.33-2.78v-3.63h7.93v2.03c0,1.7-0.11,3.01-0.32,3.92c-0.22,0.91-0.72,1.89-1.5,2.92 c-0.78,1.04-1.79,1.82-3,2.34c-1.21,0.52-2.72,0.78-4.54,0.78c-1.77,0-3.33-0.25-4.68-0.77c-1.35-0.51-2.4-1.21-3.16-2.1 c-0.76-0.89-1.27-1.87-1.56-2.95c-0.29-1.07-0.44-2.62-0.44-4.67v-8.02c0-2.4,0.32-4.3,0.97-5.69c0.65-1.38,1.71-2.45,3.19-3.19 c1.48-0.74,3.18-1.11,5.1-1.11c2.35,0,4.28,0.45,5.81,1.34c1.53,0.89,2.6,2.07,3.21,3.54c0.61,1.46,0.92,3.53,0.92,6.2V37.96 L72.44,37.96z M64.09,33.51V31.5c0-1.43-0.08-2.34-0.23-2.76c-0.16-0.42-0.47-0.62-0.95-0.62c-0.59,0-0.96,0.18-1.1,0.53 c-0.14,0.35-0.21,1.3-0.21,2.85v2.01H64.09L64.09,33.51z M50.22,17.7v33.53h-8.73V37.15h-2.54v14.07h-8.73V17.7h8.73v11.99h2.54 V17.7H50.22L50.22,17.7z M107.23,5.9H15.65c-2.68,0-5.11,1.1-6.88,2.86C7,10.53,5.9,12.97,5.9,15.65v64.24l20.03-14.24 c0.51-0.43,1.17-0.68,1.89-0.68h79.41c2.71,0,5.14-1.1,6.88-2.85c1.77-1.78,2.86-4.25,2.86-6.96v-39.5c0-2.67-1.1-5.11-2.87-6.88 C112.34,7,109.91,5.9,107.23,5.9L107.23,5.9z"/></g></svg>