<?xml version="1.0" encoding="utf-8"?><svg version="1.1" id="Layer_1" xmlns="http://www.w3.org/2000/svg" xmlns:xlink="http://www.w3.org/1999/xlink" x="0px" y="0px" viewBox="0 0 122.88 88.46" style="enable-background:new 0 0 122.88 88.46" xml:space="preserve"><style type="text/css">.st0{fill-rule:evenodd;clip-rule:evenodd;}</style><g><path class="st0" d="M15.51,0h91.85c4.27,0,8.15,1.75,10.96,4.56c2.81,2.81,4.56,6.69,4.56,10.96v39.63 c0,4.27-1.73,8.18-4.55,11.02c-2.8,2.81-6.66,4.56-10.96,4.56H28.6L4.38,87.95c-1.24,0.89-2.97,0.59-3.86-0.65 c-0.35-0.49-0.51-1.05-0.51-1.6H0V15.51c0-4.27,1.74-8.15,4.55-10.96C7.37,1.74,11.24,0,15.51,0L15.51,0z M50.19,17.55v33.64h-8.76 V37.07h-2.55v14.12h-8.76V17.55h8.76v12.04h2.55V17.55H50.19L50.19,17.55z M72.48,37.88H61.59v5.98c0,1.25,0.09,2.06,0.27,2.42 c0.18,0.36,0.53,0.54,1.05,0.54c0.64,0,1.08-0.24,1.29-0.72c0.22-0.48,0.33-1.41,0.33-2.79v-3.64h7.95v2.04 c0,1.71-0.11,3.02-0.32,3.93c-0.22,0.91-0.72,1.89-1.51,2.93c-0.79,1.04-1.79,1.82-3.01,2.35c-1.21,0.52-2.73,0.78-4.56,0.78 c-1.77,0-3.34-0.25-4.7-0.77c-1.35-0.51-2.41-1.21-3.17-2.11c-0.76-0.89-1.28-1.88-1.57-2.96c-0.29-1.07-0.44-2.63-0.44-4.69v-8.04 c0-2.41,0.33-4.31,0.98-5.71c0.65-1.39,1.72-2.46,3.2-3.2c1.49-0.74,3.19-1.11,5.12-1.11c2.35,0,4.3,0.45,5.83,1.34 c1.53,0.89,2.61,2.08,3.23,3.55c0.62,1.47,0.92,3.54,0.92,6.22V37.88L72.48,37.88z M64.1,33.41V31.4c0-1.43-0.08-2.35-0.23-2.76 c-0.16-0.42-0.47-0.62-0.96-0.62c-0.6,0-0.96,0.18-1.11,0.53c-0.14,0.35-0.21,1.3-0.21,2.86v2.01H64.1L64.1,33.41z M92.76,23.63 l-2.4,19.94c-0.38,3.16-0.7,5.32-0.96,6.46c-0.26,1.15-0.68,2.1-1.28,2.84c-0.59,0.75-1.42,1.3-2.47,1.65 c-1.06,0.35-2.75,0.53-5.07,0.53H75.5v-4.42c1.3,0,2.14-0.06,2.51-0.2c0.38-0.13,0.57-0.43,0.57-0.88c0-0.23-0.18-1.18-0.52-2.88 l-4.59-23.04h7.61l2.75,18.63l1.35-18.63H92.76L92.76,23.63z"/></g></svg>