<?xml version="1.0" encoding="utf-8"?><svg version="1.1" id="Layer_1" xmlns="http://www.w3.org/2000/svg" xmlns:xlink="http://www.w3.org/1999/xlink" x="0px" y="0px" viewBox="0 0 122.879 101.527" enable-background="new 0 0 122.879 101.527" xml:space="preserve"><g><path d="M9.942,0h102.986c2.727,0,5.213,1.118,7.016,2.918c1.811,1.808,2.936,4.294,2.936,7.023v81.643 c0,2.729-1.123,5.217-2.934,7.026c-1.803,1.799-4.287,2.916-7.018,2.916H9.942c-2.72,0-5.202-1.117-7.009-2.918l-0.024-0.024 C1.113,96.778,0,94.301,0,91.585V9.942c0-2.72,1.117-5.202,2.917-7.009l0.024-0.024C4.749,1.113,7.226,0,9.942,0L9.942,0z M76.02,33.372h10.793v34.802H76.02V33.372L76.02,33.372L76.02,33.372z M36.066,33.372h10.747v12.149h11.766V33.372h10.794v34.802 H58.57V54.079H46.813v14.095H36.066V33.372L36.066,33.372L36.066,33.372z M112.928,7.95H9.942c-0.555,0-1.052,0.219-1.404,0.572 L8.522,8.538C8.169,8.89,7.95,9.387,7.95,9.942v81.643c0,0.555,0.219,1.052,0.572,1.404l0.016,0.016 c0.352,0.353,0.85,0.572,1.404,0.572h102.986c0.561,0,1.066-0.225,1.428-0.587c0.354-0.354,0.574-0.851,0.574-1.405V9.942 c0-0.552-0.221-1.049-0.576-1.403C113.99,8.176,113.484,7.95,112.928,7.95L112.928,7.95z"/></g></svg>