<?xml version="1.0" encoding="utf-8"?><svg version="1.1" id="Layer_1" xmlns="http://www.w3.org/2000/svg" xmlns:xlink="http://www.w3.org/1999/xlink" x="0px" y="0px" viewBox="0 0 122.88 112.92" style="enable-background:new 0 0 122.88 112.92" xml:space="preserve"><g><path d="M19.96,0h82.96c5.49,0,10.48,2.25,14.09,5.86c3.62,3.62,5.86,8.61,5.86,14.09v50.38c0,5.49-2.23,10.52-5.86,14.17 c-3.6,3.62-8.56,5.87-14.1,5.87H36.67L5.94,112.22c-1.69,1.2-4.03,0.81-5.23-0.88c-0.47-0.66-0.7-1.42-0.69-2.18H0v-89.2 C0,11.11,2.41,6.13,6.29,3.25C10.1,0.41,14.83,0,19.96,0L19.96,0z M82.25,22.58v5.57H71.28v-5.57H82.25L82.25,22.58z M82.25,30.3 v35.03H71.28V30.3H82.25L82.25,30.3z M66.14,22.58v42.76H55.01V47.39h-3.24v17.95H40.63V22.58h11.14v15.3h3.24v-15.3H66.14 L66.14,22.58z M102.92,7.53H19.96c-3.78,0-7.15,0.22-9.2,1.75c-1.99,1.48-3.23,4.6-3.23,10.68v81.92l25.55-18.16 c0.65-0.54,1.49-0.87,2.41-0.87h67.44c3.46,0,6.55-1.4,8.78-3.64c2.26-2.27,3.65-5.42,3.65-8.88V19.96c0-3.41-1.4-6.52-3.66-8.77 C109.44,8.93,106.33,7.53,102.92,7.53L102.92,7.53z"/></g></svg>