<svg id="Layer_1" data-name="Layer 1" xmlns="http://www.w3.org/2000/svg" viewBox="0 0 120.15 122.88"><defs><style>.cls-1{fill:#ff1200;fill-rule:evenodd;}.cls-2{fill:#333;}</style></defs><title>high-risk-alert</title><path class="cls-1" d="M59.75,79.33l25.39,39.89c.77,1.2,1.43,3.66,0,3.66H30.7c-1.43,0-.77-2.46,0-3.66L56.09,79.33a2.31,2.31,0,0,1,3.66,0Zm2.82-29.59,36,5.13a.53.53,0,0,1,.49.51l.2,4.37a.55.55,0,0,1-.45.56L63.62,65.79c-4.87.56-8-1.23-9.62-3.81a8.08,8.08,0,0,1-1.17-4.21,8.3,8.3,0,0,1,1.11-4.2c1.48-2.55,4.4-4.32,8.61-3.84ZM55.7,112.3h4.42v3.91H55.7V112.3Zm4.42-2.71H55.7c-.44-5.37-1.36-8.77-1.36-14.14a3.58,3.58,0,0,1,7.16,0c0,5.36-.93,8.78-1.38,14.14Z"/><path class="cls-2" d="M18.9,103.81A59.87,59.87,0,0,1,1.23,72.24,60.94,60.94,0,0,1,0,60.08,60.09,60.09,0,0,1,115.58,37.16a59.47,59.47,0,0,1-5.46,56,61.68,61.68,0,0,1-7.43,9.09.48.48,0,0,1-.68,0l-3-3a.51.51,0,0,1-.16-.11l-8.37-8.37a.48.48,0,0,1,0-.68l4.39-4.39a.48.48,0,0,1,.68,0L102,92.14a54.88,54.88,0,0,0,3.76-5.57A53,53,0,0,0,109,80.08a51.62,51.62,0,0,0,2.9-9.49,52.26,52.26,0,0,0,1-9.43H104a.49.49,0,0,1-.49-.49V54.46A.5.5,0,0,1,104,54h8.57A52.61,52.61,0,0,0,108,37.76a53.61,53.61,0,0,0-9.6-14l-5.73,5.73a.49.49,0,0,1-.69,0l-4.39-4.39a.5.5,0,0,1,0-.68l5.53-5.53a53.15,53.15,0,0,0-14.54-8.31C73.43,8.6,70,7.45,64.3,7.23v7.85a.5.5,0,0,1-.49.49H57.59a.49.49,0,0,1-.49-.49V7.42c-5.7.54-13.25,2-18.28,4.2a52.73,52.73,0,0,0-14.1,9.09l5.74,5.74a.5.5,0,0,1,0,.68l-4.39,4.39a.49.49,0,0,1-.69,0l-5.67-5.67A52.52,52.52,0,0,0,7.28,56.94H16.1a.48.48,0,0,1,.49.49v6.22a.48.48,0,0,1-.49.48H7.33a53.37,53.37,0,0,0,1.32,8.39,52.72,52.72,0,0,0,2.85,8.53,53.9,53.9,0,0,0,3.56,6.83,52.39,52.39,0,0,0,4.18,5.83l7.08-7.08a.51.51,0,0,1,.69,0L31.4,91a.51.51,0,0,1,0,.69c-4,4.05-7.91,7.93-11.82,12.08a.47.47,0,0,1-.68,0Z"/></svg>