<svg id="Layer_1" data-name="Layer 1" xmlns="http://www.w3.org/2000/svg" viewBox="0 0 122.88 93.67"><defs><style>.cls-1{fill-rule:evenodd;}</style></defs><title>high-cost</title><path class="cls-1" d="M81.24,60A19.8,19.8,0,1,1,61.44,40.2,19.78,19.78,0,0,1,81.24,60ZM0,27.72l53.2-.61V19.45H43.14L61.44,0h0l18.3,19.45H69.67v7.48l53.21-.61v66L0,93.67V27.72Zm100,7.79c0,5.74,6.28,12,12,12l0,23.2c-5.74,0-12,6.28-12,12L22.76,84.16c0-5.74-6.27-12-12-12l0-23.2c5.74,0,12.05-6.3,12.05-12L100,35.51ZM60.42,50.07v-1.8a.49.49,0,0,1,.49-.5H63a.5.5,0,0,1,.5.5v1.89h.08a7.17,7.17,0,0,1,1.61.58,6.19,6.19,0,0,1,1.35,1,6.11,6.11,0,0,1,1,1.28l0,0a6.27,6.27,0,0,1,.62,1.56,7.74,7.74,0,0,1,.21,1.84.49.49,0,0,1-.5.49h-4.5a.49.49,0,0,1-.5-.49,4.12,4.12,0,0,0-.11-1v0a1.18,1.18,0,0,0-.26-.49l0,0a1.31,1.31,0,0,0-.37-.26,1.54,1.54,0,0,0-.84,0,.6.6,0,0,0-.23.1h0a1.29,1.29,0,0,0-.17.16.94.94,0,0,0-.12.22,1.49,1.49,0,0,0-.13.65,2,2,0,0,0,0,.36,1.07,1.07,0,0,0,.09.27h0a.89.89,0,0,0,.17.24l0,0a1.25,1.25,0,0,0,.27.23,3.67,3.67,0,0,0,.46.3,6.16,6.16,0,0,0,.63.32c.57.26,1.09.5,1.56.74s1,.51,1.4.77l0,0a6.88,6.88,0,0,1,1.2.88,6.15,6.15,0,0,1,1,1.09,4.29,4.29,0,0,1,.62,1.41,6.41,6.41,0,0,1,.21,1.69,6,6,0,0,1-.22,1.66,4.63,4.63,0,0,1-.64,1.41,5,5,0,0,1-1,1.13,5.47,5.47,0,0,1-1.34.82,7.76,7.76,0,0,1-1.59.49l-.26,0v2.12a.5.5,0,0,1-.5.49H60.64c-.27,0-.5-.62-.5-.89V69.6a8.13,8.13,0,0,1-1-.21,6.61,6.61,0,0,1-1.22-.45,7,7,0,0,1-1.11-.67h0a5.45,5.45,0,0,1-1-.91,5.92,5.92,0,0,1-.75-1.18v0a5.72,5.72,0,0,1-.47-1.43A8.35,8.35,0,0,1,54.47,63a.5.5,0,0,1,.49-.5h4.51a.5.5,0,0,1,.5.5,3.92,3.92,0,0,0,0,.63,2.09,2.09,0,0,0,.11.49h0a1.4,1.4,0,0,0,.17.37,1.34,1.34,0,0,0,.19.26,2,2,0,0,0,.25.2,1.11,1.11,0,0,0,.27.12h0a1.67,1.67,0,0,0,.3.08l.35,0a1.2,1.2,0,0,0,.66-.14.78.78,0,0,0,.2-.16l0,0a1.18,1.18,0,0,0,.11-.19,1.52,1.52,0,0,0,.09-.28,1.55,1.55,0,0,0,0-.31,2.47,2.47,0,0,0,0-.5h0a1.51,1.51,0,0,0-.11-.34v0c0-.08-.1-.16-.16-.24a1.87,1.87,0,0,0-.29-.25h0c-.13-.08-.27-.17-.43-.25a5.74,5.74,0,0,0-.6-.28c-.56-.24-1.1-.49-1.6-.73l0,0c-.5-.24-1-.48-1.39-.72a6.6,6.6,0,0,1-1.23-.87A5.43,5.43,0,0,1,56,58.75l0,0a4.53,4.53,0,0,1-.59-1.38,6.45,6.45,0,0,1-.2-1.7,5.29,5.29,0,0,1,.87-3,4.78,4.78,0,0,1,1-1.13,5.85,5.85,0,0,1,1.34-.84A7.23,7.23,0,0,1,60,50.15l.45-.08Z"/></svg>