<?xml version="1.0" encoding="utf-8"?><svg version="1.1" id="Layer_1" xmlns="http://www.w3.org/2000/svg" xmlns:xlink="http://www.w3.org/1999/xlink" x="0px" y="0px" viewBox="0 0 122.88 114.75" style="enable-background:new 0 0 122.88 114.75" xml:space="preserve"><g><path d="M69.09,20.9l5.46,3.19c0.38-0.79,0.78-1.6,1.19-2.44c1.49-3.05,2.28-4.64,3.05-6.21l2.34-4.76 c0.03-0.07,0.07-0.13,0.11-0.19c1.82-3.03,1.97-5.08,1.34-6.28c-0.2-0.38-0.48-0.66-0.8-0.86C81.44,3.15,81.04,3.03,80.63,3 c-0.97-0.07-1.99,0.35-2.49,1.26l-0.01,0.01L72.18,15.2C71.59,16.29,70.85,17.67,69.09,20.9L69.09,20.9z M61.37,96.13 c2.57,0,4.9,1.04,6.58,2.73c1.68,1.68,2.73,4.01,2.73,6.58c0,2.57-1.04,4.9-2.73,6.58c-1.68,1.68-4.01,2.73-6.58,2.73 s-4.9-1.04-6.58-2.73c-1.68-1.68-2.73-4.01-2.73-6.58c0-2.57,1.04-4.9,2.73-6.58C56.47,97.17,58.8,96.13,61.37,96.13L61.37,96.13z M65.83,100.97c-1.14-1.14-2.72-1.85-4.47-1.85s-3.32,0.71-4.47,1.85c-1.14,1.14-1.85,2.72-1.85,4.47s0.71,3.32,1.85,4.47 c1.14,1.14,2.72,1.85,4.47,1.85s3.32-0.71,4.47-1.85c1.14-1.14,1.85-2.72,1.85-4.47S66.98,102.11,65.83,100.97L65.83,100.97z M104.33,96.99l0.06-0.03l0,0c0.92-0.5,1.57-1.4,1.79-2.57c0.25-1.31-0.02-2.96-1.01-4.82l-0.09-0.16 c-0.02-0.03-0.03-0.06-0.04-0.09c-1.28-2.36-2.19-4.32-2.17-6.25c0.02-2.14,1.1-3.97,3.88-5.73c0.1-0.06,0.2-0.11,0.31-0.15 c4.02-1.7,7.96-0.26,10.92,2.94c1.42,1.53,2.61,3.48,3.46,5.66c0.84,2.16,1.35,4.58,1.43,7.07c0.22,7.19-3.14,15.05-12.64,19.63 c-0.05,0.02-0.1,0.04-0.15,0.06c-2.48,1.04-4.86,1.62-7.15,1.77c-2.34,0.15-4.58-0.14-6.73-0.84 c-10.09-3.29-14.32-12.31-18.32-20.85c-0.15-0.32-0.29-0.62-0.82-1.74l0,0l-1.54-3.24c-0.03-0.05-0.06-0.1-0.08-0.15 c-0.01-0.02-0.02-0.05-0.03-0.07L61.33,58.5c-4.22,8.82-8.37,17.5-12.52,26.18l-2.37,4.96c-0.03,0.08-0.08,0.15-0.13,0.22 l-0.5,1.04l0,0c-0.53,1.12-0.67,1.42-0.82,1.74c-4,8.53-8.23,17.55-18.32,20.85c-2.15,0.7-4.39,0.99-6.73,0.84 c-2.29-0.15-4.67-0.73-7.15-1.77c-0.05-0.02-0.1-0.04-0.15-0.06c-9.5-4.58-12.86-12.45-12.64-19.63c0.08-2.5,0.59-4.91,1.43-7.07 c0.85-2.18,2.04-4.13,3.46-5.66c2.96-3.2,6.9-4.64,10.92-2.94c0.11,0.04,0.21,0.09,0.31,0.15c2.77,1.76,3.85,3.59,3.88,5.73 c0.02,1.93-0.89,3.89-2.17,6.25c-0.01,0.03-0.03,0.06-0.04,0.09l-0.09,0.16c-0.99,1.86-1.26,3.51-1.01,4.82 c0.22,1.17,0.88,2.06,1.79,2.57l0,0l0.06,0.03l0,0c1.64,0.86,3.23,0.6,4.74-0.39c1.77-1.15,3.49-3.24,5.1-5.74 c2.86-4.44,5.9-10.69,8.83-16.71c1.88-3.86,3.71-7.62,5.46-10.85l11.44-21.08c-2.64-5.51-5.8-11.76-8.86-17.83 c-2.13-4.21-4.21-8.34-6.17-12.33c-2.46-4.1-2.5-7.2-1.44-9.22c0.46-0.87,1.12-1.55,1.89-2.02c0.76-0.46,1.61-0.73,2.48-0.79 c2.05-0.16,4.21,0.79,5.33,2.8l0.02,0.04c0.94,1.71,3.44,6.27,6.03,10.99c2.65,4.82,5.38,9.81,8.1,14.79l3.04-5.59 c0.02-0.04,0.03-0.07,0.05-0.11l1.62-2.98c0.29-0.54,0.5-0.93,3.36-6.18l5.95-10.93l0.02-0.04c1.12-2.01,3.28-2.95,5.32-2.79 c0.87,0.07,1.72,0.33,2.48,0.79c0.77,0.47,1.43,1.14,1.89,2.02c1.06,2.02,1.03,5.12-1.42,9.21l-2.33,4.73 c-1.27,2.57-2.52,5.11-3.05,6.19c-0.9,1.84-1.88,3.86-3.01,6.21c-2.19,4.55-4.34,9.03-6.47,13.46l7.55,13.88 c2.19,4.02,4.62,8.89,7.1,13.85c3.44,6.89,6.97,13.95,10.1,19.22c1.7,2.87,3.54,5.34,5.46,6.76 C100.8,97.54,102.54,97.94,104.33,96.99L104.33,96.99L104.33,96.99z M62.87,32.35c-0.02,0.04-0.04,0.09-0.06,0.13l0,0l0,0.01 l-2.98,5.47L45.3,64.73c-1.68,3.1-3.52,6.86-5.39,10.72c-0.48,0.98-0.95,1.96-1.43,2.94l8.22,3.8 c8.86-18.54,17.7-37.03,26.02-54.32l0.52-1.09l-5.57-3.26l-0.46,0.84c-0.02,0.04-0.04,0.07-0.06,0.11L62.87,32.35L62.87,32.35z M37.15,81.07c-2.09,4.2-4.2,8.23-6.25,11.4c-1.82,2.82-3.81,5.21-5.99,6.63c-2.43,1.58-5.03,1.98-7.77,0.52l-0.01-0.01v0 l-0.07-0.04l-0.01-0.01l0,0c-1.7-0.93-2.89-2.55-3.29-4.62c-0.37-1.94-0.03-4.27,1.3-6.77c0.05-0.1,0.09-0.17,0.11-0.21 c0.01-0.03,0.03-0.05,0.04-0.07c1.06-1.96,1.82-3.54,1.8-4.8c-0.01-1.06-0.68-2.06-2.41-3.18c-2.7-1.11-5.42-0.05-7.53,2.23 c-1.16,1.26-2.15,2.87-2.86,4.71c-0.72,1.86-1.17,3.94-1.23,6.08c-0.19,6.15,2.73,12.89,10.96,16.86l0,0 c2.16,0.9,4.22,1.41,6.19,1.53c1.96,0.13,3.83-0.12,5.62-0.7c8.86-2.89,12.81-11.31,16.54-19.27l0.82-1.76l0,0l0,0l0.6-1.25 c0.04-0.09,0.09-0.17,0.15-0.25l1.54-3.23L37.15,81.07L37.15,81.07z M57.21,36.54l2.59-4.77c-1.24-2.28-2.76-5.06-4.4-8.05 l-5.56,3.12c2.12,4.2,4.21,8.38,6.04,12.14L57.21,36.54L57.21,36.54z M85.69,81.12l-8.17,3.86l0.52,1.07 c0.04,0.06,0.07,0.12,0.1,0.18l1.62,3.39l0,0l0,0l0.82,1.76c3.73,7.96,7.68,16.37,16.54,19.27c1.79,0.58,3.66,0.83,5.62,0.7 c1.97-0.13,4.02-0.63,6.19-1.53l0,0c8.23-3.97,11.15-10.71,10.96-16.86c-0.07-2.14-0.51-4.22-1.23-6.08 c-0.72-1.84-1.7-3.46-2.86-4.71c-2.11-2.28-4.83-3.34-7.53-2.23c-1.73,1.11-2.4,2.12-2.41,3.18c-0.01,1.26,0.74,2.84,1.8,4.8 c0.02,0.02,0.03,0.05,0.04,0.07c0.02,0.04,0.06,0.11,0.11,0.21c1.33,2.51,1.67,4.84,1.3,6.77c-0.4,2.08-1.6,3.69-3.29,4.62l0,0 l-0.01,0.01l-0.07,0.04l0,0l-0.01,0.01c-2.98,1.58-5.76,1.01-8.34-0.89c-2.3-1.69-4.38-4.47-6.27-7.65 C89.42,88.22,87.57,84.78,85.69,81.12L85.69,81.12z M76.21,82.29l8.11-3.83c-1.13-2.23-2.27-4.51-3.4-6.77 c-2.45-4.91-4.86-9.73-7.06-13.76l-6.49-11.92c-0.7,1.46-1.49,3.13-2.29,4.79c-0.12,0.25-0.33,0.69-2.08,4.34L76.21,82.29 L76.21,82.29z M48.49,24.16l5.47-3.07l-3.18-5.8c-1.66-3.03-3.32-6.05-6.03-11l-0.01-0.02c-0.51-0.91-1.53-1.34-2.5-1.27 c-0.41,0.03-0.81,0.15-1.15,0.36c-0.33,0.2-0.61,0.49-0.8,0.86c-0.63,1.2-0.47,3.27,1.37,6.33c0.03,0.04,0.05,0.09,0.08,0.14 c1.74,3.54,3.94,7.9,6.19,12.35L48.49,24.16L48.49,24.16z"/></g></svg>