<svg id="Layer_1" data-name="Layer 1" xmlns="http://www.w3.org/2000/svg" viewBox="0 0 118.43 122.88"><defs><style>.cls-1{fill-rule:evenodd;}</style></defs><title>home-inspection</title><path class="cls-1" d="M11.1,56.77A9,9,0,0,1,5,57.06,7.3,7.3,0,0,1,.05,50.89a9.59,9.59,0,0,1,2.31-7.1h0a2.06,2.06,0,0,1,.33-.33L57.68.53a2,2,0,0,1,2.6-.1L115.4,43.27h0a1.31,1.31,0,0,1,.24.23,9.06,9.06,0,0,1,2.58,8.36,7.78,7.78,0,0,1-1.76,3.35,7.65,7.65,0,0,1-3.12,2.12,8.44,8.44,0,0,1-6.54-.43q0,22.79,0,45.56H85.64c.07-.34.13-.69.19-1a28.14,28.14,0,0,0,.32-2.91H101.4v-44c0-1-37.81-30.86-42-34.11-4.43,3.37-42.93,33-42.93,34.27V98.51h14.4a28.54,28.54,0,0,0,.33,2.88l.06.39c0,.23.08.45.13.68H11.09q0-22.83,0-45.69Zm49.48-16V53.62H72.13v0A13,13,0,0,0,60.58,40.75Zm0,15.59v9.23H72.13V56.34Zm-2.72,9.22V56.34H46.31v9.23H57.86Zm0-11.94V40.75A13,13,0,0,0,46.31,53.59v0ZM59.22,38A15.64,15.64,0,0,1,74.84,53.58v14.7H43.59V53.58A15.65,15.65,0,0,1,59.22,38Zm-.31,38.9A20,20,0,0,1,78.56,97.3a20.38,20.38,0,0,1-.94,5.71,20.06,20.06,0,0,1-2.13,4.57l7.6,8.61a1,1,0,0,1-.08,1.36l-5.81,5.09a1,1,0,0,1-1.35-.09l-7.26-8.3a20.28,20.28,0,0,1-4.64,2,20,20,0,0,1-19.88-5.4l0,0a20,20,0,0,1,14.89-33.9Zm11.14,9a16.19,16.19,0,0,0-5.13-3.58l0,0a16,16,0,0,0-21,8.28l0,0a16.08,16.08,0,0,0-.22,12.19A16.17,16.17,0,0,0,47,108a16,16,0,0,0,5.13,3.57,15.79,15.79,0,0,0,6.09,1.33,16,16,0,0,0,11.41-4.46,16.23,16.23,0,0,0,3.57-5.12,16.09,16.09,0,0,0,.24-12.24,16.06,16.06,0,0,0-3.37-5.26ZM90.36,3.42l16.55.68V26.45L90.36,15.53V3.42Z"/></svg>