<?xml version="1.0" encoding="utf-8"?><svg version="1.1" id="Layer_1" xmlns="http://www.w3.org/2000/svg" xmlns:xlink="http://www.w3.org/1999/xlink" x="0px" y="0px" viewBox="0 0 122.47 122.88" style="enable-background:new 0 0 122.47 122.88" xml:space="preserve"><style type="text/css">.st0{fill-rule:evenodd;clip-rule:evenodd;fill:#1C1C1C;} .st1{fill-rule:evenodd;clip-rule:evenodd;fill:#89BF3F;} .st2{fill-rule:evenodd;clip-rule:evenodd;fill:#4CA71E;}</style><g><path class="st0" d="M53.53,58.56c-0.53-0.12-0.85-0.66-0.73-1.19c0.13-0.53,0.67-0.85,1.19-0.73c1.72,0.43,3.44,0.64,5.16,0.64 c1.71,0,3.42-0.21,5.15-0.64c0.53-0.13,1.07,0.19,1.19,0.72c0.14,0.53-0.19,1.07-0.71,1.19c-1.87,0.48-3.75,0.71-5.62,0.69 C57.27,59.25,55.39,59.02,53.53,58.56L53.53,58.56L53.53,58.56z M74.75,74.07c-1.46-1.57-2.59-3.22-3.72-4.86 c-0.2-0.29-0.4-0.59-0.61-0.89c-2.97,2.35-6.57,3.86-11.26,3.84c-5.06-0.01-8.87-1.95-11.99-4.8c-0.19-0.17-0.37-0.34-0.55-0.52 c-0.45,1.25-1.02,2.73-1.63,4.12c-0.58,1.32-1.2,2.56-1.81,3.46c5.17,10.5,18.4,12.93,26.73,6.66c-2.1,4.17-3.28,8.88-3.28,13.87 c0,4.52,0.97,8.81,2.71,12.68H6.47c-4.07-0.31-6.13-2.41-6.47-6.05c0.99-7.19,1.22-8.65,5.59-14.42c1.54-2.04,3.48-3.56,5.61-4.75 c6.53-3.64,23.73-4.79,30.37-9.87c0.41-0.7,0.84-1.6,1.25-2.54c0.79-1.81,1.52-3.78,1.97-5.13c-1.93-2.27-3.58-4.82-5.16-7.34 l-5.22-8.3c-1.91-2.84-2.9-5.45-2.96-7.58c-0.03-1,0.15-1.92,0.51-2.72c0.39-0.84,0.98-1.55,1.79-2.08 c0.38-0.26,0.8-0.47,1.27-0.64c-0.34-4.5-0.47-10.18-0.25-14.92c0.12-1.13,0.33-2.25,0.64-3.38C44.95-11.5,83.86-1.07,84.52,23.2 L84.2,36.74l0,0c1.44,0.44,2.37,1.36,2.75,2.84c0.41,1.65-0.03,3.96-1.43,7.13l0,0c-0.02,0.06-0.05,0.11-0.09,0.17l-5.94,9.79 c-2.19,3.6-4.4,7.21-7.29,10.05c0.26,0.37,0.52,0.76,0.78,1.13c0.98,1.42,1.95,2.85,3.11,4.17l0,0c0.12,0.11,0.25,0.22,0.38,0.33 C75.87,72.89,75.3,73.47,74.75,74.07L74.75,74.07z M57.84,7.63h2.6c0.49,0,0.88,0.4,0.88,0.88v3.88h3.88 c0.49,0,0.88,0.39,0.88,0.88v2.6c0,0.49-0.4,0.88-0.88,0.88h-3.88v3.88c0,0.49-0.39,0.88-0.88,0.88h-2.6 c-0.49,0-0.88-0.39-0.88-0.88v-3.88h-3.88c-0.49,0-0.88-0.39-0.88-0.88v-2.6c0-0.49,0.39-0.88,0.88-0.88h3.88V8.51 C56.96,8.02,57.35,7.63,57.84,7.63L57.84,7.63L57.84,7.63L57.84,7.63z M65.37,41.4c-0.43-0.29-0.55-0.87-0.26-1.31 c0.29-0.44,0.87-0.55,1.31-0.26c0.52,0.34,1.4,0.53,2.35,0.51c0.89-0.01,1.78-0.21,2.43-0.62c0.44-0.28,1.02-0.15,1.3,0.29 c0.28,0.44,0.15,1.02-0.29,1.3c-0.94,0.6-2.2,0.89-3.4,0.91C67.49,42.25,66.2,41.96,65.37,41.4L65.37,41.4L65.37,41.4L65.37,41.4z M79.31,35.95c-0.03-1.02-0.39-2-1.05-2.93l-0.03-0.07l-0.01,0.02c-8.44-8.44-34.51-8.62-38.35,5.71l-2.28-0.19l0.17,0.53 l-0.16-0.35c-0.95,0.08-1.68,0.31-2.2,0.66c-0.34,0.23-0.59,0.52-0.76,0.87c-0.18,0.38-0.26,0.86-0.25,1.4 c0.04,1.59,0.88,3.66,2.49,6.06l0.02,0.03l5.22,8.3c13.21,20.94,25.2,15.06,34.85-0.83l5.88-9.68c1.1-2.5,1.49-4.17,1.24-5.16 c-0.14-0.58-0.8-0.87-1.89-0.92c-0.23-0.01-0.48-0.01-0.72-0.01c-0.26,0.01-0.54,0.02-0.82,0.05c-0.03,0-0.06,0-0.09,0.01 L79.31,35.95L79.31,35.95L79.31,35.95z M46.33,41.4c-0.44-0.29-0.55-0.87-0.26-1.31c0.29-0.44,0.87-0.55,1.31-0.26 c0.53,0.35,1.42,0.55,2.39,0.55c0.9,0,1.83-0.2,2.55-0.61c0.45-0.26,1.03-0.1,1.29,0.34c0.26,0.44,0.11,1.03-0.34,1.28 c-1.02,0.59-2.28,0.85-3.49,0.86C48.44,42.28,47.16,41.96,46.33,41.4L46.33,41.4L46.33,41.4L46.33,41.4z M45.94,37.21 c-0.42,0.3-1.01,0.2-1.31-0.22c-0.3-0.42-0.21-1,0.22-1.31c1.4-0.99,2.83-1.49,4.3-1.5c1.46-0.01,2.93,0.49,4.39,1.49 c0.42,0.29,0.53,0.88,0.24,1.31c-0.29,0.43-0.88,0.54-1.31,0.24c-1.14-0.79-2.24-1.17-3.32-1.16 C48.1,36.05,47.02,36.45,45.94,37.21L45.94,37.21L45.94,37.21L45.94,37.21z M66.27,37.21c-0.43,0.3-1.01,0.2-1.31-0.22 c-0.3-0.42-0.2-1,0.22-1.31c1.4-0.99,2.83-1.49,4.3-1.5c1.46-0.01,2.92,0.49,4.39,1.49c0.42,0.29,0.53,0.88,0.24,1.31 c-0.29,0.43-0.88,0.54-1.31,0.24c-1.14-0.79-2.24-1.17-3.32-1.16C68.42,36.05,67.34,36.45,66.27,37.21L66.27,37.21L66.27,37.21 L66.27,37.21z"/><path class="st1" d="M91.68,118.57c0.06,8.71-0.9,1.85-2.37-0.19c-0.14-0.06-0.29-0.13-0.45-0.2c-17.92-8.4-24.13-23.81-5.41-45.08 c4.56,6.62,11.52,12.68,14.98,19.66c4.66-4.38,12.46-6.59,24.04-5.62c-4.47,13.04-2.57,31.48-25.69,29.65 c-0.86-0.06-1.45-0.13-1.87-0.31l0,0c-2.1,1.58-2.96,2.1-3.15,2.03L91.68,118.57L91.68,118.57L91.68,118.57z M98.6,111.95 c9.14-4.28,12.24-15.21,18.49-20.65C105.63,97.22,106.15,100.42,98.6,111.95L98.6,111.95L98.6,111.95L98.6,111.95z M90,112.07 c2.3-11.36-5.66-21.69-6.41-31.16C81.23,95.51,84.54,97.23,90,112.07L90,112.07L90,112.07L90,112.07z"/><path class="st2" d="M98.6,111.95c9.14-4.28,12.24-15.21,18.49-20.65C105.63,97.22,106.15,100.42,98.6,111.95L98.6,111.95 L98.6,111.95L98.6,111.95z M90,112.07c2.3-11.36-5.66-21.69-6.41-31.16C81.23,95.51,84.54,97.23,90,112.07L90,112.07L90,112.07 L90,112.07z"/></g></svg>