<?xml version="1.0" encoding="utf-8"?><svg version="1.1" id="Layer_1" xmlns="http://www.w3.org/2000/svg" xmlns:xlink="http://www.w3.org/1999/xlink" x="0px" y="0px" viewBox="0 0 122.88 99.86" style="enable-background:new 0 0 122.88 99.86" xml:space="preserve"><g><path d="M89.62,8.46c-2.79,12.56-3.94,18.4-6.24,27.43c-2.22,8.7-3.94,16.83-6.9,20.78c-2.96,4.02-6.98,4.84-9.69,5.17 c-1.4,0.17-2.46,0.25-5.5,0.25s-4.11-0.08-5.5-0.25c-2.71-0.33-6.73-1.15-9.69-5.17c-2.96-3.94-4.68-12.07-6.82-20.78 c-2.3-9.12-3.45-14.86-6.24-27.43c0,0-2.79,0.08-4.02,0.16c-1.72,0.08-3.04,0.25-4.43,0.41c0,0,1.64,25.87,2.38,36.87 c0.74,11.5,2.14,30.96,3.37,45.66c0,0,2.38,0.41,6.32,0.58c4.11,0.25,6,0.25,6,0.25c1.72-6.49,3.78-15.44,6.16-19.3 c1.97-3.12,4.93-3.45,6.65-3.7c2.63-0.33,4.93-0.41,5.91-0.41l0,0l0,0c1.07,0,3.28,0,5.91,0.41c1.72,0.25,4.68,0.58,6.65,3.7 c2.38,3.86,4.52,12.81,6.16,19.3c0,0,1.81,0,5.91-0.25c3.94-0.25,6.32-0.58,6.32-0.58c1.23-14.7,2.63-34.08,3.37-45.66 c0.74-10.92,2.38-36.87,2.38-36.87c-1.4-0.16-2.79-0.33-4.43-0.41C92.41,8.54,89.62,8.46,89.62,8.46L89.62,8.46L89.62,8.46z M122.22,23.73C120.58,7.31,109.58,3.86,99.97,2.22C95.12,1.4,86.5,0.74,81,0.49C76.15,0.16,64.82,0,61.37,0 c-3.45,0-14.78,0.16-19.63,0.49c-5.5,0.25-14.13,0.9-18.97,1.72C13.17,3.86,2.16,7.31,0.52,23.73c-0.49,4.52-0.58,10.35-0.49,16.59 C0.19,50.75,1.1,57.73,1.59,62.66c0.33,3.37,1.72,13.39,3.53,18.56c2.46,7.15,4.68,9.2,7.31,11.33c4.76,3.86,12.65,5.09,14.29,5.42 c8.87,1.56,26.77,1.89,34.74,1.89c7.88,0,25.87-0.25,34.74-1.89c1.64-0.33,9.53-1.48,14.29-5.42c2.63-2.13,4.84-4.19,7.31-11.33 c1.81-5.17,3.2-15.27,3.53-18.56c0.49-4.84,1.4-11.91,1.56-22.34C122.8,34,122.63,28.17,122.22,23.73L122.22,23.73L122.22,23.73z M116.15,51.33c-0.99,13.14-2.13,21.02-3.78,26.69c-1.48,5.01-3.29,8.29-5.91,10.68c-4.43,4.02-10.51,4.84-14.12,5.42 c-7.72,1.15-20.78,1.56-30.96,1.56c-10.27,0-23.24-0.41-30.96-1.56c-3.61-0.58-9.69-1.4-14.12-5.42 c-2.63-2.38-4.43-5.75-5.91-10.68C8.73,72.35,7.5,64.46,6.6,51.33C6.02,43.44,6.1,30.63,7.01,23.73 C8.24,13.39,13.33,8.21,24.25,6.32c5.09-0.9,11.99-1.56,18.48-1.89c5.26-0.33,13.8-0.49,18.64-0.49 c4.76-0.08,13.39,0.16,18.56,0.49c6.49,0.33,13.39,0.99,18.48,1.89c10.92,1.97,16.01,7.14,17.33,17.41 C116.64,30.55,116.72,43.36,116.15,51.33L116.15,51.33z"/></g></svg>