<svg id="Layer_1" data-name="Layer 1" xmlns="http://www.w3.org/2000/svg" viewBox="0 0 122.88 59.24"><title>hong-kong-dollar</title><path d="M101.62,53.7l-.61,0q-2-.12-4-.39c-1.32-.17-2.58-.36-3.79-.58s-2.38-.47-3.5-.78v-10c1.47.13,3,.24,4.76.33s3.44.15,5.19.19,3.38.07,4.89.07a16.14,16.14,0,0,0,3.56-.33,4.21,4.21,0,0,0,2.14-1,2.59,2.59,0,0,0,.71-1.94v-.78a2.45,2.45,0,0,0-1-2.14,4,4,0,0,0-2.37-.71h-3.43q-7.52,0-11.41-3.3T88.85,21.19V19.05q0-7.12,4.28-10.66a16.17,16.17,0,0,1,8.49-3.3V0h7V5c.88,0,1.73.11,2.56.2,1.79.2,3.48.43,5.06.72s3,.57,4.24.87v10c-2-.17-4.22-.31-6.71-.42s-4.74-.16-6.77-.16a17.57,17.57,0,0,0-3.24.26,4.08,4.08,0,0,0-2.2,1,3.08,3.08,0,0,0-.78,2.27v.65a3,3,0,0,0,1,2.46,4.92,4.92,0,0,0,3.17.85h4.28a15.14,15.14,0,0,1,7.55,1.71A11.27,11.27,0,0,1,121.36,30a14.48,14.48,0,0,1,1.52,6.71v2.14q0,6.15-2.14,9.39a10.52,10.52,0,0,1-6.09,4.38,29.36,29.36,0,0,1-6,1v5.57h-7V53.7ZM0,53.4V5.25H12.57V23.79H26.83V5.25H39.4V53.4H26.83V35.06H12.57V53.4Zm46.53,0V5.25H59.11V24h5L71.81,5.25H85.16L74.08,29.49,85.74,53.4H72.39L64.1,35.26h-5V53.4Z"/></svg>