<svg id="Layer_1" data-name="Layer 1" xmlns="http://www.w3.org/2000/svg" viewBox="0 0 106.87 122.88"><defs><style>.cls-1{fill-rule:evenodd;}</style></defs><title>hormones</title><path class="cls-1" d="M99.56,101.94a10.75,10.75,0,1,1-6.87,0v-14a10.76,10.76,0,0,1-7.31-10.19,11.05,11.05,0,0,1,.48-3.22L73.67,66A10.74,10.74,0,0,1,61,65.35L49.4,73.48a10.76,10.76,0,1,1-21.13,2.84,11,11,0,0,1,.44-3l-11.14-8A10.75,10.75,0,1,1,7,46.89V36.74c-.19-.17-.38-.34-.57-.53a10.76,10.76,0,0,1,7.61-18.36,10.61,10.61,0,0,1,4.67,1.07l9.76-6a11.09,11.09,0,0,1-.22-2.17,10.76,10.76,0,1,1,21.51,0,10.57,10.57,0,0,1-.27,2.4l10.91,6.63A10.75,10.75,0,1,1,71.2,37.84v8.95A10.77,10.77,0,0,1,78.52,57a10.53,10.53,0,0,1-.62,3.61l12,8.39a10.75,10.75,0,1,1,9.68,18.94v14Zm-75.83-78a10.76,10.76,0,0,1-9.67,15.47h-.17v7.33A10.78,10.78,0,0,1,21.51,57a11,11,0,0,1-.29,2.51l11.43,8.17a10.77,10.77,0,0,1,12.94.14l11.74-8.22A10.58,10.58,0,0,1,57,57a10.75,10.75,0,0,1,7.33-10.19V37.84A10.75,10.75,0,0,1,57,27.64a11,11,0,0,1,.16-1.83L46,19a10.77,10.77,0,0,1-14-.14l-8.21,5Zm15.35-21a7.85,7.85,0,1,0,7.84,7.85,7.84,7.84,0,0,0-7.84-7.85ZM14,20.76a7.85,7.85,0,1,0,7.84,7.85A7.84,7.84,0,0,0,14,20.76ZM39.08,68.48a7.85,7.85,0,1,0,7.84,7.84,7.84,7.84,0,0,0-7.84-7.84ZM10.7,49.14A7.84,7.84,0,1,0,18.54,57a7.84,7.84,0,0,0-7.84-7.84Zm57.09,0A7.84,7.84,0,1,0,75.64,57a7.84,7.84,0,0,0-7.85-7.84Zm0-29.34a7.84,7.84,0,1,0,7.85,7.84,7.84,7.84,0,0,0-7.85-7.84ZM96.17,69.9a7.84,7.84,0,1,1-7.84,7.84,7.84,7.84,0,0,1,7.84-7.84Zm0,34.4a7.85,7.85,0,1,1-7.84,7.84,7.84,7.84,0,0,1,7.84-7.84Z"/></svg>