<?xml version="1.0" encoding="utf-8"?><svg version="1.1" id="Layer_1" xmlns="http://www.w3.org/2000/svg" xmlns:xlink="http://www.w3.org/1999/xlink" x="0px" y="0px" viewBox="0 0 122.88 122.88" style="enable-background:new 0 0 122.88 122.88" xml:space="preserve"><style type="text/css">.st0{fill-rule:evenodd;clip-rule:evenodd;}</style><g><path class="st0" d="M49.93,0h23.01c4.3,0,7.82,3.52,7.82,7.82v34.3h34.3c4.3,0,7.82,3.52,7.82,7.82v23.01 c0,4.3-3.52,7.82-7.82,7.82h-34.3v34.3c0,4.3-3.52,7.82-7.82,7.82H49.93c-4.3,0-7.82-3.52-7.82-7.82v-34.3H7.82 c-4.3,0-7.82-3.52-7.82-7.82V49.93c0-4.3,3.52-7.82,7.82-7.82h34.3V7.82C42.12,3.52,45.63,0,49.93,0L49.93,0z"/></g></svg>