<?xml version="1.0" encoding="utf-8"?><svg version="1.1" id="Layer_1" xmlns="http://www.w3.org/2000/svg" xmlns:xlink="http://www.w3.org/1999/xlink" x="0px" y="0px" viewBox="0 0 122.88 84.86" style="enable-background:new 0 0 122.88 84.86" xml:space="preserve"><style type="text/css">.st0{fill-rule:evenodd;clip-rule:evenodd;}</style><g><path class="st0" d="M21.65,29.92h20.96c3.42,0,6.22,2.79,6.22,6.21v6.22H21.65V29.92L21.65,29.92z M7.36,84.86h5.93 c1.72,0,3.12-1.42,3.12-3.12v-9.35H4.23v9.35C4.23,83.45,5.64,84.86,7.36,84.86L7.36,84.86z M108.79,84.86h5.93 c1.72,0,3.12-1.42,3.12-3.12v-9.35h-12.18v9.35C105.67,83.45,107.08,84.86,108.79,84.86L108.79,84.86z M2.82,46.31h1.41V8.42 c0-1.72,1.41-3.12,3.12-3.12h5.93c1.72,0,3.12,1.41,3.12,3.12v37.89h89.26V28.44c0-1.72,1.4-3.12,3.12-3.12h5.93 c1.72,0,3.12,1.42,3.12,3.12v17.87h2.22c1.55,0,2.82,1.27,2.82,2.82v15.99c0,1.55-1.27,2.81-2.82,2.81H2.82 C1.27,67.93,0,66.66,0,65.11V49.13C0,47.58,1.27,46.31,2.82,46.31L2.82,46.31z M58.44,0h6.01c1.12,0,2.04,0.92,2.04,2.04v7.08h7.08 c1.12,0,2.04,0.92,2.04,2.04v6c0,1.12-0.92,2.04-2.04,2.04h-7.08v7.08c0,1.12-0.92,2.04-2.04,2.04h-6.01 c-1.12,0-2.04-0.92-2.04-2.04V19.2h-7.07c-1.12,0-2.04-0.92-2.04-2.04v-6.01c0-1.12,0.92-2.04,2.04-2.04h7.08V2.04 C56.4,0.92,57.31,0,58.44,0L58.44,0L58.44,0z"/></g></svg>