<svg id="Layer_1" data-name="Layer 1" xmlns="http://www.w3.org/2000/svg" viewBox="0 0 122.88 116.06"><defs><style>.cls-1{fill:#ff004d;fill-rule:evenodd;}.cls-2{fill:#ffd14d;}.cls-3{fill:#ffb73b;}.cls-4{fill:#7a011f;}</style></defs><title>houseparty</title><path class="cls-1" d="M13.35,0h96.18a13.39,13.39,0,0,1,13.35,13.35V102.7a13.39,13.39,0,0,1-13.35,13.36H13.35A13.39,13.39,0,0,1,0,102.7V13.35A13.39,13.39,0,0,1,13.35,0Z"/><path class="cls-2" d="M87.23,38.58c7,0,7,9.44,7,20.42S86.89,91.38,69.17,91.38s-23.58-9.06-29.3-16.92-14-21.14-6.44-27.72c-1.9-11.59,5-10.74,5-10.74s0-6.39,5-8.95,9.34,2.56,9.34,2.56,7.86-4.44,13.16.81S77.78,46.31,77.78,46.31s2.44-7.73,9.45-7.73Z"/><path d="M88.2,73.4A24.19,24.19,0,0,1,66.08,88.23c-8.33,0-15.31-6-19.71-11a100.19,100.19,0,0,1-12-19.46c-1.14-3.25-1.23-5.23,0-6.29s3.7-.29,5,1.36,9.73,12.74,10,13.29a1.26,1.26,0,0,0,1.5.66A1.28,1.28,0,0,0,51,65h0L37.31,45.5a3.8,3.8,0,0,1,.83-5.3l.11-.08a4,4,0,0,1,5.51.94L55.38,56.93a1.1,1.1,0,0,0,1.47.5l.08,0c.55-.38.38-1.16,0-1.71l-13.1-20a3.81,3.81,0,0,1,.83-5.31l.11-.07a4,4,0,0,1,5.51.94L64.42,52c.39.52,1.11.94,1.65.55s.32-1.19,0-1.78c-1.78-3-8-13.56-9-15.43s-1.26-3.77,0-4.64,4-.42,7.59,3.24A117.77,117.77,0,0,1,76.14,50.84a5.62,5.62,0,0,0,1,1.33c1.36,1.32,2.3,1.07,2.89-.2s1.36-10.25,6.48-10c1.85,0,3.25,1.84,3.92,6.48a46.26,46.26,0,0,1-2.27,25Zm9-25.95c-.94-7.92-4.6-12-10.25-12.17A10.66,10.66,0,0,0,77.43,40a80.57,80.57,0,0,0-7.72-10.64c-7.19-7.75-13-6.74-16.22-4.47A10.94,10.94,0,0,0,41,24.68a10.59,10.59,0,0,0-4.7,9A10.54,10.54,0,0,0,30,41.55a11.2,11.2,0,0,0,0,4.54l-.55.49c-3.25,3.24-3.92,7.71-1.68,13.71A104.67,104.67,0,0,0,41.11,81.67c7.75,8.89,16.21,13.4,24.87,13.4A31,31,0,0,0,94.59,76a52.72,52.72,0,0,0,2.66-28.67l-.07.1Zm0,0Z"/><path class="cls-3" d="M81,71.94a32.83,32.83,0,0,1-3.24-13,1.72,1.72,0,0,0-1.72-1.72,1.68,1.68,0,0,0-1.68,1.68v0A36.4,36.4,0,0,0,78,73.56a1.71,1.71,0,0,0,2.33.68h0A1.68,1.68,0,0,0,81,72s0,0,0,0ZM70.69,58a1.68,1.68,0,0,1-.4,2.35h0a38.58,38.58,0,0,0-9.73,11.58,1.71,1.71,0,1,1-2.93-1.75h0A41.53,41.53,0,0,1,68.32,57.59a1.73,1.73,0,0,1,2.4.39h0Zm0,0Z"/><path class="cls-4" d="M44.35,97.11a38.45,38.45,0,0,1-16.22-18,1.72,1.72,0,1,0-3.34.82.94.94,0,0,0,.1.28,41.6,41.6,0,0,0,18,20,1.69,1.69,0,0,0,1.63-3l-.2-.08ZM83.66,29.45a1.72,1.72,0,0,1-2.27-.84A24.6,24.6,0,0,0,70.3,19.08a1.74,1.74,0,0,1,1.12-3.3l.14.05a27.84,27.84,0,0,1,13,11.26,1.73,1.73,0,0,1-.85,2.27l0,.09Zm0,0Z"/></svg>