<svg id="Layer_1" data-name="Layer 1" xmlns="http://www.w3.org/2000/svg" viewBox="0 0 120.08 122.88"><defs><style>.cls-1{fill-rule:evenodd;}</style></defs><title>housekeeper</title><path class="cls-1" d="M9.91,71.47C20.16,70.64,23.92,60,25.18,49c1.93-16.9-.74-38.64,19.6-46.86,16.15-6.53,37,2.26,39.31,25.53C84,42.57,88,67.41,100.35,71.06l-1.08,3.79a26.49,26.49,0,0,1-8.49,2.73c1.48.41,2.87.83,4.17,1.28l-.1.35a13.71,13.71,0,0,0-3.1,5.17,18.33,18.33,0,0,0-1.07,5.22C85.62,93,80,94.67,73.94,96H23.2L17.14,78.87c1-.35,2-.67,3.1-1C15.14,76.73,11,74.4,9.91,71.47ZM99.66,84.3a3.32,3.32,0,0,1,2.33-.72l8.25,2.1c1.79.45,3.51,1.2,3.39,3.46a19.29,19.29,0,0,1-.55,2.7l-.12.58c-.48,2.19-1.07,1.87-3,2.55,3.72,7.9,8.57,15,9.24,24,.16,1.85-1.13,2.91-3.5,3.39l-4.18.33c.92-4.74.2-9.89-1.92-15.4.09,6,.2,11.92-1.14,15.25l-4.31.34c-.4-2-.74-3.53-1.53-4.24l-1.38,3.58-7.07-1.1a27.76,27.76,0,0,0,5.9-12.21c-2.75,4.7-5.62,8.1-8.63,10-1.44,1.19-2.61,1.35-3.49.39-.63-.69-.48-1.06-.24-1.93A11.51,11.51,0,0,1,89.4,114c-1.6,1.45-2.55,1.75-3.45,2.52-2.54,2.2-6.45,1.4-6.71-2.06-.18-2.21,1.34-2.75,3-4.13l2.83-2.39a49.85,49.85,0,0,1-9.1,3.65c-3.45.89-3.44.75-6.32-1.15-3.86-2.55-6.66-5.3-.8-6.14,10.86-2.33,21.06-4,30.1-12.32a2.91,2.91,0,0,1-1.25-2.12c-.09-1.2,1.06-4.77,2-5.55Zm14.07-34.53-8.12,28.42c-.9,4.67,5.18,5.8,6.47,1.27l8-28.48c.32-4.41-4.55-5.92-6.34-1.21ZM14.85,96H11.16a3.51,3.51,0,0,0-3.5,3.5v17.81H1.53A1.54,1.54,0,0,1,0,115.81c0-12.49,1.66-24.74,6.09-30a20.19,20.19,0,0,1,4.83-4.09c.7,2.67,3.46,8.5,3.93,14.27Zm5.06,5a3.56,3.56,0,1,1-3.56,3.56A3.56,3.56,0,0,1,19.91,101Zm56-23.72a20.27,20.27,0,0,1-3.14-1,20.08,20.08,0,0,1-3.16-1.49,4.17,4.17,0,0,1-1.27-1.67A6.66,6.66,0,0,1,67,69.25c-.3-1-.53-1.93-.67-2.41-.63.41-1.25.78-1.89,1.12-6,3.9-12.21,3.59-18.8-1.08-.08,2-1.27,7.46-3.09,8.57-3,1.81-7.8,2.6-11.32,3.17-.84.14-1.61.26-2.29.39-1.12.22-2.19.45-3.23.68,10,9.69,20.5,13.29,30.61,13.6s20-2.72,30.6-13.54c-1.54-.36-3.18-.72-4.91-1.06l-.25,0c-1.5-.3-3.61-.72-5.79-1.33ZM68.74,61.22A41.31,41.31,0,0,0,76.22,50a44.9,44.9,0,0,0,0-18.37c-5.93-2.75-9.81-8.8-11.8-17.87C62,31.05,40.82,30.31,35.48,33.45c0,7.86-1,13.35,2.43,20.52h0a44.68,44.68,0,0,0,2.41,4.36,21.58,21.58,0,0,0,2.36,3.29c7.13,7.69,19.33,6.73,26.07-.41Z"/></svg>