<?xml version="1.0" encoding="utf-8"?><svg version="1.1" id="Layer_1" xmlns="http://www.w3.org/2000/svg" xmlns:xlink="http://www.w3.org/1999/xlink" x="0px" y="0px" viewBox="0 0 122.88 111.2" style="enable-background:new 0 0 122.88 111.2" xml:space="preserve"><style type="text/css">.st0{fill-rule:evenodd;clip-rule:evenodd;}</style><g><path class="st0" d="M84.36,0L50.83,32.84l8.18,4.3l25.13-26.39l25.57,26.39l8.18-4.3L84.36,0L84.36,0z M0,66.75l35.32-1.86 l1.57,39.45l-35.32,1.85L0,66.75L0,66.75z M41.22,100.86l-1.31-32.97l14.83-0.59c6.33,0.88,12.76,4.04,19.2,7.75l11.52-0.46 c5.23,0.11,8.17,5.28,3.24,8.96c-3.92,3.12-9.26,3.17-14.74,2.89c-3.77-0.04-3.74,5.03,0.19,4.9c1.37,0.05,2.84-0.33,4.14-0.38 c6.82-0.28,12.38-1.8,15.6-7.33l1.57-4.1l16.8-9.18c8.46-3.16,14.16,4.81,8.09,11.3c-12.05,9.52-23.74,18.21-36.51,24.73 c-9.23,6.13-18.69,6.31-28.37,1.13L41.22,100.86L41.22,100.86z M60.8,38L60.8,38l23.59-23.6L107.91,38h0v23.16H90.73V44.8h-12.9 v16.36l-17.04,0V38L60.8,38z"/></g></svg>