<svg id="Layer_1" data-name="Layer 1" xmlns="http://www.w3.org/2000/svg" viewBox="0 0 122.88 119.51"><defs><style>.cls-1{fill-rule:evenodd;}.cls-2{fill:#f35359;}</style></defs><title>how-to</title><path class="cls-1" d="M14.92,0h93a15,15,0,0,1,14.92,14.92v69.6A15,15,0,0,1,108,99.44h-2.35a17.2,17.2,0,0,0-1.19-5H108a9.92,9.92,0,0,0,9.88-9.89V14.92A9.92,9.92,0,0,0,108,5h-93A9.94,9.94,0,0,0,5,14.92v69.6a9.94,9.94,0,0,0,9.89,9.89H18a2.5,2.5,0,0,1,2.33,2.67l-1,14.1L38,95.14a2.5,2.5,0,0,1,1.77-.73H70.83a16.92,16.92,0,0,0-1.15,5h-29L18.05,118.91a2.52,2.52,0,0,1-4.14-2.07l1.21-17.41h-.2A15,15,0,0,1,0,84.52V14.92A15,15,0,0,1,14.92,0Zm6.85,61.81V55.08h17.8v6.73H34.94V78.92H26.69V61.81ZM34.69,44.72V36.39H30v8.33H21.77V20.87H30v8.79h4.66V20.87H43V44.72ZM53.47,32.8a11.74,11.74,0,0,0,.59,4.36,2.4,2.4,0,0,0,2.46,1.33A2.35,2.35,0,0,0,59,37.17a11.83,11.83,0,0,0,.57-4.39A12.24,12.24,0,0,0,59,28.4a2.34,2.34,0,0,0-2.44-1.3,2.42,2.42,0,0,0-2.47,1.34,11.67,11.67,0,0,0-.59,4.36Zm14.38,0q0,6.51-2.7,9.45t-8.63,2.93c-4,0-6.84-1-8.65-3s-2.72-5.12-2.72-9.45.9-7.48,2.7-9.44,4.69-2.93,8.65-2.93,6.85,1,8.65,2.93,2.7,5.11,2.7,9.46Zm3.87,11.92L68.91,20.87h8.22l1.14,15.52h.64l1.6-15.16h9L91.3,36.39h.64l.71-15.52h8.29L98.31,44.72H86.24L85.07,30.05l-.36,0L83.5,44.72ZM49,67a11.7,11.7,0,0,0,.59,4.36A2.4,2.4,0,0,0,52,72.7a2.38,2.38,0,0,0,2.44-1.32A12.35,12.35,0,0,0,55,67a12.18,12.18,0,0,0-.55-4.37A2.34,2.34,0,0,0,52,61.31a2.41,2.41,0,0,0-2.47,1.33A11.74,11.74,0,0,0,49,67Zm14.38,0q0,6.51-2.7,9.45c-1.81,2-4.68,2.94-8.63,2.94s-6.84-1-8.65-3S40.62,71.31,40.62,67s.91-7.47,2.71-9.43S48,54.61,52,54.61s6.84,1,8.65,2.94,2.7,5.11,2.7,9.45Z"/><path class="cls-2" d="M81.61,91.33V90.15a26.84,26.84,0,0,1,.64-6.51,9.89,9.89,0,0,1,1.91-3.9,14.48,14.48,0,0,1,3.09-2.66c1.06-.69,2-1.35,2.84-2a9,9,0,0,0,2-2,4.32,4.32,0,0,0,.73-2.47,4,4,0,0,0-.59-2.18,4.12,4.12,0,0,0-1.6-1.47,5.14,5.14,0,0,0-2.26-.51,4.94,4.94,0,0,0-2.46.62,4.76,4.76,0,0,0-1.81,1.7,4.68,4.68,0,0,0-.67,2.52H70.73a15.05,15.05,0,0,1,2.47-8.83,14.17,14.17,0,0,1,6.44-5,23.67,23.67,0,0,1,8.8-1.59,26.8,26.8,0,0,1,9.45,1.55A14.46,14.46,0,0,1,104.45,62a12.39,12.39,0,0,1,2.39,7.76A12,12,0,0,1,103,79a22.42,22.42,0,0,1-4.23,3.13,17.08,17.08,0,0,0-3,2.14,7.34,7.34,0,0,0-1.83,2.5,8.33,8.33,0,0,0-.62,3.38v1.18Zm6,16.63a6.77,6.77,0,0,1-4.91-2,6.61,6.61,0,0,1-2-4.91,6.47,6.47,0,0,1,2-4.83,6.9,6.9,0,0,1,9.72,0A6.56,6.56,0,0,1,94.58,101a6.7,6.7,0,0,1-1,3.49A7.47,7.47,0,0,1,91,107a6.43,6.43,0,0,1-3.39.93Z"/></svg>