<svg xmlns="http://www.w3.org/2000/svg" viewBox="0 0 1333.34 1333.34" shape-rendering="geometricPrecision" text-rendering="geometricPrecision" image-rendering="optimizeQuality" fill-rule="evenodd" clip-rule="evenodd"><path d="M666.67 1333.34c-6.63 0-13.22-.12-19.81-.31L783.1 958.59h187.5c32.91 0 69.04-25.3 80.29-56.21l147.81-406c24.18-66.47-13.89-120.86-84.62-120.86H853.96L635.7 975.26h-.08l-123.73 339.98C218.34 1245.46-.01 981.57-.01 666.68c0-305.82 205.93-563.52 486.68-642.06L359 375.53h-.04L146.72 958.6l141.29.01 180.5-495.47H574.7L394.2 958.61l141.24.02 168.2-462.25c24.2-66.47-13.88-120.86-84.55-120.86H500.32L636.69.71c9.94-.44 19.92-.7 29.96-.7 368.19 0 666.67 298.48 666.67 666.67 0 368.19-298.48 666.67-666.67 666.67zm403.37-870.56H963.88l-148.66 407.9h106.16l148.66-407.9z" fill="#0096d6" fill-rule="nonzero"/></svg>