<svg id="Layer_1" data-name="Layer 1" xmlns="http://www.w3.org/2000/svg" viewBox="0 0 122.88 40.79"><defs><style>.cls-1{fill:#8cc751;}</style></defs><title>htc</title><path class="cls-1" d="M112.66,34.48c-6.5,0-12.66.09-14.38-.06a6.24,6.24,0,0,1-6.06-5.92,31.4,31.4,0,0,1,0-5.74c.32-3.25,3-6.35,6.07-6.5,1.09-.06,4-.06,9.27,0l15.33,0V9.9L107,9.87c-4.93,0-7.41,0-9,0a12.28,12.28,0,0,0-8.6,3.65,14.19,14.19,0,0,0-3.6,9.07,46.31,46.31,0,0,0,0,5.78c.36,3.74,1.57,6.67,3.6,8.73A12.69,12.69,0,0,0,98,40.78c2.58,0,24.86,0,24.86,0V34.42l-10.22.06ZM36.82,22.25a12.29,12.29,0,0,0-3.59-8.73,13.79,13.79,0,0,0-8.61-3.64c-2.12-.12-10.47-.08-12.43,0a10.78,10.78,0,0,0-5.78,1.69s0,0,0,0V0H0V40.78H6.38s-.13-16.69,0-18.51a6.48,6.48,0,0,1,5.83-6c2.51-.22,10-.16,12.39,0a6.27,6.27,0,0,1,5.82,6.17c.06,1.25,0,18.38,0,18.38h6.39s0-17.06,0-18.53Zm75.84,12.23ZM36.82,22.25Zm6.63-12v6.35H58.58V40.67H65V16.59H80.09V10.24Z"/></svg>