<svg id="Layer_1" data-name="Layer 1" xmlns="http://www.w3.org/2000/svg" viewBox="0 0 122.88 122.72"><defs><style>.cls-1{fill-rule:evenodd;}</style></defs><title>husband</title><path class="cls-1" d="M37.11,44.56a5.82,5.82,0,0,0-3,.8,2.34,2.34,0,0,0-.88,1A3.41,3.41,0,0,0,32.9,48c.05,1.85,1,4.25,2.89,7l0,0h0l6,9.63c2.42,3.86,5,7.8,8.14,10.69a16.71,16.71,0,0,0,11.61,4.69A17.09,17.09,0,0,0,73.9,75.18c3.27-3.05,5.85-7.24,8.38-11.42L89.1,52.52c1.27-2.9,1.74-4.84,1.44-6-.17-.67-.91-1-2.19-1.07-.27,0-.55,0-.83,0l-1,.06a1.87,1.87,0,0,1-.53,0,9.16,9.16,0,0,1-1.87-.11L86.52,35C69.18,37.77,56.21,24.9,37.88,32.47L39.2,44.66a10.89,10.89,0,0,1-2.09-.1ZM70.2,51.47a1.22,1.22,0,0,1,0-2.43H76a1.22,1.22,0,0,1,0,2.43Zm-1.88-6.33h0a1.2,1.2,0,0,1-.89.2,1.17,1.17,0,0,1-.76-.48l0,0a1.22,1.22,0,0,1-.19-.88,1.12,1.12,0,0,1,.48-.76l0,0a12.24,12.24,0,0,1,3-1.57A9.25,9.25,0,0,1,73,41a9.11,9.11,0,0,1,3.11.52,12.55,12.55,0,0,1,3.1,1.6,1.23,1.23,0,0,1,.51.78,1.26,1.26,0,0,1-.19.9,1.19,1.19,0,0,1-1.68.31,10.76,10.76,0,0,0-2.46-1.28A6.93,6.93,0,0,0,73,43.46a6.84,6.84,0,0,0-2.34.42,9.4,9.4,0,0,0-2.37,1.26ZM45,45.14l0,0a1.19,1.19,0,0,1-1.64-.29l0,0a1.2,1.2,0,0,1,.28-1.66h0a11.84,11.84,0,0,1,3-1.58A9.15,9.15,0,0,1,49.73,41a9.46,9.46,0,0,1,3.12.52,12.67,12.67,0,0,1,3.09,1.6,1.23,1.23,0,0,1,.51.78,1.22,1.22,0,0,1-.19.9h0a1.23,1.23,0,0,1-.77.5,1.26,1.26,0,0,1-.9-.19,10.43,10.43,0,0,0-2.46-1.29,6.95,6.95,0,0,0-4.73,0A9.88,9.88,0,0,0,45,45.14Zm1.88,6.33a1.22,1.22,0,0,1,0-2.43h5.77a1.22,1.22,0,0,1,0,2.43ZM42.47,89c2.33,14.45,8.14,20.57,18.39,31.24C72,110.36,79.06,104,80.18,89a80,80,0,0,1-4.93-6.73c-.6-.88-1.16-1.71-1.67-2.43a20.16,20.16,0,0,1-11.95,3.63A19.85,19.85,0,0,1,47.71,77.9c-.17-.15-.35-.31-.52-.48l-.23.73c-.69,2.11-3.14,9.49-4.49,10.8ZM75.72,78.16c.53.72,1.13,1.62,1.78,2.58.94,1.38,2,2.9,3,4.29,7,6.12,22.08,7.38,29.66,11.61a20.07,20.07,0,0,1,6.36,5.39l6.35,20.69H0c1.66-7,2-15,6.35-20.69a20.07,20.07,0,0,1,6.36-5.39c7.45-4.15,21.69-5.45,28.67-11.3a83.16,83.16,0,0,0,3-8c0-.09-.07.18.3-.89a9.18,9.18,0,0,1,.57-1.13c.14-.15-1.08-1.19-1.75-2.07-1.62-2.13-3.08-4.42-4.5-6.67l-6-9.63c-2.22-3.3-3.37-6.33-3.44-8.79A7.14,7.14,0,0,1,30.08,45a5.82,5.82,0,0,1,2.08-2.41,6.93,6.93,0,0,1,1.46-.75,155.26,155.26,0,0,1-.28-17.32,22.75,22.75,0,0,1,.75-3.92c2.21-7.94,9-13.65,16.79-16.33C54.66,2.91,53.2-.2,57,0c9.05.5,23,6.32,28.36,12.5,7.5,8.65,5.57,19.31,5.31,29.88h0a4.39,4.39,0,0,1,3.19,3.3c.49,1.91,0,4.6-1.65,8.28h0a1,1,0,0,1-.11.2l-6.9,11.37c-2.7,4.44-5.56,9.14-9.49,12.62ZM56.17,69.63a.84.84,0,0,1,.15-1.42,1.74,1.74,0,0,1,1.91.11,5.82,5.82,0,0,0,3.53.89,6,6,0,0,0,3.54-.91,1.72,1.72,0,0,1,1.92-.09.84.84,0,0,1,.11,1.42,9.15,9.15,0,0,1-5.58,1.58,9.08,9.08,0,0,1-5.58-1.58ZM48.09,97.79c-3.34-3.79-3.63-7.78,0-12a35.59,35.59,0,0,1,12.51,6,35.67,35.67,0,0,0,13.58,6.52c4.81-4.08,5.33-8.46.44-13.22-4.53,2.17-9.8,3.21-13.6,6.5a28.71,28.71,0,0,1-12.93,6.19Zm49.2,15.83h14.53a.92.92,0,0,1,.91.91v1.07a.92.92,0,0,1-.91.91H97.29a.91.91,0,0,1-.91-.91v-1.07a.91.91,0,0,1,.91-.91Z"/></svg>