<svg id="Layer_1" data-name="Layer 1" xmlns="http://www.w3.org/2000/svg" viewBox="0 0 122.88 107.55"><defs><style>.cls-1{fill:#00a912;fill-rule:evenodd;}</style></defs><title>hyperlink-linked</title><path d="M51,31.48a5.35,5.35,0,1,1-7.56-7.56L60.71,6.61c5-5,12-7,18.94-6.55A30.6,30.6,0,0,1,99,8.55a30.6,30.6,0,0,1,8.49,19.35,28,28,0,0,1-.28,6.28,33.11,33.11,0,0,0-9.71-1.44h-.88a17.59,17.59,0,0,0,.22-4.18,19.67,19.67,0,0,0-5.4-12.46A19.65,19.65,0,0,0,79,10.71c-4.07-.26-8,.79-10.71,3.46L51,31.48Zm12.75,4.8a5.34,5.34,0,0,1,7.56,7.55L43.83,71.28a5.35,5.35,0,1,1-7.56-7.56L63.72,36.28Zm-7.32,40A5.35,5.35,0,1,1,64,83.82L46.84,100.94c-5,5-12,7-18.94,6.55A30.6,30.6,0,0,1,8.55,99,30.6,30.6,0,0,1,.06,79.65c-.44-7,1.56-13.94,6.55-18.94L23.73,43.59a5.35,5.35,0,0,1,7.56,7.56L14.17,68.27C11.5,70.94,10.45,74.91,10.71,79a19.65,19.65,0,0,0,5.4,12.46,19.67,19.67,0,0,0,12.46,5.4c4.07.26,8-.79,10.71-3.46L56.4,76.26Z"/><path class="cls-1" d="M97.51,40.51A25.38,25.38,0,1,1,72.13,65.88,25.37,25.37,0,0,1,97.51,40.51ZM89.63,61.85l4.5,4.25,10.63-10.77c.88-.9,1.43-1.61,2.52-.5l3.52,3.61c1.16,1.15,1.1,1.82,0,2.88L96.14,75.75c-2.3,2.26-1.9,2.4-4.23.08L83.7,67.67a1,1,0,0,1,.1-1.58l4.09-4.24c.62-.66,1.11-.6,1.74,0Z"/></svg>