<?xml version="1.0" encoding="utf-8"?><svg version="1.1" id="Layer_1" xmlns="http://www.w3.org/2000/svg" xmlns:xlink="http://www.w3.org/1999/xlink" x="0px" y="0px" viewBox="0 0 115.28 122.88" style="enable-background:new 0 0 115.28 122.88" xml:space="preserve"><style type="text/css">.st0{fill-rule:evenodd;clip-rule:evenodd;}</style><g><path class="st0" d="M25.38,57h64.88V37.34H69.59c-2.17,0-5.19-1.17-6.62-2.6c-1.43-1.43-2.3-4.01-2.3-6.17l0-20.92H8.15 c-0.18,0-0.32,0.09-0.41,0.18C7.59,7.92,7.55,8.05,7.55,8.24v106.45c0,0.14,0.09,0.32,0.18,0.41c0.09,0.14,0.28,0.18,0.41,0.18 l81.51,0c0.18,0,0.17-0.09,0.27-0.18c0.14-0.09,0.33-0.28,0.33-0.41v-11.16H25.38c-4.14,0-7.56-3.4-7.56-7.56V64.55 C17.82,60.4,21.22,57,25.38,57L25.38,57L25.38,57L25.38,57L25.38,57z M29.63,69.14h6.76v21.81h-6.76V69.14L29.63,69.14z M54.78,82.03l5.91,1.78c-0.4,1.65-1.02,3.04-1.88,4.15c-0.85,1.11-1.91,1.95-3.18,2.51c-1.26,0.56-2.87,0.85-4.83,0.85 c-2.38,0-4.31-0.35-5.82-1.03c-1.5-0.69-2.8-1.9-3.89-3.63c-1.09-1.73-1.64-3.95-1.64-6.66c0-3.6,0.96-6.38,2.88-8.32 c1.92-1.93,4.64-2.9,8.15-2.9c2.75,0,4.91,0.55,6.48,1.67c1.57,1.11,2.74,2.82,3.5,5.12l-5.94,1.31c-0.21-0.66-0.43-1.14-0.66-1.45 c-0.38-0.51-0.84-0.91-1.39-1.18c-0.55-0.28-1.16-0.42-1.83-0.42c-1.53,0-2.71,0.61-3.52,1.84c-0.61,0.91-0.92,2.34-0.92,4.28 c0,2.42,0.37,4.07,1.1,4.96c0.74,0.89,1.77,1.34,3.1,1.34c1.29,0,2.26-0.36,2.92-1.09C54.01,84.46,54.48,83.4,54.78,82.03 L54.78,82.03z M63.05,69.14h6.29l8.18,12.04V69.14h6.37v21.81h-6.37l-8.13-11.98v11.98h-6.34V69.14L63.05,69.14z M86.24,83.74 l6.4-0.4c0.14,1.04,0.42,1.83,0.85,2.37c0.7,0.88,1.69,1.32,2.97,1.32c0.96,0,1.7-0.22,2.22-0.68c0.52-0.45,0.78-0.97,0.78-1.57 c0-0.56-0.24-1.07-0.74-1.52c-0.49-0.45-1.64-0.86-3.44-1.26c-2.95-0.66-5.06-1.54-6.32-2.64c-1.27-1.1-1.9-2.5-1.9-4.2 c0-1.12,0.32-2.17,0.97-3.17c0.65-1,1.62-1.78,2.93-2.35c1.3-0.57,3.09-0.85,5.36-0.85c2.79,0,4.91,0.52,6.37,1.56 c1.46,1.04,2.33,2.69,2.61,4.95l-6.34,0.38c-0.17-0.99-0.52-1.71-1.06-2.16c-0.54-0.45-1.29-0.68-2.24-0.68 c-0.78,0-1.38,0.17-1.77,0.5c-0.4,0.33-0.59,0.74-0.59,1.21c0,0.35,0.16,0.65,0.48,0.93c0.31,0.29,1.06,0.55,2.25,0.8 c2.94,0.63,5.05,1.28,6.32,1.93c1.27,0.65,2.2,1.45,2.78,2.42c0.58,0.96,0.87,2.04,0.87,3.23c0,1.4-0.39,2.69-1.16,3.87 c-0.78,1.18-1.85,2.08-3.24,2.69c-1.39,0.61-3.13,0.91-5.24,0.91c-3.71,0-6.27-0.72-7.7-2.14C87.23,87.75,86.43,85.94,86.24,83.74 L86.24,83.74z M97.79,57h9.93c4.16,0,7.56,3.41,7.56,7.56v31.42c0,4.15-3.41,7.56-7.56,7.56h-9.93v13.55c0,1.61-0.65,3.04-1.7,4.1 c-1.06,1.06-2.49,1.7-4.1,1.7H5.81c-1.61,0-3.04-0.65-4.1-1.7c-1.06-1.06-1.7-2.49-1.7-4.1V5.85c0-1.61,0.65-3.04,1.7-4.1 c1.06-1.06,2.53-1.7,4.1-1.7h58.72C64.66,0,64.8,0,64.94,0c0.65,0,1.29,0.28,1.75,0.69h0.09c0.09,0.05,0.14,0.09,0.23,0.18 l30,30.36c0.51,0.51,0.88,1.2,0.88,1.98c0,0.23-0.05,0.41-0.09,0.65L97.79,57L97.79,57L97.79,57L97.79,57L97.79,57z M67.52,27.97 V8.94l21.42,21.7H70.19c-0.74,0-1.38-0.32-1.89-0.78C67.84,29.4,67.52,28.7,67.52,27.97L67.52,27.97z"/></g></svg>