<?xml version="1.0" encoding="utf-8"?><svg version="1.1" id="Layer_1" xmlns="http://www.w3.org/2000/svg" xmlns:xlink="http://www.w3.org/1999/xlink" x="0px" y="0px" viewBox="0 0 115.28 122.88" style="enable-background:new 0 0 115.28 122.88" xml:space="preserve"><style type="text/css">.st0{fill-rule:evenodd;clip-rule:evenodd;}</style><g><path class="st0" d="M25.38,57h64.88V37.34l-20.66,0c-2.17,0-5.19-1.17-6.62-2.6c-1.43-1.43-2.3-4.01-2.3-6.17V7.64H8.15 c-0.18,0-0.32,0.09-0.41,0.18C7.59,7.92,7.55,8.05,7.55,8.24v106.45c0,0.14,0.09,0.32,0.18,0.41c0.09,0.14,0.28,0.18,0.41,0.18 l81.51,0c0.18,0,0.17-0.09,0.27-0.18c0.14-0.09,0.33-0.28,0.33-0.41v-11.16H25.38c-4.14,0-7.56-3.4-7.56-7.56V64.55 C17.82,60.4,21.22,57,25.38,57L25.38,57L25.38,57L25.38,57z M35.67,67.81h7.73v24.94h-7.73V67.81L35.67,67.81z M65.59,82.54 l6.76,2.04c-0.45,1.89-1.17,3.48-2.15,4.74c-0.97,1.27-2.18,2.23-3.63,2.87c-1.45,0.64-3.29,0.97-5.52,0.97 c-2.72,0-4.93-0.39-6.65-1.18c-1.72-0.79-3.2-2.18-4.45-4.16c-1.25-1.98-1.87-4.52-1.87-7.61c0-4.12,1.1-7.29,3.29-9.51 c2.2-2.21,5.31-3.32,9.32-3.32c3.14,0,5.61,0.63,7.41,1.9c1.79,1.27,3.13,3.22,4.01,5.86l-6.79,1.5c-0.24-0.75-0.49-1.31-0.75-1.65 c-0.44-0.59-0.96-1.04-1.58-1.35c-0.63-0.32-1.32-0.48-2.1-0.48c-1.75,0-3.09,0.7-4.02,2.1c-0.7,1.04-1.06,2.68-1.06,4.9 c0,2.76,0.42,4.65,1.26,5.68c0.84,1.02,2.02,1.53,3.54,1.53c1.47,0,2.59-0.41,3.34-1.24C64.7,85.31,65.25,84.11,65.59,82.54 L65.59,82.54z M75.15,80.29c0-4.07,1.13-7.24,3.4-9.5c2.27-2.27,5.43-3.4,9.48-3.4c4.15,0,7.35,1.11,9.59,3.34 c2.25,2.23,3.37,5.35,3.37,9.36c0,2.91-0.49,5.3-1.47,7.16c-0.98,1.86-2.4,3.31-4.25,4.35c-1.86,1.04-4.17,1.56-6.94,1.56 c-2.81,0-5.14-0.45-6.98-1.34c-1.84-0.9-3.34-2.32-4.48-4.25C75.73,85.63,75.15,83.21,75.15,80.29L75.15,80.29z M82.85,80.31 c0,2.51,0.47,4.32,1.4,5.42c0.94,1.1,2.22,1.65,3.83,1.65c1.65,0,2.94-0.54,3.85-1.61c0.91-1.08,1.36-3.01,1.36-5.8 c0-2.34-0.48-4.06-1.42-5.14c-0.95-1.09-2.23-1.63-3.86-1.63c-1.56,0-2.81,0.55-3.75,1.65C83.32,75.95,82.85,77.77,82.85,80.31 L82.85,80.31z M97.79,57h9.93c4.16,0,7.56,3.41,7.56,7.56v31.42c0,4.15-3.41,7.56-7.56,7.56h-9.93v13.55c0,1.61-0.65,3.04-1.7,4.1 c-1.06,1.06-2.49,1.7-4.1,1.7H5.81c-1.61,0-3.04-0.65-4.1-1.7c-1.06-1.06-1.7-2.49-1.7-4.1V5.85c0-1.61,0.65-3.04,1.7-4.1 c1.06-1.06,2.53-1.7,4.1-1.7h58.72C64.66,0,64.8,0,64.94,0c0.64,0,1.29,0.28,1.75,0.69h0.09c0.09,0.05,0.14,0.09,0.23,0.18 l30,30.36c0.51,0.51,0.88,1.2,0.88,1.98c0,0.23-0.05,0.41-0.09,0.65L97.79,57L97.79,57L97.79,57L97.79,57z M67.52,27.97V8.94 l21.43,21.7H70.19c-0.74,0-1.38-0.32-1.89-0.78C67.84,29.4,67.52,28.7,67.52,27.97L67.52,27.97L67.52,27.97z"/></g></svg>