<?xml version="1.0" encoding="utf-8"?><svg version="1.1" id="Layer_1" xmlns="http://www.w3.org/2000/svg" xmlns:xlink="http://www.w3.org/1999/xlink" x="0px" y="0px" viewBox="0 0 102.66 122.88" style="enable-background:new 0 0 102.66 122.88" xml:space="preserve"><g><path d="M71.38,84.84L60.49,74.38l-2.3,14.13c-0.04,0.27-0.13,0.55-0.26,0.8c-0.13,0.25-0.31,0.48-0.54,0.67 c-0.49,0.41-1.11,0.6-1.71,0.56c-0.59-0.05-1.18-0.32-1.6-0.81L37.43,70L19.96,85.79v17.43h62.73V72.83L72.34,84.74 c-0.1,0.17-0.3,0.27-0.5,0.27C71.65,85.02,71.5,84.95,71.38,84.84L71.38,84.84L71.38,84.84L71.38,84.84z M50.29,25.85 c-1.57,0-3-0.64-4.03-1.67l0,0c-1.03-1.03-1.67-2.46-1.67-4.04c0-1.57,0.64-3,1.67-4.03l0.01-0.01c1.03-1.03,2.46-1.67,4.03-1.67 h32.03c1.58,0,3,0.64,4.03,1.67c1.03,1.03,1.67,2.46,1.67,4.04c0,1.58-0.64,3-1.67,4.03c-1.04,1.04-2.46,1.68-4.04,1.68H50.29 L50.29,25.85z M48.4,22.05c0.48,0.48,1.15,0.78,1.89,0.78h32.03c0.75,0,1.42-0.3,1.9-0.78c0.48-0.48,0.78-1.16,0.78-1.9 c0-0.74-0.3-1.41-0.79-1.89c-0.48-0.48-1.15-0.78-1.89-0.78H50.29c-0.75,0-1.42,0.3-1.9,0.78l-0.01,0.01 c-0.48,0.48-0.78,1.15-0.78,1.9C47.62,20.88,47.92,21.56,48.4,22.05L48.4,22.05L48.4,22.05L48.4,22.05z M21.34,25.35 c-1.44,0-2.74-0.58-3.68-1.52c-0.94-0.94-1.53-2.25-1.53-3.68c0-1.44,0.58-2.74,1.52-3.68s2.24-1.52,3.68-1.52H33.7 c1.43,0,2.73,0.59,3.67,1.52c0.95,0.94,1.53,2.25,1.53,3.68c0,1.44-0.58,2.74-1.52,3.68s-2.24,1.52-3.68,1.52H21.34L21.34,25.35z M20.77,34.19h61.11c0.24,0,0.47,0.02,0.7,0.05h2.39c0.63,0,1.2,0.27,1.62,0.7c0.41,0.41,0.66,1.01,0.66,1.64v68.99 c0,0.63-0.25,1.21-0.66,1.64s-0.98,0.7-1.62,0.7H17.68c-0.63,0-1.2-0.27-1.6-0.7c-0.41-0.41-0.66-1.01-0.66-1.64v-2.81 c0-0.08-0.01-0.17-0.01-0.25V39.55c0-0.08,0-0.17,0.01-0.25v-2.73c0-0.63,0.25-1.21,0.66-1.64c0.4-0.43,0.97-0.7,1.6-0.7l0,0l0,0 h2.39C20.3,34.2,20.53,34.19,20.77,34.19L20.77,34.19L20.77,34.19z M71.78,78.68l10.89-13.07V38.91H19.96v40.52 c5.3-4.79,10.75-10.07,16.17-14.62c0.48-0.41,1.07-0.6,1.64-0.56c0.59,0.03,1.18,0.29,1.6,0.75l0.01,0.03 c0.03,0.03,0.05,0.05,0.08,0.09l14.89,17.62l2.21-13.58c0.12-0.62,0.47-1.14,0.94-1.49c0.48-0.34,1.08-0.52,1.72-0.41l0.06,0.01 c0.22,0.04,0.44,0.12,0.63,0.21c0.22,0.1,0.41,0.25,0.59,0.41L71.78,78.68L71.78,78.68L71.78,78.68L71.78,78.68z M60.58,48.82 c0.92,0,1.82,0.19,2.64,0.53c0.85,0.35,1.61,0.87,2.25,1.5c0.63,0.63,1.15,1.4,1.51,2.25c0.34,0.81,0.52,1.72,0.52,2.64 c0,0.92-0.19,1.82-0.52,2.64c-0.35,0.85-0.87,1.62-1.5,2.25c-0.63,0.63-1.4,1.15-2.25,1.5c-0.81,0.35-1.71,0.53-2.64,0.53 c-0.92,0-1.82-0.19-2.64-0.53c-0.85-0.35-1.6-0.87-2.25-1.5c-0.63-0.63-1.15-1.4-1.51-2.25c-0.34-0.81-0.52-1.71-0.52-2.64 c0-0.92,0.19-1.82,0.52-2.64c0.35-0.85,0.87-1.61,1.5-2.25c0.63-0.63,1.4-1.15,2.25-1.5C58.75,49,59.64,48.82,60.58,48.82 L60.58,48.82L60.58,48.82L60.58,48.82z M62.66,53.66c-0.27-0.27-0.59-0.49-0.96-0.65c-0.34-0.14-0.72-0.22-1.12-0.22 c-0.4,0-0.78,0.08-1.13,0.22c-0.36,0.15-0.68,0.37-0.96,0.63c-0.27,0.27-0.49,0.59-0.63,0.96c-0.14,0.35-0.22,0.72-0.22,1.12 c0,0.39,0.08,0.77,0.22,1.12c0.16,0.36,0.38,0.68,0.63,0.96c0.27,0.27,0.6,0.49,0.96,0.65c0.34,0.14,0.72,0.22,1.13,0.22 c0.39,0,0.78-0.08,1.12-0.22c0.36-0.16,0.69-0.38,0.96-0.63c0.27-0.27,0.49-0.59,0.65-0.96c0.14-0.35,0.22-0.72,0.22-1.12 c0-0.39-0.08-0.78-0.22-1.12C63.15,54.26,62.93,53.94,62.66,53.66L62.66,53.66L62.66,53.66L62.66,53.66z M5.58,0h91.5 c1.53,0,2.92,0.63,3.94,1.65l0.01,0.01c1.01,1.01,1.63,2.41,1.63,3.94v111.7c0,1.53-0.63,2.92-1.65,3.94l-0.01,0.01 c-1.01,1.01-2.41,1.63-3.94,1.63l-91.48,0c-1.52,0-2.92-0.63-3.94-1.65l-0.01-0.01c-1.01-1.01-1.63-2.4-1.63-3.94V5.6 c0-1.53,0.63-2.92,1.65-3.94l0.01-0.01C2.66,0.62,4.05,0,5.58,0L5.58,0L5.58,0z M96.99,5.66H5.66v111.55H97V5.66H96.99L96.99,5.66z"/></g></svg>