<svg xmlns="http://www.w3.org/2000/svg" viewBox="0 0 1333.34 1307.33" shape-rendering="geometricPrecision" text-rendering="geometricPrecision" image-rendering="optimizeQuality" fill-rule="evenodd" clip-rule="evenodd"><path d="M302.75 577.59h42.39s15.91.13 15.91 18.09v196.28s.98 21.14-16.9 21.14h-43.38s-12.89-.78-12.89-18.17v-202.2s.05-15.13 14.87-15.13zm21.24-48.82c-23.11 0-38.51-16.38-38.03-36.61-.48-21.19 14.92-37.09 38.51-37.09 23.59 0 38.51 15.9 38.99 37.09 0 20.23-15.41 36.61-39.48 36.61zM777.95 813.1h-39.44c-18.73 0-14.97-27.05-14.97-27.05V684.99c0-34.19-11.07-53.94-34.66-53.94-16.85 0-28.88 11.56-33.7 25.53-1.92 5.3-2.89 13-2.89 18.78v114.63s.23 23.11-20.26 23.11H599.5s-18.46-1.41-18.46-25.08V681.13c0-29.86-10.59-50.09-33.7-50.09-18.77 0-29.85 14.45-34.18 26.49-2.41 5.78-2.89 12.52-2.89 18.3v112.19s2.54 25.08-16.27 25.08h-31.55c-23.43 0-23.43-25.08-23.43-25.08v-135.3c0-22.96-1.3-60.94-1.3-60.94s-.48-14.19 14.87-14.19h30.57c14.44 0 17.06 14.12 17.06 14.12l1.87 17.67h1.44c10.11-14.93 30.81-37.09 71.25-37.09 30.33 0 54.4 15.41 64.51 39.98h.96c8.67-12.04 19.26-21.67 30.33-28.41 13-7.7 27.44-11.56 44.78-11.56 45.25 0 79.43 31.79 79.43 102.11v113.63c0 23.4-16.84 25.08-16.84 25.08zm204.58-188.8c-35.14 0-48.15 36.12-48.15 70.8 0 40.45 16.85 70.8 48.15 70.8 28.4 0 46.69-28.42 46.69-70.8 0-35.16-13.48-70.8-46.69-70.8zm-1.93 194.09c-68.84 0-121.79-45.27-121.79-121.37s50.07-124.74 125.64-124.74c72.22 0 120.36 49.61 120.36 120.41 0 86.21-61.14 125.7-124.2 125.7zM679.98 95.65c-310.24 0-561.74 251.61-561.74 562 0 106.83 29.79 206.69 81.51 291.73 0 0 36.76 95.52-57.61 166.63 59.09 19.93 184.02-16.71 190.41-16.71 95.59 75.37 216.26 120.35 347.43 120.35 310.23 0 561.73-251.62 561.73-562s-251.5-562-561.73-562zm0 1211.68c-136.66 0-263.52-41.97-368.41-113.74-49.47 26.03-160.74 31.81-209.28 26.06-70.56-8.36-144.59-66.83-73.3-123.7 110.4-88.05 80.76-122.93 80.76-122.93C56.79 878.58 26.6 769.65 26.6 653.67 26.6 292.65 319.13 0 679.97 0c360.84 0 653.37 292.65 653.37 653.67 0 361.01-292.53 653.67-653.37 653.67z" fill="#009dff" fill-rule="nonzero"/></svg>