<?xml version="1.0" encoding="utf-8"?><svg version="1.1" id="Layer_1" xmlns="http://www.w3.org/2000/svg" xmlns:xlink="http://www.w3.org/1999/xlink" x="0px" y="0px" viewBox="0 0 122.88 65.13" style="enable-background:new 0 0 122.88 65.13" xml:space="preserve"><g><path d="M4.67,65.13C2.09,65.13,0,62.83,0,60c0-2.83,2.09-5.13,4.67-5.13h14.71L45.15,12.5l-10.33,2.14 c-2.77,0.56-5.46-1.22-6.03-3.99c-0.56-2.77,1.22-5.46,3.99-6.03L54.4,0.15c1.28-0.32,2.68-0.15,3.9,0.6 c1.24,0.76,2.04,1.96,2.33,3.27l5.55,21.23c0.71,2.73-0.93,5.52-3.67,6.23c-2.73,0.71-5.52-0.93-6.23-3.67l-2.54-9.73l-22.39,36.8 h44.88l26.16-37.72l-10.33,1.56c-2.8,0.42-5.41-1.51-5.83-4.31c-0.42-2.8,1.51-5.41,4.31-5.83l22.05-3.32l0,0.01 c0.13-0.02,0.25-0.03,0.38-0.04l0,0l0.03,0l0.06,0l0.04,0l0.01,0l0.11,0l0,0l0.12,0h0.01h0l0.11,0l0.01,0l0.04,0l0.06,0l0.02,0l0,0 c0.92,0.05,1.83,0.34,2.64,0.9c1.15,0.8,1.88,1.99,2.12,3.26l4.4,21.6c0.56,2.77-1.22,5.47-3.99,6.03 c-2.77,0.56-5.46-1.22-6.03-3.99l-2.03-9.96L88.67,54.87h18.69c2.58,0,4.67,2.3,4.67,5.13c0,2.83-2.09,5.13-4.67,5.13H4.67 L4.67,65.13z"/></g></svg>