<?xml version="1.0" encoding="utf-8"?><svg version="1.1" id="Layer_1" xmlns="http://www.w3.org/2000/svg" xmlns:xlink="http://www.w3.org/1999/xlink" x="0px" y="0px" width="116.875px" height="122.88px" viewBox="0 0 116.875 122.88" enable-background="new 0 0 116.875 122.88" xml:space="preserve"><g><path d="M6.902,0h103.071c1.9,0,3.627,0.776,4.877,2.025c1.248,1.25,2.025,2.976,2.025,4.876v109.077 c0,1.9-0.777,3.627-2.025,4.876c-1.25,1.249-2.977,2.025-4.877,2.025H6.902c-1.9,0-3.627-0.775-4.877-2.025 C0.776,119.605,0,117.879,0,115.979V6.901C0,5,0.775,3.274,2.025,2.025C3.274,0.775,5,0,6.902,0L6.902,0z M39.514,67.438 c-1.316,0-2.384-1.317-2.384-2.942s1.067-2.942,2.384-2.942h37.847c1.316,0,2.383,1.317,2.383,2.942s-1.066,2.942-2.383,2.942 H39.514L39.514,67.438z M37.624,78.839c1.508,0,2.751,1.134,2.922,2.596c0.051,0.218,0.078,0.444,0.078,0.677v8.771h34.644v-8.774 c0-0.058,0.002-0.115,0.006-0.173c-0.002-0.051-0.004-0.103-0.004-0.154c0-1.625,1.316-2.942,2.941-2.942h14.861V20.676H23.796 v58.163H37.624L37.624,78.839z M34.739,84.725H22.69c-1.308,0-2.509-0.539-3.376-1.406c-0.081-0.081-0.156-0.165-0.225-0.253 c-0.73-0.836-1.178-1.928-1.178-3.121V19.57c0-1.317,0.537-2.513,1.401-3.378c0.085-0.085,0.175-0.165,0.269-0.238 c0.841-0.725,1.929-1.164,3.109-1.164H94.18c1.318,0,2.51,0.544,3.371,1.405c0.867,0.868,1.408,2.072,1.408,3.375v60.375 c0,1.31-0.545,2.508-1.408,3.372c-0.865,0.864-2.063,1.408-3.371,1.408H81.152v6.771c0,1.453-0.592,2.771-1.545,3.726 c-0.955,0.954-2.273,1.547-3.727,1.547h-35.87c-1.334,0-2.557-0.508-3.487-1.335c-0.082-0.066-0.161-0.137-0.237-0.213 c-0.955-0.955-1.549-2.277-1.549-3.725V84.725L34.739,84.725z M39.514,38.112c-1.316,0-2.384-1.317-2.384-2.942 c0-1.625,1.067-2.943,2.384-2.943h37.847c1.316,0,2.383,1.317,2.383,2.943c0,1.625-1.066,2.942-2.383,2.942H39.514L39.514,38.112z M39.514,52.332c-1.316,0-2.384-1.318-2.384-2.943s1.067-2.942,2.384-2.942h37.847c1.316,0,2.383,1.317,2.383,2.942 s-1.066,2.943-2.383,2.943H39.514L39.514,52.332z M109.973,5.885H6.902c-0.277,0-0.53,0.115-0.716,0.301S5.885,6.625,5.885,6.901 v109.077c0,0.275,0.115,0.529,0.301,0.715s0.439,0.301,0.716,0.301h103.071c0.275,0,0.529-0.115,0.715-0.301 s0.301-0.439,0.301-0.715V6.901c0-0.276-0.115-0.53-0.301-0.716C110.502,6,110.248,5.885,109.973,5.885L109.973,5.885z"/></g></svg>