<svg id="Layer_1" data-name="Layer 1" xmlns="http://www.w3.org/2000/svg" viewBox="0 0 122.88 111.5"><defs><style>.cls-1{fill-rule:evenodd;}</style></defs><title>income-tax</title><path class="cls-1" d="M122.88,58.58l-35,52.92L60,93.6l1.85-3.91,20.43,13,.25.17a4.15,4.15,0,0,0,5.73-1.32l1.13-1.8.06,0,5.27-8.57,24-35.3,4.21,2.69ZM35.22,15.83l-.4,5.28L30,20.9h-.43l-.18,10.24.29,7.61H22.48l.36-6.88-.18-11h-.47l-4.82.21-.43-.5.4-5.29H34.82l.4.51ZM56.15,38.75H48.8l-.65-3.88,0-.11-3.55-.07-3,.15L41,38.75h-7.1L41,15.32h8.76l6.41,23.43ZM47,29.48l-1.6-7.68H45l-2,7.68,2,0,2,0Zm25.34-3.12,7.06,12.39H70.78l-1.23-2.86-2.1-3.81-2.68,4.17-1.16,2.5H56.26l7-11.26L56,15.32h8.69L66,18.25,68.06,22l2.36-4.09,1.08-2.54h7.57l-6.7,11ZM48.59,83.28,48,82.72l-8.3,8.53a2.09,2.09,0,0,1-.14.17,2.51,2.51,0,0,1-3.55,0l-8.7-8.7-9,8.54h0a2.51,2.51,0,0,1-3.5-.05L6.3,82.59l-1.78,2A2.51,2.51,0,0,1,0,83.15V2.51A2.51,2.51,0,0,1,2.51,0H93.87a2.5,2.5,0,0,1,2.5,2.51V21.69l-1.23-.79a4.72,4.72,0,0,0-3.78-.6V5H5v71.7a2.5,2.5,0,0,1,2.8.32.8.8,0,0,1,.13.13H8L16.66,86l9-8.53a2.49,2.49,0,0,1,3.49,0h0l8.63,8.63,8.35-8.6a2.49,2.49,0,0,1,3.49-.1h0l1.58,1.46-2,2.94a4.74,4.74,0,0,0-.63,1.49Zm11.56-18h-41a1.85,1.85,0,0,1,0-3.7H62.59l-2.44,3.7ZM68.29,53H18.59a1.85,1.85,0,1,1,0-3.7H70.73L68.29,53Zm51.31-5.84L84.6,100,56.68,82.14l35-52.92,27.91,17.9ZM94.08,61.57a7.54,7.54,0,1,1-10.3-2.77,7.53,7.53,0,0,1,10.3,2.77Zm15.52-8.2L86.13,88.29a4.91,4.91,0,0,0-6.77,1.49l-11-7.07a4.9,4.9,0,0,0-1.49-6.77L90.31,41a4.89,4.89,0,0,0,6.76-1.48l11.05,7.07a4.9,4.9,0,0,0,1.48,6.77Z"/></svg>