<svg id="Layer_1" data-name="Layer 1" xmlns="http://www.w3.org/2000/svg" viewBox="0 0 122.88 105.17"><title>indonesian-rupiah</title><path d="M67.5,105.17V21.89H85.1l3.22,5.26a51.88,51.88,0,0,1,4.19-3.22A17.93,17.93,0,0,1,97,21.73a17.36,17.36,0,0,1,5.53-.8,21,21,0,0,1,9,1.82,15.8,15.8,0,0,1,6.39,5.53,26.77,26.77,0,0,1,3.76,9.39A63.57,63.57,0,0,1,122.88,51a65.14,65.14,0,0,1-1.66,15.67A18.86,18.86,0,0,1,115.15,77q-4.4,3.64-12.66,3.65A43.84,43.84,0,0,1,95.08,80a26.88,26.88,0,0,1-6.76-2v27.26ZM95.41,63.53a6,6,0,0,0,3-.91A6.76,6.76,0,0,0,101,59a24,24,0,0,0,1-8.05,35.62,35.62,0,0,0-.75-8.32,7,7,0,0,0-2.2-4,5.87,5.87,0,0,0-3.6-1.08,12.1,12.1,0,0,0-4.18.7,13,13,0,0,0-3,1.45V61.92a8.49,8.49,0,0,0,3.06,1.18,18.83,18.83,0,0,0,4,.43ZM20.82,35.74h9.44a8.37,8.37,0,0,0,3-.49,5.3,5.3,0,0,0,2.2-1.55A6.83,6.83,0,0,0,36.81,31a16.12,16.12,0,0,0,.43-4,15.43,15.43,0,0,0-.43-4,5.5,5.5,0,0,0-1.34-2.53,5.68,5.68,0,0,0-2.2-1.34,9.71,9.71,0,0,0-3-.43H20.82V35.74ZM0,79.74V0H34a34.25,34.25,0,0,1,9.66,1.29A18.43,18.43,0,0,1,51.3,5.63a20.18,20.18,0,0,1,5,8.21,40.57,40.57,0,0,1,1.77,13,38.06,38.06,0,0,1-.86,8.59,22.85,22.85,0,0,1-2.31,6.17,16.27,16.27,0,0,1-3.43,4.24,27.1,27.1,0,0,1-4.24,3L61.06,79.74H39.92L28.76,52.26H20.82V79.74Z"/></svg>