<?xml version="1.0" encoding="utf-8"?><svg version="1.1" id="Layer_1" xmlns="http://www.w3.org/2000/svg" xmlns:xlink="http://www.w3.org/1999/xlink" x="0px" y="0px" viewBox="0 0 122.88 34.68" style="enable-background:new 0 0 122.88 34.68" xml:space="preserve"><g><path d="M94.93,10.98c0.24-0.15,0.53-0.22,0.83-0.16c0.03,0.01,0.06,0.01,0.1,0.02c4.62,1.02,9.02,2.25,13.34,3.66 c4.34,1.42,8.61,3.02,12.96,4.78c0.59,0.24,0.87,0.9,0.64,1.49c-0.17,0.41-0.55,0.68-0.97,0.72l-15.45,1.61 c1.02,1.21,2,2.45,2.96,3.73c1.41,1.88,2.75,3.83,4.01,5.84c0.34,0.54,0.18,1.24-0.36,1.58c-0.31,0.19-0.67,0.22-0.99,0.11l0,0 c-4.89-1.73-9.49-3.24-13.75-4.47c-4.27-1.24-8.23-2.21-11.83-2.88c-0.61-0.11-1.02-0.69-0.93-1.3l0,0l0.5-3.26 c0-0.03,0.01-0.06,0.02-0.1c-20.11-4.58-29.2-4.51-49.22,0.01c0.05,0.11,0.09,0.22,0.11,0.34l0.5,3.25l0,0 c0.09,0.61-0.32,1.19-0.93,1.3c-3.6,0.67-7.56,1.65-11.83,2.88c-4.26,1.23-8.86,2.74-13.75,4.48l0,0 c-0.32,0.11-0.68,0.08-0.99-0.11c-0.54-0.34-0.7-1.05-0.36-1.58c1.27-2.01,2.61-3.96,4.01-5.84c0.96-1.28,1.94-2.52,2.96-3.73 L1.05,21.74c-0.42-0.04-0.8-0.3-0.97-0.72c-0.24-0.59,0.05-1.26,0.64-1.49c4.35-1.76,8.62-3.36,12.96-4.78 c4.32-1.41,8.72-2.64,13.34-3.66c0.03-0.01,0.06-0.02,0.1-0.02c0.31-0.06,0.62,0.02,0.86,0.18l-0.78-5.01 c-0.09-0.59,0.29-1.15,0.86-1.29l0,0c26.21-6.48,40.55-6.71,66.81,0c0.61,0.15,0.98,0.77,0.84,1.37L94.93,10.98L94.93,10.98z M29.62,6.93l2.23,14.26c23.66-6.06,35.33-6.16,59.08,0l2.35-14.27C68.11,0.66,54.73,0.86,29.62,6.93L29.62,6.93z M28.46,24.47 l-2.04-10.89c-4.12,0.95-8.09,2.08-12.03,3.36c-2.83,0.93-5.64,1.93-8.45,3l12.97,1.35c0.63,0.06,1.09,0.63,1.02,1.26 c-0.03,0.27-0.14,0.5-0.32,0.68c-1.48,1.67-2.89,3.41-4.25,5.22c-0.7,0.94-1.39,1.9-2.06,2.88c3.72-1.27,7.29-2.41,10.68-3.4 c3.92-1.14,7.58-2.05,10.96-2.73l-0.14-0.94l-4.96,1.16c-0.62,0.14-1.24-0.24-1.38-0.86C28.47,24.54,28.46,24.5,28.46,24.47 L28.46,24.47z M96.46,13.32l-2.04,10.89c0,0.03-0.01,0.07-0.02,0.1c-0.14,0.62-0.76,1-1.38,0.86l-4.96-1.16l-0.14,0.94 c3.38,0.67,7.04,1.59,10.96,2.73c3.39,0.98,6.96,2.12,10.68,3.4c-0.67-0.98-1.36-1.94-2.06-2.88c-1.35-1.81-2.77-3.55-4.25-5.22 c-0.17-0.18-0.29-0.42-0.32-0.68c-0.06-0.63,0.39-1.19,1.02-1.26l12.97-1.35c-2.81-1.07-5.62-2.08-8.45-3 C104.56,15.4,100.58,14.27,96.46,13.32L96.46,13.32z"/></g></svg>