<?xml version="1.0" encoding="utf-8"?><svg version="1.1" id="Layer_1" xmlns="http://www.w3.org/2000/svg" xmlns:xlink="http://www.w3.org/1999/xlink" x="0px" y="0px" viewBox="0 0 122.88 32.31" style="enable-background:new 0 0 122.88 32.31" xml:space="preserve"><style type="text/css">.st0{fill-rule:evenodd;clip-rule:evenodd;}</style><g><path class="st0" d="M29.7,21.41L27.12,4.89c25.32-6.26,42.13-6.78,68.66,0l-2.72,16.52C67.41,14.54,52.39,15.41,29.7,21.41 L29.7,21.41z M94.49,22.85l2.26-12.09c9.16,2.02,17.5,4.9,26.13,8.38l-17.61,1.84c3.02,3.4,5.78,7.1,8.28,11.07 c-9.75-3.46-18.44-6.03-25.71-7.39l0.5-3.25L94.49,22.85L94.49,22.85z M28.39,23.11l-2.26-12.09C16.97,13.04,8.62,15.91,0,19.4 l17.61,1.84c-3.02,3.4-5.78,7.1-8.28,11.07c9.75-3.46,18.44-6.03,25.71-7.39l-0.5-3.25L28.39,23.11L28.39,23.11z"/></g></svg>