<svg id="Layer_1" data-name="Layer 1" xmlns="http://www.w3.org/2000/svg" viewBox="0 0 122.88 122.88"><title>inr</title><path d="M30.27,0H92.61a30.35,30.35,0,0,1,30.27,30.27V92.61a30.35,30.35,0,0,1-30.27,30.27H30.27A30.35,30.35,0,0,1,0,92.61V30.27A30.35,30.35,0,0,1,30.27,0Zm8.11,55.28,3.91-8.81H57a5.59,5.59,0,0,0-1-1.84,6.8,6.8,0,0,0-1.72-1.56A9.57,9.57,0,0,0,52.06,42a8.38,8.38,0,0,0-2.67-.41h-11l3.91-8.81H84.5l-3.91,8.81H70.39a6.73,6.73,0,0,1,1.13,1.08,9.45,9.45,0,0,1,.92,1.26,11.6,11.6,0,0,1,.66,1.32,5.35,5.35,0,0,1,.35,1.22h11l-3.91,8.81h-8A14.78,14.78,0,0,1,70,59.52a21.52,21.52,0,0,1-4,3.6,25.92,25.92,0,0,1-5,2.68,24.06,24.06,0,0,1-5.48,1.47L77.61,90.1H60.08L40.3,68.41V60.32h8.76a7.54,7.54,0,0,0,2.48-.41,9.09,9.09,0,0,0,2.27-1.13,8.39,8.39,0,0,0,1.8-1.6,5.62,5.62,0,0,0,1.08-1.9ZM92.61,12.1H30.27A18.23,18.23,0,0,0,12.1,30.27V92.61a18.23,18.23,0,0,0,18.17,18.17H92.61a18.23,18.23,0,0,0,18.17-18.17V30.27A18.23,18.23,0,0,0,92.61,12.1Z"/></svg>