<svg id="Layer_1" data-name="Layer 1" xmlns="http://www.w3.org/2000/svg" viewBox="0 0 120.95 122.88"><title>insurance-protection</title><path d="M32.14,111.53h.19l.31,0H55.71A1.53,1.53,0,0,1,57.25,113v8.32a1.54,1.54,0,0,1-1.54,1.54H31.45a1.54,1.54,0,0,1-1.53-1.54V113a1.53,1.53,0,0,1,1.53-1.53h.34a1.34,1.34,0,0,1,.35,0ZM64.92,3a38.34,38.34,0,0,1,35.32,29.49h0L95.3,38.26l-4.75-5.81h-.64l-5,5.85-4.76-5.85H79l-4.93,5.81-4.75-5.81h-.63v.08c0,1.38-1.16,2.56-2.85,3.12V60.49a11.63,11.63,0,0,1-11.61,11.6h0A11.55,11.55,0,0,1,46,68.69v0h0a11.56,11.56,0,0,1-3.41-8.18V59.42h5v1.07a6.65,6.65,0,0,0,1.94,4.69h0a6.63,6.63,0,0,0,4.69,2h0a6.66,6.66,0,0,0,6.63-6.64V35.44a3.36,3.36,0,0,1-2.26-2.88v-.09h-2l-4.74,5.82-4.94-5.82H45.76L41,38.32l-5-5.85h-.66l-4.74,5.82-4.94-5.82h0A38.27,38.27,0,0,1,60.56,3l2.28-3,2.08,3Zm23,104.92H65.22a1.53,1.53,0,0,1-1.46-1.6c.07-1.3.16-2.56.26-3.86l.21-2c.19-1.64.36-3.06.58-4.35a17.24,17.24,0,0,1,1-3.59,12.16,12.16,0,0,1,1.83-3.13,22.33,22.33,0,0,1,3.12-3.13l.77-.64.84-.66c.24-.18.49-.36.76-.54l.08-.06a10.3,10.3,0,0,1,.9-.55C77.15,82.1,81,78,84.29,74.54c1.41-1.5,2.73-2.9,3.89-4,1.75-1.7,3.76-3.5,5.4-5.27a14.28,14.28,0,0,1,1.89-1.86l.09-.07A8.85,8.85,0,0,1,97.75,62a5.24,5.24,0,0,1,3.28-.25,4.18,4.18,0,0,1,1.51.74,3.44,3.44,0,0,1,1.1,1.44,4,4,0,0,1,.12,2.64,6.37,6.37,0,0,1-.78,1.75,8,8,0,0,1-1.27,1.53c-5,5.16-9.62,12-14.64,17a.58.58,0,0,0,.05.81.56.56,0,0,0,.41.14.57.57,0,0,0,.36-.16c5-5.24,11-10.21,16.13-15.37a11,11,0,0,0,.94-1,9,9,0,0,0,.72-1.1c2.29-3.43,6.34-14.93,8.24-19.46a1.82,1.82,0,0,1,.29-.45,6.36,6.36,0,0,1,1.46-1.19,4.18,4.18,0,0,1,1.69-.59h0a3.06,3.06,0,0,1,.91,0,2.62,2.62,0,0,1,.88.37,2.87,2.87,0,0,1,.76.72l.06.08a4,4,0,0,1,.48,1,9.31,9.31,0,0,1,.36,4.28,25.82,25.82,0,0,1-1.27,5.32c-1.38,4.36-2.59,9-3.79,13.47A37.18,37.18,0,0,1,113.38,81a34.45,34.45,0,0,1-5.24,7.34c-2.31,2.66-4.59,5-6.81,7.28s-4.29,4.17-6.45,6.2l-3.07,2.92c-.86.83-1.76,1.7-2.73,2.66a1.55,1.55,0,0,1-1.16.53Zm.82,3.65h.07a1.34,1.34,0,0,1,.35,0h.33A1.53,1.53,0,0,1,91,113v8.32a1.54,1.54,0,0,1-1.54,1.54H65.24a1.54,1.54,0,0,1-1.54-1.54V113a1.53,1.53,0,0,1,1.54-1.53H88.31l.43,0Zm-33.09-3.65H33a1.5,1.5,0,0,1-1.16-.53c-.86-.84-1.78-1.74-2.74-2.66s-2.09-1.92-3.07-2.92c-2.15-2-4.35-4.12-6.44-6.2s-4.5-4.62-6.81-7.28A34.57,34.57,0,0,1,7.56,81a37.91,37.91,0,0,1-2.41-7.21L4.09,69.87c-.9-3.18-1.76-6.45-2.73-9.6A25.18,25.18,0,0,1,.09,55a9.33,9.33,0,0,1,.35-4.28,4.54,4.54,0,0,1,.49-1,3,3,0,0,1,.81-.79,2.43,2.43,0,0,1,.89-.37,3,3,0,0,1,.9,0h.06a4.23,4.23,0,0,1,1.69.59A6.32,6.32,0,0,1,6.73,50.3a1.57,1.57,0,0,1,.29.45c1.91,4.53,6,16,8.24,19.46a9.11,9.11,0,0,0,.73,1.1,9.75,9.75,0,0,0,.94,1C22.08,77.5,28.1,82.47,33.05,87.71a.57.57,0,0,0,.37.16.68.68,0,0,0,.36-.1l.1-.09a.64.64,0,0,0,.14-.35.61.61,0,0,0-.11-.36c-4.64-5.4-9.82-12.11-14.67-17.1A8.31,8.31,0,0,1,18,68.34l-.06-.11a6.13,6.13,0,0,1-.72-1.64,4.12,4.12,0,0,1,.12-2.65l.05-.11a3.61,3.61,0,0,1,1.06-1.32,4.18,4.18,0,0,1,1.51-.74A5.24,5.24,0,0,1,23.2,62a9.43,9.43,0,0,1,2.19,1.32,13.51,13.51,0,0,1,2,2c1.26,1.53,3.85,3.76,5.38,5.24,1.15,1.1,2.47,2.5,3.89,4C40,78,43.8,82.1,46.87,83.78a9.74,9.74,0,0,1,.9.54c.3.19.58.4.84.6l.83.66.78.64a21.8,21.8,0,0,1,3.12,3.13,11.93,11.93,0,0,1,1.84,3.13,18.57,18.57,0,0,1,1,3.59c.22,1.29.38,2.71.58,4.35l.2,2c.11,1.3.2,2.56.26,3.86a1.52,1.52,0,0,1-1.45,1.6Z"/></svg>