<?xml version="1.0" encoding="utf-8"?><svg version="1.1" id="Layer_1" xmlns="http://www.w3.org/2000/svg" xmlns:xlink="http://www.w3.org/1999/xlink" x="0px" y="0px" viewBox="0 0 98.5 122.88" style="enable-background:new 0 0 98.5 122.88" xml:space="preserve"><g><path d="M49.87,51.44c0.04-0.07,0.09-0.13,0.14-0.18l0.02-0.02c0.05-0.05,0.1-0.1,0.15-0.15c0.09-0.11,0.18-0.23,0.27-0.36 c0.11-0.14,0.2-0.29,0.29-0.42c0.38-0.59,0.69-1.22,0.93-1.86c0.24-0.66,0.4-1.34,0.49-2.01c0.08-0.67,0.09-1.32,0.03-1.94 c-0.06-0.62-0.19-1.22-0.4-1.78c-0.33-0.91-0.85-1.73-1.55-2.35c-0.65-0.58-1.45-1-2.41-1.2l-0.02-0.01 c-0.81,0.19-1.53,0.26-2.17,0.2c-0.76-0.07-1.4-0.31-1.93-0.71c-0.43-0.33-0.77-0.74-1.02-1.24c-0.08-0.16-0.15-0.33-0.21-0.5 l-0.01,0c-0.33,0.18-0.68,0.33-1.03,0.45c-1.09,0.36-2.23,0.43-3.43,0.15c-1.09-0.25-2.22-0.78-3.39-1.61 c-0.63,0.08-1.23,0.1-1.79,0.07c-0.26-0.02-0.52-0.04-0.76-0.08c0.14,0.95,0.36,1.92,0.64,2.89c0.39,1.31,0.92,2.6,1.55,3.78 c0.77,1.43,1.68,2.68,2.68,3.55c0.85,0.74,1.77,1.21,2.71,1.27l0.14,0.01c0.52,0.03,0.99,0.27,1.32,0.62 c0.34,0.37,0.55,0.87,0.53,1.41c-0.02,0.47-0.19,0.89-0.48,1.22c-0.28,0.33-0.68,0.57-1.13,0.65c-2.2,0.45-4.09,1.15-5.64,2.01 c-1.62,0.9-2.87,1.98-3.73,3.16c-0.43,0.59-0.76,1.2-0.98,1.82c-0.22,0.61-0.34,1.23-0.35,1.85s0.09,1.24,0.3,1.86 c0.2,0.61,0.52,1.22,0.95,1.81c0.84,1.16,2.1,2.25,3.79,3.19c1.56,0.87,3.5,1.61,5.83,2.17c1.64-0.55,3.42-1.28,5.3-2.05l0.01,0 c8.9-3.66,19.65-8.09,27.07,0.73c0.35,0.42,0.5,0.94,0.46,1.44c-0.04,0.5-0.28,0.99-0.7,1.34c-0.42,0.35-0.94,0.5-1.44,0.46 c-0.5-0.04-0.99-0.28-1.34-0.7c-2.76-3.28-6.4-4-10.29-3.51c-4.03,0.5-8.35,2.28-12.26,3.89l0,0c-1.79,0.74-3.5,1.44-5.07,1.99 c-0.1,0.36-0.18,0.72-0.24,1.09c-0.08,0.49-0.13,0.97-0.14,1.45c-0.02,0.59,0,1.2,0.05,1.82c0.05,0.63,0.13,1.25,0.22,1.88 c0.08,0.54-0.07,1.06-0.37,1.46c-0.3,0.41-0.76,0.7-1.3,0.78c-0.54,0.08-1.06-0.07-1.46-0.37c-0.41-0.3-0.7-0.76-0.78-1.3 c-0.11-0.72-0.2-1.44-0.25-2.17c-0.06-0.73-0.08-1.47-0.05-2.24c0.02-0.54,0.06-1.08,0.14-1.61c0.04-0.3,0.09-0.6,0.16-0.91 c-2.33-0.66-4.31-1.51-5.96-2.5c-1.98-1.17-3.49-2.54-4.55-4.01c-0.18-0.24-0.34-0.49-0.49-0.74c0.16,0.54,0.27,1.07,0.31,1.6 c0.05,0.61,0.03,1.21-0.08,1.8c-0.06,0.34-0.14,0.67-0.25,1l0.1,0.04c0.27,0.12,0.53,0.26,0.8,0.41c0.65,0.39,1.24,0.89,1.75,1.49 c0.48,0.58,0.89,1.24,1.18,1.99c0.25,0.63,0.43,1.32,0.52,2.05c0.07,0.56,0.08,1.15,0.05,1.77c0.47,0.33,0.91,0.72,1.31,1.16 c0.51,0.55,0.97,1.18,1.36,1.87c0.4,0.72,0.73,1.49,0.95,2.29c0.22,0.78,0.34,1.58,0.35,2.39c0.01,0.39-0.01,0.77-0.06,1.14 c-0.02,0.2-0.06,0.41-0.1,0.61c0.43,0.31,0.87,0.58,1.31,0.82c0.56,0.31,1.12,0.56,1.69,0.75c0.53,0.18,1.06,0.31,1.6,0.39 c0.37,0.06,0.75,0.09,1.14,0.11c0.39-1.17,0.85-2.26,1.37-3.27c0.61-1.16,1.31-2.24,2.1-3.24c0.87-1.1,1.84-2.09,2.89-2.98 c1.05-0.89,2.19-1.68,3.4-2.38c0.08-0.04,0.16-0.08,0.23-0.12l0.25-0.09c0.12-0.03,0.21-0.07,0.27-0.12 c0.04-0.04,0.08-0.08,0.1-0.14c0.07-0.16,0.1-0.37,0.11-0.63c0.01-0.31-0.03-0.68-0.11-1.1c-0.1-0.54,0.03-1.06,0.32-1.48 c0.29-0.42,0.74-0.72,1.27-0.82l0.08-0.01c0.33-0.04,0.65-0.01,0.94,0.1c0.33,0.12,0.62,0.32,0.84,0.59l0.02,0.02 c0.24,0.27,0.45,0.57,0.66,0.87c0.21,0.32,0.41,0.64,0.6,0.95c0.27,0.45,0.55,0.92,0.73,1.19c0.08,0.12-0.44,0.23-0.19,0.22 c0.55-0.03,1.09-0.03,1.61-0.01c0.53,0.02,1.05,0.06,1.55,0.13c0.48,0.06,0.94,0.15,1.37,0.24c0.16,0.04,0.32,0.08,0.47,0.12 c0.06-0.22,0.13-0.43,0.2-0.64c0.17-0.47,0.39-0.91,0.65-1.33c0.36-0.58,0.81-1.11,1.35-1.56c0.51-0.43,1.09-0.79,1.75-1.06 l0.02-0.01c0.5-0.2,1.03-0.18,1.49,0.01c0.47,0.19,0.86,0.57,1.07,1.07l0.01,0.02c0.2,0.5,0.18,1.03-0.01,1.49 c-0.19,0.47-0.57,0.86-1.07,1.07l-0.01,0c-0.26,0.11-0.49,0.25-0.69,0.42c-0.21,0.18-0.4,0.4-0.55,0.64 c-0.17,0.28-0.3,0.58-0.39,0.91l-0.01,0.03c-0.08,0.28-0.12,0.57-0.14,0.87c0.37,0.34,0.69,0.72,0.95,1.12 c0.2,0.31,0.37,0.63,0.5,0.97l0.32-0.05c1.05-0.14,2.05-0.16,2.99-0.03c0.62,0.08,1.21,0.23,1.76,0.44 c0.03-0.12,0.06-0.23,0.09-0.35c0.34-1.21,0.96-2.2,1.92-2.94c0.85-0.65,1.95-1.08,3.33-1.26l0.88-1.87 c-0.71-1.01-1.18-2.02-1.41-3.03c-0.26-1.16-0.18-2.29,0.25-3.41c0.25-0.64,0.61-1.25,1.1-1.84c0.29-0.35,0.62-0.68,0.99-1.01 c-0.25-0.21-0.48-0.45-0.69-0.7c-0.45-0.53-0.82-1.14-1.13-1.81c-0.27-0.6-0.49-1.26-0.64-1.96c-0.12-0.55-0.2-1.14-0.24-1.75 c-2.11-1.21-4.05-2.14-5.9-2.84c-1.96-0.75-3.81-1.25-5.67-1.58c-1.92-0.34-3.86-0.52-5.94-0.6c-2.01-0.08-4.13-0.07-6.45-0.04 c-1.27,1.3-2.86,2.41-4.79,3.21c-1.84,0.76-3.99,1.23-6.45,1.31l-0.01,0c-0.54,0.01-1.04-0.19-1.4-0.53 c-0.37-0.34-0.6-0.83-0.62-1.38l0-0.07c0-0.51,0.2-0.99,0.53-1.34c0.35-0.37,0.83-0.6,1.38-0.62l0.06,0 c1.95-0.07,3.63-0.44,5.05-1.03C47.71,53.38,48.94,52.48,49.87,51.44L49.87,51.44z M25.84,63.1c-0.11-0.35-0.2-0.7-0.27-1.06 l-0.17,0.39C25.56,62.66,25.71,62.88,25.84,63.1L25.84,63.1z M26,56.83c0.35-0.94,0.84-1.85,1.48-2.72 c0.86-1.18,1.99-2.28,3.37-3.25c1-0.71,2.14-1.34,3.4-1.89c-0.49-0.44-0.96-0.92-1.4-1.45c-0.77-0.92-1.47-1.98-2.08-3.11 c-0.94-1.75-1.68-3.71-2.17-5.67c-0.49-1.97-0.72-3.94-0.66-5.72l0.01-0.16c-0.13-0.28-0.25-0.58-0.35-0.91l-0.02-0.07 c-0.24,0.16-0.48,0.31-0.72,0.44c-0.58,0.32-1.18,0.58-1.78,0.76c-0.52,0.16-1.04,0.26-1.56,0.31c-0.18,0.02-0.35,0.03-0.53,0.03 l0.04,0.33c0.74,0.7,1.31,1.48,1.72,2.31c0.49,0.98,0.75,2.02,0.81,3.04c0.03,0.57,0,1.14-0.09,1.68c-0.1,0.55-0.26,1.08-0.47,1.59 c-0.23,0.53-0.53,1.03-0.9,1.46c-0.14,0.18-0.3,0.34-0.47,0.5c0.33,0.29,0.62,0.59,0.87,0.91c0.45,0.56,0.79,1.17,1.01,1.83 c0.37,1.09,0.4,2.27,0.09,3.52c-0.26,1.04-0.76,2.14-1.5,3.29c0.41,0.39,0.77,0.81,1.07,1.25C25.53,55.66,25.81,56.22,26,56.83 L26,56.83z M43.67,92.42c-0.24,1.64-0.34,3.5-0.32,5.44c0.02,2.04,0.19,4.19,0.49,6.31c0.3,2.04,0.73,4.04,1.29,5.85 c0.52,1.66,1.15,3.17,1.9,4.4l0.03,0.05c0.07,0.13,0.13,0.27,0.17,0.4c0.04,0.15,0.07,0.31,0.08,0.46c0.07,0.98,0.25,1.75,0.5,2.33 c0.24,0.56,0.55,0.93,0.88,1.11c0.1,0.06,0.2,0.1,0.29,0.12c0.1,0.02,0.21,0.03,0.32,0.02c0.13-0.01,0.26-0.04,0.38-0.08 c0.14-0.05,0.28-0.12,0.43-0.22c0.48-0.31,0.91-0.83,1.22-1.51c0.29-0.65,0.47-1.46,0.48-2.39c0-0.21,0.03-0.4,0.09-0.58 c0.05-0.16,0.12-0.32,0.21-0.46l0.04-0.06l0.04-0.05c0.46-0.68,0.84-1.6,1.13-2.67c0.33-1.22,0.56-2.62,0.68-4.07 c0.13-1.56,0.12-3.13-0.01-4.55c-0.12-1.37-0.36-2.61-0.72-3.57c-0.19-0.51-0.15-1.05,0.07-1.51c0.21-0.46,0.6-0.83,1.11-1.02 c0.28-0.1,0.57-0.14,0.85-0.11c0.29,0.03,0.56,0.11,0.81,0.26c0.15,0.08,0.29,0.16,0.43,0.25c0.02-0.22,0.04-0.44,0.06-0.65 c0.1-0.75,0.26-1.42,0.49-2.01c0.29-0.76,0.68-1.41,1.17-1.95c0.49-0.55,1.07-0.98,1.74-1.32c0.49-0.24,1.03-0.27,1.51-0.11 l0.04,0.02c0.46,0.17,0.86,0.5,1.1,0.97c0.11,0.21,0.17,0.43,0.2,0.65c0.02,0.2,0.02,0.4-0.02,0.59l-0.01,0.08 c-0.36,1.52-0.47,2.83-0.41,3.94c0.07,1.18,0.34,2.11,0.74,2.79c0.13,0.22,0.28,0.41,0.43,0.56c0.14,0.14,0.3,0.26,0.45,0.33 c0.13,0.06,0.26,0.1,0.39,0.12c0.13,0.02,0.28,0.01,0.43-0.02c0.32-0.06,0.67-0.24,1.02-0.54c0.37-0.31,0.73-0.74,1.07-1.3 c0.28-0.45,0.71-0.76,1.18-0.88l0.04-0.01c0.47-0.11,0.98-0.06,1.43,0.2c0.26,0.15,0.52,0.25,0.76,0.3l0.02,0.01 c0.22,0.05,0.44,0.06,0.66,0.03c0.24-0.03,0.5-0.11,0.78-0.24c0.29-0.14,0.59-0.33,0.9-0.57c0.3-0.24,0.66-0.38,1.01-0.42l0.03,0 c0.33-0.03,0.67,0.02,0.97,0.16l0.1,0.04c0.83,0.41,1.56,0.64,2.2,0.72c0.6,0.07,1.12,0,1.58-0.18c0.48-0.19,0.93-0.52,1.36-0.95 c0.45-0.46,0.87-1.04,1.27-1.71c0.2-0.33,0.47-0.58,0.79-0.75c0.31-0.16,0.65-0.24,1-0.22l0.1,0.01c0.43,0.03,0.82,0.03,1.15-0.02 c0.34-0.04,0.64-0.12,0.9-0.24c0.24-0.11,0.45-0.25,0.62-0.41c0.17-0.17,0.31-0.36,0.4-0.58c0.11-0.25,0.18-0.54,0.21-0.87 c0.03-0.34,0.01-0.71-0.06-1.11c-0.1-0.57-0.29-1.17-0.59-1.79c-0.29-0.62-0.68-1.25-1.17-1.89c-0.33-0.43-0.45-0.96-0.39-1.46l0,0 c0.07-0.5,0.33-0.98,0.76-1.31c0.38-0.29,0.84-0.42,1.28-0.4c0.45,0.02,0.89,0.19,1.23,0.5c0.5,0.4,0.95,0.65,1.33,0.77 c0.34,0.11,0.62,0.1,0.82,0.02c0.08-0.04,0.16-0.09,0.24-0.15c0.08-0.08,0.16-0.17,0.23-0.28L90.11,85 c0.07-0.12,0.14-0.27,0.2-0.44c0.06-0.2,0.11-0.41,0.14-0.64c0.1-0.86-0.06-1.88-0.57-2.9c-0.46-0.92-1.19-1.84-2.24-2.65 c-0.43-0.33-0.69-0.81-0.75-1.31c-0.06-0.5,0.06-1.03,0.39-1.46c0.33-0.43,0.81-0.69,1.31-0.75c0.5-0.06,1.02,0.06,1.45,0.39 l0.01,0.01c1.23,0.86,2.2,1.46,2.91,1.79c0.45,0.21,0.7,0.31,0.74,0.32l0.01-0.01c0.11-0.09,0.16-0.49,0.16-1.21 c0-0.92-0.15-2.21-0.42-3.87c-0.05-0.32-0.02-0.63,0.07-0.92c0.1-0.3,0.27-0.57,0.49-0.79c0.14-0.14,0.24-0.29,0.3-0.46l0.01-0.03 c0.06-0.18,0.09-0.39,0.09-0.62c-0.01-0.34-0.08-0.72-0.21-1.16c-0.14-0.46-0.36-0.97-0.65-1.54c-0.19-0.38-0.25-0.79-0.19-1.18 c0.06-0.38,0.23-0.75,0.49-1.04c0.28-0.34,0.44-0.67,0.5-1c0.05-0.31,0-0.64-0.14-0.97c-0.22-0.51-0.63-1.07-1.21-1.66 c-0.61-0.62-1.41-1.27-2.4-1.96c-0.45-0.31-0.73-0.78-0.82-1.27c-0.09-0.5,0.01-1.03,0.32-1.48c0.25-0.37,0.61-0.62,1.01-0.75 c0.4-0.13,0.84-0.13,1.24,0c0.32,0.08,0.59,0.12,0.8,0.12c0.17,0,0.29-0.03,0.37-0.08c0.02-0.01,0.04-0.04,0.07-0.07 c0.04-0.07,0.08-0.16,0.11-0.27c0.05-0.2,0.07-0.42,0.07-0.67c0-0.26-0.04-0.56-0.1-0.89c-0.2-1.02-0.68-2.16-1.41-3.25 c-0.67-1-1.54-1.96-2.6-2.73c-0.44-0.32-0.71-0.79-0.79-1.29c-0.08-0.5,0.04-1.03,0.36-1.47c0.15-0.21,0.34-0.38,0.55-0.51 c0.22-0.13,0.45-0.23,0.7-0.27l0,0c0.71-0.18,1.22-0.36,1.56-0.56c0.19-0.11,0.28-0.18,0.29-0.21l0,0c0.02-0.14-0.08-0.38-0.28-0.7 c-0.27-0.43-0.68-0.92-1.23-1.48c-0.36-0.37-0.54-0.84-0.56-1.31c-0.01-0.46,0.13-0.91,0.43-1.29c0.02-0.03,0.05-0.07,0.08-0.1 c0.29-0.34,0.54-0.68,0.75-1.01c0.22-0.34,0.39-0.67,0.52-0.99c0.15-0.37,0.25-0.72,0.29-1.06c0.04-0.32,0.02-0.62-0.05-0.91 l-0.01-0.05c-0.07-0.28-0.19-0.55-0.37-0.81c-0.19-0.28-0.43-0.55-0.74-0.81c-0.27-0.24-0.59-0.46-0.95-0.67 c-0.36-0.21-0.77-0.41-1.23-0.61c-0.5-0.21-0.87-0.6-1.07-1.07c-0.19-0.47-0.21-1.01,0-1.51c0.11-0.27,0.28-0.5,0.48-0.69 l0.05-0.04c0.2-0.17,0.43-0.31,0.68-0.39l0.01,0c0.56-0.2,1.16-0.29,1.78-0.27c0.61,0.02,1.25,0.15,1.92,0.39 c0.39,0.14,0.79,0.32,1.2,0.54c0.13,0.07,0.25,0.14,0.38,0.21c0.03-0.21,0.05-0.43,0.05-0.64c0-0.5-0.08-1.03-0.24-1.61 c-0.17-0.6-0.42-1.23-0.76-1.89c-0.16-0.32-0.23-0.67-0.21-1c0.02-0.32,0.11-0.63,0.28-0.91c0.06-0.1,0.12-0.19,0.18-0.28l0.12-0.2 c0.18-0.34,0.31-0.65,0.36-0.94l0.01-0.05c0.04-0.23,0.03-0.44-0.02-0.62c-0.06-0.21-0.19-0.43-0.38-0.66 c-0.22-0.25-0.53-0.51-0.93-0.77l-0.25-0.16l-0.24-0.14c-0.48-0.27-0.8-0.7-0.94-1.18c-0.14-0.48-0.09-1.02,0.17-1.5 c0.08-0.13,0.16-0.25,0.25-0.36l0.02-0.02c0.09-0.1,0.19-0.19,0.3-0.26c0.55-0.45,1-0.92,1.36-1.39c0.37-0.49,0.64-0.99,0.81-1.48 c0.12-0.36,0.19-0.71,0.21-1.06c0.02-0.33-0.02-0.65-0.11-0.96c-0.08-0.29-0.21-0.56-0.39-0.81c-0.18-0.25-0.41-0.47-0.68-0.68 c-0.35-0.26-0.78-0.47-1.27-0.62C91.6,8.3,91.04,8.2,90.4,8.16c-0.33-0.02-0.64-0.13-0.91-0.29c-0.26-0.16-0.48-0.38-0.64-0.64 c-0.08-0.12-0.17-0.22-0.26-0.31c-0.09-0.09-0.2-0.17-0.32-0.25c-0.24-0.16-0.52-0.26-0.83-0.32c-0.34-0.07-0.71-0.08-1.09-0.04 c-0.42,0.04-0.85,0.15-1.27,0.3c-0.43,0.16-0.85,0.37-1.24,0.63c-0.34,0.23-0.66,0.49-0.95,0.77c-0.27,0.27-0.52,0.58-0.73,0.92 C82,9.17,81.82,9.36,81.61,9.51c-0.21,0.15-0.45,0.25-0.7,0.31c-0.57,0.14-1.09,0.33-1.56,0.59c-0.47,0.26-0.91,0.59-1.29,1 c-0.41,0.43-0.78,0.95-1.11,1.56c-0.33,0.63-0.62,1.36-0.85,2.19c-0.13,0.46-0.41,0.83-0.77,1.08c-0.37,0.26-0.82,0.39-1.28,0.35 l-0.01,0c-0.67-0.01-1.32,0.02-1.93,0.1c-0.6,0.08-1.17,0.2-1.67,0.4c-0.45,0.17-0.85,0.4-1.21,0.71 c-0.36,0.31-0.67,0.69-0.93,1.18c-0.14,0.27-0.34,0.49-0.57,0.66c-0.22,0.16-0.47,0.27-0.72,0.33l-0.09,0.02 c-0.22,0.05-0.4,0.12-0.56,0.21c-0.16,0.09-0.31,0.22-0.44,0.36c-0.16,0.18-0.31,0.4-0.44,0.66l-0.02,0.03 c-0.13,0.26-0.25,0.55-0.36,0.86c-0.17,0.52-0.55,0.91-1,1.13c-0.45,0.22-0.99,0.27-1.51,0.09l-0.17-0.07 c-0.59-0.25-1.16-0.44-1.71-0.56c-0.55-0.12-1.08-0.18-1.6-0.19c-0.51,0-1.01,0.05-1.5,0.15c-0.49,0.1-0.98,0.25-1.45,0.45 c-0.25,0.1-0.52,0.15-0.78,0.15c-0.25,0-0.5-0.06-0.72-0.15l-0.06-0.02c-0.59-0.26-1.15-0.48-1.68-0.63 c-0.53-0.15-1.05-0.26-1.55-0.32l-0.02,0c-0.46-0.05-0.92-0.06-1.36-0.02c-0.45,0.04-0.87,0.12-1.27,0.24 c-0.32,0.1-0.66,0.11-0.97,0.05c-0.33-0.07-0.63-0.21-0.88-0.42c-0.56-0.47-1.12-0.83-1.69-1.09c-0.56-0.26-1.12-0.42-1.69-0.5 c-0.58-0.08-1.18-0.08-1.8-0.01c-0.63,0.08-1.27,0.23-1.92,0.45c-0.38,0.13-0.76,0.13-1.11,0.04c-0.34-0.09-0.65-0.26-0.91-0.51 l-0.09-0.09c-0.49-0.52-0.95-0.95-1.39-1.28c-0.43-0.33-0.85-0.58-1.25-0.74c-0.33-0.14-0.65-0.21-0.96-0.24 c-0.3-0.02-0.6,0.01-0.88,0.09c-0.53,0.14-1.06,0.06-1.5-0.19c-0.42-0.24-0.76-0.63-0.91-1.13l-0.02-0.07 c-0.09-0.31-0.2-0.6-0.33-0.87c-0.13-0.27-0.29-0.51-0.46-0.73c-0.19-0.24-0.4-0.44-0.62-0.61c-0.22-0.16-0.45-0.29-0.69-0.38 c-0.25-0.09-0.52-0.14-0.81-0.15c-0.28-0.01-0.58,0.03-0.91,0.12l-0.03,0.01c-0.3,0.08-0.61,0.21-0.94,0.39 c-0.32,0.17-0.66,0.39-1,0.66l-0.09,0.07c-0.42,0.31-0.92,0.43-1.4,0.38c-0.48-0.05-0.95-0.29-1.28-0.69 c-0.03-0.03-0.05-0.06-0.08-0.1c-0.27-0.36-0.4-0.79-0.39-1.21c0.01-0.45,0.16-0.89,0.46-1.24c0.44-0.61,0.77-1.14,0.99-1.58 c0.1-0.2,0.17-0.37,0.2-0.49c0,0.01-0.01,0.01-0.02,0.01c-0.32-0.07-0.81-0.11-1.51-0.1c-0.51,0.01-0.98-0.18-1.33-0.49 c-0.34-0.3-0.58-0.73-0.65-1.2l-0.01-0.06c-0.1-0.89-0.28-1.64-0.53-2.26c-0.25-0.62-0.57-1.12-0.93-1.48 c-0.16-0.16-0.32-0.29-0.48-0.39c-0.17-0.11-0.34-0.19-0.53-0.25c-0.18-0.06-0.38-0.1-0.57-0.12c-0.2-0.02-0.41-0.02-0.63,0.01 c-0.53,0.06-1.1,0.25-1.67,0.56c-0.58,0.32-1.16,0.76-1.73,1.33c-0.12,0.12-0.26,0.23-0.4,0.31l-0.05,0.03 c-0.12,0.07-0.24,0.12-0.37,0.16l-0.04,0.01c-0.75,0.22-1.4,0.46-1.94,0.71c-0.53,0.25-0.97,0.52-1.3,0.8 c-0.23,0.2-0.4,0.39-0.51,0.58c-0.1,0.17-0.16,0.34-0.17,0.52c-0.02,0.21,0.02,0.45,0.1,0.7c0.1,0.3,0.26,0.61,0.47,0.94 c0.38,0.57,0.92,1.18,1.61,1.81c0.71,0.64,1.56,1.3,2.57,1.97c0.45,0.3,0.74,0.76,0.84,1.25c0.1,0.5,0.01,1.03-0.29,1.48 c-0.25,0.37-0.6,0.63-0.98,0.77l-0.04,0.01c-0.39,0.13-0.81,0.14-1.21,0.01l-0.01,0c-0.79-0.2-1.43-0.31-1.91-0.33 c-0.34-0.01-0.55,0.01-0.6,0.06c-0.01,0.01,0,0.15,0.03,0.41l0,0.02c0.06,0.45,0.25,1.07,0.57,1.87c0.12,0.31,0.16,0.64,0.13,0.95 c-0.04,0.31-0.15,0.61-0.32,0.87c-0.23,0.42-0.41,0.84-0.52,1.25c-0.12,0.42-0.17,0.84-0.17,1.25c0,0.42,0.08,0.85,0.22,1.31 c0.15,0.46,0.37,0.94,0.66,1.42c0.22,0.37,0.31,0.78,0.28,1.17C9.41,28.6,9.26,28.99,9,29.31c-0.31,0.43-0.53,0.85-0.67,1.26 c-0.13,0.41-0.19,0.82-0.16,1.23c0.03,0.44,0.15,0.9,0.36,1.38c0.22,0.51,0.54,1.03,0.96,1.56c0.33,0.43,0.46,0.96,0.39,1.46 c-0.06,0.5-0.32,0.98-0.75,1.31l-0.04,0.03c-1.13,0.84-2.01,1.58-2.59,2.21c-0.45,0.49-0.68,0.83-0.66,1 c0.01,0.07,0.27,0.18,0.81,0.36c0.8,0.25,2.01,0.47,3.7,0.63l0.02,0c0.53,0.06,1,0.32,1.31,0.7c0.32,0.39,0.49,0.9,0.44,1.44l0,0 c-0.04,0.47-0.25,0.89-0.56,1.2c-0.3,0.3-0.69,0.51-1.12,0.57l-0.07,0.01c-1.25,0.14-2.32,0.38-3.2,0.7 C6.27,46.7,5.54,47.11,5,47.57c-0.28,0.24-0.5,0.49-0.67,0.74c-0.16,0.25-0.27,0.5-0.33,0.75c-0.06,0.24-0.07,0.49-0.04,0.73 c0.03,0.26,0.11,0.52,0.24,0.79c0.2,0.43,0.52,0.86,0.95,1.27c0.43,0.42,0.97,0.81,1.62,1.17c0.48,0.27,0.8,0.7,0.94,1.18 c0.14,0.48,0.09,1.02-0.17,1.5l-0.09,0.14c-0.63,0.99-1.1,1.86-1.38,2.55c-0.22,0.54-0.3,0.92-0.23,1.07 c0.03,0.05,0.26,0.09,0.73,0.11c0.72,0.03,1.79-0.08,3.26-0.37c0.53-0.1,1.06,0.02,1.48,0.31c0.42,0.28,0.73,0.73,0.83,1.26 c0.1,0.51-0.01,1.02-0.27,1.42c-0.25,0.4-0.65,0.71-1.14,0.85c-1,0.31-1.83,0.69-2.52,1.11c-0.71,0.44-1.26,0.92-1.65,1.43 c-0.23,0.3-0.4,0.59-0.52,0.89l-0.01,0.03c-0.11,0.28-0.17,0.55-0.18,0.82c-0.01,0.27,0.02,0.53,0.1,0.79 c0.08,0.26,0.21,0.52,0.38,0.77c0.25,0.36,0.6,0.7,1.03,1c0.44,0.3,0.97,0.57,1.58,0.78l0.01,0c0.51,0.18,0.9,0.55,1.12,1 c0.22,0.45,0.27,0.99,0.09,1.51l-0.01,0.04c-0.03,0.07-0.05,0.13-0.07,0.18c-0.03,0.06-0.06,0.11-0.1,0.17 c-0.66,1.15-1.13,2.19-1.42,3.11c-0.29,0.91-0.4,1.68-0.33,2.27c0.02,0.16,0.05,0.29,0.09,0.4c0.03,0.06,0.05,0.11,0.07,0.13 c0.02,0.02,0.05,0.03,0.1,0.04c0.1,0.02,0.22,0.04,0.37,0.03c0.48-0.02,1.08-0.19,1.81-0.51c0.72-0.33,1.55-0.81,2.47-1.47 c0.17-0.14,0.36-0.28,0.55-0.43c0.23-0.17,0.43-0.32,0.59-0.43l0.02-0.02c0.42-0.29,0.92-0.39,1.4-0.32 c0.48,0.07,0.94,0.32,1.26,0.73c0.34,0.43,0.47,0.95,0.41,1.46c-0.06,0.5-0.31,0.98-0.74,1.32l-0.56,0.42l-0.53,0.39 c-0.6,0.49-1.12,0.99-1.57,1.5c-0.45,0.51-0.81,1.02-1.1,1.54c-0.24,0.43-0.41,0.85-0.51,1.24c-0.09,0.37-0.13,0.73-0.1,1.05 c0.03,0.29,0.12,0.58,0.27,0.85c0.15,0.27,0.37,0.53,0.67,0.78c0.35,0.29,0.78,0.56,1.32,0.8c0.53,0.24,1.16,0.45,1.9,0.62 l0.04,0.01c0.24,0.06,0.46,0.17,0.65,0.3c0.2,0.14,0.37,0.32,0.51,0.52c0.75,1.05,1.5,1.81,2.25,2.3c0.69,0.45,1.38,0.66,2.06,0.63 c0.75-0.03,1.57-0.34,2.43-0.9c0.92-0.6,1.89-1.49,2.92-2.66c0.31-0.35,0.73-0.57,1.16-0.64c0.3-0.05,0.6-0.03,0.89,0.05 c0.2-0.12,0.37-0.24,0.53-0.37c0.24-0.2,0.45-0.41,0.62-0.62c0.26-0.33,0.45-0.7,0.57-1.1c0.14-0.43,0.2-0.88,0.19-1.34 c-0.01-0.46-0.08-0.94-0.21-1.4c-0.14-0.49-0.34-0.96-0.58-1.39c-0.28-0.49-0.62-0.94-0.99-1.3c-0.35-0.34-0.74-0.61-1.14-0.78 c-0.42-0.18-0.76-0.5-0.97-0.89c-0.2-0.38-0.29-0.83-0.2-1.29c0.12-0.61,0.15-1.18,0.12-1.69c-0.03-0.52-0.13-0.98-0.29-1.38 c-0.13-0.34-0.31-0.64-0.53-0.9c-0.22-0.26-0.48-0.48-0.76-0.65c-0.22-0.13-0.45-0.23-0.7-0.31c-0.21-0.06-0.42-0.11-0.65-0.14 c-0.18,0.05-0.36,0.08-0.55,0.09c-0.18,0-0.37-0.02-0.55-0.07c-0.39,0.06-0.79,0.17-1.18,0.33c-0.44,0.18-0.88,0.43-1.31,0.75 c-0.44,0.32-0.97,0.44-1.47,0.36c-0.5-0.08-0.97-0.35-1.29-0.79c-0.32-0.44-0.44-0.97-0.36-1.47c0.08-0.5,0.35-0.97,0.79-1.29 c0.73-0.54,1.5-0.96,2.27-1.26c0.68-0.27,1.37-0.45,2.06-0.54c0.16-0.29,0.28-0.57,0.36-0.86l0.01-0.03 c0.09-0.36,0.13-0.72,0.1-1.09c-0.04-0.49-0.19-1.01-0.46-1.55c-0.28-0.57-0.68-1.16-1.2-1.77c-0.29-0.31-0.46-0.71-0.5-1.12 c-0.04-0.41,0.04-0.84,0.26-1.22c0.45-0.76,0.74-1.44,0.88-2.04c0.13-0.55,0.14-1.03,0.03-1.44c-0.1-0.4-0.32-0.78-0.63-1.14 c-0.34-0.39-0.79-0.75-1.33-1.1l-0.17-0.13c-0.43-0.34-0.67-0.82-0.73-1.33c-0.05-0.5,0.08-1.02,0.42-1.45l0,0 c0.87-1.08,1.45-2.03,1.76-2.85c0.28-0.73,0.33-1.35,0.16-1.85c-0.17-0.51-0.59-0.98-1.25-1.42c-0.74-0.49-1.76-0.93-3.04-1.31 l-0.06-0.02c-0.49-0.16-0.88-0.5-1.12-0.93c-0.24-0.44-0.31-0.98-0.16-1.5c0.15-0.52,0.5-0.94,0.94-1.18 c0.42-0.23,0.92-0.31,1.42-0.19l0.03,0c0.04,0.01,0.09,0.02,0.13,0.04c0.45,0.12,0.84,0.16,1.18,0.13 c0.33-0.03,0.61-0.13,0.84-0.28c0.14-0.1,0.28-0.22,0.39-0.36c0.12-0.15,0.23-0.33,0.31-0.52c0.09-0.21,0.16-0.45,0.2-0.69 c0.04-0.25,0.06-0.51,0.04-0.78c-0.03-0.55-0.19-1.12-0.49-1.66c-0.27-0.49-0.67-0.96-1.19-1.35l-0.05-0.04 c-0.21-0.17-0.38-0.38-0.51-0.62c-0.13-0.25-0.21-0.54-0.22-0.84c-0.03-0.83-0.19-1.58-0.46-2.26c-0.27-0.67-0.66-1.27-1.16-1.81 c-0.54-0.58-1.21-1.09-2.01-1.55c-0.81-0.46-1.75-0.85-2.82-1.19l-0.1-0.03c-0.49-0.17-0.88-0.52-1.11-0.95 c-0.23-0.43-0.29-0.95-0.15-1.45c0.01-0.04,0.02-0.08,0.03-0.11c0.17-0.49,0.52-0.88,0.95-1.11c0.43-0.23,0.95-0.3,1.45-0.16 l0.1,0.03c0.62,0.19,1.21,0.41,1.77,0.64l0.46,0.2l0-0.1c-0.01-0.48,0-0.96,0.03-1.46l0.01-0.11c0.05-0.52,0.3-0.97,0.66-1.29v0 c0.37-0.32,0.86-0.51,1.38-0.49c0.04,0,0.07,0,0.1,0.01c0.52,0.05,0.98,0.3,1.3,0.66l0.05,0.06c0.31,0.37,0.48,0.86,0.44,1.37l0,0 c-0.07,1.1-0.02,2.03,0.12,2.81c0.15,0.8,0.4,1.43,0.72,1.9c0.17,0.25,0.37,0.46,0.57,0.62c0.21,0.16,0.44,0.28,0.67,0.35 c0.25,0.08,0.52,0.11,0.81,0.1c0.31-0.01,0.63-0.06,0.96-0.16c0.64-0.19,1.29-0.55,1.93-1.06c0.62-0.5,1.22-1.15,1.76-1.93 l0.01-0.01c0.31-0.44,0.77-0.72,1.26-0.82c0.5-0.09,1.03,0,1.48,0.31l0.01,0.01c0.31,0.22,0.54,0.51,0.69,0.83 c0.15,0.34,0.2,0.71,0.15,1.08l0,0.01c-0.1,1.06-0.09,1.91,0.04,2.58c0.11,0.59,0.3,1.01,0.57,1.27l0.05,0.05 c0.23,0.2,0.56,0.33,0.99,0.38c0.52,0.06,1.16,0.01,1.9-0.13l0.03-0.01c0.29-0.05,0.58-0.04,0.85,0.04 c0.28,0.07,0.54,0.21,0.76,0.4c0.83,0.66,1.57,1.08,2.23,1.28c0.59,0.18,1.11,0.19,1.57,0.04c0.52-0.17,1.03-0.55,1.53-1.1 c0.54-0.6,1.05-1.4,1.55-2.36c0.25-0.49,0.67-0.82,1.15-0.98c0.48-0.15,1.02-0.13,1.5,0.12c0.44,0.23,0.76,0.59,0.93,1.01 c0.16,0.4,0.19,0.86,0.07,1.29l-0.03,0.1c-0.43,1.27-0.69,2.28-0.78,3c-0.06,0.49-0.06,0.76-0.02,0.79 c0.1,0.08,0.45,0.02,1.05-0.16c0.79-0.25,1.86-0.74,3.22-1.48c0.39-0.21,0.82-0.28,1.22-0.23c0.41,0.06,0.8,0.24,1.1,0.53 c0.5,0.46,0.98,0.8,1.43,1c0.41,0.18,0.79,0.26,1.15,0.23c0.39-0.04,0.8-0.2,1.23-0.5c0.48-0.33,0.98-0.81,1.49-1.45 c0.26-0.33,0.61-0.55,0.99-0.66c0.36-0.11,0.75-0.11,1.12,0c0.01,0,0.07,0.03,0.08,0.02c1.31,0.45,2.41,0.7,3.32,0.76 c0.83,0.05,1.48-0.05,1.95-0.31c0.38-0.22,0.67-0.6,0.86-1.14c0.23-0.63,0.33-1.47,0.31-2.51v0c-0.01-0.54,0.21-1.04,0.56-1.4 c0.35-0.36,0.84-0.59,1.39-0.6c0.44-0.01,0.86,0.13,1.19,0.38c0.34,0.25,0.6,0.61,0.73,1.02l0.01,0.02 c0.37,1.06,0.73,1.81,1.08,2.28c0.21,0.29,0.37,0.43,0.48,0.43l0.03,0c0.32-0.05,0.74-0.36,1.25-0.91 c0.61-0.65,1.29-1.61,2.04-2.86c0.25-0.41,0.62-0.7,1.05-0.85c0.43-0.15,0.91-0.15,1.35,0.02l0.02,0.01 c0.84,0.28,1.56,0.4,2.15,0.37c0.52-0.03,0.94-0.19,1.25-0.48c0.4-0.37,0.72-0.96,0.95-1.77c0.25-0.88,0.39-2,0.42-3.36l0-0.01 c0.01-0.54,0.24-1.03,0.6-1.37c0.36-0.35,0.86-0.56,1.41-0.55l0.01,0c0.44,0.01,0.85,0.17,1.17,0.42c0.31,0.24,0.54,0.57,0.67,0.96 l0.03,0.09c0.11,0.4,0.23,0.76,0.36,1.07c0.13,0.3,0.27,0.55,0.41,0.75c0.11,0.16,0.24,0.29,0.37,0.4c0.12,0.1,0.25,0.17,0.38,0.22 c0.51,0.19,0.9,0.56,1.11,1.02c0.21,0.46,0.25,1,0.07,1.51l0,0.01c-0.19,0.51-0.56,0.89-1.02,1.1c-0.46,0.21-1,0.25-1.51,0.07 l-0.01,0c-0.33-0.12-0.65-0.27-0.95-0.46c-0.15,0.41-0.32,0.79-0.52,1.14c-0.36,0.66-0.78,1.21-1.27,1.67 c-0.54,0.5-1.15,0.88-1.82,1.14c-0.36,0.14-0.74,0.24-1.13,0.31c0.26,0.83,0.37,1.67,0.39,2.5c0.03,1.12-0.09,2.19-0.21,3.21 c-0.1,0.88-0.2,1.69-0.11,2.29c0.06,0.42,0.22,0.73,0.56,0.88c0.09,0.03,0.18,0.07,0.27,0.11l0.05,0.03 c0.07,0.04,0.14,0.08,0.2,0.12l0.01,0.01c0.44,0.31,0.72,0.78,0.8,1.27c0.09,0.5-0.02,1.03-0.33,1.47l0,0 c-0.75,1.06-1.28,1.96-1.6,2.69l-0.02,0.03c-0.27,0.62-0.37,1.09-0.3,1.4c0.01,0.06,0.11,0.12,0.29,0.2 c0.34,0.14,0.85,0.23,1.52,0.26c0.27,0,0.54,0.06,0.79,0.17c0.25,0.11,0.47,0.27,0.66,0.48l0.04,0.05c0.34,0.4,0.5,0.91,0.46,1.4 c-0.03,0.5-0.25,0.98-0.64,1.34l-0.04,0.04c-1.01,0.9-1.78,1.94-2.32,3.02c-0.58,1.16-0.91,2.38-1.02,3.55 c0.07,0.22,0.11,0.44,0.1,0.67c-0.01,0.22-0.05,0.45-0.13,0.67c0.02,0.43,0.08,0.84,0.16,1.23c0.09,0.43,0.22,0.83,0.39,1.2 c0.15,0.33,0.32,0.62,0.52,0.85c0.17,0.21,0.37,0.38,0.59,0.51c0.23,0.13,0.51,0.21,0.81,0.21c0.32,0,0.68-0.07,1.09-0.23 l0.04-0.02c0.49-0.18,1.01-0.16,1.46,0.03c0.46,0.2,0.85,0.57,1.06,1.07c0.21,0.5,0.19,1.05,0,1.51c-0.19,0.47-0.57,0.86-1.07,1.07 l-0.07,0.03c-1.37,0.57-2.44,1.15-3.22,1.75l-0.05,0.03c-0.7,0.54-1.14,1.07-1.35,1.6c-0.17,0.43-0.16,0.92,0.02,1.46 c0.21,0.61,0.63,1.28,1.25,2.01l0.04,0.05c0.23,0.28,0.37,0.62,0.42,0.97c0.05,0.36,0,0.74-0.17,1.1l-1.87,3.97 c-0.15,0.35-0.4,0.64-0.71,0.85c-0.3,0.2-0.66,0.32-1.05,0.33c-0.91,0.02-1.58,0.17-2.04,0.44c-0.39,0.23-0.63,0.56-0.74,0.96 c-0.11,0.39-0.15,0.86-0.13,1.38c0.02,0.53,0.1,1.12,0.23,1.77c0.07,0.17,0.15,0.34,0.21,0.53c0.08,0.22,0.16,0.44,0.22,0.64 c0.09,0.28,0.16,0.58,0.23,0.9c0.06,0.3,0.12,0.62,0.17,0.96l0,0.01c0.07,0.54-0.08,1.05-0.38,1.45c-0.31,0.4-0.76,0.69-1.3,0.77 l-0.01,0c-0.49,0.07-0.97-0.06-1.36-0.32c-0.38-0.25-0.67-0.64-0.8-1.1c-0.14-0.43-0.28-0.87-0.41-1.32 c-0.11-0.39-0.21-0.78-0.31-1.19c-0.16-0.3-0.34-0.56-0.55-0.78c-0.22-0.23-0.47-0.42-0.73-0.56c-0.39-0.21-0.84-0.34-1.35-0.39 c-0.56-0.07-1.18-0.05-1.84,0.04c-0.3,0.04-0.62,0.1-0.93,0.17l-0.03,0.01c-0.3,0.07-0.63,0.16-0.99,0.26l-0.07,0.02 c-0.11,0.03-0.23,0.05-0.34,0.06c-0.11,0.01-0.22,0.01-0.34,0c-0.05,0-0.1-0.01-0.15-0.02c-0.51-0.09-0.94-0.36-1.23-0.74 c-0.29-0.38-0.45-0.87-0.4-1.38c0-0.04,0.01-0.09,0.01-0.13l0.01-0.11l0-0.16c-0.01-0.22-0.08-0.43-0.2-0.62 c-0.14-0.22-0.34-0.43-0.6-0.62c-0.35-0.25-0.78-0.47-1.29-0.65c-0.53-0.18-1.13-0.32-1.78-0.41c-0.38-0.05-0.77-0.08-1.19-0.1 l-0.01,0c-0.41-0.01-0.83-0.01-1.27,0.01c-0.73,0.04-1.36-0.18-1.91-0.56c-0.23-0.16-0.45-0.35-0.65-0.56 c-0.15,0.17-0.31,0.32-0.48,0.46c-0.42,0.34-0.92,0.61-1.49,0.79c-0.95,0.57-1.85,1.2-2.68,1.9c-0.85,0.72-1.62,1.51-2.3,2.37 c-0.69,0.88-1.31,1.85-1.84,2.92c-0.53,1.07-0.97,2.25-1.32,3.53l0,0.01c-0.06,0.24-0.16,0.46-0.29,0.66 C43.86,92.22,43.77,92.33,43.67,92.42L43.67,92.42z M23.38,10.27c0.01-0.05,0.02-0.09,0.01-0.12l-0.01,0.05L23.38,10.27 L23.38,10.27z M23.39,10.15l0-0.02c-0.02-0.07-0.01-0.01-0.01,0.06L23.39,10.15L23.39,10.15z M26.65,95.2 c-0.46,0.3-0.92,0.57-1.38,0.78c-1.04,0.49-2.08,0.77-3.12,0.81c-1.37,0.06-2.69-0.27-3.96-1c-1.17-0.67-2.28-1.68-3.33-3.04 c-0.82-0.23-1.55-0.51-2.2-0.82c-0.76-0.37-1.41-0.79-1.96-1.25c-0.69-0.58-1.22-1.23-1.6-1.93c-0.4-0.73-0.63-1.51-0.72-2.33 c-0.07-0.67-0.03-1.35,0.11-2.03c0.06-0.3,0.14-0.59,0.23-0.89c-0.52-0.01-1.01-0.08-1.46-0.23c-0.57-0.18-1.07-0.47-1.49-0.85 c-0.41-0.37-0.74-0.82-0.99-1.35c-0.24-0.51-0.39-1.08-0.46-1.7c-0.1-0.89-0.01-1.93,0.28-3.07c0.22-0.88,0.56-1.84,1.03-2.85 c-0.42-0.25-0.8-0.53-1.15-0.82c-0.54-0.45-1-0.96-1.37-1.5c-0.42-0.6-0.73-1.24-0.92-1.91c-0.2-0.67-0.28-1.37-0.25-2.07 c0.03-0.7,0.18-1.4,0.44-2.08c0.26-0.66,0.62-1.31,1.09-1.91c0.1-0.13,0.22-0.27,0.34-0.41c-0.17-0.1-0.33-0.2-0.48-0.32 c-0.45-0.35-0.78-0.77-1.03-1.27c-0.41-0.86-0.47-1.86-0.22-2.98c0.19-0.87,0.57-1.82,1.1-2.83c-0.48-0.38-0.91-0.79-1.29-1.21 c-0.53-0.6-0.95-1.23-1.26-1.88c-0.31-0.66-0.51-1.35-0.6-2.03c-0.08-0.69-0.05-1.38,0.11-2.06c0.16-0.68,0.43-1.33,0.82-1.95 c0.37-0.59,0.86-1.15,1.46-1.66c0.32-0.28,0.67-0.53,1.05-0.77l0.01-0.01C3.23,43.59,3,43.39,2.8,43.17l-0.04-0.05 c-0.46-0.53-0.74-1.13-0.84-1.78c-0.15-1.02,0.16-2.07,0.88-3.15c0.57-0.86,1.41-1.75,2.48-2.66c-0.26-0.48-0.47-0.96-0.64-1.44 l-0.01-0.04c-0.23-0.67-0.37-1.34-0.41-2.01c-0.05-0.77,0.02-1.53,0.22-2.28c0.16-0.61,0.41-1.22,0.74-1.81 c-0.25-0.54-0.44-1.08-0.58-1.62C4.42,25.67,4.34,25,4.33,24.33c-0.01-0.69,0.07-1.38,0.24-2.05c0.14-0.57,0.34-1.14,0.6-1.7 c-0.4-1.22-0.56-2.27-0.5-3.17c0.08-1.06,0.46-1.91,1.13-2.56c0.21-0.2,0.44-0.38,0.69-0.53l-0.32-0.36 c-0.33-0.39-0.63-0.78-0.89-1.17C4.83,12.1,4.5,11.41,4.3,10.73c-0.21-0.7-0.29-1.39-0.24-2.06C4.12,7.94,4.33,7.25,4.68,6.6 C5.03,5.98,5.51,5.4,6.14,4.86c0.53-0.45,1.17-0.87,1.92-1.24c0.67-0.33,1.44-0.64,2.31-0.91c0.81-0.75,1.66-1.34,2.52-1.78 c0.95-0.48,1.91-0.78,2.86-0.88c0.5-0.06,0.99-0.06,1.48-0.01c0.49,0.05,0.96,0.15,1.42,0.31C19.12,0.5,19.57,0.72,20,0.99 c0.42,0.27,0.82,0.58,1.18,0.94l0.04,0.04c0.58,0.59,1.08,1.3,1.49,2.15c0.32,0.67,0.59,1.42,0.79,2.25 c0.97,0.14,1.74,0.41,2.33,0.82c0.76,0.52,1.21,1.22,1.41,2.09c0.05,0.25,0.08,0.5,0.08,0.76c0.29-0.02,0.58-0.02,0.86,0 c0.62,0.04,1.22,0.17,1.79,0.37c0.6,0.22,1.17,0.52,1.68,0.89c0.53,0.38,1,0.84,1.4,1.35c0.22,0.28,0.43,0.58,0.61,0.89 c0.1,0.17,0.19,0.34,0.28,0.51c0.34,0,0.68,0.03,1.02,0.09c0.51,0.09,1.03,0.24,1.55,0.45c0.59,0.24,1.18,0.57,1.76,0.97 c0.47,0.33,0.95,0.72,1.43,1.17c0.66-0.16,1.31-0.27,1.96-0.33c0.79-0.07,1.58-0.05,2.37,0.06c0.83,0.12,1.65,0.34,2.46,0.68 c0.7,0.29,1.4,0.68,2.08,1.16c0.46-0.09,0.93-0.15,1.41-0.17c0.59-0.03,1.19-0.01,1.8,0.05c0.64,0.07,1.29,0.19,1.94,0.37 c0.57,0.15,1.14,0.35,1.73,0.58c0.55-0.18,1.1-0.33,1.66-0.42c0.65-0.11,1.32-0.17,2.02-0.17c0.6,0,1.19,0.06,1.79,0.16 c0.41,0.07,0.83,0.16,1.25,0.28c0.06-0.1,0.12-0.2,0.19-0.3l0.03-0.04c0.17-0.26,0.36-0.51,0.57-0.74 c0.34-0.38,0.71-0.71,1.14-0.99c0.36-0.23,0.74-0.43,1.16-0.58c0.47-0.69,1-1.26,1.59-1.73c0.66-0.52,1.38-0.92,2.16-1.22 c0.65-0.25,1.34-0.43,2.06-0.54c0.54-0.09,1.1-0.14,1.67-0.17c0.28-0.73,0.6-1.4,0.96-2.02c0.44-0.75,0.94-1.42,1.5-1.99 c0.61-0.63,1.27-1.16,1.99-1.58c0.65-0.38,1.34-0.69,2.07-0.92c0.3-0.39,0.64-0.76,1-1.1c0.43-0.41,0.9-0.78,1.4-1.11 c0.66-0.43,1.36-0.79,2.07-1.05c0.72-0.27,1.46-0.44,2.2-0.52c0.8-0.09,1.6-0.05,2.36,0.1c0.74,0.16,1.45,0.43,2.09,0.84 c0.25,0.16,0.5,0.34,0.73,0.55c0.15,0.13,0.3,0.28,0.44,0.43c0.76,0.11,1.46,0.28,2.1,0.51c0.76,0.28,1.44,0.64,2.03,1.06 c0.64,0.46,1.17,1,1.6,1.6c0.44,0.62,0.76,1.29,0.97,2c0.2,0.69,0.28,1.42,0.25,2.16c-0.03,0.73-0.17,1.48-0.43,2.22 c-0.22,0.62-0.51,1.24-0.88,1.84l-0.04,0.05c-0.23,0.36-0.49,0.72-0.78,1.07c0.31,0.3,0.58,0.61,0.81,0.94 c0.37,0.53,0.64,1.09,0.81,1.69c0.2,0.73,0.24,1.49,0.12,2.27c-0.1,0.65-0.32,1.31-0.66,1.99c0.3,0.7,0.53,1.38,0.69,2.04 c0.19,0.78,0.28,1.53,0.28,2.26c0,0.88-0.14,1.73-0.41,2.53c-0.27,0.8-0.67,1.56-1.19,2.27l-0.12,0.14 c-0.17,0.19-0.38,0.35-0.59,0.46l0.03,0.12c0.17,0.7,0.21,1.43,0.13,2.17c-0.07,0.73-0.27,1.47-0.58,2.22 c-0.15,0.36-0.33,0.73-0.54,1.09c-0.12,0.21-0.24,0.41-0.38,0.61c0.49,0.63,0.86,1.25,1.12,1.86c0.33,0.8,0.46,1.59,0.35,2.36 c-0.1,0.69-0.38,1.32-0.84,1.89c-0.27,0.33-0.6,0.63-1,0.9c0.7,0.82,1.3,1.69,1.79,2.57c0.67,1.22,1.13,2.46,1.36,3.61 c0.11,0.58,0.17,1.16,0.17,1.71c0,0.56-0.06,1.09-0.19,1.58c-0.15,0.6-0.4,1.14-0.73,1.61c-0.2,0.28-0.42,0.53-0.68,0.75 c0.28,0.31,0.53,0.61,0.76,0.92c0.4,0.53,0.71,1.07,0.95,1.61c0.41,0.94,0.58,1.86,0.5,2.76c-0.06,0.79-0.31,1.56-0.74,2.3 c0.22,0.53,0.39,1.05,0.52,1.54c0.16,0.62,0.24,1.21,0.25,1.79c0.01,0.64-0.07,1.25-0.24,1.81c-0.15,0.47-0.35,0.91-0.63,1.32 c0.27,1.93,0.34,3.52,0.18,4.78c-0.19,1.46-0.68,2.51-1.52,3.17l-0.07,0.05c-0.42,0.31-0.89,0.51-1.42,0.6 c-0.17,0.03-0.34,0.05-0.52,0.05c0.09,0.35,0.16,0.71,0.21,1.06c0.11,0.75,0.11,1.47,0.03,2.15c-0.06,0.51-0.17,1.01-0.33,1.47 c-0.16,0.46-0.37,0.91-0.63,1.31c-0.28,0.44-0.61,0.83-0.99,1.16l-0.04,0.04c-0.36,0.31-0.77,0.56-1.22,0.75 c-0.34,0.14-0.7,0.25-1.07,0.31l-0.08,0.01l0.01,0.02c0.09,0.32,0.15,0.62,0.2,0.91c0.13,0.77,0.16,1.51,0.09,2.22 c-0.07,0.72-0.25,1.4-0.53,2.03c-0.3,0.67-0.71,1.27-1.23,1.78c-0.51,0.5-1.11,0.91-1.82,1.21c-0.46,0.2-0.97,0.36-1.5,0.46 c-0.39,0.08-0.81,0.12-1.25,0.14c-0.49,0.7-1.03,1.33-1.61,1.86c-0.7,0.63-1.46,1.13-2.32,1.47c-0.9,0.36-1.87,0.53-2.93,0.47 c-0.93-0.05-1.92-0.26-2.98-0.68c-0.37,0.22-0.74,0.4-1.11,0.55c-0.49,0.19-0.99,0.32-1.5,0.38c-0.46,0.06-0.91,0.06-1.36,0.02 c-0.28-0.03-0.56-0.08-0.84-0.15c-0.48,0.55-1,1.01-1.53,1.37c-0.7,0.47-1.44,0.78-2.18,0.93c-0.57,0.11-1.15,0.13-1.71,0.05 c-0.57-0.08-1.12-0.25-1.64-0.51c-0.5-0.25-0.96-0.58-1.39-1c-0.36-0.35-0.69-0.76-0.99-1.22l-0.12,0.17 c-0.32,0.42-0.71,0.72-1.14,0.92c-0.19,0.09-0.39,0.16-0.6,0.2c0.03,0.54,0.04,1.1,0.04,1.67c0,0.82-0.04,1.62-0.1,2.4 c-0.13,1.63-0.4,3.26-0.8,4.73c-0.36,1.32-0.83,2.51-1.41,3.48c-0.08,1.42-0.44,2.68-0.97,3.74c-0.63,1.24-1.5,2.21-2.48,2.85 c-0.41,0.27-0.85,0.49-1.31,0.64c-0.46,0.16-0.93,0.26-1.39,0.29c-0.49,0.04-0.99,0-1.48-0.11c-0.48-0.11-0.94-0.29-1.38-0.54 c-0.9-0.52-1.71-1.34-2.3-2.5c-0.5-0.97-0.86-2.18-1.01-3.65c-0.82-1.44-1.51-3.12-2.07-4.94c-0.62-2-1.09-4.18-1.41-6.39 c-0.31-2.16-0.49-4.37-0.53-6.51c-0.03-1.86,0.04-3.66,0.22-5.3c-0.34-0.04-0.69-0.09-1.02-0.16c-0.59-0.11-1.18-0.27-1.77-0.47 c-0.7-0.24-1.4-0.54-2.08-0.9c-0.49-0.25-0.97-0.54-1.45-0.86c-0.31,0.35-0.66,0.68-1.06,0.98c-0.37,0.29-0.78,0.55-1.23,0.79 c0.14,0.93,0.03,1.89-0.23,2.89c-0.3,1.15-0.79,2.34-1.3,3.58l0,0c-1.37,3.3-2.95,7.15,0.27,10.2c0.4,0.37,0.6,0.87,0.62,1.38 c0.01,0.5-0.16,1.01-0.54,1.41c-0.37,0.4-0.87,0.6-1.38,0.62c-0.5,0.01-1.01-0.16-1.41-0.54c-2.6-2.46-3.35-5.04-3.22-7.57 c0.13-2.46,1.11-4.82,2.01-6.99l0.01-0.03C26.14,96.53,26.42,95.83,26.65,95.2L26.65,95.2z M54.49,39.29 c0.41,0.64,0.75,1.34,1.02,2.08c0.31,0.86,0.52,1.77,0.61,2.7c0.1,0.93,0.09,1.89-0.03,2.83l-0.01,0.07 c-0.1,0.8-0.28,1.59-0.53,2.36c-0.13,0.4-0.28,0.8-0.45,1.19c1.69,0,3.28,0.02,4.82,0.1c1.91,0.1,3.75,0.29,5.6,0.62 c1.95,0.35,3.89,0.86,5.89,1.59c1.74,0.63,3.53,1.43,5.42,2.44c0.2-0.75,0.46-1.5,0.79-2.24c0.33-0.72,0.72-1.43,1.19-2.11 c-0.41-0.22-0.76-0.49-1.05-0.81c-0.51-0.54-0.84-1.2-1-1.97c-0.17-0.82-0.1-1.74,0.22-2.77c0.25-0.83,0.66-1.72,1.22-2.69 c-0.72-0.73-1.05-1.6-1.17-2.58c-0.13-1.07,0-2.23,0.14-3.47l0.01-0.08c0.16-1.35,0.32-2.84-0.11-4.12 c-0.61,0.77-1.22,1.41-1.82,1.91c-0.9,0.74-1.81,1.17-2.72,1.28l-0.03,0c-0.13,0.02-0.28,0.02-0.43,0.02c-0.11,0-0.21,0-0.31-0.01 c-1.1,0.29-2.03,0.81-2.78,1.47c-0.85,0.74-1.47,1.67-1.85,2.67c-0.18,0.47-0.31,0.97-0.39,1.48c-0.07,0.5-0.09,1.01-0.05,1.5 c0.04,0.48,0.13,0.95,0.29,1.4c0.15,0.43,0.35,0.83,0.6,1.2c0.46,0.67,1.11,1.24,1.96,1.64c0.8,0.38,1.78,0.61,2.94,0.64 c0.03,0,0.07,0,0.1,0c0.51,0.03,0.97,0.26,1.3,0.61c0.34,0.36,0.55,0.85,0.54,1.39c0,0.03,0,0.07,0,0.1 c-0.03,0.51-0.26,0.97-0.61,1.3c-0.36,0.34-0.85,0.55-1.39,0.54c-0.03,0-0.06,0-0.08,0c-1.79-0.05-3.33-0.44-4.63-1.07 c-1.45-0.71-2.58-1.72-3.4-2.92c-0.45-0.66-0.81-1.38-1.07-2.13c-0.27-0.77-0.43-1.58-0.5-2.39c-0.06-0.78-0.04-1.58,0.08-2.38 c0.12-0.79,0.32-1.57,0.62-2.34c0.11-0.29,0.24-0.58,0.38-0.86c-0.36,0-0.74-0.03-1.13-0.07c-0.79-0.09-1.63-0.26-2.52-0.51 c-0.65,0.66-1.31,1.18-1.99,1.57c-0.81,0.46-1.65,0.74-2.51,0.82C55.26,39.33,54.88,39.33,54.49,39.29L54.49,39.29z"/></g></svg>