<?xml version="1.0" encoding="utf-8"?><svg version="1.1" id="Layer_1" xmlns="http://www.w3.org/2000/svg" xmlns:xlink="http://www.w3.org/1999/xlink" x="0px" y="0px" viewBox="0 0 70.29 122.88" style="enable-background:new 0 0 70.29 122.88" xml:space="preserve"><style type="text/css">.st0{fill-rule:evenodd;clip-rule:evenodd;} .st1{fill-rule:evenodd;clip-rule:evenodd;fill:#478AFF;}</style><g><path class="st0" d="M13.26,0h43.76C60.67,0,64,1.49,66.4,3.88c2.4,2.4,3.89,5.73,3.89,9.38v96.36c0,3.65-1.49,6.98-3.89,9.38 c-2.39,2.39-5.73,3.88-9.38,3.88H13.26c-3.65,0-6.98-1.49-9.38-3.88C1.49,116.6,0,113.27,0,109.62V13.26 c0-3.65,1.49-6.98,3.89-9.38C6.28,1.49,9.61,0,13.26,0L13.26,0L13.26,0L13.26,0z M67.09,104.67V13.69H3.18v90.96 C25.41,104.66,44.87,104.67,67.09,104.67L67.09,104.67L67.09,104.67z"/><path class="st1" d="M35.15,50.56c-6.01,0-10.89,4.88-10.89,10.89c0,6.02,4.88,10.9,10.89,10.9c6.02,0,10.9-4.88,10.9-10.9 C46.04,55.44,41.16,50.56,35.15,50.56L35.15,50.56L35.15,50.56z M56.9,51.54l-0.21-0.45l-0.33,0.38c-0.81,0.92-1.84,1.63-3,2.06 l-0.33,0.12l0.13,0.33c0.99,2.38,1.5,4.93,1.5,7.5c0,10.79-8.75,19.55-19.54,19.55c-10.79,0-19.54-8.76-19.54-19.55 c0-10.79,8.75-19.54,19.54-19.54c2.9,0,5.76,0.64,8.38,1.89l0.31,0.14l0.13-0.33c0.49-1.13,1.25-2.12,2.21-2.89l0.39-0.33 l-0.44-0.23c-3.36-1.75-7.11-2.66-10.91-2.66c-0.01,0-0.04,0-0.06,0c-13.2,0-23.9,10.7-23.9,23.9s10.71,23.9,23.91,23.9 c13.2,0,23.91-10.7,23.91-23.9c0-3.42-0.73-6.81-2.16-9.92L56.9,51.54L56.9,51.54z M55.75,46.56c0-2.74-2.22-4.96-4.96-4.96 c-2.74,0-4.96,2.22-4.96,4.96c0,2.75,2.22,4.97,4.96,4.97C53.53,51.52,55.75,49.3,55.75,46.56L55.75,46.56z"/></g></svg>