<?xml version="1.0" encoding="utf-8"?><svg version="1.1" id="Layer_1" xmlns="http://www.w3.org/2000/svg" xmlns:xlink="http://www.w3.org/1999/xlink" x="0px" y="0px" viewBox="0 0 122.88 107.27" style="enable-background:new 0 0 122.88 107.27" xml:space="preserve"><g><path d="M22.48,0h77.92c6.15,0,11.75,2.53,15.82,6.6c4.11,4.11,6.67,9.8,6.67,16.06v61.96c0,6.26-2.55,11.94-6.67,16.06 c-4.07,4.07-9.67,6.6-15.82,6.6l-77.92,0c-6.15,0-11.75-2.53-15.82-6.6C2.55,96.56,0,90.88,0,84.62V22.65 c0-6.26,2.55-11.95,6.66-16.06C10.73,2.53,16.33,0,22.48,0L22.48,0L22.48,0z M64.93,28.62h11.73v20.55c0,4.32-0.38,7.6-1.14,9.86 c-0.77,2.25-2.31,4.16-4.62,5.72c-2.32,1.56-5.28,2.34-8.9,2.34c-3.82,0-6.78-0.52-8.88-1.55c-2.1-1.03-3.73-2.54-4.87-4.53 c-1.14-1.98-1.82-4.44-2.03-7.36l11.15-1.51c0.02,1.66,0.17,2.89,0.44,3.69c0.27,0.81,0.74,1.45,1.4,1.96 c0.45,0.33,1.08,0.48,1.91,0.48c1.31,0,2.27-0.48,2.89-1.45c0.61-0.97,0.92-2.61,0.92-4.91L64.93,28.62L64.93,28.62L64.93,28.62z M4.54,76.22c0.79,3.18,2.34,6.02,4.44,8.29c3.09,3.33,7.35,5.4,12.05,5.4h80.83c0.19,0,0.38,0,0.57-0.01l1.15-0.08 c4.01-0.44,7.62-2.39,10.33-5.31c2.1-2.26,3.65-5.1,4.44-8.28V22.65c0-4.85-2-9.28-5.21-12.49c-3.26-3.26-7.76-5.28-12.73-5.28 H22.48c-4.97,0-9.48,2.02-12.73,5.28c-3.22,3.22-5.21,7.64-5.21,12.5L4.54,76.22L4.54,76.22L4.54,76.22z"/></g></svg>