<?xml version="1.0" encoding="utf-8"?><svg version="1.1" id="Layer_1" xmlns="http://www.w3.org/2000/svg" xmlns:xlink="http://www.w3.org/1999/xlink" x="0px" y="0px" viewBox="0 0 122.879 101.527" enable-background="new 0 0 122.879 101.527" xml:space="preserve"><g><path d="M9.942,0h102.986c2.727,0,5.213,1.118,7.016,2.918c1.811,1.808,2.936,4.294,2.936,7.023v81.643 c0,2.729-1.123,5.217-2.934,7.026c-1.803,1.799-4.287,2.916-7.018,2.916H9.942c-2.72,0-5.202-1.117-7.009-2.918l-0.024-0.024 C1.113,96.778,0,94.301,0,91.585V9.942c0-2.72,1.117-5.202,2.917-7.009l0.024-0.024C4.749,1.113,7.226,0,9.942,0L9.942,0z M82.127,62.44H69.939l-1.748,5.733H57.21l13.104-34.802H82.09l13.037,34.802h-11.26L82.127,62.44L82.127,62.44L82.127,62.44z M44.961,33.372h10.793v18.902c0,3.966-0.346,6.997-1.057,9.063c-0.702,2.067-2.124,3.825-4.256,5.266 c-2.132,1.432-4.864,2.151-8.184,2.151c-3.517,0-6.238-0.477-8.165-1.421c-1.937-0.945-3.423-2.33-4.48-4.162 c-1.057-1.824-1.674-4.088-1.861-6.772l10.26-1.394c0.019,1.525,0.15,2.656,0.402,3.396c0.252,0.748,0.683,1.337,1.291,1.796 c0.412,0.299,1,0.449,1.758,0.449c1.207,0,2.086-0.449,2.657-1.338c0.561-0.889,0.841-2.395,0.841-4.508V33.372L44.961,33.372 L44.961,33.372z M79.844,54.902l-3.797-12.505L72.23,54.902H79.844L79.844,54.902L79.844,54.902z M112.928,7.95H9.942 c-0.555,0-1.052,0.219-1.404,0.572L8.522,8.538C8.169,8.89,7.95,9.387,7.95,9.942v81.643c0,0.555,0.219,1.052,0.572,1.404 l0.016,0.016c0.352,0.353,0.85,0.572,1.404,0.572h102.986c0.561,0,1.066-0.225,1.428-0.587c0.354-0.354,0.574-0.851,0.574-1.405 V9.942c0-0.552-0.221-1.049-0.576-1.403C113.99,8.176,113.484,7.95,112.928,7.95L112.928,7.95z"/></g></svg>