<svg xmlns="http://www.w3.org/2000/svg" viewBox="0 0 122.88 62.75"><defs><style>.a{fill:#231f20;fill-rule:evenodd;}</style></defs><title>jaguar</title><path class="a" d="M82.51,25.4a7.81,7.81,0,0,0,4.71,2l2.75.19c2,.14,2.44,1.11,2.44,1.11,1.75,3.08,6.13,4.74,6.13,4.74a16,16,0,0,1-4.81-5.16c-1.32-1.95-4.53-1.95-4.53-1.95H87.32a14.53,14.53,0,0,1-4.81-1ZM2.5,62.14c2.68-1.31,3.77-4,3.77-6.89V43.61H3.33v9.67a32.76,32.76,0,0,1-.17,4.08A6.89,6.89,0,0,1,0,62.75a5.83,5.83,0,0,0,2.5-.61Zm117-3.16h3.39l-4.52-6.24a4.74,4.74,0,0,0,3.39-4.38,4.37,4.37,0,0,0-1-3c-1.25-1.38-3.51-1.71-5.77-1.71H109.4V59h2.94v-5.9h3.08l4.07,5.9Zm-5-14.31c2.36,0,4.25,1,4.25,3.59a3.51,3.51,0,0,1-1.25,2.88,4.84,4.84,0,0,1-3.27.89h-1.89V44.67ZM47.93,59.32A16,16,0,0,0,54,58.18V51.92H51.06v5.61a10.49,10.49,0,0,1-3.32.54c-3.91,0-6.46-2.68-6.46-6.59,0-4.33,2.88-6.94,7.06-6.94a8.94,8.94,0,0,1,5.14,1.8V44.51a12.36,12.36,0,0,0-5.35-1.19,10.71,10.71,0,0,0-8,3.06A8.09,8.09,0,0,0,38,51.67c0,5.91,4.82,7.65,9.9,7.65ZM28.43,59h3.49l-7.5-15.37H22.59L14.92,59h1.87l2.07-4.31h7.63L28.43,59ZM22.77,46.52,26,53.62H19.37l3.4-7.1ZM98.42,59h3.5L94.41,43.61H92.59L84.92,59h1.86l2.08-4.31h7.63L98.42,59ZM92.76,46.52,96,53.62H89.36l3.4-7.1ZM77.88,55a13,13,0,0,0,.27-3.17V43.61H76.34v8.8a11.47,11.47,0,0,1-.2,2.31c-.5,2.44-2.35,3.34-5.12,3.34a5,5,0,0,1-3.76-1.35c-.8-.89-1-2.1-1-4.13v-9H63.36v9.13c0,1.86.19,3.6,1.48,4.87s3.5,1.71,6.12,1.71c3.87,0,6.18-1.28,6.92-4.35ZM33.59,9.11c-2.23,3.16-.46,5.39-.46,5.39-6-.18-7.72,1.49-7.72,1.49-2.93,2.28-1.86,4.93-1.86,4.93,1.68,2.65,3.63.79,3.63.79-2.79.56-2.74-1.91-2.74-1.91.6-4.28,6.18-4.09,6.18-4.09a87.83,87.83,0,0,1,12.22,1.35c-5.62-1.3-7.34-2.7-7.34-2.7-2.37-1.44-1.91-5.25-1.91-5.25ZM15.66,13.68a2.84,2.84,0,0,0,1.92-1A8.88,8.88,0,0,1,23,10.11c4.1-.28,9.08,3.69,9.08,3.69-3.52-4.68-7.23-5-7.23-5a1.83,1.83,0,0,1-1.29-1.11C22.39,5.51,21.05,5.4,21.05,5.4a3.76,3.76,0,0,1,.59,2.15c0,2.28-3.41,2.61-3.41,2.61-1.36,2.69-2.51,2.53-2.51,2.53a.78.78,0,0,1-.76-.35c-.14-.21.09-.39.09-.39a7.8,7.8,0,0,0,.72-.54A5.39,5.39,0,0,0,18.12,7.6a2.48,2.48,0,0,0-2.28-2.39,1.6,1.6,0,0,0-1.3.55,24,24,0,0,0-1.26,2.05c-.67,1.11-1.28,1-1.28,1a1.76,1.76,0,0,1-1.3-.65L10.63,8a.71.71,0,0,1-.07-.76A4.57,4.57,0,0,1,13.3,5.51l.2-.06.34-.1h0c2.41-.85,2.61-2.11,2.61-2.11a3.35,3.35,0,0,0-1.58-.44,2.34,2.34,0,0,0-1.95,1.53L12.56,4s-.16-.2.09-.42c0,0,1.1-1.35,5.12-2a28.6,28.6,0,0,1,7.57,0s-2.65,2.76-5.83,1.6c0,0-.05,1,2.74,1.53,0,0,2.93.31,6.63,3.84A13.91,13.91,0,0,0,24.74,4a.23.23,0,0,1,0-.39A4.73,4.73,0,0,1,27.92,2s9.51.49,14.85,6.07a7.87,7.87,0,0,0-1-2.28s-.17-.16-.07-.28.07-.23,1,0A72.93,72.93,0,0,1,54,8.92L62.5,12s3,1.09,4.63,1.83c0,0-3.32-.11-5.09.8,0,0-.07,0,0,.1s0,.06.17,0a9.1,9.1,0,0,1,5.5.42A22.91,22.91,0,0,1,72.61,18,33.62,33.62,0,0,1,75,20.36a29.4,29.4,0,0,0,4.74,3.52s-2-1.95-3.76-3.76c0,0-2.44-2.93-3.56-3.91,0,0,8.42,3.95,16,8.23,1.36.76,5.75,3.31,5.75,3.31a62.71,62.71,0,0,0,8.44,4.33,8.07,8.07,0,0,0,7-.1l.15-.06c2-1.06,2.51-.73,2.51-.73a1.18,1.18,0,0,1,.72,1.43c.88-.91.81-1.4.81-1.4,0-1.55-1.73-1.42-1.73-1.42a14.4,14.4,0,0,0-2.84,1.4l-.27.18c-2.47,1.28-5.91.09-5.91.09a61.36,61.36,0,0,1-8.53-4.28s-7.81-4.63-14.54-8c0,0-8.4-4.35-19.66-9.23C60.32,9.94,38.85,0,23,0c0,0-8.2-.11-11,3.05a1.54,1.54,0,0,0-.25.91.21.21,0,0,1-.07.22,12.26,12.26,0,0,0-2.21,2,1.07,1.07,0,0,0-.1,1.35s.35.56.66,1h0A2.73,2.73,0,0,0,12.28,9.6a1.32,1.32,0,0,1,.53.09,2.43,2.43,0,0,0,.69.42h.58s.12,0,.14-.12a3.43,3.43,0,0,0-.11-.53,1.18,1.18,0,0,1-.19-1A3.4,3.4,0,0,1,14.6,7a1,1,0,0,1,1.29,0,2.23,2.23,0,0,1,.65,2.52s-.56,1-1.17,1a.65.65,0,0,1-.61-.21l-.4-.05s-.13,0-.13.1l0,.3a.42.42,0,0,0,.09.26.34.34,0,0,1,0,.43.82.82,0,0,0-.19.86s.35,1.46,1.53,1.46ZM15.21,3.6a1.81,1.81,0,0,1-1.63.79,1.22,1.22,0,0,1,1.63-.79ZM12.09,4.65c.4-.15.45.07.45.07,0,.2-.21.27-.21.27a10,10,0,0,0-2,1.69c-.16.17-.26.08-.26.08-.19-.17,0-.4,0-.4a12.16,12.16,0,0,1,2-1.71ZM52.15,21.83a81.61,81.61,0,0,0,9.72,0A7.59,7.59,0,0,1,64.1,22c2.71.41,3.14,1.68,3.14,1.68s4.81,9.9,14.29,9.65l4.48,0c4,0,9.44,4,9.44,4-1.11-.84-3.39-3-3.39-3-2.88-2.56-7.54-2.58-7.54-2.58l-4.71,0A11.87,11.87,0,0,1,68.5,23.55a4.14,4.14,0,0,0-3.84-2.37h-.6c-8.83.44-11.73-.27-11.73-.27a27.47,27.47,0,0,1-5.81-2.32,6.41,6.41,0,0,0-.42-3.67,11.92,11.92,0,0,0,6.23.6,28.2,28.2,0,0,1-8.18-3.62s1.62,4.69.27,6.46c0,0-.88,3.25-9,.6a20.13,20.13,0,0,0-6-1.3s-2.09.1-2.09,1.17a.86.86,0,0,0,.51.74,1.08,1.08,0,0,1,.24,1.35,1.53,1.53,0,0,0,.6-1.49s-.09-.47.33-.56c0,0,1.11-.46,4.27.7,0,0,5.11,2.32,8,2.32,0,0,3.16-.18,4.33-1.58a26.94,26.94,0,0,0,6.42,1.52ZM23.81,1.91s-2.72.32-4,.3c0,0-.28,0-.28.23,0,0,.09.33.67.33a8.87,8.87,0,0,0,3.63-.86ZM102.7,34.65a10.75,10.75,0,0,0-3.23-.79A8.17,8.17,0,0,1,101.8,35a1.56,1.56,0,0,1,.42,2.19c-1.1,2-5.43,1-5.43,1,4.6,3.07,6.53.77,6.53.77,1.19-1.42.91-2.12.58-3,0,0,4.19,1.35,8.51-2.65,0,0-4.65,3.72-9.71,1.4Z"/></svg>