<svg id="Layer_1" data-name="Layer 1" xmlns="http://www.w3.org/2000/svg" viewBox="0 0 122.88 117.98"><title>jamaican-dollar</title><path d="M16.39,107.13a55.6,55.6,0,0,1-9-.71A56.94,56.94,0,0,1,0,104.81V84.67H10.45a10,10,0,0,0,4.59-.9,5.42,5.42,0,0,0,2.51-2.52,8.94,8.94,0,0,0,.78-3.93V10.46h25V81.19a33.68,33.68,0,0,1-2.65,14.07,18.18,18.18,0,0,1-8.58,8.84q-5.94,3-15.75,3ZM80.54,107l-1.22-.08c-2.71-.17-5.38-.42-8-.77s-5.15-.73-7.56-1.16-4.73-1-7-1.55V83.51q4.4.39,9.49.65t10.33.39q5.22.12,9.74.12a32.78,32.78,0,0,0,7.1-.64A8.6,8.6,0,0,0,97.71,82a5.2,5.2,0,0,0,1.42-3.87V76.54a4.9,4.9,0,0,0-2-4.26,8,8,0,0,0-4.71-1.42H85.58q-15,0-22.72-6.58T55.12,42.21V38q0-14.21,8.51-21.23Q70,11.46,80.54,10.13V0H94.48V9.85c1.75.1,3.45.23,5.1.41q5.36.59,10.07,1.42t8.45,1.74V33.3q-5.92-.51-13.36-.84t-13.48-.32a35.88,35.88,0,0,0-6.46.52,8.1,8.1,0,0,0-4.39,2.06,6.13,6.13,0,0,0-1.54,4.52v1.29a5.92,5.92,0,0,0,2.06,4.9q2.07,1.68,6.32,1.68h8.52q9,0,15,3.42a22.42,22.42,0,0,1,9,9.3,28.7,28.7,0,0,1,3,13.36v4.26q0,12.26-4.26,18.71a20.88,20.88,0,0,1-12.13,8.71,59.24,59.24,0,0,1-12,2V118H80.54V107Z"/></svg>