<?xml version="1.0" encoding="utf-8"?><svg version="1.1" id="Layer_1" xmlns="http://www.w3.org/2000/svg" xmlns:xlink="http://www.w3.org/1999/xlink" x="0px" y="0px" viewBox="0 0 122.88 100.06" style="enable-background:new 0 0 122.88 100.06" xml:space="preserve"><style type="text/css">.st0{fill-rule:evenodd;clip-rule:evenodd;}</style><g><path class="st0" d="M6.38,0h110.11c3.51,0,6.39,2.87,6.39,6.38v87.29c0,3.51-2.87,6.38-6.39,6.38H6.38 c-3.51,0-6.38-2.87-6.38-6.38V6.38C0,2.87,2.87,0,6.38,0L6.38,0z M44.58,31.43h11.54v20.21c0,4.24-0.37,7.48-1.13,9.69 c-0.75,2.21-2.27,4.09-4.55,5.63c-2.28,1.53-5.2,2.3-8.75,2.3c-3.76,0-6.67-0.51-8.73-1.52c-2.07-1.01-3.66-2.49-4.79-4.45 c-1.13-1.95-1.79-4.37-1.99-7.24l10.97-1.49c0.02,1.63,0.16,2.84,0.43,3.63c0.27,0.8,0.73,1.43,1.38,1.92 c0.44,0.32,1.07,0.48,1.88,0.48c1.29,0,2.23-0.48,2.84-1.43c0.6-0.95,0.9-2.56,0.9-4.82V31.43L44.58,31.43z M82.8,62.51H69.77 l-1.87,6.13H56.16l14.01-37.21h12.59L96.7,68.64H84.66L82.8,62.51L82.8,62.51z M80.36,54.45L76.3,41.08l-4.08,13.37H80.36 L80.36,54.45z"/></g></svg>