<?xml version="1.0" encoding="utf-8"?><svg version="1.1" id="Layer_1" xmlns="http://www.w3.org/2000/svg" xmlns:xlink="http://www.w3.org/1999/xlink" x="0px" y="0px" viewBox="0 0 115.28 122.88" style="enable-background:new 0 0 115.28 122.88" xml:space="preserve"><style type="text/css">.st0{fill-rule:evenodd;clip-rule:evenodd;}</style><g><path class="st0" d="M25.38,57h64.88V37.34H69.59c-2.17,0-5.19-1.17-6.62-2.6c-1.43-1.43-2.3-4.01-2.3-6.17V7.64l0,0H8.15 c-0.18,0-0.32,0.09-0.41,0.18C7.59,7.92,7.55,8.05,7.55,8.24v106.45c0,0.14,0.09,0.32,0.18,0.41c0.09,0.14,0.28,0.18,0.41,0.18 c22.78,0,58.09,0,81.51,0c0.18,0,0.17-0.09,0.27-0.18c0.14-0.09,0.33-0.28,0.33-0.41v-11.16H25.38c-4.14,0-7.56-3.4-7.56-7.56 V64.55C17.82,60.4,21.22,57,25.38,57L25.38,57z M41.66,68.04h7.32v12.82c0,2.69-0.24,4.74-0.71,6.15c-0.48,1.4-1.44,2.59-2.89,3.57 c-1.45,0.97-3.3,1.46-5.55,1.46c-2.38,0-4.23-0.32-5.54-0.97c-1.31-0.64-2.32-1.58-3.04-2.82c-0.71-1.24-1.14-2.77-1.26-4.59 l6.96-0.95c0.01,1.03,0.1,1.8,0.27,2.3c0.17,0.51,0.46,0.91,0.87,1.22c0.28,0.2,0.68,0.3,1.19,0.3c0.82,0,1.42-0.3,1.8-0.91 c0.38-0.6,0.57-1.63,0.57-3.06V68.04L41.66,68.04z M67.56,87.76H59.3l-1.19,3.89h-7.45l8.89-23.61h7.98l8.85,23.61h-7.64 L67.56,87.76L67.56,87.76z M66.02,82.65l-2.58-8.48l-2.59,8.48H66.02L66.02,82.65z M78.84,91.65V68.04H91 c2.25,0,3.98,0.19,5.17,0.58c1.19,0.38,2.15,1.1,2.88,2.15c0.73,1.05,1.09,2.33,1.09,3.84c0,1.31-0.28,2.44-0.84,3.39 c-0.56,0.96-1.32,1.73-2.31,2.32c-0.62,0.37-1.48,0.69-2.56,0.93c0.87,0.29,1.5,0.58,1.9,0.87c0.26,0.19,0.65,0.61,1.17,1.24 c0.51,0.63,0.85,1.12,1.02,1.47l3.54,6.82h-8.24l-3.9-7.2c-0.49-0.93-0.93-1.54-1.32-1.82c-0.53-0.36-1.13-0.54-1.79-0.54h-0.64 v9.56H78.84L78.84,91.65z M86.16,77.64h3.08c0.33,0,0.98-0.11,1.93-0.32c0.48-0.09,0.88-0.34,1.18-0.74 c0.31-0.4,0.46-0.86,0.46-1.37c0-0.76-0.24-1.35-0.73-1.76c-0.48-0.41-1.39-0.62-2.73-0.62h-3.21V77.64L86.16,77.64z M97.79,57 h9.93c4.16,0,7.56,3.41,7.56,7.56v31.42c0,4.15-3.41,7.56-7.56,7.56h-9.93v13.55c0,1.61-0.65,3.04-1.7,4.1 c-1.06,1.06-2.49,1.7-4.1,1.7c-29.44,0-56.59,0-86.18,0c-1.61,0-3.04-0.64-4.1-1.7c-1.06-1.06-1.7-2.49-1.7-4.1V5.85 c0-1.61,0.65-3.04,1.7-4.1c1.06-1.06,2.53-1.7,4.1-1.7h58.72C64.66,0,64.8,0,64.94,0c0.64,0,1.29,0.28,1.75,0.69h0.09 c0.09,0.05,0.14,0.09,0.23,0.18l29.99,30.36c0.51,0.51,0.88,1.2,0.88,1.98c0,0.23-0.05,0.41-0.09,0.65V57L97.79,57z M67.52,27.97 V8.94l21.43,21.7H70.19c-0.74,0-1.38-0.32-1.89-0.78C67.84,29.4,67.52,28.71,67.52,27.97L67.52,27.97z"/></g></svg>