<?xml version="1.0" encoding="utf-8"?><svg version="1.1" id="Layer_1" xmlns="http://www.w3.org/2000/svg" xmlns:xlink="http://www.w3.org/1999/xlink" x="0px" y="0px" viewBox="0 0 122.88 90.332" enable-background="new 0 0 122.88 90.332" xml:space="preserve"><g><path fill-rule="evenodd" clip-rule="evenodd" fill="#262626" d="M19.962,0h82.962c1.578,0,3.023,0.653,4.07,1.7l0,0l0.008,0.007 l0.007,0.009l0.009,0.007c1.046,1.054,1.691,2.492,1.691,4.069v11.784h5.303c2.443,0,4.66,1.004,6.262,2.606 c1.608,1.608,2.606,3.833,2.606,6.265v37.439c0,2.434-1.004,4.652-2.61,6.26c-0.122,0.121-0.249,0.236-0.38,0.342 c-1.569,1.404-3.637,2.268-5.878,2.268h-5.303v11.791c0,1.592-0.653,3.037-1.7,4.086c-1.045,1.045-2.492,1.699-4.085,1.699H19.962 c-1.578,0-3.023-0.648-4.078-1.699l-0.007-0.01l-0.009-0.008l-0.007-0.006c-1.047-1.055-1.693-2.492-1.693-4.07V72.756H8.871 c-2.432,0-4.657-0.998-6.265-2.607C1.004,68.547,0,66.332,0,63.887V26.447c0-2.446,0.998-4.664,2.602-6.269 c0.122-0.122,0.249-0.237,0.382-0.344c1.569-1.402,3.633-2.258,5.887-2.258h5.297V5.777c0.016-1.592,0.662-3.04,1.709-4.084 c0.061-0.063,0.122-0.124,0.192-0.178C17.1,0.577,18.468,0,19.962,0L19.962,0L19.962,0z M52.729,7.431 c2.056,0,3.724,1.669,3.724,3.724c0,2.057-1.668,3.727-3.724,3.727c-2.057,0-3.725-1.669-3.725-3.727 C49.004,9.1,50.671,7.431,52.729,7.431L52.729,7.431z M39.558,7.431c2.055,0,3.724,1.669,3.724,3.724 c0,2.057-1.669,3.727-3.724,3.727c-2.057,0-3.727-1.669-3.727-3.727C35.831,9.1,37.5,7.431,39.558,7.431L39.558,7.431z M26.387,7.431c2.055,0,3.724,1.669,3.724,3.724c0,2.057-1.669,3.727-3.724,3.727c-2.057,0-3.727-1.669-3.727-3.727 C22.66,9.1,24.33,7.431,26.387,7.431L26.387,7.431z M8.873,22.378h105.154c2.24,0,4.068,1.894,4.068,4.069v37.439 c0,2.174-1.894,4.068-4.068,4.068H8.873c-2.175,0-4.069-1.828-4.069-4.068V26.447C4.804,24.208,6.633,22.378,8.873,22.378 L8.873,22.378z M103.485,72.756H19.408v0.102v11.674v0.002v0.027l0.003,0.027l0.002,0.027l0.002,0.002l0.003,0.027l0.005,0.027 h0.002l0.005,0.023h0.002l0.007,0.027h0.001l0.008,0.025h0.001l0.009,0.023h0.001l0.011,0.025h0.002 c0.025,0.047,0.052,0.09,0.086,0.127l0,0l0.009,0.008c0.098,0.1,0.229,0.154,0.393,0.154h82.962l0.041-0.002 c0.306,0,0.553-0.246,0.553-0.551V72.857c0-0.029-0.013-0.055-0.032-0.074V72.756L103.485,72.756z"/><path fill="#FF0000" d="M24.965,32.662h7.747V46.23c0,2.85-0.25,5.02-0.756,6.508c-0.506,1.484-1.523,2.746-3.053,3.781 c-1.53,1.029-3.489,1.547-5.875,1.547c-2.524,0-4.478-0.344-5.862-1.023c-1.39-0.68-2.46-1.676-3.216-2.99 c-0.756-1.309-1.204-2.932-1.337-4.861l7.363-1c0.012,1.092,0.11,1.906,0.291,2.436c0.18,0.535,0.489,0.961,0.925,1.291 c0.296,0.217,0.715,0.32,1.262,0.32c0.867,0,1.501-0.32,1.908-0.959c0.402-0.641,0.605-1.723,0.605-3.24V32.662L24.965,32.662z M51.73,53.529h-8.747l-1.256,4.119h-7.881l9.404-24.987h8.451l9.364,24.987h-8.084L51.73,53.529L51.73,53.529z M50.096,48.121 l-2.728-8.98l-2.74,8.98H50.096L50.096,48.121z M58.552,32.662h8.067l5.63,17.983l5.549-17.983h7.834l-9.276,24.987h-8.363 L58.552,32.662L58.552,32.662z M100.934,53.529h-8.747l-1.256,4.119H83.05l9.404-24.987h8.451l9.363,24.987h-8.084L100.934,53.529 L100.934,53.529z M99.3,48.121l-2.729-8.98l-2.739,8.98H99.3L99.3,48.121z"/></g></svg>