<?xml version="1.0" encoding="utf-8"?><svg version="1.1" id="Layer_1" xmlns="http://www.w3.org/2000/svg" xmlns:xlink="http://www.w3.org/1999/xlink" x="0px" y="0px" viewBox="0 0 122.88 95.51" style="enable-background:new 0 0 122.88 95.51" xml:space="preserve"><style type="text/css">.st0{fill-rule:evenodd;clip-rule:evenodd;}</style><g><path class="st0" d="M8.32,0h106.24c4.58,0,8.32,3.74,8.32,8.32v78.87c0,4.57-3.74,8.32-8.32,8.32H8.32C3.74,95.51,0,91.77,0,87.19 V8.32C0,3.74,3.74,0,8.32,0L8.32,0z M12.6,26.42h96.77v43.73H12.6V26.42L12.6,26.42z M64.77,48.31l-7.56,7.57 c-1.09,1.09-2.86,1.09-3.95,0c-1.09-1.09-1.09-2.86,0-3.95l0.26-0.26l-3.36-3.36l-0.26,0.26c-1.95,1.95-2.61,4.71-1.97,7.21 c-2.01,0.47-3.5,2.28-3.5,4.43c0,2.52,2.04,4.56,4.55,4.56c2.16,0,3.97-1.51,4.44-3.53c2.48,0.62,5.21-0.04,7.15-1.99l7.56-7.57 L64.77,48.31L64.77,48.31L64.77,48.31L64.77,48.31L64.77,48.31z M53.27,39.94c1.09-1.09,2.86-1.09,3.95,0l0.26,0.26l3.36-3.36 l-0.26-0.26c-1.91-1.92-4.6-2.59-7.06-2.01c-0.35-2.16-2.23-3.82-4.49-3.82c-2.51,0-4.55,2.04-4.55,4.55 c0,2.17,1.51,3.99,3.54,4.44c-0.77,2.57-0.14,5.48,1.89,7.51l7.57,7.57l3.35-3.36l-7.57-7.57C52.18,42.81,52.17,41.03,53.27,39.94 L53.27,39.94L53.27,39.94L53.27,39.94z M78.4,35.3c0-2.52-2.04-4.56-4.55-4.56c-2.3,0-4.2,1.71-4.51,3.93 c-2.56-0.75-5.44-0.12-7.46,1.91l-7.57,7.57l3.36,3.36l7.57-7.57c1.09-1.1,2.86-1.09,3.94-0.01c1.09,1.09,1.09,2.86,0,3.95 l-0.26,0.26l3.35,3.36l0.26-0.26c2.01-2.01,2.65-4.87,1.91-7.43C76.68,39.53,78.4,37.62,78.4,35.3L78.4,35.3L78.4,35.3L78.4,35.3z M74.53,55.69c0.6-2.47-0.07-5.19-2-7.13L64.98,41l-3.36,3.36l7.56,7.57c1.1,1.1,1.09,2.86,0.01,3.95c-1.09,1.09-2.86,1.09-3.95,0 l-0.26-0.26l-3.35,3.36l0.26,0.26c2.04,2.04,4.97,2.67,7.55,1.88c0.42,2.08,2.26,3.65,4.46,3.65c2.51,0,4.55-2.04,4.55-4.56 C78.45,57.91,76.75,56,74.53,55.69L74.53,55.69L74.53,55.69L74.53,55.69z M66.87,84.74c-1.78,0-3.22-1.57-3.22-3.5 c0-1.94,1.44-3.5,3.22-3.5h39.65c1.78,0,3.22,1.57,3.22,3.5c0,1.93-1.44,3.5-3.22,3.5H66.87L66.87,84.74z M14.96,84.74 c-1.76,0-3.19-1.57-3.19-3.5c0-1.94,1.43-3.5,3.19-3.5h36.76c1.76,0,3.19,1.57,3.19,3.5c0,1.93-1.43,3.5-3.19,3.5H14.96 L14.96,84.74z M117.97,20.1H5.29V88c0,1.28,1.02,2.3,2.3,2.3h108.04c1.28,0,2.3-1.03,2.3-2.3V20.1H117.97L117.97,20.1z M106.64,7.22c2.27,0,4.11,1.84,4.11,4.11s-1.84,4.11-4.11,4.11c-2.27,0-4.11-1.84-4.11-4.11S104.38,7.22,106.64,7.22L106.64,7.22z M78.8,7.22c2.27,0,4.11,1.84,4.11,4.11s-1.84,4.11-4.11,4.11c-2.27,0-4.11-1.84-4.11-4.11S76.53,7.22,78.8,7.22L78.8,7.22z M92.72,7.22c2.27,0,4.11,1.84,4.11,4.11s-1.84,4.11-4.11,4.11c-2.27,0-4.11-1.84-4.11-4.11S90.45,7.22,92.72,7.22L92.72,7.22z"/></g></svg>