<svg id="Layer_1" data-name="Layer 1" xmlns="http://www.w3.org/2000/svg" viewBox="0 0 122.88 122.88"><title>jpy</title><path d="M30.27,0H92.61a30.35,30.35,0,0,1,30.27,30.27V92.61a30.35,30.35,0,0,1-30.27,30.27H30.27A30.35,30.35,0,0,1,0,92.61V30.27A30.35,30.35,0,0,1,30.27,0Zm5.67,33.56h17l8.58,18.9,8.37-18.9h17l-13,24.06H85V66H69.33v4.6H85v8.49H69.33v10.2H53.85V79.12H37.92V70.63H53.85V66H37.92V57.62h11.4L35.94,33.56ZM92.61,12.1H30.27A18.23,18.23,0,0,0,12.1,30.27V92.61a18.23,18.23,0,0,0,18.17,18.17H92.61a18.23,18.23,0,0,0,18.17-18.17V30.27A18.23,18.23,0,0,0,92.61,12.1Z"/></svg>