<?xml version="1.0" encoding="utf-8"?><svg version="1.1" id="Layer_1" xmlns="http://www.w3.org/2000/svg" xmlns:xlink="http://www.w3.org/1999/xlink" x="0px" y="0px" viewBox="0 0 115.28 122.88" style="enable-background:new 0 0 115.28 122.88" xml:space="preserve"><style type="text/css">.st0{fill-rule:evenodd;clip-rule:evenodd;}</style><g><path class="st0" d="M25.38,57h64.88V37.34H69.59c-2.17,0-5.19-1.17-6.62-2.6c-1.43-1.43-2.3-4.01-2.3-6.17V7.64l0,0H8.15 c-0.18,0-0.32,0.09-0.41,0.18C7.59,7.92,7.55,8.05,7.55,8.24v106.45c0,0.14,0.09,0.32,0.18,0.41c0.09,0.14,0.28,0.18,0.41,0.18 c22.78,0,58.09,0,81.51,0c0.18,0,0.17-0.09,0.27-0.18c0.14-0.09,0.33-0.28,0.33-0.41v-11.16H25.38c-4.14,0-7.56-3.4-7.56-7.56 V64.55C17.82,60.4,21.22,57,25.38,57L25.38,57z M42.4,67.9H50v13.31c0,2.8-0.25,4.92-0.74,6.39c-0.5,1.46-1.5,2.69-3,3.71 c-1.5,1.01-3.42,1.52-5.76,1.52c-2.48,0-4.39-0.34-5.75-1c-1.36-0.67-2.41-1.64-3.16-2.93c-0.74-1.28-1.18-2.88-1.31-4.77 l7.22-0.98c0.01,1.07,0.11,1.87,0.29,2.39c0.18,0.52,0.48,0.94,0.91,1.27c0.29,0.21,0.7,0.31,1.24,0.31c0.85,0,1.47-0.31,1.87-0.94 c0.39-0.63,0.59-1.69,0.59-3.18V67.9L42.4,67.9z M53.8,84.31l7.19-0.45c0.15,1.16,0.47,2.05,0.95,2.66 c0.78,0.99,1.89,1.48,3.34,1.48c1.08,0,1.91-0.25,2.49-0.76c0.59-0.51,0.88-1.1,0.88-1.76c0-0.63-0.27-1.2-0.83-1.71 c-0.55-0.5-1.84-0.97-3.87-1.42c-3.32-0.74-5.68-1.73-7.1-2.97c-1.43-1.23-2.14-2.81-2.14-4.73c0-1.26,0.37-2.44,1.1-3.56 c0.73-1.12,1.83-2,3.29-2.64c1.47-0.64,3.48-0.96,6.03-0.96c3.13,0,5.52,0.58,7.16,1.75c1.64,1.16,2.62,3.02,2.93,5.56l-7.12,0.42 c-0.19-1.11-0.59-1.92-1.19-2.43c-0.61-0.51-1.45-0.76-2.52-0.76c-0.88,0-1.55,0.19-1.99,0.56c-0.45,0.37-0.67,0.83-0.67,1.36 c0,0.39,0.18,0.74,0.54,1.05c0.35,0.33,1.19,0.62,2.53,0.9c3.31,0.71,5.68,1.44,7.11,2.17c1.43,0.73,2.48,1.63,3.13,2.72 c0.65,1.08,0.98,2.29,0.98,3.63c0,1.57-0.43,3.02-1.3,4.35c-0.87,1.32-2.08,2.33-3.65,3.02c-1.56,0.68-3.52,1.03-5.9,1.03 c-4.17,0-7.05-0.8-8.66-2.41C54.92,88.82,54.01,86.78,53.8,84.31L53.8,84.31z M79.85,67.9h12.6c2.74,0,4.8,0.65,6.17,1.96 c1.36,1.31,2.05,3.17,2.05,5.58c0,2.48-0.75,4.42-2.24,5.81c-1.49,1.4-3.77,2.09-6.83,2.09h-4.15v9.07h-7.6V67.9L79.85,67.9z M87.46,78.38h1.87c1.47,0,2.51-0.26,3.1-0.76c0.59-0.51,0.89-1.16,0.89-1.95c0-0.77-0.26-1.42-0.78-1.96 c-0.51-0.54-1.48-0.8-2.91-0.8h-2.17V78.38L87.46,78.38z M97.79,57h9.93c4.16,0,7.56,3.41,7.56,7.56v31.42 c0,4.15-3.41,7.56-7.56,7.56h-9.93v13.55c0,1.61-0.65,3.04-1.7,4.1c-1.06,1.06-2.49,1.7-4.1,1.7c-29.44,0-56.59,0-86.18,0 c-1.61,0-3.04-0.64-4.1-1.7c-1.06-1.06-1.7-2.49-1.7-4.1V5.85c0-1.61,0.65-3.04,1.7-4.1c1.06-1.06,2.53-1.7,4.1-1.7h58.72 C64.66,0,64.8,0,64.94,0c0.64,0,1.29,0.28,1.75,0.69h0.09c0.09,0.05,0.14,0.09,0.23,0.18l29.99,30.36c0.51,0.51,0.88,1.2,0.88,1.98 c0,0.23-0.05,0.41-0.09,0.65V57L97.79,57z M67.52,27.97V8.94l21.43,21.7H70.19c-0.74,0-1.38-0.32-1.89-0.78 C67.84,29.4,67.52,28.71,67.52,27.97L67.52,27.97z"/></g></svg>