<?xml version="1.0" encoding="utf-8"?><svg version="1.1" id="Layer_1" xmlns="http://www.w3.org/2000/svg" xmlns:xlink="http://www.w3.org/1999/xlink" x="0px" y="0px" viewBox="0 0 106.39 122.88" style="enable-background:new 0 0 106.39 122.88" xml:space="preserve"><g><path d="M44.9,30.76h16.6l-8.3-14.39L44.9,30.76L44.9,30.76z M83.9,69.68l-8.21,14.28H92.2L83.9,69.68L83.9,69.68z M30.71,83.96 l-8.21-14.28l-8.3,14.28H30.71L30.71,83.96z M0,92.12l17.76-30.65L0,30.76h35.44L53.2,0l17.76,30.76h35.44L88.63,61.47l17.76,30.65 H70.96L53.2,122.88L35.44,92.12H0L0,92.12z M75.69,38.92l8.21,14.36l8.3-14.36H75.69L75.69,38.92z M61.5,92.12H44.9l8.3,14.39 L61.5,92.12L61.5,92.12z M40.17,83.96h25.98l13.03-22.49L66.23,38.92H40.17L27.22,61.47L40.17,83.96L40.17,83.96z M22.49,53.28 l8.21-14.36H14.19L22.49,53.28L22.49,53.28z"/></g></svg>