<svg id="Layer_1" data-name="Layer 1" xmlns="http://www.w3.org/2000/svg" viewBox="0 0 122.87 122.88"><title>july-month</title><path d="M81.6,4.73C81.6,2.12,84.18,0,87.37,0s5.77,2.12,5.77,4.73V25.45c0,2.61-2.58,4.73-5.77,4.73s-5.77-2.12-5.77-4.73V4.73ZM29.86,96,29,88.9h3.67a2.69,2.69,0,0,0,1.75-.37,1.3,1.3,0,0,0,.38-1V75.42H31.1V68.34H43.61V88.68a7.6,7.6,0,0,1-1.77,5.44A6.68,6.68,0,0,1,36.76,96ZM56.55,68.34V89.08h3.14a4.41,4.41,0,0,0,2.3-.42c.41-.28.62-.92.62-1.92V68.34h8.84V83.86A30.72,30.72,0,0,1,71,89.92a8.83,8.83,0,0,1-1.82,3.89A6.87,6.87,0,0,1,65.53,96a23.34,23.34,0,0,1-6,.62,23,23,0,0,1-6-.62A6.92,6.92,0,0,1,50,93.81a8.81,8.81,0,0,1-1.81-3.89,30.61,30.61,0,0,1-.49-6.06V68.34ZM93.9,96H76.21V68.34h8.84V88.9H93.9V96ZM29.61,4.73C29.61,2.12,32.19,0,35.38,0s5.77,2.12,5.77,4.73V25.45c0,2.61-2.58,4.73-5.77,4.73s-5.77-2.12-5.77-4.73V4.73ZM6.4,38.76H116.46V21.47a3,3,0,0,0-.86-2.07,2.92,2.92,0,0,0-2.07-.86H103a3.2,3.2,0,1,1,0-6.4h10.55a9.36,9.36,0,0,1,9.33,9.33v92.08a9.36,9.36,0,0,1-9.33,9.33H9.33A9.36,9.36,0,0,1,0,113.54V21.47a9.36,9.36,0,0,1,9.33-9.33H20.6a3.2,3.2,0,1,1,0,6.4H9.33a3,3,0,0,0-2.07.86,2.92,2.92,0,0,0-.86,2.07V38.76Zm110.07,6.41H6.4v68.37a3,3,0,0,0,.86,2.07,2.92,2.92,0,0,0,2.07.86H113.54a3,3,0,0,0,2.07-.86,2.92,2.92,0,0,0,.86-2.07V45.17Zm-66-26.63a3.2,3.2,0,0,1,0-6.4H71.91a3.2,3.2,0,1,1,0,6.4Z"/></svg>