<svg id="Layer_1" data-name="Layer 1" xmlns="http://www.w3.org/2000/svg" viewBox="0 0 122.88 119.66"><defs><style>.cls-1{fill-rule:evenodd;}</style></defs><title>keep-away-from-direct-sunlight</title><path class="cls-1" d="M9.94,80.66C1.62,83.86-3.2,76.07,2.43,69.07h0a2.34,2.34,0,0,1,.32-.31L55.59,27.5a2,2,0,0,1,2.51-.11l53,41.18h0a1.51,1.51,0,0,1,.23.21c6.71,7.21.52,15.84-7.61,12L57.26,43.22,9.94,80.66ZM82,82.46l.12,25.65a3.19,3.19,0,0,1-2,3h0l-21.21,8.57V91.92L82,82.2a2.26,2.26,0,0,1,0,.26ZM55.15,119.58,34,111.5h0a3.33,3.33,0,0,1-2-3.07l.12-25.32v0l23,8.91v27.62ZM33.71,79.67a2.86,2.86,0,0,1,.52-.27h0l21.44-8.63a3.37,3.37,0,0,1,2.61,0l21.4,7.73a3.48,3.48,0,0,1,.67.33L57,88.68l-23.28-9ZM90.85,4.56A1.36,1.36,0,1,1,93.2,3.2l1.74,3a1.36,1.36,0,1,1-2.35,1.37l-1.74-3ZM101.69,9a12.15,12.15,0,1,1-8.59,3.56A12.12,12.12,0,0,1,101.69,9Zm-1.08-7.67a1.37,1.37,0,0,1,2.73,0V4.85a1.37,1.37,0,0,1-2.73,0V1.36Zm10.06,2.12A1.36,1.36,0,1,1,113,4.83l-1.74,3a1.36,1.36,0,0,1-2.35-1.35l1.74-3Zm7.65,6.86a1.36,1.36,0,1,1,1.36,2.35l-3,1.75a1.36,1.36,0,0,1-1.85-.5,1.34,1.34,0,0,1,.49-1.85l3-1.75Zm3.2,9.77a1.36,1.36,0,0,1,0,2.72H118a1.36,1.36,0,0,1,0-2.72ZM119.4,30.17a1.36,1.36,0,0,1-1.35,2.35l-3-1.75a1.36,1.36,0,1,1,1.35-2.35l3,1.75Zm-6.86,7.65a1.36,1.36,0,0,1-2.35,1.36l-1.75-3a1.37,1.37,0,0,1,.5-1.86,1.36,1.36,0,0,1,1.85.5l1.75,3ZM102.77,41a1.36,1.36,0,0,1-2.72,0V37.53a1.36,1.36,0,1,1,2.72,0V41ZM92.71,38.89a1.36,1.36,0,1,1-2.35-1.35l1.75-3a1.36,1.36,0,1,1,2.35,1.35l-1.75,3ZM85.06,32a1.34,1.34,0,0,1-1.85-.49,1.36,1.36,0,0,1,.49-1.86l3-1.74a1.36,1.36,0,1,1,1.36,2.35l-3,1.74Zm-3.19-9.76a1.37,1.37,0,0,1,0-2.73h3.48a1.37,1.37,0,1,1,0,2.73ZM84,12.21a1.36,1.36,0,1,1,1.35-2.35l3,1.74A1.36,1.36,0,0,1,87,14l-3-1.74Z"/></svg>