<svg id="Layer_1" data-name="Layer 1" xmlns="http://www.w3.org/2000/svg" viewBox="0 0 109.93 122.88"><defs><style>.cls-1{fill-rule:evenodd;}</style></defs><title>keep-dry-symbol</title><path class="cls-1" d="M61.94,26.11A51.79,51.79,0,0,1,109.66,66h0L103,73.82,96.57,66H95.7L89,73.86,82.55,66H81l-6.67,7.87L67.87,66H67v.12c0,1.86-1.57,3.46-3.85,4.22V107.2a15.71,15.71,0,0,1-15.68,15.68h0a15.64,15.64,0,0,1-11.06-4.6h0a15.64,15.64,0,0,1-4.6-11.06v-1.45h6.71v1.45a9,9,0,0,0,2.62,6.34h0a8.92,8.92,0,0,0,6.33,2.63h0a9,9,0,0,0,9-9V70c-1.84-.84-3.06-2.28-3.06-3.91V66H50.7l-6.42,7.87L37.62,66H36l-6.45,7.91L22.87,66H22l-6.42,7.87L8.9,66h0a51.79,51.79,0,0,1,47.19-39.8l3.07-4,2.82,4Zm-56.5-1c1.19,5.06,8.11,9.93,4.25,15.48a5.16,5.16,0,0,1-8.5,0c-3.93-5.65,3-10.16,4.25-15.48ZM33,3.55c1.19,5.07,8.11,9.93,4.25,15.49a5.17,5.17,0,0,1-8.5,0c-3.93-5.65,3-10.16,4.25-15.49ZM70.92,0C72.1,5.07,79,9.93,75.17,15.49a5.17,5.17,0,0,1-8.51,0C62.73,9.83,69.69,5.32,70.92,0Zm33.6,20.58c1.19,5.06,8.11,9.93,4.26,15.48a5.18,5.18,0,0,1-8.51,0c-3.93-5.65,3-10.16,4.25-15.48Z"/></svg>