<?xml version="1.0" encoding="utf-8"?><svg version="1.1" id="Layer_1" xmlns="http://www.w3.org/2000/svg" xmlns:xlink="http://www.w3.org/1999/xlink" x="0px" y="0px" viewBox="0 0 122.88 79.03" style="enable-background:new 0 0 122.88 79.03" xml:space="preserve"><style type="text/css">.st0{fill-rule:evenodd;clip-rule:evenodd;}</style><g><path class="st0" d="M26.05,13.3h79.01c3.91,0,7.08,0.19,9.49,0.58c2.68,0.43,4.54,1.16,5.56,2.18l0.02,0.02 c1.02,1.02,1.75,2.87,2.18,5.55c0.38,2.4,0.58,5.55,0.58,9.44V61.2c0,3.85-0.21,6.96-0.62,9.34c-0.46,2.68-1.23,4.55-2.3,5.62 l-0.02,0.01c-1.06,1.05-2.93,1.81-5.59,2.26c-2.38,0.4-5.48,0.61-9.31,0.61H17.83c-3.71,0-6.75-0.23-9.1-0.67 c-2.62-0.5-4.5-1.32-5.62-2.44c-1.12-1.12-1.94-3-2.44-5.61h0C0.23,67.96,0,64.93,0,61.22V31.07c0-3.64,0.17-6.62,0.52-8.94 c0.38-2.54,1.01-4.39,1.88-5.53l0,0c1.71-2.27,5.61-3.4,11.67-3.4l0.05,0.01l1.75,0.05c0.05-2.13,0.3-4.17,0.76-6.1 c0.51-2.16,1.3-4.21,2.34-6.14L19.53,0h1.14h7.72h4.2l-2.73,3.19l-0.2,0.23h0c-1.21,1.45-2.12,3.03-2.72,4.74 C26.4,9.74,26.09,11.45,26.05,13.3L26.05,13.3z M105.08,20.34H17.83c-3.03,0-5.42,0.13-7.17,0.39h-0.01 c-1.41,0.21-2.26,0.45-2.51,0.71c-0.26,0.26-0.5,1.1-0.71,2.51c-0.26,1.73-0.39,4.11-0.39,7.12v30.09c0,3.03,0.13,5.43,0.39,7.17 c0.21,1.42,0.45,2.26,0.71,2.52c0.26,0.26,1.1,0.5,2.51,0.71h0.01c1.74,0.26,4.14,0.39,7.17,0.39h87.25c3.03,0,5.42-0.13,7.16-0.39 c1.41-0.21,2.23-0.44,2.46-0.68l0.02-0.02c0.25-0.25,0.49-1.1,0.7-2.53c0.26-1.74,0.39-4.14,0.39-7.18V31.07 c0-3.01-0.13-5.39-0.39-7.12c-0.21-1.41-0.45-2.25-0.71-2.51c-0.26-0.26-1.1-0.5-2.51-0.71C110.46,20.47,108.09,20.34,105.08,20.34 L105.08,20.34z M17.81,26.91h7.92h1.94v1.94v5.9h4.03v-5.9v-1.94h1.94h7.97h1.94v1.94v5.9h4.05v-5.9v-1.94h1.94h7.97h1.94v1.94v5.9 h4.03v-5.9v-1.94h1.94h7.9h1.94v1.94v5.9h4.12v-5.9v-1.94h1.94h7.9h1.94v1.94v5.9h4.03v-5.9v-1.94h1.94h7.97h1.94v1.94v7.9v1.94 h-1.94h-5.9v2.19h5.9h1.94v1.94v7.9v1.94h-1.94h-7.97h-1.94v-1.94v-5.9h-4.03v5.9v1.94h-1.94h-7.9h-1.94v-1.94v-5.9h-4.12v5.9v1.94 h-1.94h-7.9h-1.94v-1.94v-5.9h-4.03v5.9v1.94h-1.94h-7.97h-1.94v-1.94v-5.9h-4.05v5.9v1.94H41.6h-7.97h-1.94v-1.94v-5.9h-4.03v5.9 v1.94h-1.94h-7.92h-1.94v-1.94v-7.9v-1.94h1.94h5.86v-2.19h-5.86h-1.94v-1.94v-7.9v-1.94H17.81L17.81,26.91z M35.7,40.81h3.9v-1.99 h-3.9V40.81L35.7,40.81z M51.53,40.81h3.96v-1.99h-3.96V40.81L51.53,40.81z M67.4,40.81h3.9v-1.99h-3.9V40.81L67.4,40.81z M83.29,40.81h3.9v-1.99h-3.9V40.81L83.29,40.81z M31.69,64.55v-5.56v-1.94h1.94h55.55h1.94v1.94v5.56v1.94h-1.94H33.63h-1.94 V64.55L31.69,64.55z"/></g></svg>