<?xml version="1.0" encoding="utf-8"?><svg version="1.1" id="Layer_1" xmlns="http://www.w3.org/2000/svg" xmlns:xlink="http://www.w3.org/1999/xlink" x="0px" y="0px" viewBox="0 0 122.88 61.63" style="enable-background:new 0 0 122.88 61.63" xml:space="preserve"><style type="text/css"><![CDATA[
	.st0{fill-rule:evenodd;clip-rule:evenodd;fill:#C32031;}
]]></style><g><path class="st0" d="M122.88,30.52v0.57c-0.03,1.66-0.32,3.32-0.88,4.98c-0.99,2.93-2.91,5.85-5.61,8.55 c-7.49,7.47-20.66,13.11-36.47,15.6c-7.07,1.12-14.36,1.57-21.87,1.38c-4.07-0.11-8.57-0.47-12.55-1 C28.57,58.31,14.38,52.5,6.48,44.62C3.13,41.27,1,37.6,0.29,33.91C0.06,32.72,0,32.13,0,30.88v-0.06v-0.06 c0-1.26,0.06-1.85,0.29-3.03c0.47-2.43,1.59-4.93,3.24-7.25c3.73-5.25,10.27-9.92,18.86-13.46c14.31-5.91,33.05-8.25,51.3-6.4 c21.42,2.16,39.05,9.98,46.04,20.42C121.77,24.08,122.82,27.28,122.88,30.52L122.88,30.52z M23.8,46.4 c-0.07-0.03-0.19-0.12-0.27-0.2c-0.13-0.15-0.13-0.26-0.15-14.49l-0.02-14.34l-0.18-0.19c-0.17-0.17-0.21-0.19-0.85-0.2l-0.68-0.02 v-1.81l4.87-0.02l4.87-0.02l0.21,0.17l0.21,0.17v5.17c0,5.68-0.02,5.47,0.39,5.47c0.25,0,0.34-0.11,1.75-2.11 c3.74-5.31,5.8-8.2,5.98-8.4c0.46-0.49,0.25-0.47,4.98-0.48l4.24,0l0.16,0.16c0.2,0.2,0.27,0.47,0.18,0.66 c-0.06,0.12-1.89,2.85-8.3,12.32c-0.7,1.03-0.9,1.37-0.89,1.54c0,0.18,0.46,0.86,2.4,3.6c8.58,12.11,8.61,12.15,8.64,12.4 c0.02,0.18-0.01,0.29-0.14,0.44l-0.17,0.2l-4.43,0.02c-4.37,0.02-4.43,0.02-4.75-0.12c-0.18-0.08-0.4-0.22-0.49-0.32 c-0.09-0.1-2.11-2.91-4.48-6.24c-2.38-3.33-4.37-6.1-4.43-6.15c-0.17-0.14-0.47-0.07-0.56,0.12c-0.07,0.13-0.08,1.5-0.08,6.24 l0,6.07l-0.16,0.19l-0.16,0.19l-3.77,0.01C25.63,46.45,23.87,46.43,23.8,46.4L23.8,46.4L23.8,46.4z M71.82,46.38 c-0.21-0.12-0.3-0.27-0.3-0.5c0-0.12,0.95-3.06,2.11-6.53c1.16-3.47,3.01-9,4.11-12.28c1.1-3.28,2.25-6.73,2.57-7.66 c0.32-0.94,0.58-1.78,0.58-1.89s-0.06-0.25-0.13-0.34c-0.12-0.14-0.2-0.16-0.79-0.19l-0.66-0.03l-0.02-0.92l-0.02-0.92l5.95,0 c3.9,0,6.03,0.02,6.2,0.07c0.14,0.04,0.28,0.13,0.32,0.21c0.08,0.16,0.75,2.13,3.89,11.51c5.11,15.26,6.28,18.79,6.28,18.93 c0,0.24-0.13,0.47-0.31,0.55c-0.11,0.05-1.3,0.07-3.89,0.07c-3.42,0-3.75-0.01-3.96-0.12c-0.13-0.07-0.28-0.19-0.35-0.29 c-0.07-0.09-0.59-1.61-1.16-3.38c-5.41-16.85-5.26-16.39-5.38-16.53C86.74,26,86.63,26,86.5,26.16c-0.11,0.12-0.32,0.76-3.26,10.02 c-0.85,2.69-1.77,5.58-2.04,6.43c-0.27,0.85-0.62,1.94-0.77,2.43c-0.3,0.96-0.44,1.19-0.78,1.33 C79.35,46.49,72.03,46.5,71.82,46.38L71.82,46.38L71.82,46.38z M57.42,46.37c-0.11-0.05-0.24-0.17-0.28-0.27 c-0.06-0.14-0.08-3.33-0.08-14.45V17.38l-0.2-0.2c-0.19-0.19-0.22-0.2-0.84-0.2h-0.64v-1.88h9.91l0.22,0.2l0.22,0.19v30.55 l-0.18,0.18l-0.19,0.19l-3.87,0.02C58.39,46.46,57.58,46.44,57.42,46.37L57.42,46.37L57.42,46.37z M99.97,11.83 c4.24,2.12,7.44,4.35,10.14,7.06c1.84,1.84,3.07,3.51,4.04,5.46c1.12,2.26,1.58,4.13,1.58,6.46c0,2.32-0.43,4.1-1.53,6.36 c-0.99,2.02-2.2,3.68-4.08,5.56c-1.58,1.59-2.98,2.73-5,4.09c-4.01,2.69-9.22,5.09-14.82,6.83c-7.06,2.19-14.3,3.45-22.87,3.98 c-1.48,0.09-9.1,0.13-10.62,0.06c-13.43-0.66-24.85-3.35-34.15-8.05c-4.08-2.06-7.22-4.26-9.86-6.91c-3.48-3.49-5.27-7-5.6-10.97 c-0.3-3.65,1.02-7.43,3.82-10.94c0.78-0.98,2.65-2.86,3.7-3.73c8.26-6.83,21.6-11.44,37.14-12.84c6.14-0.55,13.1-0.55,19.22,0 C82.11,5.26,92.04,7.86,99.97,11.83L99.97,11.83z"/></g></svg>