<?xml version="1.0" encoding="utf-8"?><svg version="1.1" id="Layer_1" xmlns="http://www.w3.org/2000/svg" xmlns:xlink="http://www.w3.org/1999/xlink" x="0px" y="0px" viewBox="0 0 104.35 122.88" style="enable-background:new 0 0 104.35 122.88" xml:space="preserve"><style type="text/css">.st0{fill-rule:evenodd;clip-rule:evenodd;}</style><g><path class="st0" d="M19.22,115.8l46.2-65.73c5.48,3.56,10.77,4.35,15.88,2.67c14-4.61,23.24-23.11,23.05-37.22 c-0.08-6.1-2.14-10.33-6.03-12.84c-4.31-2.95-9.74-3.49-16.28-1.45C67.48,5.77,48.86,21.03,54.55,37.87 c0.8,2.37,2.11,4.45,3.96,6.21L4.69,104.24c-3.49,3.86-5.53,7.11-4.36,12.81c0.92,4.46,4.59,6.76,10.11,5.47 C15.79,121.26,16.24,119.89,19.22,115.8L19.22,115.8z"/></g></svg>