<?xml version="1.0" encoding="utf-8"?><svg version="1.1" id="Layer_1" xmlns="http://www.w3.org/2000/svg" xmlns:xlink="http://www.w3.org/1999/xlink" x="0px" y="0px" viewBox="0 0 122.88 50.8" style="enable-background:new 0 0 122.88 50.8" xml:space="preserve"><g><path d="M31.01,18.14c2.61,0,4.98,1.06,6.69,2.77c1.71,1.71,2.77,4.08,2.77,6.69s-1.06,4.98-2.77,6.69 c-1.71,1.71-4.08,2.77-6.69,2.77c-2.61,0-4.98-1.06-6.69-2.77c-1.71-1.71-2.77-4.08-2.77-6.69s1.06-4.98,2.77-6.69 C26.04,19.2,28.4,18.14,31.01,18.14L31.01,18.14z M13.02,44.36v4.73c0,0.5-0.26,0.94-0.67,1.25c-0.37,0.28-0.88,0.46-1.43,0.46 c-0.55,0-1.06-0.18-1.43-0.46c-0.41-0.31-0.67-0.76-0.67-1.26v-4.73h-3.3c-0.74,0-1.45-0.15-2.1-0.42 c-0.65-0.27-1.25-0.67-1.75-1.16l-0.05-0.04c-0.51-0.51-0.92-1.11-1.2-1.79C0.15,40.3,0,39.59,0,38.84V16.78 c0-0.74,0.15-1.45,0.42-2.11c0.28-0.68,0.69-1.28,1.2-1.79s1.12-0.92,1.79-1.2c0.65-0.27,1.36-0.42,2.11-0.42h5.59 c-0.02-1.15-0.04-2.08-0.07-2.88l0-0.08c-0.1-3.45-0.15-5.18,1.03-6.51c1.29-1.45,2.94-1.39,6.25-1.28l0.06,0 c1.02,0.03,2.26,0.08,4.09,0.08c0.58,0,1.1,0.23,1.48,0.61c0.38,0.38,0.62,0.9,0.62,1.48c0,0.58-0.24,1.1-0.62,1.48 c-0.38,0.38-0.91,0.62-1.48,0.62c-1.49,0-3-0.05-4.25-0.09l-0.06,0c-1.98-0.07-2.95-0.13-2.96-0.11l0,0 c-0.02,0.04-0.03,0.32-0.03,0.82c-0.01,0.64,0.02,1.58,0.06,2.82l0,0.08c0.03,0.88,0.06,1.88,0.07,2.96h14.15V2.1 c0-0.58,0.24-1.1,0.62-1.48C30.45,0.23,30.97,0,31.55,0c0.58,0,1.1,0.23,1.48,0.61c0.38,0.38,0.62,0.91,0.62,1.48v9.17h13.41 l0.03-1.37l0.05-1.67c0.04-1.24,0.06-2.18,0.06-2.82c-0.01-0.53-0.02-0.81-0.04-0.83c-0.01-0.01-0.99,0.05-2.99,0.11l-0.06,0 c-1.24,0.04-2.74,0.09-4.22,0.09c-0.58,0-1.1-0.24-1.48-0.62c-0.38-0.38-0.61-0.91-0.61-1.48c0-0.58,0.23-1.1,0.61-1.48 c0.38-0.38,0.9-0.61,1.48-0.61c1.84,0,3.08-0.04,4.1-0.08l0.03,0c1.61-0.06,2.81-0.1,3.78,0.04l0.02,0 c1.04,0.15,1.81,0.5,2.46,1.23c1.18,1.33,1.13,3.07,1.03,6.53l0,0.06c-0.02,0.81-0.05,1.74-0.07,2.88h20.37 c-0.02-1.15-0.04-2.08-0.07-2.89l0-0.08c-0.1-3.45-0.15-5.18,1.03-6.51c0.66-0.74,1.43-1.09,2.48-1.24 c0.97-0.14,2.18-0.1,3.79-0.04l0.03,0c1.02,0.03,2.27,0.08,4.1,0.08c0.58,0,1.1,0.23,1.48,0.61c0.38,0.38,0.61,0.9,0.61,1.48 c0,0.58-0.24,1.1-0.61,1.48s-0.9,0.62-1.48,0.62c-1.49,0-3-0.05-4.25-0.09l-0.06,0c-1.98-0.07-2.95-0.13-2.96-0.11 c-0.02,0.02-0.03,0.3-0.04,0.83c-0.01,0.64,0.02,1.58,0.06,2.82l0,0.08c0.03,0.88,0.06,1.89,0.07,2.96h14.15V2.1 c0-0.58,0.24-1.1,0.61-1.48C90.97,0.23,91.49,0,92.07,0c0.58,0,1.1,0.23,1.48,0.61c0.38,0.38,0.61,0.91,0.61,1.48v9.17h13.41 l0.03-1.37l0.05-1.67c0.04-1.24,0.06-2.18,0.06-2.82c-0.01-0.53-0.02-0.81-0.03-0.83c-0.01-0.01-0.99,0.05-2.99,0.11l-0.04,0 c-0.6,0.02-1.26,0.04-1.98,0.06c-0.76,0.02-1.53,0.03-2.25,0.03c-0.58,0-1.1-0.24-1.48-0.62c-0.38-0.38-0.62-0.91-0.62-1.48 c0-0.58,0.24-1.1,0.62-1.48c0.38-0.38,0.91-0.61,1.48-0.61c1.84,0,3.08-0.04,4.11-0.08l0.07,0c3.29-0.11,4.94-0.16,6.23,1.28 c1.18,1.33,1.13,3.07,1.03,6.54l0,0.06c-0.02,0.81-0.05,1.74-0.07,2.88h5.59c0.74,0,1.45,0.15,2.1,0.42 c0.68,0.28,1.28,0.69,1.79,1.2c0.51,0.51,0.92,1.12,1.2,1.79c0.27,0.65,0.42,1.36,0.42,2.1v22.06c0,0.74-0.15,1.45-0.42,2.1 c-0.28,0.68-0.69,1.28-1.2,1.79l-0.12,0.11c-0.5,0.48-1.1,0.86-1.75,1.12c-0.63,0.25-1.32,0.39-2.03,0.39h-3.3v4.73 c0,0.5-0.26,0.94-0.67,1.25c-0.37,0.28-0.88,0.46-1.43,0.46c-0.55,0-1.06-0.18-1.43-0.46c-0.41-0.31-0.67-0.76-0.67-1.25v-4.73 H13.02L13.02,44.36z M92.56,18.14c2.61,0,4.98,1.06,6.69,2.77c1.71,1.71,2.77,4.08,2.77,6.69s-1.06,4.98-2.77,6.69 c-1.71,1.71-4.08,2.77-6.69,2.77c-2.61,0-4.98-1.06-6.69-2.77c-1.71-1.71-2.77-4.08-2.77-6.69s1.06-4.98,2.77-6.69 C87.58,19.2,89.95,18.14,92.56,18.14L92.56,18.14z M95.13,25.03c-0.66-0.66-1.57-1.06-2.57-1.06c-1,0-1.91,0.41-2.57,1.06 c-0.66,0.66-1.06,1.56-1.06,2.57c0,1,0.41,1.91,1.06,2.57c0.66,0.66,1.57,1.06,2.57,1.06c0.99,0,1.89-0.4,2.54-1.04l0.02-0.02 c0.66-0.66,1.06-1.57,1.06-2.57C96.19,26.6,95.79,25.69,95.13,25.03L95.13,25.03z M50.32,23.1h20.81c0.58,0,1.11,0.24,1.49,0.62 c0.38,0.38,0.62,0.91,0.62,1.49v5.17c0,0.58-0.24,1.11-0.62,1.49l-0.03,0.03c-0.38,0.37-0.9,0.59-1.46,0.59H50.32 c-0.58,0-1.11-0.24-1.49-0.62c-0.38-0.38-0.62-0.91-0.62-1.49v-5.17c0-0.58,0.24-1.11,0.62-1.49C49.21,23.33,49.74,23.1,50.32,23.1 L50.32,23.1z M117.36,15.46H5.52c-0.18,0-0.35,0.04-0.5,0.1c-0.16,0.07-0.31,0.17-0.43,0.29c-0.24,0.24-0.39,0.57-0.39,0.93v22.06 c0,0.18,0.04,0.35,0.1,0.5c0.07,0.16,0.17,0.31,0.29,0.43l0.03,0.03c0.12,0.11,0.25,0.2,0.39,0.25c0.15,0.06,0.32,0.1,0.5,0.1 h111.85c0.17,0,0.33-0.03,0.48-0.09c0.15-0.06,0.29-0.14,0.4-0.25l0.05-0.05c0.12-0.12,0.22-0.27,0.29-0.43 c0.06-0.15,0.1-0.32,0.1-0.5V16.78c0-0.18-0.04-0.35-0.1-0.5c-0.07-0.16-0.17-0.31-0.29-0.43 C118.05,15.61,117.72,15.46,117.36,15.46L117.36,15.46z M33.58,25.03c-0.66-0.66-1.56-1.06-2.57-1.06c-1,0-1.91,0.41-2.57,1.06 c-0.66,0.66-1.06,1.56-1.06,2.57c0,0.99,0.4,1.89,1.04,2.54l0.02,0.02c0.66,0.66,1.57,1.06,2.57,1.06c1,0,1.91-0.41,2.57-1.06 c0.66-0.66,1.06-1.57,1.06-2.57C34.65,26.59,34.24,25.69,33.58,25.03L33.58,25.03z"/></g></svg>