<?xml version="1.0" encoding="utf-8"?><svg version="1.1" id="Layer_1" xmlns="http://www.w3.org/2000/svg" xmlns:xlink="http://www.w3.org/1999/xlink" x="0px" y="0px" viewBox="0 0 45.6 122.88" style="enable-background:new 0 0 45.6 122.88" xml:space="preserve"><g><path d="M6.26,67.34c1.85,1.45,3.59,2.32,5.26,2.74c1.61,0.41,3.16,0.39,4.67,0.06c2.76-0.6,3.7-1.03,4.25-1.28 c0.53-0.24,0.85-0.39,1.48-0.43l0.05,0c0.69-0.04,1.51,0.1,3.53,0.44c0.79,0.13,1.76,0.3,2.6,0.43c2,0.33,3.9,0.33,5.69-0.03 c1.76-0.35,3.45-1.07,5.05-2.18c0.53-0.37,0.95-0.75,1.27-1.05c0.59-0.55,1.01-0.94,1.73-1.06c1.73-0.3,2.34,0.6,2.85,3.52 c0.32,1.82,0.28,3.58-0.09,5.29c-0.38,1.71-1.1,3.35-2.17,4.93c-1.36,2.02-2.71,3.38-4.04,4.72c-1.8,1.81-3.58,3.61-5.24,7.15 c-0.67,1.43-1.25,2.96-1.74,4.58c-0.48,1.6-0.87,3.27-1.17,5.03v20.94c0,0.96-0.79,1.74-1.76,1.74H16.14 c-0.97,0-1.76-0.78-1.76-1.74v-20.39c-1.06-7.37-4.88-12.14-8.23-16.31c-3.91-4.87-7.24-9.01-5.82-15.53 c0.68-3.12,1.26-4.08,3.09-3.68c0.7,0.15,1.12,0.55,1.73,1.13C5.46,66.65,5.84,67.01,6.26,67.34L6.26,67.34z M27.82,3.51h-8.54 v21.26c0,0.03,0,0.06,0,0.08c0.08,2.98-0.83,5.88-2.47,8.73c-1.58,2.73-3.84,5.41-6.55,8.06c-2.47,3.25-4.22,7.13-4.75,10.61 c-0.29,1.91-0.21,3.65,0.34,5.02c0.49,1.23,1.38,2.18,2.77,2.71c1.4,0.53,3.31,0.66,5.8,0.25c0.91-0.15,1.89-0.52,2.92-0.9 c0.61-0.23,1.24-0.46,1.88-0.67c5.74-1.85,7.27-1.13,9.45-0.11c0.97,0.46,2.12,1,4.29,1.22c2.8,0.29,4.95-0.12,6.42-1.31 c1.47-1.19,2.38-3.26,2.7-6.28c0.07-0.68-0.01-1.38-0.2-2.09c-0.21-0.78-0.55-1.57-0.98-2.37c-1.51-2.82-3.3-4.75-5.04-6.63 c-3.08-3.33-5.99-6.47-7.35-13.54c-1.06-5.49-0.9-13.07-0.76-19.77C27.77,6.35,27.8,4.98,27.82,3.51L27.82,3.51z M17.52,0h12.06 c0.97,0,1.76,0.79,1.76,1.76c0,1.56-0.05,3.78-0.09,6.09c-0.14,6.52-0.29,13.89,0.7,19.05c1.17,6.1,3.75,8.88,6.47,11.82 c1.89,2.04,3.84,4.15,5.56,7.36c0.56,1.04,1,2.08,1.28,3.11c0.3,1.1,0.41,2.22,0.3,3.36c-0.42,4.01-1.76,6.86-3.99,8.66 c-2.23,1.8-5.23,2.45-8.97,2.06c-2.75-0.29-4.19-0.96-5.42-1.54c-1.44-0.68-2.46-1.16-6.89,0.27c-0.6,0.19-1.17,0.41-1.72,0.61 c-1.2,0.45-2.34,0.87-3.58,1.08C11.84,64.2,9.33,64,7.37,63.25c-2.38-0.91-3.93-2.57-4.77-4.7c-0.79-1.99-0.93-4.35-0.56-6.83 c0.62-4.07,2.65-8.59,5.51-12.31l0,0c0.05-0.07,0.11-0.13,0.17-0.19c2.53-2.47,4.63-4.93,6.06-7.4c1.33-2.29,2.06-4.58,2.01-6.86 c-0.01-0.06-0.01-0.13-0.01-0.2V1.76C15.77,0.79,16.55,0,17.52,0L17.52,0z M10.66,73.45c-2.11-0.54-4.3-1.62-6.56-3.4 c-0.13-0.1-0.25-0.2-0.36-0.29c-0.99,4.86,1.84,8.38,5.16,12.52c3.63,4.52,7.77,9.68,8.96,18c0.03,0.12,0.04,0.25,0.04,0.38v18.74 h8.82v-19.31h0c0-0.09,0.01-0.18,0.02-0.28c0.33-1.98,0.76-3.86,1.29-5.63c0.53-1.78,1.17-3.46,1.92-5.05 c1.91-4.08,3.91-6.09,5.93-8.13c1.22-1.23,2.45-2.47,3.63-4.22c0.81-1.2,1.36-2.45,1.65-3.73c0.25-1.11,0.3-2.26,0.14-3.45 c-0.14,0.11-0.29,0.22-0.45,0.33c-1.99,1.39-4.12,2.28-6.38,2.73c-2.22,0.45-4.54,0.45-6.94,0.06c-1.26-0.21-2-0.33-2.61-0.43 C23.21,72,22.5,71.88,22.2,71.9l-0.01,0c-0.02,0-0.12,0.05-0.29,0.12c-0.69,0.31-1.87,0.85-4.97,1.52 C14.91,73.98,12.83,74,10.66,73.45L10.66,73.45z M42.35,68.42l0.02,0.03c0.02,0.01,0.04,0.01,0.06,0.02 c0.3-0.1,0.42-0.14,0.01-0.07C42.39,68.41,42.36,68.42,42.35,68.42L42.35,68.42z M42.35,68.42c-0.02,0.01,0,0.02,0.02,0.03 L42.35,68.42L42.35,68.42z M2.68,68.63c-0.44-0.1-0.29-0.03,0.01,0.12C2.73,68.68,2.86,68.67,2.68,68.63L2.68,68.63z"/></g></svg>