<?xml version="1.0" encoding="utf-8"?><svg version="1.1" id="Layer_1" xmlns="http://www.w3.org/2000/svg" xmlns:xlink="http://www.w3.org/1999/xlink" x="0px" y="0px" viewBox="0 0 45.62 122.88" style="enable-background:new 0 0 45.62 122.88" xml:space="preserve"><style type="text/css">.st0{fill-rule:evenodd;clip-rule:evenodd;}</style><g><path class="st0" d="M29.38,0H16.08v22.81c0.23,5.9-3.65,11.65-9.47,17.32c-7.9,10.3-9.71,26.34,6.35,23.67 c1.81-0.3,3.57-1.16,5.57-1.8c9.02-2.9,7.17,0.56,14.36,1.31c7.21,0.75,11.36-2.34,12.17-10.09c0.21-2-0.43-4-1.52-6.03 c-4.63-8.64-11.19-9.9-13.46-21.69C28.59,17.73,29.38,8.37,29.38,0L29.38,0z M3.76,67c4.53,3.61,8.66,4.38,12.56,3.52 c8.8-1.93,2.28-2.6,12.41-0.93c4.84,0.8,9.3,0,13.26-2.8c2.59-1.83,2.75-3.64,3.43,0.31c0.61,3.58-0.13,6.92-2.19,10.03 c-3.49,5.26-7.09,6.44-10.39,13.55c-1.56,3.38-2.69,7.2-3.39,11.44v20.74H15.85v-20.09C13.4,84.73-2.39,80.25,0.31,67.65 C1.19,63.53,1.23,64.99,3.76,67L3.76,67z"/></g></svg>