<?xml version="1.0" encoding="utf-8"?><svg version="1.1" id="Layer_1" xmlns="http://www.w3.org/2000/svg" xmlns:xlink="http://www.w3.org/1999/xlink" x="0px" y="0px" viewBox="0 0 122.88 101.526" enable-background="new 0 0 122.88 101.526" xml:space="preserve"><g><path d="M9.943,0h102.986c2.726,0,5.211,1.12,7.016,2.919c1.811,1.809,2.936,4.295,2.936,7.024v81.642 c0,2.729-1.123,5.217-2.936,7.025c-1.802,1.799-4.285,2.916-7.016,2.916H9.943c-2.728,0-5.209-1.118-7.01-2.917l-0.007-0.008 l-0.008,0.008C1.119,96.81,0,94.322,0,91.585V9.943c0-2.728,1.119-5.209,2.917-7.01l0.016-0.016C4.734,1.118,7.215,0,9.943,0 L9.943,0z M61.654,50.797c0-5.677,1.581-10.102,4.751-13.263c3.171-3.171,7.576-4.751,13.226-4.751 c5.789,0,10.26,1.552,13.394,4.658c3.133,3.114,4.695,7.473,4.695,13.066c0,4.069-0.684,7.399-2.049,9.999s-3.357,4.63-5.939,6.079 c-2.591,1.45-5.817,2.171-9.68,2.171c-3.919,0-7.174-0.628-9.746-1.872c-2.572-1.252-4.657-3.235-6.257-5.938 C62.458,58.25,61.654,54.865,61.654,50.797L61.654,50.797L61.654,50.797z M25.162,33.372h10.747v13.15l11.271-13.15h14.3 L48.769,46.447L62.06,68.175H48.825l-7.342-14.292L35.899,59.7v8.475H25.162V33.372L25.162,33.372L25.162,33.372z M72.4,50.815 c0,3.507,0.655,6.032,1.965,7.566s3.096,2.301,5.35,2.301c2.311,0,4.105-0.758,5.368-2.255c1.271-1.505,1.908-4.198,1.908-8.09 c0-3.273-0.664-5.658-1.982-7.173c-1.328-1.515-3.115-2.273-5.388-2.273c-2.17,0-3.919,0.768-5.237,2.301 C73.056,44.736,72.4,47.28,72.4,50.815L72.4,50.815L72.4,50.815z M112.929,7.951H9.943c-0.55,0-1.051,0.222-1.413,0.58 c-0.358,0.361-0.58,0.862-0.58,1.413v81.642c0,0.544,0.225,1.042,0.587,1.404L8.53,92.997c0.362,0.357,0.862,0.579,1.413,0.579 h102.986c0.56,0,1.064-0.225,1.427-0.586c0.354-0.354,0.574-0.852,0.574-1.405V9.943c0-0.553-0.22-1.05-0.575-1.404 C113.99,8.176,113.485,7.951,112.929,7.951L112.929,7.951z"/></g></svg>