<?xml version="1.0" encoding="utf-8"?><svg version="1.1" id="Layer_1" xmlns="http://www.w3.org/2000/svg" xmlns:xlink="http://www.w3.org/1999/xlink" x="0px" y="0px" viewBox="0 0 122.88 100.06" style="enable-background:new 0 0 122.88 100.06" xml:space="preserve"><style type="text/css">.st0{fill-rule:evenodd;clip-rule:evenodd;}</style><g><path class="st0" d="M6.38,0h110.11c3.51,0,6.39,2.87,6.39,6.38v87.29c0,3.51-2.87,6.38-6.39,6.38H6.38 c-3.51,0-6.38-2.87-6.38-6.38V6.38C0,2.87,2.87,0,6.38,0L6.38,0z M23.41,31.43h11.49v14.06l12.05-14.06h15.29L48.65,45.41 l14.21,23.23H48.71l-7.85-15.28l-5.97,6.22v9.06H23.41V31.43L23.41,31.43z M60.91,50.06c0-6.07,1.69-10.8,5.08-14.18 c3.39-3.39,8.1-5.08,14.14-5.08c6.19,0,10.97,1.66,14.32,4.98c3.35,3.33,5.02,7.99,5.02,13.97c0,4.35-0.73,7.91-2.19,10.69 c-1.46,2.78-3.59,4.95-6.35,6.5c-2.77,1.55-6.22,2.32-10.35,2.32c-4.19,0-7.67-0.67-10.42-2c-2.75-1.34-4.98-3.46-6.69-6.35 C61.77,58.03,60.91,54.41,60.91,50.06L60.91,50.06z M72.4,50.08c0,3.75,0.7,6.45,2.1,8.09c1.4,1.64,3.31,2.46,5.72,2.46 c2.47,0,4.39-0.81,5.74-2.41c1.36-1.61,2.04-4.49,2.04-8.65c0-3.5-0.71-6.05-2.12-7.67c-1.42-1.62-3.33-2.43-5.76-2.43 c-2.32,0-4.19,0.82-5.6,2.46C73.1,43.58,72.4,46.3,72.4,50.08L72.4,50.08z"/></g></svg>