<?xml version="1.0" encoding="utf-8"?><svg version="1.1" id="Layer_1" xmlns="http://www.w3.org/2000/svg" xmlns:xlink="http://www.w3.org/1999/xlink" x="0px" y="0px" viewBox="0 0 122.88 63.89" style="enable-background:new 0 0 122.88 63.89" xml:space="preserve"><style type="text/css">.st0{fill-rule:evenodd;clip-rule:evenodd;}</style><g><path class="st0" d="M0,0h122.88v63.89L0,63.89V0L0,0z M74.58,33.37h-4.24l-1.77,8.74l-4.57,0l-1.95-8.74l-0.96,0l-1.92,8.74 l-4.57,0l-1.77-8.74l-4.5,0v-2.65h3.98l-0.29-1.55h-3.65v-2.65h3.1l-0.7-3.43h4.39l0.59,3.43h3.28l0.74-3.43h3.76l0.74,3.43h3.32 l0.59-3.43h4.39l-0.7,3.43h2.84v2.65H71.3l-0.29,1.55h3.69v2.65H74.58L74.58,33.37z M66.25,33.37h-0.63l0.37,1.62l0.29-1.62H66.25 L66.25,33.37z M57.51,33.37h-0.63l0.29,1.62L57.51,33.37L57.51,33.37z M56.41,30.71h1.66l0.33-1.55h-2.25L56.41,30.71L56.41,30.71 L56.41,30.71z M65.03,30.71h1.66l0.26-1.55h-2.29L65,30.71H65.03L65.03,30.71z M61.42,13.2c10.4,0,18.8,8.41,18.8,18.8 s-8.41,18.8-18.8,18.8c-10.4,0-18.8-8.41-18.8-18.8S51.02,13.2,61.42,13.2L61.42,13.2z M20.5,9.77h81.7c0,5.2,4.24,9.44,9.44,9.44 v25.25c-5.2,0-9.44,4.24-9.44,9.44l-81.7,0c0-5.2-4.24-9.44-9.44-9.44V19.21C16.26,19.21,20.5,14.97,20.5,9.77L20.5,9.77L20.5,9.77 z"/></g></svg>