<svg id="Layer_1" data-name="Layer 1" xmlns="http://www.w3.org/2000/svg" viewBox="0 0 122.88 85.79"><title>kuwaiti-dinar</title><path d="M44.26,36.9c0,4-1.31,7-3.94,9.22S34,49.39,29.25,49.39A33.55,33.55,0,0,1,22,48.47q-2.43-.55-7.13-2l.92-1.15c.87,0,1.9.06,3.12.15,2.86.26,4.61.39,5.29.39A28.06,28.06,0,0,0,34.84,44c3-1.22,4.44-2.67,4.44-4.35a2.54,2.54,0,0,0-.92-2,3.12,3.12,0,0,0-2.16-.83c-.94,0-1.66,0-2.17.06l-3.79.28a3.85,3.85,0,0,1-2.3-.7,2.84,2.84,0,0,1-.94-2.4q0-4.57,4.76-10.94c3.15-4.24,6.49-6.93,10-8.1l-1,7.09a24.1,24.1,0,0,0-5.76,2.23Q31.66,26.31,31.65,29a1.38,1.38,0,0,0,.86,1.33,4.6,4.6,0,0,0,2,.42,11.49,11.49,0,0,0,1.74-.11l2.91-.38c1.88,0,3.19.49,3.95,1.47s1.14,2.71,1.14,5.18ZM122.88,70H98.74a9.12,9.12,0,0,1-5.53-1.79A5.12,5.12,0,0,1,90.76,64,28.32,28.32,0,0,1,91,60.25a23.9,23.9,0,0,1,.81-3.67h1.1a5.14,5.14,0,0,0,2.16,3.17,6.78,6.78,0,0,0,3.58.81h20.93q0-9.68-2.71-15.56a17.54,17.54,0,0,0-11.23-9.78l.83-10.51a26.26,26.26,0,0,1,13.28,14.66q3.15,8.12,3.15,21.19V70ZM69.53,85.79V74.73H80.59V85.79ZM64.07,70H24.2Q11.3,70,5.83,66.89,0,63.61,0,55.66A28.17,28.17,0,0,1,2.55,44.87c.47-1.13,1.47-3.19,3-6.22l1.89,1.07A46,46,0,0,0,5,46.22a17.22,17.22,0,0,0-.57,4.31c0,3.91,2.06,6.68,6.21,8.25q4.65,1.78,13.61,1.78h34.4L51.79,14.61,49,13.28a35.88,35.88,0,0,1,.65-7A32.45,32.45,0,0,1,51.62,0l.83.59c0,2.08,1.29,3.65,3.89,4.7l5.85,2.16A27.38,27.38,0,0,1,61.56,13a31.67,31.67,0,0,1-1.29,4.76l-2.62-.86,6.42,42.49V70Z"/></svg>