<?xml version="1.0" encoding="utf-8"?><svg version="1.1" id="Layer_1" xmlns="http://www.w3.org/2000/svg" xmlns:xlink="http://www.w3.org/1999/xlink" x="0px" y="0px" viewBox="0 0 122.88 98.62" style="enable-background:new 0 0 122.88 98.62" xml:space="preserve"><g><path d="M36.62,5.42L3.24,18.58l4.24,19.38H25.2c0.81,0,1.51,0.66,1.51,1.51v56.23h69.06V39.88c0-0.81,0.66-1.51,1.51-1.51h17.21 l5.09-19.24L86.52,5.5L72.89,30.22l-9.99-7.81l-0.07,0.07c-0.59,0.59-1.51,0.63-2.1,0.04l-0.04-0.04l-0.07-0.07L50.41,30.3 L36.7,5.38L36.62,5.42L36.62,5.42z M55.21,65.26h6.24V80.5h9.77v4.97h-16V65.26L55.21,65.26z M61.43,27.79 c0.7,0,1.25,0.55,1.25,1.25c0,0.7-0.55,1.29-1.25,1.29s-1.29-0.55-1.29-1.29C60.14,28.34,60.69,27.79,61.43,27.79L61.43,27.79z M61.43,35.09c0.7,0,1.25,0.55,1.25,1.29c0,0.7-0.55,1.25-1.25,1.25s-1.29-0.55-1.29-1.25C60.14,35.68,60.69,35.09,61.43,35.09 L61.43,35.09z M42.56,0.26c6.34,1.33,12.68,1.95,18.98,1.95c6.15,0,12.27-0.63,18.39-1.88c0.41-0.33,0.99-0.44,1.51-0.22 l40.46,16.69c0.74,0.26,1.14,1.03,0.92,1.77l-5.71,21.48c-0.15,0.7-0.74,1.22-1.47,1.22H98.79v55.83c0,0.81-0.66,1.51-1.51,1.51 H25.24c-0.81,0-1.51-0.66-1.51-1.51V40.87H6.3c-0.7,0-1.33-0.48-1.47-1.18L0.03,17.91c-0.15-0.7,0.22-1.44,0.92-1.7L41.49,0.23 c0.33-0.15,0.7-0.15,1.07,0V0.26L42.56,0.26z M46.57,4.02l3.13,3.17l12.01,11.98L76.31,4.02C71.41,4.8,66.47,5.2,61.54,5.2 C56.56,5.2,51.59,4.8,46.57,4.02L46.57,4.02z"/></g></svg>