<?xml version="1.0" encoding="utf-8"?><svg version="1.1" id="Layer_1" xmlns="http://www.w3.org/2000/svg" xmlns:xlink="http://www.w3.org/1999/xlink" x="0px" y="0px" viewBox="0 0 91.97 122.88" style="enable-background:new 0 0 91.97 122.88" xml:space="preserve"><g><path d="M52.01,17.31c1.46,17.99,4.74,34.78,9.5,49.54H29.5c4.81-14.94,8.16-31.95,9.67-50.22l-0.07-0.07 c-1.77-1.77-2.83-4.17-2.83-6.86c0-2.69,1.1-5.09,2.83-6.86C40.87,1.06,43.27,0,45.96,0c2.69,0,5.09,1.1,6.86,2.83 c1.77,1.77,2.83,4.18,2.83,6.86c0,1.49-0.34,2.89-0.93,4.14C54.05,15.28,53.13,16.44,52.01,17.31L52.01,17.31L52.01,17.31z M63.21,71.83c1.23,3.45,2.54,6.77,3.94,9.96H23.91c1.38-3.19,2.68-6.52,3.91-9.96H63.21L63.21,71.83L63.21,71.83z M69.44,86.78 c3.98,8.2,22.53,30.84,22.54,32.78c0,1.11-0.28,2.22-0.85,3.33H71.36c0.19-22.09-27.67-32.61-43.11-17.69 c-4.59,4.44-6.99,10.57-8.09,17.69H0.77c-0.62-1.08-0.83-2.26-0.75-3.5c0.13-2.02,17.78-24.58,21.63-32.61L69.44,86.78L69.44,86.78 L69.44,86.78z"/></g></svg>