<?xml version="1.0" encoding="utf-8"?><svg version="1.1" id="Layer_1" xmlns="http://www.w3.org/2000/svg" xmlns:xlink="http://www.w3.org/1999/xlink" x="0px" y="0px" viewBox="0 0 122.88 86.42" style="enable-background:new 0 0 122.88 86.42" xml:space="preserve"><style type="text/css">.st0{fill-rule:evenodd;clip-rule:evenodd;}</style><g><path class="st0" d="M61.04,26.32c-1.38,1.52-3,2.88-4.81,3.98c-0.22,0.16-0.53,0.18-0.77,0.02c-2.67-1.7-4.92-3.75-6.69-5.97 c-2.44-3.06-3.97-6.44-4.49-9.71c-0.54-3.31-0.03-6.49,1.61-9.08c0.65-1.02,1.48-1.95,2.49-2.76C50.71,0.96,53.36-0.02,56,0 c2.54,0.02,5.06,0.97,7.23,2.95c0.76,0.69,1.4,1.49,1.93,2.35c1.77,2.92,2.15,6.64,1.37,10.41C65.77,19.44,63.87,23.22,61.04,26.32 L61.04,26.32L61.04,26.32z M91.73,86.42L74.85,26.11h4.69l27.27,60.31H91.73L91.73,86.42z M55.91,86.42l2.68-54.15l-2.85,1.06 l-2.73-1.06L41.26,86.42H55.91L55.91,86.42z M31.15,86.42l15.84-56.6l-2.09-3.71h-1.57L16.07,86.42H31.15L31.15,86.42z M66.97,86.42L63.53,29.4l2.46-3.29h2.92l12.72,60.31H66.97L66.97,86.42z M0,68.04h16.64L8.3,86.42H0V68.04L0,68.04z M108.52,68.04 h14.36v18.38h-6.06L108.52,68.04L108.52,68.04z M0,26.16h35.2l-5.11,12.22H0V26.16L0,26.16z M90.04,26.16h32.84v12.22H95.13 L90.04,26.16L90.04,26.16z M0,46.96h26.2l-5.67,12.5H0V46.96L0,46.96z M99.01,46.96h23.87v12.5h-18.23L99.01,46.96L99.01,46.96z M55.5,5.88c3.14,0,5.69,2.54,5.69,5.69c0,3.14-2.55,5.68-5.69,5.68c-3.14,0-5.69-2.54-5.69-5.68C49.81,8.43,52.36,5.88,55.5,5.88 L55.5,5.88z"/></g></svg>