<svg id="Layer_1" data-name="Layer 1" xmlns="http://www.w3.org/2000/svg" viewBox="0 0 113.86 122.88"><title>laos-kip</title><path d="M16.34,0H34.53a1.52,1.52,0,0,1,1.52,1.52v52h3.57L79.14,1.92a1.52,1.52,0,0,1,1.2-.6H102a1.52,1.52,0,0,1,1.52,1.52,1.5,1.5,0,0,1-.43,1.06L63.38,53.56h49a1.52,1.52,0,0,1,1.52,1.52V67.79a1.52,1.52,0,0,1-1.52,1.52H62.76l40.41,51.12a1.5,1.5,0,0,1-1.19,2.44H80.34a1.5,1.5,0,0,1-1.26-.68l-40-52.89h-3v52a1.52,1.52,0,0,1-1.52,1.52H16.34a1.52,1.52,0,0,1-1.51-1.52v-52H1.52A1.52,1.52,0,0,1,0,67.79V55.08a1.52,1.52,0,0,1,1.52-1.52H14.83v-52A1.52,1.52,0,0,1,16.34,0Z"/></svg>