<svg xmlns="http://www.w3.org/2000/svg" shape-rendering="geometricPrecision" text-rendering="geometricPrecision" image-rendering="optimizeQuality" fill-rule="evenodd" clip-rule="evenodd" viewBox="0 0 512 338.16"><path d="M10.01 245.5h43.41c-3.66-.94-6.43-4.33-6.43-8.27V8.56c0-4.7 3.87-8.56 8.56-8.56h358.56c4.69 0 8.55 3.86 8.55 8.56v100.98l-2.03-.42c-4.76-.95-9.61-1.6-14.48-1.92V16.48H64.7v218.3h223.78c.28 1.85.6 3.7.96 5.53 1.26 6.32 3.14 12.63 5.57 18.81l.85 2.27c.57 1.38 1.17 2.75 1.8 4.1H10.01C4.5 265.49 0 260.99 0 255.48c0-5.48 4.5-9.98 10.01-9.98zm389.44-52.62v-7.99h13.45v7.79c6.34.31 12.01 1.25 18.21 2.57v14.33c-3.22-.25-6.85-.45-10.89-.61-4.03-.15-7.7-.23-11-.23-1.96 0-3.72.13-5.26.37-7.06 1.14-7.15 10.42 2 10.42h6.95c4.91 0 9 .82 12.26 2.47 3.26 1.64 5.72 3.87 7.37 6.69 1.64 2.83 2.47 6.03 2.47 9.63v3.07c0 5.9-1.16 10.39-3.47 13.49-2.32 3.1-5.62 5.2-9.9 6.28-2.88.73-5.1 1.22-8.74 1.45v8.68h-13.45v-8.64c-6.47-.33-12.02-1.06-18.32-2.56v-14.32c7.95.61 16.11.83 24.1.83 2.31 0 4.24-.16 5.78-.46 7.14-1.43 5.98-9.49-.84-9.49h-5.57c-8.14 0-14.32-1.58-18.53-4.74-4.21-3.17-6.31-8.47-6.31-15.91v-3.08c0-6.82 2.32-11.92 6.94-15.29 3.46-2.53 7.02-4.11 12.75-4.75zm5.97-47.88a84.7 84.7 0 0 1 32.43 6.44 84.88 84.88 0 0 1 27.53 18.41c7.8 7.8 14.12 17.16 18.41 27.53 4.15 10 6.44 20.97 6.44 32.44 0 8.39-1.24 16.53-3.52 24.21a84.409 84.409 0 0 1-8.63 19.52l32.85 35.8c1.51 1.65 1.41 4.22-.24 5.73l-24.11 22.02c-1.65 1.51-4.22 1.39-5.71-.25l-31.42-34.55a84.773 84.773 0 0 1-19.48 8.71 84.667 84.667 0 0 1-24.55 3.62c-11.47 0-22.44-2.29-32.43-6.43a85.003 85.003 0 0 1-27.54-18.42l-.19-.2c-7.71-7.77-13.95-17.04-18.21-27.33a84.512 84.512 0 0 1-6.44-32.43c0-11.47 2.29-22.44 6.43-32.44a84.932 84.932 0 0 1 18.41-27.53 84.816 84.816 0 0 1 27.54-18.41 84.586 84.586 0 0 1 32.43-6.44zm47.85 36.95a68.166 68.166 0 0 0-21.98-14.69l-.21-.09c-7.89-3.23-16.56-5.02-25.66-5.02-9.19 0-17.94 1.82-25.9 5.11-8.26 3.42-15.71 8.45-21.96 14.69a67.995 67.995 0 0 0-14.69 21.99l-.1.2c-3.23 7.89-5.02 16.57-5.02 25.68 0 9.19 1.83 17.94 5.12 25.88 3.41 8.27 8.45 15.72 14.7 21.97 6.25 6.25 13.7 11.28 21.95 14.69 7.97 3.3 16.71 5.12 25.9 5.12 9.18 0 17.92-1.82 25.87-5.11a68.032 68.032 0 0 0 21.98-14.7 67.672 67.672 0 0 0 14.7-21.97c3.29-7.94 5.11-16.69 5.11-25.88 0-9.19-1.82-17.93-5.11-25.88a68.022 68.022 0 0 0-14.7-21.99zm-231.39 67.3h28.14c6.36 0 6.36 9.62 0 9.62h-28.14c-6.35 0-6.37-9.62 0-9.62z"/></svg>