<?xml version="1.0" encoding="utf-8"?><svg version="1.1" id="Layer_1" xmlns="http://www.w3.org/2000/svg" xmlns:xlink="http://www.w3.org/1999/xlink" x="0px" y="0px" viewBox="0 0 122.88 70.51" style="enable-background:new 0 0 122.88 70.51" xml:space="preserve"><style type="text/css">.st0{fill-rule:evenodd;clip-rule:evenodd;}</style><g><path class="st0" d="M2.54,65.44h12.59c-0.93-0.24-1.63-1.1-1.63-2.1V2.17C13.5,0.98,14.48,0,15.67,0h90.97 c1.19,0,2.17,0.98,2.17,2.17v61.16c0,1.01-0.69,1.86-1.63,2.1h13.16c1.4,0,2.54,1.14,2.54,2.54v0c0,1.4-1.14,2.54-2.54,2.54H2.54 c-1.4,0-2.54-1.14-2.54-2.54v0C0,66.58,1.14,65.44,2.54,65.44L2.54,65.44z M58.91,11.33h5.06c1.16,0,2.12,0.95,2.12,2.12v1.86h6.13 c0.83,0,1.51,0.68,1.51,1.51v37.46c0,0.83-0.68,1.51-1.51,1.51H50.66c-0.83,0-1.51-0.68-1.51-1.51V16.81 c0-0.83,0.68-1.51,1.51-1.51h6.13v-1.86C56.79,12.28,57.74,11.33,58.91,11.33L58.91,11.33z M59.02,28.39l4.7,0.06l-2.19,7.08h5.07 l-8.35,10.33l2.12-7.12h-4.08L59.02,28.39L59.02,28.39L59.02,28.39z M52.11,18.34h18.66v33.95H52.11V18.34L52.11,18.34z M17.21,3.4 h88.19v59.32H17.21V3.4L17.21,3.4z M57.87,66.39h7.14c0.67,0,1.22,0.55,1.22,1.22l0,0c0,0.67-0.55,1.22-1.22,1.22h-7.14 c-0.67,0-1.22-0.55-1.22-1.22l0,0C56.65,66.93,57.2,66.39,57.87,66.39L57.87,66.39z"/></g></svg>