<svg xmlns="http://www.w3.org/2000/svg" shape-rendering="geometricPrecision" text-rendering="geometricPrecision" image-rendering="optimizeQuality" fill-rule="evenodd" clip-rule="evenodd" viewBox="0 0 512 277.41"><path d="M10.47 256.53h45.35c-3.83-1-6.71-4.54-6.71-8.66V8.94c0-4.9 4.03-8.94 8.93-8.94H432.7c4.9 0 8.93 4.04 8.93 8.94v67.49c-4.6-3.19-9.29-5.53-14.03-7.11V14H64.39v231.32h230.86c-1.32 5.91-2.31 12.79-2.99 20.9-.14 1.11-.22 2.24-.22 3.4 0 2.71.42 5.33 1.21 7.79H10.47C4.7 277.41 0 272.71 0 266.94c0-5.72 4.7-10.41 10.47-10.41zm304.86 15.22c3.66-47.31 21.68-36.28 62.04-61.54 12.46 26.01 63.13 27.9 73.52 0 34.83 22.26 61.34 12.15 61.11 61.54H315.33zm71.55-63.59c-.53-.7 1.41-5.5 1.87-6.26-5.27-4.7-9.44-9.44-10.33-19.18l-.56.02c-1.3-.02-2.57-.32-3.75-.99-1.89-1.08-3.21-2.91-4.11-5-1.89-4.36-8.15-18.84 1.37-17.71-5.32-9.94 6.74-26.94-14.06-33.22 17.06-21.63 53.07-54.95 79.46-21.52 28.87 2.8 37.89 37.12 18.44 55.93 1.14.04 2.21.29 3.16.81 3.62 1.94 3.73 6.14 2.78 9.66-.93 2.95-2.13 4.94-3.25 7.81-1.38 3.88-3.37 4.59-7.24 4.18-.2 9.58-4.63 14.29-10.59 19.92l1.63 5.53c-7.99 16.96-41.2 17.64-54.82.02zm-102.5-17.56-24.07 6.74 1.66-26.24 22.41 19.5zm-15.28-27.91 37.23-45.16c.85-.8 1.72-1.16 2.78-.64l19.97 16.72c.79.83 1.02 1.85.05 2.97l-37.62 45.62-22.41-19.51zM112.16 48.51h175.87c8.24 0 14.95 6.71 14.95 14.95v42.67c-1.7.71-3.19 1.74-4.54 3.02l-1 1.07-1.67 2.02V84.67H104.42v72.57h154.51c-.53.99-.91 2.04-1.13 3.11-4.06 1.58-7.05 5.4-7.34 10.03l-1.51 23.85H112.16c-8.24 0-14.96-6.71-14.96-14.96V63.46c0-8.23 6.73-14.95 14.96-14.95zm80.23 51.92 25.3 17.64c.39.25.75.59 1.04 1 1.13 1.64.71 3.87-.92 5l-25.2 17.43c-.61.5-1.41.81-2.28.81-1.99 0-3.61-1.61-3.61-3.61v-35.33c.01 0 .55-1.9.66-2.06a3.602 3.602 0 0 1 5.01-.88zm55.92 86.59v-22.58h-43.63v22.58h43.63zm-50.84 0v-22.58h-44.43v22.58h44.43zm-51.65-22.58h-41.4v14.83c0 4.26 3.49 7.75 7.74 7.75h33.66v-22.58zm102.49-86.97V55.72h-43.63v21.73l43.63.02zm7.21-21.75v21.73h40.24V63.46c0-4.25-3.49-7.74-7.75-7.74h-32.49zm-58.05 21.75V55.72h-44.43v21.73l44.43.02zm-51.65 0V55.72h-33.66c-4.25 0-7.74 3.49-7.74 7.74v13.99l41.4.02zm86.02 182.97h29.41c6.64 0 6.64 10.04 0 10.04h-29.41c-6.64 0-6.66-10.04 0-10.04z"/></svg>