<svg id="Layer_1" data-name="Layer 1" xmlns="http://www.w3.org/2000/svg" viewBox="0 0 122.88 91.43"><defs><style>.cls-1{fill:#303030;}.cls-2{fill:#f00001;}</style></defs><title>last-minute</title><path class="cls-1" d="M61.44,5.78A42.83,42.83,0,0,1,94,76.42l5.37,7.08a3.88,3.88,0,1,1-6.19,4.69L88.4,81.88a42.82,42.82,0,0,1-54.16-.2L29.3,88.19a3.89,3.89,0,0,1-6.2-4.69l5.56-7.33A42.83,42.83,0,0,1,61.44,5.78ZM46.06,64.45H43.37l-.07-3L43.13,59H43l-1.59,4.54h-2.3L37.75,59h-.18l-.22,2.19-.15,3.28H34.66l1-9.86h3.52l.29,1.4.87,3.58h.18l1-3.47.35-1.51h3.47l.8,9.86Zm4.34-3.2.12,3.2H47.46l.15-2.9-.15-7h3.11l-.17,6.66Zm10.86,0,.13,3.22H58.06l-2.77-5.27h-.18l0,1.7.12,3.57H52.44l.15-2.9-.15-7h3.32l2.78,5.27h.18l-.09-5.16,2.8-.17-.17,6.7Zm10.23-1.64,0,1.57a3.16,3.16,0,0,1-1.12,2.57,5,5,0,0,1-3.19.9,4.57,4.57,0,0,1-3-.9,3.07,3.07,0,0,1-1-2.57l0-1.57-.09-5h3.06L66,60.75a1.6,1.6,0,0,0,.3,1.12,1.28,1.28,0,0,0,1,.35,1.32,1.32,0,0,0,1-.35,1.6,1.6,0,0,0,.3-1.12l-.13-6.16H71.6l-.11,5Zm8.62-4.79L80,57l-2-.09h-.19l-.07,4.31.12,3.2h-3l.15-2.9-.07-4.61h-.2l-2,.09-.18-.22.17-2.22H80l.16.21ZM88,62l.16.21-.18,2.23H81l.16-2.9-.16-7h7.07l.17.21L88,57l-2.42-.09H84l0,1.38h1.51l1.58,0,.17.21-.18,2.22-1.77,0H83.94l0,.58,0,.85h1.47L88,62Zm20.81-.44a1.43,1.43,0,0,1-2.28,0,2.24,2.24,0,0,1,0-2.75,13,13,0,0,0,3.05-7.14,13.33,13.33,0,0,0-1.8-7.6,2.22,2.22,0,0,1,.45-2.7,1.46,1.46,0,0,1,2.24.53,17.68,17.68,0,0,1,2.33,10.12,17.19,17.19,0,0,1-4,9.5Zm7.07,7a1.43,1.43,0,0,1-2.28-.08,2.22,2.22,0,0,1,.09-2.75c3.61-4.09,5.66-8.52,6-13.12s-1-9.22-4.15-14a2.26,2.26,0,0,1,.29-2.74,1.45,1.45,0,0,1,2.27.33c3.63,5.63,5.17,11.28,4.81,16.73a26.17,26.17,0,0,1-7,15.67ZM16.42,58.86a2.24,2.24,0,0,1,0,2.75,1.43,1.43,0,0,1-2.28,0,17.19,17.19,0,0,1-4-9.5A17.68,17.68,0,0,1,12.48,42a1.46,1.46,0,0,1,2.24-.53,2.22,2.22,0,0,1,.45,2.7,13.33,13.33,0,0,0-1.8,7.6,13,13,0,0,0,3.05,7.14ZM9.24,65.72a2.22,2.22,0,0,1,.09,2.75,1.43,1.43,0,0,1-2.28.08,26.17,26.17,0,0,1-7-15.67c-.36-5.45,1.18-11.1,4.81-16.73a1.45,1.45,0,0,1,2.27-.33,2.26,2.26,0,0,1,.29,2.74C4.31,43.38,3,48.12,3.27,52.6s2.36,9,6,13.12ZM78,82.52l-2.18-3.8,4.5-2.59,2.18,3.79a37.77,37.77,0,0,0,5.61-4.62,38.82,38.82,0,0,0,4.62-5.61L89,67.49l.48-.82a2.68,2.68,0,0,0,1.17-2v0l1-1.66,3.79,2.19a37.55,37.55,0,0,0,3.74-14H94.72V46H99.1a37.42,37.42,0,0,0-3.75-14l-3.44,2v-1.2a2.68,2.68,0,0,0-2.69-2.69h0L89,29.7l3.78-2.18a38.2,38.2,0,0,0-4.62-5.6,37.22,37.22,0,0,0-5.61-4.63l-2.19,3.79-4.51-2.6L78,14.69A37.41,37.41,0,0,0,64,11v4.37h-5.2V11a37.55,37.55,0,0,0-14,3.74l2.2,3.79-4.51,2.6-2.19-3.79a37.22,37.22,0,0,0-5.61,4.63,38.2,38.2,0,0,0-4.62,5.6l3.79,2.2-.23.4h0A2.68,2.68,0,0,0,31,32.81V34l-3.45-2a37.55,37.55,0,0,0-3.74,14h4.38V51.2H23.78a37.6,37.6,0,0,0,3.74,14L31.32,63,32,64.16a2.64,2.64,0,0,0,0,.29,2.69,2.69,0,0,0,1.6,2.45l.34.6-3.79,2.18a39.09,39.09,0,0,0,4.63,5.62,37.77,37.77,0,0,0,5.61,4.62l2.19-3.8,4.5,2.61-2.19,3.79a37.55,37.55,0,0,0,14,3.74V81.89H64v4.37a37.55,37.55,0,0,0,14-3.74Z"/><path class="cls-2" d="M26.88,17.28A57,57,0,0,1,35.33,10a55.89,55.89,0,0,1,8.18-4.78C24.84-9.7,4,10,15.93,31.67q.2.57.42,1.11A57.42,57.42,0,0,1,20.3,25.6a56.62,56.62,0,0,1,6.58-8.32Z"/><path class="cls-2" d="M96,17.28A57.6,57.6,0,0,0,87.55,10a55.89,55.89,0,0,0-8.18-4.78C98-9.7,118.84,10,107,31.67q-.2.57-.42,1.11A56.87,56.87,0,0,0,96,17.28Z"/><path class="cls-2" d="M44.64,49.17h-11V32.81h5.66V44.55h5.32v4.62Zm.89,0,3.61-16.36h8.57L61.4,49.17H55.69l-.47-1.88H51.49l-.39,1.88Zm7.62-11.92L51.68,43h3.49l-1.41-5.71Zm22.08.27c-.73-.08-3-.32-4.78-.38-1,0-2.33-.35-2.33.83,0,1.51,2.8.61,4.7,1.2a5.71,5.71,0,0,1,1.78.93,2.75,2.75,0,0,1,1.05,1.46,8.5,8.5,0,0,1,.26,2.33c0,2-.54,3.46-1.61,4.32a7.64,7.64,0,0,1-4.86,1.3,27.09,27.09,0,0,1-3.28-.22,26.61,26.61,0,0,1-2.65-.44l-1-.22.25-4.32c2.49.35,4.54.38,6.13.53,1.13.11,1.21-.28,1.22-.65,0-1-.7-.91-1.5-1-1.89-.12-3.36.22-5-1.27a4.84,4.84,0,0,1-1.24-3.72q0-3.3,1.59-4.52a8,8,0,0,1,4.88-1.22,37.67,37.67,0,0,1,5.45.46l1,.17-.14,4.4Zm1.79-.1V32.81h12.2v4.61H86.05V49.17H80.39V37.42Z"/></svg>