<?xml version="1.0" encoding="utf-8"?><svg version="1.1" id="Layer_1" xmlns="http://www.w3.org/2000/svg" xmlns:xlink="http://www.w3.org/1999/xlink" x="0px" y="0px" viewBox="0 0 122.88 114.33" style="enable-background:new 0 0 122.88 114.33" xml:space="preserve"><g><path d="M9.56,0.75h103.76c0.81,0,1.58,0.19,2.26,0.54l0.12-0.12c1.7-1.62,4.39-1.55,6,0.15c1.62,1.7,1.55,4.39-0.15,6l-3.21,3.06 V107l0,0c1.7,1.62,1.77,4.3,0.15,6c-1.46,1.54-3.8,1.74-5.49,0.57H9.87c-1.69,1.17-4.03,0.97-5.49-0.57c-1.62-1.7-1.55-4.39,0.15-6 l0,0V10.38L1.32,7.32c-1.7-1.62-1.77-4.3-0.15-6c1.62-1.7,4.3-1.77,6-0.15L7.3,1.29C7.98,0.94,8.74,0.75,9.56,0.75L9.56,0.75z M102.37,103.52L61.44,64.55l-40.93,38.96H102.37L102.37,103.52z M55.28,58.69L14.59,19.95v77.48L55.28,58.69L55.28,58.69z M17.3,10.81l44.14,42.02l44.14-42.02H17.3L17.3,10.81z M67.6,58.69l40.69,38.74V19.95L67.6,58.69L67.6,58.69z"/></g></svg>