<?xml version="1.0" encoding="utf-8"?><svg version="1.1" id="Layer_1" xmlns="http://www.w3.org/2000/svg" xmlns:xlink="http://www.w3.org/1999/xlink" x="0px" y="0px" viewBox="0 0 122.88 120.11" style="enable-background:new 0 0 122.88 120.11" xml:space="preserve"><g><path d="M0,48.16c0-13.3,5.39-25.34,14.11-34.06C22.82,5.39,34.86,0,48.16,0c13.3,0,25.34,5.39,34.06,14.11 c8.72,8.72,14.11,20.76,14.11,34.06c0,13.3-5.39,25.34-14.11,34.06c-8.72,8.72-20.76,14.11-34.06,14.11 c-13.3,0-25.34-5.39-34.06-14.11C5.39,73.5,0,61.46,0,48.16L0,48.16z M66.7,118.89c-1.63,1.63-4.28,1.63-5.92,0 c-1.63-1.63-1.63-4.28,0-5.92l54.96-54.96c1.63-1.63,4.28-1.63,5.92,0c1.63,1.63,1.63,4.28,0,5.92L66.7,118.89L66.7,118.89z M21.39,21.39C14.54,28.24,10.3,37.71,10.3,48.16c0,10.46,4.24,19.92,11.09,26.77c6.85,6.85,16.32,11.09,26.77,11.09 c10.46,0,19.92-4.24,26.77-11.09c6.85-6.85,11.09-16.32,11.09-26.77c0-10.46-4.24-19.92-11.09-26.77 C68.09,14.54,58.62,10.3,48.16,10.3C37.71,10.3,28.24,14.54,21.39,21.39L21.39,21.39z"/></g></svg>