<?xml version="1.0" encoding="utf-8"?><svg version="1.1" id="Layer_1" xmlns="http://www.w3.org/2000/svg" xmlns:xlink="http://www.w3.org/1999/xlink" x="0px" y="0px" viewBox="0 0 122.88 114.33" style="enable-background:new 0 0 122.88 114.33" xml:space="preserve"><g><path d="M61.44,10.24c12.24,0,23.39,4.69,31.75,12.37l22.52-21.44c1.7-1.62,4.39-1.55,6,0.15c1.62,1.7,1.55,4.39-0.15,6L98.9,28.89 c5.94,7.86,9.47,17.66,9.47,28.27c0,11.41-4.08,21.87-10.85,30.01l20.83,19.83c1.7,1.62,1.77,4.3,0.15,6c-1.62,1.7-4.3,1.77-6,0.15 L91.52,93.18c-8.15,6.81-18.63,10.91-30.08,10.91c-11.44,0-21.93-4.1-30.08-10.91l-20.98,19.97c-1.7,1.62-4.39,1.55-6-0.15 c-1.62-1.7-1.55-4.39,0.15-6l20.83-19.83c-6.77-8.13-10.85-18.6-10.85-30.01c0-10.61,3.53-20.41,9.47-28.27L1.32,7.32 c-1.7-1.62-1.77-4.3-0.15-6c1.62-1.7,4.3-1.77,6-0.15l22.52,21.44C38.05,14.93,49.2,10.24,61.44,10.24L61.44,10.24z"/></g></svg>