<?xml version="1.0" encoding="utf-8"?><svg version="1.1" id="Layer_1" xmlns="http://www.w3.org/2000/svg" xmlns:xlink="http://www.w3.org/1999/xlink" x="0px" y="0px" viewBox="0 0 122.88 121.8" style="enable-background:new 0 0 122.88 121.8" xml:space="preserve"><g><path d="M5.43,0h112.02c3,0,5.43,2.43,5.43,5.43v110.94c0,3-2.43,5.43-5.43,5.43H5.43c-3,0-5.43-2.43-5.43-5.43V5.43 C0,2.43,2.43,0,5.43,0L5.43,0z M16.74,10.86c9.29,6.54,22.13,12.11,36.51,13.88c16.68,2.05,35.38-1.08,52.91-13.88H16.74 L16.74,10.86z M112.02,14.2C92.43,29.47,71.29,33.22,52.5,30.9c-16.62-2.05-31.42-8.89-41.64-16.7v96.73h101.16V14.2L112.02,14.2z"/></g></svg>