<?xml version="1.0" encoding="utf-8"?><svg version="1.1" id="Layer_1" xmlns="http://www.w3.org/2000/svg" xmlns:xlink="http://www.w3.org/1999/xlink" x="0px" y="0px" viewBox="0 0 122.88 121.8" style="enable-background:new 0 0 122.88 121.8" xml:space="preserve"><g><path d="M5.43,0h112.02c3,0,5.43,2.43,5.43,5.43v110.94c0,3-2.43,5.43-5.43,5.43H5.43c-3,0-5.43-2.43-5.43-5.43V5.43 C0,2.43,2.43,0,5.43,0L5.43,0z M16.64,10.86c2.61,1.84,5.5,3.6,8.62,5.22l5.22-5.22H16.64L16.64,10.86z M31.23,18.88 c3.82,1.61,7.91,2.99,12.19,4.06L55.5,10.86H39.25L31.23,18.88L31.23,18.88z M50.73,24.41c0.8,0.12,1.6,0.24,2.41,0.34 c16.68,2.05,35.38-1.08,52.91-13.88H64.28L50.73,24.41L50.73,24.41z M112.02,14.12C92.4,29.46,71.21,33.22,52.39,30.9 c-2.37-0.29-4.71-0.68-7-1.16L10.86,64.28v46.66h101.16V14.12L112.02,14.12z M38.38,27.98c-4.16-1.23-8.12-2.72-11.84-4.41 L10.86,39.25V55.5L38.38,27.98L38.38,27.98z M20.7,20.64c-3.61-1.98-6.91-4.13-9.84-6.35v16.19L20.7,20.64L20.7,20.64z"/></g></svg>