<?xml version="1.0" encoding="utf-8"?><svg version="1.1" id="Layer_1" xmlns="http://www.w3.org/2000/svg" xmlns:xlink="http://www.w3.org/1999/xlink" x="0px" y="0px" viewBox="0 0 122.88 120.11" style="enable-background:new 0 0 122.88 120.11" xml:space="preserve"><g><path d="M122.88,71.95c0,13.3-5.39,25.34-14.11,34.06c-8.72,8.72-20.76,14.11-34.06,14.11c-13.3,0-25.34-5.39-34.06-14.11 c-8.72-8.72-14.11-20.76-14.11-34.06c0-13.3,5.39-25.34,14.11-34.06s20.76-14.11,34.06-14.11c13.3,0,25.34,5.39,34.06,14.11 C117.49,46.61,122.88,58.65,122.88,71.95L122.88,71.95z M56.18,1.22c1.63-1.63,4.28-1.63,5.92,0c1.63,1.63,1.63,4.28,0,5.92 L7.14,62.1c-1.63,1.63-4.28,1.63-5.92,0c-1.63-1.63-1.63-4.28,0-5.92L56.18,1.22L56.18,1.22z M101.49,98.72 c6.85-6.85,11.09-16.32,11.09-26.77s-4.24-19.92-11.09-26.77c-6.85-6.85-16.32-11.09-26.77-11.09c-10.46,0-19.92,4.24-26.77,11.09 c-6.85,6.85-11.09,16.32-11.09,26.77s4.24,19.92,11.09,26.77c6.85,6.85,16.32,11.09,26.77,11.09 C85.17,109.81,94.64,105.57,101.49,98.72L101.49,98.72z"/></g></svg>