<?xml version="1.0" encoding="utf-8"?><svg version="1.1" id="Layer_1" xmlns="http://www.w3.org/2000/svg" xmlns:xlink="http://www.w3.org/1999/xlink" x="0px" y="0px" viewBox="0 0 120.11 122.88" style="enable-background:new 0 0 120.11 122.88" xml:space="preserve"><g><path d="M71.95,0C85.25,0,97.29,5.39,106,14.11c8.72,8.72,14.11,20.76,14.11,34.06c0,13.3-5.39,25.34-14.11,34.06 c-8.72,8.72-20.76,14.11-34.06,14.11c-13.3,0-25.34-5.39-34.06-14.11S23.78,61.46,23.78,48.16c0-13.3,5.39-25.34,14.11-34.06 S58.65,0,71.95,0L71.95,0z M1.22,66.7c-1.63-1.63-1.63-4.28,0-5.92c1.63-1.63,4.28-1.63,5.92,0l54.96,54.96 c1.63,1.63,1.63,4.28,0,5.92c-1.63,1.63-4.28,1.63-5.92,0L1.22,66.7L1.22,66.7z M98.72,21.39C91.87,14.54,82.4,10.3,71.95,10.3 c-10.46,0-19.92,4.24-26.77,11.09c-6.85,6.85-11.09,16.32-11.09,26.77c0,10.46,4.24,19.92,11.09,26.77 c6.85,6.85,16.32,11.09,26.77,11.09c10.46,0,19.92-4.24,26.77-11.09c6.85-6.85,11.09-16.32,11.09-26.77 C109.81,37.71,105.57,28.24,98.72,21.39L98.72,21.39z"/></g></svg>