<?xml version="1.0" encoding="utf-8"?><svg version="1.1" id="Layer_1" xmlns="http://www.w3.org/2000/svg" xmlns:xlink="http://www.w3.org/1999/xlink" x="0px" y="0px" viewBox="0 0 120.11 122.88" style="enable-background:new 0 0 120.11 122.88" xml:space="preserve"><g><path d="M48.16,122.88c-13.3,0-25.34-5.39-34.06-14.11C5.39,100.06,0,88.02,0,74.72c0-13.3,5.39-25.34,14.11-34.06 c8.72-8.72,20.76-14.11,34.06-14.11c13.3,0,25.34,5.39,34.06,14.11c8.72,8.72,14.11,20.76,14.11,34.06 c0,13.3-5.39,25.34-14.11,34.06C73.5,117.49,61.46,122.88,48.16,122.88L48.16,122.88z M118.89,56.18c1.63,1.63,1.63,4.28,0,5.92 c-1.63,1.63-4.28,1.63-5.92,0L58.01,7.14c-1.63-1.63-1.63-4.28,0-5.92c1.63-1.63,4.28-1.63,5.92,0L118.89,56.18L118.89,56.18z M21.39,101.49c6.85,6.85,16.32,11.09,26.77,11.09s19.92-4.24,26.77-11.09c6.85-6.85,11.09-16.32,11.09-26.77 c0-10.46-4.24-19.92-11.09-26.77c-6.85-6.85-16.32-11.09-26.77-11.09s-19.92,4.24-26.77,11.09C14.54,54.79,10.3,64.26,10.3,74.72 C10.3,85.17,14.54,94.64,21.39,101.49L21.39,101.49z"/></g></svg>