<?xml version="1.0" encoding="utf-8"?><svg version="1.1" id="Layer_1" xmlns="http://www.w3.org/2000/svg" xmlns:xlink="http://www.w3.org/1999/xlink" x="0px" y="0px" viewBox="0 0 92.75 122.88" style="enable-background:new 0 0 92.75 122.88" xml:space="preserve"><g><path d="M46.37,0c12.8,0,24.4,5.19,32.79,13.58c8.39,8.39,13.58,19.99,13.58,32.79s-5.19,24.4-13.58,32.79 c-8.39,8.39-19.99,13.58-32.79,13.58s-24.4-5.19-32.79-13.58C5.19,70.77,0,59.18,0,46.37s5.19-24.4,13.58-32.79 C21.98,5.19,33.57,0,46.37,0L46.37,0z M34.67,63.4V29.34H45.7c4.18,0,6.9,0.17,8.17,0.51c1.95,0.52,3.58,1.63,4.9,3.34 c1.32,1.71,1.97,3.92,1.97,6.64c0,2.09-0.38,3.85-1.13,5.27c-0.76,1.43-1.72,2.54-2.89,3.36c-1.17,0.81-2.36,1.35-3.56,1.61 c-1.64,0.33-4.01,0.49-7.12,0.49h-4.47V63.4H34.67L34.67,63.4z M41.57,35.1v9.71h3.75c2.7,0,4.5-0.18,5.42-0.54 c0.91-0.36,1.63-0.91,2.14-1.68c0.52-0.76,0.78-1.64,0.78-2.66c0-1.24-0.36-2.27-1.09-3.08c-0.73-0.81-1.64-1.32-2.76-1.52 c-0.82-0.15-2.46-0.23-4.93-0.23H41.57L41.57,35.1z M4.99,122.88c-2.04,0-3.7-1.66-3.7-3.7c0-2.04,1.66-3.7,3.7-3.7h82.77 c2.04,0,3.7,1.66,3.7,3.7c0,2.05-1.66,3.7-3.7,3.7H4.99L4.99,122.88z M4.99,106.72c-2.04,0-3.7-1.66-3.7-3.7 c0-2.04,1.66-3.7,3.7-3.7h82.77c2.04,0,3.7,1.66,3.7,3.7c0,2.04-1.66,3.7-3.7,3.7H4.99L4.99,106.72z M72.15,20.59 C65.56,14,56.44,9.92,46.37,9.92c-10.07,0-19.18,4.08-25.78,10.68C14,27.19,9.92,36.31,9.92,46.37c0,10.07,4.08,19.18,10.68,25.78 c6.6,6.6,15.71,10.68,25.78,10.68s19.18-4.08,25.78-10.68c6.6-6.6,10.68-15.71,10.68-25.78C82.83,36.31,78.75,27.19,72.15,20.59 L72.15,20.59z"/></g></svg>