<?xml version="1.0" encoding="utf-8"?><svg version="1.1" id="Layer_1" xmlns="http://www.w3.org/2000/svg" xmlns:xlink="http://www.w3.org/1999/xlink" x="0px" y="0px" viewBox="0 0 122.88 105.63" style="enable-background:new 0 0 122.88 105.63" xml:space="preserve"><g><path d="M65.45,2.3l56.86,96.81c1.17,1.99,0.5,4.55-1.49,5.71c-0.66,0.39-1.39,0.57-2.11,0.57v0.02H62.28 c-0.85,0.28-1.79,0.3-2.66,0H33.58c-0.4,0.06-0.82,0.06-1.23,0H4.19c-2.31,0-4.19-1.88-4.19-4.19c0-0.87,0.27-1.68,0.72-2.35 L58.11,2.05c1.17-1.99,3.74-2.65,5.73-1.47C64.55,1.01,65.1,1.61,65.45,2.3L65.45,2.3z M58.75,97.04l26.81-44.01l-8.98-15.3 L40.45,97.04H58.75L58.75,97.04z M90.36,61.2L68.53,97.04h42.87L90.36,61.2L90.36,61.2z M30.66,97.04l41.11-67.49L61.7,12.4 L11.53,97.04H30.66L30.66,97.04z"/></g></svg>