<?xml version="1.0" encoding="utf-8"?><svg version="1.1" id="Layer_1" xmlns="http://www.w3.org/2000/svg" xmlns:xlink="http://www.w3.org/1999/xlink" x="0px" y="0px" viewBox="0 0 122.88 90.65" style="enable-background:new 0 0 122.88 90.65" xml:space="preserve"><style type="text/css">.st0{fill-rule:evenodd;clip-rule:evenodd;}</style><g><path class="st0" d="M42.55,55.42c4.03,0,7.29,3.26,7.29,7.29c0,4.03-3.26,7.29-7.29,7.29c-4.03,0-7.29-3.26-7.29-7.29 C35.26,58.69,38.52,55.42,42.55,55.42L42.55,55.42z M31.59,7.92c-2.19,0-3.96-1.77-3.96-3.96c0-2.19,1.77-3.96,3.96-3.96h73.45 c2.05,0,3.74,1.56,3.94,3.56l13.85,82.49c0.36,2.15-1.1,4.19-3.25,4.55c-0.22,0.04-0.43,0.05-0.65,0.05L3.96,90.65 C1.77,90.65,0,88.88,0,86.69c0-0.38,0.05-0.75,0.16-1.1c1.93-9.12,4.66-17.41,8.42-24.62c3.89-7.44,8.87-13.71,15.18-18.53 c13.22-10.09,23.71-10,37.74-9.87c0.65,0.01,1.25,0.01,4.7,0.01h39.66L101.7,7.92H31.59L31.59,7.92z M114.26,82.73l-7.09-42.23 H66.18l-4.76-0.04c-12.47-0.11-21.8-0.19-32.88,8.26c-5.37,4.1-9.62,9.48-12.98,15.9c-2.79,5.34-4.97,11.42-6.65,18.11H114.26 L114.26,82.73z M90.7,55.42c4.03,0,7.29,3.26,7.29,7.29c0,4.03-3.26,7.29-7.29,7.29c-4.03,0-7.29-3.26-7.29-7.29 C83.41,58.69,86.67,55.42,90.7,55.42L90.7,55.42z M66.62,55.42c4.03,0,7.29,3.26,7.29,7.29c0,4.03-3.26,7.29-7.29,7.29 c-4.03,0-7.29-3.26-7.29-7.29C59.33,58.69,62.6,55.42,66.62,55.42L66.62,55.42z"/></g></svg>