<?xml version="1.0" encoding="utf-8"?>
<!-- Generator: Adobe Illustrator 24.2.1, SVG Export Plug-In . SVG Version: 6.00 Build 0)  -->
<svg version="1.1" id="Layer_1" xmlns="http://www.w3.org/2000/svg" xmlns:xlink="http://www.w3.org/1999/xlink" x="0px" y="0px"
	 viewBox="0 0 122.88 105.41" style="enable-background:new 0 0 122.88 105.41;" xml:space="preserve">
<g>
	<path d="M65.45,2.3l56.86,96.81c1.17,1.99,0.5,4.55-1.49,5.71c-0.66,0.39-1.39,0.57-2.11,0.57v0.02H4.19
		c-2.31,0-4.19-1.88-4.19-4.19c0-0.87,0.27-1.68,0.72-2.35L58.11,2.05c1.17-1.99,3.74-2.65,5.73-1.47
		C64.55,1.01,65.1,1.61,65.45,2.3L65.45,2.3z M54.69,73.4l7.36,2.22c-0.49,2.06-1.27,3.79-2.34,5.16c-1.06,1.38-2.38,2.43-3.96,3.13
		c-1.57,0.7-3.58,1.06-6.01,1.06c-2.96,0-5.37-0.43-7.24-1.28c-1.87-0.86-3.48-2.37-4.84-4.52c-1.36-2.16-2.04-4.92-2.04-8.29
		c0-4.49,1.19-7.94,3.58-10.35c2.4-2.41,5.78-3.62,10.15-3.62c3.42,0,6.11,0.69,8.07,2.07c1.95,1.38,3.41,3.51,4.36,6.38l-7.4,1.64
		c-0.26-0.82-0.53-1.42-0.81-1.8c-0.47-0.64-1.05-1.13-1.73-1.47c-0.68-0.35-1.44-0.52-2.28-0.52c-1.91,0-3.37,0.76-4.38,2.29
		c-0.77,1.13-1.15,2.91-1.15,5.33c0,3.01,0.45,5.06,1.37,6.18c0.92,1.11,2.2,1.67,3.86,1.67c1.61,0,2.82-0.45,3.64-1.35
		C53.72,76.42,54.32,75.11,54.69,73.4L54.69,73.4z M65.78,57.36h8.38v20.48h13.12v6.67h-21.5V57.36L65.78,57.36z M111.41,97.04
		L61.7,12.4L11.53,97.04H111.41L111.41,97.04z"/>
</g>
</svg>
