<?xml version="1.0" encoding="utf-8"?><svg version="1.1" id="Layer_1" xmlns="http://www.w3.org/2000/svg" xmlns:xlink="http://www.w3.org/1999/xlink" x="0px" y="0px" viewBox="0 0 122.88 121.8" style="enable-background:new 0 0 122.88 121.8" xml:space="preserve"><g><path d="M5.43,0h112.02c3,0,5.43,2.43,5.43,5.43v110.94c0,3-2.43,5.43-5.43,5.43H5.43c-3,0-5.43-2.43-5.43-5.43V5.43 C0,2.43,2.43,0,5.43,0L5.43,0z M10.86,30.68l19.82-19.82H10.86V30.68L10.86,30.68z M39.45,10.86L10.86,39.45v16.3l21.63-21.63 v-9.09h6.21v2.88l17.05-17.05H39.45L39.45,10.86z M64.53,10.86L38.7,36.69v58.28h-6.21V42.89L10.86,64.53v46.42h101.16V10.86H64.53 L64.53,10.86z M90.1,25.03v69.94H83.9V25.03H90.1L90.1,25.03z M64.4,25.03v69.94h-6.21V25.03H64.4L64.4,25.03z"/></g></svg>