<?xml version="1.0" encoding="utf-8"?><svg version="1.1" id="Layer_1" xmlns="http://www.w3.org/2000/svg" xmlns:xlink="http://www.w3.org/1999/xlink" x="0px" y="0px" viewBox="0 0 122.88 90.65" style="enable-background:new 0 0 122.88 90.65" xml:space="preserve"><g><path d="M31.59,7.92c-2.19,0-3.96-1.77-3.96-3.96c0-2.19,1.77-3.96,3.96-3.96h73.45c2.05,0,3.74,1.56,3.94,3.56l13.85,82.48 c0.36,2.15-1.1,4.19-3.25,4.55c-0.22,0.04-0.44,0.05-0.65,0.05v0.01H3.96C1.77,90.65,0,88.88,0,86.69c0-0.38,0.05-0.75,0.16-1.1 c1.93-9.12,4.66-17.41,8.42-24.61c3.89-7.45,8.87-13.71,15.18-18.53c13.22-10.09,23.71-10,37.74-9.87c0.66,0.01,1.32,0.01,4.7,0.01 h39.66L101.7,7.92H31.59L31.59,7.92z M114.26,82.73l-7.09-42.23H66.18l-4.76-0.04c-12.47-0.11-21.8-0.19-32.88,8.26 c-5.37,4.1-9.62,9.48-12.98,15.9c-2.79,5.34-4.97,11.42-6.65,18.11H114.26L114.26,82.73z"/></g></svg>