<?xml version="1.0" encoding="utf-8"?><svg version="1.1" id="Layer_1" xmlns="http://www.w3.org/2000/svg" xmlns:xlink="http://www.w3.org/1999/xlink" x="0px" y="0px" viewBox="0 0 122.88 105.82" style="enable-background:new 0 0 122.88 105.82" xml:space="preserve"><style type="text/css"><![CDATA[
	.st0{fill:#E6E6E6;}
	.st1{fill-rule:evenodd;clip-rule:evenodd;fill:#FF0000;}
	.st2{fill-rule:evenodd;clip-rule:evenodd;fill:#393939;}
]]></style><g><path class="st1" d="M9.14,0h104.6c2.51,0,4.8,1.03,6.45,2.68c1.66,1.66,2.69,3.94,2.69,6.45v66.08c0,2.51-1.03,4.8-2.69,6.45 c-1.65,1.66-3.94,2.68-6.45,2.68H9.14c-2.51,0-4.8-1.03-6.45-2.68C1.03,80.01,0,77.73,0,75.21V9.14c0-2.51,1.03-4.8,2.68-6.45 C4.34,1.03,6.62,0,9.14,0L9.14,0z M88.51,10.77h4.23c1.34,0,2.35,0.1,3.04,0.31c0.69,0.21,1.24,0.63,1.67,1.26 c0.42,0.64,0.63,1.66,0.63,3.07c0,0.95-0.15,1.62-0.45,1.99c-0.3,0.38-0.89,0.66-1.77,0.87c0.98,0.22,1.65,0.59,2,1.11 c0.35,0.52,0.53,1.3,0.53,2.37v1.51c0,1.1-0.13,1.92-0.38,2.45c-0.25,0.53-0.65,0.9-1.2,1.09s-1.68,0.29-3.39,0.29h-4.91V10.77 L88.51,10.77L88.51,10.77z M24.92,15.72h-3.95v-1.21c0-0.56-0.05-0.93-0.15-1.08s-0.26-0.23-0.5-0.23c-0.25,0-0.45,0.1-0.58,0.31 c-0.13,0.21-0.2,0.52-0.2,0.94c0,0.54,0.08,0.95,0.22,1.23c0.14,0.27,0.54,0.61,1.2,1c1.88,1.13,3.07,2.05,3.56,2.77 c0.49,0.72,0.74,1.88,0.74,3.48c0,1.16-0.14,2.02-0.41,2.58c-0.27,0.55-0.8,1.01-1.58,1.38c-0.78,0.38-1.68,0.56-2.72,0.56 c-1.14,0-2.1-0.22-2.91-0.65c-0.8-0.43-1.33-0.98-1.58-1.64c-0.25-0.67-0.37-1.61-0.37-2.84v-1.07h3.95v1.99 c0,0.61,0.06,1,0.17,1.18c0.11,0.18,0.31,0.26,0.59,0.26s0.49-0.11,0.63-0.33c0.14-0.22,0.21-0.55,0.21-0.98 c0-0.96-0.13-1.59-0.39-1.88c-0.27-0.3-0.93-0.79-1.99-1.49c-1.05-0.7-1.75-1.21-2.09-1.53c-0.34-0.32-0.63-0.75-0.85-1.31 c-0.22-0.56-0.34-1.27-0.34-2.14c0-1.25,0.16-2.17,0.48-2.74c0.32-0.58,0.83-1.03,1.55-1.36c0.71-0.33,1.57-0.49,2.58-0.49 c1.1,0,2.04,0.18,2.82,0.53c0.77,0.36,1.29,0.81,1.54,1.35c0.25,0.54,0.38,1.46,0.38,2.76L24.92,15.72L24.92,15.72L24.92,15.72z M36.27,10.77v10.92c0,1.24-0.04,2.11-0.12,2.61c-0.08,0.5-0.32,1.02-0.72,1.55c-0.4,0.53-0.92,0.93-1.57,1.2 c-0.65,0.27-1.42,0.41-2.3,0.41c-0.97,0-1.83-0.16-2.58-0.49c-0.75-0.32-1.3-0.74-1.67-1.26c-0.37-0.52-0.59-1.07-0.66-1.64 c-0.07-0.58-0.1-1.79-0.1-3.63v-9.67l4.26,0v12.26c0,0.71,0.04,1.17,0.11,1.37c0.08,0.2,0.23,0.3,0.46,0.3 c0.26,0,0.43-0.11,0.51-0.33c0.08-0.22,0.11-0.74,0.11-1.55V10.77H36.27L36.27,10.77L36.27,10.77z M37.91,10.77h4.23 c1.34,0,2.35,0.1,3.04,0.31c0.69,0.21,1.24,0.63,1.67,1.26c0.42,0.64,0.63,1.66,0.63,3.07c0,0.95-0.15,1.62-0.45,1.99 c-0.3,0.38-0.89,0.66-1.77,0.87c0.98,0.22,1.65,0.59,2,1.11c0.35,0.52,0.53,1.3,0.53,2.37v1.51c0,1.1-0.13,1.92-0.38,2.45 c-0.25,0.53-0.65,0.9-1.2,1.09s-1.68,0.29-3.39,0.29h-4.91L37.91,10.77L37.91,10.77L37.91,10.77z M42.17,13.55v3.64 c0.18-0.01,0.32-0.01,0.42-0.01c0.41,0,0.67-0.1,0.78-0.31c0.11-0.21,0.17-0.8,0.17-1.76c0-0.51-0.04-0.87-0.14-1.08 c-0.09-0.2-0.21-0.33-0.36-0.39C42.89,13.59,42.6,13.56,42.17,13.55L42.17,13.55L42.17,13.55z M42.17,19.73v4.59 c0.59-0.02,0.96-0.11,1.12-0.28c0.16-0.17,0.24-0.59,0.24-1.25v-1.53c0-0.7-0.07-1.13-0.22-1.28 C43.17,19.83,42.79,19.75,42.17,19.73L42.17,19.73L42.17,19.73z M58.31,15.72h-3.95v-1.21c0-0.56-0.05-0.93-0.15-1.08 s-0.26-0.23-0.5-0.23c-0.25,0-0.45,0.1-0.58,0.31c-0.13,0.21-0.2,0.52-0.2,0.94c0,0.54,0.08,0.95,0.22,1.23 c0.14,0.27,0.54,0.61,1.2,1c1.88,1.13,3.07,2.05,3.56,2.77c0.49,0.72,0.74,1.88,0.74,3.48c0,1.16-0.14,2.02-0.41,2.58 c-0.27,0.55-0.8,1.01-1.58,1.38c-0.78,0.38-1.68,0.56-2.72,0.56c-1.14,0-2.1-0.22-2.91-0.65c-0.8-0.43-1.33-0.98-1.58-1.64 c-0.25-0.67-0.37-1.61-0.37-2.84v-1.07h3.95v1.99c0,0.61,0.05,1,0.17,1.18c0.11,0.18,0.31,0.26,0.59,0.26 c0.28,0,0.49-0.11,0.63-0.33c0.14-0.22,0.21-0.55,0.21-0.98c0-0.96-0.13-1.59-0.39-1.88c-0.27-0.3-0.93-0.79-1.99-1.49 c-1.05-0.7-1.75-1.21-2.09-1.53c-0.34-0.32-0.63-0.75-0.85-1.31c-0.22-0.56-0.34-1.27-0.34-2.14c0-1.25,0.16-2.17,0.48-2.74 c0.32-0.58,0.83-1.03,1.55-1.36c0.71-0.33,1.57-0.49,2.58-0.49c1.1,0,2.04,0.18,2.82,0.53c0.77,0.36,1.29,0.81,1.54,1.35 c0.25,0.54,0.38,1.46,0.38,2.76V15.72L58.31,15.72L58.31,15.72z M69.92,17.89h-4.26v-2.84c0-0.83-0.04-1.34-0.13-1.55 c-0.09-0.2-0.29-0.31-0.6-0.31c-0.34,0-0.56,0.12-0.66,0.37c-0.09,0.25-0.14,0.79-0.14,1.61v7.58c0,0.8,0.05,1.31,0.14,1.56 c0.09,0.24,0.3,0.36,0.63,0.36c0.31,0,0.52-0.12,0.62-0.36c0.1-0.24,0.14-0.81,0.14-1.71v-2.06h4.26v0.64c0,1.69-0.12,2.9-0.36,3.6 c-0.24,0.71-0.77,1.33-1.58,1.86c-0.82,0.53-1.82,0.8-3.02,0.8c-1.24,0-2.27-0.22-3.08-0.67c-0.81-0.45-1.34-1.07-1.6-1.87 c-0.26-0.8-0.39-2-0.39-3.6v-4.77c0-1.18,0.04-2.06,0.12-2.65c0.08-0.59,0.32-1.16,0.72-1.7c0.4-0.54,0.95-0.97,1.66-1.29 c0.71-0.31,1.53-0.47,2.45-0.47c1.25,0,2.28,0.24,3.1,0.73c0.81,0.48,1.35,1.08,1.6,1.81c0.26,0.72,0.38,1.85,0.38,3.37V17.89 L69.92,17.89L69.92,17.89z M71.44,10.77h3.01c2,0,3.36,0.08,4.07,0.23s1.29,0.55,1.74,1.19c0.45,0.63,0.67,1.65,0.67,3.04 c0,1.27-0.16,2.12-0.47,2.56c-0.31,0.44-0.94,0.7-1.87,0.78c0.84,0.21,1.41,0.49,1.7,0.84c0.29,0.35,0.47,0.67,0.54,0.96 c0.07,0.29,0.11,1.1,0.11,2.42v4.31h-3.95v-5.44c0-0.87-0.07-1.42-0.21-1.63c-0.13-0.21-0.49-0.31-1.07-0.31v7.37h-4.25V10.77 L71.44,10.77L71.44,10.77z M75.69,13.55v3.64c0.48,0,0.81-0.07,1-0.2c0.19-0.13,0.29-0.56,0.29-1.28v-0.9 c0-0.52-0.09-0.86-0.27-1.02C76.52,13.63,76.18,13.55,75.69,13.55L75.69,13.55L75.69,13.55z M86.82,10.77V27.1h-4.26V10.77H86.82 L86.82,10.77z M99.92,10.77h7.09v3.26h-2.83v3.12h2.64v3.1h-2.64v3.59h3.12v3.26h-7.38V10.77L99.92,10.77L99.92,10.77z M92.77,19.73v4.59c0.59-0.02,0.96-0.11,1.12-0.28c0.16-0.17,0.24-0.59,0.24-1.25v-1.53c0-0.7-0.07-1.13-0.22-1.28 C93.77,19.83,93.39,19.75,92.77,19.73L92.77,19.73L92.77,19.73z M92.77,13.55v3.64c0.18-0.01,0.32-0.01,0.42-0.01 c0.41,0,0.67-0.1,0.78-0.31c0.11-0.21,0.17-0.8,0.17-1.76c0-0.51-0.04-0.87-0.14-1.08c-0.09-0.2-0.21-0.33-0.36-0.39 C93.49,13.59,93.2,13.56,92.77,13.55L92.77,13.55L92.77,13.55z M120.38,36.64H2.5v38.57c0,1.82,0.75,3.48,1.95,4.69 c1.2,1.2,2.86,1.95,4.69,1.95h104.6c1.82,0,3.48-0.75,4.69-1.95c1.21-1.2,1.95-2.86,1.95-4.69V36.64L120.38,36.64z"/><path class="st2" d="M102.95,59.23l-9.8,9.9V64.2c-6.2-1.28-11.09,0.13-14.81,4.84c0.65-9.7,7.27-14.37,14.81-14.68v-5.03 L102.95,59.23L102.95,59.23L102.95,59.23z M63.26,101.56l3.06-0.23c0.07,0.58,0.2,1.03,0.41,1.33c0.33,0.5,0.81,0.74,1.43,0.74 c0.46,0,0.81-0.13,1.06-0.38c0.25-0.25,0.38-0.55,0.38-0.88c0-0.32-0.12-0.6-0.35-0.85c-0.24-0.25-0.79-0.49-1.65-0.71 c-1.42-0.37-2.42-0.87-3.03-1.49c-0.61-0.62-0.91-1.41-0.91-2.37c0-0.63,0.15-1.22,0.47-1.78c0.31-0.56,0.78-1,1.4-1.32 c0.63-0.32,1.48-0.48,2.57-0.48c1.34,0,2.35,0.29,3.05,0.88c0.7,0.58,1.12,1.51,1.25,2.79l-3.04,0.21 c-0.08-0.56-0.25-0.96-0.51-1.21c-0.26-0.25-0.62-0.38-1.07-0.38c-0.38,0-0.66,0.09-0.85,0.28c-0.19,0.18-0.29,0.41-0.29,0.68 c0,0.19,0.08,0.37,0.23,0.53c0.15,0.16,0.51,0.31,1.08,0.45c1.41,0.36,2.42,0.72,3.03,1.09c0.61,0.37,1.05,0.82,1.33,1.36 c0.28,0.54,0.42,1.15,0.42,1.82c0,0.79-0.19,1.51-0.55,2.18c-0.37,0.66-0.89,1.17-1.55,1.51c-0.66,0.34-1.5,0.51-2.51,0.51 c-1.78,0-3.01-0.4-3.69-1.21S63.35,102.79,63.26,101.56L63.26,101.56z M74.37,93.34h3.22v4.29h3.53v-4.29h3.24v12.28h-3.24v-4.97 H77.6v4.97h-3.22V93.34L74.37,93.34z M92.94,103.59h-3.66l-0.53,2.02h-3.29l3.93-12.28h3.54l3.92,12.28h-3.38L92.94,103.59 L92.94,103.59z M92.26,100.94l-1.14-4.41l-1.14,4.41H92.26L92.26,100.94z M97.91,105.62V93.34h5.38c1,0,1.76,0.1,2.29,0.3 c0.53,0.2,0.95,0.57,1.28,1.12c0.32,0.55,0.48,1.21,0.48,1.99c0,0.68-0.13,1.27-0.37,1.76c-0.25,0.5-0.59,0.9-1.02,1.21 c-0.28,0.19-0.65,0.36-1.13,0.49c0.38,0.15,0.66,0.3,0.84,0.45c0.12,0.1,0.29,0.32,0.52,0.65c0.22,0.33,0.38,0.58,0.45,0.76 l1.57,3.55h-3.65l-1.72-3.74c-0.22-0.49-0.41-0.8-0.58-0.95c-0.23-0.19-0.5-0.28-0.79-0.28h-0.28v4.97H97.91L97.91,105.62z M101.15,98.33h1.36c0.15,0,0.43-0.06,0.86-0.17c0.21-0.05,0.39-0.18,0.52-0.39c0.14-0.21,0.21-0.45,0.21-0.71 c0-0.4-0.11-0.7-0.32-0.91c-0.21-0.21-0.62-0.32-1.21-0.32h-1.42V98.33L101.15,98.33z M109.21,93.34h8.64v2.62h-5.4v1.96h5.01v2.5 h-5.01v2.42h5.56v2.78h-8.8V93.34L109.21,93.34z M11.74,93.35h3.22v9.26h5.05v3.02h-8.27V93.35L11.74,93.35z M21.6,93.35h3.24 v12.28H21.6V93.35L21.6,93.35z M27.17,93.35h3.23v4.64l3.38-4.64h4.29l-3.81,4.61l3.99,7.67h-3.97l-2.2-5.04l-1.68,2.05v2.99h-3.23 V93.35L27.17,93.35z M39.31,93.35h8.64v2.62h-5.4v1.95h5.01v2.5h-5.01v2.42h5.56v2.78h-8.8V93.35L39.31,93.35z M30.39,49.36 c-0.1,0.14-0.18,0.32-0.22,0.54c-0.05,0.87,0,1.89,0,2.78h0c0,0.04-0.01,0.07-0.02,0.11c-0.16,0.53-0.36,1.12-0.6,1.72 c-0.24,0.6-0.53,1.22-0.87,1.79c-0.34,0.56-0.72,1.08-1.17,1.5c-0.46,0.43-0.98,0.76-1.57,0.92l-0.12,0.03v9.07l0.08,0.22 c0.2,0.25,0.4,0.46,0.61,0.64c0.21,0.19,0.42,0.33,0.65,0.44c0.23,0.11,0.47,0.19,0.74,0.25c0.27,0.05,0.57,0.08,0.91,0.08h8.09 c0.14,0,0.29,0,0.42,0.01l0.06,0c0.41,0.02,0.74,0.03,1.01-0.06c0.26-0.09,0.51-0.28,0.8-0.69l0.01-0.02 c0.1-0.14,0.19-0.3,0.27-0.46c0.08-0.17,0.14-0.34,0.19-0.53c0.04-0.15,0.08-0.3,0.1-0.46c0.03-0.17,0.05-0.33,0.07-0.49 c0.01-0.09,0.04-0.17,0.11-0.24c0.18-0.19,0.35-0.39,0.49-0.61c0.14-0.21,0.25-0.44,0.34-0.68l0.01-0.02 c0.09-0.25,0.16-0.52,0.21-0.82c0.04-0.3,0.07-0.62,0.06-0.96c-0.01-0.11,0.03-0.22,0.12-0.3c0.12-0.11,0.22-0.25,0.29-0.4 c0.08-0.17,0.14-0.35,0.17-0.55c0.04-0.22,0.04-0.47,0.03-0.72c-0.02-0.28-0.06-0.56-0.13-0.83c-0.03-0.09-0.02-0.19,0.02-0.28 c0.11-0.23,0.19-0.45,0.24-0.66c0.06-0.22,0.09-0.42,0.09-0.61c0.01-0.25-0.02-0.48-0.08-0.7c-0.06-0.23-0.16-0.43-0.28-0.62 c-0.12-0.18-0.26-0.34-0.43-0.48c-0.17-0.15-0.35-0.27-0.56-0.38l-0.03-0.01c-0.25-0.13-0.52-0.23-0.8-0.3 c-0.29-0.07-0.59-0.12-0.89-0.13l-0.03,0h-4.12v0c-0.02,0-0.04,0-0.06,0c-0.21-0.03-0.35-0.23-0.32-0.44 c0.03-0.19,0.06-0.41,0.09-0.63c0.02-0.21,0.05-0.41,0.06-0.61c0.03-0.31,0.04-0.59,0.04-0.86c0-0.27,0-0.53-0.02-0.79l0-0.01 c-0.05-0.76-0.26-1.44-0.56-2.03c-0.34-0.67-0.81-1.21-1.28-1.57c-0.16-0.12-0.32-0.23-0.48-0.31c-0.15-0.08-0.31-0.14-0.45-0.18 l-0.02,0c-0.17-0.04-0.33-0.06-0.49-0.06c-0.14,0.01-0.27,0.04-0.4,0.1h0C30.63,49.11,30.49,49.22,30.39,49.36L30.39,49.36z M23.51,57.86h-5.1c-0.12,0-0.23,0.05-0.31,0.13c-0.08,0.08-0.13,0.19-0.13,0.31v11.02c0,0.12,0.05,0.23,0.13,0.31l0,0 c0.08,0.08,0.19,0.13,0.31,0.13h5.1c0.12,0,0.23-0.05,0.31-0.13s0.13-0.19,0.13-0.31V58.3c0-0.12-0.05-0.23-0.13-0.31 S23.63,57.86,23.51,57.86L23.51,57.86z"/><path class="st0" d="M55.76,52.75c0-0.59,0.48-1.07,1.07-1.07c0.59,0,1.07,0.48,1.07,1.07v15.74c0,0.59-0.48,1.07-1.07,1.07 c-0.59,0-1.07-0.48-1.07-1.07V52.75L55.76,52.75z"/></g></svg>