<?xml version="1.0" encoding="utf-8"?><svg version="1.1" id="Layer_1" xmlns="http://www.w3.org/2000/svg" xmlns:xlink="http://www.w3.org/1999/xlink" x="0px" y="0px" viewBox="0 0 122.88 119.46" style="enable-background:new 0 0 122.88 119.46" xml:space="preserve"><style type="text/css"><![CDATA[
	.st0{fill-rule:evenodd;clip-rule:evenodd;fill:#FF0000;}
	.st1{fill-rule:evenodd;clip-rule:evenodd;fill:#393939;}
]]></style><g><path class="st0" d="M7,0h108.88c1.93,0,3.68,0.79,4.94,2.06c1.27,1.27,2.05,3.02,2.05,4.94v21.81c0,1.92-0.79,3.67-2.05,4.94 c-1.27,1.27-3.02,2.05-4.94,2.05c-45.57,0-63.32,0-108.88,0c-1.93,0-3.68-0.79-4.94-2.05C0.79,32.48,0,30.73,0,28.81V7 c0-1.93,0.79-3.68,2.05-4.94C3.32,0.79,5.07,0,7,0L7,0z M39.21,2.51V33.3h76.67c1.23,0,2.36-0.51,3.17-1.32 c0.82-0.81,1.32-1.94,1.32-3.17V7c0-1.23-0.51-2.36-1.32-3.17c-0.81-0.81-1.94-1.32-3.17-1.32H39.21L39.21,2.51z M21.21,9.46 c-0.08,0.11-0.14,0.26-0.18,0.44c-0.04,0.71,0,1.53,0,2.26h0c0,0.03,0,0.06-0.01,0.09c-0.13,0.43-0.29,0.91-0.48,1.39 c-0.2,0.49-0.43,0.99-0.71,1.45c-0.27,0.46-0.59,0.88-0.94,1.21c-0.37,0.35-0.79,0.62-1.27,0.74l-0.1,0.03v7.35l0.06,0.18 c0.16,0.2,0.33,0.38,0.49,0.52c0.17,0.15,0.34,0.27,0.53,0.36c0.18,0.09,0.38,0.16,0.6,0.2c0.22,0.04,0.46,0.06,0.74,0.06h6.56 c0.12,0,0.23,0,0.34,0.01l0.05,0c0.33,0.01,0.6,0.02,0.82-0.05c0.21-0.07,0.42-0.23,0.65-0.56l0.01-0.02 c0.08-0.12,0.15-0.24,0.22-0.38c0.06-0.13,0.11-0.28,0.16-0.43c0.03-0.12,0.06-0.24,0.08-0.38c0.02-0.14,0.04-0.27,0.05-0.4 c0-0.07,0.03-0.14,0.09-0.2c0.15-0.15,0.28-0.32,0.39-0.49c0.11-0.17,0.2-0.36,0.28-0.55l0.01-0.02c0.07-0.2,0.13-0.42,0.17-0.66 c0.04-0.24,0.05-0.5,0.05-0.78c-0.01-0.09,0.03-0.18,0.1-0.25c0.1-0.09,0.18-0.2,0.23-0.32c0.07-0.13,0.11-0.29,0.14-0.45 c0.03-0.18,0.04-0.38,0.02-0.58c-0.01-0.23-0.05-0.46-0.1-0.68c-0.02-0.07-0.02-0.15,0.02-0.22c0.09-0.18,0.15-0.36,0.2-0.53 c0.05-0.17,0.07-0.34,0.08-0.5c0.01-0.2-0.01-0.39-0.06-0.57c-0.05-0.18-0.13-0.35-0.23-0.5c-0.09-0.14-0.21-0.28-0.34-0.39 c-0.14-0.12-0.29-0.22-0.45-0.31l-0.02-0.01c-0.2-0.1-0.42-0.19-0.65-0.25c-0.23-0.06-0.48-0.1-0.72-0.11l-0.03,0h-3.34v0 c-0.02,0-0.03,0-0.05,0c-0.17-0.03-0.29-0.19-0.26-0.36c0.02-0.16,0.05-0.33,0.07-0.51c0.02-0.17,0.04-0.33,0.05-0.49 c0.02-0.25,0.03-0.48,0.04-0.7c0-0.22,0-0.43-0.02-0.65l0-0.01c-0.04-0.61-0.21-1.17-0.46-1.64c-0.28-0.54-0.65-0.98-1.04-1.27 c-0.13-0.1-0.26-0.19-0.39-0.25c-0.12-0.06-0.25-0.11-0.37-0.14l-0.01,0c-0.14-0.04-0.27-0.05-0.4-0.04 c-0.11,0.01-0.22,0.03-0.32,0.08h0C21.4,9.26,21.3,9.35,21.21,9.46L21.21,9.46z M15.63,16.35h-4.14c-0.1,0-0.19,0.04-0.25,0.1 c-0.06,0.07-0.11,0.16-0.11,0.25v8.93c0,0.1,0.04,0.19,0.1,0.25l0,0c0.06,0.06,0.15,0.1,0.25,0.1h4.14c0.1,0,0.19-0.04,0.25-0.11 c0.06-0.06,0.1-0.16,0.1-0.25v-8.93c0-0.1-0.04-0.19-0.1-0.25C15.82,16.39,15.73,16.35,15.63,16.35L15.63,16.35z"/><path class="st1" d="M56.03,12.02h3.1v11.77h-3.1V12.02L56.03,12.02z M46.58,12.02h3.09v8.87h4.84v2.89h-7.93V12.02L46.58,12.02z M73,12.02h8.28v2.51h-5.17v1.87h4.8v2.4h-4.8v2.32h5.33v2.66H73V12.02L73,12.02z M61.36,12.02h3.09v4.45l3.24-4.45h4.11 l-3.65,4.42l3.82,7.35h-3.81l-2.11-4.83l-1.61,1.97v2.87h-3.09V12.02L61.36,12.02z M52.52,102.96l2.29,0.81 c-0.15,0.75-0.4,1.39-0.73,1.89c-0.33,0.51-0.74,0.89-1.23,1.15c-0.49,0.26-1.11,0.39-1.87,0.39c-0.92,0-1.67-0.16-2.26-0.47 c-0.58-0.32-1.09-0.87-1.51-1.66c-0.42-0.79-0.64-1.8-0.64-3.03c0-1.64,0.37-2.91,1.12-3.79c0.75-0.88,1.8-1.33,3.16-1.33 c1.07,0,1.91,0.25,2.52,0.76c0.61,0.51,1.06,1.29,1.36,2.34l-2.3,0.6c-0.08-0.3-0.17-0.52-0.25-0.66 c-0.15-0.23-0.33-0.41-0.54-0.54c-0.21-0.13-0.45-0.19-0.71-0.19c-0.59,0-1.05,0.28-1.36,0.84c-0.24,0.41-0.36,1.07-0.36,1.95 c0,1.1,0.14,1.85,0.43,2.26c0.29,0.41,0.69,0.61,1.2,0.61c0.5,0,0.88-0.16,1.14-0.5C52.22,104.07,52.41,103.59,52.52,102.96 L52.52,102.96z M55.75,102.06c0-1.62,0.38-2.89,1.15-3.79c0.77-0.9,1.84-1.36,3.22-1.36c1.41,0,2.49,0.45,3.26,1.33 c0.76,0.89,1.14,2.13,1.14,3.73c0,1.16-0.17,2.11-0.5,2.86s-0.82,1.32-1.44,1.74c-0.63,0.41-1.42,0.62-2.35,0.62 c-0.95,0-1.74-0.18-2.37-0.54c-0.62-0.36-1.13-0.92-1.52-1.7C55.94,104.19,55.75,103.23,55.75,102.06L55.75,102.06z M58.36,102.07 c0,1,0.16,1.72,0.48,2.16c0.32,0.44,0.75,0.66,1.3,0.66c0.56,0,1-0.21,1.31-0.64c0.31-0.43,0.46-1.2,0.46-2.31 c0-0.94-0.16-1.62-0.48-2.05c-0.32-0.43-0.76-0.65-1.31-0.65c-0.53,0-0.95,0.22-1.27,0.66C58.52,100.33,58.36,101.06,58.36,102.07 L58.36,102.07z M65.9,97.08h3.45l1.31,6.05l1.32-6.05h3.43v9.94h-2.14v-7.58l-1.65,7.58h-1.94l-1.65-7.58v7.58H65.9V97.08 L65.9,97.08z M77.05,97.08h3.45l1.31,6.05l1.32-6.05h3.43v9.94h-2.14v-7.58l-1.65,7.58h-1.94l-1.65-7.58v7.58h-2.14V97.08 L77.05,97.08z M88.23,97.08h7v2.13h-4.37v1.58h4.05v2.03h-4.05v1.96h4.5v2.25h-7.13V97.08L88.23,97.08z M96.79,97.08h2.44 l3.17,5.49v-5.49h2.47v9.94h-2.47l-3.16-5.46v5.46h-2.46V97.08L96.79,97.08z M106.02,97.08h7.95v2.46h-2.67v7.49h-2.61v-7.49h-2.67 V97.08L106.02,97.08z M46.58,61.73l2.95-0.22c0.06,0.56,0.19,0.99,0.39,1.28c0.32,0.48,0.78,0.71,1.37,0.71 c0.44,0,0.78-0.12,1.02-0.37c0.24-0.25,0.36-0.53,0.36-0.85c0-0.3-0.11-0.58-0.34-0.82c-0.23-0.24-0.76-0.47-1.59-0.68 c-1.36-0.36-2.33-0.83-2.91-1.43c-0.58-0.59-0.88-1.35-0.88-2.28c0-0.6,0.15-1.18,0.45-1.71c0.3-0.54,0.75-0.96,1.35-1.27 c0.6-0.31,1.42-0.46,2.47-0.46c1.28,0,2.26,0.28,2.94,0.84c0.67,0.56,1.07,1.45,1.2,2.68l-2.92,0.2c-0.08-0.54-0.24-0.93-0.49-1.17 c-0.25-0.25-0.59-0.37-1.03-0.37c-0.36,0-0.63,0.09-0.82,0.27c-0.18,0.18-0.27,0.4-0.27,0.66c0,0.19,0.07,0.35,0.22,0.51 c0.14,0.16,0.49,0.3,1.04,0.43c1.36,0.34,2.33,0.69,2.91,1.04c0.59,0.35,1.01,0.79,1.28,1.31c0.27,0.52,0.4,1.1,0.4,1.75 c0,0.76-0.18,1.45-0.53,2.09c-0.36,0.64-0.85,1.12-1.49,1.45c-0.64,0.33-1.44,0.49-2.42,0.49c-1.71,0-2.89-0.39-3.55-1.16 C47.04,63.9,46.67,62.92,46.58,61.73L46.58,61.73z M90.76,53.83h8.31v2.52h-5.19v1.88h4.81v2.41h-4.81v2.33h5.35v2.67h-8.46V53.83 L90.76,53.83z M79.89,65.63V53.83h5.17c0.96,0,1.69,0.1,2.2,0.29c0.51,0.19,0.92,0.55,1.23,1.07c0.31,0.52,0.47,1.17,0.47,1.92 c0,0.65-0.12,1.22-0.36,1.7c-0.24,0.48-0.56,0.86-0.98,1.16c-0.26,0.19-0.63,0.34-1.09,0.47c0.37,0.15,0.64,0.29,0.81,0.43 c0.11,0.1,0.28,0.3,0.5,0.62c0.21,0.32,0.36,0.56,0.43,0.73l1.51,3.41h-3.51l-1.66-3.6c-0.21-0.47-0.4-0.77-0.56-0.91 c-0.23-0.18-0.48-0.27-0.76-0.27h-0.27v4.78H79.89L79.89,65.63z M83.01,58.62h1.31c0.14,0,0.42-0.05,0.82-0.16 c0.21-0.05,0.37-0.17,0.5-0.37c0.13-0.2,0.2-0.43,0.2-0.69c0-0.38-0.1-0.68-0.31-0.88c-0.21-0.21-0.59-0.31-1.16-0.31h-1.37V58.62 L83.01,58.62z M75.12,63.69H71.6l-0.5,1.95h-3.17l3.78-11.81h3.4l3.77,11.81h-3.25L75.12,63.69L75.12,63.69z M74.46,61.13 l-1.1-4.24l-1.1,4.24H74.46L74.46,61.13z M57.26,53.83h3.1v4.12h3.4v-4.12h3.12v11.81h-3.12v-4.78h-3.4v4.78h-3.1V53.83 L57.26,53.83z"/><path class="st0" d="M7,41.83h108.88c1.93,0,3.68,0.79,4.94,2.06c1.27,1.27,2.05,3.02,2.05,4.94v21.81c0,1.92-0.79,3.68-2.05,4.94 c-1.27,1.27-3.02,2.06-4.94,2.06c-45.57,0-63.32,0-108.88,0c-1.93,0-3.68-0.79-4.94-2.05S0,72.56,0,70.63V48.82 c0-1.93,0.79-3.68,2.05-4.94C3.32,42.61,5.07,41.83,7,41.83L7,41.83z M31.16,59.73l-7.71,7.79v-3.88 c-4.87-1.01-8.73,0.1-11.65,3.81c0.51-7.63,5.72-11.3,11.65-11.55v-3.96L31.16,59.73L31.16,59.73L31.16,59.73z M39.21,44.33v30.79 h76.67c1.23,0,2.36-0.51,3.17-1.32s1.32-1.94,1.32-3.17V48.82c0-1.23-0.51-2.36-1.32-3.17s-1.94-1.32-3.17-1.32H39.21L39.21,44.33z"/><path class="st0" d="M7,83.65h108.88c1.93,0,3.68,0.79,4.94,2.06c1.27,1.27,2.05,3.02,2.05,4.94v21.81c0,1.92-0.79,3.67-2.05,4.94 c-1.27,1.27-3.02,2.06-4.94,2.06c-45.57,0-63.32,0-108.88,0c-1.93,0-3.68-0.79-4.94-2.05S0,114.38,0,112.46V90.65 c0-1.93,0.79-3.67,2.05-4.94C3.32,84.44,5.07,83.65,7,83.65L7,83.65z M14.49,92.37h11.87c0.94,0,1.8,0.39,2.43,1.01 c0.62,0.62,1.01,1.48,1.01,2.43v7.66c0,0.94-0.39,1.8-1.01,2.43c-0.62,0.62-1.48,1.01-2.43,1.01h-5.94l-4.44,3.71 c-0.24,0.21-0.61,0.18-0.81-0.06c-0.1-0.12-0.15-0.27-0.14-0.41l-0.49-3.24h-0.05c-0.94,0-1.8-0.39-2.42-1.01 c-0.62-0.62-1.01-1.48-1.01-2.42V95.8c0-0.94,0.39-1.8,1.01-2.43C12.69,92.75,13.55,92.37,14.49,92.37L14.49,92.37z M16.47,96h8.3 c0.28,0,0.51,0.23,0.51,0.51s-0.23,0.51-0.51,0.51h-8.3c-0.28,0-0.51-0.23-0.51-0.51S16.19,96,16.47,96L16.47,96z M16.47,99.2h8.3 c0.28,0,0.51,0.23,0.51,0.51c0,0.28-0.23,0.51-0.51,0.51h-8.3c-0.28,0-0.51-0.23-0.51-0.51C15.96,99.42,16.19,99.2,16.47,99.2 L16.47,99.2z M16.47,102.07h6.08c0.28,0,0.51,0.23,0.51,0.51s-0.23,0.51-0.51,0.51h-6.08c-0.28,0-0.51-0.23-0.51-0.51 S16.19,102.07,16.47,102.07L16.47,102.07z M39.21,86.16v30.79h76.67c1.23,0,2.36-0.51,3.17-1.32s1.32-1.94,1.32-3.17V90.65 c0-1.23-0.51-2.36-1.32-3.17s-1.94-1.32-3.17-1.32H39.21L39.21,86.16z"/></g></svg>