<?xml version="1.0" encoding="utf-8"?><svg version="1.1" id="Layer_1" xmlns="http://www.w3.org/2000/svg" xmlns:xlink="http://www.w3.org/1999/xlink" x="0px" y="0px" viewBox="0 0 122.88 104.45" style="enable-background:new 0 0 122.88 104.45" xml:space="preserve"><style type="text/css"><![CDATA[
	.st0{fill-rule:evenodd;clip-rule:evenodd;fill:#FF0000;}
	.st1{fill-rule:evenodd;clip-rule:evenodd;fill:#393939;}
]]></style><g><path class="st0" d="M10.4,22.71h102.08c2.86,0,5.46,1.17,7.34,3.05c1.88,1.88,3.05,4.48,3.05,7.34v32.93 c0,2.86-1.17,5.46-3.05,7.34c-1.88,1.88-4.48,3.05-7.34,3.05H33.83v-7.82h-5.85v7.82H10.4c-2.86,0-5.46-1.17-7.35-3.05 C1.17,71.5,0,68.9,0,66.04V33.11c0-2.86,1.17-5.46,3.05-7.35C4.94,23.88,7.54,22.71,10.4,22.71L10.4,22.71z M60.05,26.44v46.28 h52.43c1.83,0,3.5-0.75,4.71-1.96c1.21-1.21,1.96-2.88,1.96-4.71V33.11c0-1.83-0.75-3.5-1.96-4.71c-1.21-1.21-2.88-1.96-4.71-1.96 H60.05L60.05,26.44z M31.52,36.07c-0.12,0.17-0.21,0.39-0.27,0.66c-0.06,1.05,0,2.28,0,3.35h0c0,0.04-0.01,0.09-0.02,0.13 c-0.19,0.64-0.43,1.35-0.72,2.07c-0.29,0.73-0.64,1.47-1.05,2.15c-0.41,0.68-0.87,1.3-1.4,1.8c-0.55,0.52-1.18,0.91-1.89,1.11 l-0.15,0.04v10.93l0.09,0.26c0.24,0.3,0.49,0.56,0.73,0.78c0.25,0.22,0.51,0.4,0.78,0.54c0.27,0.14,0.56,0.23,0.89,0.3 c0.33,0.06,0.69,0.09,1.1,0.09h9.74c0.17,0,0.35,0.01,0.5,0.01l0.08,0c0.49,0.02,0.89,0.04,1.22-0.07 c0.31-0.11,0.62-0.34,0.97-0.83l0.02-0.03c0.12-0.17,0.23-0.36,0.32-0.56c0.09-0.2,0.17-0.41,0.23-0.63 c0.05-0.18,0.09-0.36,0.13-0.56c0.04-0.2,0.06-0.4,0.08-0.59c0.01-0.11,0.05-0.21,0.13-0.29c0.22-0.23,0.42-0.47,0.59-0.73 c0.17-0.25,0.3-0.53,0.42-0.82l0.01-0.03c0.11-0.3,0.2-0.63,0.25-0.99c0.05-0.36,0.08-0.75,0.07-1.16 c-0.01-0.13,0.04-0.27,0.14-0.37c0.15-0.14,0.26-0.3,0.35-0.48c0.1-0.2,0.16-0.43,0.2-0.67c0.04-0.27,0.05-0.56,0.03-0.86 c-0.02-0.34-0.08-0.68-0.15-1.01c-0.03-0.11-0.03-0.22,0.02-0.33c0.13-0.27,0.23-0.54,0.29-0.79c0.07-0.26,0.11-0.51,0.11-0.74 c0.01-0.3-0.02-0.58-0.09-0.85c-0.07-0.27-0.19-0.52-0.34-0.75c-0.14-0.21-0.31-0.41-0.51-0.58c-0.2-0.18-0.43-0.33-0.67-0.46 l-0.03-0.02c-0.3-0.15-0.62-0.28-0.97-0.36c-0.35-0.09-0.71-0.14-1.07-0.16l-0.04,0h-4.97v0c-0.02,0-0.05,0-0.07-0.01 c-0.25-0.04-0.43-0.28-0.39-0.53c0.04-0.23,0.07-0.49,0.11-0.76c0.03-0.25,0.06-0.49,0.08-0.73c0.03-0.37,0.05-0.72,0.05-1.04 c0-0.32,0-0.64-0.02-0.96l0-0.01c-0.06-0.91-0.31-1.74-0.68-2.44c-0.42-0.81-0.97-1.45-1.55-1.89c-0.2-0.15-0.39-0.27-0.58-0.37 c-0.19-0.09-0.37-0.17-0.55-0.21l-0.02,0c-0.2-0.05-0.4-0.08-0.59-0.07c-0.17,0.01-0.33,0.05-0.48,0.12h0 C31.81,35.77,31.64,35.9,31.52,36.07L31.52,36.07z M23.23,46.31h-6.15c-0.15,0-0.28,0.06-0.38,0.16c-0.1,0.1-0.16,0.23-0.16,0.38 v13.28c0,0.15,0.06,0.28,0.16,0.38l0,0c0.1,0.1,0.23,0.16,0.38,0.16h6.15c0.15,0,0.28-0.06,0.38-0.16c0.1-0.1,0.16-0.23,0.16-0.38 V46.84c0-0.15-0.06-0.28-0.16-0.38C23.51,46.37,23.37,46.31,23.23,46.31L23.23,46.31z"/><path class="st1" d="M102.54,49.42l-9.92,10.03v-4.99c-6.28-1.3-11.23,0.13-15,4.91c0.65-9.82,7.36-14.56,15-14.87v-5.09 L102.54,49.42L102.54,49.42L102.54,49.42z M26.31,87.46c-0.04-0.02-0.1-0.06-0.15-0.09c-0.6-0.47-1.26-1.01-1.82-1.47 c-0.83-0.68-1.78-1.46-2.45-2.02c-0.45-0.37-0.97-0.63-1.46-0.73c-0.32-0.06-0.6-0.06-0.83,0.03c-0.18,0.08-0.34,0.22-0.44,0.45 c-0.14,0.31-0.2,0.73-0.17,1.33c0.03,0.52,0.22,1.09,0.45,1.64c0.35,0.8,0.84,1.55,1.2,2.02c0.02,0.03,0.04,0.06,0.06,0.09 l7.16,10.23c0.09,0.14,0.15,0.29,0.16,0.43c0.15,1.18,0.4,2.07,0.76,2.63c0.27,0.41,0.61,0.61,1.05,0.6h11.27 c0.7-0.01,1.34-0.21,1.92-0.62c0.65-0.44,1.22-1.13,1.75-2.06c0.01-0.01,0.02-0.03,0.03-0.04c0.21-0.35,0.47-0.8,0.73-1.23 c1.14-1.88,2.14-3.52,2.25-5.85l-0.07-3.21c-0.01-0.04-0.01-0.09-0.01-0.14s0-0.35,0.01-0.76c0.02-2.13,0.06-4.75-1.89-5.08h-1.26 c-0.01,0.6-0.04,1.21-0.08,1.8c-0.03,0.53-0.07,1.03-0.07,1.52c0,0.52-0.42,0.94-0.94,0.94s-0.94-0.42-0.94-0.94 c0-0.49,0.03-1.05,0.07-1.64c0.12-2,0.27-4.3-1.33-4.58h-1.24c-0.07,0-0.14-0.01-0.21-0.02c0.01,0.72-0.03,1.47-0.08,2.2 c-0.02,0.53-0.06,1.03-0.06,1.51c0,0.52-0.42,0.94-0.94,0.94c-0.52,0-0.94-0.42-0.94-0.94c0-0.49,0.03-1.05,0.07-1.64 c0.12-2,0.27-4.3-1.33-4.58h-1.25c-0.09,0-0.17-0.01-0.25-0.03v3.65c0,0.52-0.42,0.94-0.94,0.94c-0.52,0-0.94-0.42-0.94-0.94v-9.81 c0-1.64-0.67-2.68-1.53-3.11c-0.32-0.16-0.65-0.24-0.98-0.24c-0.33,0-0.67,0.08-0.98,0.24c-0.85,0.43-1.51,1.47-1.51,3.16V89.2 c0,0.52-0.42,0.94-0.94,0.94s-0.94-0.42-0.94-0.94v-1.74H26.31L26.31,87.46L26.31,87.46z M35.09,76.3 c0.08-0.02,0.16-0.03,0.25-0.03h1.3c0.07,0,0.15,0.01,0.21,0.02c1.73,0.27,2.51,1.28,2.83,2.59c0.12-0.06,0.26-0.09,0.4-0.09h1.3 c0.07,0,0.15,0.01,0.21,0.02c1.87,0.29,2.61,1.44,2.89,2.89c0.04-0.01,0.09-0.01,0.15-0.01h1.3c0.07,0,0.15,0.01,0.22,0.02 c3.58,0.55,3.53,4.11,3.5,6.97v0.75l0.08,3.3v0.1c-0.14,2.82-1.24,4.64-2.52,6.75c-0.22,0.35-0.43,0.71-0.72,1.21 c-0.01,0.01-0.01,0.02-0.02,0.03c-0.67,1.16-1.44,2.06-2.32,2.67c-0.9,0.62-1.89,0.94-2.98,0.95H29.89 c-1.12,0.02-1.99-0.47-2.64-1.43c-0.52-0.77-0.86-1.86-1.04-3.21L19.2,89.78l-0.04-0.03c-0.42-0.55-0.98-1.43-1.41-2.39 c-0.32-0.72-0.55-1.51-0.61-2.28c-0.06-0.92,0.07-1.64,0.33-2.22c0.32-0.71,0.84-1.18,1.46-1.43c0.58-0.24,1.23-0.27,1.89-0.14 c0.79,0.16,1.61,0.55,2.3,1.13c0.57,0.47,1.52,1.24,2.45,2l0.77,0.63V72.02c0-2.5,1.11-4.11,2.55-4.83 c0.58-0.29,1.2-0.44,1.83-0.44c0.63,0,1.26,0.15,1.83,0.44c1.44,0.72,2.57,2.34,2.57,4.8v4.32L35.09,76.3L35.09,76.3L35.09,76.3z M40.27,0.23h9.35v2.84h-5.84v2.12h5.42v2.71h-5.42v2.62h6.02v3.01h-9.52V0.23L40.27,0.23z M27.13,0.23h3.49v5.02l3.66-5.02h4.65 L34.8,5.22l4.32,8.29h-4.3l-2.38-5.46l-1.81,2.22v3.23h-3.49V0.23L27.13,0.23z M21.11,0.23h3.51v13.29h-3.51V0.23L21.11,0.23z M10.44,0.23h3.49v10.02h5.46v3.27h-8.95V0.23L10.44,0.23z M110.18,0.22h9.35v2.84h-5.84v2.12h5.42v2.71h-5.42v2.62h6.02v3.01 h-9.52V0.22L110.18,0.22z M97.94,13.51V0.22h5.82c1.08,0,1.9,0.11,2.47,0.33c0.57,0.22,1.03,0.62,1.38,1.21 c0.35,0.59,0.52,1.31,0.52,2.16c0,0.74-0.13,1.37-0.4,1.91c-0.27,0.54-0.63,0.97-1.11,1.3c-0.3,0.21-0.71,0.39-1.23,0.53 c0.42,0.16,0.72,0.32,0.91,0.49c0.13,0.11,0.31,0.34,0.56,0.7c0.24,0.36,0.41,0.63,0.49,0.83l1.7,3.84h-3.95l-1.87-4.05 c-0.24-0.53-0.45-0.87-0.63-1.02c-0.25-0.2-0.54-0.31-0.86-0.31h-0.31v5.38H97.94L97.94,13.51z M101.45,5.62h1.48 c0.16,0,0.47-0.06,0.93-0.18c0.23-0.05,0.42-0.19,0.57-0.42c0.15-0.23,0.22-0.48,0.22-0.77c0-0.43-0.12-0.76-0.35-0.99 c-0.23-0.23-0.67-0.35-1.3-0.35h-1.54V5.62L101.45,5.62z M92.57,11.32h-3.96l-0.57,2.19h-3.57l4.26-13.29h3.82l4.24,13.29h-3.66 L92.57,11.32L92.57,11.32z M91.83,8.44l-1.23-4.77l-1.24,4.77H91.83L91.83,8.44z M72.47,0.22h3.49v4.64h3.82V0.22h3.51v13.29h-3.51 V8.13h-3.82v5.38h-3.49V0.22L72.47,0.22z M60.45,9.11l3.32-0.24c0.07,0.63,0.22,1.11,0.44,1.44c0.36,0.53,0.88,0.8,1.54,0.8 c0.5,0,0.88-0.14,1.15-0.41c0.27-0.28,0.4-0.59,0.4-0.96c0-0.34-0.13-0.65-0.38-0.92s-0.85-0.53-1.79-0.77 c-1.53-0.4-2.62-0.94-3.27-1.61c-0.66-0.67-0.99-1.52-0.99-2.56c0-0.68,0.17-1.32,0.5-1.93c0.34-0.61,0.84-1.09,1.52-1.43 C63.58,0.17,64.51,0,65.68,0c1.45,0,2.54,0.32,3.3,0.95c0.76,0.63,1.21,1.64,1.35,3.02l-3.29,0.23c-0.09-0.6-0.27-1.04-0.55-1.31 c-0.28-0.27-0.67-0.41-1.16-0.41c-0.41,0-0.71,0.1-0.92,0.3c-0.21,0.2-0.31,0.45-0.31,0.74c0,0.21,0.08,0.4,0.25,0.57 c0.16,0.18,0.55,0.34,1.17,0.49c1.53,0.39,2.62,0.78,3.28,1.18c0.66,0.4,1.14,0.88,1.44,1.47c0.3,0.58,0.45,1.24,0.45,1.97 c0,0.85-0.2,1.64-0.6,2.36c-0.4,0.72-0.96,1.26-1.68,1.64c-0.72,0.37-1.62,0.56-2.72,0.56c-1.92,0-3.25-0.44-3.99-1.31 C60.97,11.56,60.55,10.45,60.45,9.11L60.45,9.11z"/></g></svg>