<svg id="Layer_1" data-name="Layer 1" xmlns="http://www.w3.org/2000/svg" viewBox="0 0 122.88 60.5"><defs><style>.cls-1{fill:#131313;}</style></defs><title>lithium-ion-battery</title><path class="cls-1" d="M110.52,51V42.83h9.37A3,3,0,0,0,122,42a3,3,0,0,0,.88-2.11V20.66a3,3,0,0,0-3-3h-9.37V9.52a9.49,9.49,0,0,0-2.79-6.72l-.18-.17A9.47,9.47,0,0,0,101,0H9.52A9.56,9.56,0,0,0,0,9.52V51a9.45,9.45,0,0,0,2.8,6.72h0a9.45,9.45,0,0,0,6.72,2.8H101A9.54,9.54,0,0,0,110.52,51ZM28.67,40.52H15.78V20.37h6.45v15h6.44v5.16Zm1.78,0V25.21L36.89,25V40.52Zm.37-18.43a2.33,2.33,0,0,1-.73-2,2.47,2.47,0,0,1,.73-2,5,5,0,0,1,2.87-.58,5,5,0,0,1,2.87.58,2.5,2.5,0,0,1,.72,2,2.36,2.36,0,0,1-.72,2,5.13,5.13,0,0,1-2.87.55,5.1,5.1,0,0,1-2.87-.55Zm8.49,12V30.59c0-.58.18-.95.53-1.11a4.4,4.4,0,0,1,1.7-.25H49v3.49c0,.58-.17,1-.53,1.11a4.38,4.38,0,0,1-1.69.24ZM51.4,40.52V25.21L57.85,25V40.52Zm.37-18.43a2.36,2.36,0,0,1-.72-2,2.5,2.5,0,0,1,.72-2,5,5,0,0,1,2.87-.58,5,5,0,0,1,2.87.58,2.47,2.47,0,0,1,.73,2,2.33,2.33,0,0,1-.73,2,5.1,5.1,0,0,1-2.87.55,5.13,5.13,0,0,1-2.87-.55Zm10.36,16.8q-2-2.12-2-6.43c0-2.88.67-5,2-6.43s3.52-2.11,6.53-2.11,5.18.7,6.52,2.11,2,3.55,2,6.43-.67,5-2,6.43S71.66,41,68.66,41s-5.19-.7-6.53-2.11ZM67,30V36.3h1a4.13,4.13,0,0,0,1.69-.25q.54-.24.54-1.11V28.62h-1a4.43,4.43,0,0,0-1.7.24C67.22,29,67,29.4,67,30ZM82.68,24.4,84.3,26a11,11,0,0,1,6.44-2.09,5.69,5.69,0,0,1,3.55,1,3.22,3.22,0,0,1,1.29,2.72v12.9H89.13V29.23h-1a4.41,4.41,0,0,0-1.66.25,1,1,0,0,0-.56,1V40.52H79.46V24.4ZM104.91,9.52V51A3.93,3.93,0,0,1,101,54.89H9.52a3.9,3.9,0,0,1-2.76-1.15h0A3.91,3.91,0,0,1,5.61,51V9.52A3.93,3.93,0,0,1,9.52,5.61H101a3.92,3.92,0,0,1,2.65,1l.11.11a3.9,3.9,0,0,1,1.15,2.76Z"/></svg>