<svg id="Layer_1" data-name="Layer 1" xmlns="http://www.w3.org/2000/svg" viewBox="0 0 122.88 88.61"><defs><style>.cls-1{fill-rule:evenodd;}</style></defs><title>lithium-ion-car-battery</title><path class="cls-1" d="M55,0H68a1,1,0,0,1,1,1V9H96.2V1a1,1,0,0,1,1-1h13a1,1,0,0,1,1,1V9h11.69V21.49H0V9H12V1a1,1,0,0,1,1-1H26a1,1,0,0,1,1,1V9H54V1a1,1,0,0,1,1-1ZM6.83,27.19H116V83.27a5.35,5.35,0,0,1-5.34,5.34H12.17a5.35,5.35,0,0,1-5.34-5.34V27.19ZM33.54,69.54H20.22V48.74h6.66V64.22h6.66v5.32Zm1.83,0V53.73L42,53.56v16Zm.38-19A2.44,2.44,0,0,1,35,48.46a2.55,2.55,0,0,1,.75-2.1,5.08,5.08,0,0,1,3-.6,5.09,5.09,0,0,1,3,.6,2.58,2.58,0,0,1,.75,2.1,2.44,2.44,0,0,1-.75,2.06,5.31,5.31,0,0,1-3,.57,5.3,5.3,0,0,1-3-.57Zm8.77,12.36V59.29a1.14,1.14,0,0,1,.55-1.15,4.66,4.66,0,0,1,1.75-.25h7.69v3.6c0,.6-.18,1-.55,1.15a4.7,4.7,0,0,1-1.75.24ZM57,69.54V53.73l6.66-.17v16Zm.39-19a2.45,2.45,0,0,1-.75-2.06,2.55,2.55,0,0,1,.75-2.1,5.06,5.06,0,0,1,3-.6,5.06,5.06,0,0,1,3,.6,2.55,2.55,0,0,1,.75,2.1,2.45,2.45,0,0,1-.75,2.06,5.27,5.27,0,0,1-3,.57,5.27,5.27,0,0,1-3-.57ZM68.08,67.86C66.69,66.41,66,64.19,66,61.22s.69-5.19,2.08-6.64,3.63-2.18,6.74-2.18,5.35.73,6.74,2.18,2.08,3.67,2.08,6.64-.7,5.19-2.08,6.64S77.92,70,74.82,70s-5.36-.72-6.74-2.18Zm5.07-9.2v6.52h1a4.43,4.43,0,0,0,1.75-.25c.37-.16.55-.55.55-1.15V57.26h-1a4.46,4.46,0,0,0-1.75.25,1.14,1.14,0,0,0-.55,1.15ZM89.3,52.9,91,54.56a11.39,11.39,0,0,1,6.65-2.16,5.85,5.85,0,0,1,3.66,1,3.32,3.32,0,0,1,1.34,2.81V69.54H96V57.89h-1a4.7,4.7,0,0,0-1.72.25,1,1,0,0,0-.58,1V69.54H86V52.9Z"/></svg>