<?xml version="1.0" encoding="utf-8"?><svg version="1.1" id="Layer_1" xmlns="http://www.w3.org/2000/svg" xmlns:xlink="http://www.w3.org/1999/xlink" x="0px" y="0px" viewBox="0 0 122.88 122.84" style="enable-background:new 0 0 122.88 122.84" xml:space="preserve"><g><path d="M19.56,106.92c0.06-0.23,0.15-0.46,0.27-0.67c0.7-1.73,1.33-3.5,1.97-5.27c1.73-4.83,3.46-9.65,6.36-13.85 c6.93-10.05,12.52-10,22.56-9.9l0.91,0.01v-0.01h3.09c1.45-0.53,2.75-1.13,3.87-1.8c0.74-0.44,1.4-0.92,1.97-1.43v-7.93h0.01 l0-0.09c0.18-4.9-0.03-8.59-1.03-11.31c-0.77-2.09-2.09-3.65-4.2-4.86c-0.27-0.14-0.53-0.28-0.81-0.43 c-0.08-0.04-0.16-0.08-0.24-0.11c-3.12-1.47-6.51-2.24-9.99-2.66c-3.56-0.42-7.27-0.47-10.89-0.47h-2.3 c-0.19,0.87-0.46,1.66-0.82,2.38c-0.69,1.37-1.66,2.47-2.89,3.35c-1.13,0.81-2.7,0.54-3.51-0.59c-0.81-1.13-0.54-2.7,0.59-3.51 c0.55-0.39,0.99-0.88,1.3-1.49c0.34-0.68,0.54-1.53,0.58-2.57c0-0.12,0.02-0.23,0.04-0.35c0-0.03,0.01-0.07,0.01-0.1 c0.13-0.9,0.01-1.61-0.29-2.19c-0.33-0.63-0.93-1.2-1.7-1.71c-1.15-0.78-1.46-2.34-0.68-3.5c0.78-1.15,2.34-1.46,3.5-0.68 c1.41,0.95,2.57,2.1,3.33,3.55c0.39,0.73,0.67,1.52,0.81,2.38h2.03c3.76,0,7.62,0.04,11.48,0.5c3.62,0.43,7.19,1.23,10.61,2.7 c0.26,0.05,0.51,0.14,0.75,0.28c0.24,0.14,0.47,0.27,0.7,0.39c0.28,0.14,0.56,0.29,0.83,0.44c3.91,2.02,6.42,2.46,8.02,1.33 c1.74-1.23,3.01-4.25,4.19-9c0.19-0.96,0.42-1.96,0.69-3.01l0.01-0.05c0.02-0.09,0.04-0.18,0.07-0.27 c1.48-5.61,3.51-10.23,6.29-13.6c3-3.63,6.82-5.81,11.65-6.24c0.07-0.01,0.14-0.01,0.22-0.01v0h0.17c0.28-1.03,0.71-1.95,1.26-2.75 c1.1-1.61,2.65-2.76,4.33-3.36c1.31-0.47,2.76,0.22,3.22,1.53c0.47,1.31-0.22,2.75-1.53,3.22c-0.72,0.26-1.39,0.75-1.87,1.45 c-0.42,0.61-0.69,1.38-0.74,2.29c0,0.05,0,0.1,0,0.15c0,0.03,0,0.07,0,0.1c0.05,1.03,0.26,1.89,0.59,2.54 c0.25,0.49,0.57,0.83,0.92,0.98c1.28,0.54,1.87,2.02,1.33,3.3c-0.54,1.28-2.02,1.87-3.3,1.33c-1.46-0.62-2.63-1.77-3.42-3.33 c-0.37-0.72-0.66-1.53-0.85-2.41h-0.01c-3.34,0.32-5.99,1.86-8.1,4.41c-2.31,2.79-4.03,6.77-5.32,11.69l0,0.01 c-0.23,1.08-0.47,2.11-0.71,3.08c-0.97,4.87-0.95,8.78-0.94,13.91c0.01,2.19,0.01-0.31,0.01,2.2v9.03 c3.26-3.09,5.39-8.23,7.41-13.09c1.04-2.51,2.06-4.96,3.26-7.2c1.14-2.14,2.3-3.98,3.47-5.59c1.19-1.64,2.42-3.07,3.67-4.34 c4.26-4.31,8.6-6.57,12.93-8.82c3.78-1.97,7.56-3.93,11.03-7.26c0.42-0.4,0.78-0.85,1.07-1.34c0.31-0.52,0.57-1.1,0.78-1.75 c0.17-0.54,0.26-1.07,0.26-1.58c0-1.3-0.58-2.57-1.64-3.7c-1.22-1.29-3.04-2.37-5.37-3.12c-2.15-0.69-4.71-1.09-7.58-1.08v0.01 H70.74c-0.16,0-2.47-0.02-4.74-0.03C53.6,4.96,42.41,4.89,30.7,10.51c-8.28,3.97-14.45,10.02-18.65,18 c-4.27,8.1-6.56,18.2-7.01,30.15h0.01v39.66l0,0.03c0.35,6.03,0.97,11.2,2.1,14.83c0.84,2.72,1.84,4.38,3.06,4.52 c1.31-0.11,2.47-0.63,3.52-1.46c1.22-0.97,2.31-2.39,3.32-4.12C18,110.46,18.82,108.72,19.56,106.92L19.56,106.92z M65.59,74.32 c0.1,0.41,0.11,0.84,0,1.25v38.86c0,0.03,0,0.07,0,0.1c0.09,1.76,0.63,2.78,1.28,3.16c0.15,0.09,0.31,0.13,0.45,0.13 c0.14,0,0.29-0.05,0.44-0.15c0.66-0.41,1.17-1.47,1.17-3.24h-0.01V54.91c0-4.04,0.01-1.43,0.01-2.2c0-0.7,0-1.38,0-2.05 c-0.08,0.06-0.16,0.12-0.25,0.18c-1.39,0.98-2.91,1.49-4.65,1.54c0.08,0.18,0.15,0.37,0.22,0.56c1.25,3.39,1.53,7.63,1.33,13.13 h0.01V74.32L65.59,74.32z M60.55,82.28h-3.56c-1.49,3.75-1.42,7.62-1.34,11.74c0.02,1.23,0.05,2.48,0.05,3v6.01h-0.01 c0,0.11-0.01,0.22-0.02,0.33c-0.15,1.15-0.35,2.22-0.59,3.22c-0.26,1.03-0.57,2-0.93,2.91c-0.3,0.76-0.65,1.46-1.04,2.11 c-2.37,4-6.23,6.3-10.52,7.17c-4.11,0.83-8.63,0.33-12.56-1.24c-1.02-0.41-2-0.89-2.92-1.43c-1.36-0.81-2.66-1.81-3.89-3.02 c-0.21-0.21-0.42-0.43-0.63-0.65c-0.37,0.75-0.77,1.49-1.19,2.21c-1.3,2.22-2.78,4.11-4.52,5.5c-1.88,1.51-4.02,2.42-6.5,2.58l0,0 c-0.08,0-0.16,0.01-0.24,0c-3.8-0.13-6.27-3.12-7.81-8.07c-1.26-4.06-1.95-9.61-2.32-16.01C0.01,98.53,0,98.42,0,98.31V58.66h0.01 l0-0.09c0.47-12.76,2.94-23.61,7.58-32.41c4.71-8.94,11.64-15.72,20.94-20.19c12.76-6.12,24.49-6.04,37.48-5.95 c0.84,0.01,1.69,0.01,4.72,0.01h32.53v0.01c3.42-0.01,6.5,0.47,9.12,1.32c3.16,1.02,5.71,2.57,7.5,4.46c1.94,2.06,3,4.51,3,7.15 c0,1.03-0.16,2.08-0.49,3.12c-0.32,1-0.75,1.95-1.28,2.82c-0.53,0.88-1.16,1.67-1.88,2.36c-4.03,3.86-8.11,5.99-12.2,8.11 c-4,2.08-8,4.16-11.67,7.88c-1.07,1.08-2.13,2.32-3.18,3.77c-1.07,1.48-2.12,3.13-3.11,4.99c-1.04,1.94-2.02,4.32-3.04,6.77 c-2.81,6.77-5.81,14.01-12.06,17.35v44.29h-0.01c0.01,3.75-1.55,6.3-3.57,7.54c-0.92,0.56-1.94,0.86-2.99,0.87 c-1.04,0.02-2.07-0.24-3.01-0.78c-2.02-1.15-3.64-3.6-3.82-7.32c-0.01-0.1-0.02-0.21-0.02-0.32V82.28L60.55,82.28z M24.85,107.24 c0.61,0.85,1.25,1.61,1.92,2.26c0.91,0.9,1.88,1.65,2.9,2.25c0.71,0.42,1.46,0.79,2.23,1.1c3.06,1.23,6.56,1.62,9.7,0.98 c2.96-0.6,5.59-2.14,7.17-4.81c0.27-0.45,0.5-0.92,0.7-1.42c0.28-0.69,0.51-1.44,0.71-2.24c0.19-0.78,0.35-1.59,0.47-2.44v-5.9 c0-1.49-0.01-2.21-0.03-2.92c-0.08-4.04-0.15-7.88,1.03-11.82h-0.03v-0.01l-0.02,0l-0.93-0.01c-8.33-0.08-12.96-0.13-18.38,7.73 c-2.53,3.68-4.15,8.18-5.77,12.69C25.98,104.21,25.43,105.74,24.85,107.24L24.85,107.24z"/></g></svg>