<?xml version="1.0" encoding="utf-8"?><svg version="1.1" id="Layer_1" xmlns="http://www.w3.org/2000/svg" xmlns:xlink="http://www.w3.org/1999/xlink" x="0px" y="0px" viewBox="0 0 122.88 75.12" style="enable-background:new 0 0 122.88 75.12" xml:space="preserve"><style type="text/css">.st0{fill-rule:evenodd;clip-rule:evenodd;}</style><g><path class="st0" d="M2.53,68.36c-1.4,0-2.53-1.13-2.53-2.53c0-1.4,1.13-2.53,2.53-2.53h17.12c0.44-1.47,1.24-2.79,2.3-3.85 c1.09-1.09,2.44-1.9,3.96-2.33v-8.41c0-1.4,1.13-2.53,2.53-2.53c1.4,0,2.53,1.13,2.53,2.53v8.41c1.52,0.43,2.87,1.25,3.96,2.33 c1.06,1.06,1.86,2.37,2.3,3.85h48.63c0.44-1.47,1.24-2.79,2.3-3.85c1.09-1.09,2.44-1.9,3.96-2.33v-8.41c0-1.4,1.13-2.53,2.53-2.53 c1.4,0,2.53,1.13,2.53,2.53v8.41c1.52,0.43,2.87,1.25,3.96,2.33c1.06,1.06,1.86,2.37,2.3,3.85h16.9c1.4,0,2.53,1.13,2.53,2.53 c0,1.4-1.13,2.53-2.53,2.53l-16.83,0c-0.43,1.56-1.25,2.96-2.37,4.07c-1.66,1.66-3.96,2.69-6.49,2.69c-2.53,0-4.83-1.03-6.49-2.69 c-1.11-1.11-1.94-2.51-2.37-4.07H37.3c-0.43,1.56-1.25,2.96-2.37,4.07c-1.66,1.66-3.96,2.69-6.49,2.69c-2.53,0-4.83-1.03-6.49-2.69 c-1.11-1.11-1.94-2.51-2.37-4.07H2.53L2.53,68.36L2.53,68.36z M71.92,0h47.91c0.76,0,1.38,0.62,1.38,1.38v29.34 c0,0.76-0.62,1.38-1.38,1.38H71.92c-0.76,0-1.38-0.62-1.38-1.38V1.38C70.54,0.62,71.16,0,71.92,0L71.92,0L71.92,0z M89.62,33.99 h12.49c0.03,2.16,0.92,4.1,3.33,5.62H86.29C88.22,38.21,89.63,36.51,89.62,33.99L89.62,33.99L89.62,33.99z M95.87,27.45 c0.98,0,1.77,0.79,1.77,1.77c0,0.98-0.79,1.77-1.77,1.77c-0.98,0-1.77-0.79-1.77-1.77C94.1,28.24,94.89,27.45,95.87,27.45 L95.87,27.45z M74.68,2.59h42.38c0.67,0,1.22,0.55,1.22,1.22v21.31c0,0.67-0.55,1.22-1.22,1.22H74.68c-0.67,0-1.22-0.55-1.22-1.22 V3.81C73.46,3.14,74.01,2.59,74.68,2.59L74.68,2.59L74.68,2.59z M2.32,0h47.91c0.76,0,1.38,0.62,1.38,1.38v29.34 c0,0.76-0.62,1.38-1.38,1.38H2.32c-0.76,0-1.38-0.62-1.38-1.38V1.38C0.94,0.62,1.56,0,2.32,0L2.32,0L2.32,0z M20.03,33.99h12.49 c0.03,2.16,0.92,4.1,3.33,5.62H16.69C18.62,38.21,20.03,36.51,20.03,33.99L20.03,33.99L20.03,33.99z M26.27,27.45 c0.98,0,1.77,0.79,1.77,1.77c0,0.98-0.79,1.77-1.77,1.77c-0.98,0-1.77-0.79-1.77-1.77C24.5,28.24,25.3,27.45,26.27,27.45 L26.27,27.45z M5.08,2.59h42.38c0.67,0,1.22,0.55,1.22,1.22v21.31c0,0.67-0.55,1.22-1.22,1.22H5.08c-0.67,0-1.22-0.55-1.22-1.22 V3.81C3.87,3.14,4.41,2.59,5.08,2.59L5.08,2.59L5.08,2.59z M31.35,63.04c-0.74-0.74-1.77-1.21-2.91-1.21 c-1.14,0-2.17,0.46-2.91,1.21c-0.74,0.74-1.21,1.77-1.21,2.91c0,1.14,0.46,2.17,1.21,2.91c0.74,0.74,1.77,1.21,2.91,1.21 c1.14,0,2.17-0.46,2.91-1.21c0.74-0.74,1.21-1.77,1.21-2.91C32.56,64.81,32.1,63.78,31.35,63.04L31.35,63.04z M97.57,63.04 c-0.74-0.74-1.77-1.21-2.91-1.21c-1.14,0-2.17,0.46-2.91,1.21c-0.74,0.74-1.21,1.77-1.21,2.91c0,1.14,0.46,2.17,1.21,2.91 c0.74,0.74,1.77,1.21,2.91,1.21c1.14,0,2.17-0.46,2.91-1.21c0.74-0.74,1.21-1.77,1.21-2.91C98.78,64.81,98.32,63.78,97.57,63.04 L97.57,63.04z"/></g></svg>