<svg xmlns="http://www.w3.org/2000/svg" shape-rendering="geometricPrecision" text-rendering="geometricPrecision" image-rendering="optimizeQuality" fill-rule="evenodd" clip-rule="evenodd" viewBox="0 0 512 506.49"><path fill-rule="nonzero" d="M294.24 17.11C294.24 7.69 303.52 0 315.1 0c11.57 0 20.87 7.65 20.87 17.11v74.85c0 9.42-9.3 17.11-20.87 17.11-11.58 0-20.86-7.65-20.86-17.11V17.11zm45.12 325.86c1.07-8.48 5.01-16.11 10.79-21.89v-.01c6.85-6.85 16.3-11.1 26.7-11.1 10.4 0 19.85 4.25 26.7 11.1l.02.01c6.84 6.84 11.09 16.29 11.09 26.69v16.29h9.2c1.59.03 2.91 1.33 2.91 2.95v59.4a2.98 2.98 0 0 1-2.96 2.96h-92c-1.62 0-2.94-1.34-2.94-2.96v-59.4c0-1.63 1.32-2.95 2.94-2.95h7.22v-16.37c0-1.59.1-3.17.3-4.72h.03zm14.35 21.09H399.99h-.02v-16.51c0-6.34-2.6-12.13-6.79-16.32-4.18-4.17-9.96-6.78-16.33-6.78-6.35 0-12.13 2.6-16.32 6.78-3.93 3.94-6.47 9.27-6.75 15.18h-.05l-.02 1.06v16.59zm24.11-125.95c36.98 0 70.56 15.04 94.83 39.35C496.96 301.7 512 335.25 512 372.31c0 36.99-15.04 70.56-39.3 94.83-24.32 24.31-57.89 39.35-94.88 39.35-37.06 0-70.61-15.04-94.89-39.32l-.63-.68c-23.9-24.24-38.68-57.53-38.68-94.18 0-37.06 15.04-70.61 39.31-94.89 24.28-24.27 57.83-39.31 94.89-39.31zm78.73 55.41c-20.08-20.11-47.95-32.58-78.73-32.58-30.75 0-58.61 12.47-78.75 32.62-20.15 20.14-32.62 48-32.62 78.75 0 30.5 12.25 58.14 32.02 78.19l.6.54c20.14 20.15 48 32.62 78.75 32.62 30.76 0 58.65-12.47 78.77-32.58 20.11-20.12 32.58-48.01 32.58-78.77 0-30.75-12.47-58.61-32.62-78.79zM56.8 242.28c-1.17 0-2.23-5.2-2.23-11.57 0-6.38.92-11.53 2.23-11.53h56.94c1.18 0 2.24 5.2 2.24 11.53 0 6.39-.92 11.57-2.24 11.57H56.8zm90.77 0c-1.17 0-2.23-5.2-2.23-11.57 0-6.38.92-11.53 2.23-11.53h56.94c1.18 0 2.24 5.2 2.24 11.53 0 6.39-.92 11.57-2.24 11.57h-56.94zm90.77 0c-1.17 0-2.22-5.2-2.22-11.57 0-6.38.92-11.53 2.22-11.53h56.94c1.18 0 2.24 5.15 2.24 11.49-5.69 3.55-11.19 7.44-16.42 11.61h-42.76zm-181.4 66.24c-1.18 0-2.24-5.2-2.24-11.57 0-6.39.93-11.58 2.24-11.58h56.94c1.18 0 2.22 5.19 2.22 11.58 0 6.37-.91 11.57-2.22 11.57H56.94zm90.77 0c-1.18 0-2.24-5.2-2.24-11.57 0-6.39.93-11.58 2.24-11.58h56.94c1.18 0 2.23 5.19 2.23 11.58 0 6.37-.92 11.57-2.23 11.57h-56.94zM57.06 374.8c-1.18 0-2.24-5.2-2.24-11.59 0-6.36.94-11.56 2.24-11.56H114c1.19 0 2.24 5.2 2.24 11.56 0 6.39-.93 11.59-2.24 11.59H57.06zm90.77 0c-1.18 0-2.24-5.2-2.24-11.59 0-6.36.94-11.56 2.24-11.56h56.94c1.19 0 2.25 5.2 2.25 11.56 0 6.39-.94 11.59-2.25 11.59h-56.94zM106.82 17.11C106.82 7.69 116.1 0 127.69 0c11.57 0 20.86 7.65 20.86 17.11v74.85c0 9.42-9.34 17.11-20.86 17.11-11.59 0-20.87-7.65-20.87-17.11V17.11zM22.97 163.64h397.38V77.46c0-2.94-1.18-5.53-3.08-7.43a10.59 10.59 0 0 0-7.43-3.08h-38.09c-6.39 0-11.59-5.2-11.59-11.57 0-6.38 5.2-11.58 11.59-11.58h38.09c9.33 0 17.71 3.77 23.83 9.89 6.12 6.13 9.88 14.49 9.88 23.82v136.81c-7.61-2.62-15.41-4.73-23.45-6.29v-21.38h.25H22.97v223.16c0 2.95 1.18 5.53 3.08 7.43 1.91 1.9 4.61 3.08 7.44 3.08h188.85c2.16 8.02 4.85 15.84 8.11 23.36H33.71c-9.3 0-17.7-3.75-23.84-9.89C3.75 427.72 0 419.36 0 410.02V77.55c0-9.29 3.75-17.7 9.87-23.82 6.14-6.13 14.5-9.89 23.84-9.89h40.67c6.38 0 11.57 5.21 11.57 11.57C85.95 61.8 80.76 67 74.38 67H33.71c-2.96 0-5.54 1.18-7.44 3.08-1.9 1.9-3.09 4.59-3.09 7.43v86.16h-.21v-.03zm158.95-96.69c-6.39 0-11.57-5.2-11.57-11.57 0-6.38 5.18-11.58 11.57-11.58h77.55c6.39 0 11.57 5.2 11.57 11.58 0 6.37-5.18 11.57-11.57 11.57h-77.55z"/></svg>