<svg xmlns="http://www.w3.org/2000/svg" shape-rendering="geometricPrecision" text-rendering="geometricPrecision" image-rendering="optimizeQuality" fill-rule="evenodd" clip-rule="evenodd" viewBox="0 0 512 498.93"><path d="M389.76 0c33.74 0 64.31 13.69 86.42 35.8C498.31 57.92 512 88.5 512 122.24c0 33.75-13.69 64.33-35.8 86.44-22.13 22.12-52.7 35.82-86.44 35.82-33.71 0-64.27-13.68-86.4-35.82-22.19-22.2-35.86-52.76-35.86-86.44 0-33.74 13.69-64.32 35.82-86.44C325.43 13.69 356.01 0 389.76 0zM127.13 93.07 45.4 179.44h81.73V93.07zM0 195.82c0-1.15.15-2.27.41-3.35.13-3.14 1.36-6.27 3.69-8.73L128.47 52.32c2.31-4.18 6.78-7.01 11.9-7.01h113.41c-4.87 8.6-8.97 17.7-12.16 27.2h-87.3v120.52c0 7.5-6.09 13.59-13.59 13.59H27.2v265.11h392.02V275.68c9.4-1.8 18.49-4.44 27.21-7.83V471.9c0 7.39-3.05 14.15-7.93 19.05-4.96 4.94-11.72 7.98-19.11 7.98H27.04c-7.43 0-14.21-3.06-19.09-7.94C3.07 486.1 0 479.32 0 471.9V195.82zm324.89 79.39c7.53 0 13.66 6.05 13.66 13.52s-6.13 13.52-13.66 13.52H121.54c-7.54 0-13.66-6.05-13.66-13.52s6.12-13.52 13.66-13.52h203.35zm0 91.23c7.53 0 13.66 6.05 13.66 13.52s-6.13 13.52-13.66 13.52H121.54c-7.54 0-13.66-6.05-13.66-13.52s6.12-13.52 13.66-13.52h203.35zm16.1-255.63h9.67V99.29c0-11.01 4.51-21.03 11.77-28.29v-.01c7.26-7.27 17.28-11.77 28.31-11.77 11.02 0 21.04 4.5 28.3 11.77V71c7.27 7.26 11.78 17.28 11.78 28.29v11.52h7.7c1.72 0 3.13 1.41 3.13 3.13v59.29c0 1.71-1.41 3.11-3.13 3.11h-97.53c-1.71 0-3.12-1.4-3.12-3.11v-59.29c0-1.72 1.41-3.13 3.12-3.13zm25.24 0h49.02V99.08c0-6.74-2.77-12.88-7.2-17.32l-.01.01c-4.44-4.44-10.57-7.2-17.3-7.2-6.74 0-12.87 2.76-17.32 7.19-4.43 4.44-7.19 10.58-7.19 17.32v11.73z"/></svg>