<?xml version="1.0" encoding="utf-8"?><svg version="1.1" id="Layer_1" xmlns="http://www.w3.org/2000/svg" xmlns:xlink="http://www.w3.org/1999/xlink" x="0px" y="0px" viewBox="0 0 105.34 122.88" style="enable-background:new 0 0 105.34 122.88" xml:space="preserve"><g><path d="M50.49,81.09l0-0.11c-1.78-0.11-3.61-0.89-5.55-2c-2.54,5.33-5.08,5.34-10.28,5.36h-0.01l-0.29,0 c-0.25,0.5-0.55,0.98-0.9,1.42c-0.64,0.82-1.42,1.53-2.37,2.12c-0.88,0.54-2.03,0.27-2.57-0.61c-0.54-0.88-0.27-2.03,0.61-2.57 c0.57-0.35,1.03-0.76,1.38-1.21c0.22-0.29,0.41-0.6,0.57-0.94c-0.26-0.35-0.56-0.65-0.91-0.89c-0.61-0.43-1.35-0.73-2.21-0.92 c-1-0.22-1.64-1.21-1.41-2.22c0.22-1,1.21-1.64,2.22-1.41c1.34,0.3,2.54,0.79,3.57,1.52c0.76,0.54,1.41,1.2,1.95,2l0.35,0 c3.61-0.01,5.36-0.02,7.1-3.64l-0.87-0.57c-0.85-0.56-1.72-1.13-2.75-1.78c-6.06-3.8-8.36-3.43-14.22-2.48 c-0.33,0.05-0.67,0.11-1.33,0.21c-0.19,0.27-0.37,0.55-0.51,0.85c-0.25,0.5-0.42,1.01-0.48,1.47c-0.15,1.02-1.1,1.72-2.11,1.58 c-1.02-0.15-1.72-1.1-1.57-2.11c0.12-0.82,0.41-1.72,0.85-2.6l0.06-0.13l-0.12-0.07c-0.78-0.45-1.44-0.98-2-1.59 c-0.7-0.75-0.66-1.93,0.09-2.63c0.75-0.7,1.93-0.66,2.63,0.09c0.31,0.34,0.69,0.64,1.14,0.9c0.38,0.22,0.83,0.41,1.34,0.58 l1.41-0.23c6.85-1.11,9.54-1.55,16.8,3c0.87,0.55,1.86,1.2,2.81,1.82c2.95,1.95,5.58,3.68,7.51,3.93 c-0.01-0.31-0.02-0.62-0.03-0.92c-1.7-0.67-3.57-2.17-5.26-3.94c-2.48-2.59-4.74-5.88-5.46-7.84c-0.55-1.5-0.81-2.88-1.09-4.38 c-0.24-1.28-0.5-2.65-0.99-4.23c-0.31,0.11-0.62,0.2-0.93,0.28c-3.71,0.88-5.28-0.43-7.24-2.06c-0.54-0.45-1.12-0.93-1.77-1.34 c-1.94-1.22-2.07-1.23-3.29-1.31c-0.32-0.02-0.7-0.05-1.39-0.11c-1.02-0.1-1.77-1-1.68-2.03c0.1-1.02,1-1.77,2.03-1.68 c0.4,0.04,0.89,0.07,1.29,0.1c2.04,0.14,2.26,0.15,5.01,1.88c0.88,0.55,1.55,1.11,2.18,1.63c1.16,0.96,2.09,1.74,4.02,1.29 c0.12-0.03,0.24-0.06,0.36-0.1c-0.12-0.23-0.24-0.45-0.36-0.68c-0.65-1.23-1.29-2.45-1.75-3.97c-0.25-0.83-0.39-1.52-0.43-2.11 c-0.26-1.1-0.6-1.91-1.02-2.44c-0.32-0.42-0.7-0.66-1.12-0.75c-1.01-0.21-1.65-1.2-1.44-2.21c0.21-1.01,1.2-1.65,2.21-1.44 c1.29,0.27,2.4,0.96,3.3,2.14c0.08,0.11,0.17,0.23,0.25,0.34c0.59-0.69,1.23-1.64,1.61-3.44c0.21-1.01,1.2-1.65,2.21-1.44 c1.01,0.21,1.65,1.2,1.44,2.21c-0.69,3.25-1.97,4.62-2.97,5.68c-0.54,0.57-0.91,0.96-0.48,2.39c0.35,1.18,0.92,2.24,1.47,3.3 c0.48,0.91,0.96,1.82,1.38,2.9c1.01,2.62,1.4,4.66,1.75,6.51c0.25,1.33,0.48,2.55,0.93,3.78c0.57,1.55,2.49,4.29,4.64,6.54 c0.81,0.85,1.63,1.6,2.38,2.17c-0.06-0.98-0.13-1.93-0.21-2.88c-0.37-4.36-0.93-8.56-1.73-14.38c-0.32-2.31-0.57-5.83-0.74-9.59 c-0.21-4.41-0.31-9.2-0.31-12.75c-0.12-3.07-1.09-5.03-2.84-5.96c-1.93-1.03-4.88-1.03-8.77-0.09c-2.85,1.14-5.5,2.52-7.91,4.16 c-2.43,1.65-4.62,3.57-6.55,5.79c-5.04,5.78-8.99,15.17-11.85,25.45c-3.6,12.95-5.44,27.23-5.55,37.57l0,0.04h0 c-0.18,6.64,0.86,11.28,2.87,14.35c1.89,2.89,4.73,4.41,8.26,4.95l0.04,0.01c3.52,0.32,7.27,0.64,10.86,0.48 c3.49-0.15,6.82-0.76,9.6-2.29c0.76-0.41,1.47-0.85,2.14-1.3c0.69-0.46,1.36-0.96,1.99-1.48c2.29-1.89,4.03-4.16,5.39-6.67 c1.39-2.56,2.4-5.38,3.21-8.32c0.67-2.43,1.17-4.93,1.56-7.49c0.33-2.16,0.56-4.33,0.75-6.52c-3.75,1.43-6.62,4.21-9.66,7.14 c-0.48,0.46-0.96,0.93-1.43,1.37c-0.7,0.67-1.41,1.32-2.16,1.94c-0.89,2.47-1.08,4.91-1.24,7.07c-0.31,4.07-0.56,7.34-4.42,9.49 c-0.9,0.5-2.03,0.18-2.53-0.72c-0.5-0.9-0.18-2.03,0.72-2.53c2.1-1.17,2.28-3.55,2.51-6.51c0.09-1.21,0.19-2.5,0.4-3.86 c-0.63,0.29-1.3,0.54-2.02,0.76c-1.89,0.58-3.82,0.79-5.77,0.59C22.9,99.6,20.95,99,19,97.96c-1.21,0.96-2.19,1.69-4.41,1.88 c-1.03,0.08-1.93-0.69-2.01-1.71c-0.08-1.03,0.69-1.93,1.71-2.01c1.17-0.1,1.75-0.56,2.49-1.15l0.24-0.19 c-0.15-0.17-0.32-0.34-0.51-0.52c-0.75-0.7-0.78-1.88-0.08-2.63c0.7-0.75,1.88-0.78,2.63-0.08c0.64,0.6,1.16,1.21,1.58,1.92 c0.29,0.48,0.52,0.97,0.72,1.52c1.3,0.62,2.58,0.98,3.83,1.11c1.45,0.15,2.89-0.01,4.31-0.45c1.48-0.45,2.73-1.12,3.87-1.92 c1.17-0.82,2.27-1.82,3.37-2.86c0.5-0.47,0.96-0.92,1.41-1.36C41.86,85.94,45.32,82.6,50.49,81.09L50.49,81.09z M52.67,59.54 c0.22-1.64,0.45-3.4,0.72-5.33c0.3-2.21,0.54-5.61,0.71-9.25c0.21-4.44,0.31-9.2,0.31-12.66c0-0.02,0-0.05,0-0.07h0 c0.12-2.97,0.87-5.28,2.21-6.96V5.14c0-0.38-0.16-0.73-0.41-0.99c-0.26-0.26-0.61-0.41-0.99-0.41h-4.19 c-0.39,0-0.74,0.16-0.99,0.41l-0.01,0.01c-0.25,0.25-0.41,0.6-0.41,0.99v21.51c0.78,1.5,1.22,3.35,1.31,5.58h0 c0,0.02,0,0.05,0,0.07c-0.01,3.46,0.1,8.22,0.31,12.66c0.17,3.65,0.41,7.05,0.71,9.25C52.21,56.14,52.45,57.9,52.67,59.54 L52.67,59.54z M60.35,22.61c2.67-0.98,6.15-0.91,10.38,0.12c0.11,0.03,0.22,0.07,0.33,0.11c3.12,1.25,6.02,2.76,8.67,4.56 c2.7,1.83,5.13,3.96,7.27,6.42c5.44,6.24,9.64,16.14,12.64,26.91c3.68,13.24,5.56,27.87,5.68,38.5h0 c0.21,7.46-1.05,12.8-3.47,16.49c-2.53,3.87-6.24,5.9-10.82,6.6c-0.09,0.01-0.18,0.02-0.27,0.02c-3.65,0.33-7.55,0.66-11.35,0.5 c-4-0.17-7.88-0.9-11.24-2.74c-0.81-0.45-1.62-0.93-2.42-1.47c-0.78-0.53-1.55-1.09-2.28-1.7c-2.7-2.23-4.72-4.86-6.3-7.76 c-1.55-2.85-2.65-5.93-3.53-9.11c-0.37-1.36-0.7-2.72-0.98-4.08c-0.28,1.36-0.6,2.73-0.98,4.08c-0.88,3.18-1.98,6.26-3.53,9.11 c-1.57,2.9-3.6,5.54-6.3,7.76c-0.74,0.61-1.5,1.18-2.29,1.7c-0.8,0.54-1.61,1.03-2.42,1.47c-3.35,1.84-7.23,2.57-11.24,2.74 c-3.8,0.16-7.7-0.17-11.35-0.5c-0.09,0-0.18-0.01-0.27-0.02c-4.58-0.69-8.29-2.72-10.82-6.6c-2.41-3.69-3.67-9.04-3.47-16.49h0 c0.12-10.63,2-25.26,5.68-38.5c2.99-10.76,7.19-20.66,12.64-26.91c2.14-2.45,4.57-4.58,7.27-6.42c2.65-1.8,5.55-3.32,8.67-4.56 c0.1-0.05,0.21-0.08,0.33-0.11c4.72-1.16,8.51-1.1,11.28,0.26V5.14c0-1.41,0.58-2.69,1.51-3.62l0,0l0,0l0,0 C48.34,0.58,49.62,0,51.02,0h4.19c1.41,0,2.7,0.58,3.63,1.51c0.93,0.93,1.51,2.22,1.51,3.63V22.61L60.35,22.61z M55.35,69.09 c-0.09,1.09-0.17,2.18-0.24,3.31c0.9-0.57,1.96-1.51,3-2.6c2.16-2.25,4.08-4.99,4.64-6.54c0.45-1.23,0.68-2.46,0.93-3.78 c0.35-1.86,0.74-3.89,1.75-6.51c0.41-1.07,0.9-1.98,1.38-2.9c0.56-1.06,1.12-2.12,1.47-3.3c0.43-1.42,0.06-1.82-0.48-2.39 c-1.01-1.07-2.28-2.43-2.97-5.68c-0.21-1.01,0.43-2,1.44-2.21c1.01-0.21,2,0.43,2.21,1.44c0.38,1.79,1.02,2.75,1.61,3.44 c0.08-0.12,0.16-0.23,0.25-0.34c0.9-1.18,2.01-1.86,3.3-2.14c1.01-0.21,2,0.43,2.21,1.44c0.21,1.01-0.43,2-1.44,2.21 c-0.42,0.09-0.79,0.33-1.12,0.75c-0.41,0.54-0.75,1.34-1.02,2.44c-0.04,0.59-0.18,1.28-0.43,2.11c-0.46,1.52-1.1,2.74-1.75,3.97 c-0.12,0.23-0.24,0.45-0.36,0.68c0.12,0.04,0.24,0.07,0.36,0.1c1.92,0.45,2.86-0.32,4.02-1.29c0.62-0.52,1.3-1.08,2.18-1.63 c2.75-1.72,2.97-1.74,5.01-1.88c0.4-0.03,0.89-0.06,1.29-0.1c1.02-0.1,1.93,0.65,2.03,1.68c0.1,1.02-0.65,1.93-1.68,2.03 c-0.69,0.06-1.07,0.09-1.39,0.11c-1.22,0.08-1.35,0.09-3.29,1.31c-0.65,0.41-1.23,0.89-1.77,1.34c-1.96,1.63-3.53,2.93-7.24,2.06 c-0.31-0.07-0.62-0.16-0.93-0.28c-0.49,1.57-0.75,2.95-0.99,4.23c-0.28,1.5-0.55,2.88-1.09,4.38c-0.72,1.95-2.98,5.24-5.46,7.84 c-1.9,1.98-4.01,3.62-5.87,4.14c-0.01,0.24-0.01,0.49-0.02,0.74c1.97,0.09,4.84-1.8,8.11-3.96c0.95-0.63,1.94-1.28,2.81-1.82 c7.26-4.55,9.95-4.12,16.8-3l1.41,0.23c0.51-0.16,0.96-0.35,1.34-0.58c0.45-0.26,0.83-0.56,1.14-0.9c0.7-0.75,1.88-0.8,2.63-0.09 c0.75,0.7,0.8,1.88,0.09,2.63c-0.56,0.6-1.22,1.14-2,1.59l-0.12,0.07l0.06,0.13c0.44,0.87,0.73,1.78,0.85,2.6 c0.15,1.02-0.56,1.97-1.57,2.11c-1.02,0.15-1.97-0.56-2.11-1.58c-0.07-0.46-0.23-0.97-0.48-1.47c-0.15-0.29-0.32-0.58-0.51-0.85 c-0.66-0.1-1-0.16-1.33-0.21c-5.85-0.95-8.16-1.33-14.22,2.48c-1.03,0.65-1.91,1.22-2.75,1.78l-0.87,0.57 c1.73,3.62,3.49,3.63,7.1,3.64l0.35,0c0.53-0.8,1.19-1.46,1.95-2c1.03-0.73,2.23-1.22,3.57-1.52c1-0.22,2,0.41,2.22,1.41 c0.22,1-0.41,2-1.41,2.22c-0.86,0.19-1.6,0.49-2.21,0.92c-0.34,0.24-0.65,0.54-0.91,0.89c0.16,0.34,0.35,0.65,0.57,0.94 c0.35,0.45,0.81,0.86,1.38,1.21c0.88,0.54,1.15,1.69,0.61,2.57c-0.54,0.88-1.69,1.15-2.57,0.61c-0.95-0.59-1.74-1.3-2.37-2.12 c-0.35-0.45-0.64-0.92-0.9-1.42l-0.29,0h-0.01c-5.2-0.02-7.74-0.03-10.28-5.36c-2.07,1.19-4.03,2-5.92,2.02 c5.37,1.45,8.91,4.87,12.68,8.51c0.46,0.44,0.92,0.89,1.41,1.36c1.1,1.05,2.2,2.04,3.37,2.86c1.14,0.8,2.39,1.47,3.87,1.92 c1.42,0.43,2.86,0.6,4.31,0.45c1.25-0.13,2.53-0.49,3.83-1.11c0.2-0.55,0.43-1.04,0.72-1.52c0.43-0.7,0.94-1.32,1.58-1.92 c0.75-0.7,1.93-0.67,2.63,0.08c0.7,0.75,0.67,1.93-0.08,2.63c-0.19,0.18-0.36,0.35-0.51,0.52l0.24,0.19 c0.75,0.59,1.33,1.05,2.5,1.15c1.03,0.08,1.79,0.98,1.71,2.01c-0.08,1.03-0.98,1.79-2.01,1.71c-2.22-0.18-3.2-0.92-4.41-1.88 c-1.96,1.04-3.9,1.64-5.83,1.84c-1.95,0.2-3.88-0.01-5.77-0.59c-0.71-0.22-1.38-0.47-2.02-0.76c0.21,1.36,0.31,2.65,0.4,3.86 c0.22,2.96,0.4,5.34,2.51,6.51c0.9,0.5,1.22,1.63,0.72,2.53c-0.5,0.9-1.63,1.22-2.53,0.72c-3.86-2.15-4.11-5.42-4.42-9.49 c-0.16-2.16-0.35-4.6-1.24-7.07c-0.75-0.62-1.45-1.28-2.16-1.94c-0.46-0.44-0.95-0.91-1.43-1.37c-3.2-3.1-6.22-6.01-10.27-7.36 c0.19,2.26,0.43,4.51,0.77,6.74c0.39,2.56,0.89,5.07,1.56,7.49c0.81,2.94,1.82,5.76,3.21,8.32c1.36,2.51,3.1,4.78,5.39,6.67 c0.64,0.53,1.3,1.02,1.99,1.48c0.67,0.45,1.39,0.88,2.14,1.3c2.79,1.53,6.12,2.14,9.6,2.29c3.58,0.16,7.34-0.17,10.86-0.48 l0.04-0.01c3.53-0.54,6.37-2.06,8.26-4.95c2.01-3.07,3.05-7.71,2.87-14.35h0l0-0.04c-0.11-10.35-1.95-24.62-5.55-37.57 c-2.86-10.28-6.81-19.67-11.85-25.45c-1.93-2.22-4.13-4.14-6.55-5.79c-2.41-1.64-5.06-3.02-7.91-4.16 c-3.89-0.94-6.84-0.94-8.77,0.09c-1.75,0.93-2.72,2.89-2.84,5.96c0,3.54-0.1,8.33-0.31,12.75c-0.18,3.76-0.42,7.28-0.74,9.59 C56.28,60.53,55.72,64.72,55.35,69.09L55.35,69.09z"/></g></svg>