<svg xmlns="http://www.w3.org/2000/svg" shape-rendering="geometricPrecision" text-rendering="geometricPrecision" image-rendering="optimizeQuality" fill-rule="evenodd" clip-rule="evenodd" viewBox="0 0 512 418.12"><path fill="#4D4D4D" fill-rule="nonzero" d="M256.01 0c47.69 0 90.88 19.34 122.14 50.6 31.25 31.25 50.59 74.44 50.59 122.13 0 47.7-19.34 90.88-50.59 122.14-31.26 31.25-74.45 50.59-122.14 50.59s-90.88-19.34-122.14-50.59c-31.25-31.26-50.59-74.45-50.59-122.14s19.34-90.88 50.59-122.13C165.13 19.34 208.32 0 256.01 0z"/><path fill="#fff" fill-rule="nonzero" d="M256.01 13.22c44.04 0 83.94 17.85 112.8 46.71l.73.81c28.42 28.79 45.98 68.36 45.98 111.99 0 44.04-17.86 83.93-46.73 112.79l-.8.74c-28.81 28.43-68.38 45.99-111.98 45.99-43.99 0-83.88-17.88-112.75-46.76-28.89-28.83-46.76-68.72-46.76-112.76 0-44.05 17.86-83.93 46.72-112.8 28.86-28.86 68.75-46.71 112.79-46.71z"/><path fill="none" d="M256.01 26.71c80.64 0 146.02 65.38 146.02 146.02 0 80.64-65.38 146.02-146.02 146.02-80.64 0-146.01-65.38-146.01-146.02 0-80.64 65.37-146.02 146.01-146.02z"/><path fill="#D7141A" d="M256.01 26.71c80.64 0 146.02 65.38 146.02 146.02 0 80.64-65.38 146.02-146.02 146.02-80.64 0-146.01-65.38-146.01-146.02 0-80.64 65.37-146.02 146.01-146.02z"/><path fill="#fff" d="M256.01 26.71c80.64 0 146.02 65.38 146.02 146.02H110c0-80.64 65.37-146.02 146.01-146.02z"/><path fill="#11457E" d="M134.8 254.16c-15.66-23.27-24.8-51.29-24.8-81.43 0-30.16 9.13-58.17 24.8-81.43l122.14 81.43-122.14 81.43z"/><path fill="#4D4D4D" fill-rule="nonzero" d="M38.68 265.45h434.63c12.01 0 20.37 9.71 21.98 21.98L512 396.14c0 12.02-9.96 21.98-21.98 21.98H21.97C9.92 418.12 0 408.2 0 396.14l16.71-108.71c2.75-12.8 10.51-21.98 21.97-21.98z"/><path fill="#fff" d="M37.13 274.35h437.73c6.34 0 10.63 5.48 11.54 11.54l16.71 111.8c.91 6.06-5.41 11.53-11.54 11.53H20.42c-6.13 0-12.47-5.25-11.53-11.53l16.7-111.8c.94-6.28 5.19-11.54 11.54-11.54z"/><path fill="#333" fill-rule="nonzero" d="M188.02 326.96h-7.61v-31.32h9.32l5.08 16.73 5.06-16.73h9.33v31.32h-7.57v-19.91l-3.9 13.12h-5.85l-3.86-13.02v19.81zm41.03 0-.98-4.68h-7.51l-1.03 4.68h-8.39l8.05-31.32h10.4l8.04 31.32h-8.58zm-7.17-10.74h4.88l-2.4-11.26-2.48 11.26zm18.19-20.58h14.39c4.79 0 7.17 2.01 7.17 6.05v19.22c0 4.03-2.38 6.05-7.17 6.05h-14.39v-31.32zm13.02 24.63v-17.95c0-.72-.4-1.07-1.21-1.07h-3.27v20.1h3.27c.81 0 1.21-.36 1.21-1.08zm20.84.59h10.69v6.1h-19.23v-31.32h18.79v6.09h-10.25v6.4h8.83v6.09h-8.83v6.64zm23.12-25.22h8.54v31.32h-8.54v-31.32zm26.73 0h7.81v31.32h-7.32l-6.98-16.44v16.44h-7.8v-31.32h7.32l6.97 16.73v-16.73z"/><path fill="#11457E" fill-rule="nonzero" d="M71.8 360.48H59.84v-7.04c0-1.01-.57-1.51-1.71-1.51h-2.38c-1.15 0-1.71.5-1.71 1.51v25.14c0 1.01.56 1.51 1.71 1.51h2.38c1.14 0 1.71-.5 1.71-1.51v-6.76H71.8v7.65c0 5.65-3.35 8.47-10.05 8.47h-9.62c-6.7 0-10.05-2.82-10.05-8.47v-26.92c0-5.65 3.35-8.47 10.05-8.47h9.62c6.7 0 10.05 2.82 10.05 8.47v7.93zm32.04-16.4v8.54L87.38 379.4h15.98v8.54H74.87v-8.54l16.47-26.78H75.76v-8.54h28.08zm16.06 35.32h14.96v8.54h-26.91v-43.86h26.29v8.54H119.9v8.95h12.36v8.54H119.9v9.29zm48.1-18.92h-11.96v-7.04c0-1.01-.57-1.51-1.71-1.51h-2.38c-1.15 0-1.71.5-1.71 1.51v25.14c0 1.01.56 1.51 1.71 1.51h2.38c1.14 0 1.71-.5 1.71-1.51v-6.76H168v7.65c0 5.65-3.35 8.47-10.05 8.47h-9.62c-6.7 0-10.05-2.82-10.05-8.47v-26.92c0-5.65 3.35-8.47 10.05-8.47h9.62c6.7 0 10.05 2.82 10.05 8.47v7.93zm24.8-16.4h11.75v43.86H192.8v-17.35h-8.6v17.35h-11.76v-43.86h11.76v17.97h8.6v-17.97zm42.85 28.28v15.58h-11.96v-43.86h20.29c6.69 0 10.04 2.82 10.04 8.47v11.34c0 4.33-1.96 7-5.87 7.99l8.05 16.06h-12.84l-6.97-15.58h-.74zm4.71-19.74h-4.71v11.61h4.71c1.13 0 1.71-.5 1.71-1.5v-8.61c0-1-.58-1.5-1.71-1.5zm30.41 26.78h14.96v8.54h-26.92v-43.86h26.3v8.54h-14.34v8.95h12.36v8.54h-12.36v9.29zm18.72-35.32h20.29c6.69 0 10.04 2.82 10.04 8.47v12.57c0 5.65-3.35 8.47-10.04 8.47h-8.33v14.35h-11.96v-43.86zm18.38 19.47v-9.43c0-1-.58-1.5-1.71-1.5h-4.71v12.43h4.71c1.13 0 1.71-.5 1.71-1.5zm34.3-19.47h11.95v35.39c0 5.65-3.34 8.47-10.04 8.47h-10.11c-6.7 0-10.04-2.82-10.04-8.47v-35.39h11.95v33.82c0 1 .57 1.5 1.71 1.5h2.87c1.14 0 1.71-.5 1.71-1.5v-33.82zm35.8 16.46v-7.1c0-1.01-.57-1.51-1.71-1.51h-4.91v10.12h4.91c1.14 0 1.71-.5 1.71-1.51zm0 18.04v-7.17c0-1-.57-1.51-1.71-1.51h-4.91v10.19h4.91c1.14 0 1.71-.5 1.71-1.51zm-18.37-34.5h20.08c6.69 0 10.05 2.82 10.05 8.47v5.6c0 3.96-1.1 6.54-3.28 7.73 1.27.54 2.13 1.37 2.59 2.49.45 1.12.69 2.62.69 4.54v6.56c0 5.65-3.36 8.47-10.05 8.47H359.6v-43.86zm47.2 35.32h13.59v8.54h-25.54v-43.86h11.95v35.32zm16.33-35.32h11.96v43.86h-11.96v-43.86zm46.79 16.4h-11.96v-7.04c0-1.01-.56-1.51-1.71-1.51h-2.38c-1.14 0-1.71.5-1.71 1.51v25.14c0 1.01.57 1.51 1.71 1.51h2.38c1.15 0 1.71-.5 1.71-1.51v-6.76h11.96v7.65c0 5.65-3.34 8.47-10.04 8.47h-9.63c-6.7 0-10.05-2.82-10.05-8.47v-26.92c0-5.65 3.35-8.47 10.05-8.47h9.63c6.7 0 10.04 2.82 10.04 8.47v7.93z"/></svg>