<svg xmlns="http://www.w3.org/2000/svg" shape-rendering="geometricPrecision" text-rendering="geometricPrecision" image-rendering="optimizeQuality" fill-rule="evenodd" clip-rule="evenodd" viewBox="0 0 427 511.41"><path fill="#4D4D4D" fill-rule="nonzero" d="M213.5 0c58.33 0 111.15 23.66 149.38 61.89 38.23 38.22 61.89 91.05 61.89 149.38s-23.66 111.15-61.89 149.38c-38.23 38.23-91.05 61.89-149.38 61.89s-111.16-23.66-149.39-61.89C25.88 322.42 2.23 269.6 2.23 211.27S25.88 100.11 64.11 61.89C102.34 23.66 155.16 0 213.5 0z"/><path fill="#fff" fill-rule="nonzero" d="M213.5 16.17c53.86 0 102.66 21.84 137.96 57.14l.9.98c34.75 35.22 56.24 83.61 56.24 136.98 0 53.87-21.85 102.65-57.15 137.95l-.98.91c-35.25 34.77-83.65 56.25-136.97 56.25-53.81 0-102.59-21.87-137.91-57.19-35.34-35.27-57.19-84.05-57.19-137.92 0-53.88 21.84-102.66 57.14-137.96 35.3-35.3 84.09-57.14 137.96-57.14z"/><path fill="#EF2B2D" fill-rule="nonzero" d="M213.5 32.67c98.63 0 178.59 79.96 178.59 178.6 0 98.63-79.96 178.6-178.59 178.6-98.63 0-178.59-79.97-178.59-178.6 0-98.64 79.96-178.6 178.59-178.6z"/><path fill="#fff" fill-rule="nonzero" d="M227.65 33.24v356.07c-4.66.36-9.38.56-14.15.56-28.5 0-55.44-6.69-79.34-18.57V51.24c23.9-11.88 50.84-18.57 79.34-18.57 4.77 0 9.49.2 14.15.57z"/><path fill="#fff" fill-rule="nonzero" d="M42.33 160.18h342.34c4.82 16.18 7.42 33.34 7.42 51.09 0 14.61-1.76 28.8-5.08 42.41H39.99a178.68 178.68 0 0 1-5.08-42.41c0-17.75 2.6-34.91 7.42-51.09z"/><path fill="#002868" fill-rule="nonzero" d="M204.27 32.91v356.72a177.68 177.68 0 0 1-46.75-8.71V41.63c14.82-4.89 30.51-7.9 46.75-8.72z"/><path fill="#002868" fill-rule="nonzero" d="M37.05 183.55h352.9a179.611 179.611 0 0 1 1.12 46.74H35.93a179.611 179.611 0 0 1 1.12-46.74z"/><path fill="#4D4D4D" fill-rule="nonzero" d="M47.32 324.67h332.36c14.69 0 24.92 11.88 26.88 26.89L427 484.52c0 14.7-12.19 26.89-26.88 26.89H26.88C12.13 511.41 0 499.27 0 484.52l20.44-132.96c3.36-15.65 12.85-26.88 26.88-26.89z"/><path fill="#fff" d="M45.42 335.56h336.14c7.76 0 13 6.66 14.11 14.11l20.44 136.75c1.12 7.45-6.57 14.11-14.11 14.11H24.98c-7.54 0-15.26-6.43-14.11-14.11l20.44-136.75c1.14-7.68 6.34-14.11 14.11-14.11z"/><path fill="#333" fill-rule="nonzero" d="M130.35 399.91h-9.3V361.6h11.39l6.21 20.47 6.2-20.47h11.41v38.31H147v-24.35l-4.77 16.05h-7.16l-4.72-15.93v24.23zm50.19 0-1.2-5.73h-9.19l-1.26 5.73h-10.26l9.85-38.31h12.71l9.84 38.31h-10.49zm-8.77-13.14h5.96L174.8 373l-3.03 13.77zm22.24-25.17h17.61c5.85 0 8.77 2.46 8.77 7.4v23.51c0 4.93-2.92 7.4-8.77 7.4h-17.61V361.6zm15.94 30.13v-21.96c0-.88-.5-1.31-1.49-1.31h-4v24.59h4c.99 0 1.49-.45 1.49-1.32zm25.48.71h13.07v7.47h-23.51V361.6h22.97v7.45h-12.53v7.83h10.8v7.45h-10.8v8.11zm28.28-30.84h10.44v38.31h-10.44V361.6zm32.69 0h9.55v38.31H297l-8.53-20.12v20.12h-9.55V361.6h8.96l8.52 20.47V361.6z"/><path fill="#002868" fill-rule="nonzero" d="M95.04 420.84h13.37v53.65H95.88l-11.95-28.16v28.16H70.56v-53.65h12.53l11.95 28.67v-28.67zm32.09 0h12.37c8.18 0 12.29 3.45 12.29 10.37v32.92c0 6.91-4.11 10.36-12.29 10.36h-12.37c-8.19 0-12.28-3.45-12.28-10.36v-32.92c0-6.92 4.09-10.37 12.28-10.37zm10.03 41.37v-29.08c0-1.23-.7-1.84-2.09-1.84h-3.51c-1.39 0-2.08.61-2.08 1.84v29.08c0 1.23.69 1.84 2.08 1.84h3.51c1.39 0 2.09-.61 2.09-1.84zm35.68-6.77v19.05h-14.62v-53.65h24.81c8.19 0 12.29 3.45 12.29 10.37v13.86c0 5.3-2.4 8.57-7.19 9.78l9.86 19.64h-15.71l-8.52-19.05h-.92zm5.77-24.15h-5.77v14.2h5.77c1.38 0 2.09-.61 2.09-1.83v-10.53c0-1.23-.71-1.84-2.09-1.84zm73.78-10.45h14.46l-11.36 53.65H238.7l-5.94-32-5.93 32h-16.79l-11.37-53.65h15.21l4.51 36.1 7.19-36.1h14.28l7.19 36.1 5.34-36.1zm45.97 53.65-1.67-8.02h-12.88l-1.75 8.02h-14.37l13.78-53.65h17.8l13.79 53.65h-14.7zm-12.29-18.39h8.36l-4.1-19.3-4.26 19.3zm56.41 18.39h-14.62v-17.38l-14.8-36.27h14.97l7.01 22.65 6.51-22.65h14.88l-13.95 36.1v17.55z"/></svg>