<svg xmlns="http://www.w3.org/2000/svg" shape-rendering="geometricPrecision" text-rendering="geometricPrecision" image-rendering="optimizeQuality" fill-rule="evenodd" clip-rule="evenodd" viewBox="0 0 450 512.51"><path fill="#4D4D4D" fill-rule="nonzero" d="M224.99 0c58.46 0 111.4 23.71 149.71 62.02s62.02 91.25 62.02 149.71c0 58.46-23.71 111.39-62.02 149.7-38.31 38.32-91.25 62.02-149.71 62.02-58.45 0-111.4-23.7-149.71-62.02-38.31-38.31-62.02-91.25-62.02-149.7 0-58.46 23.71-111.4 62.02-149.71S166.53 0 224.99 0z"/><path fill="#fff" fill-rule="nonzero" d="M224.99 16.2c53.99 0 102.88 21.89 138.26 57.27 35.38 35.37 57.26 84.26 57.26 138.25 0 53.99-21.9 102.88-57.27 138.26l-.98.9c-35.33 34.86-83.83 56.37-137.27 56.37-53.92 0-102.81-21.91-138.2-57.31-35.42-35.34-57.32-84.23-57.32-138.22 0-53.95 21.91-102.83 57.27-138.19 35.37-35.44 84.28-57.33 138.25-57.33z"/><path fill="#fff" fill-rule="nonzero" d="M224.99 32.74c98.85 0 178.98 80.13 178.98 178.98s-80.13 178.99-178.98 178.99c-98.84 0-178.97-80.14-178.97-178.99 0-98.85 80.13-178.98 178.97-178.98z"/><path fill="red" fill-rule="nonzero" d="M403.97 212.08H46.02v-.36c0-98.85 80.13-178.98 178.97-178.98 98.85 0 178.98 80.13 178.98 178.98v.36z"/><path fill="#4D4D4D" fill-rule="nonzero" d="M47.42 325.37h355.16c14.72 0 24.97 11.91 26.94 26.95L450 485.57c0 14.73-12.21 26.94-26.94 26.94H26.93C12.16 512.51 0 500.35 0 485.57l20.48-133.25c3.37-15.69 12.88-26.94 26.94-26.95z"/><path fill="#fff" d="M45.51 336.28h358.98c7.77 0 13.02 6.64 14.14 14.14l20.48 137.05c1.13 7.51-6.55 14.14-14.14 14.14H25.03c-7.59 0-15.29-6.45-14.14-14.14l20.48-137.05c1.15-7.69 6.36-14.14 14.14-14.14z"/><path fill="#333" fill-rule="nonzero" d="M141.67 400.77h-9.33v-38.39h11.42l6.22 20.51 6.21-20.51h11.44v38.39h-9.28v-24.4l-4.78 16.08h-7.18l-4.72-15.96v24.28zm50.29 0-1.2-5.74h-9.21l-1.26 5.74h-10.28l9.86-38.39h12.75l9.86 38.39h-10.52zm-8.79-13.16h5.98l-2.94-13.81-3.04 13.81zm22.29-25.23h17.65c5.86 0 8.78 2.46 8.78 7.42v23.56c0 4.94-2.92 7.41-8.78 7.41h-17.65v-38.39zm15.97 30.19v-22c0-.88-.5-1.31-1.49-1.31h-4.01v24.64h4.01c.99 0 1.49-.45 1.49-1.33zm25.54.72h13.1v7.48h-23.56v-38.39h23.02v7.47h-12.56v7.84h10.82v7.47h-10.82v8.13zm28.34-30.91h10.47v38.39h-10.47v-38.39zm32.76 0h9.57v38.39h-8.97l-8.55-20.16v20.16h-9.56v-38.39h8.97l8.54 20.51v-20.51z"/><path fill="red" fill-rule="nonzero" d="M54.84 421.75H69.5v53.77H54.84v-53.77zm45.88 0h13.4v53.77h-12.56l-11.97-28.23v28.23h-13.4v-53.77h12.56l11.97 28.73v-28.73zm20.95 0h24.7c8.21 0 12.31 3.46 12.31 10.39v32.99c0 6.93-4.1 10.39-12.31 10.39h-24.7v-53.77zm22.35 42.3v-30.82c0-1.23-.69-1.85-2.09-1.85h-5.61v34.51h5.61c1.4 0 2.09-.61 2.09-1.84zm33.15-42.3h12.41c8.2 0 12.31 3.46 12.31 10.39v32.99c0 6.93-4.11 10.39-12.31 10.39h-12.41c-8.2 0-12.29-3.46-12.29-10.39v-32.99c0-6.93 4.09-10.39 12.29-10.39zm10.06 41.46v-29.14c0-1.24-.7-1.85-2.09-1.85h-3.53c-1.38 0-2.08.61-2.08 1.85v29.14c0 1.23.7 1.84 2.08 1.84h3.53c1.39 0 2.09-.61 2.09-1.84zm45.63-41.46h13.4v53.77H233.7l-11.97-28.23v28.23h-13.4v-53.77h12.56l11.97 28.73v-28.73zm34.77 43.3h18.33v10.47h-32.99v-53.77h32.23v10.47h-17.57v10.97h15.15v10.47h-15.15v11.39zm43.54-1.84v-7.63c0-1.23-.7-1.83-2.09-1.83h-8.04c-4.13 0-7.05-.92-8.75-2.72-1.7-1.82-2.56-4.43-2.56-7.84v-11.05c0-6.93 4.08-10.39 12.22-10.39h11.48c8.16 0 12.23 3.46 12.23 10.39v6.44H311v-4.51c0-1.24-.69-1.85-2.09-1.85h-2.42c-1.41 0-2.1.61-2.1 1.85v7.94c0 1.24.69 1.85 2.1 1.85h7.87c4.12 0 7.07.87 8.83 2.6 1.75 1.72 2.64 4.26 2.64 7.62v11.05c0 6.93-4.09 10.39-12.23 10.39h-11.38c-8.22 0-12.32-3.46-12.32-10.39v-6.44h14.66v4.52c0 1.23.69 1.84 2.08 1.84h2.44c1.39 0 2.09-.61 2.09-1.84zm20.52-41.46h14.65v53.77h-14.65v-53.77zm48.73 53.77-1.68-8.04h-12.9l-1.75 8.04h-14.41l13.82-53.77h17.84l13.82 53.77h-14.74zm-12.31-18.43h8.37l-4.1-19.34-4.27 19.34z"/></svg>