<svg xmlns="http://www.w3.org/2000/svg" shape-rendering="geometricPrecision" text-rendering="geometricPrecision" image-rendering="optimizeQuality" fill-rule="evenodd" clip-rule="evenodd" viewBox="0 0 423 511.96"><path fill="#4D4D4D" fill-rule="nonzero" d="M211.5 0c58.4 0 111.28 23.68 149.55 61.95C399.32 100.22 423 153.1 423 211.5c0 58.4-23.68 111.28-61.95 149.55C322.78 399.32 269.9 423 211.5 423c-58.39 0-111.28-23.68-149.55-61.95C23.68 322.78 0 269.89 0 211.5c0-58.4 23.68-111.28 61.95-149.55C100.22 23.68 153.1 0 211.5 0z"/><path fill="#fff" fill-rule="nonzero" d="M211.5 16.18c53.92 0 102.77 21.87 138.11 57.21l.9.98c34.79 35.26 56.3 83.7 56.3 137.13 0 53.93-21.87 102.77-57.21 138.1l-.98.91c-35.29 34.81-83.74 56.31-137.12 56.31-53.86 0-102.7-21.89-138.05-57.25-35.38-35.3-57.26-84.14-57.26-138.07 0-53.94 21.86-102.78 57.2-138.11 35.34-35.34 84.18-57.21 138.11-57.21z"/><path fill="#fff" fill-rule="nonzero" d="M201.06 389.98h20.88c93.89-5.4 168.35-83.25 168.35-178.48 0-94.53-73.39-171.92-166.28-178.35h-25.02C106.1 39.58 32.72 116.97 32.72 211.5c0 95.23 74.45 173.08 168.34 178.48z"/><path fill="#dc143c" fill-rule="nonzero" d="M201.06 389.98h20.88c93.86-5.4 168.31-83.21 168.35-178.41H32.72c.04 95.2 74.48 173.01 168.34 178.41z"/><path fill="#4D4D4D" fill-rule="nonzero" d="M67.3 325.03h288.4c14.71 0 24.95 11.89 26.91 26.91l20.46 133.11c0 14.71-12.2 26.91-26.91 26.91H46.84c-14.76 0-26.9-12.15-26.9-26.91L40.4 351.94c3.36-15.67 12.86-26.91 26.9-26.91z"/><path fill="#fff" d="M65.41 335.92H357.6c7.77 0 13.01 6.66 14.12 14.13l20.47 136.89c1.11 7.48-6.57 14.13-14.13 14.13H44.95c-7.55 0-15.27-6.44-14.12-14.13l20.45-136.89c1.15-7.69 6.36-14.13 14.13-14.13z"/><path fill="#333" fill-rule="nonzero" d="M128.27 400.34h-9.32v-38.35h11.41l6.21 20.49 6.21-20.49h11.42v38.35h-9.27v-24.37l-4.77 16.06h-7.17l-4.72-15.94v24.25zm50.24 0-1.21-5.73h-9.2l-1.25 5.73h-10.27l9.85-38.35h12.73l9.85 38.35h-10.5zm-8.78-13.15h5.96l-2.93-13.79-3.03 13.79zm22.26-25.2h17.63c5.86 0 8.78 2.46 8.78 7.41v23.54c0 4.93-2.92 7.4-8.78 7.4h-17.63v-38.35zm15.95 30.16v-21.98c0-.87-.49-1.31-1.49-1.31h-4v24.61h4c1 0 1.49-.44 1.49-1.32zm25.52.72h13.08v7.47H223v-38.35h23v7.46h-12.54v7.84h10.8v7.46h-10.8v8.12zm28.31-30.88h10.45v38.35h-10.45v-38.35zm32.72 0h9.57v38.35h-8.97l-8.54-20.13v20.13H277v-38.35h8.96l8.53 20.49v-20.49z"/><path fill="#dc143c" fill-rule="nonzero" d="M83.42 421.3h24.84c8.19 0 12.3 3.46 12.3 10.38v15.38c0 6.92-4.11 10.38-12.3 10.38h-10.2v17.57H83.42V421.3zm22.5 23.84V433.6c0-1.23-.71-1.84-2.09-1.84h-5.77v15.22h5.77c1.38 0 2.09-.61 2.09-1.84zm33.37-23.84h12.39c8.19 0 12.3 3.46 12.3 10.38v32.95c0 6.93-4.11 10.38-12.3 10.38h-12.39c-8.19 0-12.28-3.45-12.28-10.38v-32.95c0-6.92 4.09-10.38 12.28-10.38zm10.05 41.41V433.6c0-1.23-.7-1.84-2.09-1.84h-3.52c-1.39 0-2.08.61-2.08 1.84v29.11c0 1.23.69 1.85 2.08 1.85h3.52c1.39 0 2.09-.62 2.09-1.85zm37.4 1.85h16.64v10.45h-31.29V421.3h14.65v43.26zm49.02 10.45-1.68-8.03H221.2l-1.76 8.03h-14.39l13.81-53.71h17.82l13.8 53.71h-14.72zm-12.3-18.41h8.36l-4.09-19.32-4.27 19.32zm56.55-35.3h13.38v53.71h-12.55l-11.95-28.2v28.2H255.5V421.3h12.55l11.96 28.69V421.3zm22.59 0h24.68c8.2 0 12.3 3.46 12.3 10.38v32.95c0 6.93-4.1 10.38-12.3 10.38H302.6V421.3zm22.34 42.25v-30.79c0-1.23-.7-1.84-2.1-1.84h-5.6v34.47h5.6c1.4 0 2.1-.61 2.1-1.84z"/></svg>