<svg xmlns="http://www.w3.org/2000/svg" shape-rendering="geometricPrecision" text-rendering="geometricPrecision" image-rendering="optimizeQuality" fill-rule="evenodd" clip-rule="evenodd" viewBox="0 0 427 511.41"><path fill="#4D4D4D" fill-rule="nonzero" d="M213.5 0c58.33 0 111.15 23.66 149.38 61.89 38.23 38.23 61.89 91.05 61.89 149.38s-23.66 111.16-61.89 149.39c-38.23 38.23-91.05 61.88-149.38 61.88s-111.16-23.65-149.39-61.88C25.88 322.43 2.23 269.6 2.23 211.27c0-58.33 23.65-111.15 61.88-149.38C102.34 23.66 155.16 0 213.5 0z"/><path fill="#fff" fill-rule="nonzero" d="M213.5 16.17c53.87 0 102.66 21.84 137.96 57.14 35.3 35.3 57.14 84.08 57.14 137.96 0 53.87-21.85 102.66-57.15 137.96l-.98.9c-35.25 34.78-83.65 56.25-136.97 56.25-53.81 0-102.59-21.87-137.91-57.19-35.34-35.26-57.19-84.05-57.19-137.92 0-53.84 21.87-102.61 57.14-137.9 35.3-35.36 84.1-57.2 137.96-57.2z"/><path fill="#010066" fill-rule="nonzero" d="M228.87 33.42v177.66H34.97c.11-98.51 79.99-178.33 178.53-178.33 5.18 0 10.31.24 15.37.67z"/><path fill="#FC0" fill-rule="nonzero" d="M133.72 95.29c-24.11 0-43.74 19.52-43.74 43.57 0 24.07 19.63 43.59 43.74 43.59 8.71 0 16.85-2.58 23.65-6.92-3.97 1.35-8.23 2.1-12.69 2.1-21.38 0-38.8-17.31-38.8-38.67 0-21.32 17.34-38.66 38.8-38.66 4.73 0 9.29.86 13.48 2.42-6.97-4.7-15.35-7.43-24.44-7.43zm72.53 66.29-18.41-9.61 5.47 19.68-12.32-16.48-3.85 20.04-3.82-20.04L161 171.6l5.51-19.68-18.46 9.54 13.67-15.36-20.86.79 19.2-8.03-19.2-8.12 20.93.84-13.7-15.42 18.42 9.65-5.41-19.68 12.28 16.42 3.89-20.02 3.76 20.08 12.36-16.48-5.48 19.68 18.45-9.54-13.74 15.35 20.87-.77-19.2 8.08 19.2 8.07-20.87-.84 13.63 15.42z"/><circle fill="none" cx="213.5" cy="211.28" r="178.53"/><path fill="#CC0001" d="M213.5 32.75c98.61 0 178.53 79.92 178.53 178.53S312.11 389.81 213.5 389.81 34.97 309.89 34.97 211.28 114.89 32.75 213.5 32.75z"/><path fill="#fff" d="M295.52 369.89c-24.55 12.73-52.44 19.92-82.02 19.92-29.57 0-57.46-7.19-82.02-19.92h164.04zm61.85-52.91a179.26 179.26 0 0 1-23.83 26.46H93.46c-8.8-8-16.77-16.86-23.83-26.46h287.74zm26.73-52.9c-2.84 9.15-6.39 18-10.59 26.45H53.49c-4.19-8.45-7.75-17.3-10.58-26.45H384.1zm7.93-53v.2c0 8.93-.65 17.68-1.92 26.26H36.89c-1.26-8.58-1.92-17.33-1.92-26.26v-.2h357.06zm-8.03-52.9c2.67 8.56 4.7 17.39 6.06 26.45H36.95c1.36-9.06 3.38-17.89 6.05-26.45h341zm-26.85-52.91c6.13 8.3 11.58 17.15 16.22 26.46H53.64c4.64-9.31 10.09-18.16 16.22-26.46h287.29zm-62.2-52.9a178.887 178.887 0 0 1 38.25 26.45H93.8a179.387 179.387 0 0 1 38.25-26.45h162.9z"/><path fill="#010066" fill-rule="nonzero" d="M228.87 33.42v177.66H34.97c.11-98.51 79.99-178.33 178.53-178.33 5.18 0 10.31.24 15.37.67z"/><path fill="#FC0" fill-rule="nonzero" d="M133.72 95.29c-24.11 0-43.74 19.52-43.74 43.57 0 24.07 19.63 43.59 43.74 43.59 8.71 0 16.85-2.58 23.65-6.92-3.97 1.35-8.23 2.1-12.69 2.1-21.38 0-38.8-17.31-38.8-38.67 0-21.32 17.34-38.66 38.8-38.66 4.73 0 9.29.86 13.48 2.42-6.97-4.7-15.35-7.43-24.44-7.43zm72.53 66.29-18.41-9.61 5.47 19.68-12.32-16.48-3.85 20.04-3.82-20.04L161 171.6l5.51-19.68-18.46 9.54 13.67-15.36-20.86.79 19.2-8.03-19.2-8.12 20.93.84-13.7-15.42 18.42 9.65-5.41-19.68 12.28 16.42 3.89-20.02 3.76 20.08 12.36-16.48-5.48 19.68 18.45-9.54-13.74 15.35 20.87-.77-19.2 8.08 19.2 8.07-20.87-.84 13.63 15.42z"/><path fill="#4D4D4D" fill-rule="nonzero" d="M47.32 324.68h332.36c14.7 0 24.92 11.87 26.88 26.88L427 484.53c0 14.69-12.19 26.88-26.88 26.88H26.88C12.13 511.41 0 499.27 0 484.53l20.44-132.97c3.36-15.65 12.85-26.88 26.88-26.88z"/><path fill="#fff" d="M45.42 335.56h336.14c7.76 0 13 6.66 14.11 14.11l20.45 136.75c1.11 7.46-6.58 14.11-14.11 14.11H24.98c-7.54 0-15.26-6.43-14.11-14.11l20.44-136.75c1.14-7.68 6.34-14.11 14.11-14.11z"/><path fill="#333" fill-rule="nonzero" d="M128.68 399.91h-9.3V361.6h11.39l6.21 20.47 6.2-20.47h11.4v38.31h-9.25v-24.35l-4.77 16.05h-7.16l-4.72-15.93v24.23zm50.19 0-1.21-5.73h-9.18l-1.26 5.73h-10.26l9.84-38.31h12.72l9.84 38.31h-10.49zm-8.77-13.14h5.96L173.13 373l-3.03 13.77zm22.24-25.17h17.61c5.85 0 8.77 2.46 8.77 7.4v23.51c0 4.93-2.92 7.4-8.77 7.4h-17.61V361.6zm15.93 30.13v-21.96c0-.87-.49-1.31-1.49-1.31h-4v24.59h4c1 0 1.49-.45 1.49-1.32zm25.49.72h13.07v7.46h-23.51V361.6h22.97v7.45h-12.53v7.83h10.79v7.45h-10.79v8.12zm28.28-30.85h10.44v38.31h-10.44V361.6zm32.69 0h9.55v38.31h-8.95l-8.54-20.11v20.11h-9.54V361.6h8.96l8.52 20.47V361.6z"/><path fill="#010066" fill-rule="nonzero" d="M62 474.5H48.97v-53.65h15.96l8.69 28.66 8.69-28.66h15.96v53.65H85.32v-34.1l-6.68 22.48H68.6L62 440.57v33.93zm70.29 0-1.68-8.03h-12.87l-1.75 8.03h-14.38l13.79-53.65h17.8l13.79 53.65h-14.7zM120 456.11h8.35l-4.09-19.31-4.26 19.31zm44.96 7.94h16.63v10.45h-31.25v-53.65h14.62v43.2zm47.3 10.45-1.67-8.03h-12.88l-1.75 8.03h-14.37l13.78-53.65h17.8l13.79 53.65h-14.7zm-12.29-18.39h8.36l-4.1-19.31-4.26 19.31zm56.41 18.39h-14.62v-17.39l-14.8-36.26h14.97l7.01 22.65 6.51-22.65h14.88l-13.95 36.09v17.56zm37.85-12.29v-7.61c0-1.22-.71-1.83-2.09-1.83h-8.03c-4.11 0-7.03-.91-8.73-2.71-1.69-1.82-2.54-4.42-2.54-7.82v-11.03c0-6.91 4.06-10.36 12.19-10.36h11.45c8.14 0 12.21 3.45 12.21 10.36v6.43h-14.63v-4.51c0-1.23-.69-1.84-2.09-1.84h-2.42c-1.4 0-2.09.61-2.09 1.84v7.93c0 1.23.69 1.85 2.09 1.85h7.86c4.11 0 7.05.86 8.8 2.59 1.76 1.72 2.65 4.26 2.65 7.6v11.03c0 6.92-4.08 10.37-12.21 10.37h-11.36c-8.19 0-12.28-3.45-12.28-10.37v-6.43h14.62v4.51c0 1.23.69 1.84 2.08 1.84h2.43c1.38 0 2.09-.61 2.09-1.84zm20.47-41.36h14.62v53.65H314.7v-53.65zm48.63 53.65-1.67-8.03h-12.88l-1.75 8.03h-14.38l13.79-53.65h17.8l13.79 53.65h-14.7zm-12.29-18.39h8.35l-4.09-19.31-4.26 19.31z"/></svg>