<svg xmlns="http://www.w3.org/2000/svg" shape-rendering="geometricPrecision" text-rendering="geometricPrecision" image-rendering="optimizeQuality" fill-rule="evenodd" clip-rule="evenodd" viewBox="0 0 538 511.89"><path fill="#4D4D4D" fill-rule="nonzero" d="M269 0c58.39 0 111.26 23.68 149.53 61.94 38.26 38.27 61.94 91.14 61.94 149.53s-23.68 111.26-61.94 149.52c-38.27 38.27-91.14 61.95-149.53 61.95-58.38 0-111.26-23.68-149.52-61.95-38.27-38.26-61.95-91.14-61.95-149.52 0-58.39 23.68-111.26 61.95-149.53C157.74 23.68 210.62 0 269 0z"/><path fill="#fff" fill-rule="nonzero" d="M269.01 16.18c53.91 0 102.75 21.86 138.08 57.2l.91.98c34.78 35.25 56.29 83.69 56.29 137.1 0 53.93-21.87 102.76-57.21 138.09l-.98.91c-35.28 34.81-83.72 56.3-137.09 56.3-53.86 0-102.69-21.89-138.04-57.25-35.37-35.29-57.25-84.12-57.25-138.05 0-53.92 21.86-102.75 57.2-138.08 35.33-35.34 84.16-57.2 138.09-57.2z"/><path fill="#fff" fill-rule="nonzero" d="M269.01 32.7c98.72 0 178.76 80.04 178.76 178.76 0 98.73-80.04 178.78-178.76 178.78-98.73 0-178.76-80.05-178.76-178.78 0-98.72 80.03-178.76 178.76-178.76z"/><path fill-rule="nonzero" d="M145.55 146.38 178.47 97l8.24 5.48-32.93 49.38-8.23-5.48zm213.99 21.94-32.92-49.38 8.23-5.48 32.92 49.38-8.23 5.48zm12.34-8.23-32.91-49.38 8.22-5.48 32.93 49.38-8.24 5.48zm12.35-8.23-32.93-49.38 8.24-5.48 32.92 49.38-8.23 5.48zm-57.61 115.23 32.92-49.39 8.23 5.5-32.92 49.38-8.23-5.49zm12.35 8.23 32.91-49.39 8.24 5.5-32.93 49.38-8.22-5.49zm12.33 8.22 32.93-49.38 8.23 5.5-32.92 49.38-8.24-5.5zm-172.83 5.5-32.92-49.38 8.23-5.5 32.93 49.38-8.24 5.5zm12.35-8.23-32.93-49.38 8.24-5.5 32.92 49.39-8.23 5.49zm12.35-8.23-32.93-49.38 8.23-5.5 32.92 49.39-8.22 5.49zm-45.28-117.97 32.93-49.38 8.23 5.48-32.92 49.38-8.24-5.48zm12.35 8.23 32.93-49.38 8.22 5.48-32.92 49.38-8.23-5.48z"/><path fill-rule="nonzero" d="m338.97 239.66 41.15 27.43-41.15-27.43zm0 0L269.01 32.7l69.96 206.96z"/><path fill="#fff" fill-rule="nonzero" d="m340.34 237.6 41.14 27.43-2.73 4.11-41.16-27.43z"/><path fill="#CD2E3A" fill-rule="nonzero" d="M219.62 160.09c18.19-27.26 55.04-34.64 82.31-16.45 27.26 18.18 34.64 55.03 16.46 82.29l-98.77-65.84z"/><path fill="#0047A0" fill-rule="nonzero" d="M219.62 160.09c-18.18 27.28-10.8 64.13 16.46 82.31 27.27 18.17 64.13 10.81 82.31-16.47 9.09-13.63 5.4-32.06-8.23-41.14-13.63-9.09-32.06-5.4-41.15 8.23l-49.39-32.93z"/><path fill="#CD2E3A" fill-rule="nonzero" d="M260.78 151.86c-13.65-9.09-32.07-5.4-41.16 8.23-9.09 13.65-5.4 32.07 8.23 41.16 13.64 9.09 32.06 5.4 41.16-8.23 9.09-13.64 5.4-32.06-8.23-41.16z"/><path fill-rule="nonzero" d="m172.29 257.48 12.35-8.22-12.35 8.22zm166.68-111.1 14.4-9.6-14.4 9.6zm26.75-17.84 12.33-8.23-12.33 8.23zm0 0L269.01 32.7l96.71 95.84z"/><path fill="#fff" fill-rule="nonzero" d="m170.93 255.43 12.35-8.23 2.72 4.11-12.33 8.23-2.74-4.11zm166.66-111.1 14.41-9.6 2.74 4.09-14.4 9.6-2.75-4.09zm26.75-17.84 12.34-8.23 2.75 4.12-12.35 8.23-2.74-4.12z"/><path fill="#4D4D4D" fill-rule="nonzero" d="M47.36 324.98h443.27c14.71 0 24.95 11.89 26.91 26.91L538 484.98c0 14.71-12.2 26.91-26.91 26.91H26.9c-14.76 0-26.9-12.15-26.9-26.91l20.46-133.09c3.36-15.67 12.86-26.91 26.9-26.91z"/><path fill="#fff" d="M45.47 335.87h447.07c7.77 0 13 6.6 14.12 14.13l20.46 136.87c1.13 7.54-6.5 14.13-14.12 14.13H25.02c-7.61 0-15.27-6.44-14.12-14.13L31.35 350c1.15-7.69 6.36-14.13 14.12-14.13z"/><path fill="#333" fill-rule="nonzero" d="M185.78 400.28h-9.31v-38.34h11.4l6.22 20.49 6.2-20.49h11.42v38.34h-9.26v-24.37l-4.78 16.07h-7.17l-4.72-15.95v24.25zm50.23 0-1.2-5.73h-9.2l-1.25 5.73h-10.27l9.85-38.34h12.73l9.85 38.34h-10.51zm-8.77-13.14h5.96l-2.93-13.79-3.03 13.79zm22.26-25.2h17.62c5.86 0 8.78 2.46 8.78 7.41v23.53c0 4.93-2.92 7.4-8.78 7.4H249.5v-38.34zm15.95 30.15v-21.97c0-.88-.5-1.31-1.49-1.31h-4.01v24.61h4.01c.99 0 1.49-.45 1.49-1.33zm25.51.72h13.08v7.47H280.5v-38.34h23v7.46h-12.54v7.83h10.8v7.46h-10.8v8.12zm28.31-30.87h10.45v38.34h-10.45v-38.34zm32.71 0h9.57v38.34h-8.97l-8.54-20.13v20.13h-9.55v-38.34h8.96l8.53 20.49v-20.49z"/><path fill="#CD2E3A" fill-rule="nonzero" d="M75.75 462.64v-7.61c0-1.23-.7-1.83-2.09-1.83h-8.03c-4.12 0-7.04-.92-8.74-2.72-1.7-1.82-2.55-4.42-2.55-7.83v-11.04c0-6.92 4.07-10.37 12.2-10.37H78c8.15 0 12.22 3.45 12.22 10.37v6.44H75.58v-4.51c0-1.23-.69-1.85-2.09-1.85h-2.42c-1.4 0-2.09.62-2.09 1.85v7.94c0 1.23.69 1.84 2.09 1.84h7.86c4.12 0 7.07.86 8.82 2.59s2.64 4.27 2.64 7.61v11.05c0 6.92-4.08 10.37-12.22 10.37H66.8c-8.2 0-12.29-3.45-12.29-10.37v-6.44h14.64v4.51c0 1.23.69 1.85 2.08 1.85h2.43c1.39 0 2.09-.62 2.09-1.85zm31.69-41.4h12.38c8.19 0 12.3 3.45 12.3 10.37v32.96c0 6.92-4.11 10.37-12.3 10.37h-12.38c-8.19 0-12.29-3.45-12.29-10.37v-32.96c0-6.92 4.1-10.37 12.29-10.37zm10.04 41.4v-29.1c0-1.23-.7-1.85-2.09-1.85h-3.52c-1.39 0-2.08.62-2.08 1.85v29.1c0 1.23.69 1.85 2.08 1.85h3.52c1.39 0 2.09-.62 2.09-1.85zm42.57-41.4h14.64v43.33c0 6.92-4.1 10.37-12.3 10.37h-12.37c-8.21 0-12.3-3.45-12.3-10.37v-43.33h14.64v41.4c0 1.23.69 1.85 2.09 1.85h3.51c1.4 0 2.09-.62 2.09-1.85v-41.4zm52.86 0v10.45h-10.37v43.25H187.9v-43.25h-10.28v-10.45h35.29zm27.85 0h14.39v53.7h-14.39v-21.25h-10.53v21.25h-14.39v-53.7h14.39v22h10.53v-22zm66.09 26.27 10.53 27.43h-15.72l-10.04-27.43 9.96-26.27h15.72l-10.45 26.27zm-29.94 27.43v-53.7h14.64v53.7h-14.64zm55.53-53.7h12.39c8.19 0 12.29 3.45 12.29 10.37v32.96c0 6.92-4.1 10.37-12.29 10.37h-12.39c-8.19 0-12.29-3.45-12.29-10.37v-32.96c0-6.92 4.1-10.37 12.29-10.37zm10.05 41.4v-29.1c0-1.23-.71-1.85-2.1-1.85h-3.52c-1.38 0-2.08.62-2.08 1.85v29.1c0 1.23.7 1.85 2.08 1.85h3.52c1.39 0 2.1-.62 2.1-1.85zm34.87-6.77v19.07h-14.64v-53.7h24.84c8.19 0 12.3 3.45 12.3 10.37v13.88c0 5.3-2.41 8.57-7.19 9.79l9.86 19.66h-15.72l-8.53-19.07h-.92zm5.77-24.18h-5.77v14.22h5.77c1.39 0 2.09-.61 2.09-1.83v-10.54c0-1.23-.7-1.85-2.09-1.85zm36.39 32.8h18.32v10.45h-32.96v-53.7h32.2v10.45h-17.56v10.96h15.14v10.46h-15.14v11.38zm49.44 10.45-1.68-8.03H454.4l-1.76 8.03h-14.38l13.8-53.7h17.81l13.8 53.7h-14.71zm-12.3-18.41h8.36l-4.09-19.32-4.27 19.32z"/></svg>