<svg xmlns="http://www.w3.org/2000/svg" shape-rendering="geometricPrecision" text-rendering="geometricPrecision" image-rendering="optimizeQuality" fill-rule="evenodd" clip-rule="evenodd" viewBox="0 0 423 511.96"><path fill="#4D4D4D" fill-rule="nonzero" d="M211.5 0c58.4 0 111.28 23.68 149.55 61.95C399.32 100.22 423 153.1 423 211.5c0 58.4-23.68 111.28-61.95 149.55C322.78 399.32 269.9 423 211.5 423c-58.39 0-111.28-23.68-149.55-61.95C23.68 322.78 0 269.89 0 211.5c0-58.4 23.68-111.28 61.95-149.55C100.22 23.68 153.1 0 211.5 0z"/><path fill="#fff" fill-rule="nonzero" d="M211.5 16.18c53.92 0 102.77 21.87 138.11 57.21l.9.98c34.79 35.26 56.3 83.7 56.3 137.13 0 53.93-21.87 102.77-57.21 138.1l-.98.91c-35.29 34.81-83.74 56.31-137.12 56.31-53.86 0-102.7-21.89-138.05-57.25-35.38-35.3-57.26-84.14-57.26-138.07 0-53.94 21.86-102.78 57.2-138.11 35.34-35.34 84.18-57.21 138.11-57.21z"/><path fill="#005BBB" fill-rule="nonzero" d="M221.75 390.19h-20.49c-94.1-5.31-168.75-83.28-168.75-178.69 0-98.86 80.13-179 178.99-179 98.86 0 179 80.14 179 179 0 95.41-74.66 173.38-168.75 178.69z"/><path fill="#FFD500" fill-rule="nonzero" d="M32.52 210.19h357.96l.02 1.31c0 95.99-75.56 174.31-170.44 178.78h-17.11c-94.89-4.47-170.44-82.79-170.44-178.78l.01-1.31z"/><path fill="#4D4D4D" fill-rule="nonzero" d="M67.3 325.03h288.4c14.71 0 24.95 11.89 26.91 26.91l20.46 133.11c0 14.71-12.2 26.91-26.91 26.91H46.84c-14.76 0-26.9-12.15-26.9-26.91L40.4 351.94c3.36-15.67 12.86-26.91 26.9-26.91z"/><path fill="#fff" d="M65.41 335.92H357.6c7.77 0 13.01 6.66 14.12 14.13l20.47 136.89c1.11 7.48-6.57 14.13-14.13 14.13H44.95c-7.55 0-15.27-6.44-14.12-14.13l20.45-136.89c1.15-7.69 6.36-14.13 14.13-14.13z"/><path fill="#333" fill-rule="nonzero" d="M128.27 400.34h-9.32v-38.35h11.41l6.21 20.49 6.21-20.49h11.42v38.35h-9.27v-24.37l-4.77 16.06h-7.17l-4.72-15.94v24.25zm50.24 0-1.21-5.73h-9.2l-1.25 5.73h-10.27l9.85-38.35h12.73l9.85 38.35h-10.5zm-8.78-13.15h5.96l-2.93-13.79-3.03 13.79zm22.26-25.2h17.63c5.86 0 8.78 2.46 8.78 7.41v23.54c0 4.93-2.92 7.4-8.78 7.4h-17.63v-38.35zm15.95 30.16v-21.98c0-.87-.49-1.31-1.49-1.31h-4v24.61h4c1 0 1.49-.44 1.49-1.32zm25.52.72h13.08v7.47H223v-38.35h23v7.46h-12.54v7.84h10.8v7.46h-10.8v8.12zm28.31-30.88h10.45v38.35h-10.45v-38.35zm32.72 0h9.57v38.35h-8.97l-8.54-20.13v20.13H277v-38.35h8.96l8.53 20.49v-20.49z"/><path fill="#005BBB" fill-rule="nonzero" d="M93.66 421.3h14.64v43.33c0 6.93-4.1 10.38-12.3 10.38H83.62c-8.2 0-12.29-3.45-12.29-10.38V421.3h14.64v41.41c0 1.23.69 1.85 2.09 1.85h3.51c1.4 0 2.09-.62 2.09-1.85V421.3zm52.12 26.27 10.54 27.44h-15.73l-10.03-27.44 9.95-26.27h15.73l-10.46 26.27zm-29.94 27.44V421.3h14.64v53.71h-14.64zm59.81-19.08v19.08h-14.64V421.3h24.85c8.19 0 12.3 3.46 12.3 10.38v13.88c0 5.3-2.41 8.57-7.2 9.79l9.87 19.66H185.1l-8.53-19.08h-.92zm5.77-24.17h-5.77v14.22h5.77c1.39 0 2.1-.62 2.1-1.83V433.6c0-1.23-.71-1.84-2.1-1.84zm50.79 43.25-1.67-8.03h-12.89l-1.75 8.03h-14.39l13.8-53.71h17.82l13.8 53.71h-14.72zm-12.3-18.41h8.36l-4.09-19.32-4.27 19.32zm31.21-35.3h14.64v53.71h-14.64V421.3zm46.67 0h13.38v53.71h-12.55l-11.95-28.2v28.2h-13.39V421.3h12.55l11.96 28.69V421.3zm35.56 43.26h18.32v10.45h-32.96V421.3h32.2v10.46h-17.56v10.96h15.14v10.45h-15.14v11.39z"/></svg>