<svg xmlns="http://www.w3.org/2000/svg" shape-rendering="geometricPrecision" text-rendering="geometricPrecision" image-rendering="optimizeQuality" fill-rule="evenodd" clip-rule="evenodd" viewBox="0 0 423 511.96"><path fill="#4D4D4D" fill-rule="nonzero" d="M211.5 0c58.4 0 111.28 23.68 149.55 61.95C399.32 100.22 423 153.1 423 211.5c0 58.4-23.68 111.28-61.95 149.55C322.78 399.32 269.9 423 211.5 423c-58.39 0-111.28-23.68-149.55-61.95C23.68 322.78 0 269.89 0 211.5c0-58.4 23.68-111.28 61.95-149.55C100.22 23.68 153.1 0 211.5 0z"/><path fill="#fff" fill-rule="nonzero" d="M211.5 16.18c53.92 0 102.77 21.87 138.11 57.21l.9.98c34.79 35.26 56.3 83.7 56.3 137.13 0 53.93-21.87 102.77-57.21 138.1l-.98.91c-35.29 34.81-83.74 56.31-137.12 56.31-53.86 0-102.7-21.89-138.05-57.25-35.38-35.3-57.26-84.14-57.26-138.07 0-53.94 21.86-102.78 57.2-138.11 35.34-35.34 84.18-57.21 138.11-57.21z"/><path fill="#C8102E" fill-rule="nonzero" d="M211.5 32.71c98.74 0 178.79 80.04 178.79 178.79 0 98.74-80.05 178.79-178.79 178.79S32.72 310.24 32.72 211.5c0-98.75 80.04-178.79 178.78-178.79z"/><path fill="#fff" fill-rule="nonzero" d="M37.74 253.7h347.52c3.27-13.54 5.03-27.67 5.03-42.2 0-24.8-5.05-48.41-14.17-69.87H46.89c-9.12 21.46-14.17 45.07-14.17 69.87 0 14.53 1.75 28.66 5.02 42.2z"/><path fill="#4D4D4D" fill-rule="nonzero" d="M61.77 325.03h299.47c14.71 0 24.94 11.89 26.91 26.91l20.46 133.11c0 14.71-12.2 26.91-26.91 26.91H41.31c-14.76 0-26.91-12.15-26.91-26.91l20.46-133.11c3.37-15.67 12.87-26.91 26.91-26.91z"/><path fill="#fff" d="M59.87 335.92h303.26c7.77 0 13.01 6.67 14.13 14.13l20.46 136.89c1.12 7.47-6.58 14.13-14.13 14.13H39.42c-7.55 0-15.28-6.44-14.13-14.13l20.46-136.89c1.15-7.69 6.35-14.13 14.12-14.13z"/><path fill="#333" fill-rule="nonzero" d="M128.27 400.34h-9.32v-38.35h11.41l6.21 20.49 6.21-20.49h11.42v38.35h-9.27v-24.37l-4.77 16.06h-7.17l-4.72-15.94v24.25zm50.24 0-1.21-5.73h-9.2l-1.25 5.73h-10.27l9.85-38.35h12.73l9.85 38.35h-10.5zm-8.78-13.15h5.96l-2.93-13.79-3.03 13.79zm22.26-25.2h17.63c5.86 0 8.78 2.46 8.78 7.41v23.54c0 4.93-2.92 7.4-8.78 7.4h-17.63v-38.35zm15.95 30.16v-21.98c0-.87-.49-1.31-1.49-1.31h-4v24.61h4c1 0 1.49-.44 1.49-1.32zm25.52.72h13.08v7.47H223v-38.35h23v7.46h-12.54v7.84h10.8v7.46h-10.8v8.12zm28.31-30.88h10.45v38.35h-10.45v-38.35zm32.72 0h9.57v38.35h-8.97l-8.54-20.13v20.13H277v-38.35h8.96l8.53 20.49v-20.49z"/><path fill="#C8102E" fill-rule="nonzero" d="m104.18 475.01-1.68-8.03H89.62l-1.76 8.03H73.47l13.8-53.71h17.82l13.81 53.71h-14.72zm-12.3-18.41h8.36l-4.09-19.32-4.27 19.32zm52.7-35.3h14.64v43.33c0 6.93-4.09 10.38-12.3 10.38h-12.37c-8.21 0-12.3-3.45-12.3-10.38V421.3h14.64v41.41c0 1.23.69 1.85 2.09 1.85h3.51c1.4 0 2.09-.62 2.09-1.85V421.3zm41.92 41.41v-7.61c0-1.23-.71-1.84-2.09-1.84h-8.04c-4.12 0-7.04-.91-8.74-2.72-1.7-1.82-2.55-4.42-2.55-7.82v-11.04c0-6.92 4.07-10.38 12.21-10.38h11.46c8.15 0 12.22 3.46 12.22 10.38v6.43h-14.64v-4.51c0-1.23-.69-1.84-2.09-1.84h-2.42c-1.4 0-2.1.61-2.1 1.84v7.94c0 1.23.7 1.85 2.1 1.85h7.86c4.12 0 7.06.86 8.82 2.59 1.75 1.72 2.64 4.26 2.64 7.61v11.04c0 6.93-4.08 10.38-12.22 10.38h-11.37c-8.2 0-12.3-3.45-12.3-10.38v-6.43h14.64v4.51c0 1.23.7 1.85 2.08 1.85h2.44c1.38 0 2.09-.62 2.09-1.85zm52.86-41.41v10.46h-10.38v43.25h-14.64v-43.25h-10.28V421.3h35.3zm18.41 34.63v19.08h-14.65V421.3h24.85c8.19 0 12.3 3.46 12.3 10.38v13.88c0 5.3-2.41 8.57-7.2 9.79l9.87 19.66h-15.73l-8.53-19.08h-.91zm5.77-24.17h-5.77v14.22h5.77c1.38 0 2.09-.62 2.09-1.83V433.6c0-1.23-.71-1.84-2.09-1.84zm22.59-10.46h14.64v53.71h-14.64V421.3zm48.68 53.71-1.67-8.03h-12.89l-1.75 8.03h-14.39l13.8-53.71h17.82l13.8 53.71h-14.72zm-12.29-18.41h8.36l-4.1-19.32-4.26 19.32z"/></svg>