<svg xmlns="http://www.w3.org/2000/svg" shape-rendering="geometricPrecision" text-rendering="geometricPrecision" image-rendering="optimizeQuality" fill-rule="evenodd" clip-rule="evenodd" viewBox="0 0 423 511.96"><path fill="#4D4D4D" fill-rule="nonzero" d="M211.5 0c58.4 0 111.28 23.68 149.55 61.95C399.32 100.22 423 153.1 423 211.5c0 58.4-23.68 111.28-61.95 149.55C322.78 399.32 269.9 423 211.5 423c-58.39 0-111.28-23.68-149.55-61.95C23.68 322.78 0 269.89 0 211.5c0-58.4 23.68-111.28 61.95-149.55C100.22 23.68 153.1 0 211.5 0z"/><path fill="#fff" fill-rule="nonzero" d="M211.5 16.18c53.92 0 102.77 21.87 138.11 57.21l.9.98c34.79 35.26 56.3 83.7 56.3 137.13 0 53.93-21.87 102.77-57.21 138.1l-.98.91c-35.29 34.81-83.74 56.31-137.12 56.31-53.86 0-102.7-21.89-138.05-57.25-35.38-35.3-57.26-84.14-57.26-138.07 0-53.94 21.86-102.78 57.2-138.11 35.34-35.34 84.18-57.21 138.11-57.21z"/><path fill="#EF3340" fill-rule="nonzero" d="M211.5 32.71c98.74 0 178.79 80.04 178.79 178.79 0 98.74-80.05 178.79-178.79 178.79S32.72 310.24 32.72 211.5c0-98.75 80.04-178.79 178.78-178.79z"/><path fill="#FDDA25" fill-rule="nonzero" d="M279.64 46.17v330.66c-21 8.68-44.01 13.46-68.14 13.46-98.74 0-178.78-80.05-178.78-178.79 0-98.75 80.04-178.79 178.78-178.79 24.13 0 47.14 4.79 68.14 13.46z"/><path fill-rule="nonzero" d="M139.66 47.74v327.52C76.69 347.59 32.72 284.68 32.72 211.5c0-73.19 43.97-136.09 106.94-163.76z"/><path fill="#4D4D4D" fill-rule="nonzero" d="M67.3 325.03h288.4c14.71 0 24.95 11.89 26.91 26.91l20.46 133.11c0 14.71-12.2 26.91-26.91 26.91H46.84c-14.76 0-26.9-12.15-26.9-26.91L40.4 351.94c3.36-15.67 12.86-26.91 26.9-26.91z"/><path fill="#fff" d="M65.41 335.92H357.6c7.77 0 13.01 6.66 14.12 14.13l20.47 136.89c1.11 7.48-6.57 14.13-14.13 14.13H44.95c-7.55 0-15.27-6.44-14.12-14.13l20.45-136.89c1.15-7.69 6.36-14.13 14.13-14.13z"/><path fill="#333" fill-rule="nonzero" d="M128.27 400.34h-9.32v-38.35h11.41l6.21 20.49 6.21-20.49h11.42v38.35h-9.27v-24.37l-4.77 16.06h-7.17l-4.72-15.94v24.25zm50.24 0-1.21-5.73h-9.2l-1.25 5.73h-10.27l9.85-38.35h12.73l9.85 38.35h-10.5zm-8.78-13.15h5.96l-2.93-13.79-3.03 13.79zm22.26-25.2h17.63c5.86 0 8.78 2.46 8.78 7.41v23.54c0 4.93-2.92 7.4-8.78 7.4h-17.63v-38.35zm15.95 30.16v-21.98c0-.87-.49-1.31-1.49-1.31h-4v24.61h4c1 0 1.49-.44 1.49-1.32zm25.52.72h13.08v7.47H223v-38.35h23v7.46h-12.54v7.84h10.8v7.46h-10.8v8.12zm28.31-30.88h10.45v38.35h-10.45v-38.35zm32.72 0h9.57v38.35h-8.97l-8.54-20.13v20.13H277v-38.35h8.96l8.53 20.49v-20.49z"/><path fill-rule="nonzero" d="M98.2 441.46v-8.7c0-1.23-.71-1.84-2.09-1.84h-6.02v12.39h6.02c1.38 0 2.09-.62 2.09-1.85zm0 22.09v-8.78c0-1.23-.71-1.85-2.09-1.85h-6.02v12.47h6.02c1.38 0 2.09-.61 2.09-1.84zM75.7 421.3h24.59c8.19 0 12.3 3.46 12.3 10.38v6.85c0 4.86-1.35 8.01-4.02 9.46 1.56.67 2.62 1.69 3.18 3.05.55 1.37.84 3.22.84 5.56v8.03c0 6.93-4.11 10.38-12.3 10.38H75.7V421.3zm57.8 43.26h18.32v10.45h-32.96V421.3h32.2v10.46H133.5v10.96h15.14v10.45H133.5v11.39zm37.56 0h16.64v10.45h-31.28V421.3h14.64v43.26zm56.05-24.85h-14.64v-6.95c0-1.23-.71-1.84-2.09-1.84h-3.01c-1.4 0-2.1.61-2.1 1.84v30.79c0 1.23.7 1.84 2.1 1.84h3.01c1.38 0 2.09-.61 2.09-1.84v-8.95h-4.19v-9.29h18.83v19.32c0 6.93-4.11 10.38-12.3 10.38h-11.88c-8.2 0-12.3-3.45-12.3-10.38v-32.95c0-6.92 4.1-10.38 12.3-10.38h11.88c8.19 0 12.3 3.46 12.3 10.38v8.03zm5.85-18.41h14.64v53.71h-14.64V421.3zm43.66 0h14.64v43.33c0 6.93-4.1 10.38-12.3 10.38h-12.38c-8.2 0-12.29-3.45-12.29-10.38V421.3h14.64v41.41c0 1.23.69 1.85 2.09 1.85h3.51c1.39 0 2.09-.62 2.09-1.85V421.3zM311 475.01h-13.04V421.3h15.97l8.7 28.69 8.7-28.69h15.98v53.71h-12.97v-34.14l-6.68 22.51h-10.05L311 441.04v33.97z"/></svg>