<svg xmlns="http://www.w3.org/2000/svg" shape-rendering="geometricPrecision" text-rendering="geometricPrecision" image-rendering="optimizeQuality" fill-rule="evenodd" clip-rule="evenodd" viewBox="0 0 483 512.25"><path fill="#4D4D4D" fill-rule="nonzero" d="M241.5 0c58.43 0 111.34 23.69 149.63 61.99 38.29 38.29 61.99 91.2 61.99 149.63 0 58.43-23.7 111.34-61.99 149.63-38.29 38.29-91.2 61.99-149.63 61.99-58.42 0-111.34-23.7-149.63-61.99-38.29-38.29-61.99-91.21-61.99-149.63 0-58.43 23.7-111.34 61.99-149.63C130.16 23.69 183.07 0 241.5 0z"/><path fill="#fff" fill-rule="nonzero" d="M241.5 16.19c53.95 0 102.83 21.88 138.19 57.24l.9.98c34.81 35.28 56.33 83.75 56.33 137.2 0 53.97-21.88 102.83-57.24 138.19l-.99.91c-35.3 34.83-83.78 56.34-137.19 56.34-53.89 0-102.76-21.9-138.13-57.29-35.4-35.32-57.29-84.18-57.29-138.15 0-53.96 21.88-102.82 57.24-138.18 35.35-35.36 84.22-57.24 138.18-57.24z"/><path fill="#00008b" fill-rule="nonzero" d="M134.97 355.34h213.07c43.9-32.6 72.35-84.84 72.35-143.73 0-98.79-80.09-178.88-178.89-178.88-98.79 0-178.88 80.09-178.88 178.88 0 58.89 28.44 111.13 72.35 143.73z"/><path fill="#fff" d="m157.63 224.34 8.57 26.78 26.37-10-15.61 23.58 24.26 14.32-28.07 2.46 3.91 27.99-19.43-20.53-19.49 20.53 3.9-27.99-28.07-2.46 24.25-14.32-15.61-23.58 26.38 10zm229.7 48.33 4.08 12.71 12.55-4.74-7.38 11.2 3.71 2.21-3.03 5.61-2.54.23.47 3.32-3.2 5.16-4.66-4.92-9.24 9.75 1.78-13.31-13.31-1.19 11.53-6.86-7.46-11.2 12.55 4.74zm-1.46-166.69-7.78 8.21 1.78-13.31-13.31-1.19 9.66-5.76c3.38 3.87 6.6 7.89 9.65 12.05zm-57.12 48.48 4.15 12.8 12.56-4.74-7.46 11.2 11.53 6.86-13.32 1.11 1.79 13.3-9.25-9.74-9.24 9.74 1.86-13.3-13.39-1.11 11.53-6.86-7.38-11.2 12.55 4.74zm88.43 40.03 2.93 7.21c.19 3.29.28 6.59.28 9.91l-.03 2.81-3.18-1.95-7.29 4.49 2.04-8.4-6.61-5.51 8.64-.59 3.22-7.97z"/><path fill="#fff" fill-rule="nonzero" d="m110.86 89.44 146.67 73.33h29.75v-14.83L131.92 70.23a178.364 178.364 0 0 0-21.06 19.21zm140.33-56.45c12.41.65 24.48 2.59 36.09 5.66v6L72.83 151.92c5-14.13 11.73-27.44 19.92-39.68l158.44-79.25z"/><path fill="#fff" fill-rule="nonzero" d="M88.72 118.51h43.47v44.26h44.36v-44.26h110.73V74.16H176.55V44.89c-16.04 6.26-30.95 14.77-44.36 25.12v4.15h-5.17c-15.05 12.55-28.04 27.54-38.3 44.35z"/><path fill="red" fill-rule="nonzero" d="M94.54 109.61h46.48v53.16h26.62v-53.16h119.64V82.98H167.64V48.63c-9.33 4.24-18.23 9.27-26.62 14.98v19.37h-23.83a180.571 180.571 0 0 0-22.65 26.63z"/><path fill="red" fill-rule="nonzero" d="m80.77 133.04 29.21-14.62h19.84l-54.7 27.39c1.73-4.35 3.61-8.59 5.65-12.77zm179.01-99.38c5.18.52 10.31 1.27 15.35 2.24l-76.54 38.26h-19.75l80.94-40.5zm27.5 129.11-88.69-44.35h19.85l68.76 34.43v9.92h.08z"/><path fill="#4D4D4D" fill-rule="nonzero" d="M47.39 325.21H435.6c14.72 0 24.96 11.9 26.93 26.93L483 485.32c0 14.72-12.21 26.93-26.93 26.93H26.92C12.15 512.25 0 500.09 0 485.32l20.47-133.18c3.37-15.68 12.87-26.92 26.92-26.93z"/><path fill="#fff" d="M45.5 336.11h392.02c7.77 0 13.02 6.66 14.13 14.14l20.48 136.97c1.12 7.48-6.58 14.13-14.14 14.13H25.03c-7.56 0-15.28-6.44-14.13-14.13l20.47-136.97c1.15-7.7 6.35-14.14 14.13-14.14z"/><path fill="#333" fill-rule="nonzero" d="M158.22 400.57h-9.32V362.2h11.41l6.22 20.5 6.21-20.5h11.42v38.37h-9.26v-24.39l-4.78 16.07h-7.18l-4.72-15.95v24.27zm50.27 0-1.21-5.74h-9.2l-1.26 5.74h-10.27l9.85-38.37h12.74l9.86 38.37h-10.51zm-8.79-13.16h5.97l-2.93-13.8-3.04 13.8zm22.28-25.21h17.64c5.86 0 8.78 2.46 8.78 7.41v23.55c0 4.93-2.92 7.41-8.78 7.41h-17.64V362.2zm15.96 30.17v-21.99c0-.88-.5-1.31-1.49-1.31h-4.01v24.63h4.01c.99 0 1.49-.45 1.49-1.33zm25.53.72h13.09v7.48h-23.55V362.2h23.01v7.46h-12.55v7.84h10.81v7.46h-10.81v8.13zm28.33-30.89h10.46v38.37H291.8V362.2zm32.74 0h9.57v38.37h-8.97l-8.55-20.15v20.15h-9.55V362.2H316l8.54 20.5v-20.5z"/><path fill="#00008b" fill-rule="nonzero" d="m87.37 475.28-1.68-8.04H72.8l-1.75 8.04h-14.4l13.81-53.74h17.83l13.81 53.74H87.37zm-12.3-18.42h8.36l-4.1-19.34-4.26 19.34zm54.4-35.32h14.65v43.36c0 6.92-4.1 10.38-12.31 10.38h-12.38c-8.21 0-12.3-3.46-12.3-10.38v-43.36h14.64v41.43c0 1.23.7 1.85 2.1 1.85h3.51c1.4 0 2.09-.62 2.09-1.85v-41.43zm43.62 41.43v-7.62c0-1.23-.71-1.83-2.1-1.83h-8.03c-4.13 0-7.05-.92-8.75-2.72-1.7-1.82-2.55-4.43-2.55-7.83v-11.05c0-6.92 4.07-10.38 12.21-10.38h11.47c8.16 0 12.23 3.46 12.23 10.38v6.44h-14.65v-4.52c0-1.23-.69-1.84-2.1-1.84h-2.42c-1.4 0-2.09.61-2.09 1.84v7.95c0 1.23.69 1.85 2.09 1.85h7.87c4.12 0 7.07.86 8.82 2.59 1.76 1.73 2.65 4.27 2.65 7.62v11.05c0 6.92-4.09 10.38-12.23 10.38h-11.38c-8.2 0-12.3-3.46-12.3-10.38v-6.44h14.65v4.51c0 1.23.69 1.85 2.08 1.85h2.43c1.39 0 2.1-.62 2.1-1.85zm54.56-41.43V432h-10.38v43.28h-14.65V432h-10.29v-10.46h35.32zm20.1 34.65v19.09H233.1v-53.74h24.86c8.19 0 12.3 3.46 12.3 10.38v13.89c0 5.3-2.41 8.57-7.2 9.79l9.87 19.68H257.2l-8.54-19.09h-.91zm5.77-24.19h-5.77v14.23h5.77c1.39 0 2.09-.62 2.09-1.83v-10.56c0-1.23-.7-1.84-2.09-1.84zm51.66 43.28-1.68-8.04h-12.89l-1.76 8.04h-14.4l13.81-53.74h17.83l13.81 53.74h-14.72zm-12.31-18.42h8.37l-4.1-19.34-4.27 19.34zm46.71 7.96h16.65v10.46h-31.3v-53.74h14.65v43.28zm21.68-43.28h14.65v53.74h-14.65v-53.74zm50.38 53.74-1.67-8.04h-12.9l-1.75 8.04h-14.4l13.81-53.74h17.83l13.81 53.74h-14.73zm-12.3-18.42h8.36l-4.09-19.34-4.27 19.34z"/></svg>