<svg xmlns="http://www.w3.org/2000/svg" shape-rendering="geometricPrecision" text-rendering="geometricPrecision" image-rendering="optimizeQuality" fill-rule="evenodd" clip-rule="evenodd" viewBox="0 0 560 511.79"><path fill="#4D4D4D" fill-rule="nonzero" d="M280.01 0c58.37 0 111.23 23.67 149.49 61.93 38.26 38.26 61.93 91.12 61.93 149.5 0 58.38-23.67 111.24-61.93 149.5-38.26 38.25-91.12 61.93-149.49 61.93-58.38 0-111.24-23.68-149.5-61.93-38.26-38.26-61.93-91.13-61.93-149.5 0-58.38 23.67-111.24 61.93-149.5C168.77 23.67 221.63 0 280.01 0z"/><path fill="#fff" fill-rule="nonzero" d="M280.01 16.18c53.91 0 102.73 21.85 138.06 57.18s57.18 84.15 57.18 138.06c0 53.92-21.86 102.74-57.19 138.07l-.98.9c-35.28 34.8-83.71 56.29-137.07 56.29-53.85 0-102.67-21.88-138.01-57.23-35.37-35.29-57.24-84.11-57.24-138.03 0-53.87 21.88-102.68 57.19-137.99 35.32-35.4 84.16-57.25 138.06-57.25z"/><path fill="#21468B" fill-rule="nonzero" d="M280.01 32.7c98.71 0 178.72 80.02 178.72 178.72 0 98.71-80.01 178.74-178.72 178.74s-178.73-80.03-178.73-178.74c0-98.7 80.02-178.72 178.73-178.72z"/><path fill="#fff" fill-rule="nonzero" d="M103.82 241.57H456.2c1.67-9.79 2.53-19.87 2.53-30.15 0-98.7-80.01-178.72-178.72-178.72s-178.73 80.02-178.73 178.72c0 10.28.86 20.36 2.54 30.15z"/><path fill="#AE1C28" fill-rule="nonzero" d="M117.47 136.99h325.07C414.32 75.44 352.15 32.7 280.01 32.7c-72.15 0-134.31 42.74-162.54 104.29z"/><path fill="#4D4D4D" fill-rule="nonzero" d="M47.35 324.92h465.29c14.71 0 24.94 11.88 26.91 26.9L560 484.89c0 14.7-12.19 26.9-26.9 26.9H26.9c-14.76 0-26.9-12.15-26.9-26.9l20.45-133.07c3.37-15.66 12.86-26.9 26.9-26.9z"/><path fill="#fff" d="M45.44 335.81h469.1c7.77 0 13.01 6.69 14.13 14.12l20.45 136.85c1.11 7.44-6.6 14.12-14.12 14.12H24.99c-7.52 0-15.27-6.43-14.12-14.12l20.45-136.85c1.14-7.69 6.35-14.12 14.12-14.12z"/><path fill="#333" fill-rule="nonzero" d="M196.79 400.21h-9.32v-38.34h11.41l6.21 20.49 6.2-20.49h11.42v38.34h-9.26v-24.37l-4.78 16.06h-7.16l-4.72-15.94v24.25zm50.22 0-1.2-5.73h-9.2l-1.25 5.73h-10.27l9.85-38.34h12.72l9.85 38.34h-10.5zm-8.78-13.15h5.97l-2.93-13.78-3.04 13.78zm22.26-25.19h17.62c5.86 0 8.78 2.46 8.78 7.41v23.52c0 4.94-2.92 7.41-8.78 7.41h-17.62v-38.34zm15.95 30.15v-21.97c0-.88-.5-1.31-1.49-1.31h-4.01v24.6h4.01c.99 0 1.49-.44 1.49-1.32zm25.5.72h13.08v7.47h-23.53v-38.34h22.99v7.46h-12.54v7.83h10.81v7.46h-10.81v8.12zm28.31-30.87h10.45v38.34h-10.45v-38.34zm32.71 0h9.56v38.34h-8.96l-8.54-20.13v20.13h-9.55v-38.34h8.96l8.53 20.49v-20.49z"/><path fill="#21468B" fill-rule="nonzero" d="M80.08 421.16h13.38v53.69H80.92l-11.96-28.18v28.18H55.58v-53.69h12.55l11.95 28.68v-28.68zm34.71 43.24h18.31v10.45h-32.94v-53.69h32.18v10.45h-17.55v10.96h15.14v10.45h-15.14v11.38zm55.28-43.24v10.45h-10.38v43.24h-14.63v-43.24h-10.28v-10.45h35.29zm28.68 0h14.39v53.69h-14.39v-21.24h-10.53v21.24h-14.39v-53.69h14.39v22h10.53v-22zm35.72 43.24h18.31v10.45h-32.95v-53.69h32.19v10.45h-17.55v10.96h15.13v10.45h-15.13v11.38zm37.55-8.62v19.07h-14.64v-53.69h24.84c8.19 0 12.29 3.45 12.29 10.37v13.88c0 5.3-2.4 8.57-7.19 9.78l9.86 19.66h-15.72l-8.53-19.07h-.91zm5.77-24.17h-5.77v14.22h5.77c1.38 0 2.09-.62 2.09-1.83v-10.54c0-1.23-.71-1.85-2.09-1.85zm37.22 32.79h16.63v10.45h-31.27v-53.69h14.64v43.24zm47.33 10.45-1.67-8.03h-12.89l-1.75 8.03h-14.39l13.8-53.69h17.82l13.8 53.69h-14.72zm-12.29-18.4h8.35l-4.09-19.32-4.26 19.32zm54.85-35.29h13.38v53.69h-12.54l-11.96-28.18v28.18H380.4v-53.69h12.55l11.95 28.68v-28.68zm20.91 0h24.67c8.2 0 12.3 3.45 12.3 10.37v32.95c0 6.92-4.1 10.37-12.3 10.37h-24.67v-53.69zm22.33 42.23v-30.77c0-1.23-.69-1.85-2.09-1.85h-5.6v34.47h5.6c1.4 0 2.09-.62 2.09-1.85zm41.64-.83v-7.62c0-1.23-.7-1.83-2.09-1.83h-8.03c-4.12 0-7.04-.91-8.74-2.72-1.7-1.82-2.55-4.42-2.55-7.82v-11.04c0-6.92 4.07-10.37 12.21-10.37h11.45c8.15 0 12.22 3.45 12.22 10.37v6.44h-14.64v-4.51c0-1.23-.69-1.85-2.09-1.85h-2.42c-1.4 0-2.09.62-2.09 1.85v7.93c0 1.23.69 1.85 2.09 1.85h7.86c4.12 0 7.07.86 8.82 2.59 1.75 1.72 2.64 4.26 2.64 7.61v11.04c0 6.92-4.08 10.37-12.22 10.37h-11.36c-8.2 0-12.3-3.45-12.3-10.37v-6.44h14.64v4.52c0 1.23.69 1.84 2.08 1.84h2.43c1.39 0 2.09-.61 2.09-1.84z"/></svg>