<?xml version="1.0" encoding="UTF-8"?>
<!DOCTYPE svg PUBLIC "-//W3C//DTD SVG 1.1//EN" "http://www.w3.org/Graphics/SVG/1.1/DTD/svg11.dtd">
<!-- Creator: CorelDRAW 2021 (64-Bit) -->
<svg xmlns="http://www.w3.org/2000/svg" xml:space="preserve" width="423px" height="512px" version="1.1" shape-rendering="geometricPrecision" text-rendering="geometricPrecision" image-rendering="optimizeQuality" fill-rule="evenodd" clip-rule="evenodd"
viewBox="0 0 423 511.96"
 xmlns:xlink="http://www.w3.org/1999/xlink"
 xmlns:xodm="http://www.corel.com/coreldraw/odm/2003">
 <g id="Layer_x0020_1">
  <metadata id="CorelCorpID_0Corel-Layer"/>
  <path fill="#4D4D4D" fill-rule="nonzero" d="M211.5 0c58.4,0 111.28,23.68 149.55,61.95 38.27,38.27 61.95,91.15 61.95,149.55 0,58.4 -23.68,111.28 -61.95,149.55 -38.27,38.27 -91.15,61.95 -149.55,61.95 -58.39,0 -111.28,-23.68 -149.55,-61.95 -38.27,-38.27 -61.95,-91.16 -61.95,-149.55 0,-58.4 23.68,-111.28 61.95,-149.55 38.27,-38.27 91.15,-61.95 149.55,-61.95z"/>
  <path fill="white" fill-rule="nonzero" d="M211.5 16.18c53.92,0 102.77,21.87 138.11,57.21l0.9 0.98c34.79,35.26 56.3,83.7 56.3,137.13 0,53.93 -21.87,102.77 -57.21,138.1l-0.98 0.91c-35.29,34.81 -83.74,56.31 -137.12,56.31 -53.86,0 -102.7,-21.89 -138.05,-57.25 -35.38,-35.3 -57.26,-84.14 -57.26,-138.07 0,-53.94 21.86,-102.78 57.2,-138.11 35.34,-35.34 84.18,-57.21 138.11,-57.21z"/>
  <path fill="white" fill-rule="nonzero" d="M211.5 32.71c98.74,0 178.79,80.04 178.79,178.79 0,98.74 -80.05,178.79 -178.79,178.79 -98.74,0 -178.78,-80.05 -178.78,-178.79 0,-98.75 80.04,-178.79 178.78,-178.79z"/>
  <path fill="#003580" fill-rule="nonzero" d="M167.08 38.27l0 135.94 219.3 0c2.55,12.02 3.91,24.5 3.91,37.29 0,6.24 -0.33,12.4 -0.96,18.47l-222.25 0 0 154.76c-20.18,-5.15 -38.98,-13.75 -55.76,-25.13l0 -129.63 -77.65 0c-0.63,-6.07 -0.95,-12.23 -0.95,-18.47 0,-12.79 1.36,-25.27 3.91,-37.29l74.69 0 0 -110.81c16.78,-11.37 35.58,-19.98 55.76,-25.13z"/>
  <path fill="#4D4D4D" fill-rule="nonzero" d="M67.3 325.03l288.4 0c14.71,0 24.95,11.89 26.91,26.91l20.46 133.11c0,14.71 -12.2,26.91 -26.91,26.91l-329.32 0c-14.76,0 -26.9,-12.15 -26.9,-26.91l20.46 -133.11c3.36,-15.67 12.86,-26.91 26.9,-26.91z"/>
  <path fill="white" d="M65.41 335.92l292.19 0c7.77,0 13.01,6.66 14.12,14.13l20.47 136.89c1.11,7.48 -6.57,14.13 -14.13,14.13l-333.11 0c-7.55,0 -15.27,-6.44 -14.12,-14.13l20.45 -136.89c1.15,-7.69 6.36,-14.13 14.13,-14.13z"/>
  <path fill="#333333" fill-rule="nonzero" d="M128.27 400.34l-9.32 0 0 -38.35 11.41 0 6.21 20.49 6.21 -20.49 11.42 0 0 38.35 -9.27 0 0 -24.37 -4.77 16.06 -7.17 0 -4.72 -15.94 0 24.25zm50.24 0l-1.21 -5.73 -9.2 0 -1.25 5.73 -10.27 0 9.85 -38.35 12.73 0 9.85 38.35 -10.5 0zm-8.78 -13.15l5.96 0 -2.93 -13.79 -3.03 13.79zm22.26 -25.2l17.63 0c5.86,0 8.78,2.46 8.78,7.41l0 23.54c0,4.93 -2.92,7.4 -8.78,7.4l-17.63 0 0 -38.35zm15.95 30.16l0 -21.98c0,-0.87 -0.49,-1.31 -1.49,-1.31l-4 0 0 24.61 4 0c1,0 1.49,-0.44 1.49,-1.32zm25.52 0.72l13.08 0 0 7.47 -23.54 0 0 -38.35 23 0 0 7.46 -12.54 0 0 7.84 10.8 0 0 7.46 -10.8 0 0 8.12zm28.31 -30.88l10.45 0 0 38.35 -10.45 0 0 -38.35zm32.72 0l9.57 0 0 38.35 -8.97 0 -8.54 -20.13 0 20.13 -9.55 0 0 -38.35 8.96 0 8.53 20.49 0 -20.49z"/>
  <path fill="#003580" fill-rule="nonzero" d="M111.11 431.76l-17.56 0 0 13.05 15.22 0 0 9.62 -15.22 0 0 20.58 -14.64 0 0 -53.71 32.2 0 0 10.46zm4.61 -10.46l14.64 0 0 53.71 -14.64 0 0 -53.71zm45.83 0l13.38 0 0 53.71 -12.54 0 -11.96 -28.2 0 28.2 -13.39 0 0 -53.71 12.55 0 11.96 28.69 0 -28.69zm34.72 43.26l16.64 0 0 10.45 -31.28 0 0 -53.71 14.64 0 0 43.26zm47.35 10.45l-1.67 -8.03 -12.89 0 -1.75 8.03 -14.4 0 13.81 -53.71 17.82 0 13.8 53.71 -14.72 0zm-12.3 -18.41l8.36 0 -4.09 -19.32 -4.27 19.32zm54.88 -35.3l13.38 0 0 53.71 -12.55 0 -11.96 -28.2 0 28.2 -13.38 0 0 -53.71 12.55 0 11.96 28.69 0 -28.69zm20.92 0l24.67 0c8.21,0 12.3,3.46 12.3,10.38l0 32.95c0,6.93 -4.09,10.38 -12.3,10.38l-24.67 0 0 -53.71zm22.33 42.25l0 -30.79c0,-1.23 -0.69,-1.84 -2.09,-1.84l-5.6 0 0 34.47 5.6 0c1.4,0 2.09,-0.61 2.09,-1.84z"/>
 </g>
</svg>
