<svg xmlns="http://www.w3.org/2000/svg" shape-rendering="geometricPrecision" text-rendering="geometricPrecision" image-rendering="optimizeQuality" fill-rule="evenodd" clip-rule="evenodd" viewBox="0 0 450 512.51"><path fill="#4D4D4D" fill-rule="nonzero" d="M224.99 0c58.46 0 111.39 23.71 149.71 62.02 38.31 38.31 62.01 91.25 62.01 149.71 0 58.45-23.7 111.39-62.01 149.7-38.32 38.31-91.25 62.02-149.71 62.02-58.45 0-111.39-23.71-149.71-62.02-38.31-38.31-62.02-91.25-62.02-149.7 0-58.46 23.71-111.4 62.02-149.71C113.6 23.71 166.53 0 224.99 0z"/><path fill="#fff" fill-rule="nonzero" d="M224.99 16.2c53.98 0 102.88 21.89 138.26 57.26l.9.99c34.83 35.29 56.36 83.79 56.36 137.27 0 53.99-21.9 102.88-57.27 138.26l-.99.9c-35.32 34.85-83.82 56.37-137.26 56.37-53.92 0-102.81-21.91-138.2-57.31-35.42-35.34-57.32-84.23-57.32-138.22 0-53.99 21.89-102.88 57.27-138.26C122.11 38.09 171 16.2 224.99 16.2z"/><g fill-rule="nonzero"><path fill="#A51931" d="M224.99 32.74c98.85 0 178.98 80.13 178.98 178.98s-80.13 178.99-178.98 178.99c-98.84 0-178.97-80.14-178.97-178.99 0-98.85 80.13-178.98 178.97-178.98z"/><path fill="#F4F5F8" d="M65.01 292.01h319.97c12.14-24.14 18.99-51.42 18.99-80.29 0-51.79-22.02-98.43-57.17-131.12H103.19c-35.16 32.69-57.17 79.33-57.17 131.12 0 28.87 6.85 56.15 18.99 80.29z"/><path fill="#2D2A4A" d="M48.1 239.16h353.79c1.37-8.95 2.08-18.11 2.08-27.44 0-28.07-6.47-54.62-18-78.27H64.01c-11.52 23.65-17.99 50.2-17.99 78.27 0 9.33.7 18.49 2.08 27.44z"/></g><path fill="#4D4D4D" fill-rule="nonzero" d="M47.42 325.37h355.16c14.72 0 24.97 11.91 26.94 26.94L450 485.57c0 14.72-12.21 26.94-26.94 26.94H26.93C12.16 512.51 0 500.34 0 485.57l20.48-133.26c3.37-15.68 12.88-26.93 26.94-26.94z"/><path fill="#fff" d="M45.51 336.28h358.98c7.77 0 13.02 6.64 14.14 14.14l20.48 137.04c1.13 7.51-6.55 14.14-14.14 14.14H25.04c-7.59 0-15.3-6.44-14.15-14.14l20.48-137.04c1.15-7.7 6.36-14.14 14.14-14.14z"/><path fill="#333" fill-rule="nonzero" d="M141.68 400.77h-9.33v-38.39h11.42l6.23 20.51 6.21-20.51h11.43v38.39h-9.27v-24.4l-4.78 16.08h-7.18l-4.73-15.96v24.28zm50.29 0-1.2-5.74h-9.21l-1.26 5.74h-10.28l9.86-38.39h12.75l9.86 38.39h-10.52zm-8.78-13.16h5.97l-2.94-13.81-3.03 13.81zm22.29-25.23h17.64c5.87 0 8.79 2.46 8.79 7.41v23.57c0 4.93-2.92 7.41-8.79 7.41h-17.64v-38.39zm15.96 30.19v-22c0-.88-.49-1.31-1.49-1.31h-4.01v24.63h4.01c1 0 1.49-.44 1.49-1.32zm25.54.72h13.1v7.48h-23.56v-38.39h23.02v7.47h-12.56v7.84h10.82v7.47h-10.82v8.13zm28.35-30.91h10.46v38.39h-10.46v-38.39zm32.75 0h9.58v38.39h-8.97l-8.56-20.16v20.16h-9.56v-38.39h8.97l8.54 20.51v-20.51z"/><path fill="#A51931" fill-rule="nonzero" d="M103.03 421.75v10.47H92.64v43.3H77.99v-43.3h-10.3v-10.47h35.34zm28.72 0h14.41v53.77h-14.41v-21.27h-10.54v21.27H106.8v-53.77h14.41v22.03h10.54v-22.03zm48.5 53.77-1.68-8.05h-12.9l-1.75 8.05h-14.41l13.82-53.77h17.84l13.82 53.77h-14.74zm-12.31-18.43h8.37l-4.1-19.35-4.27 19.35zm30.4-35.34H213v53.77h-14.66v-53.77zm36 43.3H251v10.47h-31.31v-53.77h14.65v43.3zm47.4 10.47-1.67-8.05h-12.9l-1.76 8.05H251l13.82-53.77h17.84l13.82 53.77h-14.74zm-12.31-18.43h8.37l-4.1-19.35-4.27 19.35zm54.93-35.34h13.4v53.77H325.2l-11.97-28.23v28.23h-13.4v-53.77h12.56l11.97 28.72v-28.72zm20.95 0h24.7c8.21 0 12.31 3.46 12.31 10.39v32.99c0 6.93-4.1 10.39-12.31 10.39h-24.7v-53.77zm22.35 42.29v-30.82c0-1.23-.69-1.84-2.09-1.84h-5.61v34.51h5.61c1.4 0 2.09-.62 2.09-1.85z"/></svg>