<svg xmlns="http://www.w3.org/2000/svg" shape-rendering="geometricPrecision" text-rendering="geometricPrecision" image-rendering="optimizeQuality" fill-rule="evenodd" clip-rule="evenodd" viewBox="0 0 423 511.96"><path fill="#4D4D4D" fill-rule="nonzero" d="M211.5 0c58.4 0 111.28 23.68 149.55 61.95C399.32 100.22 423 153.1 423 211.5c0 58.4-23.68 111.28-61.95 149.55C322.78 399.32 269.9 423 211.5 423c-58.39 0-111.28-23.68-149.55-61.95C23.68 322.78 0 269.89 0 211.5c0-58.4 23.68-111.28 61.95-149.55C100.22 23.68 153.1 0 211.5 0z"/><path fill="#fff" fill-rule="nonzero" d="M211.5 16.18c53.92 0 102.77 21.87 138.11 57.21 35.34 35.33 57.2 84.17 57.2 138.11 0 53.93-21.87 102.77-57.21 138.1l-.98.91c-35.29 34.81-83.74 56.31-137.12 56.31-53.86 0-102.7-21.89-138.05-57.25-35.38-35.3-57.26-84.14-57.26-138.07 0-53.94 21.86-102.78 57.2-138.11 35.34-35.34 84.18-57.21 138.11-57.21z"/><circle fill="#C52026" cx="211.5" cy="211.5" r="178.94"/><path fill="#FFC60B" fill-rule="nonzero" d="M44.24 274.77h334.52c7.45-19.67 11.53-40.99 11.53-63.27 0-35.13-10.13-67.88-27.63-95.51H60.35c-17.51 27.63-27.63 60.38-27.63 95.51 0 22.28 4.08 43.6 11.52 63.27z"/><path fill="#C8B32F" fill-rule="nonzero" d="M100.02 161.96h14.17v-3.7h-14.17z"/><path fill="none" stroke="#000" stroke-width=".9" stroke-miterlimit="22.926" d="M100.02 161.96h14.17v-3.7h-14.17z"/><path fill="#C8B32F" fill-rule="nonzero" d="M101.54 164.46c.07-.07.14-.07.22-.07h10.61c.08 0 .22 0 .3.08-.38-.15-.6-.45-.6-.83 0-.38.3-.76.68-.84-.08 0-.24.08-.3.08h-10.61c-.08 0-.23 0-.3-.08h.07c.38.15.61.46.61.84-.08.38-.31.68-.68.82z"/><path fill="none" stroke="#000" stroke-width=".9" stroke-miterlimit="22.926" d="M101.54 164.46c.07-.07.14-.07.22-.07h10.61c.08 0 .22 0 .3.08-.38-.15-.6-.45-.6-.83 0-.38.3-.76.68-.84-.08 0-.24.08-.3.08h-10.61c-.08 0-.23 0-.3-.08h.07c.38.15.61.46.61.84-.08.38-.31.68-.68.82z"/><path fill="#C8B32F" fill-rule="nonzero" d="M101.76 164.39h10.61c.38 0 .68.23.68.53 0 .3-.3.53-.68.53h-10.61c-.38 0-.68-.23-.68-.53.08-.3.38-.53.68-.53z"/><path fill="none" stroke="#000" stroke-width=".9" stroke-miterlimit="22.926" d="M101.76 164.39h10.61c.38 0 .68.23.68.53 0 .3-.3.53-.68.53h-10.61c-.38 0-.68-.23-.68-.53.08-.3.38-.53.68-.53z"/><path fill="#C8B32F" fill-rule="nonzero" d="M101.76 161.96h10.61c.38 0 .68.24.68.46 0 .23-.3.46-.68.46h-10.61c-.38 0-.68-.24-.68-.46.08-.22.38-.46.68-.46z"/><path fill="none" stroke="#000" stroke-width=".9" stroke-miterlimit="22.926" d="M101.76 161.96h10.61c.38 0 .68.24.68.46 0 .23-.3.46-.68.46h-10.61c-.38 0-.68-.24-.68-.46.08-.22.38-.46.68-.46z"/><path fill="#265EAC" fill-rule="nonzero" d="M116.99 224.46c-.98 0-1.82-.22-2.5-.52-.6-.3-1.52-.54-2.42-.54-1 0-1.82.24-2.51.54-.61.3-1.51.52-2.5.52-.98 0-1.82-.22-2.5-.6-.6-.3-1.52-.54-2.42-.54-.98 0-1.82.24-2.42.54-.68.3-1.52.52-2.5.52v1.52c.98 0 1.88-.22 2.5-.52.6-.3 1.51-.54 2.42-.54.9 0 1.74.24 2.42.54.61.3 1.52.52 2.5.52.99 0 1.82-.22 2.5-.52.61-.3 1.51-.54 2.51-.54.98 0 1.82.24 2.42.54.68.3 1.52.52 2.5.52v-1.44z"/><path fill="none" stroke="#000" stroke-width=".9" stroke-miterlimit="22.926" d="M116.99 224.46c-.98 0-1.82-.22-2.5-.52-.6-.3-1.52-.54-2.42-.54-1 0-1.82.24-2.51.54-.61.3-1.51.52-2.5.52-.98 0-1.82-.22-2.5-.6-.6-.3-1.52-.54-2.42-.54-.98 0-1.82.24-2.42.54-.68.3-1.52.52-2.5.52v1.52c.98 0 1.88-.22 2.5-.52.6-.3 1.51-.54 2.42-.54.9 0 1.74.24 2.42.54.61.3 1.52.52 2.5.52.99 0 1.82-.22 2.5-.52.61-.3 1.51-.54 2.51-.54.98 0 1.82.24 2.42.54.68.3 1.52.52 2.5.52v-1.44z"/><path fill="#CDCCCB" fill-rule="nonzero" d="M116.99 225.98c-.98 0-1.82-.22-2.5-.54-.6-.3-1.52-.52-2.42-.52-1 0-1.82.22-2.51.52-.61.32-1.51.54-2.5.54-.98 0-1.82-.22-2.5-.54-.6-.3-1.52-.52-2.42-.52-.98 0-1.82.22-2.42.52-.68.32-1.52.54-2.5.54v1.52c.98 0 1.88-.24 2.5-.54.6-.3 1.51-.52 2.42-.52.9 0 1.74.22 2.42.52.61.3 1.52.61 2.5.61.99 0 1.82-.23 2.5-.53.61-.3 1.51-.52 2.51-.52.98 0 1.82.22 2.42.52.68.3 1.52.53 2.5.53v-1.59z"/><path fill="none" stroke="#000" stroke-width=".9" stroke-miterlimit="22.926" d="M116.99 225.98c-.98 0-1.82-.22-2.5-.54-.6-.3-1.52-.52-2.42-.52-1 0-1.82.22-2.51.52-.61.32-1.51.54-2.5.54-.98 0-1.82-.22-2.5-.54-.6-.3-1.52-.52-2.42-.52-.98 0-1.82.22-2.42.52-.68.32-1.52.54-2.5.54v1.52c.98 0 1.88-.24 2.5-.54.6-.3 1.51-.52 2.42-.52.9 0 1.74.22 2.42.52.61.3 1.52.61 2.5.61.99 0 1.82-.23 2.5-.53.61-.3 1.51-.52 2.51-.52.98 0 1.82.22 2.42.52.68.3 1.52.53 2.5.53v-1.59z"/><path fill="#265EAC" fill-rule="nonzero" d="M116.99 227.5c-.98 0-1.82-.24-2.5-.54-.6-.3-1.52-.52-2.42-.52-1 0-1.82.22-2.51.52-.61.3-1.51.54-2.5.54-.98 0-1.82-.24-2.5-.62-.6-.3-1.52-.52-2.42-.52-.98 0-1.82.22-2.42.52-.68.32-1.52.54-2.5.54v1.52c.98 0 1.88-.24 2.5-.54.6-.3 1.51-.52 2.42-.52.9 0 1.74.14 2.42.52.61.3 1.52.54 2.5.54.99 0 1.82-.24 2.5-.54.61-.3 1.51-.52 2.51-.52.98 0 1.82.22 2.42.52.68.3 1.52.54 2.5.54v-1.44z"/><path fill="none" stroke="#000" stroke-width=".9" stroke-miterlimit="22.926" d="M116.99 227.5c-.98 0-1.82-.24-2.5-.54-.6-.3-1.52-.52-2.42-.52-1 0-1.82.22-2.51.52-.61.3-1.51.54-2.5.54-.98 0-1.82-.24-2.5-.62-.6-.3-1.52-.52-2.42-.52-.98 0-1.82.22-2.42.52-.68.32-1.52.54-2.5.54v1.52c.98 0 1.88-.24 2.5-.54.6-.3 1.51-.52 2.42-.52.9 0 1.74.14 2.42.52.61.3 1.52.54 2.5.54.99 0 1.82-.24 2.5-.54.61-.3 1.51-.52 2.51-.52.98 0 1.82.22 2.42.52.68.3 1.52.54 2.5.54v-1.44z"/><path fill="#CDCCCB" fill-rule="nonzero" d="M116.99 230.6c-.98 0-1.82-.23-2.5-.53-.6-.31-1.52-.53-2.42-.53-1 0-1.82.22-2.51.53-.61.3-1.51.53-2.5.53-.98 0-1.82-.23-2.5-.6-.6-.31-1.52-.54-2.42-.54-.98 0-1.82.16-2.42.54-.68.3-1.52.52-2.5.52v-1.51c.98 0 1.88-.23 2.5-.61.6-.3 1.51-.52 2.42-.52.9 0 1.74.14 2.42.52.61.3 1.52.54 2.5.54.99 0 1.82-.24 2.5-.54.61-.3 1.51-.52 2.51-.52.98 0 1.82.22 2.42.52.68.3 1.52.54 2.5.54v1.66z"/><path fill="none" stroke="#000" stroke-width=".9" stroke-miterlimit="22.926" d="M116.99 230.6c-.98 0-1.82-.23-2.5-.53-.6-.31-1.52-.53-2.42-.53-1 0-1.82.22-2.51.53-.61.3-1.51.53-2.5.53-.98 0-1.82-.23-2.5-.6-.6-.31-1.52-.54-2.42-.54-.98 0-1.82.16-2.42.54-.68.3-1.52.52-2.5.52v-1.51c.98 0 1.88-.23 2.5-.61.6-.3 1.51-.52 2.42-.52.9 0 1.74.14 2.42.52.61.3 1.52.54 2.5.54.99 0 1.82-.24 2.5-.54.61-.3 1.51-.52 2.51-.52.98 0 1.82.22 2.42.52.68.3 1.52.54 2.5.54v1.66z"/><path fill="#265EAC" fill-rule="nonzero" d="M116.99 232.11c-.98 0-1.82-.22-2.5-.53-.6-.3-1.52-.52-2.42-.52-1 0-1.82.22-2.51.52-.61.31-1.51.53-2.5.53-.98 0-1.82-.22-2.5-.53-.6-.3-1.52-.52-2.42-.52-.98 0-1.82.22-2.42.52-.68.31-1.52.53-2.5.53v-1.51c.98 0 1.88-.23 2.5-.6.6-.31 1.51-.54 2.42-.54.9 0 1.74.23 2.42.54.61.3 1.52.6 2.5.6.99 0 1.82-.23 2.5-.53.61-.31 1.51-.53 2.51-.53.98 0 1.82.22 2.42.53.68.38 1.52.53 2.5.53v1.51z"/><path fill="none" stroke="#000" stroke-width=".9" stroke-miterlimit="22.926" d="M116.99 232.11c-.98 0-1.82-.22-2.5-.53-.6-.3-1.52-.52-2.42-.52-1 0-1.82.22-2.51.52-.61.31-1.51.53-2.5.53-.98 0-1.82-.22-2.5-.53-.6-.3-1.52-.52-2.42-.52-.98 0-1.82.22-2.42.52-.68.31-1.52.53-2.5.53v-1.51c.98 0 1.88-.23 2.5-.6.6-.31 1.51-.54 2.42-.54.9 0 1.74.23 2.42.54.61.3 1.52.6 2.5.6.99 0 1.82-.23 2.5-.53.61-.31 1.51-.53 2.51-.53.98 0 1.82.22 2.42.53.68.38 1.52.53 2.5.53v1.51z"/><path fill="#C8B32F" fill-rule="nonzero" d="M101.54 218.18c0 .15.07.22.07.38 0 .9-.83 1.66-1.81 1.66h14.53c-.98 0-1.82-.76-1.82-1.66 0-.16 0-.23.08-.38h-11.05z"/><path fill="none" stroke="#000" stroke-width=".9" stroke-miterlimit="22.926" d="M101.54 218.18c0 .15.07.22.07.38 0 .9-.83 1.66-1.81 1.66h14.53c-.98 0-1.82-.76-1.82-1.66 0-.16 0-.23.08-.38h-11.05z"/><path fill="#C8B32F" fill-rule="nonzero" d="M101.76 217.19h10.61c.38 0 .68.23.68.45 0 .3-.3.54-.68.54h-10.61c-.38 0-.68-.24-.68-.54.08-.22.38-.45.68-.45z"/><path fill="none" stroke="#000" stroke-width=".9" stroke-miterlimit="22.926" d="M101.76 217.19h10.61c.38 0 .68.23.68.45 0 .3-.3.54-.68.54h-10.61c-.38 0-.68-.24-.68-.54.08-.22.38-.45.68-.45z"/><path fill="#C8B32F" fill-rule="nonzero" d="M99.86 223.94h14.47v-3.72H99.86z"/><path fill="none" stroke="#000" stroke-width=".9" stroke-miterlimit="22.926" d="M99.86 223.94h14.47v-3.72H99.86z"/><path fill="#AC1F23" fill-rule="nonzero" d="M98.74 204.09c-1.44.82-2.44 1.66-2.28 2.12.08.38.52.68 1.2 1.14 1.06.76 1.68 1.96 1.14 2.57.84-.69 1.38-1.67 1.38-2.87 0-1.22-.54-2.28-1.44-2.96z"/><path fill="none" stroke="#000" stroke-width=".9" stroke-miterlimit="22.926" d="M98.74 204.09c-1.44.82-2.44 1.66-2.28 2.12.08.38.52.68 1.2 1.14 1.06.76 1.68 1.96 1.14 2.57.84-.69 1.38-1.67 1.38-2.87 0-1.22-.54-2.28-1.44-2.96z"/><path fill="#CDCCCB" fill-rule="nonzero" d="M101.91 216.58h10.3v-50.6h-10.3z"/><path fill="none" stroke="#000" stroke-width=".9" stroke-miterlimit="22.926" d="M110.47 166.06v50.45m-1.22-50.45v50.45m-7.34.07h10.3v-50.6h-10.3v50.6z"/><path fill="#AC1F23" fill-rule="nonzero" d="M122.82 184.92c-2.27-.91-6.06-1.59-10.45-1.74-1.52 0-3.18.15-4.93.45-6.14 1.06-10.9 3.49-10.52 5.53v.16s-2.36-5.23-2.36-5.38c-.38-2.2 4.78-5.01 11.67-6.14 2.12-.37 4.24-.53 6.06-.45 4.4 0 8.18.52 10.53 1.44v6.13z"/><path fill="none" stroke="#000" stroke-width=".9" stroke-miterlimit="22.926" d="M122.82 184.92c-2.27-.91-6.06-1.59-10.45-1.74-1.52 0-3.18.15-4.93.45-6.14 1.06-10.9 3.49-10.52 5.53v.16s-2.36-5.23-2.36-5.38c-.38-2.2 4.78-5.01 11.67-6.14 2.12-.37 4.24-.53 6.06-.45 4.4 0 8.18.52 10.53 1.44v6.13z"/><path fill="#AC1F23" fill-rule="nonzero" d="M101.91 191.28c-2.87-.22-4.85-.98-5.07-2.2-.16-.98.76-2.04 2.5-2.95.84.08 1.66.15 2.57.15v5z"/><path fill="none" stroke="#000" stroke-width=".9" stroke-miterlimit="22.926" d="M101.91 191.28c-2.87-.22-4.85-.98-5.07-2.2-.16-.98.76-2.04 2.5-2.95.84.08 1.66.15 2.57.15v5z"/><path fill="#AC1F23" fill-rule="nonzero" d="M112.29 187.42c1.82.3 3.1.68 3.79 1.28l.07.08c.31.68-1.28 2.04-3.86 3.64v-5z"/><path fill="none" stroke="#000" stroke-width=".9" stroke-miterlimit="22.926" d="M112.29 187.42c1.82.3 3.1.68 3.79 1.28l.07.08c.31.68-1.28 2.04-3.86 3.64v-5z"/><path fill="#AC1F23" fill-rule="nonzero" d="M95.48 201.05c-.3-.83 2.5-2.42 6.43-3.86 1.82-.68 3.26-1.29 5.16-2.11 5.44-2.44 9.54-5.24 9.01-6.22l-.07-.08c.3.22.75 5.24.75 5.24.45.9-3.19 3.62-8.26 6.05-1.59.76-5 2.04-6.66 2.58-2.88.98-5.76 2.88-5.46 3.56l-.9-5.16z"/><path fill="none" stroke="#000" stroke-width=".9" stroke-miterlimit="22.926" d="M95.48 201.05c-.3-.83 2.5-2.42 6.43-3.86 1.82-.68 3.26-1.29 5.16-2.11 5.44-2.44 9.54-5.24 9.01-6.22l-.07-.08c.3.22.75 5.24.75 5.24.45.9-3.19 3.62-8.26 6.05-1.59.76-5 2.04-6.66 2.58-2.88.98-5.76 2.88-5.46 3.56l-.9-5.16z"/><path fill="#C8B32F" fill-rule="nonzero" d="m100.48 180.6.45-.15c.37-.15.75.08.98.53.15.31.08.68-.3.99-.15.07-.31.15-.45.22l-.68-1.59zm.75 1.9c1.29-.46 2.12-.99 1.67-1.97-.23-.61-.91-.76-1.9-.38l-1.74.6 1.52 3.87c.15-.08.3-.16.53-.23.15-.08.38-.15.53-.15l-.61-1.74zm4.02-3.49c-.16.08-.38.08-.54.16-.15 0-.37.07-.53.07l.91 4.01 2.8-.53c0-.07-.07-.15-.07-.23v-.22c-.45.15-.99.3-1.67.45l-.9-3.71zm5.6 3.49c.54-1.44 1.14-2.81 1.82-4.25-.16 0-.22.08-.3.08h-.38c-.3 1.06-.76 2.04-1.22 3.03-.52-.99-1.14-1.89-1.52-2.87-.22 0-.44.07-.68.07h-.68c.84 1.29 1.6 2.65 2.36 3.94.07 0 .22-.08.3-.08.08 0 .14.08.3.08zm5.84-3.11c.07-.22.22-.38.3-.52-.16-.16-.6-.38-1.14-.38-1.14-.16-1.82.38-1.9 1.06-.14 1.43 2.13 1.28 1.98 2.26-.08.38-.46.61-.92.53-.52-.07-.9-.3-.98-.75h-.14c-.08.22-.16.45-.32.75.32.23.76.31 1.22.38 1.14.15 2.04-.3 2.12-1.13.16-1.36-2.12-1.44-2.04-2.28 0-.3.3-.52.9-.52.46.08.68.3.84.6h.08zm78.09-17.43h14.17v-3.7h-14.17z"/><path fill="none" stroke="#000" stroke-width=".9" stroke-miterlimit="22.926" d="M194.78 161.96h14.17v-3.7h-14.17z"/><path fill="#C8B32F" fill-rule="nonzero" d="M207.43 164.46c-.08-.07-.14-.07-.22-.07H196.6c-.07 0-.22 0-.3.08.38-.15.6-.45.6-.83 0-.38-.3-.76-.68-.84.08 0 .24.08.31.08h10.6c.08 0 .24 0 .3-.08h-.08c-.36.15-.6.46-.6.84.08.38.3.68.68.82z"/><path fill="none" stroke="#000" stroke-width=".9" stroke-miterlimit="22.926" d="M207.43 164.46c-.08-.07-.14-.07-.22-.07H196.6c-.07 0-.22 0-.3.08.38-.15.6-.45.6-.83 0-.38-.3-.76-.68-.84.08 0 .24.08.31.08h10.6c.08 0 .24 0 .3-.08h-.08c-.36.15-.6.46-.6.84.08.38.3.68.68.82z"/><path fill="#C8B32F" fill-rule="nonzero" d="M196.6 164.39h10.61c.38 0 .68.23.68.53 0 .3-.3.53-.68.53H196.6c-.38 0-.68-.23-.68-.53 0-.3.3-.53.68-.53z"/><path fill="none" stroke="#000" stroke-width=".9" stroke-miterlimit="22.926" d="M196.6 164.39h10.61c.38 0 .68.23.68.53 0 .3-.3.53-.68.53H196.6c-.38 0-.68-.23-.68-.53 0-.3.3-.53.68-.53z"/><path fill="#C8B32F" fill-rule="nonzero" d="M196.6 161.96h10.61c.38 0 .68.24.68.46 0 .23-.3.46-.68.46H196.6c-.38 0-.68-.24-.68-.46 0-.22.3-.46.68-.46z"/><path fill="none" stroke="#000" stroke-width=".9" stroke-miterlimit="22.926" d="M196.6 161.96h10.61c.38 0 .68.24.68.46 0 .23-.3.46-.68.46H196.6c-.38 0-.68-.24-.68-.46 0-.22.3-.46.68-.46z"/><path fill="#265EAC" fill-rule="nonzero" d="M191.98 224.46c.98 0 1.82-.22 2.5-.52.62-.3 1.52-.54 2.42-.54 1 0 1.82.24 2.51.54.6.3 1.51.52 2.5.52.98 0 1.82-.22 2.5-.6.6-.3 1.52-.54 2.42-.54.98 0 1.82.24 2.42.54.62.3 1.52.52 2.5.52v1.52c-.98 0-1.88-.22-2.5-.52-.6-.3-1.5-.54-2.42-.54-.9 0-1.74.24-2.42.54-.6.3-1.52.52-2.5.52-.99 0-1.82-.22-2.5-.52-.61-.3-1.51-.54-2.51-.54-.98 0-1.8.24-2.42.54-.6.3-1.52.52-2.5.52v-1.44z"/><path fill="none" stroke="#000" stroke-width=".9" stroke-miterlimit="22.926" d="M191.98 224.46c.98 0 1.82-.22 2.5-.52.62-.3 1.52-.54 2.42-.54 1 0 1.82.24 2.51.54.6.3 1.51.52 2.5.52.98 0 1.82-.22 2.5-.6.6-.3 1.52-.54 2.42-.54.98 0 1.82.24 2.42.54.62.3 1.52.52 2.5.52v1.52c-.98 0-1.88-.22-2.5-.52-.6-.3-1.5-.54-2.42-.54-.9 0-1.74.24-2.42.54-.6.3-1.52.52-2.5.52-.99 0-1.82-.22-2.5-.52-.61-.3-1.51-.54-2.51-.54-.98 0-1.8.24-2.42.54-.6.3-1.52.52-2.5.52v-1.44z"/><path fill="#CDCCCB" fill-rule="nonzero" d="M191.98 225.98c.98 0 1.82-.22 2.5-.54.62-.3 1.52-.52 2.42-.52 1 0 1.82.22 2.51.52.6.32 1.51.54 2.5.54.98 0 1.82-.22 2.5-.54.6-.3 1.52-.52 2.42-.52.98 0 1.82.22 2.42.52.62.32 1.52.54 2.5.54v1.52c-.98 0-1.88-.24-2.5-.54-.6-.3-1.5-.52-2.42-.52-.9 0-1.74.22-2.42.52-.6.3-1.52.61-2.5.61-.99 0-1.82-.23-2.5-.53-.69-.3-1.51-.52-2.51-.52-.98 0-1.8.22-2.42.52-.6.3-1.52.53-2.5.53v-1.59z"/><path fill="none" stroke="#000" stroke-width=".9" stroke-miterlimit="22.926" d="M191.98 225.98c.98 0 1.82-.22 2.5-.54.62-.3 1.52-.52 2.42-.52 1 0 1.82.22 2.51.52.6.32 1.51.54 2.5.54.98 0 1.82-.22 2.5-.54.6-.3 1.52-.52 2.42-.52.98 0 1.82.22 2.42.52.62.32 1.52.54 2.5.54v1.52c-.98 0-1.88-.24-2.5-.54-.6-.3-1.5-.52-2.42-.52-.9 0-1.74.22-2.42.52-.6.3-1.52.61-2.5.61-.99 0-1.82-.23-2.5-.53-.69-.3-1.51-.52-2.51-.52-.98 0-1.8.22-2.42.52-.6.3-1.52.53-2.5.53v-1.59z"/><path fill="#265EAC" fill-rule="nonzero" d="M191.98 227.5c.98 0 1.82-.24 2.5-.54.62-.3 1.52-.52 2.42-.52 1 0 1.82.22 2.51.52.6.3 1.51.54 2.5.54.98 0 1.82-.24 2.5-.62.6-.3 1.52-.52 2.42-.52.98 0 1.82.22 2.42.52.62.32 1.52.54 2.5.54v1.52c-.98 0-1.88-.24-2.5-.54-.6-.3-1.5-.52-2.42-.52-.9 0-1.74.14-2.42.52-.6.3-1.52.54-2.5.54-.99 0-1.82-.24-2.5-.54-.61-.3-1.51-.52-2.51-.52-.98 0-1.8.22-2.42.52-.6.3-1.52.54-2.5.54v-1.44z"/><path fill="none" stroke="#000" stroke-width=".9" stroke-miterlimit="22.926" d="M191.98 227.5c.98 0 1.82-.24 2.5-.54.62-.3 1.52-.52 2.42-.52 1 0 1.82.22 2.51.52.6.3 1.51.54 2.5.54.98 0 1.82-.24 2.5-.62.6-.3 1.52-.52 2.42-.52.98 0 1.82.22 2.42.52.62.32 1.52.54 2.5.54v1.52c-.98 0-1.88-.24-2.5-.54-.6-.3-1.5-.52-2.42-.52-.9 0-1.74.14-2.42.52-.6.3-1.52.54-2.5.54-.99 0-1.82-.24-2.5-.54-.61-.3-1.51-.52-2.51-.52-.98 0-1.8.22-2.42.52-.6.3-1.52.54-2.5.54v-1.44z"/><path fill="#CDCCCB" fill-rule="nonzero" d="M191.98 230.6c.98 0 1.82-.23 2.5-.53.62-.31 1.52-.53 2.42-.53 1 0 1.82.22 2.51.53.6.3 1.51.53 2.5.53.98 0 1.82-.23 2.5-.6.6-.31 1.52-.54 2.42-.54.98 0 1.82.16 2.42.54.62.37 1.52.52 2.5.52v-1.51c-.98 0-1.88-.23-2.5-.61-.6-.3-1.5-.52-2.42-.52-.9 0-1.74.14-2.42.52-.6.3-1.52.54-2.5.54-.99 0-1.82-.24-2.5-.54-.61-.3-1.51-.52-2.51-.52-.98 0-1.8.22-2.42.52-.6.3-1.52.54-2.5.54v1.66z"/><path fill="none" stroke="#000" stroke-width=".9" stroke-miterlimit="22.926" d="M191.98 230.6c.98 0 1.82-.23 2.5-.53.62-.31 1.52-.53 2.42-.53 1 0 1.82.22 2.51.53.6.3 1.51.53 2.5.53.98 0 1.82-.23 2.5-.6.6-.31 1.52-.54 2.42-.54.98 0 1.82.16 2.42.54.62.37 1.52.52 2.5.52v-1.51c-.98 0-1.88-.23-2.5-.61-.6-.3-1.5-.52-2.42-.52-.9 0-1.74.14-2.42.52-.6.3-1.52.54-2.5.54-.99 0-1.82-.24-2.5-.54-.61-.3-1.51-.52-2.51-.52-.98 0-1.8.22-2.42.52-.6.3-1.52.54-2.5.54v1.66z"/><path fill="#265EAC" fill-rule="nonzero" d="M191.98 232.11c.98 0 1.82-.22 2.5-.53.62-.3 1.52-.52 2.42-.52 1 0 1.82.22 2.51.52.6.31 1.51.53 2.5.53.98 0 1.82-.22 2.5-.53.6-.3 1.52-.52 2.42-.52.98 0 1.82.22 2.42.52.62.31 1.52.53 2.5.53v-1.51c-.98 0-1.88-.23-2.5-.6-.6-.38-1.5-.54-2.42-.54-.9 0-1.74.23-2.42.54-.6.3-1.52.6-2.5.6-.99 0-1.82-.23-2.5-.53-.61-.31-1.51-.53-2.51-.53-.98 0-1.8.22-2.42.53-.6.38-1.52.53-2.5.53v1.51z"/><path fill="none" stroke="#000" stroke-width=".9" stroke-miterlimit="22.926" d="M191.98 232.11c.98 0 1.82-.22 2.5-.53.62-.3 1.52-.52 2.42-.52 1 0 1.82.22 2.51.52.6.31 1.51.53 2.5.53.98 0 1.82-.22 2.5-.53.6-.3 1.52-.52 2.42-.52.98 0 1.82.22 2.42.52.62.31 1.52.53 2.5.53v-1.51c-.98 0-1.88-.23-2.5-.6-.6-.38-1.5-.54-2.42-.54-.9 0-1.74.23-2.42.54-.6.3-1.52.6-2.5.6-.99 0-1.82-.23-2.5-.53-.61-.31-1.51-.53-2.51-.53-.98 0-1.8.22-2.42.53-.6.38-1.52.53-2.5.53v1.51z"/><path fill="#C8B32F" fill-rule="nonzero" d="M207.43 218.18c0 .15-.08.22-.08.38 0 .9.84 1.66 1.82 1.66h-14.53c.98 0 1.82-.76 1.82-1.66 0-.16 0-.23-.08-.38h11.05z"/><path fill="none" stroke="#000" stroke-width=".9" stroke-miterlimit="22.926" d="M207.43 218.18c0 .15-.08.22-.08.38 0 .9.84 1.66 1.82 1.66h-14.53c.98 0 1.82-.76 1.82-1.66 0-.16 0-.23-.08-.38h11.05z"/><path fill="#C8B32F" fill-rule="nonzero" d="M196.6 217.19h10.61c.38 0 .68.23.68.45 0 .3-.3.54-.68.54H196.6c-.38 0-.68-.24-.68-.54 0-.22.3-.45.68-.45z"/><path fill="none" stroke="#000" stroke-width=".9" stroke-miterlimit="22.926" d="M196.6 217.19h10.61c.38 0 .68.23.68.45 0 .3-.3.54-.68.54H196.6c-.38 0-.68-.24-.68-.54 0-.22.3-.45.68-.45z"/><path fill="#C8B32F" fill-rule="nonzero" d="M194.64 223.94h14.47v-3.72h-14.47z"/><path fill="none" stroke="#000" stroke-width=".9" stroke-miterlimit="22.926" d="M194.64 223.94h14.47v-3.72h-14.47z"/><path fill="#AC1F23" fill-rule="nonzero" d="M210.31 204.09c1.44.82 2.43 1.66 2.28 2.12-.08.38-.54.68-1.22 1.14-1.06.76-1.66 1.96-1.12 2.57-.84-.69-1.38-1.67-1.38-2.87-.06-1.22.46-2.28 1.44-2.96z"/><path fill="none" stroke="#000" stroke-width=".9" stroke-miterlimit="22.926" d="M210.31 204.09c1.44.82 2.43 1.66 2.28 2.12-.08.38-.54.68-1.22 1.14-1.06.76-1.66 1.96-1.12 2.57-.84-.69-1.38-1.67-1.38-2.87-.06-1.22.46-2.28 1.44-2.96z"/><path fill="#CDCCCB" fill-rule="nonzero" d="M196.76 216.58h10.29v-50.6h-10.29z"/><path fill="none" stroke="#000" stroke-width=".9" stroke-miterlimit="22.926" d="M205.39 165.98v50.45m-1.14-50.45v50.45m-7.49.15h10.29v-50.6h-10.29v50.6z"/><path fill="#AC1F23" fill-rule="nonzero" d="M186.15 184.92c2.27-.91 6.05-1.59 10.45-1.74 1.52 0 3.18.15 4.93.45 6.2 1.06 10.9 3.49 10.52 5.53v.16s2.36-5.23 2.36-5.38c.38-2.2-4.78-5.01-11.67-6.14-2.12-.37-4.24-.53-6.06-.45-4.4 0-8.18.52-10.53 1.44v6.13z"/><path fill="none" stroke="#000" stroke-width=".9" stroke-miterlimit="22.926" d="M186.15 184.92c2.27-.91 6.05-1.59 10.45-1.74 1.52 0 3.18.15 4.93.45 6.2 1.06 10.9 3.49 10.52 5.53v.16s2.36-5.23 2.36-5.38c.38-2.2-4.78-5.01-11.67-6.14-2.12-.37-4.24-.53-6.06-.45-4.4 0-8.18.52-10.53 1.44v6.13z"/><path fill="#AC1F23" fill-rule="nonzero" d="M207.05 191.28c2.88-.22 4.86-.98 5.08-2.2.16-.98-.76-2.04-2.5-2.95-.82.08-1.66.15-2.58.15v5z"/><path fill="none" stroke="#000" stroke-width=".9" stroke-miterlimit="22.926" d="M207.05 191.28c2.88-.22 4.86-.98 5.08-2.2.16-.98-.76-2.04-2.5-2.95-.82.08-1.66.15-2.58.15v5z"/><path fill="#AC1F23" fill-rule="nonzero" d="M196.68 187.42c-1.82.3-3.1.68-3.78 1.28l-.08.08c-.3.68 1.28 2.04 3.86 3.64v-5z"/><path fill="none" stroke="#000" stroke-width=".9" stroke-miterlimit="22.926" d="M196.68 187.42c-1.82.3-3.1.68-3.78 1.28l-.08.08c-.3.68 1.28 2.04 3.86 3.64v-5z"/><path fill="#AC1F23" fill-rule="nonzero" d="M213.49 201.05c.32-.83-2.5-2.42-6.44-3.86-1.81-.68-3.32-1.29-5.14-2.11-5.45-2.44-9.55-5.24-9.01-6.22l.06-.08c-.3.22-.74 5.24-.74 5.24-.54.9 3.18 3.62 8.25 6.05 1.59.76 5 2.04 6.66 2.58 2.88.98 5.76 2.88 5.46 3.56l.9-5.16z"/><path fill="none" stroke="#000" stroke-width=".9" stroke-miterlimit="22.926" d="M213.49 201.05c.32-.83-2.5-2.42-6.44-3.86-1.81-.68-3.32-1.29-5.14-2.11-5.45-2.44-9.55-5.24-9.01-6.22l.06-.08c-.3.22-.74 5.24-.74 5.24-.54.9 3.18 3.62 8.25 6.05 1.59.76 5 2.04 6.66 2.58 2.88.98 5.76 2.88 5.46 3.56l.9-5.16z"/><path fill="#C8B32F" fill-rule="nonzero" d="M192.58 182.72c.38-1.51.92-2.87 1.38-4.39-.08 0-.24.08-.3.08h-.32c-.22 1.06-.52 2.12-.9 3.1-.6-.91-1.28-1.82-1.82-2.72-.22.08-.46.08-.68.14-.23 0-.46.08-.68.08.9 1.22 1.82 2.5 2.64 3.79.08 0 .24-.08.32-.08h.36zm3.95-4.39H196c-.16 0-.38 0-.54-.08l-.06 4.09 2.88.08c0-.08-.08-.15-.08-.23 0-.08 0-.15.08-.22-.54 0-1.06.07-1.76.07l.01-3.71zm4.47.68c.45.08.91.16 1.36.23v-.23c0-.08 0-.14.08-.22l-3.86-.3v.22c0 .08 0 .16-.08.22h1.44l-.3 3.64h.53c.23 0 .38.08.52.08l.31-3.64zm3.55.61c.46.07 1 .15 1 .68 0 .15 0 .23-.08.3-.16.61-.61.76-1.36.61l.44-1.59zm-1.96 3.41c.15 0 .38.07.53.07.15 0 .38.08.53.15l.46-1.89h.07c.07.23.23.61.31.76l.6 1.44c.22.07.46.07.68.15.22.07.46.15.68.15l-.22-.45c-.3-.61-.61-1.29-.92-1.9.68 0 1.3-.22 1.38-.83.06-.38-.08-.69-.46-.99-.3-.22-.84-.3-1.14-.38l-1.52-.3-.98 4.02zm6.22.22 1.36-.83-.16 1.52-1.2-.69zm1.12.99c0 .45-.06.83-.22 1.36.22.08.38.16.6.3.16.08.38.24.54.31l.38-4.62c-.08 0-.16-.08-.24-.15-.06-.08-.14-.08-.22-.15l-4.1 2.57c.08.08.24.08.31.15.07.08.23.15.31.15.38-.3.68-.53 1.13-.83l1.51.91z"/><path fill="#CDCCCB" fill-rule="nonzero" d="M154.64 233.1c-8.33 0-16.52-2.04-23.48-5.46-5.08-2.5-8.5-7.64-8.5-13.48V193.1h63.79v21.14c0 5.82-3.4 10.9-8.48 13.48-6.9 3.34-14.99 5.38-23.33 5.38z"/><path fill="none" stroke="#000" stroke-width=".9" stroke-miterlimit="22.926" d="M154.64 233.1c-8.33 0-16.52-2.04-23.48-5.46-5.08-2.5-8.5-7.64-8.5-13.48V193.1h63.79v21.14c0 5.82-3.4 10.9-8.48 13.48-6.9 3.34-14.99 5.38-23.33 5.38z"/><path fill="#AC1F23" fill-rule="nonzero" d="M154.48 214.24c0 8.32-7.11 15.15-15.9 15.15-8.8 0-15.99-6.75-15.99-15.15v-21.22h31.89v21.22z"/><path fill="#C8B32F" fill-rule="nonzero" d="M151 223.56c1.59-1.36 3.03-4.55 3.56-8.11l.08-23.19h-3.71l.07 31.3z"/><path fill="none" stroke="#000" stroke-width=".9" stroke-miterlimit="22.926" d="M151 223.56c1.59-1.36 3.03-4.55 3.56-8.11l.08-23.19h-3.71l.07 31.3z"/><path fill="#CDCCCB" fill-rule="nonzero" d="M154.48 193.02h31.97v-35.38h-31.97z"/><path fill="#C8B32F" fill-rule="nonzero" d="M129.56 226.66c.98.54 2.36 1.44 3.86 1.74l-.07-36.2h-3.71v34.46h-.08z"/><path fill="none" stroke="#000" stroke-width=".9" stroke-miterlimit="22.926" d="M129.56 226.66c.98.54 2.36 1.44 3.86 1.74l-.07-36.2h-3.71v34.46h-.08z"/><path fill="#C8B32F" fill-rule="nonzero" d="M122.59 213.93c.07 4.47 1.89 7.81 3.63 9.93v-31.44h-3.56l-.07 21.51z"/><path fill="none" stroke="#000" stroke-width=".9" stroke-miterlimit="22.926" d="M122.59 213.93c.07 4.47 1.89 7.81 3.63 9.93v-31.44h-3.56l-.07 21.51z"/><path fill="#C6B52F" fill-rule="nonzero" d="M136.68 229.24c1.44.15 2.58.15 3.71 0v-36.98h-3.71v36.98z"/><path fill="none" stroke="#000" stroke-width=".9" stroke-miterlimit="22.926" d="M136.68 229.24c1.44.15 2.58.15 3.71 0v-36.98h-3.71v36.98z"/><path fill="#C8B32F" fill-rule="nonzero" d="M143.73 228.48c1.44-.3 3.1-1.22 3.86-1.66v-34.56h-3.72l-.14 36.22z"/><path fill="none" stroke="#000" stroke-width=".9" stroke-miterlimit="22.926" d="M143.73 228.48c1.44-.3 3.1-1.22 3.86-1.66v-34.56h-3.72l-.14 36.22z"/><path fill="#AC1F23" fill-rule="nonzero" d="M122.59 193.02h31.89v-35.38h-31.89z"/><path fill="none" stroke="#000" stroke-width=".9" stroke-miterlimit="22.926" d="M122.59 193.02h31.89v-35.38h-31.89v35.38zm31.89 21.22c0 8.32-7.11 15.15-15.9 15.15-8.8 0-15.99-6.75-15.99-15.15v-21.22h31.89v21.22z"/><path fill="#AC1F23" fill-rule="nonzero" d="M186.45 193.02v21.22c0 8.32-7.2 15.15-15.98 15.15-8.87 0-15.99-6.75-15.99-15.15v-21.22h31.97z"/><path fill="none" stroke="#000" stroke-width=".9" stroke-miterlimit="22.926" d="M186.45 193.02v21.22c0 8.32-7.2 15.15-15.98 15.15-8.87 0-15.99-6.75-15.99-15.15v-21.22h31.97z"/><path fill="#C8B32F" fill-rule="nonzero" d="m169.86 219.16-1.13-.3v-2.88l1.13-.3v3.48zm1.07 0 1.13-.3v-2.88l-1.13-.3v3.48zm-1.3 5.16c0-.38.31-.68.76-.68.38 0 .76.3.76.68 0 .38-.3.68-.76.68-.38 0-.76-.3-.76-.68zm7.74-14.47-.3 1.06h-3.04l-.3-1.06h3.64zm-14.01 0 .3 1.06h3.02l.3-1.06h-3.62zm13.33 5.75.6-.91-1.98-2.2-1.06.46 2.44 2.65zm-.84.68-1.06.46-1.97-2.2.61-.91 2.42 2.65zm1.44 6.22c-.98.76-2.04 1.28-3.18 1.66l.82.76c.92-.3 1.82-.84 2.66-1.36l-.3-1.06zm-.54-.92c-.9.76-2.04 1.3-3.18 1.68l-.22-1.06c.98-.32 1.9-.76 2.64-1.38l.76.76zm3.64-9.09-1.14.23s-.06 1.82-.06 1.44c0-.45-.16 1.44-.16 1.44l1.14.38c.08-.61.14-1.14.14-1.74l.01-1.75h.07zm.99 3.57 1.13-.23.16-2.8-1.14-.38v1.58c0 .61-.08 1.22-.15 1.83zm-1.37 2.95c-.22-.31-.76-.31-1.06-.07-.3.22-.38.68-.08.98.32.3.76.3 1.06.08.32-.24.32-.69.08-.99zm-4.08 3.11.52.9c.92-.52 1.74-1.28 2.42-2.04.54.14 1.14.08 1.68-.3.76-.62.83-1.6.22-2.28l-.08-.07c.46-.99.76-2.05.84-3.18h-1.06c-.08.98-.3 1.89-.68 2.72-.3 0-.6 0-.9.07l-2.74-3.02-.84.68 2.74 3.03c-.38.53-.38 1.29.08 1.81-.7.62-1.38 1.22-2.2 1.68zm-11.97-6.52-.6-.91 1.96-2.2 1.06.46-2.42 2.65zm.83.68 1.06.46 1.97-2.2-.61-.91-2.42 2.65zm-1.43 6.22c.98.76 2.04 1.28 3.17 1.66l-.83.76c-.91-.3-1.82-.84-2.66-1.36l.32-1.06zm.52-.92c.9.76 2.04 1.3 3.18 1.68l.23-1.06c-.99-.32-1.89-.76-2.65-1.38l-.76.76zm-3.64-9.09 1.14.23s.08 1.82 0 1.44c0-.45.16 1.44.16 1.44l-1.14.38c-.16-.61-.16-1.14-.16-1.74v-1.75zm-.9 3.57-1.14-.23-.16-2.8 1.14-.38v1.58c-.08.61 0 1.22.16 1.83zm1.36 2.95c.3-.31.76-.31 1.06-.07.3.22.38.68.08.98-.3.3-.76.3-1.06.08-.3-.24-.38-.69-.08-.99zm4.02 3.11-.54.9c-.9-.52-1.74-1.28-2.42-2.04-.54.14-1.22.08-1.68-.3-.74-.62-.82-1.6-.14-2.28l.08-.07a9.02 9.02 0 0 1-.84-3.18h1.06c.08.98.3 1.89.68 2.72.3-.07.6 0 .92.07l2.72-3.02.84.68-2.74 3.03c.38.53.38 1.29-.06 1.81.68.62 1.36 1.22 2.12 1.68zm7.27 1.52c.83-.16 1.66-.38 2.42-.7l.52.92c-.9.38-1.88.68-2.87.84-.15.74-.83 1.28-1.67 1.28-.83 0-1.51-.54-1.66-1.28-1.06-.16-2.05-.38-3.03-.84l.53-.92c.83.32 1.66.62 2.57.7.23-.46.53-.76.99-.92v-4.47h1.06v4.47c.53.16.98.54 1.14.92zm4.46-14.63v.84h2.96c.16.44.53.82 1.06.98v2.57h1.06v-2.57c.68-.22 1.21-.84 1.21-1.6v-.3h-1.05c.07.08.07.24.07.3 0 .38-.31.69-.75.69-.38 0-.76-.31-.76-.69 0-.14 0-.22.07-.3l-3.87.08zm-1.82 0v.84h-2.64c-.08.07-.08.22-.16.3l3.04 3.48-.84.68-3.03-3.48c-.08 0-.08 0-.15.08v5.75h-1.06v-5.75c-.08 0-.08 0-.16-.08l-3.17 3.48-.84-.68 3.18-3.48c-.07-.08-.07-.24-.15-.3h-2.73v-.84h8.71zm-14.31 0c.08.08.08.22.08.3 0 .38-.3.68-.76.68s-.76-.3-.76-.68c0-.14 0-.22.08-.3h-1.06v.3c0 .76.52 1.36 1.2 1.6v2.57h1.06v-2.57c.54-.16.92-.54 1.06-.99h2.96v-.91h-3.86z"/><path fill="#C8B32F" fill-rule="nonzero" d="m170.93 200.45 1.13.3v2.88l-1.13.3v-3.48zm-1.14 0-1.14.3v2.88l1.14.3v-3.48zm3.94-3.33.3-1.06h3.04l.3 1.06h-3.64zm0 .98.3 1.06h3.04l.3-1.06h-3.64zm-4.17-.53c0-.38.3-.68.76-.68.38 0 .75.3.75.68 0 .38-.3.69-.75.69-.38.07-.76-.23-.76-.69zm10.69 0c0-.38.3-.68.76-.68.37 0 .74.3.74.68 0 .38-.3.69-.74.69-.38.07-.76-.23-.76-.69zm-2.88 11.28-.3-1.06h-3.04l-.3 1.06h3.64zm-10.39-11.73-.3-1.06h-3.02l-.3 1.06h3.62zm0 .98-.3 1.06h-3.02l-.3-1.06h3.62zm-8.02-.53c0-.38.3-.68.76-.68.38 0 .74.3.74.68 0 .38-.3.69-.74.69-.38.07-.76-.23-.76-.69zm4.4 11.28.3-1.06h3.02l.3 1.06h-3.62zm13.47-5.98.68.92-1.88 2.18-1.08-.44 2.28-2.66zm-.84-.68-1.06-.46-1.88 2.2.68.92 2.26-2.66zm-12.19.76-.6.9 1.97 2.2 1.06-.46-2.43-2.64zm.84-.6 1.06-.46 1.97 2.2-.61.9-2.42-2.64zm16.89-.62 1.14.31v2.81l-1.14.3v-3.42zm-1.14 0-1.14.31v2.81l1.14.3v-3.42zm-20.15 0 1.14.31v2.81l-1.14.38v-3.5zm-1.06 0-1.14.31v2.81l1.14.3v-3.42zm11.75-2.57v2.12h-1.07v-2.12c-.53-.15-.98-.53-1.13-1.06h-2.65v-.98h2.65c.22-.68.9-1.14 1.66-1.14.76 0 1.44.46 1.67 1.14h2.65v.98h-2.65c-.23.53-.68.91-1.13 1.06zm10.6 0v3.49h-1.06v-3.49c-.08 0-.15-.07-.22-.07l-4.02 4.46-.84-.6 4.1-4.62c0-.07-.08-.15-.08-.23h-2.96v-.98h2.96c.22-.68.9-1.14 1.66-1.14.99 0 1.75.76 1.75 1.67-.08.68-.61 1.29-1.29 1.51zm-21.13 0 4.01 4.47.83-.68-4.02-4.47c.08-.15.16-.22.16-.38h2.96v-.98h-2.96c-.22-.68-.9-1.14-1.66-1.14-1 0-1.75.76-1.75 1.67 0 .75.45 1.36 1.13 1.59v3.48l1.06.01v-3.57h.24zm19.92 9.85c.15-.22.37-.38.69-.38.3 0 .52.16.68.38h1.05c-.15-.6-.61-1.06-1.21-1.22v-3.48h-1.06v3.48c-.53.16-.9.54-1.14 1.06h-2.88v.16h3.87zm-14.32 0v-.16h2.73c0-.06.07-.14.15-.22l-3.34-3.72.84-.68 3.25 3.64c.08 0 .08-.08.16-.08v-4.84h1.06v4.84c.08 0 .15 0 .15.08l3.18-3.64.83.68-3.26 3.64c.08.16.16.3.16.38h2.64v.08H166zm-8.03 0c.15-.6.61-1.06 1.21-1.22v-3.48h1.06v3.48c.54.16.92.54 1.14 1.06h2.88v.16h-3.94c-.16-.22-.38-.38-.68-.38-.3 0-.54.16-.68.38h-.99z"/><path fill="none" stroke="#C8B32F" stroke-width=".9" stroke-miterlimit="22.926" d="M163.36 222.5c.98.76 2.04 1.28 3.17 1.66l-.83.76c-.91-.3-1.82-.84-2.66-1.36l.32-1.06zm.52-.92c.9.76 2.04 1.3 3.18 1.68l.23-1.06c-.99-.32-1.89-.76-2.65-1.38l-.76.76zm-3.64-9.09 1.14.23s.08 1.82 0 1.44c0-.45.16 1.44.16 1.44l-1.14.38c-.16-.61-.16-1.14-.16-1.74v-1.75zm-.9 3.57-1.14-.23-.16-2.8 1.14-.38v1.58c-.08.61 0 1.22.16 1.83zm1.36 2.95c.3-.31.76-.31 1.06-.07.3.22.38.68.08.98-.3.3-.76.3-1.06.08-.3-.24-.38-.69-.08-.99zm-1.6-5.53v-2.57c-.68-.24-1.2-.84-1.2-1.6 0-.76.52-1.36 1.2-1.58v-3.5h1.06v3.5c.54.14.92.52 1.14 1.06h2.88v.98h-2.96c-.14.46-.6.84-1.06.98v2.58l-1.06.15zm5.62 8.64-.54.9c-.9-.52-1.74-1.28-2.42-2.04-.54.14-1.22.08-1.68-.3-.74-.62-.82-1.6-.14-2.28l.08-.07a9.02 9.02 0 0 1-.84-3.18h1.06c.08.98.3 1.89.68 2.72.3 0 .6 0 .92.07l2.72-3.02.84.68-2.74 3.03c.38.53.38 1.29-.06 1.81.68.62 1.36 1.22 2.12 1.68zm-4.32-22.96 4.01 4.47.83-.68-4.02-4.47c.08-.15.16-.22.16-.38h2.96v-.98h-2.96c-.22-.68-.9-1.14-1.66-1.14-1 0-1.75.76-1.75 1.67 0 .75.45 1.36 1.13 1.59v3.48l1.06.01v-3.57h.24zm8.48 10.99c-.08-.08-.08-.23-.15-.3H166v-1h2.73c0-.06.07-.14.15-.22l-3.34-3.72.84-.68 3.25 3.64c.08 0 .08-.08.16-.08v-4.84h1.06v4.84c.08 0 .15 0 .15.08l3.18-3.64.83.68-3.26 3.64c.08.16.16.24.16.38h2.64v.99h-2.64c-.08.07-.08.23-.16.31l3.04 3.48-.84.68-3.03-3.48c-.07 0-.07.08-.15.08v5.75h-1.06v-5.75c-.08 0-.08 0-.15-.08l-3.18 3.48-.84-.68 3.34-3.56zm3.11 13.49c.83-.16 1.66-.38 2.42-.7l.52.92c-.9.38-1.88.68-2.87.84-.15.74-.83 1.28-1.67 1.28-.83 0-1.51-.54-1.66-1.28-1.06-.16-2.05-.38-3.03-.84l.53-.92c.83.32 1.66.62 2.57.7.23-.46.53-.76.99-.92v-4.47h1.06v4.47c.53.16.98.54 1.14.92zm8.4-21.91-1.14.31v2.87l1.14.32v-3.5zm-20.15 0 1.14.31v2.87l-1.14.32v-3.5zm-1.06 0-1.14.31v2.87l1.14.32v-3.5zm18.11 20.77c-.98.76-2.04 1.28-3.18 1.66l.82.76c.92-.3 1.82-.84 2.66-1.36l-.3-1.06zm-.54-.92c-.9.76-2.04 1.3-3.18 1.68l-.22-1.06c.98-.32 1.9-.76 2.64-1.38l.76.76zm-5.82-22.42v2.12h-1.07v-2.12c-.53-.15-.98-.53-1.13-1.06h-2.65v-.98h2.65c.22-.68.9-1.14 1.66-1.14.76 0 1.44.46 1.67 1.14h2.65v.98h-2.65c-.23.53-.68.91-1.13 1.06zm10.6 0v3.49h-1.06v-3.49c-.08 0-.15-.07-.22-.07l-4.02 4.46-.84-.68 4.1-4.54c0-.07-.08-.15-.08-.23h-2.96v-.98h2.96c.22-.68.9-1.14 1.66-1.14.99 0 1.75.76 1.75 1.67-.08.68-.61 1.29-1.29 1.51zm-1.14 13.33-1.14.23s-.06 1.82-.06 1.44c0-.45-.16 1.44-.16 1.44l1.14.38c.08-.61.14-1.14.14-1.74l.01-1.75h.07zm.99 3.57 1.13-.23.16-2.8-1.14-.38v1.58c0 .61-.08 1.22-.15 1.83zm-1.37 2.95c-.22-.31-.76-.31-1.06-.07-.3.22-.38.68-.08.98.32.3.76.3 1.06.08.32-.24.32-.69.08-.99zm1.52-5.53v-2.57c.68-.24 1.21-.84 1.21-1.6 0-.76-.53-1.36-1.21-1.58v-3.5h-1.06v3.5c-.53.14-.9.52-1.14 1.06h-2.88v.98h2.96c.16.46.53.84 1.06.98v2.58l1.06.15zm-5.6 8.64.52.9c.92-.52 1.74-1.28 2.42-2.04.54.14 1.14.08 1.68-.3.76-.62.83-1.6.22-2.28l-.08-.07c.46-.99.76-2.05.84-3.18h-1.06c-.08.98-.3 1.89-.68 2.72-.3-.07-.6 0-.9.07l-2.74-3.02-.84.68 2.74 3.03c-.38.53-.38 1.29.08 1.81-.7.62-1.38 1.22-2.2 1.68zm-16.97-12.81c0-.38.3-.68.76-.68.38 0 .74.3.74.68 0 .38-.3.68-.74.68-.46 0-.76-.3-.76-.68zm5 6.29-.6-.91 1.96-2.2 1.06.46-2.42 2.65zm.83.68 1.06.46 1.97-2.2-.61-.91-2.42 2.65zm8.94-19.16.3-1.06h3.04l.3 1.06h-3.64zm0 .98.3 1.06h3.04l.3-1.06h-3.64zm-4.17-.53c0-.38.3-.68.76-.68.38 0 .75.3.75.68 0 .38-.3.69-.75.69-.38.07-.76-.23-.76-.69zm10.69 0c0-.38.3-.68.76-.68.37 0 .74.3.74.68 0 .38-.3.69-.74.69-.38.07-.76-.23-.76-.69zm-10.39 21.59-1.13-.3v-2.88l1.13-.3v3.48zm1.07 0 1.13-.3v-2.88l-1.13-.3v3.48zm-1.3 5.16c0-.38.31-.68.76-.68.38 0 .76.3.76.68 0 .38-.3.68-.76.68-.38 0-.76-.3-.76-.68zm7.74-14.47-.3 1.06h-3.04l-.3-1.06h3.64zm0-1-.3-1.06h-3.04l-.3 1.06h3.64zm2.88.46c0-.38.3-.68.76-.68.37 0 .74.3.74.68 0 .38-.3.68-.74.68-.46 0-.76-.3-.76-.68zm-13.27-12.19-.3-1.06h-3.02l-.3 1.06h3.62zm0 .98-.3 1.06h-3.02l-.3-1.06h3.62zm-8.02-.53c0-.38.3-.68.76-.68.38 0 .74.3.74.68 0 .38-.3.69-.74.69-.38.07-.76-.23-.76-.69zm4.4 12.28.3 1.06h3.02l.3-1.06h-3.62zm0-1 .3-1.06h3.02l.3 1.06h-3.62zm13.47-5.98.68.92-1.88 2.18-1.08-.44 2.28-2.66zm-.84-.68-1.06-.46-1.88 2.2.68.92 2.26-2.66zm-12.19.76-.6.9 1.97 2.12 1.06-.44-2.43-2.58zm.84-.68 1.06-.46 1.97 2.2-.61.9-2.42-2.64zm12.05 13.33.6-.91-1.98-2.2-1.06.46 2.44 2.65zm-.84.68-1.06.46-1.97-2.2.61-.91 2.42 2.65zm5.68-14.55 1.14.31v2.87l-1.14.32v-3.5zm-10.6-1.36 1.13.3v2.88l-1.13.3v-3.48zm-1.14 0-1.14.3v2.88l1.14.3v-3.48z"/><path fill="#008F6F" fill-rule="nonzero" d="M168.65 209.31c0-.9.76-1.66 1.74-1.66.99 0 1.74.76 1.74 1.66 0 .92-.75 1.68-1.74 1.68-.98 0-1.74-.7-1.74-1.68z"/><path fill="#DA4546" fill-rule="nonzero" d="M170.77 166.36v-.38l.08-.22s-1.06.07-1.59-.08c-.53-.15-.99-.38-1.52-.76-.53-.46-.68-.68-1.06-.76-.83-.14-1.51.23-1.51.23s.68.23 1.13.83c.46.61.99.91 1.22.99.37.08 1.66 0 2.04.08.45-.01 1.21.07 1.21.07z"/><path fill="none" stroke="#000" stroke-width=".9" stroke-miterlimit="22.926" d="M170.77 166.36v-.38l.08-.22s-1.06.07-1.59-.08c-.53-.15-.99-.38-1.52-.76-.53-.46-.68-.68-1.06-.76-.83-.14-1.51.23-1.51.23s.68.23 1.13.83c.46.61.99.91 1.22.99.37.08 1.66 0 2.04.08.45-.01 1.21.07 1.21.07z"/><path fill="#EB71A9" fill-rule="nonzero" d="M175.55 164.92s0 .46.08.91c.06.45-.16.76-.08.99.08.22.08.45.14.6.08.15.16.61.16.61s-.24-.16-.46-.38c-.22-.15-.38-.31-.38-.31s.08.46.08.69c0 .22.16.53.3.75.16.23.54.53.68.83.08.38.08.99.08.99s-.3-.45-.54-.53c-.22-.08-.82-.38-.82-.38s.52.53.52.99c0 .45-.22.98-.22.98s-.23-.45-.54-.68c-.3-.3-.68-.61-.68-.61s.31.76.31 1.22c0 .52-.07 1.58-.07 1.58s-.24-.38-.54-.6c-.22-.22-.53-.38-.68-.53-.07-.15.3.37.38.75.08.3.23 1.52 1.21 2.96.61.84 1.51 2.42 3.49 1.9 1.96-.54 1.2-3.18.82-4.4-.38-1.21-.6-2.57-.6-3.1 0-.46.38-1.9.3-2.13-.08-.22-.14-1.28.08-2.12.24-.83.46-1.2.6-1.51.16-.37.24-.53.32-.83.06-.3.06-.92.06-.92s.38.68.46.92c.08.22.08.98.08.98s.08-.68.6-1.06c.54-.38 1.22-.68 1.37-.9.15-.24.23-.32.23-.32s-.08 1.22-.38 1.68c-.22.3-1.14 1.36-1.14 1.36s.46-.15.76-.15h.53s-.37.3-.91 1.06c-.52.75-.3.83-.68 1.44-.38.6-.68.6-1.14.98-.68.53-.3 2.73-.22 3.1.08.31 1.28 3.04 1.28 3.72 0 .68.16 2.12-.98 3.04-.76.6-1.98.6-2.2.74-.3.16-.84.69-.84 1.82 0 1.14.38 1.29.76 1.6.3.3.76.15.84.38.08.22.14.38.3.45.16.15.22.3.16.53-.08.23-.62.76-.76 1.21-.16.38-.54 1.44-.54 1.59 0 .15-.08.61.16.83 0 0 .6.68.14.84-.22.08-.44-.16-.6-.16-.38.08-.54.31-.6.31-.24-.07-.24-.15-.24-.45 0-.3 0-.46-.07-.46-.15 0-.23.16-.23.3 0 .16 0 .61-.15.61s-.38-.31-.53-.38c-.15-.07-.53-.15-.53-.31 0-.14.23-.52.45-.6.23-.08.46-.15.3-.3-.14-.15-.3-.15-.44 0-.16.15-.54 0-.46-.15 0-.23.08-.45.08-.53 0-.08-.31-.3.07-.54.38-.22.53.16.91.08s.53-.22.68-.38c.16-.22.16-.68-.15-.98-.23-.3-.53-.3-.61-.53-.08-.15-.22-.6-.22-.6s.08.75 0 .9c-.08.08 0 .53 0 .53s-.23-.3-.46-.53c-.22-.22-.38-.83-.38-.83v.83c0 .23.3.46.16.53-.08.08-.54-.45-.69-.53-.07-.08-.45-.38-.6-.68-.15-.3-.3-.76-.3-.91-.08-.15-.16-.83-.08-.99.15-.22.3-.68.3-.68l-.91.01c-.45 0-.83-.15-.98.15-.15.3-.08.98.15 1.82.23.83.38 1.29.31 1.43-.08.16-.38.54-.46.54-.15.07-.45.07-.6 0-.16-.08-.38-.16-.84-.16h-.83c-.15-.07-.53-.22-.76-.22-.15.08-.53.22-.38.45.15.38-.15.45-.3.45s-.3-.07-.6-.14c-.24-.08-.61 0-.54-.31.08-.23.16-.3.23-.45.08-.23.15-.3 0-.3s-.3 0-.45.07c-.16.07-.3.31-.46.23-.14-.08-.3-.3-.3-.68 0-.38-.46-.76 0-.76.38 0 .91.3.98.08.08-.23.08-.31-.14-.46-.24-.15-.46-.3-.24-.46.31-.22.38-.22.46-.37.08-.08.23-.53.46-.38.37.15 0 .45.37.91.38.45.61.6 1.29.53.68-.08.83-.15.83-.38 0-.15-.07-.53-.07-.68 0-.16.07-.61.07-.61s-.3.15-.38.38c-.15 0-.37.3-.37.3s-.08-.38-.08-.68c0-.15.08-.53.08-.53 0-.15-.16-.6-.16-.6s-.07.45-.15.6c-.07.15-.07.68-.07.68s-.46-.38-.31-.98c.08-.46-.07-1.14.08-1.29.15-.23.45-1.05 1.29-1.05H171c.3 0 1.29-.24 1.29-.24s-1.9-.98-2.28-1.28c-.45-.3-1.13-1.06-1.28-1.38-.23-.3-.38-.98-.38-.98s-.31 0-.69.16c-.3.14-.6.44-.75.6-.15.16-.45.68-.45.68s.07-.6.07-.76c0-.14-.07-.52-.07-.52s-.24.82-.61 1.14c-.45.3-.91.74-.91.74s.08-.44.08-.52c0-.08.07-.6.07-.6s-.3.44-.75.52c-.46.08-1.14.08-1.22.38-.08.3.16.68 0 .92-.08.22-.38.3-.38.3s-.22-.24-.52-.24c-.24 0-.46.08-.46.08s-.22-.22-.16-.46c.08-.14.46-.44.32-.52-.08-.08-.38 0-.54.14-.16.16-.52.16-.52-.14 0-.3.14-.46 0-.68-.08-.24 0-.3.14-.38.16-.08.68 0 .76-.16.08-.14-.16-.3-.54-.38-.38-.08-.52-.3-.38-.52l.38-.38c.08-.16.16-.46.46-.3.3.14.3.52.6.6.38.14 1.22-.08 1.38-.16.14-.07.75-.52.98-.6.22-.08.98-.68.98-.68s-.45-.3-.68-.53c-.15-.15-.53-.61-.68-.68-.16-.08-.98-.38-1.22-.38-.3 0-1.06-.3-1.06-.3s.38-.16.54-.23c.14-.08.38-.38.52-.3h.16s-.76 0-.9-.08c-.16-.08-.62-.38-.84-.38-.16 0-.54.08-.54.08s.46-.31.92-.38c.38-.08.68-.08.68-.08s-.6-.15-.76-.38c-.16-.23-.3-.53-.38-.68-.08-.15-.16-.38-.38-.38s-.52.23-.76.23c-.22 0-.38-.16-.38-.46 0-.3 0-.14-.08-.38-.06-.14-.38-.52-.06-.6.3-.08.82.08.9-.08.08-.08-.3-.38-.54-.52-.22-.16-.6-.3-.36-.46.22-.16.36-.22.52-.38.16-.16.22-.6.46-.46.22.16.52.84.76.76.14-.08.22-.52.14-.76-.08-.22 0-.52.16-.52.14 0 .3.3.6.3s.68-.08.68.14c0 .24-.22.46-.38.7-.22.22-.3.68-.14.98.14.3.44.76.76.9.3.16.82.3 1.12.54.32.22 1.14.83 1.38.9.22.08.52.23.52.23s.3-.15.68-.15c.38 0 1.37.08 1.75-.08.37-.14.83-.38.68-.76-.15-.3-.91-.6-.83-.82.07-.24.37-.3.83-.3.45 0 1.13.06 1.29-.62.15-.68.15-1.06-.53-1.2-.69-.16-1.22-.16-1.29-.68-.15-.54-.23-.62-.08-.76.15-.16.38-.24.91-.24.53-.08 1.06-.08 1.21-.14.15-.16.23-.46.38-.62.23-.14.99-.22.99-.22s.9.46 1.74 1.06c.84.69 1.52 1.52 1.52 1.52z"/><path fill="none" stroke="#000" stroke-width=".9" stroke-miterlimit="22.926" d="M175.55 164.92s0 .46.08.91c.06.45-.16.76-.08.99.08.22.08.45.14.6.08.15.16.61.16.61s-.24-.16-.46-.38c-.22-.15-.38-.31-.38-.31s.08.46.08.69c0 .22.16.53.3.75.16.23.54.53.68.83.08.38.08.99.08.99s-.3-.45-.54-.53c-.22-.08-.82-.38-.82-.38s.52.53.52.99c0 .45-.22.98-.22.98s-.23-.45-.54-.68c-.3-.3-.68-.61-.68-.61s.31.76.31 1.22c0 .52-.07 1.58-.07 1.58s-.24-.38-.54-.6c-.22-.22-.53-.38-.68-.53-.07-.15.3.37.38.75.08.3.23 1.52 1.21 2.96.61.84 1.51 2.42 3.49 1.9 1.96-.54 1.2-3.18.82-4.4-.38-1.21-.6-2.57-.6-3.1 0-.46.38-1.9.3-2.13-.08-.22-.14-1.28.08-2.12.24-.83.46-1.2.6-1.51.16-.37.24-.53.32-.83.06-.3.06-.92.06-.92s.38.68.46.92c.08.22.08.98.08.98s.08-.68.6-1.06c.54-.38 1.22-.68 1.37-.9.15-.24.23-.32.23-.32s-.08 1.22-.38 1.68c-.22.3-1.14 1.36-1.14 1.36s.46-.15.76-.15h.53s-.37.3-.91 1.06c-.52.75-.3.83-.68 1.44-.38.6-.68.6-1.14.98-.68.53-.3 2.73-.22 3.1.08.31 1.28 3.04 1.28 3.72 0 .68.16 2.12-.98 3.04-.76.6-1.98.6-2.2.74-.3.16-.84.69-.84 1.82 0 1.14.38 1.29.76 1.6.3.3.76.15.84.38.08.22.14.38.3.45.16.15.22.3.16.53-.08.23-.62.76-.76 1.21-.16.38-.54 1.44-.54 1.59 0 .15-.08.61.16.83 0 0 .6.68.14.84-.22.08-.44-.16-.6-.16-.38.08-.54.31-.6.31-.24-.07-.24-.15-.24-.45 0-.3 0-.46-.07-.46-.15 0-.23.16-.23.3 0 .16 0 .61-.15.61s-.38-.31-.53-.38c-.15-.07-.53-.15-.53-.31 0-.14.23-.52.45-.6.23-.08.46-.15.3-.3-.14-.15-.3-.15-.44 0-.16.15-.54 0-.46-.15 0-.23.08-.45.08-.53 0-.08-.31-.3.07-.54.38-.22.53.16.91.08s.53-.22.68-.38c.16-.22.16-.68-.15-.98-.23-.3-.53-.3-.61-.53-.08-.15-.22-.6-.22-.6s.08.75 0 .9c-.08.08 0 .53 0 .53s-.23-.3-.46-.53c-.22-.22-.38-.83-.38-.83v.83c0 .23.3.46.16.53-.08.08-.54-.45-.69-.53-.07-.08-.45-.38-.6-.68-.15-.3-.3-.76-.3-.91-.08-.15-.16-.83-.08-.99.15-.22.3-.68.3-.68l-.91.01c-.45 0-.83-.15-.98.15-.15.3-.08.98.15 1.82.23.83.38 1.29.31 1.43-.08.16-.38.54-.46.54-.15.07-.45.07-.6 0-.16-.08-.38-.16-.84-.16h-.83c-.15-.07-.53-.22-.76-.22-.15.08-.53.22-.38.45.15.38-.15.45-.3.45s-.3-.07-.6-.14c-.24-.08-.61 0-.54-.31.08-.23.16-.3.23-.45.08-.23.15-.3 0-.3s-.3 0-.45.07c-.16.07-.3.31-.46.23-.14-.08-.3-.3-.3-.68 0-.38-.46-.76 0-.76.38 0 .91.3.98.08.08-.23.08-.31-.14-.46-.24-.15-.46-.3-.24-.46.31-.22.38-.22.46-.37.08-.08.23-.53.46-.38.37.15 0 .45.37.91.38.45.61.6 1.29.53.68-.08.83-.15.83-.38 0-.15-.07-.53-.07-.68 0-.16.07-.61.07-.61s-.3.15-.38.38c-.15 0-.37.3-.37.3s-.08-.38-.08-.68c0-.15.08-.53.08-.53 0-.15-.16-.6-.16-.6s-.07.45-.15.6c-.07.15-.07.68-.07.68s-.46-.38-.31-.98c.08-.46-.07-1.14.08-1.29.15-.23.45-1.05 1.29-1.05H171c.3 0 1.29-.24 1.29-.24s-1.9-.98-2.28-1.28c-.45-.3-1.13-1.06-1.28-1.38-.23-.3-.38-.98-.38-.98s-.31 0-.69.16c-.3.14-.6.44-.75.6-.15.16-.45.68-.45.68s.07-.6.07-.76c0-.14-.07-.52-.07-.52s-.24.82-.61 1.14c-.45.3-.91.74-.91.74s.08-.44.08-.52c0-.08.07-.6.07-.6s-.3.44-.75.52c-.46.08-1.14.08-1.22.38-.08.3.16.68 0 .92-.08.22-.38.3-.38.3s-.22-.24-.52-.24c-.24 0-.46.08-.46.08s-.22-.22-.16-.46c.08-.14.46-.44.32-.52-.08-.08-.38 0-.54.14-.16.16-.52.16-.52-.14 0-.3.14-.46 0-.68-.08-.24 0-.3.14-.38.16-.08.68 0 .76-.16.08-.14-.16-.3-.54-.38-.38-.08-.52-.3-.38-.52l.38-.38c.08-.16.16-.46.46-.3.3.14.3.52.6.6.38.14 1.22-.08 1.38-.16.14-.07.75-.52.98-.6.22-.08.98-.68.98-.68s-.45-.3-.68-.53c-.15-.15-.53-.61-.68-.68-.16-.08-.98-.38-1.22-.38-.3 0-1.06-.3-1.06-.3s.38-.16.54-.23c.14-.08.38-.38.52-.3h.16s-.76 0-.9-.08c-.16-.08-.62-.38-.84-.38-.16 0-.54.08-.54.08s.46-.31.92-.38c.38-.08.68-.08.68-.08s-.6-.15-.76-.38c-.16-.23-.3-.53-.38-.68-.08-.15-.16-.38-.38-.38s-.52.23-.76.23c-.22 0-.38-.16-.38-.46 0-.3 0-.14-.08-.38-.06-.14-.38-.52-.06-.6.3-.08.82.08.9-.08.08-.08-.3-.38-.54-.52-.22-.16-.6-.3-.36-.46.22-.16.36-.22.52-.38.16-.16.22-.6.46-.46.22.16.52.84.76.76.14-.08.22-.52.14-.76-.08-.22 0-.52.16-.52.14 0 .3.3.6.3s.68-.08.68.14c0 .24-.22.46-.38.7-.22.22-.3.68-.14.98.14.3.44.76.76.9.3.16.82.3 1.12.54.32.22 1.14.83 1.38.9.22.08.52.23.52.23s.3-.15.68-.15c.38 0 1.37.08 1.75-.08.37-.14.83-.38.68-.76-.15-.3-.91-.6-.83-.82.07-.24.37-.3.83-.3.45 0 1.13.06 1.29-.62.15-.68.15-1.06-.53-1.2-.69-.16-1.22-.16-1.29-.68-.15-.54-.23-.62-.08-.76.15-.16.38-.24.91-.24.53-.08 1.06-.08 1.21-.14.15-.16.23-.46.38-.62.23-.14.99-.22.99-.22s.9.46 1.74 1.06c.84.69 1.52 1.52 1.52 1.52"/><path fill-rule="nonzero" d="M168.95 164.46s-.07-.3-.15-.37c0-.07-.07-.15-.07-.15s.53 0 .53.15-.15.15-.23.23l-.08.14z"/><path fill="none" stroke="#000" stroke-width=".9" stroke-miterlimit="22.926" d="M168.95 164.46s-.07-.3-.15-.37c0-.07-.07-.15-.07-.15s.53 0 .53.15-.15.15-.23.23l-.08.14z"/><path fill-rule="nonzero" d="m171.53 163.56-.08-.3s.46 0 .68.14c.38.24.61.69.61.69-.07.07-.38-.15-.53-.23h-.3c-.16 0-.23-.08-.23-.15v-.23l-.15.08z"/><path fill="none" stroke="#000" stroke-width=".9" stroke-miterlimit="22.926" d="m171.53 163.56-.08-.3s.46 0 .68.14c.38.24.61.69.61.69-.07.07-.38-.15-.53-.23h-.3c-.16 0-.23-.08-.23-.15v-.23l-.15.08zm3.48 3.86s-.22-.3-.3-.38c-.08-.07-.16-.3-.16-.3"/><path fill="#DA4546" fill-rule="nonzero" d="M161.84 164.32s.3.22.52.22h.54s.08-.38.08-.6c-.16-.76-.84-.91-.84-.91s.22.45.08.68c-.08.38-.38.61-.38.61z"/><path fill="none" stroke="#000" stroke-width=".9" stroke-miterlimit="22.926" d="M161.84 164.32s.3.22.52.22h.54s.08-.38.08-.6c-.16-.76-.84-.91-.84-.91s.22.45.08.68c-.08.38-.38.61-.38.61z"/><path fill="#DA4546" fill-rule="nonzero" d="M160.4 165s-.3-.46-.84-.46c-.6.08-.98.53-.98.53s.6 0 .76.08c.22.15.3.53.3.53s.38-.23.44-.38c.16-.08.32-.3.32-.3z"/><path fill="none" stroke="#000" stroke-width=".9" stroke-miterlimit="22.926" d="M160.4 165s-.3-.46-.84-.46c-.6.08-.98.53-.98.53s.6 0 .76.08c.22.15.3.53.3.53s.38-.23.44-.38c.16-.08.32-.3.32-.3z"/><path fill="#DA4546" fill-rule="nonzero" d="M159.72 166.97s-.46.07-.76.38c-.3.3-.24.9-.24.9s.3-.38.62-.38c.3 0 .74.08.74.08s-.14-.38-.14-.53c0-.15-.22-.45-.22-.45z"/><path fill="none" stroke="#000" stroke-width=".9" stroke-miterlimit="22.926" d="M159.72 166.97s-.46.07-.76.38c-.3.3-.24.9-.24.9s.3-.38.62-.38c.3 0 .74.08.74.08s-.14-.38-.14-.53c0-.15-.22-.45-.22-.45z"/><path fill-rule="nonzero" d="m168.95 166.89.23-.3.23.3z"/><path fill="none" stroke="#000" stroke-width=".9" stroke-miterlimit="22.926" d="m168.95 166.89.23-.3.23.3z"/><path fill-rule="nonzero" d="m169.49 166.89.22-.3.3.3z"/><path fill="none" stroke="#000" stroke-width=".9" stroke-miterlimit="22.926" d="m169.49 166.89.22-.3.3.3z"/><path fill-rule="nonzero" d="m169.26 164.84.53.16-.46.22z"/><path fill="none" stroke="#000" stroke-width=".9" stroke-miterlimit="22.926" d="m169.26 164.84.53.16-.46.22z"/><path fill-rule="nonzero" d="m169.86 165 .46.07-.31.31z"/><path fill="none" stroke="#000" stroke-width=".9" stroke-miterlimit="22.926" d="m169.86 165 .46.07-.31.31zm-1.59 9.23s.68-.38.91-.44c.45-.24.76-.68.76-.68m-4.24-.62s.3-.52.6-.68c.3-.14.68-.45.76-.52.08 0 .6-.31.6-.31m-1.28-1.97s-.53.15-.68.46c-.22.3-.22.68-.22.68s.44-.38.98-.23c.52.15.6.23.83.23.23 0 .83-.23.83-.23s-.45.53-.38.91c.08.38.15.53.08.76 0 .45-.38 1.06-.38 1.06s.23-.16.68-.24c.46-.07.83-.3 1.14-.52.23-.16.6-.61.6-.61s-.07.61 0 .91c.08.3.15 1.06.15 1.06s.31-.3.54-.38c.15-.08.45-.22.6-.46.08-.14.23-.68.23-.68s.07.61.23.84c.14.3.45 1.14.45 1.14s.15-.54.37-.76c.24-.23.46-.54.46-.68 0-.16-.07-.54-.07-.54l.23.54"/><path fill="#DA4546" fill-rule="nonzero" d="M161.3 173.41s-.3-.3-.76-.24c-.44.08-.76.62-.76.62s.38-.08.62-.08c.22.08.38.3.38.3s.22-.16.3-.3c.14 0 .22-.3.22-.3z"/><path fill="none" stroke="#000" stroke-width=".9" stroke-miterlimit="22.926" d="M161.3 173.41s-.3-.3-.76-.24c-.44.08-.76.62-.76.62s.38-.08.62-.08c.22.08.38.3.38.3s.22-.16.3-.3c.14 0 .22-.3.22-.3z"/><path fill="#DA4546" fill-rule="nonzero" d="M160.78 175.29s-.38-.06-.76.24c-.3.3-.38.84-.38.84s.3-.32.6-.24c.22 0 .54.16.54.16s.06-.3.06-.38c.08-.3-.06-.62-.06-.62z"/><path fill="none" stroke="#000" stroke-width=".9" stroke-miterlimit="22.926" d="M160.78 175.29s-.38-.06-.76.24c-.3.3-.38.84-.38.84s.3-.32.6-.24c.22 0 .54.16.54.16s.06-.3.06-.38c.08-.3-.06-.62-.06-.62z"/><path fill="#DA4546" fill-rule="nonzero" d="M161.68 177.05s0 .52.24.82c.22.3.68.38.68.38s-.16-.3-.16-.52c-.08-.24.22-.46.22-.46s-.22-.22-.44-.22h-.54z"/><path fill="none" stroke="#000" stroke-width=".9" stroke-miterlimit="22.926" d="M161.68 177.05s0 .52.24.82c.22.3.68.38.68.38s-.16-.3-.16-.52c-.08-.24.22-.46.22-.46s-.22-.22-.44-.22h-.54zm10.61.82s1.28.84 1.28 1.44c0 .68-.68 1.52-.68 1.52"/><path fill="#DA4546" fill-rule="nonzero" d="M166.38 181.51s-.3-.38-.76-.38c-.45 0-.9.46-.9.46s.52-.08.68.15c.14.23.3.45.3.45s.22-.15.38-.22c.08-.16.3-.46.3-.46z"/><path fill="none" stroke="#000" stroke-width=".9" stroke-miterlimit="22.926" d="M166.38 181.51s-.3-.38-.76-.38c-.45 0-.9.46-.9.46s.52-.08.68.15c.14.23.3.45.3.45s.22-.15.38-.22c.08-.16.3-.46.3-.46z"/><path fill="#DA4546" fill-rule="nonzero" d="M165.02 183.33s-.61-.08-.92.23c-.3.3-.3.83-.3.83s.38-.38.68-.38c.31 0 .69.23.69.23s-.08-.3-.08-.53c0-.15-.07-.38-.07-.38z"/><path fill="none" stroke="#000" stroke-width=".9" stroke-miterlimit="22.926" d="M165.02 183.33s-.61-.08-.92.23c-.3.3-.3.83-.3.83s.38-.38.68-.38c.31 0 .69.23.69.23s-.08-.3-.08-.53c0-.15-.07-.38-.07-.38z"/><path fill="#DA4546" fill-rule="nonzero" d="M166.3 185.22s-.3.38-.08.76c.24.3.69.46.69.46s-.15-.23-.07-.54c.07-.22.44-.53.44-.53l-.98-.15z"/><path fill="none" stroke="#000" stroke-width=".9" stroke-miterlimit="22.926" d="M166.3 185.22s-.3.38-.08.76c.24.3.69.46.69.46s-.15-.23-.07-.54c.07-.22.44-.53.44-.53l-.98-.15z"/><path fill="#DA4546" fill-rule="nonzero" d="M174.19 185.98s-.54-.16-.84.08c-.3.15-.53.9-.53.9s.45-.38.83-.38l.6.16s.08-.3 0-.53c0-.08-.06-.23-.06-.23z"/><path fill="none" stroke="#000" stroke-width=".9" stroke-miterlimit="22.926" d="M174.19 185.98s-.54-.16-.84.08c-.3.15-.53.9-.53.9s.45-.38.83-.38l.6.16s.08-.3 0-.53c0-.08-.06-.23-.06-.23z"/><path fill="#DA4546" fill-rule="nonzero" d="M174.41 187.88s-.38.38-.23.75c.15.31.37.69.37.69s0-.54.16-.69c.22-.23.68-.23.68-.23s-.38-.3-.46-.3c-.06 0-.52-.22-.52-.22z"/><path fill="none" stroke="#000" stroke-width=".9" stroke-miterlimit="22.926" d="M174.41 187.88s-.38.38-.23.75c.15.31.37.69.37.69s0-.54.16-.69c.22-.23.68-.23.68-.23s-.38-.3-.46-.3c-.06 0-.52-.22-.52-.22z"/><path fill="#DA4546" fill-rule="nonzero" d="M176.37 188.48s-.22.54.16.84c.38.3.68.38.68.38s-.3-.54-.22-.76c.08-.3.38-.46.38-.46s-.46-.16-.54-.16c0-.06-.46.16-.46.16z"/><path fill="none" stroke="#000" stroke-width=".9" stroke-miterlimit="22.926" d="M176.37 188.48s-.22.54.16.84c.38.3.68.38.68.38s-.3-.54-.22-.76c.08-.3.38-.46.38-.46s-.46-.16-.54-.16c0-.06-.46.16-.46.16z"/><path fill="#FFD791" fill-rule="nonzero" d="M156.15 223.7c1.29.38 1.97 1.38 1.97 2.58 0 1.52-1.44 2.66-3.33 2.66-1.89 0-3.41-1.14-3.41-2.66 0-1.14.61-2.42 1.97-2.5 0 0-.08-.14-.15-.3-.15-.16-.38-.46-.38-.46s.53-.08.76 0c.3.16.45.3.45.3s.15-.3.3-.44c.15-.24.46-.32.46-.32s.3.24.37.38c.08.16.16.38.16.38s.3-.22.53-.3c.23-.08.53-.14.53-.14s-.08.3-.16.44c-.07.08-.07.38-.07.38z"/><path fill="none" stroke="#000" stroke-width=".9" stroke-miterlimit="22.926" d="M156.15 223.7c1.29.38 1.97 1.38 1.97 2.58 0 1.52-1.44 2.66-3.33 2.66-1.89 0-3.41-1.14-3.41-2.66 0-1.14.61-2.42 1.97-2.5 0 0-.08-.14-.15-.3-.15-.16-.38-.46-.38-.46s.53-.08.76 0c.3.16.45.3.45.3s.15-.3.3-.44c.15-.24.46-.32.46-.32s.3.24.37.38c.08.16.16.38.16.38s.3-.22.53-.3c.23-.08.53-.14.53-.14s-.08.3-.16.44c-.07.08-.07.38-.07.38z"/><path fill="#008F6F" fill-rule="nonzero" d="M154.48 230.6s-2.49-1.66-3.63-1.97c-1.44-.31-2.96-.07-3.64-.07 0 0 .84.6 1.14.9.38.38 1.52 1.06 2.2 1.22 2.04.52 3.93-.08 3.93-.08z"/><path fill="none" stroke="#000" stroke-width=".9" stroke-miterlimit="22.926" d="M154.48 230.6s-2.49-1.66-3.63-1.97c-1.44-.31-2.96-.07-3.64-.07 0 0 .84.6 1.14.9.38.38 1.52 1.06 2.2 1.22 2.04.52 3.93-.08 3.93-.08z"/><path fill="#008F6F" fill-rule="nonzero" d="M155.24 230.75s1.6-1.67 3.34-1.89c1.96-.3 3.32.15 4.08.38 0 0-.6.3-.98.53-.38.23-1.2.98-2.66.98-1.36 0-2.87-.15-3.17-.07-.23 0-.61.07-.61.07z"/><path fill="none" stroke="#000" stroke-width=".9" stroke-miterlimit="22.926" d="M155.24 230.75s1.6-1.67 3.34-1.89c1.96-.3 3.32.15 4.08.38 0 0-.6.3-.98.53-.38.23-1.2.98-2.66.98-1.36 0-2.87-.15-3.17-.07-.23 0-.61.07-.61.07z"/><path fill="#AC1F23" fill-rule="nonzero" d="M154.71 228.63c-.6-.61-1.06-1.43-1.06-2.35 0-.9.38-1.74 1.06-2.34.61.6.99 1.44.99 2.34.07.92-.3 1.74-.99 2.35z"/><path fill="none" stroke="#000" stroke-width=".9" stroke-miterlimit="22.926" d="M154.71 228.63c-.6-.61-1.06-1.43-1.06-2.35 0-.9.38-1.74 1.06-2.34.61.6.99 1.44.99 2.34.07.92-.3 1.74-.99 2.35z"/><path fill="#008F6F" fill-rule="nonzero" d="M154.11 232.04s.37-.98.45-1.82c0-.68-.08-1.36-.08-1.36h.54s.22.76.22 1.36c0 .61-.08 1.52-.08 1.52s-.37.07-.45.07c-.23.15-.6.23-.6.23z"/><path fill="none" stroke="#000" stroke-width=".9" stroke-miterlimit="22.926" d="M154.11 232.04s.37-.98.45-1.82c0-.68-.08-1.36-.08-1.36h.54s.22.76.22 1.36c0 .61-.08 1.52-.08 1.52s-.37.07-.45.07c-.23.15-.6.23-.6.23z"/><path fill="#C8B32F" fill-rule="nonzero" d="M141.91 167.57h2.34-2.34zm-4.4-3.48h2.2-2.2zm-4.53 3.48h2.34-2.34zm5.6-1.89v-1.14 1.14zm0 2.35v-1.21 1.21zm0 3.48v-1.14 1.14zm0 2.34v-1.2 1.2zm0 4.7v-1.2 1.2zm0-2.34v-1.14 1.14zm0 4.85v-1.29 1.29zm4.55-13.03v1.13-1.13zm-2.2 2.34v1.14-1.14zm4.38 0v1.14-1.14zm-1.06 1.14v1.22-1.22zm-2.34 0v1.22-1.22zm-2.2 0v1.22-1.22zm1.22 1.22v1.2-1.2zm2.2 0v1.2-1.2zm2.18 0v1.2-1.2zm-1.06 1.12v1.22-1.22zm-2.34 0v1.22-1.22zm-2.2 0v1.22-1.22zm1.22 1.22v1.14-1.14zm-1.22 1.14v1.22-1.22zm0 2.34v1.14-1.14zm1.22 2.51v-1.29 1.29zm-1.22 0v1.21-1.21zm2.2 0v1.21-1.21zm2.34 0v1.21-1.21zm-3.32 2.19v-1.06 1.06zm.98 0v1.29-1.29zm4.54 1.37v-1.37 1.37zm-2.2 0v-1.37 1.37zm-1.12-3.56v-1.29 1.29zm0 2.19v-1.06 1.06zm0 2.51v-1.22 1.22zm0 2.34v-1.21 1.21zm1.12-1.14v-1.2 1.2zm2.2-1.2v1.2-1.2zm-1.14 0v-1.22 1.22zm0 2.34v-1.21 1.21zm0-21.51h-4.38 4.38zm-1.06 1.44h-2.34 2.34zm-10.07 0v1.13-1.13zm2.2 2.34v1.14-1.14zm-4.46 0v1.14-1.14zm1.06 1.14v1.22-1.22zm2.34 0v1.22-1.22zm2.19 0v1.22-1.22zm-1.13 1.22v1.2-1.2zm-2.2 0v1.2-1.2zm-2.26 0v1.2-1.2zm1.06 1.12v1.22-1.22zm2.34 0v1.22-1.22zm2.19 0v1.22-1.22zm-1.13 1.22v1.14-1.14zm1.13 1.14v1.22-1.22zm0 2.34v1.14-1.14zm-1.13 2.51v-1.29 1.29zm1.13 0v1.21-1.21zm-2.19 0v1.21-1.21zm-2.34 0v1.21-1.21zm3.4 2.19v-1.06 1.06zm-1.06 0v1.29-1.29zm-4.54 1.37v-1.37 1.37zm2.2 0v-1.37 1.37zm1.2-3.56v-1.29 1.29zm0 2.19v-1.06 1.06zm0 2.51v-1.22 1.22zm0 2.34v-1.21 1.21zm-1.2-1.14v-1.2 1.2zm-2.2-1.2v1.2-1.2zm1.14 0v-1.22 1.22zm0 2.34v-1.21 1.21zm0-21.51h4.38-4.38zm1.06 1.44h2.34-2.34zm3.4-5.01h4.55-4.55zm1.13 1.44h2.2-2.2zm0 1.22h2.2-2.2zm0 1.14h2.2-2.2zm0 1.21h2.2-2.2zm-4.53 1.13h11.27-11.27zm-2.2 1.21h15.67-15.67zm0 1.14h15.67-15.67zm0 1.22h15.67-15.67zm0 1.12h15.67-15.67zm1.14 1.22h13.33-13.33zm0 1.14h13.33-13.33zm0 1.22h13.33-13.33zm0 1.12h13.33-13.33zm0 1.22h13.33-13.33zm0 1.29h13.33-13.33zm0 1.21h13.33-13.33zm-2.36.98h18.03-18.03zm0 1.37h18.03-18.03zm0 1.14h18.03-18.03zm0 1.2h18.03-18.03zm0 1.14h18.03-18.03zm4.02-22.27h-.6v-.61h-1.06v2.35h1.06v1.59h-2.2v4.69h1.14v9.4h-2.36v4.85h18.03v-4.85h-2.34v-9.4h1.2v-4.69h-2.2v-1.59h1.06v-2.35h-1.06v.61h-.6v-.61h-1.06v.61h-.76v-.61h-1.06v2.35h1.06v1.59h-2.2v-5.14h1.14v-2.36h-1.14v.61h-.6v-.61h-1.06v.61h-.46v-.61h-1.13v2.36h1.13v5.14h-2.19v-1.59h1.06v-2.35h-1.06v.61h-.6v-.61h-1.14v.61z"/><path fill="none" stroke="#000" stroke-width=".9" stroke-miterlimit="22.926" d="M141.91 167.57h2.34m-6.74-3.48h2.2m-6.73 3.48h2.34m3.26-1.89v-1.14m0 3.49v-1.21m0 4.69v-1.14m0 3.48v-1.2m0 5.9v-1.2m0-1.14v-1.14m0 5.99v-1.29m4.55-11.74v1.13m-2.2 1.21v1.14m4.38-1.14v1.14m-1.06 0v1.22m-2.34-1.22v1.22m-2.2-1.22v1.22m1.22 0v1.2m2.2-1.2v1.2m2.18-1.2v1.2m-1.06-.08v1.22m-2.34-1.22v1.22m-2.2-1.22v1.22m1.22 0v1.14m-1.22 0v1.22m0 1.12v1.14m1.22 1.37v-1.29m-1.22 1.29v1.21m2.2-1.21v1.21m2.34-1.21v1.21m-3.32.98v-1.06m.98 1.06v1.29m4.54.08v-1.37m-2.2 1.37v-1.37m-1.12-2.19v-1.29m0 3.48v-1.06m0 3.57v-1.22m0 3.56v-1.21m1.12.07v-1.2m2.2 0v1.2m-1.14-1.2v-1.22m0 3.56v-1.21m0-20.3h-4.38m3.32 1.44h-2.34m-7.73 0v1.13m2.2 1.21v1.14m-4.46-1.14v1.14m1.06 0v1.22m2.34-1.22v1.22m2.19-1.22v1.22m-1.13 0v1.2m-2.2-1.2v1.2m-2.26-1.2v1.2m1.06-.08v1.22m2.34-1.22v1.22m2.19-1.22v1.22m-1.13 0v1.14m1.13 0v1.22m0 1.12v1.14m-1.13 1.37v-1.29m1.13 1.29v1.21m-2.19-1.21v1.21m-2.34-1.21v1.21m3.4.98v-1.06m-1.06 1.06v1.29m-4.54.08v-1.37m2.2 1.37v-1.37m1.2-2.19v-1.29m0 3.48v-1.06m0 3.57v-1.22m0 3.56v-1.21m-1.2.07v-1.2m-2.2 0v1.2m1.14-1.2v-1.22m0 3.56v-1.21m0-20.3h4.38m-3.32 1.44h2.34m1.06-5.01h4.55m-3.42 1.44h2.2m-2.2 1.22h2.2m-2.2 1.14h2.2m-2.2 1.21h2.2m-6.73 1.13h11.27m-13.47 1.21h15.67m-15.67 1.14h15.67m-15.67 1.22h15.67m-15.67 1.12h15.67m-14.53 1.22h13.33m-13.33 1.14h13.33m-13.33 1.22h13.33m-13.33 1.12h13.33m-13.33 1.22h13.33m-13.33 1.29h13.33m-13.33 1.21h13.33m-15.69.98h18.03m-18.03 1.37h18.03m-18.03 1.14h18.03m-18.03 1.2h18.03m-18.03 1.14h18.03m-14.01-22.27h-.6v-.61h-1.06v2.35h1.06v1.59h-2.2v4.69h1.14v9.4h-2.36v4.85h18.03v-4.85h-2.34v-9.4h1.2v-4.69h-2.2v-1.59h1.06v-2.35h-1.06v.61h-.6v-.61h-1.06v.61h-.76v-.61h-1.06v2.35h1.06v1.59h-2.2v-5.14h1.14v-2.36h-1.14v.61h-.6v-.61h-1.06v.61h-.46v-.61h-1.13v2.36h1.13v5.14h-2.19v-1.59h1.06v-2.35h-1.06v.61h-.6v-.61h-1.14v.61z"/><path fill="#C8B32F" fill-rule="nonzero" d="M141.61 188.1V185c0-.61-.3-2.35-3.11-2.35-2.65 0-2.95 1.74-2.95 2.35v3.1h6.06z"/><path fill="none" stroke="#000" stroke-width=".9" stroke-miterlimit="22.926" d="M141.61 188.1V185c0-.61-.3-2.35-3.11-2.35-2.65 0-2.95 1.74-2.95 2.35v3.1h6.06z"/><path fill="#C8B32F" fill-rule="nonzero" d="m136.61 185.22-1.44-.15c0-.61.15-1.44.61-1.74l1.28 1.06c-.15.07-.45.53-.45.83z"/><path fill="none" stroke="#000" stroke-width=".9" stroke-miterlimit="22.926" d="m136.61 185.22-1.44-.15c0-.61.15-1.44.61-1.74l1.28 1.06c-.15.07-.45.53-.45.83z"/><path fill="#C8B32F" fill-rule="nonzero" d="m140.62 185.22 1.43-.15c0-.61-.14-1.44-.6-1.74l-1.28 1.06c.15.07.45.53.45.83z"/><path fill="none" stroke="#000" stroke-width=".9" stroke-miterlimit="22.926" d="m140.62 185.22 1.43-.15c0-.61-.14-1.44-.6-1.74l-1.28 1.06c.15.07.45.53.45.83z"/><path fill="#C8B32F" fill-rule="nonzero" d="m139.11 183.71.76-1.29c-.31-.15-.92-.3-1.29-.3-.31 0-.91.15-1.14.3l.76 1.29h.91z"/><path fill="none" stroke="#000" stroke-width=".9" stroke-miterlimit="22.926" d="m139.11 183.71.76-1.29c-.31-.15-.92-.3-1.29-.3-.31 0-.91.15-1.14.3l.76 1.29h.91z"/><path fill="#C8B32F" fill-rule="nonzero" d="M136.38 180.07v-3.26c0-.9-.6-1.58-1.59-1.58-.99 0-1.59.76-1.59 1.58v3.26h3.18z"/><path fill="none" stroke="#000" stroke-width=".9" stroke-miterlimit="22.926" d="M136.38 180.07v-3.26c0-.9-.6-1.58-1.59-1.58-.99 0-1.59.76-1.59 1.58v3.26h3.18z"/><path fill="#C8B32F" fill-rule="nonzero" d="M140.93 180.07v-3.26c0-.9.6-1.58 1.58-1.58 1.06 0 1.6.76 1.6 1.58v3.26h-3.18z"/><path fill="none" stroke="#000" stroke-width=".9" stroke-miterlimit="22.926" d="M140.93 180.07v-3.26c0-.9.6-1.58 1.58-1.58 1.06 0 1.6.76 1.6 1.58v3.26h-3.18z"/><path fill="#C8B32F" fill-rule="nonzero" d="m139.71 172.11.3-2.95h-2.8l.15 2.95z"/><path fill="none" stroke="#000" stroke-width=".9" stroke-miterlimit="22.926" d="m139.71 172.11.3-2.95h-2.8l.15 2.95z"/><path fill="#C8B32F" fill-rule="nonzero" d="m141.91 172.11-.3-2.95h2.96l-.32 2.95z"/><path fill="none" stroke="#000" stroke-width=".9" stroke-miterlimit="22.926" d="m141.91 172.11-.3-2.95h2.96l-.32 2.95z"/><path fill="#C8B32F" fill-rule="nonzero" d="m135.32 172.11.15-2.95h-2.8l.31 2.95z"/><path fill="none" stroke="#000" stroke-width=".9" stroke-miterlimit="22.926" d="m135.32 172.11.15-2.95h-2.8l.31 2.95z"/><path fill="#3A57A7" fill-rule="nonzero" d="M140.62 188.1v-2.58c0-.45-.3-1.74-2.04-1.74-1.59 0-1.9 1.29-1.9 1.74v2.66h3.94v-.08zm-4.54-8.33v-2.8c0-.76-.46-1.44-1.29-1.44-.83 0-1.29.76-1.29 1.44v2.8h2.58zm5.15 0v-2.8c0-.76.46-1.44 1.28-1.44.84 0 1.36.76 1.36 1.44v2.8h-2.64z"/><path fill="#C8B32F" fill-rule="nonzero" d="M175.17 162.2h-.16s-.08.14-.14.22c-.16.16-.38.16-.54.08-.08-.08-.08-.16-.08-.23-.07.07-.22.07-.3 0-.15-.07-.22-.31-.08-.53l.08-.08v-.22l-.22.08-.08.14c-.15.16-.38.24-.46.08-.07-.08-.07-.16-.07-.16l-.08.08c-.38.08-.45-.68-.45-.82l-.08.14s.08.46.08.84l-.16.76c.46.14 1.22.52 1.9 1.06.68.52 1.28 1.13 1.52 1.51 0 0 .38-.23.76-.31.38-.14.82-.14.82-.14l.16-.16c-.24 0-.98.08-.98-.3 0-.08.06-.15.06-.15s-.14 0-.14-.07c-.16-.08-.16-.31 0-.46l.14-.08v-.22h-.22l-.08.08c-.14.14-.38.14-.52 0-.08-.08-.08-.16-.08-.32h-.3c-.16-.07-.24-.3-.08-.52.08-.08.15-.23.22-.23l-.44-.07z"/><path fill="none" stroke="#000" stroke-width=".9" stroke-miterlimit="22.926" d="M175.17 162.2h-.16s-.08.14-.14.22c-.16.16-.38.16-.54.08-.08-.08-.08-.16-.08-.23-.07.07-.22.07-.3 0-.15-.07-.22-.31-.08-.53l.08-.08v-.22l-.22.08-.08.14c-.15.16-.38.24-.46.08-.07-.08-.07-.16-.07-.16l-.08.08c-.38.08-.45-.68-.45-.82l-.08.14s.08.46.08.84l-.16.76c.46.14 1.22.52 1.9 1.06.68.52 1.28 1.13 1.52 1.51 0 0 .38-.23.76-.31.38-.14.82-.14.82-.14l.16-.16c-.24 0-.98.08-.98-.3 0-.08.06-.15.06-.15s-.14 0-.14-.07c-.16-.08-.16-.31 0-.46l.14-.08v-.22h-.22l-.08.08c-.14.14-.38.14-.52 0-.08-.08-.08-.16-.08-.32h-.3c-.16-.07-.24-.3-.08-.52.08-.08.15-.23.22-.23l-.44-.07z"/><path fill-rule="nonzero" d="M173.81 162.65c0-.07.06-.07.14 0 .08 0 .08.07 0 .15h-.14c-.08-.08-.08-.15 0-.15z"/><path fill="none" stroke="#000" stroke-width=".9" stroke-miterlimit="22.926" d="M173.81 162.65c0-.07.06-.07.14 0 .08 0 .08.07 0 .15h-.14c-.08-.08-.08-.15 0-.15z"/><path fill-rule="nonzero" d="m174.41 163.1-.23-.15s-.07-.07 0-.07h.07l.24.14.22.16s.08.08 0 .08h-.16l-.14-.16z"/><path fill="none" stroke="#000" stroke-width=".9" stroke-miterlimit="22.926" d="m174.41 163.1-.23-.15s-.07-.07 0-.07h.07l.24.14.22.16s.08.08 0 .08h-.16l-.14-.16z"/><path fill-rule="nonzero" d="m173.27 162.34-.15-.07c-.07 0-.07-.07-.07-.07h.07l.15.07.16.07.07.08h-.07l-.16-.08z"/><path fill="none" stroke="#000" stroke-width=".9" stroke-miterlimit="22.926" d="m173.27 162.34-.15-.07c-.07 0-.07-.07-.07-.07h.07l.15.07.16.07.07.08h-.07l-.16-.08z"/><path fill-rule="nonzero" d="M172.59 161.96c0-.06.08-.06.15 0 .08.08.08.08 0 .16h-.15v-.16z"/><path fill="none" stroke="#000" stroke-width=".9" stroke-miterlimit="22.926" d="M172.59 161.96c0-.06.08-.06.15 0 .08.08.08.08 0 .16h-.15v-.16z"/><path fill-rule="nonzero" d="M175.01 163.64v-.16h-.14v.16c0 .07.14 0 .14 0z"/><path fill="none" stroke="#000" stroke-width=".9" stroke-miterlimit="22.926" d="M175.01 163.64v-.16h-.14v.16c0 .07.14 0 .14 0z"/><path fill-rule="nonzero" d="m175.39 164.02.16.14h.08v-.07l-.08-.15-.16-.16h-.14v.08z"/><path fill="none" stroke="#000" stroke-width=".9" stroke-miterlimit="22.926" d="m175.39 164.02.16.14h.08v-.07l-.08-.15-.16-.16h-.14v.08z"/><path fill-rule="nonzero" d="M175.99 164.54v-.15c-.06-.07-.14-.07-.14 0v.15h.14z"/><path fill="none" stroke="#000" stroke-width=".9" stroke-miterlimit="22.926" d="M175.99 164.54v-.15c-.06-.07-.14-.07-.14 0v.15h.14z"/><path fill="#C8B32F" fill-rule="nonzero" d="M174.25 160.68h-.38l-.06.6.06.08h.08l.46-.3z"/><path fill="none" stroke="#000" stroke-width=".9" stroke-miterlimit="22.926" d="M174.25 160.68h-.38l-.06.6.06.08h.08l.46-.3z"/><path fill="#C8B32F" fill-rule="nonzero" d="m173.27 160.98-.08.38.62.08.06-.08v-.08l-.3-.44z"/><path fill="none" stroke="#000" stroke-width=".9" stroke-miterlimit="22.926" d="m173.27 160.98-.08.38.62.08.06-.08v-.08l-.3-.44z"/><path fill="#C8B32F" fill-rule="nonzero" d="m174.49 161.66-.38.24-.3-.46v-.16h.06l.62.08z"/><path fill="none" stroke="#000" stroke-width=".9" stroke-miterlimit="22.926" d="m174.49 161.66-.38.24-.3-.46v-.16h.06l.62.08z"/><path fill="#C8B32F" fill-rule="nonzero" d="M173.73 161.28c.08-.08.14-.14.22-.08.08.08.16.16.08.24-.08.08-.16.08-.22.08-.16-.08-.16-.16-.08-.24z"/><path fill="none" stroke="#000" stroke-width=".9" stroke-miterlimit="22.926" d="M173.73 161.28c.08-.08.14-.14.22-.08.08.08.16.16.08.24-.08.08-.16.08-.22.08-.16-.08-.16-.16-.08-.24z"/><path fill="#C8B32F" fill-rule="nonzero" d="M172.29 160.68s-.08-.3-.16-.46c-.07-.14-.22-.3-.22-.3s.3-.14.52.08c.24.22 0 .53 0 .53s-.06.15-.14.15z"/><path fill="none" stroke="#000" stroke-width=".9" stroke-miterlimit="22.926" d="M172.29 160.68s-.08-.3-.16-.46c-.07-.14-.22-.3-.22-.3s.3-.14.52.08c.24.22 0 .53 0 .53s-.06.15-.14.15z"/><path fill="#C8B32F" fill-rule="nonzero" d="m172.97 160.9-.23.24-.45-.38v-.08l.08-.08.52-.08z"/><path fill="none" stroke="#000" stroke-width=".9" stroke-miterlimit="22.926" d="m172.97 160.9-.23.24-.45-.38v-.08l.08-.08.52-.08z"/><path fill="#C8B32F" fill-rule="nonzero" d="M172.29 160.68c0-.08.08-.16.14-.16.08 0 .08.16.08.24 0 .08-.08.14-.14.14-.16-.06-.16-.14-.08-.22z"/><path fill="none" stroke="#000" stroke-width=".9" stroke-miterlimit="22.926" d="M172.29 160.68c0-.08.08-.16.14-.16.08 0 .08.16.08.24 0 .08-.08.14-.14.14-.16-.06-.16-.14-.08-.22z"/><path fill="#C8B32F" fill-rule="nonzero" d="M175.69 161.58h-.38l-.14.54v.08h.14l.54-.24z"/><path fill="none" stroke="#000" stroke-width=".9" stroke-miterlimit="22.926" d="M175.69 161.58h-.38l-.14.54v.08h.14l.54-.24z"/><path fill="#C8B32F" fill-rule="nonzero" d="m174.63 161.74-.08.38.62.15.08-.07v-.08l-.24-.46z"/><path fill="none" stroke="#000" stroke-width=".9" stroke-miterlimit="22.926" d="m174.63 161.74-.08.38.62.15.08-.07v-.08l-.24-.46z"/><path fill="#C8B32F" fill-rule="nonzero" d="m175.77 162.58-.38.14-.22-.45v-.15h.08l.52.15z"/><path fill="none" stroke="#000" stroke-width=".9" stroke-miterlimit="22.926" d="m175.77 162.58-.38.14-.22-.45v-.15h.08l.52.15z"/><path fill="#C8B32F" fill-rule="nonzero" d="M175.01 162.12c.08-.08.16-.08.24 0 .06.08.06.15 0 .22-.08.08-.16.08-.24 0v-.22z"/><path fill="none" stroke="#000" stroke-width=".9" stroke-miterlimit="22.926" d="M175.01 162.12c.08-.08.16-.08.24 0 .06.08.06.15 0 .22-.08.08-.16.08-.24 0v-.22z"/><path fill="#C8B32F" fill-rule="nonzero" d="M176.99 162.8v.3l-.54.24-.08-.08v-.08l.24-.53z"/><path fill="none" stroke="#000" stroke-width=".9" stroke-miterlimit="22.926" d="M176.99 162.8v.3l-.54.24-.08-.08v-.08l.24-.53z"/><path fill="#C8B32F" fill-rule="nonzero" d="m176.83 163.78-.3.08-.22-.52v-.08h.14l.54.22z"/><path fill="none" stroke="#000" stroke-width=".9" stroke-miterlimit="22.926" d="m176.83 163.78-.3.08-.22-.52v-.08h.14l.54.22z"/><path fill="#C8B32F" fill-rule="nonzero" d="m175.93 162.8-.16.3.54.24h.06l.08-.08-.22-.54z"/><path fill="none" stroke="#000" stroke-width=".9" stroke-miterlimit="22.926" d="m175.93 162.8-.16.3.54.24h.06l.08-.08-.22-.54z"/><path fill="#C8B32F" fill-rule="nonzero" d="M176.45 163.4c.08-.06.08-.14 0-.22-.08-.08-.14-.08-.22 0-.08.08-.08.16 0 .22.08.08.14.08.22 0z"/><path fill="none" stroke="#000" stroke-width=".9" stroke-miterlimit="22.926" d="M176.45 163.4c.08-.06.08-.14 0-.22-.08-.08-.14-.08-.22 0-.08.08-.08.16 0 .22.08.08.14.08.22 0z"/><path fill="#C8B32F" fill-rule="nonzero" d="M177.37 164.54s.3 0 .52.08c.16 0 .3.15.3.15s.08-.3-.14-.53c-.24-.15-.54.15-.54.15s-.14.07-.14.15z"/><path fill="none" stroke="#000" stroke-width=".9" stroke-miterlimit="22.926" d="M177.37 164.54s.3 0 .52.08c.16 0 .3.15.3.15s.08-.3-.14-.53c-.24-.15-.54.15-.54.15s-.14.07-.14.15z"/><path fill="#C8B32F" fill-rule="nonzero" d="m176.99 164.02-.16.3.46.3.08-.08h.06l-.06-.52z"/><path fill="none" stroke="#000" stroke-width=".9" stroke-miterlimit="22.926" d="m176.99 164.02-.16.3.46.3.08-.08h.06l-.06-.52z"/><path fill="#C8B32F" fill-rule="nonzero" d="M177.43 164.62c.08-.08.16-.16.08-.23s-.14-.07-.22 0c-.08.07-.16.15-.08.23.08.08.16.08.22 0z"/><path fill="none" stroke="#000" stroke-width=".9" stroke-miterlimit="22.926" d="M177.43 164.62c.08-.08.16-.16.08-.23s-.14-.07-.22 0c-.08.07-.16.15-.08.23.08.08.16.08.22 0z"/><path fill="none" stroke="#000" stroke-width=".9" stroke-miterlimit="22.926" d="M154.48 193.02h31.97v-35.38h-31.97z"/><path fill="#4D4D4D" fill-rule="nonzero" d="M89.43 325.03h244.12c14.71 0 24.95 11.89 26.91 26.91l20.46 133.11c0 14.71-12.2 26.91-26.91 26.91H68.97c-14.76 0-26.91-12.15-26.91-26.91l20.46-133.11c3.37-15.67 12.87-26.91 26.91-26.91z"/><path fill="#fff" d="M87.52 335.92h247.92c7.77 0 13.01 6.69 14.12 14.13l20.47 136.89c1.11 7.45-6.6 14.13-14.13 14.13H67.06c-7.53 0-15.27-6.44-14.12-14.13l20.45-136.89c1.15-7.69 6.36-14.13 14.13-14.13z"/><path fill="#333" fill-rule="nonzero" d="M128.25 400.34h-9.31v-38.35h11.4l6.22 20.49 6.2-20.49h11.42v38.35h-9.26v-24.37l-4.78 16.06h-7.16l-4.73-15.94v24.25zm50.24 0-1.2-5.73h-9.2l-1.25 5.73h-10.28l9.86-38.35h12.73l9.85 38.35h-10.51zm-8.78-13.15h5.97l-2.93-13.79-3.04 13.79zm22.27-25.2h17.63c5.86 0 8.77 2.46 8.77 7.41v23.54c0 4.93-2.91 7.4-8.77 7.4h-17.63v-38.35zm15.95 30.16v-21.98c0-.87-.5-1.31-1.49-1.31h-4v24.61h4c.99 0 1.49-.44 1.49-1.32zm25.51.72h13.09v7.47h-23.54v-38.35h23v7.46h-12.55v7.84h10.81v7.46h-10.81v8.12zm28.32-30.88h10.45v38.35h-10.45v-38.35zm32.72 0h9.56v38.35h-8.96l-8.54-20.13v20.13h-9.55v-38.35h8.96l8.53 20.49v-20.49z"/><path fill="#C52026" fill-rule="nonzero" d="M136.87 462.71v-7.61c0-1.23-.7-1.84-2.09-1.84h-8.03c-4.12 0-7.04-.91-8.74-2.72-1.7-1.82-2.55-4.42-2.55-7.82v-11.04c0-6.92 4.07-10.38 12.2-10.38h11.46c8.16 0 12.22 3.46 12.22 10.38v6.43H136.7v-4.51c0-1.23-.69-1.84-2.09-1.84h-2.42c-1.4 0-2.09.61-2.09 1.84v7.94c0 1.23.69 1.85 2.09 1.85h7.86c4.12 0 7.07.86 8.82 2.59 1.76 1.72 2.64 4.26 2.64 7.61v11.04c0 6.93-4.08 10.38-12.22 10.38h-11.36c-8.21 0-12.3-3.45-12.3-10.38v-6.43h14.64v4.51c0 1.23.69 1.85 2.08 1.85h2.43c1.39 0 2.09-.62 2.09-1.85zm21.33-41.41h24.85c8.19 0 12.29 3.46 12.29 10.38v15.38c0 6.92-4.1 10.38-12.29 10.38h-10.21v17.57H158.2V421.3zm22.5 23.84V433.6c0-1.23-.7-1.84-2.09-1.84h-5.77v15.22h5.77c1.39 0 2.09-.61 2.09-1.84zm47.86 29.87-1.67-8.03H214l-1.75 8.03h-14.39l13.8-53.71h17.82l13.8 53.71h-14.72zm-12.3-18.41h8.37l-4.1-19.32-4.27 19.32zm31.21-35.3h14.64v53.71h-14.64V421.3zm46.67 0h13.38v53.71h-12.55l-11.95-28.2v28.2h-13.39V421.3h12.55l11.96 28.69V421.3z"/></svg>