<svg xmlns="http://www.w3.org/2000/svg" shape-rendering="geometricPrecision" text-rendering="geometricPrecision" image-rendering="optimizeQuality" fill-rule="evenodd" clip-rule="evenodd" viewBox="0 0 423 511.96"><path fill="#4D4D4D" fill-rule="nonzero" d="M211.5 0c58.4 0 111.28 23.68 149.55 61.95C399.32 100.22 423 153.1 423 211.5c0 58.4-23.68 111.28-61.95 149.55C322.78 399.32 269.9 423 211.5 423c-58.39 0-111.28-23.68-149.55-61.95C23.68 322.78 0 269.89 0 211.5c0-58.4 23.68-111.28 61.95-149.55C100.22 23.68 153.1 0 211.5 0z"/><path fill="#fff" fill-rule="nonzero" d="M211.5 16.18c53.93 0 102.78 21.87 138.11 57.21 35.34 35.33 57.21 84.18 57.21 138.11 0 53.93-21.88 102.77-57.22 138.11l-.98.9c-35.29 34.81-83.74 56.31-137.12 56.31-53.86 0-102.7-21.89-138.05-57.25-35.38-35.3-57.26-84.14-57.26-138.07 0-53.9 21.89-102.72 57.2-138.05 35.34-35.4 84.2-57.27 138.11-57.27z"/><path fill="#006AA7" fill-rule="nonzero" d="M211.5 32.71c98.75 0 178.79 80.04 178.79 178.79 0 98.74-80.04 178.8-178.79 178.8-98.74 0-178.78-80.06-178.78-178.8 0-98.75 80.04-178.79 178.78-178.79z"/><path fill="#FECC00" fill-rule="nonzero" d="M32.82 217.36h123.96v164.39c17.24 5.54 35.63 8.55 54.72 8.55 2.31 0 4.58-.06 6.86-.15V217.36h171.83l.1-5.86c0-19.46-3.13-38.2-8.87-55.73H218.36V32.85c-2.28-.09-4.55-.14-6.86-.14-19.09 0-37.48 3.01-54.72 8.54v114.52H41.59c-5.75 17.53-8.87 36.27-8.87 55.73l.1 5.86z"/><path fill="#4D4D4D" fill-rule="nonzero" d="M61.76 325.03h299.47c14.71 0 24.95 11.89 26.91 26.91l20.46 133.11c0 14.71-12.2 26.91-26.91 26.91H41.3c-14.76 0-26.9-12.15-26.9-26.91l20.46-133.11c3.36-15.67 12.86-26.91 26.9-26.91z"/><path fill="#fff" d="M59.87 335.92h303.26c7.77 0 13.01 6.67 14.13 14.13l20.46 136.9c1.12 7.46-6.58 14.12-14.12 14.12H39.42c-7.55 0-15.28-6.43-14.13-14.12l20.46-136.9c1.15-7.69 6.35-14.13 14.12-14.13z"/><path fill="#333" fill-rule="nonzero" d="M128.27 400.34h-9.32V362h11.41l6.21 20.49 6.21-20.49h11.42v38.34h-9.27v-24.37l-4.77 16.07h-7.17l-4.72-15.95v24.25zm50.24 0-1.21-5.73h-9.2l-1.25 5.73h-10.27l9.85-38.34h12.73l9.85 38.34h-10.5zm-8.78-13.14h5.96l-2.93-13.79-3.03 13.79zM192 362h17.62c5.86 0 8.78 2.46 8.78 7.4v23.54c0 4.93-2.92 7.4-8.78 7.4H192V362zm15.95 30.15v-21.98c0-.87-.5-1.31-1.5-1.31h-4v24.62h4c1 0 1.5-.45 1.5-1.33zm25.51.72h13.08v7.47H223V362h23.01v7.45h-12.55v7.84h10.8v7.46h-10.8v8.12zM261.77 362h10.45v38.34h-10.45V362zm32.72 0h9.57v38.34h-8.97l-8.54-20.13v20.13H277V362h8.96l8.53 20.49V362z"/><path fill="#006AA7" fill-rule="nonzero" d="M96.28 462.71v-7.61c0-1.23-.71-1.83-2.1-1.83h-8.03c-4.12 0-7.04-.92-8.74-2.72-1.7-1.82-2.55-4.43-2.55-7.83v-11.04c0-6.92 4.07-10.38 12.21-10.38h11.46c8.15 0 12.22 3.46 12.22 10.38v6.44H96.11v-4.52c0-1.23-.7-1.84-2.1-1.84h-2.42c-1.4 0-2.09.61-2.09 1.84v7.94c0 1.23.69 1.85 2.09 1.85h7.87c4.12 0 7.06.86 8.81 2.59 1.76 1.73 2.65 4.26 2.65 7.61v11.05c0 6.92-4.08 10.37-12.22 10.37H87.33c-8.21 0-12.3-3.45-12.3-10.37v-6.44h14.64v4.51c0 1.23.69 1.85 2.08 1.85h2.43c1.39 0 2.1-.62 2.1-1.85zm72.6-41.41h14.47l-11.37 53.71h-16.81l-5.94-32.04-5.94 32.04h-16.82l-11.38-53.71h15.23l4.51 36.14 7.2-36.14h14.3l7.2 36.14 5.35-36.14zm34.13 43.26h18.32v10.45h-32.96V421.3h32.2v10.46h-17.56v10.96h15.14v10.46h-15.14v11.38zm24.6-43.26h24.68c8.2 0 12.29 3.46 12.29 10.38v32.96c0 6.92-4.09 10.37-12.29 10.37h-24.68V421.3zm22.33 42.25v-30.78c0-1.23-.69-1.85-2.09-1.85h-5.6v34.48h5.6c1.4 0 2.09-.62 2.09-1.85zm36.56 1.01h18.32v10.45h-32.96V421.3h32.2v10.46H286.5v10.96h15.14v10.46H286.5v11.38zm48.26-43.26h13.39v53.71H335.6l-11.96-28.19v28.19h-13.38V421.3h12.55l11.95 28.7v-28.7z"/></svg>