<svg xmlns="http://www.w3.org/2000/svg" shape-rendering="geometricPrecision" text-rendering="geometricPrecision" image-rendering="optimizeQuality" fill-rule="evenodd" clip-rule="evenodd" viewBox="0 0 423 511.96"><path fill="#4D4D4D" fill-rule="nonzero" d="M211.5 0c58.4 0 111.28 23.68 149.55 61.95C399.32 100.22 423 153.1 423 211.5c0 58.4-23.68 111.28-61.95 149.55C322.78 399.32 269.9 423 211.5 423c-58.39 0-111.28-23.68-149.55-61.95C23.68 322.78 0 269.89 0 211.5c0-58.4 23.68-111.28 61.95-149.55C100.22 23.68 153.1 0 211.5 0z"/><path fill="#fff" fill-rule="nonzero" d="M211.5 16.18c53.92 0 102.77 21.87 138.11 57.21l.9.98c34.79 35.26 56.3 83.7 56.3 137.13 0 53.93-21.87 102.77-57.21 138.1l-.98.91c-35.29 34.81-83.74 56.31-137.12 56.31-53.86 0-102.7-21.89-138.05-57.25-35.38-35.3-57.26-84.14-57.26-138.07 0-53.94 21.86-102.78 57.2-138.11 35.34-35.34 84.18-57.21 138.11-57.21z"/><g fill-rule="nonzero"><path fill="#0D5EAF" d="M203.61 32.89h15.78c95.08 4.14 170.9 82.51 170.9 178.61 0 94.96-74.04 172.62-167.52 178.43h-22.53C108.82 384.25 36 309.84 32.83 217.75v-12.51c3.21-93.22 77.77-168.31 170.78-172.35z"/><path fill="#fff" d="M151.84 42.91v69.32h79.34V72.56h92.84a180.212 180.212 0 0 1 36.19 39.67H231.18v39.67h-79.34v79.35h237.35a177.811 177.811 0 0 1-9.03 39.67H42.84a177.12 177.12 0 0 1-9.02-39.67h78.35V151.9H42.91c5-14.12 11.69-27.42 19.89-39.67h49.37v-49.4a178.267 178.267 0 0 1 39.67-19.92zM380.1 151.9c4.47 12.64 7.55 25.93 9.08 39.68h-158V151.9H380.1zm-19.77 158.69a180.033 180.033 0 0 1-36.1 39.67H98.78a179.543 179.543 0 0 1-36.1-39.67h297.65z"/></g><path fill="#4D4D4D" fill-rule="nonzero" d="M67.3 325.03h288.4c14.71 0 24.95 11.89 26.91 26.91l20.46 133.11c0 14.71-12.2 26.91-26.91 26.91H46.84c-14.76 0-26.9-12.15-26.9-26.91L40.4 351.94c3.36-15.67 12.86-26.91 26.9-26.91z"/><path fill="#fff" d="M65.41 335.92H357.6c7.77 0 13.01 6.66 14.12 14.13l20.47 136.89c1.11 7.48-6.57 14.13-14.13 14.13H44.95c-7.55 0-15.27-6.44-14.12-14.13l20.45-136.89c1.15-7.69 6.36-14.13 14.13-14.13z"/><path fill="#333" fill-rule="nonzero" d="M128.27 400.34h-9.32v-38.35h11.41l6.21 20.49 6.21-20.49h11.42v38.35h-9.27v-24.37l-4.77 16.06h-7.17l-4.72-15.94v24.25zm50.24 0-1.21-5.73h-9.2l-1.25 5.73h-10.27l9.85-38.35h12.73l9.85 38.35h-10.5zm-8.78-13.15h5.96l-2.93-13.79-3.03 13.79zm22.26-25.2h17.63c5.86 0 8.78 2.46 8.78 7.41v23.54c0 4.93-2.92 7.4-8.78 7.4h-17.63v-38.35zm15.95 30.16v-21.98c0-.87-.49-1.31-1.49-1.31h-4v24.61h4c1 0 1.49-.44 1.49-1.32zm25.52.72h13.08v7.47H223v-38.35h23v7.46h-12.54v7.84h10.8v7.46h-10.8v8.12zm28.31-30.88h10.45v38.35h-10.45v-38.35zm32.72 0h9.57v38.35h-8.97l-8.54-20.13v20.13H277v-38.35h8.96l8.53 20.49v-20.49z"/><path fill="#0D5EAF" fill-rule="nonzero" d="M126.38 439.71h-14.64v-6.95c0-1.23-.71-1.84-2.09-1.84h-3.01c-1.4 0-2.1.61-2.1 1.84v30.79c0 1.23.7 1.84 2.1 1.84h3.01c1.38 0 2.09-.61 2.09-1.84v-8.95h-4.19v-9.29h18.83v19.32c0 6.93-4.11 10.38-12.3 10.38H102.2c-8.2 0-12.3-3.45-12.3-10.38v-32.95c0-6.92 4.1-10.38 12.3-10.38h11.88c8.19 0 12.3 3.46 12.3 10.38v8.03zm22.16 16.22v19.08H133.9V421.3h24.85c8.19 0 12.3 3.46 12.3 10.38v13.88c0 5.3-2.41 8.57-7.2 9.79l9.87 19.66h-15.73l-8.53-19.08h-.92zm5.77-24.17h-5.77v14.22h5.77c1.39 0 2.1-.62 2.1-1.83V433.6c0-1.23-.71-1.84-2.1-1.84zm38.92 32.8h18.31v10.45h-32.96V421.3h32.2v10.46h-17.55v10.96h15.13v10.45h-15.13v11.39zm39.23 0h18.32v10.45h-32.96V421.3h32.2v10.46h-17.56v10.96h15.14v10.45h-15.14v11.39zm60.57-23.18h-14.65v-8.62c0-1.23-.69-1.84-2.09-1.84h-2.92c-1.4 0-2.09.61-2.09 1.84v30.79c0 1.23.69 1.84 2.09 1.84h2.92c1.4 0 2.09-.61 2.09-1.84v-8.28h14.65v9.36c0 6.93-4.1 10.38-12.3 10.38h-11.79c-8.2 0-12.3-3.45-12.3-10.38v-32.95c0-6.92 4.1-10.38 12.3-10.38h11.79c8.2 0 12.3 3.46 12.3 10.38v9.7zm21.75 23.18h18.32v10.45h-32.96V421.3h32.2v10.46h-17.56v10.96h15.14v10.45h-15.14v11.39z"/></svg>