<svg xmlns="http://www.w3.org/2000/svg" shape-rendering="geometricPrecision" text-rendering="geometricPrecision" image-rendering="optimizeQuality" fill-rule="evenodd" clip-rule="evenodd" viewBox="0 0 582 511.68"><path fill="#4D4D4D" fill-rule="nonzero" d="M291 0c58.37 0 111.22 23.67 149.47 61.92s61.92 91.1 61.92 149.46c0 58.37-23.67 111.22-61.92 149.47s-91.1 61.91-149.47 61.91c-58.36 0-111.21-23.66-149.46-61.91-38.25-38.25-61.92-91.11-61.92-149.47s23.67-111.21 61.92-149.46C179.79 23.67 232.64 0 291 0z"/><path fill="#fff" fill-rule="nonzero" d="M291.01 16.18c53.9 0 102.71 21.85 138.03 57.17 35.32 35.31 57.17 84.13 57.17 138.03 0 53.9-21.86 102.71-57.18 138.03l-.99.9c-35.26 34.8-83.68 56.28-137.03 56.28-53.84 0-102.65-21.87-137.98-57.22-35.36-35.28-57.23-84.09-57.23-137.99 0-53.86 21.88-102.66 57.17-137.97 35.32-35.38 84.15-57.23 138.04-57.23z"/><path fill="red" fill-rule="nonzero" d="M325.74 386.69h-69.46c-82.07-16.17-143.96-88.51-143.96-175.31 0-98.69 80-178.69 178.69-178.69 98.68 0 178.68 80 178.68 178.69 0 86.8-61.89 159.14-143.95 175.31z"/><path fill="#fff" fill-rule="nonzero" d="M266.5 111.07h53.3v62.2H382v53.3h-62.2v62.21h-53.3v-62.21h-62.2v-53.3h62.2z"/><path fill="#4D4D4D" fill-rule="nonzero" d="M47.34 324.85h487.31c14.71 0 24.94 11.88 26.9 26.89L582 484.78c0 14.71-12.19 26.9-26.9 26.9H26.89C12.14 511.68 0 499.53 0 484.78l20.45-133.04c3.36-15.65 12.86-26.89 26.89-26.89z"/><path fill="#fff" d="M45.74 335.74h491.12c7.77 0 13.01 6.69 14.12 14.11l20.45 136.82c1.12 7.43-6.6 14.12-14.11 14.12H25.29c-7.51 0-15.27-6.43-14.12-14.12l20.45-136.82c1.15-7.68 6.35-14.11 14.12-14.11z"/><path fill="#333" fill-rule="nonzero" d="M208.12 400.12h-9.31v-38.33h11.4l6.21 20.48 6.2-20.48h11.41v38.33h-9.25v-24.36L220 391.82h-7.16l-4.72-15.94v24.24zm50.21 0-1.2-5.73h-9.2l-1.25 5.73h-10.27l9.85-38.33h12.72l9.85 38.33h-10.5zm-8.78-13.14h5.97l-2.93-13.78-3.04 13.78zm22.26-25.19h17.61c5.86 0 8.78 2.46 8.78 7.41v23.52c0 4.93-2.92 7.4-8.78 7.4h-17.61v-38.33zm15.94 30.15v-21.97c0-.88-.5-1.31-1.49-1.31h-4v24.6h4c.99 0 1.49-.45 1.49-1.32zm25.5.71h13.08v7.47H302.8v-38.33h22.99v7.46h-12.54v7.83h10.8v7.45h-10.8v8.12zm28.3-30.86h10.44v38.33h-10.44v-38.33zm32.7 0h9.56v38.33h-8.96L366.31 380v20.12h-9.54v-38.33h8.95l8.53 20.48v-20.48z"/><path fill="red" fill-rule="nonzero" d="M83.08 462.46v-7.62c0-1.22-.71-1.83-2.09-1.83h-8.03c-4.12 0-7.04-.91-8.73-2.72-1.71-1.81-2.56-4.42-2.56-7.82v-11.03c0-6.92 4.07-10.37 12.2-10.37h11.46c8.15 0 12.21 3.45 12.21 10.37v6.43H82.91v-4.51c0-1.23-.69-1.84-2.09-1.84H78.4c-1.4 0-2.09.61-2.09 1.84v7.94c0 1.23.69 1.84 2.09 1.84h7.86c4.12 0 7.06.86 8.81 2.59 1.75 1.73 2.64 4.26 2.64 7.61v11.04c0 6.91-4.08 10.37-12.21 10.37H74.14c-8.2 0-12.3-3.46-12.3-10.37v-6.44h14.64v4.52c0 1.22.69 1.84 2.08 1.84h2.43c1.38 0 2.09-.62 2.09-1.84zm72.56-41.39h14.46l-11.36 53.68h-16.8L136 442.72l-5.94 32.03h-16.8l-11.38-53.68h15.22l4.52 36.12 7.19-36.12h14.29l7.19 36.12 5.35-36.12zm19.48 0h14.64v53.68h-14.64v-53.68zm54.51 0v10.45h-10.37v43.23h-14.64v-43.23h-10.27v-10.45h35.28zm38.37 0v10.45l-20.15 32.78h19.57v10.45h-34.87V464.3l20.16-32.78h-19.07v-10.45H268zm20.5 43.23h18.3v10.45h-32.94v-53.68h32.18v10.45H288.5v10.95h15.13v10.45H288.5v11.38zm38.37-8.62v19.07h-14.63v-53.68h24.83c8.19 0 12.29 3.45 12.29 10.37v13.87c0 5.3-2.4 8.57-7.19 9.78l9.86 19.66h-15.72l-8.52-19.07h-.92zm5.77-24.16h-5.77v14.21h5.77c1.39 0 2.09-.61 2.09-1.83v-10.54c0-1.23-.7-1.84-2.09-1.84zm38.05 32.78h16.64v10.45h-31.27v-53.68h14.63v43.23zm48.16 10.45-1.67-8.03H404.3l-1.75 8.03h-14.39l13.8-53.68h17.81l13.79 53.68h-14.71zm-12.29-18.4h8.36l-4.1-19.31-4.26 19.31zm55.68-35.28h13.38v53.68h-12.54l-11.95-28.18v28.18h-13.38v-53.68h12.54l11.95 28.68v-28.68zm21.74 0h24.67c8.2 0 12.29 3.45 12.29 10.37v32.94c0 6.91-4.09 10.37-12.29 10.37h-24.67v-53.68zm22.33 42.22v-30.77c0-1.23-.7-1.84-2.1-1.84h-5.59v34.46h5.59c1.4 0 2.1-.62 2.1-1.85z"/></svg>