<svg xmlns="http://www.w3.org/2000/svg" shape-rendering="geometricPrecision" text-rendering="geometricPrecision" image-rendering="optimizeQuality" fill-rule="evenodd" clip-rule="evenodd" viewBox="0 0 424 512.46"><path fill="#4D4D4D" fill-rule="nonzero" d="M212 0c58.53 0 111.54 23.74 149.9 62.1S424 153.47 424 212s-23.74 111.54-62.1 149.9S270.53 424 212 424s-111.54-23.74-149.9-62.1S0 270.53 0 212 23.74 100.46 62.1 62.1 153.47 0 212 0z"/><path fill="#fff" fill-rule="nonzero" d="M211.99 16.22c54.06 0 103.01 21.92 138.44 57.34 35.42 35.42 57.33 84.38 57.33 138.44 0 54.05-21.93 103.01-57.35 138.43l-.98.91c-35.37 34.89-83.93 56.44-137.44 56.44-53.99 0-102.95-21.94-138.38-57.39C38.14 315.01 16.22 266.05 16.22 212c0-54.02 21.94-102.97 57.33-138.37 35.43-35.49 84.39-57.41 138.44-57.41z"/><path fill="#002B7F" fill-rule="nonzero" d="M117.96 59.26v305.49c-51.19-31.58-85.32-88.18-85.32-152.74S66.77 90.84 117.96 59.26z"/><path fill="#FCD116" fill-rule="nonzero" d="M306.03 59.28v305.46c-27.34 16.88-59.55 26.62-94.04 26.62-34.49 0-66.69-9.73-94.03-26.61V59.26c27.34-16.87 59.54-26.6 94.03-26.6s66.7 9.74 94.04 26.62z"/><path fill="#CE1126" fill-rule="nonzero" d="M306.03 364.74V59.28c51.19 31.59 85.31 88.17 85.31 152.73 0 64.56-34.12 121.14-85.31 152.73z"/><path fill="#4D4D4D" fill-rule="nonzero" d="M61.89 325.09h300.18c14.75 0 25.01 11.92 26.98 26.97l20.51 133.43c0 14.75-12.23 26.97-26.98 26.97H41.38c-14.8 0-26.97-12.17-26.97-26.97l20.51-133.43c3.37-15.7 12.89-26.97 26.97-26.97z"/><path fill="#fff" d="M59.99 336.01h303.99c7.78 0 13.04 6.68 14.15 14.16l20.52 137.22c1.12 7.49-6.59 14.16-14.16 14.16H39.48c-7.57 0-15.31-6.45-14.16-14.16l20.51-137.22c1.15-7.71 6.37-14.16 14.16-14.16z"/><path fill="#333" fill-rule="nonzero" d="M128.54 400.58h-9.34v-38.44h11.44l6.23 20.54 6.22-20.54h11.44v38.44h-9.28v-24.43l-4.79 16.1h-7.18l-4.74-15.98v24.31zm50.36 0-1.21-5.74h-9.21l-1.26 5.74h-10.3l9.88-38.44h12.76l9.87 38.44H178.9zm-8.8-13.18h5.98l-2.94-13.82-3.04 13.82zm22.32-25.26h17.67c5.87 0 8.8 2.47 8.8 7.43v23.59c0 4.94-2.93 7.42-8.8 7.42h-17.67v-38.44zm15.99 30.23v-22.03c0-.88-.5-1.31-1.5-1.31h-4.01v24.67h4.01c1 0 1.5-.45 1.5-1.33zm25.57.72h13.12v7.49h-23.6v-38.44h23.06v7.48h-12.58v7.85h10.83v7.48h-10.83v8.14zm28.38-30.95h10.48v38.44h-10.48v-38.44zm32.8 0h9.59v38.44h-8.99l-8.56-20.18v20.18h-9.57v-38.44h8.98l8.55 20.54v-20.54z"/><path fill="#002B7F" fill-rule="nonzero" d="M78.48 456.31v19.12H63.81v-53.84h24.9c8.21 0 12.33 3.46 12.33 10.4v13.92c0 5.31-2.41 8.59-7.21 9.81l9.89 19.71H87.95l-8.55-19.12h-.92zm5.79-24.24h-5.79v14.26h5.79c1.39 0 2.1-.62 2.1-1.84v-10.57c0-1.23-.71-1.85-2.1-1.85zm34.71-10.48h12.42c8.21 0 12.33 3.46 12.33 10.4v33.04c0 6.93-4.12 10.4-12.33 10.4h-12.42c-8.21 0-12.31-3.47-12.31-10.4v-33.04c0-6.94 4.1-10.4 12.31-10.4zm10.07 41.51v-29.18c0-1.23-.7-1.85-2.09-1.85h-3.53c-1.39 0-2.09.62-2.09 1.85v29.18c0 1.23.7 1.85 2.09 1.85h3.53c1.39 0 2.09-.62 2.09-1.85zm34.21 12.33h-13.08v-53.84h16.01l8.72 28.76 8.73-28.76h16.01v53.84h-13v-34.22l-6.7 22.56h-10.07l-6.62-22.39v34.05zm70.53 0-1.68-8.06h-12.92l-1.76 8.06h-14.42l13.83-53.84h17.86l13.84 53.84h-14.75zm-12.33-18.46h8.38l-4.11-19.37-4.27 19.37zm55-35.38h13.42v53.84H277.3l-11.99-28.27v28.27H251.9v-53.84h12.57l11.99 28.76v-28.76zm20.13 0h14.68v53.84h-14.68v-53.84zm48.8 53.84-1.68-8.06h-12.92l-1.75 8.06h-14.43l13.84-53.84h17.86l13.83 53.84h-14.75zm-12.33-18.46h8.38l-4.1-19.37-4.28 19.37z"/></svg>