<svg xmlns="http://www.w3.org/2000/svg" shape-rendering="geometricPrecision" text-rendering="geometricPrecision" image-rendering="optimizeQuality" fill-rule="evenodd" clip-rule="evenodd" viewBox="0 0 423 511.96"><path fill="#4D4D4D" fill-rule="nonzero" d="M211.5 0c58.4 0 111.28 23.68 149.55 61.95C399.32 100.22 423 153.1 423 211.5c0 58.4-23.68 111.28-61.95 149.55C322.78 399.32 269.9 423 211.5 423c-58.4 0-111.28-23.68-149.55-61.95C23.68 322.78 0 269.89 0 211.5c0-58.4 23.68-111.28 61.95-149.55C100.22 23.68 153.1 0 211.5 0z"/><path fill="#fff" fill-rule="nonzero" d="M211.5 16.18c53.93 0 102.77 21.87 138.1 57.21 35.34 35.33 57.22 84.18 57.22 138.11 0 53.93-21.88 102.77-57.22 138.11-35.33 35.33-84.17 57.21-138.1 57.21-53.87 0-102.71-21.89-138.06-57.25-35.38-35.3-57.26-84.14-57.26-138.07 0-53.93 21.87-102.78 57.2-138.11 35.34-35.34 84.18-57.21 138.12-57.21z"/><path fill="red" fill-rule="nonzero" d="M302.61 365.36H120.39C67.9 334.21 32.71 276.97 32.71 211.5c0-98.75 80.04-178.79 178.79-178.79 98.75 0 178.79 80.04 178.79 178.79 0 65.47-35.19 122.71-87.68 153.86z"/><path fill="#fff" fill-rule="nonzero" d="M321.13 70.27v282.46a180.38 180.38 0 0 1-18.52 12.63H120.39c-6.45-3.84-12.64-8.04-18.54-12.63V70.27c30.28-23.53 68.33-37.56 109.65-37.56 41.31 0 79.36 14.03 109.63 37.56z"/><path fill="red" fill-rule="nonzero" d="M211.5 114.06V32.71v81.35zm0 0-13.98 26.07c-1.58 2.82-4.42 2.56-7.26.98l-10.1-5.22 7.52 40.01c1.6 7.31-3.49 7.31-5.99 4.14l-17.66-19.75-2.87 10.02c-.32 1.32-1.78 2.71-3.96 2.37l-22.31-4.69 5.86 21.32c1.26 4.75 2.23 6.71-1.27 7.95l-7.95 3.74 38.41 31.21c1.53 1.19 2.29 3.31 1.74 5.22l-3.36 11.03c13.24-1.53 25.08-3.81 38.32-5.22 1.16-.12 3.13 1.8 3.11 3.15L208 286.81h6.43l-1-40.33c-.03-1.36 1.75-3.37 2.93-3.24 13.23 1.41 25.08 3.69 38.32 5.22l-3.37-11.03c-.55-1.91.22-4.03 1.74-5.22L291.46 201l-7.95-3.74c-3.5-1.24-2.5-3.2-1.26-7.95l5.86-21.32-22.32 4.69c-2.17.34-3.62-1.05-3.95-2.37l-2.88-10.02-17.63 19.75c-2.52 3.17-7.61 3.17-6.02-4.14l7.52-40.01-10.09 5.22c-2.85 1.58-5.69 1.84-7.27-.98l-13.97-26.07z"/><path fill="#4D4D4D" fill-rule="nonzero" d="M64.16 325.03h294.67c14.71 0 24.94 11.89 26.91 26.91l20.46 133.11c0 14.71-12.2 26.91-26.91 26.91H43.69c-14.76 0-26.9-12.15-26.9-26.91l20.46-133.11c3.36-15.67 12.86-26.91 26.91-26.91z"/><path fill="#fff" d="M62.26 335.92h298.47c7.77 0 12.99 6.58 14.12 14.13l20.47 136.9c1.13 7.56-6.49 14.12-14.13 14.12H41.8c-7.64 0-15.27-6.43-14.12-14.12l20.45-136.9c1.15-7.69 6.36-14.13 14.13-14.13z"/><path fill="#333" fill-rule="nonzero" d="M128.26 401.42h-9.32v-38.35h11.41l6.22 20.49 6.2-20.49h11.42v38.35h-9.26v-24.38l-4.78 16.07h-7.17l-4.72-15.95v24.26zm50.24 0-1.21-5.73h-9.19l-1.26 5.73h-10.27l9.85-38.35h12.73l9.85 38.35h-10.5zm-8.78-13.15h5.96l-2.93-13.79-3.03 13.79zm22.27-25.2h17.62c5.86 0 8.78 2.46 8.78 7.4v23.54c0 4.93-2.92 7.41-8.78 7.41h-17.62v-38.35zm15.95 30.16v-21.98c0-.88-.5-1.31-1.5-1.31h-4v24.61h4c1 0 1.5-.45 1.5-1.32zm25.51.72h13.08v7.47h-23.54v-38.35H246v7.46h-12.55v7.83h10.81v7.46h-10.81v8.13zm28.31-30.88h10.45v38.35h-10.45v-38.35zm32.72 0h9.57v38.35h-8.96l-8.55-20.14v20.14h-9.55v-38.35h8.96l8.53 20.49v-20.49z"/><path fill="red" fill-rule="nonzero" d="M116.08 442.46h-14.64v-8.62c0-1.23-.7-1.85-2.1-1.85h-2.91c-1.41 0-2.1.62-2.1 1.85v30.78c0 1.23.69 1.85 2.1 1.85h2.91c1.4 0 2.1-.62 2.1-1.85v-8.28h14.64v9.37c0 6.92-4.1 10.37-12.3 10.37H91.99c-8.2 0-12.3-3.45-12.3-10.37v-32.96c0-6.92 4.1-10.37 12.3-10.37h11.79c8.2 0 12.3 3.45 12.3 10.37v9.71zm32.8 33.62-1.68-8.03h-12.89l-1.75 8.03h-14.39l13.8-53.7h17.82l13.81 53.7h-14.72zm-12.3-18.4h8.36l-4.1-19.33-4.26 19.33zm54.87-35.3h13.39v53.7h-12.55l-11.96-28.19v28.19h-13.39v-53.7h12.55l11.96 28.69v-28.69zm47.44 53.7-1.67-8.03h-12.89l-1.75 8.03h-14.4l13.81-53.7h17.82l13.8 53.7h-14.72zm-12.3-18.4h8.36l-4.09-19.33-4.27 19.33zm31.21-35.3h24.67c8.21 0 12.3 3.45 12.3 10.37v32.96c0 6.92-4.09 10.37-12.3 10.37H257.8v-53.7zm22.33 42.24v-30.78c0-1.23-.69-1.85-2.09-1.85h-5.6v34.48h5.6c1.4 0 2.09-.62 2.09-1.85zm48.44 11.46-1.68-8.03H314l-1.75 8.03h-14.39l13.8-53.7h17.82l13.8 53.7h-14.71zm-12.3-18.4h8.36l-4.1-19.33-4.26 19.33z"/></svg>