<?xml version="1.0" encoding="utf-8"?><svg version="1.1" id="Layer_1" xmlns="http://www.w3.org/2000/svg" xmlns:xlink="http://www.w3.org/1999/xlink" x="0px" y="0px" viewBox="0 0 113.37 122.88" style="enable-background:new 0 0 113.37 122.88" xml:space="preserve"><style type="text/css">.st0{fill-rule:evenodd;clip-rule:evenodd;}</style><g><path class="st0" d="M76.87,2.53h0.02V1.64c0-0.9,0.73-1.64,1.62-1.64h33.23c0.89,0,1.62,0.74,1.62,1.64c0,8.65,0,17.3,0,25.95 H76.87V2.53L76.87,2.53z M113.36,41.1c0,9.07,0,22.88,0,31.95c0,6.99-1.1,13.57-3.28,19.8c-2.18,6.2-5.59,11.65-10.24,16.3 c-4.65,4.65-9.53,7.9-14.65,9.8c-7.1,2.62-15.61,3.94-25.58,3.94c-5.75,0-12.03-0.39-18.83-1.21c-6.8-0.8-12.47-2.4-17.04-4.79 c-4.57-2.4-8.76-5.81-12.56-10.22c-3.8-4.41-6.39-8.95-7.79-13.63C1.13,85.52-0.01,78.85,0,73.04L0.04,41.1h36.41l0.03,31.78 c0.01,6.47,1.79,11.51,5.34,15.12c3.58,3.63,8.54,5.45,14.9,5.45c6.28,0,11.23-1.79,14.81-5.37c3.55-3.55,5.34-8.65,5.34-15.2V41.1 H113.36L113.36,41.1z M0.07,27.59L0.11,2.53V1.64C0.11,0.74,0.84,0,1.73,0h33.06c0.89,0,1.61,0.74,1.61,1.64v0.89l0.03,25.06H0.07 L0.07,27.59z"/></g></svg>