<svg xmlns="http://www.w3.org/2000/svg" shape-rendering="geometricPrecision" text-rendering="geometricPrecision" image-rendering="optimizeQuality" fill-rule="evenodd" clip-rule="evenodd" viewBox="0 0 512 496.36"><path d="M401.53 275.41c30.46 0 58.08 12.38 78.07 32.36 20.02 20.03 32.4 47.65 32.4 78.11 0 30.47-12.37 58.09-32.35 78.08-20.04 20.02-47.66 32.4-78.12 32.4-30.46 0-58.08-12.39-78.06-32.36-20.03-20.03-32.4-47.65-32.4-78.12 0-30.46 12.38-58.08 32.35-78.07 20.03-20.01 47.65-32.4 78.11-32.4zM55.81 29.77h92.79C173.8 9.93 206.8 0 239.66 0c32.87 0 65.85 9.93 91.06 29.77h92.3c15.35 0 29.3 6.29 39.41 16.39 10.1 10.11 16.39 24.07 16.39 39.42v173.68c-5.45-3.34-11.14-6.33-17.03-8.95V85.58c0-10.66-4.37-20.37-11.39-27.39-7.02-7.02-16.72-11.39-27.38-11.39h-95.25a8.736 8.736 0 0 1-5.41-2c-22.28-18.51-52.44-27.77-82.7-27.77-30 0-59.9 9.11-82.12 27.29a8.49 8.49 0 0 1-6 2.48H55.81c-10.66 0-20.37 4.37-27.39 11.39-7.02 7.02-11.39 16.73-11.39 27.39V419.4c0 10.66 4.37 20.37 11.39 27.39 7.02 7.02 16.73 11.39 27.39 11.39h216.18c3.32 5.94 7.03 11.63 11.12 17.03H55.81c-15.35 0-29.31-6.29-39.42-16.39C6.29 448.71 0 434.75 0 419.4V85.58c0-15.35 6.29-29.31 16.39-39.42 10.11-10.1 24.07-16.39 39.42-16.39zm7.72 369.28c8.9 0 16.12 7.21 16.12 16.11 0 8.91-7.22 16.13-16.12 16.13-8.91 0-16.13-7.22-16.13-16.13 0-8.9 7.22-16.11 16.13-16.11zm171.34-178.62a5.92 5.92 0 0 1 5.92-5.92c3.26 0 5.91 2.65 5.91 5.92v11.5c19.23-1.33 36.7-9.04 50.28-21.04l-8.68-8.68c-2.31-2.31-2.31-6.06 0-8.36 2.31-2.31 6.06-2.31 8.36 0l8.63 8.62c11.76-13.71 19.22-31.22 20.3-50.43h-13.36a5.915 5.915 0 0 1 0-11.83h13.21a84.673 84.673 0 0 0-21.29-49.58l-8.16 8.16c-2.31 2.31-6.06 2.31-8.36 0a5.909 5.909 0 0 1 0-8.36l8.05-8.06c-13.56-11.49-30.8-18.82-49.69-19.95v14.04a5.915 5.915 0 0 1-11.83 0V62.52c-18.76 1.45-35.82 9-49.18 20.66l9.2 9.19c2.3 2.31 2.3 6.06 0 8.36a5.92 5.92 0 0 1-8.37 0l-9.18-9.18a84.688 84.688 0 0 0-20.54 49.37h14.45c3.26 0 5.92 2.66 5.92 5.92s-2.66 5.92-5.92 5.92h-14.5c1.23 18.99 8.7 36.3 20.39 49.87l9.07-9.07a5.909 5.909 0 0 1 8.36 0 5.909 5.909 0 0 1 0 8.36l-9.11 9.11c13.55 11.92 30.96 19.58 50.12 20.9v-11.5zM415.29 80.69c8.91 0 16.13 7.22 16.13 16.13 0 8.9-7.22 16.12-16.13 16.12s-16.13-7.22-16.13-16.12c0-8.91 7.22-16.13 16.13-16.13zm-168.65 75.55c-2.69 3.08-7.38 3.39-10.46.7a7.42 7.42 0 0 1-.7-10.46l30.83-35.26a7.42 7.42 0 0 1 10.46-.7c3.08 2.69 3.4 7.38.7 10.46l-30.83 35.26zm-5.85-105.81c26.71 0 50.92 10.85 68.42 28.35s28.35 41.71 28.35 68.42-10.85 50.92-28.35 68.42-41.71 28.34-68.42 28.34c-26.7 0-50.9-10.84-68.41-28.35-17.51-17.49-28.35-41.7-28.35-68.41 0-26.71 10.84-50.92 28.34-68.42s41.71-28.35 68.42-28.35zM63.53 80.69c8.9 0 16.12 7.22 16.12 16.13 0 8.9-7.22 16.12-16.12 16.12-8.91 0-16.13-7.22-16.13-16.12 0-8.91 7.22-16.13 16.13-16.13zm102.63 323.7h88.19c.92 7.37 2.37 14.56 4.33 21.55h-92.52c-.31 0-.55-.24-.55-.55v-20.45c0-.31.24-.55.55-.55zm203.19-40.56 21.51 20.43 40.22-40.83c3.75-3.82 6.09-6.86 10.73-2.12l15.03 15.38c4.91 4.87 4.66 7.71.01 12.27l-57.44 56.45c-9.79 9.6-8.1 10.21-18.03.32l-37.33-37.11c-2.04-2.24-1.83-4.51.41-6.77l17.43-18.05c2.64-2.74 4.74-2.57 7.46.03z"/></svg>