<svg id="Layer_1" data-name="Layer 1" xmlns="http://www.w3.org/2000/svg" viewBox="0 0 122.88 62.94"><title>malaysian-ringgit</title><path d="M51.3,62.94,58.76,0H74.17l13,44.22L100.09,0h15.25l7.54,62.94H107l-4-33.87L94.67,62.94H79.26L71,29.72l-3.9,33.22ZM0,62.94V0H26.85a26.91,26.91,0,0,1,7.62,1,14.45,14.45,0,0,1,6,3.43,15.89,15.89,0,0,1,3.94,6.48,32,32,0,0,1,1.4,10.25A29.94,29.94,0,0,1,45.15,28a18,18,0,0,1-1.82,4.87,13,13,0,0,1-2.71,3.35,21.6,21.6,0,0,1-3.35,2.37L48.2,62.94H31.51L22.7,41.25H16.43V62.94ZM16.43,28.21h7.46a6.85,6.85,0,0,0,2.37-.38A4.27,4.27,0,0,0,28,26.6a5.32,5.32,0,0,0,1.05-2.16,12.74,12.74,0,0,0,.34-3.18,12.11,12.11,0,0,0-.34-3.13,4.25,4.25,0,0,0-1.05-2,4.3,4.3,0,0,0-1.74-1.06,7.4,7.4,0,0,0-2.37-.34H16.43V28.21Z"/></svg>