<svg id="Layer_1" data-name="Layer 1" xmlns="http://www.w3.org/2000/svg" viewBox="0 0 122.88 98.18"><title>men-and-women-toilet-sign</title><path d="M10.76,0H46.21A10.79,10.79,0,0,1,57,10.76V87.42A10.79,10.79,0,0,1,46.21,98.18H10.76A10.72,10.72,0,0,1,3.17,95h0A10.72,10.72,0,0,1,0,87.42V10.76A10.72,10.72,0,0,1,3.16,3.17v0A10.77,10.77,0,0,1,10.76,0ZM76.67,0h35.45a10.79,10.79,0,0,1,10.76,10.76V87.42a10.79,10.79,0,0,1-10.76,10.76H76.67A10.73,10.73,0,0,1,69.07,95h0a10.72,10.72,0,0,1-3.16-7.59V10.76a10.72,10.72,0,0,1,3.16-7.59v0A10.75,10.75,0,0,1,76.67,0Zm31.87,4.63H76.67a6.12,6.12,0,0,0-4.33,1.79h0a6.11,6.11,0,0,0-1.8,4.33V87.42a6.15,6.15,0,0,0,6.14,6.13h35.45a6.15,6.15,0,0,0,6.13-6.13V10.76a6.15,6.15,0,0,0-6.13-6.13Zm-1.77,30.85,4.8,17.07A2.38,2.38,0,1,1,107,53.84L102.24,37l-.07,0h-1v1.07l6.32,25.11h-6.32V79a3.07,3.07,0,0,1-3.06,3.07h0A3.08,3.08,0,0,1,95.05,79V63.19H93.84V79a3.08,3.08,0,0,1-3.07,3.07h0A3.08,3.08,0,0,1,87.7,79V63.19H81L87.7,37.41V37H86.63l-.09,0L81.81,53.84a2.39,2.39,0,0,1-4.6-1.29l4.65-16.71c.72-2.69,1.32-4.6,3-5.84,2.85-2.15,16.59-2.15,19.43,0,1.75,1.31,2,3.52,2.51,5.48ZM94.4,16.12a5.55,5.55,0,1,1-5.55,5.55,5.54,5.54,0,0,1,5.55-5.55Zm-65.91,0a5.55,5.55,0,1,1-5.55,5.55,5.55,5.55,0,0,1,5.55-5.55ZM35.27,37V79a3.08,3.08,0,0,1-3.07,3.07h0A3.08,3.08,0,0,1,29.13,79V54.31H27.92V79a3.07,3.07,0,0,1-3.06,3.07h0A3.07,3.07,0,0,1,21.79,79V37H20.71V52.44a2.32,2.32,0,0,1-2.32,2.32h0a2.33,2.33,0,0,1-2.33-2.32V35.84A6.79,6.79,0,0,1,18.62,30c2.85-2.15,16.88-2.15,19.73,0a6.79,6.79,0,0,1,2.56,5.84v16.6a2.32,2.32,0,0,1-2.32,2.32h0a2.33,2.33,0,0,1-2.33-2.32V37ZM42.63,4.63H10.76A6.14,6.14,0,0,0,6.43,6.42h0a6.14,6.14,0,0,0-1.79,4.33V87.42a6.15,6.15,0,0,0,6.13,6.13H46.21a6.16,6.16,0,0,0,6.14-6.13V10.76a6.16,6.16,0,0,0-6.14-6.13Z"/></svg>