<svg xmlns="http://www.w3.org/2000/svg" shape-rendering="geometricPrecision" text-rendering="geometricPrecision" image-rendering="optimizeQuality" fill-rule="evenodd" clip-rule="evenodd" viewBox="0 0 512 490.09"><path fill-rule="nonzero" d="m347.89 73.6-87.97 87.97a143.238 143.238 0 0 1 20.99 42.2c26.75 2.84 51.3 13.03 71.61 28.51l89.32-89.33h-47.87v-42.11H512v121.05h-42.11v-47.45l-87.97 87.97c17.11 23.64 27.21 52.7 27.21 84.11 0 39.64-16.07 75.54-42.05 101.51-25.98 25.98-61.87 42.06-101.52 42.06-39.63 0-75.54-16.08-101.51-42.06-16.42-16.42-28.89-36.81-35.83-59.6-33.51-3.57-63.59-18.66-86.17-41.24C16.07 321.22 0 285.32 0 245.68c0-39.64 16.07-75.54 42.05-101.52 25.97-25.97 61.87-42.05 101.51-42.05 32.69 0 62.82 10.93 86.96 29.32l89.32-89.32h-47.87V0H390v121.05h-42.11V73.6zm-60.77 173.76c-.44 38.97-16.43 74.23-42.04 99.83-19.54 19.55-44.7 33.48-72.84 39.19 5.13 12 12.5 22.8 21.58 31.88 18.36 18.36 43.73 29.72 71.74 29.72 28.02 0 53.39-11.36 71.75-29.72 18.36-18.35 29.71-43.72 29.71-71.74 0-28.01-11.35-53.38-29.71-71.74-13.51-13.51-30.82-23.23-50.19-27.42zm-165.11 97.48c.45-38.97 16.43-74.22 42.04-99.83 19.54-19.55 44.7-33.48 72.84-39.19a101.69 101.69 0 0 0-21.58-31.88c-18.36-18.36-43.73-29.72-71.75-29.72-28.02 0-53.38 11.36-71.74 29.72-18.35 18.35-29.71 43.72-29.71 71.74 0 28.02 11.36 53.39 29.71 71.74 13.51 13.51 30.82 23.23 50.19 27.42zm123-97.69c-19.77 4.06-37.44 13.88-51.19 27.63-18.03 18.03-29.31 42.84-29.7 70.27 19.77-4.07 37.45-13.89 51.19-27.63 18.04-18.03 29.32-42.83 29.7-70.27z"/></svg>