<svg xmlns="http://www.w3.org/2000/svg" shape-rendering="geometricPrecision" text-rendering="geometricPrecision" image-rendering="optimizeQuality" fill-rule="evenodd" clip-rule="evenodd" viewBox="0 0 392 511.43"><path fill-rule="nonzero" d="m349.68 73.97-88.42 88.42c17.19 23.75 27.33 52.95 27.33 84.5 0 39.84-16.16 75.93-42.27 102.03-22 22-51.08 36.94-83.52 41.09v35.31h62.81v42.32H162.8v43.79h-42.33v-43.79H57.66v-42.32h62.81v-36.09c-30.3-5.04-57.41-19.52-78.21-40.31C16.16 322.82 0 286.73 0 246.89s16.16-75.92 42.26-102.03c26.11-26.11 62.19-42.26 102.03-42.26 32.87 0 63.17 10.99 87.43 29.49l89.76-89.77h-48.11V0H392v121.66h-42.32V73.97zM216.4 174.78c-18.45-18.45-43.95-29.86-72.11-29.86-28.16 0-53.65 11.41-72.1 29.86-18.45 18.46-29.87 43.95-29.87 72.11 0 28.16 11.42 53.66 29.87 72.11 18.45 18.45 43.94 29.87 72.1 29.87 28.16 0 53.66-11.42 72.11-29.87 18.45-18.45 29.87-43.95 29.87-72.11 0-28.16-11.42-53.65-29.87-72.11z"/></svg>