<?xml version="1.0" encoding="utf-8"?><svg version="1.1" id="Layer_1" xmlns="http://www.w3.org/2000/svg" xmlns:xlink="http://www.w3.org/1999/xlink" x="0px" y="0px" viewBox="0 0 44.51 122.88" style="enable-background:new 0 0 44.51 122.88" xml:space="preserve"><g><path d="M13.68,38.4L3.43,106.92l16.15,12.19l15.4-13.18L24.75,38.4H13.68L13.68,38.4z M28.97,44.21l15.54,41.4l-8.5,5.07 l2.37,15.67l0,0c0.08,0.54-0.11,1.11-0.56,1.5l-17.05,14.59c-0.57,0.54-1.47,0.61-2.12,0.12L0.7,109 c-0.49-0.35-0.78-0.95-0.69-1.59l10.59-70.82c0.08-0.84,0.79-1.49,1.64-1.49h13.91v0c0.8,0,1.51,0.59,1.63,1.41L28.97,44.21 L28.97,44.21z M10.29,26.27L3.62,7.49C3.37,6.77,3.65,5.98,4.26,5.57C9.06,1.86,14.01,0,19.11,0c5.11,0,10.3,1.87,15.59,5.59 c0.67,0.47,0.88,1.35,0.54,2.06l-7.73,18.79c-0.26,0.64-0.88,1.02-1.52,1.02v0.01H11.88C11.12,27.47,10.49,26.96,10.29,26.27 L10.29,26.27z M7.14,7.53l5.91,16.63h11.84l6.83-16.61C27.39,4.72,23.19,3.3,19.11,3.3C15.05,3.3,11.06,4.71,7.14,7.53L7.14,7.53z"/></g></svg>