<?xml version="1.0" encoding="utf-8"?><svg version="1.1" id="Layer_1" xmlns="http://www.w3.org/2000/svg" xmlns:xlink="http://www.w3.org/1999/xlink" x="0px" y="0px" viewBox="0 0 122.88 82.62" style="enable-background:new 0 0 122.88 82.62" xml:space="preserve"><g><path d="M120.15,82.62c-0.26-1.01-0.56-1.9-0.9-2.71c-1.95-4.59-6.8-6.68-11.56-8.73c-0.81-0.35-1.61-0.69-2.45-1.08 c-0.11,0.14-0.22,0.27-0.33,0.4c-0.65,0.8-1.42,1.51-2.27,2.13c-2.37,1.71-5.42,2.7-8.57,2.85c-3.14,0.15-6.39-0.51-9.16-2.1 c-1.38-0.79-2.64-1.81-3.71-3.06c-0.76,0.36-1.55,0.72-2.35,1.09c-4.58,2.09-9.74,4.44-11.63,8.37c-0.42,0.87-0.75,1.81-0.99,2.84 H63.5c0.02-0.12,0.05-0.24,0.08-0.36c0.3-1.3,0.71-2.51,1.25-3.63c2.31-4.8,7.93-7.36,12.91-9.64c1.11-0.5,2.18-0.99,3.15-1.48 c0.66-0.86,1.2-1.8,1.62-2.79c0.36-0.85,0.63-1.76,0.8-2.7c-1.01-0.6-1.97-1.31-2.89-2.12c-3.74-3.32-6.35-6.02-8.04-9.16 c-1.71-3.18-2.43-6.71-2.33-11.61l0.27-14.19c0-0.15,0.03-0.3,0.08-0.43l-3.3-1.04C65.81-4.37,101.2-6.23,116.04,11.51 c3.59,4.29,3.73,6.61,3.65,12.19c-0.03,1.82-0.31,3.4-1.15,4c-0.38,0.27-0.85,0.38-1.39,0.34v12.14c0,6.72-2.4,12.34-6.09,16.5 c-2.08,2.35-4.57,4.23-7.26,5.58c0.16,0.87,0.38,1.69,0.67,2.48c0.34,0.94,0.77,1.83,1.3,2.69c0.91,0.42,1.95,0.87,2.99,1.32 c5.24,2.26,10.59,4.56,12.96,10.14c0.46,1.09,0.86,2.33,1.18,3.74H120.15L120.15,82.62z M56.65,82.62c-0.26-1.01-0.56-1.9-0.9-2.71 c-1.95-4.59-6.8-6.68-11.56-8.73c-0.81-0.35-1.61-0.69-2.45-1.08c-0.11,0.14-0.22,0.27-0.33,0.4c-0.65,0.8-1.42,1.51-2.27,2.13 c-2.37,1.71-5.42,2.7-8.57,2.85c-3.14,0.15-6.39-0.51-9.16-2.1c-1.38-0.79-2.64-1.81-3.71-3.06c-0.76,0.36-1.55,0.72-2.35,1.09 c-4.58,2.09-9.74,4.44-11.63,8.37c-0.42,0.87-0.75,1.81-0.99,2.84H0c0.02-0.12,0.05-0.24,0.08-0.36c0.3-1.3,0.71-2.51,1.25-3.63 c2.31-4.8,7.93-7.36,12.91-9.64c1.11-0.5,2.18-0.99,3.15-1.48c0.66-0.86,1.2-1.8,1.62-2.79c0.36-0.85,0.63-1.76,0.8-2.7 c-1.01-0.6-1.97-1.31-2.89-2.12c-3.74-3.32-6.35-6.02-8.04-9.16c-1.71-3.18-2.43-6.71-2.33-11.61l0.27-14.19 c0-0.15,0.03-0.3,0.08-0.43l-3.3-1.04C2.31-4.37,37.69-6.23,52.53,11.51c3.58,4.29,3.73,6.61,3.65,12.19 c-0.03,1.82-0.31,3.4-1.15,4c-0.38,0.27-0.85,0.38-1.39,0.34v12.14c0,6.72-2.4,12.34-6.1,16.5c-2.08,2.35-4.57,4.23-7.26,5.58 c0.16,0.87,0.38,1.69,0.67,2.48c0.34,0.94,0.77,1.83,1.3,2.69c0.91,0.42,1.95,0.87,2.99,1.32C50.49,71,55.83,73.3,58.2,78.88 c0.46,1.09,0.86,2.33,1.18,3.74H56.65L56.65,82.62z M24.77,64.11c-0.85-0.22-1.69-0.5-2.51-0.84c-0.2,0.86-0.47,1.7-0.81,2.5 c-0.42,1.01-0.95,1.97-1.6,2.88c0.71,0.78,1.51,1.46,2.38,2.02c2.35,1.51,5.17,2.23,7.95,2.16c2.76-0.07,5.47-0.91,7.58-2.51 c0.56-0.43,1.08-0.9,1.55-1.44c0.14-0.17,0.27-0.34,0.4-0.52c-0.49-0.86-0.91-1.76-1.25-2.71c-0.26-0.73-0.48-1.48-0.65-2.25 c-2.71,0.97-5.44,1.45-8.13,1.41C28.02,64.76,26.38,64.54,24.77,64.11L24.77,64.11z M21.98,60.17c0.88,0.46,1.78,0.84,2.69,1.14 l0.04,0.01c1.69,0.52,3.46,0.78,5.24,0.78c2.85,0,5.73-0.65,8.41-1.86c2.69-1.22,5.17-3.02,7.21-5.31 c3.28-3.7,5.42-8.72,5.42-14.75V27.88h0c-0.03-0.84-0.15-1.63-0.38-2.33c-0.22-0.68-0.54-1.27-0.97-1.78 c-1.63-1.91-3.18-1.83-5.38-1.72c-0.2,0.01-0.39,0.02-0.68,0.03c-8.72,0.38-14.43,0.37-19.07-0.03c-4.27-0.37-7.63-1.07-11.54-2.11 c-0.37,0.86-0.8,1.71-1.3,2.53c-0.64,1.05-1.38,2.06-2.22,3.02L9.2,39.19c-0.08,4.42,0.54,7.55,2.02,10.31 c1.51,2.81,3.95,5.31,7.46,8.43c0.93,0.82,1.92,1.52,2.96,2.09C21.76,60.05,21.88,60.1,21.98,60.17L21.98,60.17z M24.12,52.07 c-0.61-0.4-0.79-1.22-0.39-1.83c0.4-0.61,1.22-0.79,1.83-0.39c1.51,0.98,2.97,1.52,4.35,1.53c1.34,0.02,2.66-0.45,3.97-1.47 c0.58-0.45,1.42-0.35,1.87,0.23c0.45,0.58,0.35,1.42-0.23,1.87c-1.8,1.4-3.68,2.05-5.63,2.02C27.98,54,26.06,53.32,24.12,52.07 L24.12,52.07z M19.17,35.43c1.58,0,2.87,1.28,2.87,2.87c0,1.58-1.28,2.87-2.87,2.87c-1.58,0-2.87-1.28-2.87-2.87 C16.3,36.71,17.59,35.43,19.17,35.43L19.17,35.43z M40.81,35.43c1.58,0,2.87,1.28,2.87,2.87c0,1.58-1.28,2.87-2.87,2.87 s-2.87-1.28-2.87-2.87C37.94,36.71,39.23,35.43,40.81,35.43L40.81,35.43z M88.28,64.11c-0.85-0.22-1.69-0.5-2.51-0.84 c-0.2,0.86-0.47,1.7-0.81,2.5c-0.42,1.01-0.95,1.97-1.6,2.88c0.71,0.78,1.51,1.46,2.38,2.02c2.35,1.51,5.17,2.23,7.95,2.16 c2.76-0.07,5.47-0.91,7.58-2.51c0.56-0.43,1.08-0.9,1.55-1.44c0.14-0.17,0.27-0.34,0.4-0.52c-0.49-0.86-0.91-1.76-1.25-2.71 c-0.26-0.73-0.48-1.48-0.65-2.25c-2.71,0.97-5.44,1.45-8.13,1.41C91.52,64.76,89.88,64.54,88.28,64.11L88.28,64.11z M85.48,60.17 c0.88,0.46,1.78,0.84,2.69,1.14l0.04,0.01c1.69,0.52,3.46,0.78,5.24,0.78c2.85,0,5.73-0.65,8.41-1.86 c2.69-1.22,5.17-3.02,7.21-5.31c3.28-3.7,5.42-8.72,5.42-14.75V27.88h0c-0.03-0.84-0.15-1.63-0.38-2.33 c-0.22-0.68-0.54-1.27-0.97-1.78c-1.63-1.91-3.18-1.83-5.38-1.72c-0.2,0.01-0.39,0.02-0.68,0.03c-8.72,0.38-14.43,0.37-19.07-0.03 c-4.27-0.37-7.63-1.07-11.54-2.11c-0.37,0.86-0.8,1.71-1.3,2.53c-0.64,1.05-1.38,2.06-2.22,3.02L72.7,39.19 c-0.08,4.42,0.54,7.55,2.02,10.31c1.51,2.81,3.95,5.31,7.46,8.43c0.93,0.82,1.92,1.52,2.96,2.09 C85.26,60.05,85.38,60.1,85.48,60.17L85.48,60.17z M87.63,52.07c-0.61-0.4-0.79-1.22-0.39-1.83c0.4-0.61,1.22-0.79,1.83-0.39 c1.51,0.98,2.97,1.52,4.35,1.53c1.34,0.02,2.66-0.45,3.97-1.47c0.58-0.45,1.42-0.35,1.87,0.23c0.45,0.58,0.35,1.42-0.23,1.87 c-1.8,1.4-3.68,2.05-5.63,2.02C91.48,54,89.56,53.32,87.63,52.07L87.63,52.07z M82.67,35.43c1.58,0,2.87,1.28,2.87,2.87 c0,1.58-1.28,2.87-2.87,2.87c-1.58,0-2.87-1.28-2.87-2.87C79.8,36.71,81.09,35.43,82.67,35.43L82.67,35.43z M104.31,35.43 c1.58,0,2.87,1.28,2.87,2.87c0,1.58-1.28,2.87-2.87,2.87s-2.87-1.28-2.87-2.87C101.45,36.71,102.73,35.43,104.31,35.43 L104.31,35.43z"/></g></svg>