<svg id="Layer_1" data-name="Layer 1" xmlns="http://www.w3.org/2000/svg" viewBox="0 0 122.87 122.88"><title>march-month</title><path d="M81.6,4.73C81.6,2.12,84.18,0,87.37,0s5.77,2.12,5.77,4.73V25.45c0,2.61-2.58,4.73-5.77,4.73s-5.77-2.12-5.77-4.73V4.73ZM26,96H16.77l1.68-27.64H30L33.44,82.4h.31L37.2,68.34H48.74L50.42,96H41.18l-.53-13.4h-.31L37,96H30.21l-3.4-13.4h-.27L26,96Zm35,0H51.66l7.17-27.64H72.49L79.66,96H70.33l-1-4.38H62L61,96Zm4.43-19.15L63.6,84.57h4.07L65.9,76.83ZM106.1,96H96.37l-3.62-8.23h-1.9V96H82V68.34H95.93q9.51,0,9.51,9.69,0,6.63-4.11,8.75L106.1,96ZM90.85,75.42v5.52h2a6,6,0,0,0,2.32-.33c.49-.22.73-.73.73-1.52V77.27c0-.79-.24-1.3-.73-1.52a6,6,0,0,0-2.32-.33ZM29.61,4.73C29.61,2.12,32.19,0,35.38,0s5.77,2.12,5.77,4.73V25.45c0,2.61-2.58,4.73-5.77,4.73s-5.77-2.12-5.77-4.73V4.73ZM6.4,38.76H116.46V21.47a3,3,0,0,0-.86-2.07,2.92,2.92,0,0,0-2.07-.86H103a3.2,3.2,0,1,1,0-6.4h10.55a9.36,9.36,0,0,1,9.33,9.33v92.08a9.36,9.36,0,0,1-9.33,9.33H9.33A9.36,9.36,0,0,1,0,113.54V21.47a9.36,9.36,0,0,1,9.33-9.33H20.6a3.2,3.2,0,1,1,0,6.4H9.33a3,3,0,0,0-2.07.86,2.92,2.92,0,0,0-.86,2.07V38.76Zm110.07,6.41H6.4v68.37a3,3,0,0,0,.86,2.07,2.92,2.92,0,0,0,2.07.86H113.54a3,3,0,0,0,2.07-.86,2.92,2.92,0,0,0,.86-2.07V45.17Zm-66-26.63a3.2,3.2,0,0,1,0-6.4H71.91a3.2,3.2,0,1,1,0,6.4Z"/></svg>