<svg id="Layer_1" data-name="Layer 1" xmlns="http://www.w3.org/2000/svg" viewBox="0 0 122.88 122.89"><title>may-month</title><path d="M81.61,4.73C81.61,2.12,84.19,0,87.38,0s5.77,2.12,5.77,4.73V25.45c0,2.61-2.58,4.73-5.77,4.73s-5.77-2.12-5.77-4.73V4.73ZM28.12,96H18.87l1.68-27.64H32.1l3.45,14.06h.31l3.45-14.06H50.85L52.53,96H43.29l-.54-13.4h-.3L39.08,96H32.32l-3.41-13.4h-.26L28.12,96Zm35,0H53.77l7.16-27.64H74.6L81.76,96H72.43l-1-4.38H64.12L63.1,96Zm4.42-19.15-1.81,7.74h4.07L68,76.84ZM89,68.35l2.43,9.73h.31l2.48-9.73H104l-8,20.12V96H87.2V88.47l-8-20.12ZM29.61,4.73C29.61,2.12,32.19,0,35.38,0s5.77,2.12,5.77,4.73V25.45c0,2.61-2.58,4.73-5.77,4.73s-5.77-2.12-5.77-4.73V4.73ZM6.4,38.76H116.47V21.47a3,3,0,0,0-.86-2.07,2.92,2.92,0,0,0-2.07-.86H103a3.2,3.2,0,0,1,0-6.4h10.55a9.36,9.36,0,0,1,9.33,9.33v92.09a9.36,9.36,0,0,1-9.33,9.33H9.33A9.36,9.36,0,0,1,0,113.55V21.47a9.36,9.36,0,0,1,9.33-9.33H20.6a3.2,3.2,0,1,1,0,6.4H9.33a3,3,0,0,0-2.07.86,2.92,2.92,0,0,0-.86,2.07V38.76Zm110.08,6.41H6.4v68.38a3,3,0,0,0,.86,2.07,2.92,2.92,0,0,0,2.07.86H113.55a3,3,0,0,0,2.07-.86,2.92,2.92,0,0,0,.86-2.07V45.17ZM50.43,18.54a3.2,3.2,0,0,1,0-6.4H71.92a3.2,3.2,0,1,1,0,6.4Z"/></svg>