<?xml version="1.0" encoding="utf-8"?><svg version="1.1" id="Layer_1" xmlns="http://www.w3.org/2000/svg" xmlns:xlink="http://www.w3.org/1999/xlink" x="0px" y="0px" viewBox="0 0 122.88 80.71" style="enable-background:new 0 0 122.88 80.71" xml:space="preserve"><g><path d="M122.4,14.42c-10.02,9.55-12.87,11.31-21.79,18.23l-2.11-3.06c11.16-8,14.22-10.02,20.19-18.12 C120.6,10.08,124.18,12.73,122.4,14.42L122.4,14.42z M27.53,60.99c10.6-3.2,12.95,10.85,5.27,15.65c-0.07,0.04-0.14,0.08-0.22,0.13 l-0.89-0.98L31,77.45c-8.13,2.4-17.85-9.35-5.63-15.57l1.17,1.34L27.53,60.99L27.53,60.99z M68.28,3.09 c-0.59-0.32-0.83-1.07-0.54-1.68c0.29-0.61,1.01-0.84,1.61-0.53c8.54,4.58,5.72,12.04,3.21,18.69c-1.76,4.67-3.34,8.84,0.56,10.3 c0.63,0.23,0.96,0.94,0.75,1.59c-0.21,0.64-0.89,0.98-1.52,0.74c-6.26-2.33-4.26-7.64-2.02-13.57 C72.47,12.97,74.87,6.62,68.28,3.09L68.28,3.09z M24.91,21.91c-0.59-0.32-0.83-1.07-0.54-1.68s1.01-0.84,1.61-0.53 c8.54,4.58,5.72,12.04,3.21,18.69c-1.76,4.67-3.34,8.84,0.56,10.3c0.63,0.23,0.96,0.94,0.75,1.59c-0.21,0.64-0.89,0.98-1.52,0.74 c-6.26-2.33-4.26-7.64-2.02-13.57C29.1,31.79,31.5,25.44,24.91,21.91L24.91,21.91z M45.48,2.34c-0.59-0.32-0.83-1.07-0.54-1.67 c0.29-0.61,1.01-0.84,1.61-0.53c11.04,5.92,7.36,15.67,4.08,24.36c-2.42,6.42-4.59,12.17,0.99,14.25c0.63,0.23,0.96,0.94,0.75,1.59 c-0.21,0.64-0.89,0.98-1.52,0.74c-7.95-2.96-5.35-9.84-2.45-17.52C51.31,15.85,54.57,7.21,45.48,2.34L45.48,2.34z M89.84,48.68 c-4.05,1.22-7.58,0.46-9.57-1.71c-3.39-3.69-2.02-11.53,3.88-14.99c0.09-0.05,0.17-0.1,0.26-0.14l1.03,1.02l0.89-1.82 c8.39-4.18,18.71,7.28,6.13,16.61l-1.34-1.41L89.84,48.68L89.84,48.68z M69.65,60.28c-3.65,1.1-6.86,0.24-8.74-1.97 c-3.18-3.75-2.16-11.49,3.1-14.75c0.08-0.05,0.16-0.09,0.23-0.14l0.96,1.04l0.76-1.78c9.78-4.31,17.85,9.49,6.03,16.64l-1.25-1.43 L69.65,60.28L69.65,60.28z M51.41,69.47c-3.47,1.57-6.73,1.23-8.82-0.59c-3.54-3.08-3.38-10.54,1.44-14.38 c0.07-0.06,0.14-0.11,0.21-0.16l1.06,0.85l0.55-1.79c7.42-5.69,18.67,4.18,7.75,14.84l-1.39-1.17L51.41,69.47L51.41,69.47z M16.67,75.46c-5.19,1.96-11.7,4.35-16.66,5.25C-0.4,80,14.17,75.23,16.14,74.43L16.67,75.46L16.67,75.46z"/></g></svg>