<svg xmlns="http://www.w3.org/2000/svg" shape-rendering="geometricPrecision" text-rendering="geometricPrecision" image-rendering="optimizeQuality" fill-rule="evenodd" clip-rule="evenodd" viewBox="0 0 512 444.71"><path fill-rule="nonzero" d="M269.06 20.44c-2.29-3.85-1.04-8.85 2.81-11.15 3.85-2.3 8.85-1.04 11.15 2.81 5.87 9.8 12.09 17.19 18.58 22.47 6.2 5.04 12.71 8.19 19.45 9.76a8.13 8.13 0 0 1 6.11 9.75 8.13 8.13 0 0 1-9.75 6.11c-9.12-2.11-17.84-6.32-26.07-13-7.93-6.46-15.4-15.26-22.28-26.75zm209.58 41.19a8.064 8.064 0 0 0-.1-11.42c-3.17-3.13-8.29-3.08-11.41.1l-22.35 25.25c-3.1 3.14-3.09 8.18 0 11.32l21.9 24.8c3.12 3.18 8.24 3.22 11.41.09a8.064 8.064 0 0 0 .1-11.42l-9.54-11.22 35.33-.17c4.46-.03 8.05-3.68 8.02-8.14-.04-4.46-3.69-8.05-8.15-8.01l-34.87.16 9.66-11.34zm-445.29 0a8.082 8.082 0 0 1 .1-11.42c3.18-3.13 8.3-3.08 11.42.1l22.35 25.25c3.1 3.14 3.08 8.18 0 11.32l-21.9 24.8c-3.12 3.18-8.24 3.22-11.42.09a8.073 8.073 0 0 1-.09-11.42l9.54-11.22-35.33-.17C3.55 88.93-.04 85.28 0 80.82a8.077 8.077 0 0 1 8.15-8.01l34.87.16-9.67-11.34zm425.98 383.08c-.94-93.06-11.06-158.2-22.58-210.64-60.99 27.23-109.94 67.39-154.68 117.56-.47 10.47-.77 21.32-.93 32.37-.3 19.03-.25 38.74-.12 57.98l-16.26.07c-.14-19.37-.19-39.2.11-58.28.1-6.43.24-12.77.43-18.96h-17.09c.25 5.9.46 11.96.65 18.11.59 19.53.91 39.93 1.1 58.63l-16.26.13c-.18-18.44-.5-38.67-1.1-58.31-.31-10.29-.72-20.43-1.23-30.08-45.5-53.7-95.64-93.12-156.12-119.21-11.51 52.35-21.6 117.34-22.58 210.12l-14.08-.11c1.05-98.98 12.27-166.63 24.63-220.94l-1.2-.34 9.07-32.3 4.55-17.9c7.23-28.29 13.79-53.96 17.66-80.58 5.39-37 4.68-39.58-.83-59.75-1.78-6.54-4.04-14.78-6.44-24.95l-.96-4.02L98.75 0l1.02 4.13c2.65 11.21 4.67 18.58 6.27 24.46 6.22 22.76 7.02 25.67 1.22 65.43-3.99 27.47-10.63 53.44-17.94 82.06l-2.17 8.5c74.69 19.76 139.89 25.14 196.63 22.79 54.32-2.23 101.18-11.56 141.25-22.1l-2.35-9.22c-7.31-28.61-13.94-54.57-17.94-82.03-5.78-39.77-5-42.67 1.22-65.45 1.6-5.87 3.63-13.25 6.27-24.44l1.02-4.09 13.68 3.31-.97 3.97c-2.39 10.17-4.64 18.4-6.43 24.95-5.51 20.18-6.21 22.75-.83 59.76 3.88 26.6 10.43 52.27 17.66 80.54 3.85 15.09 7.9 30.92 11.84 48.07l.87 3.14-.05.02 1.73 4.34-.78.32c11.9 53.49 22.46 120.08 23.44 216.14l-14.08.11zM244.37 134.99c-4.15-1.72-6.11-6.49-4.4-10.64 1.72-4.15 6.49-6.12 10.64-4.4 1.92.8 3.81 1.25 5.62 1.32 1.85.06 3.78-.25 5.72-.94 4.22-1.51 8.88.69 10.38 4.91 1.51 4.22-.69 8.88-4.91 10.39-3.93 1.4-7.84 2.02-11.7 1.89-3.9-.13-7.7-1-11.35-2.53zM229.16 12.1c2.29-3.85 7.29-5.11 11.14-2.81 3.85 2.3 5.11 7.3 2.81 11.15-6.88 11.49-14.34 20.29-22.28 26.75-8.23 6.68-16.95 10.89-26.07 13a8.13 8.13 0 0 1-9.75-6.11c-1-4.38 1.73-8.75 6.11-9.75 6.75-1.57 13.25-4.72 19.46-9.76 6.48-5.28 12.71-12.67 18.58-22.47z"/></svg>