<svg xmlns="http://www.w3.org/2000/svg" shape-rendering="geometricPrecision" text-rendering="geometricPrecision" image-rendering="optimizeQuality" fill-rule="evenodd" clip-rule="evenodd" viewBox="0 0 485 511.62"><path d="M244.08 0c21 0 40.03 8.53 53.79 22.28l.34.38c13.57 13.74 21.94 32.62 21.94 53.42 0 20.98-8.52 40-22.28 53.77-13.76 13.79-32.79 22.31-53.79 22.31-21.02 0-40.04-8.52-53.8-22.28l-.34-.38C176.37 115.76 168 96.88 168 76.08c0-21.01 8.52-40.04 22.28-53.8C204.04 8.53 223.06 0 244.08 0zM469.3 511.62c-1.06-103.8-12.34-176.46-25.19-234.95-68.03 30.37-122.64 75.16-172.53 131.12-.53 11.68-.86 23.8-1.04 36.11-.33 21.23-.29 43.21-.13 64.68l-18.14.07c-.16-21.6-.21-43.71.13-65 .11-7.18.26-14.24.47-21.15h-19.06c.28 6.58.52 13.34.72 20.2.66 21.77 1.02 44.55 1.23 65.39l-18.14.14c-.2-20.55-.56-43.12-1.23-65.04-.34-11.47-.8-22.78-1.37-33.55-50.74-59.89-106.67-103.86-174.13-132.96C28.06 335.06 16.8 407.55 15.7 511.05L0 510.93c1.01-95.45 10.79-192.15 36.25-282.85l5.07-19.97c8.06-31.55 15.38-60.19 19.69-89.88 6.02-41.27 5.23-44.15-.91-66.64-1.99-7.3-4.51-16.49-7.19-27.83l-1.07-4.48 15.25-3.7 1.15 4.61c2.95 12.51 5.2 20.72 6.99 27.28 6.94 25.38 7.83 28.63 1.36 72.98-4.45 30.65-11.86 59.61-20.01 91.53l-2.42 9.49c83.31 22.04 156.04 28.04 219.33 25.43 60.58-2.5 112.85-12.91 157.55-24.67l-2.62-10.28c-8.16-31.91-15.56-60.86-20.02-91.5-6.45-44.36-5.57-47.6 1.37-73 1.78-6.55 4.04-14.78 6.99-27.26l1.13-4.57 15.26 3.7-1.08 4.43c-2.66 11.34-5.18 20.52-7.17 27.82-6.15 22.52-6.92 25.39-.92 66.66 4.32 29.68 11.63 58.31 19.7 89.84 26.59 104.04 40.14 187.37 41.32 303.42l-15.7.13zM229.53 190.55c-4.63-1.92-6.82-7.24-4.91-11.87 1.92-4.63 7.24-6.82 11.87-4.91 2.13.89 4.25 1.4 6.26 1.47 2.07.07 4.22-.27 6.38-1.05 4.71-1.68 9.9.78 11.59 5.48 1.68 4.71-.78 9.91-5.48 11.59-4.39 1.57-8.75 2.25-13.05 2.11-4.36-.15-8.59-1.12-12.66-2.82zm-6.57-128.94 14.11 13.4 26.39-26.78c2.46-2.51 4-4.5 7.04-1.39l9.86 10.09c3.22 3.19 3.06 5.06 0 8.05l-37.67 37.03c-6.43 6.3-5.32 6.7-11.83.21l-24.49-24.35c-1.34-1.47-1.2-2.95.26-4.44l11.44-11.84c1.73-1.8 3.11-1.68 4.89.02z"/></svg>