<svg xmlns="http://www.w3.org/2000/svg" shape-rendering="geometricPrecision" text-rendering="geometricPrecision" image-rendering="optimizeQuality" fill-rule="evenodd" clip-rule="evenodd" viewBox="0 0 512 444.7"><path fill-rule="nonzero" d="M269.06 20.44c-2.3-3.85-1.05-8.85 2.8-11.15 3.85-2.3 8.85-1.04 11.15 2.81 5.86 9.8 12.09 17.18 18.58 22.47 6.2 5.04 12.71 8.2 19.45 9.76 4.38 1 7.12 5.37 6.12 9.75s-5.37 7.11-9.75 6.11c-9.12-2.1-17.85-6.31-26.08-13-7.93-6.46-15.39-15.25-22.27-26.75zm206.76 41.19a8.064 8.064 0 0 1 .1-11.42 8.052 8.052 0 0 1 11.41.1l22.35 25.24a8.073 8.073 0 0 1 0 11.33l-21.89 24.79c-3.13 3.19-8.25 3.22-11.42.1-3.19-3.13-3.23-8.25-.1-11.42l9.54-11.22-35.33-.17c-4.46-.04-8.05-3.68-8.02-8.14.04-4.46 3.69-8.05 8.15-8.01l34.87.16-9.66-11.34zm-439.64 0a8.064 8.064 0 0 0-.1-11.42 8.052 8.052 0 0 0-11.41.1L2.32 75.55a8.073 8.073 0 0 0 0 11.33l21.9 24.79c3.12 3.19 8.24 3.22 11.41.1 3.19-3.13 3.23-8.25.1-11.42l-9.54-11.22 35.33-.17c4.46-.04 8.05-3.68 8.02-8.14-.04-4.46-3.69-8.05-8.15-8.01l-34.87.16 9.66-11.34zM459.33 444.7c-.95-93.06-11.06-158.2-22.59-210.63-60.99 27.22-109.94 67.38-154.67 117.55-.47 10.47-.77 21.33-.94 32.37-.29 19.04-.25 38.75-.11 57.99l-16.27.06c-.14-19.36-.18-39.19.12-58.27.1-6.44.24-12.77.42-18.97h-17.08c.24 5.9.46 11.97.65 18.11.59 19.53.91 39.94 1.09 58.63l-16.26.13c-.18-18.43-.5-38.66-1.1-58.31-.31-10.28-.71-20.43-1.23-30.08-45.49-53.69-95.63-93.12-156.11-119.21-11.51 52.35-21.6 117.34-22.58 210.12l-14.08-.11c1.05-98.98 12.27-166.63 24.63-220.94l-1.2-.34 9.07-32.3 4.54-17.9c7.23-28.28 13.8-53.96 17.66-80.57 5.4-37 4.69-39.58-.82-59.75-1.78-6.55-4.04-14.78-6.44-24.95l-.97-4.02L98.74 0l1.03 4.13c2.64 11.21 4.66 18.58 6.27 24.46 6.22 22.75 7.01 25.67 1.22 65.43-3.99 27.47-10.64 53.44-17.95 82.06l-2.16 8.5c74.68 19.76 139.89 25.14 196.63 22.8 54.31-2.24 101.17-11.58 141.24-22.12l-2.35-9.22c-7.31-28.6-13.94-54.56-17.94-82.02-5.78-39.77-5-42.68 1.22-65.45 1.61-5.88 3.63-13.25 6.28-24.44l1.01-4.09 13.68 3.31-.97 3.97c-2.38 10.16-4.64 18.4-6.43 24.94-5.51 20.19-6.21 22.76-.83 59.77 3.88 26.6 10.43 52.27 17.66 80.54 3.85 15.08 7.9 30.91 11.84 48.07l.87 3.14-.05.01 1.73 4.35-.77.31c11.9 53.5 22.46 120.08 23.43 216.14l-14.07.11zM244.37 134.99c-4.15-1.72-6.12-6.49-4.4-10.64 1.72-4.15 6.49-6.12 10.64-4.4 1.91.79 3.81 1.25 5.62 1.31 1.85.07 3.77-.24 5.71-.94 4.22-1.5 8.88.7 10.39 4.92a8.122 8.122 0 0 1-4.91 10.38c-3.93 1.41-7.84 2.02-11.7 1.89-3.91-.13-7.71-1-11.35-2.52zM229.15 12.1c2.3-3.85 7.3-5.11 11.15-2.81 3.85 2.3 5.1 7.3 2.8 11.15-6.87 11.5-14.34 20.29-22.27 26.75-8.23 6.69-16.96 10.9-26.08 13-4.38 1-8.74-1.73-9.75-6.11-1-4.38 1.74-8.75 6.12-9.75 6.74-1.56 13.25-4.72 19.45-9.76 6.5-5.29 12.72-12.67 18.58-22.47z"/></svg>