<?xml version="1.0" encoding="utf-8"?><svg version="1.1" id="Layer_1" xmlns="http://www.w3.org/2000/svg" xmlns:xlink="http://www.w3.org/1999/xlink" x="0px" y="0px" viewBox="0 0 122.88 71.4" style="enable-background:new 0 0 122.88 71.4" xml:space="preserve"><g><path d="M0.15,35.23L0,10.26c0-0.05,0-0.09,0.01-0.14V0.2C0.01,0.09,0.1,0,0.21,0h122.48c0.11,0,0.19,0.09,0.19,0.19V10.2l0,0.05 v25.47c0,0.69-0.53,1.26-1.21,1.33c-11.14,1.39-19.89,4.91-26.35,10.49c-6.45,5.56-10.66,13.2-12.74,22.82 c-0.13,0.62-0.69,1.05-1.3,1.05v0H41.6c-0.66,0-1.21-0.48-1.31-1.12c-2.56-10.37-7.36-17.98-13.96-23.4 c-6.65-5.45-15.15-8.7-25.05-10.3C0.6,36.48,0.13,35.89,0.15,35.23L0.15,35.23z M45.27,11.58c0.2,9.18-0.91,16.7-3.03,22.81 c-2.23,6.43-5.56,11.29-9.66,14.83c4.53,5.09,7.95,11.51,10.05,19.51h37.58c1.85-7.87,5.12-14.47,9.84-19.75 c-3.89-3.37-7.03-7.88-9.19-13.81c-2.26-6.21-3.43-13.97-3.22-23.59H45.27L45.27,11.58z M30.74,47.29 c3.81-3.26,6.92-7.76,8.99-13.76c2.02-5.83,3.07-13.07,2.88-21.95H2.66L2.8,34.15c9.88,1.73,18.43,5.12,25.21,10.68 C28.95,45.61,29.87,46.43,30.74,47.29L30.74,47.29z M80.31,11.58c-0.21,9.3,0.9,16.76,3.06,22.68c2.01,5.52,4.93,9.7,8.54,12.79 c0.54-0.53,1.1-1.04,1.68-1.54c6.65-5.73,15.5-9.42,26.63-10.97V11.58H80.31L80.31,11.58z"/></g></svg>