<svg xmlns="http://www.w3.org/2000/svg" viewBox="0 0 495.7 484.43"><defs><style>.a{fill:#ff6a3e;fill-rule:evenodd;}</style></defs><title>meteor-js-icon</title><path class="a" d="M491.73,320.29c-7.73,8.29-17.83,1.18-17.83,1.18L248.05,78.79,493.51,303.72S499.46,312,491.73,320.29Zm-25.25-78.64L364.11,131.32l112.07,102a5.89,5.89,0,0,1-.89,7.77C471.47,245,466.48,241.65,466.48,241.65ZM483.21,388c-11.06,11.87-25.51,1.71-25.51,1.71L134.41,42.36l351.36,322S494.27,376.17,483.21,388ZM450,446.49c-11.06,11.86-25.53,1.69-25.53,1.69L0,0,452.59,422.76S461.09,434.63,450,446.49Zm-61.25,32.19c-11.06,11.86-25.53,1.7-25.53,1.7L40,133,391.34,455S399.84,466.82,388.79,478.68Zm-74,.89c-7.73,8.28-17.83,1.18-17.83,1.18L71.1,238.07,316.57,463S322.5,471.29,314.78,479.57Zm-76-19.89c-3.82,3.88-8.82.55-8.82.55L127.62,349.91l112.06,102A5.89,5.89,0,0,1,238.8,459.68Z"/></svg>