<svg id="Layer_1" data-name="Layer 1" xmlns="http://www.w3.org/2000/svg" viewBox="0 0 122.88 53.33"><title>mexican-peso</title><path d="M0,48.08,5.13,4.73H15.75l8.93,30.45L33.61,4.73h10.5L49.3,48.08H38.39L35.6,24.69,29.87,48.08H19.25l-5.68-23-2.66,23Zm103.74.26-.55,0c-1.23-.08-2.43-.19-3.62-.35s-2.32-.33-3.41-.52S94,47,93,46.74v-9c1.32.12,2.75.21,4.28.29s3.1.14,4.67.18,3.05.06,4.41.06a14.46,14.46,0,0,0,3.21-.3,3.84,3.84,0,0,0,1.92-.93,2.36,2.36,0,0,0,.64-1.75v-.7a2.22,2.22,0,0,0-.9-1.93,3.63,3.63,0,0,0-2.13-.64H106q-6.76,0-10.27-3t-3.5-10V17.15q0-6.4,3.85-9.59a14.54,14.54,0,0,1,7.64-3V0H110V4.45c.79,0,1.56.11,2.31.19,1.61.17,3.13.39,4.55.64s2.69.52,3.82.79v9q-2.68-.23-6-.38c-2.23-.09-4.27-.14-6.1-.14a16.92,16.92,0,0,0-2.91.23,3.68,3.68,0,0,0-2,.94,2.77,2.77,0,0,0-.7,2v.58a2.69,2.69,0,0,0,.94,2.22,4.5,4.5,0,0,0,2.86.76h3.85a13.54,13.54,0,0,1,6.79,1.54,10.14,10.14,0,0,1,4.09,4.2,13,13,0,0,1,1.37,6V35q0,5.54-1.93,8.46a9.46,9.46,0,0,1-5.48,3.94,26.94,26.94,0,0,1-5.43.91v5h-6.3v-5Zm-32.51-31L78.1,4.73H90.58L77.11,26.83,90.29,48.08H77.81L70.24,35.89,63.57,48.08H51.08L64.3,26.3,50.91,4.73H63.39l7.84,12.63Z"/></svg>