<svg id="Layer_1" data-name="Layer 1" xmlns="http://www.w3.org/2000/svg" viewBox="0 0 122.88 95.15"><defs><style>.cls-1{fill:#f37024;}</style></defs><title>micromax</title><path class="cls-1" d="M29.66,65.46a10.15,10.15,0,0,1-7.81,12l-3.15.66a10.16,10.16,0,0,1-12-7.8L.22,39.91A10.17,10.17,0,0,1,8,27.9l3.16-.67a10.18,10.18,0,0,1,12,7.8l6.46,30.43ZM98.3,94.92a10.15,10.15,0,0,1-12-7.8L85.61,84a10.16,10.16,0,0,1,7.81-12L110,68.43a10.15,10.15,0,0,1,12,7.8l.68,3.16a10.15,10.15,0,0,1-7.81,12L98.3,94.92Zm12.91-41.1a10.16,10.16,0,0,1-7.8,12l-3.16.67a10.17,10.17,0,0,1-12-7.8l-9-42.63A10.13,10.13,0,0,1,87,4.06l3.15-.68a10.17,10.17,0,0,1,12,7.8l9.06,42.64ZM84.87,61.61a10.16,10.16,0,0,1-7.81,12l-3.16.68a10.15,10.15,0,0,1-12-7.81L50.51,12.91A10.14,10.14,0,0,1,58.3.9L61.46.22A10.16,10.16,0,0,1,73.47,8l11.4,53.58ZM57.55,64.88a10.17,10.17,0,0,1-7.81,12l-3.16.66a10.14,10.14,0,0,1-12-7.8L25.34,26.29a10.14,10.14,0,0,1,7.79-12l3.16-.67a10.15,10.15,0,0,1,12,7.8l9.25,43.47Z"/></svg>