<svg id="Layer_1" data-name="Layer 1" xmlns="http://www.w3.org/2000/svg" xmlns:xlink="http://www.w3.org/1999/xlink" viewBox="0 0 511.89 487.51"><defs><style>.cls-1{fill:#2b7cd3;}.cls-2{fill:#41a5ee;}.cls-3{fill:#103f91;}.cls-4{opacity:0.1;}.cls-4,.cls-5{isolation:isolate;}.cls-5{opacity:0.2;}.cls-6{fill:url(#linear-gradient);}.cls-7{fill:#fff;}</style><linearGradient id="linear-gradient" x1="46.58" y1="-1497.82" x2="221.55" y2="-1194.78" gradientTransform="translate(0 1602.24)" gradientUnits="userSpaceOnUse"><stop offset="0" stop-color="#2368c4"/><stop offset="0.5" stop-color="#1a5dbe"/><stop offset="1" stop-color="#1146ac"/></linearGradient></defs><title>microsoft-visio</title><path class="cls-1" d="M278.25,121.88H489.58a22.3,22.3,0,0,1,22.31,22.3V343.33a22.3,22.3,0,0,1-22.31,22.3H278.25a22.3,22.3,0,0,1-22.31-22.3V144.18A22.3,22.3,0,0,1,278.25,121.88Z"/><path class="cls-2" d="M390,121.88a21.87,21.87,0,0,1-6.58,15.72l-90.92,90.92-8.66,8.65a42.63,42.63,0,0,1-3.53,3.05,23,23,0,0,1-12.19,3.54,21.84,21.84,0,0,1-15.72-6.59L152.83,137.6a22.1,22.1,0,0,1-2.92-27.91,27.46,27.46,0,0,1,2.92-3.54L252.41,6.58a22.07,22.07,0,0,1,31.21-.23l.23.23,99.58,99.57A21.9,21.9,0,0,1,390,121.88Z"/><path class="cls-3" d="M390,365.63a121.87,121.87,0,0,1-227.42,60.94,86.69,86.69,0,0,1-6.1-12.19,105.91,105.91,0,0,1-4.63-12.18A121.9,121.9,0,0,1,268.13,243.75c4.15,0,8.17.25,12.19.61a100.12,100.12,0,0,1,12.19,1.83A122.09,122.09,0,0,1,390,365.63Z"/><path class="cls-4" d="M292.51,132V392.08a22.44,22.44,0,0,1-13.9,20.6,21.68,21.68,0,0,1-8.41,1.7H156.49a105.91,105.91,0,0,1-4.63-12.18A121.9,121.9,0,0,1,268.13,243.75a21.83,21.83,0,0,1-15.72-6.58L152.83,137.6a22.1,22.1,0,0,1-2.92-27.91H270.2A22.31,22.31,0,0,1,290,121.88,20.54,20.54,0,0,1,292.51,132Z"/><path class="cls-5" d="M280.32,144.18V404.27a21.51,21.51,0,0,1-1.71,8.41A22.44,22.44,0,0,1,258,426.57H162.59a86.69,86.69,0,0,1-6.1-12.19,105.91,105.91,0,0,1-4.63-12.18A121.9,121.9,0,0,1,268.13,243.75a21.83,21.83,0,0,1-15.72-6.58L152.83,137.6a21.87,21.87,0,0,1-6.58-15.72H258a21.7,21.7,0,0,1,16.21,7.19A22,22,0,0,1,280.32,144.18Z"/><path class="cls-5" d="M280.32,144.18V379.89A22.49,22.49,0,0,1,258,402.2H151.86A121.87,121.87,0,0,1,268.13,243.76a21.84,21.84,0,0,1-15.72-6.59L152.83,137.6a21.87,21.87,0,0,1-6.58-15.72H258a21.7,21.7,0,0,1,16.21,7.19A22,22,0,0,1,280.32,144.18Z"/><path class="cls-5" d="M268.13,144.18v99.58a21.84,21.84,0,0,1-15.72-6.59L152.83,137.6a21.87,21.87,0,0,1-6.58-15.72h99.58A22.38,22.38,0,0,1,268.13,144.18Z"/><path class="cls-5" d="M268.13,243.76V379.89a22.48,22.48,0,0,1-22.3,22.31h-94A121.87,121.87,0,0,1,268.13,243.76Z"/><path class="cls-6" d="M22.34,121.88H245.79a22.34,22.34,0,0,1,22.34,22.34V367.67A22.34,22.34,0,0,1,245.79,390H22.34A22.34,22.34,0,0,1,0,367.67V144.22A22.34,22.34,0,0,1,22.34,121.88Z"/><path class="cls-7" d="M126.75,279.44q6.17,18.13,7.32,22.89h.5q1.1-4.75,7.91-24.51l32.5-94.5h29.88L149.71,328.56h-32L63.38,183.32H94.11Z"/></svg>