<?xml version="1.0" encoding="utf-8"?><svg version="1.1" id="Layer_1" xmlns="http://www.w3.org/2000/svg" xmlns:xlink="http://www.w3.org/1999/xlink" x="0px" y="0px" viewBox="0 0 115.28 122.88" style="enable-background:new 0 0 115.28 122.88" xml:space="preserve"><style type="text/css">.st0{fill-rule:evenodd;clip-rule:evenodd;}</style><g><path class="st0" d="M25.38,57h64.88V37.34H69.59c-2.17,0-5.19-1.17-6.62-2.6c-1.43-1.43-2.3-4.01-2.3-6.17V7.64l0,0H8.15 c-0.18,0-0.32,0.09-0.41,0.18C7.59,7.92,7.55,8.05,7.55,8.24v106.45c0,0.14,0.09,0.32,0.18,0.41c0.09,0.14,0.28,0.18,0.41,0.18 c22.78,0,58.09,0,81.51,0c0.18,0,0.17-0.09,0.27-0.18c0.14-0.09,0.33-0.28,0.33-0.41v-11.16H25.38c-4.14,0-7.56-3.4-7.56-7.56 V64.55C17.82,60.4,21.22,57,25.38,57L25.38,57z M32.2,68.09h10.04l3.83,14.99l3.84-14.99h10v24.64h-6.23V73.95l-4.81,18.78h-5.64 l-4.8-18.78v18.78H32.2V68.09L32.2,68.09z M65.12,68.09h7.64v24.64h-7.64V68.09L65.12,68.09z M78.37,68.09h11.32 c2.23,0,4.03,0.3,5.4,0.91c1.37,0.61,2.51,1.47,3.41,2.6c0.89,1.14,1.54,2.45,1.94,3.95c0.41,1.5,0.61,3.09,0.61,4.77 c0,2.63-0.3,4.67-0.9,6.13c-0.6,1.45-1.43,2.67-2.5,3.65c-1.07,0.98-2.21,1.63-3.43,1.96c-1.67,0.45-3.18,0.67-4.54,0.67H78.37 V68.09L78.37,68.09z M85.98,73.67v13.46h1.87c1.59,0,2.73-0.18,3.41-0.53c0.67-0.36,1.2-0.97,1.58-1.85 c0.38-0.88,0.57-2.31,0.57-4.28c0-2.61-0.42-4.39-1.28-5.36c-0.85-0.96-2.27-1.45-4.25-1.45H85.98L85.98,73.67z M97.79,57h9.93 c4.16,0,7.56,3.41,7.56,7.56v31.42c0,4.15-3.41,7.56-7.56,7.56h-9.93v13.55c0,1.61-0.65,3.04-1.7,4.1c-1.06,1.06-2.49,1.7-4.1,1.7 c-29.44,0-56.59,0-86.18,0c-1.61,0-3.04-0.64-4.1-1.7c-1.06-1.06-1.7-2.49-1.7-4.1V5.85c0-1.61,0.65-3.04,1.7-4.1 c1.06-1.06,2.53-1.7,4.1-1.7h58.72C64.66,0,64.8,0,64.94,0c0.64,0,1.29,0.28,1.75,0.69h0.09c0.09,0.05,0.14,0.09,0.23,0.18 l29.99,30.36c0.51,0.51,0.88,1.2,0.88,1.98c0,0.23-0.05,0.41-0.09,0.65V57L97.79,57z M67.52,27.97V8.94l21.43,21.7H70.19 c-0.74,0-1.38-0.32-1.89-0.78C67.84,29.4,67.52,28.71,67.52,27.97L67.52,27.97z"/></g></svg>