<svg id="Layer_1" data-name="Layer 1" xmlns="http://www.w3.org/2000/svg" viewBox="0 0 85.44 122.88"><defs><style>.cls-1{fill-rule:evenodd;}</style></defs><title>milk</title><path class="cls-1" d="M2.17,122.24A2.22,2.22,0,0,1,0,119.92V38.5A2.28,2.28,0,0,1,.51,37L11,18.79V2.32A2.24,2.24,0,0,1,13.09,0H71.37a2.18,2.18,0,0,1,2.09,1.87L74.57,20,85.44,39.15l-.33,83.33c-22.16,1-55.22-.24-82.94-.24ZM33.29,52.4A10.72,10.72,0,1,1,22.57,63.12,10.72,10.72,0,0,1,33.29,52.4ZM26,100.08H22.29l-.11-4.16L22,92.46h-.26l-2.21,6.33h-3.2l-1.83-6.33H14.2l-.3,3.06-.21,4.56H10.14l1.34-13.74h4.9l.41,2,1.21,5h.25l1.34-4.84.49-2.11h4.84L26,100.08Zm6.06-4.46.17,4.46H28l.21-4L28,86.34h4.33l-.23,9.28ZM43.25,96.9,43,100.08H34.82l.21-4-.21-9.71h4.33l-.24,9.28.05,1h4l.24.3Zm9.28-4.06Q54.48,95.9,57,99.19l-.07.47a37.15,37.15,0,0,1-4.24.68l-.47-.26c-1.45-2.47-2.63-4.58-3.55-6.3l0,1.84.17,4.46H44.52l.21-4-.21-9.71h4.33l-.15,5.74,2.64-4.25.72-1.49h4.5l-4,6.5ZM22,15.93h4.64v4.72H22V15.93Zm9.06,0h4.63v4.72H31.05V15.93Zm9,0h9.82v4.72H40.07V15.93ZM69.22,4.62h-54V15.93h2.55v4.72H15C12,25.82,9.14,31.09,6.24,36.3h54l8.8-15.63-12.6,0V15.93l12.67-.07c0-3.78,0-7.49.08-11.24ZM72.76,23,65.88,36.3H80.12L72.76,23Zm-7.58,17.9v76.7H80.3l-.14-76.7Zm-60.93,0v76.7H61.09V40.93Z"/></svg>