<?xml version="1.0" encoding="utf-8"?><svg version="1.1" id="Layer_1" xmlns="http://www.w3.org/2000/svg" xmlns:xlink="http://www.w3.org/1999/xlink" x="0px" y="0px" width="122.881px" height="124.138px" viewBox="0 0 122.881 124.138" enable-background="new 0 0 122.881 124.138" xml:space="preserve"><g><path d="M87.645,59.341c1.149,0,2.081,0.932,2.081,2.082c0,1.149-0.932,2.081-2.081,2.081H71.657c-1.149,0-2.081-0.932-2.081-2.081 V45.179c0-1.149,0.932-2.081,2.081-2.081s2.081,0.932,2.081,2.081v11.214l11.025-11.067c0.808-0.813,2.122-0.816,2.935-0.008 s0.816,2.122,0.008,2.935L76.66,59.341H87.645L87.645,59.341z M7.813,124.138c-2.151,0-4.105-0.878-5.521-2.293 C0.878,120.431,0,118.477,0,116.324V7.813c0-2.151,0.878-4.105,2.293-5.521C3.708,0.878,5.662,0,7.813,0h107.254 c2.151,0,4.105,0.879,5.52,2.293c1.415,1.415,2.294,3.37,2.294,5.52v108.511c0,2.15-0.879,4.105-2.294,5.521 c-1.415,1.414-3.368,2.293-5.52,2.293H7.813L7.813,124.138z M117.494,23.901H5.387v92.423c0,0.665,0.273,1.271,0.715,1.712 c0.441,0.441,1.047,0.716,1.712,0.716h107.254c0.663,0,1.27-0.274,1.711-0.716s0.716-1.048,0.716-1.712V23.901L117.494,23.901z M47.854,46.725c0-1.149,0.932-2.081,2.081-2.081c1.149,0,2.082,0.932,2.082,2.081v15.987c0,1.149-0.932,2.081-2.082,2.081H33.691 c-1.149,0-2.081-0.932-2.081-2.081c0-1.149,0.932-2.081,2.081-2.081h11.214L33.839,49.606c-0.812-0.808-0.816-2.122-0.008-2.935 c0.809-0.813,2.123-0.816,2.935-0.008l11.089,11.046V46.725L47.854,46.725z M35.237,81.636c-1.149,0-2.081-0.933-2.081-2.082 c0-1.148,0.932-2.081,2.081-2.081h15.987c1.149,0,2.082,0.933,2.082,2.081v16.244c0,1.149-0.932,2.081-2.082,2.081 s-2.081-0.932-2.081-2.081V84.584L38.119,95.65c-0.809,0.812-2.123,0.815-2.936,0.008c-0.812-0.809-0.816-2.122-0.008-2.935 l11.046-11.088H35.237L35.237,81.636z M75.027,94.251c0,1.148-0.933,2.081-2.081,2.081c-1.149,0-2.081-0.933-2.081-2.081V78.263 c0-1.148,0.932-2.081,2.081-2.081h16.243c1.148,0,2.081,0.933,2.081,2.081c0,1.149-0.933,2.082-2.081,2.082H77.975l11.067,11.024 c0.813,0.809,0.815,2.122,0.008,2.935s-2.122,0.816-2.935,0.009L75.027,83.266V94.251L75.027,94.251z"/></g></svg>