<svg xmlns="http://www.w3.org/2000/svg" shape-rendering="geometricPrecision" text-rendering="geometricPrecision" image-rendering="optimizeQuality" fill-rule="evenodd" clip-rule="evenodd" viewBox="0 0 512 342.68"><path d="M3.59 300.54c-1.99 0-3.59-1.61-3.59-3.59 0-1.03.14-2.04.38-3.03 5.77-45.65 41.51-57.84 66.87-64.42 12.69-3.29 44.26-15.82 31.68-33.05-7.05-9.66-13.44-16.46-19.83-26.67-4.61-6.81-7.04-12.88-7.04-17.75 0-5.19 2.75-11.27 8.26-12.64-.73-10.45-.97-24.2-.48-35.39 1.75-19.2 15.52-33.35 33.31-39.62 7.04-2.68 3.64-13.38 11.42-13.62 18.24-.49 48.14 15.07 59.82 27.71 6.81 7.3 11.18 17.02 11.91 29.91l-.73 32.22c3.4.98 5.59 3.16 6.57 6.56.97 3.89 0 9.25-3.41 16.79 0 .24-.24.24-.24.48-7.51 12.37-15.33 20.56-23.92 32.02-3.84 5.12-3.09 10.02.1 14.42-4.48 2.61-8.85 5.62-13.06 9.16-16.66 13.99-29.53 34.84-34.05 68.02-.29 1.25-.51 2.5-.61 3.74-.22 1.8-.35 3.3-.35 4.41 0 1.48.13 2.93.36 4.34H3.59zM428 174.68c46.4 0 84 37.61 84 84 0 46.4-37.62 84-84 84-46.41 0-84-37.62-84-84 0-46.41 37.61-84 84-84zm34.01 70.95c3.85-.03 6.6-.38 6.52 4.39l-.18 15.46c.03 4.99-1.55 6.31-6.22 6.26h-68.25c-4.68.05-6.26-1.27-6.23-6.26l-.19-15.46c-.06-4.77 2.68-4.42 6.53-4.39h68.02zm-309.25 54.96a4.38 4.38 0 0 1-4.38-4.39c0-1.25.17-2.48.47-3.7 7.03-55.71 40.42-67.83 71.33-75.78 14.84-3.82 44.44-18.71 40.85-37.91-7.49-6.94-14.92-16.53-16.21-30.83l-.9.02c-2.08-.03-4.08-.5-5.95-1.56-4.13-2.35-6.4-6.86-7.49-11.98-2.29-15.68-2.87-23.68 5.49-27.18l.07-.02c-1.04-19.34 2.23-47.79-17.63-53.8 39.21-48.44 84.41-74.8 118.34-31.7 37.81 1.98 54.67 55.54 31.19 85.52h-.99c8.35 3.5 7.1 12.49 5.49 27.18-1.09 5.12-3.36 9.63-7.49 11.98-1.87 1.06-3.87 1.53-5.95 1.56l-.9-.02c-1.3 14.3-8.74 23.89-16.23 30.83-1.02 5.43.62 10.52 3.84 15.1-14.05 17.82-22.44 40.32-22.44 64.77 0 14.89 3.11 29.07 8.73 41.91H152.76z"/></svg>