<?xml version="1.0" encoding="utf-8"?><svg version="1.1" id="Layer_1" xmlns="http://www.w3.org/2000/svg" xmlns:xlink="http://www.w3.org/1999/xlink" x="0px" y="0px" viewBox="0 0 122.85 120.96" style="enable-background:new 0 0 122.85 120.96" xml:space="preserve"><style type="text/css"><![CDATA[
	.st0{fill-rule:evenodd;clip-rule:evenodd;fill:#DE201D;}
	.st1{clip-path:url(#SVGID_2_);fill-rule:evenodd;clip-rule:evenodd;fill:#FFD51F;}
	.st2{fill-rule:evenodd;clip-rule:evenodd;fill:#FF8126;}
]]></style><g><path class="st0" d="M0,65.82v43.1c0,6.65,5.51,12.04,12.3,12.04c6.79,0,12.3-5.39,12.3-12.04V43.04 C23.89,55.74,13.15,65.82,0,65.82L0,65.82z"/><g><defs><polygon id="SVGID_1_" points="73.1,0.05 122.85,0.05 122.85,80.44 73.1,80.44 73.1,0.05"/></defs><clipPath id="SVGID_2_"><use xlink:href="#SVGID_1_" style="overflow:visible"/></clipPath><path class="st1" d="M122.16,0C95.33,0,73.58,21.24,73.58,47.43V62.2c0-6.65,5.52-12.04,12.33-12.04c6.8,0,12.33,5.39,12.33,12.04 v6.13c0,6.65,5.52,12.04,12.33,12.04c6.81,0,12.33-5.39,12.33-12.04V0.01C122.65,0,122.41,0,122.16,0L122.16,0z"/></g><path class="st2" d="M0,66.19c13.13,0,23.86-10.1,24.56-22.81V32.07c0-0.31,0.02-0.62,0.04-0.92c0.48-6.23,5.78-11.14,12.24-11.14 c6.78,0,12.28,5.4,12.28,12.06v47.18c0,6.66,5.5,12.05,12.28,12.05s12.28-5.39,12.28-12.05V47.51C73.69,21.27,95.35,0,122.08,0H0 V66.19L0,66.19z"/></g></svg>