<svg xmlns="http://www.w3.org/2000/svg" shape-rendering="geometricPrecision" text-rendering="geometricPrecision" image-rendering="optimizeQuality" fill-rule="evenodd" clip-rule="evenodd" viewBox="0 0 292 512.66"><path d="M55.39 0h181.24c15.27 0 29.21 6.23 39.14 16.24C285.85 26.33 292 40.2 292 55.4v401.88c0 15.28-6.22 29.23-16.23 39.14-10.09 10.11-23.94 16.24-39.14 16.24H55.39c-15.29 0-29.23-6.22-39.16-16.23C6.15 486.35 0 472.48 0 457.28V55.32c0-15.28 6.22-29.23 16.23-39.16C26.31 6.08 40.1 0 55.39 0zm101.93 170.04c18.42 2.5 34.92 11.04 47.44 23.55 15.02 15.02 24.32 35.78 24.32 58.7s-9.3 43.68-24.32 58.7c-2.9 2.91-6.02 5.6-9.35 8.06l10.06 14.16a6.672 6.672 0 0 1-1.68 9.27c-3.03 2.09-7.18 1.35-9.28-1.68l-10.44-14.69c-11.39 5.88-24.31 9.19-38.01 9.19-13.92 0-27.04-3.43-38.56-9.49l-9.82 14.67c-2.05 3.06-6.2 3.87-9.25 1.83a6.666 6.666 0 0 1-1.83-9.25l9.63-14.37c-3.13-2.35-6.1-4.94-8.87-7.7-15.02-15.02-24.31-35.78-24.31-58.7 0-22.93 9.29-43.68 24.31-58.7 13.47-13.45 31.53-22.32 51.61-24.01 6.06-.51 12.33-.35 18.35.46zm75.54 38.03c6.38-15.25 5.62-31.21-3.52-41.91-10.97-12.84-30.8-14.31-49.21-5.28 19.57 13.42 37.34 29.09 52.73 47.19zm-173.63.5c-6.51-15.53-5.74-31.81 3.57-42.71 11.18-13.08 31.38-14.57 50.15-5.37C93 174.17 74.9 190.12 59.23 208.57zm99.44 37.47 24.99-.44a6.682 6.682 0 0 1 6.79 6.55c.06 3.68-2.87 6.71-6.56 6.78l-25.67.45c-2.44 4.18-6.97 6.99-12.16 6.99-7.77 0-14.07-6.3-14.07-14.08 0-5.36 3-10.02 7.41-12.4v-32.26c0-3.68 2.98-6.66 6.66-6.66a6.66 6.66 0 0 1 6.67 6.66v32.26a14.17 14.17 0 0 1 5.94 6.15zm36.67-43.02c-12.61-12.61-30.03-20.41-49.27-20.41-19.24 0-36.66 7.8-49.28 20.41-12.6 12.6-20.4 30.03-20.4 49.27 0 19.25 7.8 36.67 20.4 49.27 12.62 12.61 30.04 20.41 49.27 20.41 19.25 0 36.67-7.8 49.28-20.41 12.6-12.6 20.41-30.02 20.41-49.27 0-19.24-7.8-36.66-20.41-49.27zM17.64 435.73h256.64V54.86H17.64v380.87zm128.29 17.32c12.53 0 22.77 10.09 22.77 22.77 0 12.55-10.09 22.79-22.77 22.79-12.53 0-22.78-10.09-22.78-22.79 0-12.52 10.08-22.77 22.78-22.77z"/></svg>