<?xml version="1.0" encoding="utf-8"?><svg version="1.1" id="Layer_1" xmlns="http://www.w3.org/2000/svg" xmlns:xlink="http://www.w3.org/1999/xlink" x="0px" y="0px" viewBox="0 0 71.58 122.88" style="enable-background:new 0 0 71.58 122.88" xml:space="preserve"><style type="text/css">.st0{fill-rule:evenodd;clip-rule:evenodd;}</style><g><path class="st0" d="M12.72,0h46.14c3.5,0,6.71,1.44,9,3.72c2.32,2.32,3.72,5.49,3.72,9v97.43c0,3.5-1.44,6.71-3.72,9 c-2.32,2.32-5.49,3.72-9,3.72H12.72c-3.5,0-6.71-1.44-9-3.72c-2.32-2.32-3.72-5.49-3.72-9V12.72c0-3.5,1.44-6.71,3.72-9 C6.05,1.4,9.22,0,12.72,0L12.72,0z M32.46,30.25h6.66c1.53,0,2.78,1.25,2.78,2.78v2.45h8.06c1.09,0,1.98,0.89,1.98,1.98v49.26 c0,1.09-0.89,1.98-1.98,1.98H21.61c-1.09,0-1.98-0.89-1.98-1.98V37.46c0-1.09,0.89-1.98,1.98-1.98h8.06v-2.45 C29.68,31.5,30.93,30.25,32.46,30.25L32.46,30.25z M32.6,52.68l6.18,0.07l-2.88,9.32h6.67L31.59,75.66l2.79-9.37h-5.37L32.6,52.68 L32.6,52.68L32.6,52.68z M23.52,39.47h24.54v44.64H23.52V39.47L23.52,39.47z M35.77,107.24c2.88,0,5.24,2.32,5.24,5.24 c0,2.88-2.32,5.24-5.24,5.24c-2.88,0-5.24-2.32-5.24-5.24C30.54,109.6,32.86,107.24,35.77,107.24L35.77,107.24z M3.61,103.26h64.32 V14.62H3.61V103.26L3.61,103.26z"/></g></svg>