<svg id="Layer_1" data-name="Layer 1" xmlns="http://www.w3.org/2000/svg" viewBox="0 0 73.34 122.88"><defs><style>.cls-1{fill:#262626;fill-rule:evenodd;}.cls-2{fill:#d8453e;}</style></defs><title>mobile-notification</title><path class="cls-1" d="M13.28,0H60.07A13.28,13.28,0,0,1,73.34,13.28V109.6a13.28,13.28,0,0,1-13.27,13.28H13.28A13.28,13.28,0,0,1,0,109.6V13.26A13.25,13.25,0,0,1,13.28,0Zm-10,104.44H70.08v-90H3.24v90Zm33.41,4.15a5.46,5.46,0,1,1-5.46,5.46,5.45,5.45,0,0,1,5.46-5.46Z"/><path class="cls-2" d="M43.32,81.11a6.71,6.71,0,0,1-.78,2.13,6.88,6.88,0,0,1-3.54,3,7.16,7.16,0,0,1-4.66,0,6.64,6.64,0,0,1-2-1.19A6.55,6.55,0,0,1,30,81a.71.71,0,0,1,.58-.83h12a.71.71,0,0,1,.69.91ZM21.65,36.37a1.42,1.42,0,0,1,1.84.8A1.41,1.41,0,0,1,22.7,39a10.74,10.74,0,0,0-3.94,2.63,10.5,10.5,0,0,0-2.35,4.2A1.42,1.42,0,1,1,13.7,45a13,13,0,0,1,8-8.63Zm29,2.63a1.41,1.41,0,0,1,1-2.63,13,13,0,0,1,8,8.63,1.42,1.42,0,0,1-2.71.83,10.5,10.5,0,0,0-2.35-4.2A10.74,10.74,0,0,0,50.64,39Zm-8.47,2a15.81,15.81,0,0,1,2.33,1.16l.09,0a16.38,16.38,0,0,1,2,1.45,15.19,15.19,0,0,1,3.25,3.93,17.12,17.12,0,0,1,1.11,2.33h0a14.85,14.85,0,0,1,.94,5.22v2.91c0,.93,0,1.84,0,2.72h0a21.67,21.67,0,0,0,.16,2.41,20.56,20.56,0,0,0,.42,2.31h0a11.78,11.78,0,0,0,.76,2.11,13.13,13.13,0,0,0,1.18,2h0a12.06,12.06,0,0,0,1.72,1.93,19.18,19.18,0,0,0,2.49,1.93A1.19,1.19,0,0,1,59,75.16a1.2,1.2,0,0,1-1,.52H15.37a1.19,1.19,0,0,1-.61-2.2,20.7,20.7,0,0,0,2.46-1.92,11.35,11.35,0,0,0,1.72-1.95.1.1,0,0,1,0-.05,14.3,14.3,0,0,0,1.14-2,12.51,12.51,0,0,0,.77-2.12s0,0,0,0a18.93,18.93,0,0,0,.42-2.24,21.31,21.31,0,0,0,.14-2.43v-5.6a14.22,14.22,0,0,1,.25-2.68,13.64,13.64,0,0,1,.71-2.56,16.69,16.69,0,0,1,1.11-2.34,15,15,0,0,1,3.28-3.94,16,16,0,0,1,2.1-1.51A15.41,15.41,0,0,1,31.26,41,16.73,16.73,0,0,1,33,40.44a3.48,3.48,0,0,1,1-1.72,3.83,3.83,0,0,1,2.69-.9,3.86,3.86,0,0,1,2.67.92c2.39,2.12-.58,1,2.76,2.27Z"/></svg>