<svg xmlns="http://www.w3.org/2000/svg" shape-rendering="geometricPrecision" text-rendering="geometricPrecision" image-rendering="optimizeQuality" fill-rule="evenodd" clip-rule="evenodd" viewBox="0 0 384 511.97"><path d="M55.31 0h181c15.25 0 29.17 6.22 39.09 16.22 10.07 10.07 16.21 23.92 16.21 39.1v38.3a136.918 136.918 0 0 0-17.7.32V54.79H17.62v380.35h256.29v-73.51a136.918 136.918 0 0 0 17.7.32v94.71c0 15.26-6.22 29.19-16.21 39.09-10.08 10.09-23.91 16.22-39.09 16.22h-181c-15.27 0-29.18-6.21-39.1-16.21C6.14 485.7 0 471.85 0 456.66V55.25c0-15.27 6.21-29.19 16.21-39.11C26.28 6.07 40.04 0 55.31 0zm229.92 129.02c27.28 0 51.97 11.05 69.84 28.92 17.87 17.87 28.93 42.57 28.93 69.84 0 27.26-11.06 51.97-28.93 69.84-17.87 17.88-42.56 28.93-69.84 28.93-27.26 0-51.97-11.05-69.84-28.93l-.56-.6c-17.53-17.82-28.37-42.28-28.37-69.24 0-27.25 11.07-51.92 28.93-69.79 17.87-17.92 42.58-28.97 69.84-28.97zm-9.28 48.57c0-4.94 4.02-8.96 8.97-8.96 4.94 0 8.96 4.02 8.96 8.96v45.27l35.31 20.09c4.28 2.43 5.79 7.9 3.36 12.19-2.43 4.28-7.9 5.79-12.19 3.36l-39.24-22.34c-3.05-1.43-5.17-4.53-5.17-8.12v-50.45zm65.19-5.71c-14.3-14.3-34.08-23.16-55.91-23.16-21.82 0-41.61 8.86-55.9 23.16-14.3 14.27-23.16 34.05-23.16 55.9 0 21.59 8.65 41.17 22.64 55.43l.52.48c14.29 14.3 34.08 23.15 55.9 23.15 21.83 0 41.61-8.85 55.91-23.15 14.3-14.3 23.15-34.08 23.15-55.91s-8.85-41.6-23.15-55.9zm-195.4 280.56c12.51 0 22.73 10.08 22.73 22.74 0 12.53-10.07 22.76-22.73 22.76-12.52 0-22.75-10.08-22.75-22.76 0-12.5 10.06-22.74 22.75-22.74z"/></svg>