<svg id="Layer_1" data-name="Layer 1" xmlns="http://www.w3.org/2000/svg" viewBox="0 0 71.58 122.88"><defs><style>.cls-1{fill-rule:evenodd;}</style></defs><title>mobile-ebook</title><path class="cls-1" d="M12.72,0H58.86A12.7,12.7,0,0,1,71.58,12.72v97.44a12.7,12.7,0,0,1-12.72,12.72H12.72A12.72,12.72,0,0,1,0,110.16V12.72A12.72,12.72,0,0,1,12.72,0Zm-2,81.69h6.59v3H14.69v2.9h2.46v2.88H14.69v3.34h2.9v3H10.73V81.69Zm8.49,0h3.94A10.5,10.5,0,0,1,26,82a2.78,2.78,0,0,1,1.55,1.18A5.31,5.31,0,0,1,28.12,86a3.07,3.07,0,0,1-.42,1.86,2.88,2.88,0,0,1-1.65.8,3,3,0,0,1,1.87,1,4,4,0,0,1,.49,2.21v1.41a5.51,5.51,0,0,1-.36,2.28,1.88,1.88,0,0,1-1.11,1,11.12,11.12,0,0,1-3.15.28H19.22V81.69Zm4,2.6v3.38h.39c.38,0,.62-.1.72-.29a4.6,4.6,0,0,0,.16-1.64,2.62,2.62,0,0,0-.13-1,.64.64,0,0,0-.34-.36,2.66,2.66,0,0,0-.8-.08Zm0,5.74v4.26A1.65,1.65,0,0,0,24.23,94a1.9,1.9,0,0,0,.22-1.16V91.45a2.12,2.12,0,0,0-.2-1.19A1.88,1.88,0,0,0,23.18,90Zm16.17.57c0,1.53,0,2.6-.11,3.24a3.55,3.55,0,0,1-.67,1.74A3.58,3.58,0,0,1,37,96.79a5.56,5.56,0,0,1-2.24.42,5.63,5.63,0,0,1-2.19-.4A3.52,3.52,0,0,1,31,95.62a3.57,3.57,0,0,1-.7-1.74,30,30,0,0,1-.12-3.28V88c0-1.53,0-2.61.11-3.24a3.65,3.65,0,0,1,2.21-3,5.57,5.57,0,0,1,2.25-.43,5.76,5.76,0,0,1,2.18.4,3.69,3.69,0,0,1,2.27,2.93c.07.63.11,1.73.11,3.29v2.6Zm-4-5a5.19,5.19,0,0,0-.11-1.36.47.47,0,0,0-.47-.29.53.53,0,0,0-.47.24,3.6,3.6,0,0,0-.16,1.41V92.7a7,7,0,0,0,.11,1.63.45.45,0,0,0,.49.31.47.47,0,0,0,.5-.36,7.17,7.17,0,0,0,.11-1.69v-7Zm15,5a30.49,30.49,0,0,1-.11,3.24,3.55,3.55,0,0,1-.67,1.74A3.61,3.61,0,0,1,48,96.79a6.22,6.22,0,0,1-4.44,0A3.57,3.57,0,0,1,42,95.62a3.67,3.67,0,0,1-.7-1.74c-.07-.62-.11-1.72-.11-3.28V88a30.36,30.36,0,0,1,.11-3.24A3.55,3.55,0,0,1,42,83a3.61,3.61,0,0,1,1.53-1.21,5.64,5.64,0,0,1,2.25-.43,5.85,5.85,0,0,1,2.19.4,3.66,3.66,0,0,1,2.26,2.93c.07.63.11,1.73.11,3.29v2.6Zm-4-5a4.64,4.64,0,0,0-.12-1.36.46.46,0,0,0-.47-.29.51.51,0,0,0-.46.24,3.41,3.41,0,0,0-.16,1.41V92.7a7.29,7.29,0,0,0,.1,1.63.45.45,0,0,0,.49.31.49.49,0,0,0,.51-.36,7.8,7.8,0,0,0,.11-1.69v-7Zm15.37-3.92-2.26,6.86L62,96.89H57.91L56.3,90.37v6.52H52.35V81.69H56.3V87.6l1.78-5.91Zm-36.6-59V26.8a.44.44,0,0,1-.43.44H22.38a.43.43,0,0,1-.43-.43l-.1-1.28h-2v10l1.28.25a.44.44,0,0,1,.36.43V38a.44.44,0,0,1-.44.44H14.74A.44.44,0,0,1,14.3,38V36.18a.44.44,0,0,1,.38-.44l1.26-.24v-10H14l-.09,1.3a.45.45,0,0,1-.44.41H11.1a.44.44,0,0,1-.43-.44V22.73a.43.43,0,0,1,.43-.44H24.74a.43.43,0,0,1,.43.44ZM11.94,74.83a1.76,1.76,0,1,1,0-3.51H60.87a1.76,1.76,0,1,1,0,3.51Zm0-12.3a1.76,1.76,0,1,1,0-3.51H60.87a1.76,1.76,0,1,1,0,3.51Zm0-12.3a1.76,1.76,0,1,1,0-3.51H60.87a1.76,1.76,0,1,1,0,3.51Zm20.75-12.3a1.76,1.76,0,0,1,0-3.51H60.87a1.76,1.76,0,1,1,0,3.51ZM35.77,109a5.24,5.24,0,1,1-5.23,5.24A5.23,5.23,0,0,1,35.77,109ZM3.61,106.77H67.93V12.71H3.61v94.06Z"/></svg>