<?xml version="1.0" encoding="utf-8"?><svg version="1.1" id="Layer_1" xmlns="http://www.w3.org/2000/svg" xmlns:xlink="http://www.w3.org/1999/xlink" x="0px" y="0px" width="240px" height="188.496px" viewBox="0 0 240 188.496" enable-background="new 0 0 240 188.496" xml:space="preserve"><g><path fill-rule="evenodd" clip-rule="evenodd" d="M198.771,139.555h37.592c2.004,0,3.637,1.645,3.637,3.641v37.768 c0,1.994-1.641,3.639-3.637,3.639h-37.592c-2,0-3.641-1.637-3.641-3.639v-37.766c0-2,1.637-3.641,3.641-3.641V139.555 L198.771,139.555z M7.531,0h37.593c2.063,0,3.944,0.852,5.314,2.219l0.007-0.008c1.365,1.365,2.213,3.252,2.213,5.323v173.428 c0,2.07-0.85,3.957-2.214,5.32c-1.363,1.363-3.248,2.213-5.321,2.213H7.531c-2.061,0-3.948-0.854-5.321-2.227 C0.848,184.906,0,183.027,0,180.963V7.535c0-2.065,0.847-3.945,2.209-5.309C3.58,0.853,5.465,0,7.531,0L7.531,0z M71.277,55.993 h37.593c2.076,0,3.96,0.848,5.323,2.21c1.364,1.364,2.211,3.252,2.211,5.324v117.435c0,2.072-0.849,3.957-2.213,5.32 c-1.364,1.365-3.25,2.213-5.322,2.213H71.277c-2.072,0-3.959-0.846-5.324-2.211c-1.362-1.363-2.21-3.246-2.21-5.322V63.528 c0-2.059,0.846-3.938,2.21-5.31l0.007-0.008l0.008-0.007l0.011-0.01C67.349,56.834,69.224,55.993,71.277,55.993L71.277,55.993z M108.615,63.783H71.533v116.924h37.083V63.783L108.615,63.783z M44.868,7.79H7.79v172.917h37.079V7.79L44.868,7.79z M135.024,102.85h37.593c2.003,0,3.64,1.637,3.64,3.641v74.473c0,2-1.637,3.641-3.64,3.641l-37.593-0.002 c-1.999,0-3.64-1.637-3.64-3.639V106.49C131.385,104.486,133.021,102.85,135.024,102.85L135.024,102.85z"/></g></svg>