<svg xmlns="http://www.w3.org/2000/svg" shape-rendering="geometricPrecision" text-rendering="geometricPrecision" image-rendering="optimizeQuality" fill-rule="evenodd" clip-rule="evenodd" viewBox="0 0 408 512.14"><path d="M57.83 0h189.25c15.96 0 30.51 6.51 40.89 16.96 10.52 10.54 16.93 25.02 16.93 40.89v33.28l-.1-.06-18.4-11.67V57.3H18.42v374.51H286.4v-28.79l12.96-.08c1.87-.7 3.72-1.43 5.54-2.17v53.54c0 15.96-6.49 30.52-16.93 40.88-10.55 10.55-25.02 16.95-40.89 16.95H57.83c-15.96 0-30.52-6.49-40.89-16.95C6.41 484.67 0 470.2 0 454.31V57.77c0-15.96 6.49-30.52 16.94-40.89C27.46 6.35 41.87 0 57.83 0zm192.74 235.68c7.85 4.53 12.95 8.28 19.04 14.99 15.79-25.4 32.91-39.48 55.2-59.46l2.17-.84h24.38c-32.68 36.31-58.03 66.23-80.72 110.01-11.81-25.26-22.35-42.7-45.9-58.87l25.82-5.83h.01zm157.25-85.12c3.4 129.29-42.41 198.51-119.74 226.72h-.06c-77.32-28.21-123.13-97.43-119.74-226.72 41.74 2.2 87.59-9.32 119.74-37.08 36.26 27.92 74.21 39.48 119.8 37.08zm-21.96 17.39c2.76 105.58-34.64 162.1-97.79 185.13l-.01-.01-.03.01c-63.14-23.03-100.55-79.55-97.77-185.13 34.07 1.8 71.51-7.6 97.77-30.28 29.6 22.8 60.6 32.24 97.83 30.28zM152.38 449.91c13.08 0 23.77 10.53 23.77 23.77 0 13.1-10.53 23.79-23.77 23.79-13.08 0-23.79-10.54-23.79-23.79 0-13.07 10.53-23.77 23.79-23.77z"/></svg>