<?xml version="1.0" encoding="utf-8"?><svg version="1.1" id="Layer_1" xmlns="http://www.w3.org/2000/svg" xmlns:xlink="http://www.w3.org/1999/xlink" x="0px" y="0px" viewBox="0 0 70.62 122.88" style="enable-background:new 0 0 70.62 122.88" xml:space="preserve"><style type="text/css">.st0{fill-rule:evenodd;clip-rule:evenodd;}</style><g><path class="st0" d="M13.56,0h43.51c3.73,0,7.15,1.53,9.59,3.97c2.48,2.48,3.97,5.86,3.97,9.59v95.76c0,3.73-1.53,7.15-3.97,9.59 c-2.48,2.48-5.86,3.97-9.59,3.97H13.56c-3.73,0-7.15-1.53-9.59-3.97C1.49,116.43,0,113.06,0,109.32V13.56 c0-3.73,1.53-7.15,3.97-9.59C6.45,1.49,9.82,0,13.56,0L13.56,0z M23.33,59.14h2.38v-3.28c0-2.71,1.11-5.17,2.89-6.95v0 c1.78-1.78,4.25-2.89,6.96-2.89c2.71,0,5.17,1.11,6.95,2.89l0,0c1.78,1.78,2.89,4.25,2.89,6.95v3.28h1.89 c0.42,0,0.77,0.35,0.77,0.77v16.2c0,0.42-0.35,0.77-0.77,0.77l-23.97,0c-0.42,0-0.77-0.35-0.77-0.77V59.9 C22.56,59.48,22.9,59.14,23.33,59.14L23.33,59.14L23.33,59.14z M29.53,59.14h12.04V55.8c0-1.66-0.68-3.16-1.77-4.25l0,0 c-1.09-1.09-2.6-1.77-4.25-1.77c-1.66,0-3.16,0.68-4.25,1.77c-1.09,1.09-1.77,2.6-1.77,4.25V59.14L29.53,59.14L29.53,59.14z M35.29,106.22c3.07,0,5.58,2.48,5.58,5.58c0,3.07-2.48,5.58-5.58,5.58c-3.07,0-5.58-2.48-5.58-5.58 C29.71,108.73,32.19,106.22,35.29,106.22L35.29,106.22z M3.85,103.2h62.88V14.87H3.85V103.2L3.85,103.2z"/></g></svg>