<?xml version="1.0" encoding="utf-8"?><svg version="1.1" id="Layer_1" xmlns="http://www.w3.org/2000/svg" xmlns:xlink="http://www.w3.org/1999/xlink" x="0px" y="0px" viewBox="0 0 71.09 122.88" style="enable-background:new 0 0 71.09 122.88" xml:space="preserve"><style type="text/css">.st0{fill-rule:evenodd;clip-rule:evenodd;}</style><g><path class="st0" d="M14.78,37.1l20.71-14.69L56.31,37.1H14.78L14.78,37.1L14.78,37.1z M26.69,110.72H44.4c0.55,0,1,0.45,1,1v0.5 c0,0.55-0.45,1-1,1H26.69c-0.55,0-1-0.45-1-1v-0.5C25.69,111.17,26.14,110.72,26.69,110.72L26.69,110.72z M12.51,0h46.07 c3.44,0,6.59,1.41,8.85,3.66c2.26,2.26,3.67,5.4,3.67,8.85v97.86c0,3.44-1.41,6.59-3.67,8.85c-2.26,2.26-5.4,3.66-8.85,3.66H12.51 c-3.44,0-6.59-1.41-8.85-3.66c-2.26-2.26-3.67-5.4-3.67-8.85V12.51c0-3.44,1.41-6.59,3.67-8.85C5.92,1.41,9.07,0,12.51,0L12.51,0 L12.51,0z M32.42,89.59c-0.05-0.03-0.12-0.06-0.17-0.1c-0.68-0.54-1.44-1.14-2.08-1.68c-0.94-0.77-2.03-1.67-2.79-2.3 c-0.51-0.42-1.1-0.72-1.67-0.84c-0.36-0.06-0.68-0.06-0.94,0.04c-0.21,0.09-0.39,0.26-0.5,0.51c-0.15,0.35-0.23,0.84-0.19,1.51 c0.04,0.59,0.24,1.24,0.51,1.87c0.4,0.91,0.95,1.77,1.37,2.31c0.03,0.04,0.05,0.06,0.06,0.1l7.83,11.19h20.58 c1.27-2.09,2.36-3.94,2.49-6.55l-0.08-3.66c-0.01-0.05-0.01-0.1-0.01-0.15c0-0.05,0-0.4,0.01-0.86c0.03-2.43,0.06-5.42-2.16-5.79 h-1.44c-0.01,0.68-0.05,1.39-0.09,2.05c-0.04,0.6-0.08,1.17-0.08,1.73c0,0.59-0.48,1.07-1.07,1.07c-0.59,0-1.07-0.48-1.07-1.07 c0-0.55,0.04-1.2,0.08-1.87c0.14-2.29,0.31-4.9-1.51-5.23h-1.42c-0.08,0-0.15-0.01-0.23-0.03c0.01,0.82-0.04,1.68-0.09,2.5 c-0.04,0.6-0.08,1.18-0.08,1.73c0,0.59-0.48,1.07-1.07,1.07c-0.59,0-1.07-0.48-1.07-1.07c0-0.55,0.04-1.21,0.08-1.87 c0.14-2.29,0.31-4.9-1.51-5.23h-1.42c-0.1,0-0.19-0.01-0.28-0.04v4.17c0,0.59-0.48,1.07-1.07,1.07c-0.59,0-1.07-0.48-1.07-1.07 V71.93c0-1.87-0.76-3.06-1.75-3.54c-0.36-0.18-0.75-0.27-1.13-0.27c-0.37,0-0.76,0.09-1.12,0.27c-0.96,0.49-1.72,1.68-1.72,3.6 v19.6c0,0.59-0.48,1.07-1.07,1.07c-0.59,0-1.07-0.48-1.07-1.07V89.6h0.02V89.59L32.42,89.59z M31.29,102.22l-6.98-9.98l-0.04-0.04 c-0.48-0.63-1.13-1.63-1.62-2.72c-0.36-0.82-0.63-1.72-0.69-2.59c-0.06-1.04,0.08-1.87,0.37-2.53c0.36-0.81,0.95-1.35,1.67-1.63 c0.66-0.27,1.41-0.31,2.16-0.15c0.9,0.18,1.84,0.63,2.62,1.29c0.64,0.54,1.73,1.42,2.79,2.29l0.87,0.72V71.99 c0-2.85,1.27-4.69,2.9-5.51c0.66-0.33,1.37-0.5,2.09-0.5c0.72,0,1.44,0.17,2.09,0.5c1.64,0.82,2.93,2.67,2.93,5.47v4.93l-0.03-0.01 c0.09-0.03,0.18-0.04,0.28-0.04h1.49c0.08,0,0.17,0.01,0.24,0.03c1.98,0.31,2.86,1.46,3.22,2.95c0.14-0.06,0.3-0.1,0.45-0.1h1.49 c0.08,0,0.17,0.01,0.24,0.03c2.13,0.33,2.98,1.64,3.29,3.29c0.05-0.01,0.1-0.01,0.17-0.01h1.49c0.08,0,0.17,0.01,0.24,0.03 c4.08,0.63,4.03,4.69,3.99,7.95v0.85l0.09,3.77v0.12c-0.13,2.67-1.02,4.56-2.16,6.49h11.13V19.29H3v82.94l0,0h28.29V102.22 L31.29,102.22z M15.3,58.53H17v-2.24h0.47v-1.07h1.36V42.43h-2.78v-3.07h38.88v3.07h-2.78v12.79h1.36v1.07h0.47v2.24h1.7v2.34H15.3 V58.53L15.3,58.53L15.3,58.53z M25.3,56.29h1.57v-1.07h1.36V42.43h-4.29v12.79h1.36V56.29L25.3,56.29L25.3,56.29L25.3,56.29z M34.71,56.29h1.57v-1.07h1.36V42.43h-4.29v12.79h1.36V56.29L34.71,56.29L34.71,56.29L34.71,56.29z M44.11,56.29h1.57v-1.07h1.36 V42.43h-4.29v12.79h1.36V56.29L44.11,56.29L44.11,56.29L44.11,56.29z M28.52,33.39l7.01-5.37l7.04,5.37H28.52L28.52,33.39 L28.52,33.39z"/></g></svg>