<?xml version="1.0" encoding="utf-8"?><svg version="1.1" id="Layer_1" xmlns="http://www.w3.org/2000/svg" xmlns:xlink="http://www.w3.org/1999/xlink" x="0px" y="0px" viewBox="0 0 71.58 122.88" style="enable-background:new 0 0 71.58 122.88" xml:space="preserve"><style type="text/css">.st0{fill-rule:evenodd;clip-rule:evenodd;}</style><g><path class="st0" d="M12.72,0h46.14c3.5,0,6.71,1.44,9,3.72c2.32,2.32,3.72,5.49,3.72,9v97.43c0,3.5-1.44,6.71-3.72,9 c-2.32,2.32-5.49,3.72-9,3.72H12.72c-3.5,0-6.71-1.44-9-3.72c-2.32-2.32-3.72-5.49-3.72-9V12.72c0-3.5,1.44-6.71,3.72-9 C6.05,1.4,9.22,0,12.72,0L12.72,0z M20.82,76.3c0.35,0.41,0.31,1.03-0.11,1.37c-0.41,0.35-1.03,0.31-1.37-0.11 c-4.22-4.93-6.39-10.51-6.34-16.15c0.05-5.51,2.2-11.05,6.62-16.11c0.35-0.4,0.96-0.44,1.37-0.09c0.4,0.35,0.44,0.96,0.09,1.38 c-4.1,4.69-6.1,9.8-6.14,14.84C14.91,66.61,16.91,71.73,20.82,76.3L20.82,76.3z M25.92,71.56c0.36,0.4,0.32,1.01-0.08,1.38 c-0.4,0.36-1.01,0.32-1.38-0.08c-3.24-3.67-4.91-7.56-4.85-11.49c0.07-3.83,1.76-7.68,5.22-11.35c0.37-0.39,0.99-0.41,1.38-0.04 c0.39,0.37,0.41,0.99,0.04,1.38c-3.11,3.31-4.65,6.7-4.7,10.04c-0.05,3.44,1.44,6.89,4.35,10.18L25.92,71.56L25.92,71.56z M30.43,67.05c0.33,0.41,0.28,1.03-0.15,1.36c-0.41,0.33-1.03,0.28-1.36-0.15c-1.75-2.15-2.66-4.49-2.67-6.86 c-0.01-2.31,0.85-4.63,2.63-6.81c0.33-0.41,0.95-0.48,1.36-0.15c0.41,0.33,0.48,0.95,0.15,1.36c-1.48,1.82-2.2,3.72-2.2,5.58 c0,1.91,0.77,3.83,2.23,5.63L30.43,67.05L30.43,67.05z M52.24,77.57c-0.35,0.41-0.96,0.45-1.37,0.11 c-0.41-0.35-0.45-0.96-0.11-1.37c3.91-4.57,5.93-9.7,5.87-14.87c-0.04-5.05-2.04-10.16-6.14-14.84c-0.35-0.4-0.31-1.01,0.09-1.38 c0.4-0.35,1.01-0.31,1.37,0.09c4.42,5.06,6.57,10.6,6.62,16.11C58.64,67.06,56.46,72.64,52.24,77.57L52.24,77.57z M47.13,72.84 c-0.36,0.4-0.97,0.44-1.38,0.08c-0.4-0.36-0.44-0.97-0.08-1.37c2.92-3.3,4.41-6.74,4.35-10.19c-0.05-3.35-1.59-6.74-4.7-10.04 c-0.37-0.39-0.35-1,0.04-1.37c0.39-0.37,1-0.35,1.38,0.04c3.46,3.67,5.15,7.5,5.22,11.35c0.07,3.94-1.59,7.82-4.85,11.49 L47.13,72.84L47.13,72.84z M42.67,68.26c-0.33,0.41-0.95,0.48-1.36,0.15c-0.41-0.33-0.48-0.95-0.15-1.36 c1.47-1.8,2.23-3.72,2.23-5.63c0-1.87-0.71-3.76-2.2-5.58c-0.33-0.41-0.28-1.03,0.15-1.36c0.41-0.33,1.03-0.28,1.36,0.15 c1.78,2.18,2.64,4.5,2.63,6.81c-0.01,2.38-0.92,4.7-2.67,6.86L42.67,68.26L42.67,68.26z M35.77,65.03c-0.32,0-0.63-0.03-0.95-0.08 c-0.5-0.14-0.96-0.38-1.36-0.7c-0.09-0.07-0.18-0.15-0.26-0.23c-0.67-0.67-1.07-1.58-1.07-2.59c0-1.01,0.41-1.92,1.07-2.59 c0.67-0.67,1.58-1.07,2.59-1.07c1.01,0,1.92,0.41,2.59,1.07c0.67,0.67,1.07,1.58,1.07,2.59c0,0.56-0.13,1.09-0.35,1.56 C38.46,64.35,37.27,65.04,35.77,65.03L35.77,65.03z M35.77,107.24c2.88,0,5.24,2.32,5.24,5.24c0,2.88-2.32,5.24-5.24,5.24 c-2.88,0-5.24-2.32-5.24-5.24C30.54,109.6,32.86,107.24,35.77,107.24L35.77,107.24z M3.61,103.26h64.32V14.62H3.61V103.26 L3.61,103.26z"/></g></svg>