<?xml version="1.0" encoding="utf-8"?><svg version="1.1" id="Layer_1" xmlns="http://www.w3.org/2000/svg" xmlns:xlink="http://www.w3.org/1999/xlink" x="0px" y="0px" viewBox="0 0 70.62 122.88" style="enable-background:new 0 0 70.62 122.88" xml:space="preserve"><style type="text/css">.st0{fill-rule:evenodd;clip-rule:evenodd;}</style><g><path class="st0" d="M13.56,0h43.51c3.73,0,7.15,1.53,9.59,3.97c2.48,2.48,3.97,5.86,3.97,9.59v95.76c0,3.73-1.53,7.15-3.97,9.59 c-2.48,2.48-5.86,3.97-9.59,3.97H13.56c-3.73,0-7.15-1.53-9.59-3.97C1.49,116.43,0,113.06,0,109.32V13.56 c0-3.73,1.53-7.15,3.97-9.59C6.45,1.49,9.82,0,13.56,0L13.56,0z M45.59,52.81c-0.09-2.62-1.2-4.98-2.94-6.72v0 c-1.82-1.82-4.33-2.95-7.09-2.95c-2.76,0-5.27,1.13-7.08,2.95l0,0c-1.82,1.82-2.95,4.33-2.95,7.08v5.92h-0.01v0h-2.42l0,0H23.1 c-0.43,0.01-0.77,0.36-0.77,0.78v16.5c0,0.43,0.35,0.78,0.78,0.78l24.41,0c0.43,0,0.78-0.35,0.78-0.78v-16.5 c0-0.43-0.35-0.78-0.78-0.78l-1.93,0v0h-3.9v0H29.42v0v0h0.01v-5.98c0-1.69,0.69-3.22,1.8-4.33l0,0c1.11-1.11,2.65-1.8,4.33-1.8 c1.69,0,3.22,0.69,4.33,1.8c1.04,1.04,1.72,2.46,1.79,4.03H45.59L45.59,52.81z M35.29,106.22c3.07,0,5.58,2.48,5.58,5.58 c0,3.07-2.48,5.58-5.58,5.58c-3.07,0-5.58-2.48-5.58-5.58C29.71,108.73,32.19,106.22,35.29,106.22L35.29,106.22z M3.85,103.2h62.88 V14.87H3.85V103.2L3.85,103.2z"/></g></svg>