<svg xmlns="http://www.w3.org/2000/svg" shape-rendering="geometricPrecision" text-rendering="geometricPrecision" image-rendering="optimizeQuality" fill-rule="evenodd" clip-rule="evenodd" viewBox="0 0 305 512.3"><path d="M57.85 0h189.31c15.96 0 30.52 6.51 40.9 16.97C298.58 27.5 305 41.99 305 57.87v396.58c0 15.97-6.5 30.53-16.94 40.9-10.55 10.54-25.02 16.95-40.9 16.95H57.85c-15.97 0-30.53-6.49-40.9-16.95C6.41 484.82 0 470.35 0 454.45V57.78c0-15.96 6.5-30.52 16.95-40.9C27.47 6.35 41.88 0 57.85 0zm73.89 167.38c12.4-2.52 25.64-2.49 38.04 0 23.82 4.68 46.06 19.57 59.47 39.75 1.7 2.53 3.28 5.14 4.74 7.84 6.02 11.09 9.75 22.97 10.98 35.54.31 3.19.47 6.42.47 9.67 0 16.15-3.8 31.15-11.48 45.23-1.46 2.69-3.04 5.29-4.7 7.81-13.59 20.49-35.45 34.84-59.47 39.76-15.29 3.1-32.1 2.37-47.01-2.26-20.27-6.24-38.77-19.79-50.5-37.5a90.996 90.996 0 0 1-4.74-7.83c-6.02-11.1-9.74-22.98-10.98-35.55-.31-3.18-.47-6.41-.47-9.66 0-16.13 3.8-31.17 11.47-45.24 1.47-2.68 3.05-5.28 4.72-7.8 1.65-2.49 3.43-4.89 5.32-7.2 13.73-16.68 33.03-28.24 54.14-32.56zm14.27 41v-26.63c-5.1 4.51-9.77 8.98-14.02 13.44-4.2 4.4-7.99 8.8-11.37 13.19h25.39zm78.53 94.1.18.01c6.58-11.6 10.48-24.23 11.07-37.61h-24.56c-.27 6.42-1.37 12.79-3.29 19.1-1.86 6.18-4.51 12.33-7.91 18.44h24.24c.1 0 .19.02.27.06zm-5.99 9.5h-24.47c-3.92 5.66-8.52 11.28-13.77 16.86-4.89 5.18-10.34 10.34-16.34 15.46l.97-.15c1-.16 2.01-.34 3.02-.54h.05c18.32-3.73 35.16-13.62 47.4-27.76 1.08-1.25 2.13-2.54 3.14-3.87zM137.6 344.3c-6-5.13-11.44-10.28-16.32-15.46-5.25-5.58-9.85-11.2-13.78-16.86H83.09c1.01 1.33 2.06 2.62 3.15 3.87 10.38 11.99 24.22 21.03 39.38 25.72 2.63.82 5.31 1.51 8.05 2.04 1.02.2 2.03.38 3.03.54l.9.15zm-60.82-41.83h24.72c-3.41-6.12-6.06-12.3-7.94-18.52-1.89-6.3-2.99-12.64-3.26-19.02H65.74c.12 2 .29 3.99.52 5.95 1.3 11.1 4.96 21.9 10.52 31.59zm-11.04-47.04h24.75c.52-6.28 1.83-12.59 3.92-18.91 2.06-6.2 4.87-12.41 8.43-18.64H76.78c-6.57 11.5-10.45 24.27-11.04 37.55zM83 208.38h25.91c3.9-5.59 8.41-11.18 13.53-16.8 4.76-5.21 10.05-10.44 15.88-15.69l-1.37.21c-1.12.17-2.23.36-3.32.59h-.03c-10.9 2.21-21.36 6.69-30.6 12.88-7.49 4.97-14.58 11.62-20 18.81zm80.29-32.42c10.83 9.71 21.02 20.45 29.32 32.42h25.88a77.955 77.955 0 0 0-3.14-3.87c-11.98-13.84-29.36-24.29-47.44-27.76l-.06-.01c-1.1-.23-2.2-.42-3.31-.59l-1.25-.19zm61.46 41.92h-26.06c3.56 6.23 6.37 12.44 8.42 18.64 2.1 6.32 3.41 12.63 3.93 18.91h24.75c-.12-2.01-.29-3.99-.52-5.95-1.32-11.24-4.94-21.76-10.52-31.6zm-69.23-36.13v26.63h25.38c-3.37-4.39-7.16-8.79-11.36-13.19-4.25-4.46-8.92-8.93-14.02-13.44zm0 36.13v37.55h46c-.58-6.09-2-12.23-4.27-18.41-2.32-6.33-5.54-12.7-9.65-19.14h-32.08zm0 47.05v37.54H189c3.98-6.29 7.02-12.59 9.15-18.9 2.07-6.19 3.27-12.41 3.57-18.64h-46.2zm0 47.05v27.01c5.4-4.48 10.34-8.99 14.82-13.52 4.45-4.48 8.44-8.99 11.96-13.49h-26.78zM146.01 339v-27.02h-26.79c3.5 4.5 7.48 9 11.92 13.49 4.48 4.52 9.44 9.03 14.87 13.53zm0-36.53v-37.54h-46.2c.31 6.23 1.51 12.45 3.6 18.64 2.13 6.32 5.17 12.62 9.12 18.9h33.48zm0-47.04v-37.55h-32.08c-4.11 6.44-7.33 12.81-9.65 19.14-2.28 6.18-3.69 12.32-4.27 18.41h46zm132.43-152.3v314.1a4.04 4.04 0 0 1-4.04 4.03H30.61c-2.22 0-4.03-1.81-4.03-4.03v-314.1h-.03V77.79c0-6.6 5.39-11.99 11.99-11.99h227.92c6.6 0 11.99 5.39 11.99 11.99v25.34h-.01zM34.64 413.2h235.73V103.13H34.64V413.2zM255.05 79.28c3.26 0 5.92 2.65 5.92 5.92a5.926 5.926 0 0 1-11.85 0c0-3.27 2.66-5.92 5.93-5.92zm-40.14 0a5.92 5.92 0 0 1 5.92 5.92 5.92 5.92 0 0 1-5.92 5.92c-3.27 0-5.93-2.65-5.93-5.92s2.66-5.92 5.93-5.92zm20.06 0c3.28 0 5.93 2.65 5.93 5.92s-2.65 5.92-5.93 5.92c-3.26 0-5.92-2.65-5.92-5.92s2.66-5.92 5.92-5.92zM18.42 431.94H286.5V124.91l.03-1.1V72.86c0-8.55-6.99-15.55-15.54-15.55H34.01c-8.56 0-15.55 7-15.55 15.55v.59h-.04v358.49zm134.01 18.11c13.09 0 23.78 10.53 23.78 23.78 0 13.1-10.54 23.8-23.78 23.8-13.09 0-23.8-10.54-23.8-23.8 0-13.07 10.54-23.78 23.8-23.78z"/></svg>