<svg id="Layer_1" data-name="Layer 1" xmlns="http://www.w3.org/2000/svg" viewBox="0 0 122.87 122.88"><title>monday</title><path d="M81.6,4.73C81.6,2.12,84.18,0,87.37,0s5.77,2.12,5.77,4.73V25.45c0,2.61-2.58,4.73-5.77,4.73s-5.77-2.12-5.77-4.73V4.73ZM26,96H16.75l1.68-27.64H30L33.42,82.4h.31l3.45-14.06H48.72L50.4,96H41.16l-.53-13.4h-.31L37,96H30.19l-3.41-13.4h-.26L26,96Zm26.4-13.8q0-7.56,2.83-11t10.22-3.47q7.38,0,10.21,3.47t2.83,11a29,29,0,0,1-.59,6.33A11.59,11.59,0,0,1,75.83,93a8.31,8.31,0,0,1-4,2.79,19.77,19.77,0,0,1-6.37.88,19.73,19.73,0,0,1-6.37-.88A8.39,8.39,0,0,1,55,93a11.57,11.57,0,0,1-2-4.46,28.31,28.31,0,0,1-.6-6.33Zm9.51-4.6v11.5h3.67a6.08,6.08,0,0,0,2.63-.42c.55-.28.82-.92.82-1.92V75.24H65.3a5.94,5.94,0,0,0-2.58.42c-.55.28-.82.92-.82,1.92ZM97.81,96,91,86.16A4.61,4.61,0,0,1,90.6,84h-.18V96H81.58V68.34h8.31l6.77,9.82a4.48,4.48,0,0,1,.44,2.12h.18V68.34h8.84V96ZM29.61,4.73C29.61,2.12,32.19,0,35.38,0s5.77,2.12,5.77,4.73V25.45c0,2.61-2.58,4.73-5.77,4.73s-5.77-2.12-5.77-4.73V4.73ZM6.4,38.76H116.46V21.47a3,3,0,0,0-.86-2.07,2.92,2.92,0,0,0-2.07-.86H103a3.2,3.2,0,1,1,0-6.4h10.55a9.36,9.36,0,0,1,9.33,9.33v92.08a9.36,9.36,0,0,1-9.33,9.33H9.33A9.36,9.36,0,0,1,0,113.54V21.47a9.36,9.36,0,0,1,9.33-9.33H20.6a3.2,3.2,0,1,1,0,6.4H9.33a3,3,0,0,0-2.07.86,2.92,2.92,0,0,0-.86,2.07V38.76Zm110.07,6.41H6.4v68.37a3,3,0,0,0,.86,2.07,2.92,2.92,0,0,0,2.07.86H113.54a3,3,0,0,0,2.07-.86,2.92,2.92,0,0,0,.86-2.07V45.17Zm-66-26.63a3.2,3.2,0,0,1,0-6.4H71.91a3.2,3.2,0,1,1,0,6.4Z"/></svg>