<?xml version="1.0" encoding="utf-8"?><svg version="1.1" id="Layer_1" xmlns="http://www.w3.org/2000/svg" xmlns:xlink="http://www.w3.org/1999/xlink" x="0px" y="0px" viewBox="0 0 122.88 101.35" style="enable-background:new 0 0 122.88 101.35" xml:space="preserve"><g><path d="M93.98,10.51L58.67,44.79c-77.11,0-26.66,0-56.79,0C0.84,44.79,0,45.63,0,46.67c0,0.08,0,0.16,0.01,0.23 c0.48,11.47,3.15,21.49,8.64,29.63c5.55,8.21,13.93,14.46,25.78,18.3c0.03,0.01,0.06,0.02,0.1,0.03v5.69c0,0.44,0.36,0.8,0.8,0.8 h35.22c0.56,0,1.03-0.46,1.03-1.03v-5.51c0.11-0.04,0.22-0.09,0.32-0.15c10.87-5.14,18.54-11.91,23.62-20 c5.1-8.12,7.57-17.53,8.02-27.92c0.04-1.04-0.76-1.91-1.79-1.96c-0.03,0-0.05,0-0.08,0v-0.01H93.1l17.21-15.92l-0.02-0.02 c0.08-0.05,0.15-0.11,0.22-0.17c0.02-0.02,0.04-0.03,0.05-0.05l8.47-7.84c0.08-0.08,0.16-0.16,0.23-0.25 c3.77-4.75,4.31-9.41,2.89-13.11c-0.67-1.76-1.79-3.28-3.21-4.49c-1.4-1.19-3.1-2.06-4.96-2.53c-4.4-1.12-9.74-0.02-14.21,4.48 L93.98,10.51L93.98,10.51L93.98,10.51L93.98,10.51z M19.51,59.99c-0.22-0.75-1-1.17-1.75-0.95c-0.75,0.22-1.17,1-0.95,1.75 c0.58,1.98,1.28,3.95,2.11,5.89c0.81,1.91,1.73,3.78,2.74,5.55c0.38,0.68,1.24,0.91,1.92,0.53c0.68-0.38,0.91-1.24,0.53-1.92 c-0.97-1.69-1.83-3.46-2.59-5.25C20.73,63.76,20.06,61.89,19.51,59.99L19.51,59.99L19.51,59.99z M25.86,73.68 c-0.43-0.65-1.31-0.82-1.95-0.39c-0.65,0.43-0.82,1.31-0.39,1.95c0.72,1.07,1.47,2.09,2.25,3.05c0.77,0.95,1.58,1.87,2.42,2.72 c0.54,0.55,1.44,0.56,1.99,0.02c0.55-0.54,0.56-1.44,0.02-1.99c-0.77-0.79-1.52-1.63-2.23-2.51 C27.22,75.62,26.52,74.67,25.86,73.68L25.86,73.68L25.86,73.68z M92.34,72.67c-4.67,7.44-11.75,13.69-21.81,18.49H35.29 c-10.84-3.57-18.48-9.28-23.52-16.74c-4.8-7.11-7.27-15.85-7.91-25.88h95.82C99.04,57.52,96.76,65.64,92.34,72.67L92.34,72.67z M106.63,27.17L87.85,44.54l-23.53,0l30.9-29.99L106.63,27.17L106.63,27.17L106.63,27.17z M118.65,8.77 c0.97,2.53,0.52,5.84-2.25,9.37l-7.01,6.49L97.9,11.94c4.16-4.04,8.55-9.57,15.16-7.89c1.31,0.33,2.49,0.94,3.46,1.75 C117.47,6.61,118.21,7.61,118.65,8.77L118.65,8.77L118.65,8.77z"/></g></svg>