<svg id="Layer_1" data-name="Layer 1" xmlns="http://www.w3.org/2000/svg" viewBox="0 0 122.88 79.9"><defs><style>.cls-1{fill:#de9c2d;}.cls-1,.cls-2{fill-rule:evenodd;}</style></defs><title>motorcycle-oil</title><path class="cls-1" d="M76.28,0c1.52,6.52,6.84,12.79,10.23,18.86,5.74,10.31,1.42,21-10.23,21-12.7,0-15.81-11.62-9.5-22.24,3.38-5.69,8.1-11.56,9.5-17.63Zm-8.8,24.73a1.35,1.35,0,0,1,2.68-.24,12.93,12.93,0,0,0,1.32,4.86,8.55,8.55,0,0,0,3.35,3.47c2.53,1.49-1.73,5.47-5.74-2.21a15.87,15.87,0,0,1-1.61-5.88Z"/><path class="cls-2" d="M105.61,59.78A3.18,3.18,0,1,1,102.43,63a3.18,3.18,0,0,1,3.18-3.18Zm-85.75,0A3.18,3.18,0,1,1,16.68,63a3.18,3.18,0,0,1,3.18-3.18Zm85.8-7A10.14,10.14,0,1,1,95.52,63a10.14,10.14,0,0,1,10.14-10.14Zm-85.93,0A10.14,10.14,0,1,1,9.6,63,10.14,10.14,0,0,1,19.73,52.81ZM41.6,22.34a2,2,0,0,1,1,3c-.89,1.89-1.88,1.83-3.69,2.29l-1.15.29a6.2,6.2,0,0,1-3.5.11l-1,.21-1,2.16c4.1,1,7.87-.59,11.39-4.15a24.71,24.71,0,0,1,14.59,1.86,18,18,0,0,0,3.73,10c6.25,7.56,17.94,6.94,25.7,2.07a27.35,27.35,0,0,0,9.07-9.76,99.6,99.6,0,0,1,15.79,1.09L114.08,35C94.89,35.28,83.5,48.73,79,69.66H45.08c-2.26-13.18-8.65-21.8-17.72-27.46L29.84,44l-1.7,3.91A17.09,17.09,0,1,1,16.64,46,53,53,0,0,0,1.21,50.69L0,48.38c5.1-4.62,12.93-7.45,24.42-7.87a62.12,62.12,0,0,0-12.68-4.85c5.51-10.73,12.54-18.59,21.61-22.6l1.31,2.2A40,40,0,0,0,27.31,28a17.28,17.28,0,0,0,2.36,1.43l1.39-3a1.39,1.39,0,0,1,1.07-.78l1-.2a2.2,2.2,0,0,1,.15-.31c1-1.68,2.9-2.11,4.78-2.49,1.15-.24,2.44-.72,3.57-.31Zm68.89,14.42,3.55-.48,8.46,8.89-2.24.78-9.77-9.19Zm-4.69,9A17.08,17.08,0,1,1,89.11,66.46L83,67a42.4,42.4,0,0,1,4.22-12.34l3.06.93a17.08,17.08,0,0,1,15.49-9.87Z"/></svg>