<?xml version="1.0" encoding="utf-8"?><svg version="1.1" id="Layer_1" xmlns="http://www.w3.org/2000/svg" xmlns:xlink="http://www.w3.org/1999/xlink" x="0px" y="0px" viewBox="0 0 238.23 240" style="enable-background:new 0 0 238.23 240" xml:space="preserve"><style type="text/css">.st0{fill-rule:evenodd;clip-rule:evenodd;}</style><g><path class="st0" d="M119.12,19.85c0.31,0.02,0.61,0.04,0.92,0.06C132.58,7.6,149.77,0,168.73,0c19.19,0,36.56,7.78,49.14,20.35 c12.58,12.58,20.35,29.95,20.35,49.14c0,19.19-7.78,36.56-20.35,49.14c-9.56,9.56-21.89,16.35-35.69,19.05 c-1.06,5.1-2.23,10.1-3.51,15.01c-0.88,3.35-1.8,6.64-2.78,9.89l40.34,11.77c1.78,0.52,2.81,2.38,2.29,4.16 c-0.52,1.78-2.38,2.81-4.16,2.29l-40.5-11.81c-0.82,2.48-1.67,4.92-2.56,7.34l37.55,16.27c1.7,0.73,2.49,2.71,1.75,4.41 c-0.73,1.7-2.71,2.49-4.41,1.75l-37.3-16.16c-1.1,2.75-2.25,5.47-3.45,8.13l-0.01,0.02l38.43,22.67c1.6,0.95,2.13,3.01,1.19,4.61 c-0.95,1.6-3.01,2.13-4.61,1.19l-37.89-22.35c-4.55,9.21-11.25,20.9-19.2,29.63c-7.29,8.01-15.76,13.68-25.02,13.49 c-14.52-0.3-26.74-12.83-36.56-29.65c-2.47-4.23-4.81-8.76-6.99-13.42l-37.82,22.3c-1.6,0.95-3.66,0.41-4.61-1.19 c-0.95-1.6-0.41-3.66,1.19-4.61l38.46-22.68c-1.17-2.71-2.3-5.45-3.37-8.19l-37.42,16.21c-1.7,0.73-3.68-0.05-4.41-1.75 c-0.73-1.7,0.05-3.68,1.75-4.41l37.7-16.33c-0.9-2.46-1.76-4.91-2.58-7.31l-40.63,11.85c-1.78,0.52-3.65-0.51-4.16-2.29 c-0.52-1.78,0.51-3.65,2.29-4.16l40.41-11.79c-3.16-9.94-5.5-18.86-6.94-25.17c-13.22-2.88-25.04-9.53-34.27-18.76 C7.78,106.06,0,88.68,0,69.49C0,50.3,7.78,32.93,20.35,20.35C32.93,7.78,50.3,0,69.49,0c18.93,0,36.1,7.57,48.63,19.85 c0.23,0,0.45,0,0.68,0l0.32,0.01L119.12,19.85L119.12,19.85z M77.01,187.79l8.85-5.22c1.6-0.95,3.66-0.41,4.61,1.19 c0.95,1.6,0.41,3.66-1.19,4.61l-9.51,5.61c2.36,5.06,4.9,9.96,7.6,14.49c6.2-10.44,17.85-17.46,31.2-17.46 c13.27,0,24.87,6.95,31.1,17.29c-0.77,1.24-1.57,2.49-2.39,3.71c4.09-6.11,7.6-12.56,10.3-18.06l-9.46-5.58 c-1.6-0.95-2.13-3.01-1.19-4.61c0.95-1.6,3.01-2.13,4.61-1.19l8.9,5.25c1.1-2.46,2.15-4.96,3.17-7.5l-13.76-5.96 c-1.7-0.73-2.49-2.71-1.75-4.41c0.73-1.7,2.71-2.49,4.41-1.75l13.51,5.85c0.8-2.19,1.58-4.41,2.32-6.66l-18.36-5.36 c-1.78-0.52-2.81-2.38-2.29-4.16c0.52-1.78,2.38-2.81,4.16-2.29l18.52,5.4c2.39-7.9,4.45-16.1,6.21-24.6l0-0.01l0.23-1.12 l0.01-0.07l0.01-0.04l0.23-1.13l0.01-0.04l0.21-1.09l0.02-0.11l0,0l0.02-0.11l0.02-0.11l0.17-0.91l0.02-0.09l0.01-0.03l0.02-0.11 c0.99-5.23,1.87-10.57,2.64-16.01l0.01-0.09l0.01-0.09l0.01-0.09l0.01-0.09l0.07-0.47l0.01-0.09l0.01-0.09l0.01-0.09l0.01-0.09 l0.01-0.09l0.01-0.09l0.01-0.09l0.01-0.09l0.06-0.47l0.01-0.09l0.01-0.09l0.01-0.09l0.01-0.09l0.01-0.09l0.01-0.09l0.01-0.09 l0.01-0.09l0.01-0.09l0.01-0.09l0.01-0.09l0.01-0.09l0.01-0.08l0-0.01l0.01-0.09l0.01-0.09l0.14-1.04l0.01-0.09l0.01-0.04 l0.01-0.05l0.01-0.09l0.13-1.04l0.01-0.09l0.01-0.09c0.08-0.67,0.16-1.34,0.24-2.01l0.07-0.66c0.05-0.45,0.09-0.89,0.14-1.34 c0.02-0.25,0.05-0.49,0.07-0.74c0.04-0.44,0.08-0.87,0.12-1.31l0.06-0.7c0.04-0.47,0.07-0.93,0.1-1.4 c0.01-0.19,0.03-0.38,0.04-0.56c0.04-0.65,0.08-1.29,0.11-1.93l0.02-0.37c0.03-0.52,0.05-1.04,0.07-1.56l0.02-0.64 c0.01-0.42,0.02-0.84,0.03-1.25c0.01-0.24,0.01-0.49,0.01-0.73c0.01-0.4,0.01-0.8,0.01-1.21c0-0.23,0-0.46,0-0.69 c0-0.45,0-0.89-0.01-1.33c0-0.18,0-0.36-0.01-0.53c-0.01-0.6-0.02-1.2-0.04-1.8c-0.01-0.19-0.02-0.37-0.02-0.55 c-0.02-0.42-0.03-0.84-0.05-1.25c-0.01-0.24-0.03-0.48-0.04-0.72c-0.02-0.37-0.04-0.74-0.07-1.11c-0.02-0.24-0.03-0.47-0.05-0.71 c-0.03-0.37-0.06-0.75-0.09-1.12c-0.02-0.22-0.04-0.44-0.06-0.67c-0.04-0.42-0.08-0.83-0.13-1.25c-0.02-0.17-0.03-0.35-0.05-0.52 c-0.06-0.56-0.13-1.11-0.2-1.67c-0.03-0.21-0.06-0.41-0.09-0.62c-0.05-0.36-0.1-0.71-0.15-1.07c-0.04-0.25-0.08-0.5-0.12-0.75 c-0.05-0.31-0.1-0.62-0.15-0.93c-0.04-0.25-0.09-0.51-0.13-0.76c-0.06-0.31-0.12-0.62-0.18-0.93c-0.05-0.24-0.09-0.49-0.14-0.73 c-0.08-0.39-0.16-0.78-0.25-1.16c-0.06-0.28-0.12-0.55-0.19-0.82c-0.09-0.38-0.18-0.77-0.27-1.15c-0.06-0.24-0.12-0.47-0.18-0.71 c-0.07-0.29-0.15-0.57-0.23-0.85c-0.07-0.25-0.14-0.51-0.21-0.76c-0.08-0.27-0.16-0.54-0.23-0.8c-0.07-0.25-0.15-0.5-0.23-0.74 c-0.09-0.28-0.18-0.56-0.27-0.84c-0.07-0.23-0.15-0.45-0.22-0.68c-0.13-0.39-0.27-0.77-0.4-1.15c-0.11-0.31-0.23-0.62-0.35-0.93 c-0.1-0.26-0.2-0.52-0.3-0.78c-0.1-0.25-0.2-0.5-0.3-0.74c-0.1-0.23-0.19-0.47-0.29-0.7c-0.11-0.25-0.21-0.5-0.32-0.75 c-0.1-0.23-0.2-0.45-0.3-0.67c-0.11-0.25-0.22-0.49-0.34-0.73c-0.11-0.23-0.22-0.46-0.33-0.68c-0.11-0.23-0.23-0.47-0.34-0.7 l0-0.01c-0.21-0.41-0.42-0.82-0.64-1.23l0,0c-0.14-0.25-0.28-0.5-0.41-0.75c-0.11-0.19-0.21-0.38-0.32-0.58 c-0.14-0.25-0.29-0.49-0.43-0.74c-0.11-0.19-0.23-0.38-0.34-0.57c-0.15-0.24-0.3-0.49-0.45-0.73c-0.11-0.17-0.22-0.35-0.34-0.52 c-0.16-0.25-0.33-0.5-0.49-0.75c-0.11-0.16-0.21-0.31-0.32-0.46c-0.32-0.47-0.65-0.93-0.99-1.38c-0.12-0.16-0.23-0.31-0.35-0.47 c-0.17-0.23-0.35-0.45-0.53-0.68c-0.13-0.16-0.26-0.33-0.39-0.49c-0.18-0.23-0.37-0.45-0.56-0.68c-0.13-0.16-0.27-0.31-0.4-0.47 c-0.19-0.22-0.39-0.45-0.58-0.67c-0.13-0.15-0.27-0.29-0.4-0.44c-0.21-0.23-0.41-0.45-0.62-0.68c-0.1-0.11-0.2-0.21-0.3-0.31 c-0.46-0.48-0.93-0.95-1.42-1.42c-0.09-0.09-0.19-0.18-0.28-0.27c-0.23-0.22-0.47-0.44-0.71-0.65c-0.14-0.13-0.28-0.25-0.42-0.38 c-0.24-0.21-0.47-0.42-0.71-0.62c-0.14-0.12-0.29-0.24-0.43-0.37c-0.24-0.2-0.49-0.41-0.74-0.61c-0.14-0.12-0.29-0.23-0.44-0.35 c-0.26-0.2-0.52-0.41-0.78-0.61l-0.04-0.03c-0.65-0.49-1.31-0.97-1.99-1.44c-0.11-0.08-0.22-0.16-0.34-0.23 c-0.28-0.19-0.57-0.38-0.86-0.57c-0.15-0.1-0.31-0.2-0.46-0.3c-0.29-0.18-0.57-0.36-0.86-0.54c-0.16-0.1-0.32-0.19-0.48-0.29 c-0.3-0.18-0.6-0.35-0.9-0.53c-0.14-0.08-0.28-0.16-0.42-0.24c-1.07-0.6-2.17-1.17-3.3-1.72c-0.15-0.07-0.3-0.15-0.45-0.22 c-0.33-0.15-0.66-0.3-0.99-0.45c-0.18-0.08-0.36-0.16-0.54-0.24c-0.33-0.15-0.66-0.29-1-0.43c-0.18-0.07-0.36-0.15-0.54-0.22 c-0.35-0.14-0.7-0.29-1.06-0.42c-0.13-0.05-0.26-0.1-0.39-0.15c-0.88-0.34-1.77-0.66-2.68-0.97c-5.62-1.89-11.89-3.24-18.87-4l0,0 c-1.12-0.12-2.26-0.23-3.42-0.32l-0.08-0.01l-0.08-0.01l-0.08-0.01l-0.08-0.01l-0.02,0l-0.06,0l-0.08-0.01l-0.08-0.01l-0.08-0.01 l-0.08-0.01l-0.15-0.01l-0.01,0l-0.08-0.01l-0.08-0.01l-0.08-0.01l-0.06,0l-0.02,0l-0.08-0.01L119,25.63l-0.08-0.01l-0.08-0.01 l-0.08-0.01l-0.07,0l-0.07,0l-0.15,0l-0.07,0h-0.01l-0.06,0h-0.07h-0.22h-0.02h-0.05l-0.29,0l-0.03,0l-0.04,0l-0.14,0l-0.07,0 l-0.07,0l-0.04,0l-0.03,0l-0.07,0l-0.07,0l-0.07,0l-0.07,0l-0.05,0l-0.02,0l-0.07,0l-0.07,0l-0.07,0l-0.07,0l-0.06,0l-0.01,0 l-0.07,0l-0.07,0l-0.07,0l-0.07,0l-0.07,0h0l-0.07,0l-0.07,0l-0.07,0l-0.07,0l-0.07,0l-0.01,0l-0.06,0l-0.07,0l-0.07,0l-0.07,0 l-0.14,0.01l-0.07,0l-0.07,0l-0.07,0l-0.07,0l-0.14,0.01l-0.07,0l-0.07,0l-0.07,0l-0.05,0l-0.03,0l-0.07,0l-0.07,0l-0.07,0l-0.07,0 l-0.21,0.01c-6.34,0.37-12.47,1.62-18.23,3.64c-0.59,0.21-1.17,0.42-1.75,0.64l-0.4,0.15c-0.26,0.1-0.51,0.2-0.77,0.31l-0.43,0.18 c-0.25,0.1-0.5,0.21-0.76,0.32c-0.11,0.05-0.22,0.1-0.33,0.14c-0.5,0.22-0.99,0.44-1.48,0.67l-0.36,0.17 c-0.24,0.12-0.49,0.23-0.73,0.35l-0.43,0.21c-0.24,0.12-0.49,0.24-0.73,0.37c-0.13,0.06-0.25,0.13-0.38,0.2 c-0.46,0.24-0.92,0.49-1.37,0.74c-0.11,0.06-0.23,0.12-0.34,0.19c-0.23,0.13-0.46,0.26-0.69,0.39l-0.44,0.25 c-0.22,0.13-0.45,0.26-0.67,0.4c-0.14,0.08-0.27,0.17-0.41,0.25c-0.47,0.29-0.94,0.59-1.41,0.89l-0.2,0.13 c-0.22,0.14-0.43,0.29-0.65,0.43c-0.14,0.1-0.28,0.19-0.43,0.29c-0.2,0.14-0.41,0.28-0.61,0.42c-0.15,0.11-0.3,0.21-0.45,0.32 c-0.2,0.14-0.4,0.29-0.6,0.43l-0.2,0.15c-0.43,0.32-0.86,0.64-1.28,0.97l-0.43,0.33c-0.19,0.15-0.38,0.3-0.57,0.46 c-0.14,0.12-0.28,0.23-0.42,0.35c-0.19,0.16-0.38,0.31-0.57,0.47c-0.16,0.13-0.31,0.27-0.47,0.4c-0.3,0.26-0.59,0.51-0.88,0.77 c-0.15,0.14-0.31,0.28-0.46,0.42c-0.17,0.16-0.34,0.31-0.51,0.47c-0.15,0.14-0.3,0.28-0.44,0.42c-0.16,0.16-0.33,0.31-0.49,0.47 c-0.16,0.16-0.32,0.31-0.48,0.47c-0.24,0.24-0.49,0.49-0.73,0.74c-0.17,0.18-0.35,0.36-0.52,0.54c-0.14,0.15-0.27,0.29-0.41,0.44 c-0.16,0.17-0.32,0.35-0.49,0.53c-0.14,0.15-0.27,0.3-0.41,0.45c-0.17,0.19-0.34,0.39-0.51,0.58c-0.13,0.15-0.26,0.3-0.39,0.45 c-0.24,0.28-0.48,0.57-0.72,0.86c-0.13,0.16-0.25,0.31-0.38,0.47c-0.15,0.18-0.3,0.37-0.44,0.56c-0.13,0.16-0.25,0.32-0.37,0.48 c-0.16,0.21-0.32,0.41-0.47,0.62c-0.1,0.14-0.21,0.27-0.31,0.41c-0.24,0.33-0.48,0.66-0.72,0.99c-0.1,0.14-0.2,0.28-0.29,0.42 c-0.15,0.22-0.3,0.44-0.45,0.65c-0.11,0.16-0.22,0.32-0.32,0.48c-0.14,0.22-0.28,0.44-0.43,0.65c-0.1,0.15-0.19,0.3-0.29,0.45 c-0.22,0.35-0.44,0.7-0.65,1.05c-0.07,0.12-0.15,0.25-0.22,0.37c-0.15,0.26-0.3,0.51-0.45,0.77c-0.09,0.15-0.17,0.31-0.26,0.46 c-0.14,0.24-0.27,0.49-0.41,0.74c-0.08,0.15-0.16,0.29-0.24,0.44c-0.19,0.35-0.37,0.7-0.55,1.06l-0.16,0.33 c-0.16,0.31-0.31,0.63-0.46,0.94c-0.07,0.15-0.14,0.29-0.21,0.44c-0.12,0.26-0.24,0.53-0.36,0.8c-0.07,0.15-0.14,0.3-0.2,0.45 c-0.15,0.34-0.29,0.68-0.44,1.02l-0.09,0.2c-0.17,0.4-0.33,0.81-0.49,1.22c-0.05,0.14-0.11,0.28-0.16,0.42 c-0.11,0.29-0.22,0.57-0.32,0.86l-0.17,0.46c-0.12,0.33-0.23,0.65-0.34,0.98c-0.03,0.1-0.07,0.2-0.1,0.3 c-0.14,0.43-0.28,0.85-0.41,1.28c-0.04,0.13-0.07,0.25-0.11,0.38c-0.09,0.32-0.19,0.63-0.28,0.95l-0.13,0.45 c-0.09,0.32-0.17,0.65-0.26,0.98c-0.03,0.12-0.06,0.25-0.09,0.37c-0.11,0.44-0.22,0.89-0.31,1.34l-0.06,0.28 c-0.08,0.36-0.16,0.73-0.23,1.09l-0.08,0.43c-0.07,0.34-0.13,0.69-0.19,1.03l-0.07,0.38c-0.08,0.46-0.15,0.92-0.22,1.39l-0.03,0.2 c-0.06,0.4-0.11,0.81-0.16,1.21l-0.05,0.44c-0.04,0.35-0.08,0.7-0.11,1.04l-0.04,0.42c-0.04,0.48-0.08,0.96-0.12,1.44l-0.04,0.58 L54,84.32l-0.03,0.59l0,0.01l-0.03,0.56l-0.01,0.18L53.9,86.2l0,0.06l0,0.03l-0.02,0.56l-0.01,0.23l-0.01,0.42l0,0.13l0,0.04 l-0.01,0.46l0,0.06l-0.01,0.29l-0.01,0.41l0,0.12l0,0.06l-0.01,0.58l0,0.17l0,0.43l0,0.22l0,0.6l0,0.14l0,0.53l0,0.11l0.01,0.63 l0,0.15l0.01,0.56l0,0.09l0.01,0.57l0.01,0.3l0.01,0.41l0,0.14l0,0.12l0.02,0.58l0,0.12l0.02,0.47l0.01,0.28l0,0.03l0.02,0.49 l0.01,0.11l0.01,0.15L54,97.41l0.02,0.32l0,0.03l0.03,0.5l0.01,0.09l0.01,0.16l0.02,0.39l0.02,0.35l0,0.02l0.03,0.51l0.01,0.08 l0.01,0.11l0.04,0.48l0.02,0.29l0,0.06l0.04,0.51l0,0.06l0.01,0.14l0.04,0.52l0.02,0.19l0.06,0.63l0,0.05l0,0.03l0.05,0.58 l0.03,0.29l0.01,0.09l0.05,0.52l0,0.03l0,0.02l0.07,0.65l0.02,0.18l0.07,0.69l0,0.02l0.07,0.64l0.04,0.33l0.01,0.08l0.06,0.53v0 l0.07,0.53l0.03,0.26l0.01,0.1l0.07,0.56l0.02,0.14l0,0.02l0.07,0.54l0.02,0.11l0.04,0.28l0.06,0.44l0.03,0.21l0,0.03l0.08,0.54 l0.01,0.07l0.04,0.3l0.07,0.51l0.02,0.16l0.01,0.05l0.08,0.55l0.01,0.04l0.06,0.39l0.02,0.12l0.07,0.48l0.01,0.07l0.11,0.68 l0.03,0.18l0.1,0.63l0.01,0.09l0.01,0.08c0.81,4.97,1.84,10.13,3.07,15.46h0l0.05,0.23l0.01,0.04l0.08,0.35l0.01,0.04l0.01,0.04 l0.01,0.04l0,0.02l0.01,0.02l0.01,0.04l0.01,0.04l0.01,0.04l0.01,0.04l0.02,0.08l0.01,0.03l0,0.01l0.04,0.16l0.01,0.04l0.01,0.04 l0.01,0.04l0,0.01l0.01,0.03l0.01,0.04l0.01,0.04l0.01,0.04l0.01,0.04l0.01,0.04l0.01,0.04l0.01,0.03l0,0.01l0.01,0.04l0.01,0.04 l0.01,0.04l0.01,0.04l0.01,0.04l0.01,0.04l0.01,0.04l0,0.01l0.01,0.03l0.01,0.04l0.01,0.04l0.01,0.04l0.01,0.04l0.01,0.04 l0.01,0.04l0.01,0.02l0,0.02l0.01,0.04l0.01,0.04l0.01,0.04l0.01,0.04l0.01,0.04l0.01,0.04l0.01,0.04 c0.07,0.33,0.15,0.68,0.22,1.03l0.02,0.07l0.02,0.07l0.02,0.07l0,0.02c0.06,0.28,0.13,0.56,0.19,0.85l0.02,0.07l0.01,0.03 l0.06,0.27l0.02,0.08l0,0.02l0.17,0.76l0.02,0.08l0.02,0.08l0.09,0.4l0.02,0.08l0.1,0.41l0.02,0.08l0.02,0.08l0.02,0.08l0.02,0.08 l0.02,0.08c1.44,6,3.56,13.86,6.31,22.5l18.46-5.38c1.78-0.52,3.65,0.51,4.16,2.29c0.52,1.78-0.51,3.65-2.29,4.16l-18.22,5.32 c0.74,2.19,1.52,4.4,2.34,6.63l13.35-5.79c1.7-0.73,3.68,0.05,4.41,1.75c0.73,1.7-0.05,3.68-1.75,4.41l-13.64,5.91 C74.91,182.77,75.94,185.29,77.01,187.79L77.01,187.79z M147.26,212.01c-0.26,0.39-0.52,0.77-0.79,1.16 C146.74,212.79,147,212.4,147.26,212.01L147.26,212.01z M147.38,80.14c4.71,0,8.97,1.91,12.05,4.99c3.08,3.09,4.99,7.35,4.99,12.05 c0,4.71-1.91,8.97-4.99,12.05c-3.08,3.08-7.35,4.99-12.05,4.99c-4.71,0-8.97-1.91-12.05-4.99c-3.09-3.08-4.99-7.35-4.99-12.05 c0-4.71,1.91-8.97,4.99-12.05C138.41,82.04,142.68,80.14,147.38,80.14L147.38,80.14z M89.52,80.14c4.71,0,8.97,1.91,12.05,4.99 c3.08,3.09,4.99,7.35,4.99,12.05c0,4.71-1.91,8.97-4.99,12.05c-3.09,3.08-7.35,4.99-12.05,4.99c-4.71,0-8.97-1.91-12.05-4.99 c-3.08-3.08-4.99-7.35-4.99-12.05c0-4.71,1.91-8.97,4.99-12.05C80.55,82.04,84.81,80.14,89.52,80.14L89.52,80.14z M97.87,88.83 c-2.14-2.14-5.09-3.46-8.36-3.46c-3.26,0-6.22,1.32-8.36,3.46c-2.14,2.14-3.46,5.09-3.46,8.36c0,3.26,1.32,6.22,3.46,8.36 c2.14,2.14,5.09,3.46,8.36,3.46c3.26,0,6.22-1.32,8.36-3.46c2.14-2.14,3.46-5.09,3.46-8.36C101.33,93.92,100.01,90.97,97.87,88.83 L97.87,88.83z M89.52,91.58c3.1,0,5.6,2.51,5.6,5.6c0,3.1-2.51,5.6-5.6,5.6c-3.1,0-5.6-2.51-5.6-5.6 C83.91,94.09,86.42,91.58,89.52,91.58L89.52,91.58z M147.38,91.58c3.1,0,5.6,2.51,5.6,5.6c0,3.1-2.51,5.6-5.6,5.6 c-3.1,0-5.6-2.51-5.6-5.6C141.78,94.09,144.29,91.58,147.38,91.58L147.38,91.58z M155.74,88.83c-2.14-2.14-5.09-3.46-8.36-3.46 c-3.26,0-6.22,1.32-8.36,3.46c-2.14,2.14-3.46,5.09-3.46,8.36c0,3.26,1.32,6.22,3.46,8.36c2.14,2.14,5.09,3.46,8.36,3.46 c3.26,0,6.22-1.32,8.36-3.46c2.14-2.14,3.46-5.09,3.46-8.36C159.2,93.92,157.88,90.97,155.74,88.83L155.74,88.83z M129.33,20.95 c7.42,1.14,14.06,2.97,19.96,5.42c5.93-2.68,12.51-4.17,19.44-4.17c26.12,0,47.29,21.17,47.29,47.29 c0,19.91-12.31,36.94-29.73,43.91c-0.76,5.71-1.65,11.31-2.65,16.82c11.28-2.76,21.36-8.57,29.3-16.52 c11.31-11.31,18.31-26.94,18.31-44.21c0-17.26-7-32.89-18.31-44.21C201.63,13.97,186,6.97,168.73,6.97 C153.8,6.97,140.09,12.21,129.33,20.95L129.33,20.95z M52.91,129.79c-1.25-5.69-2.28-11.15-3.05-16.37 c-16.78-7.51-28.47-24.35-28.47-43.92c0-26.57,21.54-48.1,48.1-48.1c7.12,0,13.87,1.55,19.95,4.32c5.93-2.55,12.28-4.32,18.89-5.21 C97.67,12.04,84.17,6.97,69.49,6.97c-17.26,0-32.89,7-44.21,18.31C13.97,36.6,6.97,52.23,6.97,69.49c0,17.26,7,32.89,18.31,44.21 C32.84,121.25,42.31,126.88,52.91,129.79L52.91,129.79z"/></g></svg>