<?xml version="1.0" encoding="utf-8"?><svg version="1.1" id="Layer_1" xmlns="http://www.w3.org/2000/svg" xmlns:xlink="http://www.w3.org/1999/xlink" x="0px" y="0px" viewBox="0 0 122.88 102.39" style="enable-background:new 0 0 122.88 102.39" xml:space="preserve"><g><path d="M20.88,13.66c1.02,0,1.96,0.3,2.66,0.78c0.81,0.56,1.31,1.38,1.31,2.31s-0.5,1.75-1.31,2.31 c-0.69,0.48-1.63,0.78-2.66,0.78c-1.02,0-1.96-0.3-2.66-0.78c-0.81-0.56-1.31-1.38-1.31-2.31s0.5-1.75,1.31-2.31 C18.92,13.96,19.86,13.66,20.88,13.66L20.88,13.66z M48.27,12.74c0.7,0.59,1.4,1.13,2.17,1.51c0.81,0.4,1.72,0.63,2.79,0.57 c0.39-0.02,0.8-0.07,1.23-0.14c0.42-0.07,0.89-0.17,1.39-0.29c0.63-0.16,1.3-0.36,1.99-0.6c0.7-0.24,1.45-0.54,2.24-0.88 c0.04-0.02,0.08-0.03,0.12-0.04c3.62-1.3,7.19-2.01,10.7-2.08c3.55-0.07,7.04,0.52,10.47,1.84c6.58,2.53,11.54,6.75,15.46,11.89 c3.88,5.08,6.74,11.05,9.14,17.12c0.85,2.14,1.59,4.26,2.22,6.35c0.63,2.09,1.15,4.15,1.54,6.18c0.01,0.03,0.01,0.06,0.01,0.09 c0.05,0.28,0.08,0.54,0.1,0.79c0.01,0.13,0.02,0.26,0.02,0.4c4.6,2.66,8.06,6.63,10.25,11.11c1.78,3.65,2.73,7.65,2.76,11.58 c0.03,3.95-0.86,7.82-2.75,11.18c-1.88,3.34-4.73,6.17-8.63,8.08c-12.64,6.17-23.24,2.2-32.2-1.15 c-9.32-3.49-16.71-6.26-22.38,5.54c-0.26,0.54-0.91,0.77-1.45,0.51c-0.34-0.16-0.56-0.48-0.61-0.83l0,0 c-0.33-2.34,0.06-4.46,1-6.31c1-1.97,2.61-3.63,4.64-4.93c9.48-6.06,17.22-2.86,25.61,0.6c0.33,0.13,0.67,0.28,1.65,0.67 c4.45,1.37,8.61,2.24,12.47,1.79c3.79-0.44,7.34-2.16,10.67-5.97c1.95-2.23,3.31-4.9,3.77-7.87c0.41-2.7,0.08-5.66-1.23-8.79 c-0.6-1.44-1.5-2.73-2.76-4c-1.18-1.19-2.67-2.37-4.55-3.66c-1.82,1.63-4.14,2.96-6.54,3.9c-2.58,1.01-5.29,1.59-7.58,1.62 l-1.29,2.98c-0.21,0.8-0.47,1.52-0.8,2.16c-0.36,0.71-0.79,1.31-1.32,1.77c-1,0.88-4.18,1.52-7.96,1.97 c-6.07,0.73-13.93,1.07-16.07,1.09c-0.54,0-0.99-0.38-1.08-0.89h0c-0.12-0.63-0.11-1.31,0.06-1.95c0.16-0.62,0.46-1.2,0.92-1.67 c1.54-1.59,4.17-1.82,6.82-2.06c0.55-0.05,0.67-0.06,0.87-0.08c1.3-0.12,2.72-0.36,4.05-0.8c0.43-0.14,0.85-0.3,1.24-0.49 c-0.47-0.11-0.93-0.24-1.37-0.38c-0.26-0.08-0.51-0.16-0.76-0.25c-0.19,0.18-0.45,0.29-0.73,0.29l-13.06,0.22l-0.01,0 c-0.6,0.02-1.11-0.45-1.12-1.06c-0.02-0.69,0.05-1.56,0.28-2.33c0.21-0.7,0.55-1.34,1.07-1.78c1.18-0.98,2.88-1.17,4.41-1.22 c-0.76-0.41-1.76-0.77-3.27-1.11l-0.03-0.01l0,0L58,61.71c-0.29,0.71-0.64,1.62-1.03,2.64c-1.83,4.76-4.57,11.88-6.56,13.22 c-2.15,1.45-7.4,1.29-10.99,1.18c-0.74-0.02-1.4-0.04-2.09-0.04c-0.57,0-1.05-0.44-1.09-1c-0.06-0.56-0.05-1.45,0.06-2.24 c0.1-0.75,0.29-1.47,0.6-1.89c1.18-1.58,2.77-1.52,4.41-1.46c1.69,0.06,3.46,0.13,3.89-3.92c-0.48,0.84-1.01,1.56-1.59,1.97 c-2.06,1.45-6.8,1.3-10.1,1.19c-0.67-0.02-1.28-0.04-1.92-0.04v0c-0.47,0-0.9-0.3-1.04-0.77c-0.26-0.83-0.29-1.88-0.1-2.78 c0.2-0.94,0.66-1.77,1.38-2.21c1.34-0.81,2.71-0.8,4-0.79c0.98,0.01,1.9,0.02,2.38-0.45c0.95-0.93,1.21-6.52,1.34-9.46 c0.01-0.31,0.03-0.59,0.04-0.82c-0.28-0.31-0.55-0.63-0.83-0.94c-2.32-2.63-4.65-5.29-6.36-7.97c-0.94-1.48-1.81-2.93-2.66-4.35 c-1.14-1.91-2.25-3.77-3.41-5.48c-1.22-1.8-3.09-2.38-7.64-3.79l-0.47-0.14c-1.43-0.44-2.84-0.91-4.25-1.41 c-1.44-0.5-2.81-1.01-4.16-1.52c-0.8-0.17-1.4-0.44-1.79-0.83c-0.61-0.6-0.74-1.32-0.34-2.17c0.31-0.67,0.92-1.11,1.67-1.42 c-1.63-0.55-3.36-1.25-4.86-2.12c-2.21-1.28-3.97-2.94-4.41-5.07c-0.54-2.62,3.33-4.09,5.83-5.04c0.45-0.17,0.85-0.32,1.12-0.44 c3.98-1.74,8.36-3.48,12.77-4.71c4.46-1.24,8.95-1.95,13.07-1.61c0.28,0.02,0.55,0.05,0.81,0.08c1.65-2.69,4.27-4.41,6.69-4.93 c1.08-0.23,2.13-0.24,3.07,0.01c1.01,0.26,1.88,0.81,2.5,1.65c0.85,1.15,1.21,2.82,0.79,5.05c0.21,0.19,0.4,0.41,0.58,0.65 c0.28,0.38,0.52,0.81,0.72,1.31C48.49,10.08,48.52,11.41,48.27,12.74L48.27,12.74z M108.08,56.71c-0.25-0.21-0.4-0.52-0.39-0.87 c0.01-0.19,0-0.41-0.02-0.63c-0.02-0.2-0.04-0.39-0.07-0.57c0-0.02-0.01-0.03-0.01-0.05c-0.38-1.96-0.88-3.95-1.49-5.97 c-0.61-2.03-1.33-4.09-2.16-6.17c-2.33-5.91-5.1-11.7-8.84-16.59c-3.7-4.84-8.36-8.82-14.5-11.18c-3.15-1.21-6.37-1.75-9.65-1.69 c-3.27,0.06-6.61,0.74-10.01,1.95h0c-0.82,0.35-1.62,0.66-2.38,0.93c-0.77,0.27-1.5,0.49-2.17,0.66c-0.53,0.13-1.06,0.24-1.58,0.33 c-0.51,0.08-1,0.14-1.46,0.16c-1.49,0.08-2.74-0.24-3.87-0.8c-0.67-0.33-1.29-0.75-1.89-1.21c-0.66,1.62-1.62,3.12-2.53,4.27 c-0.68,0.86-1.42,1.62-2.19,2.3c-0.78,0.68-1.6,1.28-2.45,1.81c-0.51,0.32-1.19,0.16-1.51-0.35c-0.32-0.51-0.16-1.19,0.35-1.51 c0.76-0.48,1.49-1,2.17-1.6c0.68-0.6,1.33-1.26,1.92-2.01c0.99-1.25,2.04-2.97,2.57-4.73c0.37-1.24,0.46-2.49,0.05-3.55 c-0.12-0.31-0.27-0.58-0.44-0.8c-0.11-0.15-0.23-0.28-0.36-0.39c-0.24-0.07-0.44-0.21-0.57-0.4c-0.31-0.16-0.66-0.26-1.02-0.31 c-0.85-0.12-1.8,0.04-2.7,0.39c-0.56,0.22-1.09,0.51-1.55,0.85c-0.76,0.56-1.41,1.29-1.99,2.17c-0.01,0.02-0.02,0.04-0.04,0.06 c-0.61,0.93-1.13,2.02-1.58,3.24c-0.21,0.57-0.84,0.86-1.4,0.65c-0.57-0.21-0.86-0.84-0.65-1.4c0.5-1.37,1.1-2.61,1.8-3.69 c0.01-0.02,0.03-0.04,0.04-0.06c0.46-0.7,0.97-1.33,1.54-1.88c-0.42-0.14-0.84-0.26-1.27-0.36c-0.95-0.23-1.97-0.39-3.12-0.49 c-3.85-0.32-8.08,0.35-12.31,1.53c-4.28,1.19-8.57,2.9-12.47,4.61c-0.34,0.15-0.75,0.3-1.22,0.48c-1.82,0.69-4.63,1.76-4.46,2.56 C2.48,17.79,3.83,19,5.56,20c2.97,1.72,6.96,2.74,9,3.18l0,0c0.43,0.09,0.78,0.44,0.85,0.9c0.09,0.6-0.31,1.15-0.91,1.25 c-0.33,0.05-0.74,0.09-1.2,0.14c-1.25,0.12-2.95,0.28-3.51,0.71c0.13,0.04,0.3,0.08,0.5,0.13c0.06,0.01,0.13,0.03,0.19,0.05 c1.45,0.55,2.85,1.07,4.18,1.54c1.39,0.49,2.77,0.95,4.18,1.38l0.47,0.14c5.07,1.57,7.16,2.22,8.81,4.64 c1.17,1.73,2.31,3.63,3.48,5.59c0.86,1.44,1.74,2.91,2.63,4.3c1.6,2.5,3.89,5.11,6.16,7.7c1.11,1.26,2.22,2.52,3.25,3.77 c0.86,0.96,1.71,1.95,2.41,2.98c0.58,0.78,0.95,1.4,1.18,2.1c0.12,0.35,0.2,0.71,0.25,1.1c0.1,0.51,0.15,1.03,0.12,1.58h0 c0,0.09-0.02,0.17-0.04,0.26c-0.01,0.45-0.02,0.95-0.03,1.53c-0.01,0.52-0.03,1.11-0.04,1.73l0,0c-0.15,7.86-3.27,7.74-6.24,7.63 c-1.06-0.04-2.09-0.08-2.59,0.58c-0.06,0.08-0.13,0.43-0.18,0.85c-0.03,0.26-0.06,0.54-0.07,0.8c0.33,0.01,0.7,0.02,1.09,0.03 c3.3,0.1,8.14,0.25,9.71-0.81c1.43-0.96,4.01-7.69,5.74-12.18c0.54-1.41,1.01-2.62,1.33-3.38l-0.14-4.31 c-0.02-0.6,0.45-1.11,1.06-1.13c0.6-0.02,1.11,0.45,1.12,1.06l0.12,3.75l4.96,1.24l0,0c0.51,0.11,0.97,0.23,1.38,0.35 c-0.37-1.38-0.32-2.66,0.12-3.85c0.68-1.85,2.28-3.39,4.66-4.66c0.53-0.28,1.19-0.08,1.48,0.45c0.28,0.53,0.08,1.19-0.45,1.48 c-1.9,1.02-3.15,2.18-3.64,3.49c-0.44,1.2-0.25,2.62,0.66,4.27c0.8,0.48,1.38,1.01,2.03,1.61c0.85,0.77,1.83,1.67,3.76,2.72 c0.02,0.01,0.04,0.02,0.06,0.03c1.03,0.56,2.13,1.03,3.28,1.39c1.16,0.36,2.39,0.62,3.69,0.77l0,0c0.24,0.03,0.48,0.13,0.66,0.32 c0.42,0.43,0.41,1.12-0.02,1.54c-1.15,1.12-2.62,1.88-4.17,2.4c-1.49,0.49-3.08,0.76-4.53,0.89l-0.88,0.08 c-2.24,0.2-4.47,0.39-5.43,1.39c-0.19,0.19-0.31,0.44-0.38,0.7c-0.01,0.03-0.02,0.07-0.02,0.1c2.98-0.09,9.5-0.43,14.74-1.06 c3.39-0.41,6.16-0.9,6.78-1.44c0.31-0.28,0.58-0.65,0.82-1.11c0.26-0.51,0.47-1.12,0.65-1.8l0,0c0.01-0.05,0.03-0.1,0.05-0.15 l1.52-3.5c-0.1-0.44-0.24-0.81-0.42-1.11c-0.22-0.35-0.5-0.62-0.83-0.81c-0.52-0.3-0.71-0.96-0.41-1.49 c0.3-0.52,0.96-0.71,1.49-0.41c0.65,0.37,1.2,0.88,1.61,1.56c0.24,0.4,0.44,0.85,0.59,1.37c1.97-0.06,4.3-0.58,6.56-1.47 c2.41-0.94,4.71-2.3,6.38-3.97c0.16-0.16,0.36-0.26,0.57-0.3c0.3-0.1,0.65-0.06,0.93,0.13c2.31,1.54,4.13,2.95,5.55,4.39 c1.47,1.49,2.52,3,3.23,4.69c1.48,3.52,1.85,6.88,1.38,9.96c-0.52,3.4-2.07,6.44-4.29,8.99c-3.73,4.27-7.75,6.21-12.06,6.7 c-4.21,0.49-8.65-0.43-13.36-1.88c-0.05-0.01-0.1-0.03-0.15-0.05c-0.13-0.05-0.9-0.37-1.68-0.69c-7.85-3.24-15.09-6.23-23.61-0.78 c-1.61,1.03-2.91,2.32-3.73,3.83c6.01-7.74,13.29-5.01,22.13-1.7c8.55,3.2,18.67,7,30.48,1.23c3.47-1.7,6.01-4.22,7.68-7.18 c1.7-3.02,2.5-6.52,2.47-10.09c-0.03-3.59-0.9-7.27-2.54-10.63c-2.05-4.19-5.3-7.89-9.62-10.32 C108.33,57.08,108.17,56.91,108.08,56.71L108.08,56.71z M45.37,62.91c0-0.34-0.02-0.64-0.04-0.9c-0.18-0.82-0.59-1.64-1.12-2.44 c-0.37-0.49-0.85-1.07-1.46-1.81c-0.57-0.7-0.17-0.2-0.69-0.84l-0.2-0.24l-0.12-0.13l-0.09-0.1c-0.18,3.36-0.57,8.1-1.93,9.42 c-1.13,1.1-2.48,1.08-3.92,1.07c-0.99-0.01-2.05-0.02-2.85,0.47c-0.16,0.09-0.28,0.41-0.37,0.8c-0.06,0.3-0.09,0.62-0.08,0.93 c0.32,0.01,0.68,0.02,1.06,0.03c3,0.1,7.32,0.23,8.78-0.8c0.68-0.48,1.5-2.26,2.2-3.77C44.83,63.99,45.1,63.4,45.37,62.91 L45.37,62.91z M36.02,5.51c0.09,0.02,0.18,0.04,0.28,0.06c1.02,0.25,1.96,0.56,2.86,0.94c0.3-0.16,0.61-0.3,0.93-0.43 c1.22-0.48,2.55-0.69,3.79-0.52c0.27,0.04,0.53,0.09,0.79,0.17c0.12-1.17-0.09-2.03-0.51-2.6c-0.31-0.42-0.76-0.7-1.29-0.84 c-0.6-0.16-1.31-0.15-2.06,0.02C39.13,2.68,37.32,3.79,36.02,5.51L36.02,5.51z M68.79,66.14l-1.02,0.04l0,0 c-0.22,0.01-0.49,0.02-0.78,0.02c-1.37,0.03-3.05,0.07-3.85,0.74c-0.16,0.13-0.28,0.4-0.38,0.72c-0.05,0.18-0.1,0.38-0.13,0.57 l8.31-0.14c-0.71-0.58-1.37-1.21-2.03-1.83L68.79,66.14L68.79,66.14z M22.29,16.24c-0.34-0.24-0.84-0.39-1.41-0.39 s-1.06,0.15-1.41,0.39c-0.23,0.16-0.37,0.34-0.37,0.51c0,0.17,0.14,0.35,0.37,0.51c0.34,0.24,0.84,0.39,1.41,0.39 s1.06-0.15,1.41-0.39c0.23-0.16,0.37-0.34,0.37-0.51C22.66,16.58,22.52,16.4,22.29,16.24L22.29,16.24z"/></g></svg>