<?xml version="1.0" encoding="utf-8"?><svg version="1.1" id="Layer_1" xmlns="http://www.w3.org/2000/svg" xmlns:xlink="http://www.w3.org/1999/xlink" x="0px" y="0px" viewBox="0 0 122.88 102.93" style="enable-background:new 0 0 122.88 102.93" xml:space="preserve"><style type="text/css">.st0{fill-rule:evenodd;clip-rule:evenodd;}</style><g><path class="st0" d="M9.45,0h103.98c5.2,0,9.45,4.25,9.45,9.45v84.02c0,5.2-4.25,9.45-9.45,9.45H9.45c-5.2,0-9.45-4.25-9.45-9.45 V9.45C0,4.25,4.25,0,9.45,0L9.45,0z M74.38,38.09L74.38,38.09c1.98,1.98,1.98,5.22,0,7.21l-3.71,3.71c-1.98,1.98-5.22,1.98-7.21,0 l0,0c-1.98-1.98-1.98-5.22,0-7.21l3.71-3.71C69.15,36.1,72.39,36.1,74.38,38.09L74.38,38.09L74.38,38.09z M91.5,25.88 c3.81,4.84,5.71,10.71,5.71,16.57c0,6.86-2.61,13.73-7.82,18.95L68.54,82.25c-5.21,5.21-12.08,7.82-18.95,7.82 c-6.86,0-13.73-2.61-18.95-7.82c-5.2-5.22-7.81-12.08-7.81-18.95c0-6.86,2.61-13.73,7.82-18.95L51.51,23.5 c5.21-5.2,12.08-7.81,18.94-7.81c5.87,0,11.74,1.9,16.57,5.71l7.62-7.62c1.24-1.24,3.24-1.24,4.48,0c1.24,1.24,1.24,3.24,0,4.48 L91.5,25.88L91.5,25.88L91.5,25.88z"/></g></svg>