<?xml version="1.0" encoding="utf-8"?><svg version="1.1" id="Layer_1" xmlns="http://www.w3.org/2000/svg" xmlns:xlink="http://www.w3.org/1999/xlink" x="0px" y="0px" viewBox="0 0 122.88 69.27" style="enable-background:new 0 0 122.88 69.27" xml:space="preserve"><style type="text/css">.st0{fill-rule:evenodd;clip-rule:evenodd;}</style><g><path class="st0" d="M61.86,26.32c14.25-5.59,26.43-1.02,37.55,8.84c-25.23,10.75-50.46,10.64-75.69,0 C34.81,25.67,46.97,20.48,61.86,26.32L61.86,26.32z M61.89,7.67c11.44-8.97,22.16-9.54,32.34-3.66 c10.12,5.85,19.51,18.25,28.4,35.12c0.48,0.91,0.26,2.01-0.47,2.67l0,0c-20.16,18.41-40.4,27.51-60.72,27.46 c-20.31-0.05-40.55-9.26-60.71-27.46c-0.77-0.7-0.94-1.82-0.46-2.7l0,0c8.85-16.25,18.2-28.85,28.42-34.96 C38.97-1.99,49.94-1.72,61.89,7.67L61.89,7.67z M92.01,7.85c-8.87-5.12-18.37-4.29-28.69,4.38l0,0c-0.81,0.68-2.01,0.7-2.84,0 c-10.8-9.08-20.53-9.63-29.51-4.26C21.81,13.42,13.24,24.84,5,39.69C23.88,56.37,42.7,64.8,61.44,64.85 c18.75,0.05,37.57-8.3,56.46-25.17C109.63,24.29,101.05,13.07,92.01,7.85L92.01,7.85z"/></g></svg>