<svg id="Layer_1" data-name="Layer 1" xmlns="http://www.w3.org/2000/svg" viewBox="0 0 122.88 121.83"><defs><style>.cls-1,.cls-2{fill-rule:evenodd;}.cls-2{fill:red;}.cls-3{fill:#fff;}</style></defs><title>mov</title><path class="cls-1" d="M102.42,37H81.92a8.52,8.52,0,0,1-8.85-8.7V7.53H21a.58.58,0,0,0-.41.18.45.45,0,0,0-.18.42V113.71a.7.7,0,0,0,.18.41.51.51,0,0,0,.41.18h80.84c.18,0,.17-.09.26-.18s.34-.28.34-.41V37Zm7.47,79.08a5.77,5.77,0,0,1-5.76,5.76H18.66a5.77,5.77,0,0,1-5.76-5.76V5.76a5.7,5.7,0,0,1,1.69-4.07A5.77,5.77,0,0,1,18.66,0H76.9a4.22,4.22,0,0,1,2.46.82l29.75,30.12a2.57,2.57,0,0,1,.78,2.6v82.53ZM80,27.69,79.57,9.63,100.66,31l-18.14-.81A2.4,2.4,0,0,1,80,27.69Z"/><path class="cls-2" d="M6.71,46.28H116.17A6.73,6.73,0,0,1,122.88,53v45.1a6.73,6.73,0,0,1-6.71,6.71H6.71A6.73,6.73,0,0,1,0,98.09V53a6.73,6.73,0,0,1,6.71-6.71Z"/><path class="cls-3" d="M8.42,59.78H21.27L26.16,79l4.91-19.18H43.86V91.3h-8v-24l-6.15,24H22.52l-6.13-24v24h-8V59.78ZM48.09,75.56q0-7.71,4.3-12t12-4.3q7.88,0,12.13,4.22T80.77,75.3a19.38,19.38,0,0,1-1.86,9.06,13.26,13.26,0,0,1-5.38,5.5,17.7,17.7,0,0,1-8.77,2,20.27,20.27,0,0,1-8.83-1.69,13.35,13.35,0,0,1-5.66-5.38,17.8,17.8,0,0,1-2.18-9.2Zm9.74,0q0,4.77,1.77,6.86a6.75,6.75,0,0,0,9.71,0q1.72-2,1.72-7.33c0-3-.6-5.13-1.79-6.49a6.15,6.15,0,0,0-4.88-2.06,5.92,5.92,0,0,0-4.74,2.09c-1.2,1.38-1.79,3.69-1.79,6.89ZM80.3,59.78H90.47l7.11,22.69,7-22.69h9.88L102.76,91.3H92.21L80.3,59.78Z"/></svg>