<?xml version="1.0" encoding="utf-8"?><svg version="1.1" id="Layer_1" xmlns="http://www.w3.org/2000/svg" xmlns:xlink="http://www.w3.org/1999/xlink" x="0px" y="0px" viewBox="0 0 115.28 122.88" style="enable-background:new 0 0 115.28 122.88" xml:space="preserve"><style type="text/css">.st0{fill-rule:evenodd;clip-rule:evenodd;}</style><g><path class="st0" d="M25.38,57h64.88V37.34H69.59c-2.17,0-5.19-1.17-6.62-2.6c-1.43-1.43-2.3-4.01-2.3-6.17V7.64l0,0H8.15 c-0.18,0-0.32,0.09-0.41,0.18C7.59,7.92,7.55,8.05,7.55,8.24v106.45c0,0.14,0.09,0.32,0.18,0.41c0.09,0.14,0.28,0.18,0.41,0.18 c22.78,0,58.09,0,81.51,0c0.18,0,0.17-0.09,0.27-0.18c0.14-0.09,0.33-0.28,0.33-0.41v-11.16H25.38c-4.14,0-7.56-3.4-7.56-7.56 V64.55C17.82,60.4,21.22,57,25.38,57L25.38,57z M30,69.37h8.78l3.34,13.11l3.35-13.11h8.74v21.54h-5.45V74.49l-4.2,16.42h-4.93 l-4.19-16.42v16.42H30V69.37L30,69.37z M57.16,80.15c0-3.51,0.98-6.25,2.94-8.21c1.96-1.96,4.69-2.94,8.19-2.94 c3.59,0,6.35,0.96,8.29,2.88c1.94,1.93,2.91,4.62,2.91,8.09c0,2.52-0.42,4.58-1.27,6.19c-0.85,1.61-2.08,2.86-3.68,3.76 c-1.6,0.9-3.6,1.34-5.99,1.34c-2.43,0-4.44-0.39-6.03-1.16c-1.59-0.78-2.88-2-3.87-3.68C57.66,84.76,57.16,82.67,57.16,80.15 L57.16,80.15z M63.81,80.17c0,2.17,0.41,3.74,1.21,4.68c0.81,0.95,1.92,1.42,3.31,1.42c1.43,0,2.54-0.47,3.32-1.39 c0.79-0.93,1.18-2.6,1.18-5.01c0-2.03-0.41-3.5-1.23-4.44c-0.82-0.94-1.93-1.4-3.33-1.4c-1.34,0-2.43,0.48-3.24,1.42 C64.22,76.4,63.81,77.98,63.81,80.17L63.81,80.17z M79.22,69.37h6.95l4.85,15.5l4.78-15.5h6.75l-8,21.54h-7.21L79.22,69.37 L79.22,69.37z M97.79,57h9.93c4.16,0,7.56,3.41,7.56,7.56v31.42c0,4.15-3.41,7.56-7.56,7.56h-9.93v13.55c0,1.61-0.65,3.04-1.7,4.1 c-1.06,1.06-2.49,1.7-4.1,1.7c-29.44,0-56.59,0-86.18,0c-1.61,0-3.04-0.64-4.1-1.7c-1.06-1.06-1.7-2.49-1.7-4.1V5.85 c0-1.61,0.65-3.04,1.7-4.1c1.06-1.06,2.53-1.7,4.1-1.7h58.72C64.66,0,64.8,0,64.94,0c0.64,0,1.29,0.28,1.75,0.69h0.09 c0.09,0.05,0.14,0.09,0.23,0.18l29.99,30.36c0.51,0.51,0.88,1.2,0.88,1.98c0,0.23-0.05,0.41-0.09,0.65V57L97.79,57z M67.52,27.97 V8.94l21.43,21.7H70.19c-0.74,0-1.38-0.32-1.89-0.78C67.84,29.4,67.52,28.71,67.52,27.97L67.52,27.97z"/></g></svg>