<?xml version="1.0" encoding="UTF-8"?>
<!DOCTYPE svg PUBLIC "-//W3C//DTD SVG 1.1//EN" "http://www.w3.org/Graphics/SVG/1.1/DTD/svg11.dtd">
<!-- Creator: CorelDRAW 2021 (64-Bit) -->
<svg xmlns="http://www.w3.org/2000/svg" xml:space="preserve" width="512px" height="499px" version="1.1" shape-rendering="geometricPrecision" text-rendering="geometricPrecision" image-rendering="optimizeQuality" fill-rule="evenodd" clip-rule="evenodd"
viewBox="0 0 512 498.92"
 xmlns:xlink="http://www.w3.org/1999/xlink"
 xmlns:xodm="http://www.corel.com/coreldraw/odm/2003">
 <g id="Layer_x0020_1">
  <metadata id="CorelCorpID_0Corel-Layer"/>
  <path fill="black" d="M389.75 0c-33.74,0 -64.32,13.69 -86.43,35.8 -22.12,22.12 -35.81,52.7 -35.81,86.44 0,33.74 13.69,64.33 35.8,86.44 22.12,22.12 52.7,35.81 86.44,35.81 33.71,0 64.26,-13.68 86.39,-35.81 22.19,-22.2 35.86,-52.77 35.86,-86.44 0,-33.74 -13.69,-64.32 -35.81,-86.44 -22.11,-22.11 -52.7,-35.8 -86.44,-35.8zm-262.62 93.06l-81.73 86.38 81.73 0 0 -86.38zm-127.13 102.75c0,-1.15 0.15,-2.27 0.41,-3.34 0.13,-3.15 1.36,-6.27 3.69,-8.74l124.36 -131.42c2.32,-4.17 6.79,-7 11.91,-7l113.4 0c-4.87,8.59 -8.97,17.7 -12.16,27.2l-87.3 0 0 120.52c0,7.5 -6.09,13.59 -13.59,13.59l-113.52 0 0 265.1 392.01 0 0 -196.05c9.4,-1.79 18.49,-4.43 27.21,-7.83l0 204.05c0,7.39 -3.05,14.15 -7.93,19.05 -4.96,4.94 -11.72,7.98 -19.11,7.98l-392.34 0c-7.43,0 -14.21,-3.06 -19.09,-7.95 -4.88,-4.88 -7.95,-11.66 -7.95,-19.08l0 -276.08zm324.88 79.39c7.54,0 13.66,6.06 13.66,13.52 0,7.47 -6.12,13.53 -13.66,13.53l-203.34 0c-7.54,0 -13.66,-6.06 -13.66,-13.53 0,-7.46 6.12,-13.52 13.66,-13.52l203.34 0zm0 91.23c7.54,0 13.66,6.05 13.66,13.52 0,7.47 -6.12,13.53 -13.66,13.53l-203.34 0c-7.54,0 -13.66,-6.06 -13.66,-13.53 0,-7.47 6.12,-13.52 13.66,-13.52l203.34 0zm61.03 -292.26c0.16,-3.75 1.39,-6.39 3.73,-7.93 6.23,-4.16 12.39,1.52 16.72,5.45l42.7 42.01c4.47,4.52 4.51,9.76 0,14.29l-43.86 43.01c-4.16,3.69 -9.82,8.24 -15.56,4.41 -2.34,-1.57 -3.57,-4.2 -3.73,-7.93l0 -20.72 -36.8 0c-6.12,0 -11.22,-5.04 -11.22,-11.21l0 -29.43c0,-6.19 5.05,-11.24 11.22,-11.24l36.8 0 0 -20.71z"/>
 </g>
</svg>
