<?xml version="1.0" encoding="utf-8"?><svg version="1.1" id="Layer_1" xmlns="http://www.w3.org/2000/svg" xmlns:xlink="http://www.w3.org/1999/xlink" x="0px" y="0px" viewBox="0 0 122.88 110.35" style="enable-background:new 0 0 122.88 110.35" xml:space="preserve"><style type="text/css">.st0{fill-rule:evenodd;clip-rule:evenodd;}</style><g><path class="st0" d="M48.84,42.57c6.96-6.96,18.24-6.96,25.2,0c6.96,6.96,6.96,18.24,0,25.2c-6.96,6.96-18.24,6.96-25.2,0 C41.88,60.82,41.88,49.53,48.84,42.57L48.84,42.57z M24.87,88.47h73.15V21.2H24.87V88.47L24.87,88.47z M24.87,14.88h73.15V0h6.32 v6.22h12.22V0h6.32v110.35h-6.32v-7.19h-12.22v7.19h-6.32V94.79H24.87v15.56h-6.32v-7.19H6.32v7.19H0V0h6.32v6.22h12.22V0h6.32 V14.88L24.87,14.88z M18.54,96.84v-11.8H6.32v11.8H18.54L18.54,96.84z M18.54,78.72v-11.8H6.32v11.8H18.54L18.54,78.72z M18.54,60.59v-11.8H6.32v11.8H18.54L18.54,60.59z M18.54,42.47v-11.8H6.32v11.8H18.54L18.54,42.47z M18.54,24.35v-11.8H6.32v11.8 H18.54L18.54,24.35z M116.56,96.84v-11.8h-12.22v11.8H116.56L116.56,96.84z M116.56,78.72v-11.8h-12.22v11.8H116.56L116.56,78.72z M116.56,60.59v-11.8h-12.22v11.8H116.56L116.56,60.59z M116.56,42.47v-11.8h-12.22v11.8H116.56L116.56,42.47z M116.56,24.35v-11.8 h-12.22v11.8H116.56L116.56,24.35z M65.23,48.14c0.87-0.88,2.28-0.88,3.15-0.01c0.87,0.88,0.88,2.3,0.01,3.18l-3.81,3.86l3.81,3.86 c0.86,0.87,0.85,2.29-0.03,3.16c-0.87,0.87-2.28,0.87-3.14,0l-3.78-3.84l-3.79,3.84c-0.87,0.88-2.28,0.88-3.15,0.01 c-0.87-0.88-0.88-2.3-0.01-3.18l3.81-3.86l-3.81-3.86c-0.86-0.87-0.85-2.29,0.03-3.16c0.87-0.87,2.28-0.87,3.14,0l3.78,3.84 L65.23,48.14L65.23,48.14z"/></g></svg>