<?xml version="1.0" encoding="utf-8"?><svg version="1.1" id="Layer_1" xmlns="http://www.w3.org/2000/svg" xmlns:xlink="http://www.w3.org/1999/xlink" x="0px" y="0px" viewBox="0 0 122.84 122.88" style="enable-background:new 0 0 122.84 122.88" xml:space="preserve"><style type="text/css">.st0{fill-rule:evenodd;clip-rule:evenodd;}</style><g><path class="st0" d="M1.01,79.96l63.65-63.65c0.55,0.07,1.14-0.11,1.55-0.52c0.41-0.41,0.59-1,0.52-1.55L79.92,1.05 c1.4-1.4,3.65-1.4,5.05,0L95.4,11.48c-2.73,4.46-2.17,10.39,1.7,14.26c3.87,3.87,9.8,4.42,14.26,1.7l10.43,10.43 c1.4,1.4,1.4,3.65,0,5.05L108.6,56.11c-0.55-0.07-1.14,0.11-1.55,0.52c-0.41,0.41-0.59,1-0.52,1.55l-63.65,63.65 c-1.4,1.4-3.65,1.4-5.05,0l-10.36-10.36c2.99-4.5,2.47-10.61-1.47-14.6c-3.98-3.98-10.1-4.46-14.6-1.47L1.05,85.05 c-1.4-1.4-1.4-3.65,0-5.05L1.01,79.96L1.01,79.96z M49.22,56.83c4.71-4.71,12.33-4.71,17.04,0c4.71,4.71,4.71,12.33,0,17.04 c-4.71,4.71-12.33,4.71-17.04,0C44.51,69.17,44.51,61.54,49.22,56.83L49.22,56.83z M61.99,61.09l-2.2,11.21l-8.94-8.94L61.99,61.09 L61.99,61.09z M102.22,51.8c0.74-0.74,1.88-0.74,2.62,0c0.74,0.74,0.74,1.88,0,2.62c-0.74,0.74-1.88,0.74-2.62,0 C101.48,53.68,101.48,52.54,102.22,51.8L102.22,51.8z M97.39,46.97c0.74-0.74,1.88-0.74,2.62,0c0.74,0.74,0.74,1.88,0,2.62 c-0.74,0.74-1.88,0.74-2.62,0C96.66,48.85,96.66,47.71,97.39,46.97L97.39,46.97z M92.56,42.15c0.74-0.74,1.88-0.74,2.62,0 c0.74,0.74,0.74,1.88,0,2.62c-0.74,0.74-1.88,0.74-2.62,0C91.83,44.03,91.83,42.88,92.56,42.15L92.56,42.15z M87.74,37.32 c0.74-0.74,1.88-0.74,2.62,0c0.74,0.74,0.74,1.88,0,2.62c-0.74,0.74-1.88,0.74-2.62,0C87,39.2,87,38.05,87.74,37.32L87.74,37.32z M82.91,32.49c0.74-0.74,1.88-0.74,2.62,0c0.74,0.74,0.74,1.88,0,2.62c-0.74,0.74-1.88,0.74-2.62,0 C82.17,34.37,82.17,33.23,82.91,32.49L82.91,32.49z M78.08,27.66c0.74-0.74,1.88-0.74,2.62,0c0.74,0.74,0.74,1.88,0,2.62 c-0.74,0.74-1.88,0.74-2.62,0C77.34,29.54,77.34,28.4,78.08,27.66L78.08,27.66z M73.25,22.83c0.74-0.74,1.88-0.74,2.62,0 c0.74,0.74,0.74,1.88,0,2.62c-0.74,0.74-1.88,0.74-2.62,0C72.52,24.71,72.52,23.57,73.25,22.83L73.25,22.83z M68.42,18 c0.74-0.74,1.88-0.74,2.62,0c0.74,0.74,0.74,1.88,0,2.62c-0.74,0.74-1.88,0.74-2.62,0C67.69,19.88,67.69,18.74,68.42,18L68.42,18z M25.41,74.91l39.36-39.36c1.62-1.62,4.28-1.62,5.9,0l18.1,18.1c1.62,1.62,1.62,4.28,0,5.9L49.41,98.9c-1.62,1.62-4.28,1.62-5.9,0 l-18.1-18.1C23.79,79.19,23.79,76.53,25.41,74.91L25.41,74.91L25.41,74.91z"/></g></svg>