<?xml version="1.0" encoding="utf-8"?><svg version="1.1" id="Layer_1" xmlns="http://www.w3.org/2000/svg" xmlns:xlink="http://www.w3.org/1999/xlink" x="0px" y="0px" viewBox="0 0 122.88 110.92" style="enable-background:new 0 0 122.88 110.92" xml:space="preserve"><style type="text/css">.st0{fill-rule:evenodd;clip-rule:evenodd;}</style><g><path class="st0" d="M61.44,35.78c5.35,0,10.2,2.17,13.71,5.68c3.51,3.51,5.68,8.36,5.68,13.71c0,5.35-2.17,10.2-5.68,13.71 c-3.51,3.51-8.36,5.68-13.71,5.68c-5.35,0-10.2-2.17-13.71-5.68c-3.51-3.51-5.68-8.36-5.68-13.71c0-5.35,2.17-10.2,5.68-13.71 C51.24,37.96,56.09,35.78,61.44,35.78L61.44,35.78z M6.32,0v6.22h12.22V0h6.32v15.45h73.15V0.57h6.32v6.22h12.22V0.57h6.32v110.35 h-6.32v-7.19h-12.22v7.19h-6.32V95.36H24.87v14.99h-6.32v-7.19H6.32v7.19H0V0H6.32L6.32,0z M24.87,21.77v67.27h73.15V21.77H24.87 L24.87,21.77z M116.56,97.41v-11.8h-12.22v11.8H116.56L116.56,97.41z M116.56,79.29v-11.8h-12.22v11.8H116.56L116.56,79.29z M116.56,61.16v-11.8h-12.22v11.8H116.56L116.56,61.16z M116.56,43.04v-11.8h-12.22v11.8H116.56L116.56,43.04z M116.56,24.92v-11.8 h-12.22v11.8H116.56L116.56,24.92z M18.54,96.84v-11.8H6.32v11.8H18.54L18.54,96.84z M18.54,78.72v-11.8H6.32v11.8H18.54 L18.54,78.72z M18.54,60.59v-11.8H6.32v11.8H18.54L18.54,60.59z M18.54,42.47v-11.8H6.32v11.8H18.54L18.54,42.47z M18.54,24.35 v-11.8H6.32v11.8H18.54L18.54,24.35z M63.37,47.55h4.72V62.8h-4.72V47.55L63.37,47.55L63.37,47.55z M54.8,47.55h4.72V62.8H54.8 V47.55L54.8,47.55L54.8,47.55z"/></g></svg>