<svg id="Layer_1" data-name="Layer 1" xmlns="http://www.w3.org/2000/svg" viewBox="0 0 122.88 121.83"><defs><style>.cls-1,.cls-2{fill-rule:evenodd;}.cls-2{fill:red;}.cls-3{fill:#fff;}</style></defs><title>mp3</title><path class="cls-1" d="M102.42,37H81.92a8.52,8.52,0,0,1-8.85-8.7V7.53H21a.58.58,0,0,0-.41.18.45.45,0,0,0-.18.42V113.71a.7.7,0,0,0,.18.41.51.51,0,0,0,.41.18h80.84c.18,0,.17-.09.26-.18s.34-.28.34-.41V37Zm7.47,79.08a5.77,5.77,0,0,1-5.76,5.76H18.66a5.77,5.77,0,0,1-5.76-5.76V5.76a5.7,5.7,0,0,1,1.69-4.07A5.77,5.77,0,0,1,18.66,0H76.9a4.22,4.22,0,0,1,2.46.82l29.75,30.12a2.57,2.57,0,0,1,.78,2.6v82.53ZM80,27.69,79.57,9.63,100.66,31l-18.14-.81A2.4,2.4,0,0,1,80,27.69Z"/><path class="cls-2" d="M6.71,46.28H116.17A6.73,6.73,0,0,1,122.88,53v45.1a6.73,6.73,0,0,1-6.71,6.71H6.71A6.73,6.73,0,0,1,0,98.09V53a6.73,6.73,0,0,1,6.71-6.71Z"/><path class="cls-3" d="M13.64,59.78H26.49L31.39,79,36.3,59.78H49.09V91.3h-8v-24L35,91.3H27.75l-6.14-24v24h-8V59.78Zm40.87,0H70.72c3.53,0,6.17.83,7.93,2.51s2.63,4.08,2.63,7.18a9.74,9.74,0,0,1-2.87,7.47c-1.92,1.8-4.85,2.69-8.78,2.69H64.29V91.3H54.51V59.78Zm9.78,13.47h2.4a6.21,6.21,0,0,0,4-1,3.18,3.18,0,0,0,1.15-2.51,3.48,3.48,0,0,0-1-2.52c-.66-.69-1.91-1-3.74-1H64.29v7ZM92,68.89,83.7,67.42a10.4,10.4,0,0,1,4-6.07c2-1.4,4.72-2.1,8.29-2.1,4.11,0,7.08.76,8.91,2.3a7.22,7.22,0,0,1,2.74,5.78A6.46,6.46,0,0,1,106.49,71a9.51,9.51,0,0,1-3.35,2.9,9.76,9.76,0,0,1,2.78,1,6.85,6.85,0,0,1,2.44,2.55,7.72,7.72,0,0,1,.87,3.77,10.54,10.54,0,0,1-1.43,5.29,9.76,9.76,0,0,1-4.15,3.89,15.9,15.9,0,0,1-7.12,1.36,18.46,18.46,0,0,1-6.77-1,10.17,10.17,0,0,1-4.09-3A13.67,13.67,0,0,1,83.21,83L92,81.79a7,7,0,0,0,1.6,3.69,3.86,3.86,0,0,0,2.76,1,3.8,3.8,0,0,0,2.93-1.29,4.91,4.91,0,0,0,1.17-3.44,4.85,4.85,0,0,0-1.12-3.4,4,4,0,0,0-3.06-1.2,11,11,0,0,0-2.82.51l.45-6.26a7,7,0,0,0,1.12.11,3.92,3.92,0,0,0,2.84-1.09A3.5,3.5,0,0,0,99,67.86a3.08,3.08,0,0,0-.86-2.29,3.13,3.13,0,0,0-2.34-.86,3.48,3.48,0,0,0-2.51.93A5.64,5.64,0,0,0,92,68.89Z"/></svg>