<?xml version="1.0" encoding="utf-8"?><svg version="1.1" id="Layer_1" xmlns="http://www.w3.org/2000/svg" xmlns:xlink="http://www.w3.org/1999/xlink" x="0px" y="0px" viewBox="0 0 115.28 122.88" style="enable-background:new 0 0 115.28 122.88" xml:space="preserve"><style type="text/css">.st0{fill-rule:evenodd;clip-rule:evenodd;}</style><g><path class="st0" d="M25.38,57h64.88V37.34H69.59c-2.17,0-5.19-1.17-6.62-2.6c-1.43-1.43-2.3-4.01-2.3-6.17V7.64l0,0H8.15 c-0.18,0-0.32,0.09-0.41,0.18C7.59,7.92,7.55,8.05,7.55,8.24v106.45c0,0.14,0.09,0.32,0.18,0.41c0.09,0.14,0.28,0.18,0.41,0.18 c22.78,0,58.09,0,81.51,0c0.18,0,0.17-0.09,0.27-0.18c0.14-0.09,0.33-0.28,0.33-0.41v-11.16H25.38c-4.14,0-7.56-3.4-7.56-7.56 V64.55C17.82,60.4,21.22,57,25.38,57L25.38,57z M29.68,68.41h9.64l3.67,14.39l3.68-14.39h9.6v23.65h-5.98V74.03l-4.61,18.03h-5.42 l-4.6-18.03v18.03h-5.98V68.41L29.68,68.41z M60.39,68.41h12.15c2.65,0,4.63,0.63,5.95,1.89c1.32,1.26,1.98,3.06,1.98,5.38 c0,2.39-0.72,4.26-2.16,5.6c-1.44,1.35-3.63,2.02-6.58,2.02h-4.01v8.75h-7.33V68.41L60.39,68.41z M67.73,78.52h1.8 c1.42,0,2.42-0.25,2.99-0.74c0.57-0.49,0.86-1.12,0.86-1.88c0-0.74-0.25-1.37-0.75-1.89c-0.5-0.52-1.43-0.78-2.81-0.78h-2.09V78.52 L67.73,78.52z M93.45,87.64H81.49v-5.4l11.96-14.22h5.71v14.53h2.97v5.09h-2.97v4.43h-5.71V87.64L93.45,87.64z M93.45,82.55v-7.46 l-6.31,7.46H93.45L93.45,82.55z M97.79,57h9.93c4.16,0,7.56,3.41,7.56,7.56v31.42c0,4.15-3.41,7.56-7.56,7.56h-9.93v13.55 c0,1.61-0.65,3.04-1.7,4.1c-1.06,1.06-2.49,1.7-4.1,1.7c-29.44,0-56.59,0-86.18,0c-1.61,0-3.04-0.64-4.1-1.7 c-1.06-1.06-1.7-2.49-1.7-4.1V5.85c0-1.61,0.65-3.04,1.7-4.1c1.06-1.06,2.53-1.7,4.1-1.7h58.72C64.66,0,64.8,0,64.94,0 c0.64,0,1.29,0.28,1.75,0.69h0.09c0.09,0.05,0.14,0.09,0.23,0.18l29.99,30.36c0.51,0.51,0.88,1.2,0.88,1.98 c0,0.23-0.05,0.41-0.09,0.65V57L97.79,57z M67.52,27.97V8.94l21.43,21.7H70.19c-0.74,0-1.38-0.32-1.89-0.78 C67.84,29.4,67.52,28.71,67.52,27.97L67.52,27.97z"/></g></svg>