<?xml version="1.0" encoding="utf-8"?><svg version="1.1" id="Layer_1" xmlns="http://www.w3.org/2000/svg" xmlns:xlink="http://www.w3.org/1999/xlink" x="0px" y="0px" viewBox="0 0 115.28 122.88" style="enable-background:new 0 0 115.28 122.88" xml:space="preserve"><style type="text/css">.st0{fill-rule:evenodd;clip-rule:evenodd;}</style><g><path class="st0" d="M22.18,57h68.07V37.34H69.59c-2.17,0-5.19-1.17-6.62-2.6c-1.43-1.43-2.3-4.01-2.3-6.17V7.64l0,0H8.15 c-0.18,0-0.32,0.09-0.41,0.18C7.59,7.92,7.55,8.05,7.55,8.24v106.45c0,0.14,0.09,0.32,0.18,0.41c0.09,0.14,0.28,0.18,0.41,0.18 c22.78,0,58.09,0,81.51,0c0.18,0,0.17-0.09,0.27-0.18c0.14-0.09,0.33-0.28,0.33-0.41v-11.16H22.18c-4.14,0-7.56-3.4-7.56-7.56 V64.55C14.62,60.4,18.02,57,22.18,57L22.18,57z M26.8,70.83h7.65l2.91,11.42l2.92-11.42h7.62V89.6h-4.75V75.29L39.5,89.6h-4.3 l-3.65-14.31V89.6H26.8V70.83L26.8,70.83z M50.31,70.83h9.65c2.1,0,3.67,0.5,4.72,1.5c1.04,1,1.57,2.43,1.57,4.27 c0,1.9-0.57,3.38-1.71,4.45c-1.14,1.07-2.88,1.6-5.23,1.6h-3.18v6.95h-5.82V70.83L50.31,70.83z M56.13,78.86h1.43 c1.13,0,1.92-0.2,2.37-0.59c0.45-0.39,0.68-0.89,0.68-1.49c0-0.59-0.2-1.09-0.59-1.5c-0.39-0.41-1.14-0.62-2.23-0.62h-1.66V78.86 L56.13,78.86z M68.01,70.83h15.52v4.01h-9.7v2.99h8.99v3.83h-8.99v3.7h9.99v4.25H68.01V70.83L68.01,70.83z M95.11,82.81v-3.91h8.97 v7.98c-1.72,1.17-3.23,1.97-4.55,2.39c-1.32,0.42-2.88,0.63-4.69,0.63c-2.23,0-4.05-0.38-5.45-1.14c-1.4-0.76-2.49-1.89-3.26-3.39 c-0.77-1.5-1.16-3.22-1.16-5.17c0-2.05,0.42-3.83,1.27-5.34c0.84-1.51,2.08-2.66,3.71-3.45c1.27-0.61,2.98-0.91,5.13-0.91 c2.07,0,3.62,0.19,4.65,0.56c1.03,0.38,1.88,0.96,2.56,1.75c0.68,0.79,1.19,1.79,1.53,3l-5.58,1c-0.23-0.71-0.62-1.26-1.17-1.63 c-0.55-0.38-1.25-0.57-2.11-0.57c-1.27,0-2.28,0.44-3.04,1.32c-0.76,0.88-1.13,2.28-1.13,4.19c0,2.03,0.38,3.48,1.14,4.35 c0.76,0.87,1.83,1.31,3.19,1.31c0.65,0,1.26-0.09,1.85-0.28c0.59-0.19,1.26-0.51,2.02-0.95v-1.76H95.11L95.11,82.81z M97.79,57 h9.93c4.16,0,7.56,3.41,7.56,7.56v31.42c0,4.15-3.41,7.56-7.56,7.56h-9.93v13.55c0,1.61-0.65,3.04-1.7,4.1 c-1.06,1.06-2.49,1.7-4.1,1.7c-29.44,0-56.59,0-86.18,0c-1.61,0-3.04-0.64-4.1-1.7c-1.06-1.06-1.7-2.49-1.7-4.1V5.85 c0-1.61,0.65-3.04,1.7-4.1c1.06-1.06,2.53-1.7,4.1-1.7h58.72C64.66,0,64.8,0,64.94,0c0.64,0,1.29,0.28,1.75,0.69h0.09 c0.09,0.05,0.14,0.09,0.23,0.18l29.99,30.36c0.51,0.51,0.88,1.2,0.88,1.98c0,0.23-0.05,0.41-0.09,0.65V57L97.79,57z M67.52,27.97 V8.94l21.43,21.7H70.19c-0.74,0-1.38-0.32-1.89-0.78C67.84,29.4,67.52,28.71,67.52,27.97L67.52,27.97z"/></g></svg>