<?xml version="1.0" encoding="utf-8"?><svg version="1.1" id="Layer_1" xmlns="http://www.w3.org/2000/svg" xmlns:xlink="http://www.w3.org/1999/xlink" x="0px" y="0px" viewBox="0 0 115.28 122.88" style="enable-background:new 0 0 115.28 122.88" xml:space="preserve"><style type="text/css">.st0{fill-rule:evenodd;clip-rule:evenodd;}</style><g><path class="st0" d="M25.38,57h64.88V37.34H69.59c-2.17,0-5.19-1.17-6.62-2.6c-1.43-1.43-2.3-4.01-2.3-6.17V7.64l0,0H8.15 c-0.18,0-0.32,0.09-0.41,0.18C7.59,7.92,7.55,8.05,7.55,8.24v106.45c0,0.14,0.09,0.32,0.18,0.41c0.09,0.14,0.28,0.18,0.41,0.18 c22.78,0,58.09,0,81.51,0c0.18,0,0.17-0.09,0.27-0.18c0.14-0.09,0.33-0.28,0.33-0.41v-11.16H25.38c-4.14,0-7.56-3.4-7.56-7.56 V64.55C17.82,60.4,21.22,57,25.38,57L25.38,57z M30.65,69.55h8.73l3.32,13.03l3.33-13.03h8.69v21.41H49.3V74.64l-4.18,16.32h-4.9 l-4.17-16.32v16.32h-5.41V69.55L30.65,69.55z M58.95,69.55h11c2.4,0,4.19,0.57,5.39,1.71c1.19,1.14,1.79,2.77,1.79,4.87 c0,2.16-0.65,3.86-1.95,5.07c-1.3,1.22-3.29,1.83-5.96,1.83h-3.63v7.92h-6.64V69.55L58.95,69.55z M65.59,78.7h1.63 c1.29,0,2.19-0.22,2.71-0.67c0.52-0.44,0.78-1.01,0.78-1.7c0-0.67-0.22-1.24-0.68-1.71c-0.45-0.47-1.3-0.7-2.54-0.7h-1.89V78.7 L65.59,78.7z M91.39,83.22v-4.46h10.23v9.1c-1.96,1.34-3.69,2.25-5.19,2.73c-1.5,0.48-3.29,0.72-5.35,0.72 c-2.54,0-4.61-0.43-6.21-1.3c-1.6-0.86-2.84-2.15-3.72-3.87c-0.88-1.71-1.32-3.68-1.32-5.9c0-2.34,0.48-4.37,1.45-6.09 c0.96-1.72,2.37-3.03,4.23-3.93c1.45-0.69,3.4-1.04,5.86-1.04c2.36,0,4.13,0.21,5.3,0.64c1.18,0.43,2.15,1.09,2.92,1.99 c0.77,0.9,1.36,2.04,1.74,3.42l-6.37,1.15c-0.26-0.81-0.71-1.44-1.34-1.86c-0.63-0.43-1.43-0.65-2.4-0.65 c-1.45,0-2.6,0.5-3.46,1.51c-0.86,1.01-1.29,2.6-1.29,4.78c0,2.31,0.43,3.97,1.31,4.96c0.87,0.99,2.08,1.49,3.64,1.49 c0.74,0,1.44-0.1,2.11-0.32c0.67-0.21,1.44-0.58,2.3-1.09v-2H91.39L91.39,83.22z M97.79,57h9.93c4.16,0,7.56,3.41,7.56,7.56v31.42 c0,4.15-3.41,7.56-7.56,7.56h-9.93v13.55c0,1.61-0.65,3.04-1.7,4.1c-1.06,1.06-2.49,1.7-4.1,1.7c-29.44,0-56.59,0-86.18,0 c-1.61,0-3.04-0.64-4.1-1.7c-1.06-1.06-1.7-2.49-1.7-4.1V5.85c0-1.61,0.65-3.04,1.7-4.1c1.06-1.06,2.53-1.7,4.1-1.7h58.72 C64.66,0,64.8,0,64.94,0c0.64,0,1.29,0.28,1.75,0.69h0.09c0.09,0.05,0.14,0.09,0.23,0.18l29.99,30.36c0.51,0.51,0.88,1.2,0.88,1.98 c0,0.23-0.05,0.41-0.09,0.65V57L97.79,57z M67.52,27.97V8.94l21.43,21.7H70.19c-0.74,0-1.38-0.32-1.89-0.78 C67.84,29.4,67.52,28.71,67.52,27.97L67.52,27.97z"/></g></svg>