<svg id="Layer_1" data-name="Layer 1" xmlns="http://www.w3.org/2000/svg" viewBox="0 0 122.88 95.94"><title>mrp</title><path d="M115.31,0a7.63,7.63,0,0,1,5.35,2.23h0a7.82,7.82,0,0,1,2.22,5.34V88.35c0,2-.49,4.34-2.22,5.36h0a7.59,7.59,0,0,1-5.34,2.23H7.56a7.59,7.59,0,0,1-5.34-2.23h0C.49,92.69,0,90.36,0,88.35V7.57A7.8,7.8,0,0,1,2.22,2.23h0A7.63,7.63,0,0,1,7.57,0ZM28.88,75.75H20.34L21.89,50.2H32.56l3.19,13H36l3.19-13H49.89l1.56,25.55H42.9l-.49-12.39h-.28L39,75.75H32.76L29.62,63.36h-.25l-.49,12.39Zm48.52,0h-9l-3.35-7.6H63.3v7.6H55.12V50.2H68q8.79,0,8.79,8.95,0,6.13-3.8,8.1l4.41,8.5Zm-14.1-19v5.11h1.88a5.67,5.67,0,0,0,2.15-.3c.45-.21.67-.68.67-1.41V58.46c0-.74-.22-1.21-.67-1.41a5.44,5.44,0,0,0-2.15-.31ZM94.37,69.58H89.05v6.17H80.88V50.2H93.75q8.79,0,8.79,9.45,0,5.19-2.29,7.68a6.65,6.65,0,0,1-2.37,1.59,8.72,8.72,0,0,1-3.51.66ZM89.05,56.74V63h1.88a5.44,5.44,0,0,0,2.15-.31c.45-.2.67-.67.67-1.41V58.46c0-.74-.22-1.21-.67-1.41a5.44,5.44,0,0,0-2.15-.31ZM111.9,87.69a2.8,2.8,0,0,0,2.78-2.79V11a2.8,2.8,0,0,0-2.8-2.81H77.38v29.1l-16-8-16,8V8.21H11A2.81,2.81,0,0,0,8.2,11V84.9A2.8,2.8,0,0,0,11,87.69Z"/></svg>