<?xml version="1.0" encoding="utf-8"?><svg version="1.1" id="Layer_1" xmlns="http://www.w3.org/2000/svg" xmlns:xlink="http://www.w3.org/1999/xlink" x="0px" y="0px" viewBox="0 0 115.28 122.88" style="enable-background:new 0 0 115.28 122.88" xml:space="preserve"><style type="text/css">.st0{fill-rule:evenodd;clip-rule:evenodd;}</style><g><path class="st0" d="M25.38,57h64.88V37.34H69.59c-2.17,0-5.19-1.17-6.62-2.6c-1.43-1.43-2.3-4.01-2.3-6.17V7.64l0,0H8.15 c-0.18,0-0.32,0.09-0.41,0.18C7.59,7.92,7.55,8.05,7.55,8.24v106.45c0,0.14,0.09,0.32,0.18,0.41c0.09,0.14,0.28,0.18,0.41,0.18 c22.78,0,58.09,0,81.51,0c0.18,0,0.17-0.09,0.27-0.18c0.14-0.09,0.33-0.28,0.33-0.41v-11.16H25.38c-4.14,0-7.56-3.4-7.56-7.56 V64.55C17.82,60.4,21.22,57,25.38,57L25.38,57z M32.95,67.79h10.23l3.9,15.27l3.91-15.27h10.18v25.1h-6.34V73.75l-4.9,19.13h-5.75 L39.3,73.75v19.13h-6.34V67.79L32.95,67.79z M64.84,84.59l7.36-0.46c0.16,1.19,0.48,2.1,0.98,2.72c0.8,1.01,1.94,1.52,3.42,1.52 c1.1,0,1.96-0.26,2.55-0.78c0.6-0.52,0.9-1.12,0.9-1.81c0-0.65-0.28-1.23-0.85-1.75c-0.57-0.51-1.89-0.99-3.96-1.45 c-3.4-0.76-5.82-1.78-7.27-3.04c-1.46-1.26-2.19-2.87-2.19-4.84c0-1.29,0.37-2.5,1.12-3.65c0.75-1.15,1.87-2.05,3.37-2.7 c1.5-0.65,3.56-0.98,6.17-0.98c3.21,0,5.65,0.6,7.33,1.79c1.68,1.19,2.68,3.09,3,5.7l-7.29,0.43c-0.19-1.14-0.6-1.97-1.22-2.48 c-0.63-0.52-1.48-0.78-2.58-0.78c-0.9,0-1.58,0.19-2.04,0.57c-0.46,0.38-0.68,0.85-0.68,1.4c0,0.4,0.19,0.75,0.56,1.07 c0.36,0.33,1.22,0.64,2.59,0.92c3.39,0.73,5.81,1.47,7.27,2.22c1.47,0.75,2.54,1.67,3.2,2.78c0.67,1.1,1,2.34,1,3.72 c0,1.61-0.44,3.09-1.33,4.45c-0.89,1.36-2.13,2.39-3.73,3.09c-1.59,0.7-3.6,1.05-6.03,1.05c-4.26,0-7.22-0.82-8.86-2.47 C65.98,89.2,65.05,87.11,64.84,84.59L64.84,84.59z M91.86,67.79h7.78v25.1h-7.78V67.79L91.86,67.79z M97.79,57h9.93 c4.16,0,7.56,3.41,7.56,7.56v31.42c0,4.15-3.41,7.56-7.56,7.56h-9.93v13.55c0,1.61-0.65,3.04-1.7,4.1c-1.06,1.06-2.49,1.7-4.1,1.7 c-29.44,0-56.59,0-86.18,0c-1.61,0-3.04-0.64-4.1-1.7c-1.06-1.06-1.7-2.49-1.7-4.1V5.85c0-1.61,0.65-3.04,1.7-4.1 c1.06-1.06,2.53-1.7,4.1-1.7h58.72C64.66,0,64.8,0,64.94,0c0.64,0,1.29,0.28,1.75,0.69h0.09c0.09,0.05,0.14,0.09,0.23,0.18 l29.99,30.36c0.51,0.51,0.88,1.2,0.88,1.98c0,0.23-0.05,0.41-0.09,0.65V57L97.79,57z M67.52,27.97V8.94l21.43,21.7H70.19 c-0.74,0-1.38-0.32-1.89-0.78C67.84,29.4,67.52,28.71,67.52,27.97L67.52,27.97z"/></g></svg>