<svg id="Layer_1" data-name="Layer 1" xmlns="http://www.w3.org/2000/svg" viewBox="0 0 122.88 61.63"><defs><style>.cls-1{fill:red;}.cls-2{fill:#fff;}</style></defs><title>mts-mobile</title><polygon class="cls-1" points="0 61.63 61.63 61.63 61.63 0 0 0 0 61.63 0 61.63"/><polygon class="cls-1" points="122.88 61.63 61.25 61.63 61.25 0 122.88 0 122.88 61.63 122.88 61.63"/><path class="cls-2" d="M30.82,6.33c8.76,0,18.11,15.66,18.11,29.22,0,10.65-6.26,19.74-18.11,19.74S12.71,46.2,12.71,35.55C12.71,22,22.06,6.33,30.82,6.33Z"/><polygon class="cls-2" points="65.76 23.37 72.25 23.37 74.37 32.07 74.41 32.07 76.53 23.37 83.01 23.37 83.01 38.16 78.7 38.16 78.7 28.66 78.66 28.66 76.09 38.16 72.69 38.16 70.12 28.66 70.08 28.66 70.08 38.16 65.76 38.16 65.76 23.37 65.76 23.37"/><polygon class="cls-2" points="89.64 27.16 85.5 27.16 85.5 23.37 98.35 23.37 98.35 27.16 94.2 27.16 94.2 38.16 89.64 38.16 89.64 27.16 89.64 27.16 89.64 27.16"/><path class="cls-2" d="M104.42,33.19a2.8,2.8,0,0,0,.17,1,2.1,2.1,0,0,0,2.17,1.08c.75,0,1.89-.25,1.89-1.35,0-.76-.64-1-3.19-1.7-2.34-.66-5-1.3-5-4.29,0-3.41,2.93-4.89,6-4.89,3.21,0,6,1.23,6.18,4.83h-4.31a1.14,1.14,0,0,0-.54-1.18,2.37,2.37,0,0,0-1.35-.37c-.62,0-1.64.16-1.64,1,.09,1.06,2.2,1.29,4.29,1.87s4.17,1.55,4.17,4.27c0,3.85-3.54,5.09-6.84,5.09-1.68,0-6.46-.6-6.51-5.32Z"/></svg>