<?xml version="1.0" encoding="utf-8"?><svg version="1.1" id="Layer_1" xmlns="http://www.w3.org/2000/svg" xmlns:xlink="http://www.w3.org/1999/xlink" x="0px" y="0px" viewBox="0 0 122.9 96.7" style="enable-background:new 0 0 122.9 96.7" xml:space="preserve"><g><path d="M6,0h77.2c1.6,0,3.1,0.7,4.2,1.8l0,0l0,0c1.1,1.1,1.8,2.6,1.8,4.2v8.1c9,0.4,17.2,4,23.2,9.6c6.5,6,10.5,14.2,10.5,23.4 c0,9.1-4,17.4-10.5,23.4c-6,5.6-14.2,9.1-23.2,9.6v0.6c0,4.4-1.8,8.4-4.7,11.4l0,0c-2.9,2.9-6.9,4.7-11.4,4.7h-57 c-4.4,0-8.5-1.8-11.4-4.7l-0.3-0.3C1.7,88.8,0,84.9,0,80.6V6c0-1.6,0.7-3.1,1.8-4.2l0,0C2.9,0.7,4.4,0,6,0L6,0z M89.2,22.4v49.3 c6.7-0.4,12.8-3.1,17.2-7.2c4.8-4.5,7.8-10.6,7.8-17.4c0-6.8-3-13-7.8-17.4C102,25.5,95.9,22.9,89.2,22.4L89.2,22.4z M80.5,8.7H8.7 v71.9c0,2,0.8,3.7,2,5.1l0.2,0.2c1.3,1.3,3.2,2.2,5.2,2.2h57c2,0,3.9-0.8,5.2-2.2l0,0c1.3-1.3,2.2-3.2,2.2-5.2V8.7L80.5,8.7z"/></g></svg>