<?xml version="1.0" encoding="utf-8"?><svg version="1.1" id="Layer_1" xmlns="http://www.w3.org/2000/svg" xmlns:xlink="http://www.w3.org/1999/xlink" x="0px" y="0px" viewBox="0 0 122.88 122.88" style="enable-background:new 0 0 122.88 122.88" xml:space="preserve"><style type="text/css">.st0{fill:#FF0F50;}</style><g><path class="st0" d="M61.44,0C27.51,0,0,27.51,0,61.44s27.51,61.44,61.44,61.44s61.44-27.51,61.44-61.44S95.37,0,61.44,0L61.44,0z M95.57,72.71l-0.36,0.15v0.17H81.61c-4.5-0.01-8.14-3.65-8.14-8.14v-9.13c0-1.06-0.86-1.93-1.93-1.93h0 c-1.06,0-1.93,0.86-1.93,1.93V78.1c0,4.5-3.65,8.14-8.14,8.14c-4.5,0-8.14-3.65-8.14-8.14V44.78c0-1.06-0.86-1.93-1.93-1.93 c-1.06,0-1.93,0.86-1.93,1.93v20.13c-0.01,4.49-3.65,8.13-8.14,8.13l-13.68,0L27.3,72.7v-5.52l0.35-0.34h13.64h0 c1.06,0,1.93-0.86,1.93-1.93V44.78c0-4.5,3.65-8.14,8.14-8.14c4.5,0,8.14,3.65,8.14,8.14v33.33c0,1.06,0.86,1.93,1.93,1.93 c1.06,0,1.93-0.86,1.93-1.93V55.77c0-4.5,3.65-8.14,8.14-8.14c4.5,0,8.14,3.65,8.14,8.14v9.14c0,1.06,0.86,1.93,1.93,1.93h13.61 v0.15l0.36,0.17L95.57,72.71L95.57,72.71z"/></g></svg>