<?xml version="1.0" encoding="utf-8"?><svg version="1.1" id="Layer_1" xmlns="http://www.w3.org/2000/svg" xmlns:xlink="http://www.w3.org/1999/xlink" x="0px" y="0px" viewBox="0 0 58.04 122.88" style="enable-background:new 0 0 58.04 122.88" xml:space="preserve"><g><path d="M4.04,122.88H0V46.75c0-4.96,0.01,0.31,0.01-1.46c-0.02-9.94-0.03-17.92,7.16-26.72c0.13-0.16,0.27-0.29,0.43-0.4v-2.86 c0-7.46,5.64-12.17,12.88-14.19c2.7-0.75,5.64-1.13,8.58-1.12c2.95,0.01,5.89,0.39,8.61,1.15c7.38,2.07,13.17,6.88,13.17,14.45 v2.93c0.05,0.05,0.1,0.1,0.14,0.15c7.16,8.61,7.12,16.3,7.06,25.91c0,0.07,0,0.1,0,2.45v75.84h-4.04V47.04 c0-0.68,0.01-0.92,0.02-2.46c0.04-7.1,0.07-13.05-3.18-19.02V26c0,15.53-5.49,25.4-12.53,29.77c-2.84,1.76-5.94,2.64-9.05,2.64 c-3.11,0-6.2-0.88-9.04-2.62C13.13,51.45,7.59,41.71,7.59,26.83v-1.81C4,31.35,4.01,37.7,4.03,45.29c0,2.74,0.01-2.51,0.01,1.46 V122.88L4.04,122.88z M47.29,26V15.6c0-5.69-4.65-9.39-10.59-11.06c-2.42-0.68-5.04-1.02-7.65-1.03c-2.62-0.01-5.23,0.33-7.64,1 c-5.79,1.61-10.29,5.22-10.29,10.79v11.52c0,13.5,4.79,22.19,10.92,25.95c2.29,1.4,4.75,2.11,7.2,2.11c2.45,0,4.91-0.7,7.18-2.11 C42.53,48.99,47.29,40.15,47.29,26L47.29,26z M17.48,96.71c-0.92-0.31-1.42-1.31-1.11-2.23c0.31-0.92,1.31-1.42,2.23-1.11 c4.7,1.58,7.59,2.28,10.4,2.24c2.8-0.04,5.74-0.84,10.49-2.26c0.93-0.28,1.92,0.25,2.19,1.19c0.28,0.93-0.25,1.92-1.19,2.19 c-5.03,1.5-8.17,2.35-11.46,2.4C25.76,99.18,22.56,98.42,17.48,96.71L17.48,96.71z M13.79,86.47c-0.92-0.31-1.42-1.31-1.11-2.23 c0.31-0.92,1.31-1.42,2.23-1.11c4.7,1.58,9.4,2.28,14.1,2.24c4.71-0.05,9.43-0.84,14.18-2.26c0.93-0.28,1.92,0.25,2.19,1.19 s-0.25,1.92-1.19,2.19c-5.03,1.5-10.09,2.35-15.16,2.4C23.95,88.94,18.86,88.18,13.79,86.47L13.79,86.47z"/></g></svg>