<svg xmlns="http://www.w3.org/2000/svg" viewBox="0 0 122.88 74.81"><defs><style>.a{fill:#fff;}.b{fill:#645faa;}.c{fill:#c9234a;}.d{fill:#0089cf;}.e{fill:#f36f21;}.f{fill:#0db14b;}.g{fill:#fdb913;}</style></defs><title>nbc</title><path class="a" d="M61.29,8.15a17.44,17.44,0,0,1,7.53-6.88,16,16,0,0,1,16.43,2.4,15.58,15.58,0,0,1,5.21,14.54,26.92,26.92,0,0,0,3.1-1.2,15.56,15.56,0,0,1,19.25,20.31,16.69,16.69,0,0,1-4.51,6.33l.2.21a15.79,15.79,0,0,1,13.58,10.55,15.46,15.46,0,0,1-3.94,16c-3.41,3.37-7.78,4.53-12.65,4.44H17.09C9.83,75,4.22,71.75,1.2,65.29A15.48,15.48,0,0,1,4.42,48.44c2.79-2.91,6.29-4.11,10.06-4.71A15.91,15.91,0,0,1,9.35,28.55a15.6,15.6,0,0,1,9.48-11.12,16.12,16.12,0,0,1,13.28.86l.14-.17c-1.12-6.4,1.72-12.18,7-15.72C44-.81,51.59-.73,56.23,2.68a16.85,16.85,0,0,1,5.06,5.47Z"/><path class="b" d="M86.32,10.55c1.9,3.83.78,8.85-1.2,12.29L69.78,57.35l-.13.16-5.55-35c-.44-3.36,3.15-4.79,5.26-6.41-.11-.49-.65-.47-1-.7l-5.18-.05L63,15.18A11.89,11.89,0,0,1,69.36,4.71,12.31,12.31,0,0,1,82.92,6a12.58,12.58,0,0,1,3.4,4.51Z"/><path class="c" d="M58.06,9.35a12.41,12.41,0,0,1,1.54,7.87L53.34,57.3c0,.05,0,.1-.07.12L51.65,54.2,36,19.19A12.15,12.15,0,0,1,52.22,4.3a13,13,0,0,1,5.84,5.05Z"/><path class="d" d="M109,26.22c2.11,3.6,1.64,9-.71,12.38-1.45,2.34-3.85,3.51-5.88,5L69.93,65.94h-.08l.37-1.06L87.43,26a12.44,12.44,0,0,1,12.71-6.21A12.57,12.57,0,0,1,109,26.22Z"/><path class="e" d="M35.22,26,53.13,65.94h-.28L16.73,41a11.89,11.89,0,0,1-3.94-12.42,12.44,12.44,0,0,1,7.32-8.1A12.38,12.38,0,0,1,35.22,26Z"/><path class="f" d="M118.43,54.41A12.32,12.32,0,0,1,117,66.65a12.16,12.16,0,0,1-10,4.68l-38.52,0,32.27-22.45a12.44,12.44,0,0,1,11.38-.75,12.59,12.59,0,0,1,6.33,6.25Z"/><path class="g" d="M4.38,54.41A12.3,12.3,0,0,0,5.87,66.65a12.13,12.13,0,0,0,10,4.68l38.52,0L22.09,48.91a12.44,12.44,0,0,0-11.38-.75,12.59,12.59,0,0,0-6.33,6.25Z"/></svg>