<?xml version="1.0" encoding="utf-8"?><svg version="1.1" id="Layer_1" xmlns="http://www.w3.org/2000/svg" xmlns:xlink="http://www.w3.org/1999/xlink" x="0px" y="0px" viewBox="0 0 121.75 122.88" style="enable-background:new 0 0 121.75 122.88" xml:space="preserve"><g><path d="M12.96,20.77c3.4-1.05,6.41-1.79,9.12-2.45C31.62,16,36.99,14.69,42.74,1.57c0.43-0.98,1.38-1.57,2.39-1.57V0h31.91 c1.19,0,2.2,0.8,2.51,1.89c1.23,3.43,2.69,6.45,4.49,8.93c1.69,2.33,3.68,4.18,6.06,5.44l22.83,5.97c0.25,0.07,0.49,0.17,0.7,0.3 c11.43,6.98,8.26,19.98,5.52,31.24c-0.41,1.7-0.82,3.37-1.17,5.01c-2.33,11.09-5.3,21.92-9.08,32.42 c-3.78,10.5-8.38,20.66-13.97,30.38c-0.48,0.84-1.36,1.31-2.26,1.31v0.01H28.86c-1.03,0-1.93-0.6-2.35-1.47 c-3.79-6.56-7.28-13.3-10.4-20.25c-3.15-7.01-5.92-14.19-8.23-21.58c-1.55-4.93-2.9-10-4.06-15.23c-1.14-5.19-2.07-10.48-2.76-15.9 l-0.18-1.37C-0.57,35.98-2.13,23.98,12.96,20.77L12.96,20.77z M60.88,57.46c1.67,0,3.02,1.35,3.02,3.02c0,1.67-1.35,3.02-3.02,3.02 c-1.67,0-3.02-1.35-3.02-3.02C57.86,58.81,59.21,57.46,60.88,57.46L60.88,57.46z M44.89,58.84l9.74-9.74 c-6.24-1.15-11.9-3.94-16.52-7.91c-5.56-4.78-9.61-11.28-11.33-18.66c-1.1,0.29-2.26,0.57-3.47,0.86c-2.64,0.64-5.57,1.36-8.9,2.39 c-0.08,0.02-0.16,0.04-0.24,0.06C3.65,28.01,4.9,37.57,6.05,46.41l0.18,1.39c0.67,5.25,1.57,10.39,2.68,15.43 c1.1,4.99,2.43,9.92,3.96,14.8c2.27,7.22,4.95,14.22,8.01,21.01c2.85,6.34,6.04,12.54,9.5,18.62h60.81 c5.1-9.04,9.32-18.47,12.83-28.22c3.68-10.23,6.58-20.83,8.88-31.72c0.34-1.61,0.77-3.37,1.21-5.17c2.3-9.43,4.94-20.29-2.87-25.37 l-16.09-4.2c-1.84,7.48-6.08,14.01-11.85,18.75c-4.56,3.74-10.08,6.36-16.12,7.43l9.7,9.7c0.9,0.9,0.9,2.36,0,3.26L62.51,76.46 c-0.9,0.9-2.36,0.9-3.26,0L44.89,62.1C43.99,61.2,43.99,59.74,44.89,58.84L44.89,58.84z M79.97,37.68 c4.93-4.05,8.55-9.64,10.11-16.04l-1.41-0.37c-0.24-0.04-0.48-0.12-0.71-0.24c-3.26-1.66-5.92-4.09-8.14-7.14 c-1.81-2.5-3.31-5.41-4.58-8.65H46.81C42.21,15.1,37.77,18.77,31.78,21c1.41,6.43,4.9,12.08,9.71,16.22 C51.86,46.96,69.02,47.16,79.97,37.68L79.97,37.68z M60.58,49.67l-10.8,10.8l11.1,11.1l11.1-11.1l-10.8-10.8l-0.17,0 C60.86,49.68,60.72,49.68,60.58,49.67L60.58,49.67z"/></g></svg>