<svg id="Layer_1" data-name="Layer 1" xmlns="http://www.w3.org/2000/svg" viewBox="0 0 122.88 120.76"><defs><style>.cls-1{fill:#ef4136;}.cls-2{fill:#1a1a1a;}</style></defs><title>nine-weeks</title><path class="cls-1" d="M34,84.72h6.22l-2.91,18.59H29.51l-1.37-6.84h-.35l-1.34,6.84H18.69L15.77,84.72H22l1.4,10.38h.17l2.15-10.38h4.55L32.37,95.1h.18L34,84.72ZM53.8,96.29H47.85v2.26h7.29v4.76H41.9V84.72H55l-.74,4.76h-6.4V92H53.8v4.31Zm16,0h-6v2.26h7.29v4.76H57.89V84.72H71l-.74,4.76h-6.4V92h6v4.31Zm10-1.07v8.09h-6V84.72h6v7.59H80a4.25,4.25,0,0,1,.3-1.43l2.91-6.16h6.43l-4.46,9.14,4.6,9.45H83.31l-3.06-6.66a4.25,4.25,0,0,1-.3-1.43ZM91,103l.83-4.91a20.88,20.88,0,0,0,4.93.68,29.85,29.85,0,0,0,3.52-.17V97.1l-2.68-.24q-3.63-.33-5-1.74a5.84,5.84,0,0,1-1.35-4.18q0-3.81,1.65-5.23c1.1-1,3-1.43,5.6-1.43a31.77,31.77,0,0,1,7.14.74l-.74,4.76a29,29,0,0,0-4.43-.45,22.67,22.67,0,0,0-2.83.15v1.46l2.14.21q3.9.39,5.39,1.86a5.49,5.49,0,0,1,1.49,4.09,8.61,8.61,0,0,1-.51,3.16,5.54,5.54,0,0,1-1.2,2,4.52,4.52,0,0,1-2,1,11,11,0,0,1-2.25.43c-.64.06-1.5.08-2.57.08A31.72,31.72,0,0,1,91,103Z"/><path class="cls-2" d="M82.69,4.21C82.69,1.87,85,0,87.84,0S93,1.91,93,4.21v18.5c0,2.34-2.3,4.21-5.16,4.21s-5.15-1.9-5.15-4.21V4.21ZM58.31,44.8V49h2.12a4.64,4.64,0,0,0,2.37-.44c.44-.3.67-1,.67-2.06V42.29H61.36a4.54,4.54,0,0,0-2.38.45c-.44.3-.67,1-.67,2.06Zm5.16,13.73-2.58-.07q-8.25-.18-11-3.34-2.62-2.92-2.63-9,0-7.87,4.08-10.56a12.18,12.18,0,0,1,4.25-1.79,25.06,25.06,0,0,1,5.33-.48q7.78,0,10.72,4.65t2.94,14.9q0,10.23-2.94,14.89T61.3,72.37a50.38,50.38,0,0,1-13.09-1.55L49.66,61a31,31,0,0,0,8.14,1.37A39.29,39.29,0,0,0,63.47,62V58.53ZM29.67,4.21C29.67,1.87,32,0,34.83,0S40,1.91,40,4.21v18.5c0,2.34-2.3,4.21-5.16,4.21s-5.16-1.9-5.16-4.21V4.21ZM6.76,111.3a2.66,2.66,0,0,0,.76,1.87,2.56,2.56,0,0,0,1.87.75h104a2.65,2.65,0,0,0,1.86-.75,2.56,2.56,0,0,0,.75-1.87v-91a2.56,2.56,0,0,0-2.57-2.58h-8.33c-1.59,0-2.86-2.35-2.86-3.94a2.85,2.85,0,0,1,2.86-2.86h9.41a8.4,8.4,0,0,1,8.34,8.34v93.2a8.38,8.38,0,0,1-8.34,8.34H8.34a8.28,8.28,0,0,1-5.88-2.45A8.37,8.37,0,0,1,0,112.42V19.22a8.29,8.29,0,0,1,2.46-5.88,8.35,8.35,0,0,1,5.88-2.46H18.43a2.85,2.85,0,0,1,2.86,2.86c0,1.59-1.27,3.94-2.86,3.94h-9a2.69,2.69,0,0,0-1.87.75A2.59,2.59,0,0,0,6.8,20.3c0,28.81,0,62.06,0,91ZM51.55,17.64c-1.59,0-2.86-2.35-2.86-3.94a2.85,2.85,0,0,1,2.86-2.86H70.77a2.84,2.84,0,0,1,2.85,2.86c0,1.59-1.26,3.94-2.85,3.94Z"/></svg>