<?xml version="1.0" encoding="utf-8"?><svg version="1.1" id="Layer_1" xmlns="http://www.w3.org/2000/svg" xmlns:xlink="http://www.w3.org/1999/xlink" x="0px" y="0px" viewBox="0 0 116.58 122.88" style="enable-background:new 0 0 116.58 122.88" xml:space="preserve"><style type="text/css">.st0{fill:#393939;} .st1{fill:#D8453E;}</style><g><path class="st0" d="M58.3,122.88c-8.03,0-15.5-1.43-22.38-4.28c-6.9-2.86-13.18-7.13-18.84-12.78 c-5.66-5.68-9.92-11.96-12.79-18.85C1.43,80.08,0,72.61,0,64.58c0-8.03,1.43-15.49,4.28-22.38c2.86-6.9,7.13-13.18,12.78-18.85 c5.66-5.66,11.94-9.93,18.84-12.78C39.86,8.94,44,7.77,48.33,7.07V0h19.93v7.07c4.33,0.7,8.47,1.87,12.42,3.51 c6.9,2.86,13.18,7.12,18.84,12.78c5.67,5.66,9.93,11.95,12.78,18.85c2.86,6.89,4.28,14.35,4.28,22.38c0,8-1.42,15.45-4.28,22.34 c-2.86,6.89-7.12,13.17-12.79,18.85c-5.68,5.69-11.96,9.96-18.83,12.82C73.8,121.45,66.33,122.88,58.3,122.88L58.3,122.88 L58.3,122.88L58.3,122.88z M35.12,16.4l3.18,5.51c-2.44,1.14-4.76,2.49-6.95,4.02l-3.14-5.45c-2.64,1.85-5.17,3.99-7.59,6.41 c-2.42,2.42-4.56,4.95-6.42,7.59l5.44,3.14c-1.53,2.19-2.88,4.51-4.02,6.95l-5.5-3.18c-0.44,0.88-0.83,1.78-1.22,2.7 c-2.12,5.1-3.37,10.6-3.76,16.47h6.2c-0.11,1.32-0.17,2.66-0.17,4.01c0,1.35,0.06,2.69,0.17,4.01H5.14 c0.39,5.87,1.64,11.37,3.76,16.47c0.38,0.91,0.78,1.8,1.22,2.7l5.51-3.18c1.14,2.44,2.49,4.76,4.02,6.94l-5.45,3.14 c1.85,2.64,3.99,5.17,6.42,7.59c2.42,2.42,4.95,4.56,7.59,6.42l3.14-5.45c2.19,1.53,4.51,2.88,6.95,4.02l-3.18,5.51 c0.88,0.43,1.78,0.84,2.7,1.22l0,0c5.11,2.12,10.6,3.37,16.47,3.75v-6.2c1.32,0.11,2.66,0.17,4.02,0.17c1.35,0,2.69-0.06,4.01-0.17 v6.2c5.86-0.39,11.36-1.64,16.46-3.75c0.91-0.38,1.81-0.79,2.7-1.22l-3.18-5.5c2.44-1.14,4.76-2.49,6.95-4.02l3.14,5.45 c2.65-1.86,5.18-3.99,7.59-6.43c2.41-2.42,4.54-4.94,6.39-7.59l-5.43-3.13c1.53-2.19,2.87-4.51,4.02-6.94l5.49,3.17 c0.44-0.9,0.86-1.81,1.24-2.73c2.12-5.1,3.37-10.58,3.76-16.42h-6.21c0.11-1.33,0.17-2.67,0.17-4.02c0-1.35-0.06-2.68-0.17-4h6.21 c-0.39-5.87-1.64-11.37-3.76-16.47c-0.38-0.91-0.78-1.81-1.22-2.7l-5.5,3.18c-1.14-2.44-2.49-4.76-4.02-6.95l5.45-3.15 c-1.85-2.64-3.99-5.17-6.41-7.59c-2.42-2.42-4.95-4.55-7.59-6.41l-3.14,5.45c-2.19-1.53-4.51-2.88-6.95-4.02l3.18-5.51 c-0.88-0.44-1.78-0.84-2.7-1.21c-5.11-2.12-10.6-3.37-16.47-3.76v6.2c-1.32-0.11-2.66-0.17-4.02-0.17c-1.35,0-2.69,0.06-4.01,0.17 v-6.21c-5.87,0.39-11.37,1.64-16.47,3.76C36.9,15.56,36,15.97,35.12,16.4L35.12,16.4L35.12,16.4z"/><path class="st1" d="M46.02,56.84l8.85-1.06c0.23,1.18,0.63,2.02,1.18,2.5c0.56,0.49,1.24,0.73,2.03,0.73 c1.43,0,2.54-0.69,3.34-2.08c0.58-1.03,1.02-3.19,1.31-6.5c-1.07,1.06-2.15,1.83-3.28,2.32c-1.12,0.5-2.41,0.74-3.89,0.74 c-2.87,0-5.29-0.99-7.26-2.95c-1.97-1.97-2.96-4.46-2.96-7.47c0-2.05,0.5-3.92,1.5-5.61c1.01-1.68,2.39-2.96,4.15-3.83 c1.76-0.86,3.97-1.29,6.64-1.29c3.2,0,5.77,0.53,7.7,1.59c1.94,1.06,3.49,2.75,4.64,5.06c1.15,2.31,1.74,5.36,1.74,9.16 c0,5.57-1.21,9.65-3.65,12.25c-2.43,2.59-5.8,3.88-10.11,3.88c-2.55,0-4.55-0.28-6.03-0.85c-1.47-0.57-2.69-1.4-3.66-2.49 C47.3,59.84,46.54,58.48,46.02,56.84L46.02,56.84z M62.41,43.05c0-1.68-0.44-2.98-1.31-3.93c-0.87-0.95-1.94-1.42-3.19-1.42 c-1.18,0-2.16,0.43-2.94,1.29c-0.78,0.86-1.17,2.14-1.17,3.86c0,1.73,0.4,3.05,1.21,3.96c0.8,0.91,1.82,1.37,3.02,1.37 c1.25,0,2.29-0.45,3.13-1.33C61.99,45.96,62.41,44.7,62.41,43.05L62.41,43.05z"/><path class="st1" d="M30.94,73.69h5.44v6.46h5.96v-6.46h5.47V92.2h-5.47v-7.5h-5.96v7.5h-5.44V73.69L30.94,73.69z M51.51,92.2 V73.69h9.08c1.68,0,2.97,0.15,3.86,0.46c0.89,0.3,1.61,0.87,2.16,1.68c0.55,0.82,0.82,1.83,0.82,3.01c0,1.03-0.21,1.91-0.63,2.66 c-0.41,0.75-0.99,1.35-1.72,1.82c-0.46,0.29-1.1,0.54-1.91,0.73c0.65,0.23,1.12,0.45,1.42,0.68c0.2,0.15,0.49,0.48,0.87,0.97 c0.38,0.5,0.63,0.88,0.76,1.15l2.65,5.35h-6.16l-2.91-5.64c-0.37-0.73-0.7-1.21-0.99-1.43c-0.39-0.28-0.84-0.43-1.34-0.43h-0.48 v7.5H51.51L51.51,92.2z M56.98,81.21h2.3c0.25,0,0.73-0.09,1.44-0.25c0.36-0.07,0.66-0.27,0.88-0.58c0.23-0.31,0.34-0.67,0.34-1.08 c0-0.6-0.18-1.06-0.54-1.38c-0.36-0.32-1.04-0.48-2.04-0.48h-2.4V81.21L56.98,81.21z M69.66,86.07l5.17-0.34 c0.11,0.88,0.34,1.55,0.69,2.01c0.56,0.75,1.36,1.12,2.41,1.12c0.78,0,1.38-0.19,1.79-0.57c0.42-0.38,0.63-0.83,0.63-1.33 c0-0.48-0.2-0.91-0.6-1.29c-0.4-0.38-1.33-0.73-2.78-1.07c-2.39-0.56-4.09-1.31-5.11-2.24c-1.03-0.93-1.54-2.12-1.54-3.57 c0-0.95,0.26-1.84,0.79-2.69c0.53-0.85,1.31-1.51,2.37-1.99c1.06-0.48,2.5-0.72,4.34-0.72c2.25,0,3.97,0.44,5.15,1.32 c1.18,0.88,1.88,2.28,2.11,4.2l-5.12,0.32c-0.14-0.84-0.42-1.45-0.86-1.83c-0.44-0.38-1.04-0.57-1.81-0.57 c-0.63,0-1.11,0.14-1.43,0.42c-0.32,0.28-0.48,0.62-0.48,1.03c0,0.29,0.13,0.56,0.39,0.79c0.25,0.25,0.86,0.47,1.82,0.68 c2.38,0.54,4.08,1.09,5.11,1.64c1.03,0.55,1.78,1.23,2.25,2.05c0.47,0.81,0.7,1.73,0.7,2.74c0,1.18-0.31,2.28-0.94,3.28 c-0.63,1-1.5,1.76-2.62,2.28c-1.12,0.52-2.53,0.78-4.24,0.78c-3,0-5.07-0.61-6.23-1.82C70.46,89.48,69.81,87.94,69.66,86.07 L69.66,86.07z"/></g></svg>