<svg id="Layer_1" data-name="Layer 1" xmlns="http://www.w3.org/2000/svg" viewBox="0 0 122.88 122.88"><defs><style>.cls-1{fill:#fff;}.cls-2{fill-rule:evenodd;}.cls-3{fill:#d92d27;}</style></defs><title>no-baby-carriage</title><path class="cls-1" d="M21.2,32.93,90,101.68a49,49,0,0,1-28.51,9.07A49.25,49.25,0,0,1,12.13,61.44h0A49.12,49.12,0,0,1,21.2,32.93ZM98.92,93.5,29.39,24a49.25,49.25,0,0,1,66.92,2.61A49.23,49.23,0,0,1,98.92,93.5Z"/><path class="cls-1" d="M98.92,29.38,29.39,98.92A49.31,49.31,0,0,0,98.92,29.38ZM21.2,90,90,21.2a49.24,49.24,0,0,0-63.38,5.37A49,49,0,0,0,12.13,61.44h0A49.12,49.12,0,0,0,21.2,90Z"/><path class="cls-2" d="M52.22,30.14h6.17V47.2H37V45.37A15.27,15.27,0,0,1,52.22,30.14Zm-5,50.48a9.09,9.09,0,0,1,6,2.24l4.9-4.13-8.53-7.18h-.23A12.39,12.39,0,0,1,37,59.2V57.76H84.7V59.2A12.38,12.38,0,0,1,72.85,71.54l-8.56,7.2L69.4,83a9.13,9.13,0,1,1-3,6.72,9.31,9.31,0,0,1,.66-3.43l-5.92-5-5.63,4.73a9.14,9.14,0,1,1-8.35-5.45Zm28.38,5.81a3.32,3.32,0,1,1-3.32,3.32,3.32,3.32,0,0,1,3.32-3.32Zm-28.38,0a3.32,3.32,0,1,1-3.32,3.32,3.32,3.32,0,0,1,3.32-3.32Zm8.55-14.88,5.44,4.58,5.44-4.58ZM97.65,44.8a1.91,1.91,0,0,1,0,3.82H87.79v3.84a1.91,1.91,0,0,1-1.91,1.91H36.82a1.91,1.91,0,0,1,0-3.82H84V46.71a1.92,1.92,0,0,1,1.91-1.91l11.78,1.45V44.8Z"/><path class="cls-3" d="M61.44,122.88a61.31,61.31,0,1,1,23.49-4.66,61.29,61.29,0,0,1-23.49,4.66ZM21.2,90,90,21.2a49.44,49.44,0,0,0-47.38-5.34A49.53,49.53,0,0,0,15.86,42.58a49,49,0,0,0-3.73,18.86h0A48.93,48.93,0,0,0,21.2,90ZM98.92,29.38,29.38,98.92A49.32,49.32,0,0,0,98.92,29.38Z"/></svg>