<svg id="Layer_1" data-name="Layer 1" xmlns="http://www.w3.org/2000/svg" viewBox="0 0 122.88 122.88"><defs><style>.cls-1{fill:#fff;}.cls-2{fill-rule:evenodd;}.cls-3{fill:#d92d27;}</style></defs><title>no-configuration-setting</title><path class="cls-1" d="M21.2,32.93,90,101.68A49.29,49.29,0,0,1,12.13,61.44h0A49.12,49.12,0,0,1,21.2,32.93ZM98.92,93.5,29.39,24a49.25,49.25,0,0,1,66.92,2.61A49.23,49.23,0,0,1,98.92,93.5Z"/><path class="cls-2" d="M84.25,35a3.28,3.28,0,0,0-2.42-1,3.25,3.25,0,0,0-2.41,1l-3.69,3.67a24.67,24.67,0,0,0-3.12-1.7,32.46,32.46,0,0,0-3.34-1.3V30a3.36,3.36,0,0,0-3.4-3.4H58.78a3.29,3.29,0,0,0-2.38,1,3.25,3.25,0,0,0-1,2.42v5.17a26.5,26.5,0,0,0-6.62,2.53l-4.08-4a3.1,3.1,0,0,0-2.35-1,3.33,3.33,0,0,0-2.42,1l-5,5a3.35,3.35,0,0,0,0,4.83l3.67,3.69a24,24,0,0,0-1.7,3.12,31.59,31.59,0,0,0-1.3,3.34H30a3.36,3.36,0,0,0-3.4,3.4V64.1a3.29,3.29,0,0,0,1,2.38,3.25,3.25,0,0,0,2.42,1h5.17a25.46,25.46,0,0,0,1.06,3.44,31.64,31.64,0,0,0,1.46,3.24l-4,4a3.14,3.14,0,0,0-1,2.36,3.35,3.35,0,0,0,1,2.42l5,5a3.52,3.52,0,0,0,4.83,0l3.69-3.74A24,24,0,0,0,50.27,86a31.59,31.59,0,0,0,3.34,1.3V92.9A3.36,3.36,0,0,0,57,96.3H64.1a3.27,3.27,0,0,0,2.38-1,3.22,3.22,0,0,0,1-2.41V87.73a25.46,25.46,0,0,0,3.44-1.06,29.67,29.67,0,0,0,3.24-1.47l4,4a3.29,3.29,0,0,0,4.78,0l5-5a3.52,3.52,0,0,0,0-4.83l-3.74-3.69A24.67,24.67,0,0,0,86,72.61a31.59,31.59,0,0,0,1.3-3.34H92.9a3.27,3.27,0,0,0,2.41-1,3.24,3.24,0,0,0,1-2.41V58.78a3.27,3.27,0,0,0-1-2.38,3.22,3.22,0,0,0-2.41-1H87.73A29.1,29.1,0,0,0,86.67,52a24.85,24.85,0,0,0-1.47-3.21l4-4.07a3.11,3.11,0,0,0,1-2.36,3.34,3.34,0,0,0-1-2.42l-5-5ZM61.44,47.55a13.72,13.72,0,0,1,5.41,1.08A13.8,13.8,0,0,1,74.25,56a14.12,14.12,0,0,1,0,10.83,13.78,13.78,0,0,1-7.4,7.4,14.09,14.09,0,0,1-10.82,0,13.78,13.78,0,0,1-7.4-7.4,14.12,14.12,0,0,1,0-10.83A13.8,13.8,0,0,1,56,48.63a13.72,13.72,0,0,1,5.41-1.08Z"/><path class="cls-3" d="M61.44,0A61.31,61.31,0,1,0,84.93,4.66,61.29,61.29,0,0,0,61.44,0ZM21.2,32.93,90,101.68A49.44,49.44,0,0,1,42.57,107,49.53,49.53,0,0,1,15.86,80.3a49,49,0,0,1-3.73-18.86h0A48.93,48.93,0,0,1,21.2,32.93ZM98.92,93.5,29.38,24A49.32,49.32,0,0,1,98.92,93.5Z"/></svg>