<svg id="Layer_1" data-name="Layer 1" xmlns="http://www.w3.org/2000/svg" viewBox="0 0 122.88 122.88"><defs><style>.cls-1{fill:#fff;}.cls-2{fill-rule:evenodd;}.cls-3{fill:#d92d27;}</style></defs><title>no-cell-phone</title><path class="cls-1" d="M101.68,32.93,32.92,101.68a49.29,49.29,0,0,0,77.83-40.24h0A49.34,49.34,0,0,0,108,45.15a48.85,48.85,0,0,0-6.32-12.22ZM24,93.5,93.49,24A49.31,49.31,0,0,0,24,93.5Z"/><path class="cls-2" d="M49.05,24.38H73.83A8.21,8.21,0,0,1,82,32.58V90.3a8.21,8.21,0,0,1-8.19,8.2H49.05a8.21,8.21,0,0,1-8.19-8.2V32.58c0-4.71,3.61-7.95,8.19-8.2Zm15,66.47a3.36,3.36,0,1,1-5.26,0,3.38,3.38,0,0,1,5.26,0ZM79.66,87V34.68H43.21V87Z"/><path class="cls-3" d="M61.44,0A61.31,61.31,0,1,1,38,4.66,61.29,61.29,0,0,1,61.44,0Zm40.24,32.93L32.93,101.68A49.44,49.44,0,0,0,80.31,107a49.26,49.26,0,0,0,30.44-45.58h0a49.12,49.12,0,0,0-9.08-28.51ZM24,93.5,93.5,24A49.32,49.32,0,0,0,24,93.5Z"/></svg>