<?xml version="1.0" encoding="utf-8"?><svg version="1.1" id="Layer_1" xmlns="http://www.w3.org/2000/svg" xmlns:xlink="http://www.w3.org/1999/xlink" x="0px" y="0px" viewBox="0 0 122.88 101.09" style="enable-background:new 0 0 122.88 101.09" xml:space="preserve"><style type="text/css">.st0{fill-rule:evenodd;clip-rule:evenodd;}</style><g><path class="st0" d="M52.75,37.63c0.8,1.33,1.23,2.76,1.23,4.23c0,1.1-0.24,2.16-0.69,3.19c-1.97-0.94-4.05-1.68-6.22-2.2 C49.63,41.36,51.58,39.58,52.75,37.63L52.75,37.63L52.75,37.63z M45.54,61.61c1.57-1.59,4.11-1.6,5.69-0.02 c1.57,1.58,1.58,4.15,0.02,5.74l-6.87,6.97l6.88,6.97c1.55,1.58,1.53,4.13-0.05,5.71c-1.58,1.57-4.12,1.57-5.67-0.01l-6.83-6.93 l-6.84,6.94c-1.57,1.59-4.11,1.6-5.69,0.02c-1.57-1.58-1.58-4.15-0.02-5.74l6.87-6.97l-6.88-6.97c-1.55-1.58-1.53-4.13,0.05-5.71 c1.58-1.57,4.12-1.57,5.67,0.01l6.83,6.93L45.54,61.61L45.54,61.61L45.54,61.61z M39.49,47.25c14.87,0,26.92,12.05,26.92,26.92 c0,14.87-12.05,26.92-26.92,26.92c-14.87,0-26.92-12.05-26.92-26.92C12.57,59.3,24.63,47.25,39.49,47.25L39.49,47.25L39.49,47.25z M14.13,54.3C5.72,51.9,0,47.23,0,41.86c0-1.47,0.43-2.89,1.23-4.23c2.92,4.89,10.78,8.65,20.51,9.65 C18.84,49.2,16.27,51.57,14.13,54.3L14.13,54.3L14.13,54.3z M121.65,58.7c0.8,1.34,1.23,2.76,1.23,4.23 c0,7.81-12.09,14.15-26.99,14.15S68.9,70.74,68.9,62.93c0-1.47,0.43-2.89,1.23-4.23c3.43,5.75,13.67,9.92,25.76,9.92 S118.22,64.45,121.65,58.7L121.65,58.7L121.65,58.7z M99.81,38.01l-0.05-3.5c0.79-0.03,1.44-0.27,1.94-0.72 c0.51-0.45,0.78-0.99,0.84-1.63c0.06-0.73-0.18-1.37-0.72-1.93c-0.55-0.56-1.42-0.89-2.61-0.99c-1.11-0.1-1.97,0.08-2.58,0.54 c-0.6,0.45-0.94,1.08-1.01,1.88c-0.09,1,0.28,1.94,1.1,2.81l-0.66,2.79l-9.31-2.61l0.8-9.22l3.26,0.28l-0.57,6.58l3.04,0.81 c-0.32-0.81-0.45-1.62-0.38-2.44c0.13-1.54,0.81-2.81,2.03-3.78c1.22-0.98,2.73-1.39,4.52-1.23c1.5,0.13,2.8,0.68,3.89,1.65 c1.5,1.32,2.16,3.03,1.98,5.13c-0.15,1.68-0.71,3.01-1.71,3.99C102.62,37.41,101.35,37.94,99.81,38.01L99.81,38.01L99.81,38.01z M95.89,23.96c12.25,0,22.18,3.9,22.18,8.7c0,4.81-9.93,8.7-22.18,8.7c-12.25,0-22.18-3.9-22.18-8.7 C73.71,27.85,83.64,23.96,95.89,23.96L95.89,23.96L95.89,23.96L95.89,23.96z M95.89,21.07c14.9,0,26.99,6.34,26.99,14.15 s-12.09,14.15-26.99,14.15S68.9,43.03,68.9,35.22S80.99,21.07,95.89,21.07L95.89,21.07L95.89,21.07z M121.75,44.66 c0.74,1.29,1.13,2.65,1.13,4.06c0,7.81-12.09,14.15-26.99,14.15S68.9,56.54,68.9,48.72c0-1.41,0.4-2.78,1.13-4.06 c3.33,5.83,13.65,10.08,25.86,10.08S118.42,50.49,121.75,44.66L121.75,44.66L121.75,44.66L121.75,44.66z M36.74,8.39l-0.31,3.51 l-13.25-1.15c1.09,1.39,1.85,2.98,2.27,4.77l-3.19-0.28c-0.22-0.94-0.7-1.99-1.44-3.13c-0.75-1.15-1.66-1.97-2.75-2.47l0.25-2.85 L36.74,8.39L36.74,8.39L36.74,8.39L36.74,8.39z M26.99,2.88c12.25,0,22.18,3.9,22.18,8.7c0,4.8-9.93,8.7-22.18,8.7 c-12.25,0-22.18-3.9-22.18-8.7C4.81,6.78,14.74,2.88,26.99,2.88L26.99,2.88L26.99,2.88z M26.99,0c14.9,0,26.99,6.33,26.99,14.15 c0,7.81-12.09,14.15-26.99,14.15C12.09,28.3,0,21.96,0,14.15C0,6.33,12.09,0,26.99,0L26.99,0L26.99,0z M52.85,23.58 c0.74,1.29,1.13,2.65,1.13,4.06c0,7.81-12.09,14.15-26.99,14.15C12.09,41.79,0,35.45,0,27.64c0-1.41,0.4-2.77,1.13-4.06 c3.33,5.83,13.65,10.09,25.86,10.09C39.2,33.67,49.52,29.41,52.85,23.58L52.85,23.58L52.85,23.58L52.85,23.58z M8.01,81.01 C3.06,78.45,0,74.89,0,70.96c0-1.57,0.49-3.09,1.4-4.5c1.26,1.97,3.32,3.74,5.98,5.21c-0.06,0.82-0.09,1.65-0.09,2.49 C7.28,76.52,7.53,78.81,8.01,81.01L8.01,81.01L8.01,81.01z M8.23,66.37C3.16,63.8,0,60.19,0,56.2c0-1.5,0.45-2.94,1.27-4.29 c1.75,2.88,5.22,5.37,9.78,7.12C9.82,61.33,8.87,63.79,8.23,66.37L8.23,66.37L8.23,66.37z"/></g></svg>