<svg id="Layer_1" data-name="Layer 1" xmlns="http://www.w3.org/2000/svg" viewBox="0 0 122.88 122.88"><defs><style>.cls-1{fill:#fff;}.cls-2{fill-rule:evenodd;}.cls-3{fill:#d92d27;}</style></defs><title>no-drone-sign</title><path class="cls-1" d="M98.92,29.38,29.39,98.92A49.31,49.31,0,0,0,98.92,29.38ZM21.2,90,90,21.2a49.24,49.24,0,0,0-63.38,5.37A49,49,0,0,0,12.13,61.44h0a49.39,49.39,0,0,0,2.76,16.29A48.85,48.85,0,0,0,21.2,90Z"/><path class="cls-2" d="M34.6,47V45L23.43,46c-2.15.24-2.59-.5-2.49-1.28.28-2,1.31-1.49,2.79-1.41l10.86.54V42.49a.76.76,0,0,1,.76-.77H36a.77.77,0,0,1,.77.77v1.39l10.88-1c1.49-.08,2.52-.54,2.79,1.42.11.77-.33,1.52-2.48,1.27L36.78,45V47h.81a1,1,0,0,1,1,1v3.81h45.6V48.1A1.09,1.09,0,0,1,85.33,47h.77V45L74.94,46c-2.16.25-2.59-.5-2.49-1.28.27-2,1.31-1.49,2.79-1.41l10.86.54V42.49a.76.76,0,0,1,.76-.77h.65a.76.76,0,0,1,.76.77v1.39l10.88-1c1.48-.08,2.52-.54,2.79,1.42.1.77-.34,1.52-2.49,1.27L88.27,45V47h.81a1.06,1.06,0,0,1,1.06,1v3.81h9.13a2,2,0,0,1,2,2h0a2,2,0,0,1-2,2H82.82c-1.53,2.16-1.24,3-7.65,2.88a49,49,0,0,1,6.29,7.11,36.89,36.89,0,0,1,6.11,11.46c.43,4.8-4.41,4-6,3-2.3-.29-2.3-4-2.48-7.4-.33-6-1.9-8.92-7.67-10.91-1.57,3.65-18.58,5.23-21.53-.31-7.83,2.31-8.06,9-8.34,15.94-.54,3.77-8.81,5.58-8.13-.6a6.94,6.94,0,0,1,1.47-3.38c3-5.92,6.58-11.07,10.94-14.87-5.6.12-3.82-.7-6.22-3H23a2,2,0,0,1-2-2h0a2,2,0,0,1,2-2h9.74V48.1A1.08,1.08,0,0,1,33.82,47ZM59.47,57.49h3.34a.89.89,0,0,1,.89.89h0a.89.89,0,0,1-.89.9H59.47a.9.9,0,0,1-.9-.9h0a.91.91,0,0,1,.9-.89Z"/><path class="cls-3" d="M61.44,122.88a61.31,61.31,0,1,1,23.49-4.66,61.29,61.29,0,0,1-23.49,4.66ZM21.2,90,90,21.2a49.44,49.44,0,0,0-47.38-5.34A49.53,49.53,0,0,0,15.86,42.58a49,49,0,0,0-3.73,18.86h0A48.93,48.93,0,0,0,21.2,90ZM98.92,29.38,29.38,98.92A49.32,49.32,0,0,0,98.92,29.38Z"/></svg>