<svg id="Layer_1" data-name="Layer 1" xmlns="http://www.w3.org/2000/svg" viewBox="0 0 122.88 122.88"><defs><style>.cls-1{fill:#fff;}.cls-2{fill-rule:evenodd;}.cls-3{fill:#d92d27;}</style></defs><title>no-electric-plug</title><path class="cls-1" d="M98.92,93.5,29.39,24A49.31,49.31,0,0,1,98.92,93.5ZM21.2,32.93,90,101.68A49.29,49.29,0,0,1,12.13,61.44h0A49,49,0,0,1,21.2,32.93Z"/><path class="cls-2" d="M39.26,59.18v6.05c0,12.22,5.42,18.19,17.87,19.7V95h9.1V84.81C78.55,83.63,84.1,76.39,84.1,64.55V59.18h1.78a2.89,2.89,0,0,0,2.88-2.87V53a2.89,2.89,0,0,0-2.88-2.88H77.34V32.45a4.57,4.57,0,0,0-4.55-4.55h0a4.57,4.57,0,0,0-4.55,4.55V50.1H54.88V32.45a4.57,4.57,0,0,0-4.56-4.55h0a4.57,4.57,0,0,0-4.55,4.55V50.1H37A2.88,2.88,0,0,0,34.13,53v3.33A2.88,2.88,0,0,0,37,59.18Z"/><path class="cls-3" d="M61.44,0A61.31,61.31,0,1,0,84.93,4.66,61.29,61.29,0,0,0,61.44,0ZM21.2,32.93,90,101.68A49.44,49.44,0,0,1,42.57,107,49.53,49.53,0,0,1,15.86,80.3a49,49,0,0,1-3.73-18.86h0A48.93,48.93,0,0,1,21.2,32.93ZM98.92,93.5,29.38,24A49.32,49.32,0,0,1,98.92,93.5Z"/></svg>