<svg id="Layer_1" data-name="Layer 1" xmlns="http://www.w3.org/2000/svg" viewBox="0 0 122.88 122.88"><defs><style>.cls-1{fill:#fff;}.cls-2{fill-rule:evenodd;}.cls-3{fill:#d92d27;}</style></defs><title>no-fast-food</title><path class="cls-1" d="M21.2,32.93,90,101.68A49.29,49.29,0,0,1,12.13,61.44h0A49.12,49.12,0,0,1,21.2,32.93ZM98.92,93.5,29.39,24a49.25,49.25,0,0,1,66.92,2.61A49.23,49.23,0,0,1,98.92,93.5Z"/><path class="cls-1" d="M24,29.38,93.49,98.92A49.31,49.31,0,0,1,24,29.38ZM101.68,90,32.92,21.2A49.24,49.24,0,0,1,96.3,26.57a49,49,0,0,1,14.45,34.87h0A49.12,49.12,0,0,1,101.68,90Z"/><path class="cls-2" d="M83.72,52.75h-31l.52,2.52c9.58.64,16.63,4.75,20.1,8.75a13.43,13.43,0,0,1,2.75,4.79,8.34,8.34,0,0,1-.58,6.64,8.65,8.65,0,0,1-.47.76,9.55,9.55,0,0,1,.5,1.34c0,.12.08.24.11.36h0a6.34,6.34,0,0,1,.24,1.7,2.69,2.69,0,0,1,0,.31v.13h0c0,.15,0,.3,0,.45h7.8l6.44-27.74H83.72Zm-51.6,33q18.36,0,36.73,0a1.34,1.34,0,0,1,1.33,1.33c0,2-.83,5.86-5.31,5.86H36.1c-4.47,0-5.31-3.87-5.31-5.86a1.34,1.34,0,0,1,1.33-1.33Zm27.42-20.4a2,2,0,1,1-2,2,2,2,0,0,1,2-2Zm-17.79.14a2,2,0,1,1-2,2,2,2,0,0,1,2-2Zm8.82-1.95a2,2,0,1,1-2,2,2,2,0,0,1,2-2ZM67.12,74.1H34.28a3.81,3.81,0,0,1-3.8-3.8h0c0-5.4,10.77-9.32,19.81-9.42C68.08,60.7,76.06,74.1,67.12,74.1Zm3,5.2a.59.59,0,0,1,.09.31c0,.06,0,.14,0,.22a1.7,1.7,0,0,1,0,.22.59.59,0,0,1-.09.31c-.3,1.31-1.51,3-5.22,3H36.1c-3.71,0-4.92-1.73-5.22-3a.69.69,0,0,1-.09-.31c0-.07,0-.14,0-.22a1.7,1.7,0,0,1,0-.22.69.69,0,0,1,.09-.31c.3-1.32,1.51-3,5.22-3H51l5.5,5.68L62,76.26h2.93c3.7,0,4.91,1.73,5.21,3Zm5.79.75c0,.45,0,.16,0,0ZM52.77,41.37h16.1l1.75-7.79c.51-1.88,2-2.93,4.59-3.64h6.62a2.17,2.17,0,0,1,1.75,2.12v2a2.27,2.27,0,0,1-2,1.74H76l-1.17,5.53H90.07A2.33,2.33,0,0,1,92.4,43.7v2.64a2.33,2.33,0,0,1-2.33,2.32H52.77a2.33,2.33,0,0,1-2.32-2.32V43.7a2.33,2.33,0,0,1,2.32-2.33Zm22,51.05h4.37a4.38,4.38,0,0,0,3.71-3.13l.42-4.4H75.55a7,7,0,0,1,.35,2.19,13.24,13.24,0,0,1-1.14,5.34Z"/><path class="cls-3" d="M61.44,122.88A61.31,61.31,0,1,0,38,118.22a61.29,61.29,0,0,0,23.49,4.66ZM101.68,90,32.93,21.2a49.44,49.44,0,0,1,47.38-5.34A49.53,49.53,0,0,1,107,42.58a49,49,0,0,1,3.73,18.86h0A48.93,48.93,0,0,1,101.68,90ZM24,29.38,93.5,98.92A49.32,49.32,0,0,1,24,29.38Z"/></svg>