<svg id="Layer_1" data-name="Layer 1" xmlns="http://www.w3.org/2000/svg" viewBox="0 0 122.88 122.88"><defs><style>.cls-1{fill:#fff;}.cls-2{fill-rule:evenodd;}.cls-3{fill:#d92d27;}</style></defs><title>no-food</title><path class="cls-1" d="M21.2,32.93,90,101.68A49.42,49.42,0,0,1,42.58,107,49.25,49.25,0,0,1,12.13,61.44h0A49.12,49.12,0,0,1,21.2,32.93ZM98.92,93.5,29.38,24A49.32,49.32,0,0,1,98.92,93.5Z"/><path class="cls-1" d="M98.92,29.38,29.39,98.92A49.31,49.31,0,0,0,98.92,29.38ZM21.2,90,90,21.2a49.24,49.24,0,0,0-63.38,5.37A49,49,0,0,0,12.13,61.44h0A49.12,49.12,0,0,0,21.2,90Z"/><path class="cls-2" d="M51.84,58.25c3.14-2.15,4.73-5,4.46-11.39V30.3c0-2.32-4.23-2.59-4.43,0l-.16,13.42a1.89,1.89,0,0,1-3.77,0l.16-13.91c0-2.48-4.06-2.71-4.06,0,0,3.86-.16,10-.16,13.88a1.84,1.84,0,0,1,0,.33,1.64,1.64,0,1,1-3.28,0,1.86,1.86,0,0,1,0-.33l.16-13.78a2.26,2.26,0,0,0-3.56-1.67c-1.49,1-1.18,2.86-1.25,4.47l-.51,15.83c.08,4.6,1.29,8.34,4.89,9.93a9.17,9.17,0,0,0,2.19.57L41.35,90.89V91a4.06,4.06,0,0,0,4,4.07h.5a4.56,4.56,0,0,0,4.49-4.55.53.53,0,0,0,0-.13L49.24,59a6.75,6.75,0,0,0,2.6-.77Zm19.38,31.5-.07-27.92C59,54.81,62.88,27.75,75,28c14.79.16,16.54,30.48,3.82,33.86l.92,28.07c.18,6.59-8.57,7.2-8.59-.15Z"/><path class="cls-3" d="M61.44,122.88a61.31,61.31,0,1,1,23.49-4.66,61.29,61.29,0,0,1-23.49,4.66ZM21.2,90,90,21.2a49.44,49.44,0,0,0-47.38-5.34A49.53,49.53,0,0,0,15.86,42.58a49,49,0,0,0-3.73,18.86h0A48.93,48.93,0,0,0,21.2,90ZM98.92,29.38,29.38,98.92A49.32,49.32,0,0,0,98.92,29.38Z"/></svg>