<svg id="Layer_1" data-name="Layer 1" xmlns="http://www.w3.org/2000/svg" viewBox="0 0 122.88 122.88"><defs><style>.cls-1{fill:#fff;}.cls-2{fill:#d92d27;}</style></defs><title>no-feces</title><path class="cls-1" d="M21.2,32.93,90,101.68A49.29,49.29,0,0,1,12.13,61.44h0A49.12,49.12,0,0,1,21.2,32.93ZM98.92,93.5,29.39,24a49.25,49.25,0,0,1,66.92,2.61A49.23,49.23,0,0,1,98.92,93.5Z"/><path class="cls-1" d="M98.92,29.38,29.39,98.92A49.31,49.31,0,0,0,98.92,29.38ZM21.2,90,90,21.2A49.29,49.29,0,0,0,12.13,61.44h0A49.12,49.12,0,0,0,21.2,90Z"/><path d="M37.06,41.5a1.48,1.48,0,0,1,1,2.78,5.66,5.66,0,0,0-1.51.79l-.07,0a3.16,3.16,0,0,0-.82.93,4.05,4.05,0,0,0-.07,3.68,6.75,6.75,0,0,1,.2,4.91A7.4,7.4,0,0,1,34.31,57a12.72,12.72,0,0,1-2.46,2,1.48,1.48,0,1,1-1.61-2.48A9.76,9.76,0,0,0,32.12,55a4.64,4.64,0,0,0,.9-1.4,4.51,4.51,0,0,0-.25-3c-.57-1.77-1.15-3.56.32-6.07a6.39,6.39,0,0,1,1.58-1.79l.09-.07a8.9,8.9,0,0,1,2.3-1.2Zm45.78-3.11a1.47,1.47,0,1,1,2.67,1.25A5.91,5.91,0,0,0,85,41.26a3.32,3.32,0,0,0,.06,1.34,4.06,4.06,0,0,0,2.56,2.64,6.73,6.73,0,0,1,3.62,3.33l.05.13a7.34,7.34,0,0,1,.57,2.57v0a12.14,12.14,0,0,1-.3,3.16,1.48,1.48,0,1,1-2.89-.61,9.38,9.38,0,0,0,.23-2.41v0a4.71,4.71,0,0,0-.31-1.53l0-.1a4.33,4.33,0,0,0-2.27-1.92c-1.66-.85-3.33-1.71-4.07-4.53a6.27,6.27,0,0,1-.13-2.48,9,9,0,0,1,.77-2.47ZM75,51.7c-.25-2.83-2.8-4.78-5.09-6.54a26.48,26.48,0,0,1-3-2.49c-2.18-2.29-3-4.75-.17-8.2a16.65,16.65,0,0,0-6.5-.18,13.65,13.65,0,0,0-6,2.64,12.22,12.22,0,0,0-3.85,5.21,15.82,15.82,0,0,0-.6,8.84,1.55,1.55,0,0,1-1.28,1.81h0a11.21,11.21,0,0,0-3.43,1.06,9.26,9.26,0,0,0-4.25,4.32A11,11,0,0,0,40,64.58a14.69,14.69,0,0,0,1.57,4.6,1.55,1.55,0,0,1-.69,2.1.93.93,0,0,1-.35.13,10.93,10.93,0,0,0-5.47,3.21A7.63,7.63,0,0,0,33.37,78a8.26,8.26,0,0,0,.18,4,14.76,14.76,0,0,0,4.75,6.87H87.72a10.24,10.24,0,0,0,4.58-4.59,10.75,10.75,0,0,0,.87-6.4,12.53,12.53,0,0,0-2.8-6A10.83,10.83,0,0,0,84.2,68.1l-.08,0a59.13,59.13,0,0,0-6.86,2.68C70,73.9,61.75,77.48,53.94,73.6a1.54,1.54,0,0,1-.69-2.1,1.6,1.6,0,0,1,2.14-.69c6.46,3.23,14,0,20.58-2.91a64.18,64.18,0,0,1,7.23-2.81c.59-3.16.23-5.55-.85-7.32A9.7,9.7,0,0,0,77.14,54,21.69,21.69,0,0,1,69,58.54a12.52,12.52,0,0,1-8.39-.42,1.55,1.55,0,0,1-.81-2.06,1.6,1.6,0,0,1,2.1-.79,9.3,9.3,0,0,0,6.25.26A17.85,17.85,0,0,0,75,51.7Zm2.34,30.5a.9.9,0,0,1,.11-1.26.91.91,0,0,1,1.28.11l.76.87a.88.88,0,0,1-.11,1.25.92.92,0,0,1-1.28-.11l-.76-.86ZM55.43,60.06a1.6,1.6,0,1,1-1.63,1.6,1.62,1.62,0,0,1,1.63-1.6Zm-6.19,6.45a.9.9,0,0,1,.1-1.26.93.93,0,0,1,1.29.11l.58.68a.89.89,0,0,1-.11,1.25.92.92,0,0,1-1.28-.1l-.58-.68Zm6-19.55a1.84,1.84,0,1,1-1.87,1.84A1.86,1.86,0,0,1,55.26,47Zm5.63,32a1.6,1.6,0,1,1-1.64,1.6A1.62,1.62,0,0,1,60.89,79ZM46.38,76.65a1.6,1.6,0,1,1-1.63,1.59,1.62,1.62,0,0,1,1.63-1.59Zm38.07,1.12a1.6,1.6,0,1,1-1.64,1.6,1.63,1.63,0,0,1,1.64-1.6ZM55.15,85a.88.88,0,0,1,.11-1.25.92.92,0,0,1,1.28.11l.58.67A.89.89,0,0,1,57,85.78a.93.93,0,0,1-1.28-.11L55.15,85ZM40.6,82.64a.88.88,0,0,1,.11-1.26.92.92,0,0,1,1.28.11l.63.73a.89.89,0,0,1-.11,1.25.91.91,0,0,1-1.28-.11l-.63-.72Z"/><path class="cls-2" d="M61.44,122.88a61.36,61.36,0,1,1,23.49-4.66,61.29,61.29,0,0,1-23.49,4.66ZM21.2,90,90,21.2a49.44,49.44,0,0,0-47.38-5.34A49.53,49.53,0,0,0,15.86,42.58a49,49,0,0,0-3.73,18.86h0A48.93,48.93,0,0,0,21.2,90ZM98.92,29.38,29.38,98.92A49.32,49.32,0,0,0,98.92,29.38Z"/></svg>