<svg id="Layer_1" data-name="Layer 1" xmlns="http://www.w3.org/2000/svg" viewBox="0 0 122.88 122.88"><defs><style>.cls-1{fill:#fff;}.cls-2{fill-rule:evenodd;}.cls-3{fill:#d92d27;}</style></defs><title>no-fishing</title><path class="cls-1" d="M21.2,32.93,90,101.68A49.29,49.29,0,0,1,12.13,61.44h0A49.12,49.12,0,0,1,21.2,32.93ZM98.92,93.5,29.39,24a49.25,49.25,0,0,1,66.92,2.61A49.23,49.23,0,0,1,98.92,93.5Z"/><path class="cls-1" d="M24,29.38,93.49,98.92A49.31,49.31,0,0,1,24,29.38ZM101.68,90,32.92,21.2A49.24,49.24,0,0,1,96.3,26.57a49,49,0,0,1,14.45,34.87h0A49.12,49.12,0,0,1,101.68,90Z"/><path class="cls-2" d="M73.14,48l4.49-4.63c-6.25-4.73-18.48-3.86-24.47.53a26.43,26.43,0,0,0-8.79-.81c-7.13.31-1.15,6.19,1.12,8.52-1.91,3.09-2,4.66-3.68,7.91-1.27,3.45-3.93,4.78-7.74,4.33L29.85,63c-2.23-.45-10.15-2.73-8.78,1.89,1.38,3,4.74,5.6,8.3,8.18a54.9,54.9,0,0,0,1.39,6.24c1.66,6,4.24,5.92,6,.34L39.18,72c.74-2.75,2.3-4,4.32-4.15,6.16-.54,9.63,3.28,17.91.7a33.77,33.77,0,0,0,1.77,6.34c.86,1.52,2.1,1.67,3.88-.21a28.4,28.4,0,0,0,3.5-10.08c6.16-6.39,8.87-13.72,8.25-19L73.14,48Zm24.08-7.94v5.76a5.23,5.23,0,0,1,0,9.33V65a10.92,10.92,0,0,1-5.62,9.74,9.8,9.8,0,0,1-4.23,1.17A9,9,0,0,1,83,75c-3-1.46-5.36-4.69-5.73-9.93l2.48-5.59L82,64.78c.24,3.31,1.52,5.27,3.12,6a4.46,4.46,0,0,0,2.09.43,5.23,5.23,0,0,0,2.21-.63A6.27,6.27,0,0,0,92.55,65h0V55.18a5.23,5.23,0,0,1,0-9.39V40.06ZM68.11,43.6a2.37,2.37,0,1,0,1.68,2.9,2.37,2.37,0,0,0-1.68-2.9Z"/><path class="cls-3" d="M61.44,122.88A61.31,61.31,0,1,0,38,118.22a61.29,61.29,0,0,0,23.49,4.66ZM101.68,90,32.93,21.2a49.44,49.44,0,0,1,47.38-5.34A49.53,49.53,0,0,1,107,42.58a49,49,0,0,1,3.73,18.86h0A48.93,48.93,0,0,1,101.68,90ZM24,29.38,93.5,98.92A49.32,49.32,0,0,1,24,29.38Z"/></svg>