<svg id="Layer_1" data-name="Layer 1" xmlns="http://www.w3.org/2000/svg" viewBox="0 0 122.88 122.88"><defs><style>.cls-1{fill:#fff;}.cls-2{fill:#d92d27;}</style></defs><title>no-glass</title><path class="cls-1" d="M21.2,32.93,90,101.68a49,49,0,0,1-28.51,9.07A49.25,49.25,0,0,1,12.13,61.44h0A49.12,49.12,0,0,1,21.2,32.93ZM98.92,93.5,29.39,24a49.25,49.25,0,0,1,66.92,2.61A49.23,49.23,0,0,1,98.92,93.5Z"/><path class="cls-1" d="M98.92,29.38,29.39,98.92A49.31,49.31,0,0,0,98.92,29.38ZM21.2,90,90,21.2a49.24,49.24,0,0,0-63.38,5.37A49,49,0,0,0,12.13,61.44h0A49.12,49.12,0,0,0,21.2,90Z"/><path d="M41.6,48.47c11.09,8.54,17.93,5.17,24.28,2,4.87-2.4,9.49-4.67,15.4-2.27V34.33H41.6V48.47ZM83.89,33V54.35c0,10.81-7.93,21.56-19,22.38V96.26h8.22c1.62,0,1.61,5.1,0,5.1H51.57c-1.62,0-1.62-5.1,0-5.1h7.15V76.79C47.32,76.33,39,65.45,39,54.36V33a1.3,1.3,0,0,1,1.3-1.3H82.58A1.31,1.31,0,0,1,83.89,33Z"/><path class="cls-2" d="M61.44,122.88a61.31,61.31,0,1,1,23.49-4.66,61.29,61.29,0,0,1-23.49,4.66ZM21.2,90,90,21.2a49.44,49.44,0,0,0-47.38-5.34A49.53,49.53,0,0,0,15.86,42.58a49,49,0,0,0-3.73,18.86h0A48.93,48.93,0,0,0,21.2,90ZM98.92,29.38,29.38,98.92A49.32,49.32,0,0,0,98.92,29.38Z"/></svg>