<svg id="Layer_1" data-name="Layer 1" xmlns="http://www.w3.org/2000/svg" viewBox="0 0 122.88 122.88"><defs><style>.cls-1{fill:#fff;}.cls-2{fill:#d92d27;}</style></defs><title>no-iron</title><path class="cls-1" d="M24,29.38,93.49,98.92A49.31,49.31,0,0,1,24,29.38ZM101.68,90,32.92,21.2A49.24,49.24,0,0,1,96.3,26.57a49,49,0,0,1,14.44,34.87h0A49,49,0,0,1,101.68,90Z"/><path d="M24.25,83l5.3-8.84a.33.33,0,0,1,.06-.08c3.5-12,9.58-21,18.38-26.85s20.32-8.59,34.61-8a1.27,1.27,0,0,1,.66.22h0c.68.45,1.34.92,2,1.42L88,38.17l1.74,1.64c.7-1.07,1.79-2.84,2.5-3.91l1,1,.29,1.74-.07.11c-.44.69-1.31,2.11-1.7,2.7a1.41,1.41,0,0,1-.14.18l2.23,2.1-2.45,2.76c.88.93,1.71,1.9,2.52,2.9a1.31,1.31,0,0,1,.28.81h0V73.75a3,3,0,0,1,1.86,2.94h0v4.73a3.29,3.29,0,0,1-1,2.81,3.63,3.63,0,0,1-2.7.75H25.3a1.28,1.28,0,0,1-1.05-2ZM81.16,49.78a11.66,11.66,0,0,0-5.42-.45,20.3,20.3,0,0,0-8.41,3.11,13.41,13.41,0,0,0-5.43,6.27,8.53,8.53,0,0,0-.52,2.81H83.07v-6.3a.76.76,0,0,1,0-.15c0-.77.07-1.35.12-1.87.15-1.77.23-2.6-2-3.42Zm-5.73-3a14.34,14.34,0,0,1,6.61.59c4.12,1.51,4,3,3.73,6,0,.54-.1,1.16-.13,1.74V62.8a1.29,1.29,0,0,1-1.29,1.29H60.17A1.29,1.29,0,0,1,58.89,63a10.84,10.84,0,0,1,.59-5.12,15.92,15.92,0,0,1,6.44-7.56,22.92,22.92,0,0,1,9.51-3.51ZM43.8,65.84h.82a.94.94,0,0,1,.94.93v3.58a.93.93,0,0,1-.94.93H43.8a.93.93,0,0,1-.93-.93V66.77a.92.92,0,0,1,.93-.93Zm8.08,0h.83a.93.93,0,0,1,.93.93v3.58a.93.93,0,0,1-.93.93h-.83a.93.93,0,0,1-.93-.93V66.77a.93.93,0,0,1,.93-.93Zm-4,0h.82a.94.94,0,0,1,.94.93v3.58a.93.93,0,0,1-.94.93h-.82a.93.93,0,0,1-.93-.93V66.77a.93.93,0,0,1,.93-.93ZM32.52,73.29l59.12.16V50.61a48,48,0,0,0-4.45-4.76,41.24,41.24,0,0,0-5.08-4.08c-13.55-.54-24.41,2-32.69,7.55-7.92,5.28-13.52,13.31-16.9,24Zm-1.14,2.77-3.81,6.35H92.49a1.4,1.4,0,0,0,.9-.11c.11-.09.15-.32.13-.72a.76.76,0,0,1,0-.15V76.69h0a.64.64,0,0,0-.1-.44.75.75,0,0,0-.41-.18H31.38Z"/><path class="cls-2" d="M61.44,122.88A61.31,61.31,0,1,0,38,118.22a61.29,61.29,0,0,0,23.49,4.66ZM101.68,90,32.93,21.2a49.44,49.44,0,0,1,47.38-5.34A49.53,49.53,0,0,1,107,42.58a49,49,0,0,1,3.73,18.86h0A48.93,48.93,0,0,1,101.68,90ZM24,29.38,93.5,98.92A49.32,49.32,0,0,1,24,29.38Z"/></svg>