<?xml version="1.0" encoding="utf-8"?><svg version="1.1" id="Layer_1" xmlns="http://www.w3.org/2000/svg" xmlns:xlink="http://www.w3.org/1999/xlink" x="0px" y="0px" viewBox="0 0 122.88 112.92" style="enable-background:new 0 0 122.88 112.92" xml:space="preserve"><style type="text/css">.st0{fill-rule:evenodd;clip-rule:evenodd;}</style><g><path class="st0" d="M19.8,0h83.27c5.45,0,10.4,2.23,13.99,5.82c3.59,3.59,5.82,8.54,5.82,13.99v50.6c0,5.45-2.21,10.44-5.81,14.06 c-3.57,3.59-8.5,5.83-13.99,5.83H36.51L5.59,112.27c-1.59,1.13-3.79,0.76-4.92-0.83c-0.44-0.62-0.65-1.34-0.65-2.05H0V19.8 C0,14.37,2.23,9.42,5.82,5.83l0.02-0.02C9.43,2.22,14.37,0,19.8,0L19.8,0z M65.89,22.4v42.94h-9.77l-5.81-19.53v19.53h-9.34V22.4 h9.34l6.24,19.34V22.4H65.89L65.89,22.4z M94.25,42.52v8.62c0,3.17-0.16,5.48-0.48,6.97c-0.32,1.48-1,2.85-2.04,4.14 c-1.04,1.28-2.38,2.23-4.02,2.84C86.08,65.69,84.21,66,82.09,66c-2.37,0-4.38-0.26-6.02-0.78c-1.65-0.52-2.92-1.31-3.83-2.36 c-0.91-1.06-1.57-2.33-1.95-3.83c-0.39-1.49-0.58-3.74-0.58-6.72v-9.02c0-3.28,0.35-5.83,1.06-7.67c0.71-1.84,1.98-3.31,3.82-4.42 c1.84-1.11,4.19-1.67,7.05-1.67c2.4,0,4.46,0.36,6.19,1.08c1.72,0.71,3.05,1.65,3.99,2.8c0.93,1.15,1.57,2.33,1.92,3.56 C94.08,38.17,94.25,40.02,94.25,42.52L94.25,42.52z M83.56,39.87c0-1.8-0.1-2.94-0.29-3.4c-0.2-0.47-0.62-0.71-1.26-0.71 c-0.64,0-1.07,0.24-1.29,0.71c-0.21,0.46-0.32,1.6-0.32,3.4v15.88c0,1.66,0.11,2.75,0.32,3.25c0.22,0.51,0.63,0.76,1.26,0.76 c0.64,0,1.06-0.23,1.27-0.69s0.31-1.45,0.31-2.97V39.87L83.56,39.87z"/></g></svg>