<?xml version="1.0" encoding="utf-8"?><svg version="1.1" id="Layer_1" xmlns="http://www.w3.org/2000/svg" xmlns:xlink="http://www.w3.org/1999/xlink" x="0px" y="0px" viewBox="0 0 122.88 112.92" style="enable-background:new 0 0 122.88 112.92" xml:space="preserve"><g><path d="M19.96,0h82.96c5.49,0,10.48,2.25,14.09,5.86c3.62,3.62,5.86,8.61,5.86,14.1v50.38c0,5.49-2.23,10.52-5.86,14.17 c-3.6,3.62-8.56,5.87-14.1,5.87H36.67L5.94,112.22c-1.69,1.2-4.03,0.81-5.23-0.88c-0.47-0.66-0.7-1.42-0.69-2.18H0v-89.2 C0,14.48,2.24,9.5,5.86,5.87l0.02-0.02C9.5,2.24,14.49,0,19.96,0L19.96,0z M87.97,42.6v8.59c0,3.15-0.16,5.46-0.48,6.94 c-0.32,1.47-0.99,2.84-2.03,4.12c-1.04,1.28-2.37,2.22-4,2.83c-1.63,0.6-3.5,0.91-5.6,0.91c-2.36,0-4.36-0.26-5.99-0.77 c-1.64-0.52-2.91-1.31-3.81-2.35c-0.91-1.05-1.56-2.32-1.95-3.81c-0.39-1.49-0.58-3.72-0.58-6.69v-8.98c0-3.26,0.35-5.8,1.05-7.64 c0.7-1.83,1.97-3.3,3.8-4.41c1.83-1.11,4.17-1.67,7.02-1.67c2.39,0,4.44,0.36,6.16,1.07c1.71,0.71,3.04,1.64,3.97,2.78 c0.93,1.14,1.57,2.32,1.91,3.54C87.8,38.27,87.97,40.12,87.97,42.6L87.97,42.6z M77.32,39.96c0-1.79-0.1-2.93-0.29-3.39 c-0.2-0.47-0.61-0.7-1.25-0.7c-0.64,0-1.06,0.23-1.28,0.7c-0.21,0.46-0.32,1.59-0.32,3.39v15.81c0,1.66,0.11,2.74,0.32,3.23 c0.22,0.5,0.63,0.76,1.25,0.76c0.64,0,1.05-0.23,1.26-0.69c0.21-0.46,0.31-1.44,0.31-2.95V39.96L77.32,39.96z M59.72,22.57v42.76 h-9.73l-5.78-19.44v19.44h-9.3V22.57h9.3l6.22,19.25V22.57H59.72L59.72,22.57z M102.92,7.53H19.96c-3.42,0-6.53,1.39-8.78,3.64 l-0.01,0.01c-2.24,2.25-3.64,5.35-3.64,8.78v81.92l25.55-18.16c0.65-0.54,1.49-0.87,2.41-0.87h67.44c3.46,0,6.55-1.4,8.78-3.64 c2.26-2.27,3.65-5.42,3.65-8.88V19.96c0-3.41-1.4-6.52-3.66-8.77C109.44,8.93,106.33,7.53,102.92,7.53L102.92,7.53z"/></g></svg>