<svg id="Layer_1" data-name="Layer 1" xmlns="http://www.w3.org/2000/svg" viewBox="0 0 122.88 122.88"><defs><style>.cls-1{fill:#fff;}.cls-2{fill-rule:evenodd;}.cls-3{fill:#d92d27;}</style></defs><title>no-meat</title><path class="cls-1" d="M21.2,32.93,90,101.68a49,49,0,0,1-28.51,9.07A49.25,49.25,0,0,1,12.13,61.44h0A49.12,49.12,0,0,1,21.2,32.93ZM98.92,93.5,29.39,24a49.25,49.25,0,0,1,66.92,2.61A49.23,49.23,0,0,1,98.92,93.5Z"/><path class="cls-1" d="M98.92,29.38,29.39,98.92A49.31,49.31,0,0,0,98.92,29.38ZM21.2,90,90,21.2a49.24,49.24,0,0,0-63.38,5.37A49,49,0,0,0,12.13,61.44h0A49.12,49.12,0,0,0,21.2,90Z"/><path class="cls-2" d="M78.66,35.17A25.41,25.41,0,0,1,87,39.12c7.3,5.23,9.48,11.69,9.23,20.53a31.54,31.54,0,0,1-2.81,12.5C81.16,96.59,31.2,92.24,27,69.2a29,29,0,0,1-.3-5.49c0-2.77.08-6.54,1.81-8.78s4.83-3.18,8.66-3.31a17.12,17.12,0,0,0,11.74-3.85c9.44-7.12,15.61-16.37,29.77-12.6Zm1.46,26.22c0,2.34-2.68,4.22-6,4.22s-6-1.89-6-4.22,2.69-4.21,6-4.21,6,1.89,6,4.21Zm5-9A16.42,16.42,0,0,1,90,58.46c2.79,6.36-.6,12.08-4.84,16.76a26.61,26.61,0,0,1-13.31,6.63,55.85,55.85,0,0,1-17.74.41A41.05,41.05,0,0,1,42.8,79.5C39.2,78,33.44,74,32.09,70.19c-1.05-3,.54-5.5,5.35-5.53C54.31,65,56.29,50,70.15,48a19.67,19.67,0,0,1,15,4.39Z"/><path class="cls-3" d="M61.44,122.88a61.31,61.31,0,1,1,23.49-4.66,61.29,61.29,0,0,1-23.49,4.66ZM21.2,90,90,21.2a49.44,49.44,0,0,0-47.38-5.34A49.53,49.53,0,0,0,15.86,42.58a49,49,0,0,0-3.73,18.86h0A48.93,48.93,0,0,0,21.2,90ZM98.92,29.38,29.38,98.92A49.32,49.32,0,0,0,98.92,29.38Z"/></svg>