<svg id="Layer_1" data-name="Layer 1" xmlns="http://www.w3.org/2000/svg" viewBox="0 0 122.88 122.88"><defs><style>.cls-1{fill:#fff;}.cls-2{fill-rule:evenodd;}.cls-3{fill:#d92d27;}</style></defs><title>no-newborn-baby-child</title><path class="cls-1" d="M24,29.38,93.49,98.92A49.31,49.31,0,0,1,24,29.38ZM101.68,90,32.92,21.2A49.24,49.24,0,0,1,96.3,26.57a49,49,0,0,1,14.45,34.87h0A49.12,49.12,0,0,1,101.68,90Z"/><path class="cls-2" d="M61.44,21.66A11.09,11.09,0,1,1,50.35,32.75,11.09,11.09,0,0,1,61.44,21.66ZM49.68,72.05,58.5,81,52,87.47l5.21,5.34L59,94.63c3,4-1.51,8.78-5.47,5.47L42,88.31a6.75,6.75,0,0,1-.48-8.06l8.2-8.2Zm23.51,0L64.39,81l6.49,6.5-5.2,5.34L63.9,94.64c-3,4,1.52,8.78,5.47,5.47L80.92,88.32a6.75,6.75,0,0,0,.48-8.06l-8.21-8.21Zm14.63-2.94h0c-1.81,1.3-4.11.7-5.65-.91l-8.85-9.28v8.44H49.53V59L40.71,68.2c-1.53,1.61-3.85,2.21-5.65.91h0c-1.8-1.3-2.5-4.1-.91-5.65L45.77,52.17c1.89-1.83,5.53-6.19,8-6.19H69.33c2.29,0,5.86,4.32,7.77,6.19L88.72,63.46c1.6,1.55.9,4.35-.9,5.65Z"/><path class="cls-3" d="M61.44,122.88A61.31,61.31,0,1,0,38,118.22a61.29,61.29,0,0,0,23.49,4.66ZM101.68,90,32.93,21.2a49.44,49.44,0,0,1,47.38-5.34A49.53,49.53,0,0,1,107,42.58a49,49,0,0,1,3.73,18.86h0A48.93,48.93,0,0,1,101.68,90ZM24,29.38,93.5,98.92A49.32,49.32,0,0,1,24,29.38Z"/></svg>