<svg xmlns="http://www.w3.org/2000/svg" shape-rendering="geometricPrecision" text-rendering="geometricPrecision" image-rendering="optimizeQuality" fill-rule="evenodd" clip-rule="evenodd" viewBox="0 0 512 512"><path fill-rule="nonzero" d="M229.83 422.69v-51.72c-30.63-4.1-52.9-13.83-67.77-30.21-15.37-16.94-22.54-40.67-22.52-72.32l.01-34.8h-4.66c-7.83 0-14.24-6.41-14.24-14.25v-16.52c0-5.92 3.67-11.02 8.84-13.16l198.9 166.56c-12.59 7.31-27.95 12.1-46.21 14.19v52.23h-52.35zM189.78 8.77c68.2-18.28 137.38-7.14 194.12 25.61l.07.04c56.73 32.71 100.97 87.1 119.26 155.34 18.28 68.21 7.15 137.41-25.6 194.13a255.75 255.75 0 0 1-15.14 23.25c-.57.9-1.2 1.77-1.91 2.61l-.28.34c-33.18 44.07-80.75 77.79-138.06 93.15-68.21 18.26-137.4 7.14-194.14-25.61l-.07-.05C71.29 444.88 27.06 390.49 8.78 322.24c-18.29-68.26-7.16-137.48 25.6-194.23l.88-1.4a256.978 256.978 0 0 1 33.29-44.83l.15-.19c.69-.82 1.41-1.58 2.18-2.29 31.34-32.92 71.83-57.92 118.9-70.53zM124.4 96.24l311.98 261.27c25.38-45.11 33.91-99.79 19.78-153.84l-.64-2.41c-14.98-54.63-50.56-98.18-96.07-124.5-45.81-26.45-101.77-35.41-156.98-20.61-29.58 7.92-55.92 21.85-78.07 40.09zm282.98 300.94L90.46 131.77c-4.71 6.27-9.04 12.8-13 19.54l-.68 1.26c-26.43 45.8-35.4 101.7-20.65 156.87l.04.14c14.78 55.19 50.55 99.17 96.4 125.64 45.45 26.27 100.91 35.29 155.73 20.97l2.47-.67c38.41-10.53 71.32-31.2 96.61-58.34zm-229.02-281v-3.45c0-12.41 10.15-22.56 22.56-22.56 12.4 0 22.56 10.18 22.56 22.56v41.24l-45.12-37.79zm86.51 72.45h24.82v-75.9c0-12.41 10.15-22.56 22.56-22.56 12.4 0 22.55 10.18 22.55 22.56v75.9h42.31c7.84 0 14.25 6.41 14.25 14.24v16.52c0 7.84-6.41 14.25-14.25 14.25h-4.61v31.39c0 4.58-.16 9.02-.49 13.33l-107.14-89.73z"/></svg>