<?xml version="1.0" encoding="utf-8"?><svg version="1.1" id="Layer_1" xmlns="http://www.w3.org/2000/svg" xmlns:xlink="http://www.w3.org/1999/xlink" x="0px" y="0px" viewBox="0 0 115.38 115.38" style="enable-background:new 0 0 115.38 115.38" xml:space="preserve"><style type="text/css">.st0{fill-rule:evenodd;clip-rule:evenodd;fill:#D8453E;} .st1{fill-rule:evenodd;clip-rule:evenodd;fill:#393939;}</style><g><path class="st0" d="M57.69,0c31.86,0,57.69,25.83,57.69,57.69c0,31.86-25.83,57.69-57.69,57.69S0,89.55,0,57.69 C0,25.83,25.83,0,57.69,0L57.69,0z M65.18,15.83c1.1,0.2,2.19,0.43,3.26,0.71c0.44-0.54,0.88-1.08,1.31-1.6 c-0.14,0.43-0.33,0.93-0.57,1.49l-0.12,0.28c6.92,1.91,13.12,5.53,18.14,10.37c0.58-0.88,1.13-1.62,1.63-2.13 c-0.26,0.9-0.56,1.85-0.9,2.84c0.79,0.8,1.55,1.64,2.28,2.5c0.83-2.27,1.5-4.37,1.96-6.23l2.98,0.98c0.98,0.55,2.37,1.78,2.01,3.28 c-0.83,2.7-1.53,5.66-2.24,8.81c3.37,6.09,5.29,13.1,5.29,20.55c0,19.21-12.74,35.44-30.22,40.71c-1.13,1.54-2.45,3.14-4.02,4.84 c-2.15,2.33-4.24,6.99-7.01,5.59L16.2,85.65c-1.94-1.1-2.63-1.8-2.12-3.6c1.38-4.37,2.45-7.59,3.48-10.31 c-1.54-4.4-2.38-9.13-2.38-14.06c0-23.21,18.6-42.07,41.7-42.51c1.97-2.09,3.88-4.14,5.71-6.18c0.96-0.71,1.85-0.72,2.7-0.24 l3.47,2.72C67.57,12.86,66.37,14.32,65.18,15.83L65.18,15.83z"/><path class="st1" d="M93.09,21.23l2.98,0.98c0.19,0.06,0.37,0.14,0.54,0.23c0.9,0.51,2.05,1.41,2.78,2.61 c0.69,1.12,1.04,2.47,0.67,3.98c-0.02,0.09-0.05,0.18-0.08,0.27c-1.04,3.41-1.93,7.49-2.88,11.86c-1.5,6.86-3.16,14.45-6.04,22.31 c-1.73,4.71-4.15,9.26-6.62,13.92c-0.85,1.59-0.05,0.07-1.01,1.89c-1.57,2.98-2.75,5.54-3.84,7.92 c-2.85,6.21-5.19,11.31-11.43,18.06c-0.48,0.52-0.96,1.18-1.45,1.85c-2.34,3.21-4.79,6.57-9.1,4.39l-0.08-0.04l0,0.01L14.77,88.29 c-0.08-0.05-0.17-0.1-0.24-0.15c-1.27-0.73-2.18-1.41-2.81-2.38c-0.87-1.33-1.03-2.7-0.51-4.52l0.02-0.08 c2.31-7.3,3.77-11.47,5.61-15.47c1.83-3.97,3.97-7.6,7.67-13.85l1.44-2.44c2.57-4.39,5.14-8.77,8.08-12.71 c5.86-7.86,12.43-14.81,18.61-21.36c2.75-2.91,5.42-5.74,7.72-8.3c0.14-0.15,0.29-0.29,0.45-0.41c0.96-0.72,1.95-1.08,2.97-1.15 c1.05-0.07,2.03,0.18,2.96,0.69c0.17,0.09,0.32,0.2,0.47,0.32l3.39,2.66c0.21,0.17,0.4,0.36,0.55,0.56 c0.25,0.05,0.49,0.17,0.7,0.35c1.8,1.54,1.9,3.76,0.27,7.63c-1.25,2.98-3.63,7.21-7.18,13.35l13.15,7.22 c1.69-3.89,3.62-8.24,5.59-11.51c2.07-3.44,4.89-6.61,9.2-5.55C92.95,21.19,93.02,21.21,93.09,21.23L93.09,21.23z M82.68,41 c-0.06,0.05-0.1,0.08-0.02,0.04C82.68,41.03,82.68,41.02,82.68,41L82.68,41z M80.88,39.76l1.78,0.98l0-0.01 c0.03-0.1,0.07-0.19,0.11-0.28l0,0c1.52-3.37,2.88-6.56,3.97-9.37c0.84-2.2,1.56-4.26,2.1-6.13c-0.72,0.74-1.56,1.94-2.43,3.41 C84.45,31.59,82.54,35.93,80.88,39.76L80.88,39.76z M69.75,14.94c-1.47,1.77-2.96,3.66-4.45,5.61c-1.81,2.37-3.7,4.96-5.59,7.59 l2.44,1.34c3.49-6.03,5.82-10.18,7.03-13.05C69.41,15.87,69.6,15.37,69.75,14.94L69.75,14.94z M92.16,24.07l2.98,0.98 c0.98,0.55,2.37,1.78,2.01,3.28c-2.82,9.23-4.26,21.44-8.9,34.12c-1.88,5.12-4.69,10.2-7.46,15.45 c-5.42,10.25-6.46,16.29-14.82,25.35c-2.15,2.33-4.24,6.99-7.01,5.59L16.2,85.65c-1.94-1.1-2.63-1.8-2.12-3.6 c4.56-14.39,5.7-16.35,13-28.7c3.01-5.1,5.9-10.27,9.34-14.88c8.33-11.17,18.11-20.49,26.16-29.47c0.96-0.71,1.85-0.72,2.7-0.24 l3.47,2.72c-3.85,4.49-7.84,9.83-11.6,15.08c-0.99,1.68-0.98,3.09,0.77,4.01l23.78,13.06c1.89,0.74,3.12,0.02,3.78-1.95 C88.49,35.03,91,28.77,92.16,24.07L92.16,24.07z"/><polygon class="st0" points="24.24,18.08 39.59,9.21 91.15,98.51 75.79,107.38 24.24,18.08"/></g></svg>