<svg id="Layer_1" data-name="Layer 1" xmlns="http://www.w3.org/2000/svg" viewBox="0 0 122.87 122.88"><defs><style>.cls-1{fill:#d8453e;}</style></defs><title>no-pesticide</title><path d="M48.07,47h1.61L59.82,69.14a13.67,13.67,0,0,0-1.92,0,13.41,13.41,0,0,0-2.69.46,13.55,13.55,0,0,0-2.55,1,13.22,13.22,0,0,0-2.31,1.49,14.68,14.68,0,0,0-2,2,14.36,14.36,0,0,0-1.58,2.32h0A14.89,14.89,0,0,0,45.65,79,15.33,15.33,0,0,0,45,81.74a14.86,14.86,0,0,0-.09,2.84,15.36,15.36,0,0,0,.45,2.81,15.53,15.53,0,0,0,1,2.66,14.09,14.09,0,0,0,1.44,2.41,13.68,13.68,0,0,0,1.86,2.08,13.37,13.37,0,0,0,2.18,1.64l0,0A13.44,13.44,0,0,0,57,98h0a13,13,0,0,0,2.72.09,13.2,13.2,0,0,0,2.68-.46,13.91,13.91,0,0,0,2.56-1,13.13,13.13,0,0,0,2.3-1.49,14.12,14.12,0,0,0,2-2,14,14,0,0,0,1-1.31l5.46,11.93a6.76,6.76,0,0,1-.92.76A7.77,7.77,0,0,1,70.93,106H50.59a11.66,11.66,0,0,1-5.71-1.69c-13.27-8.53-3.05-46.39,2.48-56.84a.79.79,0,0,1,.71-.45ZM60,47h7.18C68.56,57,72.53,63.89,75.7,71.55c3.54,8.56,5.33,11.32,4.5,19.66L60,47Zm16.92-29-.09,11a.86.86,0,0,1-.6.83h0a16.14,16.14,0,0,0-6.48,3.33,11.34,11.34,0,0,0-3.39,6.6v3.75a.84.84,0,0,1-.83.87H58.73L47.38,19.5c3.23-1.69,9.13-2.33,13.14-2.45,2.58-.07,5.17-.13,7.77-.13s5.2,0,7.78.12a.84.84,0,0,1,.81.89ZM42.36,31c-.67-.32-1.39-.63-2.15-.91a.89.89,0,0,1-.5-1.11h0c.25-.69.53-1.35.82-2l1.83,4ZM78.57,17.68l.07,10.55h4.94c.69,0,1-.58.88-2.15V19.46a1.16,1.16,0,0,0-.66-1.15l-5.23-.63ZM69.9,40.59c.88-3.67,3-6.09,6.52-7a36.19,36.19,0,0,0,4.92,14.52c1.47,2.16-.91,4.4-2.63,2.11l-5.56-9.51-3.25-.09Zm-11.07,36a2.92,2.92,0,0,1,1.05.2c.42-1,.55-1.29,1-2.25l1.14.78c.24.17-.74,1.48-1,2.18a7.82,7.82,0,0,1,2.13,4.08H58.52l.47.59h5l1.49-.53L60.91,71.52l-.57-.09a11.78,11.78,0,0,0-2.3-.08,12.12,12.12,0,0,0-2.28.4,9.43,9.43,0,0,0-.9.29c-.29.11-.57.23-.87.36h0l-.57.29-.56.32a.77.77,0,0,0-.26,1l.11.15,3.22,4.07a5.74,5.74,0,0,1,.73-.81c-.16-.36-.29-.67-.41-1l-.72-1.34,1.15-.78c.22-.14.41.22.58.7s.37,1.32.52,1.66a3.15,3.15,0,0,1,1-.2Zm7.51,6.86-1.82.65h0c0,.16,0,.31,0,.47,0,.43,0,.86-.07,1.27l2.59,1.37c.84.44.92,2.38-1.27,1.57l-1.71-.91c0,.18-.11.36-.17.53l2.66,3.36a.71.71,0,0,0,1,.1l.11-.11.25-.32c.09-.11.18-.23.26-.35s.28-.4.41-.61.28-.45.39-.64l.14-.27-2.8-6.11ZM55.77,81.53H54.54a8.07,8.07,0,0,1,.32-1.15L51,75.55a.69.69,0,0,0-1-.1.52.52,0,0,0-.1.11l-.26.31c-.09.11-.17.23-.26.35s-.28.4-.41.61-.28.45-.39.65a12.7,12.7,0,0,0-1,2.2A12.31,12.31,0,0,0,47.14,82a12.79,12.79,0,0,0-.08,2.4,13.1,13.1,0,0,0,.38,2.38,12.89,12.89,0,0,0,.81,2.26,12,12,0,0,0,1.22,2h0a12,12,0,0,0,1.58,1.76,11.46,11.46,0,0,0,1.87,1.41,12.35,12.35,0,0,0,2.11,1,11.53,11.53,0,0,0,2.25.54,11,11,0,0,0,2.3.08,11.46,11.46,0,0,0,2.28-.39q.45-.14.9-.3a8.77,8.77,0,0,0,.86-.36h0l.55-.27.56-.33a.75.75,0,0,0,.26-1,.56.56,0,0,0-.1-.15l-2-2.59a4.92,4.92,0,0,1-4,2.43c-2.34,0-4.35-2.13-5.2-5.14l-1.87.88c-2.16,1.07-2.15-1.18-1.24-1.6l2.73-1.3q-.06-.61-.06-1.23h0c0-.16,0-.31,0-.47l-2.89-1c-1.08-.39-.83-2.43,1.09-1.72l2.31.83h2.48l-.48-.59Z"/><path class="cls-1" d="M73.42,1.17A61.25,61.25,0,0,0,18,18h0A61.77,61.77,0,0,0,4.65,37.93,62.09,62.09,0,0,0,1.17,49.44a62,62,0,0,0,0,24,60.88,60.88,0,0,0,9.16,22.12,61.3,61.3,0,0,0,7.5,9.19l.16.15a61.06,61.06,0,0,0,20,13.35h0a61.78,61.78,0,0,0,35.48,3.48,62.09,62.09,0,0,0,11.51-3.48,61.59,61.59,0,0,0,33.29-33.29,62.09,62.09,0,0,0,3.48-11.51,62,62,0,0,0,0-24,61,61,0,0,0-9.16-22.13A61.45,61.45,0,0,0,84.91,4.65h0a61.24,61.24,0,0,0-11.5-3.48ZM85.75,103.34l-40-87.48a3.12,3.12,0,0,1-.3-.73,3.18,3.18,0,0,1,2.23-3.9c.88-.24,1.8-.46,2.75-.67s1.76-.35,2.75-.52h0c1.4-.22,2.77-.39,4.09-.49s2.78-.17,4.17-.17a52.4,52.4,0,0,1,10.16,1A51.35,51.35,0,0,1,90.3,18.13a52.13,52.13,0,0,1,19.21,23.38h0a51.46,51.46,0,0,1,2.95,9.74,52.63,52.63,0,0,1,0,20.32A52.12,52.12,0,0,1,98.22,98.22c-.68.68-1.46,1.41-2.36,2.21s-1.6,1.38-2.42,2c-.49.39-1,.77-1.51,1.14s-.9.64-1.41,1a3.3,3.3,0,0,1-.57.34,3.17,3.17,0,0,1-4.2-1.56ZM37.11,19.51l40,87.49a3.12,3.12,0,0,1,.3.73,3.18,3.18,0,0,1-2.23,3.9c-.86.23-1.79.46-2.78.67-.79.17-1.67.33-2.63.49h-.1c-1.4.23-2.77.39-4.09.5s-2.79.16-4.17.16a52.4,52.4,0,0,1-10.16-1,52,52,0,0,1-18.73-7.75A52.06,52.06,0,0,1,18.16,90.33a51.75,51.75,0,0,1-4.81-9h0a51.46,51.46,0,0,1-2.95-9.74,52.63,52.63,0,0,1,0-20.32,52,52,0,0,1,7.75-18.73,52.38,52.38,0,0,1,6.49-7.91c.68-.68,1.46-1.42,2.35-2.21s1.61-1.38,2.43-2c.49-.38,1-.76,1.51-1.13s.9-.64,1.41-1a2.66,2.66,0,0,1,.57-.33,3.17,3.17,0,0,1,4.2,1.56Z"/></svg>