<svg id="Layer_1" data-name="Layer 1" xmlns="http://www.w3.org/2000/svg" viewBox="0 0 122.88 122.88"><defs><style>.cls-1{fill:#fff;}.cls-2{fill-rule:evenodd;}.cls-3{fill:#d92d27;}</style></defs><title>no-pee-urine</title><path class="cls-1" d="M21.2,32.93,90,101.68A49.29,49.29,0,0,1,12.13,61.44h0A49.12,49.12,0,0,1,21.2,32.93ZM98.92,93.5,29.39,24A49.31,49.31,0,0,1,98.92,93.5Z"/><path class="cls-2" d="M76.14,64.58l-2.37-.11c1.94,3.56.55,8.06-1.55,16-1.56,5.91,2,8.66,6.44,19.57.85,2.08,1.13,1.94,1,4.19l-17.29-.11c-.91,0-2.39-.21-1.85-1.72.39-1.12,5.2-2.11,6.42-2.47-5.53-9.21-8.28-15-8.48-29.26,0-1.15.38-1.85,0-3.51-.15-.67-1.53-.3,0-1.81.38-.35.17-1,.11-1.54h0c-1.42-10.16-2.76-17,.33-25,1.42-3.69,7-5.11,11.6-4.4a3.65,3.65,0,0,1,1,.18l.23.07a11.84,11.84,0,0,1,2.15.75A40.79,40.79,0,0,1,81.27,39,44.07,44.07,0,0,1,90,46.33a3.85,3.85,0,0,1,.21,5h0a34.67,34.67,0,0,1-7.38,7.21,24,24,0,0,1-6.49,3.23l-.15,2.8ZM22.84,97.9a1.48,1.48,0,0,0,.6,2.77,1.41,1.41,0,0,0,.85-.19,3.28,3.28,0,0,1,1.89-.06,1.48,1.48,0,0,0,1.09-2.7,1.51,1.51,0,0,0-.53-.21,5.64,5.64,0,0,0-3.9.39Zm33-27.76a1.49,1.49,0,0,0-1.68-2.45l-.5.36a1.48,1.48,0,0,0,1.24,2.63,1.52,1.52,0,0,0,.53-.25l.41-.29Zm-4.2,4.22a1.49,1.49,0,0,0-1.71-2.27,1.6,1.6,0,0,0-.7.53c-.61.84-1.17,1.7-1.7,2.6a1.49,1.49,0,0,0,2.17,1.94,1.63,1.63,0,0,0,.39-.44,26.64,26.64,0,0,1,1.55-2.36Zm-4.05,7.49A1.49,1.49,0,0,0,45.52,80a1.43,1.43,0,0,0-.69.76c-.39,1-.73,1.89-1.07,2.86a1.52,1.52,0,0,0,0,.87,1.48,1.48,0,0,0,2.83.08c.31-.91.65-1.81,1-2.7ZM45,90.11a1.48,1.48,0,0,0-2.89-.67c-.23,1-.43,2-.62,3a1.49,1.49,0,0,0,2.74,1A1.4,1.4,0,0,0,44.4,93c.18-1,.37-1.89.59-2.84Zm-1.35,8.56a1.49,1.49,0,0,0-2.89-.59,1.51,1.51,0,0,0-.07.37c-.08,1-.13,2-.14,3.06a1.49,1.49,0,0,0,3,0c0-1,.06-1.91.13-2.86Zm-1.89,9.79a1.49,1.49,0,0,0,1.62-2.35,1.52,1.52,0,0,0-.66-.46,2.59,2.59,0,0,1-.38-.17c-.65-.34-1.29-.74-1.92-1.12a1.48,1.48,0,1,0-1.55,2.53,20.55,20.55,0,0,0,2.71,1.51l.18.06Zm-7.92-4.64a1.48,1.48,0,1,0,1.48-2.56c-.87-.51-1.76-1-2.66-1.47a1.48,1.48,0,0,0-1.36,2.64c.86.44,1.7.91,2.54,1.39ZM69.57,15.71a8.64,8.64,0,1,1-8.63,8.63,8.63,8.63,0,0,1,8.63-8.63Zm7.65,29.94c-.13,2.52-.28,5-.42,7.5.53-.3,1-.62,1.55-1a23.24,23.24,0,0,0,3.48-3,34.53,34.53,0,0,0-4.61-3.52Z"/><path class="cls-3" d="M61.44,0A61.31,61.31,0,1,0,84.93,4.66,61.29,61.29,0,0,0,61.44,0ZM21.2,32.93,90,101.68A49.44,49.44,0,0,1,42.57,107,49.53,49.53,0,0,1,15.86,80.3a49,49,0,0,1-3.73-18.86h0A48.93,48.93,0,0,1,21.2,32.93ZM98.92,93.5,29.38,24A49.32,49.32,0,0,1,98.92,93.5Z"/></svg>