<svg id="Layer_1" data-name="Layer 1" xmlns="http://www.w3.org/2000/svg" viewBox="0 0 122.88 122.88"><defs><style>.cls-1{fill:#fff;fill-rule:evenodd;}.cls-2{fill:#d92d27;}</style></defs><title>no-pound</title><path class="cls-1" d="M61.44,12.1A49.34,49.34,0,1,1,12.1,61.44,49.34,49.34,0,0,1,61.44,12.1Z"/><path d="M86.67,92.09l.43,1A27.5,27.5,0,0,1,81,95.38a26.61,26.61,0,0,1-6.71.9,42.94,42.94,0,0,1-11.13-2c-4.63-1.32-8.07-2-10.28-2q-5.67,0-11.55,4.08L36.4,85.14a24.58,24.58,0,0,0,7.56-8A17,17,0,0,0,46.27,69a19,19,0,0,0-.19-2.64H36.4V56.12h7.31a33.81,33.81,0,0,1-1.82-8.81L61,66.37H59a15.54,15.54,0,0,1,.14,2,16.26,16.26,0,0,1-1.39,6.76A37.79,37.79,0,0,1,52,83.33,14,14,0,0,1,58.4,82a19.74,19.74,0,0,1,2.91.19c.44.06,1.69.36,3.79.9a37.08,37.08,0,0,0,7.63,1.47,18.08,18.08,0,0,0,5.43-1l8.51,8.51ZM45.59,33.86a18,18,0,0,1,6.79-5.45,25.51,25.51,0,0,1,11-2.39Q72.57,26,78,30.64t6.63,13.27L72.1,45.77c-.59-3.34-1.65-5.75-3.2-7.2a8,8,0,0,0-5.77-2.2A8.39,8.39,0,0,0,54.74,43l-9.15-9.15ZM67.85,56.12h3.39v3.39l-3.39-3.39Z"/><path class="cls-2" d="M61.44,122.88A61.31,61.31,0,1,0,38,118.22a61.29,61.29,0,0,0,23.49,4.66ZM101.68,90,32.93,21.2a49.44,49.44,0,0,1,47.38-5.34A49.53,49.53,0,0,1,107,42.58a49,49,0,0,1,3.73,18.86h0A48.93,48.93,0,0,1,101.68,90ZM24,29.38,93.5,98.92A49.32,49.32,0,0,1,24,29.38Z"/></svg>