<svg id="Layer_1" data-name="Layer 1" xmlns="http://www.w3.org/2000/svg" viewBox="0 0 122.88 122.88"><defs><style>.cls-1{fill:#fff;fill-rule:evenodd;}.cls-2{fill:#d92d27;}</style></defs><title>no-rupee</title><path class="cls-1" d="M61.44,12.1A49.34,49.34,0,1,1,12.1,61.44,49.34,49.34,0,0,1,61.44,12.1Z"/><path d="M85.21,29.46l-4.43,9.8H70.68a12.83,12.83,0,0,1,1.47,2.26,9.73,9.73,0,0,1,.92,2.81H85.21l-4.43,9.8H73.07a15.15,15.15,0,0,1-1.91,5.3l-15.1-15.1h3.63a5,5,0,0,0-1.95-2.78A9.93,9.93,0,0,0,54.37,40a20.64,20.64,0,0,0-3.15-.54L42.4,30.67,43,29.46ZM61.77,67.19l-.66.25a24.9,24.9,0,0,1-6.63,1.48L78.6,94.39H62.91L40.7,69.64v-9.8h6.56c.81,0,1.87-.06,3.14-.18a16.63,16.63,0,0,0,3.24-.6l8.13,8.13ZM48.71,54.13H38.52l3.17-7,7,7Z"/><path class="cls-2" d="M61.44,122.88A61.31,61.31,0,1,0,38,118.22a61.29,61.29,0,0,0,23.49,4.66ZM101.68,90,32.93,21.2a49.44,49.44,0,0,1,47.38-5.34A49.53,49.53,0,0,1,107,42.58a49,49,0,0,1,3.73,18.86h0A48.93,48.93,0,0,1,101.68,90ZM24,29.38,93.5,98.92A49.32,49.32,0,0,1,24,29.38Z"/></svg>