<svg id="Layer_1" data-name="Layer 1" xmlns="http://www.w3.org/2000/svg" viewBox="0 0 122.88 122.88"><defs><style>.cls-1{fill:#fff;}.cls-2{fill:#d92d27;}</style></defs><title>no-sun-light</title><path class="cls-1" d="M24,29.38,93.49,98.92A49.31,49.31,0,0,1,24,29.38ZM101.68,90,32.92,21.2a49.29,49.29,0,0,1,77.83,40.24h0A49.34,49.34,0,0,1,108,77.73,48.85,48.85,0,0,1,101.68,90Z"/><path d="M30.58,45.79a2.37,2.37,0,1,1,2.36-4.1l5.26,3a2.37,2.37,0,0,1-2.36,4.1l-5.26-3Zm30.86-5.53a21.17,21.17,0,1,1-15,6.2,21.14,21.14,0,0,1,15-6.2ZM59.56,26.89a2.37,2.37,0,1,1,4.74,0V33a2.37,2.37,0,1,1-4.74,0V26.89Zm17.53,3.69a2.37,2.37,0,0,1,4.1,2.36l-3,5.26a2.37,2.37,0,0,1-4.1-2.36l3-5.26Zm13.33,12a2.37,2.37,0,1,1,2.38,4.09l-5.27,3a2.36,2.36,0,0,1-2.37-4.09l5.26-3Zm5.57,17a2.37,2.37,0,1,1,0,4.74H89.92a2.37,2.37,0,1,1,0-4.74ZM92.3,77.09a2.37,2.37,0,0,1-2.36,4.1l-5.26-3A2.37,2.37,0,0,1,87,74.05l5.26,3Zm-12,13.33a2.37,2.37,0,1,1-4.09,2.38l-3-5.27a2.36,2.36,0,1,1,4.09-2.37l3,5.26ZM63.32,96a2.37,2.37,0,1,1-4.74,0V89.92a2.37,2.37,0,1,1,4.74,0V96ZM42.54,32.46a2.37,2.37,0,1,1,4.09-2.38l3,5.27a2.36,2.36,0,1,1-4.09,2.37l-3-5.26ZM45.79,92.3a2.37,2.37,0,1,1-4.1-2.36l3-5.26A2.36,2.36,0,0,1,48.83,87l-3,5.27Zm-13.33-12a2.37,2.37,0,1,1-2.38-4.09l5.27-3a2.36,2.36,0,1,1,2.37,4.09l-5.26,3Zm-5.57-17a2.37,2.37,0,1,1,0-4.74H33a2.37,2.37,0,1,1,0,4.74Z"/><path class="cls-2" d="M61.44,122.88A61.31,61.31,0,1,0,38,118.22a61.29,61.29,0,0,0,23.49,4.66ZM101.68,90,32.93,21.2a49.44,49.44,0,0,1,47.38-5.34A49.53,49.53,0,0,1,107,42.58a49,49,0,0,1,3.73,18.86h0A48.93,48.93,0,0,1,101.68,90ZM24,29.38,93.5,98.92A49.32,49.32,0,0,1,24,29.38Z"/></svg>