<svg id="Layer_1" data-name="Layer 1" xmlns="http://www.w3.org/2000/svg" viewBox="0 0 122.88 122.88"><defs><style>.cls-1{fill:#fff;}.cls-2{fill-rule:evenodd;}.cls-3{fill:#d92d27;}</style></defs><title>no-swimwear-swimsuit</title><path class="cls-1" d="M98.92,29.38,29.39,98.92A49.31,49.31,0,0,0,98.92,29.38ZM21.2,90,90,21.2a49.24,49.24,0,0,0-63.38,5.37A49,49,0,0,0,12.13,61.44h0A49.12,49.12,0,0,0,21.2,90Z"/><path class="cls-2" d="M77.94,69H46.17L42.29,80a3,3,0,0,0,1.24,4c8,1.82,13.29,5,15.18,13.89a12.84,12.84,0,0,0,6.93,0C67.75,90.36,72.26,86.43,80.08,84c1.84-.94,2.56-2.22,1.74-4L77.94,69ZM45,53.36l-.14,0c2.44,5.16,2.6,7.4,1.33,12.77H78.05c-1.47-5.37-1.58-7.47-.29-12.69a9.32,9.32,0,0,0,1.62-1.18,11.19,11.19,0,0,0,1.35-1.48,15.6,15.6,0,0,0,2.8-8.67,12.44,12.44,0,0,0-.82-4.64,21.49,21.49,0,0,0-2.27-4.67l.82-8.69a30.48,30.48,0,0,1-3.66-.76L77,23.08l-.88,9.85c-5.65,2.54-11.24,8.84-14,14.31H60.63c-2.78-5.47-8.37-11.77-14-14.31l-1-9.82c-1.31.33-2.66.59-4,.91l.61,8.73A15.43,15.43,0,0,0,39.47,43.9c.4,3.67,2.36,7.53,5.5,9.46Z"/><path class="cls-3" d="M61.44,122.88a61.31,61.31,0,1,1,23.49-4.66,61.29,61.29,0,0,1-23.49,4.66ZM21.2,90,90,21.2a49.44,49.44,0,0,0-47.38-5.34A49.53,49.53,0,0,0,15.86,42.58a49,49,0,0,0-3.73,18.86h0A48.93,48.93,0,0,0,21.2,90ZM98.92,29.38,29.38,98.92A49.32,49.32,0,0,0,98.92,29.38Z"/></svg>