<svg id="Layer_1" data-name="Layer 1" xmlns="http://www.w3.org/2000/svg" viewBox="0 0 122.88 122.88"><defs><style>.cls-1{fill:#fff;}.cls-2{fill-rule:evenodd;}.cls-3{fill:#d92d27;}</style></defs><title>no-shoe-boot</title><path class="cls-1" d="M101.68,32.93,32.92,101.68a49.29,49.29,0,0,0,77.83-40.24h0a49.12,49.12,0,0,0-9.08-28.51ZM24,93.5,93.49,24A49.31,49.31,0,0,0,24,93.5Z"/><path class="cls-2" d="M40.56,57.25l.25,0L44.38,56l.7-.37a.5.5,0,0,1,.1-.19,56.55,56.55,0,0,0,3.49-5c-2.2,0-3.4-.55-4-1.21-1.23-1.28-.68-2.81.56-4A7.42,7.42,0,0,1,48,43.59a3.16,3.16,0,0,1,2.88.24c.92.71,1.15,2.32-.21,5.29a40.11,40.11,0,0,0,5.89-1.19l-.28-.42c.42-.25.84-.49,1.28-.71.14.34.3.67.46,1a.86.86,0,0,1,.13.14.59.59,0,0,1,.09.31c8.16,16.21,26.69,16,41.92,3.39a46.74,46.74,0,0,1,1.17,6.77c.34,3.13.48,6.29.51,8.92l-22.16-.21a131.23,131.23,0,0,0-18.93,1.57,76.42,76.42,0,0,1-15,1.61H21.37c-1.29-5.47,1.17-11.49,8.56-12.87,3.58-.66,6.9.33,10.63-.17Zm5.72-1.12L49,59.9,51.72,58l-2.45-3.71-3,1.87Zm2.32-2.89h0l.92-.72.07.09,3-1.91-.28-.42.3-.23c-1,.17-1.85.27-2.61.33a37.19,37.19,0,0,1-2,3.22l.58-.36Zm1.69.36L53,57.4l2.76-1.93-2.48-3.75-3,1.88Zm3.32-3.73.1.14.4-.25-.5.11Zm.8,1.14,2.39,3.35,2.76-1.93-2.19-3.29-3,1.87Zm-8.9-2.62c.49.52,1.59.93,3.85.83,1.41-2.63,1.41-3.95.77-4.44a2.07,2.07,0,0,0-1.78,0A6,6,0,0,0,46,46.1c-.76.74-1.16,1.63-.52,2.29Zm15.1-2.77a12.77,12.77,0,0,1,5.24-1.13c6.51.53,8.49,14.07,24.1,1.85,2.83-2.21,5.91-3.06,8.21.39a10,10,0,0,1,.92,1.73c-13,12-32.29,12.35-38.47-2.84Zm41.21,24.62c0,1.37-.07,2.42-.12,3a7.34,7.34,0,0,1-1,3.27,6.13,6.13,0,0,1-5.27,3H34.05c-5.59,0-9.48-2.64-11.46-6.11H46.13c10.37.87,18.64-3.32,31.41-3.05l24.28-.11Z"/><path class="cls-3" d="M61.44,0A61.31,61.31,0,1,1,38,4.66,61.29,61.29,0,0,1,61.44,0Zm40.24,32.93L32.93,101.68A49.44,49.44,0,0,0,80.31,107a49.26,49.26,0,0,0,30.44-45.58h0a49.12,49.12,0,0,0-9.08-28.51ZM24,93.5,93.5,24A49.32,49.32,0,0,0,24,93.5Z"/></svg>