<svg id="Layer_1" data-name="Layer 1" xmlns="http://www.w3.org/2000/svg" viewBox="0 0 122.88 122.88"><defs><style>.cls-1{fill:#fff;}.cls-2{fill:#d92d27;}</style></defs><title>no-talking</title><path class="cls-1" d="M101.68,32.93,32.92,101.68a49.29,49.29,0,0,0,77.83-40.24h0A49.34,49.34,0,0,0,108,45.15a48.85,48.85,0,0,0-6.32-12.22ZM24,93.5,93.49,24A49.31,49.31,0,0,0,24,93.5Z"/><path d="M68.79,42a1.94,1.94,0,0,0-.52,1.33,2,2,0,0,0,4,0,2,2,0,0,0-.48-1.3,10.68,10.68,0,0,1,2.69,1,1.09,1.09,0,0,0,1.49-.47,1.1,1.1,0,0,0-.47-1.5,11.62,11.62,0,0,0-5.1-1.43,9.69,9.69,0,0,0-5.27,1.46A1.11,1.11,0,0,0,66.23,43a7.89,7.89,0,0,1,2.56-1Zm-18,32.15a1.49,1.49,0,0,1,.4.88,1.57,1.57,0,0,1-1.4,1.74h0c-1.35.17-3.21-2.27-3.71-3a10.33,10.33,0,0,1-1.68-3.65,11.16,11.16,0,0,1,1.1-7.58A1.58,1.58,0,0,1,48.32,64c-2,3.9-1,7.32,2.24,9.95.07.07.15.14.22.22Zm-14.92,15a1.59,1.59,0,0,1-2,2.36c-.14-.08-.29-.21-.42-.3a27.67,27.67,0,0,1-6.13-6.42,22.22,22.22,0,0,1-3.5-16.47,28.6,28.6,0,0,1,3.1-8.67,1.59,1.59,0,0,1,2.8,1.5,24.94,24.94,0,0,0-2.76,7.66,18.92,18.92,0,0,0,3,14.24,24.08,24.08,0,0,0,5.45,5.67,3.77,3.77,0,0,1,.46.43Zm7.25-8.42a1.59,1.59,0,0,1-2,2.42l0,0a20.72,20.72,0,0,1-4.84-4.77,14.62,14.62,0,0,1-2.46-5.56,15,15,0,0,1,.07-6.1,21.61,21.61,0,0,1,2.59-6.32A1.6,1.6,0,0,1,39.14,62a18.13,18.13,0,0,0-2.2,5.3,11.49,11.49,0,0,0-.09,4.84,11.7,11.7,0,0,0,2,4.44,17.75,17.75,0,0,0,4,3.9,1.4,1.4,0,0,1,.3.23ZM79.87,83a22.42,22.42,0,0,1-.09,2.83,22.75,22.75,0,0,1-.69,3.77,1.31,1.31,0,1,1-2.54-.68,19.75,19.75,0,0,0,.61-3.34,17.58,17.58,0,0,0,.09-1.79c-1.7.47-3.38.85-5,1.13a25.49,25.49,0,0,1-8.84.26A8.46,8.46,0,0,1,58.93,83a5.86,5.86,0,0,1-1.62-4.71,13.14,13.14,0,0,1,1.4-4.76c-.2-.94-.36-1.92-.49-2.92a94.24,94.24,0,0,1-.57-9.94V60.1l-3.35-.19h0a4.33,4.33,0,0,1-2.21-.68,4,4,0,0,1-1.4-1.6,4.58,4.58,0,0,1-.45-2.15,7,7,0,0,1,1.21-3.63l3.5-7.14c1.72-3.52,1.7-4,1.62-5.84a32.18,32.18,0,0,1,.66-8.81,17.24,17.24,0,0,1,1.21-3.48l2.41,1a14.41,14.41,0,0,0-1.1,3.12,29.75,29.75,0,0,0-.59,8.1c.1,2.38.13,3-1.89,7.09L53.73,53a1,1,0,0,1-.11.2,4.4,4.4,0,0,0-.83,2.31,2,2,0,0,0,.19.94,1.31,1.31,0,0,0,.49.55,1.64,1.64,0,0,0,.85.26h.11c3,.18,5.37.24,8.32.49a1.32,1.32,0,0,1-.22,2.63h-.07l-2.22-.13c0,2,0,4,.22,6a8.56,8.56,0,0,0,2.9.87,6.08,6.08,0,0,0,3.13-.5,1.32,1.32,0,0,1,1.06,2.41,8.66,8.66,0,0,1-4.45.7,10.17,10.17,0,0,1-2.42-.55l.12,1.07c.14,1,.33,2.07.56,3.13a1.32,1.32,0,0,1-.16,1,10.86,10.86,0,0,0-1.28,4.07,3.34,3.34,0,0,0,.87,2.71,5.82,5.82,0,0,0,3.13,1.42,22.78,22.78,0,0,0,7.89-.25,50.62,50.62,0,0,0,9-2.48,24.35,24.35,0,0,0,6.31-3.42c1.67-1.34,2.44-3.51,3.09-5.37.13-.38.26-.75.32-.91l.19-.51c.81-2.22,2.21-6.07,4-7.46a1.31,1.31,0,0,1,1.6,2.07c-1.21.93-2.44,4.32-3.15,6.28-.15.39-.11.3-.19.52-.15.41-.23.64-.31.87-.77,2.19-1.67,4.76-3.93,6.56a26.75,26.75,0,0,1-7,3.81c-.61.24-1.24.47-1.87.68Z"/><path class="cls-2" d="M61.44,0A61.31,61.31,0,1,1,38,4.66,61.29,61.29,0,0,1,61.44,0Zm40.24,32.93L32.93,101.68A49.44,49.44,0,0,0,80.31,107,49.53,49.53,0,0,0,107,80.3a49,49,0,0,0,3.73-18.86h0a48.93,48.93,0,0,0-9.08-28.51ZM24,93.5,93.5,24A49.32,49.32,0,0,0,24,93.5Z"/></svg>