<svg id="Layer_1" data-name="Layer 1" xmlns="http://www.w3.org/2000/svg" viewBox="0 0 122.88 122.88"><defs><style>.cls-1{fill:#fff;}.cls-2{fill-rule:evenodd;}.cls-3{fill:#d92d27;}</style></defs><title>no-video</title><path class="cls-1" d="M24,93.5,93.49,24A49.31,49.31,0,0,0,24,93.5Zm77.72-60.57L32.92,101.68a49.29,49.29,0,0,0,77.83-40.24h0a49,49,0,0,0-9.07-28.51Z"/><path class="cls-2" d="M41.18,32.23a10,10,0,1,1-7,2.93,10,10,0,0,1,7-2.93Zm-.12,21.53H70.47a5,5,0,0,1,5,5V80.27a5,5,0,0,1-5,5H61.38L68,95.81H61.83l-7.19-9.68-7.27,9.68H41.14L47.7,85.22H41.06a5,5,0,0,1-5-5V58.72a5,5,0,0,1,5-5ZM78.24,77.4V61.49l13.43-7.92v32L78.24,77.4ZM65.12,27.07a12.56,12.56,0,1,1-8.88,3.68,12.54,12.54,0,0,1,8.88-3.68Z"/><path class="cls-3" d="M61.44,0A61.31,61.31,0,1,1,38,4.66,61.29,61.29,0,0,1,61.44,0Zm40.24,32.93L32.93,101.68A49.44,49.44,0,0,0,80.31,107,49.53,49.53,0,0,0,107,80.3a49,49,0,0,0,3.73-18.86h0a48.93,48.93,0,0,0-9.08-28.51ZM24,93.5,93.5,24A49.32,49.32,0,0,0,24,93.5Z"/></svg>