<svg id="Layer_1" data-name="Layer 1" xmlns="http://www.w3.org/2000/svg" viewBox="0 0 122.87 122.88"><defs><style>.cls-1{fill-rule:evenodd;}.cls-2{fill:#d8453e;}</style></defs><title>no-weapons</title><path class="cls-1" d="M25.72,58.87V58.8c-.22-1.93-.18-3,.5-4a3.19,3.19,0,0,1,4.08-1.15A7.93,7.93,0,0,1,32.39,55L49,45.44l1.91,4.17a1.22,1.22,0,0,0-.43,1.67l1.95,3.39-2.57,1.48-1.95-3.39A1.24,1.24,0,0,0,45.74,54l1.95,3.38-2.57,1.49-1.95-3.39A1.24,1.24,0,0,0,41,56.72l2,3.38-2.57,1.49-2-3.39a1.24,1.24,0,0,0-2.14,1.24l2,3.38-2.61,1.5-2-3.38a1.23,1.23,0,0,0-2.14,1.23l2,3.39L31,67l-2-3.38a1.23,1.23,0,1,0-2.14,1.23l2,3.39-3.22,1.86-.11.06c-.23-.33-.46-.72-.7-1.12l-2.73-4.73a2.92,2.92,0,0,1,1.07-4l2.58-1.49ZM57.11,40.75,76.83,29.36l-.17-.3a3.2,3.2,0,0,1,1.17-4.35L80.73,23a1.11,1.11,0,0,1,1.5.4l1.21,2.1.69-.4a2.92,2.92,0,0,1,4,1.07l3.4,5.87L61.16,49.61l-4-8.86Zm35.65-6.52.83,1.44a2.93,2.93,0,0,1-1.07,4l-17.94,13-3.45-6L92.76,34.23ZM72.57,54.14l-2.42,1.77c3.13,4.41,4.28,7.91,2.63,11.45a11,11,0,0,1-2.13,3L69.53,67.9a7.64,7.64,0,0,0,1-1.59c1.2-2.54.19-5.31-2.39-9h0l-2.58,1.87L62.2,51.88,69,48,72.51,54a.44.44,0,0,0,.06.1ZM62.91,75.9c-1,.56-2.09,1.14-3.26,1.74l-.21.09,1.44,5.47L41.3,94.5c-.06-.5-.12-1-.17-1.64a33.5,33.5,0,0,1-.08-5.92c.06-5.71-.37-10.41-1.63-13-3-6.06-6.93,3.67-12.35-1.77l27-15.59,4.17,9.13c-1,2.08-1.12,4.68.13,8l.42,1.58c1.11-.57,2.14-1.12,3.08-1.66l1,2.27Zm-1.53,9.21.86,3.26c3,1.43,4.46,3.1,4.14,5-.46,2.84-3.55,4-5.74,5.22l-10.31,6c-2.92,1.37-5.08.14-6.68-3a15.83,15.83,0,0,1-2-5.09L61.38,85.11Z"/><path class="cls-2" d="M73.42,1.17A61.25,61.25,0,0,0,18,18h0A61.77,61.77,0,0,0,4.65,37.93,62.09,62.09,0,0,0,1.17,49.44a62,62,0,0,0,0,24,60.88,60.88,0,0,0,9.16,22.12,61.3,61.3,0,0,0,7.5,9.19l.16.15a61.06,61.06,0,0,0,20,13.35h0a61.78,61.78,0,0,0,35.48,3.48,62.09,62.09,0,0,0,11.51-3.48,61.59,61.59,0,0,0,33.29-33.29,62.09,62.09,0,0,0,3.48-11.51,62,62,0,0,0,0-24,61,61,0,0,0-9.16-22.13A61.45,61.45,0,0,0,84.91,4.65h0a61.24,61.24,0,0,0-11.5-3.48ZM85.75,103.34l-40-87.48a3.12,3.12,0,0,1-.3-.73,3.18,3.18,0,0,1,2.23-3.9c.88-.24,1.8-.46,2.75-.67s1.76-.35,2.75-.52h0c1.4-.22,2.77-.39,4.09-.49s2.78-.17,4.17-.17a52.4,52.4,0,0,1,10.16,1A51.35,51.35,0,0,1,90.3,18.13a52.13,52.13,0,0,1,19.21,23.38h0a51.46,51.46,0,0,1,2.95,9.74,52.63,52.63,0,0,1,0,20.32A52.12,52.12,0,0,1,98.22,98.22c-.68.68-1.46,1.41-2.36,2.21s-1.6,1.38-2.42,2c-.49.39-1,.77-1.51,1.14s-.9.64-1.41,1a3.3,3.3,0,0,1-.57.34,3.17,3.17,0,0,1-4.2-1.56ZM37.11,19.51l40,87.49a3.12,3.12,0,0,1,.3.73,3.18,3.18,0,0,1-2.23,3.9c-.86.23-1.79.46-2.78.67-.79.17-1.67.33-2.63.49h-.1c-1.4.23-2.77.39-4.09.5s-2.79.16-4.17.16a52.4,52.4,0,0,1-10.16-1,52,52,0,0,1-18.73-7.75A52.06,52.06,0,0,1,18.16,90.33a51.75,51.75,0,0,1-4.81-9h0a51.46,51.46,0,0,1-2.95-9.74,52.63,52.63,0,0,1,0-20.32,52,52,0,0,1,7.75-18.73,52.38,52.38,0,0,1,6.49-7.91c.68-.68,1.46-1.42,2.35-2.21s1.61-1.38,2.43-2c.49-.38,1-.76,1.51-1.13s.9-.64,1.41-1a2.66,2.66,0,0,1,.57-.33,3.17,3.17,0,0,1,4.2,1.56Z"/></svg>