<svg id="Layer_1" data-name="Layer 1" xmlns="http://www.w3.org/2000/svg" viewBox="0 0 122.88 122.88"><defs><style>.cls-1{fill:#d92d27;}.cls-2{fill:#42a5f5;fill-rule:evenodd;}</style></defs><title>no-water</title><path class="cls-1" d="M61.44,0A61.31,61.31,0,1,1,38,4.66,61.29,61.29,0,0,1,61.44,0Zm40.24,32.93-18,18Q82.32,49,80.9,47C79.49,45,78,43,76.62,40.84L93.5,24A49.32,49.32,0,0,0,24,93.5l8-8,.11.25a31.38,31.38,0,0,0,6.81,10l-6,6A49.44,49.44,0,0,0,80.31,107,49.53,49.53,0,0,0,107,80.3a49,49,0,0,0,3.73-18.86h0a48.93,48.93,0,0,0-9.08-28.51Z"/><path class="cls-2" d="M61.42,20.53c5.43,23.2,26.21,37.41,26.21,52.57a24.85,24.85,0,0,1-7.71,18.31,25.42,25.42,0,0,1-18.49,7.64A25.39,25.39,0,0,1,43,91.41,24.82,24.82,0,0,1,35.25,73.1c0-15.21,20.79-29.24,26.17-52.57ZM46.48,66.4a2.64,2.64,0,0,1,2.88,2.4,25.56,25.56,0,0,0,2.58,9.59,16.94,16.94,0,0,0,6.61,6.83,2.65,2.65,0,1,1-2.68,4.58,22.11,22.11,0,0,1-8.63-8.94,31,31,0,0,1-3.17-11.58,2.67,2.67,0,0,1,2.41-2.88Z"/></svg>