<svg xmlns="http://www.w3.org/2000/svg" shape-rendering="geometricPrecision" text-rendering="geometricPrecision" image-rendering="optimizeQuality" fill-rule="evenodd" clip-rule="evenodd" viewBox="0 0 466 512.14"><path fill="#333" d="M232.2 0c86.89 55.07 165.39 81.13 232.75 74.98 11.77 237.97-76.11 378.51-231.85 437.16C82.7 457.24-6.26 322.75.34 71.36 79.42 75.5 157.01 58.41 232.2 0z"/><path fill="#fff" d="M232.35 39.64c72.06 45.68 141.23 71.35 197.09 66.24 9.76 197.35-67.19 317.97-196.34 366.61C108.37 426.97 30.53 311.37 36 102.89c72.38 3.79 138.71-18.47 196.35-63.25z"/><path fill="#2196F3" d="M232.97 117.84c3.39 14.79 8.84 29.13 15.36 42.96 24.8 52.6 85.61 112.34 56.83 169.86-28.18 56.35-118.31 55.75-145.16-1.82-26.47-56.74 32.05-114.51 56.67-165.85 6.95-14.47 12.77-29.55 16.3-45.15zm-41.69 153.28c9.24-.86 8.83 8.88 9.81 15.1 2.92 18.43 10.45 33.94 27.37 44.06 9.33 5.57.99 19.93-8.26 14.38-21.4-12.78-31.54-32.36-35.25-55.84-1.01-6.35-3.14-16.83 6.33-17.7z"/><path fill="red" d="M345.63 94.66c11.24 3.55 22.24 6.34 32.93 8.31L249.7 253.18 356.85 384.3c-6.48 8.07-13.35 15.7-20.58 22.9l-106.7-130.58-106.3 123.9a269.648 269.648 0 0 1-19.59-23.87l106.34-123.94L86.26 101.25c11.57-1.39 22.98-3.48 34.18-6.25l109.7 134.25L345.63 94.66z"/></svg>