<svg id="Layer_1" data-name="Layer 1" xmlns="http://www.w3.org/2000/svg" viewBox="0 0 122.88 122.88"><defs><style>.cls-1{fill:#fff;}.cls-2{fill:#d92d27;}</style></defs><title>no-wc</title><path class="cls-1" d="M21.2,32.93,90,101.68A49.29,49.29,0,0,1,12.13,61.44h0A49.12,49.12,0,0,1,21.2,32.93ZM98.92,93.5,29.39,24A49.31,49.31,0,0,1,98.92,93.5Z"/><path d="M30,82.94,19.7,45.76H30.28l4.78,22.88h.27L41,45.76h8.33L55,68.71h.28L60,45.76H70.62L60.31,82.94H51.24L45.3,62.17H45L39.09,82.94Zm73.17-23.23H93.55A7.24,7.24,0,0,0,93,57.4a5.42,5.42,0,0,0-1.2-1.79A5.07,5.07,0,0,0,90,54.45,6.86,6.86,0,0,0,87.55,54a6.47,6.47,0,0,0-4,1.24A7.42,7.42,0,0,0,81,58.81a16.27,16.27,0,0,0-.84,5.54A16.47,16.47,0,0,0,81,70.06a7.06,7.06,0,0,0,2.5,3.45,6.64,6.64,0,0,0,3.94,1.15,7.27,7.27,0,0,0,2.36-.35,5.24,5.24,0,0,0,3.06-2.65,6.84,6.84,0,0,0,.65-2.15l9.63.07a14.57,14.57,0,0,1-1.24,4.8,15.83,15.83,0,0,1-3,4.51A14.78,14.78,0,0,1,94,82.2a18.35,18.35,0,0,1-15.37-1,15.39,15.39,0,0,1-6-6.46,22.39,22.39,0,0,1-2.21-10.44,22.13,22.13,0,0,1,2.25-10.46,15.66,15.66,0,0,1,6.07-6.45,16.84,16.84,0,0,1,8.53-2.18,18.36,18.36,0,0,1,6.1,1A14.55,14.55,0,0,1,98.25,49a13.7,13.7,0,0,1,3.37,4.53,17.38,17.38,0,0,1,1.56,6.16Z"/><path class="cls-2" d="M61.44,0A61.31,61.31,0,1,0,84.93,4.66,61.29,61.29,0,0,0,61.44,0ZM21.2,32.93,90,101.68A49.44,49.44,0,0,1,42.57,107,49.53,49.53,0,0,1,15.86,80.3a49,49,0,0,1-3.73-18.86h0A48.93,48.93,0,0,1,21.2,32.93ZM98.92,93.5,29.38,24A49.32,49.32,0,0,1,98.92,93.5Z"/></svg>