<svg id="Layer_1" data-name="Layer 1" xmlns="http://www.w3.org/2000/svg" viewBox="0 0 122.88 70.64"><defs><style>.cls-1{fill:#be360d;fill-rule:evenodd;}</style></defs><title>non-vegetarian</title><path class="cls-1" d="M61.44,0a61.46,61.46,0,0,1,61.44,61.44c0,1.16,0,2.37-.11,3.63s-.18,2.46-.32,3.63a2.19,2.19,0,0,1-2.17,1.94H2.6a2.18,2.18,0,0,1-2.18-2C.29,67.45.18,66.28.11,65.07S0,62.6,0,61.44A61.46,61.46,0,0,1,61.44,0Zm0,28A33.43,33.43,0,0,1,94.87,61.44a32.65,32.65,0,0,1-.21,3.7c0,.38-.09.76-.14,1.13h23.79c0-.49.07-1,.1-1.46.06-1.06.1-2.18.1-3.37a57.07,57.07,0,0,0-114.14,0c0,1.19,0,2.31.1,3.37,0,.49.06,1,.1,1.46H28.36c-.05-.37-.1-.75-.14-1.13a32.65,32.65,0,0,1-.21-3.7A33.43,33.43,0,0,1,61.44,28ZM21.55,61.61,10.34,59.89l.36-2.33,6.85-3-6.25-1,.45-2.93L23,52.43l-.36,2.32-6.85,3,6.25,1-.45,2.93Zm3.39-14.74a8.41,8.41,0,0,1-.94,1.9,3.26,3.26,0,0,1-1.32,1.14,3.82,3.82,0,0,1-1.95.26,11.73,11.73,0,0,1-2.87-.72,11.66,11.66,0,0,1-2.65-1.3,3.91,3.91,0,0,1-1.33-1.46A3.26,3.26,0,0,1,13.61,45a8.71,8.71,0,0,1,.5-2.07,8.41,8.41,0,0,1,1-1.9,3.14,3.14,0,0,1,1.32-1.14,3.82,3.82,0,0,1,1.95-.26,11.67,11.67,0,0,1,2.86.72,11.55,11.55,0,0,1,2.66,1.3,3.73,3.73,0,0,1,1.32,1.46,3.17,3.17,0,0,1,.28,1.71,8.3,8.3,0,0,1-.51,2.07ZM22.45,46a2.94,2.94,0,0,0,.2-.94,1.13,1.13,0,0,0-.25-.7,2.53,2.53,0,0,0-.79-.59,11,11,0,0,0-1.43-.62,13.55,13.55,0,0,0-1.54-.47,2.41,2.41,0,0,0-1,0A1.06,1.06,0,0,0,17,43a3.24,3.24,0,0,0-.44.84,3.41,3.41,0,0,0-.2.92,1,1,0,0,0,.22.7,2.34,2.34,0,0,0,.78.6,13.94,13.94,0,0,0,1.48.63,11.5,11.5,0,0,0,1.49.45,2.29,2.29,0,0,0,1,.05,1.09,1.09,0,0,0,.64-.38,2.78,2.78,0,0,0,.45-.83Zm4.65-4.61-8.71-7.26,1.5-1.8,7.4,1-4.85-4L24.33,27,33,34.21,31.54,36l-7.4-1,4.85,4L27.1,41.35ZM38.63,29.52l-8.78-7.91L32.46,20l6.07,5.8-2.4-8,2.59-1.59,3.06,11.42-3.15,1.93Zm9-4.81a6.71,6.71,0,0,1-.87.17,3.06,3.06,0,0,1-1-.06,2,2,0,0,1-1-.55,2.83,2.83,0,0,1-.72-1.34l-1.62-5.69a3.18,3.18,0,0,1-.12-1.4,2.18,2.18,0,0,1,.41-1,2.45,2.45,0,0,1,.76-.67,3.76,3.76,0,0,1,.9-.4c.82-.23,1.53-.42,2.13-.56s1.12-.27,1.56-.36.84-.17,1.18-.23L50,15,46,16.14a.85.85,0,0,0-.51.32.61.61,0,0,0-.06.54l.26.91,4-1,.64,2.26-3.9,1.27.23.82a1,1,0,0,0,.2.41.61.61,0,0,0,.3.19.83.83,0,0,0,.35,0l4-1.16.68,2.41c-.4.18-.87.37-1.39.56s-1.07.37-1.62.55-1.07.34-1.56.48Zm8.61-2a3,3,0,0,1-1.74-.32,2.89,2.89,0,0,1-1.12-1.15,6.33,6.33,0,0,1-.65-1.78,16.19,16.19,0,0,1-.31-2.2,14.71,14.71,0,0,1,0-2.39A5.24,5.24,0,0,1,53,13a3.06,3.06,0,0,1,1.25-1.27,5.21,5.21,0,0,1,2.22-.58A14.55,14.55,0,0,1,58,11.09a9.22,9.22,0,0,1,1.22.11c.38.05.78.12,1.19.2l.18,2.3c-.23,0-.51,0-.86,0s-.74,0-1.16,0-.88,0-1.36.07a2.57,2.57,0,0,0-1.29.37,1.39,1.39,0,0,0-.49,1,10.33,10.33,0,0,0,0,1.93,13,13,0,0,0,.19,1.52,2.74,2.74,0,0,0,.32.89,1,1,0,0,0,.48.41,1.75,1.75,0,0,0,.67.07,8.73,8.73,0,0,0,1-.13l.66-.15-.11-1.46-1.57.12L56.88,16c.22,0,.49-.09.8-.13l1-.13.9-.09,1-.06.77,0,.51,6.71-2.22.17-.46-.72a5.53,5.53,0,0,1-1.1.62,5,5,0,0,1-1.71.42Zm9.74,0a6.92,6.92,0,0,1-.85-.21,2.94,2.94,0,0,1-.93-.48,2.06,2.06,0,0,1-.67-.92,2.81,2.81,0,0,1-.09-1.51l.9-5.86a3.2,3.2,0,0,1,.46-1.31,2.19,2.19,0,0,1,.8-.75,2.34,2.34,0,0,1,1-.3,3.55,3.55,0,0,1,1,0c.85.13,1.57.25,2.18.37l1.57.33c.44.1.83.19,1.17.29l-.39,2.47-4-.62a.84.84,0,0,0-.59.07.67.67,0,0,0-.28.47l-.14.94,4,.77-.35,2.32-4.08-.47-.13.85a1,1,0,0,0,0,.45.58.58,0,0,0,.19.3.75.75,0,0,0,.32.13l4.17.64-.38,2.47c-.45,0-1,0-1.51-.07s-1.12-.1-1.7-.17-1.11-.14-1.62-.22Zm8,1.59,2.92-8.18-2.69-1,.89-2.5,8.17,2.91L82.4,18l-2.68-.95L76.8,25.26l-2.79-1Zm4.7,1.59,9.05-7.6,3.08,2L87.39,31.6l-2.56-1.69.61-1.75-2.83-1.88-1.37,1.26-2.53-1.68Zm5.93-1.41,1.7,1.11,1.55-4.2-3.25,3.09Zm3.08,7.63L96,24.37l3.29,3.54a4.79,4.79,0,0,1,.8,1.13,2.61,2.61,0,0,1,.29,1.22,3,3,0,0,1-.37,1.31A6.18,6.18,0,0,1,98.85,33a5.25,5.25,0,0,1-1,.74,3.1,3.1,0,0,1-.87.36,2.26,2.26,0,0,1-.77,0,4.18,4.18,0,0,1-.72-.15l-1.89,4.43-2-2.2,1.78-3.82-.19-.21L93,32l-.19-.21-.2-.21-2.86,2.66-2-2.17ZM94.31,30l.92,1a1.14,1.14,0,0,0,.34.26.69.69,0,0,0,.37.08,1,1,0,0,0,.42-.12,2.55,2.55,0,0,0,.46-.35,2,2,0,0,0,.37-.43.77.77,0,0,0,.14-.38.78.78,0,0,0-.08-.36,1.1,1.1,0,0,0-.24-.35l-.92-1L94.31,30Zm-.39,9.21,9.66-5.92,1.55,2.53-9.67,5.91L93.92,39.2Zm2.17,2.86,11.74-1.37,1.45,3.4-9.1,7.54L99,48.81l1.48-1.13-1.34-3.13-1.83.31-1.19-2.8Zm5.73,2.08.8,1.87,3.61-2.66-4.41.79ZM100,52.28l11.21-1.72.35,2.32-5.63,4.9,6.24-1,.45,2.92-11.21,1.73L101,59.14l5.63-4.89-6.24,1L100,52.28ZM71,36.36a14.19,14.19,0,0,1,4.61,2.19c4,2.91,5.27,6.49,5.13,11.4a17.59,17.59,0,0,1-1.56,6.94C72.39,70.47,44.64,68.05,42.3,55.25a15.08,15.08,0,0,1-.16-3c0-1.54,0-3.63,1-4.88s2.68-1.77,4.81-1.84a9.52,9.52,0,0,0,6.52-2.14c5.24-4,8.67-9.09,16.53-7Zm.81,14.56c0,1.3-1.49,2.34-3.33,2.34s-3.32-1-3.32-2.34,1.49-2.34,3.32-2.34,3.33,1.05,3.33,2.34Zm2.8-5a9.12,9.12,0,0,1,2.67,3.38C78.83,52.82,77,56,74.59,58.6a14.83,14.83,0,0,1-7.39,3.68,31.06,31.06,0,0,1-9.85.23A23.14,23.14,0,0,1,51.09,61c-2-.85-5.2-3.06-6-5.18-.58-1.65.3-3,3-3.06,9.37.16,10.47-8.17,18.17-9.27a11,11,0,0,1,8.33,2.44Z"/></svg>