<?xml version="1.0" encoding="utf-8"?><svg version="1.1" id="Layer_1" xmlns="http://www.w3.org/2000/svg" xmlns:xlink="http://www.w3.org/1999/xlink" x="0px" y="0px" viewBox="0 0 118.97 122.88" style="enable-background:new 0 0 118.97 122.88" xml:space="preserve"><g><path d="M26.07,108.05c-0.65,0.23-1.34,0.17-1.92-0.11c-0.59-0.28-1.07-0.78-1.31-1.45l-0.01-0.03c-0.23-0.65-0.17-1.34,0.11-1.92 c0.28-0.59,0.78-1.07,1.45-1.31c1.23-0.44,3.08-0.19,5.24,0.47c2.09,0.64,4.47,1.67,6.84,2.82c2.18,1.06,4.39,2.24,6.3,3.29 c1.93,1.06,3.51,1.98,4.49,2.55c2.61,1.52,5.1,2.45,7.45,2.94c2.35,0.49,4.59,0.54,6.7,0.3c2.15-0.24,4.21-0.77,6.15-1.44 c1.96-0.67,3.79-1.48,5.47-2.25c0.75-0.34,1.61-0.8,2.54-1.32c0.98-0.55,1.95-1.12,2.94-1.71c2.53-1.49,5.2-3.07,7.74-4.17 c2.59-1.13,5.04-1.77,7.1-1.35c0.03,0,0.06,0.01,0.08,0.02c0.67,0.15,1.22,0.55,1.57,1.09c0.35,0.53,0.5,1.2,0.37,1.87 c0,0.03-0.01,0.06-0.02,0.08c-0.15,0.67-0.55,1.22-1.09,1.57c-0.54,0.36-1.23,0.51-1.91,0.36c-2.16-0.45-6.94,2.37-11.24,4.9l0,0 c-0.02,0.01-0.04,0.03-0.06,0.04c-1.08,0.64-2.13,1.26-3.07,1.78c-0.99,0.56-1.94,1.06-2.83,1.46c-1.87,0.85-3.9,1.74-6.08,2.49 c-2.2,0.75-4.57,1.36-7.12,1.63c-2.59,0.28-5.33,0.23-8.22-0.36c-2.88-0.59-5.9-1.7-9.04-3.54c-0.97-0.57-2.54-1.48-4.37-2.48 c-1.84-1.01-3.97-2.15-6.08-3.18c-1.93-0.94-3.8-1.8-5.31-2.37c-1.42-0.54-2.46-0.83-2.82-0.7L26.07,108.05L26.07,108.05z M25.92,107.56c-1.06,0.38-2.23-0.17-2.61-1.24c-0.38-1.06,0.17-2.23,1.24-2.61c2.23-0.8,6.98,0.98,11.69,3.27 c4.36,2.13,8.79,4.67,10.75,5.82c5.32,3.1,10.15,3.78,14.46,3.3c4.4-0.48,8.37-2.17,11.78-3.73c1.55-0.71,3.48-1.85,5.53-3.05 c5.03-2.96,10.64-6.27,14.52-5.46c1.1,0.23,1.81,1.31,1.58,2.41s-1.31,1.81-2.41,1.58c-2.35-0.49-7.24,2.39-11.63,4.98 c-2.13,1.26-4.16,2.45-5.89,3.24c-3.7,1.69-8.04,3.53-13.04,4.08c-5.09,0.56-10.76-0.22-16.95-3.83 c-1.92-1.12-6.26-3.62-10.48-5.68C30.57,108.76,26.9,107.21,25.92,107.56L25.92,107.56z M39.65,2.34c0.22-1.21,1.39-2.02,2.6-1.8 c1.21,0.22,2.02,1.39,1.8,2.6l-1.87,10.02c-0.01,0.06-0.02,0.12-0.04,0.17c-1.13,5.05-2.46,9.68-3.77,14.27 c-2.48,8.69-4.93,17.23-5.59,26.66c-0.21,3.01-0.2,5.13-0.19,6.77c0.04,6.54,0.04,6.86-8.55,13.53 c-6.36,4.94-10.8,9.24-13.78,13.29c-2.89,3.92-4.42,7.61-5.04,11.42c-0.74,4.56,0.23,8.55,2.39,11.62 c2.28,3.24,5.91,5.49,10.28,6.34c1.71,0.33,3.48,0.53,5.3,0.62c1.85,0.09,3.78,0.07,5.75-0.04c1.23-0.06,2.29,0.89,2.35,2.12 c0.06,1.23-0.89,2.29-2.12,2.35c-2.1,0.11-4.17,0.13-6.19,0.04c-2.05-0.1-4.04-0.32-5.93-0.69c-5.52-1.07-10.15-3.98-13.1-8.16 c-2.81-3.99-4.09-9.12-3.15-14.91c0.73-4.51,2.51-8.82,5.85-13.35c3.25-4.4,7.96-9,14.64-14.19c6.86-5.33,6.86-5.54,6.83-9.97 c-0.01-1.76-0.02-4.04,0.19-7.08c0.7-9.93,3.2-18.68,5.75-27.59c1.33-4.64,2.67-9.33,3.72-14.02L39.65,2.34L39.65,2.34z M74.92,3.15c-0.22-1.21,0.58-2.38,1.8-2.6c1.21-0.22,2.38,0.58,2.6,1.8l1.87,10.02c1.05,4.69,2.39,9.38,3.72,14.02 c2.55,8.9,5.05,17.66,5.75,27.59c0.21,3.04,0.2,5.32,0.19,7.08c-0.03,4.43-0.03,4.64,6.83,9.97c6.68,5.19,11.39,9.78,14.64,14.19 c3.34,4.53,5.12,8.84,5.85,13.35c0.94,5.79-0.33,10.92-3.15,14.91c-2.95,4.19-7.58,7.09-13.1,8.16c-1.9,0.37-3.88,0.59-5.93,0.69 c-2.02,0.1-4.08,0.08-6.19-0.04c-1.23-0.06-2.18-1.11-2.12-2.35c0.06-1.23,1.11-2.18,2.35-2.12c1.97,0.11,3.89,0.13,5.75,0.04 c1.82-0.09,3.59-0.29,5.3-0.62c4.37-0.85,7.99-3.1,10.28-6.34c2.16-3.07,3.13-7.06,2.39-11.62c-0.62-3.81-2.15-7.5-5.04-11.42 c-2.98-4.05-7.42-8.35-13.78-13.29c-8.59-6.67-8.59-6.99-8.55-13.53c0.01-1.64,0.02-3.75-0.19-6.77 c-0.66-9.43-3.1-17.97-5.59-26.66c-1.31-4.59-2.64-9.22-3.77-14.27c-0.01-0.06-0.03-0.11-0.04-0.17L74.92,3.15L74.92,3.15z M39.16,2.25c0.14-0.74,0.56-1.36,1.14-1.76c0.58-0.4,1.31-0.58,2.05-0.44c0.74,0.14,1.36,0.56,1.76,1.14 c0.4,0.58,0.58,1.31,0.44,2.05l-1.87,10.02c-0.01,0.07-0.03,0.14-0.05,0.21c-1.14,5.08-2.46,9.7-3.77,14.27l0,0.01 c-2.48,8.66-4.91,17.18-5.57,26.55c-0.11,1.51-0.16,2.78-0.18,3.88c-0.02,1.11-0.02,2.04-0.01,2.85l0,0l0,0.04 c0.04,6.73,0.02,7.08-8.74,13.89c-3.17,2.46-5.86,4.76-8.12,6.94c-2.26,2.18-4.09,4.25-5.57,6.25c-1.42,1.93-2.51,3.8-3.32,5.65 c-0.8,1.85-1.33,3.68-1.63,5.55c-0.35,2.16-0.31,4.19,0.08,6.05c0.4,1.93,1.17,3.68,2.23,5.2c1.1,1.57,2.53,2.9,4.22,3.93 c1.68,1.04,3.62,1.79,5.74,2.2c0.84,0.16,1.7,0.29,2.57,0.4c0.88,0.1,1.77,0.17,2.66,0.22c0.92,0.04,1.86,0.06,2.8,0.05 c0.94-0.01,1.91-0.04,2.89-0.09l0.01,0c0.75-0.04,1.45,0.24,1.97,0.71c0.52,0.47,0.86,1.14,0.9,1.9l0,0.01 c0.04,0.75-0.24,1.45-0.7,1.96c-0.47,0.52-1.14,0.86-1.9,0.9c-1.05,0.06-2.1,0.09-3.15,0.1c-1.05,0.01-2.08-0.01-3.09-0.06 c-1.04-0.05-2.06-0.13-3.06-0.24c-1-0.12-1.99-0.26-2.95-0.45c-2.82-0.55-5.41-1.56-7.67-2.97c-2.28-1.42-4.23-3.24-5.74-5.4 c-1.48-2.1-2.54-4.5-3.1-7.14c-0.53-2.52-0.6-5.25-0.13-8.14c0.37-2.3,1.01-4.54,1.98-6.78c0.97-2.24,2.27-4.48,3.96-6.78 c1.64-2.22,3.65-4.49,6.09-6.86c2.44-2.37,5.3-4.82,8.65-7.42c6.66-5.17,6.66-5.38,6.64-9.57l0,0l0-0.04 c-0.01-0.87-0.01-1.87,0.01-3.03c0.02-1.19,0.07-2.53,0.18-4.05c0.35-4.99,1.15-9.69,2.19-14.25c1.04-4.57,2.3-8.99,3.57-13.44 l0-0.01c1.33-4.64,2.67-9.32,3.71-13.97L39.16,2.25L39.16,2.25z M74.42,3.24c-0.14-0.74,0.04-1.47,0.44-2.05 c0.4-0.58,1.02-1,1.76-1.14c0.74-0.14,1.47,0.04,2.05,0.44c0.58,0.4,1,1.02,1.14,1.76l1.87,10.01c1.04,4.65,2.38,9.33,3.71,13.97 l0,0.01c2.55,8.93,5.06,17.7,5.76,27.69c0.11,1.51,0.16,2.85,0.18,4.05c0.02,1.17,0.02,2.19,0.01,3.07h0l0,0.05 c-0.03,4.14,0,4.37,6.64,9.52c3.35,2.6,6.21,5.06,8.65,7.42c2.44,2.37,4.45,4.64,6.09,6.86c1.69,2.3,2.99,4.54,3.96,6.78 c0.97,2.24,1.61,4.49,1.98,6.78c0.47,2.89,0.4,5.62-0.13,8.14c-0.56,2.64-1.62,5.05-3.1,7.14c-1.52,2.15-3.47,3.98-5.75,5.4 c-2.26,1.41-4.85,2.43-7.67,2.97c-0.96,0.19-1.95,0.34-2.95,0.45c-0.99,0.11-2.01,0.19-3.06,0.24c-1.01,0.05-2.04,0.07-3.09,0.06 c-1.05-0.01-2.1-0.04-3.15-0.1c-0.76-0.04-1.43-0.38-1.9-0.9l-0.03-0.03c-0.45-0.52-0.71-1.21-0.68-1.94l0,0 c0.04-0.76,0.38-1.43,0.9-1.9c0.52-0.47,1.22-0.74,1.98-0.7h0c0.99,0.05,1.95,0.08,2.89,0.09c0.94,0.01,1.88-0.01,2.8-0.05 c0.89-0.04,1.78-0.11,2.66-0.22c0.87-0.1,1.73-0.23,2.57-0.4c2.12-0.41,4.06-1.16,5.74-2.2c1.68-1.04,3.11-2.37,4.22-3.93 c1.07-1.52,1.83-3.26,2.23-5.2c0.38-1.86,0.43-3.88,0.08-6.05c-0.3-1.86-0.83-3.7-1.63-5.55c-0.81-1.85-1.89-3.72-3.32-5.65 c-1.48-2-3.31-4.07-5.57-6.25c-2.26-2.18-4.95-4.48-8.12-6.94c-8.78-6.82-8.78-7.15-8.74-13.93h0l0-0.05 c0.01-1.61,0.02-3.7-0.19-6.68c-0.66-9.37-3.09-17.89-5.57-26.55l0-0.01c-1.31-4.58-2.63-9.2-3.77-14.27l-0.02-0.1l-0.02-0.11 L74.42,3.24L74.42,3.24z"/><path d="M25.92,107.56c-1.06,0.38-2.23-0.17-2.61-1.24s0.17-2.23,1.24-2.61c2.23-0.8,6.98,0.98,11.69,3.27 c4.36,2.13,8.79,4.67,10.75,5.82c5.32,3.1,10.15,3.78,14.46,3.3c4.4-0.48,8.37-2.17,11.78-3.73c1.55-0.71,3.48-1.85,5.53-3.05 c5.03-2.96,10.64-6.27,14.52-5.46c1.1,0.23,1.81,1.31,1.58,2.41s-1.31,1.81-2.41,1.58c-2.35-0.49-7.24,2.39-11.63,4.98 c-2.13,1.26-4.16,2.45-5.89,3.24c-3.71,1.69-8.04,3.53-13.04,4.08c-5.09,0.56-10.76-0.22-16.95-3.83 c-1.92-1.12-6.26-3.62-10.48-5.68C30.57,108.76,26.9,107.21,25.92,107.56L25.92,107.56z M39.65,2.34c0.22-1.21,1.39-2.02,2.6-1.8 c1.21,0.22,2.02,1.39,1.8,2.6l-1.87,10.02c-0.01,0.06-0.02,0.12-0.04,0.17c-1.13,5.05-2.46,9.68-3.77,14.27 c-2.48,8.69-4.93,17.23-5.59,26.66c-0.21,3.01-0.2,5.13-0.19,6.77c0.04,6.54,0.04,6.86-8.55,13.53 c-6.36,4.94-10.8,9.24-13.78,13.29c-2.89,3.92-4.42,7.61-5.04,11.42c-0.74,4.56,0.23,8.55,2.4,11.62 c2.28,3.24,5.91,5.49,10.28,6.34c1.71,0.33,3.48,0.53,5.3,0.62c1.85,0.09,3.78,0.07,5.75-0.04c1.23-0.06,2.29,0.89,2.35,2.12 c0.06,1.23-0.89,2.29-2.12,2.35c-2.1,0.11-4.17,0.13-6.19,0.04c-2.05-0.1-4.04-0.32-5.93-0.69c-5.52-1.07-10.15-3.98-13.1-8.16 c-2.81-3.99-4.09-9.12-3.15-14.91c0.73-4.51,2.51-8.82,5.85-13.35c3.25-4.4,7.96-9,14.64-14.19c6.86-5.33,6.86-5.54,6.83-9.97 c-0.01-1.76-0.02-4.04,0.19-7.08c0.7-9.93,3.2-18.68,5.75-27.59c1.33-4.64,2.67-9.33,3.72-14.02L39.65,2.34L39.65,2.34z M74.92,3.15c-0.22-1.21,0.58-2.38,1.8-2.6c1.21-0.22,2.38,0.58,2.6,1.8l1.87,10.02c1.05,4.69,2.39,9.38,3.72,14.02 c2.55,8.9,5.05,17.66,5.75,27.59c0.21,3.04,0.2,5.32,0.19,7.08c-0.03,4.43-0.03,4.64,6.83,9.97c6.68,5.19,11.39,9.78,14.64,14.19 c3.34,4.53,5.12,8.84,5.85,13.35c0.94,5.79-0.33,10.92-3.15,14.91c-2.95,4.19-7.58,7.09-13.1,8.16c-1.9,0.37-3.88,0.59-5.93,0.69 c-2.02,0.1-4.08,0.08-6.18-0.04c-1.23-0.06-2.18-1.11-2.12-2.35c0.06-1.23,1.11-2.18,2.35-2.12c1.97,0.11,3.89,0.13,5.75,0.04 c1.82-0.09,3.59-0.29,5.3-0.62c4.37-0.85,7.99-3.1,10.28-6.34c2.16-3.07,3.13-7.06,2.39-11.62c-0.62-3.81-2.15-7.5-5.04-11.42 c-2.98-4.05-7.42-8.35-13.78-13.29c-8.59-6.67-8.59-6.99-8.55-13.53c0.01-1.64,0.02-3.75-0.19-6.77 c-0.66-9.43-3.1-17.97-5.59-26.66c-1.31-4.59-2.64-9.22-3.77-14.27c-0.01-0.06-0.03-0.11-0.04-0.17L74.92,3.15L74.92,3.15z"/></g></svg>