<?xml version="1.0" encoding="utf-8"?><svg version="1.1" id="Layer_1" xmlns="http://www.w3.org/2000/svg" xmlns:xlink="http://www.w3.org/1999/xlink" x="0px" y="0px" viewBox="0 0 122.88 86.17" style="enable-background:new 0 0 122.88 86.17" xml:space="preserve"><g><path d="M16.2,6l0,6.88L3.82,8.17l14.96,13.21l0.42-6.31l12.33,5.19L16.2,6L16.2,6L16.2,6z M37.71,75.69 c-0.75,0.27-1.58-0.12-1.85-0.87c-0.27-0.75,0.12-1.58,0.87-1.84c1.58-0.57,4.94,0.69,8.26,2.31c3.09,1.5,6.21,3.3,7.6,4.11 c3.76,2.19,7.17,2.67,10.22,2.34c3.11-0.34,5.92-1.54,8.33-2.64c1.09-0.5,2.46-1.31,3.91-2.16c3.55-2.09,7.52-4.43,10.27-3.86 c0.78,0.16,1.28,0.92,1.12,1.7c-0.16,0.78-0.92,1.28-1.7,1.12c-1.66-0.35-5.12,1.69-8.22,3.52c-1.51,0.89-2.94,1.73-4.17,2.29 c-2.62,1.2-5.68,2.5-9.22,2.88c-3.6,0.4-7.61-0.16-11.98-2.71c-1.36-0.79-4.42-2.56-7.41-4.01C41,76.54,38.4,75.45,37.71,75.69 L37.71,75.69L37.71,75.69z M47.42,1.3c0.16-0.86,0.98-1.43,1.84-1.27c0.86,0.16,1.43,0.98,1.27,1.84l-1.32,7.08 c-0.01,0.04-0.02,0.08-0.03,0.12c-0.8,3.57-1.74,6.84-2.66,10.09c-1.76,6.14-3.48,12.18-3.95,18.85c-0.15,2.13-0.14,3.63-0.13,4.78 c0.03,4.62,0.03,4.85-6.04,9.56c-4.5,3.49-7.63,6.54-9.74,9.4c-2.04,2.77-3.13,5.38-3.57,8.07c-0.52,3.22,0.16,6.04,1.69,8.21 c1.61,2.29,4.18,3.88,7.26,4.48c1.21,0.24,2.46,0.38,3.75,0.44c1.31,0.06,2.67,0.05,4.06-0.03c0.87-0.04,1.62,0.63,1.66,1.5 c0.04,0.87-0.63,1.62-1.5,1.66c-1.49,0.08-2.95,0.09-4.37,0.03c-1.45-0.07-2.85-0.23-4.2-0.49c-3.9-0.76-7.17-2.81-9.26-5.77 c-1.99-2.82-2.89-6.45-2.23-10.54c0.52-3.19,1.77-6.24,4.14-9.44c2.3-3.11,5.63-6.36,10.35-10.03c4.85-3.77,4.85-3.92,4.83-7.05 c-0.01-1.25-0.02-2.86,0.13-5.01c0.49-7.02,2.26-13.21,4.06-19.5c0.94-3.28,1.89-6.6,2.63-9.91L47.42,1.3L47.42,1.3L47.42,1.3z M72.35,1.87c-0.16-0.86,0.41-1.68,1.27-1.84c0.86-0.16,1.68,0.41,1.84,1.27l1.32,7.08c0.74,3.32,1.69,6.63,2.63,9.91 c1.8,6.3,3.57,12.48,4.06,19.5c0.15,2.15,0.14,3.76,0.13,5.01c-0.02,3.13-0.02,3.28,4.83,7.05c4.72,3.67,8.06,6.92,10.35,10.03 c2.36,3.2,3.62,6.25,4.14,9.44c0.66,4.09-0.24,7.72-2.23,10.54c-2.09,2.96-5.36,5.01-9.26,5.77c-1.34,0.26-2.75,0.42-4.2,0.49 c-1.43,0.07-2.89,0.05-4.37-0.03c-0.87-0.04-1.54-0.79-1.5-1.66c0.04-0.87,0.79-1.54,1.66-1.5c1.39,0.07,2.75,0.09,4.06,0.03 c1.29-0.06,2.54-0.2,3.75-0.44c3.09-0.6,5.65-2.19,7.27-4.48c1.53-2.17,2.22-4.99,1.69-8.21c-0.44-2.69-1.52-5.3-3.57-8.07 c-2.11-2.86-5.25-5.91-9.74-9.4c-6.07-4.72-6.07-4.94-6.04-9.56c0.01-1.16,0.02-2.65-0.13-4.78c-0.47-6.67-2.19-12.71-3.95-18.85 c-0.93-3.25-1.86-6.52-2.66-10.09c-0.01-0.04-0.02-0.08-0.03-0.12L72.35,1.87L72.35,1.87L72.35,1.87z M106.68,6l0,6.88l12.38-4.7 L104.1,21.38l-0.42-6.31l-12.33,5.19L106.68,6L106.68,6L106.68,6z M112.38,27.49l-3.82,6.33l14.31,2.16l-21.32,4.56l2.98-6.23 l-14.39-1.45L112.38,27.49L112.38,27.49L112.38,27.49z M10.49,27.49l3.82,6.33L0,35.98l21.32,4.56l-2.98-6.23l14.39-1.45 L10.49,27.49L10.49,27.49L10.49,27.49z"/></g></svg>