<svg id="Layer_1" data-name="Layer 1" xmlns="http://www.w3.org/2000/svg" viewBox="0 0 122.88 122.89"><title>november-month</title><path d="M81.61,4.73C81.61,2.12,84.19,0,87.38,0s5.77,2.12,5.77,4.73V25.45c0,2.61-2.58,4.73-5.77,4.73s-5.77-2.12-5.77-4.73V4.73ZM38.71,96l-6.77-9.82a4.51,4.51,0,0,1-.44-2.12h-.18V96H22.48V68.35h8.31l6.77,9.81A4.7,4.7,0,0,1,38,80.29h.18V68.35H47V96Zm11.41-13.8q0-7.56,2.83-11t10.21-3.47q7.4,0,10.22,3.47t2.83,11a29,29,0,0,1-.59,6.32A11.63,11.63,0,0,1,73.56,93a8.39,8.39,0,0,1-4,2.79,19.73,19.73,0,0,1-6.37.88,19.71,19.71,0,0,1-6.36-.88,8.34,8.34,0,0,1-4-2.79,11.63,11.63,0,0,1-2.06-4.47,29,29,0,0,1-.59-6.32Zm9.51-4.6v11.5H63.3a6.11,6.11,0,0,0,2.63-.42c.54-.28.82-.92.82-1.93V75.25H63a6.09,6.09,0,0,0-2.58.41c-.55.28-.82.93-.82,1.93Zm34.76-9.24h9.33L96.87,96H84L77.1,68.35h9.33L90.19,85.9h.4l3.8-17.55ZM29.61,4.73C29.61,2.12,32.19,0,35.38,0s5.77,2.12,5.77,4.73V25.45c0,2.61-2.58,4.73-5.77,4.73s-5.77-2.12-5.77-4.73V4.73ZM6.4,38.76H116.47V21.47a3,3,0,0,0-.86-2.07,2.92,2.92,0,0,0-2.07-.86H103a3.2,3.2,0,0,1,0-6.4h10.55a9.36,9.36,0,0,1,9.33,9.33v92.09a9.36,9.36,0,0,1-9.33,9.33H9.33A9.36,9.36,0,0,1,0,113.55V21.47a9.36,9.36,0,0,1,9.33-9.33H20.6a3.2,3.2,0,1,1,0,6.4H9.33a3,3,0,0,0-2.07.86,2.92,2.92,0,0,0-.86,2.07V38.76Zm110.08,6.41H6.4v68.38a3,3,0,0,0,.86,2.07,2.92,2.92,0,0,0,2.07.86H113.55a3,3,0,0,0,2.07-.86,2.92,2.92,0,0,0,.86-2.07V45.17ZM50.43,18.54a3.2,3.2,0,0,1,0-6.4H71.92a3.2,3.2,0,1,1,0,6.4Z"/></svg>