<?xml version="1.0" encoding="utf-8"?><svg version="1.1" id="Layer_1" xmlns="http://www.w3.org/2000/svg" xmlns:xlink="http://www.w3.org/1999/xlink" x="0px" y="0px" viewBox="0 0 122.88 61.98" style="enable-background:new 0 0 122.88 61.98" xml:space="preserve"><style type="text/css">.st0{fill-rule:evenodd;clip-rule:evenodd;}</style><g><path class="st0" d="M7.01,0h108.85c3.86,0,7.01,3.17,7.01,7.01v47.96c0,3.85-3.17,7.01-7.01,7.01H7.01C3.17,61.98,0,58.82,0,54.97 V7.01C0,3.16,3.16,0,7.01,0L7.01,0z M39.25,13.03v35.16h-8.46l-5.03-15.99v15.99h-8.09V13.03h8.09l5.41,15.83V13.03H39.25 L39.25,13.03z M65.18,33.64c0,3.53-0.09,6.03-0.27,7.5c-0.17,1.47-0.72,2.82-1.64,4.03c-0.93,1.21-2.18,2.15-3.75,2.8 c-1.57,0.65-3.41,0.98-5.5,0.98c-1.99,0-3.77-0.31-5.35-0.93c-1.58-0.61-2.86-1.53-3.82-2.76c-0.96-1.23-1.54-2.57-1.72-4.02 c-0.18-1.45-0.27-3.99-0.27-7.6v-6.02c0-3.53,0.09-6.03,0.27-7.5c0.17-1.47,0.72-2.82,1.65-4.03c0.92-1.22,2.18-2.15,3.75-2.8 c1.58-0.65,3.41-0.98,5.5-0.98c1.99,0,3.77,0.31,5.35,0.93c1.58,0.62,2.86,1.53,3.82,2.76c0.96,1.23,1.54,2.57,1.72,4.02 c0.18,1.45,0.27,3.99,0.27,7.6V33.64L65.18,33.64z M55.5,22.09c0-1.63-0.09-2.67-0.28-3.13c-0.19-0.45-0.57-0.68-1.15-0.68 c-0.49,0-0.87,0.19-1.14,0.56c-0.26,0.36-0.39,1.45-0.39,3.26V38.5c0,2.04,0.09,3.3,0.26,3.77c0.17,0.48,0.57,0.72,1.2,0.72 c0.64,0,1.06-0.27,1.24-0.82c0.18-0.55,0.27-1.86,0.27-3.93V22.09L55.5,22.09z M105.21,13.03l-4.31,35.16H88.85 c-1.08-5.4-2.06-11.56-2.94-18.46c-0.4,2.97-1.3,9.13-2.7,18.46H71.22l-4.33-35.16h9.4l1.02,12.28l0.98,11.87 c0.37-6.14,1.26-14.2,2.68-24.15h10.01c0.12,1.04,0.46,4.91,1.03,11.62l1.09,13.38c0.57-8.51,1.47-16.85,2.7-25H105.21 L105.21,13.03z"/></g></svg>