<svg id="Layer_1" data-name="Layer 1" xmlns="http://www.w3.org/2000/svg" viewBox="0 0 122.88 118.06"><defs><style>.cls-1,.cls-2{fill:#04256c;}.cls-1{fill-rule:evenodd;}</style></defs><title>o2-mobile</title><path class="cls-1" d="M0,49.73C0,76.92,19.74,99.46,48.42,99.46c28.51,0,48.26-22.54,48.26-49.73C96.68,20.86,77.3,0,48.42,0,19.38,0,0,20.86,0,49.73Zm18.64,0c0-18.07,11-35.57,29.78-35.57C67.05,14.16,78,31.66,78,49.73c0,17-9.11,35.57-29.62,35.57-20.67,0-29.78-18.62-29.78-35.57Z"/><path class="cls-2" d="M122.88,118.06v-6.63H105.71c6.87-6.75,15.83-14.94,15.83-23.86,0-8.26-5.17-12.29-13.18-12.29a28.06,28.06,0,0,0-12.48,3l.67,7a18.19,18.19,0,0,1,9.7-3.37c3.43,0,6.87,1.8,6.87,5.66,0,7.71-14.28,19.65-18.19,23.44v7Zm0,0Z"/></svg>