<?xml version="1.0" encoding="utf-8"?><svg version="1.1" id="Layer_1" xmlns="http://www.w3.org/2000/svg" xmlns:xlink="http://www.w3.org/1999/xlink" x="0px" y="0px" viewBox="0 0 122.88 91.36" style="enable-background:new 0 0 122.88 91.36" xml:space="preserve"><style type="text/css">.st0{fill-rule:evenodd;clip-rule:evenodd;}</style><g><path class="st0" d="M122.88,91.36H88.73c0.39-3.37,1.58-6.54,3.57-9.51c1.98-2.98,5.7-6.48,11.16-10.53 c3.34-2.48,5.47-4.36,6.41-5.64c0.93-1.29,1.4-2.51,1.4-3.66c0-1.25-0.46-2.32-1.38-3.2c-0.93-0.89-2.09-1.33-3.49-1.33 c-1.45,0-2.64,0.46-3.56,1.37c-0.93,0.93-1.54,2.54-1.86,4.86L89.59,62.8c0.45-3.21,1.27-5.71,2.46-7.51 c1.19-1.8,2.87-3.18,5.03-4.14c2.17-0.96,5.18-1.44,9.01-1.44c4,0,7.11,0.46,9.34,1.37c2.22,0.9,3.97,2.31,5.24,4.2 c1.28,1.9,1.92,4.01,1.92,6.36c0,2.49-0.73,4.87-2.19,7.15c-1.46,2.27-4.12,4.77-7.98,7.48c-2.29,1.58-3.82,2.7-4.6,3.33 c-0.77,0.64-1.68,1.46-2.73,2.49h17.78V91.36L122.88,91.36z M0,41.18c0-12.98,3.61-23.1,10.86-30.32C18.1,3.61,28.17,0,41.1,0 c13.24,0,23.45,3.56,30.62,10.65c7.17,7.11,10.74,17.08,10.74,29.88c0,9.3-1.56,16.91-4.69,22.86 c-3.13,5.95-7.67,10.58-13.58,13.89c-5.93,3.32-13.3,4.96-22.14,4.96c-8.97,0-16.39-1.42-22.28-4.28 c-5.87-2.87-10.65-7.39-14.3-13.58C1.83,58.22,0,50.48,0,41.18L0,41.18z M24.56,41.23c0,8.02,1.5,13.8,4.48,17.3 c3,3.5,7.08,5.26,12.22,5.26c5.28,0,9.39-1.72,12.28-5.15c2.91-3.44,4.35-9.6,4.35-18.5c0-7.48-1.52-12.95-4.54-16.39 c-3.04-3.46-7.13-5.19-12.32-5.19c-4.96,0-8.96,1.76-11.97,5.26C26.06,27.32,24.56,33.14,24.56,41.23L24.56,41.23z"/></g></svg>