<svg id="Layer_1" data-name="Layer 1" xmlns="http://www.w3.org/2000/svg" viewBox="0 0 122.88 122.89"><title>october-month</title><path d="M81.61,4.73C81.61,2.12,84.19,0,87.38,0s5.77,2.12,5.77,4.73V25.45c0,2.61-2.58,4.73-5.77,4.73s-5.77-2.12-5.77-4.73V4.73ZM25,82.19q0-7.56,2.83-11T38,67.68q7.38,0,10.22,3.47t2.83,11a28.28,28.28,0,0,1-.6,6.32A11.49,11.49,0,0,1,48.39,93a8.31,8.31,0,0,1-4,2.79,19.73,19.73,0,0,1-6.37.88,19.73,19.73,0,0,1-6.37-.88,8.31,8.31,0,0,1-4-2.79,11.49,11.49,0,0,1-2.06-4.47,28.28,28.28,0,0,1-.6-6.32Zm9.51-4.6v11.5h3.67a6.08,6.08,0,0,0,2.63-.42c.55-.28.82-.92.82-1.93V75.25H37.87a6.14,6.14,0,0,0-2.59.41c-.55.28-.82.93-.82,1.93Zm39,10.48.67,7.43a18.38,18.38,0,0,1-7,1.15,21.11,21.11,0,0,1-6.75-.88,8.35,8.35,0,0,1-4-2.79,11.3,11.3,0,0,1-2-4.47,29,29,0,0,1-.58-6.32,29.37,29.37,0,0,1,.58-6.35,11.32,11.32,0,0,1,2-4.49q2.84-3.66,10.39-3.67a28.16,28.16,0,0,1,4,.33,14.15,14.15,0,0,1,3.39.82L72.83,75.6A25.38,25.38,0,0,0,67.56,75a8.65,8.65,0,0,0-3.31.44,1.77,1.77,0,0,0-.93,1.77V88.78a17.73,17.73,0,0,0,3.49.35,19.39,19.39,0,0,0,6.68-1.06ZM97.93,75.42H91.52V96H82.67V75.42H76.26V68.35H97.93v7.07ZM29.61,4.73C29.61,2.12,32.19,0,35.38,0s5.77,2.12,5.77,4.73V25.45c0,2.61-2.58,4.73-5.77,4.73s-5.77-2.12-5.77-4.73V4.73ZM6.4,38.76H116.47V21.47a3,3,0,0,0-.86-2.07,2.92,2.92,0,0,0-2.07-.86H103a3.2,3.2,0,0,1,0-6.4h10.55a9.36,9.36,0,0,1,9.33,9.33v92.09a9.36,9.36,0,0,1-9.33,9.33H9.33A9.36,9.36,0,0,1,0,113.55V21.47a9.36,9.36,0,0,1,9.33-9.33H20.6a3.2,3.2,0,1,1,0,6.4H9.33a3,3,0,0,0-2.07.86,2.92,2.92,0,0,0-.86,2.07V38.76Zm110.08,6.41H6.4v68.38a3,3,0,0,0,.86,2.07,2.92,2.92,0,0,0,2.07.86H113.55a3,3,0,0,0,2.07-.86,2.92,2.92,0,0,0,.86-2.07V45.17ZM50.43,18.54a3.2,3.2,0,0,1,0-6.4H71.92a3.2,3.2,0,1,1,0,6.4Z"/></svg>