<?xml version="1.0" encoding="utf-8"?><svg version="1.1" id="Layer_1" xmlns="http://www.w3.org/2000/svg" xmlns:xlink="http://www.w3.org/1999/xlink" x="0px" y="0px" viewBox="0 0 122.88 122.88" style="enable-background:new 0 0 122.88 122.88" xml:space="preserve"><style type="text/css"><![CDATA[
	.st0{fill:#EE8208;}
]]></style><g><path class="st0" d="M61.44,0c16.97,0,32.33,6.88,43.44,18c11.12,11.12,18,26.48,18,43.44c0,16.97-6.88,32.33-18,43.44 c-11.12,11.12-26.48,18-43.44,18c-16.97,0-32.33-6.88-43.44-18C6.88,93.77,0,78.41,0,61.44C0,44.47,6.88,29.11,18,18 S44.47,0,61.44,0L61.44,0z M61.73,26.98c-9.86,0-17.86,8-17.86,17.86c0,9.87,8,17.86,17.86,17.86c9.87,0,17.86-8,17.86-17.86 C79.59,34.97,71.6,26.98,61.73,26.98L61.73,26.98z M68.04,76.91c7.15-1.46,11.44-4.84,11.66-5.03c2.09-1.68,2.43-4.73,0.75-6.83 c-1.68-2.09-4.73-2.43-6.83-0.75c-0.04,0.04-4.62,3.54-12.14,3.55c-7.52,0-12.19-3.51-12.23-3.55c-2.09-1.68-5.15-1.34-6.83,0.75 s-1.34,5.15,0.75,6.83c0.23,0.18,4.69,3.66,12.04,5.08L44.98,87.68c-1.86,1.93-1.81,5.01,0.13,6.87c0.94,0.91,2.16,1.36,3.37,1.36 c1.27,0,2.54-0.5,3.5-1.49l9.52-10.14l10.48,10.2c1.9,1.9,4.97,1.89,6.87-0.01c1.89-1.9,1.89-4.97-0.01-6.87L68.04,76.91 L68.04,76.91z M61.73,52.22c-4.08,0-7.38-3.31-7.38-7.38c0-4.08,3.31-7.38,7.38-7.38c4.08,0,7.38,3.31,7.38,7.38 C69.11,48.92,65.81,52.22,61.73,52.22L61.73,52.22z M100.75,22.13C90.69,12.07,76.79,5.85,61.44,5.85 c-15.35,0-29.25,6.22-39.31,16.28C12.07,32.19,5.85,46.09,5.85,61.44c0,15.35,6.22,29.25,16.28,39.31 c10.06,10.06,23.96,16.28,39.31,16.28c15.35,0,29.25-6.22,39.31-16.28c10.06-10.06,16.28-23.96,16.28-39.31 S110.81,32.19,100.75,22.13L100.75,22.13z"/></g></svg>