<svg id="Layer_1" data-name="Layer 1" xmlns="http://www.w3.org/2000/svg" viewBox="0 0 122.88 122.88"><defs><style>.cls-1{fill:#ee8208;fill-rule:evenodd;}.cls-2{fill:#fff;}</style></defs><title>odnoklassniki</title><path class="cls-1" d="M25.2,0H97.68a25.27,25.27,0,0,1,25.2,25.2V97.68a25.27,25.27,0,0,1-25.2,25.2H25.2A25.27,25.27,0,0,1,0,97.68V25.2A25.27,25.27,0,0,1,25.2,0Z"/><path class="cls-2" d="M69.22,79.38A34.34,34.34,0,0,0,83,73.45a5.73,5.73,0,0,0-7.17-8.94A24.84,24.84,0,0,1,61.5,68.69a25.46,25.46,0,0,1-14.43-4.18,5.73,5.73,0,0,0-7.17,8.94,34.93,34.93,0,0,0,14.21,6L42,92.07a5.73,5.73,0,1,0,8.25,8l11.23-12,12.36,12A5.73,5.73,0,1,0,82,92L69.22,79.38Z"/><path class="cls-2" d="M61.78,20.48A21.07,21.07,0,1,0,82.85,41.54,21.06,21.06,0,0,0,61.78,20.48Zm0,29.77a8.71,8.71,0,1,1,8.71-8.71,8.71,8.71,0,0,1-8.71,8.71Z"/></svg>