<svg id="Layer_1" data-name="Layer 1" xmlns="http://www.w3.org/2000/svg" viewBox="0 0 122.88 104.82"><defs><style>.cls-1{fill-rule:evenodd;}.cls-2{fill:#fff;}</style></defs><title>oh</title><path class="cls-1" d="M46.88,2,66.94,18.57,81.73,0l8.08,20.34L111.56,8.22l-1.22,11.1h4a8.51,8.51,0,0,1,8.5,8.51,7.73,7.73,0,0,1-.07,1.08l-2.76,35.45a8.47,8.47,0,0,1-.92,3.27c.07.17.15.33.22.5s.17.43.24.64a16.51,16.51,0,0,1,.7,2.32,16.13,16.13,0,0,1,.34,3.16,15.42,15.42,0,0,1-.34,3.17,15.81,15.81,0,0,1-1,3.08,16.48,16.48,0,0,1-1.44,2.57,16.59,16.59,0,0,1-4.12,4.13,16.9,16.9,0,0,1-2.65,1.43l0,0h0a14.68,14.68,0,0,1-1.87.65l-9.44,15.3L80.56,88.84l-23.5,16-11.58-19L22.4,101.36l-1-19a32.11,32.11,0,0,1-3-1.09,30.32,30.32,0,0,1-3.47-1.73l-.06,0h0a28.8,28.8,0,0,1-3.2-2.16,30,30,0,0,1-2.88-2.58l-.07-.07A29,29,0,0,1,6.16,71.8,29.74,29.74,0,0,1,4,68.56a6.36,6.36,0,0,1-.3-.58c-.51-1-1-1.94-1.39-3A33.78,33.78,0,0,1,1.1,61.36a31.35,31.35,0,0,1-.81-4A32.29,32.29,0,0,1,0,53.29a32.89,32.89,0,0,1,.24-3.93,32.25,32.25,0,0,1,.74-4,31.83,31.83,0,0,1,1.2-3.76,32.63,32.63,0,0,1,1.63-3.57c.09-.17.19-.34.29-.5a31,31,0,0,1,1.73-2.75,33.89,33.89,0,0,1,2.4-3l.18-.19A32,32,0,0,1,11.05,29a30.1,30.1,0,0,1,6.69-4.31l.43-.19L13.72,7.71,38.47,20.34,46.88,2Z"/><path class="cls-2" d="M51.85,52.41a24.69,24.69,0,0,1-.72,6,23.85,23.85,0,0,1-2.06,5.4,22.55,22.55,0,0,1-3.28,4.63,21,21,0,0,1-9.57,5.94,21.86,21.86,0,0,1-11.86,0,21.42,21.42,0,0,1-9.6-5.6,21.57,21.57,0,0,1-3.35-4.44,23,23,0,0,1-2.14-5.24,22,22,0,0,1-.77-5.84,23.72,23.72,0,0,1,.71-5.82,23.27,23.27,0,0,1,2.08-5.37,23,23,0,0,1,3.25-4.64,21.94,21.94,0,0,1,4.28-3.66A21,21,0,0,1,24,31.41a19.64,19.64,0,0,1,5.84-.85,25.58,25.58,0,0,1,9,1.54,19.78,19.78,0,0,1,7,4.38,19.5,19.5,0,0,1,4.47,6.9,24.49,24.49,0,0,1,1.59,9Zm-15.15.88a9.13,9.13,0,0,0-.44-2.85A7.91,7.91,0,0,0,35,48a6.68,6.68,0,0,0-2-1.74,5.71,5.71,0,0,0-2.78-.66,6.72,6.72,0,0,0-2.87.58,6.59,6.59,0,0,0-2.17,1.59,7,7,0,0,0-1.38,2.35A8.44,8.44,0,0,0,23.31,53a10.48,10.48,0,0,0,.41,2.87A8.48,8.48,0,0,0,25,58.41a6.54,6.54,0,0,0,2,1.89A5.52,5.52,0,0,0,29.8,61a6.49,6.49,0,0,0,2.89-.63,6.36,6.36,0,0,0,2.16-1.72,7.91,7.91,0,0,0,1.37-2.47,9.09,9.09,0,0,0,.48-2.9Zm57.71,23.9L77.34,78,77.2,63.6H69.36l-.48,14.95H53.59l1.29-48,16.25.75-1,24.51h7.57l.07-25.66,15.56.4,1.1,46.63Zm20-49.36-2.8,35.9H99l-1.3-35.9Zm-2.25,46.42a6.88,6.88,0,0,1-.58,2.8A7.65,7.65,0,0,1,110,79.32a7.37,7.37,0,0,1-2.26,1.54,7.08,7.08,0,0,1-2.78.56,7,7,0,0,1-2.79-.56,7.29,7.29,0,0,1-2.27-1.54,7.41,7.41,0,0,1-1.54-2.27,6.87,6.87,0,0,1-.56-2.8,7,7,0,0,1,.56-2.79,7.14,7.14,0,0,1,1.54-2.31,7.32,7.32,0,0,1,2.27-1.55A6.52,6.52,0,0,1,105,67a6.6,6.6,0,0,1,2.78.58,7.4,7.4,0,0,1,3.82,3.86,7,7,0,0,1,.58,2.79Z"/></svg>