<?xml version="1.0" encoding="utf-8"?><svg version="1.1" id="Layer_1" xmlns="http://www.w3.org/2000/svg" xmlns:xlink="http://www.w3.org/1999/xlink" x="0px" y="0px" viewBox="0 0 122.88 112.92" style="enable-background:new 0 0 122.88 112.92" xml:space="preserve"><style type="text/css">.st0{fill-rule:evenodd;clip-rule:evenodd;}</style><g><path class="st0" d="M19.8,0h83.27c5.45,0,10.4,2.23,13.99,5.82c3.59,3.59,5.82,8.54,5.82,13.99v50.6c0,5.45-2.21,10.44-5.81,14.06 c-3.57,3.59-8.5,5.83-13.99,5.83H36.51L5.59,112.27c-1.59,1.13-3.79,0.76-4.92-0.83c-0.44-0.62-0.65-1.34-0.65-2.05H0V19.8 C0,14.36,2.23,9.42,5.81,5.83l0.01-0.01C9.42,2.23,14.36,0,19.8,0L19.8,0z M58.57,47.58c0,4.32-0.1,7.36-0.31,9.16 c-0.2,1.8-0.83,3.44-1.9,4.92c-1.07,1.48-2.52,2.62-4.33,3.42c-1.82,0.8-3.94,1.19-6.35,1.19c-2.3,0-4.35-0.38-6.18-1.13 c-1.83-0.75-3.3-1.87-4.41-3.38c-1.11-1.5-1.77-3.14-1.99-4.9c-0.21-1.77-0.32-4.87-0.32-9.28v-7.35c0-4.32,0.1-7.36,0.31-9.16 c0.2-1.8,0.83-3.44,1.9-4.92c1.07-1.48,2.52-2.62,4.33-3.42c1.82-0.8,3.94-1.19,6.35-1.19c2.3,0,4.35,0.38,6.18,1.13 c1.83,0.75,3.3,1.87,4.41,3.38c1.11,1.5,1.77,3.14,1.99,4.9c0.21,1.77,0.32,4.87,0.32,9.28V47.58L58.57,47.58z M47.39,33.47 c0-1.99-0.11-3.27-0.33-3.83c-0.22-0.55-0.66-0.83-1.33-0.83c-0.57,0-1,0.23-1.31,0.68c-0.3,0.44-0.45,1.77-0.45,3.98v20.04 c0,2.49,0.1,4.03,0.3,4.61c0.2,0.59,0.66,0.88,1.38,0.88c0.74,0,1.22-0.34,1.43-1c0.21-0.67,0.31-2.27,0.31-4.8V33.47L47.39,33.47z M89.4,22.4l-6.38,19.39l6.98,23.55H78.48l-4.53-18.4v18.4H62.77V22.4h11.18v16.68l5.02-16.68H89.4L89.4,22.4z"/></g></svg>