<?xml version="1.0" encoding="utf-8"?>
<!-- Generator: Adobe Illustrator 24.2.1, SVG Export Plug-In . SVG Version: 6.00 Build 0)  -->
<svg version="1.1" id="Layer_1" xmlns="http://www.w3.org/2000/svg" xmlns:xlink="http://www.w3.org/1999/xlink" x="0px" y="0px"
	 viewBox="0 0 122.88 112.92" style="enable-background:new 0 0 122.88 112.92;" xml:space="preserve">
<g>
	<path d="M19.96,0h82.96c5.48,0,10.46,2.25,14.09,5.87l0.01-0.01c3.62,3.62,5.86,8.61,5.86,14.1v50.38c0,5.49-2.23,10.52-5.86,14.17
		c-3.6,3.62-8.56,5.87-14.1,5.87H36.67L5.94,112.22c-1.69,1.2-4.03,0.81-5.23-0.88c-0.47-0.66-0.7-1.42-0.69-2.18H0v-89.2
		C0,14.48,2.25,9.49,5.86,5.87l0.01-0.01C9.49,2.25,14.48,0,19.96,0L19.96,0z M90.96,22.57l-6.35,19.31l6.95,23.45H80.09
		l-4.51-18.32v18.32H64.44V22.57h11.14v16.61l5-16.61H90.96L90.96,22.57z M60.26,47.64c0,4.3-0.1,7.33-0.31,9.12
		c-0.2,1.79-0.83,3.42-1.89,4.9c-1.06,1.48-2.5,2.61-4.32,3.41c-1.81,0.79-3.92,1.19-6.32,1.19c-2.29,0-4.33-0.38-6.15-1.13
		c-1.82-0.75-3.29-1.86-4.39-3.36c-1.11-1.5-1.77-3.13-1.98-4.88c-0.21-1.77-0.32-4.85-0.32-9.24v-7.32c0-4.3,0.1-7.33,0.31-9.12
		c0.2-1.79,0.83-3.42,1.89-4.9c1.06-1.48,2.5-2.61,4.32-3.41c1.81-0.79,3.92-1.19,6.32-1.19c2.29,0,4.33,0.38,6.15,1.13
		c1.82,0.75,3.29,1.86,4.39,3.36c1.11,1.5,1.77,3.13,1.98,4.88c0.21,1.77,0.32,4.85,0.32,9.24V47.64L60.26,47.64z M49.13,33.59
		c0-1.98-0.11-3.25-0.32-3.81c-0.22-0.55-0.66-0.83-1.32-0.83c-0.57,0-1,0.23-1.31,0.68c-0.3,0.44-0.45,1.77-0.45,3.96v19.96
		c0,2.48,0.1,4.01,0.3,4.59c0.2,0.59,0.66,0.87,1.38,0.87c0.74,0,1.22-0.33,1.42-1c0.21-0.67,0.31-2.26,0.31-4.77V33.59L49.13,33.59
		z M102.92,7.53H19.96c-3.42,0-6.53,1.4-8.78,3.65c-2.25,2.25-3.65,5.36-3.65,8.78v81.92l25.55-18.16c0.65-0.54,1.49-0.87,2.41-0.87
		h67.44c3.46,0,6.55-1.4,8.78-3.64c2.26-2.27,3.65-5.42,3.65-8.88V19.96c0-3.41-1.4-6.52-3.66-8.77v-0.01
		C109.45,8.93,106.34,7.53,102.92,7.53L102.92,7.53z"/>
</g>
</svg>
