<?xml version="1.0" encoding="utf-8"?><svg version="1.1" id="Layer_1" xmlns="http://www.w3.org/2000/svg" xmlns:xlink="http://www.w3.org/1999/xlink" x="0px" y="0px" viewBox="0 0 122.88 69.4" style="enable-background:new 0 0 122.88 69.4" xml:space="preserve"><style type="text/css">.st0{fill-rule:evenodd;clip-rule:evenodd;}</style><g><path class="st0" d="M7.85,0h107.18c4.32,0,7.85,3.53,7.85,7.85v53.69c0,4.32-3.53,7.85-7.85,7.85H7.85C3.53,69.4,0,65.87,0,61.55 V7.85C0,3.53,3.53,0,7.85,0L7.85,0z M49.37,38.07c0,3.96-0.1,6.75-0.3,8.4c-0.19,1.65-0.81,3.15-1.84,4.51 c-1.04,1.36-2.44,2.41-4.2,3.14c-1.76,0.73-3.82,1.1-6.16,1.1c-2.23,0-4.22-0.35-5.99-1.04c-1.77-0.69-3.2-1.72-4.27-3.09 c-1.08-1.38-1.72-2.88-1.93-4.5c-0.2-1.63-0.31-4.46-0.31-8.51v-6.74c0-3.96,0.1-6.75,0.3-8.4c0.19-1.65,0.81-3.15,1.84-4.51 c1.04-1.36,2.44-2.41,4.2-3.14c1.76-0.73,3.82-1.09,6.16-1.09c2.23,0,4.22,0.35,5.99,1.04c1.77,0.69,3.2,1.72,4.27,3.09 c1.08,1.38,1.72,2.88,1.93,4.5c0.2,1.63,0.31,4.46,0.31,8.51V38.07L49.37,38.07z M38.52,25.13c0-1.82-0.11-2.99-0.32-3.51 c-0.21-0.51-0.64-0.76-1.29-0.76c-0.55,0-0.97,0.21-1.27,0.62c-0.29,0.41-0.44,1.63-0.44,3.65v18.37c0,2.28,0.1,3.69,0.29,4.22 c0.19,0.54,0.64,0.8,1.34,0.8c0.72,0,1.18-0.31,1.39-0.92c0.2-0.61,0.3-2.08,0.3-4.4V25.13L38.52,25.13z M64.28,14.99V46.5h6.53 v7.86H53.44V14.99H64.28L64.28,14.99z M73.46,14.99h8.1c5.22,0,8.76,0.22,10.6,0.68c1.84,0.46,3.25,1.2,4.2,2.24 c0.96,1.04,1.56,2.19,1.8,3.46c0.24,1.28,0.36,3.77,0.36,7.51v13.79c0,3.53-0.18,5.9-0.53,7.08c-0.35,1.19-0.97,2.13-1.83,2.8 c-0.88,0.67-1.96,1.14-3.25,1.41c-1.28,0.27-3.22,0.4-5.81,0.4H73.46V14.99L73.46,14.99z M84.3,21.71v25.93 c1.54,0,2.48-0.3,2.83-0.89c0.36-0.6,0.54-2.21,0.54-4.84V26.6c0-1.78-0.06-2.93-0.18-3.43c-0.12-0.51-0.39-0.87-0.82-1.1 C86.26,21.82,85.47,21.71,84.3,21.71L84.3,21.71z"/></g></svg>