<?xml version="1.0" encoding="utf-8"?><svg version="1.1" id="Layer_1" xmlns="http://www.w3.org/2000/svg" xmlns:xlink="http://www.w3.org/1999/xlink" x="0px" y="0px" viewBox="0 0 122.88 122.88" style="enable-background:new 0 0 122.88 122.88" xml:space="preserve"><style type="text/css">.st0{fill-rule:evenodd;clip-rule:evenodd;fill:#393939;} .st1{fill-rule:evenodd;clip-rule:evenodd;fill:#D8453E;}</style><path class="st0" d="M61.45,122.88c-8.03,0-15.5-1.43-22.38-4.28c-6.9-2.86-13.18-7.13-18.84-12.78	c-5.66-5.68-9.92-11.96-12.79-18.85c-2.85-6.89-4.28-14.35-4.28-22.38c0-8.03,1.43-15.49,4.28-22.38	c2.86-6.9,7.13-13.18,12.78-18.84c5.66-5.66,11.94-9.93,18.84-12.78c6.9-2.86,14.37-4.29,22.39-4.29c8.02,0,15.49,1.43,22.38,4.29	c6.9,2.86,13.18,7.12,18.84,12.78c5.67,5.66,9.93,11.95,12.78,18.84c2.86,6.89,4.28,14.35,4.28,22.38c0,8-1.42,15.45-4.28,22.34	c-2.86,6.89-7.12,13.17-12.79,18.85c-5.68,5.69-11.96,9.96-18.83,12.82C76.95,121.45,69.48,122.88,61.45,122.88L61.45,122.88	L61.45,122.88L61.45,122.88z M38.26,16.4l3.18,5.51c-2.44,1.14-4.76,2.49-6.95,4.02l-3.14-5.45c-2.64,1.85-5.17,3.99-7.59,6.41	c-2.42,2.42-4.56,4.95-6.42,7.59l5.44,3.14c-1.53,2.19-2.88,4.51-4.02,6.95l-5.5-3.18c-0.44,0.88-0.83,1.78-1.22,2.7	C9.94,49.2,8.69,54.7,8.3,60.57h6.2c-0.11,1.32-0.17,2.66-0.17,4.01c0,1.35,0.06,2.69,0.17,4.01H8.29	c0.39,5.87,1.64,11.37,3.76,16.47c0.38,0.91,0.78,1.8,1.22,2.7l5.51-3.18c1.14,2.44,2.49,4.76,4.02,6.94l-5.45,3.14	c1.85,2.64,3.99,5.17,6.42,7.59c2.42,2.42,4.95,4.56,7.59,6.42l3.14-5.45c2.19,1.53,4.51,2.88,6.95,4.02l-3.18,5.51	c0.88,0.43,1.78,0.83,2.7,1.22l0,0c5.11,2.12,10.6,3.37,16.47,3.75v-6.2c1.32,0.11,2.66,0.17,4.02,0.17c1.35,0,2.69-0.06,4.01-0.17	v6.2c5.86-0.39,11.36-1.64,16.46-3.75c0.91-0.38,1.81-0.79,2.7-1.22l-3.18-5.5c2.44-1.14,4.76-2.49,6.95-4.02l3.14,5.45	c2.65-1.86,5.18-3.99,7.59-6.43c2.41-2.42,4.54-4.94,6.39-7.59l-5.43-3.13c1.53-2.19,2.87-4.51,4.02-6.94l5.49,3.17	c0.44-0.9,0.86-1.81,1.24-2.73c2.12-5.1,3.37-10.58,3.76-16.42h-6.21c0.11-1.33,0.17-2.67,0.17-4.02c0-1.35-0.06-2.68-0.17-4h6.21	c-0.39-5.87-1.64-11.37-3.76-16.47c-0.38-0.91-0.78-1.81-1.22-2.7l-5.5,3.18c-1.14-2.44-2.49-4.76-4.02-6.95l5.45-3.15	c-1.85-2.64-3.99-5.17-6.41-7.59c-2.42-2.42-4.95-4.55-7.59-6.41l-3.14,5.45c-2.19-1.53-4.51-2.88-6.95-4.02l3.18-5.51	c-0.88-0.44-1.78-0.84-2.7-1.21c-5.11-2.12-10.6-3.37-16.47-3.76v6.2c-1.32-0.11-2.66-0.17-4.02-0.17c-1.35,0-2.69,0.06-4.01,0.17	v-6.21c-5.87,0.39-11.37,1.64-16.47,3.76C40.05,15.56,39.15,15.97,38.26,16.4L38.26,16.4z"/><path class="st1" d="M70.6,29.84v31.41h-8.98V40.7c-1.45,1.06-2.86,1.92-4.22,2.57c-1.36,0.65-3.07,1.29-5.12,1.88v-6.99	c3.02-0.95,5.38-2.09,7.05-3.41c1.68-1.33,2.99-2.97,3.93-4.92H70.6z"/><rect x="51.47" y="0" class="st0" width="19.93" height="8.14"/><path class="st1" d="M27.21,69.98h4.87v6.46h5.34v-6.46h4.89v18.51h-4.89V81h-5.34v7.5h-4.87V69.98L27.21,69.98z M44.2,79.25	c0-3.02,0.72-5.37,2.15-7.05c1.44-1.68,3.44-2.52,6-2.52c2.63,0,4.65,0.83,6.07,2.48c1.42,1.65,2.13,3.97,2.13,6.95	c0,2.16-0.31,3.93-0.93,5.32c-0.62,1.38-1.52,2.46-2.69,3.23c-1.18,0.77-2.64,1.15-4.39,1.15c-1.78,0-3.25-0.33-4.42-1	c-1.16-0.67-2.11-1.72-2.84-3.16C44.56,83.22,44.2,81.41,44.2,79.25L44.2,79.25z M49.07,79.26c0,1.87,0.3,3.21,0.89,4.02	c0.6,0.81,1.4,1.22,2.43,1.22c1.05,0,1.86-0.4,2.44-1.2c0.58-0.8,0.86-2.23,0.86-4.3c0-1.74-0.3-3.01-0.9-3.81	c-0.6-0.81-1.41-1.21-2.44-1.21c-0.98,0-1.78,0.41-2.37,1.22C49.37,76.03,49.07,77.38,49.07,79.26L49.07,79.26z M72.73,69.98h4.87	v11.02c0,1.09-0.15,2.12-0.44,3.09c-0.29,0.97-0.75,1.82-1.37,2.55c-0.62,0.73-1.27,1.24-1.95,1.53c-0.95,0.41-2.09,0.62-3.41,0.62	c-0.77,0-1.61-0.06-2.51-0.19c-0.91-0.13-1.67-0.38-2.28-0.75c-0.61-0.37-1.17-0.9-1.67-1.59c-0.51-0.69-0.85-1.4-1.04-2.13	c-0.3-1.18-0.45-2.22-0.45-3.13V69.98h4.87v11.29c0,1.01,0.24,1.8,0.71,2.36c0.48,0.57,1.14,0.85,1.98,0.85	c0.83,0,1.49-0.28,1.97-0.84c0.47-0.56,0.71-1.35,0.71-2.37V69.98L72.73,69.98z M80.15,88.49V69.98h8.13c1.51,0,2.66,0.15,3.45,0.46	c0.8,0.3,1.44,0.87,1.93,1.68c0.49,0.82,0.73,1.83,0.73,3.01c0,1.03-0.19,1.91-0.56,2.66c-0.37,0.75-0.89,1.35-1.54,1.82	c-0.42,0.29-0.99,0.54-1.71,0.73c0.58,0.23,1,0.45,1.27,0.68c0.18,0.15,0.44,0.48,0.78,0.97c0.34,0.5,0.57,0.88,0.68,1.15l2.37,5.35	h-5.51l-2.61-5.64c-0.33-0.73-0.62-1.21-0.88-1.43c-0.35-0.28-0.75-0.43-1.2-0.43h-0.43v7.5H80.15L80.15,88.49z M85.04,77.51h2.06	c0.22,0,0.65-0.09,1.29-0.25c0.32-0.07,0.59-0.27,0.79-0.58c0.21-0.31,0.31-0.67,0.31-1.08c0-0.6-0.16-1.06-0.49-1.38	c-0.32-0.32-0.93-0.48-1.82-0.48h-2.15V77.51z"/></svg>