<?xml version="1.0" encoding="utf-8"?><svg version="1.1" id="Layer_1" xmlns="http://www.w3.org/2000/svg" xmlns:xlink="http://www.w3.org/1999/xlink" x="0px" y="0px" viewBox="0 0 120.15 122.88" style="enable-background:new 0 0 120.15 122.88" xml:space="preserve"><g><path d="M47.5,103.28c-9.43-14.41-14.18-28.44-14.3-42.06c-0.12-13.11,4.04-25.75,12.4-37.88c-3.23,0.71-6.35,1.65-9.32,2.79 C27.05,36.67,22.78,49,22.91,61.65c0.13,13.05,4.94,26.5,13.8,38.78C40.12,101.67,43.73,102.63,47.5,103.28L47.5,103.28z M49.87,16.49L49.95,6c0.01-1.43,1.02-2.62,2.37-2.91l0-0.01l14.24-3.02c1.62-0.34,3.2,0.69,3.55,2.31 c0.04,0.21,0.06,0.42,0.07,0.62h0.01v13.48c12.28,1.68,23.39,6.35,31.98,13.01c11.07,8.58,17.98,20.46,17.98,33.56 c0,13.07-7.07,24.92-18.27,33.49c-5.87,4.49-12.89,8.09-20.62,10.47l3.6,1.59c1.51,0.67,2.2,2.43,1.53,3.95 c-0.67,1.51-2.43,2.2-3.95,1.53l-10.82-4.78l-0.03-0.01c-0.3,0.05-0.59,0.1-0.89,0.14l6.44,7.67c1.06,1.27,0.89,3.15-0.37,4.21 c-1.27,1.06-3.15,0.89-4.21-0.37l-9.04-10.76c-0.15,0.01-0.3,0.02-0.45,0.02v12.69h-5.99v-11.31l-8.44,9.62 c-1.09,1.24-2.97,1.37-4.21,0.28c-1.24-1.09-1.37-2.97-0.28-4.21l6.55-7.46c-0.56-0.06-1.12-0.14-1.67-0.21l-10,3.74 c-1.55,0.58-3.26-0.21-3.84-1.76c-0.58-1.55,0.21-3.26,1.76-3.84l1.31-0.49c-1.36-0.41-2.7-0.86-4.01-1.34 c-0.29-0.06-0.58-0.17-0.84-0.32c-5.85-2.25-11.17-5.25-15.74-8.82C6.75,88.23,0,76.41,0,63.29c0-13.11,6.93-25.06,18.02-33.71 C26.58,22.91,37.64,18.2,49.87,16.49L49.87,16.49z M74.24,23.25c8.36,12.09,12.53,24.69,12.46,37.75 c-0.07,13.61-4.76,27.62-14.12,42.01c3.65-0.71,7.18-1.71,10.53-2.96c0.07-0.14,0.15-0.28,0.24-0.41 c8.69-12.36,13.31-25.86,13.25-38.92c-0.06-12.41-4.35-24.48-13.4-34.84c-0.02-0.02-0.04-0.05-0.06-0.07 C80.29,24.76,77.32,23.91,74.24,23.25L74.24,23.25z M60.07,15.79c1.38,0,2.75,0.04,4.11,0.11V6.69l-8.28,1.76l-0.06,7.47 C57.25,15.83,58.65,15.79,60.07,15.79L60.07,15.79z M98.51,34.21c-1.25-0.97-2.55-1.89-3.91-2.76c5.36,9.13,7.95,19.08,7.99,29.24 c0.05,11.55-3.19,23.35-9.37,34.49c1.76-1.06,3.44-2.2,5.03-3.42c9.75-7.46,15.9-17.64,15.9-28.74 C114.15,51.88,108.13,41.67,98.51,34.21L98.51,34.21z M65.9,22.03c-0.94-0.08-1.88-0.14-2.83-0.18v82.34 c0.51-0.03,1.02-0.06,1.53-0.1c10.71-14.97,16.05-29.35,16.13-43.11C80.8,47.53,75.83,34.53,65.9,22.03L65.9,22.03z M57.08,21.85 c-1.04,0.05-2.07,0.11-3.1,0.2c-9.97,12.56-14.93,25.61-14.81,39.12c0.12,13.74,5.49,28.09,16.18,43.01 c0.57,0.03,1.15,0.06,1.73,0.08V21.85L57.08,21.85z M24.63,32.16c-1.01,0.68-1.99,1.39-2.94,2.13c-9.66,7.53-15.7,17.82-15.7,29 c0,11.19,5.86,21.36,15.34,28.76c1.63,1.27,3.37,2.47,5.2,3.57c-6.17-10.95-9.48-22.54-9.6-33.92 C16.83,51.44,19.32,41.39,24.63,32.16L24.63,32.16z"/></g></svg>