<svg id="Layer_1" data-name="Layer 1" xmlns="http://www.w3.org/2000/svg" viewBox="0 0 122.88 112.36"><defs><style>.cls-1{fill:#262626;}.cls-1,.cls-2,.cls-3,.cls-4{fill-rule:evenodd;}.cls-2{fill:#666;}.cls-3{fill:#d8453e;}</style></defs><title>online-class</title><path class="cls-1" d="M2.54,60.58H15.13a2.19,2.19,0,0,1-1.63-2.1V2.17A2.18,2.18,0,0,1,15.67,0h91a2.18,2.18,0,0,1,2.17,2.17v56.3a2.17,2.17,0,0,1-1.63,2.1h13.16a2.54,2.54,0,0,1,2.54,2.54h0a2.54,2.54,0,0,1-2.54,2.54H80.14v0c0-.1,0-.21,0-.32v0c0-.11,0-.22,0-.33h0l0-.31v0c0-.11,0-.21,0-.32h0c0-.1,0-.21,0-.31v0c0-.09,0-.19,0-.29v0h0v0c0-.1,0-.2-.05-.3v0L79.82,63v0h0v0l-.06-.28v0l-.06-.28v0h0c0-.09,0-.18-.07-.27l0-.07-.07-.24v0h0l-.08-.25v-.06l-.08-.26v0l-.09-.27v0l-.09-.24,0-.06L79,60.23v0l-.1-.23,0-.06-.12-.25h0l-.12-.25,0,0-.12-.24v0h0l-.12-.23,0,0-.13-.23v0l-.11-.18,0-.09a1.37,1.37,0,0,1-.13-.2h0l0,0-.11-.16H105.4V3.4H17.21V57.86H47.34l-.13.19h0l-.14.24v0l-.3.51h0c-.1.17-.19.35-.28.53h0l-.13.26h0v0l-.24.53v0c0,.08-.07.17-.11.25v0l-.09.26h0c0,.09-.06.18-.1.27v0c0,.1-.07.2-.1.3h0c-.07.2-.12.4-.18.6v0c-.09.3-.16.61-.23.92h0v0l-.06.29v0l-.06.32h0c0,.11,0,.21-.05.32v0c0,.1,0,.21,0,.31h0c0,.11,0,.21,0,.32v0l0,.31h0c0,.11,0,.22,0,.33v0c0,.11,0,.22,0,.32v0H2.54A2.54,2.54,0,0,1,0,63.11H0a2.54,2.54,0,0,1,2.54-2.53ZM35.3,96.81c4.81-7.53,17.9-.87,19-10.33.15-1.27-2.83-3.82-3.52-6.13-1.46-2.33-2-6-.39-8.51.64-1,.37-4.14.37-5.49,0-13.42,23.53-13.43,23.53,0,0,1.7-.4,4.41.53,5.74,1.54,2.24.75,6.19-.56,8.26-.83,2.43-4,4.75-3.73,6.13,1.92,9.74,14.4,1.73,17.84,10.33ZM72,32.27c.12-1-2.84-3.94-3.38-5.77-1.16-1.84-1.57-4.77-.31-6.72.51-.78.29-2.15.29-3.22,0-10.6,18.58-10.61,18.58,0,0,1.34-.31,2.36.42,3.42,1.21,1.76.59,4.89-.44,6.53-.66,1.92-3.76,4.67-3.55,5.76.2,5.45-11.64,5.3-11.61,0ZM55.44,45.78c.68-8.84,4.87-4.47,13.37-9.78l4.67,9.78Zm44.55,0c-.68-8.84-4.87-4.47-13.36-9.78L82,45.78Z"/><path class="cls-2" d="M78.82,41.68h.65a1.07,1.07,0,0,0,1.07-1.07V38.88a1.07,1.07,0,0,0-1.07-1.07H75.6a1.07,1.07,0,0,0-1.07,1.07v1.73a1.07,1.07,0,0,0,1.07,1.07h.66L75,45.78H80l-1.22-4.1Z"/><path class="cls-3" d="M28.53,14.15h21.1V39.72c0,.56-.75.57-1.53.54H28.26a2,2,0,0,0,0,3.91H48.81V42.09h1.53v2.64a.87.87,0,0,1-.88.87H28.34c-1.94.72-3.51-.86-3.51-2.79v-25a3.71,3.71,0,0,1,3.7-3.7ZM29.22,17h.61a.53.53,0,0,1,.58.47V37.72a.54.54,0,0,1-.58.47h-.61a.54.54,0,0,1-.58-.47V17.51a.53.53,0,0,1,.58-.47Z"/><path class="cls-4" d="M33.26,100.45H89.62a9.11,9.11,0,0,1,9.08,9.09v2.82H24.18v-2.82a9.11,9.11,0,0,1,9.08-9.09Z"/></svg>