<svg id="Layer_1" data-name="Layer 1" xmlns="http://www.w3.org/2000/svg" viewBox="0 0 122.88 120.1"><defs><style>.cls-1{fill-rule:evenodd;}</style></defs><title>online-exam</title><path class="cls-1" d="M8.32,0H114.56a8.34,8.34,0,0,1,8.32,8.32V111.78a8.35,8.35,0,0,1-8.32,8.32H8.32A8.34,8.34,0,0,1,0,111.78V8.32A8.34,8.34,0,0,1,8.32,0Zm92.32,96.12a2.66,2.66,0,0,0,0-5.31H42.82a2.66,2.66,0,0,0,0,5.31Zm0-23.82a2.66,2.66,0,0,0,0-5.31H42.82a2.66,2.66,0,0,0,0,5.31ZM20,71a2.52,2.52,0,0,1,4.19-2.8l1.36,1.5,4.77-6a2.52,2.52,0,0,1,3.89,3.19l-6.83,8.24a2.73,2.73,0,0,1-.6.57,2.52,2.52,0,0,1-3.49-.69L20,71ZM29.9,87.37a2.22,2.22,0,0,1,3.14,0,2.27,2.27,0,0,1,0,3.18l-2.72,2.78,2.72,2.78a2.24,2.24,0,0,1,0,3.15,2.2,2.2,0,0,1-3.13,0l-2.7-2.76-2.72,2.78a2.21,2.21,0,0,1-3.14,0,2.27,2.27,0,0,1,0-3.18l2.73-2.78-2.73-2.78a2.23,2.23,0,0,1,0-3.15,2.18,2.18,0,0,1,3.12,0l2.71,2.75,2.71-2.77Zm2.91-45H26.35v2.46h7.92V50H19.89V29.79H34.11L33.3,35H26.35v2.72h6.46v4.68ZM43.94,29.79l2.23,5.4h.33l2.23-5.4h7l-4.49,9.76L55.74,50H48.57l-2.43-5.82h-.29L43.46,50H36.61L41,39.74l-4.39-10ZM63.38,50H56.56l5.23-20.2h10L77,50H70.2l-.45-3.2H63.83L63.38,50ZM66,36,65,41.65h3.56l-1-5.65ZM85.15,50H78.4l1.23-20.2h8.43l2.52,10.28h.23l2.52-10.28h8.43L103,50H96.24l-.39-9.79h-.23L93.17,50h-5L85.74,40.2h-.2L85.15,50ZM118,20.1H5.29v92.49a2.29,2.29,0,0,0,2.3,2.3h108a2.29,2.29,0,0,0,2.3-2.3V20.1ZM106.64,7.22a4.11,4.11,0,1,1-4.11,4.11,4.11,4.11,0,0,1,4.11-4.11Zm-27.84,0a4.11,4.11,0,1,1-4.11,4.11A4.11,4.11,0,0,1,78.8,7.22Zm13.92,0a4.11,4.11,0,1,1-4.11,4.11,4.11,4.11,0,0,1,4.11-4.11Z"/></svg>