<svg id="Layer_1" data-name="Layer 1" xmlns="http://www.w3.org/2000/svg" viewBox="0 0 122.88 77.85"><defs><style>.cls-1{fill-rule:evenodd;}</style></defs><title>online-book-store</title><path class="cls-1" d="M2.54,72.78H15.13a2.18,2.18,0,0,1-1.63-2.1V26.24a11.54,11.54,0,0,1-1.1-1A13,13,0,0,1,9,16.43v-4.9a1.57,1.57,0,0,1,.16-.71L18.25.73A1.3,1.3,0,0,1,19.4,0h83.35a1.32,1.32,0,0,1,1.19.8l9.72,10c.46.76.2,4.84.2,5.65a13,13,0,0,1-3.38,8.8,13,13,0,0,1-1.67,1.49v44a2.15,2.15,0,0,1-1.63,2.09h13.16a2.55,2.55,0,0,1,2.54,2.54h0a2.54,2.54,0,0,1-2.54,2.54H2.54A2.54,2.54,0,0,1,0,75.31H0a2.55,2.55,0,0,1,2.54-2.53ZM44.11,58.36l.11-18.06H42V63.67a37.45,37.45,0,0,1,9.11-1.3,25.56,25.56,0,0,1,8.48,1.34,18.2,18.2,0,0,0-5.81-3.16,21.19,21.19,0,0,0-8.4-.89,1.2,1.2,0,0,1-1.29-1.1.67.67,0,0,1,0-.2ZM76.42,39.28a1.62,1.62,0,0,1,0-.36V35a18.31,18.31,0,0,0-8.12,1,11.11,11.11,0,0,0-5.64,4.41V61.42a28.74,28.74,0,0,1,6.24-3.23,17.82,17.82,0,0,1,7.52-1.07V39.28Zm2.4-1.38h3.24a1.2,1.2,0,0,1,1.2,1.2V65.24a1.19,1.19,0,0,1-1.2,1.19,1.32,1.32,0,0,1-.39-.06,37.29,37.29,0,0,0-9.93-1.61,23,23,0,0,0-9.62,2,1.26,1.26,0,0,1-1.36,0,23.05,23.05,0,0,0-9.62-2,37.37,37.37,0,0,0-9.94,1.61,1.21,1.21,0,0,1-.38.06,1.19,1.19,0,0,1-1.2-1.19V39.1a1.2,1.2,0,0,1,1.2-1.2h3.41l0-4a1.2,1.2,0,0,1,1-1.16h0a19,19,0,0,1,10.34.79,13.33,13.33,0,0,1,6,4.35,13.88,13.88,0,0,1,6-4.16,21.1,21.1,0,0,1,10.33-1,1.19,1.19,0,0,1,1,1.19h0v4Zm-15,25.63a25.85,25.85,0,0,1,7.92-1.16,37.46,37.46,0,0,1,9.12,1.3V40.3h-2V58.47a1.19,1.19,0,0,1-1.2,1.19,1.27,1.27,0,0,1-.28,0,15.3,15.3,0,0,0-7.64.82,26.35,26.35,0,0,0-5.88,3.08Zm-3.56-2.34V40.34a10.56,10.56,0,0,0-5.57-4.57,16.51,16.51,0,0,0-8.06-.86L46.5,57.19a23.49,23.49,0,0,1,8,1.09,20.46,20.46,0,0,1,5.72,2.91Zm-43-33V70.06H105.4V28.36a11.07,11.07,0,0,1-2.59.4,12.94,12.94,0,0,1-5.36-1.05,11.69,11.69,0,0,1-3.28-2.48,12.85,12.85,0,0,1-2.07-3,12.6,12.6,0,0,1-2.08,3,10.91,10.91,0,0,1-16.29,0,12.6,12.6,0,0,1-2.08-3,12.32,12.32,0,0,1-2.08,3,10.91,10.91,0,0,1-16.29,0,12.56,12.56,0,0,1-2.07-3,12.89,12.89,0,0,1-2.08,3,10.92,10.92,0,0,1-16.3,0,12.85,12.85,0,0,1-2.07-3,12.6,12.6,0,0,1-2.08,3,11.32,11.32,0,0,1-5,3.19,12.37,12.37,0,0,1-6.38-.18l-.08,0Zm-3.61-18H29.73l3.16-7.33H20.16L13.6,10.17ZM71.52,2.84l1.32,7.33H90.39L86.8,2.84ZM70.2,10.17,68.89,2.84h-15l-1.29,7.33ZM50,10.17l1.3-7.33H35.59l-3.16,7.33ZM89.51,2.84l3.6,7.33,16.4-.1-6.82-7.23ZM93.41,13v3.42A10,10,0,0,0,96,23.21a8.41,8.41,0,0,0,12.58,0,10,10,0,0,0,2.62-6.79V13ZM73,13v3.42a10,10,0,0,0,2.62,6.79,8.39,8.39,0,0,0,12.57,0,10,10,0,0,0,2.62-6.79V13ZM52.53,13v3.42a10,10,0,0,0,2.62,6.79,8.39,8.39,0,0,0,12.57,0,10,10,0,0,0,2.62-6.79V13ZM32.09,13v3.42a10,10,0,0,0,2.62,6.79,8.41,8.41,0,0,0,12.58,0,10,10,0,0,0,2.61-6.79V13Zm-2.63,0H11.65v3.42a10,10,0,0,0,2.61,6.79,8.41,8.41,0,0,0,12.58,0,10,10,0,0,0,2.62-6.79V13ZM57.87,73.73H65A1.23,1.23,0,0,1,66.23,75h0A1.22,1.22,0,0,1,65,76.17H57.87A1.22,1.22,0,0,1,56.65,75h0a1.22,1.22,0,0,1,1.22-1.22Z"/></svg>