<svg id="Layer_1" data-name="Layer 1" xmlns="http://www.w3.org/2000/svg" viewBox="0 0 73.76 122.88"><defs><style>.cls-1{fill-rule:evenodd;}</style></defs><title>online-shop</title><path class="cls-1" d="M14.53,0H54.11A14.53,14.53,0,0,1,68.64,14.54v14h-4.3V17.13a2.74,2.74,0,0,0-2.73-2.73H7a2.74,2.74,0,0,0-2.73,2.73v84.29A2.74,2.74,0,0,0,7,104.15h54.6a2.74,2.74,0,0,0,2.73-2.73V98.06a15.78,15.78,0,0,0,4.3-2v12.29a14.53,14.53,0,0,1-14.53,14.53H14.53A14.54,14.54,0,0,1,0,108.35V14.52A14.51,14.51,0,0,1,14.53,0Zm1.3,35.63a2,2,0,1,1,0-4.09H17.4a9.49,9.49,0,0,1,5,1.29,7.62,7.62,0,0,1,3.33,4.73l.53,2.2H71.72a2,2,0,0,1,2,2,1.89,1.89,0,0,1-.1.63L68.37,63.84a2,2,0,0,1-2,1.55H33.07c.75,2.71,1.44,4.18,2.44,4.86,1.18.79,3.28.85,6.78.79H65.83a2,2,0,0,1,0,4.09H42.33c-4.3.07-7-.06-9.09-1.49s-3.31-3.93-4.45-8.48l-7-26.52a3.75,3.75,0,0,0-1.54-2.34,5.64,5.64,0,0,0-2.87-.67Zm44,41.87a5,5,0,1,1-5,5,5,5,0,0,1,5-5Zm-21.9,0a5,5,0,1,1-5,5,5,5,0,0,1,5-5Zm12.5-33.64v7.43H67.27l1.84-7.43Zm0,11.52v5.93H64.8l1.46-5.93Zm-4.08,5.93V55.38H30.42c.54,2,1.08,3.95,1.59,5.93Zm0-10V43.86h-19c.65,2.48,1.33,5,2,7.43Zm-12,56a6,6,0,1,1-6,6,6,6,0,0,1,6-6Z"/></svg>