<?xml version="1.0" encoding="utf-8"?><svg version="1.1" id="Layer_1" xmlns="http://www.w3.org/2000/svg" xmlns:xlink="http://www.w3.org/1999/xlink" x="0px" y="0px" viewBox="0 0 102.55 122.88" style="enable-background:new 0 0 102.55 122.88" xml:space="preserve"><style type="text/css">.st0{fill-rule:evenodd;clip-rule:evenodd;}</style><g><path class="st0" d="M102.55,122.88H0V0h77.66l24.89,26.44L102.55,122.88L102.55,122.88z M69.07,47.53 c-6.06-2.86-13.78-3.44-19.46,0.61c6.9-0.66,14.48,0.49,19.49,5.71c4.79-5.5,12.39-6.53,19.27-5.96 C82.64,44.07,75.07,44.58,69.07,47.53L69.07,47.53L69.07,47.53L69.07,47.53z M66.62,60.92c-6.83-0.16-13.43,2.32-19.08,6 c-10.71-4.55-24.25-3.71-33.36,3.89c2.63-0.1,5.2-0.74,7.8-1.08c9.5-0.95,19.64,1.41,26.82,7.97c2.97-4.35,7.15-7.82,11.95-9.98 c6.3-3.05,13.4-3.36,20.26-3.44C76.84,61.42,71.55,60.89,66.62,60.92L66.62,60.92L66.62,60.92L66.62,60.92z M96.13,115.98V30.44 H73.45V5.9H6.51v110.07H96.13L96.13,115.98z"/></g></svg>