<svg id="Layer_1" data-name="Layer 1" xmlns="http://www.w3.org/2000/svg" viewBox="0 0 122.88 123.2"><defs><style>.cls-1{fill:#f60;}.cls-2{fill:#fed9bf;}.cls-3{fill:#fff;}</style></defs><title>orange-mobile</title><path class="cls-1" d="M0,0H122.78q0,61.55,0,123.1H0V0ZM106.3,89v.78h1.76c0,1.64,0,3.27,0,4.9h1v-4.9h1.76V89Zm5.61,0v5.68h1c0-1.55,0-3.1,0-4.65.65,1.54,1.23,3.1,1.84,4.65h.62c.62-1.56,1.21-3.12,1.84-4.67,0,1.56,0,3.11,0,4.67h1c0-1.9,0-3.79,0-5.69h-1.46c-.54,1.43-1.09,2.85-1.64,4.27-.55-1.43-1.11-2.85-1.67-4.27ZM14.57,95.1a8,8,0,0,0-6.21,3.15A9.58,9.58,0,0,0,6.65,104,10.15,10.15,0,0,0,8,109.55a7.54,7.54,0,0,0,3.55,3,9.76,9.76,0,0,0,5.58.46,7.84,7.84,0,0,0,4.45-2.62,8.72,8.72,0,0,0,1.84-4.27,12.62,12.62,0,0,0-.35-5.4,7.73,7.73,0,0,0-2.9-4.1,8.87,8.87,0,0,0-5.62-1.5Zm16.36,2.42v-2c-1.43,0-2.86,0-4.29,0V112.7h4.6c0-3.79,0-7.59,0-11.39a2.34,2.34,0,0,1,1.21-1.23,9,9,0,0,1,3.77-.62V95.21a6.41,6.41,0,0,0-5.3,2.31Zm11.25-1.85a7.64,7.64,0,0,0-3.89,2.86c1,.6,2,1.18,3.06,1.76a5.16,5.16,0,0,1,3.55-1.94,3.38,3.38,0,0,1,2.91.77,3.08,3.08,0,0,1,.37,2.09,25.32,25.32,0,0,0-6.88,1.59,6.88,6.88,0,0,0-3.16,2.47,5.38,5.38,0,0,0-.44,4.42,4.42,4.42,0,0,0,2.39,2.72,7.18,7.18,0,0,0,4.18.35,10.18,10.18,0,0,0,3.89-1.54l.39,1.48h4c0-4,0-7.94,0-11.9a4.9,4.9,0,0,0-.87-3.35,6.1,6.1,0,0,0-4.06-2.12,12.21,12.21,0,0,0-5.44.34Zm22.4-.36a11.5,11.5,0,0,0-4.33,2.18c-.13-.67-.28-1.34-.4-2L56.09,96c0,5.56,0,11.12,0,16.68h4.49v-12.3a7.35,7.35,0,0,1,3.68-1.86,2.36,2.36,0,0,1,2,.52,3.38,3.38,0,0,1,.61,2.17c0,3.82,0,7.64,0,11.47h4.53v-12.2A7.58,7.58,0,0,0,71,98.07a4.16,4.16,0,0,0-2.13-2.38,7.22,7.22,0,0,0-4.33-.38ZM76.33,97.8a10.67,10.67,0,0,0-1.82,6.54,9.61,9.61,0,0,0,1.8,5.93,6.4,6.4,0,0,0,4.37,2.36,6.12,6.12,0,0,0,3.65-.56,5.1,5.1,0,0,0,1.76-1.87c0,.72,0,1.44,0,2.16a4.16,4.16,0,0,1-.82,2.74,3.24,3.24,0,0,1-2.42.91,4.73,4.73,0,0,1-2.7-.53,1.87,1.87,0,0,1-.71-1.14l-4.46.72a4.78,4.78,0,0,0,2.46,3.23,10.82,10.82,0,0,0,6.32,1,8,8,0,0,0,5.12-2.1,6.93,6.93,0,0,0,1.58-4.7v-17c-1.28,0-2.55,0-3.83,0-.09.64-.22,1.26-.33,1.9a3.68,3.68,0,0,0-2-1.73,7.93,7.93,0,0,0-3.45-.48,6.32,6.32,0,0,0-4.54,2.62Zm18.81-.13A9.3,9.3,0,0,0,93.2,103a11.86,11.86,0,0,0,1,6.11,6.73,6.73,0,0,0,3.52,3.27,10.71,10.71,0,0,0,6.19.35,7.37,7.37,0,0,0,4.89-3.44l-3.32-1.85a5.15,5.15,0,0,1-1.88,1.77,4.79,4.79,0,0,1-2.87.37,3.34,3.34,0,0,1-2.32-1.45,6.26,6.26,0,0,1-.8-3.34H109a12.21,12.21,0,0,0-.45-4.5,7,7,0,0,0-2.85-3.93,8.94,8.94,0,0,0-5.86-1.12,7.17,7.17,0,0,0-4.68,2.44Z"/><path class="cls-1" d="M98.67,99.24a3.14,3.14,0,0,1,2.18-1,3.47,3.47,0,0,1,2.88,1,4,4,0,0,1,.86,2.58h-6.9a4.3,4.3,0,0,1,1-2.59Z"/><path class="cls-1" d="M81.84,98.43a3.34,3.34,0,0,1,3,.93,5.29,5.29,0,0,1,1.32,3.42,13,13,0,0,1-.15,2.71,4.81,4.81,0,0,1-1.15,2.6,3.28,3.28,0,0,1-2.39.89,2.86,2.86,0,0,1-2.22-.84,4.92,4.92,0,0,1-1.12-2.93,14.18,14.18,0,0,1,0-3.19,5,5,0,0,1,1-2.6,2.93,2.93,0,0,1,1.7-1Z"/><path class="cls-1" d="M14.39,99a3.9,3.9,0,0,1,3.18.77A4.6,4.6,0,0,1,19,102.52,10,10,0,0,1,18.9,106a4.33,4.33,0,0,1-1.49,2.66,4.15,4.15,0,0,1-3.29.59,3.33,3.33,0,0,1-2.18-1.58,7.4,7.4,0,0,1-.79-3.87,6.42,6.42,0,0,1,.93-3.42A3.29,3.29,0,0,1,14.39,99Z"/><path class="cls-1" d="M44,104.91a15.47,15.47,0,0,1,4-1c0,1.34,0,2.68,0,4a6.28,6.28,0,0,1-4.18,1.81,1.9,1.9,0,0,1-1.42-.6,2.5,2.5,0,0,1-.25-2.87A3.67,3.67,0,0,1,44,104.91Z"/><path class="cls-2" d="M122.78,0h.1V123.2H0v-.1H122.77q0-61.54,0-123.1Z"/><path class="cls-3" d="M106.3,89h4.49v.78H109v4.9h-1c0-1.63,0-3.26,0-4.9H106.3V89Z"/><path class="cls-3" d="M111.91,89h1.47c.56,1.42,1.12,2.84,1.67,4.27.55-1.42,1.1-2.84,1.64-4.27h1.46c0,1.9,0,3.79,0,5.69h-1c0-1.56,0-3.11,0-4.67-.63,1.55-1.22,3.11-1.84,4.67h-.62c-.61-1.55-1.19-3.11-1.84-4.65,0,1.55,0,3.1,0,4.65h-1V89Z"/><path class="cls-3" d="M14.57,95.1a8.87,8.87,0,0,1,5.62,1.5,7.73,7.73,0,0,1,2.9,4.1,12.62,12.62,0,0,1,.35,5.4,8.72,8.72,0,0,1-1.84,4.27A7.84,7.84,0,0,1,17.15,113a9.76,9.76,0,0,1-5.58-.46,7.54,7.54,0,0,1-3.55-3A10.15,10.15,0,0,1,6.65,104a9.58,9.58,0,0,1,1.71-5.78,8,8,0,0,1,6.21-3.15ZM14.39,99a3.29,3.29,0,0,0-2.31,1.41,6.42,6.42,0,0,0-.93,3.42,7.4,7.4,0,0,0,.79,3.87,3.33,3.33,0,0,0,2.18,1.58,4.15,4.15,0,0,0,3.29-.59A4.33,4.33,0,0,0,18.9,106a10,10,0,0,0,.05-3.49,4.6,4.6,0,0,0-1.38-2.77A3.9,3.9,0,0,0,14.39,99Z"/><path class="cls-3" d="M30.93,97.52a6.41,6.41,0,0,1,5.3-2.31v4.25a9,9,0,0,0-3.77.62,2.34,2.34,0,0,0-1.21,1.23c0,3.8,0,7.6,0,11.39h-4.6V95.54c1.43,0,2.86,0,4.29,0v2Z"/><path class="cls-3" d="M42.18,95.67a12.21,12.21,0,0,1,5.44-.34,6.1,6.1,0,0,1,4.06,2.12,4.9,4.9,0,0,1,.87,3.35c0,4,0,7.94,0,11.9h-4l-.39-1.48a10.18,10.18,0,0,1-3.89,1.54,7.18,7.18,0,0,1-4.18-.35,4.42,4.42,0,0,1-2.39-2.72,5.38,5.38,0,0,1,.44-4.42,6.88,6.88,0,0,1,3.16-2.47,25.32,25.32,0,0,1,6.88-1.59,3.08,3.08,0,0,0-.37-2.09,3.38,3.38,0,0,0-2.91-.77,5.16,5.16,0,0,0-3.55,1.94c-1-.58-2.05-1.16-3.06-1.76a7.64,7.64,0,0,1,3.89-2.86ZM44,104.91a3.67,3.67,0,0,0-1.81,1.41,2.5,2.5,0,0,0,.25,2.87,1.9,1.9,0,0,0,1.42.6A6.28,6.28,0,0,0,48.06,108c0-1.34,0-2.68,0-4a15.47,15.47,0,0,0-4,1Z"/><path class="cls-3" d="M64.58,95.31a7.22,7.22,0,0,1,4.33.38A4.16,4.16,0,0,1,71,98.07a7.58,7.58,0,0,1,.41,2.41v12.2H66.92c0-3.83,0-7.65,0-11.47A3.38,3.38,0,0,0,66.31,99a2.36,2.36,0,0,0-2-.52,7.35,7.35,0,0,0-3.68,1.86v12.3H56.09c0-5.56,0-11.12,0-16.68l3.76-.52c.12.67.27,1.34.4,2a11.5,11.5,0,0,1,4.33-2.18Z"/><path class="cls-3" d="M76.33,97.8a6.32,6.32,0,0,1,4.54-2.62,7.93,7.93,0,0,1,3.45.48,3.68,3.68,0,0,1,2,1.73c.11-.64.24-1.26.33-1.9,1.28,0,2.55,0,3.83,0v17a6.93,6.93,0,0,1-1.58,4.7,8,8,0,0,1-5.12,2.1,10.82,10.82,0,0,1-6.32-1A4.78,4.78,0,0,1,75,115.06l4.46-.72a1.87,1.87,0,0,0,.71,1.14,4.73,4.73,0,0,0,2.7.53,3.24,3.24,0,0,0,2.42-.91,4.16,4.16,0,0,0,.82-2.74c0-.72,0-1.44,0-2.16a5.1,5.1,0,0,1-1.76,1.87,6.12,6.12,0,0,1-3.65.56,6.4,6.4,0,0,1-4.37-2.36,9.61,9.61,0,0,1-1.8-5.93,10.67,10.67,0,0,1,1.82-6.54Zm5.51.63a2.93,2.93,0,0,0-1.7,1,5,5,0,0,0-1,2.6,14.18,14.18,0,0,0,0,3.19,4.92,4.92,0,0,0,1.12,2.93,2.86,2.86,0,0,0,2.22.84,3.28,3.28,0,0,0,2.39-.89,4.81,4.81,0,0,0,1.15-2.6,13,13,0,0,0,.15-2.71,5.29,5.29,0,0,0-1.32-3.42,3.34,3.34,0,0,0-3-.93Z"/><path class="cls-3" d="M95.14,97.67a7.17,7.17,0,0,1,4.68-2.44,8.94,8.94,0,0,1,5.86,1.12,7,7,0,0,1,2.85,3.93,12.21,12.21,0,0,1,.45,4.5H97.62a6.26,6.26,0,0,0,.8,3.34,3.34,3.34,0,0,0,2.32,1.45,4.79,4.79,0,0,0,2.87-.37,5.15,5.15,0,0,0,1.88-1.77l3.32,1.85a7.37,7.37,0,0,1-4.89,3.44,10.71,10.71,0,0,1-6.19-.35,6.73,6.73,0,0,1-3.52-3.27,11.86,11.86,0,0,1-1-6.11,9.3,9.3,0,0,1,1.94-5.32Zm3.53,1.57a4.3,4.3,0,0,0-1,2.59h6.9a4,4,0,0,0-.86-2.58,3.47,3.47,0,0,0-2.88-1,3.14,3.14,0,0,0-2.18,1Z"/></svg>