<svg xmlns="http://www.w3.org/2000/svg" viewBox="0 0 992.47 1333.33" shape-rendering="geometricPrecision" text-rendering="geometricPrecision" image-rendering="optimizeQuality" fill-rule="evenodd" clip-rule="evenodd"><path d="M474.07 1.8c7.33-4.07 18.16-1.05 20.67 7.41 2.72 6.98-1.98 13.37-5.83 18.78-27.23 38.61-45.3 83.46-53.85 129.87-5.17 2.2-6.67 7.63-5.06 12.75 2.55.93 5.12 1.76 7.72 2.55 52.86-4.64 106.48-3.68 158.52 7.44 94.69 19.06 183.18 66.97 251.19 135.46 67.81 67.79 115.41 155.63 134.67 249.61 21.35 101.75 9.42 210.07-33.29 304.84-90.56 193.53-243.22 357.22-430.01 460.98-6.02 2.8-14.7 2.91-18.83-3.08-4.86-6.28-2.86-15.21 1.95-20.93 25.2-35.15 42.79-75.57 52.35-117.7 1.84-8.74 4.35-17.59 3.59-26.58-3.08-4.02-8.17-2.8-12.5-2.66-90.67 9.07-183.96-7.13-265.9-47.17-87.75-42.28-162.22-111.4-211.45-195.42C22.39 840.66-1.59 750.64.08 660.85c.31-82.41 22.8-164.15 62.39-236.29C154.64 247.6 299.35 98.28 474.07 1.82zm-5.09 472.89c-53.93 7.24-103.68 38.91-133.88 84.05-20.45 31-32.83 67.81-32.58 105.09-1.53 49.94 18.38 99.97 52.89 135.95 30.15 32.46 72.03 53.62 115.95 59.28 44.71 5.91 91.41-4.56 129.28-29.13 38.49-24.43 67.81-63.01 80.94-106.7 24.63-75.85-4.89-164.71-69.15-211.57-40.36-30.71-93.27-44.34-143.44-36.96z" fill="#f15a23" fill-rule="nonzero"/></svg>