<svg xmlns="http://www.w3.org/2000/svg" shape-rendering="geometricPrecision" text-rendering="geometricPrecision" image-rendering="optimizeQuality" fill-rule="evenodd" clip-rule="evenodd" viewBox="0 0 512 326.35"><path fill-rule="nonzero" d="M163.18 0c34.48 0 66.47 10.7 92.82 28.96C282.35 10.7 314.34 0 348.82 0c45.06 0 85.85 18.26 115.38 47.79 29.53 29.53 47.8 70.33 47.8 115.39s-18.27 85.85-47.8 115.38c-29.53 29.53-70.32 47.79-115.38 47.79-34.48 0-66.47-10.69-92.82-28.95-26.35 18.26-58.34 28.95-92.82 28.95-45.06 0-85.86-18.26-115.39-47.79C18.26 249.03 0 208.24 0 163.18S18.26 77.32 47.79 47.79C77.32 18.26 118.12 0 163.18 0zm109.47 42.18c2.02 1.82 3.99 3.69 5.91 5.61 26.34 26.35 43.72 61.66 47.16 100.97l.1 1.19.02.19.07 1 .09 1.19.05.85.05.93.07 1.26.05 1.09.02.64v.03l.04 1.2.01.26.02.6.03 1.85v.11l.01 2.03-.01 2.02v.12l-.03 1.84-.02.6-.01.26-.04 1.2v.03l-.02.65-.05 1.09-.07 1.26-.05.92-.05.85-.09 1.2-.07 1-.02.19-.1 1.19c-3.44 39.3-20.82 74.62-47.16 100.96-1.92 1.92-3.89 3.8-5.91 5.62 22.05 13.91 48.17 21.96 76.17 21.96 39.48 0 75.22-16.01 101.09-41.87 25.87-25.87 41.87-61.61 41.87-101.09 0-39.48-16-75.22-41.87-101.09-25.87-25.87-61.61-41.87-101.09-41.87-28 0-54.12 8.05-76.17 21.96zm-33.3 242c-2.02-1.83-3.99-3.7-5.91-5.62-26.35-26.35-43.72-61.66-47.17-100.96l-.1-1.19-.01-.18-.08-1.01-.08-1.2-.05-.85-.06-.92-.06-1.26-.05-1.09-.02-.65v-.03l-.04-1.2-.01-.26-.02-.6-.03-1.84v-.12l-.02-2.02.02-2.03v-.11l.03-1.85.02-.6.01-.26.04-1.2v-.03l.02-.64.05-1.09.06-1.26.06-.93.05-.85.08-1.19.08-1.02.01-.17.1-1.19c3.45-39.31 20.83-74.62 47.17-100.97 1.92-1.92 3.89-3.79 5.9-5.61-22.05-13.91-48.16-21.96-76.16-21.96-39.48 0-75.22 16-101.09 41.87-25.87 25.87-41.87 61.61-41.87 101.09 0 39.48 16 75.22 41.87 101.09 25.87 25.86 61.61 41.87 101.09 41.87 28 0 54.12-8.06 76.17-21.96z"/></svg>