<svg id="Layer_1" data-name="Layer 1" xmlns="http://www.w3.org/2000/svg" viewBox="0 0 122.88 76.54"><defs><style>.cls-1{fill-rule:evenodd;}</style></defs><title>pager</title><path class="cls-1" d="M13.29,0h96.3a13.33,13.33,0,0,1,13.29,13.29v50a13.33,13.33,0,0,1-13.29,13.29H13.29A13.33,13.33,0,0,1,0,63.25v-50A13.33,13.33,0,0,1,13.29,0Zm12,20.41v11.1h-2.5V22.24H21.3V20.41ZM30,22.68v1.46H27.53V22.33c0-1.28.73-1.92,2.2-1.92h1.88c1.49,0,2.24.64,2.24,1.92v1.41a3.64,3.64,0,0,1-.24,1.39,5.41,5.41,0,0,1-.76,1.28l-2.23,3.27h3.26v1.83h-6.3V29.82l3.07-4.12a3.51,3.51,0,0,0,.59-1,3.07,3.07,0,0,0,.15-1v-1c0-.29-.16-.44-.48-.44h-.43c-.31,0-.46.15-.46.44Zm8.38,0V24H35.92V22.33c0-1.28.73-1.92,2.2-1.92h1.94q2.22,0,2.22,1.92v1.9c0,.86-.27,1.4-.79,1.63.52.19.79.69.79,1.5v2.22c0,1.29-.74,1.93-2.22,1.93H38.12c-1.47,0-2.2-.64-2.2-1.93V28H38.4v1.29c0,.29.16.44.47.44h.47c.32,0,.47-.15.47-.44V27.18a.46.46,0,0,0-.1-.34.57.57,0,0,0-.37-.09H38V25h1.36a.51.51,0,0,0,.37-.1.41.41,0,0,0,.1-.32V22.68c0-.29-.15-.44-.47-.44h-.47c-.31,0-.47.15-.47.44ZM52,27.58v1.86h-1.1v2.07H48.5V29.44H44.23V27.27L48,20.41h2.51l-4.07,7.17h2V25.4h2.36v2.18Zm4.36-3.24h1.73q2.22,0,2.22,1.92v3.32c0,1.29-.74,1.93-2.22,1.93H56c-1.48,0-2.22-.64-2.22-1.93V27.76h2.5v1.48c0,.29.16.44.47.44h.61c.32,0,.48-.15.48-.44V26.61c0-.29-.16-.44-.48-.44H53.86V20.41h6.29v1.83H56.32v2.1Zm8.76.62H67c1.48,0,2.22.65,2.22,1.93v2.69c0,1.29-.74,1.93-2.22,1.93H64.85c-1.47,0-2.21-.64-2.21-1.93V22.33c0-1.28.74-1.92,2.21-1.92h2q2.22,0,2.22,1.92v1.5H66.63V22.68c0-.29-.15-.44-.47-.44h-.63a.39.39,0,0,0-.45.44V25Zm1.68,4.28V27.17c0-.3-.16-.44-.47-.44H65.08v2.51a.39.39,0,0,0,.45.44h.76c.31,0,.47-.15.47-.44ZM77.3,20.41V21.8l-3.23,9.71H71.5l3.14-9.15H71.05V20.41Zm15.47-6.9h10.4a5.76,5.76,0,0,1,5.73,5.73V53.8a5.77,5.77,0,0,1-5.73,5.73H92.77v-46ZM104,27.72,100.85,19l-3.17,8.69Zm0,18.07-3.14,8.68-3.17-8.68ZM90.41,11.19h13.26A7.56,7.56,0,0,1,109,13.41l.11.12a7.58,7.58,0,0,1,2.12,5.24V54.26A7.55,7.55,0,0,1,109,59.61h0a7.58,7.58,0,0,1-5.35,2.23H90.48V13l-.07-1.85ZM20.85,52.7H30.93a4.59,4.59,0,0,1,4.58,4.58h0a4.59,4.59,0,0,1-4.58,4.57H20.85a4.59,4.59,0,0,1-4.58-4.57h0a4.59,4.59,0,0,1,4.58-4.58Zm25,0H56a4.59,4.59,0,0,1,4.58,4.58h0A4.59,4.59,0,0,1,56,61.85H45.89a4.59,4.59,0,0,1-4.58-4.57h0a4.59,4.59,0,0,1,4.58-4.58ZM70,52.7H80.08a4.59,4.59,0,0,1,4.58,4.58h0a4.59,4.59,0,0,1-4.58,4.57H70a4.59,4.59,0,0,1-4.58-4.57h0A4.59,4.59,0,0,1,70,52.7ZM19.21,11.19H84.66V46.32H13.4l.08-29.41a5.75,5.75,0,0,1,5.73-5.72Z"/></svg>