<svg id="Layer_1" data-name="Layer 1" xmlns="http://www.w3.org/2000/svg" viewBox="0 0 122.88 94.95"><title>page-down</title><path d="M21.17,0h80.54a21.24,21.24,0,0,1,21.17,21.17V73.78A21.24,21.24,0,0,1,101.71,95H21.17A21.24,21.24,0,0,1,0,73.78V21.17A21.24,21.24,0,0,1,21.17,0Zm2.62,49.46v-21h9.06a8.6,8.6,0,0,1,4.09.93A6.69,6.69,0,0,1,39.67,32a7.58,7.58,0,0,1,1,3.9,7.41,7.41,0,0,1-1,3.91,6.79,6.79,0,0,1-2.79,2.54,9.44,9.44,0,0,1-4.2.89H29.49v6.23Zm5.7-10.66h2a3.73,3.73,0,0,0,1.71-.35,2.51,2.51,0,0,0,1.1-1,3,3,0,0,0,.39-1.55,2.91,2.91,0,0,0-.39-1.54,2.45,2.45,0,0,0-1.1-1A3.86,3.86,0,0,0,31.5,33h-2V38.8ZM50.35,55.52a11.09,11.09,0,0,1-4.05-.66,6.31,6.31,0,0,1-2.62-1.8,4.58,4.58,0,0,1-1-2.58h5.44a1.23,1.23,0,0,0,.41.69,2.11,2.11,0,0,0,.85.41,4.68,4.68,0,0,0,1.16.13,3.08,3.08,0,0,0,1.82-.51,2.05,2.05,0,0,0,.73-1.79V46.75h-.17A3.47,3.47,0,0,1,52,48.11a4.55,4.55,0,0,1-1.53.85,6.33,6.33,0,0,1-2,.29,6.25,6.25,0,0,1-3.09-.78A5.52,5.52,0,0,1,43.12,46a9.93,9.93,0,0,1-.84-4.41A10.44,10.44,0,0,1,43.16,37a6.08,6.08,0,0,1,2.3-2.62,5.78,5.78,0,0,1,3-.82,4.87,4.87,0,0,1,2,.4A4.39,4.39,0,0,1,52,35a4.73,4.73,0,0,1,.9,1.46H53V33.72h5.66V49.41a5.35,5.35,0,0,1-1,3.29,6.44,6.44,0,0,1-2.89,2.09,11.89,11.89,0,0,1-4.36.73Zm.21-10.29a2.08,2.08,0,0,0,1.33-.43,2.71,2.71,0,0,0,.86-1.25,5.45,5.45,0,0,0,.31-2,5.74,5.74,0,0,0-.31-2,2.78,2.78,0,0,0-.86-1.27,2.19,2.19,0,0,0-2.66,0,2.68,2.68,0,0,0-.84,1.27,6,6,0,0,0-.3,2,5.73,5.73,0,0,0,.3,2,2.58,2.58,0,0,0,.84,1.24,2.13,2.13,0,0,0,1.33.42Zm19.21,4.23H61.7v-21h8a11.79,11.79,0,0,1,5.61,1.26,8.77,8.77,0,0,1,3.64,3.6A11.56,11.56,0,0,1,80.23,39,11.62,11.62,0,0,1,79,44.59a8.83,8.83,0,0,1-3.63,3.61,11.54,11.54,0,0,1-5.55,1.26ZM67.4,44.62h2.17a6.28,6.28,0,0,0,2.66-.5,3.42,3.42,0,0,0,1.68-1.73A8.18,8.18,0,0,0,74.49,39a7.88,7.88,0,0,0-.59-3.41,3.43,3.43,0,0,0-1.72-1.74,6.93,6.93,0,0,0-2.77-.5h-2V44.62Zm21.47-4v8.86H83.22V33.72h5.37v3h.16a4.53,4.53,0,0,1,1.81-2.35,5.92,5.92,0,0,1,5.94-.08,5.15,5.15,0,0,1,1.91,2.09,6.55,6.55,0,0,1,.67,3.05v10H93.42V40.6a2.61,2.61,0,0,0-.58-1.83,2.15,2.15,0,0,0-1.67-.67,2.4,2.4,0,0,0-1.22.31,2,2,0,0,0-.79.86,3.14,3.14,0,0,0-.29,1.33ZM4.56,66a17.22,17.22,0,0,0,4.38,7.64l.09.08a17.14,17.14,0,0,0,12.14,5h80.71l1.82-.11a17.22,17.22,0,0,0,10.06-4.84l.09-.1a17.22,17.22,0,0,0,4.47-7.74V21.17A16.66,16.66,0,0,0,101.71,4.56H21.17A16.66,16.66,0,0,0,4.56,21.17V66Z"/></svg>