<svg xmlns="http://www.w3.org/2000/svg" shape-rendering="geometricPrecision" text-rendering="geometricPrecision" image-rendering="optimizeQuality" fill-rule="evenodd" clip-rule="evenodd" viewBox="0 0 512 410.84"><g fill-rule="nonzero"><path fill="#D30000" d="M20.18 213.78 381.15 5.37c19.23-11.1 44.15-4.43 55.26 14.81l70.22 121.62c11.1 19.24 4.42 44.16-14.81 55.26L130.85 405.47c-19.23 11.1-44.16 4.42-55.26-14.81L5.37 269.04c-11.1-19.23-4.42-44.16 14.81-55.26zm136.94 100.65-16.77 9.68c-1.37.79-2.54 1.06-3.51.8-.96-.26-1.84-1.07-2.63-2.45l-40.48-70.09c-1.57-2.73-1.08-4.56 1.65-6.14l33.1-19.11c9.81-5.66 17.64-7.59 23.5-5.77 5.85 1.81 10.59 5.85 14.21 12.12l7.99 13.85c3.62 6.27 4.76 12.4 3.4 18.37-1.36 5.98-6.94 11.8-16.75 17.46l-12.44 7.18 10.37 17.96c.79 1.37 1.06 2.54.8 3.51-.26.96-1.07 1.84-2.44 2.63zm-29.61-59.77 9.42 16.33 9.74-5.63c2.09-1.2 3.15-2.53 3.18-3.99.02-1.45-.36-2.87-1.15-4.24l-3.31-5.73c-.8-1.37-1.83-2.41-3.1-3.11-1.28-.71-2.96-.46-5.05.75l-9.73 5.62zm78.02-41.73 4.4 19.38 16.99-9.81-14.58-13.51c-.91-.66-2.02-1.28-3.12-.65l-2.7 1.56c-1.09.63-1.11 1.91-.99 3.03zm23.43 54.83c.79 1.37 1.06 2.54.8 3.5-.26.97-1.07 1.85-2.44 2.64l-15.91 9.18c-1.36.79-2.53 1.06-3.5.8-.97-.26-1.84-1.07-2.63-2.44l-16.49-28.56c-1.25-2.16-2.35-4.85-3.29-8.06-.93-3.2-1.76-7.1-2.49-11.69l-4.76-29.98c-.28-1.48-.13-2.77.44-3.86.56-1.1 1.57-2.06 3.01-2.9l29.1-16.8c1.37-.79 2.67-1.15 3.91-1.1 1.23.06 2.42.58 3.56 1.55l23.59 19.12c3.61 2.92 6.56 5.59 8.87 8 2.31 2.42 4.09 4.71 5.34 6.88l16.48 28.55c.8 1.37 1.06 2.54.8 3.51-.25.96-1.07 1.84-2.44 2.63l-16.33 9.43c-1.45.84-2.69 1.14-3.72.93-1.04-.22-1.96-1.02-2.75-2.39l-8.74-15.14-19.15 11.05 8.74 15.15zm61.31-30.21c-1.37.8-2.54 1.06-3.51.81-.97-.27-1.84-1.08-2.63-2.45l-7.43-12.88c-.79-1.36-1.06-2.53-.8-3.5.25-.96 1.07-1.84 2.44-2.63l10.71-6.19-20.98-36.34-10.71 6.18c-1.37.79-2.54 1.06-3.51.8-.96-.26-1.84-1.07-2.63-2.45l-7.56-13.09c-.79-1.37-1.06-2.53-.8-3.5.26-.97 1.07-1.85 2.44-2.64l46.08-26.6c1.37-.79 2.54-1.06 3.51-.8.97.26 1.85 1.07 2.64 2.44l7.55 13.09c.79 1.37 1.06 2.54.8 3.51-.26.97-1.07 1.84-2.44 2.64L292.95 160l20.98 36.35 10.49-6.06c1.37-.79 2.54-1.06 3.51-.79.96.25 1.84 1.07 2.63 2.44l7.43 12.87c.8 1.37 1.06 2.54.8 3.5-.26.97-1.07 1.85-2.44 2.64l-46.08 26.6zm103.63-59.83-36.46 21.05c-1.37.79-2.54 1.06-3.5.8-.97-.26-1.85-1.07-2.64-2.44l-40.47-70.1c-.79-1.37-1.05-2.54-.8-3.5.26-.97 1.08-1.85 2.45-2.64l36.45-21.05c9.02-5.2 16.75-7.26 23.19-6.17 6.44 1.08 11.83 5.38 16.16 12.88l19.49 33.75c4.33 7.49 5.35 14.31 3.07 20.43-2.28 6.13-7.93 11.79-16.94 16.99zm-48.83-48.1 21.23 36.78 12.87-7.43c1.73-1 2.76-2.17 3.09-3.52.33-1.34-.02-2.91-1.06-4.72l-15.18-26.28c-1.04-1.81-2.21-2.88-3.52-3.23-1.31-.35-2.83-.03-4.56.97l-12.87 7.43zm48.18-103.28L32.28 234.75c-7.77 4.48-10.43 14.41-5.94 22.18l70.22 121.63c4.49 7.77 14.41 10.43 22.18 5.94l360.98-208.41c7.77-4.48 10.42-14.41 5.94-22.18L415.44 32.28c-4.49-7.77-14.41-10.43-22.19-5.94z"/><path fill="#fff" d="M159.41 273.14c-1.32 1.01-2.86 2.02-4.62 3.04l-20.94 12.09 12.31 21.3-3.77 2.19-35.29-61.11 24.72-14.27c1.73-1 3.39-1.83 4.95-2.46 1.6-.65 3.1-1.11 4.47-1.36 1.39-.25 2.71-.37 3.94-.32 1.25.04 2.43.25 3.52.62 1.08.34 2.1.83 3.05 1.45.95.62 1.85 1.36 2.66 2.22.79.83 1.54 1.73 2.25 2.68.7.96 1.37 1.99 2 3.08l4.62 8.01c.62 1.09 1.18 2.18 1.66 3.26.46 1.09.86 2.18 1.18 3.25.32 1.13.52 2.26.56 3.36.04 1.13-.06 2.24-.29 3.32-.25 1.12-.68 2.23-1.28 3.32-.6 1.08-1.36 2.15-2.28 3.19-.92 1.05-2.06 2.1-3.42 3.14zM25.54 222.86 386.49 14.47c7.11-4.08 15.24-4.89 22.61-2.92 7.41 1.98 14.06 6.78 18.17 13.89 21.47 40.8 49.17 80.94 70.28 121.74 4.06 7.11 4.87 15.22 2.9 22.58-1.98 7.4-6.78 14.06-13.91 18.17l-360.97 208.4c-7.12 4.11-15.28 4.94-22.67 2.96-7.41-1.98-14.06-6.78-18.17-13.9L14.51 263.76c-4.11-7.12-4.94-15.28-2.96-22.68 1.98-7.4 6.78-14.05 13.9-18.17l.09-.05zM387.83 17.29 27.01 225.61c-6.37 3.68-10.67 9.65-12.44 16.28-1.78 6.63-1.04 13.95 2.64 20.32l70.21 121.62c3.69 6.37 9.65 10.67 16.28 12.44 6.64 1.78 13.95 1.04 20.32-2.64L485 185.23c6.36-3.68 10.66-9.64 12.43-16.27 1.77-6.61 1.05-13.89-2.59-20.24-23.7-40.11-47.45-81.23-70.33-121.82-3.68-6.31-9.62-10.57-16.21-12.33-6.59-1.77-13.85-1.05-20.2 2.57l-.27.15zM258.5 244.72l-2.43 1.4-10.74-18.61-39.49 22.81 10.74 18.6-3.78 2.18-14.08-24.39c-.61-1.07-1.16-2.11-1.62-3.1-.48-1.03-.9-2.04-1.24-3.02-.34-.99-.64-1.98-.9-2.95-.26-1-.48-2.01-.65-3l-3.33-21.77c-.38-2.59-.46-4.95-.23-7.04.14-1.28.64-2.46 1.49-3.53.79-.99 1.88-1.89 3.29-2.7l10.59-6.12c2.85-1.64 5.4-1.94 7.64-.92.96.44 1.95.97 2.95 1.6 1.03.65 2.07 1.38 3.11 2.17l17.7 13.38c.78.66 1.54 1.35 2.26 2.06.72.71 1.42 1.46 2.11 2.25.69.8 1.36 1.67 2 2.57.62.9 1.25 1.89 1.87 2.96l14.09 24.39-1.35.78zm-57.45-2.95c.42.9.91 1.83 1.45 2.76l1.15 2 39.49-22.79-1.16-2c-.52-.92-1.08-1.8-1.67-2.63-.56-.8-1.16-1.56-1.76-2.26l-1.87-2.01-1.83-1.71-17.64-13.32c-.91-.68-1.77-1.29-2.58-1.8-.85-.52-1.64-.96-2.35-1.31-.53-.24-1.11-.33-1.71-.27-.68.08-1.44.36-2.26.83l-10.61 6.11c-1.68.98-2.58 2.08-2.67 3.29-.12 1.64-.04 3.52.27 5.62l3.31 21.74.57 2.47.81 2.62c.29.88.66 1.77 1.06 2.66zm124.56-39.04 1.41 2.42-37.1 21.42-2.18-3.78 16.76-9.68-30.91-53.54-16.77 9.68-2.18-3.78 37.09-21.42 2.18 3.78-16.54 9.56 30.91 53.54 16.55-9.55.78 1.35zm61.06-32.01-27.53 15.89-35.27-61.11 27.52-15.89c1.89-1.09 3.68-1.99 5.35-2.68 6.47-2.65 13.4-2.96 18.51 2.48.78.83 1.54 1.75 2.26 2.72.69.95 1.36 1.98 2 3.09l16.55 28.66c.62 1.08 1.18 2.17 1.67 3.25.48 1.08.9 2.18 1.24 3.25.37 1.13.57 2.28.62 3.44.05 1.16-.06 2.31-.33 3.44-.28 1.16-.75 2.32-1.4 3.46-.64 1.1-1.47 2.22-2.49 3.36-1 1.12-2.24 2.25-3.69 3.35-1.44 1.09-3.12 2.19-5.01 3.29zm-28.51-59.64c-1.42.59-2.96 1.37-4.58 2.3l-23.75 13.72 30.92 53.54 23.74-13.7c1.68-.98 3.15-1.93 4.38-2.86 1.23-.92 2.25-1.83 3.04-2.71.78-.86 1.43-1.73 1.93-2.59.47-.82.81-1.62 1.01-2.4.19-.79.28-1.59.26-2.38-.02-.79-.16-1.62-.41-2.46-.28-.9-.62-1.81-1.01-2.71-.39-.9-.87-1.83-1.41-2.76l-16.55-28.67c-.54-.93-1.11-1.81-1.7-2.6-.6-.8-1.25-1.56-1.9-2.24-3.93-4.06-9.12-3.49-13.97-1.48zm-245.1 141.17 18.61 32.24 20.93-12.09c1.54-.87 2.88-1.76 4.02-2.62 1.13-.86 2.06-1.7 2.78-2.51.71-.79 1.3-1.6 1.75-2.41.42-.76.72-1.53.88-2.29.17-.78.25-1.58.22-2.34-.03-.79-.17-1.6-.4-2.39-.24-.85-.57-1.73-.96-2.63-.4-.91-.87-1.82-1.39-2.73l-4.63-8.01c-1.05-1.83-2.22-3.43-3.49-4.77a10.97 10.97 0 0 0-1.91-1.59c-.68-.44-1.41-.8-2.17-1.05-.74-.25-1.58-.39-2.47-.42-.91-.03-1.92.06-3 .26-2.2.43-4.82 1.52-7.83 3.26l-20.94 12.09z"/></g></svg>