<svg id="Layer_1" data-name="Layer 1" xmlns="http://www.w3.org/2000/svg" viewBox="0 0 110.06 122.88"><title>paint-spray</title><path d="M43.47,28.37v-23H12.4v4.89l1.77.56a5.8,5.8,0,0,0,3.35,1.8c2.42.46,1.49-.38,3.26,1.44a10.15,10.15,0,0,0,5.86,3.1c2.47.38,1.28-.35,2.8,1.64a8.58,8.58,0,0,0,3.45,2.8c3.84,1.62,2.42-.33,5.3,3A6,6,0,0,0,40,26a16.05,16.05,0,0,1,3.46,2.36Zm50.8,36.91a2.33,2.33,0,1,1-2.36,2.32,2.34,2.34,0,0,1,2.36-2.32Zm13.43-.23a2.33,2.33,0,1,1-2.36,2.32,2.33,2.33,0,0,1,2.36-2.32Zm-.26,8.76a2.33,2.33,0,1,1-2.36,2.33,2.35,2.35,0,0,1,2.36-2.33Zm-6.52-4.11A2.33,2.33,0,1,1,98.56,72a2.34,2.34,0,0,1,2.36-2.32Zm6.78-13.27a2.33,2.33,0,1,1-2.36,2.33,2.34,2.34,0,0,1,2.36-2.33ZM101,60.85a2.33,2.33,0,1,1-2.36,2.33A2.35,2.35,0,0,1,101,60.85Zm-26.4-3.36,5.84-.09.06,3.77,9.71,4.17.08,5.5L80.7,76.36l.06,4-5.84.09-.33-23Zm-6.7-.05h4.47V80.25H67.89v-.81L51.14,82.83a1.48,1.48,0,0,0,.09-.51V72.45a1.54,1.54,0,0,0-3.07,0v9.87a1.59,1.59,0,0,0,.4,1l-3.82.77c-5.88.19-10.31,2.78-11.6,10.55l-4.94,18.1c2.32,3.38,2.87,6.08,1.32,8-2.25,2.76-6.25,2-9.4,2H5.39c-4-.35-5.53-3-5.31-7.33,0-4.57.77-6.72,2.7-11a42.49,42.49,0,0,1,3.58-6.4c3.6-6.08,6.05-11.39,6.3-15C13.33,73.71,0,85.24,0,68.9V62.14a3.63,3.63,0,0,1,3.62-3.62H21v-12a15.45,15.45,0,0,1-9.47-4.47h0A15.4,15.4,0,0,1,7,31.14V5.39H3.2A2.7,2.7,0,0,1,3.2,0H52.66a2.7,2.7,0,1,1,0,5.39H48.85V31.14a15.4,15.4,0,0,1-4.54,10.91h0a15.45,15.45,0,0,1-9.46,4.47v12H67.89V57.44ZM40.81,105.06l2.92-8.42c.86-2.49,0-5.32-1.79-6.21l-3.21-1.64c-1.15,3.66-3.7,10.93-4.84,14.59l5.32,2.7c.61.31,1.3-.15,1.6-1Z"/></svg>