<svg id="Layer_1" data-name="Layer 1" xmlns="http://www.w3.org/2000/svg" viewBox="0 0 122.88 98.34"><defs><style>.cls-1{fill-rule:evenodd;}</style></defs><title>pakistan-rupee</title><path class="cls-1" d="M.71,24.6H8.8V0H40q14.7,0,22.74,7.64c4.4,4.19,7,9.86,7.77,17H81.81a.73.73,0,0,1,.71.72v11a.73.73,0,0,1-.71.72H70.15Q67.79,50.36,56.74,56.45L73.72,96V97h-21L38.1,61.65H28.37V97H8.8V37.07H.71A.73.73,0,0,1,0,36.35v-11a.71.71,0,0,1,.71-.72ZM107.86,81.4A4.84,4.84,0,0,0,106,77.76c-1.26-1.12-4.06-2.61-8.39-4.52q-9.57-3.88-13.16-8a15.28,15.28,0,0,1-3.58-10.33,16.56,16.56,0,0,1,5.62-12.82Q92.06,37,101.29,37c6.5,0,11.68,1.68,15.58,5s5.86,7.85,5.86,13.49H107.26q0-7.22-6-7.22a5.54,5.54,0,0,0-4,1.53,5.67,5.67,0,0,0-1.57,4.27,4.52,4.52,0,0,0,1.73,3.47c1.18,1,3.92,2.45,8.27,4.29,6.31,2.34,10.75,5,13.36,7.8s3.9,6.57,3.9,11.12a15.56,15.56,0,0,1-5.95,12.75c-4,3.21-9.18,4.81-15.64,4.81A24.81,24.81,0,0,1,89.82,95.8,19.2,19.2,0,0,1,82,88.71a18.23,18.23,0,0,1-2.8-9.77h14.7c.08,2.68.69,4.72,1.89,6.06s3.11,2,5.82,2c4.14,0,6.23-1.88,6.23-5.63ZM28.37,24.6H50.51q-2.13-8.24-10.68-8.23H28.37V24.6ZM50.42,37.07h-22v8.21H39.49q5.86,0,8.8-3.88a13.79,13.79,0,0,0,2.13-4.33Z"/></svg>