<?xml version="1.0" encoding="utf-8"?><svg version="1.1" id="Layer_1" xmlns="http://www.w3.org/2000/svg" xmlns:xlink="http://www.w3.org/1999/xlink" x="0px" y="0px" viewBox="0 0 122.88 122.82" style="enable-background:new 0 0 122.88 122.82" xml:space="preserve"><g><path d="M54.87,85.58c0.17,0.85-0.37,1.68-1.22,1.85c-0.85,0.17-1.68-0.37-1.85-1.22c-0.06-0.3-0.15-0.59-0.26-0.88 c-0.5-1.26-1.47-2.03-2.57-2.44c-1.2-0.45-2.54-0.48-3.66-0.26c-0.2,0.04-0.4,0.09-0.59,0.16l-2.76,4.02 c-0.49,0.72-1.46,0.9-2.18,0.41c-0.72-0.49-0.9-1.46-0.41-2.18l1.69-2.47c-0.23-1.03-0.58-1.85-1.06-2.45 c-0.48-0.61-1.14-0.99-1.97-1.12c-0.85-0.13-1.44-0.93-1.31-1.79c0.13-0.85,0.93-1.44,1.79-1.31c1.67,0.26,2.97,1.04,3.95,2.26 c0.3,0.37,0.56,0.78,0.79,1.22l3.49-5.08c-0.32-1.81-0.71-3.15-1.17-4.11c-0.39-0.82-0.8-1.29-1.21-1.49 c-0.78-0.38-1.11-1.31-0.73-2.09c0.38-0.78,1.31-1.11,2.09-0.73c1.06,0.51,1.96,1.45,2.68,2.97c0.25,0.53,0.49,1.14,0.7,1.85 c0.81-1.74,1.4-3.72,1.74-5.96c0.34-2.17,0.46-4.6,0.37-7.3c-1.16,0.41-2.19,0.98-3.03,1.77c-0.45,0.42-1.07,0.53-1.61,0.33 c-1.89-0.6-3.52-0.63-4.84-0.01c-1.35,0.63-2.48,1.99-3.38,4.17c-0.06,0.15-0.15,0.29-0.25,0.41c-1.77,2.26-3.38,4.61-4.46,7.25 c-1.07,2.6-1.63,5.52-1.34,8.99c0.01,0.1,0.01,0.2,0,0.3c-0.04,1.49-0.04,2.92,0.02,4.28c0.06,1.38,0.18,2.67,0.37,3.87 c0.46,2.94,1.34,5.18,2.68,6.78c1.29,1.54,3.07,2.52,5.37,2.99c2.77,0.57,5.68,0.54,8.38-0.18c2.42-0.65,4.66-1.86,6.43-3.72 c1.68-1.76,3.1-3.99,4.66-6.45c0.64-1.01,1.31-2.06,1.98-3.06c0.77-1.14,1.26-1.9,1.72-2.59c5.14-7.81,5.17-7.86,16.36-10.9 c0.32-0.09,0.64-0.07,0.92,0.03c2.04,0.25,3.7,0.09,4.93-0.53c1.19-0.6,2.05-1.7,2.54-3.35c0.24-0.83,1.12-1.31,1.95-1.06 c0.11,0.03,0.21,0.07,0.3,0.12l0,0c2.21,1.2,3.9,1.45,5.14,0.9c1.26-0.57,2.23-2.03,2.95-4.23c0.26-0.82,1.15-1.28,1.97-1.01 c0.09,0.03,0.18,0.07,0.26,0.11l0,0c2.25,1.2,3.98,1.39,5.23,0.68c1.35-0.76,2.37-2.59,3.09-5.36c0.22-0.84,1.07-1.34,1.91-1.12 c0.06,0.01,0.11,0.03,0.16,0.05c1,0.32,1.88,0.43,2.63,0.33c0.69-0.09,1.28-0.35,1.75-0.78c0.51-0.46,0.91-1.12,1.18-1.95 c0.46-1.39,0.58-3.22,0.3-5.41c-0.05-0.42,0.07-0.82,0.3-1.14c1.9-2.53,2.25-4.39,1.73-5.58c-0.2-0.45-0.54-0.82-0.98-1.11 c-0.49-0.32-1.11-0.53-1.79-0.63c-2.11-0.3-4.67,0.49-6.19,2.53c-0.36,0.48-0.95,0.7-1.5,0.61c-1.2-0.15-2.37-0.06-3.52,0.31 c-1.18,0.38-2.35,1.07-3.51,2.09c-0.36,0.31-0.82,0.44-1.25,0.38l0,0c-1.32-0.18-2.58-0.2-3.74,0.05c-1.1,0.24-2.13,0.73-3.06,1.57 c-0.43,0.39-1.02,0.5-1.54,0.33l0,0.01c-1.39-0.46-2.5-0.46-3.42-0.18c-0.94,0.29-1.77,0.91-2.55,1.66 c-0.33,0.32-0.77,0.46-1.2,0.43l0,0c-1.42-0.1-2.83,0.01-4.23,0.43c-1.41,0.42-2.83,1.15-4.26,2.26c-0.4,0.31-0.9,0.4-1.36,0.28 l0,0c-1.74-0.45-3.31-0.57-4.69-0.29c-1.3,0.27-2.46,0.9-3.45,1.98c-0.43,0.46-1.06,0.61-1.63,0.43l0,0 c-2.1-0.67-3.95-1.02-5.44-0.94c-1.22,0.07-2.18,0.46-2.78,1.26c-0.29,0.39-0.73,0.61-1.18,0.63c-0.66,0.05-1.31,0.12-1.93,0.21 c0.14,3.14,0.01,5.97-0.39,8.51c-0.32,2.04-0.81,3.89-1.47,5.58c1.28,0.14,2.48,0.15,3.6-0.04c1.6-0.26,3.04-0.92,4.3-2.1 c0.09-0.09,0.18-0.17,0.27-0.25c0.16-2.85,0.27-5.16-0.64-6.17c-0.58-0.64-0.52-1.63,0.12-2.21c0.64-0.58,1.63-0.52,2.21,0.12 c1.31,1.46,1.58,3.45,1.55,5.84c2.84-1.68,5.59-2.24,8.31-2.79c2.08-0.42,4.14-0.85,6.19-1.87c0.1-0.46,0.15-0.93,0.16-1.41l0-0.01 c0.03-0.94-0.09-1.89-0.31-2.77c-0.21-0.84,0.29-1.69,1.13-1.9c0.84-0.21,1.69,0.29,1.9,1.13c0.22,0.86,0.36,1.77,0.4,2.68 c0.51-0.47,1.02-0.99,1.53-1.59c1.14-1.34,2.44-2.22,3.87-2.81c1.37-0.56,2.83-0.85,4.36-1.02c0.98-0.11,1.99-0.17,3.04-0.24 c4.59-0.29,9.96-0.63,15.47-5.43c0.65-0.57,1.65-0.5,2.22,0.15c0.57,0.65,0.5,1.65-0.15,2.22c-6.31,5.49-12.26,5.87-17.34,6.19 c-0.67,0.04-1.32,0.08-1.95,0.14c0.29,0.27,0.56,0.54,0.82,0.82c1.04,1.13,1.8,2.33,2.27,3.59c0.3,0.81-0.11,1.71-0.92,2.01 c-0.81,0.3-1.71-0.11-2.01-0.92c-0.32-0.86-0.88-1.72-1.65-2.55c-0.7-0.76-1.58-1.5-2.63-2.19c-0.12,0.04-0.23,0.09-0.34,0.13 c-0.99,0.41-1.89,1.01-2.68,1.95c-1.54,1.8-3.06,3.07-4.57,3.99c-0.07,0.17-0.17,0.32-0.29,0.45c0.73,0.19,1.49,0.32,2.27,0.41 c0.86,0.1,1.48,0.88,1.38,1.74s-0.88,1.48-1.74,1.38c-1.13-0.13-2.22-0.34-3.31-0.66c-1.06-0.31-2.11-0.73-3.18-1.29 c-1.1,0.3-2.21,0.53-3.32,0.75c-3.38,0.69-6.82,1.39-10.3,4.68c-1.26,1.19-2.65,1.99-4.15,2.48l0.05,0.03 c0.8,0.43,1.49,0.67,1.87,0.61c0.86-0.13,1.66,0.47,1.78,1.33c0.13,0.86-0.47,1.65-1.33,1.78c-1.03,0.15-2.44-0.22-3.82-0.97 c-0.98-0.53-2-1.28-2.88-2.16c-1-0.01-2.04-0.11-3.1-0.29l-3.87,5.63c1,0.03,2.03,0.21,3,0.57c1.87,0.69,3.52,2.03,4.4,4.23 C54.63,84.6,54.77,85.07,54.87,85.58L54.87,85.58z M87.54,73.98c-0.78,0.39-1.63,0.66-2.57,0.81c0.36,0.37,0.72,0.75,1.06,1.14 c1.26,1.46,2.34,3.06,3.23,4.83c2.83,5.65,2.75,11.54,2.67,17.47c-0.01,0.75-0.02,1.49-0.02,2.91v7.98v0 c0.47,5.58-2.03,9.84-5.39,11.99c-1.42,0.91-2.99,1.45-4.58,1.56c-1.61,0.11-3.23-0.22-4.71-1.05c-3.11-1.76-5.48-5.75-5.47-12.5 h-0.01v-3.24c-0.69,1.02-1.39,1.98-2.11,2.9c-1.76,2.28-3.57,4.28-5.35,6.09c-0.33,0.33-0.68,0.67-1.07,1.02 c-5.59,5.07-12.87,7.36-20.28,6.87c-7.37-0.49-14.87-3.73-20.95-9.73c-0.46-0.46-0.94-0.95-1.42-1.48 c-3.24-3.58-5.22-7.87-6.41-12.45c-1.17-4.49-1.6-9.24-1.75-13.85c-0.05-1.53-0.07-3.06-0.08-4.55c-0.84,0.53-1.71,0.86-2.56,1.02 c-1.84,0.37-3.61-0.03-4.72-0.7l-0.16-0.1c-2.92-1.94-3.2-6.5-3.38-9.57c-0.01-0.14-0.02-0.29-0.03-0.55l-0.14-2.21 c-0.88-13.61-1.76-27.21-1.1-40.88h0c0-0.02,0-0.05,0.01-0.07c0.44-4.55,1.32-8.52,2.63-11.92c1.34-3.46,3.11-6.34,5.32-8.66 c8.39-8.83,17.62-7.43,27.54-5.91c1.01,0.15,2.03,0.31,2.75,0.41c9.57,1.37,19.17,2.21,28.78,2.42c9.62,0.21,19.29-0.2,29.04-1.32 l0,0c2.22-0.35,4.39-0.6,6.45-0.68c2.14-0.08,4.17,0.02,6.03,0.39c3.78,0.76,5.92,2.08,6.98,4.22c1.01,2.05,0.85,4.63,0.09,8.03 c-0.34,1.49-0.84,2.94-1.51,4.36c-0.66,1.4-1.5,2.78-2.5,4.13c-3.07,4.13-8.6,8.08-14.54,11.5c-5.88,3.39-12.13,6.26-16.79,8.26 c-2.07,0.89-4.23,1.71-6.51,2.41c-2.27,0.69-4.62,1.24-7.08,1.6c-0.65,0.09-1.2,0.14-1.73,0.18c-1.13,0.09-2.11,0.17-3.16,0.77 l-0.04,0.02c-0.38,0.32-0.77,0.63-1.18,0.93c-0.14,0.1-0.29,0.18-0.44,0.23c-0.12,0.1-0.23,0.21-0.34,0.32 c-0.6,0.59-1.12,1.26-1.55,1.99l0,0c-0.14,0.24-0.34,0.42-0.57,0.55c0.66-0.22,1.38-0.34,2.14-0.39c1.66-0.09,3.57,0.21,5.65,0.8 c1.3-1.16,2.78-1.88,4.42-2.21c1.66-0.34,3.45-0.27,5.36,0.15c1.56-1.12,3.12-1.88,4.69-2.34c1.56-0.46,3.11-0.63,4.65-0.59 c0.96-0.84,2.03-1.54,3.29-1.93c1.31-0.41,2.78-0.48,4.48-0.05c1.18-0.9,2.46-1.45,3.8-1.74c1.33-0.29,2.71-0.32,4.13-0.17 c1.32-1.07,2.68-1.81,4.08-2.26c1.33-0.43,2.68-0.59,4.04-0.51c2.29-2.51,5.71-3.48,8.56-3.07c1.12,0.16,2.17,0.53,3.05,1.11 c0.94,0.61,1.69,1.44,2.15,2.48c0.9,2.05,0.62,4.84-1.73,8.2c0.24,2.4,0.05,4.48-0.51,6.16c-0.45,1.36-1.14,2.46-2.05,3.29 c-0.95,0.86-2.11,1.39-3.46,1.56c-0.78,0.1-1.62,0.07-2.51-0.09c-0.95,2.8-2.31,4.77-4.14,5.8c-1.86,1.05-4.07,1.12-6.64,0.11 c-0.97,2.18-2.3,3.71-4.03,4.49c-1.78,0.8-3.88,0.76-6.32-0.24C90.23,72.05,89.06,73.22,87.54,73.98L87.54,73.98z M55.41,53.42 c0.58-0.61,1.26-1.06,2.02-1.38c-0.31,0.06-0.65,0.03-0.96-0.12c-5.13-2.4-11.85-3.93-18.22-3.61c-5.18,0.26-10.1,1.76-13.62,5.03 c-3.26,3.02-5.45,6.53-6.87,10.45c-1.45,3.99-2.11,8.42-2.3,13.21l0,0.66c0,2.39,0,4.89,0.08,7.46c0.15,4.41,0.55,8.94,1.65,13.16 c1.08,4.13,2.84,7.98,5.7,11.14c0.4,0.44,0.84,0.89,1.3,1.35c5.52,5.46,12.3,8.4,18.95,8.84c6.6,0.44,13.05-1.59,17.99-6.06 c0.3-0.27,0.61-0.57,0.93-0.9c1.71-1.73,3.44-3.64,5.11-5.81c1.65-2.13,3.24-4.5,4.72-7.19c0.24-0.55,0.8-0.94,1.44-0.94 c0.87,0,1.57,0.7,1.57,1.57v8.81h-0.01c-0.01,5.43,1.67,8.52,3.89,9.77c0.91,0.52,1.93,0.72,2.95,0.65 c1.05-0.07,2.12-0.44,3.09-1.07c2.48-1.59,4.32-4.81,3.97-9.09c-0.02-0.09-0.02-0.18-0.02-0.27v-7.98c0-0.53,0.02-1.74,0.03-2.94 c0.08-5.55,0.15-11.07-2.33-16.03c-0.76-1.52-1.7-2.91-2.8-4.18c-0.97-1.13-2.07-2.15-3.28-3.08c-9.33,2.54-9.47,2.74-13.84,9.39 c-0.57,0.87-1.21,1.84-1.73,2.61c-0.72,1.07-1.34,2.05-1.94,3c-1.66,2.61-3.17,4.97-5.03,6.93c-2.2,2.3-4.94,3.8-7.89,4.59 c-3.17,0.85-6.58,0.88-9.82,0.22c-3.01-0.61-5.37-1.94-7.14-4.05c-1.72-2.05-2.83-4.8-3.38-8.32c-0.21-1.33-0.34-2.73-0.41-4.21 c-0.07-1.42-0.07-2.92-0.02-4.5c-0.32-3.99,0.34-7.37,1.58-10.39c1.19-2.91,2.91-5.44,4.79-7.86c1.2-2.83,2.84-4.66,4.86-5.61 c1.87-0.88,3.98-0.97,6.32-0.37c1.15-0.9,2.47-1.55,3.93-2.01C52.15,53.86,53.75,53.58,55.41,53.42L55.41,53.42z M12.35,76.31 c0.23-4.88,0.95-9.43,2.46-13.57c1.59-4.38,4.04-8.3,7.68-11.68c4.13-3.83,9.74-5.57,15.61-5.87c6.38-0.32,13.09,1.08,18.46,3.35 c0.39-0.52,0.81-1.01,1.26-1.45c0.69-0.69,1.47-1.29,2.34-1.81c2.01-1.72,3.61-3.68,4.82-5.88c1.45-2.63,2.37-5.6,2.78-8.9 c-1.58-4.41-3.72-5.35-5.9-4.65c-3.58,1.16-7.66,5.88-10.26,8.89c-0.95,1.1-1.72,2-2.3,2.52c-3.69,3.3-8.49,5.05-13.91,5.24 c-5.3,0.18-11.19-1.14-17.19-3.97c-3.57-1.69-6.48-3.23-7.85-5.22c-1.64-2.4-1.23-5,2.42-8.31c3.92-3.54,9.11-4.87,14.48-4.74 c6.36,0.15,12.99,2.34,17.94,5.26c0.45,0.27,0.86,0.48,1.27,0.69c0.38,0.2,0.77,0.39,1.18,0.63c1.41,0.79,2.68,1.64,3.95,2.48 c0.11,0.08,0.22,0.15,0.41,0.27c2.58-2.77,5.74-5.68,8.9-6.71c3.78-1.22,7.34-0.04,9.68,6.22c5.96,0.04,10-0.68,13.19-2l0.47-7.48 c0.05-0.86,0.79-1.52,1.66-1.47c0.86,0.05,1.52,0.79,1.47,1.66l-0.35,5.59c2.22-1.43,4.14-3.23,6.34-5.3 c2.62-2.46,5.63-5.28,9.94-8.35l0,0l1.67-1.26c0.69-0.52,1.67-0.38,2.19,0.31c0.52,0.69,0.38,1.67-0.31,2.19l-1.71,1.28l-0.03,0.02 l0,0c-4.14,2.94-7.06,5.68-9.61,8.08c-6.42,6.02-10.6,9.94-24.83,9.86c-0.53,3.17-1.5,6.07-2.95,8.69c-0.57,1.02-1.2,2-1.91,2.93 c0.22-0.02,0.44-0.05,0.66-0.08c2.32-0.34,4.51-0.85,6.61-1.49c2.09-0.64,4.15-1.42,6.17-2.3c4.61-1.99,10.78-4.81,16.47-8.09 c5.62-3.24,10.81-6.92,13.58-10.66c0.88-1.18,1.6-2.38,2.18-3.6c0.58-1.22,1.01-2.46,1.29-3.71c0.61-2.72,0.79-4.68,0.16-5.96 c-0.59-1.19-2.05-1.98-4.78-2.53c-1.63-0.33-3.42-0.42-5.31-0.34c-1.95,0.07-4.02,0.32-6.14,0.65c-0.02,0-0.04,0.01-0.06,0.01l0,0 C86.8,6.89,76.98,7.3,67.19,7.09c-9.79-0.22-19.5-1.06-29.16-2.45c-1.14-0.16-1.96-0.29-2.77-0.41c-9.08-1.38-17.53-2.67-24.8,4.97 c-1.92,2.02-3.48,4.56-4.67,7.63c-1.2,3.12-2.02,6.79-2.43,11.03c-0.65,13.46,0.22,26.99,1.1,40.51l0.14,2.21l0.03,0.56 c0.15,2.44,0.37,6.07,1.98,7.14c0.07,0.04,0.01,0.01,0.05,0.03c0.53,0.32,1.45,0.51,2.48,0.3c1.08-0.21,2.24-0.88,3.18-2.29 L12.35,76.31L12.35,76.31z M49.23,32.7c0.21-0.24,0.43-0.5,0.66-0.76l-0.03-0.02c-1.27-0.84-2.55-1.69-3.75-2.37 c-0.32-0.18-0.7-0.37-1.07-0.56c-0.51-0.26-1.01-0.52-1.44-0.77c-4.55-2.68-10.61-4.69-16.41-4.83c-4.63-0.11-9.07,0.99-12.32,3.93 c-2.17,1.96-2.59,3.25-1.93,4.22c0.94,1.37,3.46,2.67,6.6,4.16c5.55,2.62,10.95,3.84,15.75,3.68c4.68-0.16,8.79-1.64,11.92-4.44 C47.62,34.56,48.34,33.73,49.23,32.7L49.23,32.7z"/></g></svg>