<?xml version="1.0" encoding="utf-8"?><svg version="1.1" id="Layer_1" xmlns="http://www.w3.org/2000/svg" xmlns:xlink="http://www.w3.org/1999/xlink" x="0px" y="0px" viewBox="0 0 122.88 55.52" style="enable-background:new 0 0 122.88 55.52" xml:space="preserve"><style type="text/css">.st0{fill-rule:evenodd;clip-rule:evenodd;}</style><g><path class="st0" d="M2.71,5.14v12.37c13.68,0.62,24.79,3.6,32.89,9.33c8.18,5.78,13.27,14.31,14.82,25.97h21.83 C73.5,42.4,78,34.08,85.94,27.97c7.93-6.1,19.28-9.94,34.23-11.39V5.14H2.71L2.71,5.14z M122.88,0.76l-0.14,0 C122.52,0.31,122.06,0,121.53,0c-0.04,0-0.08,0-0.12,0.01L1.35,0.2c-0.53,0-0.99,0.31-1.21,0.76L0,0.96v0.59v2.67v14.59 c0,0.75,0.61,1.35,1.35,1.35c0.02,0,0.04,0,0.06,0c13.7,0.48,24.74,3.31,32.63,8.89c7.81,5.52,12.57,13.81,13.83,25.26 c0.08,0.69,0.66,1.2,1.34,1.2v0h24.23c0.74,0,1.34-0.59,1.35-1.33c0.99-10.16,5.18-18.24,12.78-24.08 c7.73-5.94,19-9.64,34.05-10.94c0.71-0.06,1.24-0.65,1.24-1.35h0V4.22V1.35V0.76L122.88,0.76z"/></g></svg>