<?xml version="1.0" encoding="utf-8"?><svg version="1.1" id="Layer_1" xmlns="http://www.w3.org/2000/svg" xmlns:xlink="http://www.w3.org/1999/xlink" x="0px" y="0px" viewBox="0 0 78.24 122.88" enable-background="new 0 0 78.24 122.88" xml:space="preserve"><g><path fill-rule="evenodd" clip-rule="evenodd" d="M2.168,122.244c-1.225,0-2.168-1.033-2.168-2.326v-81.42 c0-0.56,0.175-1.084,0.506-1.486L10.96,18.793V2.324C10.96,1.049,11.905,0,13.095,0h51.069c1.029,0,1.904,0.804,2.098,1.871 l1.104,18.091L78.24,39.145l-0.338,83.333C55.744,123.502,29.892,122.244,2.168,122.244L2.168,122.244z M45.402,91.096v20.734 H25.074l16.006-4.32L45.402,91.096L45.402,91.096z M21.994,15.927h4.633v4.721h-4.633V15.927L21.994,15.927L21.994,15.927 L21.994,15.927z M31.05,15.927h4.633v4.721H31.05V15.927L31.05,15.927L31.05,15.927L31.05,15.927z M40.07,15.927h4.635v4.721H40.07 V15.927L40.07,15.927L40.07,15.927L40.07,15.927z M62.012,4.615H15.228v11.312h2.553v4.721h-2.833 c-2.955,5.174-5.805,10.438-8.706,15.647h43.946l11.68-15.629c-3.654,0-8.947-0.018-12.6-0.018v-4.721l0,0 c4.195,0,8.426-0.069,12.674-0.069C61.961,12.081,61.977,8.374,62.012,4.615L62.012,4.615L62.012,4.615z M65.557,23.025 l-9.756,13.27h17.115L65.557,23.025L65.557,23.025z M55.096,40.928v76.699h18.002l-0.141-76.699H55.096L55.096,40.928z M4.248,40.928v76.699h0.175h46.581V40.928H4.248L4.248,40.928z"/></g></svg>