<?xml version="1.0" encoding="utf-8"?><svg version="1.1" id="Layer_1" xmlns="http://www.w3.org/2000/svg" xmlns:xlink="http://www.w3.org/1999/xlink" x="0px" y="0px" viewBox="0 0 84.74 122.88" style="enable-background:new 0 0 84.74 122.88" xml:space="preserve"><g><path d="M4.54,38.53c-0.03,0.34-0.06,0.7-0.08,1.09c-0.02,0.38-0.04,0.76-0.06,1.11c-0.01,0.39-0.02,0.77-0.03,1.14 c0,0.38,0,0.76,0,1.13c0.12,9.25,6.68,27.63,11.63,41.5l0.01,0.02c1.47,4.11,2.79,7.83,3.83,10.99c0.53,1.62,1.16,3.01,1.88,4.18 c0.72,1.16,1.53,2.1,2.43,2.83c0.86,0.69,1.81,1.19,2.87,1.51c1.07,0.32,2.24,0.45,3.51,0.4c0.03-0.01,0.06-0.01,0.09-0.01h25.46 c1.38-0.16,2.62-0.47,3.7-0.93c1.08-0.46,2.01-1.07,2.79-1.83c1.77-1.74,3.21-6.51,4.34-10.23c0.37-1.22,0.7-2.32,1-3.19 c0.53-1.5,1.08-3.05,1.65-4.65l0.04-0.12c4.65-13.05,10.39-29.15,10.75-39.18c0.1-2.78-0.01-5.43-0.32-7.94 c-0.31-2.51-0.83-4.88-1.54-7.1c-0.7-2.19-1.61-4.25-2.7-6.17c-1.1-1.93-2.4-3.73-3.88-5.39c-3.05-3.41-6.61-6.21-10.5-8.35 c-3.97-2.19-8.28-3.68-12.7-4.43c-4.37-0.74-8.85-0.74-13.25,0.05c-4.23,0.76-8.39,2.24-12.28,4.51c-2.61,1.52-5.04,3.34-7.22,5.42 c-2.16,2.06-4.07,4.37-5.7,6.91c-1.58,2.47-2.88,5.14-3.85,7.99C5.45,32.56,4.82,35.48,4.54,38.53L4.54,38.53z M32.6,96.42 c-0.63,0-1.2-0.26-1.62-0.67c-0.42-0.41-0.67-0.99-0.67-1.62c0-0.63,0.26-1.21,0.67-1.62l0.03-0.03c0.41-0.4,0.97-0.64,1.59-0.64 h18.35c0.63,0,1.21,0.26,1.62,0.67c0.42,0.42,0.67,0.99,0.67,1.62c0,0.63-0.26,1.21-0.67,1.62c-0.42,0.42-0.99,0.67-1.62,0.67H32.6 L32.6,96.42z M50.76,57.96c0-0.63,0.26-1.21,0.67-1.62l0.03-0.03c0.41-0.4,0.97-0.64,1.59-0.64c0.63,0,1.21,0.26,1.62,0.67 c0.42,0.41,0.67,0.99,0.67,1.62v4.06c1.02,0.41,1.89,1.11,2.52,1.99c0.68,0.95,1.09,2.12,1.09,3.38c0,1.26-0.4,2.42-1.09,3.37 c-0.63,0.88-1.5,1.57-2.52,1.99v3.96c0,0.63-0.26,1.21-0.67,1.62S53.68,79,53.05,79c-0.63,0-1.21-0.26-1.62-0.67L51.4,78.3 c-0.4-0.41-0.64-0.97-0.64-1.59v-4.06c-0.96-0.44-1.78-1.14-2.37-2c-0.64-0.93-1.01-2.06-1.01-3.27c0-1.21,0.37-2.34,1.01-3.27 c0.59-0.86,1.41-1.56,2.37-2V57.96L50.76,57.96z M26.97,57.96c0-0.63,0.26-1.21,0.67-1.62l0.03-0.03c0.41-0.4,0.97-0.64,1.59-0.64 c0.63,0,1.21,0.26,1.62,0.67c0.42,0.41,0.67,0.99,0.67,1.62v18.74c0,0.63-0.26,1.2-0.67,1.62C30.47,78.74,29.9,79,29.27,79 c-0.63,0-1.21-0.26-1.62-0.67c-0.41-0.42-0.67-0.99-0.67-1.62V57.96L26.97,57.96z M45.18,108.82v13.57c0,0.27-0.22,0.5-0.5,0.5 h-4.63c-0.27,0-0.5-0.22-0.5-0.5v-13.57h-8.95l-0.06,0c-1.76,0.06-3.41-0.14-4.92-0.62c-1.54-0.48-2.95-1.23-4.23-2.26 c-1.25-1.01-2.35-2.27-3.31-3.79c-0.95-1.51-1.75-3.26-2.41-5.28c-0.93-2.83-2.28-6.61-3.77-10.8l-0.03-0.09 C9.35,78.92,6.42,70.71,4.1,63C1.78,55.29,0.07,48.08,0,43.05C0,42.63,0,42.21,0,41.8c0-0.42,0.01-0.83,0.03-1.22 c0.02-0.42,0.04-0.83,0.06-1.22c0.02-0.38,0.06-0.79,0.1-1.22c0.31-3.42,1.02-6.68,2.07-9.76c1.09-3.19,2.54-6.18,4.31-8.94 c1.81-2.82,3.95-5.41,6.35-7.7c2.43-2.32,5.13-4.35,8.05-6.05c4.34-2.53,8.98-4.19,13.69-5.03c4.9-0.87,9.89-0.87,14.75-0.05 c4.91,0.83,9.68,2.48,14.08,4.91c4.31,2.37,8.26,5.48,11.65,9.27c1.69,1.89,3.17,3.94,4.42,6.12c1.25,2.19,2.28,4.53,3.08,7.01 c0.79,2.47,1.37,5.08,1.71,7.83c0.34,2.74,0.46,5.64,0.36,8.7c-0.19,5.37-1.75,12.18-3.86,19.3c-2.11,7.12-4.75,14.54-7.12,21.18 l-0.01,0.04c-1.4,3.91-2.69,7.56-3.71,10.64c-0.32,1.94-0.85,3.66-1.57,5.18c-0.73,1.55-1.67,2.88-2.81,4 c-1.15,1.13-2.49,2.02-4.02,2.69c-1.52,0.66-3.22,1.1-5.09,1.31l-0.17,0.02c-0.07,0.01-0.13,0.01-0.2,0.01H45.18L45.18,108.82z M40.98,32.9l10.68-6.8c0.2-0.15,0.48-0.13,0.65,0.06l1.03,1.1c0.17,0.18,0.18,0.47,0.02,0.66l-8.11,9.43 c-1.25,1.34-2.6,1.6-3.7,1.24c-0.55-0.18-1.03-0.51-1.39-0.93c-0.36-0.42-0.62-0.94-0.72-1.5c-0.2-1.11,0.2-2.35,1.53-3.25 L40.98,32.9L40.98,32.9z M23.25,41.93h38.22c0.24-0.81,0.43-1.64,0.56-2.48c0.13-0.79,0.21-1.59,0.24-2.41h-3.09 c-0.27,0-0.5-0.22-0.5-0.5v-2.38c0-0.27,0.22-0.5,0.5-0.5h2.92c-0.27-2.03-0.85-3.96-1.7-5.76c-0.87-1.86-2.02-3.56-3.4-5.06 l-1.97,1.97c-0.19,0.19-0.51,0.19-0.7,0l-1.68-1.68c-0.19-0.19-0.19-0.51,0-0.7l1.87-1.87c-1.57-1.22-3.32-2.21-5.21-2.92 c-1.84-0.69-3.8-1.12-5.84-1.23v2.68c0,0.27-0.22,0.5-0.5,0.5h-2.38c-0.27,0-0.5-0.22-0.5-0.5v-2.58 c-2.03,0.23-3.96,0.76-5.75,1.55c-1.85,0.81-3.56,1.9-5.06,3.21l1.96,1.96c0.19,0.19,0.19,0.51,0,0.7l-1.68,1.68 c-0.19,0.19-0.51,0.19-0.7,0l-1.93-1.93c-1.28,1.56-2.32,3.31-3.08,5.21c-0.74,1.85-1.21,3.83-1.37,5.9h3.04 c0.27,0,0.5,0.22,0.5,0.5v2.38c0,0.27-0.22,0.5-0.5,0.5h-3.02c0.06,0.62,0.14,1.22,0.25,1.82C22.91,40.65,23.07,41.3,23.25,41.93 L23.25,41.93z M63.97,45.19H20.81c-0.27,0-0.5-0.22-0.5-0.5l0-0.01c-0.06-1.2-0.31-2.3-0.56-3.44c-0.33-1.48-0.67-3.01-0.67-4.92 c0-3.15,0.63-6.16,1.76-8.9c1.18-2.85,2.91-5.42,5.06-7.56c2.14-2.14,4.71-3.87,7.56-5.06c2.75-1.14,5.75-1.76,8.9-1.76 c3.14,0,6.14,0.63,8.88,1.77c2.85,1.18,5.41,2.92,7.56,5.07c2.15,2.15,3.89,4.72,5.07,7.57c1.14,2.75,1.77,5.75,1.77,8.88 c0,1.78-0.34,3.32-0.66,4.77c-0.27,1.24-0.53,2.41-0.53,3.6C64.47,44.97,64.25,45.19,63.97,45.19L63.97,45.19z"/></g></svg>