<?xml version="1.0" encoding="utf-8"?><svg version="1.1" id="Layer_1" xmlns="http://www.w3.org/2000/svg" xmlns:xlink="http://www.w3.org/1999/xlink" x="0px" y="0px" viewBox="0 0 115.28 122.88" style="enable-background:new 0 0 115.28 122.88" xml:space="preserve"><style type="text/css">.st0{fill-rule:evenodd;clip-rule:evenodd;}</style><g><path class="st0" d="M25.38,57h64.88V37.34H69.59c-2.17,0-5.19-1.17-6.62-2.6c-1.43-1.43-2.3-4.01-2.3-6.17V7.64l0,0H8.15 c-0.18,0-0.32,0.09-0.41,0.18C7.59,7.92,7.55,8.05,7.55,8.24v106.45c0,0.14,0.09,0.32,0.18,0.41c0.09,0.14,0.28,0.18,0.41,0.18 c22.78,0,58.09,0,81.51,0c0.18,0,0.17-0.09,0.27-0.18c0.14-0.09,0.33-0.28,0.33-0.41v-11.16H25.38c-4.14,0-7.56-3.4-7.56-7.56 V64.55C17.82,60.4,21.22,57,25.38,57L25.38,57z M29.55,69.94h10.36c2.26,0,3.95,0.54,5.07,1.61c1.12,1.08,1.69,2.61,1.69,4.59 c0,2.04-0.61,3.63-1.84,4.78c-1.23,1.15-3.1,1.72-5.61,1.72H35.8v7.46h-6.25V69.94L29.55,69.94z M35.8,78.56h1.53 c1.21,0,2.06-0.21,2.55-0.63c0.49-0.42,0.73-0.95,0.73-1.61c0-0.63-0.21-1.17-0.64-1.61c-0.42-0.44-1.22-0.66-2.39-0.66H35.8V78.56 L35.8,78.56z M59.04,86.78h-7.06l-1.01,3.32h-6.36l7.59-20.17h6.82l7.56,20.17h-6.52L59.04,86.78L59.04,86.78z M57.72,82.41 l-2.2-7.25l-2.21,7.25H57.72L57.72,82.41z M67.74,90.1V69.94h10.38c1.92,0,3.4,0.16,4.41,0.5c1.02,0.33,1.84,0.94,2.46,1.84 c0.62,0.9,0.93,1.99,0.93,3.28c0,1.12-0.24,2.08-0.72,2.9c-0.47,0.82-1.13,1.47-1.97,1.98c-0.53,0.32-1.26,0.59-2.19,0.8 c0.74,0.25,1.28,0.49,1.62,0.74c0.23,0.16,0.56,0.52,1,1.06c0.43,0.54,0.72,0.96,0.87,1.25l3.03,5.83h-7.04l-3.33-6.15 c-0.42-0.8-0.8-1.31-1.13-1.55c-0.45-0.31-0.96-0.46-1.53-0.46h-0.55v8.17H67.74L67.74,90.1z M73.99,78.13h2.63 c0.28,0,0.84-0.09,1.65-0.28c0.41-0.08,0.75-0.29,1.01-0.63c0.26-0.34,0.39-0.73,0.39-1.17c0-0.65-0.21-1.15-0.62-1.5 c-0.41-0.35-1.19-0.53-2.33-0.53h-2.74V78.13L73.99,78.13z M87.01,69.94h18.95v4.99H99.6V90.1h-6.22V74.92h-6.37V69.94L87.01,69.94 z M97.79,57h9.93c4.16,0,7.56,3.41,7.56,7.56v31.42c0,4.15-3.41,7.56-7.56,7.56h-9.93v13.55c0,1.61-0.65,3.04-1.7,4.1 c-1.06,1.06-2.49,1.7-4.1,1.7c-29.44,0-56.59,0-86.18,0c-1.61,0-3.04-0.64-4.1-1.7c-1.06-1.06-1.7-2.49-1.7-4.1V5.85 c0-1.61,0.65-3.04,1.7-4.1c1.06-1.06,2.53-1.7,4.1-1.7h58.72C64.66,0,64.8,0,64.94,0c0.64,0,1.29,0.28,1.75,0.69h0.09 c0.09,0.05,0.14,0.09,0.23,0.18l29.99,30.36c0.51,0.51,0.88,1.2,0.88,1.98c0,0.23-0.05,0.41-0.09,0.65V57L97.79,57z M67.52,27.97 V8.94l21.43,21.7H70.19c-0.74,0-1.38-0.32-1.89-0.78C67.84,29.4,67.52,28.71,67.52,27.97L67.52,27.97z"/></g></svg>