<svg id="Layer_1" data-name="Layer 1" xmlns="http://www.w3.org/2000/svg" viewBox="0 0 122.88 115.93"><defs><style>.cls-1{fill-rule:evenodd;}</style></defs><title>passive-income</title><path class="cls-1" d="M69.91,70c5.17-.71,10.2-1.64,15.28-2.38,5.83-.85,6-.1,10.23,3.28l20.06,15.66c5.3,4.68,1.3,9.51-3.46,8.65L93.25,81.93c-4.17-2.94-3.43-2.58-8.48-.67C79,83.42,72.62,86.43,66.53,86.18c-7.45-.29-9.1-4.63-14.2-9.06a43.16,43.16,0,0,1-8-8.06c-1.26-2-2.59-3.55-3.4-5.14a5.88,5.88,0,0,1,0-5.89c3.33-6.38,5.82-7.49,11.65-4.36l16.09,3.4a4.44,4.44,0,0,1-1.77,8.7c1.06,1.33,2.08,2.74,3,4.21ZM86.79,52,76.93,34.9l8.88-5.13,9.86,17.09L86.79,52Zm-3.1-9.6a3,3,0,1,1,4.12,1.11,3,3,0,0,1-4.12-1.11Zm2.8,6L79.94,37a1.52,1.52,0,0,0,.55-2.07l3.51-2a1.53,1.53,0,0,0,2.07.56L92.63,44.8a1.52,1.52,0,0,0-.55,2.07l-3.51,2a1.53,1.53,0,0,0-2.08-.55ZM75.77,25.92,64.26,6,74.62,0,86.13,19.93l-10.36,6ZM72.15,14.71A3.52,3.52,0,1,1,77,16a3.51,3.51,0,0,1-4.81-1.29Zm3.27,7L67.77,8.42A1.77,1.77,0,0,0,68.42,6l4.09-2.37a1.78,1.78,0,0,0,2.42.65l7.65,13.25A1.77,1.77,0,0,0,81.94,20l-4.1,2.36a1.77,1.77,0,0,0-2.42-.64ZM62.21,46.51l-12.74-22,11.47-6.62L73.67,39.89,62.21,46.51Zm-4-12.39a3.9,3.9,0,1,1,5.32,1.42,3.9,3.9,0,0,1-5.32-1.42Zm3.62,7.7L53.36,27.16a2,2,0,0,0,.71-2.67l4.54-2.62a2,2,0,0,0,2.67.71l8.46,14.67A2,2,0,0,0,69,39.92L64.5,42.54a2,2,0,0,0-2.68-.72ZM4.74,104.7l12.18-7.9H10.45V88.6H45.16l-22.56-25,6.07-5.47,27.5,30.47H89.35A4,4,0,0,1,92.42,90l25.84,14.68h4.62v11.21H0V104.7Zm11,0h90.89l-19-7.9H28l-12.18,7.9ZM33.7,34.47A10.28,10.28,0,1,0,45,44.7c0-.32,0-.65-.05-1a10.28,10.28,0,0,0-10.24-9.3,8.91,8.91,0,0,0-1,0Z"/></svg>