<?xml version="1.0" encoding="utf-8"?><svg version="1.1" id="Layer_1" xmlns="http://www.w3.org/2000/svg" xmlns:xlink="http://www.w3.org/1999/xlink" x="0px" y="0px" viewBox="0 0 122.88 113.06" style="enable-background:new 0 0 122.88 113.06" xml:space="preserve"><style type="text/css">.st0{fill-rule:evenodd;clip-rule:evenodd;}</style><g><path class="st0" d="M76.53,21.86v-0.07h7.88v26.49v0h0c0,2.03,0.81,3.87,2.12,5.2c1.31,1.34,3.11,2.16,5.1,2.16l0,0h0h24.46V85.2 v3.32v17.91H53.93v-0.27h-0.6v-16.7V23.2v-1.34h0.6v-0.07h11.91h1.12l-0.06,0.07H76.53L76.53,21.86z M76.53,15.15V3.8V3.77h0.03 c0-1.01-0.44-1.96-1.14-2.66C74.73,0.43,73.79,0,72.77,0v0.03h-0.01H3.8H3.77V0C2.76,0,1.81,0.44,1.12,1.13 C0.43,1.82,0,2.76,0,3.79h0.03V3.8v81.89v0.03H0c0,1.01,0.44,1.96,1.13,2.65c0.69,0.69,1.63,1.12,2.65,1.12v-0.03H3.8h43.5v17.66v0 h0.01c0,1.64,0.66,3.12,1.73,4.19c1.07,1.08,2.56,1.74,4.2,1.74v0.01l0,0h63.54h0v-0.01c1.64,0,3.12-0.66,4.19-1.73h0.01 c1.07-1.07,1.73-2.55,1.73-4.2h0.02l0,0V88.52h0.15v-6.64h-0.15V53.58l-0.97-2.33L89.54,16.13l-0.98-0.99h-1.37H76.53L76.53,15.15z M47.29,23.2H12.23c-1.73,0-3.14-1.41-3.14-3.14V9.65c0-1.73,1.41-3.14,3.14-3.14h52.1c1.73,0,3.14,1.41,3.14,3.14v5.5l-1.62,0 h-12.6l0,0v0.01c-1.64,0-3.12,0.66-4.19,1.73c-1.08,1.08-1.74,2.56-1.74,4.2h-0.01v0V23.2L47.29,23.2z"/></g></svg>