<?xml version="1.0" encoding="utf-8"?><svg version="1.1" id="Layer_1" xmlns="http://www.w3.org/2000/svg" xmlns:xlink="http://www.w3.org/1999/xlink" x="0px" y="0px" viewBox="0 0 106.78 122.88" style="enable-background:new 0 0 106.78 122.88" xml:space="preserve"><style type="text/css"><![CDATA[
	.st0{fill-rule:evenodd;clip-rule:evenodd;}
]]></style><g><path class="st0" d="M80.43,3.13c14.5,0,26.26,11.76,26.26,26.26c0,14.5-11.76,26.26-26.26,26.26c-14.5,0-26.26-11.76-26.26-26.26 C54.17,14.89,65.93,3.13,80.43,3.13L80.43,3.13L80.43,3.13z M21.71,90.08l0.02-0.01c0.63-0.3,1.33-0.32,1.94-0.1 c0.61,0.22,1.15,0.67,1.45,1.3l0.02,0.04c0.3,0.63,0.31,1.32,0.1,1.93s-0.66,1.14-1.29,1.45l-0.02,0.01 c-0.87,0.42-1.8,0.7-2.78,0.85c-0.97,0.14-1.99,0.15-3.07,0.04l-0.01,0c-0.58-0.06-1.17-0.16-1.77-0.29 c-0.26-0.05-0.52-0.12-0.79-0.19l0.05,0.37c0.08,0.63,0.19,1.29,0.31,1.98c0.12,0.66,0.25,1.33,0.4,2l0.01,0.04 c0.06,0.31,0.07,0.63,0.02,0.93c-0.05,0.31-0.16,0.62-0.32,0.89c-0.49,1-0.86,1.92-1.12,2.75c-0.25,0.82-0.4,1.56-0.45,2.23l0,0.01 c-0.04,0.64,0.02,1.19,0.17,1.67c0.15,0.47,0.4,0.87,0.72,1.21c0.37,0.37,0.84,0.68,1.42,0.94c0.63,0.29,1.37,0.51,2.21,0.67 l0.02,0c1.31,0.24,2.81,0.33,4.44,0.28c1.72-0.06,3.58-0.27,5.52-0.62c1.93-0.35,3.97-0.8,6.01-1.36c1.87-0.51,3.76-1.12,5.57-1.82 c1.58-0.61,3.1-1.3,4.52-2.07l0.04-0.02c1.27-0.69,2.44-1.44,3.46-2.25c0.98-0.78,1.71-1.84,2.29-2.98 c0.6-1.19,1.05-2.46,1.46-3.64c0.22-0.62,0.44-1.24,0.68-1.86c0.53-1.46,1.26-3.47,2.17-5.36c0.93-1.94,2.05-3.76,3.34-4.76 l0.01-0.01c0.55-0.43,1.23-0.59,1.88-0.5c0.65,0.08,1.26,0.41,1.7,0.97l0.02,0.02c0.43,0.55,0.59,1.23,0.5,1.88 c-0.08,0.65-0.41,1.27-0.97,1.7l-0.04,0.03c-1.36,1.08-2.9,5.29-3.79,7.76c-0.14,0.36-0.27,0.74-0.4,1.1 c-0.12,0.33-0.2,0.55-0.26,0.72l0,0.01c-1.04,2.96-2.25,6.43-5.4,8.94c-1.23,0.98-2.64,1.89-4.15,2.72 c-1.62,0.88-3.38,1.68-5.19,2.38c-0.36,0.14-0.76,0.29-1.2,0.45l-0.71,0.25c0,0.44,0,0.87-0.02,1.31 c-0.02,0.62-0.06,1.24-0.12,1.85l0,0.02c-0.08,0.84-0.2,1.68-0.35,2.51c-0.16,0.87-0.35,1.71-0.57,2.53l-0.02,0.06 c-0.19,0.65-0.63,1.17-1.18,1.49c-0.57,0.33-1.26,0.44-1.94,0.26l-0.06-0.02c-0.66-0.19-1.18-0.63-1.5-1.18 c-0.33-0.57-0.44-1.26-0.26-1.94c0.19-0.72,0.35-1.42,0.48-2.12c0.13-0.7,0.23-1.41,0.3-2.1c0.03-0.33,0.06-0.68,0.08-1.04l0-0.08 c-0.74,0.19-1.48,0.37-2.2,0.53c-1.09,0.25-2.18,0.47-3.25,0.66l0,0c-2.23,0.4-4.4,0.64-6.43,0.7c-1.95,0.06-3.77-0.06-5.4-0.37 c-1.32-0.25-2.53-0.62-3.59-1.13l-0.06-0.03c-1.03-0.5-1.94-1.13-2.69-1.88l0,0c-0.85-0.87-1.5-1.89-1.9-3.06 c-0.38-1.11-0.54-2.35-0.45-3.74l0-0.02c0.06-0.96,0.25-1.98,0.57-3.09c0.29-1,0.69-2.05,1.21-3.17c-0.11-0.55-0.21-1.1-0.3-1.64 c-0.1-0.62-0.2-1.26-0.29-1.95c-0.1-0.77-0.18-1.51-0.24-2.22c-0.06-0.71-0.11-1.46-0.14-2.24c0-0.1-0.02-0.21-0.04-0.31 c-0.26-2.7-0.3-5.32-0.33-7.97l0-0.27l-3.53-0.21l-0.14,0C5.46,82.9,4.9,82.8,4.38,82.63c-0.57-0.18-1.1-0.42-1.57-0.74l-0.02-0.02 c-0.45-0.29-0.85-0.64-1.2-1.04c-0.36-0.41-0.66-0.86-0.91-1.36l-0.01-0.02c-0.23-0.49-0.4-1.01-0.51-1.55 c-0.11-0.54-0.17-1.1-0.16-1.69c0.02-0.83,0.17-1.7,0.47-2.6c0.28-0.83,0.68-1.69,1.23-2.54l4.52-9.25 c2.14-4.38,2.12-4.95,2.04-7.18l-0.01-0.2c-0.04-1.06-0.09-2.41-0.02-4.39c0.04-1.27,0.13-2.49,0.28-3.67 c0.15-1.19,0.36-2.35,0.63-3.49l0.01-0.03c0.19-0.81,0.42-1.58,0.67-2.32c0.18-0.52,0.38-1.04,0.6-1.55l-7.6-3.31 c-0.65-0.28-1.12-0.8-1.36-1.42c-0.24-0.61-0.25-1.31,0.04-1.96l0.13-0.25C1.66,32,1.7,31.93,1.75,31.85l0.03-0.05 C11.11,19.09,21.03,10.68,30.9,5.73c9.77-4.91,19.49-6.44,28.55-5.43c-2.23,1.39-4.3,3.02-6.16,4.86 c-6.32,0.14-12.93,1.67-19.59,4.93C25.03,14.33,16.25,21.5,7.85,32.29l6.98,3.05c0.08,0.03,0.15,0.06,0.2,0.08 c0.07,0.04,0.16,0.08,0.23,0.12c0.6,0.37,1,0.94,1.15,1.58c0.16,0.64,0.07,1.34-0.29,1.94v0c-0.46,0.77-0.86,1.57-1.19,2.4 c-0.33,0.84-0.61,1.72-0.83,2.64c-0.23,0.94-0.4,1.93-0.53,2.96c-0.13,1.04-0.21,2.1-0.24,3.17l0,0.01 c-0.03,0.95-0.03,1.74-0.02,2.43c0.01,0.67,0.03,1.26,0.05,1.77c0.07,1.62,0.11,2.63-0.22,3.99c-0.32,1.33-0.99,2.91-2.33,5.66 c-1.5,2.76-3.15,7.37-4.77,9.71c-0.31,0.48-0.54,0.93-0.69,1.35c-0.16,0.43-0.23,0.83-0.24,1.18v0c0,0.17,0.01,0.33,0.04,0.48 c0.03,0.13,0.06,0.25,0.11,0.35l0,0.01c0.04,0.08,0.09,0.16,0.15,0.22c0.05,0.06,0.11,0.11,0.18,0.15l0.01,0 c0.09,0.06,0.18,0.1,0.29,0.13c0.12,0.03,0.23,0.06,0.36,0.06l0.15,0l5.17,0.3c0.08-0.02,0.15-0.04,0.23-0.05l0.03,0 c0.12-0.02,0.25-0.03,0.36-0.03h0.19c1.61,0.09,3.33,0.26,4.94,0.42c0.7,0.06,1.3,0.4,1.72,0.89l0,0c0.43,0.5,0.66,1.16,0.61,1.87 l0,0.03c-0.06,0.7-0.4,1.31-0.89,1.73c-0.5,0.42-1.15,0.65-1.85,0.6c-0.69-0.05-1.38-0.08-2.07-0.13c0.01,1.05,0.03,2.1,0.06,3.16 c0.03,1,0.08,2.02,0.16,3.07c0.58,0.21,1.15,0.38,1.68,0.52c0.66,0.17,1.28,0.29,1.86,0.35l0.01,0c0.64,0.07,1.22,0.08,1.74,0.01 C20.84,90.41,21.3,90.28,21.71,90.08L21.71,90.08z M106.55,49.04c0.86,8.85-0.66,17.94-5.19,26.38 c-4.35,8.12-11.47,15.63-21.91,21.76l0,0c-0.07,0.04-0.15,0.08-0.23,0.12c0.01,1.13,0.06,2.27,0.13,3.39 c0.08,1.27,0.2,2.54,0.35,3.8c0.3,2.48,0.74,4.87,1.31,7.19c0.57,2.32,1.27,4.57,2.09,6.74l0.01,0.04 c0.23,0.65,0.19,1.33-0.08,1.92c-0.27,0.6-0.77,1.09-1.43,1.35l-0.06,0.02c-0.64,0.22-1.32,0.18-1.9-0.08 c-0.6-0.27-1.09-0.76-1.35-1.42l0-0.01c-0.9-2.37-1.66-4.82-2.28-7.33c-0.62-2.52-1.1-5.11-1.42-7.78 c-0.32-2.65-0.5-5.39-0.51-8.23c-0.02-2.83,0.13-5.75,0.43-8.75l0-0.02c0.07-0.69,0.42-1.3,0.93-1.71c0.5-0.41,1.16-0.63,1.86-0.56 l0.04,0c0.69,0.08,1.3,0.42,1.71,0.93c0.41,0.5,0.63,1.16,0.56,1.86l0,0.02c-0.07,0.64-0.12,1.3-0.18,1.98L79.4,91.2 c8.35-5.4,14.1-11.82,17.66-18.67c2.95-5.69,4.4-11.68,4.57-17.64C103.48,53.13,105.13,51.17,106.55,49.04L106.55,49.04z M38.26,51.42c0.62,0.35,1.03,0.92,1.2,1.56c0.17,0.63,0.1,1.33-0.25,1.95c-0.35,0.61-0.92,1.03-1.56,1.2 c-0.63,0.17-1.33,0.1-1.95-0.25l-0.04-0.02c-0.82-0.46-1.62-0.8-2.41-1.02c-0.79-0.22-1.56-0.33-2.32-0.33 c-0.81,0-1.6,0.12-2.39,0.34c-0.82,0.23-1.63,0.58-2.42,1.04l-0.02,0.01c-0.61,0.34-1.3,0.4-1.93,0.23 c-0.63-0.17-1.19-0.59-1.54-1.19l-0.03-0.06c-0.33-0.6-0.39-1.29-0.22-1.91c0.17-0.63,0.59-1.19,1.19-1.54l0.06-0.03 c1.16-0.66,2.36-1.17,3.59-1.51c1.21-0.34,2.45-0.52,3.7-0.52c1.2,0,2.42,0.16,3.65,0.5C35.81,50.21,37.03,50.72,38.26,51.42 L38.26,51.42z M28.03,57.64L28.03,57.64c0.6-0.6,1.43-0.97,2.34-0.97c0.91,0,1.74,0.37,2.34,0.97c0.6,0.6,0.97,1.43,0.97,2.34 c0,0.91-0.37,1.73-0.97,2.33l0,0c-0.6,0.6-1.43,0.97-2.34,0.97c-0.91,0-1.74-0.37-2.34-0.97c-0.6-0.6-0.97-1.43-0.97-2.34 C27.06,59.06,27.43,58.24,28.03,57.64L28.03,57.64z M76.79,16.77H80c0.58,0,1.07,0.48,1.07,1.07v11.78h10.7 c0.59,0,1.07,0.48,1.07,1.07v3.21c0,0.59-0.48,1.07-1.07,1.07H75.72V17.84C75.72,17.25,76.2,16.77,76.79,16.77L76.79,16.77 L76.79,16.77z M80.43,9.09c11.21,0,20.3,9.09,20.3,20.3c0,11.21-9.09,20.3-20.3,20.3c-11.21,0-20.3-9.09-20.3-20.3 C60.13,18.18,69.22,9.09,80.43,9.09L80.43,9.09L80.43,9.09z"/></g></svg>