<?xml version="1.0" encoding="utf-8"?><svg version="1.1" id="Layer_1" xmlns="http://www.w3.org/2000/svg" xmlns:xlink="http://www.w3.org/1999/xlink" x="0px" y="0px" viewBox="0 0 122.88 120.89" style="enable-background:new 0 0 122.88 120.89" xml:space="preserve"><style type="text/css">.st0{fill-rule:evenodd;clip-rule:evenodd;}</style><g><path class="st0" d="M120.41,67.58c1.36,0,2.46,1.1,2.46,2.47c0,1.36-1.1,2.46-2.46,2.46H98.85l0,7.56h-4.59v-7.56H29.89l0,7.56 h-4.59v-7.56H2.47C1.1,72.51,0,71.41,0,70.05c0-1.36,1.1-2.47,2.47-2.47h56.68v-6.5h4.59l0,6.5H120.41L120.41,67.58L120.41,67.58z M30.53,0h61.82c0.98,0,1.78,0.8,1.78,1.78v40.95c0,0.98-0.8,1.78-1.78,1.78H30.53c-0.98,0-1.78-0.8-1.78-1.78V1.78 C28.75,0.8,29.55,0,30.53,0L30.53,0L30.53,0z M53.38,46.96H69.5c0.04,2.79,1.19,5.29,4.3,7.25H49.08 C51.57,52.41,53.39,50.21,53.38,46.96L53.38,46.96L53.38,46.96z M61.44,38.52c1.26,0,2.28,1.02,2.28,2.28 c0,1.26-1.02,2.28-2.28,2.28c-1.26,0-2.28-1.02-2.28-2.28C59.16,39.54,60.18,38.52,61.44,38.52L61.44,38.52z M34.1,3.35h54.68 c0.86,0,1.57,0.71,1.57,1.57v30.6c0,0.86-0.71,1.57-1.57,1.57H34.1c-0.86,0-1.57-0.71-1.57-1.57V4.92 C32.53,4.05,33.24,3.35,34.1,3.35L34.1,3.35L34.1,3.35z M78.12,88.56h36.87c0.58,0,1.06,0.48,1.06,1.06v24.43 c0,0.58-0.48,1.06-1.06,1.06H78.12c-0.58,0-1.06-0.48-1.06-1.06V89.61C77.06,89.03,77.54,88.56,78.12,88.56L78.12,88.56 L78.12,88.56z M91.75,116.57h9.61c0.03,1.66,0.71,3.15,2.57,4.33H89.18C90.66,119.81,91.75,118.5,91.75,116.57L91.75,116.57 L91.75,116.57z M96.55,111.53c0.75,0,1.36,0.61,1.36,1.36c0,0.75-0.61,1.36-1.36,1.36c-0.75,0-1.36-0.61-1.36-1.36 C95.19,112.14,95.8,111.53,96.55,111.53L96.55,111.53z M80.25,90.55h32.61c0.52,0,0.94,0.42,0.94,0.94v18.25 c0,0.52-0.42,0.94-0.94,0.94H80.25c-0.52,0-0.94-0.42-0.94-0.94V91.49C79.31,90.97,79.73,90.55,80.25,90.55L80.25,90.55 L80.25,90.55z M9.15,88.56h36.87c0.58,0,1.06,0.48,1.06,1.06v24.43c0,0.58-0.48,1.06-1.06,1.06H9.15c-0.58,0-1.06-0.48-1.06-1.06 V89.61C8.09,89.03,8.57,88.56,9.15,88.56L9.15,88.56L9.15,88.56z M22.78,116.57h9.61c0.03,1.66,0.71,3.15,2.57,4.33H20.22 C21.7,119.81,22.79,118.5,22.78,116.57L22.78,116.57L22.78,116.57z M27.59,111.53c0.75,0,1.36,0.61,1.36,1.36 c0,0.75-0.61,1.36-1.36,1.36c-0.75,0-1.36-0.61-1.36-1.36C26.23,112.14,26.84,111.53,27.59,111.53L27.59,111.53z M11.28,90.55H43.9 c0.52,0,0.94,0.42,0.94,0.94v18.25c0,0.52-0.42,0.94-0.94,0.94H11.28c-0.52,0-0.94-0.42-0.94-0.94V91.49 C10.35,90.97,10.77,90.55,11.28,90.55L11.28,90.55L11.28,90.55z"/></g></svg>