<?xml version="1.0" encoding="utf-8"?><svg version="1.1" id="Layer_1" xmlns="http://www.w3.org/2000/svg" xmlns:xlink="http://www.w3.org/1999/xlink" x="0px" y="0px" viewBox="0 0 85.55 122.88" style="enable-background:new 0 0 85.55 122.88" xml:space="preserve"><style type="text/css"><![CDATA[
	.st0{fill-rule:evenodd;clip-rule:evenodd;}
]]></style><g><path class="st0" d="M7.22,0h71.11c1.99,0,3.79,0.81,5.1,2.12c1.31,1.31,2.12,3.11,2.12,5.1V21.6c0,7.6-0.73,8.99-2.41,12.18 c-0.7,1.33-1.59,3.02-2.67,5.81c-1.34,3.48-2.4,7.29-3.13,11.35c-0.7,3.93-1.07,8.07-1.07,12.36c0,7.5,1.17,10.84,3.25,16.73 l0.35,1c1.22,3.48,2.25,5.53,3.05,7.15c1.79,3.59,2.63,5.27,2.63,14.22v13.26c0,1.98-0.81,3.78-2.12,5.09l-0.01,0.01 c-1.31,1.31-3.12,2.12-5.09,2.12H7.22c-1.98,0-3.79-0.81-5.09-2.12l-0.01-0.01C0.81,119.44,0,117.64,0,115.66v-13.13 c0-9.04,0.82-10.7,2.62-14.32c0.8-1.62,1.83-3.68,3.06-7.18l0.34-0.98c2.08-5.89,3.25-9.23,3.25-16.74c0-4.36-0.38-8.54-1.08-12.47 c-0.73-4.07-1.81-7.91-3.19-11.44c-1.12-2.87-1.99-4.53-2.66-5.82C0.64,30.31,0,29.08,0,21.19V7.22c0-1.98,0.81-3.78,2.12-5.09 l0.01-0.01C3.44,0.81,5.24,0,7.22,0L7.22,0z M42.77,21.33c2.55,0,4.98,0.54,7.17,1.52c0.09,0.03,0.18,0.08,0.27,0.12 c1.91,0.89,3.63,2.1,5.11,3.57l0.01,0.01c3.22,3.22,5.21,7.66,5.21,12.54v79.4h17.78c0.79,0,1.5-0.32,2.01-0.83l0.01-0.01 c0.51-0.51,0.83-1.22,0.83-2.01V102.4c0-7.93-0.69-9.31-2.17-12.27c-0.84-1.69-1.92-3.84-3.26-7.66l-0.35-0.98 c-2.24-6.35-3.51-9.95-3.51-18.18c0-4.54,0.4-8.94,1.14-13.12c0.77-4.31,1.91-8.4,3.37-12.17c1.19-3.07,2.13-4.87,2.88-6.27 c1.32-2.51,1.9-3.61,1.9-10.14V7.22c0-0.78-0.32-1.49-0.84-2.01c-0.52-0.52-1.23-0.84-2.01-0.84H7.22c-0.79,0-1.5,0.32-2.01,0.83 L5.2,5.21C4.69,5.72,4.38,6.43,4.38,7.22v13.97c0,6.86,0.5,7.82,1.83,10.37c0.74,1.41,1.69,3.23,2.87,6.25 c1.47,3.76,2.63,7.88,3.41,12.26c0.76,4.24,1.17,8.69,1.17,13.24c0,8.23-1.27,11.83-3.51,18.19L9.8,82.48 c-1.35,3.84-2.42,5.99-3.26,7.68c-1.48,2.98-2.16,4.34-2.16,12.37v13.13c0,0.78,0.32,1.5,0.83,2.01c0.52,0.51,1.23,0.83,2.01,0.83 H25v-79.4c0-4.88,2-9.32,5.22-12.55l0.01-0.01C33.45,23.33,37.9,21.33,42.77,21.33L42.77,21.33z M37.76,65.53 c3.38,0,6.13,2.74,6.13,6.13c0,3.38-2.74,6.13-6.13,6.13s-6.13-2.74-6.13-6.13C31.63,68.28,34.37,65.53,37.76,65.53L37.76,65.53z M51.29,28.46v89.49h5.13V39.11c0-3.76-1.53-7.17-4-9.64l-0.01-0.01C52.06,29.11,51.68,28.77,51.29,28.46L51.29,28.46z"/></g></svg>