<?xml version="1.0" encoding="utf-8"?><svg version="1.1" id="Layer_1" xmlns="http://www.w3.org/2000/svg" xmlns:xlink="http://www.w3.org/1999/xlink" x="0px" y="0px" viewBox="0 0 122.88 122.88" style="enable-background:new 0 0 122.88 122.88" xml:space="preserve"><style type="text/css">.st0{fill-rule:evenodd;clip-rule:evenodd;}</style><g><path class="st0" d="M61.44,0c33.93,0,61.44,27.51,61.44,61.44c0,33.93-27.51,61.44-61.44,61.44S0,95.37,0,61.44 C0,27.51,27.51,0,61.44,0L61.44,0z M70.66,34.43c3.91-8.48,12.48-3.51,9.45,2.07L52.18,88.01c-4.41,9.57-12.4,3.36-9.46-2.07 L70.66,34.43L70.66,34.43z M27.71,46.84c0-2.31,0.51-4.53,1.52-6.62c1.02-2.1,2.57-3.71,4.66-4.83c2.08-1.12,4.54-1.69,7.4-1.69 c4.19,0,7.5,1.19,9.91,3.58c2.41,2.39,3.62,5.58,3.62,9.56c0,4.02-1.2,7.22-3.62,9.61c-2.41,2.39-5.72,3.58-9.91,3.58 c-2.86,0-5.32-0.57-7.4-1.69c-2.08-1.13-3.64-2.73-4.66-4.83C28.21,51.42,27.71,49.19,27.71,46.84L27.71,46.84z M37.3,46.91 c0,2.81,0.46,4.85,1.37,6.12c0.6,0.84,1.47,1.26,2.61,1.26c1.13,0,1.98-0.43,2.57-1.26c0.89-1.27,1.37-3.3,1.37-6.12 c0-2.78-0.46-4.82-1.37-6.1c-0.57-0.81-1.44-1.23-2.57-1.23c-1.14,0-2.02,0.41-2.61,1.23C37.76,42.06,37.3,44.11,37.3,46.91 L37.3,46.91z M68.07,77.43c0-2.35,0.5-4.57,1.51-6.65c1-2.09,2.56-3.71,4.65-4.84c2.09-1.14,4.55-1.7,7.39-1.7 c4.21,0,7.53,1.2,9.95,3.61c2.42,2.4,3.62,5.6,3.62,9.59c0,3.99-1.2,7.19-3.62,9.59c-2.41,2.4-5.73,3.61-9.95,3.61 c-2.84,0-5.29-0.57-7.39-1.7c-2.09-1.13-3.64-2.76-4.65-4.84C68.58,81.99,68.07,79.77,68.07,77.43L68.07,77.43z M77.67,77.51 c0,2.82,0.46,4.88,1.37,6.15c0.57,0.81,1.44,1.23,2.58,1.23c1.13,0,2.01-0.41,2.6-1.23c0.91-1.27,1.37-3.33,1.37-6.15 c0-2.81-0.45-4.89-1.37-6.17c-0.58-0.82-1.47-1.23-2.6-1.23c-1.14,0-2,0.43-2.58,1.26C78.14,72.65,77.67,74.7,77.67,77.51 L77.67,77.51z"/></g></svg>