<svg xmlns="http://www.w3.org/2000/svg" viewBox="0 0 122.88 108.47"><defs><style>.a{fill-rule:evenodd;}</style></defs><title>personal-loan</title><path class="a" d="M40,72.91c5.38,15.82,27.83,16.4,32.87,0a16.37,16.37,0,0,0,5,2.83,32.39,32.39,0,0,0-2.21,4.07,31.09,31.09,0,0,0,.46,26.43H0C2,96.44.75,88.13,9.92,83,16.47,79.34,34,78.26,40,72.91Zm82.06,23a5.66,5.66,0,0,1,.84,2.9c0,5.35-8.28,9.69-18.48,9.69s-18.47-4.34-18.47-9.69a5.72,5.72,0,0,1,.84-2.9c2.35,3.94,9.36,6.79,17.63,6.79s15.29-2.85,17.64-6.79Zm-11-24.4-.22,2.41-9.07-.79a8.29,8.29,0,0,1,1.56,3.26l-2.19-.2a7.06,7.06,0,0,0-1-2.13,4.33,4.33,0,0,0-1.88-1.69l.17-2,12.61,1.09Zm-6.68-3.76c8.39,0,15.19,2.67,15.19,6s-6.8,6-15.19,6-15.18-2.68-15.18-6,6.8-6,15.18-6Zm0-2c10.2,0,18.48,4.34,18.48,9.69s-8.28,9.68-18.48,9.68-18.47-4.34-18.47-9.68,8.27-9.69,18.47-9.69Zm17.7,18.78a5.56,5.56,0,0,1,.78,2.78c0,5.34-8.28,9.68-18.48,9.68S85.93,92.64,85.93,87.3a5.34,5.34,0,0,1,.78-2.78c2.27,4,9.33,6.9,17.69,6.9s15.42-2.92,17.7-6.9ZM35.87,40.15a5,5,0,0,0-2.56.67,2,2,0,0,0-.73.85A2.88,2.88,0,0,0,32.34,43c0,1.54.85,3.56,2.42,5.89l0,0h0L39.86,57c2,3.24,4.18,6.55,6.83,9a13.88,13.88,0,0,0,9.74,3.92,14.36,14.36,0,0,0,10.31-4.09c2.74-2.56,4.91-6.08,7-9.59l5.72-9.43c1.07-2.44,1.46-4.07,1.21-5-.14-.57-.77-.85-1.85-.9-.22,0-.45,0-.69,0l-.8,0a1.58,1.58,0,0,1-.44,0,7.59,7.59,0,0,1-1.57-.08l2-8.68C62.77,34.44,51.89,23.63,36.5,30l1.12,10.23a8.32,8.32,0,0,1-1.75-.07Zm44.95-1.82A3.66,3.66,0,0,1,83.5,41.1c.41,1.6,0,3.85-1.4,6.94h0l-.08.17-5.79,9.54c-2.23,3.67-4.5,7.36-7.52,10.19A17,17,0,0,1,56.44,72.8a16.65,16.65,0,0,1-11.68-4.67,45.54,45.54,0,0,1-7.33-9.56l-5.09-8.08a14.85,14.85,0,0,1-2.88-7.38A5.9,5.9,0,0,1,30,40.47a5,5,0,0,1,1.75-2,5.67,5.67,0,0,1,1.23-.62,129.51,129.51,0,0,1-.24-14.53A19,19,0,0,1,33.32,20,19.43,19.43,0,0,1,41.9,9.05a27.17,27.17,0,0,1,7.2-3.2c1.61-.46-1.38-5.62.3-5.79C57.47-.76,70.52,6.6,76.16,12.7c2.82,3.06,4.58,7.09,5,12.45l-.31,13.18Z"/></svg>