<svg id="Layer_1" data-name="Layer 1" xmlns="http://www.w3.org/2000/svg" viewBox="0 0 122.88 77.22"><title>peruvian-sol</title><path d="M52.44,53.23a22.07,22.07,0,0,1-3.53,12.38A23.27,23.27,0,0,1,38.72,74,38,38,0,0,1,23.1,77,63.36,63.36,0,0,1,10.54,76,46.42,46.42,0,0,1,0,72.29V54.24a60.81,60.81,0,0,0,12,4.64A45.22,45.22,0,0,0,23.5,60.54c3,0,5.21-.53,6.61-1.56a4.78,4.78,0,0,0,2.1-4,4.35,4.35,0,0,0-.86-2.7A10.07,10.07,0,0,0,28.64,50a109.39,109.39,0,0,0-10-4.83,48.22,48.22,0,0,1-11-6.45,19.86,19.86,0,0,1-5.42-7.17A23.92,23.92,0,0,1,.51,21.93Q.51,11.6,8,5.79T28.73,0A58,58,0,0,1,52.44,5.37L46.25,21c-7-3.2-13-4.81-18.13-4.81-2.62,0-4.55.47-5.74,1.4A4.2,4.2,0,0,0,20.58,21,5,5,0,0,0,22.87,25c1.52,1.16,5.63,3.27,12.37,6.35q9.67,4.35,13.44,9.36a20.38,20.38,0,0,1,3.76,12.57ZM102.1,0,74.18,77H56.45L84.39,0Zm-.64,67.43a9.38,9.38,0,0,1,2.8-7.28c1.85-1.69,4.56-2.55,8.11-2.55,3.38,0,6,.86,7.78,2.55s2.73,4.15,2.73,7.28a9.33,9.33,0,0,1-2.8,7.2c-1.86,1.74-4.42,2.59-7.71,2.59s-6.06-.85-8-2.55a9.16,9.16,0,0,1-2.92-7.24Z"/></svg>