<?xml version="1.0" encoding="utf-8"?><svg version="1.1" id="Layer_1" xmlns="http://www.w3.org/2000/svg" xmlns:xlink="http://www.w3.org/1999/xlink" x="0px" y="0px" viewBox="0 0 122.88 117.2" style="enable-background:new 0 0 122.88 117.2" xml:space="preserve"><style type="text/css">.st0{fill-rule:evenodd;clip-rule:evenodd;}</style><g><path class="st0" d="M19.19,104.21L19.19,104.21c0,3.56,0.75,6.16,2.32,7.72c1.52,1.51,3.96,2.11,7.38,1.73l0.18-0.01h74.7 c0-34.78-0.08-65.84-0.08-100.65h0.01c0-3.56-0.76-6.16-2.32-7.72c-1.52-1.51-3.96-2.11-7.38-1.73l-0.18,0.01h-74.7 C19.11,38.29,19.19,69.42,19.19,104.21L19.19,104.21z M50.91,43.34V15.61h14.27c2.65,0,4.67,0.23,6.07,0.68 c1.4,0.45,2.53,1.3,3.39,2.52c0.86,1.23,1.28,2.74,1.28,4.5c0,1.54-0.33,2.86-0.99,3.98c-1.32,2.25-2.91,3.14-5.37,3.7l5.53,9.18 l4.77-8.53h9.33l-8.62,13.43l9.43,14.29h-9.64l-5.44-8.91l-5.48,8.91h-9.56l9.56-14.45c-1.19-1.9-6.05-11.45-7.09-12.18 c-0.61-0.43-1.32-0.64-2.1-0.64h-0.76v11.23H50.91L50.91,43.34z M59.51,26.88h3.62c0.39,0,1.15-0.13,2.27-0.38 c0.57-0.11,1.03-0.4,1.39-0.87c0.36-0.47,0.54-1.01,0.54-1.61c0-0.9-0.28-1.59-0.85-2.07c-0.57-0.48-1.63-0.72-3.2-0.72h-3.77 V26.88L59.51,26.88z M107.03,100.17l11.59,0c1.26,0,0.21,0.01,0.6,0c1.7-0.01,2.47-0.01,3.17,0.9c0.55,0.71,0.51,1.34,0.46,2.48 c-0.02,0.37-0.04,0.84-0.04,1.55c0,5.75-1.98,9.02-5.33,10.73c-2.95,1.5-6.88,1.61-11.39,1.08H29.13c-4.4,0.47-7.67-0.45-9.91-2.67 c-2.21-2.19-3.28-5.57-3.28-10.03h-0.01c0-30.28-0.08-56.86-0.08-87.18l-11.59,0c-1.26,0-0.21-0.01-0.6,0 c-1.7,0.01-2.47,0.01-3.17-0.9c-0.55-0.71-0.51-1.34-0.46-2.48c0.02-0.37,0.04-0.84,0.04-1.55c0-5.75,1.98-9.02,5.33-10.73 c2.95-1.5,6.88-1.61,11.39-1.08h76.97c4.4-0.47,7.68,0.45,9.91,2.67c2.21,2.19,3.28,5.57,3.28,10.03h0.01 C106.95,43.2,107.03,69.88,107.03,100.17L107.03,100.17z M15.85,13.77V3.47c-3.67-0.4-6.79-0.29-8.97,0.81 c-2.22,1.13-3.54,3.5-3.54,7.82c0,0.62-0.03,1.22-0.05,1.71c-0.02,0.37-0.41,0.08-0.22,0.33c0.27,0.35-0.01-0.36,0.58-0.36 c0.75,0-0.22-0.01,0.61-0.01H15.85L15.85,13.77L15.85,13.77z M107.03,103.43v10.3c3.67,0.4,6.79,0.29,8.97-0.81 c2.22-1.13,3.54-3.5,3.54-7.82c0-0.62,0.03-1.22,0.05-1.71c0.02-0.37,0.41-0.08,0.22-0.33c-0.27-0.35,0.01,0.36-0.58,0.36 c-0.75,0,0.22,0.01-0.61,0.01H107.03L107.03,103.43L107.03,103.43z M31.36,60.92c-0.91,0-1.64-0.73-1.64-1.63 c0-0.9,0.74-1.63,1.64-1.63h16.07c0.91,0,1.64,0.73,1.64,1.63c0,0.9-0.74,1.63-1.64,1.63H31.36L31.36,60.92z M31.36,77.65 c-0.9,0-1.63-0.73-1.63-1.63c0-0.9,0.73-1.63,1.63-1.63H77.6c0.9,0,1.63,0.73,1.63,1.63c0,0.9-0.73,1.63-1.63,1.63H31.36 L31.36,77.65z M31.36,94.39c-0.9,0-1.63-0.74-1.63-1.64s0.73-1.64,1.63-1.64h23.93c0.9,0,1.63,0.74,1.63,1.64 c0,0.91-0.73,1.64-1.63,1.64H31.36L31.36,94.39z"/></g></svg>