<?xml version="1.0" encoding="utf-8"?><svg version="1.1" id="Layer_1" xmlns="http://www.w3.org/2000/svg" xmlns:xlink="http://www.w3.org/1999/xlink" x="0px" y="0px" viewBox="0 0 83.81 122.88" style="enable-background:new 0 0 83.81 122.88" xml:space="preserve"><style type="text/css"><![CDATA[
	.st0{fill-rule:evenodd;clip-rule:evenodd;}
]]></style><g><path class="st0" d="M5.97,107.54h70.95c0,1.37,0.05,0.97,0.02,2.34c-0.05,2.35-0.59,4.2-1.74,5.38c-1.35,1.08-3.12,1.64-5.29,1.72 l-57.33-0.12c-2.22,0-3.79-0.61-4.81-1.61c-0.9-0.88-1.44-2.15-1.67-3.75C5.83,109.64,5.98,109.39,5.97,107.54L5.97,107.54 L5.97,107.54z M38.56,63.03h6.68c1.25,0,2.27,1.02,2.27,2.27v9.96h9.96c1.25,0,2.27,1.02,2.27,2.27v6.68 c0,1.25-1.02,2.27-2.27,2.27h-9.96v9.96c0,1.25-1.02,2.27-2.27,2.27h-6.68c-1.25,0-2.27-1.02-2.27-2.27v-9.96h-9.96 c-1.25,0-2.27-1.02-2.27-2.27v-6.69c0-1.25,1.02-2.27,2.27-2.27h9.96V65.3C36.29,64.05,37.31,63.03,38.56,63.03L38.56,63.03 L38.56,63.03z M77.4,54.22H6.45c0-2.79-0.18-6.82,0.12-9.43c0.94-8.2,5.33-14.08,10.31-20.76c1.09-1.46,2.21-2.97,3.37-4.6h43.23 c1.02,1.42,2.13,2.89,3.22,4.35c4.95,6.59,9.68,12.88,10.56,21.08C77.34,45.67,77.4,54.22,77.4,54.22L77.4,54.22z M9.69,0h65.18 c1.86,0,3.55,0.76,4.78,1.99c1.23,1.23,1.99,2.92,1.99,4.78v5.65c0,1.86-0.76,3.55-1.99,4.78c-1.23,1.23-2.92,1.99-4.78,1.99h-4.37 c0.63,0.86,1.26,1.69,1.88,2.52c5.92,7.88,11.54,15.37,11.4,26.31c0,20.92,0.01,41.85,0.01,62.77l0,0c0.19,3.96-0.6,7.17-2.72,9.33 s-5.43,3.14-10.25,2.63H11.08v-0.01c-3.66,0.11-6.33-0.8-8.15-2.58c-1.81-1.76-2.7-4.27-2.84-7.39c-0.01-0.07-0.01-0.14-0.01-0.22 V50.32C-0.68,38.29,4.36,31.1,11.18,21.95c0.68-0.91,1.37-1.83,2.05-2.76H9.69c-1.86,0-3.55-0.76-4.78-1.99 c-1.23-1.23-1.99-2.92-1.99-4.78V6.77c0-1.86,0.76-3.55,1.99-4.78C6.13,0.76,7.82,0,9.69,0L9.69,0L9.69,0z"/></g></svg>