<?xml version="1.0" encoding="utf-8"?><svg version="1.1" id="Layer_1" xmlns="http://www.w3.org/2000/svg" xmlns:xlink="http://www.w3.org/1999/xlink" x="0px" y="0px" viewBox="0 0 107.36 122.88" style="enable-background:new 0 0 107.36 122.88" xml:space="preserve"><style type="text/css"><![CDATA[
	.st0{fill-rule:evenodd;clip-rule:evenodd;}
]]></style><g><path class="st0" d="M30.37,37.92c7.25,7.78,18.46-2.41,29.38-5.27c6.2-1.62,9.53,9.38,17.53,5.36l0.75,8.71 c4.97-1.12,1.43,14.21-2.88,13.41c-1.42,4.68-1.96,8-4.28,11.11c-4.35,5.82-11.39,8.78-17.02,8.66c-5.32-0.11-12.09-3.04-16.42-8.4 c-2.67-3.3-3.53-6.93-5.19-12c-4.59,1.37-7.67-14.19-2.68-12.86L30.37,37.92L30.37,37.92L30.37,37.92z M64.21,113.5 c0.91,1.88,0.9,4.16-0.22,6.11c-1.8,3.12-5.79,4.19-8.92,2.39c-0.92-0.53-1.66-1.25-2.2-2.08L64.21,113.5L64.21,113.5L64.21,113.5z M63.42,96.08c1.8-3.12,5.8-4.19,8.92-2.39c0.85,0.49,1.55,1.14,2.08,1.9l-11.31,6.41C62.3,100.14,62.34,97.96,63.42,96.08 L63.42,96.08L63.42,96.08z M74.95,96.5c0.91,1.88,0.9,4.16-0.22,6.11c-1.8,3.12-5.79,4.19-8.92,2.39c-0.92-0.53-1.66-1.25-2.2-2.08 L74.95,96.5L74.95,96.5L74.95,96.5z M52.69,113.08c1.8-3.12,5.79-4.19,8.92-2.39c0.85,0.49,1.55,1.14,2.08,1.9l-11.31,6.4 C51.56,117.15,51.6,114.96,52.69,113.08L52.69,113.08L52.69,113.08z M44.56,91.85c1.77-3.07,5.73-4.13,8.8-2.35l0,0 c3.07,1.77,4.13,5.73,2.35,8.79c-3.66,6.34-7.31,12.62-10.97,18.95c-0.85,1.48-2.25,2.54-3.89,2.98c-1.37,0.37-2.85,0.29-4.22-0.31 c-1.78-0.78-3.11-2.32-3.62-4.22c-0.42-1.59-0.25-3.33,0.64-4.86l0,0C37.3,104.49,40.9,98.2,44.56,91.85L44.56,91.85L44.56,91.85z M48.01,108.66l-8.4-4.85l-4.41,7.64c-0.64,1.11-0.81,2.44-0.48,3.68c0.32,1.2,1.1,2.28,2.25,2.95c1.11,0.64,2.44,0.81,3.68,0.48 c1.2-0.32,2.28-1.1,2.95-2.25L48.01,108.66L48.01,108.66L48.01,108.66z M61.86,13.63v1.92c0,0.89-0.73,1.62-1.62,1.62h-3.26v3.26 c0,0.89-0.73,1.62-1.62,1.62h-1.92c-0.89,0-1.62-0.73-1.62-1.62v-3.26h-3.26c-0.89,0-1.62-0.73-1.62-1.62v-1.92 c0-0.89,0.73-1.62,1.62-1.62h3.26V8.74c0-0.89,0.73-1.62,1.62-1.62h1.92c0.89,0,1.62,0.73,1.62,1.62V12h3.26 C61.13,12.01,61.86,12.73,61.86,13.63L61.86,13.63L61.86,13.63z M42.83,0h23.13c0.8,0,1.63,0.11,2.46,0.33 c1.79,0.46,3.47,1.42,4.72,2.7c1.42,1.46,2.33,3.31,2.33,5.38c0,0.56-0.08,1.16-0.24,1.79l-2.16,8.25 c0.66,0.71,1.28,1.48,1.86,2.31c12.76,18.13,17,50.79-3.96,55c2.78,1.8,6.2,2.1,9.7,1.9c18.98,0.48,26.8,12.49,26.67,27.67H78.98 c1.06-1.75,1.67-3.79,1.67-5.98c0-6.39-5.18-11.57-11.57-11.57c-1.65,0-3.21,0.34-4.63,0.97L67.5,76.4 c-1.19,0.91-2.44,1.7-3.73,2.36c-3.3,1.68-6.83,2.5-9.96,2.43c-2.96-0.07-6.32-0.94-9.5-2.57c-1.44-0.74-2.86-1.64-4.19-2.7 l-0.38-0.08l2.55,10.31c-0.21,0.28-0.42,0.57-0.61,0.88c-0.15,0.2-0.29,0.43-0.39,0.66l-10.14,17.63H0 c-0.13-15.19,11.79-27.29,26.67-27.67c3.81,0.22,7.51-0.18,10.44-2.41c-10.79-2.67-15.36-6.49-15.36-21.92v-5.26 c0.68-11.54,3.58-21.76,9.8-29.23c0.92-1.11,2.1-2.15,3.48-3.09l-1.46-5.55c-0.16-0.63-0.24-1.23-0.24-1.79 c0-2.07,0.9-3.92,2.33-5.38c1.24-1.27,2.94-2.23,4.71-2.7C41.2,0.11,42.02,0,42.83,0L42.83,0L42.83,0z M42.83,3.26h23.13 c3.36,0,6.97,2.86,6.11,6.11l-1.72,6.57l-1.16,4.42c-0.85,3.25-2.76,6.11-6.11,6.11H45.69c-3.35,0-5.26-2.86-6.11-6.11l-1.65-6.33 l-1.22-4.67C35.87,6.12,39.47,3.26,42.83,3.26L42.83,3.26L42.83,3.26z M51.22,61.11c-0.29-0.28-0.31-0.75-0.05-1.05 c0.27-0.3,0.71-0.32,1.01-0.05c0.51,0.49,1.01,0.73,1.47,0.72c0.47-0.01,0.98-0.26,1.5-0.74c0.29-0.27,0.75-0.24,1.01,0.08 c0.26,0.31,0.23,0.79-0.08,1.06c-0.78,0.71-1.59,1.09-2.42,1.1C52.83,62.24,52.02,61.88,51.22,61.11L51.22,61.11L51.22,61.11z M69.88,46.69c0.3,0.27,0.34,0.74,0.09,1.05c-0.25,0.32-0.7,0.36-1.01,0.1c-1.36-1.19-4.04-0.67-6.35-0.24 c-1.21,0.23-2.32,0.44-3.2,0.41c-0.39-0.02-0.7-0.36-0.68-0.78c0.01-0.42,0.34-0.74,0.74-0.72c0.73,0.03,1.77-0.17,2.9-0.38 C64.98,45.64,68.02,45.06,69.88,46.69L69.88,46.69L69.88,46.69z M45.11,53.2c0.07,0.2,0.1,0.41,0.1,0.63 c0,1.02-0.78,1.83-1.74,1.83c-0.96,0-1.74-0.82-1.74-1.83c0-0.36,0.1-0.7,0.27-0.98c-0.96,0.06-1.92,0.28-2.89,0.68 c-0.33,0.14-0.7-0.08-0.82-0.48c-0.11-0.4,0.07-0.85,0.4-0.98c1.29-0.53,2.6-0.78,3.91-0.77c1.3,0.01,2.59,0.28,3.89,0.77 c0.34,0.12,0.52,0.56,0.42,0.97s-0.47,0.64-0.81,0.5C45.78,53.41,45.45,53.3,45.11,53.2L45.11,53.2L45.11,53.2z M62.31,53.04 c-0.06,0.19-0.1,0.39-0.1,0.6c0,1.02,0.78,1.83,1.74,1.83c0.96,0,1.74-0.82,1.74-1.83c0-0.32-0.08-0.63-0.22-0.88 c0.95,0.06,1.9,0.26,2.87,0.59c0.34,0.11,0.69-0.12,0.79-0.53c0.09-0.41-0.1-0.84-0.44-0.95c-1.3-0.45-2.59-0.68-3.9-0.67 c-1.29,0-2.58,0.23-3.85,0.67c-0.34,0.11-0.53,0.54-0.44,0.95c0.1,0.41,0.46,0.65,0.79,0.52C61.64,53.23,61.97,53.13,62.31,53.04 L62.31,53.04L62.31,53.04z M38.46,48.04c-0.3,0.26-0.75,0.22-1.01-0.11c-0.25-0.32-0.21-0.79,0.1-1.06 c1.86-1.62,4.9-1.06,7.51-0.55c1.13,0.22,2.17,0.41,2.9,0.38c0.39-0.02,0.72,0.31,0.74,0.72c0.01,0.42-0.29,0.76-0.68,0.78 c-0.88,0.03-2-0.18-3.2-0.41C42.51,47.37,39.82,46.86,38.46,48.04L38.46,48.04L38.46,48.04z M47.51,67.29 c-0.3-0.26-0.35-0.73-0.1-1.05c0.25-0.32,0.69-0.37,1-0.11c1.96,1.65,3.78,2.46,5.5,2.45c1.68-0.01,3.3-0.82,4.85-2.4 c0.29-0.29,0.73-0.29,1.01,0.02c0.27,0.29,0.27,0.77-0.02,1.06c-1.82,1.87-3.76,2.82-5.83,2.83 C51.85,70.08,49.72,69.16,47.51,67.29L47.51,67.29L47.51,67.29z"/></g></svg>