<?xml version="1.0" encoding="utf-8"?><svg version="1.1" id="Layer_1" xmlns="http://www.w3.org/2000/svg" xmlns:xlink="http://www.w3.org/1999/xlink" x="0px" y="0px" viewBox="0 0 114.12 122.88" style="enable-background:new 0 0 114.12 122.88" xml:space="preserve"><g><path d="M5.58,0h41.88c0,40.96,0,81.92,0,122.88h0H5.58c-1.52,0-2.92-0.63-3.94-1.65l-0.01-0.01c-1.01-1.01-1.63-2.4-1.63-3.94V5.6 c0-1.53,0.63-2.92,1.65-3.94l0.01-0.01C2.66,0.62,4.05,0,5.58,0L5.58,0L5.58,0z M60.84,122.88h47.7c1.53,0,2.92-0.63,3.94-1.65 l0.01-0.01c1.01-1.01,1.63-2.41,1.63-3.94c0-20.75-0.01-39.99-0.01-60.73H60.84c0,20.73,0,39.93,0,60.66V122.88L60.84,122.88 L60.84,122.88z M60.84,0h47.7c1.53,0,2.92,0.63,3.94,1.65l0.01,0.01c1.01,1.01,1.63,2.41,1.63,3.94c0,13.37-0.01,24.45-0.01,37.81 H60.84c0-14.46,0-28.93,0-43.39V0L60.84,0z"/></g></svg>