<svg id="Layer_1" data-name="Layer 1" xmlns="http://www.w3.org/2000/svg" viewBox="0 0 113.23 122.88"><defs><style>.cls-1{fill-rule:evenodd;}</style></defs><title>photocopy</title><path class="cls-1" d="M97.82,46.66h13.75c.9,0,1.82.77,1.64,1.64l-4.9,24.47a1.8,1.8,0,0,1-1.64,1.64H97.82v37.38a3.42,3.42,0,0,1-3.41,3.41H92.1v.42A2.08,2.08,0,0,1,90,117.7h-.1v5.18H84.27V117.7H27.68v5.18H22V117.7h-.68a2.08,2.08,0,0,1-2.07-2.08v-.42H17a3.42,3.42,0,0,1-3.41-3.41V87.65L0,78.39l.07-6.82c0-.87.18-.91.78-.44l12.7,8.66V29.43A3.41,3.41,0,0,1,17,26H94.41a3.41,3.41,0,0,1,3.41,3.41V46.66ZM48.25,96H63.12a2.14,2.14,0,0,1,2.13,2.13h0a2.14,2.14,0,0,1-2.13,2.13H48.25a2.14,2.14,0,0,1-2.13-2.13h0A2.14,2.14,0,0,1,48.25,96Zm0-26.08H63.12A2.13,2.13,0,0,1,65.25,72h0a2.14,2.14,0,0,1-2.13,2.13H48.25A2.14,2.14,0,0,1,46.12,72h0a2.13,2.13,0,0,1,2.13-2.12ZM17,4.74c-3.6-.42-4.67,5.65-.72,6.58L93.65,24.59c5-.27,5.39-4.8,3.82-8.55l-2.36-5.62c-1-2-1.63-2.57-5.28-3.33L52.94.06a4.28,4.28,0,0,0-4.41,2L43.24,9.27,17,4.74ZM88.08,41.48h2.48a.51.51,0,0,1,.51.51v2a.51.51,0,0,1-.51.51H88.08a.51.51,0,0,1-.51-.51V42a.51.51,0,0,1,.51-.51Zm0-4.35h2.48a.51.51,0,0,1,.51.51v2a.51.51,0,0,1-.51.51H88.08a.51.51,0,0,1-.51-.51v-2a.51.51,0,0,1,.51-.51Zm0-4.35h2.48a.51.51,0,0,1,.51.51v2a.51.51,0,0,1-.51.51H88.08a.51.51,0,0,1-.51-.51v-2a.51.51,0,0,1,.51-.51Zm-5.27,8.7h2.47a.51.51,0,0,1,.51.51v2a.51.51,0,0,1-.51.51H82.81A.51.51,0,0,1,82.3,44V42a.51.51,0,0,1,.51-.51Zm0-4.35h2.47a.51.51,0,0,1,.51.51v2a.51.51,0,0,1-.51.51H82.81a.51.51,0,0,1-.51-.51v-2a.51.51,0,0,1,.51-.51Zm0-4.35h2.47a.51.51,0,0,1,.51.51v2a.51.51,0,0,1-.51.51H82.81a.51.51,0,0,1-.51-.51v-2a.51.51,0,0,1,.51-.51Zm-5.28,8.7H80a.51.51,0,0,1,.51.51v2a.51.51,0,0,1-.51.51H77.53A.51.51,0,0,1,77,44V42a.51.51,0,0,1,.51-.51Zm0-4.35H80a.51.51,0,0,1,.51.51v2a.51.51,0,0,1-.51.51H77.53a.51.51,0,0,1-.51-.51v-2a.51.51,0,0,1,.51-.51Zm0-4.35H80a.51.51,0,0,1,.51.51v2a.51.51,0,0,1-.51.51H77.53a.51.51,0,0,1-.51-.51v-2a.51.51,0,0,1,.51-.51Zm-1.67-3.09H92.22a1.55,1.55,0,0,1,1.63,1.43V46.2a1.55,1.55,0,0,1-1.63,1.43H75.86a1.54,1.54,0,0,1-1.62-1.43V31.12a1.54,1.54,0,0,1,1.62-1.43Zm-55.29,58H90.8A2.16,2.16,0,0,1,93,89.82v16.54a2.16,2.16,0,0,1-2.15,2.15H20.57a2.16,2.16,0,0,1-2.15-2.15V89.82a2.16,2.16,0,0,1,2.15-2.15Zm0-26.08H90.8A2.15,2.15,0,0,1,93,63.73V80.27a2.16,2.16,0,0,1-2.15,2.15H20.57a2.16,2.16,0,0,1-2.15-2.15V63.73a2.15,2.15,0,0,1,2.15-2.14Z"/></svg>