<svg id="Layer_1" data-name="Layer 1" xmlns="http://www.w3.org/2000/svg" viewBox="0 0 122.88 121.83"><defs><style>.cls-1,.cls-2{fill-rule:evenodd;}.cls-2{fill:red;}.cls-3{fill:#fff;}</style></defs><title>php</title><path class="cls-1" d="M102.42,37H81.92a8.52,8.52,0,0,1-8.85-8.7V7.53H21a.58.58,0,0,0-.41.18.45.45,0,0,0-.18.42V113.71a.7.7,0,0,0,.18.41.51.51,0,0,0,.41.18h80.84c.18,0,.17-.09.26-.18s.34-.28.34-.41V37Zm7.47,79.08a5.77,5.77,0,0,1-5.76,5.76H18.66a5.77,5.77,0,0,1-5.76-5.76V5.76a5.7,5.7,0,0,1,1.69-4.07A5.77,5.77,0,0,1,18.66,0H76.9a4.22,4.22,0,0,1,2.46.82l29.75,30.12a2.57,2.57,0,0,1,.78,2.6v82.53ZM80,27.69,79.57,9.63,100.66,31l-18.14-.81A2.4,2.4,0,0,1,80,27.69Z"/><path class="cls-2" d="M6.71,46.28H116.17A6.73,6.73,0,0,1,122.88,53v45.1a6.73,6.73,0,0,1-6.71,6.71H6.71A6.73,6.73,0,0,1,0,98.09V53a6.73,6.73,0,0,1,6.71-6.71Z"/><path class="cls-3" d="M81.56,59.78h16.2c3.53,0,6.17.83,7.93,2.51s2.64,4.08,2.64,7.18a9.71,9.71,0,0,1-2.88,7.47c-1.91,1.8-4.84,2.69-8.78,2.69H91.33V91.3H81.56V59.78Zm9.77,13.47h2.4a6.24,6.24,0,0,0,4-1,3.17,3.17,0,0,0,1.14-2.51,3.48,3.48,0,0,0-1-2.52c-.66-.69-1.9-1-3.74-1H91.33v7Z"/><polygon class="cls-3" points="45.7 59.78 55.43 59.78 55.43 70.78 66.09 70.78 66.09 59.78 75.86 59.78 75.86 91.3 66.09 91.3 66.09 78.53 55.43 78.53 55.43 91.3 45.7 91.3 45.7 59.78 45.7 59.78"/><path class="cls-3" d="M14.55,59.78h16.2c3.53,0,6.18.83,7.94,2.51s2.63,4.08,2.63,7.18a9.71,9.71,0,0,1-2.88,7.47c-1.91,1.8-4.84,2.69-8.77,2.69H24.33V91.3H14.55V59.78Zm9.78,13.47h2.4a6.21,6.21,0,0,0,4-1,3.17,3.17,0,0,0,1.14-2.51,3.51,3.51,0,0,0-1-2.52c-.66-.69-1.91-1-3.75-1H24.33v7Z"/></svg>