<?xml version="1.0" encoding="utf-8"?><svg version="1.1" id="Layer_1" xmlns="http://www.w3.org/2000/svg" xmlns:xlink="http://www.w3.org/1999/xlink" x="0px" y="0px" viewBox="0 0 115.28 122.88" style="enable-background:new 0 0 115.28 122.88" xml:space="preserve"><style type="text/css">.st0{fill-rule:evenodd;clip-rule:evenodd;}</style><g><path class="st0" d="M25.38,57h64.88V37.34H69.59c-2.17,0-5.19-1.17-6.62-2.6c-1.43-1.43-2.3-4.01-2.3-6.17V7.64l0,0H8.15 c-0.18,0-0.32,0.09-0.41,0.18C7.59,7.92,7.55,8.05,7.55,8.24v106.45c0,0.14,0.09,0.32,0.18,0.41c0.09,0.14,0.28,0.18,0.41,0.18 c22.78,0,58.09,0,81.51,0c0.18,0,0.17-0.09,0.27-0.18c0.14-0.09,0.33-0.28,0.33-0.41v-11.16H25.38c-4.14,0-7.56-3.4-7.56-7.56 V64.55C17.82,60.4,21.22,57,25.38,57L25.38,57z M31.41,68.67h11.43c2.49,0,4.35,0.59,5.59,1.77c1.24,1.18,1.86,2.87,1.86,5.06 c0,2.25-0.68,4.01-2.03,5.27c-1.35,1.27-3.42,1.9-6.19,1.9h-3.77v8.23h-6.89V68.67L31.41,68.67z M38.31,78.17H40 c1.34,0,2.27-0.23,2.81-0.69c0.54-0.46,0.81-1.05,0.81-1.77c0-0.7-0.23-1.29-0.7-1.77c-0.47-0.49-1.35-0.73-2.64-0.73h-1.97V78.17 L38.31,78.17z M53.43,68.67h6.86v8.4l7.2-8.4h9.13l-8.11,8.35L77,90.9h-8.45l-4.69-9.13l-3.57,3.72v5.41h-6.86V68.67L53.43,68.67z M88.92,82.86v-4.63h10.62v9.45c-2.03,1.39-3.83,2.33-5.39,2.84c-1.56,0.5-3.41,0.75-5.56,0.75c-2.64,0-4.79-0.45-6.45-1.35 c-1.66-0.9-2.95-2.24-3.87-4.02c-0.92-1.78-1.37-3.82-1.37-6.12c0-2.43,0.5-4.53,1.5-6.33c1-1.79,2.46-3.15,4.39-4.08 c1.51-0.72,3.53-1.08,6.08-1.08c2.45,0,4.29,0.22,5.51,0.67c1.22,0.45,2.23,1.13,3.03,2.07c0.8,0.94,1.41,2.12,1.81,3.55 l-6.61,1.19c-0.27-0.84-0.73-1.49-1.39-1.94c-0.65-0.45-1.48-0.67-2.49-0.67c-1.5,0-2.7,0.52-3.6,1.57 c-0.9,1.05-1.34,2.7-1.34,4.96c0,2.4,0.45,4.12,1.36,5.15c0.9,1.03,2.16,1.55,3.78,1.55c0.77,0,1.5-0.11,2.19-0.33 c0.69-0.22,1.49-0.6,2.39-1.13v-2.08H88.92L88.92,82.86z M97.79,57h9.93c4.16,0,7.56,3.41,7.56,7.56v31.42 c0,4.15-3.41,7.56-7.56,7.56h-9.93v13.55c0,1.61-0.65,3.04-1.7,4.1c-1.06,1.06-2.49,1.7-4.1,1.7c-29.44,0-56.59,0-86.18,0 c-1.61,0-3.04-0.64-4.1-1.7c-1.06-1.06-1.7-2.49-1.7-4.1V5.85c0-1.61,0.65-3.04,1.7-4.1c1.06-1.06,2.53-1.7,4.1-1.7h58.72 C64.66,0,64.8,0,64.94,0c0.64,0,1.29,0.28,1.75,0.69h0.09c0.09,0.05,0.14,0.09,0.23,0.18l29.99,30.36c0.51,0.51,0.88,1.2,0.88,1.98 c0,0.23-0.05,0.41-0.09,0.65V57L97.79,57z M67.52,27.97V8.94l21.43,21.7H70.19c-0.74,0-1.38-0.32-1.89-0.78 C67.84,29.4,67.52,28.71,67.52,27.97L67.52,27.97z"/></g></svg>