<svg xmlns="http://www.w3.org/2000/svg" viewBox="0 0 122.88 101.38"><defs><style>.a{fill-rule:evenodd;}</style></defs><title>plane-crashing</title><path class="a" d="M28.49,17.37C37,22.28,38.3,29.26,39.36,38.08l11.17,6.45L55.91,0C68.82,7.46,72.32,4.61,73.5,13.26a20,20,0,0,1,3.59-2.39c7.6-4,13.41-3.63,21.33-.52a27.08,27.08,0,0,1,8.46,5.21h0c-7.19,1.35-12.59,3.17-14.49,5.94a41.72,41.72,0,0,1,7.26.44c7.79,1.19,8.32,3.66,14.14,5.78a14.7,14.7,0,0,0,9.09.37C121.79,36.72,109.25,45.26,92.93,48a17.47,17.47,0,0,0,9.89,3.21,23.22,23.22,0,0,1-13.22,7c-6,1.17-10.78.55-14.19-2L75.5,59l23,13.26c3.23,1.86,3.85,6.9,1.38,11.2h0c-2.48,4.29-7.15,6.27-10.38,4.41l-23-13.26L56.39,80,61.7,83l-5.21,9L45.56,85.72l-8,4.25,4.13,2.4-5.21,9-9.76-5.63c-15,8-10.72,4.12-26.77-5.15L41.53,60.16,30.45,53.74c-8.14,4-14,6.37-23.48.88l5.86-10.35C16,43,18.39,42.16,20.08,41.46a11.73,11.73,0,0,1,1.3-3.36h0A11.42,11.42,0,0,1,24,35c-.21-1.92-.63-4.54-1-8.3l5.52-9.34ZM74.18,22.9l.23,3.46.3,9,.42,12.26.09,2.91a14.53,14.53,0,0,0,6.71-1.9,14.74,14.74,0,0,0,4.36-3.26c-4-.38-7-1.11-8.21-2.52A22.45,22.45,0,0,0,82,42.25c4.2-1,4.36-2.41,7.44-3.87a8.18,8.18,0,0,1,5-.66c-1-4.65-8.32-8.69-17.37-9.38a9.65,9.65,0,0,1,5.25-2.25,12.83,12.83,0,0,0-7.58-3.15l-.53,0Z"/></svg>