<svg id="Layer_1" data-name="Layer 1" xmlns="http://www.w3.org/2000/svg" viewBox="0 0 92.89 122.88"><title>plastic-recycling-code-number-1</title><path d="M90.65,60.07,83.94,48.45l-8.63,5L82,65.06a6.57,6.57,0,0,1-5.66,9.84H52.25v-5L35,79.84l17.27,10v-5H76.36a16.47,16.47,0,0,0,14.29-24.7ZM19.83,115.76v7.12H14.6V101.5h7.46A7.94,7.94,0,0,1,25,102a6.26,6.26,0,0,1,2.29,1.54,6.68,6.68,0,0,1,1.47,2.33,8.36,8.36,0,0,1,.48,2.9,8.09,8.09,0,0,1-.48,2.86,6,6,0,0,1-1.46,2.24h0A6.36,6.36,0,0,1,25,115.3a8.92,8.92,0,0,1-3,.46Zm0-4.55h2.23a2,2,0,0,0,.82-.15,1.51,1.51,0,0,0,.56-.41,2.18,2.18,0,0,0,.37-.73,4.18,4.18,0,0,0,.13-1.13,4.82,4.82,0,0,0-.14-1.2,2.69,2.69,0,0,0-.4-.87,1.59,1.59,0,0,0-.57-.5,1.54,1.54,0,0,0-.73-.17H19.83v5.16Zm23.66,2.93h-5.8v4.21h7.54v4.53H32.47V101.5H45.2v4.55H37.69v3.65h6.37v4.44Zm18.58-8.09H57.64v16.83H52.4V106.05H47.47V101.5H62.64v4.55Zm14.48,8.09h-5.8v4.21h7.54v4.53H65.53V101.5H78.26v4.55H70.75v3.65h6.37v4.44ZM51.45,38.82V62.31H45V46.94a18.54,18.54,0,0,1-3.05,1.92,23.12,23.12,0,0,1-3.7,1.41V45.05A15.55,15.55,0,0,0,43.3,42.5a10.5,10.5,0,0,0,2.84-3.68ZM16.53,84.77H30V74.9H16.53a6.56,6.56,0,0,1-5.66-9.83L23,44.14l4.33,2.49v-20L10,36.65l4.32,2.5L2.24,60.07a16.47,16.47,0,0,0,14.29,24.7ZM32.15,8.25l-6.7,11.62,8.63,5,6.71-11.62a6.52,6.52,0,0,1,11.31,0L64.18,34.16l-4.34,2.49,17.26,10v-20l-4.3,2.49L60.73,8.25a16.5,16.5,0,0,0-28.58,0Z"/></svg>