<svg id="Layer_1" data-name="Layer 1" xmlns="http://www.w3.org/2000/svg" viewBox="0 0 92.89 122.88"><title>plastic-recycling-code-number-5</title><path d="M90.65,60.07,83.94,48.45l-8.63,5L82,65.06a6.57,6.57,0,0,1-5.66,9.84H52.25v-5L35,79.84l17.27,10v-5H76.36a16.47,16.47,0,0,0,14.29-24.7ZM37.17,115.76v7.12H31.94V101.49h7.47a7.84,7.84,0,0,1,2.9.51,6.18,6.18,0,0,1,2.3,1.54,6.52,6.52,0,0,1,1.46,2.33,8.36,8.36,0,0,1,.48,2.9,6.8,6.8,0,0,1-1.93,5.1h0a6.32,6.32,0,0,1-2.32,1.42,8.9,8.9,0,0,1-3,.46Zm0-4.56h2.24a2,2,0,0,0,.81-.14,1.43,1.43,0,0,0,.56-.41,2,2,0,0,0,.37-.73,4.15,4.15,0,0,0,.14-1.13,4.38,4.38,0,0,0-.15-1.2,2.49,2.49,0,0,0-.4-.87,1.65,1.65,0,0,0-.56-.5,1.57,1.57,0,0,0-.73-.17H37.17v5.15ZM55,115.76v7.12H49.81V101.49h7.47a7.84,7.84,0,0,1,2.9.51,6.18,6.18,0,0,1,2.3,1.54,6.52,6.52,0,0,1,1.46,2.33,8.13,8.13,0,0,1,.49,2.9,6.81,6.81,0,0,1-1.94,5.1h0a6.32,6.32,0,0,1-2.32,1.42,8.9,8.9,0,0,1-3,.46Zm0-4.56h2.24a2,2,0,0,0,.82-.14,1.47,1.47,0,0,0,.55-.41,2,2,0,0,0,.37-.73,4.15,4.15,0,0,0,.14-1.13,4.38,4.38,0,0,0-.15-1.2,2.33,2.33,0,0,0-.4-.87,1.65,1.65,0,0,0-.56-.5,1.57,1.57,0,0,0-.73-.17H55v5.15Zm-15.53-72H54.74v5.14H44.42l-.55,3.45A11.45,11.45,0,0,1,46,47a8.68,8.68,0,0,1,2.07-.25,7.72,7.72,0,0,1,5.62,2.1,7.06,7.06,0,0,1,2.16,5.27,9.09,9.09,0,0,1-1.11,4.3,7.48,7.48,0,0,1-3.15,3.15,11.06,11.06,0,0,1-5.23,1.09,15.27,15.27,0,0,1-3.91-.44A7.8,7.8,0,0,1,39.67,61,7.4,7.4,0,0,1,37.82,59a9.9,9.9,0,0,1-1.19-2.71l6.49-.71A4,4,0,0,0,44.22,58a2.93,2.93,0,0,0,2.07.81,2.79,2.79,0,0,0,2.21-1,4.52,4.52,0,0,0,.88-3,4.36,4.36,0,0,0-.88-3,3,3,0,0,0-2.35-1,3.83,3.83,0,0,0-1.79.45,5.31,5.31,0,0,0-1.42,1.2l-5.47-.79,2-12.42Zm-23,45.57H30V74.9H16.53a6.56,6.56,0,0,1-5.66-9.83L23,44.14l4.33,2.49v-20L10,36.65l4.31,2.5L2.24,60.07a16.47,16.47,0,0,0,14.29,24.7ZM32.15,8.25l-6.7,11.62,8.63,5,6.71-11.62a6.52,6.52,0,0,1,11.31,0L64.18,34.16l-4.34,2.49,17.26,10v-20l-4.3,2.49L60.73,8.25a16.5,16.5,0,0,0-28.58,0Z"/></svg>