<svg id="Layer_1" data-name="Layer 1" xmlns="http://www.w3.org/2000/svg" viewBox="0 0 86.72 122.88"><defs><style>.cls-1{fill-rule:evenodd;}</style></defs><title>plastic-surgery</title><path class="cls-1" d="M29.56,3.25c7.47-5,16-3.94,23,1.42a18.63,18.63,0,0,1,4.68,5.25c1.06,1.79,2.93,5.46-.56,6-1.37.22-3.77-1.64-5.63-2.25a36.24,36.24,0,0,0-7.26-1.52,35.29,35.29,0,0,0-12.8,1,40.84,40.84,0,0,0-6,2.17c-.9.42-2.75,1.64-3.24.07-1.17-3.66,5.16-10.3,7.83-12.13Zm42.92,97.2-4.13,4.12a.89.89,0,0,1-1.25,0,.88.88,0,0,1,0-1.24l4.13-4.13-1.7-1.7-4.13,4.13a.88.88,0,0,1-1.24,0,.89.89,0,0,1,0-1.25l4.12-4.13-1.7-1.7-4.13,4.13a.88.88,0,0,1-1.24,0,.89.89,0,0,1,0-1.25l4.13-4.12-1.7-1.7-4.13,4.12a.88.88,0,0,1-1.25-1.24l4.13-4.13-.29-.29h0a4,4,0,0,0-5.64,0h0l-1.15,1.16a1,1,0,0,1-.45.45l-1.38,1.37h0a3.5,3.5,0,0,0,0,4.92h0l13.16,13.16,8.25-8.26-2.41-2.42Zm4.24,3.15-.85.84,4.73,4.74a3.65,3.65,0,0,1,2.42-.91,3.69,3.69,0,0,1,2.62,1.08h0a3.71,3.71,0,0,1,0,5.23l-7.22,7.22a3.69,3.69,0,0,1-2.62,1.08h0a3.69,3.69,0,0,1-2.61-1.08h0a3.72,3.72,0,0,1-.29-4.91l-4.74-4.74-.79.79a.8.8,0,0,1-.21.15l-1.76,1.76a.88.88,0,0,1-1.24-1.24l1.39-1.4L52.39,99.06h0a5.06,5.06,0,0,1,0-7.11h0l.75-.74-4.79-4.49c-.34-.34,0-1.31.35-1.65s1.34-.82,1.68-.48L55,89.36l.38-.38h0a5.55,5.55,0,0,1,7.82,0h0L76,101.77l1.26-1.25a.88.88,0,0,1,1.24,1.25l-1.62,1.62a.7.7,0,0,1-.14.21Zm-2.48,11.83,4.9-4.91L74.65,106l-4.9,4.9,4.49,4.5Zm-51-32.56a1.35,1.35,0,0,0-2.37,1.28c.44.81.92,1.63,1.42,2.4a1.35,1.35,0,0,0,2.27-1.45c-.48-.72-.9-1.47-1.32-2.23Zm10.62,15.6a1.35,1.35,0,0,0,1.46-2.26h0c-.7-.5-1.37-.93-2-1.5a1.34,1.34,0,0,0-1.7,2.08c.75.64,1.5,1.12,2.29,1.69Zm-6.38-5.42a1.35,1.35,0,0,0,1.94-1.87c-.58-.59-1.24-1.28-1.76-1.92a1.32,1.32,0,0,0-1.42-.41A1.34,1.34,0,0,0,25.62,91c.55.69,1.25,1.42,1.86,2Zm19.57,15.31A20.71,20.71,0,0,1,31.43,108a31,31,0,0,1-8.59-5.63,41.58,41.58,0,0,1-7.2-8.77,71.89,71.89,0,0,1-5.45-10.75,14,14,0,0,1-2.06-.78,14.24,14.24,0,0,1-2.55-1.53A14,14,0,0,1,1,73.86a20.32,20.32,0,0,1-.75-9,10.85,10.85,0,0,1,1.26-4A8,8,0,0,1,4.17,58h0a1.74,1.74,0,0,1,1-.27,44.13,44.13,0,0,1-.41-10.05c.35-9.58,2.78-17.22,10.32-23.85,11.38-10,33.92-10.89,46.45-2.27a27.74,27.74,0,0,1,5.15,4.58C71.81,32,76.34,44.8,76.25,52.7a18.78,18.78,0,0,1-1,5.58c0,.18-.07.39-.11.62A10.67,10.67,0,0,1,78.43,62a9.77,9.77,0,0,1,1.56,6,14.1,14.1,0,0,1-2.13,6.43,23.23,23.23,0,0,1-6.88,7c-1,2.06-2.16,4.17-3.33,6.26l-2.44-2.44A54.69,54.69,0,0,0,68,79.69a1.75,1.75,0,0,1,.68-.81A20.07,20.07,0,0,0,74.9,72.7a10.72,10.72,0,0,0,1.63-4.81A6.35,6.35,0,0,0,74,62.29,60.3,60.3,0,0,1,67.66,73V55.29c-8.11-3.75-13.42-12-16.13-24.44C48.3,54.5,19.25,53.47,12,57.79v13.8A65.34,65.34,0,0,1,8.2,65.65a29.29,29.29,0,0,1-2.15-4.74h0l0,0a4.47,4.47,0,0,0-1.54,1.63,7.22,7.22,0,0,0-.84,2.7,16.8,16.8,0,0,0,.6,7.49,10.37,10.37,0,0,0,3.45,5A11.58,11.58,0,0,0,9.6,79a13.78,13.78,0,0,0,2.27.8,1.71,1.71,0,0,1,1.2,1,69.19,69.19,0,0,0,5.49,11,38.24,38.24,0,0,0,6.6,8,27.36,27.36,0,0,0,7.61,5,17.29,17.29,0,0,0,13.09.28,20.56,20.56,0,0,0,4.56-2.42L53,105.3a27.93,27.93,0,0,1-6,3.06Zm4.79-39.3-1.32,1.63a1.13,1.13,0,0,1-1.6.18,1.14,1.14,0,0,1-.18-1.61l.91-1.14a1.15,1.15,0,0,1-.28-1.56,1.13,1.13,0,0,1,1.59-.3,7.42,7.42,0,0,0,3.9.86,7.89,7.89,0,0,0,4-1,1.13,1.13,0,0,1,1.57.35A1.14,1.14,0,0,1,60.09,68l-.11.07,1,1.12a1.13,1.13,0,0,1-.08,1.62,1.12,1.12,0,0,1-1.61-.08L57.73,69a10.3,10.3,0,0,1-1.64.31v1.61a1.15,1.15,0,1,1-2.29,0V69.36a12.69,12.69,0,0,1-2-.3Zm-30,0-1.29,1.59a1.15,1.15,0,0,1-1.79-1.43l.88-1.09,0,0a1.14,1.14,0,1,1,1.28-1.89,7.39,7.39,0,0,0,3.81.91,1.45,1.45,0,0,1,.3,0,1.07,1.07,0,0,1,.25,0,8.25,8.25,0,0,0,3.79-1,1.15,1.15,0,0,1,1.14,2l-.07,0,.93,1a1.15,1.15,0,0,1-1.7,1.55l-1.52-1.67a12.25,12.25,0,0,1-1.71.31V70.9a1.15,1.15,0,0,1-2.3,0V69.39a8.82,8.82,0,0,1-2-.3Zm28.9-6.49a1.14,1.14,0,1,1-1.32-1.86A11.52,11.52,0,0,1,56,58.42a11.73,11.73,0,0,1,6.75,2.3,1.14,1.14,0,0,1-1.3,1.88A9.6,9.6,0,0,0,56,60.7a9.07,9.07,0,0,0-5.28,1.9Zm-32.13,0a1.14,1.14,0,1,1-1.32-1.86,11.54,11.54,0,0,1,6.6-2.32,11.67,11.67,0,0,1,6.74,2.3,1.14,1.14,0,1,1-1.29,1.88,9.6,9.6,0,0,0-5.44-1.9,9.17,9.17,0,0,0-5.29,1.9Z"/></svg>