<svg id="Layer_1" data-name="Layer 1" xmlns="http://www.w3.org/2000/svg" viewBox="0 0 92.89 122.88"><title>plastic-recycling-code-number-4</title><path d="M90.65,60.07,83.94,48.45l-8.63,5L82,65.06a6.57,6.57,0,0,1-5.66,9.84H52.25v-5L35,79.84l17.27,10v-5H76.36a16.47,16.47,0,0,0,14.29-24.7ZM19.82,118.35H27v4.53H14.6V101.49h5.22v16.86Zm10.08,4V101.49h5.92a9.14,9.14,0,0,1,3.39.61,7.36,7.36,0,0,1,2.68,1.83,8.06,8.06,0,0,1,1.71,2.87,11.43,11.43,0,0,1,.58,3.69v3.28a11.82,11.82,0,0,1-.56,3.75,8,8,0,0,1-1.7,2.9,7.28,7.28,0,0,1-2.72,1.85,9.41,9.41,0,0,1-3.5.61H29.9v-.57Zm5.22-16.26v12.3h.66a4.54,4.54,0,0,0,1.54-.23,2,2,0,0,0,.89-.62,3.4,3.4,0,0,0,.53-1.25,10.39,10.39,0,0,0,.22-2.12v-3.52a12.32,12.32,0,0,0-.18-2.3,3.62,3.62,0,0,0-.51-1.33,2,2,0,0,0-.83-.66,4,4,0,0,0-1.4-.27Zm17.77,9.71v7.12H47.66V101.49h7.46A7.94,7.94,0,0,1,58,102a6.26,6.26,0,0,1,2.3,1.54,6.66,6.66,0,0,1,1.46,2.33,8.36,8.36,0,0,1,.48,2.9,6.77,6.77,0,0,1-1.94,5.1h0A6.36,6.36,0,0,1,58,115.3a8.92,8.92,0,0,1-3,.46Zm0-4.56h2.23a2,2,0,0,0,.82-.14,1.51,1.51,0,0,0,.56-.41,2.18,2.18,0,0,0,.37-.73,4.18,4.18,0,0,0,.13-1.13,4.39,4.39,0,0,0-.14-1.2,2.49,2.49,0,0,0-.4-.87,1.68,1.68,0,0,0-.57-.5,1.53,1.53,0,0,0-.72-.17H52.89v5.15Zm23.66,2.94H70.76v4.21h7.53v4.53H65.53V101.49H78.26v4.56h-7.5v3.65h6.36v4.44ZM47.93,58H36.25V52.71L47.93,38.82h5.58V53h2.91v5H53.51v4.32H47.93V58Zm0-5v-7.3L41.76,53ZM16.53,84.77H30V74.9H16.53a6.56,6.56,0,0,1-5.66-9.83L23,44.14l4.33,2.49v-20L10,36.65l4.31,2.5L2.24,60.07a16.47,16.47,0,0,0,14.29,24.7ZM32.15,8.25l-6.7,11.62,8.63,5,6.71-11.62a6.52,6.52,0,0,1,11.31,0L64.18,34.16l-4.34,2.49,17.26,10v-20l-4.3,2.49L60.73,8.25a16.5,16.5,0,0,0-28.58,0Z"/></svg>