<svg id="Layer_1" data-name="Layer 1" xmlns="http://www.w3.org/2000/svg" viewBox="0 0 92.67 122.88"><title>plastic-recycling-code-number-3</title><path d="M90.44,59.93,83.75,48.34l-8.62,5,6.7,11.6a6.55,6.55,0,0,1-5.64,9.81H52.13v-5l-17.23,10L52.13,89.6v-5H76.19A16.42,16.42,0,0,0,90.44,59.93ZM26.26,115.49v7.11H21V101.26h7.45a7.92,7.92,0,0,1,2.9.51,6.32,6.32,0,0,1,2.29,1.53,6.66,6.66,0,0,1,1.46,2.33,8.25,8.25,0,0,1,.48,2.88,6.84,6.84,0,0,1-1.93,5.1h0a6.11,6.11,0,0,1-2.3,1.42,8.9,8.9,0,0,1-3,.46Zm0-4.54h2.23a2,2,0,0,0,.81-.15,1.51,1.51,0,0,0,.56-.41,2,2,0,0,0,.37-.73,4.05,4.05,0,0,0,.13-1.12,4.39,4.39,0,0,0-.14-1.2,2.58,2.58,0,0,0-.4-.87,1.65,1.65,0,0,0-.56-.5,1.87,1.87,0,0,0-.73-.17H26.26V111ZM46,114l3-12.7h5.75L48.56,122.6h-5.1l-6.11-21.34h5.73L46,114Zm25.59,1.37a10.61,10.61,0,0,1-.59,3.21,6.44,6.44,0,0,1-1.52,2.4,6.15,6.15,0,0,1-2.36,1.46,9.22,9.22,0,0,1-3.08.48,8.09,8.09,0,0,1-3.25-.61,6.32,6.32,0,0,1-2.44-1.85h0a8.14,8.14,0,0,1-1.48-2.94,14.49,14.49,0,0,1-.47-3.85v-3.4a13.73,13.73,0,0,1,.49-3.85,8.24,8.24,0,0,1,1.52-2.93,6.47,6.47,0,0,1,2.47-1.85,8,8,0,0,1,3.22-.61,9,9,0,0,1,3.09.49A5.85,5.85,0,0,1,69.53,103,7.11,7.11,0,0,1,71,105.44a11.57,11.57,0,0,1,.63,3.21l0,.6H66.42v-.55a9.42,9.42,0,0,0-.18-1.7,2.4,2.4,0,0,0-.37-.93,1.25,1.25,0,0,0-.59-.41,3.47,3.47,0,0,0-1.16-.17,2.56,2.56,0,0,0-1.15.23,1.64,1.64,0,0,0-.69.64,4.35,4.35,0,0,0-.45,1.34,13.81,13.81,0,0,0-.19,2.14v3.83a16.53,16.53,0,0,0,.16,2.45,4.23,4.23,0,0,0,.43,1.39,1.65,1.65,0,0,0,.68.63,2.62,2.62,0,0,0,1.15.22,3.55,3.55,0,0,0,1.17-.16,1.22,1.22,0,0,0,.6-.4h0a2.4,2.4,0,0,0,.38-.89,9.27,9.27,0,0,0,.2-1.62l0-.55h5.21l0,.59ZM43,45.78,37,44.7a7.54,7.54,0,0,1,2.9-4.43,10.22,10.22,0,0,1,6.06-1.54q4.5,0,6.51,1.68a5.28,5.28,0,0,1,2,4.23,4.64,4.64,0,0,1-.82,2.69,6.73,6.73,0,0,1-2.45,2.12,7,7,0,0,1,2,.78A4.89,4.89,0,0,1,55,52.09a5.58,5.58,0,0,1,.64,2.76,7.7,7.7,0,0,1-1,3.86,7.08,7.08,0,0,1-3,2.85,11.71,11.71,0,0,1-5.21,1,13.3,13.3,0,0,1-5-.74,7.38,7.38,0,0,1-3-2.16,10,10,0,0,1-1.8-3.58L43,55.21a5,5,0,0,0,1.17,2.7,2.82,2.82,0,0,0,2,.75,2.78,2.78,0,0,0,2.14-.95,3.57,3.57,0,0,0,.85-2.51,3.51,3.51,0,0,0-.82-2.49,2.93,2.93,0,0,0-2.23-.88,8.18,8.18,0,0,0-2.07.38l.34-4.58a6.15,6.15,0,0,0,.82.08,2.88,2.88,0,0,0,2.07-.8A2.54,2.54,0,0,0,48.14,45a2.26,2.26,0,0,0-.62-1.67,2.33,2.33,0,0,0-1.72-.63A2.54,2.54,0,0,0,44,43.4,4.13,4.13,0,0,0,43,45.78ZM16.49,84.57h13.4V74.72H16.49a6.54,6.54,0,0,1-5.64-9.8L22.91,44l4.31,2.48V26.62L10,36.57l4.31,2.49L2.23,59.93A16.42,16.42,0,0,0,16.49,84.57ZM32.08,8.23,25.39,19.82l8.61,5,6.7-11.59a6.51,6.51,0,0,1,11.28,0L64,34.08,59.7,36.57l17.22,10V26.62l-4.29,2.49-12-20.88a16.46,16.46,0,0,0-28.51,0Z"/></svg>