<svg id="Layer_1" data-name="Layer 1" xmlns="http://www.w3.org/2000/svg" viewBox="0 0 122.88 83.93"><title>plumbing</title><path d="M107.17,48.2H88.4L93,65.36h14.17V48.2Zm-97.06-16C5.21,29.66.7,26.36.05,18.65c-.42-5,1.63-10.24,5.38-14.42.43,20.51,25.25,16,16.35-4.23C32,2.58,36.27,11.59,34.37,21.42c-.89,4.65-1.24,7.19-.85,9.43a13.81,13.81,0,0,0,1.31,3.73c.82,1.71,2.52,5,5,9.81l.87-.13a2.12,2.12,0,0,1,.44,0H56.76l2.66-9.08a2,2,0,0,1,1.9-1.43h4.06V24.2H56.51A6.12,6.12,0,0,1,52,22a7.62,7.62,0,0,1-1.93-4.93A7.66,7.66,0,0,1,52,12.15,6.09,6.09,0,0,1,56.51,10H87a6.06,6.06,0,0,1,4.54,2.2l.09.1a7.64,7.64,0,0,1,1.83,4.82A7.67,7.67,0,0,1,91.53,22,6.13,6.13,0,0,1,87,24.2H78.13v9.51H83a2,2,0,0,1,1.94,1.57l2.4,8.94h19.84V40.74a2.36,2.36,0,0,1,.71-1.67L108,39a2.77,2.77,0,0,1,1.82-.67h10.39a2.74,2.74,0,0,1,2,.79,2.36,2.36,0,0,1,.71,1.67V73.5a2.36,2.36,0,0,1-.71,1.67l-.13.11a2.72,2.72,0,0,1-1.82.68H109.83a2.78,2.78,0,0,1-2-.79,2.36,2.36,0,0,1-.71-1.67V69.34H93.26a18.12,18.12,0,0,1-9.81,12,25.28,25.28,0,0,1-11.34,2.57A26.6,26.6,0,0,1,60.7,81.41,18.75,18.75,0,0,1,50.25,69.34H50a7.81,7.81,0,0,0-4.74,1.44,5.32,5.32,0,0,0-1.73,3.53v6.93a2,2,0,0,1-2,2H20.36a2,2,0,0,1-2-2V66.14a1.84,1.84,0,0,1,0-.33c1-6.06,3.33-11,7-14.68.46-.46.94-.89,1.44-1.31-2.41-4.83-3.25-6.59-4.21-8.29a14,14,0,0,0-2.61-3.64c-1.7-1.62-4.1-2.68-9.91-5.65l0-.06ZM50.55,65.36l5-17.16H41.17c-5.61.75-9.87,2.71-12.93,5.74s-5,7.2-5.89,12.36v13H39.51v-5a1.87,1.87,0,0,1,0-.34,9.08,9.08,0,0,1,3.15-6.14,11.57,11.57,0,0,1,7.2-2.35ZM62.81,37.69,54.1,67.38A2,2,0,0,1,54,68a14.85,14.85,0,0,0,8.41,9.87A22.76,22.76,0,0,0,72.11,80a21.4,21.4,0,0,0,9.55-2.15,14.28,14.28,0,0,0,7.89-10L81.46,37.69ZM119.7,41h-9.35V73.19h9.35V41Z"/></svg>