<svg id="Layer_1" data-name="Layer 1" xmlns="http://www.w3.org/2000/svg" viewBox="0 0 79.37 122.88"><defs><style>.cls-1{fill-rule:evenodd;}</style></defs><title>pm</title><path class="cls-1" d="M9.23,0H70.14a9.25,9.25,0,0,1,9.23,9.23V68.35H0V9.23A9.25,9.25,0,0,1,9.23,0ZM26.65,103.56h-5v5.79H14V85.42H26.08q8.22,0,8.23,8.84,0,4.86-2.15,7.2A6.26,6.26,0,0,1,29.94,103a8.18,8.18,0,0,1-3.29.61Zm-5-12v5.9h1.76a5.19,5.19,0,0,0,2-.29,1.3,1.3,0,0,0,.64-1.32V93.15a1.3,1.3,0,0,0-.64-1.32,5.19,5.19,0,0,0-2-.29Zm22.55,17.81h-8l1.46-23.93h10l3,12.17h.26l3-12.17h10l1.45,23.93h-8l-.46-11.6h-.27l-2.91,11.6H47.86l-3-11.6h-.23l-.46,11.6ZM39.64,14.21A16.12,16.12,0,1,0,58.65,40c1.42-1.32,3.06-.36,2.51,1.22A22.14,22.14,0,1,1,38.82,11.88c2.13-.13,2.69,1.25.82,2.33ZM79.37,73.79v39.86a9.25,9.25,0,0,1-9.23,9.23H9.23A9.25,9.25,0,0,1,0,113.65V73.79Z"/></svg>