<?xml version="1.0" encoding="utf-8"?><svg version="1.1" id="Layer_1" xmlns="http://www.w3.org/2000/svg" xmlns:xlink="http://www.w3.org/1999/xlink" x="0px" y="0px" viewBox="0 0 122.88 112.04" style="enable-background:new 0 0 122.88 112.04" xml:space="preserve"><style type="text/css">.st0{fill-rule:evenodd;clip-rule:evenodd;fill:#050505;}</style><g><path class="st0" d="M33.76,15.91c5.02-2.41,9.5-4.52,13.48-7.4c5.66-4.1,7.7-9.57,15.91-8.33c4.37,0.66,8.28,5.8,11.73,8.7 c3.9,3.28,8.16,5.55,12.4,7.11c5.17,1.67,4.41,3.23,1.9,7.67c-0.65,1.15-1.38,2.15-2.2,3.04l0.31,3.34l-1.21,1.47l-0.46,6.3 l0.31,3.45c0.85,0.07,1.47,0.54,1.89,1.3c0.51,0.91,0.65,2.27,0.52,3.76c-0.13,1.42-0.5,2.97-1.05,4.38 c-0.97,2.49-2.53,4.54-4.34,4.73c-0.21,0.67-0.41,1.34-0.6,1.99c-0.93,3.14-1.66,5.61-3.56,8.02c-0.86,1.09-1.83,2.08-2.87,2.97 l0.2,3l6.63,4.24L71,96.85L62.05,85.9l-0.04,0.03l0,0c-0.26,0.19-0.61,0.21-0.88,0l-0.07-0.05l-8.97,10.97l-11.76-21.2l6.35-4.06 l0.17-3.68c-0.77-0.68-1.5-1.41-2.18-2.2c-2.33-2.73-3.3-5.62-4.56-9.38c-0.16-0.47-0.32-0.95-0.47-1.4 c-1.59,0.02-2.94-1.33-3.89-3.22c-0.74-1.46-1.25-3.26-1.44-4.92c-0.2-1.74-0.03-3.36,0.59-4.39c0.45-0.73,1.08-1.18,1.93-1.22 l0.29-2.95l-0.66-6.56l-1.14-1.4l0.31-3.87c-1.34-1.69-2.46-3.76-3.33-5.72C30.93,17.57,31.15,17.17,33.76,15.91L33.76,15.91z M48.19,71.83l9.46,9.52l3.91,2.91l3.9-2.94l9.17-9.24l-0.16-2.46c-1.12,0.75-2.27,1.4-3.44,1.95l0,0l-0.01,0 c-3.19,1.53-6.59,2.28-9.6,2.22c-2.42-0.05-5.12-0.63-7.76-1.71c-1.77-0.69-3.56-1.61-5.35-2.78L48.19,71.83L48.19,71.83z M94.29,81.8l0.09,15.83H104C104,85.2,106.57,84.62,94.29,81.8L94.29,81.8z M28.59,81.8L28.5,97.63h-9.62 C18.88,85.2,16.31,84.62,28.59,81.8L28.59,81.8z M122.88,112.04H63.85V94.83l7.34,9.46l15.7-27.87 C117.84,79.23,115.93,87.37,122.88,112.04L122.88,112.04z M0,112.04h59.03V94.83l-7.34,7.21L35.99,76.42 C5.04,79.23,6.95,87.37,0,112.04L0,112.04z M61.61,72.06c2.72,0.03,5.38-0.52,7.92-1.58c0.27-0.12,0.53-0.24,0.79-0.36 c2.7-1.3,5.24-3.2,7.2-5.68c1.7-2.15,2.4-4.49,3.28-7.47c0.23-0.77,0.47-1.59,0.77-2.54c0.1-0.42,0.5-0.69,0.93-0.62 c1.2,0.21,2.44-1.54,3.28-3.69c0.5-1.27,0.84-2.67,0.95-3.93c0.11-1.18,0.02-2.21-0.32-2.83c-0.2-0.36-0.54-0.53-1.04-0.43l0,0 c-0.03,0.01-0.06,0.01-0.1,0.01c-0.32,0.03-0.61-0.13-0.77-0.39l-2.04,1.27l0.01,0.02l-0.36,0.21l-0.43,0.27l0-0.02l-1.59,0.91 c1.58,10.35-11.82,15.01-16.98,2.87h-3.6c-5.28,12.11-18.47,7.7-17-2.97l-1.86-1.06l0,0l-2.51-1.41c-0.2,0.2-0.49,0.29-0.78,0.22 c-0.51-0.13-0.86,0.04-1.08,0.39c-0.43,0.7-0.52,1.96-0.36,3.36c0.17,1.48,0.62,3.08,1.27,4.37c0.76,1.51,1.76,2.56,2.78,2.27l0,0 c0.41-0.12,0.84,0.11,0.98,0.52c0.28,0.81,0.49,1.44,0.7,2.05c1.21,3.59,2.13,6.35,4.26,8.84c1.95,2.29,4.44,4.08,7.05,5.35 c0.57,0.28,1.15,0.53,1.73,0.75C57.03,71.61,59.35,72.04,61.61,72.06L61.61,72.06z M57.51,65.73c-0.45,0-0.81-0.36-0.81-0.81 s0.36-0.81,0.81-0.81h0.96c0.17,0,0.33,0.05,0.47,0.15c0.74,0.42,1.46,0.66,2.17,0.68c0.71,0.02,1.42-0.19,2.15-0.68 c0.14-0.09,0.3-0.14,0.45-0.14v0h1.37c0.45,0,0.81,0.36,0.81,0.81s-0.36,0.81-0.81,0.81h-1.13c-0.95,0.59-1.91,0.84-2.87,0.82 c-0.95-0.02-1.88-0.32-2.81-0.82H57.51L57.51,65.73z M81.29,41.68l-0.74-5.06c-5.71,3.56-12.22,5.15-19.32,5.32 c-6.79-0.05-13.3-1.54-19.36-5.35l-0.86,5.18l2.07,0.83v0l0.04,0.02l0.26,0.1l0,0c11.77,4.93,23.53,4.66,35.3,0.01L81.29,41.68 L81.29,41.68z M61.55,15.24l1.32,3.1l3.35,0.3c0.15,0.01,0.26,0.14,0.24,0.29c-0.01,0.07-0.04,0.13-0.09,0.18l0,0l-2.54,2.22 l0.75,3.28c0.03,0.15-0.06,0.29-0.2,0.32c-0.07,0.02-0.15,0-0.21-0.04l-2.88-1.72l-2.89,1.73c-0.13,0.08-0.29,0.03-0.37-0.09 C58.01,24.77,58,24.72,58,24.67c0-0.02,0-0.04,0.01-0.06h0l0.75-3.28l-2.54-2.22c-0.11-0.1-0.12-0.27-0.03-0.38 c0.05-0.05,0.12-0.09,0.19-0.09l3.35-0.3l1.32-3.1c0.06-0.14,0.22-0.2,0.35-0.14C61.47,15.12,61.52,15.17,61.55,15.24L61.55,15.24z M61.27,11.4c3.41,2.16,6.5,3.19,9.14,2.94c0.46,9.35-2.99,14.87-9.11,17.17c-5.91-2.16-9.4-7.44-9.14-17.31 C55.27,14.36,58.32,13.69,61.27,11.4L61.27,11.4z"/></g></svg>