<?xml version="1.0" encoding="utf-8"?><svg version="1.1" id="Layer_1" xmlns="http://www.w3.org/2000/svg" xmlns:xlink="http://www.w3.org/1999/xlink" x="0px" y="0px" viewBox="0 0 119.79 122.88" style="enable-background:new 0 0 119.79 122.88" xml:space="preserve"><g><path d="M29.81,59.44c3.64,6.56,7.83,12.86,13.28,18.61c5.46,5.78,12.25,11.04,21.05,15.53c0.65,0.32,1.27,0.32,1.82,0.1 c0.84-0.32,1.69-1.01,2.53-1.85c0.65-0.65,1.46-1.69,2.31-2.83c3.38-4.45,7.57-9.97,13.48-7.21c0.13,0.06,0.23,0.13,0.36,0.19 l19.72,11.34c0.06,0.03,0.13,0.1,0.19,0.13c2.6,1.79,3.67,4.55,3.7,7.67c0,3.18-1.17,6.76-2.89,9.78 c-2.27,3.99-5.62,6.63-9.48,8.38c-3.67,1.69-7.76,2.6-11.69,3.18c-6.17,0.91-11.95,0.33-17.86-1.49 c-5.78-1.79-11.6-4.74-17.96-8.67L47.9,112c-2.92-1.82-6.07-3.77-9.16-6.07C27.41,97.38,15.88,85.04,8.37,71.46 c-6.3-11.4-9.74-23.71-7.86-35.44c1.04-6.43,3.8-12.28,8.61-16.14c4.19-3.38,9.84-5.23,17.15-4.58c0.84,0.06,1.59,0.55,1.98,1.27 l12.64,21.37c1.85,2.4,2.08,4.77,1.07,7.15c-0.84,1.95-2.53,3.74-4.84,5.42c-0.68,0.58-1.49,1.17-2.34,1.79 c-2.83,2.05-6.04,4.42-4.94,7.21L29.81,59.44L29.81,59.44z M73.07,0c-3.52,0-6.53,1.24-9.04,3.72c-2.51,2.48-3.72,5.49-3.72,9.04 v22.39c0,3.55,1.24,6.56,3.72,9.04c2.48,2.48,5.49,3.72,9.04,3.72h10.48c-0.73,2.82-1.63,5.49-2.76,8 c-1.1,2.53-2.98,4.96-5.58,7.26c4.98-1.3,9.4-3.24,13.32-5.8c3.89-2.53,7.26-5.72,10.05-9.46h8.45c3.52,0,6.53-1.27,9.04-3.72 c2.51-2.48,3.72-5.49,3.72-9.04V12.76c0-3.52-1.24-6.53-3.72-9.04C113.59,1.21,110.58,0,107.03,0C95.71,0,84.39,0,73.07,0L73.07,0z M80.79,9.75h12.94c2.82,0,4.93,0.72,6.34,2.17c1.4,1.45,2.1,3.51,2.1,6.19c0,2.75-0.77,4.9-2.3,6.44 c-1.53,1.55-3.87,2.32-7.01,2.32H88.6v10.06h-7.81V9.75L80.79,9.75z M88.6,21.37h1.92c1.51,0,2.57-0.28,3.18-0.85 c0.61-0.56,0.91-1.28,0.91-2.16c0-0.85-0.26-1.58-0.8-2.17c-0.53-0.6-1.52-0.89-2.99-0.89H88.6V21.37L88.6,21.37z"/></g></svg>