<?xml version="1.0" encoding="utf-8"?><svg version="1.1" id="Layer_1" xmlns="http://www.w3.org/2000/svg" xmlns:xlink="http://www.w3.org/1999/xlink" x="0px" y="0px" viewBox="0 0 68.65 122.88" style="enable-background:new 0 0 68.65 122.88" xml:space="preserve"><style type="text/css">.st0{fill-rule:evenodd;clip-rule:evenodd;}</style><g><path class="st0" d="M34.13,0c8.84,0,16,7.16,16,16c0,8.84-7.16,16-16,16c-8.84,0-16-7.16-16-16C18.13,7.16,25.29,0,34.13,0 L34.13,0z M50.76,41.65v28.19c2.14,4.76,6.37,6.99,9.61,7.93l-9.9,8.35v28.84c0,10.57-14.2,10.58-14.2,0V80.34H32v34.61 c0,10.57-14.2,10.58-14.2,0V85.98l-9.71-8.21c3.54-1.53,7.48-3.63,9.42-7.52V42.29l-5.3,3.29l1.34,17.59 c0.25,3.29-2.23,6.16-5.52,6.41s-6.16-2.23-6.41-5.52L0,42.86l0.02,0c-0.16-2.15,0.86-4.31,2.82-5.52l15.56-9.64 c0.57,0.77,1.2,1.49,1.87,2.16c1.42,1.42,3.07,2.63,4.88,3.57l1.23,3.36l3.93,10.71l1.95-8.96h-0.38c-0.69,0-1.25-0.56-1.25-1.25 v-2.03c0-2.77,7.01-3.27,7.01,0v2.03c0,0.69-0.56,1.25-1.25,1.25h-0.66l1.95,8.96l4.24-10.96l1.2-3.12 c1.81-0.93,3.45-2.14,4.88-3.57c0.74-0.74,1.43-1.54,2.04-2.4l15.61,9.01c2.09,1.2,3.18,3.48,2.97,5.73l0,0l-2.33,22.8 c-0.31,3.28-3.22,5.69-6.5,5.38c-3.28-0.31-5.69-3.22-5.38-6.5l1.96-19L50.76,41.65L50.76,41.65z M29.48,23.78 c-0.57,0.3-1.28,0.09-1.58-0.48c-0.3-0.57-0.09-1.28,0.48-1.58c1.54-0.82,3.65-1.25,5.71-1.31c2.16-0.06,4.32,0.28,5.76,0.99 c0.58,0.28,0.82,0.98,0.54,1.56c-0.28,0.58-0.98,0.82-1.56,0.54c-1.11-0.54-2.86-0.8-4.67-0.75C32.42,22.8,30.69,23.14,29.48,23.78 L29.48,23.78z"/></g></svg>