<svg xmlns="http://www.w3.org/2000/svg" shape-rendering="geometricPrecision" text-rendering="geometricPrecision" image-rendering="optimizeQuality" fill-rule="evenodd" clip-rule="evenodd" viewBox="0 0 512 451.03"><path d="M213.17 390.59c53.96 52.06 130.29 67.78 206.61 35.26l64.05 25.18-21.22-50.47c71.17-57 58.43-135.34 6.04-188.75-3.51 20.53-10.46 39.99-20.36 57.98-14.07 25.58-34.21 48.33-58.89 67.05-23.91 18.15-51.82 32.38-82.24 41.58-28.99 8.77-60.74 13.15-93.98 12.17h-.01zM223.6 89.12l21.86 51.14 55.41 4.96c2.47.19 4.25 2.35 4.06 4.83-.12 1.21-.63 2.22-1.52 2.99l-41.94 36.6 12.39 54.26c.57 2.41-.95 4.76-3.37 5.33-1.2.26-2.47 0-3.43-.63l-47.65-28.47-47.78 28.6c-2.1 1.27-4.83.57-6.1-1.53-.64-1.02-.76-2.22-.51-3.3l12.39-54.26-41.94-36.6c-1.84-1.59-2.03-4.45-.44-6.29.89-.96 2.03-1.4 3.18-1.47l55.28-4.95 21.85-51.21c.96-2.29 3.56-3.31 5.85-2.36 1.14.45 1.97 1.34 2.41 2.36zm1.28-89 .22.01c60.08 1.82 113.95 23.17 152.5 56.22 39.2 33.61 62.71 79.31 61.24 129.15v.11c-1.51 49.92-27.76 94.22-68.97 125.49-40.55 30.77-95.69 48.92-155.8 47.15-16.83-.49-33.1-2.5-48.59-5.83-14.55-3.14-28.52-7.46-41.73-12.81L29.8 376.55l31.39-74.66c-18.84-16.19-34.06-35.17-44.59-56.04C5.23 223.32-.71 198.58.07 172.76c1.5-49.91 27.75-94.22 68.96-125.49C109.58 16.5 164.73-1.65 224.84.12h.04zm-.46 21.57-.22-.01c-55.07-1.61-105.36 14.84-142.15 42.75-36.12 27.42-59.12 65.9-60.42 108.92-.67 22.12 4.45 43.37 14.24 62.78 10.29 20.4 25.74 38.8 45.05 54.1l6.43 5.09-17.83 42.4 54.49-21.43 4.07 1.74c13.14 5.61 27.17 10.08 41.88 13.25 14.4 3.1 29.37 4.96 44.7 5.41 55.09 1.62 105.4-14.84 142.19-42.75 36.13-27.42 59.13-65.89 60.43-108.92v-.11c1.26-42.99-19.35-82.7-53.72-112.16-35.01-30.01-84.13-49.4-139.1-51.06h-.04z"/></svg>