<svg xmlns="http://www.w3.org/2000/svg" shape-rendering="geometricPrecision" text-rendering="geometricPrecision" image-rendering="optimizeQuality" fill-rule="evenodd" clip-rule="evenodd" viewBox="0 0 512 439.26"><path fill-rule="nonzero" d="m255.78 112.65 24.09 56.37 61.06 5.46c2.73.21 4.7 2.59 4.49 5.32-.15 1.33-.7 2.46-1.69 3.3l-46.21 40.33 13.65 59.8c.63 2.66-1.05 5.26-3.71 5.88-1.33.29-2.73 0-3.78-.69l-52.52-31.37-52.66 31.51c-2.31 1.39-5.32.63-6.73-1.68a4.82 4.82 0 0 1-.55-3.65l13.65-59.8-46.22-40.33c-2.02-1.76-2.24-4.91-.48-6.94.98-1.04 2.23-1.54 3.5-1.61l60.92-5.46 24.09-56.44c1.05-2.52 3.92-3.65 6.44-2.59 1.26.49 2.17 1.47 2.66 2.59zM262.28.14l.23.01c70.14 2.12 133.01 27.03 177.98 65.58 45.71 39.19 73.14 92.52 71.43 150.65v.39c-1.85 58.12-32.45 109.72-80.46 146.14-47.29 35.89-111.62 57.06-181.75 55-19.64-.57-38.62-2.91-56.68-6.8-16.95-3.66-33.25-8.7-48.67-14.94l-109.6 43.09 36.62-87.1c-21.99-18.88-39.75-41.03-52.03-65.37C6.1 260.52-.83 231.66.08 201.52c1.75-58.21 32.38-109.9 80.45-146.38 47.29-35.89 111.63-57.06 181.75-55zm-.41 25.15-.23-.01C197.33 23.39 138.63 42.6 95.71 75.16c-42.13 31.98-68.98 76.87-70.49 127.06-.77 25.79 5.2 50.58 16.62 73.23 12.01 23.8 30.03 45.27 52.54 63.1l7.51 5.95-20.81 49.46 63.56-24.99 4.76 2.02c15.31 6.54 31.69 11.76 48.85 15.46 16.81 3.62 34.29 5.79 52.16 6.31 64.26 1.89 122.96-17.31 165.87-49.87 42.15-31.98 68.98-76.88 70.49-127.06l.01-.39c1.39-50.03-22.64-96.27-62.66-130.58-40.84-35.01-98.15-57.63-162.25-59.57z"/></svg>