<svg id="Layer_1" data-name="Layer 1" xmlns="http://www.w3.org/2000/svg" viewBox="0 0 120.96 122.88"><defs><style>.cls-1,.cls-2,.cls-3{fill-rule:evenodd;}.cls-2{fill:#f0a09c;}.cls-3{fill:#f6c8c5;}</style></defs><title>pork</title><path class="cls-1" d="M90.15,18.93a100.69,100.69,0,0,0,9.95-7.81A105.94,105.94,0,0,0,110.06,1a2.74,2.74,0,0,1,3.86-.3,3,3,0,0,1,.31.31h0c3.52,4.16,5.32,12.17,5.19,20.45-.12,7.38-1.76,15.13-5.06,20.66A51.68,51.68,0,0,1,121,67.33c0,15.37-6.8,29.28-17.8,39.34a63.11,63.11,0,0,1-42.68,16.21A63.1,63.1,0,0,1,17.8,106.67C6.8,96.62,0,82.71,0,67.34A51.67,51.67,0,0,1,6.25,42.72C2.68,37.16.92,29.09.79,21.42.66,13.15,2.46,5.14,6,1H6A3,3,0,0,1,6.29.67a2.74,2.74,0,0,1,3.86.3,105.94,105.94,0,0,0,10,10.16,100.21,100.21,0,0,0,10.27,8,65.18,65.18,0,0,1,59.77-.23Z"/><path class="cls-2" d="M100.52,31a59.17,59.17,0,0,0-40-15.15A59.15,59.15,0,0,0,20.44,31C10.26,40.29,4,53.15,4,67.34s6.3,27,16.47,36.35a59.17,59.17,0,0,0,40,15.15,59.15,59.15,0,0,0,40-15.15C110.68,94.38,117,81.53,117,67.34S110.69,40.29,100.52,31Z"/><path class="cls-2" d="M8.52,38.5A65.42,65.42,0,0,1,18,27.76a70.28,70.28,0,0,1,8.48-6.61,121.62,121.62,0,0,1-10-8,123.53,123.53,0,0,1-9.13-9c-1.76,4-2.63,9.88-2.53,16,.1,6.5,1.33,13.21,3.75,18.36Z"/><path class="cls-2" d="M111.85,37.94a47,47,0,0,0,3.42-17.62c.11-6.15-.76-12-2.53-16a125.53,125.53,0,0,1-9.13,9A120.83,120.83,0,0,1,94,21a68.6,68.6,0,0,1,8.92,6.9,65.41,65.41,0,0,1,8.92,10Z"/><path class="cls-1" d="M85.53,46a6.81,6.81,0,1,1-6.81,6.81A6.81,6.81,0,0,1,85.53,46Z"/><path class="cls-1" d="M34.46,46a6.81,6.81,0,1,1-6.81,6.81A6.81,6.81,0,0,1,34.46,46Z"/><path class="cls-1" d="M60.48,61.39a37.84,37.84,0,0,1,22.08,6.69c5.94,4.32,9.62,10.36,9.62,17.09S88.51,98,82.56,102.26A37.82,37.82,0,0,1,60.48,109a37.84,37.84,0,0,1-22.08-6.69c-5.94-4.32-9.62-10.36-9.62-17.09s3.67-12.78,9.62-17.09a37.8,37.8,0,0,1,22.08-6.69Z"/><path class="cls-3" d="M80.65,71.63c-5.13-3.72-12.26-6-20.18-6s-15,2.3-20.18,6c-4.86,3.53-7.85,8.32-7.85,13.54s3,10,7.85,13.53c5.13,3.72,12.26,6,20.18,6s15-2.3,20.18-6c4.85-3.53,7.85-8.31,7.85-13.53s-3-10-7.85-13.54Z"/><path class="cls-1" d="M71.32,78.21A6.81,6.81,0,1,1,64.51,85a6.81,6.81,0,0,1,6.81-6.81Z"/><path class="cls-1" d="M49.4,78.21A6.81,6.81,0,1,1,42.59,85a6.81,6.81,0,0,1,6.81-6.81Z"/></svg>