<svg xmlns="http://www.w3.org/2000/svg" viewBox="0 0 122.88 63.89"><path d="M0 0h122.88v63.89H0V0zm61.13 33.92l.07 1.66c0 1.11-.29 1.99-.85 2.62h8.92v3.94H53.6V38.2h1.51c.55-.15.85-.66.88-1.51v-.77l-.07-1.99h-2.36V30.1h2.25l-.07-3.17c0-1.99.59-3.58 1.81-4.72 1.18-1.14 2.8-1.7 4.87-1.7 2.18 0 3.91.55 5.12 1.7 1.22 1.14 1.84 2.65 1.84 4.57h-4.83c0-1.55-.66-2.29-1.99-2.29-.52 0-.88.18-1.22.59-.29.41-.44 1-.44 1.84l.15 3.17h4.5v3.83h-4.42zm.29-20.76c10.4 0 18.8 8.41 18.8 18.8 0 10.4-8.41 18.8-18.8 18.8-10.4 0-18.8-8.41-18.8-18.8s8.4-18.8 18.8-18.8zM20.5 9.73h81.7c0 5.2 4.24 9.44 9.44 9.44v25.25c-5.2 0-9.44 4.24-9.44 9.44H20.5c0-5.2-4.24-9.44-9.44-9.44V19.17c5.2 0 9.44-4.24 9.44-9.44z" fill-rule="evenodd" clip-rule="evenodd"/></svg>