<svg id="Layer_1" data-name="Layer 1" xmlns="http://www.w3.org/2000/svg" viewBox="0 0 122.88 102.59"><title>pretzel</title><path d="M105.49,88.87A7.64,7.64,0,1,1,96.22,101,150.59,150.59,0,0,1,81.09,87.79a73.54,73.54,0,0,1-19.85,2.69,72.91,72.91,0,0,1-19-2.54,128.56,128.56,0,0,1-15.7,13.22,7.65,7.65,0,1,1-8.91-12.44q4.82-3.45,9.06-7.17A56.06,56.06,0,0,1,8,63.56,48.63,48.63,0,0,1,.12,33.87,35.2,35.2,0,0,1,20,4.21,39.62,39.62,0,0,1,35.56.07,35.68,35.68,0,0,1,51.25,2.69,29.66,29.66,0,0,1,61.59,9.86,29.75,29.75,0,0,1,72.86,2.3,35.65,35.65,0,0,1,88.22.1a39.35,39.35,0,0,1,15.15,4.25c10.67,5.51,19,16.06,19.48,31.15a49.27,49.27,0,0,1-8.46,28.93A55.75,55.75,0,0,1,96.5,81.38q4.23,3.84,9,7.49ZM69.64,74.63A121.6,121.6,0,0,1,61.53,62.4a111.6,111.6,0,0,1-7.9,12.32,58.7,58.7,0,0,0,7.61.5,57.57,57.57,0,0,0,8.4-.59ZM37.8,70.19c.62-.74,1.23-1.49,1.82-2.24A97.87,97.87,0,0,0,54,42.48V28.08a14.21,14.21,0,0,0-8.63-11.33,20.33,20.33,0,0,0-9-1.43,24.33,24.33,0,0,0-9.55,2.52A20.28,20.28,0,0,0,15.37,35a33.54,33.54,0,0,0,5.47,20.41,40.53,40.53,0,0,0,17,14.83ZM69.26,44a108.35,108.35,0,0,0,13.85,23c.77,1,1.56,2,2.37,2.92a40.2,40.2,0,0,0,16.16-14,34.15,34.15,0,0,0,6-20,20.43,20.43,0,0,0-11.23-18,24.12,24.12,0,0,0-9.23-2.58,20.53,20.53,0,0,0-8.78,1.19,14.26,14.26,0,0,0-9.1,11.54V44Z"/></svg>