<?xml version="1.0" encoding="utf-8"?><svg version="1.1" id="Layer_1" xmlns="http://www.w3.org/2000/svg" xmlns:xlink="http://www.w3.org/1999/xlink" x="0px" y="0px" viewBox="0 0 115.28 122.88" style="enable-background:new 0 0 115.28 122.88" xml:space="preserve"><style type="text/css">.st0{fill-rule:evenodd;clip-rule:evenodd;}</style><g><path class="st0" d="M25.38,57h64.88V37.34H69.59c-2.17,0-5.19-1.17-6.62-2.6c-1.43-1.43-2.3-4.01-2.3-6.17V7.64l0,0H8.15 c-0.18,0-0.32,0.09-0.41,0.18C7.59,7.92,7.55,8.05,7.55,8.24v106.45c0,0.14,0.09,0.32,0.18,0.41c0.09,0.14,0.28,0.18,0.41,0.18 c22.78,0,58.09,0,81.51,0c0.18,0,0.17-0.09,0.27-0.18c0.14-0.09,0.33-0.28,0.33-0.41v-11.16H25.38c-4.14,0-7.56-3.4-7.56-7.56 V64.55C17.82,60.4,21.22,57,25.38,57L25.38,57z M29.88,67.65h13.13c2.86,0,5,0.68,6.43,2.04c1.42,1.36,2.14,3.3,2.14,5.82 c0,2.58-0.78,4.6-2.33,6.05c-1.55,1.46-3.92,2.18-7.11,2.18H37.8v9.46h-7.92V67.65L29.88,67.65z M37.8,78.57h1.94 c1.53,0,2.61-0.27,3.23-0.8c0.62-0.53,0.93-1.21,0.93-2.03c0-0.8-0.27-1.48-0.81-2.04c-0.53-0.56-1.55-0.84-3.03-0.84H37.8V78.57 L37.8,78.57z M55.26,93.19V67.65h13.15c2.44,0,4.31,0.21,5.59,0.63c1.29,0.42,2.33,1.2,3.12,2.33c0.79,1.14,1.18,2.52,1.18,4.15 c0,1.42-0.3,2.64-0.91,3.67c-0.6,1.03-1.43,1.87-2.5,2.51c-0.67,0.4-1.6,0.74-2.77,1.01c0.94,0.32,1.62,0.62,2.05,0.94 c0.29,0.21,0.71,0.66,1.26,1.34c0.55,0.68,0.92,1.21,1.1,1.59l3.84,7.38h-8.92l-4.22-7.79c-0.54-1.01-1.01-1.67-1.43-1.97 c-0.57-0.39-1.22-0.59-1.94-0.59h-0.7v10.35H55.26L55.26,93.19z M63.18,78.03h3.34c0.36,0,1.06-0.12,2.09-0.35 c0.52-0.1,0.95-0.37,1.28-0.8c0.33-0.43,0.5-0.93,0.5-1.49c0-0.83-0.26-1.46-0.78-1.9c-0.52-0.45-1.5-0.67-2.95-0.67h-3.47V78.03 L63.18,78.03z M82.41,67.65h19.52v5.49h-11.6v4.46h9.92v5.17h-9.92v10.42h-7.92V67.65L82.41,67.65z M97.79,57h9.93 c4.16,0,7.56,3.41,7.56,7.56v31.42c0,4.15-3.41,7.56-7.56,7.56h-9.93v13.55c0,1.61-0.65,3.04-1.7,4.1c-1.06,1.06-2.49,1.7-4.1,1.7 c-29.44,0-56.59,0-86.18,0c-1.61,0-3.04-0.64-4.1-1.7c-1.06-1.06-1.7-2.49-1.7-4.1V5.85c0-1.61,0.65-3.04,1.7-4.1 c1.06-1.06,2.53-1.7,4.1-1.7h58.72C64.66,0,64.8,0,64.94,0c0.64,0,1.29,0.28,1.75,0.69h0.09c0.09,0.05,0.14,0.09,0.23,0.18 l29.99,30.36c0.51,0.51,0.88,1.2,0.88,1.98c0,0.23-0.05,0.41-0.09,0.65V57L97.79,57z M67.52,27.97V8.94l21.43,21.7H70.19 c-0.74,0-1.38-0.32-1.89-0.78C67.84,29.4,67.52,28.71,67.52,27.97L67.52,27.97z"/></g></svg>