<?xml version="1.0" encoding="utf-8"?><svg version="1.1" id="Layer_1" xmlns="http://www.w3.org/2000/svg" xmlns:xlink="http://www.w3.org/1999/xlink" x="0px" y="0px" viewBox="0 0 122.88 106.53" style="enable-background:new 0 0 122.88 106.53" xml:space="preserve"><g><path d="M79.7,105.24c-1.2,1.07-3.04,0.97-4.12-0.23s-0.97-3.04,0.23-4.12l39.43-35.2l0.01-0.01v0c0.57-0.5,1-1.04,1.28-1.63 c0.28-0.58,0.44-1.23,0.49-1.96c0.04-0.73-0.04-1.4-0.25-2.02c-0.21-0.61-0.57-1.19-1.08-1.76l-0.05-0.06L70.9,9.57 c-1.09-1.19-1.02-3.04,0.17-4.13c1.19-1.09,3.03-1.02,4.13,0.17l44.76,48.69c0.04,0.04,0.07,0.08,0.11,0.12 c1,1.13,1.74,2.37,2.22,3.73c0.47,1.35,0.67,2.78,0.58,4.28c-0.09,1.5-0.45,2.89-1.08,4.18c-0.63,1.28-1.51,2.43-2.65,3.43l0,0 L79.7,105.24L79.7,105.24L79.7,105.24z M57.62,33.76l-6.69,9.18c-1.4-0.6-2.45-0.94-3.15-1c-0.7-0.06-1.62,0.07-2.75,0.42 l6.15,6.16c5.46-3.15,9.55-4.82,12.28-5c3.63-0.19,6.77,1.02,9.41,3.67c1.54,1.54,2.62,3.31,3.22,5.28c0.6,1.98,0.8,3.94,0.6,5.88 c-0.2,1.93-0.72,3.7-1.53,5.3c-0.81,1.6-2.06,3.3-3.74,5.12l2.95,2.95l-3.09,3.1l-2.95-2.95c-2.27,1.9-4.29,3.26-6.08,4.08 c-1.78,0.81-3.58,1.26-5.39,1.34c-1.79,0.08-3.46-0.12-4.96-0.6c-1.5-0.49-3.1-1.31-4.76-2.46l7.59-9.58 c1.65,1.14,3.01,1.8,4.06,1.98c1.05,0.19,2.32,0.02,3.79-0.49l-7.53-7.53c-3.67,2.09-6.39,3.43-8.18,4.05 c-1.78,0.62-3.75,0.72-5.92,0.31c-2.17-0.41-4.17-1.53-6.02-3.37c-2.53-2.53-3.76-5.53-3.68-8.99c0.07-3.47,1.76-7.05,5.07-10.73 l-2.09-2.09l3.1-3.09l2.09,2.09c3.38-2.99,6.56-4.67,9.55-5.05C51.96,31.33,54.85,32,57.62,33.76L57.62,33.76z M41.83,45.35 c-0.62,1.21-0.88,2.22-0.8,3.01c0.08,0.79,0.42,1.5,1.02,2.09c0.62,0.62,1.34,0.98,2.17,1.08c0.83,0.1,1.85-0.14,3.06-0.73 L41.83,45.35L41.83,45.35z M65.89,63.22c0.94-1.48,1.37-2.81,1.31-3.98c-0.06-1.18-0.47-2.16-1.24-2.92 c-0.67-0.67-1.52-1.05-2.56-1.14c-1.03-0.09-2.49,0.32-4.34,1.21L65.89,63.22L65.89,63.22z M54.38,3.13h0.74v0.01 c0.79,0,1.57,0.32,2.15,0.94l44.76,48.69c1,1.03,1.86,2.5,2.33,3.85c1.49,4.25,0.2,8.93-3.16,11.89v0l-39.29,35.08 c-0.03,0.03-0.06,0.06-0.08,0.08c-1.11,1.03-2.35,1.79-3.7,2.27c-1.34,0.47-2.77,0.67-4.3,0.58c-1.53-0.09-2.94-0.45-4.22-1.08 c-1.29-0.63-2.44-1.51-3.45-2.65L4.08,55.59l0,0c-0.5-0.57-0.79-1.33-0.73-2.15l0.09-1.18L0.01,3.11C-0.1,1.37,1.35-0.11,3.1,0.01 l50.35,3.21c0.06-0.01,0.13-0.02,0.19-0.03C53.93,3.15,54.18,3.13,54.38,3.13L54.38,3.13L54.38,3.13z M53.92,9.07 c-0.19,0.02-0.39,0.02-0.58,0L6.07,6.05l3.21,46.03c0.01,0.14,0.01,0.27,0,0.4h0l-0.01,0.15L50.52,98.9 c0.5,0.56,1.04,0.98,1.64,1.27c0.6,0.29,1.27,0.46,2,0.5c0.74,0.04,1.41-0.04,2.02-0.25c0.59-0.21,1.15-0.55,1.66-1.03 c0.06-0.06,0.12-0.11,0.18-0.16l39.3-35.08c0.17-0.16,1.2-1.46,1.29-1.64c0.94-1.92,0.56-4.16-0.85-5.74L53.92,9.07L53.92,9.07 L53.92,9.07z M24.27,12.23c1.47,0.04,2.83,0.33,4.08,0.89c1.26,0.55,2.39,1.36,3.41,2.41l0.01,0.02c1.01,1.04,1.77,2.2,2.28,3.48 c0.52,1.3,0.78,2.68,0.78,4.15c0,0.13-0.01,0.25-0.02,0.38c-0.07,1.35-0.37,2.6-0.89,3.77l-0.01,0.01l0.01,0 c-0.56,1.25-1.38,2.39-2.45,3.4c-0.06,0.06-0.13,0.12-0.19,0.17c-1.02,0.92-2.15,1.62-3.36,2.09c-1.27,0.49-2.61,0.72-4.03,0.69 v0.01c-1.46,0-2.84-0.28-4.12-0.83c-1.27-0.54-2.42-1.35-3.46-2.42l-0.01-0.01l0,0c-1.03-1.07-1.8-2.25-2.3-3.54 c-0.5-1.28-0.74-2.66-0.7-4.13c0.04-1.5,0.33-2.87,0.89-4.14c0.56-1.28,1.39-2.43,2.47-3.46c1.06-1,2.23-1.75,3.52-2.25 C21.45,12.43,22.82,12.19,24.27,12.23L24.27,12.23L24.27,12.23z M25.99,18.47c-0.57-0.25-1.19-0.39-1.86-0.41 c-0.68-0.02-1.31,0.08-1.87,0.3c-0.57,0.22-1.11,0.57-1.63,1.06c-0.5,0.47-0.87,0.99-1.12,1.56c-0.26,0.58-0.39,1.22-0.41,1.92 c-0.02,0.67,0.09,1.3,0.31,1.87c0.22,0.57,0.58,1.11,1.07,1.62l0,0c0.48,0.5,1.01,0.87,1.57,1.11c0.54,0.23,1.15,0.35,1.81,0.35 v0.01l0.07,0c0.69,0.02,1.31-0.08,1.88-0.3c0.53-0.2,1.03-0.52,1.51-0.94c0.03-0.04,0.07-0.07,0.1-0.1 c0.51-0.48,0.89-1.01,1.14-1.58l0,0c0.22-0.5,0.35-1.05,0.39-1.64c0-0.04,0-0.08,0-0.13c0-0.74-0.11-1.4-0.34-1.97 c-0.23-0.58-0.59-1.12-1.06-1.61l-0.02-0.02C27.07,19.09,26.55,18.72,25.99,18.47L25.99,18.47L25.99,18.47z"/></g></svg>