<svg id="Layer_1" data-name="Layer 1" xmlns="http://www.w3.org/2000/svg" viewBox="0 0 106.52 122.88"><title>product-launch-release</title><path d="M50,79.27,15,60.85,6,71.68l8.78,4.63.2.08.18.08.19.12.15.1,27.61,14.6,7-12ZM47,54.42a2.29,2.29,0,0,1,.28-.86,2.36,2.36,0,0,1,.57-.69,2.41,2.41,0,0,1,.81-.42,2.45,2.45,0,0,1,.9-.08,2.28,2.28,0,0,1,.86.27,2.34,2.34,0,0,1,.7.58,2.41,2.41,0,0,1,.51,1.71l-.58,5.24,2.26,2.18,2.49-2.62-.95-4.95a2.17,2.17,0,0,1,0-.88,2.24,2.24,0,0,1,.35-.84,2.33,2.33,0,0,1,.65-.64,2.4,2.4,0,0,1,.84-.34,2.27,2.27,0,0,1,.9,0,2.43,2.43,0,0,1,.84.36,2.33,2.33,0,0,1,.64.65,2.4,2.4,0,0,1,.34.84l1.18,6.13a2.33,2.33,0,0,1,0,.53,2.35,2.35,0,0,1-.09.53,2.41,2.41,0,0,1-.21.5,2,2,0,0,1-.33.44l-5,5.21a2.33,2.33,0,0,1-.74.51,2.25,2.25,0,0,1-.88.19h-.05a2.25,2.25,0,0,1-.85-.16,2.38,2.38,0,0,1-.76-.48l-4.72-4.56a2.3,2.3,0,0,1-.35-.41l0,0a2.46,2.46,0,0,1-.24-.45,3.16,3.16,0,0,1-.13-.53v0a2.26,2.26,0,0,1,0-.52L47,54.42ZM51.94,17a3.71,3.71,0,0,1,.76-.24,4.26,4.26,0,0,1,.8-.08h0a3.67,3.67,0,0,1,.75.08,3.73,3.73,0,0,1,.76.23h0a4.94,4.94,0,0,1,.68.36,3.75,3.75,0,0,1,.61.51,3.83,3.83,0,0,1,.51.62,3.91,3.91,0,0,1,.37.7,3.71,3.71,0,0,1,.24.76,4.23,4.23,0,0,1,.08.79v0a3.67,3.67,0,0,1-.08.75v0a3.53,3.53,0,0,1-.22.72,3.48,3.48,0,0,1-.38.71,3.25,3.25,0,0,1-.5.61,3.83,3.83,0,0,1-.62.51,3.91,3.91,0,0,1-.7.37,3.71,3.71,0,0,1-.76.24h0a4.11,4.11,0,0,1-.77.08h0a3.67,3.67,0,0,1-.75-.08h-.05a3.64,3.64,0,0,1-.71-.22,4,4,0,0,1-.71-.37,4.23,4.23,0,0,1-.61-.51l0,0a3.87,3.87,0,0,1-.48-.59,3.91,3.91,0,0,1-.37-.7v0a4.2,4.2,0,0,1-.23-.74,4.26,4.26,0,0,1-.08-.8v0a3.67,3.67,0,0,1,.08-.75v0a3.64,3.64,0,0,1,.22-.71v0a4.94,4.94,0,0,1,.36-.68,4.23,4.23,0,0,1,.51-.61,3.83,3.83,0,0,1,.62-.51,3.91,3.91,0,0,1,.7-.37ZM43.45,35.36c-.28-.61-.55-1.22-.79-1.82s-.56-1.41-.8-2.09-.5-1.47-.7-2.2-.39-1.45-.54-2.16-.3-1.6-.39-2.38a22.64,22.64,0,0,1-.18-2.32,21.7,21.7,0,0,1,.05-2.29,20.75,20.75,0,0,1,.27-2.24,22.31,22.31,0,0,1,.52-2.29c.22-.75.47-1.5.77-2.24a24.22,24.22,0,0,1,1-2.2l0,0A24.75,24.75,0,0,1,44,9c.45-.69.94-1.39,1.48-2.07s1.11-1.38,1.71-2.05,1.26-1.35,2-2,1.42-1.34,2.19-2A3,3,0,0,1,51.8.46a3.2,3.2,0,0,1,.56-.27h0A3.06,3.06,0,0,1,53,0h0a5.07,5.07,0,0,1,.55,0,4,4,0,0,1,.59.07,3.14,3.14,0,0,1,1.08.42,3,3,0,0,1,.45.34c.85.71,1.65,1.42,2.4,2.14s1.45,1.44,2.09,2.16S61.42,6.58,62,7.31l0,0c.54.72,1,1.44,1.48,2.17s.86,1.5,1.23,2.26a24.66,24.66,0,0,1,1,2.29q.4,1.15.69,2.31a22.62,22.62,0,0,1,.42,2.35l0,.11c.09.73.14,1.46.17,2.19s0,1.5,0,2.24-.12,1.52-.23,2.27-.24,1.53-.4,2.29-.32,1.36-.51,2.07-.41,1.41-.63,2.08-.44,1.28-.7,2-.43,1.13-.66,1.71c.44.44.9.88,1.37,1.32a49.39,49.39,0,0,1,3.46,3.53,3.92,3.92,0,0,1,.25.32,2.12,2.12,0,0,1,.21.36,1.84,1.84,0,0,1,.17.38,2.22,2.22,0,0,1,.12.39c0,.13,0,.27.07.42a3.09,3.09,0,0,1,0,.43,2.77,2.77,0,0,1,0,.42v0a3.21,3.21,0,0,1-.08.36L68.76,46c-.37,1.61-.74,3.24-1.16,4.88h0a3.43,3.43,0,0,1-.22.59,4.21,4.21,0,0,1-.33.55l0,0a2.72,2.72,0,0,1-.4.43,3.14,3.14,0,0,1-.5.38,3,3,0,0,1-.57.28,3,3,0,0,1-.6.17,2.6,2.6,0,0,1-.62,0,3.94,3.94,0,0,1-.6,0l-.22-.05-.3-.1a3.28,3.28,0,0,1-1-.55,39.27,39.27,0,0,0-4.67-3.2,7.84,7.84,0,0,0-3.27-1.07,8.26,8.26,0,0,0-3.26.63c-1.26.47-2.75,1.2-4.62,2.11a.7.7,0,0,1-.19.06l-.05,0-.31.18h0l-.45.23-1.78.86a3.12,3.12,0,0,1-.62.23,4.63,4.63,0,0,1-.65.1,3.3,3.3,0,0,1-1.29-.19,3.43,3.43,0,0,1-1.12-.67,3.45,3.45,0,0,1-.45-.48v0a4.09,4.09,0,0,1-.33-.54,3.58,3.58,0,0,1-.28-.9c-.49-2.2-1-5-1.28-7.25a2.43,2.43,0,0,1,0-.38h0a2.67,2.67,0,0,1,0-.4v0l.06-.39c0-.14.07-.27.11-.4s.1-.26.16-.39a2.58,2.58,0,0,1,.22-.37l0,0a3.55,3.55,0,0,1,.23-.31l.3-.3,4.8-4.37Zm1.72-9.22c.15.68.32,1.37.52,2.06s.44,1.41.71,2.14.57,1.48.9,2.23.68,1.51,1.08,2.31l0,0a2.44,2.44,0,0,1,.2.7,2.3,2.3,0,0,1-.74,2L42.3,42.7l.85,4.83c.42-.21.87-.45,1.3-.64,2.24-1.08,4-2,5.6-2.53a11.25,11.25,0,0,1,4.46-.84,10.22,10.22,0,0,1,4.29,1.23,34.78,34.78,0,0,1,4.75,3.06l1.11-4.69-5.28-5.28-.07-.08a2.36,2.36,0,0,1-.36-.53,2.12,2.12,0,0,1-.2-.6v-.05a2,2,0,0,1,0-.65,2.3,2.3,0,0,1,.17-.66l0,0c.32-.75.62-1.47.89-2.16s.53-1.4.77-2.12.46-1.39.65-2.07.36-1.36.5-2,.26-1.3.35-1.93.15-1.27.19-1.9.05-1.24,0-1.85a15.75,15.75,0,0,0-.14-1.82v-.06a17.49,17.49,0,0,0-.89-3.69,19.29,19.29,0,0,0-.76-1.84,20.66,20.66,0,0,0-1-1.83c-.38-.61-.79-1.22-1.25-1.83s-1-1.22-1.5-1.84-1.07-1.15-1.66-1.72-1-1-1.58-1.47c-.5.45-1,.9-1.42,1.34S51,7.48,50.54,8s-1,1.16-1.46,1.74-.86,1.15-1.23,1.74-.73,1.16-1,1.75S46.23,14.44,46,15a16.41,16.41,0,0,0-.61,1.79A14.52,14.52,0,0,0,45,18.64a15.79,15.79,0,0,0-.22,1.8c0,.62-.06,1.23,0,1.85s.07,1.24.15,1.89.19,1.31.32,2ZM93,55.63a1.71,1.71,0,0,1,.35.21,2,2,0,0,1,.31.27,3.11,3.11,0,0,1,.23.28,2.2,2.2,0,0,1,.15.26L106,70.9a2.19,2.19,0,0,1,.43.79,2.14,2.14,0,0,1,.1.9,2.28,2.28,0,0,1-.25.88l0,0a2.35,2.35,0,0,1-.55.67l-.23.17a1.71,1.71,0,0,1-.23.13L95,79.86v20.67a2.13,2.13,0,0,1-.1.67,2.34,2.34,0,0,1-.29.62,2.15,2.15,0,0,1-.45.5,2.5,2.5,0,0,1-.56.35L55,122.25a1.44,1.44,0,0,1-.27.22,2.71,2.71,0,0,1-.37.21,2.47,2.47,0,0,1-.46.15h0a2.4,2.4,0,0,1-.46,0,2.18,2.18,0,0,1-.63-.09,2.38,2.38,0,0,1-.59-.25,2.31,2.31,0,0,1-.42-.34l0,0a2,2,0,0,1-.23-.27L13,102.61a2.75,2.75,0,0,1-.53-.36,2.44,2.44,0,0,1-.4-.5,2.08,2.08,0,0,1-.25-.52,2.56,2.56,0,0,1-.1-.54V80L1.19,74.42a2.6,2.6,0,0,1-.38-.27,2.32,2.32,0,0,1-.54-.68A2.35,2.35,0,0,1,0,72.59a2.14,2.14,0,0,1,.1-.9,2.35,2.35,0,0,1,.43-.79L12.66,56.4a.67.67,0,0,1,.14-.15l.19-.17.18-.12.14-.08a2.4,2.4,0,0,1,.26-.18l.14-.07,18.54-9.21a2.32,2.32,0,0,1,.87-.24,2.26,2.26,0,0,1,.9.12,2.39,2.39,0,0,1,.79.45,2.46,2.46,0,0,1,.55.72v0a2.5,2.5,0,0,1,.23.87,2.66,2.66,0,0,1-.12.89A2.44,2.44,0,0,1,35,50a2.22,2.22,0,0,1-.72.55L19.48,58,53.26,75.71,87.15,57.9,72.5,50.62a2.34,2.34,0,0,1-.72-.55,2.44,2.44,0,0,1-.46-.79,2.48,2.48,0,0,1-.11-.9,2.17,2.17,0,0,1,.23-.88,2.46,2.46,0,0,1,.55-.72,2.49,2.49,0,0,1,.79-.45,2.28,2.28,0,0,1,.9-.12,2.42,2.42,0,0,1,.88.24L93,55.63Zm-41.9,60.86V86.64L46,95.55a2.27,2.27,0,0,1-.57.66,2.44,2.44,0,0,1-.78.41h0a2.25,2.25,0,0,1-.86.08,2.49,2.49,0,0,1-.86-.25l-26.51-14V99.1l34.78,17.39Zm4.66-29.16v29.33L90.37,99.11V82.33L63.66,96.45a2.49,2.49,0,0,1-.86.25h0a2.36,2.36,0,0,1-.88-.08,2.51,2.51,0,0,1-.79-.42,2.31,2.31,0,0,1-.57-.67l-4.76-8.2ZM91.52,60.85l-35,18.42,7,12,37.11-19.61-9-10.83Z"/></svg>