<?xml version="1.0" encoding="utf-8"?><svg version="1.1" id="Layer_1" xmlns="http://www.w3.org/2000/svg" xmlns:xlink="http://www.w3.org/1999/xlink" x="0px" y="0px" viewBox="0 0 122.88 84.94" style="enable-background:new 0 0 122.88 84.94" xml:space="preserve"><g><path d="M86.57,30.71h25.93c2.86,0,5.45,1.17,7.33,3.05c1.88,1.88,3.05,4.48,3.05,7.33v29.54c0,2.86-1.17,5.45-3.05,7.33 c-1.88,1.88-4.48,3.05-7.33,3.05H85.75l-0.03,0c-4.32,2.5-9.33,3.93-14.68,3.93c-5.35,0-10.37-1.43-14.69-3.94 c-0.07,0.01-0.15,0.01-0.22,0.01H10.38c-2.86,0-5.45-1.17-7.33-3.05C1.17,76.08,0,73.49,0,70.63V41.09c0-2.86,1.17-5.45,3.05-7.33 s4.48-3.05,7.33-3.05H54.9c0.18,0,0.35,0.02,0.52,0.06c4.52-2.85,9.88-4.5,15.62-4.5C76.74,26.27,82.07,27.9,86.57,30.71 L86.57,30.71z M14.13,57.76c-1.04,0-1.88-0.84-1.88-1.88c0-1.04,0.84-1.88,1.88-1.88h11.35c1.04,0,1.88,0.84,1.88,1.88 c0,1.04-0.84,1.88-1.88,1.88H14.13L14.13,57.76z M14.13,46.52c-1.04,0-1.88-0.84-1.88-1.88c0-1.04,0.84-1.88,1.88-1.88h16 c1.04,0,1.88,0.84,1.88,1.88c0,1.04-0.84,1.88-1.88,1.88H14.13L14.13,46.52z M71.04,42.32c7.34,0,13.28,5.95,13.28,13.28 c0,7.34-5.95,13.28-13.28,13.28c-7.34,0-13.28-5.95-13.28-13.28C57.76,48.27,63.7,42.32,71.04,42.32L71.04,42.32z M79.2,14.95 c-0.17,1.23-1.31,2.09-2.54,1.92c-1.23-0.17-2.09-1.31-1.92-2.54l1.74-12.4c0.17-1.23,1.31-2.09,2.54-1.92 c1.23,0.17,2.09,1.31,1.92,2.54L79.2,14.95L79.2,14.95z M91.39,18.44c-0.68,1.04-2.07,1.34-3.11,0.66 c-1.04-0.68-1.34-2.07-0.66-3.11L94.46,5.5c0.68-1.04,2.07-1.34,3.11-0.66c1.04,0.68,1.34,2.07,0.66,3.11L91.39,18.44L91.39,18.44z M65.85,14.34c0.17,1.23-0.69,2.37-1.92,2.54c-1.23,0.17-2.37-0.69-2.54-1.92l-1.74-12.4c-0.17-1.23,0.69-2.37,1.92-2.54 c1.23-0.17,2.37,0.69,2.54,1.92L65.85,14.34L65.85,14.34z M52.61,16.47c0.59,1.09,0.18,2.46-0.92,3.05 c-1.09,0.59-2.46,0.18-3.05-0.92L42.72,7.57c-0.59-1.09-0.18-2.46,0.92-3.05c1.09-0.59,2.46-0.18,3.05,0.92L52.61,16.47 L52.61,16.47z M91.63,76.5h20.87c1.61,0,3.08-0.66,4.15-1.73c1.07-1.07,1.73-2.53,1.73-4.15V41.09c0-1.61-0.66-3.08-1.73-4.15 c-1.07-1.07-2.53-1.73-4.15-1.73H92.13c5.1,5.28,8.24,12.46,8.24,20.38c0,8.1-3.28,15.43-8.59,20.74 C91.73,76.4,91.68,76.45,91.63,76.5L91.63,76.5z M50.45,76.5c-0.05-0.05-0.1-0.1-0.16-0.15c-5.31-5.31-8.59-12.64-8.59-20.74 c0-7.92,3.14-15.11,8.24-20.38H10.38c-1.61,0-3.08,0.66-4.15,1.73c-1.07,1.07-1.73,2.53-1.73,4.15v29.54 c0,1.61,0.66,3.08,1.73,4.15c1.07,1.07,2.53,1.73,4.15,1.73H50.45L50.45,76.5z M88.6,38.05c-4.49-4.49-10.7-7.27-17.56-7.27 c-6.86,0-13.06,2.78-17.56,7.27c-4.49,4.49-7.27,10.7-7.27,17.56c0,6.86,2.78,13.06,7.27,17.56c4.49,4.49,10.7,7.27,17.56,7.27 c6.86,0,13.06-2.78,17.56-7.27c4.49-4.49,7.27-10.7,7.27-17.56C95.87,48.75,93.09,42.54,88.6,38.05L88.6,38.05z"/></g></svg>