<svg id="Layer_1" data-name="Layer 1" xmlns="http://www.w3.org/2000/svg" viewBox="0 0 122.88 121.83"><defs><style>.cls-1,.cls-2{fill-rule:evenodd;}.cls-2{fill:red;}.cls-3{fill:#fff;}</style></defs><title>psd</title><path class="cls-1" d="M102.42,37H81.92a8.52,8.52,0,0,1-8.85-8.7V7.53H21a.58.58,0,0,0-.41.18.45.45,0,0,0-.18.42V113.71a.7.7,0,0,0,.18.41.51.51,0,0,0,.41.18h80.84c.18,0,.17-.09.26-.18s.34-.28.34-.41V37Zm7.47,79.08a5.77,5.77,0,0,1-5.76,5.76H18.66a5.77,5.77,0,0,1-5.76-5.76V5.76a5.7,5.7,0,0,1,1.69-4.07A5.77,5.77,0,0,1,18.66,0H76.9a4.22,4.22,0,0,1,2.46.82l29.75,30.12a2.57,2.57,0,0,1,.78,2.6v82.53ZM80,27.69,79.57,9.63,100.66,31l-18.14-.81A2.4,2.4,0,0,1,80,27.69Z"/><path class="cls-2" d="M6.71,46.28H116.17A6.73,6.73,0,0,1,122.88,53v45.1a6.73,6.73,0,0,1-6.71,6.71H6.71A6.73,6.73,0,0,1,0,98.09V53a6.73,6.73,0,0,1,6.71-6.71Z"/><path class="cls-3" d="M15.05,59.78h16.2c3.53,0,6.17.83,7.93,2.51s2.64,4.08,2.64,7.18a9.75,9.75,0,0,1-2.88,7.47c-1.92,1.8-4.84,2.69-8.78,2.69H24.82V91.3H15.05V59.78Zm9.77,13.47h2.4a6.21,6.21,0,0,0,4-1,3.15,3.15,0,0,0,1.15-2.51,3.48,3.48,0,0,0-1-2.52c-.66-.69-1.91-1-3.74-1H24.82v7Zm20.39,7.63,9.25-.58a6.89,6.89,0,0,0,1.23,3.41A5.15,5.15,0,0,0,60,85.62a4.74,4.74,0,0,0,3.2-1,2.92,2.92,0,0,0,1.13-2.27,2.88,2.88,0,0,0-1.06-2.19c-.71-.65-2.37-1.25-5-1.83q-6.41-1.44-9.13-3.83a7.67,7.67,0,0,1-2.75-6.07,8.22,8.22,0,0,1,1.41-4.58,9.25,9.25,0,0,1,4.24-3.4,19.85,19.85,0,0,1,7.75-1.23q6,0,9.21,2.25c2.11,1.5,3.36,3.88,3.77,7.16l-9.16.54a5,5,0,0,0-1.54-3.12,4.9,4.9,0,0,0-3.23-1,4,4,0,0,0-2.56.72,2.23,2.23,0,0,0-.86,1.76,1.76,1.76,0,0,0,.7,1.35,7.72,7.72,0,0,0,3.25,1.16,40.07,40.07,0,0,1,9.13,2.79,9.45,9.45,0,0,1,4,3.49A8.84,8.84,0,0,1,73.79,81a10.09,10.09,0,0,1-1.67,5.59,10.57,10.57,0,0,1-4.69,3.88,18.94,18.94,0,0,1-7.58,1.32q-8,0-11.14-3.1a12.23,12.23,0,0,1-3.5-7.85Zm33.61-21.1H93.3a17.45,17.45,0,0,1,6.91,1.16,11.33,11.33,0,0,1,4.36,3.33,13.8,13.8,0,0,1,2.48,5,22.94,22.94,0,0,1,.78,6.11,21.16,21.16,0,0,1-1.15,7.84,12.9,12.9,0,0,1-3.19,4.66,10.38,10.38,0,0,1-4.39,2.51,22.32,22.32,0,0,1-5.8.86H78.82V59.78Zm9.73,7.13V84.13h2.39a10.16,10.16,0,0,0,4.36-.68,4.6,4.6,0,0,0,2-2.36,14.58,14.58,0,0,0,.74-5.48q0-5-1.64-6.85T91,66.91Z"/></svg>