<?xml version="1.0" encoding="utf-8"?><svg version="1.1" id="Layer_1" xmlns="http://www.w3.org/2000/svg" xmlns:xlink="http://www.w3.org/1999/xlink" x="0px" y="0px" viewBox="0 0 122.88 56.99" style="enable-background:new 0 0 122.88 56.99" xml:space="preserve"><style type="text/css"><![CDATA[
	.st0{fill-rule:evenodd;clip-rule:evenodd;}
	.st1{fill:#FFFFFF;}
	.st2{fill-rule:evenodd;clip-rule:evenodd;fill:#FFFFFF;}
]]></style><g><path class="st0" d="M110.4,0.01c1.25,0,1.01-0.12,1.91,0.77c13.76,13.71,13.91,39.57,1.5,54.2c-2.11,2.49-1.78,1.97-5.01,1.97 H14.08c-3.23,0-2.9,0.52-5.01-1.97c-12.41-14.64-12.26-40.49,1.5-54.2c0.9-0.89,0.66-0.77,1.91-0.77H110.4L110.4,0.01z"/><path class="st1" d="M104.93,14.89c1.92,1.92,1.92,5,0,6.92c-1.92,1.92-5,1.92-6.92,0c-1.92-1.92-1.92-5,0-6.92 C99.92,12.99,103.01,12.99,104.93,14.89L104.93,14.89L104.93,14.89L104.93,14.89z"/><path class="st1" d="M93.95,24.72c1.92,1.92,1.92,5,0,6.92c-1.92,1.92-5,1.92-6.92,0c-1.92-1.91-1.92-5,0-6.92 C88.95,22.81,92.04,22.81,93.95,24.72L93.95,24.72L93.95,24.72L93.95,24.72z"/><path class="st1" d="M115.9,24.72c1.92,1.92,1.92,5,0,6.92s-5,1.92-6.92,0s-1.92-5,0-6.92C110.9,22.81,113.99,22.81,115.9,24.72 L115.9,24.72L115.9,24.72L115.9,24.72z"/><path class="st1" d="M104.93,35.17c1.92,1.92,1.92,5,0,6.92c-1.92,1.92-5,1.92-6.92,0c-1.92-1.92-1.92-5,0-6.92 C99.92,33.27,103.01,33.27,104.93,35.17L104.93,35.17L104.93,35.17L104.93,35.17z"/><path class="st2" d="M21.71,14.68L21.71,14.68c2.4,0,4.36,1.97,4.36,4.36v5.1h5.1c2.4,0,4.36,1.97,4.36,4.36l0,0 c0,2.4-1.97,4.36-4.36,4.36h-5.1v5.1c0,2.4-1.97,4.36-4.36,4.36l0,0c-2.4,0-4.36-1.97-4.36-4.36v-5.1h-5.1 c-2.4,0-4.36-1.97-4.36-4.36l0,0c0-2.4,1.97-4.36,4.36-4.36l5.1,0v-5.1C17.35,16.65,19.31,14.68,21.71,14.68L21.71,14.68 L21.71,14.68z"/><path class="st0" d="M33.55,28.66l-2.78,2.78v-5.55L33.55,28.66L33.55,28.66L33.55,28.66z M21.85,16.96l2.78,2.78h-5.55 L21.85,16.96L21.85,16.96L21.85,16.96z M10.16,28.66l2.78,2.78v-5.55L10.16,28.66L10.16,28.66L10.16,28.66z M21.85,40.35l2.78-2.78 h-5.55L21.85,40.35L21.85,40.35L21.85,40.35z"/><path class="st2" d="M44.72,8.62h29.27c3.22,0,5.85,2.64,5.85,5.85v28.05c0,3.22-2.64,5.85-5.85,5.85H44.72 c-3.22,0-5.85-2.63-5.85-5.85V14.47C38.87,11.25,41.5,8.62,44.72,8.62L44.72,8.62z"/></g></svg>