<svg xmlns="http://www.w3.org/2000/svg" viewBox="0 0 1333.35 772.33" shape-rendering="geometricPrecision" text-rendering="geometricPrecision" image-rendering="optimizeQuality" fill-rule="evenodd" clip-rule="evenodd"><path d="M86.71 2.76c-9.4 2.83-16.41 6.71-21.63 13.12-7.46 8.95-7.76 10.29-7.16 36.98.3 15.36.3 42.5 0 60.84-.3 32.81-.3 32.81-6.41 30.87-12.23-4.17-41.45-2.23-46.38 3.13-4.17 4.47-4.17 4.47.6 2.83 3.58-1.04 4.77-.59 3.88 1.64-.6 1.94-2.83 3.28-4.48 2.83-1.94-.3-3.13 4.77-3.13 13.87 0 8.05-.89 19.23-1.64 24.46-1.04 7.75 0 11.18 5.82 17.3 6.71 7.16 8.94 7.75 28.93 7.75 18.64 0 21.92.9 23.11 4.78 1.64 6.41-.3 323.75-1.94 328.22-.89 2.54-7.16 3.58-19.24 3.58-12.08 0-20.87 1.64-26.39 4.77C2.3 564.8 2 565.25 1.7 587.02c-.59 44.29.59 45.93 35.64 45.93h23.41l-.89 53.38c-1.05 75.16 1.04 78.44 55.02 81.42 80.08 4.18 314.5 5.81 352.97 2.54 13.42-1.04 25.35-1.34 38.33-1.04 18.04.3 22.52 0 25.8-3.13 2.83-2.24 3.88-2.24 3.88 0 0 1.64 1.34 3.13 2.83 3.13 1.64 0 2.83-2.54 2.83-5.81 0-3.13-1.04-4.77-2.83-3.88-1.34.89-2.83.3-2.83-1.34 0-5.07 6.71-1.64 9.69 5.07 2.83 6.11 3.58 6.11 65.32 6.11 34.45 0 81.72.89 105.13 1.64 63.08 2.53 161.95-1.05 161.95-6.11 0-2.24 1.34-3.88 3.13-3.88 1.64 0 2.54 1.94 1.34 4.17-1.04 3.58 1.94 4.18 19.98 4.18 11.63.3 75.91.59 143.01.89 66.81.3 120.64-.3 119.89-1.64-.59-1.04.89-1.94 3.28-1.94 2.83 0 3.58 1.34 2.54 3.28-3.28 5.22 69.49.9 81.72-5.22 20.28-9.99 21.47-14.17 21.62-74.56.3-29.82 1.04-55.92 2.24-58.46 1.05-3.28 3.28-3.87 7.76-2.54 8.06 2.83 38.33 1.34 43.99-1.64 3.58-2.24 3.28-2.54-.89-2.83-3.13 0-4.77-1.34-3.88-3.58.6-1.64 2.54-3.13 3.88-2.83 3.58.9 6.41-43.69 3.28-49.21-6.71-11.93-7.76-12.53-33.11-13.87l-25.35-1.34-.59-167.76-.9-167.46h24.76c22.82 0 24.75-.59 31.46-7.76 5.81-6.11 7.01-9.39 5.81-17.3-.89-5.22-1.64-16.4-1.64-24.16 0-9.4-1.04-14.46-3.13-13.87-1.64.3-3.88-1.04-4.48-3.13-.89-2.24.3-2.83 3.88-1.64 4.48 1.64 4.48 1.34.89-2.53-4.47-4.78-31.91-7.01-44.44-3.58-12.52 3.28-13.57.3-15.36-49.81-3.13-77.39-8.95-88.43-46.97-87.38-11.19.3-21.63-.3-23.41-1.05-2.98-2.69-50.26-5.96-74.11-5.96-9.25.3-25.35.3-36.09.3-10.59 0-65.61.6-122.43.89-56.52.3-113.48.9-126.61 1.34-13.12.45-29.22 1.05-36.09.89C694.96 2.3 605.49 1.7 600.72 2.9c-3.58.89-6.11 2.54-5.52 3.58.3 1.05-.6 2.24-2.24 2.54-1.34.59-2.83-.89-2.83-2.83 0-2.54-13.42-3.28-56.96-3.28-44.29 0-56.67.89-56.52 3.28.59 1.94-1.05 3.57-3.58 3.57-2.24 0-3.58-1.04-2.83-2.53 3.28-5.07-14.76-5.81-141.52-5.81-70.38 0-150.47-.6-178.05-1.05C114.14-.52 96.69.22 86.7 2.76zm931.12 145.39l-59.21.59-10.89 10.59c-9.24 8.95-11.18 12.53-12.52 25.65-3.13 26.4-3.13 63.38-.6 122.43 1.34 31.46 2.24 62.04 1.64 68.15-.6 6.11-1.04 57.26-1.04 114.08l-.3 102.9 6.71 10.89c3.58 5.81 10.59 12.22 15.51 14.46 11.19 4.77 122.88 5.81 137.64 1.34 13.57-4.18 24.46-18.04 26.09-33.41 2.83-26.99 1.64-232.48-1.34-240.23l-3.13-7.46h-38.17c-25.8 0-39.22 1.04-41.46 3.28-2.24 2.24-3.28 13.12-3.28 29.97v26.69l8.35 4.77 8.35 5.07.3 31.17c0 17.3 0 45.04-.3 62.34-.3 18.64.89 33.11 2.83 36.09 2.24 3.57 2.54 7.15.3 12.52-2.83 7.46-3.13 7.46-23.86 6.41-23.71-1.05-28.04-2.83-23.71-8.35 3.13-3.88 4.47-198.34 1.94-289.75l-1.34-44.74 19.98-1.04c29.82-1.34 29.52-1.65 29.52 18.34 0 9.69 1.34 18.64 3.28 20.57 2.54 2.54 2.54 3.28 0 3.28-6.11 0-3.57 7.75 3.13 9.24 9.99 1.94 49.21.3 52.04-2.54 1.04-1.34 2.83-22.82 3.58-47.87l1.04-45.63-7.75-7.75c-6.71-6.71-12.53-8.95-31.17-11.93-1.79-.6-29.97-.6-62.18-.15zM223 153.52c-2.54 2.54-3.28 18.34-2.54 56.96.89 62.33.59 57.56 3.88 52.34 2.24-3.28 2.83-2.54 2.83 3.28 0 3.88-1.34 7.76-3.28 8.35-2.54.89-3.28 12.82-3.28 41.45-.3 34.74-.89 41.16-5.07 45.33-4.17 3.88-5.07 10-5.07 35.64 0 17 .9 29.98 1.94 29.23 2.54-2.54 11.93 6.11 11.93 11.18 0 1.94-.89 3.58-1.94 3.58-1.34 0-2.54 38.18-3.13 84.85-.3 46.68.59 84.85 1.64 84.85 1.34 0 3.87 3.13 5.52 7.01 3.13 6.71 4.17 7.01 30.87 7.01 41.16 0 38.92 5.07 38.17-96.19-.59-44.29-1.04-81.72-1.64-83.21-3.13-11.93-1.64-12.52 37.88-12.52 42.8 0 58.9-3.13 68.45-13.12l6.41-7.01.9-120.64c.59-81.27-.3-122.73-2.24-126.31-7-12.82-14.46-13.87-99.32-14.76-58.75-.44-80.82.15-82.91 2.69zm109.75 66.66c.3 2.83.3 32.51.6 66.21 0 33.7.89 58.91 1.34 56.22 2.24-8.35 6.41-5.07 6.41 5.22 0 8.06-.9 9.7-4.48 8.35-3.13-1.04-3.88-.3-2.83 3.28 1.34 4.18-.3 4.77-17 3.88-10.59-.6-19.98-2.83-22.22-4.77-4.47-4.47-4.77-12.53-.6-12.53 1.94 0 2.54-19.54 1.34-63.67-.59-35.04-.59-64.57.3-65.32 1.04-.89 9.69-1.64 19.53-1.64 14.91.15 17.6.89 17.6 4.78zM461 152.63c-4.78 5.52-3.13 67.25 1.94 66.21 1.64-.3 3.28 1.34 3.28 3.57 0 2.24-1.64 3.88-3.28 3.28-2.54-.3-3.88 4.18-4.47 14.17-.59 11.63 0 14.46 2.83 12.82 2.83-1.64 2.83-1.34.59 1.94-4.48 5.82-7.46 320.92-3.28 339.55 2.54 9.99 5.52 15.36 12.52 20.28l9.25 7.16 72.92-1.04c81.27-1.04 87.09-2.54 95.89-19.54 6.11-11.93 8.65-105.73 7.16-269.02-.6-66.51-1.04-132.72-1.04-146.59 0-16.1-1.05-26.39-3.13-27.88-1.94-.9-3.88-.3-4.47 1.34-1.34 4.77-6.11 4.18-6.11-.9 0-3.28-4.47-4.17-23.71-4.17-38.17 0-35.34-9.25-35.04 119 .3 59.2 1.04 124.37 1.94 144.35 1.34 26.39.89 36.98-1.34 36.98-5.07 0-3.58 10.59 1.94 13.57 3.28 2.24 3.88 3.58 1.34 5.07-1.94 1.64-3.58 15.36-4.18 40.26-.89 32.21-1.64 38.92-5.81 43.1-4.78 4.77-5.22 4.77-8.65 0-4.18-5.22-15.81-6.11-24.16-1.64-8.35 4.18-17-3.88-14.76-13.87 1.94-8.35 3.28-239.19 1.94-322.85l-1.04-57.26-11.93-6.41c-8.06-4.47-13.87-6.11-17.3-4.47-5.22 2.23-23.86 2.23-31.91-.3-2.54 0-5.96 1.04-7.91 3.28zm247.84-.3c-3.13 4.18-4.17 105.13-1.04 118.7 1.34 5.22 1.34 18.34.6 29.23-1.05 10.89-.89 20.88.6 22.82 3.57 4.48 0 14.76-5.07 14.76-2.23 0-3.28 1.34-2.54 2.83.9 1.64-.3 4.77-2.53 7.15-5.07 5.07-6.41 44-1.64 46.98 1.64.89 2.83 4.17 2.83 7.01 0 2.83 1.34 5.52 3.13 6.11 2.54.9 3.28 25.8 3.28 91.26-.3 52.34.89 91.71 2.54 93.8 1.34 1.64 1.34 3.88.3 4.48-1.34.89-1.94 6.71-1.34 12.82l1.05 11.33 74.26-.89c110.65-.9 104.24 7 104.54-129.89 0-92.01-.3-96.18-5.52-101.85-16.7-18.04-18.64-21.48-14.17-23.86 11.19-6.11 13.87-18.94 14.46-60.7.3-22.22.9-62.63 1.34-89.77.9-46.68.59-49.81-5.07-55.03-8.65-8.65-21.63-10.29-97.08-10.59-52.64 0-70.68.6-72.92 3.28zm104.09 63.53c1.64 2.83 1.64 23.86 0 105.43-.3 20.28-1.64 21.47-22.52 18.04l-11.93-1.64-1.64-24.16c-.9-13.42-1.64-26.1-1.94-28.33 0-2.24.89-19.54 1.94-38.33l1.94-34h16.11c8.8-.15 16.85 1.19 18.04 2.98zm-1.19 195.5c1.04 1.64 2.23 23.11 2.23 47.57s.3 55.92.3 70.09c.3 13.87-.3 26.7-1.34 28.04-2.24 3.58-31.17 2.24-35.94-1.94-3.13-2.54-3.58-5.82-1.94-13.42 1.34-5.52 2.54-36.98 2.54-70.09 0-51.75.6-60.4 4.47-63.08 5.22-3.88 26.69-1.94 29.68 2.83zM652.03 78.07c380.71.6 506.72-.3 506.72-2.54 0-2.54.89-2.24 2.24 0 1.04 1.94 8.35 3.88 15.8 4.18l13.87.9.3 13.87c.59 22.22 4.18 246.95 3.88 251.72-.9 23.71 0 202.51 1.34 264.84 1.34 62.34 1.05 80.08-1.64 81.72-1.94 1.04-12.53 1.64-23.11 1.34-20.58-.89-95.74-.89-383.84-.6-149.43.3-168.81.9-167.47 4.48 1.05 2.83-.3 4.17-3.87 4.17-3.58 0-5.07-1.34-3.88-4.17 1.34-3.58-16.1-3.88-139.88-3.88-77.54.3-164.04 1.04-192.22 1.94-27.88 1.04-50.55 1.04-50.55-.3 0-3.28-9.7-2.24-13.42 1.34-2.54 2.54-4.18 2.83-5.52.6-1.05-2.24-14.47-3.28-36.39-3.58-18.94-.3-35.64-1.04-36.69-1.94-1.34-.89-2.54-11.33-2.54-23.86 0-18.64-.6-21.92-4.17-20.58-2.83 1.04-4.18-.3-4.18-3.88 0-3.57 1.34-5.07 4.18-3.88 3.57 1.34 4.17-10.89 4.47-99.32 1.04-332.69 1.04-328.81-2.83-330.16-2.24-.89-2.83-1.94-.89-3.13 4.17-2.54 4.77-36.09.89-48.47-1.94-5.52-2.54-11.63-1.04-13.57 1.04-1.94 2.24-17.59 2.83-34.15.3-17 .6-32.21.6-34.45.3-2.54 1.94-3.13 5.22-1.34 2.54 1.05 232.93 2.39 511.79 2.69z" fill-rule="nonzero"/></svg>