<svg xmlns="http://www.w3.org/2000/svg" shape-rendering="geometricPrecision" text-rendering="geometricPrecision" image-rendering="optimizeQuality" fill-rule="evenodd" clip-rule="evenodd" viewBox="0 0 362 512.6"><path fill-rule="nonzero" d="M181 0c49.93 0 95.18 20.26 127.95 53.02C341.75 85.84 362 131.08 362 181c0 49.97-20.26 95.23-53.02 127.98l-.54.5a181.531 181.531 0 0 1-54.37 37.14c-2.75-1.23-5.77-2.18-9.11-2.83l-2.71-.49-2.25-2.46c-2.32-2.33-4.99-4.34-8-6.01 24.05-7.96 45.6-21.38 63.14-38.81l.43-.45c29.3-29.31 47.44-69.83 47.44-114.57 0-44.77-18.12-85.28-47.43-114.58-29.3-29.31-69.81-47.43-114.58-47.43-44.74 0-85.26 18.14-114.57 47.45C37.11 95.72 18.99 136.23 18.99 181c0 44.75 18.13 85.27 47.43 114.58 19.97 19.97 45.16 34.76 73.35 42.14v19.56c-33.4-7.8-63.26-24.85-86.72-48.3C20.27 276.19 0 230.94 0 181S20.27 85.8 53.04 53.04C85.77 20.26 131.03 0 181 0zm-22.74 418.94c-.24-.13-.56-.3-.81-.49-3.32-2.63-6.92-5.57-10.03-8.1-4.56-3.75-9.81-8.06-13.49-11.1-2.49-2.06-5.37-3.49-8.05-4.06-1.74-.32-3.31-.32-4.56.19-1 .43-1.89 1.24-2.44 2.49-.75 1.68-1.13 4.06-.93 7.3.18 2.89 1.18 6 2.5 9.05 1.94 4.43 4.6 8.55 6.62 11.17.13.19.24.3.32.49l39.49 56.39c.49.75.81 1.56.87 2.37.81 6.5 2.17 11.43 4.18 14.48 1.5 2.25 3.38 3.38 5.8 3.31h62.14c3.87-.08 7.37-1.19 10.61-3.42 3.56-2.43 6.74-6.25 9.68-11.36.05-.06.13-.19.19-.25 1.11-1.93 2.62-4.42 4.05-6.81 6.31-10.36 11.79-19.41 12.41-32.26l-.38-17.71c-.07-.24-.05-.49-.05-.75s0-1.94.05-4.18c.13-11.72.32-26.2-10.41-28.01h-6.94c-.05 3.3-.24 6.68-.43 9.91-.19 2.95-.38 5.69-.36 8.37 0 2.86-2.3 5.17-5.17 5.17s-5.18-2.31-5.18-5.17c0-2.7.19-5.81.38-9.05.69-11.04 1.5-23.71-7.3-25.27h-6.87c-.38 0-.76-.06-1.12-.14.06 4-.18 8.11-.43 12.13-.19 2.94-.38 5.67-.37 8.35 0 2.87-2.3 5.18-5.17 5.18a5.16 5.16 0 0 1-5.17-5.18c0-2.69.19-5.81.38-9.03.69-11.05 1.5-23.72-7.31-25.28h-6.87c-.49 0-.93-.06-1.38-.19v20.15c0 2.86-2.3 5.17-5.17 5.17s-5.17-2.31-5.17-5.17l-.05-54.1c0-9.04-3.68-14.79-8.43-17.16-1.74-.87-3.62-1.31-5.42-1.31-1.8 0-3.69.44-5.42 1.31-4.68 2.36-8.29 8.12-8.3 17.4v94.78a5.16 5.16 0 0 1-5.18 5.17c-2.87 0-5.17-2.3-5.17-5.17v-9.62l-.14.01zm48.43-61.52c.43-.11.87-.19 1.37-.19h7.19c.38 0 .81.06 1.19.12 9.55 1.5 13.85 7.04 15.59 14.29.68-.3 1.44-.51 2.19-.51h7.19c.38 0 .81.06 1.19.11 10.28 1.63 14.41 7.94 15.91 15.92.25-.07.49-.06.81-.06h7.19c.38 0 .81.06 1.19.12 19.72 3.05 19.46 22.65 19.27 38.43v4.11l.44 18.24v.55c-.76 15.53-6.86 25.58-13.92 37.18-1.19 1.95-2.36 3.93-3.98 6.68-.06.06-.06.12-.13.19-3.68 6.44-7.93 11.35-12.79 14.73-4.92 3.41-10.41 5.17-16.4 5.24l-62.14.03c-6.17.12-10.98-2.54-14.54-7.86-2.87-4.24-4.75-10.24-5.74-17.72l-38.68-55.28-.18-.19c-2.31-3.06-5.44-7.87-7.8-13.16-1.75-3.98-3.06-8.3-3.37-12.54-.31-5.05.37-9.04 1.79-12.22 1.75-3.93 4.61-6.5 8.04-7.87 3.19-1.31 6.8-1.5 10.42-.75 4.38.87 8.86 3.06 12.67 6.24 3.12 2.62 8.36 6.85 13.47 11.04l4.25 3.49v-71.94c0-13.8 6.1-22.65 14.05-26.64 3.18-1.63 6.6-2.44 10.11-2.44 3.5 0 6.93.81 10.12 2.44 7.92 3.98 14.16 12.91 14.17 26.46v23.82l-.14-.06zM189.14 139l-8.76 9.24-8.86-8.7c-10.19-10.03-17.88-17.59-33.18-17.81l-1.93.03c-8.54.3-16.4 3.42-22.11 8.75-5.56 5.18-9.12 12.59-9.25 21.58l.03 1.87c.95 26.48 27.06 50.27 48.7 69.99 4.22 3.85 8.28 7.54 12.31 11.43l14.01 13.5 18.21-18.08 11.07-10.68c6.74-6.48 14.26-13.69 21.22-20.88 4.98-5.17 9.73-10.37 13.7-15.29 3.84-4.76 7.01-9.29 8.98-13.24 3.14-6.26 4.13-12.53 3.47-18.35-.66-5.75-2.95-11.17-6.37-15.77-3.49-4.73-8.17-8.65-13.51-11.32-6.11-3.07-13.15-4.51-20.31-3.7-12.3 1.41-19.13 8.64-27.42 17.43zm-9.18-13.61c9.46-9.93 18.11-17.84 34.77-19.75 10.36-1.19 20.49.89 29.3 5.31 7.6 3.8 14.25 9.38 19.22 16.1 5.05 6.81 8.44 14.86 9.43 23.48 1 8.75-.46 18.1-5.09 27.34-2.56 5.11-6.33 10.57-10.81 16.12-4.34 5.38-9.4 10.93-14.63 16.35-7.21 7.45-14.83 14.75-21.68 21.32l-10.86 10.51-29.34 29.12-25.28-24.35c-3.46-3.33-7.68-7.17-12.01-11.13-23.89-21.76-52.7-48.03-53.9-81.28l-.03-2.55c.17-13.75 5.68-25.13 14.33-33.2 8.51-7.94 20.06-12.6 32.46-13.03l2.64-.02c20.19.26 29.97 8.44 41.48 19.66z"/></svg>