<svg id="Layer_1" data-name="Layer 1" xmlns="http://www.w3.org/2000/svg" viewBox="0 0 91.85 122.88"><defs><style>.cls-1,.cls-2{fill-rule:evenodd;}.cls-2{fill:#f44336;}</style></defs><title>push-notification</title><path class="cls-1" d="M13.28,0H57.41A13.28,13.28,0,0,1,70.68,13.28v5.65H66.09V14.48H4.57v90H66.09V93.84l.68-.42a41.74,41.74,0,0,0,3.91-2.75V109.6a13.28,13.28,0,0,1-13.27,13.28H13.28A13.28,13.28,0,0,1,0,109.6V13.26A13.25,13.25,0,0,1,13.28,0Zm22,108.6a5.46,5.46,0,1,1-5.46,5.45,5.44,5.44,0,0,1,5.46-5.45Z"/><path class="cls-2" d="M79.25,25.5a12.54,12.54,0,0,1,12.6,12.59V67.33a12.55,12.55,0,0,1-12.6,12.6H69C63.72,86.6,56.87,90.61,48.76,92.77A1.79,1.79,0,0,1,47,92.24a1.77,1.77,0,0,1,.15-2.51A19,19,0,0,0,49.73,87,23.18,23.18,0,0,0,53,79.89H43a12.56,12.56,0,0,1-12.59-12.6V38.07A12.55,12.55,0,0,1,43,25.47c13.29,0,22.92,0,36.21,0ZM65.56,64.59A4.46,4.46,0,0,1,64,67.18,4.65,4.65,0,0,1,62.7,68a4.43,4.43,0,0,1-1.55.26,4.4,4.4,0,0,1-2.89-1,4.69,4.69,0,0,1-1-1.19,4.64,4.64,0,0,1-.52-1.45.47.47,0,0,1,.38-.55h8a.48.48,0,0,1,.46.61ZM64.79,38a11.18,11.18,0,0,1,1.55.77l.06,0a10.61,10.61,0,0,1,1.32,1,10,10,0,0,1,2.15,2.6,10.3,10.3,0,0,1,.73,1.54h0a9,9,0,0,1,.47,1.69,10.4,10.4,0,0,1,.16,1.77v1.93c0,.62,0,1.22,0,1.8h0a12.38,12.38,0,0,0,.1,1.6,12.19,12.19,0,0,0,.28,1.53h0a8.64,8.64,0,0,0,.5,1.4A9.31,9.31,0,0,0,72.91,57h0a8.35,8.35,0,0,0,1.15,1.28,12.61,12.61,0,0,0,1.64,1.27A.79.79,0,0,1,75.26,61H47a.79.79,0,0,1-.79-.79.81.81,0,0,1,.38-.67,12.17,12.17,0,0,0,1.63-1.27A7.43,7.43,0,0,0,49.4,57l0,0a9.16,9.16,0,0,0,.75-1.31,7.45,7.45,0,0,0,.51-1.41,0,0,0,0,0,0,0A10.79,10.79,0,0,0,51,52.7a13.92,13.92,0,0,0,.1-1.61V47.38a9.74,9.74,0,0,1,.16-1.78,8.81,8.81,0,0,1,.47-1.69A10.13,10.13,0,0,1,57.57,38a9,9,0,0,1,1.15-.35,2.35,2.35,0,0,1,.69-1.15,2.94,2.94,0,0,1,3.56,0c1.58,1.4-.39.63,1.82,1.5Z"/></svg>