<svg id="Layer_1" data-name="Layer 1" xmlns="http://www.w3.org/2000/svg" viewBox="0 0 92.53 122.88"><defs><style>.cls-1{fill-rule:evenodd;}</style></defs><title>question-location</title><path class="cls-1" d="M46.27,18.21A28.62,28.62,0,1,1,17.64,46.83,28.62,28.62,0,0,1,46.27,18.21Zm1.36,97.49A82.87,82.87,0,0,0,64,101.81,85.44,85.44,0,0,0,84.56,62.23c2.81-13.67,1.5-27-4.75-37.34a36.74,36.74,0,0,0-6.63-8.06C65.62,9.93,57,6.64,48.23,6.56,39.07,6.49,29.77,10,21.55,16.5a38.54,38.54,0,0,0-8.63,9.56C7.15,35.15,5.41,46.43,7.31,58.24c1.94,12,7.66,24.61,16.77,36A102.46,102.46,0,0,0,47.63,115.7Zm21.24-9.46a89.32,89.32,0,0,1-19.33,16,3.28,3.28,0,0,1-3.71.13,109.25,109.25,0,0,1-26.9-24c-9.8-12.31-16-26-18.1-39.1C-1.33,45.89.7,33,7.36,22.53a45.3,45.3,0,0,1,10.1-11.18C26.85,3.87,37.6-.09,48.29,0,58.6.09,68.79,3.92,77.6,12a43.1,43.1,0,0,1,7.82,9.52c7.15,11.8,8.71,26.83,5.57,42.05a92.2,92.2,0,0,1-22.12,42.7Zm-27-53.46V52a17.73,17.73,0,0,1,.39-4.1,6.13,6.13,0,0,1,1.17-2.46,9,9,0,0,1,1.88-1.68c.65-.44,1.22-.85,1.73-1.26a5.33,5.33,0,0,0,1.2-1.29,2.79,2.79,0,0,0,.45-1.56,2.57,2.57,0,0,0-.36-1.37,2.5,2.5,0,0,0-1-.93A3,3,0,0,0,46,37.07a3,3,0,0,0-2.61,1.46A3.08,3.08,0,0,0,43,40.12H35.26a9.6,9.6,0,0,1,1.51-5.57,8.62,8.62,0,0,1,3.92-3.15,14,14,0,0,1,5.36-1,16,16,0,0,1,5.77,1,8.78,8.78,0,0,1,4,2.93,8,8,0,0,1,1.46,4.89,8.14,8.14,0,0,1-.63,3.31A7.78,7.78,0,0,1,54.92,45a13.92,13.92,0,0,1-2.59,2,10.23,10.23,0,0,0-1.82,1.34,4.62,4.62,0,0,0-1.12,1.58A5.37,5.37,0,0,0,49,52v.74Zm3.68,10.48a4,4,0,0,1-3-1.26,4.21,4.21,0,0,1-1.23-3.1,4.13,4.13,0,0,1,1.23-3,4.11,4.11,0,0,1,5.92,0,4.19,4.19,0,0,1,1.3,3,4.3,4.3,0,0,1-.62,2.21,4.63,4.63,0,0,1-1.54,1.57,3.88,3.88,0,0,1-2.07.58Z"/></svg>