<svg id="Layer_1" data-name="Layer 1" xmlns="http://www.w3.org/2000/svg" viewBox="0 0 122.88 121.83"><defs><style>.cls-1,.cls-2{fill-rule:evenodd;}.cls-2{fill:red;}.cls-3{fill:#fff;}</style></defs><title>rar</title><path class="cls-1" d="M102.42,37H81.92a8.52,8.52,0,0,1-8.85-8.7V7.53H21a.58.58,0,0,0-.41.18.45.45,0,0,0-.18.42V113.71a.7.7,0,0,0,.18.41.51.51,0,0,0,.41.18h80.84c.18,0,.17-.09.26-.18s.34-.28.34-.41V37Zm7.47,79.08a5.77,5.77,0,0,1-5.76,5.76H18.66a5.77,5.77,0,0,1-5.76-5.76V5.76a5.7,5.7,0,0,1,1.69-4.07A5.77,5.77,0,0,1,18.66,0H76.9a4.22,4.22,0,0,1,2.46.82l29.75,30.12a2.57,2.57,0,0,1,.78,2.6v82.53ZM80,27.69,79.57,9.63,100.66,31l-18.14-.81A2.4,2.4,0,0,1,80,27.69Z"/><path class="cls-2" d="M6.71,46.28H116.17A6.73,6.73,0,0,1,122.88,53v45.1a6.73,6.73,0,0,1-6.71,6.71H6.71A6.73,6.73,0,0,1,0,98.09V53a6.73,6.73,0,0,1,6.71-6.71Z"/><path class="cls-3" d="M12.43,91.3V59.78H28.66a23.45,23.45,0,0,1,6.9.77,7.44,7.44,0,0,1,3.85,2.87,9.71,9.71,0,0,1,.34,9.65,8.63,8.63,0,0,1-3.08,3.1,11.91,11.91,0,0,1-3.42,1.25,9.81,9.81,0,0,1,2.53,1.16,9.76,9.76,0,0,1,1.55,1.66,11.61,11.61,0,0,1,1.36,2l4.73,9.1h-11l-5.21-9.61a7.24,7.24,0,0,0-1.76-2.43,4.14,4.14,0,0,0-2.39-.73H22.2V91.3ZM22.2,72.59h4.12a15.5,15.5,0,0,0,2.58-.43,2.55,2.55,0,0,0,1.58-1,3,3,0,0,0,.62-1.84,2.93,2.93,0,0,0-1-2.35c-.65-.55-1.86-.82-3.64-.82H22.2v6.43ZM65.94,86.11h-11L53.32,91.3h-10L55.24,59.78H65.9L77.72,91.3H67.52l-1.58-5.19Zm-2.06-6.83L60.43,68,57,79.28Zm15.57,12V59.78H95.69a23.45,23.45,0,0,1,6.9.77,7.44,7.44,0,0,1,3.85,2.87,9.71,9.71,0,0,1,.34,9.65,8.66,8.66,0,0,1-3.09,3.1,11.8,11.8,0,0,1-3.42,1.25,9.75,9.75,0,0,1,2.54,1.16,9.76,9.76,0,0,1,1.55,1.66,11.61,11.61,0,0,1,1.36,2l4.73,9.1h-11l-5.2-9.61a7.38,7.38,0,0,0-1.76-2.43,4.14,4.14,0,0,0-2.39-.73h-.86V91.3Zm9.78-18.71h4.12a15.5,15.5,0,0,0,2.58-.43,2.57,2.57,0,0,0,1.58-1A3.23,3.23,0,0,0,97.16,67c-.65-.55-1.86-.82-3.64-.82H89.23v6.43Z"/></svg>