<svg id="Layer_1" data-name="Layer 1" xmlns="http://www.w3.org/2000/svg" viewBox="0 0 122.88 121.22"><defs><style>.cls-1{fill:#ee6e62;}</style></defs><title>ravelry</title><path class="cls-1" d="M122.74,55.11c-.31-2.61-.43-5.26-.95-7.83A77.55,77.55,0,0,0,119.35,38a46.3,46.3,0,0,0-7.81-14.52A62.08,62.08,0,0,0,106.78,18,60.11,60.11,0,0,0,94.86,8.92,60.93,60.93,0,0,0,80.51,2.69C77.72,1.91,74.87,1.32,72,.77,70.31.43,68.55.35,66.81.14c-.08,0-.15-.09-.23-.14H58.41c-.61.1-1.22.23-1.83.29a46.52,46.52,0,0,0-8.67,1.79A56.44,56.44,0,0,0,37.85,6.21a72.23,72.23,0,0,0-9.64,6.11c-1.56,1.16-3.1,2.36-4.54,3.66-2.58,2.33-5.16,4.66-7.58,7.14a61.7,61.7,0,0,0-8.51,11.1A52,52,0,0,0,2.39,45.48,51.7,51.7,0,0,0,.06,63.23,73.94,73.94,0,0,0,1.18,73.39,56.63,56.63,0,0,0,5.41,86.85a53.07,53.07,0,0,0,6.07,10A54.63,54.63,0,0,0,18.15,104a64.26,64.26,0,0,0,10.57,7.73,73.44,73.44,0,0,0,14.15,6.38,68.7,68.7,0,0,0,10.28,2.48c1.54.26,3.11.32,4.66.48a1,1,0,0,1,.3.14h8.17c.64-.1,1.27-.24,1.91-.29a48.42,48.42,0,0,0,12-2.71,55.63,55.63,0,0,0,12.39-6c2.46-1.63,4.9-3.3,7.27-5.08a52.68,52.68,0,0,0,4.12-3.65c1-.93,2-1.91,2.92-2.9a58.61,58.61,0,0,0,7.95-10.52,52.27,52.27,0,0,0,5.64-12.86c.72-2.63,1.25-5.31,1.78-8,.26-1.33.31-2.71.47-4.06a.62.62,0,0,1,.14-.23V55.56a1.94,1.94,0,0,1-.14-.45ZM82,54.82a50.69,50.69,0,0,0-7.2-.75c-6.89,0-8.5,3.76-8.5,9.35V87.07H47.67V38.91h18.6V47C68.53,40.2,73,37.83,82,37.83v17Z"/></svg>