<svg id="Layer_1" data-name="Layer 1" xmlns="http://www.w3.org/2000/svg" viewBox="0 0 122.88 120.94"><title>real-time-data</title><path d="M62.41,8.29a4.15,4.15,0,1,1,0-8.29A60.52,60.52,0,1,1,10.75,29.05L5.62,31a4.14,4.14,0,1,1-2.95-7.74L16,18.18a4.31,4.31,0,0,1,1.31-.27A4.13,4.13,0,0,1,22,20.78L26.14,34.4a4.13,4.13,0,0,1-7.91,2.4L17.39,34a52.22,52.22,0,1,0,45-25.75Zm0,28.68c9.92,0,18,3.77,18,8.41s-8,8.41-18,8.41-18-3.76-18-8.41,8-8.41,18-8.41Zm-18,31.75v6.46c3.19,11.36,34.78,9.16,35.94-.58V68.15C78.8,78.84,47,79.61,44.44,68.72Zm-.09-19.21v6.3c3.2,11.09,34.95,9.59,36.12.08v-6.3C78.89,60,46.87,60.14,44.35,49.51Zm0,9.35v6.46c3.2,11.35,34.95,9.81,36.12.07V58.94c-1.58,10.7-33.6,10.81-36.12-.08Zm0-34.15A3.59,3.59,0,0,1,51,22l2.69,6.54A3.6,3.6,0,1,1,47,31.26l-2.69-6.55ZM22.89,58a3.6,3.6,0,0,1,1-7.14l7,.94a3.6,3.6,0,1,1-1,7.14l-7-.94ZM41,93.16a3.6,3.6,0,0,1-5.7-4.4l4.32-5.6a3.6,3.6,0,1,1,5.7,4.4L41,93.16ZM80.48,95.1a3.59,3.59,0,1,1-6.65,2.73l-2.69-6.54a3.6,3.6,0,0,1,6.66-2.73l2.68,6.54Zm21.44-33.26A3.6,3.6,0,0,1,101,69L94,68a3.6,3.6,0,0,1,1-7.14l7,.94ZM83.85,26.65a3.6,3.6,0,1,1,5.69,4.4l-4.32,5.6a3.6,3.6,0,1,1-5.69-4.4l4.32-5.6Z"/></svg>