<svg id="Layer_1" data-name="Layer 1" xmlns="http://www.w3.org/2000/svg" viewBox="0 0 118.86 122.88"><title>receipt-pound</title><path d="M113.28,113.76l-2.17-2.5-10.56,10.56a3.18,3.18,0,0,1-4.46,0L85.33,111.38,74.79,121.5a3.19,3.19,0,0,1-4.43.13L59.17,111.3,48.84,122a3.2,3.2,0,0,1-4.51,0L33.69,111.3l-11,10.44a3.17,3.17,0,0,1-4.44-.06L7.85,111.14l-2.1,2.43A3.18,3.18,0,0,1,0,111.68V3.18A3.19,3.19,0,0,1,3.18,0H115.67a3.19,3.19,0,0,1,3.19,3.18v108.5a3.22,3.22,0,0,1-1.11,2.4,3.17,3.17,0,0,1-4.47-.32ZM30.38,56h7.25v5.73H31.22a12.38,12.38,0,0,1-.74,3.65A9.16,9.16,0,0,1,28.8,68a11.33,11.33,0,0,1,2.3-.29,14.44,14.44,0,0,1,3.18.46,20.38,20.38,0,0,0,4.28.62,10.74,10.74,0,0,0,2.28-.22,14.15,14.15,0,0,0,2.55-.94l3.26,7.15a21,21,0,0,1-4.17,1.64,15.67,15.67,0,0,1-3.84.45A20.07,20.07,0,0,1,33.5,76q-3.8-1-4.71-1.2a11,11,0,0,0-2-.17A13.79,13.79,0,0,0,20,76.83L16.92,70q5-3.6,5-7.2c0-.13,0-.49-.05-1.08h-5V56h3.57c-.6-2.1-.95-3.32-1-3.65a10,10,0,0,1-.15-1.89,9.41,9.41,0,0,1,1.59-5.36,9,9,0,0,1,4.18-3.45,18.79,18.79,0,0,1,7-1.07,18.75,18.75,0,0,1,6.51.92,9.3,9.3,0,0,1,4.06,3.05,12.38,12.38,0,0,1,2.28,5.18l-9.16,1.43a7.39,7.39,0,0,0-1.58-3.39,3.05,3.05,0,0,0-4.27.08,3.59,3.59,0,0,0-.86,2.57,8,8,0,0,0,.18,1.71c.1.55.49,1.84,1.14,3.87ZM83.3,74a3,3,0,1,1,0,6h-28a3,3,0,0,1,0-6ZM99,58a3,3,0,0,1,0,6H55.25a3,3,0,0,1,0-6Zm.1-15.91a3,3,0,1,1,0,6H55.25a3,3,0,0,1,0-6ZM96,15.68a5.29,5.29,0,1,1-3.74,1.55A5.24,5.24,0,0,1,96,15.68Zm-24.37,0a5.27,5.27,0,1,1-3.74,1.55,5.27,5.27,0,0,1,3.74-1.55Zm-24.36,0a5.29,5.29,0,1,1-3.74,1.55,5.24,5.24,0,0,1,3.74-1.55Zm-24.37,0a5.27,5.27,0,1,1-3.74,1.55,5.27,5.27,0,0,1,3.74-1.55Zm89.61,88V6.37H6.37V103.6a3.18,3.18,0,0,1,3.41.48L20.6,115l11-10.44a3.18,3.18,0,0,1,4.44.06l10.56,10.55,10.21-10.52a3.19,3.19,0,0,1,4.43-.12l11.27,10.4,10.67-10.25a3.18,3.18,0,0,1,4.44,0l10.68,10.39L109,104.36a3.19,3.19,0,0,1,3.48-.69Z"/></svg>