<svg id="Layer_1" data-name="Layer 1" xmlns="http://www.w3.org/2000/svg" viewBox="0 0 118.86 122.88"><title>receipt-euro</title><path d="M113.28,113.76l-2.17-2.5-10.56,10.56a3.18,3.18,0,0,1-4.46,0L85.33,111.38,74.79,121.5a3.19,3.19,0,0,1-4.43.13L59.17,111.3,48.84,122a3.2,3.2,0,0,1-4.51,0L33.69,111.3l-11,10.44a3.17,3.17,0,0,1-4.44-.06L7.85,111.14l-2.1,2.43A3.18,3.18,0,0,1,0,111.68V3.18A3.19,3.19,0,0,1,3.18,0H115.67a3.19,3.19,0,0,1,3.19,3.18v108.5a3.22,3.22,0,0,1-1.11,2.4,3.17,3.17,0,0,1-4.47-.32ZM35.64,61.14l-1,4.63H27.54q1.38,4.73,6,4.73A14.7,14.7,0,0,0,42.92,67v9.46a14.31,14.31,0,0,1-8.78,2.71q-8.31,0-12.3-4.14A17.55,17.55,0,0,1,17,65.77H12.76l1.1-4.63h2.58a12.84,12.84,0,0,1-.05-1.34c0-.68,0-1.17.05-1.47H13.33l1.11-4.63H17q3-13,16.65-13a18.19,18.19,0,0,1,9,2.59l-2.1,9.21q-3.18-3.18-6.63-3.18A6,6,0,0,0,27.8,53.7h8.41l-1,4.63H27c0,.34,0,.82,0,1.47v1.34ZM83.3,74a3,3,0,1,1,0,6h-28a3,3,0,0,1,0-6ZM99,58a3,3,0,0,1,0,6H55.25a3,3,0,0,1,0-6Zm.1-15.91a3,3,0,1,1,0,6H55.25a3,3,0,0,1,0-6ZM96,15.68a5.29,5.29,0,1,1-3.74,1.55A5.24,5.24,0,0,1,96,15.68Zm-24.37,0a5.27,5.27,0,1,1-3.74,1.55,5.27,5.27,0,0,1,3.74-1.55Zm-24.36,0a5.29,5.29,0,1,1-3.74,1.55,5.24,5.24,0,0,1,3.74-1.55Zm-24.37,0a5.27,5.27,0,1,1-3.74,1.55,5.27,5.27,0,0,1,3.74-1.55Zm89.61,88V6.37H6.37V103.6a3.18,3.18,0,0,1,3.41.48L20.6,115l11-10.44a3.18,3.18,0,0,1,4.44.06l10.56,10.55,10.21-10.52a3.19,3.19,0,0,1,4.43-.12l11.27,10.4,10.67-10.25a3.18,3.18,0,0,1,4.44,0l10.68,10.39L109,104.36a3.19,3.19,0,0,1,3.48-.69Z"/></svg>