<svg id="Layer_1" data-name="Layer 1" xmlns="http://www.w3.org/2000/svg" viewBox="0 0 118.86 122.88"><title>receipt-south-korean-won</title><path d="M113.28,113.76l-2.17-2.49-10.56,10.55a3.18,3.18,0,0,1-4.46,0L85.33,111.38,74.79,121.5a3.18,3.18,0,0,1-4.43.13L59.17,111.3,48.84,122a3.19,3.19,0,0,1-4.5,0L33.69,111.3l-11,10.44a3.16,3.16,0,0,1-4.43-.06L7.85,111.15l-2.1,2.42A3.18,3.18,0,0,1,0,111.69V3.18A3.19,3.19,0,0,1,3.18,0h112.5a3.19,3.19,0,0,1,3.18,3.18V111.69a3.21,3.21,0,0,1-1.11,2.4,3.17,3.17,0,0,1-4.47-.33ZM47.15,60.31H42.41L39.86,73.39H33.27L30.43,60.31H29.06L26.29,73.39H19.7L17.14,60.31h-5v-4h4.16l-.44-2.28H12.17v-4h2.94l-1-5.15H20.4l.89,5.15H26l1-5.15h5.36l1.07,5.15h4.78l.85-5.15h6.33l-1,5.15h2.71v4H43.63l-.44,2.28h4v4Zm-10.62,0H35.6l.52,2.47.41-2.47Zm-12.61,0H23l.4,2.47.49-2.47Zm-1.59-4h2.39l.49-2.28H22l.38,2.28Zm12.46,0h2.4l.41-2.28H34.31l.48,2.28ZM83.3,74a3,3,0,1,1,0,6h-28a3,3,0,1,1,0-6ZM99,58a3,3,0,0,1,0,6H55.26a3,3,0,1,1,0-6Zm.1-15.91a3,3,0,1,1,0,6H55.26a3,3,0,1,1,0-6ZM96,15.68a5.29,5.29,0,1,1-3.74,9,5.29,5.29,0,0,1,3.74-9Zm-24.37,0a5.27,5.27,0,1,1-3.74,1.55,5.27,5.27,0,0,1,3.74-1.55Zm-24.36,0a5.29,5.29,0,1,1-3.74,1.55,5.24,5.24,0,0,1,3.74-1.55Zm-24.37,0a5.27,5.27,0,1,1-3.74,1.55,5.27,5.27,0,0,1,3.74-1.55Zm89.61,88V6.37H6.37V103.6a3.2,3.2,0,0,1,3.41.48L20.6,115l11-10.44a3.2,3.2,0,0,1,4.44.06l10.56,10.55,10.22-10.52a3.17,3.17,0,0,1,4.42-.12l11.27,10.4,10.67-10.25a3.19,3.19,0,0,1,4.44,0l10.69,10.39L109,104.36a3.19,3.19,0,0,1,3.48-.69Z"/></svg>