<svg id="Layer_1" data-name="Layer 1" xmlns="http://www.w3.org/2000/svg" viewBox="0 0 118.86 122.88"><title>receipt-ruble</title><path d="M113.28,113.76l-2.17-2.5-10.56,10.56a3.18,3.18,0,0,1-4.46,0L85.33,111.38,74.79,121.5a3.19,3.19,0,0,1-4.43.13L59.17,111.3,48.84,122a3.2,3.2,0,0,1-4.51,0L33.69,111.3l-11,10.44a3.17,3.17,0,0,1-4.44-.06L7.85,111.14l-2.1,2.43A3.18,3.18,0,0,1,0,111.68V3.18A3.19,3.19,0,0,1,3.18,0H115.67a3.19,3.19,0,0,1,3.19,3.18v108.5a3.22,3.22,0,0,1-1.11,2.4,3.17,3.17,0,0,1-4.47-.32ZM34.74,66.2V72h-7v6.45h-9.9V72H13.93V66.2h3.94V63.1H13.93V57.35h3.94V41H33.3c3.93,0,7,.88,9.09,2.63s3.19,5.1,3.19,8.56-1.15,6.27-3.43,8.14S36.51,63.1,32.09,63.1H27.77v3.1Zm-7-8.85h2.67a7.83,7.83,0,0,0,2.7-.41,4.63,4.63,0,0,0,1.75-1.09,4,4,0,0,0,1-1.57,5.64,5.64,0,0,0,.29-1.82,11.79,11.79,0,0,0-.24-2.35,3.59,3.59,0,0,0-.83-1.47,4,4,0,0,0-1.61-1.07,7,7,0,0,0-2.58-.41h-3.1V57.35ZM83.3,74a3,3,0,1,1,0,6h-28a3,3,0,0,1,0-6ZM99,58a3,3,0,0,1,0,6H55.25a3,3,0,0,1,0-6Zm.1-15.91a3,3,0,1,1,0,6H55.25a3,3,0,0,1,0-6ZM96,15.68a5.29,5.29,0,1,1-3.74,1.55A5.24,5.24,0,0,1,96,15.68Zm-24.37,0a5.27,5.27,0,1,1-3.74,1.55,5.27,5.27,0,0,1,3.74-1.55Zm-24.36,0a5.29,5.29,0,1,1-3.74,1.55,5.24,5.24,0,0,1,3.74-1.55Zm-24.37,0a5.27,5.27,0,1,1-3.74,1.55,5.27,5.27,0,0,1,3.74-1.55Zm89.61,88V6.37H6.37V103.6a3.18,3.18,0,0,1,3.41.48L20.6,115l11-10.44a3.18,3.18,0,0,1,4.44.06l10.56,10.55,10.21-10.52a3.19,3.19,0,0,1,4.43-.12l11.27,10.4,10.67-10.25a3.18,3.18,0,0,1,4.44,0l10.68,10.39L109,104.36a3.19,3.19,0,0,1,3.48-.69Z"/></svg>