<svg xmlns="http://www.w3.org/2000/svg"  viewBox="0 0 333333 333333" shape-rendering="geometricPrecision" text-rendering="geometricPrecision" image-rendering="optimizeQuality" fill-rule="evenodd" clip-rule="evenodd"><path d="M166667 0c46023 0 87690 18655 117851 48816s48816 71828 48816 117851-18655 87690-48816 117851-71828 48816-117851 48816-87690-18655-117851-48816S0 212690 0 166667 18655 78977 48816 48816 120644 0 166667 0zm-39891 176654c0-5507 4468-9975 9974-9975 5507 0 9972 4468 9972 9975s-4465 9974-9972 9974-9974-4468-9974-9974zm59842 0c0-5507 4468-9975 9974-9975 5507 0 9976 4468 9976 9975s-4468 9974-9976 9974c-5507 0-9974-4468-9974-9974zm486 21313c2574-2023 6296-1587 8320 987 2023 2574 1588 6296-986 8319-7152 5637-18054 9278-27757 9278-9701 0-20604-3641-27767-9278-2574-2023-3010-5746-987-8319 2023-2574 5746-3010 8320-987 4120 3243 12267 6733 20433 6733 8170 0 16319-3490 20436-6733h-11zm59356-41261c0-11023-8926-19950-19947-19950-7501 0-14024 4141-17435 10255-10252-5605-22743-9236-36354-10073l11897-26729 22778 6573c2055 5817 7589 9993 14115 9993 8259 0 14961-6703 14961-14961 0-8259-6704-14961-14961-14961-5696 0-10655 3181-13177 7872l-25384-7333c-2843-819-5854 578-7054 3281l-16168 36310c-13265 940-25443 4521-35474 10014-3413-6115-9934-10255-17435-10255-11024 0-19947 8927-19947 19950 0 8149 4895 15162 11895 18251-1255 3740-1926 7649-1926 11670 0 27537 31256 49867 69817 49867 38560 0 69817-22330 69817-49867 0-4020-669-7928-1926-11670 7013-3089 11895-10102 11895-18251l11 15 3-1zm-24936-50485c3104 0 5620 2513 5620 5616 0 3102-2516 5616-5620 5616-3102 0-5616-2515-5616-5616 0-3105 2515-5616 5616-5616zM96855 156706c0-5495 4477-9975 9972-9975 3981 0 7413 2333 9018 5714-5219 3952-9533 8520-12726 13515-3672-1479-6264-5065-6264-9254v-1zm69817 67950c-32017 0-57978-17023-57978-38031 0-21007 25949-38033 57978-38033 32013 0 57974 17026 57974 38033 0 21008-25949 38030-57974 38030v1zm63550-58696c-3192-5007-7507-9563-12726-13515 1605-3369 5036-5714 9019-5714 5495 0 9974 4480 9974 9976 0 4188-2594 7781-6267 9254zm43075-105922c-27287-27287-64987-44165-106628-44165-41642 0-79341 16878-106628 44165s-44165 64987-44165 106628c0 41642 16878 79341 44165 106628s64987 44165 106628 44165c41642 0 79341-16878 106628-44165s44165-64987 44165-106628c0-41642-16878-79341-44165-106628z" fill="#ff4500" fill-rule="nonzero"/></svg>