<svg xmlns="http://www.w3.org/2000/svg" viewBox="0 0 3333 3333" shape-rendering="geometricPrecision" text-rendering="geometricPrecision" image-rendering="optimizeQuality" fill-rule="evenodd" clip-rule="evenodd"><path d="M1174 1790c0-68 55-123 123-123s123 55 123 123-55 123-123 123-123-55-123-123zM1666 0c460 0 877 187 1179 488 302 302 488 718 488 1179 0 460-187 877-488 1179-302 302-718 488-1179 488-460 0-877-187-1179-488C185 2544-1 2128-1 1667c0-460 187-877 488-1179C789 186 1205 0 1666 0zm1093 573c-280-280-666-453-1093-453S852 293 573 573c-280 280-453 666-453 1093s173 814 453 1093c280 280 666 453 1093 453s814-173 1093-453c280-280 453-666 453-1093s-173-814-453-1093zm-847 1217c0-68 55-123 123-123s123 55 123 123-55 123-123 123-123-55-123-123zm6 263c32-25 78-20 103 12s20 78-12 103c-88 70-223 115-343 115s-254-45-343-115c-32-25-37-71-12-103s71-37 103-12c51 40 151 83 252 83s201-43 252-83zm733-509c0-136-110-246-246-246-93 0-173 51-215 127-127-69-281-114-449-124l147-330 281 81c25 72 94 123 174 123 102 0 185-83 185-185s-83-185-185-185c-70 0-132 39-163 97l-313-91c-35-10-72 7-87 40l-200 448c-164 12-314 56-438 124-42-75-123-127-215-127-136 0-246 110-246 246 0 101 60 187 147 225-15 46-24 94-24 144 0 340 386 616 862 616s862-276 862-616c0-50-8-98-24-144 87-38 147-125 147-225zm-308-623c38 0 69 31 69 69s-31 69-69 69-69-31-69-69 31-69 69-69zM804 1544c0-68 55-123 123-123 49 0 92 29 111 71-64 49-118 105-157 167-45-18-77-63-77-114zm862 839c-395 0-716-210-716-469s320-470 716-470c395 0 716 210 716 470 0 259-320 469-716 469zm785-725c-39-62-93-118-157-167 20-42 62-71 111-71 68 0 123 55 123 123 0 52-32 96-77 114z"/></svg>