<svg xmlns="http://www.w3.org/2000/svg" viewBox="0 0 3333 3333" shape-rendering="geometricPrecision" text-rendering="geometricPrecision" image-rendering="optimizeQuality" fill-rule="evenodd" clip-rule="evenodd"><path d="M3021 0H313C141 0 0 141 0 312v2708c0 172 141 312 313 312h2708c172 0 313-141 313-312V312c0-172-141-312-313-312zm-232 1527c0-155-126-281-281-281-105 0-197 58-245 144-144-79-320-130-511-142l167-376 320 92c29 82 107 141 199 141 116 0 210-94 210-210s-94-210-210-210c-80 0-150 45-185 111l-357-103c-40-12-82 8-99 46l-227 511c-187 13-358 64-499 141-48-86-140-144-245-144-155 0-281 126-281 281 0 115 69 213 167 257-18 53-27 108-27 164 0 387 440 701 982 701s982-314 982-701c0-57-9-111-27-164 99-43 167-142 167-257zm-1683 281c0-77 63-140 140-140s140 63 140 140-63 140-140 140-140-63-140-140zm842 0c0-77 63-140 140-140s140 63 140 140-63 140-140 140-140-63-140-140zm7 300c36-28 89-22 117 14s22 89-14 117c-101 79-254 130-390 130s-290-51-391-130c-36-28-42-81-14-117s81-42 117-14c58 46 173 95 287 95 115 0 230-49 287-95zm484-1290c44 0 79 35 79 79s-35 79-79 79-79-35-79-79 35-79 79-79zM686 1528c0-77 63-140 140-140 56 0 104 33 127 80-73 56-134 120-179 190-52-21-88-71-88-130zm982 956c-450 0-815-239-815-535 0-295 365-535 815-535s815 239 815 535c0 295-365 535-815 535zm894-825c-45-70-106-134-179-190 23-47 71-80 127-80 77 0 140 63 140 140 0 59-36 109-88 130z"/></svg>