<svg xmlns="http://www.w3.org/2000/svg" shape-rendering="geometricPrecision" text-rendering="geometricPrecision" image-rendering="optimizeQuality" fill-rule="evenodd" clip-rule="evenodd" viewBox="0 0 398 511.89"><path fill-rule="nonzero" d="M192.15 93.53c27.89 0 53.16 11.32 71.43 29.58 18.26 18.27 29.59 43.56 29.59 71.45s-11.33 53.16-29.59 71.42c-18.27 18.27-43.54 29.59-71.43 29.59-27.89 0-53.16-11.32-71.42-29.59-18.27-18.26-29.59-43.53-29.59-71.42s11.32-53.18 29.59-71.45c18.26-18.26 43.53-29.58 71.42-29.58zm152.68 275.95c-5.51.44-10.34-3.68-10.77-9.19-.44-5.5 3.68-10.33 9.19-10.77l21.7-1.73c-2.67-2.59-5.61-5.15-8.6-7.52-5.59-4.4-11.37-8.21-16.04-10.51-14.89-7.36-31.44-7.99-46.06-3.06-14.6 4.91-27.34 15.44-34.7 30.32-7.35 14.89-8.01 31.44-3.07 46.06 4.93 14.59 15.44 27.34 30.35 34.71 14.05 6.95 29.57 7.91 43.52 3.89 14.08-4.08 26.69-13.32 34.73-26.55 2.84-4.7 9-6.2 13.69-3.35 4.7 2.84 6.2 8.99 3.36 13.68-10.73 17.68-27.52 29.97-46.22 35.39-18.6 5.37-39.23 4.08-57.91-5.15-19.87-9.84-33.89-26.8-40.46-46.27-6.57-19.45-5.7-41.43 4.1-61.25 9.83-19.84 26.81-33.87 46.26-40.42 19.45-6.57 41.42-5.72 61.25 4.09 5.89 2.92 12.96 7.55 19.58 12.8 2.73 2.17 5.37 4.44 7.89 6.74l-.94-17.41c-.28-5.51 3.96-10.22 9.46-10.5 5.51-.27 10.22 3.97 10.5 9.47l2.33 42.23c.43 5.51-3.69 10.34-9.2 10.77l-43.94 3.53zM197.87 486.73a334.67 334.67 0 0 0 23.83-16.65c4.08 6.51 8.7 12.67 13.79 18.41a363.28 363.28 0 0 1-30.93 21.14c-3.71 2.74-8.9 3.08-13.02.48-44.97-28.57-82.71-63.03-112.45-100.33-40.97-51.42-66.81-108.47-75.65-163.32-8.98-55.67-.53-109.24 27.14-152.82C41.49 76.46 55.46 60.8 72.5 47.23 111.55 16.1 156.27-.37 200.63.01c42.75.37 85.1 16.31 121.69 49.7 12.82 11.68 23.61 25.02 32.43 39.52 29.45 48.58 36.06 110.48 23.49 173.26-7.28-2.11-14.81-3.63-22.53-4.51 11.46-57.37 5.71-113.42-20.61-156.84a156.379 156.379 0 0 0-28.28-34.38C274.6 37.37 237.6 23.32 200.44 23.01c-39.04-.32-78.67 14.4-113.62 42.25-14.91 11.87-27.16 25.62-36.75 40.73-24.58 38.7-32 86.69-23.91 136.88 8.21 50.97 32.45 104.26 70.96 152.59 26.82 33.63 60.59 64.88 100.75 91.27zm49.41-347.32c-14.08-14.09-33.61-22.85-55.13-22.85-21.52 0-41.05 8.76-55.13 22.85-14.08 14.08-22.84 33.63-22.84 55.15 0 21.52 8.76 41.05 22.84 55.13 14.08 14.08 33.61 22.84 55.13 22.84 21.52 0 41.05-8.76 55.13-22.84 14.09-14.08 22.85-33.61 22.85-55.13 0-21.52-8.76-41.07-22.85-55.15z"/></svg>