<?xml version="1.0" encoding="UTF-8"?>
<!DOCTYPE svg PUBLIC "-//W3C//DTD SVG 1.1//EN" "http://www.w3.org/Graphics/SVG/1.1/DTD/svg11.dtd">
<!-- Creator: CorelDRAW 2021 (64-Bit) -->
<svg xmlns="http://www.w3.org/2000/svg" xml:space="preserve" width="512px" height="499px" version="1.1" shape-rendering="geometricPrecision" text-rendering="geometricPrecision" image-rendering="optimizeQuality" fill-rule="evenodd" clip-rule="evenodd"
viewBox="0 0 512 498.93"
 xmlns:xlink="http://www.w3.org/1999/xlink"
 xmlns:xodm="http://www.corel.com/coreldraw/odm/2003">
 <g id="Layer_x0020_1">
  <metadata id="CorelCorpID_0Corel-Layer"/>
  <path fill="black" d="M389.76 0c33.74,0 64.31,13.69 86.42,35.8 22.13,22.12 35.82,52.7 35.82,86.44 0,33.75 -13.69,64.33 -35.8,86.44 -22.13,22.12 -52.7,35.82 -86.44,35.82 -33.71,0 -64.27,-13.68 -86.4,-35.82 -22.19,-22.2 -35.86,-52.76 -35.86,-86.44 0,-33.74 13.69,-64.32 35.82,-86.44 22.11,-22.11 52.69,-35.8 86.44,-35.8zm-262.63 93.07l-81.73 86.37 81.73 0 0 -86.37zm-127.13 102.75c0,-1.15 0.15,-2.27 0.41,-3.35 0.13,-3.14 1.36,-6.27 3.69,-8.73l124.37 -131.42c2.31,-4.18 6.78,-7.01 11.9,-7.01l113.41 0c-4.87,8.6 -8.97,17.7 -12.16,27.2l-87.3 0 0 120.52c0,7.5 -6.09,13.59 -13.59,13.59l-113.53 0 0 265.11 392.02 0 0 -196.05c9.4,-1.8 18.49,-4.44 27.21,-7.83l0 204.05c0,7.39 -3.05,14.15 -7.93,19.05 -4.96,4.94 -11.72,7.98 -19.11,7.98l-392.35 0c-7.43,0 -14.21,-3.06 -19.09,-7.94 -4.88,-4.89 -7.95,-11.67 -7.95,-19.09l0 -276.08zm324.89 79.39c7.53,0 13.66,6.05 13.66,13.52 0,7.47 -6.13,13.52 -13.66,13.52l-203.35 0c-7.54,0 -13.66,-6.05 -13.66,-13.52 0,-7.47 6.12,-13.52 13.66,-13.52l203.35 0zm0 91.23c7.53,0 13.66,6.05 13.66,13.52 0,7.47 -6.13,13.52 -13.66,13.52l-203.35 0c-7.54,0 -13.66,-6.05 -13.66,-13.52 0,-7.47 6.12,-13.52 13.66,-13.52l203.35 0zm95.33 -271.91l-2.41 -1.97 -0.52 -0.43c-3.71,-2.9 -7.55,-5.41 -10.68,-6.95 -10.23,-5.05 -21.57,-5.5 -31.61,-2.12 -10.03,3.39 -18.78,10.62 -23.85,20.83 -5.06,10.22 -5.5,21.57 -2.12,31.61 3.39,10.03 10.63,18.8 20.85,23.87 9.65,4.77 20.3,5.44 29.88,2.66 9.68,-2.81 18.33,-9.12 23.85,-18.21 2.67,-4.41 8.42,-5.82 12.83,-3.16 4.41,2.66 5.82,8.42 3.16,12.83 -8.04,13.24 -20.59,22.45 -34.63,26.51 -13.93,4.03 -29.38,3.07 -43.37,-3.85 -14.89,-7.38 -25.39,-20.1 -30.32,-34.65 -4.9,-14.59 -4.26,-31.04 3.09,-45.89 7.37,-14.88 20.08,-25.37 34.63,-30.3 14.59,-4.9 31.03,-4.25 45.89,3.08 4.21,2.09 9.2,5.33 13.95,9.04l0.55 0.4 1.98 1.6 -0.41 -7.43c-0.28,-5.15 3.68,-9.59 8.83,-9.87 5.15,-0.28 9.58,3.69 9.86,8.84l1.69 30.48c0.4,5.15 -3.46,9.69 -8.61,10.08l-31.74 2.56c-5.15,0.39 -9.68,-3.47 -10.07,-8.62 -0.41,-5.15 3.46,-9.68 8.61,-10.07l10.69 -0.87z"/>
 </g>
</svg>
