<svg xmlns="http://www.w3.org/2000/svg" shape-rendering="geometricPrecision" text-rendering="geometricPrecision" image-rendering="optimizeQuality" fill-rule="evenodd" clip-rule="evenodd" viewBox="0 0 512 342.68"><path d="M3.59 300.55a3.59 3.59 0 0 1-3.59-3.6c0-1.02.14-2.03.39-3.03 5.76-45.65 41.5-57.84 66.86-64.42 12.69-3.29 44.26-15.82 31.69-33.04-7.06-9.67-13.45-16.47-19.84-26.68-4.61-6.81-7.04-12.88-7.04-17.75 0-5.19 2.75-11.27 8.26-12.64-.73-10.45-.97-24.2-.48-35.39 1.75-19.2 15.52-33.35 33.31-39.62 7.05-2.68 3.64-13.38 11.42-13.62 18.24-.49 48.15 15.07 59.82 27.71 6.81 7.3 11.18 17.02 11.91 29.91l-.73 32.22c3.4.98 5.59 3.16 6.57 6.56.97 3.89 0 9.25-3.41 16.79 0 .24-.24.24-.24.48-7.5 12.37-15.33 20.56-23.92 32.03-3.84 5.11-3.09 10.01.1 14.41-4.48 2.62-8.85 5.62-13.05 9.16-16.68 14-29.55 34.88-34.07 68.12l-.57 3.39c-.24 1.9-.38 3.48-.38 4.66 0 1.48.13 2.93.37 4.35H3.59zM428 174.68c46.41 0 84 37.62 84 84 0 46.4-37.62 84-84 84-46.4 0-84-37.62-84-84 0-46.41 37.62-84 84-84zm-32.91 69.15c-2.64-2.6-4.83-4.29-1.29-7.47l10.87-10.88c3.5-3.53 5.55-3.35 8.8-.02l14.83 14.84 14.75-14.75c2.69-2.72 4.38-4.91 7.68-1.5l10.76 11c3.53 3.49 3.34 5.55.02 8.79l-14.83 14.83 14.83 14.84c3.33 3.24 3.51 5.29-.03 8.78l-10.75 11c-3.3 3.42-4.99 1.23-7.68-1.5l-14.74-14.74-14.84 14.83c-3.25 3.33-5.3 3.52-8.78-.02l-11.02-10.75c-3.41-3.31-1.22-4.99 1.5-7.68l14.76-14.76-14.84-14.84zm-242.32 56.76c-2.43 0-4.39-1.96-4.39-4.39 0-1.25.17-2.48.48-3.7 7.02-55.71 40.41-67.83 71.32-75.78 14.84-3.82 44.44-18.71 40.85-37.91-7.49-6.94-14.91-16.53-16.21-30.83l-.9.02c-2.07-.03-4.08-.5-5.95-1.56-4.13-2.35-6.4-6.85-7.48-11.99-2.3-15.67-2.87-23.67 5.48-27.17l.07-.02c-1.04-19.34 2.23-47.79-17.63-53.8 39.21-48.44 84.41-74.8 118.34-31.7 37.81 1.98 54.67 55.54 31.2 85.52h-1c8.36 3.5 7.1 12.49 5.49 27.17-1.09 5.14-3.36 9.64-7.49 11.99-1.87 1.06-3.87 1.53-5.95 1.56l-.9-.02c-1.29 14.3-8.74 23.89-16.23 30.83-1.01 5.43.63 10.52 3.84 15.11-14.05 17.81-22.44 40.31-22.44 64.76 0 14.89 3.11 29.07 8.73 41.91H152.77z"/></svg>