<svg id="Layer_1" data-name="Layer 1" xmlns="http://www.w3.org/2000/svg" viewBox="0 0 122.88 121.78"><title>remove-add-category</title><path d="M6.91,0H49.79a6.84,6.84,0,0,1,3,.67,7,7,0,0,1,2.39,1.88A6.54,6.54,0,0,1,56.29,4.6a6.61,6.61,0,0,1,.41,2.31V49.6a6.93,6.93,0,0,1-2.13,5,6.93,6.93,0,0,1-4.78,2H6.91A6.93,6.93,0,0,1,4.37,56a6.93,6.93,0,0,1-2.21-1.4A7.06,7.06,0,0,1,.58,52.33,6.65,6.65,0,0,1,0,49.6V6.91A6.84,6.84,0,0,1,.45,4.49,6.81,6.81,0,0,1,1.71,2.37L2,2.09A7.1,7.1,0,0,1,4.06.63,7,7,0,0,1,6.91,0ZM112,71.56l7.37,7.38a3.86,3.86,0,0,1,0,5.46l-10,10,10,10a3.86,3.86,0,0,1,0,5.46L112,117.23a3.84,3.84,0,0,1-5.45,0l-10-10-10,10a3.86,3.86,0,0,1-5.46,0l-7.37-7.37a3.87,3.87,0,0,1,0-5.46l10-10-10-10a3.87,3.87,0,0,1,0-5.46l7.37-7.38a3.87,3.87,0,0,1,5.46,0l10,10,10-10a3.86,3.86,0,0,1,5.45,0ZM6.91,65.26H49.79a6.84,6.84,0,0,1,3,.67,7.15,7.15,0,0,1,2.39,1.88,6.54,6.54,0,0,1,1.15,2,6.65,6.65,0,0,1,.41,2.31v42.7a6.93,6.93,0,0,1-4.34,6.4,6.81,6.81,0,0,1-2.57.51H6.91a6.92,6.92,0,0,1-2.54-.5,6.79,6.79,0,0,1-2.21-1.41,7.06,7.06,0,0,1-1.58-2.28A6.61,6.61,0,0,1,0,114.87V72.17a7,7,0,0,1,1.71-4.53L2,67.35a7.1,7.1,0,0,1,2.08-1.46,7,7,0,0,1,2.85-.63Zm42.88,6.89H6.91l0,0,0,42.72c3.67,0,42.89,0,42.92,0,0-3.6,0-42.7,0-42.72ZM73.09,0H116a6.87,6.87,0,0,1,3,.67,7,7,0,0,1,2.38,1.88,6.77,6.77,0,0,1,1.16,2.05,6.61,6.61,0,0,1,.41,2.31V49.6a6.83,6.83,0,0,1-.56,2.7,6.94,6.94,0,0,1-1.57,2.27,7,7,0,0,1-4.78,2H73.09a7.14,7.14,0,0,1-4.75-1.91,7.09,7.09,0,0,1-1.59-2.28,6.81,6.81,0,0,1-.57-2.73V6.91a6.95,6.95,0,0,1,1.7-4.54l.28-.28A7.19,7.19,0,0,1,70.23.63,7,7,0,0,1,73.09,0ZM116,6.89H73.09l0,0V49.63c3.68,0,42.89,0,42.93,0,0-3.61,0-42.71,0-42.72Zm-66.18,0H6.91l0,0,0,42.72c3.67,0,42.89,0,42.92,0,0-3.61,0-42.71,0-42.72Z"/></svg>