<?xml version="1.0" encoding="utf-8"?><svg version="1.1" id="Layer_1" xmlns="http://www.w3.org/2000/svg" xmlns:xlink="http://www.w3.org/1999/xlink" x="0px" y="0px" viewBox="0 0 122.88 118.8" style="enable-background:new 0 0 122.88 118.8" xml:space="preserve"><style type="text/css">.st0{fill-rule:evenodd;clip-rule:evenodd;} .st1{fill-rule:evenodd;clip-rule:evenodd;fill:#FFFFFF;}</style><g><path class="st0" d="M8.78,53.09c-2.23,6.64-2.3,14.01-0.73,21.15c2.09,9.51,7.06,18.53,13.66,24.81 c3.62,3.45,7.61,6.23,11.83,8.36c0.21-0.16,0.47-0.26,0.76-0.26h13.2l4.92-33.76c0.05-0.64,0.59-1.15,1.25-1.15h4.63 c0.6,0,1.13,0.44,1.23,1.05l5.69,33.86h10.51c0.24,0,0.49,0.07,0.7,0.22c0.15,0.1,0.27,0.23,0.36,0.37 c4.49-2.26,8.64-5.28,12.22-9.05c4.01-4.2,7.31-9.36,9.63-15.43c1.44-3.77,2.44-7.58,3.01-11.36c1.13-7.5,0.53-16.45,0.53-23.95 c-8.07-0.97-11.41-4.85-11.41-12.76v-4.47l0,0h-1.44c-1.03,0-1.87-0.83-1.87-1.86v-2.16c0-1.03,0.84-1.87,1.87-1.87h5.68V13.39 c0-1.62,1.32-2.95,2.95-2.95l0,0c1.62,0,2.94,1.32,2.94,2.95v11.43h8.66V13.39c0-1.62,1.31-2.95,2.95-2.95l0,0 c1.62,0,2.95,1.32,2.95,2.95v11.43h5.52c1.03,0,1.87,0.84,1.87,1.87v2.16c0,1.03-0.84,1.86-1.87,1.86h-1.15v4.02 c0,7.66-3.43,12.37-11.41,13.13c0,7.73,0.45,16.79-0.63,24.41c-0.63,4.39-1.76,8.8-3.42,13.15c-2.62,6.86-6.38,12.69-10.93,17.47 c-7.36,7.73-16.8,12.7-26.87,14.78c-10.05,2.07-20.73,1.27-30.64-2.52c-6.64-2.55-12.95-6.43-18.48-11.69 C9.99,96.37,4.38,86.2,2.03,75.53c-1.88-8.58-1.67-17.52,1.34-25.57l-0.04-0.09C-9.5,17.58,17.74,12.15,34.44,0 C48.18,34.06,34.14,50.35,8.78,53.09L8.78,53.09L8.78,53.09z M45.41,63.76c0.22,0.1,0.43,0.23,0.64,0.37 c0.45,0.3,0.82,0.66,1.11,1.05c0.31,0.42,0.54,0.88,0.69,1.36l0,0.02c0.14,0.49,0.2,1,0.17,1.51c-0.02,0.48-0.11,0.96-0.26,1.44 l-0.04,0.12c-0.08,0.23-0.19,0.48-0.32,0.75c-0.11,0.22-0.23,0.43-0.37,0.64l-0.03,0.05c-0.62,0.93-1.43,1.6-2.36,2.14 c-0.83,0.49-1.74,0.87-2.65,1.25l-0.54,0.22l-0.58,0.25l-20.73,9.09l-0.09,0.03c-0.28,0.1-0.54,0.14-0.77,0.15 c-0.37,0.01-0.69-0.08-0.96-0.25c-0.05-0.03-0.1-0.07-0.14-0.1l-0.14-0.12c-0.08-0.08-0.16-0.17-0.23-0.3l0,0 c-0.06-0.1-0.1-0.21-0.14-0.32l-0.03-0.11c-0.02-0.12-0.04-0.23-0.04-0.32h0l0-0.04c0.01-0.35,0.13-0.69,0.36-1.02 c0.15-0.2,0.35-0.41,0.6-0.62c0.8-0.29,17.51-13.83,19.72-15.58c0.47-0.37,0.94-0.73,1.41-1.03c0.49-0.32,0.99-0.59,1.5-0.79 l0.1-0.04c0.5-0.19,1.04-0.31,1.63-0.33c0.57-0.02,1.17,0.06,1.8,0.27C44.99,63.58,45.22,63.67,45.41,63.76L45.41,63.76z M18.62,80.95L18.62,80.95L18.62,80.95L18.62,80.95L18.62,80.95z M18.65,80.93L18.65,80.93L18.65,80.93L18.65,80.93z M18.62,80.96 L18.62,80.96L18.62,80.96L18.62,80.96z M58.99,56.26c0.84,0.35,1.59,0.85,2.21,1.47c0.62,0.62,1.13,1.38,1.48,2.22 c0.32,0.77,0.49,1.6,0.5,2.48l0.01,0.11c0,0.92-0.18,1.8-0.52,2.61c-0.34,0.83-0.85,1.59-1.47,2.21l-0.01,0.01 c-0.63,0.62-1.38,1.12-2.21,1.47c-0.81,0.33-1.68,0.52-2.6,0.52c-0.92,0-1.8-0.18-2.61-0.52c-0.84-0.35-1.59-0.85-2.21-1.47v0 c-0.63-0.63-1.13-1.38-1.47-2.21c-0.33-0.81-0.52-1.69-0.52-2.6c0-0.92,0.18-1.8,0.52-2.61c0.34-0.83,0.85-1.59,1.48-2.21l0.01,0 c0.63-0.62,1.38-1.13,2.21-1.47c0.81-0.33,1.68-0.52,2.6-0.52C57.3,55.74,58.18,55.93,58.99,56.26L58.99,56.26z M59,52.73 c-0.22,0.14-0.42,0.25-0.62,0.34c-0.49,0.23-0.99,0.37-1.49,0.41c-0.53,0.05-1.04,0-1.54-0.13l0,0l-0.01,0 c-0.49-0.13-0.96-0.35-1.39-0.63c-0.41-0.27-0.79-0.61-1.13-1l-0.03-0.04c-0.15-0.18-0.3-0.4-0.45-0.63 c-0.14-0.22-0.26-0.45-0.38-0.68l-0.02-0.05c-0.92-1.96-0.62-3.99-0.31-6.06l0-0.03c0.06-0.41,0.09-0.62,0.15-1.07l2.96-22.53 l0.02-0.11c0.07-0.29,0.16-0.54,0.27-0.73l0,0c0.18-0.31,0.41-0.53,0.66-0.67l0.07-0.03c0.14-0.07,0.27-0.11,0.39-0.14 c0.12-0.02,0.22-0.03,0.3-0.03c0.17,0,0.33,0.03,0.48,0.09c0.1,0.04,0.21,0.1,0.31,0.16c0.29,0.19,0.53,0.47,0.68,0.83v0 c0.1,0.23,0.17,0.5,0.21,0.82l0.02,0.12l0,0l3.11,24.71c0.02,0.09,0.03,0.18,0.03,0.27v0.01c0.07,0.54,0.12,1.07,0.14,1.6 c0.02,0.6-0.01,1.18-0.1,1.74l-0.01,0.05c-0.1,0.54-0.28,1.06-0.55,1.55l-0.01,0c-0.28,0.51-0.66,0.98-1.17,1.41 C59.41,52.45,59.21,52.59,59,52.73L59,52.73z M64.42,68.93c-0.01-0.25-0.01-0.49,0.01-0.71c0.04-0.55,0.18-1.05,0.38-1.51 c0.2-0.45,0.48-0.85,0.81-1.19l0.07-0.07c0.35-0.35,0.77-0.65,1.24-0.88c0.42-0.21,0.88-0.36,1.37-0.46l0.11-0.03 c0.24-0.04,0.5-0.07,0.79-0.08c0.27-0.01,0.53-0.01,0.78,0.01l0.03,0c1.11,0.09,2.1,0.48,3.03,1.03c0.85,0.5,1.62,1.11,2.39,1.73 c6.27,4.87,12.62,9.66,18.93,14.49c0.04,0.03,0.08,0.06,0.11,0.1c0.2,0.2,0.36,0.4,0.47,0.59c0.17,0.3,0.25,0.61,0.25,0.9 c0,0.1-0.01,0.21-0.04,0.33c-0.04,0.17-0.1,0.33-0.2,0.49l0,0c-0.08,0.11-0.17,0.22-0.26,0.3l-0.1,0.08 c-0.07,0.06-0.15,0.1-0.24,0.14c-0.3,0.14-0.65,0.2-1.05,0.15c-0.23-0.03-0.48-0.09-0.75-0.2c-0.07-0.02-0.14-0.05-0.21-0.09 l-23.04-9.67l0,0c-0.55-0.22-1.09-0.47-1.6-0.74c-0.53-0.29-1.03-0.6-1.46-0.97l-0.03-0.02c-0.42-0.36-0.79-0.77-1.08-1.27 c-0.29-0.49-0.51-1.04-0.63-1.67l0-0.02C64.46,69.44,64.43,69.19,64.42,68.93L64.42,68.93z"/><path class="st1" d="M9.51,44.99l0.06,0.04c13.1-15.81,17.91-16.53,21.32-35.49C25.88,20.85,11.67,30.09,9.51,44.99L9.51,44.99 L9.51,44.99z"/></g></svg>