<?xml version="1.0" encoding="utf-8"?><svg version="1.1" id="Layer_1" xmlns="http://www.w3.org/2000/svg" xmlns:xlink="http://www.w3.org/1999/xlink" x="0px" y="0px" viewBox="0 0 122.88 61.02" style="enable-background:new 0 0 122.88 61.02" xml:space="preserve"><style type="text/css">.st0{fill-rule:evenodd;clip-rule:evenodd;}</style><g><path class="st0" d="M6.9,0h109.07c3.8,0,6.9,3.11,6.9,6.9v47.21c0,3.79-3.11,6.9-6.9,6.9H6.9c-3.79,0-6.9-3.11-6.9-6.9V6.9 C0,3.11,3.11,0,6.9,0L6.9,0z M17.25,12.83h6.73c4.49,0,7.53,0.16,9.12,0.49c1.59,0.33,2.89,1.17,3.89,2.52 c1,1.34,1.5,3.49,1.5,6.44c0,2.69-0.35,4.5-1.06,5.43c-0.7,0.93-2.1,1.48-4.18,1.66c1.88,0.45,3.16,1.04,3.8,1.78 c0.65,0.74,1.05,1.42,1.2,2.04c0.16,0.62,0.24,2.33,0.24,5.12v9.14h-8.84V35.93c0-1.85-0.15-3-0.46-3.44 c-0.3-0.44-1.1-0.66-2.41-0.66v15.62h-9.54V12.83L17.25,12.83z M26.78,18.74v7.7c1.06,0,1.81-0.14,2.23-0.42 c0.42-0.28,0.64-1.18,0.64-2.71v-1.9c0-1.1-0.21-1.82-0.62-2.17C28.63,18.91,27.87,18.74,26.78,18.74L26.78,18.74z M42.17,12.83 h15.88v6.92h-6.34v6.61h5.92v6.56h-5.92v7.62h6.99v6.91H42.17V12.83L42.17,12.83z M82.65,12.83v34.62h-8.33l-4.95-15.74v15.74 h-7.96V12.83h7.96l5.32,15.59V12.83H82.65L82.65,12.83z M105.63,12.83v6.92h-5.6v27.7H90.5v-27.7h-5.65v-6.92H105.63L105.63,12.83z"/></g></svg>