<svg xmlns="http://www.w3.org/2000/svg" shape-rendering="geometricPrecision" text-rendering="geometricPrecision" image-rendering="optimizeQuality" fill-rule="evenodd" clip-rule="evenodd" viewBox="0 0 512 498.92"><path d="M389.75 0c-33.74 0-64.32 13.69-86.43 35.8-22.12 22.12-35.81 52.7-35.81 86.44 0 33.74 13.69 64.33 35.8 86.44 22.12 22.12 52.7 35.81 86.44 35.81 33.71 0 64.26-13.68 86.39-35.81 22.19-22.2 35.86-52.77 35.86-86.44 0-33.74-13.69-64.32-35.81-86.44C454.08 13.69 423.49 0 389.75 0zM127.13 93.06 45.4 179.44h81.73V93.06zM0 195.81c0-1.15.15-2.27.41-3.34a13.52 13.52 0 0 1 3.69-8.74L128.46 52.31c2.32-4.17 6.79-7 11.91-7h113.4c-4.87 8.59-8.97 17.7-12.16 27.2h-87.3v120.52c0 7.5-6.09 13.59-13.59 13.59H27.2v265.1h392.01V275.67c9.4-1.79 18.49-4.43 27.21-7.83v204.05c0 7.39-3.05 14.15-7.93 19.05-4.96 4.94-11.72 7.98-19.11 7.98H27.04c-7.43 0-14.21-3.06-19.09-7.95C3.07 486.09 0 479.31 0 471.89V195.81zm324.88 79.39c7.54 0 13.66 6.06 13.66 13.52 0 7.47-6.12 13.53-13.66 13.53H121.54c-7.54 0-13.66-6.06-13.66-13.53 0-7.46 6.12-13.52 13.66-13.52h203.34zm0 91.23c7.54 0 13.66 6.05 13.66 13.52s-6.12 13.53-13.66 13.53H121.54c-7.54 0-13.66-6.06-13.66-13.53s6.12-13.52 13.66-13.52h203.34zm1.07-253.94 52.35 50.23v-25.05c30.54-6.13 55.24-1.67 75.25 23.22-2.82-43.73-31.36-71.28-75.25-73.14V62.27l-52.35 50.22z"/></svg>