<?xml version="1.0" encoding="utf-8"?><svg version="1.1" id="Layer_1" xmlns="http://www.w3.org/2000/svg" xmlns:xlink="http://www.w3.org/1999/xlink" x="0px" y="0px" viewBox="0 0 122.8 58.27" style="enable-background:new 0 0 122.8 58.27" xml:space="preserve"><style type="text/css">.st0{fill-rule:evenodd;clip-rule:evenodd;}</style><g><path class="st0" d="M6.98,0H119.4c1.87,0,3.4,1.54,3.4,3.4v28.85c0,1.86-1.54,3.4-3.4,3.4H31.18c-0.74-0.63-1.69-1.09-2.92-1.31 l-0.08-0.02l-0.12-0.02c-0.07-0.02-0.15-0.03-0.22-0.04l-0.02,0c-0.19-0.34-0.42-0.67-0.7-0.97c-0.77-0.85-1.81-1.46-3.22-1.72 l-0.26-0.05l-0.14-0.02c-0.14-0.02-0.28-0.03-0.4-0.03h-0.05c-0.18-0.27-0.4-0.53-0.64-0.77c-0.71-0.71-1.62-1.23-2.8-1.49v-1.74 c0-1.53-0.35-2.86-0.94-3.96c-0.7-1.32-1.73-2.27-2.89-2.86c-0.44-0.22-0.91-0.39-1.4-0.51c-0.51-0.12-1.01-0.19-1.48-0.19 c-0.5,0-0.99,0.06-1.48,0.17c-0.41,0.1-0.83,0.24-1.24,0.44L10,20.64c-1.16,0.59-2.18,1.55-2.88,2.88 c-0.58,1.1-0.93,2.43-0.93,3.98v7.28c-0.17-0.1-0.34-0.19-0.52-0.28c-0.53-0.26-1.08-0.46-1.61-0.58l-0.04-0.01 c-0.28-0.49-0.45-1.06-0.45-1.67V3.4C3.58,1.53,5.11,0,6.98,0L6.98,0z M8.79,42.03C8.74,42,8.69,41.97,8.65,41.94 c-0.57-0.46-1.2-0.97-1.74-1.41c-0.79-0.65-1.7-1.4-2.34-1.92C4.13,38.25,3.64,38,3.18,37.9c-0.3-0.06-0.57-0.05-0.78,0.04 c-0.17,0.07-0.32,0.21-0.42,0.43c-0.13,0.29-0.19,0.71-0.16,1.27c0.03,0.5,0.21,1.04,0.43,1.56c0.34,0.77,0.8,1.48,1.14,1.93 c0.02,0.03,0.04,0.06,0.06,0.09l6.84,9.77c0.09,0.13,0.14,0.27,0.16,0.41h0c0.13,1.13,0.38,1.97,0.73,2.5 c0.26,0.38,0.59,0.58,1,0.57h0.02v0h10.67c0.03,0,0.05,0,0.08,0c0.67-0.01,1.28-0.21,1.83-0.59c0.61-0.42,1.17-1.08,1.68-1.97 c0.01-0.01,0.02-0.03,0.03-0.05c0.2-0.34,0.45-0.76,0.71-1.18c1.09-1.8,2.04-3.36,2.16-5.58l-0.07-3.07 c-0.01-0.04-0.01-0.09-0.01-0.13c0-0.04,0.01-0.33,0.01-0.72c0.03-2.03,0.06-4.54-1.8-4.86h-1.19h-0.01 c-0.01,0.57-0.04,1.15-0.08,1.72c-0.03,0.5-0.06,0.99-0.06,1.45c0,0.5-0.4,0.9-0.9,0.9c-0.5,0-0.9-0.4-0.9-0.9 c0-0.46,0.04-1,0.07-1.56c0.12-1.91,0.26-4.1-1.27-4.38h-1.18c-0.07,0-0.13-0.01-0.19-0.02c0.01,0.69-0.04,1.41-0.08,2.1 c-0.03,0.5-0.06,0.99-0.06,1.45c0,0.5-0.4,0.9-0.9,0.9c-0.5,0-0.9-0.4-0.9-0.9c0-0.46,0.04-1,0.07-1.56 c0.12-1.91,0.26-4.1-1.27-4.38h-1.19c-0.08,0-0.16-0.01-0.23-0.03v3.49c0,0.5-0.4,0.9-0.9,0.9c-0.5,0-0.9-0.4-0.9-0.9v-9.37 c0-1.57-0.64-2.56-1.46-2.97c-0.3-0.15-0.62-0.23-0.94-0.23c-0.32,0-0.64,0.08-0.94,0.23c-0.81,0.41-1.44,1.4-1.44,3.01V43.7 c0,0.5-0.4,0.9-0.9,0.9s-0.9-0.4-0.9-0.9L8.79,42.03L8.79,42.03L8.79,42.03z M17.18,31.37c0.08-0.02,0.16-0.03,0.23-0.03h1.24 c0.07,0,0.14,0.01,0.2,0.02c1.66,0.26,2.4,1.23,2.7,2.47c0.11-0.05,0.24-0.08,0.38-0.08h1.24c0.07,0,0.14,0.01,0.2,0.02 c1.78,0.28,2.5,1.38,2.76,2.76c0.04-0.01,0.09-0.01,0.14-0.01h1.24c0.07,0,0.14,0.01,0.2,0.02c3.41,0.53,3.37,3.92,3.34,6.66 c0,0.1,0,0.2,0,0.69v0.02l0.07,3.16c0,0.03,0,0.07,0,0.1c-0.13,2.69-1.19,4.43-2.42,6.45c-0.21,0.33-0.41,0.68-0.69,1.15 c-0.01,0.01-0.01,0.02-0.02,0.04c-0.64,1.11-1.38,1.97-2.22,2.55c-0.86,0.59-1.81,0.9-2.85,0.91c-0.03,0-0.06,0-0.08,0H12.19v0 c-1.07,0.02-1.91-0.45-2.52-1.37c-0.49-0.74-0.82-1.77-1-3.07l-6.7-9.58c-0.01-0.01-0.02-0.02-0.03-0.04 C1.55,43.68,1,42.85,0.6,41.93c-0.31-0.69-0.54-1.44-0.58-2.18c-0.06-0.87,0.06-1.57,0.31-2.12c0.31-0.68,0.8-1.12,1.39-1.37 c0.55-0.23,1.18-0.26,1.81-0.13c0.75,0.15,1.53,0.53,2.2,1.08c0.55,0.45,1.45,1.19,2.33,1.91l0.74,0.6V27.27 c0-2.39,1.06-3.93,2.43-4.62c0.55-0.28,1.15-0.42,1.75-0.42c0.6,0,1.2,0.14,1.75,0.42c1.38,0.7,2.45,2.23,2.45,4.58V31.37 L17.18,31.37L17.18,31.37z M25.61,9.51h3.23c2.15,0,3.61,0.08,4.37,0.23c0.76,0.16,1.38,0.56,1.86,1.21 c0.48,0.64,0.72,1.67,0.72,3.09c0,1.29-0.17,2.16-0.51,2.6c-0.34,0.44-1.01,0.71-2,0.8c0.9,0.21,1.51,0.5,1.82,0.85 c0.31,0.35,0.5,0.68,0.58,0.98c0.08,0.3,0.11,1.12,0.11,2.46v4.38h-4.24v-5.52c0-0.89-0.07-1.44-0.22-1.65 c-0.14-0.21-0.53-0.32-1.15-0.32v7.49h-4.57V9.51L25.61,9.51z M30.18,12.35v3.69c0.51,0,0.87-0.07,1.07-0.2 c0.2-0.13,0.31-0.57,0.31-1.3v-0.91c0-0.53-0.1-0.87-0.3-1.04C31.07,12.43,30.7,12.35,30.18,12.35L30.18,12.35z M37.76,9.51h7.61 v3.32h-3.04V16h2.84v3.15h-2.84v3.65h3.35v3.32h-7.92V9.51L37.76,9.51z M56.83,14.55h-4.24v-1.23c0-0.57-0.06-0.94-0.16-1.1 c-0.11-0.16-0.28-0.23-0.54-0.23c-0.27,0-0.48,0.1-0.62,0.32c-0.14,0.21-0.21,0.53-0.21,0.96c0,0.55,0.08,0.97,0.24,1.25 c0.16,0.28,0.58,0.62,1.29,1.01c2.02,1.14,3.3,2.08,3.82,2.82c0.53,0.73,0.79,1.91,0.79,3.53c0,1.18-0.15,2.05-0.44,2.62 c-0.29,0.56-0.85,1.03-1.69,1.41c-0.84,0.38-1.81,0.57-2.92,0.57c-1.22,0-2.26-0.22-3.13-0.66c-0.86-0.44-1.42-0.99-1.69-1.67 c-0.27-0.68-0.4-1.64-0.4-2.88v-1.09h4.24v2.02c0,0.62,0.06,1.02,0.18,1.2c0.12,0.18,0.33,0.27,0.63,0.27 c0.3,0,0.53-0.11,0.68-0.34c0.15-0.22,0.22-0.56,0.22-1c0-0.98-0.14-1.62-0.42-1.91c-0.29-0.3-1-0.8-2.13-1.51 c-1.13-0.71-1.88-1.23-2.25-1.55c-0.37-0.32-0.67-0.77-0.91-1.33c-0.24-0.57-0.36-1.29-0.36-2.17c0-1.27,0.17-2.2,0.51-2.79 c0.34-0.59,0.89-1.05,1.66-1.38c0.77-0.33,1.69-0.5,2.77-0.5c1.18,0,2.19,0.18,3.03,0.54c0.83,0.36,1.38,0.82,1.65,1.37 c0.27,0.55,0.41,1.48,0.41,2.8V14.55L56.83,14.55z M58.85,9.51h7.61v3.32h-3.04V16h2.84v3.15h-2.84v3.65h3.35v3.32h-7.92V9.51 L58.85,9.51z M68.26,9.51h3.23c2.15,0,3.61,0.08,4.37,0.23c0.76,0.16,1.38,0.56,1.86,1.21c0.48,0.64,0.72,1.67,0.72,3.09 c0,1.29-0.17,2.16-0.51,2.6c-0.34,0.44-1.01,0.71-2,0.8c0.9,0.21,1.51,0.5,1.82,0.85c0.31,0.35,0.5,0.68,0.58,0.98 c0.08,0.3,0.11,1.12,0.11,2.46v4.38h-4.24v-5.52c0-0.89-0.07-1.44-0.22-1.65c-0.14-0.21-0.53-0.32-1.15-0.32v7.49h-4.57V9.51 L68.26,9.51z M72.84,12.35v3.69c0.51,0,0.87-0.07,1.07-0.2c0.2-0.13,0.31-0.57,0.31-1.3v-0.91c0-0.53-0.1-0.87-0.3-1.04 C73.72,12.43,73.36,12.35,72.84,12.35L72.84,12.35z M91.24,9.51l-2.31,16.6h-6.91l-2.65-16.6h4.82c0.54,4.58,0.94,8.45,1.19,11.61 c0.24-3.2,0.5-6.04,0.75-8.52l0.3-3.1H91.24L91.24,9.51z M92.23,9.51h7.61v3.32H96.8V16h2.84v3.15H96.8v3.65h3.35v3.32h-7.92V9.51 L92.23,9.51z M101.64,9.51h3.41c2.2,0,3.69,0.09,4.47,0.29c0.78,0.19,1.37,0.51,1.77,0.94c0.4,0.44,0.66,0.92,0.76,1.46 c0.1,0.54,0.15,1.59,0.15,3.17v5.81c0,1.49-0.07,2.49-0.22,2.99c-0.15,0.5-0.41,0.9-0.77,1.18c-0.37,0.28-0.83,0.48-1.37,0.59 c-0.54,0.11-1.36,0.17-2.45,0.17h-5.75V9.51L101.64,9.51z M106.21,12.35v10.93c0.65,0,1.05-0.13,1.19-0.37 c0.15-0.25,0.23-0.93,0.23-2.04v-6.46c0-0.75-0.03-1.23-0.07-1.45c-0.05-0.21-0.16-0.37-0.34-0.47 C107.04,12.4,106.71,12.35,106.21,12.35L106.21,12.35z"/></g></svg>