<?xml version="1.0" encoding="utf-8"?><svg version="1.1" id="Layer_1" xmlns="http://www.w3.org/2000/svg" xmlns:xlink="http://www.w3.org/1999/xlink" x="0px" y="0px" viewBox="0 0 122.88 97.15" style="enable-background:new 0 0 122.88 97.15" xml:space="preserve"><g><path d="M7.65,35.96H0V3.27C0,1.47,1.47,0,3.27,0h22.81v7.66H7.65V35.96L7.65,35.96L7.65,35.96z M39.01,97.15H3.27 C1.46,97.15,0,95.68,0,93.86V56.51h39.01V97.15L39.01,97.15z M53.79,7.57V0h26.34v7.57H53.79L53.79,7.57L53.79,7.57z M99.67,0 h19.94c1.81,0,3.27,1.47,3.27,3.27v32.73h-7.65V7.57H99.67V0L99.67,0z M122.88,57.07v36.8c0,1.81-1.47,3.27-3.27,3.27H99.67V89.5 h15.58c0-9.81,0-22.61,0-32.43H122.88L122.88,57.07z M80.14,97.15H53.75V89.5h26.39V97.15L80.14,97.15z"/></g></svg>