<?xml version="1.0" encoding="utf-8"?><svg version="1.1" id="Layer_1" xmlns="http://www.w3.org/2000/svg" xmlns:xlink="http://www.w3.org/1999/xlink" x="0px" y="0px" viewBox="0 0 68.51 122.88" style="enable-background:new 0 0 68.51 122.88" xml:space="preserve"><style type="text/css"><![CDATA[
	.st0{fill-rule:evenodd;clip-rule:evenodd;}
]]></style><g><path class="st0" d="M12.2,0h44.12c3.36,0,6.4,1.37,8.62,3.58c2.21,2.21,3.58,5.25,3.58,8.62v98.49c0,3.36-1.37,6.4-3.58,8.62 c-2.21,2.21-5.26,3.58-8.62,3.58H12.2c-3.36,0-6.4-1.37-8.62-3.58C1.37,117.09,0,114.05,0,110.68V12.2c0-3.36,1.37-6.4,3.58-8.62 C5.79,1.37,8.84,0,12.2,0L12.2,0L12.2,0L12.2,0z M17.07,45.19v11.47h11.47l-3.45-3.45c-0.28-0.28-0.28-0.73,0-1 c0.7-0.63,1.15-1,1.93-1.54c1.03-0.67,2.16-1.2,3.36-1.55c1.15-0.34,2.35-0.53,3.59-0.53l0.07,0c1.73,0,3.4,0.35,4.91,0.98 c1.57,0.65,2.99,1.61,4.18,2.79c1.18,1.18,2.14,2.6,2.79,4.17c0.63,1.52,0.98,3.18,0.98,4.91c0,1.75-0.35,3.41-0.98,4.93 c-0.65,1.57-1.61,2.99-2.79,4.17s-2.6,2.14-4.17,2.79c-1.52,0.63-3.18,0.98-4.91,0.98h-0.03c-0.61,0-1.23-0.05-1.85-0.13 c-0.6-0.09-1.21-0.22-1.81-0.4c-0.73-0.25-1.21-0.44-1.92-0.75c-1.58-0.76-2.98-1.84-4.12-3.15c-1.11-1.28-1.98-2.79-2.52-4.44 l-6.08,0.01c0.12,0.54,0.26,1.09,0.43,1.63c0.18,0.58,0.39,1.15,0.62,1.7c0.23,0.53,0.48,1.06,0.77,1.58l0.02,0.04 c0.28,0.5,0.58,1,0.9,1.48c1.71,2.55,4.04,4.66,6.76,6.12c2.6,1.39,5.58,2.18,8.74,2.19l0.07,0c2.54,0,4.96-0.5,7.16-1.41 c2.27-0.94,4.31-2.31,6.02-4.01l0.1-0.11c1.71-1.72,3.09-3.77,4.02-6.03c0.91-2.2,1.41-4.62,1.41-7.16c0-2.56-0.5-4.98-1.42-7.18 l-0.01-0.04c-0.95-2.27-2.34-4.33-4.05-6.04c-1.72-1.73-3.79-3.12-6.07-4.06c-2.2-0.91-4.62-1.42-7.16-1.42h-0.02 c-1.32,0-2.6,0.13-3.83,0.39l-0.03,0c-1.26,0.26-2.47,0.65-3.62,1.15l-1.1,0.52c-0.83,0.43-1.63,0.93-2.38,1.47l-0.04,0.03 c-0.74,0.54-1.44,1.13-2.1,1.78c-0.28,0.27-0.73,0.27-1,0L17.07,45.19L17.07,45.19z M34.26,109.61c2.75,0,4.99,2.24,4.99,4.99 c0,2.75-2.24,4.99-4.99,4.99c-2.75,0-4.99-2.24-4.99-4.99C29.26,111.85,31.49,109.61,34.26,109.61L34.26,109.61L34.26,109.61 L34.26,109.61z M3.51,105.78h61.5V15.33H3.51V105.78L3.51,105.78L3.51,105.78z"/></g></svg>