<?xml version="1.0" encoding="utf-8"?><svg version="1.1" id="Layer_1" xmlns="http://www.w3.org/2000/svg" xmlns:xlink="http://www.w3.org/1999/xlink" x="0px" y="0px" viewBox="0 0 122.88 70.51" style="enable-background:new 0 0 122.88 70.51" xml:space="preserve"><style type="text/css"><![CDATA[
	.st0{fill-rule:evenodd;clip-rule:evenodd;}
]]></style><g><path class="st0" d="M2.54,65.44h12.59c-0.93-0.24-1.63-1.1-1.63-2.1V2.17C13.5,0.98,14.48,0,15.67,0h90.97 c1.19,0,2.17,0.98,2.17,2.17v61.16c0,1.01-0.69,1.86-1.63,2.1h13.16c1.4,0,2.54,1.14,2.54,2.54l0,0c0,1.4-1.14,2.54-2.54,2.54H2.54 c-1.4,0-2.54-1.14-2.54-2.54l0,0C0,66.58,1.14,65.44,2.54,65.44L2.54,65.44L2.54,65.44z M47.79,22.29v9.11h9.12l-2.74-2.74 c-0.22-0.22-0.22-0.58,0-0.8c0.56-0.5,0.92-0.8,1.53-1.23c0.82-0.53,1.72-0.95,2.67-1.24c0.91-0.27,1.87-0.42,2.85-0.42l0.06,0 c1.38,0,2.7,0.28,3.91,0.78c1.25,0.52,2.38,1.28,3.32,2.22s1.7,2.07,2.22,3.31c0.5,1.21,0.78,2.53,0.78,3.9 c0,1.39-0.28,2.71-0.78,3.92c-0.52,1.25-1.28,2.38-2.22,3.32s-2.07,1.7-3.32,2.22c-1.21,0.5-2.53,0.78-3.9,0.78h-0.02 c-0.49,0-0.98-0.04-1.47-0.11c-0.48-0.07-0.96-0.17-1.44-0.32c-0.58-0.2-0.96-0.35-1.52-0.59c-1.25-0.6-2.37-1.46-3.27-2.51 c-0.88-1.02-1.57-2.21-2-3.53l-4.83,0.01c0.09,0.43,0.21,0.86,0.34,1.29c0.15,0.46,0.31,0.92,0.5,1.35 c0.18,0.42,0.38,0.84,0.61,1.26l0.02,0.03c0.22,0.4,0.46,0.8,0.72,1.18c1.36,2.03,3.21,3.71,5.37,4.86 c2.07,1.1,4.43,1.73,6.95,1.74l0.05,0c2.02,0,3.95-0.4,5.69-1.12c1.8-0.75,3.43-1.84,4.79-3.19l0.08-0.08 c1.35-1.36,2.45-2.99,3.2-4.79c0.72-1.75,1.12-3.67,1.12-5.69c0-2.03-0.4-3.96-1.13-5.7l-0.01-0.03c-0.75-1.81-1.86-3.44-3.22-4.8 c-1.37-1.37-3.01-2.48-4.83-3.23c-1.74-0.72-3.67-1.13-5.69-1.13h-0.02c-1.05,0-2.07,0.11-3.04,0.31l-0.02,0 c-1,0.21-1.96,0.52-2.88,0.92l-0.87,0.41c-0.66,0.35-1.3,0.74-1.89,1.17l-0.03,0.02c-0.58,0.43-1.15,0.9-1.67,1.41 c-0.22,0.22-0.58,0.22-0.79,0L47.79,22.29L47.79,22.29z M17.21,3.4h88.19v59.32H17.21V3.4L17.21,3.4L17.21,3.4z M57.87,66.39h7.14 c0.67,0,1.22,0.55,1.22,1.22l0,0c0,0.67-0.55,1.22-1.22,1.22h-7.14c-0.67,0-1.22-0.55-1.22-1.22l0,0 C56.65,66.93,57.2,66.39,57.87,66.39L57.87,66.39L57.87,66.39z"/></g></svg>