<?xml version="1.0" encoding="utf-8"?><svg version="1.1" id="Layer_1" xmlns="http://www.w3.org/2000/svg" xmlns:xlink="http://www.w3.org/1999/xlink" x="0px" y="0px" viewBox="0 0 122.88 105.79" style="enable-background:new 0 0 122.88 105.79" xml:space="preserve"><style type="text/css"><![CDATA[
	.st0{fill-rule:evenodd;clip-rule:evenodd;fill:#D8453E;}
	.st1{fill:#262626;}
	.st2{fill:#FFFFFF;}
	.st3{fill-rule:evenodd;clip-rule:evenodd;fill:#262626;}
]]></style><g><path class="st3" d="M99.39,48.04l23.48-23.37L99.39,0.59v15.18c-15.03-0.08-26.66,4.7-34.89,14.39c-1.01,1.19-1.96,2.45-2.85,3.79 c-1-1.56-2.07-3.02-3.22-4.38c-8.24-9.7-19.89-14.48-34.94-14.39V0L0,24.07l23.49,23.37v-13.3c23.6-0.15,28.49,13.85,28.49,33.28 h18.97c0-19.28,5.22-32.81,28.45-32.69V48.04L99.39,48.04L99.39,48.04z"/><path class="st1" d="M78.54,34.2l25.79,40.5c0.16,0.2,0.31,0.4,0.45,0.62l0.01-0.01c0.68,1.07,1.33,2.35,1.87,3.69 c0.05,0.12,0.1,0.25,0.14,0.37c0.45,1.17,0.83,2.39,1.09,3.59c0.26,1.2,0.41,2.53,0.44,3.94c0.03,1.29-0.07,2.6-0.31,3.9 l-0.01,0.02l0.01,0l-0.06,0.31c-0.59,2.95-1.76,5.64-3.62,7.95c-1.83,2.27-4.23,4.09-7.3,5.34c-0.41,0.17-0.85,0.32-1.33,0.47 c-0.37,0.12-0.78,0.23-1.2,0.33v0c-0.61,0.15-1.32,0.28-2.13,0.38c-0.86,0.11-1.6,0.16-2.21,0.16H32.72 c-1.13,0-2.31-0.13-3.54-0.38c-1.16-0.24-2.3-0.59-3.4-1.04c-3.06-1.26-5.45-3.07-7.25-5.32c-1.92-2.39-3.1-5.18-3.66-8.23 c-0.24-1.32-0.34-2.63-0.31-3.92c0.03-1.42,0.18-2.73,0.44-3.93c0.27-1.29,0.72-2.65,1.25-3.95c0.54-1.31,1.21-2.59,1.91-3.7 l26.41-41.48c0.1-0.2,0.21-0.39,0.33-0.58l-0.02-0.01c0.73-1.16,1.62-2.23,2.62-3.23c0.84-0.84,1.75-1.58,2.7-2.24 c0.17-0.14,0.35-0.27,0.54-0.39c1.6-1.03,3.34-1.81,5.12-2.33c1.86-0.55,3.75-0.82,5.57-0.82c0.38,0,0.75,0.03,1.11,0.1 c1.49,0.08,2.97,0.32,4.39,0.72c1.8,0.51,3.54,1.27,5.12,2.27c0.15,0.1,0.3,0.2,0.44,0.31c0.29,0.2,0.58,0.41,0.86,0.62 c0.46,0.35,0.86,0.7,1.22,1.03l0.07,0.06c0.59,0.53,1.14,1.09,1.67,1.7c0.6,0.69,1.14,1.4,1.61,2.14l0.5,0.83L78.54,34.2 L78.54,34.2z M72.81,37.33l26.43,41.51l0.03-0.02c0.93,1.46,1.81,3.55,2.23,5.5c0.36,1.67,0.44,3.5,0.1,5.32l-0.01,0.04 c-0.72,3.89-2.88,7.01-7.01,8.7c-0.55,0.22-1.1,0.39-1.66,0.52c-0.9,0.23-1.81,0.34-2.75,0.34H32.72c-1.54,0-3.03-0.32-4.46-0.91 c-4.11-1.69-6.27-4.81-6.98-8.7c-0.33-1.83-0.26-3.65,0.1-5.32c0.4-1.89,1.3-3.99,2.27-5.5l26.78-42.06l-0.03-0.02 c0.99-1.56,2.32-2.84,3.88-3.85l-0.01-0.02c2.18-1.4,4.72-2.1,7.17-2.1v0.04c2.47-0.01,5,0.67,7.13,2.02 c0.57,0.36,1.1,0.77,1.58,1.22c0.87,0.76,1.65,1.64,2.3,2.65L72.81,37.33L72.81,37.33z"/><path class="st2" d="M72.81,37.33l26.43,41.51l0.03-0.02c0.93,1.46,1.81,3.55,2.23,5.5c0.36,1.67,0.44,3.5,0.1,5.32l-0.01,0.04 c-0.72,3.89-2.88,7.01-7.01,8.7c-0.55,0.22-1.1,0.39-1.66,0.52c-0.9,0.23-1.81,0.34-2.75,0.34H32.72c-1.54,0-3.03-0.32-4.46-0.91 c-4.11-1.69-6.27-4.81-6.98-8.7c-0.33-1.83-0.26-3.65,0.1-5.32c0.4-1.89,1.3-3.99,2.27-5.5l26.78-42.06l-0.03-0.02 c0.99-1.56,2.32-2.84,3.88-3.85l-0.01-0.02c2.18-1.4,4.72-2.1,7.17-2.1v0.04c2.47-0.01,5,0.67,7.13,2.02 c0.57,0.36,1.1,0.77,1.58,1.22c0.87,0.76,1.65,1.64,2.3,2.65L72.81,37.33L72.81,37.33z"/><path class="st0" d="M63.37,42.52l26.79,42.08c0.8,1.27,1.51,3.86,0,3.86H32.72c-1.51,0-0.8-2.6,0-3.86l26.79-42.08 C60.31,41.25,62.56,41.25,63.37,42.52L63.37,42.52L63.37,42.52L63.37,42.52z M63.76,77.3v4.13h-4.66V77.3H63.76L63.76,77.3z M59.09,74.44c-0.46-5.66-1.43-9.26-1.43-14.92c0-2.08,1.69-3.78,3.78-3.78s3.77,1.69,3.77,3.78c0.01,5.65-0.98,9.25-1.45,14.92 H59.09L59.09,74.44z"/></g></svg>