<?xml version="1.0" encoding="utf-8"?><svg version="1.1" id="Layer_1" xmlns="http://www.w3.org/2000/svg" xmlns:xlink="http://www.w3.org/1999/xlink" x="0px" y="0px" viewBox="0 0 122.88 120.75" style="enable-background:new 0 0 122.88 120.75" xml:space="preserve"><style type="text/css">.st0{fill-rule:evenodd;clip-rule:evenodd;}</style><g><path class="st0" d="M45.65,96.56h32.33v11.06L84,120.75h-2.59l-9.93-9.81h-4.56l-3.64,9.81h-3.56l-2.29-9.81H53.3l-9.97,9.81h-3.7 l6.01-13.13L45.65,96.56L45.65,96.56L45.65,96.56z M1.16,86.47l31.1-46.11v51.93H0.1C-0.19,90.16,0.15,87.98,1.16,86.47L1.16,86.47 L1.16,86.47z M58.31,1.73c1.72-2.55,4.74-2.24,6.72,0.69c26.14,38.77,18.56,44.84,18.56,89.88H39.73 C39.73,47.08,32.07,40.65,58.31,1.73L58.31,1.73L58.31,1.73z M91.06,41.01l30.19,44.77c1.25,1.84,1.79,4.3,1.59,6.51H91.06V41.01 L91.06,41.01z"/></g></svg>