<svg id="Layer_1" data-name="Layer 1" xmlns="http://www.w3.org/2000/svg" viewBox="0 0 122.88 97.17"><title>romanian-leu</title><path d="M18.78,95.91H0V0H18.78V95.91ZM62.13,39.12c-4,0-7.1,1.26-9.38,3.79S49.2,49,48.86,53.63h26.4C75.18,49,74,45.43,71.62,42.91a12.29,12.29,0,0,0-9.49-3.79Zm2.65,58.05q-16.65,0-26-9.19T29.41,62q0-17.31,8.64-26.77t24-9.47q14.61,0,22.73,8.31t8.15,23v9.11H48.44q.31,8,4.74,12.53c3,3,7.12,4.5,12.47,4.5a52.05,52.05,0,0,0,11.78-1.3A59.09,59.09,0,0,0,89,77.74V92.29A44.54,44.54,0,0,1,78.46,96a66.41,66.41,0,0,1-13.68,1.2Zm37.66-88Q102.44,0,112.66,0t10.22,9.17A9,9,0,0,1,120.34,16c-1.71,1.61-4.27,2.43-7.68,2.43q-10.23,0-10.22-9.25ZM122,95.91H103.24V27H122v68.9Z"/></svg>