<svg id="Layer_1" data-name="Layer 1" xmlns="http://www.w3.org/2000/svg" viewBox="0 0 94.56 122.88"><defs><style>.cls-1{fill-rule:evenodd;}</style></defs><title>rouble-money-bag</title><path class="cls-1" d="M38.14,21.15c-1.9-5.6-3.6-11.26-5-17,5.38-5.9,26.16-5.12,32.13-.1L59.69,17.21c3-3.91,4-5.52,5.75-7.69a17.45,17.45,0,0,1,2.11,1.63c1.57,1.43,3,3,3.26,5.2a5.38,5.38,0,0,1-1.49,4.34L56.63,35.48a27,27,0,0,1-4.78-1.22c.72-1.69,1.59-3.55,2.31-5.25l-4.62,5a17.34,17.34,0,0,0-12.3,1.5L24.37,20.05a4.3,4.3,0,0,1-1.11-2.76c0-3.73,5.58-7,8.5-8.18l6.38,12Zm16.5,27.91L52.12,37.57c10.76,2,28,23.89,33.58,33.84a94.1,94.1,0,0,1,7.38,16.93c4.06,15.14.15,29.31-16.28,32.6-10.29,2.07-29.48,2.22-40.3,1.66C24.87,122,6.86,122,2.16,110.07c-7.59-19.28,6.31-42.25,19-56.31a68.26,68.26,0,0,1,5.18-5.17c4.62-4.06,9.59-8.87,15.53-10.87L36.12,48.39l8.33-11h4.39l5.8,11.71ZM52.81,93v6.37H45.09v5.5h-11v-5.5H29.77V93h4.36V89.53H29.77V83.16h4.36V65.84H51.21q6.52,0,10.06,2.91T64.8,77.4q0,5.91-3.8,9T49.87,89.53H45.09V93Zm-7.72-9.8H48a8.68,8.68,0,0,0,3-.46A5.09,5.09,0,0,0,53,81.5,4.33,4.33,0,0,0,54,79.76a6.22,6.22,0,0,0,.32-2A6.14,6.14,0,0,0,54.08,76a4.31,4.31,0,0,0-.92-1.64,4.66,4.66,0,0,0-1.78-1.18,8,8,0,0,0-2.86-.45H45.09V83.16Z"/></svg>