<svg id="Layer_1" data-name="Layer 1" xmlns="http://www.w3.org/2000/svg" viewBox="0 0 122.88 122.88"><defs><style>.cls-1{fill-rule:evenodd;}</style></defs><title>rouble-sign</title><path class="cls-1" d="M61.44,0A61.44,61.44,0,1,1,0,61.44,61.44,61.44,0,0,1,61.44,0Zm7.83,72.24v9H58.34v7.79H42.81V81.28H36.62v-9h6.19V67.38H36.62v-9h6.19V33.81H67q9.27,0,14.27,4.13t5,12.26q0,8.37-5.38,12.77T65.11,67.38H58.34v4.86ZM58.34,58.35h4.17a12.43,12.43,0,0,0,4.25-.64A7.13,7.13,0,0,0,69.5,56,6.13,6.13,0,0,0,71,53.54a8.9,8.9,0,0,0,.45-2.85,8.57,8.57,0,0,0-.37-2.53,5.78,5.78,0,0,0-1.3-2.31,6.39,6.39,0,0,0-2.52-1.67,10.94,10.94,0,0,0-4-.65H58.34V58.35Zm3.1-47.87a51,51,0,1,1-51,51,51,51,0,0,1,51-51Z"/></svg>