<?xml version="1.0" encoding="utf-8"?><svg version="1.1" id="Layer_1" xmlns="http://www.w3.org/2000/svg" xmlns:xlink="http://www.w3.org/1999/xlink" x="0px" y="0px" viewBox="0 0 110.38 122.88" style="enable-background:new 0 0 110.38 122.88" xml:space="preserve"><g><path d="M72.6,85.47v20.08H48.28v17.33H13.76v-17.33H0V85.47h13.76V74.66H0V54.58h13.76V0h53.8c13.73,0,24.31,3.06,31.72,9.18 c7.38,6.12,11.1,15.19,11.1,27.26c0,12.41-3.98,21.88-11.96,28.4c-7.95,6.55-19.65,9.81-35.07,9.81H48.28v10.81H72.6L72.6,85.47z M48.28,54.58h9.3c3.75,0,6.89-0.49,9.44-1.43c2.52-0.94,4.58-2.2,6.09-3.8c1.54-1.57,2.66-3.4,3.32-5.46c0.69-2.06,1-4.18,1-6.35 c0-1.86-0.26-3.72-0.83-5.61c-0.54-1.92-1.52-3.63-2.89-5.15c-1.37-1.54-3.23-2.77-5.61-3.72c-2.38-0.94-5.38-1.43-9.01-1.43H48.28 V54.58L48.28,54.58z"/></g></svg>