<svg xmlns="http://www.w3.org/2000/svg" viewBox="0 0 122.88 63.89"><path d="M0 0h122.88v63.89H0V0zm51.43 36.28h4.83v-2.43h-4.83v-3.54h4.83v-9.18h7.71c1.47 0 2.8.26 3.91.81 1.14.55 2.03 1.33 2.65 2.32.63 1 .92 2.14.92 3.43 0 1.88-.66 3.39-2.03 4.53s-3.21 1.7-5.57 1.7h-2.99v2.4h7.19v3.54h-7.19v2.95h-4.65v-2.95h-4.83v-3.54l.05-.04zm9.51-5.97H64c.92 0 1.59-.22 2.06-.66s.7-1.11.7-1.92c0-.88-.26-1.62-.74-2.18-.48-.55-1.14-.81-1.99-.81h-3.1v5.57h.01zm.52-17.15c10.4 0 18.8 8.41 18.8 18.8 0 10.4-8.41 18.8-18.8 18.8-10.4 0-18.8-8.41-18.8-18.8s8.4-18.8 18.8-18.8zM20.54 9.73h81.7c0 5.2 4.24 9.44 9.44 9.44v25.25c-5.2 0-9.44 4.24-9.44 9.44h-81.7c0-5.2-4.24-9.44-9.44-9.44V19.17c5.2 0 9.44-4.24 9.44-9.44z" fill-rule="evenodd" clip-rule="evenodd"/></svg>