<?xml version="1.0" encoding="utf-8"?><svg version="1.1" id="Layer_1" xmlns="http://www.w3.org/2000/svg" xmlns:xlink="http://www.w3.org/1999/xlink" x="0px" y="0px" viewBox="0 0 122.88 122.88" style="enable-background:new 0 0 122.88 122.88" xml:space="preserve"><style type="text/css"><![CDATA[
	.st0{fill-rule:evenodd;clip-rule:evenodd;}
]]></style><g><path class="st0" d="M61.44,0c16.96,0,32.33,6.88,43.44,18c11.12,11.12,18,26.48,18,43.44c0,16.97-6.88,32.33-18,43.45 c-11.12,11.12-26.48,18-43.44,18S29.11,116,18,104.88C6.88,93.77,0,78.41,0,61.44C0,44.48,6.88,29.11,18,18 C29.11,6.88,44.48,0,61.44,0L61.44,0z M68.27,70.87v7.88h-9.54v6.8H45.18v-6.8h-5.4v-7.88h5.4v-4.24h-5.4v-7.88h5.4V37.33h21.11 c5.39,0,9.54,1.2,12.45,3.6c2.89,2.4,4.35,5.96,4.35,10.7c0,4.87-1.56,8.59-4.69,11.15c-3.12,2.57-7.71,3.85-13.76,3.85h-5.91v4.24 H68.27L68.27,70.87z M58.73,58.75h3.65c1.47,0,2.71-0.19,3.71-0.56c0.99-0.37,1.79-0.86,2.39-1.49c0.61-0.62,1.04-1.34,1.3-2.14 c0.27-0.81,0.39-1.64,0.39-2.49c0-0.73-0.1-1.46-0.32-2.2c-0.21-0.75-0.6-1.42-1.13-2.02c-0.54-0.61-1.27-1.09-2.2-1.46 s-2.11-0.56-3.54-0.56h-4.24V58.75L58.73,58.75z M61.44,17.24c24.41,0,44.2,19.79,44.2,44.19c0,24.41-19.79,44.2-44.2,44.2 c-24.41,0-44.2-19.79-44.2-44.2C17.24,37.03,37.03,17.24,61.44,17.24L61.44,17.24z M61.44,8.74c29.11,0,52.7,23.6,52.7,52.7 c0,29.11-23.6,52.7-52.7,52.7c-29.11,0-52.7-23.59-52.7-52.7C8.74,32.33,32.33,8.74,61.44,8.74L61.44,8.74z"/></g></svg>