<?xml version="1.0" encoding="utf-8"?><svg version="1.1" id="Layer_1" xmlns="http://www.w3.org/2000/svg" xmlns:xlink="http://www.w3.org/1999/xlink" x="0px" y="0px" viewBox="0 0 122.88 113.02" style="enable-background:new 0 0 122.88 113.02" xml:space="preserve"><g><path d="M52.75,68.37c-7.63-6.3-17.48-9.41-29.54-9.35V44.02L0,67.81L23.21,90.9V77.76c9.07-0.05,15.78,2.48,20.14,7.61 c4.87,5.73,7.53,14.94,7.96,27.66l10.11-0.32l10.11,0.32c0.01-0.2,0.01-0.4,0.02-0.6h0.01v-0.35c0.53-12.23,3.17-21.12,7.92-26.71 c4.37-5.14,11.1-7.67,20.19-7.61V90.9l23.21-23.09L99.67,44.02v14.99c-11.32-0.06-20.69,2.66-28.11,8.19v-44h14.03L61.81,0 L38.72,23.21h14.03V68.37L52.75,68.37z"/></g></svg>