<?xml version="1.0" encoding="utf-8"?><svg version="1.1" id="Layer_1" xmlns="http://www.w3.org/2000/svg" xmlns:xlink="http://www.w3.org/1999/xlink" x="0px" y="0px" viewBox="0 0 115.28 122.88" style="enable-background:new 0 0 115.28 122.88" xml:space="preserve"><style type="text/css">.st0{fill-rule:evenodd;clip-rule:evenodd;}</style><g><path class="st0" d="M25.38,57h64.88V37.34H69.59c-2.17,0-5.19-1.17-6.62-2.6c-1.43-1.43-2.3-4.01-2.3-6.17V7.64l0,0H8.15 c-0.18,0-0.32,0.09-0.41,0.18C7.59,7.92,7.55,8.05,7.55,8.24v106.45c0,0.14,0.09,0.32,0.18,0.41c0.09,0.14,0.28,0.18,0.41,0.18 c22.78,0,58.09,0,81.51,0c0.18,0,0.17-0.09,0.27-0.18c0.14-0.09,0.33-0.28,0.33-0.41v-11.16H25.38c-4.14,0-7.56-3.4-7.56-7.56 V64.55C17.82,60.4,21.22,57,25.38,57L25.38,57z M30.12,90.97V68.36h11.64c2.16,0,3.81,0.18,4.95,0.56 c1.14,0.37,2.06,1.06,2.76,2.06c0.7,1.01,1.05,2.23,1.05,3.67c0,1.25-0.27,2.34-0.81,3.25c-0.53,0.92-1.27,1.65-2.21,2.22 c-0.59,0.36-1.42,0.66-2.45,0.89c0.83,0.28,1.44,0.55,1.82,0.83c0.25,0.18,0.63,0.58,1.12,1.19c0.48,0.61,0.81,1.07,0.97,1.41 l3.39,6.53h-7.89l-3.73-6.89c-0.47-0.89-0.89-1.47-1.26-1.74c-0.51-0.35-1.08-0.52-1.72-0.52h-0.62v9.16H30.12L30.12,90.97z M37.13,77.55h2.95c0.32,0,0.94-0.11,1.85-0.31c0.46-0.09,0.84-0.33,1.13-0.71c0.29-0.38,0.44-0.82,0.44-1.32 c0-0.73-0.23-1.29-0.69-1.68c-0.46-0.39-1.33-0.59-2.61-0.59h-3.07V77.55L37.13,77.55z M54.08,68.36H65.7 c2.53,0,4.43,0.6,5.69,1.81c1.26,1.21,1.89,2.92,1.89,5.15c0,2.28-0.69,4.07-2.06,5.36c-1.37,1.29-3.47,1.93-6.29,1.93h-3.83v8.37 h-7.01V68.36L54.08,68.36z M61.09,78.03h1.72c1.36,0,2.31-0.24,2.86-0.71c0.55-0.47,0.82-1.07,0.82-1.8c0-0.71-0.24-1.31-0.72-1.81 c-0.47-0.49-1.37-0.74-2.68-0.74h-2V78.03L61.09,78.03z M76.39,68.36h9.22l3.51,13.76l3.52-13.76h9.17v22.61h-5.72V73.74 l-4.41,17.24H86.5l-4.4-17.24v17.24h-5.72V68.36L76.39,68.36z M97.79,57h9.93c4.16,0,7.56,3.41,7.56,7.56v31.42 c0,4.15-3.41,7.56-7.56,7.56h-9.93v13.55c0,1.61-0.65,3.04-1.7,4.1c-1.06,1.06-2.49,1.7-4.1,1.7c-29.44,0-56.59,0-86.18,0 c-1.61,0-3.04-0.64-4.1-1.7c-1.06-1.06-1.7-2.49-1.7-4.1V5.85c0-1.61,0.65-3.04,1.7-4.1c1.06-1.06,2.53-1.7,4.1-1.7h58.72 C64.66,0,64.8,0,64.94,0c0.64,0,1.29,0.28,1.75,0.69h0.09c0.09,0.05,0.14,0.09,0.23,0.18l29.99,30.36c0.51,0.51,0.88,1.2,0.88,1.98 c0,0.23-0.05,0.41-0.09,0.65V57L97.79,57z M67.52,27.97V8.94l21.43,21.7H70.19c-0.74,0-1.38-0.32-1.89-0.78 C67.84,29.4,67.52,28.71,67.52,27.97L67.52,27.97z"/></g></svg>