<?xml version="1.0" encoding="utf-8"?><svg version="1.1" id="Layer_1" xmlns="http://www.w3.org/2000/svg" xmlns:xlink="http://www.w3.org/1999/xlink" x="0px" y="0px" viewBox="0 0 115.28 122.88" style="enable-background:new 0 0 115.28 122.88" xml:space="preserve"><style type="text/css">.st0{fill-rule:evenodd;clip-rule:evenodd;}</style><g><path class="st0" d="M25.38,57h64.88V37.34H69.59c-2.17,0-5.19-1.17-6.62-2.6c-1.43-1.43-2.3-4.01-2.3-6.17V7.64l0,0H8.15 c-0.18,0-0.32,0.09-0.41,0.18C7.59,7.92,7.55,8.05,7.55,8.24v106.45c0,0.14,0.09,0.32,0.18,0.41c0.09,0.14,0.28,0.18,0.41,0.18 c22.78,0,58.09,0,81.51,0c0.18,0,0.17-0.09,0.27-0.18c0.14-0.09,0.33-0.28,0.33-0.41v-11.16H25.38c-4.14,0-7.56-3.4-7.56-7.56 V64.55C17.82,60.4,21.22,57,25.38,57L25.38,57z M29.48,92.29V67.7h12.66c2.35,0,4.14,0.2,5.38,0.61c1.24,0.4,2.24,1.15,3.01,2.24 c0.76,1.09,1.14,2.43,1.14,4c0,1.36-0.29,2.54-0.88,3.53c-0.58,1-1.38,1.8-2.4,2.42c-0.65,0.39-1.54,0.72-2.67,0.97 c0.9,0.3,1.56,0.6,1.97,0.9c0.27,0.2,0.68,0.64,1.21,1.29c0.53,0.66,0.88,1.17,1.06,1.53l3.69,7.1h-8.59l-4.06-7.5 c-0.52-0.97-0.97-1.6-1.37-1.89c-0.55-0.38-1.17-0.57-1.87-0.57H37.1v9.96H29.48L29.48,92.29z M37.1,77.7h3.21 c0.34,0,1.02-0.11,2.01-0.34c0.5-0.1,0.92-0.35,1.23-0.77c0.32-0.42,0.48-0.89,0.48-1.43c0-0.8-0.25-1.41-0.76-1.83 c-0.5-0.43-1.45-0.64-2.84-0.64H37.1V77.7L37.1,77.7z M54.85,84.16l7.21-0.45c0.15,1.17,0.48,2.06,0.96,2.67 c0.78,0.99,1.9,1.49,3.35,1.49c1.08,0,1.92-0.25,2.5-0.76c0.59-0.51,0.88-1.1,0.88-1.77c0-0.64-0.27-1.21-0.83-1.71 c-0.56-0.5-1.85-0.97-3.88-1.43c-3.33-0.74-5.7-1.74-7.12-2.98c-1.43-1.24-2.15-2.82-2.15-4.74c0-1.26,0.37-2.45,1.1-3.57 c0.73-1.13,1.83-2.01,3.3-2.65c1.47-0.64,3.49-0.96,6.04-0.96c3.14,0,5.54,0.58,7.18,1.76c1.65,1.17,2.63,3.03,2.94,5.58 l-7.14,0.42c-0.19-1.12-0.59-1.93-1.2-2.43c-0.61-0.51-1.45-0.76-2.52-0.76c-0.88,0-1.55,0.19-2,0.56 c-0.45,0.37-0.67,0.83-0.67,1.37c0,0.39,0.18,0.74,0.54,1.05c0.35,0.33,1.2,0.62,2.54,0.9c3.32,0.72,5.7,1.44,7.13,2.18 c1.44,0.73,2.48,1.64,3.14,2.72c0.65,1.08,0.98,2.3,0.98,3.64c0,1.57-0.44,3.03-1.31,4.36c-0.88,1.33-2.09,2.34-3.66,3.03 c-1.56,0.69-3.53,1.03-5.91,1.03c-4.18,0-7.07-0.81-8.68-2.42C55.97,88.68,55.06,86.64,54.85,84.16L54.85,84.16z M79.71,84.16 l7.21-0.45c0.15,1.17,0.48,2.06,0.96,2.67c0.78,0.99,1.9,1.49,3.35,1.49c1.08,0,1.92-0.25,2.5-0.76c0.59-0.51,0.88-1.1,0.88-1.77 c0-0.64-0.27-1.21-0.83-1.71c-0.56-0.5-1.85-0.97-3.88-1.43c-3.33-0.74-5.7-1.74-7.12-2.98c-1.43-1.24-2.15-2.82-2.15-4.74 c0-1.26,0.37-2.45,1.1-3.57c0.73-1.13,1.83-2.01,3.3-2.65c1.47-0.64,3.49-0.96,6.04-0.96c3.14,0,5.54,0.58,7.18,1.76 c1.65,1.17,2.63,3.03,2.94,5.58l-7.14,0.42c-0.19-1.12-0.59-1.93-1.2-2.43c-0.61-0.51-1.45-0.76-2.52-0.76 c-0.88,0-1.55,0.19-2,0.56c-0.45,0.37-0.67,0.83-0.67,1.37c0,0.39,0.18,0.74,0.54,1.05c0.35,0.33,1.2,0.62,2.54,0.9 c3.32,0.72,5.7,1.44,7.13,2.18c1.44,0.73,2.48,1.64,3.14,2.72c0.65,1.08,0.98,2.3,0.98,3.64c0,1.57-0.44,3.03-1.31,4.36 c-0.88,1.33-2.09,2.34-3.66,3.03c-1.56,0.69-3.53,1.03-5.91,1.03c-4.18,0-7.07-0.81-8.68-2.42C80.83,88.68,79.92,86.64,79.71,84.16 L79.71,84.16z M97.79,57h9.93c4.16,0,7.56,3.41,7.56,7.56v31.42c0,4.15-3.41,7.56-7.56,7.56h-9.93v13.55c0,1.61-0.65,3.04-1.7,4.1 c-1.06,1.06-2.49,1.7-4.1,1.7c-29.44,0-56.59,0-86.18,0c-1.61,0-3.04-0.64-4.1-1.7c-1.06-1.06-1.7-2.49-1.7-4.1V5.85 c0-1.61,0.65-3.04,1.7-4.1c1.06-1.06,2.53-1.7,4.1-1.7h58.72C64.66,0,64.8,0,64.94,0c0.64,0,1.29,0.28,1.75,0.69h0.09 c0.09,0.05,0.14,0.09,0.23,0.18l29.99,30.36c0.51,0.51,0.88,1.2,0.88,1.98c0,0.23-0.05,0.41-0.09,0.65V57L97.79,57z M67.52,27.97 V8.94l21.43,21.7H70.19c-0.74,0-1.38-0.32-1.89-0.78C67.84,29.4,67.52,28.71,67.52,27.97L67.52,27.97z"/></g></svg>