<svg id="Layer_1" data-name="Layer 1" xmlns="http://www.w3.org/2000/svg" viewBox="0 0 122.88 122.88"><title>rub</title><path d="M30.27,0H92.61a30.35,30.35,0,0,1,30.27,30.27V92.61a30.35,30.35,0,0,1-30.27,30.27H30.27A30.35,30.35,0,0,1,0,92.61V30.27A30.35,30.35,0,0,1,30.27,0Zm40,71.93v9.13H59.17V89.8H43.48V81.06H37.23V71.93h6.25V67H37.23V57.89h6.25V33.08H67.94q9.36,0,14.42,4.17c3.35,2.79,5,6.91,5,12.39q0,8.47-5.43,12.91T66,67H59.17v4.92Zm-11.06-14H63.4a12.42,12.42,0,0,0,4.29-.65,7.29,7.29,0,0,0,2.77-1.73A6.28,6.28,0,0,0,72,53a9,9,0,0,0,.45-2.88,8.7,8.7,0,0,0-.37-2.55,5.81,5.81,0,0,0-1.32-2.34,6.58,6.58,0,0,0-2.55-1.69,11.13,11.13,0,0,0-4.09-.65H59.17v15ZM92.61,12.1H30.27A18.23,18.23,0,0,0,12.1,30.27V92.61a18.23,18.23,0,0,0,18.17,18.17H92.61a18.23,18.23,0,0,0,18.17-18.17V30.27A18.23,18.23,0,0,0,92.61,12.1Z"/></svg>