<?xml version="1.0" encoding="utf-8"?><svg version="1.1" id="Layer_1" xmlns="http://www.w3.org/2000/svg" xmlns:xlink="http://www.w3.org/1999/xlink" x="0px" y="0px" viewBox="0 0 122.88 122.88" style="enable-background:new 0 0 122.88 122.88" xml:space="preserve"><style type="text/css">.st0{fill-rule:evenodd;clip-rule:evenodd;}</style><g><polygon class="st0" points="89.57,0 122.88,33.31 33.31,122.88 0,89.57 2.46,87.11 2.49,87.13 8.65,93.29 9.53,94.18 10.42,93.29 12.79,90.92 13.67,90.04 12.79,89.15 6.63,82.99 6.6,82.97 9.92,79.65 9.94,79.68 27.12,96.85 28,97.73 28.89,96.85 31.26,94.48 32.14,93.59 31.26,92.71 14.08,75.53 14.06,75.51 17.37,72.19 17.4,72.22 26.64,81.46 27.52,82.34 28.41,81.46 30.78,79.09 31.66,78.2 30.78,77.32 21.54,68.08 21.51,68.05 24.83,64.74 24.85,64.76 31.01,70.92 31.89,71.8 32.78,70.92 35.15,68.55 36.04,67.66 35.15,66.78 28.99,60.62 28.97,60.6 32.29,57.28 32.31,57.31 49.49,74.48 50.37,75.37 51.26,74.48 53.63,72.11 54.51,71.23 53.63,70.34 36.45,53.17 36.43,53.14 39.74,49.83 39.76,49.85 49.01,59.09 49.89,59.98 50.78,59.09 53.15,56.72 54.03,55.83 53.15,54.95 43.91,45.71 43.88,45.69 47.2,42.37 47.22,42.4 53.38,48.56 54.27,49.44 55.15,48.56 57.52,46.19 58.41,45.3 57.52,44.42 51.36,38.25 51.34,38.23 54.66,34.92 54.68,34.94 71.85,52.11 72.74,53 73.63,52.11 76,49.75 76.88,48.86 76,47.98 58.82,30.8 58.79,30.78 62.11,27.46 62.13,27.48 71.37,36.72 72.26,37.61 73.14,36.72 75.51,34.35 76.4,33.47 75.51,32.58 66.27,23.34 66.25,23.32 69.56,20 69.59,20.03 75.75,26.19 76.63,27.07 77.52,26.19 79.89,23.82 80.78,22.93 79.89,22.05 73.73,15.89 73.71,15.86 77.02,12.55 77.05,12.57 94.22,29.75 95.11,30.63 95.99,29.75 98.36,27.38 99.25,26.49 98.36,25.61 81.18,8.43 81.16,8.41 84.48,5.09 84.5,5.11 93.74,14.35 94.63,15.24 95.51,14.35 97.88,11.98 98.77,11.1 97.88,10.21 88.64,0.97 88.62,0.95 89.57,0"/></g></svg>