<?xml version="1.0" encoding="utf-8"?><svg version="1.1" id="Layer_1" xmlns="http://www.w3.org/2000/svg" xmlns:xlink="http://www.w3.org/1999/xlink" x="0px" y="0px" viewBox="0 0 56.53 122.88" style="enable-background:new 0 0 56.53 122.88" xml:space="preserve"><style type="text/css">.st0{fill-rule:evenodd;clip-rule:evenodd;}</style><g><path class="st0" d="M34.47,37.62c6.76-10.67,9.83-23.3,9.7-37.62c-4.22,21.64-15.35,41.16-30.05,60.1 C6.09,71.87-1.33,79.23,0.2,86.91c2.03,10.19,11.86,9.53,19.6,11.51c5.86,1.51,10.39,4.18,13.01,8.53c1.35-2.46,1.02-4.83-1.18-7.1 l-15.68-4.7c-19.63-5.95-7.8-19.15,0.72-29.52C23.46,57.36,29.44,48.04,34.47,37.62L34.47,37.62z M39.56,101.53 c0.92,4.97,3.66,7.46,3.66,9.94s-0.92,4.97-3.66,4.97c-2.75,0-3.66-2.49-3.66-4.97S38.64,106.5,39.56,101.53L39.56,101.53z M21.68,102.94c1.22,6.65,4.9,9.97,4.9,13.29c0,3.32-1.22,6.65-4.9,6.65c-3.67,0-4.9-3.32-4.9-6.65 C16.78,112.91,20.45,109.59,21.68,102.94L21.68,102.94z M20.72,88.07c-5.53-0.05-7.04-0.82-5.73-2.8c1.51-0.73,3.27-1.22,5.45-1.28 c4.91-0.14,8.55,1.5,12.72,3.87c6.5,3.7,13.94,11.67,18.9,6.66c2.69-2.72,3.14-6.37,1.56-9.82c-0.78-1.7-2.03-3.24-3.58-4.68 c8.19,4.05,9.18,16.26-0.15,18.42c-1.24,0.29-2.59,0.23-4.06-0.23l-2.83-1.3c-4.27-2-6.98-3.97-10.88-6.07 C27.43,88.33,25.74,88.12,20.72,88.07L20.72,88.07z"/></g></svg>