<svg id="Layer_1" data-name="Layer 1" xmlns="http://www.w3.org/2000/svg" viewBox="0 0 122.88 116.37"><defs><style>.cls-1{fill-rule:evenodd;}</style></defs><title>rupee-price-list</title><path class="cls-1" d="M41.47,61.47a3.33,3.33,0,0,1,0-6.57H78a3.33,3.33,0,0,1,0,6.57Zm44.18,20,3.15-7.11h11.91a4.75,4.75,0,0,0-.78-1.49,5.86,5.86,0,0,0-1.4-1.26,7.59,7.59,0,0,0-1.84-.86,6.91,6.91,0,0,0-2.15-.34H85.65l3.15-7.1h34.07l-3.16,7.1h-8.22a9.25,9.25,0,0,1,.91.87,6.9,6.9,0,0,1,.74,1,10.73,10.73,0,0,1,.54,1.07,4.27,4.27,0,0,1,.28,1h8.92l-3.16,7.11h-6.45a11.83,11.83,0,0,1-2.11,3.43,17.58,17.58,0,0,1-3.27,2.9,20.85,20.85,0,0,1-4,2.17,19,19,0,0,1-4.43,1.18l17.9,18.43H103.17l-16-17.5V85.52h7.06a6.31,6.31,0,0,0,2-.32,7.82,7.82,0,0,0,1.83-.91A6.42,6.42,0,0,0,99.56,83a4.78,4.78,0,0,0,.87-1.54H85.65ZM73.44,109.78a3.3,3.3,0,1,1,0,6.59H7.67A7.68,7.68,0,0,1,0,108.7V7.67A7.68,7.68,0,0,1,7.67,0H101.9a7.68,7.68,0,0,1,7.68,7.67V45.82a3.3,3.3,0,0,1-6.6,0V7.67a1,1,0,0,0-.32-.75,1.07,1.07,0,0,0-.76-.33H7.67a1.12,1.12,0,0,0-.76.32,1.14,1.14,0,0,0-.32.76v101a1.11,1.11,0,0,0,1.08,1.08Zm-32-24.13a3.39,3.39,0,0,1,0-6.67H70.19a3.39,3.39,0,0,1,0,6.67Zm0-48.31a3.05,3.05,0,0,1-2.76-3.28,3,3,0,0,1,2.76-3.29H78a3.07,3.07,0,0,1,2.77,3.29A3.05,3.05,0,0,1,78,37.34ZM25.62,77.82a3.89,3.89,0,1,1-3.89,3.89,3.89,3.89,0,0,1,3.89-3.89Zm0-23.82a3.9,3.9,0,1,1-3.89,3.89A3.9,3.9,0,0,1,25.62,54Zm0-23.82a3.9,3.9,0,1,1-3.89,3.9,3.9,3.9,0,0,1,3.89-3.9Z"/></svg>