<svg xmlns="http://www.w3.org/2000/svg" viewBox="0 0 122.88 63.89"><path d="M0 0h122.88v63.89H0V0zm54.49 21.42h13.9c.11 0 .22.11.22.22v2.14c0 .11-.11.22-.22.22h-4.35c.7.81 1.18 1.77 1.4 2.8h2.95c.11 0 .22.11.22.22v2.14c0 .11-.11.22-.22.22h-2.95c-.26 1.25-.92 2.4-1.84 3.28-1.18 1.14-2.84 1.84-4.65 1.84h-.18l7.82 8.89c.22.26-.15.77-.33.77l-3.61.04-8.33-9.51c-.07-.07-.07-.18-.07-.29v-3.47h4.72c.85 0 1.62-.33 2.18-.85.22-.22.41-.44.55-.7h-7.23c-.11 0-.22-.11-.22-.22v-2.14c0-.11.11-.22.22-.22h7.23c-.15-.26-.33-.48-.55-.7-.55-.52-1.33-.85-2.18-.85h-4.72v-3.58c0-.11.11-.22.22-.22l.02-.03zm6.93-8.26c10.4 0 18.8 8.41 18.8 18.8 0 10.4-8.41 18.8-18.8 18.8-10.4 0-18.8-8.41-18.8-18.8s8.4-18.8 18.8-18.8zM20.5 9.73h81.7c0 5.2 4.24 9.44 9.44 9.44v25.25c-5.2 0-9.44 4.24-9.44 9.44H20.5c0-5.2-4.24-9.44-9.44-9.44V19.17c5.2 0 9.44-4.24 9.44-9.44z" fill-rule="evenodd" clip-rule="evenodd"/></svg>