<svg id="Layer_1" data-name="Layer 1" xmlns="http://www.w3.org/2000/svg" viewBox="0 0 94.56 122.88"><defs><style>.cls-1{fill-rule:evenodd;}</style></defs><title>rupee-money-bag</title><path class="cls-1" d="M38.14,21.15c-1.9-5.6-3.6-11.26-5-17,5.38-5.9,26.16-5.12,32.13-.1L59.69,17.21c3-3.91,4-5.52,5.75-7.69a17.45,17.45,0,0,1,2.11,1.63c1.57,1.43,3,3,3.26,5.2a5.38,5.38,0,0,1-1.49,4.34L56.63,35.48a27,27,0,0,1-4.78-1.22c.72-1.69,1.59-3.55,2.31-5.25l-4.62,5a17.34,17.34,0,0,0-12.3,1.5L24.37,20.05a4.3,4.3,0,0,1-1.11-2.76c0-3.73,5.58-7,8.5-8.18l6.38,12Zm16.5,27.91L52.12,37.57c10.76,2,28,23.89,33.58,33.84a94.1,94.1,0,0,1,7.38,16.93c4.06,15.14.15,29.31-16.28,32.6-10.29,2.07-29.48,2.22-40.3,1.66C24.87,122,6.86,122,2.16,110.07c-7.59-19.28,6.31-42.25,19-56.31a68.26,68.26,0,0,1,5.18-5.17c4.62-4.06,9.59-8.87,15.53-10.87L36.12,48.39l8.33-11h4.39l5.8,11.71ZM31.22,81,34,74.91H44.22a4,4,0,0,0-.68-1.28,5,5,0,0,0-1.2-1.09,6.43,6.43,0,0,0-1.59-.74,5.75,5.75,0,0,0-1.86-.29H31.22L34,65.38H63.34l-2.72,6.13h-7.1a4.59,4.59,0,0,1,.78.75,6.81,6.81,0,0,1,.64.88,8.77,8.77,0,0,1,.46.92,4.37,4.37,0,0,1,.25.85h7.69L60.62,81H55.05a10.17,10.17,0,0,1-1.82,3,15.15,15.15,0,0,1-2.82,2.51,18.78,18.78,0,0,1-3.49,1.87,16.88,16.88,0,0,1-3.82,1l15.44,15.9H46.33L32.56,90.19V84.56h6.1a5.46,5.46,0,0,0,1.73-.29A7,7,0,0,0,42,83.49a5.85,5.85,0,0,0,1.25-1.12A3.87,3.87,0,0,0,44,81Z"/></svg>