<?xml version="1.0" encoding="utf-8"?><svg version="1.1" id="Layer_1" xmlns="http://www.w3.org/2000/svg" xmlns:xlink="http://www.w3.org/1999/xlink" x="0px" y="0px" viewBox="0 0 103.14 122.88" style="enable-background:new 0 0 103.14 122.88" xml:space="preserve"><g><path d="M55.97,99.67c-2.18,2.18-5.06,3.27-7.95,3.27c-2.89,0-5.77-1.09-7.95-3.27L3.27,62.88C1.09,60.69,0,57.81,0,54.92 c0-2.89,1.09-5.77,3.27-7.95L45.46,4.78c0.64-0.64,1.46-0.96,2.3-0.98l51.79-3.79c1.85-0.13,3.45,1.26,3.58,3.11 c0.01,0.19,0.01,0.37-0.01,0.55l-3.54,51.2c-0.06,0.84-0.42,1.59-0.97,2.15l0,0L55.97,99.67L55.97,99.67z M41.94,39.59l6.48-2.5 l7.51,7.51c0.22-0.41,0.37-0.89,0.44-1.44s0.04-1.1-0.08-1.67c-0.12-0.57-0.33-1.14-0.62-1.71c-0.29-0.57-0.67-1.1-1.15-1.57 l-5.61-5.61l6.48-2.49l21.51,21.51l-6.48,2.5l-5.19-5.19c0.05,0.36,0.05,0.73,0.02,1.12c-0.03,0.38-0.08,0.75-0.18,1.12 c-0.1,0.35-0.21,0.69-0.33,1.01c-0.14,0.31-0.29,0.58-0.44,0.79l5.63,5.63l-6.48,2.5l-4.07-4.07c-1.06,0.46-2.22,0.74-3.5,0.83 c-1.28,0.09-2.57,0.01-3.9-0.23c-1.33-0.25-2.63-0.64-3.92-1.19c-1.28-0.55-2.46-1.24-3.54-2.05l-0.33,22.93l-8.93-8.93l0.98-21.13 l4.12-4.12l4.46,4.46c0.43,0.43,0.92,0.78,1.48,1.05c0.56,0.28,1.14,0.48,1.73,0.58c0.58,0.12,1.17,0.15,1.73,0.1 c0.57-0.05,1.07-0.19,1.52-0.42L41.94,39.59L41.94,39.59L41.94,39.59z M93.38,72.22c1.31-1.31,3.44-1.31,4.75,0 c1.31,1.31,1.31,3.44,0,4.75l-42.65,42.65c-2.18,2.18-5.07,3.27-7.95,3.27c-2.89,0-5.77-1.09-7.95-3.27L2.79,82.82 c-1.31-1.31-1.31-3.44,0-4.75c1.31-1.31,3.44-1.31,4.75,0l36.79,36.79c0.89,0.89,2.05,1.33,3.21,1.33c1.16,0,2.32-0.44,3.21-1.33 L93.38,72.22L93.38,72.22z M89.32,23.53c0.04,1.41-0.16,2.72-0.61,3.94c-0.46,1.23-1.16,2.36-2.11,3.39l-0.01,0.01 c-0.94,1.02-2,1.81-3.2,2.37c-1.21,0.57-2.51,0.9-3.91,0.98c-0.12,0.01-0.24,0.01-0.36,0c-1.29,0.01-2.51-0.2-3.65-0.64l-0.01,0 l0,0.01c-1.23-0.47-2.36-1.18-3.39-2.14c-0.06-0.06-0.12-0.12-0.17-0.18c-0.94-0.92-1.67-1.96-2.19-3.09 c-0.54-1.19-0.84-2.46-0.89-3.81l-0.01,0c-0.08-1.4,0.1-2.73,0.56-3.98c0.45-1.24,1.15-2.39,2.12-3.44l0.01-0.01l0,0 c0.96-1.04,2.04-1.84,3.24-2.4c1.2-0.55,2.5-0.86,3.91-0.9c1.43-0.05,2.76,0.16,4,0.62c1.25,0.47,2.4,1.19,3.44,2.16 c1.01,0.95,1.8,2.03,2.35,3.23S89.27,22.15,89.32,23.53L89.32,23.53L89.32,23.53z M83.46,25.53c0.21-0.56,0.3-1.16,0.28-1.8 c-0.02-0.65-0.15-1.24-0.39-1.77c-0.24-0.53-0.61-1.03-1.1-1.49c-0.48-0.45-1-0.78-1.55-0.98c-0.57-0.21-1.19-0.31-1.85-0.28 c-0.65,0.02-1.23,0.15-1.77,0.4c-0.53,0.25-1.03,0.62-1.48,1.11l0,0c-0.45,0.49-0.77,1.01-0.97,1.57 c-0.19,0.53-0.27,1.12-0.23,1.75l-0.01,0l0,0.07c0.02,0.66,0.15,1.25,0.39,1.78c0.22,0.49,0.55,0.96,0.99,1.39 c0.04,0.03,0.07,0.06,0.11,0.09c0.49,0.46,1.01,0.79,1.57,1l0,0c0.49,0.19,1.02,0.28,1.58,0.28c0.04,0,0.08-0.01,0.12-0.01 c0.71-0.04,1.33-0.19,1.86-0.44c0.54-0.25,1.03-0.62,1.47-1.11l0.02-0.02C82.93,26.6,83.26,26.08,83.46,25.53L83.46,25.53 L83.46,25.53z M48.02,96.25c1.16,0,2.32-0.44,3.21-1.33l41.76-41.76l3.19-46.18L49.33,10.4L8.02,51.72 c-0.89,0.89-1.33,2.05-1.33,3.2c0,1.16,0.44,2.32,1.33,3.21l36.79,36.79C45.7,95.81,46.86,96.25,48.02,96.25L48.02,96.25z"/></g></svg>