<?xml version="1.0" encoding="utf-8"?><svg version="1.1" id="Layer_1" xmlns="http://www.w3.org/2000/svg" xmlns:xlink="http://www.w3.org/1999/xlink" x="0px" y="0px" viewBox="0 0 108.99 122.88" style="enable-background:new 0 0 108.99 122.88" xml:space="preserve"><g><path d="M25.77,4.5l27.95,30.89L83.18,4.48c-0.42-0.26-0.91-0.42-1.44-0.42H61.61l-35.08,0.1C26.26,4.23,26,4.35,25.77,4.5 L25.77,4.5z M43.52,83.61l7.11-0.45c0.15,1.15,0.47,2.03,0.94,2.63c0.77,0.98,1.87,1.47,3.3,1.47c1.07,0,1.89-0.25,2.46-0.75 c0.58-0.5,0.87-1.08,0.87-1.74c0-0.63-0.27-1.19-0.82-1.69c-0.55-0.5-1.82-0.96-3.82-1.4c-3.28-0.73-5.62-1.71-7.02-2.94 c-1.41-1.22-2.11-2.77-2.11-4.67c0-1.24,0.36-2.41,1.08-3.52c0.72-1.11,1.8-1.98,3.25-2.61c1.45-0.63,3.43-0.95,5.96-0.95 c3.1,0,5.45,0.58,7.08,1.73c1.62,1.15,2.59,2.98,2.9,5.5l-7.04,0.42c-0.19-1.1-0.58-1.9-1.18-2.4c-0.6-0.5-1.43-0.75-2.49-0.75 c-0.87,0-1.53,0.19-1.97,0.55c-0.44,0.37-0.66,0.82-0.66,1.35c0,0.38,0.18,0.73,0.54,1.04c0.34,0.32,1.18,0.61,2.5,0.89 c3.27,0.7,5.61,1.42,7.02,2.14c1.42,0.72,2.45,1.61,3.09,2.68c0.64,1.07,0.96,2.26,0.96,3.59c0,1.55-0.43,2.98-1.29,4.3 c-0.86,1.31-2.06,2.31-3.6,2.98c-1.54,0.68-3.48,1.02-5.83,1.02c-4.12,0-6.97-0.8-8.55-2.38C44.62,88.07,43.73,86.05,43.52,83.61 L43.52,83.61z M56.96,42.33v15.94h-5.09V41.83L25.8,52.02c-2.39,0.93-4.38,0.14-4.69-6.16c-0.23-4.68-0.45-11.53-0.55-19.6 c-0.11,0.02-0.22,0.02-0.33,0.02H6.98c-0.68,0-1.3,0.28-1.75,0.73c-0.45,0.45-0.73,1.07-0.73,1.75v87.14c0,0.68,0.28,1.3,0.73,1.75 c0.45,0.45,1.07,0.73,1.75,0.73h44.89v-17.29h5.09v17.29h45.05c0.68,0,1.3-0.28,1.75-0.73c0.45-0.45,0.73-1.07,0.73-1.75V28.76 c0-0.68-0.28-1.3-0.73-1.75c-0.45-0.45-1.07-0.73-1.75-0.73H88.52c0.01,10.05-0.18,18.42-1.29,22.68 c-1.47,5.66-6.3,3.54-10.14,1.91L56.96,42.33L56.96,42.33z M88.5,21.78h13.51c1.92,0,3.67,0.78,4.93,2.05 c1.26,1.26,2.05,3.01,2.05,4.93v87.14c0,1.92-0.78,3.67-2.05,4.93c-1.26,1.26-3.01,2.05-4.93,2.05H6.98 c-1.92,0-3.67-0.78-4.93-2.05C0.78,119.57,0,117.82,0,115.9V28.76c0-1.92,0.78-3.67,2.05-4.93c1.26-1.26,3.01-2.05,4.93-2.05h13.26 c0.1,0,0.19,0.01,0.28,0.02c-0.03-4.74-0.02-9.82,0.05-15.06c0-1.29,0.37-2.49,0.99-3.51c0.42-1.76,2-3.07,3.89-3.07l0.65,0 c0.37-0.06,0.75-0.1,1.14-0.1V0.04h0.01h40.34L83.63,0v0c0.96,0,1.93,0.34,2.7,1.05c0.73,0.67,1.15,1.53,1.27,2.44 c0.53,0.96,0.84,2.07,0.84,3.25h0.02v0.01h-0.02C88.43,11.88,88.47,16.97,88.5,21.78L88.5,21.78z M50.05,37.33L24.56,9.05v36.69 c0,1.85,1.82,1.85,3.98,1.08C34.77,44.62,46.9,38.79,50.05,37.33L50.05,37.33z M84.43,9.03L57.37,37.32l24.38,11.11 c1.33,0.64,2.68-1.21,2.68-2.68V9.03L84.43,9.03z M20.55,6.74L20.55,6.74L20.55,6.74z"/></g></svg>