<?xml version="1.0" encoding="utf-8"?><svg version="1.1" id="Layer_1" xmlns="http://www.w3.org/2000/svg" xmlns:xlink="http://www.w3.org/1999/xlink" x="0px" y="0px" viewBox="0 0 84.34 122.88" style="enable-background:new 0 0 84.34 122.88" xml:space="preserve"><g><path d="M34.02,73.49c-0.89,0.58-1.14,1.76-0.56,2.65c0.58,0.89,1.76,1.14,2.65,0.56c2.18-1.42,4.28-2.19,6.27-2.21 c1.93-0.03,3.84,0.66,5.73,2.12c0.84,0.65,2.04,0.5,2.69-0.34c0.65-0.84,0.5-2.04-0.34-2.69c-2.6-2.02-5.31-2.95-8.13-2.92 C39.57,70.7,36.8,71.68,34.02,73.49L34.02,73.49L34.02,73.49z M31.13,48c1.44,0.65,2.44,2.09,2.44,3.78c0,2.29-1.85,4.14-4.14,4.14 c-2.29,0-4.14-1.85-4.14-4.14c0-0.78,0.22-1.51,0.59-2.13l-4.28,1.34c-1.08,0.34-2.22-0.27-2.56-1.34 c-0.34-1.08,0.27-2.22,1.34-2.56l11.27-3.53c1.08-0.34,2.22,0.27,2.56,1.34c0.34,1.08-0.27,2.22-1.34,2.56L31.13,48L31.13,48z M65.75,47.08c1.08,0.34,1.68,1.48,1.34,2.56c-0.34,1.08-1.48,1.68-2.56,1.34l-4.41-1.38c0.39,0.63,0.62,1.38,0.62,2.17 c0,2.29-1.85,4.14-4.14,4.14c-2.29,0-4.14-1.85-4.14-4.14c0-1.7,1.02-3.16,2.49-3.8l-1.68-0.53c-1.08-0.34-1.68-1.48-1.34-2.56 c0.34-1.08,1.48-1.68,2.56-1.34L65.75,47.08L65.75,47.08z M3.42,122.88c3.35-12.72,7.72-16.33,16.84-23.88 c1.35-1.11,2.8-2.32,4.2-3.5c0.03-0.02,0.06-0.05,0.09-0.07c0.31-0.4,0.52-0.67,0.73-0.93c1.04-1.32,1.9-2.41,2.59-3.86 c-4.38-2.35-8.46-5.86-11.95-10.61c-2.46,0.62-14.05,5.13-13.95,1.01C0.54,72.01-0.29,62.94,0.09,53.8 c0.44-10.47,2.78-26.55,8.57-35.67C12.8,11.63,17.96,7,24.02,4.04C30.04,1.1,36.94-0.17,44.6,0.02c6.58,0.16,12.96,1.79,18.63,5.05 c5.3,3.04,9.98,7.49,13.64,13.46c1.35,2.21,2.51,4.52,3.49,6.95c3.54,8.75,3.87,18.27,3.98,27.62c0.04,3.63-0.23,26.6-2.37,28.1 c-1.81,1.28-5.81-3.96-9.53-5.38c-4.05,6.58-9.34,11.5-15.2,14.6c0.53,1.52,1.26,2.68,2.17,4.11l0.39,0.62 c12.08,5.46,17.49,15.48,21.03,27.74h-4.08c-3.07-10.13-7.64-18.85-17.51-23.68c-1.49,1.86-3.23,3.42-5.13,4.66 c-3.63,2.38-7.87,3.61-12.1,3.62c-4.24,0.01-8.47-1.21-12.08-3.72c-0.69-0.48-1.36-1.01-2.01-1.59c-0.87-0.73-1.69-1.54-2.47-2.41 c-0.98,0.82-1.87,1.55-2.71,2.25c-8.18,6.76-12.23,10.11-15.28,20.87L3.42,122.88L3.42,122.88L3.42,122.88z M52.37,86.24 c0.44-0.2,0.89-0.41,1.35-0.63c0.06-0.03,0.12-0.05,0.17-0.07c6.65-3.33,12.52-9.45,16.21-17.88c1.3-2.97,1.89-5.66,2.15-8.35 c0.78-8.28,0.06-19.46,0.06-28.05c-6.79,1.05-9.63-3.5-10.88-10.28c-13.88,12.66-30.05,15.45-48.17,9.85 c0,8.5-0.68,19.17-0.01,27.39c0.2,2.48,0.69,5,1.75,7.78C22.86,86.56,38.95,92,52.37,86.24L52.37,86.24L52.37,86.24z M31.43,92.27 c-0.83,1.78-1.85,3.07-3.08,4.63c0.71,0.92,1.48,1.75,2.31,2.48c0.15,0.12,0.3,0.24,0.45,0.36c3.21,2.48,6.96,3.76,10.72,3.81 c3.75,0.06,7.52-1.11,10.75-3.52c1.27-0.95,2.46-2.09,3.53-3.41L56.1,96.6c-1-1.58-1.83-2.88-2.45-4.55 C46.45,94.86,38.65,95.03,31.43,92.27L31.43,92.27L31.43,92.27z"/></g></svg>