<?xml version="1.0" encoding="utf-8"?><svg version="1.1" id="Layer_1" xmlns="http://www.w3.org/2000/svg" xmlns:xlink="http://www.w3.org/1999/xlink" x="0px" y="0px" viewBox="0 0 122.88 122.88" style="enable-background:new 0 0 122.88 122.88" xml:space="preserve"><g><path d="M114.94,8.66l7.93,56.88c0.06,0.44-0.25,0.84-0.68,0.9l-11.36,1.81c-0.43,0.07-0.84-0.23-0.91-0.66l-5.64-39.87 l-50.3,50.42l23.92,23.94c0.31,0.31,0.31,0.82,0,1.13l-8.18,8.12c-0.31,0.31-0.82,0.31-1.13,0L44.69,87.38L9.32,122.64 c-0.31,0.31-0.82,0.31-1.12,0l-7.96-7.96c-0.31-0.31-0.31-0.82,0-1.13L35.6,78.29L11.69,54.36c-0.31-0.31-0.31-0.82,0-1.12 l8.12-8.2c0.31-0.31,0.82-0.31,1.13,0l23.91,23.94l50.37-50.35l-39.8-5.64c-0.44-0.06-0.74-0.46-0.68-0.9l1.79-11.41 c0.07-0.43,0.47-0.72,0.9-0.67l56.83,7.96C114.62,8.02,114.89,8.31,114.94,8.66L114.94,8.66z"/></g></svg>