<svg xmlns="http://www.w3.org/2000/svg" viewBox="0 0 122.82 122.88"><defs><style>.a{fill:#7882ff;}.b{fill:#fff;}.c{fill:#4d5cc1;}</style></defs><title>samsung-internet</title><path class="a" d="M121.72,43.12c-1.52-11.42-5.55-21.76-12.66-29.33h0C101.49,6.69,91.15,2.65,79.74,1.13A113.65,113.65,0,0,0,61.43,0,113.61,113.61,0,0,0,43.12,1.13C31.7,2.65,21.36,6.69,13.81,13.79,6.69,21.36,2.65,31.7,1.13,43.12A113.61,113.61,0,0,0,0,61.43,113.65,113.65,0,0,0,1.13,79.74c1.52,11.41,5.56,21.75,12.66,29.32,7.57,7.13,17.91,11.17,29.3,12.69a113.65,113.65,0,0,0,18.31,1.09,113.61,113.61,0,0,0,18.31-1.09c11.42-1.52,21.76-5.56,29.3-12.69h0c7.13-7.57,11.17-17.91,12.66-29.32a113.08,113.08,0,0,0,1.1-18.31,108.94,108.94,0,0,0-1-18.31Z"/><path class="b" d="M92.87,52.33A32.79,32.79,0,1,1,52.48,29.54,32.81,32.81,0,0,1,92.87,52.33Z"/><path class="b" d="M92.87,52.33a32.73,32.73,0,0,1-.47,19.16c-.15.48-.33,1-.53,1.45l1-20.61Zm0,0Z"/><path class="b" d="M92.35,52.33A32.47,32.47,0,0,1,93.19,66l-.84-13.63Zm0,0Z"/><path class="c" d="M83.2,84.15h0c-8.29,0-18.38-2.12-28.45-5.93s-19-8.94-25.21-14.45c-10.07-9-9.45-15.87-8.18-19.21s5.41-8.94,18.86-8.94h0c8.3,0,18.39,2.11,28.46,5.93s19,8.94,25.21,14.45c10.07,8.94,9.44,15.87,8.17,19.21s-5.38,8.94-18.86,8.94ZM40.25,46c-6.23,0-8.9,1.54-9.17,2.24s.72,3.64,5.38,7.77c5.21,4.61,13.23,9.19,22,12.51s17.82,5.26,24.77,5.26h0c6.23,0,8.89-1.55,9.17-2.25s-.73-3.63-5.36-7.77c-5.21-4.61-13.23-9.19-22-12.51S47.2,46,40.25,46Z"/><path class="b" d="M31.08,48.35,92.35,71.62A32.79,32.79,0,0,0,31.08,48.35Z"/></svg>