<svg id="Layer_1" data-name="Layer 1" xmlns="http://www.w3.org/2000/svg" viewBox="0 0 122.87 122.88"><title>saturday</title><path d="M81.6,4.73C81.6,2.12,84.18,0,87.37,0s5.77,2.12,5.77,4.73V25.45c0,2.61-2.58,4.73-5.77,4.73s-5.77-2.12-5.77-4.73V4.73ZM24.93,96l1.24-7.3a30.39,30.39,0,0,0,7.32,1,40.73,40.73,0,0,0,5.24-.27V87.25l-4-.35q-5.4-.5-7.41-2.59t-2-6.21c0-3.78.82-6.37,2.45-7.79s4.42-2.12,8.34-2.12a47.13,47.13,0,0,1,10.61,1.1l-1.1,7.08A43.87,43.87,0,0,0,39,75.71a33.29,33.29,0,0,0-4.2.22V78.1l3.18.3q5.79.59,8,2.77a8.16,8.16,0,0,1,2.22,6.08A12.77,12.77,0,0,1,47.48,92a8.07,8.07,0,0,1-1.79,2.92,6.79,6.79,0,0,1-2.94,1.52,17.83,17.83,0,0,1-3.34.65c-1,.07-2.23.11-3.82.11A47,47,0,0,1,24.93,96Zm33.87.48H49.47l7.17-27.64H70.3l7.17,27.64H68.14l-1-4.37h-7.3l-1,4.37Zm4.43-19.15-1.82,7.74h4.07l-1.77-7.74Zm34.71-1.41H91.53V96.49H82.69V75.93H76.27V68.85H97.94v7.08ZM29.61,4.73C29.61,2.12,32.19,0,35.38,0s5.77,2.12,5.77,4.73V25.45c0,2.61-2.58,4.73-5.77,4.73s-5.77-2.12-5.77-4.73V4.73ZM6.4,38.76H116.46V21.47a3,3,0,0,0-.86-2.07,2.92,2.92,0,0,0-2.07-.86H103a3.2,3.2,0,1,1,0-6.4h10.55a9.36,9.36,0,0,1,9.33,9.33v92.08a9.36,9.36,0,0,1-9.33,9.33H9.33A9.36,9.36,0,0,1,0,113.54V21.47a9.36,9.36,0,0,1,9.33-9.33H20.6a3.2,3.2,0,1,1,0,6.4H9.33a3,3,0,0,0-2.07.86,2.92,2.92,0,0,0-.86,2.07V38.76Zm110.07,6.41H6.4v68.37a3,3,0,0,0,.86,2.07,2.92,2.92,0,0,0,2.07.86H113.54a3,3,0,0,0,2.07-.86,2.92,2.92,0,0,0,.86-2.07V45.17Zm-66-26.63a3.2,3.2,0,0,1,0-6.4H71.91a3.2,3.2,0,1,1,0,6.4Z"/></svg>