<svg id="Layer_1" data-name="Layer 1" xmlns="http://www.w3.org/2000/svg" viewBox="0 0 115.31 122.88"><defs><style>.cls-1{fill:#262626;}.cls-1,.cls-2{fill-rule:evenodd;}.cls-2{fill:#4ba042;}</style></defs><title>school-admission-approve</title><path class="cls-1" d="M92.46,68.79h11.11V90.18a20.6,20.6,0,0,1,8.52,26.16h3.22V52.49H85.75v-23H56.28V4.13h-.11A2.22,2.22,0,0,0,55,0h0a2.19,2.19,0,0,0-2.2,2.22,2.22,2.22,0,0,0,1.09,1.91h-.11V29.48H29.6v23H0v63.89H20c0-.15,0-.31,0-.46a6.61,6.61,0,0,1,.24-1.79c2.95-13.5,10.46-15.2,17.88-16.86l.41-.1-.2-.55-.2-.17a11.56,11.56,0,0,1-2.79-3.65l-.23-.51a15.84,15.84,0,0,1-.81-2.15,16.13,16.13,0,0,1-.58-2.79l0-.26a13,13,0,0,1,0-3.06A10,10,0,0,1,35,80.2v0l.14-.22-.24-1.56c-1.3-9.09,3.69-15.47,11-18.89A29,29,0,0,1,58,56.89,27,27,0,0,1,70.1,59.57C77,63,81.67,69.49,80.28,79.16l0,.2-.1.65.32.52a9.73,9.73,0,0,1,1.12,3.4l0,.37a13.28,13.28,0,0,1,0,2.6,17.17,17.17,0,0,1-.37,2.37,18,18,0,0,1-.72,2.25,19.93,19.93,0,0,1,11.91-4.09V68.79ZM73.55,78.21c-.12.86-.27,1.74-.39,2.59L73.35,83a1.62,1.62,0,0,1,1.19.88,4.4,4.4,0,0,1,.34,2.46,10.55,10.55,0,0,1-.67,2.81c-.61,1.58-1.6,2.88-2.76,3.07-.12.38-.24.78-.35,1.16a13.78,13.78,0,0,1-2.28,5.12A12.89,12.89,0,0,1,67,100.33c1.72,1.69,4,2.4,6.38,2.94a21.76,21.76,0,0,0-.52,4.73,22.17,22.17,0,0,0,1.58,8.19l.08.19H27.24a.46.46,0,0,1-.45-.55C30,100.61,41.93,106.6,48.37,100A12.29,12.29,0,0,1,47,98.62a16.37,16.37,0,0,1-2.91-6c-.09-.26-.18-.53-.26-.78-1,0-1.88-.92-2.49-2.12a9.69,9.69,0,0,1-.92-3.16,4.78,4.78,0,0,1,.39-2.87,1.62,1.62,0,0,1,1.21-.83L42.24,81c-.19-1.16-.41-2.37-.57-3.53-2.52-17.59,34.78-19.37,31.88.77ZM62.78,88.89a1.5,1.5,0,0,0,0,.22,1,1,0,1,0,2.09,0,1,1,0,0,0-.07-.39,7,7,0,0,1,1.65.33.47.47,0,0,0,.6-.38.57.57,0,0,0-.34-.69A7.46,7.46,0,0,0,62,88a.57.57,0,0,0-.34.68.48.48,0,0,0,.61.38l.55-.16Zm8.33-1.61a.44.44,0,0,1,.77-.44,1.7,1.7,0,0,1,0,1.93.45.45,0,0,1-.61.12.44.44,0,0,1-.12-.61.89.89,0,0,0,0-1Zm-27.24-.6a.44.44,0,0,1,.16.6.87.87,0,0,0,0,1,.43.43,0,0,1-.12.61.45.45,0,0,1-.61-.12,1.7,1.7,0,0,1,0-1.93.45.45,0,0,1,.61-.16ZM56,94a.56.56,0,0,1,.75-.82,1.3,1.3,0,0,0,.84.4,1.41,1.41,0,0,0,.86-.41.55.55,0,1,1,.72.84,2.38,2.38,0,0,1-1.57.67A2.3,2.3,0,0,1,56,94ZM53.63,97.7a.66.66,0,0,1-.11-.93.67.67,0,0,1,.94-.11,5.33,5.33,0,0,0,3.27,1.4,4.22,4.22,0,0,0,2.86-1.35.66.66,0,1,1,.92,1,5.42,5.42,0,0,1-3.78,1.73,6.65,6.65,0,0,1-4.1-1.69ZM48.22,86.3a.55.55,0,1,1-.7-.86c1.19-1,3.11-.64,4.75-.35a9.86,9.86,0,0,0,1.77.23.56.56,0,1,1,0,1.11,10.25,10.25,0,0,1-2-.25c-1.4-.25-3-.54-3.85.12Zm19.51-1a.55.55,0,0,1,.07.78.54.54,0,0,1-.78.07c-.8-.66-2.44-.36-3.85-.11a10,10,0,0,1-2,.24.56.56,0,0,1,0-1.11A9.71,9.71,0,0,0,63,85c1.65-.29,3.56-.64,4.76.35ZM48.84,89.16a.47.47,0,0,1-.62-.35.57.57,0,0,1,.3-.71,6.33,6.33,0,0,1,2.39-.45,7.37,7.37,0,0,1,2.38.45.57.57,0,0,1,.32.7.48.48,0,0,1-.61.36c-.18-.07-.36-.12-.53-.17a1.64,1.64,0,0,1,0,.23,1,1,0,1,1-2-.44,5.19,5.19,0,0,0-1.65.38Zm16.79,12.2a13.7,13.7,0,0,1-1.52.89,8.55,8.55,0,0,1-4.17,1.38,12.16,12.16,0,0,1-2.22.16l-.57,0a10.84,10.84,0,0,1-7.6-2.62c-2.28,2.35-3.12,2.44-6.08,3.8,3,8.58,22.8,11.43,27.58-.38-2.9-1.19-3.32-1.13-5.42-3.21ZM70.52,85l-.71-4.86a23.79,23.79,0,0,1-12.2,3.37,22.67,22.67,0,0,1-12.23-3.39l-.78,4.71L43.15,84c-.36-.2-1.13,0-1.18.38a3.62,3.62,0,0,0-.21,2,8.57,8.57,0,0,0,.79,2.71c.45.89,1,1.52,1.58,1.36h0a.65.65,0,0,1,.8.43c.19.53.32.92.44,1.29A15.65,15.65,0,0,0,48,97.76a13.57,13.57,0,0,0,4.4,3.34,13.24,13.24,0,0,0,5.31,1.37,12.55,12.55,0,0,0,5.54-1.29,12.81,12.81,0,0,0,4.5-3.55,13,13,0,0,0,2-4.67c.14-.47.29-1,.49-1.59a.66.66,0,0,1,.76-.51c.68.12,1.39-.94,1.9-2.24a9.14,9.14,0,0,0,.59-2.44,3.27,3.27,0,0,0-.18-1.7c-.21-.77-.77-.63-1.2-.5l-1.66,1ZM57.91,4.43c11.65-8.06,12.53,7.88,24-2.06V18.61c-10.91,9.81-13.27-6-24,2V4.43ZM55.79,40a1.42,1.42,0,0,1,2.84,0v4.41h3a1.42,1.42,0,0,1,0,2.84H57.21a1.43,1.43,0,0,1-1.42-1.42V40Zm1.86-4.89A9.68,9.68,0,1,1,48,44.82a9.69,9.69,0,0,1,9.68-9.68ZM13,68.79H24.07v30.9H13V68.79Z"/><path class="cls-2" d="M93.26,93.13a14.88,14.88,0,0,1,0,29.75c-19.57,0-19.57-29.75,0-29.75ZM86.67,108.4a1.72,1.72,0,0,1,2.57-1.18l.27.2h0c.46.45,1,.92,1.5,1.37l.45.4,5.29-5.55a1.88,1.88,0,0,1,1-.65,1.72,1.72,0,0,1,1.62,2.84l-6.59,6.93a1.72,1.72,0,0,1-2.4.08l-1.22-1.08a27.76,27.76,0,0,1-2.07-1.92,1.71,1.71,0,0,1-.45-1.45Z"/></svg>