<svg id="Layer_1" data-name="Layer 1" xmlns="http://www.w3.org/2000/svg" viewBox="0 0 121.75 122.88"><defs><style>.cls-1{fill-rule:evenodd;}</style></defs><title>school-admission</title><path class="cls-1" d="M97.62,72.63h11.73v32.62H97.62V72.63Zm-20,9.94c-.13.91-.28,1.85-.42,2.75l.21,2.26a1.71,1.71,0,0,1,1.25.93,4.66,4.66,0,0,1,.37,2.6,11.2,11.2,0,0,1-.71,3c-.65,1.67-1.7,3.05-2.92,3.25-.13.4-.25.82-.37,1.22a14.61,14.61,0,0,1-2.4,5.41,13.84,13.84,0,0,1-1.92,2c6.23,6.1,18.89.12,22.7,16.32a.5.5,0,0,1-.47.63H28.76a.49.49,0,0,1-.47-.59c3.38-16.06,16-9.74,22.78-16.73a14.75,14.75,0,0,1-1.42-1.43c-1.57-1.84-2.22-3.79-3.07-6.31-.09-.28-.19-.57-.28-.83-1.08,0-2-1-2.62-2.24a10.33,10.33,0,0,1-1-3.33,5.11,5.11,0,0,1,.42-3,1.74,1.74,0,0,1,1.28-.89l.2-2c-.21-1.23-.44-2.51-.61-3.74-2.65-18.56,36.73-20.45,33.67.81ZM66.29,93.86a.78.78,0,0,0,0,.22,1.11,1.11,0,0,0,2.22,0,1.06,1.06,0,0,0-.08-.4,6.89,6.89,0,0,1,1.74.35.51.51,0,0,0,.64-.41.62.62,0,0,0-.36-.73,7.92,7.92,0,0,0-5,0,.6.6,0,0,0-.35.73.49.49,0,0,0,.63.39c.2-.06.4-.12.59-.16Zm8.79-1.71a.47.47,0,0,1,.81-.46,1.77,1.77,0,0,1,0,2,.46.46,0,0,1-.77-.52,1,1,0,0,0,0-1.06Zm-28.76-.63a.46.46,0,0,1,.17.63.93.93,0,0,0,0,1.06.46.46,0,0,1-.77.52,1.79,1.79,0,0,1,0-2,.47.47,0,0,1,.64-.17Zm12.81,7.71a.59.59,0,0,1,0-.83.6.6,0,0,1,.83,0,1.34,1.34,0,0,0,.88.42,1.38,1.38,0,0,0,.91-.43.6.6,0,0,1,.83.06.59.59,0,0,1-.07.83,2.53,2.53,0,0,1-1.66.71,2.42,2.42,0,0,1-1.68-.72Zm-2.51,3.93a.7.7,0,1,1,.88-1.1A5.59,5.59,0,0,0,61,103.53a4.34,4.34,0,0,0,3-1.42.7.7,0,1,1,1,1,5.71,5.71,0,0,1-4,1.83,7,7,0,0,1-4.34-1.78Zm-5.7-12a.6.6,0,0,1-.83-.08.58.58,0,0,1,.08-.82c1.27-1,3.29-.68,5-.37a10,10,0,0,0,1.87.23.59.59,0,0,1,.61.57.58.58,0,0,1-.57.6A10.49,10.49,0,0,1,55,91c-1.49-.27-3.22-.58-4.06.12Zm20.59-1a.58.58,0,0,1-.74.9c-.85-.7-2.59-.39-4.07-.12a10.5,10.5,0,0,1-2.13.25A.59.59,0,0,1,64.62,90a10.1,10.1,0,0,0,1.87-.23c1.74-.31,3.76-.68,5,.37Zm-20,4a.5.5,0,0,1-.65-.36.62.62,0,0,1,.32-.75,6.66,6.66,0,0,1,2.53-.47,7.42,7.42,0,0,1,2.51.47.62.62,0,0,1,.34.74.51.51,0,0,1-.65.38L55.4,94a1.94,1.94,0,0,1,0,.24,1.11,1.11,0,1,1-2.21,0,1.19,1.19,0,0,1,.1-.46,5.88,5.88,0,0,0-1.75.39ZM69.3,107a15.34,15.34,0,0,1-1.61.94,8.92,8.92,0,0,1-4.4,1.45,12,12,0,0,1-2.35.18l-.59,0a11.37,11.37,0,0,1-8-2.76c-2.41,2.48-3.3,2.57-6.42,4,3.15,9.06,24.07,12.07,29.11-.4-3.05-1.26-3.5-1.19-5.71-3.39Zm5.16-17.26-.75-5.13a25.1,25.1,0,0,1-12.88,3.55,23.93,23.93,0,0,1-12.91-3.57l-.83,5-1.53-.86c-.39-.21-1.19,0-1.24.41a3.69,3.69,0,0,0-.22,2.14,8.67,8.67,0,0,0,.83,2.86c.48.94,1.08,1.6,1.66,1.43h0a.7.7,0,0,1,.85.45c.2.57.34,1,.47,1.37a16.28,16.28,0,0,0,2.8,5.84,14.46,14.46,0,0,0,4.65,3.53A14.09,14.09,0,0,0,61,108.19a13.18,13.18,0,0,0,5.85-1.36,13.47,13.47,0,0,0,4.74-3.75,13.73,13.73,0,0,0,2.16-4.92c.15-.51.3-1,.51-1.69a.71.71,0,0,1,.81-.54c.71.13,1.47-1,2-2.36A10.2,10.2,0,0,0,77.67,91a3.37,3.37,0,0,0-.2-1.79c-.21-.82-.8-.66-1.26-.53l-1.75,1.09ZM61.15,4.67C73.44-3.83,74.37,13,86.44,2.5V19.65c-11.52,10.36-14-6.37-25.29,2.13V4.67ZM58.12,0a2.35,2.35,0,0,1,1.19,4.37h.11V31.12H90.54V55.43h31.21v67.41h-21.1c0-.15,0-.3,0-.45a6.6,6.6,0,0,0-.14-1.38l-.08-.39C97,106.19,89,104.13,81.35,102.53l.17-.54a11.36,11.36,0,0,0,.85-.85A14.48,14.48,0,0,0,85,96.68v0a19.29,19.29,0,0,0,.77-2.4,19,19,0,0,0,.39-2.51,13.93,13.93,0,0,0,0-2.74l0-.39A10.34,10.34,0,0,0,85,85l-.33-.55.1-.69,0-.21c1.47-10.21-3.41-17-10.74-20.69a28.74,28.74,0,0,0-12.83-2.82,30.6,30.6,0,0,0-12.72,2.76c-7.68,3.61-12.95,10.35-11.58,19.94l.25,1.66-.14.22v0a10.51,10.51,0,0,0-1.4,4A13.94,13.94,0,0,0,35.55,92l0,.27a17.16,17.16,0,0,0,.62,2.94A16.35,16.35,0,0,0,37,97.45l.25.53a12.21,12.21,0,0,0,2.95,3.85l.21.18.22.58-.44.11c-7.84,1.75-15.77,3.55-18.88,17.8a7,7,0,0,0-.25,1.89c0,.17,0,.33,0,.49H0V55.43H31.25V31.13H56.82V4.37h.12a2.36,2.36,0,0,1-1.15-2A2.31,2.31,0,0,1,58.12,0Zm.78,42.27a1.5,1.5,0,1,1,3,0v4.65h3.16a1.5,1.5,0,0,1,0,3H60.4a1.5,1.5,0,0,1-1.5-1.5V42.27Zm2-5.16A10.22,10.22,0,1,1,50.65,47.33,10.22,10.22,0,0,1,60.87,37.11ZM13.69,72.63H25.41v32.62H13.69V72.63Z"/></svg>