<?xml version="1.0" encoding="utf-8"?><svg version="1.1" id="Layer_1" xmlns="http://www.w3.org/2000/svg" xmlns:xlink="http://www.w3.org/1999/xlink" x="0px" y="0px" viewBox="0 0 122.88 100.96" style="enable-background:new 0 0 122.88 100.96" xml:space="preserve"><style type="text/css">.st0{fill-rule:evenodd;clip-rule:evenodd;}</style><g><path class="st0" d="M13.06,23.04c4.44-24.3,34.58-31.13,46.69-12c12.88-17.55,42.69-12.81,45.79,10.21 c21.57,8.96,23.51,37.38,3,47.33L78.71,93.85L76.5,96c-0.98,1.02-2,1.87-3.07,2.56c-1.08,0.7-2.22,1.23-3.39,1.61 c-1.75,0.56-5.35,0.8-9.03,0.79c-4.13,0-8.48-0.3-10.45-0.76c-1.13-0.27-2.23-0.63-3.29-1.12c-1.06-0.49-2.09-1.13-3.08-1.94 c-0.05-0.04-0.1-0.09-0.15-0.13l0,0l-9.08-8.89l-0.13-0.13l-24.27-21l0,0C-4.35,54.48-3.43,33.55,13.06,23.04L13.06,23.04z M33.21,51.42l-5.72-0.12v21.25c1.7,8.17,3.8,8.86,9.04,13.99l9.08,8.89c1.64,1.35,3.49,2.15,5.45,2.61 c3.45,0.81,15.05,1.07,18.29,0.02c1.97-0.63,3.83-1.81,5.55-3.61l6.6-6.41c6.37-6.18,10.7-8.85,10.24-19.09V51.31l-4.61,0.1 c0.13,0.67,0.2,1.36,0.2,2.05c0,3.3-1.34,6.28-3.5,8.44c-2.16,2.16-5.15,3.5-8.44,3.5c-3.3,0-6.28-1.34-8.44-3.5 c-2.16-2.16-3.5-5.15-3.5-8.44c0-0.19,0-0.38,0.01-0.56c-0.03-0.03-0.05-0.05-0.08-0.08l0,0c-2.01-2.35-4.27-2.44-6.36,0 c-0.02,0.03-0.05,0.06-0.08,0.08c0.01,0.19,0.01,0.37,0.01,0.56c0,3.3-1.34,6.28-3.5,8.44c-2.16,2.16-5.15,3.5-8.44,3.5 s-6.28-1.34-8.44-3.5c-2.16-2.16-3.5-5.15-3.5-8.44c-0.01-0.74,0.05-1.47,0.18-2.18L33.21,51.42L33.21,51.42z M27.49,48.73 l6.52,0.12c1.83-4.28,6.18-7.4,11.01-7.33c3.3,0,6.28,1.34,8.44,3.5c1.33,1.33,2.35,2.98,2.94,4.82c2.22-1.74,5.39-1.74,7.6,0 c0.58-1.84,1.6-3.49,2.94-4.82c2.16-2.16,5.15-3.5,8.44-3.5c4.74,0,9.04,3.11,10.93,7.32l5.43-0.1V36.69 C89.85,23.9,80.8,18.27,68.46,15.93c-7.28-1.38-14.36-1.53-21.5,0.66c-10.23,3.14-16.91,9.71-19.48,20.23V48.73L27.49,48.73z M45.11,43.71c5.35,0,9.68,4.34,9.68,9.68c0,5.35-4.34,9.68-9.68,9.68c-5.35,0-9.68-4.34-9.68-9.68 C35.43,48.04,39.76,43.71,45.11,43.71L45.11,43.71z M75.38,63.13c-5.34,0-9.66-4.33-9.66-9.66c0-10.46,14.34-13.33,18.51-3.9 C86.81,55.58,82.75,63.13,75.38,63.13L75.38,63.13L75.38,63.13z M51.17,76.86c-1.43-0.31-2.82-0.7-4.17-1.16 c-1.34-0.46-2.65-0.98-3.94-1.58c-0.62-0.29-0.87-0.98-0.56-1.55c0.19-0.34,0.53-0.56,0.91-0.62l0,0c0.65-0.1,1.22-0.18,1.75-0.25 c1.67-0.23,2.95-0.41,4.5-1.03c0.44-0.17,0.86-0.37,1.29-0.57c2.47-1.14,5.17-2.39,7.87-0.25c0.23,0.19,0.45,0.38,0.64,0.58 c0.19-0.2,0.4-0.4,0.64-0.58c2.7-2.14,5.4-0.89,7.87,0.25c0.43,0.2,0.85,0.4,1.29,0.57c1.56,0.62,2.84,0.8,4.5,1.03 c0.53,0.07,1.1,0.15,1.75,0.25l0,0c0.38,0.06,0.72,0.28,0.91,0.62c0.31,0.57,0.06,1.26-0.56,1.55c-1.28,0.59-2.59,1.12-3.94,1.58 c-1.35,0.46-2.74,0.85-4.17,1.16v0c-1.47,0.41-2.83,0.65-4.03,0.68c-1.37,0.03-2.55-0.23-3.49-0.85c-0.29-0.19-0.54-0.4-0.77-0.61 c-0.23,0.22-0.48,0.42-0.77,0.61c-0.94,0.63-2.12,0.88-3.49,0.85C53.99,77.51,52.64,77.27,51.17,76.86L51.17,76.86L51.17,76.86z M68.53,33.68c-0.64-0.3-0.91-1.07-0.61-1.71c0.31-0.64,1.07-0.91,1.71-0.61l11.51,5.49c0.64,0.3,0.91,1.07,0.61,1.71 c-0.31,0.64-1.07,0.91-1.71,0.61L68.53,33.68L68.53,33.68z M50.08,31.36c0.64-0.3,1.41-0.03,1.71,0.61s0.03,1.41-0.61,1.71 l-11.51,5.49c-0.64,0.3-1.41,0.03-1.71-0.61s-0.03-1.41,0.61-1.71L50.08,31.36L50.08,31.36z M56.2,65.19 c-0.54-0.45-0.62-1.26-0.16-1.81c0.45-0.54,1.26-0.62,1.81-0.16c0.64,0.54,1.25,0.82,1.84,0.83c0.59,0.01,1.24-0.26,1.93-0.83 c0.55-0.45,1.35-0.37,1.8,0.18c0.45,0.55,0.37,1.35-0.18,1.8c-1.18,0.97-2.38,1.43-3.59,1.42C58.45,66.59,57.3,66.1,56.2,65.19 L56.2,65.19z M52.31,81.86c-0.52-0.28-0.72-0.93-0.44-1.45c0.28-0.52,0.93-0.72,1.45-0.44c2.12,1.12,4.21,1.7,6.26,1.7 c2.06,0,4.12-0.55,6.17-1.69c0.52-0.28,1.17-0.09,1.45,0.42c0.28,0.52,0.09,1.17-0.42,1.45c-2.37,1.31-4.78,1.96-7.2,1.95 C57.15,83.8,54.72,83.15,52.31,81.86L52.31,81.86z M93.67,66.08V53.19c0.55-2.34,1.58-3.54,2.74-3.76 C100.4,48.65,99.81,65.18,93.67,66.08L93.67,66.08z M25.49,66.08V53.19c-0.55-2.34-1.58-3.55-2.74-3.76 C18.73,48.68,19.38,65.18,25.49,66.08L25.49,66.08z"/></g></svg>