<svg xmlns="http://www.w3.org/2000/svg" viewBox="0 0 115.26 122.88"><defs><style>.a{fill-rule:evenodd;}</style></defs><title>sdk</title><path class="a" d="M25.37,57H90.24V37.34H69.57A10.83,10.83,0,0,1,63,34.74a9.35,9.35,0,0,1-2.29-6.17V7.64H8.14a.58.58,0,0,0-.41.18.44.44,0,0,0-.19.42V114.68a.67.67,0,0,0,.18.41.49.49,0,0,0,.41.18h81.5c.18,0,.17-.09.27-.18s.33-.28.33-.41V103.52H25.37A7.59,7.59,0,0,1,17.81,96V64.54A7.58,7.58,0,0,1,25.37,57Zm4.37,27.32,6.74-.44a5.55,5.55,0,0,0,.9,2.61A3.68,3.68,0,0,0,40.51,88a3.36,3.36,0,0,0,2.34-.75,2.21,2.21,0,0,0,0-3.41,8.88,8.88,0,0,0-3.63-1.39c-3.11-.73-5.33-1.71-6.66-2.92a6,6,0,0,1-2-4.65,6.52,6.52,0,0,1,1-3.49,6.89,6.89,0,0,1,3.09-2.6,13.85,13.85,0,0,1,5.65-.94q4.41,0,6.72,1.72A7.51,7.51,0,0,1,49.84,75l-6.68.41A3.86,3.86,0,0,0,42,73a3.46,3.46,0,0,0-2.36-.75,2.77,2.77,0,0,0-1.86.55,1.73,1.73,0,0,0-.63,1.34,1.37,1.37,0,0,0,.51,1,5.56,5.56,0,0,0,2.37.89,28.52,28.52,0,0,1,6.66,2.13,7.1,7.1,0,0,1,2.93,2.67,7,7,0,0,1,.92,3.56,7.94,7.94,0,0,1-1.22,4.27,7.75,7.75,0,0,1-3.42,3,13.27,13.27,0,0,1-5.53,1c-3.91,0-6.61-.79-8.12-2.37a9.52,9.52,0,0,1-2.55-6ZM54.24,68.2H64.8a12.19,12.19,0,0,1,5,.89A8.37,8.37,0,0,1,73,71.63a10.81,10.81,0,0,1,1.82,3.87,18.48,18.48,0,0,1,.57,4.66,16.92,16.92,0,0,1-.84,6,10,10,0,0,1-2.33,3.56A7.58,7.58,0,0,1,69,91.63a15.74,15.74,0,0,1-4.24.66H54.24V68.2Zm7.1,5.45V86.8h1.75a7.15,7.15,0,0,0,3.17-.51,3.51,3.51,0,0,0,1.48-1.81,11.69,11.69,0,0,0,.54-4.18c0-2.55-.4-4.29-1.2-5.24a4.93,4.93,0,0,0-4-1.41ZM79.16,68.2h7.09v9.1l7.45-9.1h9.44l-8.39,9,8.78,15H94.79L89.94,82.4l-3.69,4v5.87H79.16V68.2ZM97.77,57h9.93a7.58,7.58,0,0,1,7.56,7.55V96a7.59,7.59,0,0,1-7.56,7.56H97.77v13.55a5.8,5.8,0,0,1-5.8,5.8H5.8a5.8,5.8,0,0,1-5.8-5.8V5.85A5.8,5.8,0,0,1,5.8.05H64.51a1.15,1.15,0,0,1,.41,0,2.77,2.77,0,0,1,1.76.69h.08A.9.9,0,0,1,67,.87L97,31.23a2.83,2.83,0,0,1,.88,2,3.76,3.76,0,0,1-.09.65V57ZM67.5,28v-19l21.43,21.7H70.17a2.81,2.81,0,0,1-1.89-.78A2.72,2.72,0,0,1,67.5,28Z"/></svg>