<svg id="Layer_1" data-name="Layer 1" xmlns="http://www.w3.org/2000/svg" viewBox="0 0 122.88 121.83"><defs><style>.cls-1,.cls-2{fill-rule:evenodd;}.cls-2{fill:red;}.cls-3{fill:#fff;}</style></defs><title>sdk</title><path class="cls-1" d="M102.42,37H81.92a8.52,8.52,0,0,1-8.85-8.7V7.53H21a.58.58,0,0,0-.41.18.45.45,0,0,0-.18.42V113.71a.7.7,0,0,0,.18.41.51.51,0,0,0,.41.18h80.84c.18,0,.17-.09.26-.18s.34-.28.34-.41V37Zm7.47,79.08a5.77,5.77,0,0,1-5.76,5.76H18.66a5.77,5.77,0,0,1-5.76-5.76V5.76a5.7,5.7,0,0,1,1.69-4.07A5.77,5.77,0,0,1,18.66,0H76.9a4.22,4.22,0,0,1,2.46.82l29.75,30.12a2.57,2.57,0,0,1,.78,2.6v82.53ZM80,27.69,79.57,9.63,100.66,31l-18.14-.81A2.4,2.4,0,0,1,80,27.69Z"/><path class="cls-2" d="M6.71,46.28H116.17A6.73,6.73,0,0,1,122.88,53v45.1a6.73,6.73,0,0,1-6.71,6.71H6.71A6.73,6.73,0,0,1,0,98.09V53a6.73,6.73,0,0,1,6.71-6.71Z"/><path class="cls-3" d="M11.58,80.88l9.25-.58a7,7,0,0,0,1.22,3.41,5.18,5.18,0,0,0,4.3,1.91,4.75,4.75,0,0,0,3.21-1,2.92,2.92,0,0,0,1.13-2.27,2.88,2.88,0,0,0-1.06-2.19c-.71-.65-2.37-1.25-5-1.83q-6.41-1.44-9.13-3.83a7.67,7.67,0,0,1-2.75-6.07,8.22,8.22,0,0,1,1.41-4.58,9.27,9.27,0,0,1,4.23-3.4,19.89,19.89,0,0,1,7.75-1.23q6,0,9.21,2.25c2.12,1.5,3.37,3.88,3.78,7.16L30,69.2a5,5,0,0,0-1.54-3.12,4.9,4.9,0,0,0-3.23-1,4,4,0,0,0-2.56.72,2.2,2.2,0,0,0-.86,1.76,1.78,1.78,0,0,0,.69,1.35,7.84,7.84,0,0,0,3.26,1.16,40.07,40.07,0,0,1,9.13,2.79,9.51,9.51,0,0,1,4,3.49A8.84,8.84,0,0,1,40.16,81a10,10,0,0,1-1.68,5.59,10.49,10.49,0,0,1-4.68,3.88,18.94,18.94,0,0,1-7.58,1.32q-8,0-11.14-3.1a12.18,12.18,0,0,1-3.5-7.85Zm32.87-21.1H58.93a17.38,17.38,0,0,1,6.91,1.16,11.19,11.19,0,0,1,4.36,3.33,13.66,13.66,0,0,1,2.49,5,23.36,23.36,0,0,1,.78,6.11,20.93,20.93,0,0,1-1.16,7.84,12.77,12.77,0,0,1-3.19,4.66,10.27,10.27,0,0,1-4.39,2.51,22.26,22.26,0,0,1-5.8.86H44.45V59.78Zm9.73,7.13V84.13h2.39a10.13,10.13,0,0,0,4.36-.68,4.62,4.62,0,0,0,2-2.36,14.84,14.84,0,0,0,.73-5.48q0-5-1.63-6.85t-5.44-1.85Zm23.7-7.13h9.73V71.69L97.82,59.78h13L99.26,71.62l12,19.68h-12L92.66,78.36l-5,5.27V91.3H77.88V59.78Z"/></svg>