<?xml version="1.0" encoding="utf-8"?><svg version="1.1" id="Layer_1" xmlns="http://www.w3.org/2000/svg" xmlns:xlink="http://www.w3.org/1999/xlink" x="0px" y="0px" width="122.88px" height="120.992px" viewBox="0 0 122.88 120.992" enable-background="new 0 0 122.88 120.992" xml:space="preserve"><g><path d="M91.922,65.124c6.726,0,12.823,2.735,17.241,7.136c4.417,4.417,7.135,10.497,7.135,17.239c0,4.919-1.466,9.515-3.97,13.342 l10.552,11.499l-7.278,6.652l-10.177-11.194c-3.863,2.574-8.513,4.077-13.503,4.077c-6.724,0-12.821-2.736-17.239-7.136 c-4.417-4.417-7.136-10.498-7.136-17.24c0-6.724,2.736-12.822,7.136-17.239C79.101,67.842,85.18,65.124,91.922,65.124 L91.922,65.124z M71.265,66.129c-1.17-1.461-2.399-2.88-3.684-4.271c2.022,0.782,4.055,1.562,6.063,2.352 C72.819,64.812,72.025,65.452,71.265,66.129L71.265,66.129z M61.655,97.172H0c0.623-6.725,1.754-13.377,4.301-18.154 c1.563-2.932,3.561-4.756,7.424-7.18c6.073-3.808,14.261-6.875,22.291-9.979c-4.261,4.615-7.92,9.527-10.805,15.319l8.358-0.205 l19.23,16.722l10.307-8.963c-0.246,1.583-0.375,3.207-0.375,4.859C60.731,92.205,61.053,94.744,61.655,97.172L61.655,97.172z M24.917,52.782l5.112-0.134l4.241-0.111c-4.954-15.24-3.292-29.244,8.624-41.149c2.023,6.537,6.555,11.933,14.266,15.92 c3.69,2.74,7.253,6.049,10.708,9.844c0.611-2.516-1.723-5.58-4.554-8.737c2.619,1.296,5.026,3.102,6.733,6.59 c1.976,4.042,1.954,7.448,1.301,11.836c-0.306,2.041-0.803,3.942-1.511,5.695h7.051c7.436-15.927,2.723-39.566-12.493-49.583 c-4.666-3.074-8.024-2.958-13.498-2.953c-6.269,0.005-9.472,0.201-14.841,3.75C28.138,8.99,23.273,18.05,21.225,30.631 c-0.419,6.261-0.696,17.104,3.69,22.151H24.917L24.917,52.782z M44.324,81.754l3.81-13.219l-1.868-2.043 c-0.843-1.228-1.025-2.302-0.558-3.227c1.01-2.001,3.104-1.628,5.058-1.628c2.05,0,4.578-0.39,5.22,2.176 c0.213,0.856-0.057,1.756-0.657,2.679l-1.867,2.043l3.808,13.219l-6.471,5.115L44.324,81.754L44.324,81.754L44.324,81.754z M104.003,77.418c-3.091-3.09-7.366-5.01-12.081-5.01c-4.713,0-8.989,1.92-12.08,5.01c-3.09,3.091-5.01,7.368-5.01,12.081 c0,4.714,1.92,8.989,5.01,12.081c3.091,3.091,7.367,5.01,12.081,5.01s8.989-1.919,12.08-5.01c3.091-3.092,5.01-7.367,5.01-12.081 C109.013,84.786,107.094,80.509,104.003,77.418L104.003,77.418L104.003,77.418z"/></g></svg>