<svg id="Layer_1" data-name="Layer 1" xmlns="http://www.w3.org/2000/svg" viewBox="0 0 111.87 122.88"><defs><style>.cls-1{fill-rule:evenodd;}</style></defs><title>search-file</title><path class="cls-1" d="M56.75,113.57V75.07a9.34,9.34,0,0,1,9.31-9.3h36.5a9.34,9.34,0,0,1,9.31,9.3v38.5a9.34,9.34,0,0,1-9.31,9.31H66.06a9.34,9.34,0,0,1-9.31-9.31Zm2.74-102.1L79.08,29.82H59.49V11.47ZM20.72,69.38a2.12,2.12,0,0,0-2,2.21,2.08,2.08,0,0,0,2,2.21H45.3V69.38Zm0,15.83a2.12,2.12,0,0,0-2,2.21,2.08,2.08,0,0,0,2,2.21H45.3V85.21Zm0-47.5a2.12,2.12,0,0,0-2,2.21,2.09,2.09,0,0,0,2,2.21H43.45a2.13,2.13,0,0,0,2-2.2,2.1,2.1,0,0,0-2-2.22Zm0-15.83a2.12,2.12,0,0,0-2,2.21,2.08,2.08,0,0,0,2,2.21h12.5a2.12,2.12,0,0,0,2-2.21,2.1,2.1,0,0,0-2-2.21Zm0,31.67a2.12,2.12,0,0,0-2,2.21,2.1,2.1,0,0,0,2,2.21H59.16a2.13,2.13,0,0,0,2-2.21,2.09,2.09,0,0,0-2-2.21ZM90,32.45a3.26,3.26,0,0,0-2.37-3.14L58.74,1.2A3.21,3.21,0,0,0,56.23,0H5.87A5.86,5.86,0,0,0,0,5.86V106.25a5.84,5.84,0,0,0,1.72,4.15,5.91,5.91,0,0,0,4.15,1.71H45.39v-6.55H6.55v-99H52.94V33.08a3.29,3.29,0,0,0,3.29,3.29h27.2V57.82H90V32.45Zm-7.5,45.29a14.6,14.6,0,0,1,14.6,14.61,14.8,14.8,0,0,1-.6,4.17,14.57,14.57,0,0,1-1.35,3.11l5.33,5.8a1.07,1.07,0,0,1-.06,1.49l-4.05,3.7a1.06,1.06,0,0,1-1.49-.07L89.79,105a14.09,14.09,0,0,1-3.08,1.34h0a14.6,14.6,0,0,1-18.79-14,14.59,14.59,0,0,1,14.6-14.61Zm6.45,8.16a9.19,9.19,0,0,0-3-2l0,0a9.13,9.13,0,0,0-12.56,8.46A9.26,9.26,0,0,0,74,95.83a9.13,9.13,0,0,0,16.88-7l0,0a9.19,9.19,0,0,0-2-2.91Z"/></svg>