<svg id="Layer_1" data-name="Layer 1" xmlns="http://www.w3.org/2000/svg" viewBox="0 0 121.7 122.88"><defs><style>.cls-1{fill-rule:evenodd;}</style></defs><title>search-medicine</title><path class="cls-1" d="M53.62,0A53.62,53.62,0,0,1,98.49,83l23.21,25.29-16,14.63L83.32,98.26A53.62,53.62,0,1,1,53.62,0ZM53.2,28.27a12.9,12.9,0,0,1,17.59-4.71h0A12.92,12.92,0,0,1,75.5,41.15C68.18,53.83,60.88,66.38,53.56,79.06h0a12.67,12.67,0,0,1-3.9,4.19,12.82,12.82,0,0,1-20-11.45,12.65,12.65,0,0,1,1.69-5.56h0c7.32-12.69,14.5-25.27,21.84-38ZM63.41,58,44.77,47.18,54.89,29.67h0A10.76,10.76,0,0,1,73.53,40.44h0L63.41,58Zm23.89-38a47.64,47.64,0,1,0,14,33.69,47.48,47.48,0,0,0-14-33.69Z"/></svg>