<?xml version="1.0" encoding="utf-8"?><svg version="1.1" id="Layer_1" xmlns="http://www.w3.org/2000/svg" xmlns:xlink="http://www.w3.org/1999/xlink" x="0px" y="0px" viewBox="0 0 122.88 141.63" style="enable-background:new 0 0 122.88 141.63" xml:space="preserve"><g><path d="M24.85,105c1.07-0.51,2.35-0.07,2.86,1c0.51,1.07,0.07,2.35-1,2.86c-1.88,0.91-4,1.2-6.37,0.96 c-1.28-0.13-2.63-0.42-4.06-0.86c0.05,0.55,0.12,1.1,0.19,1.65c0.2,1.55,0.49,3.14,0.85,4.76c0.12,0.57,0.01,1.13-0.27,1.59 c-1.2,2.43-1.81,4.46-1.92,6.14c-0.11,1.75,0.36,3.07,1.28,4.01c1.03,1.04,2.64,1.73,4.68,2.12c3.25,0.61,7.42,0.42,11.95-0.39 c4.32-0.78,9.18-2.02,13.65-3.76c3.63-1.41,7-3.14,9.56-5.19c2.51-2,3.66-5.29,4.65-8.1c0.2-0.58,0.4-1.14,0.49-1.39l0.29-0.78 c1.23-3.39,3.37-9.28,6.16-11.42c0.94-0.72,2.28-0.55,3.01,0.39c0.72,0.94,0.55,2.28-0.39,3.01c-1.8,1.39-3.67,6.53-4.75,9.49 c-0.22,0.61-0.18,0.5-0.29,0.79c-0.23,0.63-0.35,0.97-0.47,1.32c-1.18,3.35-2.55,7.27-6.03,10.05c-2.92,2.33-6.67,4.27-10.69,5.82 c-0.91,0.35-1.84,0.69-2.77,1c0.04,1.4-0.01,2.8-0.15,4.21c-0.19,1.96-0.54,3.88-1.05,5.77c-0.31,1.15-1.48,1.83-2.63,1.52 c-1.15-0.31-1.83-1.48-1.52-2.63c0.45-1.7,0.77-3.38,0.93-5.06c0.08-0.83,0.13-1.66,0.13-2.5c-2.53,0.69-5.03,1.25-7.39,1.67 c-5.03,0.9-9.73,1.1-13.5,0.39c-2.88-0.54-5.27-1.62-6.95-3.32c-1.78-1.81-2.7-4.21-2.51-7.28c0.13-2.09,0.81-4.5,2.12-7.26 c-0.29-1.42-0.54-2.88-0.74-4.41c-0.22-1.69-0.37-3.4-0.44-5.13c-0.01-0.06-0.01-0.12-0.01-0.19c-0.01-0.07-0.03-0.15-0.03-0.22 c-0.31-3.24-0.35-6.4-0.39-9.59l-0.01-0.74l-4.96-0.29l-0.06,0c-1.29-0.05-2.45-0.42-3.42-1.06c-0.94-0.61-1.69-1.46-2.19-2.48 C0.23,90.47-0.02,89.34,0,88.1c0.04-1.71,0.61-3.63,1.87-5.59l5.3-10.84c2.6-5.32,2.57-6.02,2.46-8.81 C9.59,61.61,9.52,60,9.6,57.59c0.09-2.87,0.41-5.61,1.04-8.19c0.44-1.82,1.03-3.55,1.79-5.18l-9.64-4.21 c-1.08-0.47-1.58-1.74-1.11-2.82c0.06-0.15,0.14-0.29,0.24-0.41l0,0C24.96,5.36,51-3.3,73.03,1.05c12.86,2.54,24.33,9.53,33,19.02 c8.67,9.48,14.56,21.47,16.31,34.01c2.87,20.65-5.42,42.76-30.93,57.71c-0.22,0.13-0.45,0.21-0.69,0.26 c0.02,3.13,0.21,6.17,0.57,9.12c0.71,5.84,2.08,11.3,4.02,16.44c0.42,1.11-0.14,2.35-1.25,2.76s-2.35-0.14-2.76-1.25 c-2.06-5.48-3.52-11.27-4.27-17.43c-0.75-6.14-0.81-12.67-0.09-19.63c0.12-1.18,1.17-2.03,2.35-1.91c1.18,0.12,2.03,1.17,1.91,2.35 c-0.16,1.57-0.28,3.12-0.36,4.64c22.51-13.9,29.84-33.86,27.26-52.47c-1.62-11.69-7.12-22.86-15.21-31.71 C94.8,14.12,84.15,7.62,72.21,5.26C52.18,1.31,28.44,9.09,6.98,37.16l9.17,4c0.13,0.05,0.25,0.11,0.37,0.18 c1.02,0.61,1.34,1.93,0.73,2.95c-1.12,1.85-1.91,3.91-2.44,6.12c-0.55,2.28-0.83,4.73-0.92,7.32c-0.07,2.24-0.01,3.78,0.04,4.97 c0.15,3.64,0.18,4.56-2.9,10.85L5.7,84.43c-0.05,0.11-0.1,0.21-0.17,0.32c-0.84,1.29-1.22,2.46-1.24,3.44 c-0.01,0.53,0.09,0.99,0.27,1.36c0.16,0.33,0.4,0.6,0.68,0.79c0.33,0.22,0.75,0.35,1.22,0.37c0.06,0,0.12,0,0.17,0l6.15,0.36 c0.2-0.06,0.41-0.1,0.62-0.1c0.07,0,0.15,0,0.22,0.01l0-0.01l5.66,0.48c1.18,0.1,2.06,1.13,1.96,2.32 c-0.1,1.18-1.13,2.06-2.32,1.96l-0.11-0.01l-3.2-0.19l0.01,0.44c0.04,2.79,0.07,5.55,0.3,8.34c1.79,0.67,3.41,1.1,4.85,1.25 C22.36,105.72,23.72,105.55,24.85,105L24.85,105L24.85,105z M61.44,39.51h0.27v-2.26c0-1.78,0.34-3.48,0.97-5.04 c0.65-1.62,1.59-3.09,2.77-4.31c1.18-1.24,2.6-2.23,4.17-2.91c1.52-0.66,3.18-1.02,4.91-1.02c1.73,0,3.39,0.36,4.91,1.02 c1.57,0.68,2.99,1.68,4.17,2.91c1.17,1.23,2.12,2.69,2.77,4.31c0.62,1.56,0.97,3.27,0.97,5.04v2.26h0.27 c2.02,0,3.67,1.65,3.67,3.67v20.31c0,2.02-1.65,3.67-3.67,3.67H61.43c-2.02,0-3.67-1.65-3.67-3.67V43.18 c0-2.02,1.65-3.67,3.67-3.67H61.44L61.44,39.51z M65.21,39.51h18.61v-2.26c0-1.33-0.25-2.6-0.71-3.75 c-0.48-1.2-1.18-2.27-2.05-3.18c-0.86-0.9-1.89-1.63-3.03-2.12c-1.08-0.47-2.27-0.73-3.52-0.73s-2.44,0.26-3.52,0.73 c-1.13,0.49-2.16,1.22-3.02,2.12c-0.87,0.91-1.57,1.99-2.05,3.19c-0.46,1.15-0.71,2.41-0.71,3.74V39.51L65.21,39.51z M87.61,43.01 H61.44c-0.09,0-0.16,0.08-0.17,0.17v20.31c0,0.08,0.08,0.17,0.17,0.17h26.17c0.08,0,0.17-0.08,0.17-0.17V43.18 C87.77,43.09,87.69,43.01,87.61,43.01L87.61,43.01z M73.44,54.36l-1.43,3.74h5.02l-1.32-3.79c0.84-0.43,1.42-1.3,1.42-2.32 c0-1.44-1.17-2.6-2.6-2.6c-1.44,0-2.6,1.17-2.6,2.6c0,1.05,0.63,1.96,1.52,2.37H73.44L73.44,54.36z M43.38,61.87 c1.03,0.59,1.39,1.9,0.8,2.93c-0.59,1.03-1.9,1.39-2.93,0.8c-2.06-1.18-4.06-1.71-5.98-1.71c-2.07,0-4.09,0.62-6.03,1.71 c-1.03,0.58-2.34,0.22-2.92-0.81c-0.58-1.03-0.22-2.34,0.81-2.92c2.59-1.46,5.31-2.29,8.14-2.29 C37.92,59.58,40.63,60.29,43.38,61.87L43.38,61.87z M34.58,66.1c-1.66,0-3,1.35-3,3c0,1.66,1.35,3,3,3c1.66,0,3.01-1.35,3.01-3 C37.59,67.45,36.24,66.1,34.58,66.1L34.58,66.1z"/></g></svg>