<?xml version="1.0" encoding="utf-8"?><svg version="1.1" id="Layer_1" xmlns="http://www.w3.org/2000/svg" xmlns:xlink="http://www.w3.org/1999/xlink" x="0px" y="0px" viewBox="0 0 122.88 122.88" style="enable-background:new 0 0 122.88 122.88" xml:space="preserve"><style type="text/css">.st0{fill-rule:evenodd;clip-rule:evenodd;}</style><g><path class="st0" d="M72.51,89.32L44.63,61.44l27.88-27.88V89.32L72.51,89.32z M122.88,18.54v85.81h-0.03 c-0.01,5.1-2.09,9.74-5.44,13.09c-3.33,3.32-7.94,5.39-13.04,5.41v0.03H18.53v-0.03c-5.1-0.01-9.74-2.09-13.09-5.44 c-3.32-3.33-5.4-7.94-5.41-13.04H0V18.53h0.03c0.01-5.11,2.09-9.75,5.44-13.09c3.33-3.32,7.94-5.39,13.04-5.41V0h85.84v0.03 c5.11,0.01,9.74,2.09,13.09,5.44c3.32,3.33,5.39,7.94,5.41,13.04h0.03V18.54L122.88,18.54z M108.82,104.34V18.51h0.03 c0-1.2-0.52-2.33-1.35-3.15c-0.81-0.82-1.94-1.33-3.15-1.33v0.03H18.51v-0.03c-1.21,0-2.33,0.52-3.15,1.35 c-0.82,0.81-1.33,1.94-1.33,3.15h0.03v85.84h-0.03c0,1.21,0.52,2.33,1.35,3.15c0.81,0.82,1.94,1.33,3.15,1.33v-0.03h85.84v0.03 c1.2,0,2.33-0.52,3.15-1.35c0.82-0.81,1.33-1.94,1.33-3.15h-0.03L108.82,104.34L108.82,104.34L108.82,104.34z"/></g></svg>