<?xml version="1.0" encoding="utf-8"?><svg version="1.1" id="Layer_1" xmlns="http://www.w3.org/2000/svg" xmlns:xlink="http://www.w3.org/1999/xlink" x="0px" y="0px" viewBox="0 0 122.88 122.88" style="enable-background:new 0 0 122.88 122.88" xml:space="preserve"><style type="text/css">.st0{fill-rule:evenodd;clip-rule:evenodd;}</style><g><path class="st0" d="M50.37,89.32l27.88-27.87L50.37,33.56V89.32L50.37,89.32z M0,18.54v85.81h0.03c0.01,5.1,2.09,9.74,5.44,13.09 c3.33,3.32,7.94,5.39,13.04,5.41v0.03h85.84v-0.03c5.1-0.01,9.74-2.09,13.09-5.44c3.33-3.33,5.4-7.94,5.41-13.04h0.03V18.53h-0.03 c-0.01-5.11-2.09-9.75-5.44-13.09c-3.33-3.32-7.94-5.39-13.04-5.41V0H18.53v0.03C13.42,0.04,8.78,2.12,5.44,5.47 C2.11,8.8,0.04,13.42,0.03,18.51H0V18.54L0,18.54z M14.06,104.34V18.51h-0.03c0-1.2,0.52-2.33,1.35-3.15 c0.81-0.82,1.94-1.33,3.15-1.33v0.03h85.84v-0.03c1.21,0,2.33,0.52,3.15,1.35c0.82,0.81,1.33,1.94,1.33,3.15h-0.03v85.84h0.03 c0,1.21-0.52,2.33-1.35,3.15c-0.81,0.82-1.94,1.33-3.15,1.33v-0.03H18.51v0.03c-1.2,0-2.33-0.52-3.15-1.35 c-0.82-0.81-1.33-1.94-1.33-3.15h0.03L14.06,104.34L14.06,104.34L14.06,104.34z"/></g></svg>