<svg xmlns="http://www.w3.org/2000/svg" shape-rendering="geometricPrecision" text-rendering="geometricPrecision" image-rendering="optimizeQuality" fill-rule="evenodd" clip-rule="evenodd" viewBox="0 0 512 478.18"><path d="M413.77 478.18H98.23C44.18 478.18 0 434 0 379.94V98.23C0 44.21 44.21 0 98.23 0h315.54c54 0 98.23 44.24 98.23 98.23v281.71c0 54.05-44.19 98.24-98.23 98.24zM191.65 230.47l81.81-77.38c4.74-4.49 12.24-4.28 16.72.46 2.16 2.29 3.23 5.21 3.23 8.13l.07 154.76c0 6.56-5.33 11.89-11.89 11.89-3.58 0-6.8-1.6-8.98-4.11l-80.96-76.57c-4.74-4.48-4.95-11.98-.46-16.72l.46-.46z"/></svg>