<svg id="Layer_1" data-name="Layer 1" xmlns="http://www.w3.org/2000/svg" viewBox="0 0 122.87 122.88"><title>september-month</title><path d="M81.6,4.73C81.6,2.12,84.18,0,87.37,0s5.77,2.12,5.77,4.73V25.45c0,2.61-2.58,4.73-5.77,4.73s-5.77-2.12-5.77-4.73V4.73ZM24,95.49l1.24-7.29a30.84,30.84,0,0,0,7.32,1A42.83,42.83,0,0,0,37.82,89V86.74l-4-.36q-5.4-.48-7.41-2.58c-1.34-1.4-2-3.48-2-6.22,0-3.77.82-6.37,2.46-7.78s4.41-2.12,8.33-2.12a46.55,46.55,0,0,1,10.61,1.1l-1.1,7.08a44,44,0,0,0-6.59-.67,33.08,33.08,0,0,0-4.2.23v2.16l3.18.31q5.79.58,8,2.77a8.18,8.18,0,0,1,2.21,6.08,13,13,0,0,1-.75,4.71,8.3,8.3,0,0,1-1.79,2.92,6.9,6.9,0,0,1-2.95,1.52,16.87,16.87,0,0,1-3.33.64c-1,.08-2.24.11-3.83.11A46.52,46.52,0,0,1,24,95.49Zm45-9.95H60.15V88.9H71V96H51.31V68.34H70.77l-1.11,7.08H60.15v3.71H69v6.41ZM90,89.3H84.26V96H75.41V68.34H89.34q9.51,0,9.51,10.21,0,5.63-2.48,8.32a7.47,7.47,0,0,1-2.56,1.73,9.56,9.56,0,0,1-3.81.7ZM84.26,75.42v6.81h2a6,6,0,0,0,2.32-.33,1.51,1.51,0,0,0,.73-1.53v-3.1c0-.79-.24-1.3-.73-1.52a6,6,0,0,0-2.32-.33ZM29.61,4.73C29.61,2.12,32.19,0,35.38,0s5.77,2.12,5.77,4.73V25.45c0,2.61-2.58,4.73-5.77,4.73s-5.77-2.12-5.77-4.73V4.73ZM6.4,38.76H116.46V21.47a3,3,0,0,0-.86-2.07,2.92,2.92,0,0,0-2.07-.86H103a3.2,3.2,0,1,1,0-6.4h10.55a9.36,9.36,0,0,1,9.33,9.33v92.08a9.36,9.36,0,0,1-9.33,9.33H9.33A9.36,9.36,0,0,1,0,113.54V21.47a9.36,9.36,0,0,1,9.33-9.33H20.6a3.2,3.2,0,1,1,0,6.4H9.33a3,3,0,0,0-2.07.86,2.92,2.92,0,0,0-.86,2.07V38.76Zm110.07,6.41H6.4v68.37a3,3,0,0,0,.86,2.07,2.92,2.92,0,0,0,2.07.86H113.54a3,3,0,0,0,2.07-.86,2.92,2.92,0,0,0,.86-2.07V45.17Zm-66-26.63a3.2,3.2,0,0,1,0-6.4H71.91a3.2,3.2,0,1,1,0,6.4Z"/></svg>