<svg id="Layer_1" data-name="Layer 1" xmlns="http://www.w3.org/2000/svg" viewBox="0 0 122.88 48.6"><title>serbian-dinar</title><path d="M26.57,28.63V7.34H19.25a94.08,94.08,0,0,1-2.19,11.29,46.46,46.46,0,0,1-3.85,10Zm15,20H32.81V35.77h-24V48.6H0v-20H3a45.23,45.23,0,0,0,5.16-12A89.38,89.38,0,0,0,11.06,0H36.33V28.63h5.24v20ZM54.57,0V14.14q0,2.23-.73,10.94L70.32,0H82.06V35.77H72.62V21.5c0-2.54.22-6.13.65-10.75l-16.43,25H45.13V0ZM99.51,0V13.76h13.62V0h9.75V35.77h-9.75V21H99.51V35.77H89.76V0Z"/></svg>