<?xml version="1.0" encoding="utf-8"?><svg version="1.1" id="Layer_1" xmlns="http://www.w3.org/2000/svg" xmlns:xlink="http://www.w3.org/1999/xlink" x="0px" y="0px" viewBox="0 0 122.88 120.23" style="enable-background:new 0 0 122.88 120.23" xml:space="preserve"><style type="text/css">.st0{fill-rule:evenodd;clip-rule:evenodd;}</style><g><path class="st0" d="M94.41,76.4c5.23,3.31,9.95,4.88,14.01,4.51c0.71,14.33-4.58,22.79-13.96,26.31 c-9.05-3.3-14.41-11.4-14.01-26.53C85.22,80.95,89.89,79.92,94.41,76.4L94.41,76.4z M83.59,23.13l-0.03,0.09 c-6.27-1.17-15.32-1.78-24.87-1.67c-9.65,0.11-19.86,0.95-28.27,2.68l-0.01-0.03C23.08-10.32,93.28-5.39,83.59,23.13L83.59,23.13z M94.46,63.4c7.85,0,14.95,3.18,20.09,8.32c5.14,5.14,8.32,12.25,8.32,20.09c0,7.85-3.18,14.95-8.32,20.09 c-5.14,5.14-12.25,8.32-20.09,8.32c-7.85,0-14.95-3.18-20.09-8.32c-2.45-2.45-4.46-5.35-5.88-8.56H0L3.51,89.9 c7.16-31.46,24.38-18.95,39.3-29.41c0.23-0.2,0.45-0.4,0.67-0.61l0.18-3.27c-0.75-0.65-1.47-1.36-2.12-2.15 c-2.26-2.66-3.2-5.46-4.45-9.16c-0.14-0.47-0.32-0.93-0.47-1.36c-1.54,0-2.87-1.29-3.81-3.12c-0.72-1.44-1.22-3.16-1.4-4.81 c-0.18-1.69-0.04-3.27,0.57-4.27l-0.8-3.81c8.16-1.68,18.11-2.49,27.53-2.6c9.18-0.11,17.8,0.45,23.74,1.52 c-0.44,1.62-0.76,3.14-0.7,3.85c0.83,0.07,1.44,0.54,1.83,1.26c0.5,0.9,0.65,2.23,0.5,3.66c-0.11,1.36-0.5,2.91-1.01,4.27 c-0.93,2.44-2.48,4.42-4.24,4.6c-0.22,0.65-0.39,1.29-0.57,1.94c-0.9,3.05-1.62,5.46-3.48,7.79c-0.83,1.08-1.8,2.05-2.8,2.87 l0.18,2.91c1.03,1.41,2.16,2.52,3.44,3.33c2.4,1.26,5.36,1.68,8.55,2.01C87.36,64.08,90.83,63.4,94.46,63.4L94.46,63.4z M111.34,74.94c-4.32-4.32-10.29-6.99-16.88-6.99c-6.59,0-12.56,2.67-16.88,6.99c-4.32,4.32-6.99,10.29-6.99,16.88 c0,6.59,2.67,12.56,6.99,16.88c4.32,4.32,10.29,6.99,16.88,6.99c6.59,0,12.56-2.67,16.88-6.99c4.32-4.32,6.99-10.29,6.99-16.88 C118.34,85.23,115.66,79.26,111.34,74.94L111.34,74.94z M49.86,12.47h15.17c0.36,0,0.65,0.29,0.65,0.65v3.5 c0,0.36-0.29,0.65-0.65,0.65H49.86c-0.36,0-0.65-0.29-0.65-0.65v-3.5C49.21,12.76,49.5,12.47,49.86,12.47L49.86,12.47z M69.72,58.23c-4.05,2.7-6.53,4.19-11.77,4.06c-5.1-0.08-7.77-1.8-11.84-4.38C45.81,74.93,70.15,75.95,69.72,58.23L69.72,58.23z M75.8,45.87c0.22-0.75,0.47-1.54,0.75-2.48c0.11-0.4,0.5-0.68,0.9-0.61c1.18,0.22,2.37-1.51,3.2-3.59 c0.47-1.26,0.83-2.62,0.93-3.84c0.11-1.15,0-2.15-0.32-2.77c-0.32-0.59-1.21-0.25-1.87-0.83c-3.4,9.02-33.06,13.1-45.2,0.68 c-0.43,0.68-0.5,1.9-0.36,3.27c0.18,1.44,0.61,3.02,1.26,4.27c0.75,1.47,1.72,2.48,2.69,2.23c0.4-0.11,0.83,0.11,0.97,0.5 c0.29,0.79,0.47,1.4,0.68,2.01C45.73,63.19,69.63,64.64,75.8,45.87L75.8,45.87z M21.8,83.08h15.17c0.36,0,0.65,0.29,0.65,0.65v3.5 c0,0.36-0.29,0.65-0.65,0.65H21.8c-0.36,0-0.65-0.29-0.65-0.65v-3.5C21.15,83.37,21.44,83.08,21.8,83.08L21.8,83.08z M94.44,83.31 c2.89,1.83,5.5,2.7,7.74,2.49c0.39,7.91-2.53,12.58-7.71,14.53c-5-1.82-7.96-6.3-7.74-14.65C89.36,85.81,91.94,85.25,94.44,83.31 L94.44,83.31z"/></g></svg>