<svg xmlns="http://www.w3.org/2000/svg" shape-rendering="geometricPrecision" text-rendering="geometricPrecision" image-rendering="optimizeQuality" fill-rule="evenodd" clip-rule="evenodd" viewBox="0 0 512 462.54"><path fill-rule="nonzero" d="M49.68 0h337.29c13.65 0 26.06 5.64 35.03 14.61l.83.91c8.53 8.94 13.8 21.05 13.8 34.17V192.3c-13.82-3.96-28.42-6.1-43.52-6.1-7.25 0-14.38.5-21.37 1.45l38.17-35.52V49.69c0-5.95-2.36-11.49-6.2-15.62l-.6-.56c-4.16-4.16-9.89-6.79-16.14-6.79H49.68c-6.05 0-11.55 2.35-15.62 6.14l-.58.62c-4.17 4.16-6.76 9.91-6.76 16.21v177.93c29.58-26.67 76.92-63.95 106.82-89.08 4.88-4.22 12.14-4.13 16.93-.04.97.81 1.69 1.79 2.5 2.75l69.64 105.62 24.89-75.76c1.99-10.58 14.48-14.09 22.06-7.06l45.01 43.1c-7.78 4.48-15.13 9.62-21.99 15.32l-23.17-22.24-25.4 78.78c-1.6 11.15-15.44 15.38-22.92 6.78l-80.27-118.34-114.1 95.68v79.68c0 6.26 2.62 11.99 6.79 16.15 4.19 4.2 9.95 6.82 16.17 6.82h187.53c1.3 9.18 3.38 18.11 6.19 26.72H49.68c-13.58 0-26.04-5.62-35.07-14.64C5.64 368.88 0 356.46 0 342.81V49.69c0-13.67 5.59-26.11 14.58-35.11l.92-.83C24.44 5.25 36.49 0 49.68 0zm373.5 292.77c-1.31-.9-2.81-1.3-4.31-1-1.51.29-2.81 1.1-3.71 2.4l-5.12 7.22c-3.46-1.55-7.88-2.56-11.63-3.1l-1.6-9.43c-.31-1.6-1.11-2.8-2.31-3.71-1.3-.91-2.7-1.21-4.31-.91l-11.82 2.11c-1.51.31-2.72 1.01-3.72 2.31-.9 1.3-1.29 2.71-1.01 4.32l1.51 8.62c-3.63 1.52-7.24 3.73-10.32 6.21l-8.03-5.52c-1.3-.9-2.7-1.31-4.21-1-1.51.31-2.81 1.11-3.7 2.42l-6.83 9.72c-.9 1.3-1.3 2.8-.99 4.31.29 1.6 1.09 2.8 2.41 3.7l7.21 5.12c-1.53 3.43-2.56 7.9-3.11 11.63l-9.41 1.61c-1.61.3-2.81 1.1-3.73 2.3-.9 1.3-1.19 2.7-.9 4.3l2.1 11.83c.31 1.51 1.02 2.72 2.32 3.72 1.29.91 2.71 1.31 4.31 1.01l8.63-1.51c1.58 3.78 3.75 7.17 6.21 10.43l-5.52 7.92c-.9 1.3-1.31 2.71-1 4.21.31 1.51 1.11 2.8 2.41 3.71l9.83 6.91c1.29.92 2.8 1.2 4.3.92 1.51-.31 2.81-1.01 3.81-2.31l5.11-7.33c3.52 1.55 7.84 2.54 11.64 3.12l1.6 9.43c.3 1.6 1.1 2.81 2.3 3.7 1.32.9 2.71 1.21 4.32.9l11.83-2.1c1.51-.3 2.7-1.02 3.71-2.32.9-1.3 1.3-2.69 1-4.3l-1.49-8.61c3.8-1.61 7.12-3.77 10.41-6.24l7.94 5.53c1.29.89 2.69 1.3 4.3.99 1.6-.28 2.81-1.09 3.7-2.4l6.93-9.84c.89-1.29 1.2-2.8.89-4.29-.28-1.51-.99-2.81-2.29-3.82l-7.32-5.01c1.52-3.43 2.55-7.91 3.1-11.63l9.42-1.6c1.61-.31 2.81-1.11 3.72-2.31.9-1.3 1.2-2.7.9-4.31l-2.1-11.83c-.31-1.51-1.01-2.71-2.31-3.71-1.3-.92-2.71-1.31-4.32-1.01l-8.62 1.51c-1.66-3.75-3.65-7.13-6.22-10.32l5.52-8.03c.91-1.3 1.3-2.71 1-4.21-.3-1.51-1.11-2.81-2.41-3.71l-9.72-6.82-.3.1zm-30.06 25.6c13.96 0 25.28 11.32 25.28 25.28s-11.32 25.28-25.28 25.28-25.28-11.32-25.28-25.28 11.32-25.28 25.28-25.28zm-.01-93.62c32.83 0 62.56 13.31 84.06 34.82 21.52 21.52 34.83 51.24 34.83 84.07 0 32.83-13.31 62.57-34.82 84.07-21.51 21.52-51.24 34.83-84.07 34.83-32.83 0-62.56-13.31-84.07-34.83-21.51-21.5-34.82-51.24-34.82-84.07 0-32.8 13.31-62.5 34.82-84.02 21.56-21.56 51.27-34.87 84.07-34.87zm67.83 51.05c-17.34-17.34-41.34-28.09-67.83-28.09-26.51 0-50.51 10.73-67.86 28.07-17.35 17.35-28.07 41.36-28.07 67.86 0 26.49 10.74 50.5 28.09 67.84 17.35 17.36 41.35 28.1 67.84 28.1 26.49 0 50.49-10.74 67.84-28.1 17.34-17.34 28.09-41.35 28.09-67.84 0-26.48-10.75-50.48-28.1-67.84zM267.9 61.14c11.03 0 21.06 4.48 28.31 11.73s11.73 17.26 11.73 28.31c0 11.03-4.48 21.06-11.73 28.31s-17.28 11.73-28.31 11.73c-11.05 0-21.06-4.48-28.31-11.73s-11.73-17.28-11.73-28.31c0-11.05 4.48-21.06 11.73-28.31s17.26-11.73 28.31-11.73zm12.22 27.82a17.281 17.281 0 0 0-12.22-5.05c-4.77 0-9.1 1.94-12.22 5.05a17.281 17.281 0 0 0-5.05 12.22c0 4.77 1.94 9.1 5.05 12.22 3.12 3.11 7.45 5.05 12.22 5.05 4.77 0 9.1-1.94 12.22-5.05 3.11-3.12 5.05-7.45 5.05-12.22 0-4.77-1.94-9.1-5.05-12.22z"/></svg>