<svg xmlns="http://www.w3.org/2000/svg" shape-rendering="geometricPrecision" text-rendering="geometricPrecision" image-rendering="optimizeQuality" fill-rule="evenodd" clip-rule="evenodd" viewBox="0 0 469 512.4"><path fill-rule="nonzero" d="M191.83 93.36c27.85 0 53.07 11.3 71.3 29.54 18.24 18.23 29.54 43.45 29.54 71.3 0 27.84-11.3 53.06-29.54 71.3-18.23 18.23-43.45 29.53-71.3 29.53-27.84 0-53.06-11.3-71.3-29.53C102.3 247.26 91 222.04 91 194.2c0-27.85 11.3-53.07 29.53-71.3 18.24-18.24 43.46-29.54 71.3-29.54zm188.82 242.77c-1.42-.97-3.05-1.4-4.69-1.09-1.63.32-3.05 1.21-4.02 2.6l-5.57 7.86c-3.74-1.69-8.54-2.78-12.62-3.37l-1.73-10.26c-.34-1.71-1.2-3.03-2.52-4.01-1.4-.99-2.92-1.32-4.67-.99l-12.84 2.29c-1.65.33-2.95 1.1-4.03 2.52-.99 1.39-1.42 2.93-1.11 4.68l1.64 9.36c-3.94 1.65-7.86 4.05-11.21 6.75l-8.7-6c-1.42-.97-2.93-1.4-4.57-1.09-1.65.34-3.05 1.2-4.04 2.62l-7.4 10.57c-.98 1.4-1.42 3.04-1.08 4.67.31 1.75 1.18 3.05 2.62 4.04l7.81 5.55c-1.65 3.72-2.77 8.59-3.36 12.62l-10.22 1.73c-1.75.34-3.05 1.23-4.06 2.53-.96 1.41-1.28 2.93-.96 4.66l2.28 12.86c.32 1.63 1.08 2.93 2.5 4.02 1.42 1 2.96 1.43 4.69 1.1l9.37-1.63c1.71 4.09 4.08 7.77 6.73 11.32l-5.98 8.6c-.99 1.4-1.42 2.94-1.08 4.57.33 1.63 1.2 3.05 2.62 4.02l10.65 7.52a6.04 6.04 0 0 0 4.68.98c1.64-.33 3.06-1.1 4.14-2.5l5.55-7.95c3.82 1.69 8.51 2.76 12.64 3.39l1.74 10.21c.31 1.76 1.2 3.06 2.5 4.04 1.43.99 2.95 1.3 4.68.99l12.86-2.29c1.64-.33 2.92-1.1 4.02-2.52.98-1.42 1.42-2.93 1.08-4.67l-1.61-9.37c4.13-1.73 7.73-4.07 11.3-6.75l8.62 5.98c1.4.99 2.92 1.42 4.67 1.09 1.75-.32 3.05-1.19 4.04-2.6l7.5-10.68c.98-1.41 1.32-3.05.98-4.68-.31-1.64-1.08-3.05-2.5-4.14l-7.95-5.43c1.65-3.74 2.79-8.59 3.36-12.64l10.24-1.73c1.76-.34 3.06-1.21 4.04-2.51.98-1.41 1.32-2.93.98-4.68l-2.28-12.84c-.33-1.65-1.1-2.95-2.52-4.04-1.4-.98-2.93-1.42-4.69-1.1l-9.35 1.65c-1.81-4.07-3.96-7.73-6.75-11.22l6-8.7c.97-1.42 1.4-2.96 1.09-4.57-.34-1.66-1.2-3.05-2.62-4.06l-10.58-7.38-.31.1zM348 363.93c15.16 0 27.45 12.29 27.45 27.45s-12.29 27.47-27.45 27.47-27.45-12.31-27.45-27.47c0-15.16 12.29-27.45 27.45-27.45zm-.02-93.55c33.4 0 63.68 13.55 85.58 35.44l.61.65c21.52 21.84 34.83 51.85 34.83 84.91 0 33.35-13.57 63.64-35.44 85.54-21.94 21.91-52.22 35.48-85.58 35.48-33.39 0-63.66-13.57-85.56-35.46l-.59-.66c-21.54-21.83-34.87-51.86-34.87-84.9 0-33.4 13.57-63.66 35.46-85.56l.65-.61c21.84-21.52 51.85-34.83 84.91-34.83zm69.08 51.94c-17.67-17.66-42.12-28.59-69.08-28.59-26.7 0-50.94 10.73-68.56 28.06l-.49.53c-17.67 17.67-28.62 42.1-28.62 69.06 0 26.74 10.76 50.98 28.08 68.54l.54.51c17.66 17.67 42.09 28.62 69.05 28.62 26.98 0 51.43-10.95 69.1-28.58 17.62-17.66 28.57-42.11 28.57-69.09 0-26.7-10.73-50.94-28.06-68.56l-.53-.5zM197.52 485.85c7.57-4.8 14.91-9.92 22.02-15.28a150.5 150.5 0 0 0 13.51 18.57 362.99 362.99 0 0 1-28.83 19.58c-3.72 2.73-8.9 3.07-13.02.47-44.91-28.51-82.6-62.91-112.29-100.21C38.03 357.67 12.25 300.76 3.43 246c-8.96-55.54-.53-109.01 27.1-152.5C41.4 76.37 55.36 60.71 72.39 47.15 111.38 16.07 156-.37 200.3.01c42.67.35 84.95 16.26 121.47 49.6 12.8 11.69 23.59 24.97 32.37 39.46 26.57 43.85 34.52 98.59 26.53 154.98-7.39-1.63-14.99-2.71-22.72-3.23 7.28-51.35.29-100.73-23.42-139.86a155.885 155.885 0 0 0-28.23-34.34c-32.14-29.32-69.1-43.36-106.2-43.65-38.98-.32-78.52 14.37-113.41 42.17C71.8 77 59.55 90.76 49.98 105.82c-24.53 38.62-31.94 86.51-23.86 136.6 8.19 50.86 32.37 104.05 70.78 152.27 26.78 33.63 60.53 64.82 100.62 91.16zm49.35-346.69c-14.06-14.06-33.55-22.8-55.04-22.8-21.48 0-40.97 8.74-55.03 22.8-14.06 14.06-22.8 33.55-22.8 55.04 0 21.48 8.74 40.97 22.8 55.03 14.06 14.06 33.55 22.8 55.03 22.8 21.49 0 40.98-8.74 55.04-22.8 14.06-14.06 22.8-33.55 22.8-55.03 0-21.49-8.74-40.98-22.8-55.04z"/></svg>