<svg id="Layer_1" data-name="Layer 1" xmlns="http://www.w3.org/2000/svg" viewBox="0 0 122.88 120.76"><defs><style>.cls-1{fill:#ef4136;}.cls-2{fill:#1a1a1a;}</style></defs><title>seven-years</title><path class="cls-1" d="M23.45,84.19l1.68,6.73h.21l1.72-6.73h6.76L28.31,98.11v5.2H22.19v-5.2L16.68,84.19ZM48,96.09H41.92v2.33h7.5v4.89H35.8V84.19H49.26l-.76,4.9H41.92v2.57H48v4.43Zm9,7.22H50.58l5-19.12H65l5,19.12H63.49l-.71-3h-5l-.71,3Zm3.06-13.24-1.25,5.35h2.81l-1.22-5.35Zm28.15,13.24H81.51L79,97.62H77.68v5.69H71.56V84.19H81.2q6.57,0,6.58,6.7,0,4.59-2.85,6.06l3.31,6.36ZM77.68,89.09v3.82h1.41a4,4,0,0,0,1.61-.23c.33-.15.5-.5.5-1.05V90.37c0-.55-.17-.9-.5-1.05a4.21,4.21,0,0,0-1.61-.23ZM90.07,103l.86-5a21,21,0,0,0,5.06.7,29,29,0,0,0,3.62-.18V96.92l-2.75-.24c-2.48-.23-4.19-.82-5.12-1.79a6,6,0,0,1-1.39-4.3q0-3.91,1.69-5.39c1.13-1,3.06-1.46,5.77-1.46a32.34,32.34,0,0,1,7.34.76l-.76,4.89a30.78,30.78,0,0,0-4.56-.45,24,24,0,0,0-2.91.15v1.5l2.21.21c2.67.27,4.51.9,5.54,1.91a5.7,5.7,0,0,1,1.52,4.21,9,9,0,0,1-.52,3.26,5.46,5.46,0,0,1-1.24,2,4.63,4.63,0,0,1-2,1,11.92,11.92,0,0,1-2.31.45c-.66,0-1.54.07-2.65.07a32.28,32.28,0,0,1-7.37-.79Z"/><path class="cls-2" d="M82.68,4.21C82.68,1.87,85,0,87.84,0S93,1.91,93,4.21v18.5c0,2.34-2.3,4.21-5.16,4.21s-5.16-1.9-5.16-4.21V4.21ZM74.22,43.46l-10,28.11H52.58l9.25-25.36-12.4.17-.77-10H74.22v7ZM29.67,4.21C29.67,1.87,32,0,34.83,0S40,1.91,40,4.21v18.5c0,2.34-2.3,4.21-5.16,4.21s-5.16-1.9-5.16-4.21V4.21ZM6.76,111.3a2.65,2.65,0,0,0,.76,1.86,2.56,2.56,0,0,0,1.87.75h104a2.65,2.65,0,0,0,1.86-.75,2.56,2.56,0,0,0,.75-1.86v-91a2.56,2.56,0,0,0-2.57-2.58h-8.33c-1.59,0-2.86-2.35-2.86-3.94a2.85,2.85,0,0,1,2.86-2.86h9.41a8.4,8.4,0,0,1,8.34,8.34v93.2a8.38,8.38,0,0,1-8.34,8.34H8.34A8.38,8.38,0,0,1,0,112.42V19.22a8.29,8.29,0,0,1,2.46-5.88,8.35,8.35,0,0,1,5.88-2.46H18.43a2.85,2.85,0,0,1,2.86,2.86c0,1.59-1.27,3.94-2.86,3.94h-9a2.69,2.69,0,0,0-1.87.75A2.59,2.59,0,0,0,6.8,20.3c0,28.8,0,62.06,0,91ZM51.54,17.64c-1.59,0-2.86-2.35-2.86-3.94a2.85,2.85,0,0,1,2.86-2.86H70.76a2.85,2.85,0,0,1,2.86,2.86c0,1.59-1.27,3.94-2.86,3.94Z"/></svg>