<?xml version="1.0" encoding="utf-8"?><svg version="1.1" id="Layer_1" xmlns="http://www.w3.org/2000/svg" xmlns:xlink="http://www.w3.org/1999/xlink" x="0px" y="0px" viewBox="0 0 122.88 81.64" style="enable-background:new 0 0 122.88 81.64" xml:space="preserve"><style type="text/css">.st0{fill-rule:evenodd;clip-rule:evenodd;}</style><g><path class="st0" d="M24.05,26.45V3.57h12.39v22.89H24.05L24.05,26.45L24.05,26.45z M78.07,23.09c-0.82-0.45-1.12-1.48-0.67-2.3 c0.45-0.82,1.48-1.12,2.3-0.67c1.87,1.03,3.6,2.07,5.19,3.18c1.63,1.13,3.11,2.32,4.47,3.65c2.24,2.19,4.11,4.73,5.6,7.88 c1.47,3.09,2.57,6.76,3.29,11.25c0.15,0.92-0.48,1.79-1.41,1.94c-0.92,0.15-1.79-0.48-1.94-1.41c-0.67-4.17-1.68-7.54-3.01-10.34 c-1.31-2.75-2.94-4.97-4.9-6.9c-1.21-1.19-2.56-2.27-4.03-3.29C81.46,25.04,79.83,24.06,78.07,23.09L78.07,23.09z M60.48,38.96 c-0.55-0.75-0.38-1.81,0.37-2.36c0.75-0.55,1.81-0.38,2.36,0.37c1.37,1.89,2.56,3.83,3.43,5.88c0.9,2.11,1.47,4.35,1.56,6.77 c0.03,0.93-0.7,1.72-1.63,1.75c-0.93,0.03-1.72-0.7-1.75-1.63c-0.08-1.96-0.55-3.8-1.3-5.56C62.75,42.35,61.7,40.63,60.48,38.96 L60.48,38.96z M62.63,26.99c-0.87-0.33-1.32-1.3-0.99-2.18c0.33-0.87,1.3-1.32,2.18-0.99c4.64,1.73,9,4.19,12.3,7.67 c2.87,3.02,4.92,6.77,5.67,11.43c0.15,0.92-0.48,1.79-1.41,1.94c-0.92,0.15-1.79-0.48-1.94-1.41c-0.63-3.93-2.36-7.09-4.77-9.63 C70.74,30.76,66.83,28.56,62.63,26.99L62.63,26.99z M42.21,70.23c1.73,0.52,3.6,1.08,5.3,1.53c1.51,0.4,3.83-0.46,6.27-1.36 c3.04-1.12,6.2-2.28,9.99-2.19c2.86,0.07,5.27,1.38,7.7,2.71c1.53,0.84,3.08,1.68,3.94,1.71c0.99,0.03,2.45-0.83,3.91-1.69 c2.39-1.41,4.77-2.81,8.09-2.93c3.56-0.12,6.32,1.11,9.06,2.32c1.56,0.69,3.11,1.38,4.41,1.48c1.22,0.1,2.86-0.95,4.45-1.96 c2.21-1.42,4.38-2.8,7.24-3.12c3.39-0.37,7.1,1.22,10.25,2.58l0.08,0.04c0,3.22,0,6.45,0,9.67c-0.68-0.2-1.38-0.47-2.1-0.76 c-0.5-0.21-1.02-0.43-1.54-0.65c-2.15-0.92-4.69-2.02-5.7-1.91c-0.81,0.09-2.09,0.91-3.39,1.74c-0.48,0.3-0.96,0.61-1.45,0.91 c-2.42,1.47-5.04,2.73-8.5,2.46c-2.81-0.21-5.1-1.23-7.4-2.26l-0.2-0.09c-1.72-0.76-3.44-1.5-4.91-1.46 c-0.9,0.03-2.19,0.76-3.49,1.52l-0.3,0.17c-2.58,1.53-5.18,3.05-8.81,2.92c-2.97-0.11-5.46-1.46-7.92-2.81l-0.31-0.17 c-1.37-0.75-2.68-1.43-3.31-1.45c-1.92-0.05-4.14,0.72-6.3,1.52l-0.37,0.14c-3.77,1.39-7.36,2.71-11.62,1.6 c-2.29-0.6-4.02-1.12-5.61-1.6l-0.05-0.02c-4.02-2.14-12.85-2.06-16.75,0l-0.05,0.02c-1.59,0.48-3.32,1-5.61,1.6 c-4.26,1.11-7.86-0.21-11.62-1.6l-0.37-0.14C3.44,78.09,1.64,77.46,0,77.27v-9.04c3.22,0.16,5.99,1.18,8.67,2.17 c2.43,0.9,4.76,1.76,6.27,1.36c1.69-0.45,3.57-1.01,5.3-1.53C30.39,67.18,32.05,67.18,42.21,70.23L42.21,70.23z M41.06,23.41V7.94 c36.81-2.89,61.7,10.47,63.76,37.93c1.31,3.31,1.28,5.69,0.17,7.33l0.32-0.2c2.21-1.42,4.38-2.8,7.24-3.12 c3.39-0.37,7.1,1.22,10.25,2.58l0.08,0.04c0,3.22,0,6.45,0,9.67c-0.68-0.2-1.38-0.47-2.1-0.76c-0.5-0.21-1.02-0.43-1.54-0.65 c-2.15-0.92-4.69-2.02-5.7-1.91c-0.81,0.09-2.09,0.91-3.39,1.74c-0.48,0.3-0.96,0.61-1.45,0.91c-2.42,1.47-5.04,2.73-8.5,2.46 c-2.81-0.21-5.1-1.23-7.4-2.26l-0.2-0.09c-1.72-0.76-3.44-1.5-4.91-1.46c-0.9,0.03-2.19,0.76-3.49,1.52l-0.3,0.17 c-2.58,1.53-5.18,3.05-8.81,2.92c-2.97-0.11-5.46-1.46-7.92-2.81l-0.31-0.17c-1.37-0.75-2.68-1.43-3.31-1.45 c-1.92-0.05-4.14,0.72-6.3,1.52L56.88,62c-3.77,1.39-7.36,2.71-11.62,1.6c-2.29-0.6-4.02-1.12-5.61-1.6l-0.05-0.02 c-3.96-1.94-12.79-1.89-16.75,0L22.8,62c-1.59,0.48-3.32,1-5.61,1.6c-4.26,1.11-7.86-0.21-11.62-1.6l-0.37-0.14 C3.44,61.22,1.64,60.59,0,60.4v-9.04c3.22,0.16,5.99,1.18,8.67,2.17c2.43,0.9,4.76,1.76,6.27,1.36c1.69-0.45,3.57-1.01,5.3-1.53 c2.54-0.76,4.81-1.44,6.96-1.87c1.36-0.34,2.69-0.47,4.03-0.46c1.34-0.02,2.66,0.12,4.03,0.46c2.15,0.42,4.42,1.11,6.96,1.87 c1.73,0.52,3.6,1.08,5.3,1.53c1.51,0.4,3.83-0.46,6.27-1.36c2.01-0.74,4.09-1.5,6.36-1.91C54.44,41.64,57.58,24.82,41.06,23.41 L41.06,23.41z M0.11,26.45V3.57h13.11v22.89H0.11L0.11,26.45L0.11,26.45z M16.24,27.49V2.08c0-1.14,0.94-2.08,2.08-2.08l0,0 c1.14,0,2.08,0.94,2.08,2.08v25.41c0,1.14-0.94,2.08-2.08,2.08l0,0C17.17,29.57,16.24,28.63,16.24,27.49L16.24,27.49L16.24,27.49z"/></g></svg>