<?xml version="1.0" encoding="utf-8"?><svg version="1.1" id="Layer_1" xmlns="http://www.w3.org/2000/svg" xmlns:xlink="http://www.w3.org/1999/xlink" x="0px" y="0px" viewBox="0 0 122.88 122.88" style="enable-background:new 0 0 122.88 122.88" xml:space="preserve"><style type="text/css">.st0{fill-rule:evenodd;clip-rule:evenodd;}</style><g><path class="st0" d="M61.44,0c33.93,0,61.44,27.51,61.44,61.44c0,33.93-27.51,61.44-61.44,61.44S0,95.37,0,61.44 C0,27.51,27.51,0,61.44,0L61.44,0z M68.89,57.04l-4.26,4.16l4.39,4.5c0.71-0.3,1.49-0.46,2.31-0.46c3.31,0,5.99,2.68,5.99,5.99 c0,3.31-2.68,5.99-5.99,5.99s-5.99-2.68-5.99-5.99c0-0.85,0.18-1.65,0.49-2.38l-4.41-4.51l-4.47,4.37c0.38,0.79,0.59,1.67,0.59,2.6 c0,3.31-2.68,5.99-5.99,5.99c-3.31,0-5.99-2.68-5.99-5.99c0-3.31,2.68-5.99,5.99-5.99c0.73,0,1.43,0.13,2.08,0.37l4.66-4.55 L54.25,57c-0.81,0.41-1.73,0.64-2.7,0.64c-3.31,0-5.99-2.68-5.99-5.99c0-3.31,2.68-5.99,5.99-5.99c3.31,0,5.99,2.68,5.99,5.99 c0,0.69-0.12,1.35-0.33,1.97L61.5,58l4.28-4.18c-0.28-0.69-0.44-1.45-0.44-2.25c0-3.31,2.68-5.99,5.99-5.99s5.99,2.68,5.99,5.99 c0,3.31-2.68,5.99-5.99,5.99C70.46,57.56,69.63,57.38,68.89,57.04L68.89,57.04z M61.44,21.92c21.83,0,39.52,17.69,39.52,39.52 c0,21.83-17.69,39.52-39.52,39.52c-21.83,0-39.52-17.69-39.52-39.52C21.92,39.61,39.61,21.92,61.44,21.92L61.44,21.92z"/></g></svg>