<?xml version="1.0" encoding="utf-8"?><svg version="1.1" id="Layer_1" xmlns="http://www.w3.org/2000/svg" xmlns:xlink="http://www.w3.org/1999/xlink" x="0px" y="0px" viewBox="0 0 84.6 122.88" style="enable-background:new 0 0 84.6 122.88" xml:space="preserve"><g><path d="M29.63,14.15l0.56-11.17c0.04-0.8,0.38-1.54,0.91-2.07l0,0C31.65,0.34,32.41,0,33.26,0h24.35c0.85,0,1.61,0.34,2.16,0.9 c0.08,0.08,0.15,0.16,0.22,0.25c0.41,0.51,0.66,1.14,0.7,1.82l0.6,11.18h11.07c1.29,0,2.35,1.01,2.43,2.29l9.81,85.81 c0.15,1.33-0.81,2.54-2.14,2.69c-0.09,0.01-0.18,0.02-0.28,0.02v0H66.1l0.82,14.71h0l0.01,0.17c0,0.84-0.35,1.59-0.91,2.14 c-0.52,0.51-1.23,0.85-2,0.89l-0.03,0c-0.1,0.01-0.12,0.01-0.14,0.01H27.41c-0.11,0-0.23-0.01-0.33-0.03 c-0.7-0.08-1.35-0.4-1.83-0.87c-0.56-0.55-0.91-1.3-0.91-2.15c0-0.09,0.01-0.18,0.02-0.26l0.73-14.62H9.74 c-1.35,0-2.44-1.09-2.44-2.44c0-0.14,0.01-0.29,0.04-0.42l8.53-76.21L1.6,23.65c-1.05-0.17-1.75-1.11-1.58-2.1 c0.17-0.99,1.16-1.67,2.21-1.5l14.04,2.21l0.66-5.94c0.14-1.25,1.19-2.17,2.42-2.17v0H29.63L29.63,14.15z M56.85,14.15l-0.52-9.71 H34.55l-0.49,9.71H56.85L56.85,14.15z M61.67,104.95H29.51l-0.68,13.48h33.58L61.67,104.95L61.67,104.95z M15.43,73.49l62.15,10.29 l-1.1-9.64L16.42,64.7L15.43,73.49L15.43,73.49z M78.01,87.56L15.03,77.13l-1.02,9.11l64.9,9.14L78.01,87.56L78.01,87.56z M79.33,99.13L13.6,89.87l-1.14,10.21h66.98L79.33,99.13L79.33,99.13z M21.08,23.01l50.46,7.93l-1.36-11.92H21.53L21.08,23.01 L21.08,23.01z M71.97,34.7l-51.29-8.06l-0.97,8.63l53.33,8.78L71.97,34.7L71.97,34.7z M73.47,47.83L19.3,38.91l-1.02,9.16 l56.32,9.65L73.47,47.83L73.47,47.83z M75.03,61.5l-57.16-9.79l-1.05,9.36l59.22,9.32L75.03,61.5L75.03,61.5z"/></g></svg>