<svg id="Layer_1" data-name="Layer 1" xmlns="http://www.w3.org/2000/svg" viewBox="0 0 111.58 122.88"><defs><style>.cls-1,.cls-4{fill:#1877f2;}.cls-1{fill-rule:evenodd;}.cls-2{fill:#fff;}.cls-3{fill:#166bda;}</style></defs><title>share-on-facebook-button</title><path class="cls-1" d="M105.55,0H6A6,6,0,0,0,0,6V116.85a6,6,0,0,0,6,6h99.52a6,6,0,0,0,6-6V6a6,6,0,0,0-6-6Z"/><path class="cls-2" d="M23,101l3.68-.26a3.36,3.36,0,0,0,.49,1.54,2,2,0,0,0,1.71.85,1.73,1.73,0,0,0,1.27-.43,1.37,1.37,0,0,0,.45-1,1.39,1.39,0,0,0-.42-1,4.59,4.59,0,0,0-2-.82,8,8,0,0,1-3.64-1.72,3.63,3.63,0,0,1-1.09-2.72,4.09,4.09,0,0,1,.56-2.06,3.78,3.78,0,0,1,1.69-1.53,7.23,7.23,0,0,1,3.08-.55,5.77,5.77,0,0,1,3.67,1A4.55,4.55,0,0,1,34,95.54l-3.65.24a2.31,2.31,0,0,0-.61-1.4,1.82,1.82,0,0,0-1.29-.44,1.47,1.47,0,0,0-1,.32,1.08,1.08,0,0,0-.34.79.87.87,0,0,0,.28.61,2.87,2.87,0,0,0,1.3.52,14.85,14.85,0,0,1,3.63,1.25A3.91,3.91,0,0,1,33.89,99a4.28,4.28,0,0,1,.5,2.09,5,5,0,0,1-.66,2.52,4.43,4.43,0,0,1-1.87,1.74,6.85,6.85,0,0,1-3,.59c-2.13,0-3.61-.46-4.43-1.39A5.75,5.75,0,0,1,23,101Zm13.1-9.47H40v4.94h4.25V91.55h3.89v14.16H44.24V100H40v5.74H36.12V91.55Zm22.31,11.82H54l-.63,2.34h-4l4.72-14.16h4.25l4.7,14.16H59.06l-.63-2.34Zm-.82-3.06-1.37-5.09-1.37,5.09Zm6.79,5.4V91.55h6.47a8.46,8.46,0,0,1,2.75.35,3,3,0,0,1,1.53,1.29,4.25,4.25,0,0,1,.58,2.3,4.31,4.31,0,0,1-.45,2,3.72,3.72,0,0,1-1.22,1.39,4.6,4.6,0,0,1-1.36.56,3.61,3.61,0,0,1,1,.52,4.61,4.61,0,0,1,.62.75,5,5,0,0,1,.54.88l1.89,4.09H72.37l-2.08-4.32a3.11,3.11,0,0,0-.7-1.09,1.48,1.48,0,0,0-1-.33H68.3v5.74Zm3.9-8.41h1.64a6.08,6.08,0,0,0,1-.19,1,1,0,0,0,.62-.45,1.37,1.37,0,0,0,.25-.82,1.4,1.4,0,0,0-.39-1.06A2.14,2.14,0,0,0,70,94.41H68.3V97.3ZM78,91.55H88.37v3H81.89v2.26h6v2.88h-6v2.79h6.68v3.21H78V91.55Z"/><polygon class="cls-3" points="111.58 74.37 0 74.37 0 70.94 111.58 70.94 111.58 74.37 111.58 74.37"/><path class="cls-2" d="M80.74,37.82A25,25,0,1,0,51.91,62.47V45H45.54v-7.2h6.37v-5.5c0-6.24,3.7-9.71,9.41-9.71a35.46,35.46,0,0,1,5.55.52v6.09H63.73c-3.11,0-4.08,2-4.08,3.9V37.8h6.93L65.48,45H59.65V62.44A24.87,24.87,0,0,0,80.74,37.82Z"/><path class="cls-4" d="M65.5,45l1.11-7.19H59.67V33.17c0-2,1-3.9,4.09-3.9h3.13V23.15a36,36,0,0,0-5.55-.51c-5.7,0-9.4,3.47-9.4,9.71v5.5H45.57V45h6.37V62.49a24.44,24.44,0,0,0,7.76,0V45Z"/></svg>