<?xml version="1.0" encoding="utf-8"?><svg version="1.1" id="Layer_1" xmlns="http://www.w3.org/2000/svg" xmlns:xlink="http://www.w3.org/1999/xlink" x="0px" y="0px" viewBox="0 0 122.88 122.65" style="enable-background:new 0 0 122.88 122.65" xml:space="preserve"><style type="text/css"><![CDATA[
	.st0{fill:#2B9BFF;}
	.st1{fill:#FFFFFF;}
]]></style><g><path class="st1" d="M59.07,16.05c4.33-0.81,8.99,0.65,12.08,3.78c3.2,3.13,4.67,7.89,3.79,12.27c-0.84,4.82-4.52,8.99-9.18,10.48 c-4.52,1.52-9.82,0.47-13.37-2.74c-3.6-3.11-5.34-8.19-4.4-12.86C48.95,21.52,53.59,16.93,59.07,16.05L59.07,16.05z"/><path class="st1" d="M25.93,45.53c4.06-8.29,11.13-15.1,19.62-18.74c-4,4.56-7.68,9.52-9.88,15.22 c-3.01,7.34-4.01,15.46-2.98,23.32c-3.72-0.16-7.37,0.89-10.49,2.9C21.18,60.51,22.47,52.51,25.93,45.53L25.93,45.53z"/><path class="st1" d="M77.56,26.8c8.23,3.7,15.19,10.21,19.24,18.31c3.62,7.07,4.97,15.25,3.96,23.12 c-2.2-7.3-5.68-14.32-10.98-19.89c-3.94-4.33-8.79-7.76-13.99-10.39c-0.18-0.86,0.63-1.66,0.84-2.49 C77.77,32.74,77.94,29.71,77.56,26.8L77.56,26.8z"/><path class="st1" d="M28.17,68.38c4.05-1.04,8.56-0.12,11.84,2.5c3.64,2.81,5.67,7.55,5.17,12.13c-0.4,4.44-3.16,8.58-7.09,10.68 c-4.36,2.41-10.02,2.16-14.13-0.65c-4.1-2.68-6.52-7.69-6.03-12.57C18.31,74.8,22.66,69.71,28.17,68.38L28.17,68.38z"/><path class="st1" d="M88.85,68.23c4.05-0.82,8.45,0.27,11.58,2.98c3.7,3.08,5.52,8.2,4.59,12.92c-0.81,4.75-4.38,8.89-8.94,10.44 c-4.08,1.46-8.82,0.8-12.36-1.7c-4.33-2.95-6.63-8.53-5.63-13.68C79,73.79,83.48,69.25,88.85,68.23L88.85,68.23z"/><path class="st1" d="M39.4,95.94c12.78,2.66,26.6-0.15,37.1-7.96c1.47,3.33,3.98,6.11,7.1,7.97 C70.66,104.86,52.33,104.92,39.4,95.94L39.4,95.94z"/><path class="st0" d="M25.05,0.07c23.92-0.12,47.84-0.04,71.76-0.04c13.63,0.07,25.7,12.21,26.01,25.78 c0.04,23.8,0.07,47.59,0.04,71.4c-0.55,13.24-12.16,24.97-25.43,25.45c-24.21-0.03-48.43,0.02-72.65-0.03 c-13.22-0.91-24.46-12.8-24.77-26.03c-0.05-22.96,0-45.93,0.02-68.88c-0.03-2.94,0.35-5.89,1.26-8.69 C4.45,8.71,14.23,0.67,25.05,0.07L25.05,0.07L25.05,0.07z M59.07,16.05C53.59,16.93,48.95,21.52,48,26.99 c-0.94,4.67,0.8,9.74,4.4,12.86c3.55,3.21,8.84,4.26,13.37,2.74c4.66-1.49,8.33-5.66,9.18-10.48c0.88-4.38-0.6-9.15-3.79-12.27 C68.06,16.7,63.4,15.24,59.07,16.05L59.07,16.05L59.07,16.05z M25.93,45.53c-3.46,6.97-4.75,14.98-3.74,22.7 c3.12-2,6.78-3.06,10.49-2.9c-1.02-7.86-0.02-15.98,2.98-23.32c2.21-5.7,5.88-10.66,9.88-15.22 C37.05,30.43,29.99,37.24,25.93,45.53L25.93,45.53L25.93,45.53z M77.56,26.8c0.38,2.9,0.21,5.93-0.94,8.65 c-0.22,0.83-1.02,1.63-0.84,2.49c5.21,2.64,10.05,6.06,13.99,10.39c5.3,5.57,8.78,12.59,10.98,19.89 c1.01-7.87-0.34-16.05-3.96-23.12C92.75,37.02,85.79,30.51,77.56,26.8L77.56,26.8L77.56,26.8z M28.17,68.38 c-5.51,1.33-9.86,6.42-10.24,12.09c-0.49,4.88,1.92,9.89,6.03,12.57c4.11,2.81,9.77,3.07,14.13,0.65c3.93-2.1,6.69-6.24,7.09-10.68 c0.5-4.58-1.53-9.32-5.17-12.13C36.73,68.26,32.22,67.34,28.17,68.38L28.17,68.38L28.17,68.38z M88.85,68.23 C83.48,69.25,79,73.79,78.1,79.2c-1,5.15,1.3,10.72,5.63,13.68c3.53,2.5,8.28,3.16,12.36,1.7c4.56-1.55,8.12-5.69,8.94-10.44 c0.92-4.72-0.89-9.84-4.59-12.92C97.29,68.5,92.9,67.41,88.85,68.23L88.85,68.23L88.85,68.23z M39.4,95.94 c12.93,8.98,31.26,8.91,44.21,0.01c-3.12-1.86-5.63-4.64-7.1-7.97C66,95.79,52.18,98.61,39.4,95.94L39.4,95.94z"/></g></svg>