<?xml version="1.0" encoding="utf-8"?><svg version="1.1" id="Layer_1" xmlns="http://www.w3.org/2000/svg" xmlns:xlink="http://www.w3.org/1999/xlink" x="0px" y="0px" viewBox="0 0 111.58 122.88" style="enable-background:new 0 0 111.58 122.88" xml:space="preserve"><style type="text/css"><![CDATA[
	.st0{fill:#E63E00;}
	.st1{fill:#FFFFFF;}
	.st2{fill-rule:evenodd;clip-rule:evenodd;fill:#FF4500;}
]]></style><g><path class="st2" d="M105.55,0H6.03C2.71,0,0,2.71,0,6.03v110.82c0,3.32,2.71,6.03,6.03,6.03h99.52c3.32,0,6.03-2.71,6.03-6.03 l0-110.82C111.58,2.71,108.87,0,105.55,0L105.55,0L105.55,0z"/><path class="st1" d="M23.02,101.02l3.68-0.26c0.08,0.67,0.24,1.19,0.49,1.54c0.4,0.57,0.97,0.86,1.71,0.86 c0.55,0,0.98-0.14,1.28-0.44c0.3-0.29,0.45-0.63,0.45-1.02c0-0.37-0.14-0.7-0.42-0.99s-0.94-0.56-1.98-0.82 c-1.7-0.43-2.91-1-3.64-1.72c-0.73-0.71-1.1-1.62-1.1-2.73c0-0.72,0.19-1.41,0.56-2.06c0.37-0.65,0.94-1.16,1.69-1.53 s1.78-0.55,3.09-0.55c1.6,0,2.83,0.34,3.67,1.01c0.84,0.67,1.34,1.74,1.5,3.21l-3.65,0.24c-0.1-0.64-0.3-1.11-0.61-1.4 c-0.31-0.29-0.74-0.44-1.29-0.44c-0.45,0-0.79,0.11-1.02,0.32c-0.23,0.21-0.34,0.48-0.34,0.79c0,0.22,0.09,0.43,0.28,0.61 c0.18,0.19,0.61,0.36,1.29,0.52c1.69,0.41,2.91,0.83,3.64,1.25c0.73,0.42,1.27,0.94,1.6,1.57c0.33,0.62,0.5,1.32,0.5,2.1 c0,0.91-0.22,1.74-0.67,2.51c-0.45,0.76-1.07,1.35-1.87,1.74c-0.8,0.4-1.8,0.59-3.02,0.59c-2.13,0-3.61-0.46-4.43-1.39 C23.59,103.63,23.12,102.45,23.02,101.02L23.02,101.02z M46.34,38.78c0,1.56,1.27,2.83,2.83,2.83c1.56,0,2.83-1.27,2.83-2.83 s-1.27-2.83-2.83-2.83C47.61,35.95,46.34,37.22,46.34,38.78L46.34,38.78L46.34,38.78z M62.95,46.59c0.24-0.26,0.22-0.68-0.04-0.92 c-0.18-0.16-0.43-0.21-0.66-0.13c-3.86,2.78-9.07,2.78-12.93,0c-0.34-0.12-0.71,0.06-0.83,0.4c-0.08,0.23-0.03,0.48,0.13,0.65 C52.89,49.71,58.69,49.71,62.95,46.59L62.95,46.59z M59.58,38.78c0,1.56,1.27,2.83,2.83,2.83s2.83-1.27,2.83-2.83 s-1.27-2.83-2.83-2.83S59.58,37.22,59.58,38.78L59.58,38.78L59.58,38.78z M57.23,18.78c0.11-0.46,0.57-0.75,1.03-0.65l7.08,1.57 c0.43-0.84,1.26-1.41,2.2-1.5c1.54-0.16,2.91,0.96,3.07,2.5s-0.96,2.91-2.5,3.07c-1.54,0.16-2.91-0.96-3.07-2.5l-6.43-1.42 l-2.18,9.35c4.19,0.04,8.26,1.39,11.66,3.85c0.17-0.18,0.36-0.34,0.57-0.48c1.86-1.32,4.44-0.88,5.76,0.98 c0.08,0.13,0.15,0.25,0.22,0.39c1.05,2.11,0.19,4.67-1.93,5.72c0.41,3.67-1.24,7.27-4.29,9.35c-3.7,2.59-8.13,3.92-12.64,3.81 c-4.51,0.11-8.94-1.23-12.64-3.81c-3.05-2.08-4.7-5.68-4.29-9.35c-0.13-0.07-0.26-0.14-0.39-0.22c-1.99-1.26-2.58-3.9-1.32-5.89 c0.14-0.2,0.31-0.39,0.48-0.57c1.63-1.59,4.25-1.56,5.84,0.07c3.3-2.4,7.25-3.74,11.32-3.84L57.23,18.78L57.23,18.78z M36.12,91.55 h3.88v4.94h4.24v-4.94h3.89v14.16h-3.89v-5.73h-4.24v5.73h-3.88V91.55L36.12,91.55z M58.43,103.37h-4.4l-0.63,2.33h-3.96 l4.73-14.16h4.25l4.71,14.16h-4.06L58.43,103.37L58.43,103.37z M57.61,100.31l-1.37-5.09l-1.38,5.09H57.61L57.61,100.31z M64.4,105.71V91.55h6.46c1.2,0,2.12,0.12,2.75,0.35c0.63,0.23,1.15,0.66,1.53,1.29c0.39,0.63,0.58,1.4,0.58,2.3 c0,0.78-0.15,1.46-0.45,2.03c-0.3,0.57-0.7,1.04-1.23,1.39c-0.33,0.22-0.79,0.41-1.36,0.56c0.46,0.17,0.8,0.35,1.01,0.52 c0.14,0.12,0.35,0.37,0.62,0.75c0.27,0.38,0.45,0.68,0.54,0.88l1.88,4.09h-4.38l-2.07-4.32c-0.27-0.56-0.49-0.93-0.7-1.09 c-0.28-0.22-0.6-0.33-0.95-0.33H68.3v5.73H64.4L64.4,105.71z M68.3,97.3h1.64c0.18,0,0.52-0.07,1.03-0.19 c0.25-0.06,0.47-0.21,0.63-0.44c0.16-0.24,0.25-0.51,0.25-0.82c0-0.46-0.13-0.81-0.39-1.05c-0.26-0.25-0.74-0.37-1.45-0.37H68.3 V97.3L68.3,97.3z M78,91.55h10.38v3.03h-6.49v2.25h6.01v2.89h-6.01v2.79h6.68v3.2H78V91.55L78,91.55z"/><polygon class="st0" points="111.58,74.37 0,74.37 0,70.94 111.58,70.94 111.58,74.37"/></g></svg>