<?xml version="1.0" encoding="utf-8"?><svg version="1.1" id="Layer_1" xmlns="http://www.w3.org/2000/svg" xmlns:xlink="http://www.w3.org/1999/xlink" x="0px" y="0px" width="111.811px" height="122.88px" viewBox="0 0 111.811 122.88" enable-background="new 0 0 111.811 122.88" xml:space="preserve"><g><path fill-rule="evenodd" clip-rule="evenodd" d="M55.713,0c20.848,13.215,39.682,19.467,55.846,17.989 c2.823,57.098-18.263,90.818-55.63,104.891C19.844,109.708-1.5,77.439,0.083,17.123C19.058,18.116,37.674,14.014,55.713,0L55.713,0 z M45.404,77.353c-0.965,1.093-2.606,1.172-3.667,0.178c-1.06-0.994-1.137-2.687-0.172-3.779l10.837-12.312L41.565,49.128 c-0.965-1.093-0.888-2.785,0.172-3.779c1.061-0.995,2.702-0.915,3.667,0.178l10.502,11.931l10.502-11.931 c0.965-1.093,2.606-1.173,3.667-0.178c1.06,0.995,1.137,2.687,0.172,3.779L59.41,61.439l10.837,12.312 c0.965,1.093,0.888,2.785-0.172,3.779c-1.061,0.994-2.702,0.915-3.667-0.178L55.906,65.421L45.404,77.353L45.404,77.353z M55.735,7.055c18.454,11.697,35.126,17.232,49.434,15.923c2.498,50.541-16.166,80.39-49.241,92.846 C23.986,104.165,5.091,75.603,6.493,22.211C23.29,23.091,39.768,19.46,55.735,7.055L55.735,7.055z"/></g></svg>