<?xml version="1.0" encoding="utf-8"?><svg version="1.1" id="Layer_1" xmlns="http://www.w3.org/2000/svg" xmlns:xlink="http://www.w3.org/1999/xlink" x="0px" y="0px" viewBox="0 0 106.56 122.88" style="enable-background:new 0 0 106.56 122.88" xml:space="preserve"><style type="text/css">.st0{fill-rule:evenodd;clip-rule:evenodd;}</style><g><path class="st0" d="M24,4.59l29.65,31.49L82.52,4.57C82.1,4.3,81.6,4.14,81.06,4.14H60.53l-35.76,0.1 C24.49,4.31,24.23,4.43,24,4.59L24,4.59z M3.74,24.36h14.95V6.87c0-1.31,0.37-2.54,1.01-3.58c0.43-1.8,2.04-3.13,3.96-3.13l0.66,0 c0.38-0.07,0.77-0.1,1.16-0.1V0.05h0.01h41.12L82.97,0v0c0.98,0,1.97,0.35,2.75,1.07c0.74,0.68,1.17,1.56,1.29,2.49 c0.54,0.98,0.85,2.11,0.86,3.31h0.02v0.01h-0.02v17.49h14.95c2.05,0,3.74,1.71,3.74,3.81v90.89c0,2.1-1.68,3.81-3.74,3.81H3.74 c-2.05,0-3.74-1.72-3.74-3.81V28.18C0,26.08,1.68,24.36,3.74,24.36L3.74,24.36z M49.9,38.05L22.76,9.23v37.4 c0,1.51,1.37,3.37,2.74,2.74L49.9,38.05L49.9,38.05z M59.32,43.5l-1.86-0.89l-3.88-1.5l-5.13,2.22v79.15h10.87V43.5L59.32,43.5z M83.79,9.2L57.36,38.04l23.7,11.33c1.36,0.65,2.74-1.23,2.74-2.74V9.2L83.79,9.2z M18.67,6.87L18.67,6.87L18.67,6.87z M90.19,74.86c1.14,0,2.06,0.93,2.06,2.06s-0.93,2.06-2.06,2.06c-1.14,0-2.06-0.93-2.06-2.06S89.05,74.86,90.19,74.86L90.19,74.86z M65.31,73.43h29.66v7.15H65.31V73.43L65.31,73.43z"/></g></svg>