<?xml version="1.0" encoding="utf-8"?><svg version="1.1" id="Layer_1" xmlns="http://www.w3.org/2000/svg" xmlns:xlink="http://www.w3.org/1999/xlink" x="0px" y="0px" viewBox="0 0 122.88 100.92" style="enable-background:new 0 0 122.88 100.92" xml:space="preserve"><g><path d="M0,100.92c0.81-25.87,1.6-59.68,2.4-85.53c0-0.04,0-0.09,0-0.13c0-0.09,0-0.18,0.02-0.27l0,0l0.4-12.75 C2.85,0.99,3.88,0,5.12,0l0,0h112.79c1.28,0,2.3,1.04,2.3,2.3l0,0l0,0l0,0l0,0l0,0l0,0l0,0l0,0l0,0l0,0l0,0l0,0l0,0l0,0l0,0l0,0 l0,0l0,0l0,0l0,0l0,0l0,0l0,0l0,0l0,0l0,0l0,0l0,0l0,0l0,0l0,0l0,0l0,0l0,0l0,0l0,0l0,0l0,0l0,0l0,0l0,0l0,0l0,0l0,0l0,0l0,0l0,0 l0,0l0.36,12.34c0.04,0.18,0.05,0.36,0.05,0.54c0,0.14-0.02,0.27-0.04,0.4l2.29,85.35h-1.41h-3.18H70.17h-2.5h-2.13l-4.06-26.13 l-4.12,26.13h-1.3h-3.33H4.6H0.64H0L0,100.92z M118.19,96.9L116.96,48c-7.79-1.49-14.48-4.42-19.67-9.32 c-5.22-4.91-8.87-11.76-10.52-21.04c-13.15,0-19.04,0-22.51,0v25.33c0,1.55-1.26,2.82-2.82,2.82c-1.55,0-2.82-1.26-2.82-2.82V17.63 c-3.06,0-7.76-0.01-22.74-0.01c-1.64,9.3-5.29,16.13-10.52,21.04C20.24,43.5,13.64,46.42,6,47.93L4.71,96.9h48.63l5.9-39.23l0,0 c0.14-1.01,0.94-1.83,1.98-1.96c1.26-0.16,2.43,0.72,2.59,1.98l5.78,39.21H118.19L118.19,96.9z M91.46,17.62 c1.53,7.84,4.62,13.58,8.99,17.7c4.3,4.05,9.87,6.56,16.38,7.95l-0.77-25.64H91.46L91.46,17.62L91.46,17.62z M6.14,43.2 c6.37-1.4,11.83-3.9,16.06-7.88c4.35-4.1,7.46-9.85,8.99-17.7H6.95L6.14,43.2L6.14,43.2L6.14,43.2z"/></g></svg>