<svg id="Layer_1" data-name="Layer 1" xmlns="http://www.w3.org/2000/svg" viewBox="0 0 122.88 122.88"><defs><style>.cls-1{fill:#3a76f0;fill-rule:evenodd;}.cls-2{fill:#fff;}</style></defs><title>signal-round-color</title><path class="cls-1" d="M61.44,0A61.44,61.44,0,1,1,0,61.44,61.44,61.44,0,0,1,61.44,0Z"/><path class="cls-2" d="M61.44,31.67A29.77,29.77,0,0,0,36.25,77.28L33.39,89.49,45.6,86.63a29.77,29.77,0,1,0,15.84-55ZM44.44,90l-4.92,1.15.78,3.34,3.62-.84A36.33,36.33,0,0,0,52.63,97l.82-3.34a32.83,32.83,0,0,1-9-3.71l0,0Zm-16-7.44,3.35.77,1.14-4.91a33.16,33.16,0,0,1-3.69-9l-3.33.83a36.23,36.23,0,0,0,3.37,8.7l-.84,3.63Zm8.06,9.28L29.38,93.5,31,86.41l-3.35-.79L26,92.72a3.43,3.43,0,0,0,4.12,4.12l7.09-1.63-.78-3.37Zm20-63.24a33.86,33.86,0,0,1,10,0l.51-3.39a36.74,36.74,0,0,0-11,0l.52,3.39ZM92.82,42.5l-2.94,1.76a33.37,33.37,0,0,1,3.8,9.2L97,52.64A36.46,36.46,0,0,0,92.82,42.5Zm-58.1-.75a33,33,0,0,1,7-7l-2.06-2.77A36.65,36.65,0,0,0,32,39.68l2.77,2.07Zm46.41-7a33.09,33.09,0,0,1,7,7l2.77-2.07a36.88,36.88,0,0,0-7.74-7.74l-2.07,2.77Zm7,46.42a33.09,33.09,0,0,1-7,7l2,2.76a36.79,36.79,0,0,0,7.77-7.74l-2.77-2.06ZM66.42,94.27a33.19,33.19,0,0,1-10,0L56,97.67a36.74,36.74,0,0,0,11,0l-.52-3.4ZM97,70.23l-3.33-.82a33.45,33.45,0,0,1-3.81,9.21l2.94,1.77A36.43,36.43,0,0,0,97,70.23Zm-2.36-8.79a33.17,33.17,0,0,1-.38,5l3.39.52a36.74,36.74,0,0,0,0-11l-3.39.51a33.2,33.2,0,0,1,.38,5ZM80.38,92.81l-1.76-2.94a33.39,33.39,0,0,1-9.2,3.81L70.25,97a36.55,36.55,0,0,0,10.13-4.2ZM28.24,61.44a33.19,33.19,0,0,1,.37-5L25.22,56a36.74,36.74,0,0,0,0,11l3.39-.52a33.16,33.16,0,0,1-.37-5ZM30.07,42.5a36.61,36.61,0,0,0-4.2,10.14l3.33.82A33.39,33.39,0,0,1,33,44.26L30.07,42.5ZM70.23,25.87l-.82,3.33A33.43,33.43,0,0,1,78.62,33l1.77-2.94a36.58,36.58,0,0,0-10.16-4.19Zm-17.58,0,.82,3.33A33.43,33.43,0,0,0,44.26,33L42.5,30.06a36.64,36.64,0,0,1,10.15-4.19Z"/></svg>