<svg xmlns="http://www.w3.org/2000/svg" shape-rendering="geometricPrecision" text-rendering="geometricPrecision" image-rendering="optimizeQuality" fill-rule="evenodd" clip-rule="evenodd" viewBox="0 0 378.97 511.46"><path fill-rule="nonzero" d="M34.55.07 221.72.05c9.19-.12 13.81-.18 19.13 2.03 5.37 2.23 8.61 5.57 15.1 12.26 1.59 1.63 3.43 3.52 5.61 5.72 17.13 17.21 32.98 33.58 48.83 49.94 15.33 15.82 30.67 31.66 47.18 48.28 2.96 2.98 5.49 5.4 7.58 7.41 6.03 5.79 9.21 8.84 11.46 14.03 2.45 5.62 2.41 10.62 2.34 21.15 0 .88.01-.99.01 6.89v309.15c0 18.97-15.58 34.55-34.55 34.55H34.55C15.58 511.46 0 495.87 0 476.91V34.62c0-9.46 3.88-18.09 10.14-24.37l.07-.06C16.48 3.94 25.1.07 34.55.07zm108.52 306.12h2.43v-7.47c0-12.47 4.92-23.85 12.84-32.11 8-8.32 19.02-13.5 31.17-13.5 12.15 0 23.19 5.17 31.17 13.5 7.93 8.26 12.83 19.63 12.83 32.11v7.47h2.44c3.95 0 7.18 3.23 7.18 7.18v65.37c0 3.95-3.23 7.18-7.18 7.18h-92.88c-3.95 0-7.18-3.23-7.18-7.18v-65.37c0-3.95 3.23-7.18 7.18-7.18zm40.75 43.1-4.66 16.75h20.69l-4.11-17.03c4.41-2.26 7.42-6.83 7.42-12.13 0-7.53-6.11-13.63-13.66-13.63-7.53 0-13.64 6.1-13.64 13.63 0 5.51 3.26 10.24 7.96 12.41zm-24.73-43.1h60.83v-7.47c0-8.87-3.45-16.9-9.01-22.71-5.52-5.73-13.09-9.29-21.41-9.29-8.31 0-15.88 3.56-21.39 9.29-5.56 5.81-9.02 13.84-9.02 22.71v7.47zm-56.54-113.3h173.92c19.08 0 34.75 15.67 34.75 34.75v183.75c0 9.55-3.92 18.25-10.21 24.54-6.3 6.3-14.99 10.21-24.54 10.21H102.55c-9.55 0-18.24-3.91-24.54-10.2l-.43-.47c-6.04-6.27-9.78-14.76-9.78-24.08V227.64c0-19.09 15.66-34.75 34.75-34.75zm173.92 14.92H102.55c-10.93 0-19.84 8.9-19.84 19.83v183.75c0 5.31 2.1 10.13 5.49 13.68l.35.33c3.6 3.6 8.56 5.83 14 5.83h173.92c5.44 0 10.4-2.23 14-5.84 3.6-3.6 5.84-8.56 5.84-14V227.64c0-10.9-8.93-19.83-19.84-19.83zM213.55 22.43h-179c-3.37 0-6.41 1.36-8.6 3.55l-.04.04a12.12 12.12 0 0 0-3.55 8.6v442.29c0 6.73 5.45 12.18 12.19 12.18h309.86c6.73 0 12.19-5.46 12.19-12.18V167.76c0-2.7.04-2.01.07-6.98.05-7.34.08-10.82-.5-12.15-.47-1.09-2.55-3.09-6.48-6.87-2.16-2.07-4.76-4.56-7.93-7.76-16.56-16.66-31.96-32.56-47.35-48.45-15.79-16.3-31.58-32.6-48.66-49.76-2.22-2.23-4.13-4.2-5.78-5.91-4.34-4.46-6.51-6.7-7.68-7.18-1.19-.5-4.24-.46-10.3-.38l-8.44.11z"/></svg>