<svg id="Layer_1" data-name="Layer 1" xmlns="http://www.w3.org/2000/svg" viewBox="0 0 122.88 100.1"><title>singapore-dollar</title><path d="M87,90.74l-1-.06c-2.3-.14-4.57-.36-6.79-.66s-4.36-.62-6.41-1-4-.8-5.91-1.31V70.86q3.72.33,8,.55t8.76.33q4.42.11,8.27.11a28.07,28.07,0,0,0,6-.55,7.24,7.24,0,0,0,3.61-1.76,4.39,4.39,0,0,0,1.21-3.28V65a4.15,4.15,0,0,0-1.7-3.62,6.74,6.74,0,0,0-4-1.2h-5.8q-12.7,0-19.28-5.59T65.38,35.81V32.2q0-12,7.23-18Q78,9.73,87,8.6V0H98.79V8.36c1.48.08,2.92.2,4.32.35q4.55.49,8.54,1.2t7.18,1.48V28.26c-3.36-.3-7.14-.53-11.34-.72s-8-.27-11.44-.27a31,31,0,0,0-5.48.44,6.79,6.79,0,0,0-3.72,1.75,5.18,5.18,0,0,0-1.32,3.83v1.1a5.05,5.05,0,0,0,1.76,4.16Q89,40,92.65,40h7.23q7.66,0,12.76,2.91a19,19,0,0,1,7.67,7.88,24.41,24.41,0,0,1,2.57,11.34v3.61q0,10.41-3.61,15.88A17.7,17.7,0,0,1,109,89,50.51,50.51,0,0,1,98.79,90.7v9.4H87V90.74ZM27.6,90.9c-2.41,0-4.76-.07-7.07-.22S16,90.32,13.75,90s-4.37-.62-6.41-1-4-.8-5.92-1.31V70.86q3.74.33,8.05.55t8.77.33c3,.07,5.71.11,8.26.11a28.17,28.17,0,0,0,6-.55,7.28,7.28,0,0,0,3.61-1.76,4.43,4.43,0,0,0,1.21-3.28V65a4.15,4.15,0,0,0-1.7-3.62,6.76,6.76,0,0,0-4-1.2h-5.8q-12.71,0-19.28-5.59T0,35.81V32.2q0-12,7.23-18T28,8.21a89.61,89.61,0,0,1,9.69.5q4.55.49,8.54,1.2t7.18,1.48V28.26c-3.36-.3-7.14-.53-11.34-.72s-8-.27-11.44-.27a31,31,0,0,0-5.48.44,6.76,6.76,0,0,0-3.72,1.75,5.18,5.18,0,0,0-1.32,3.83v1.1a5.08,5.08,0,0,0,1.75,4.16Q23.66,40,27.27,40H34.5q7.66,0,12.76,2.91a18.93,18.93,0,0,1,7.66,7.88A24.29,24.29,0,0,1,57.5,62.1v3.61q0,10.41-3.62,15.88A17.71,17.71,0,0,1,43.59,89a58.4,58.4,0,0,1-16,1.92Z"/></svg>