<?xml version="1.0" encoding="utf-8"?><svg version="1.1" id="Layer_1" xmlns="http://www.w3.org/2000/svg" xmlns:xlink="http://www.w3.org/1999/xlink" x="0px" y="0px" viewBox="0 0 52.46 122.88" style="enable-background:new 0 0 52.46 122.88" xml:space="preserve"><style type="text/css">.st0{fill-rule:evenodd;clip-rule:evenodd;}</style><g><path class="st0" d="M31.14,26.72c-5.63,0-11.79-0.91-17.02,1.2v0c-4.03,1.81-7.82,5.8-10.32,11.06c-1.98,4.17-2.5,7.31-2.83,11.78 C0.32,55.25-0.02,59.7,0,64.1c0.12,0.76,0.33,1.4,0.62,1.95h9.06c0.41-0.57,0.7-1.23,0.81-1.95l1.06-13.78 c0.16-2.08,0.3-3.49,1.14-5.47c0.4-0.93,0.87-1.73,1.43-2.39l0.08,3.69v-0.11l0.44,21.46l-6.91,49.1 c0.08,8.1,10.98,8.05,12.17,1.37l6.26-44.64l6.12,44.06c2.58,9.06,13.18,5.67,12.17-1.22l-1.81-13.88l-4.76-35.03l0.37-21.67v0.42 l0.02-0.88v1.05l0.08-3.69c0.56,0.66,1.03,1.46,1.43,2.39c0.84,1.98,0.98,3.39,1.14,5.47l1.06,13.78c0.44,5.88,10.35,4.99,10.49,0 c0.02-4.4-0.32-8.84-0.97-13.34c-0.33-4.46-0.85-7.6-2.83-11.78c-2.51-5.3-6.33-9.3-10.39-11.09v0.01 C36.17,27.12,33.82,26.72,31.14,26.72L31.14,26.72z M26.17,0C33,0,38.53,5.53,38.53,12.36c0,6.83-5.53,12.36-12.36,12.36 c-6.82,0-12.36-5.53-12.36-12.36C13.81,5.53,19.35,0,26.17,0L26.17,0z"/></g></svg>