<svg id="Layer_1" data-name="Layer 1" xmlns="http://www.w3.org/2000/svg" viewBox="0 0 122.88 120.76"><defs><style>.cls-1{fill:#ef4136;}.cls-2{fill:#1a1a1a;}</style></defs><title>six-weeks</title><path class="cls-1" d="M34.19,84.72h6.22l-2.92,18.59H29.73l-1.37-6.84H28l-1.33,6.84H18.9L16,84.72H22.2L23.6,95.1h.18l2.14-10.38h4.55L32.58,95.1h.18l1.43-10.38ZM54,96.29h-6v2.26h7.28v4.76H42.12V84.72H55.21l-.75,4.76H48.07V92h6v4.31Zm16,0H64.06v2.26h7.28v4.76H58.11V84.72H71.19l-.74,4.76H64.06V92H70v4.31Zm10-1.07v8.09h-6V84.72h6v7.59h.12a4.25,4.25,0,0,1,.3-1.43l2.92-6.16H89.8l-4.46,9.14L90,103.31H83.52l-3.06-6.66a4.25,4.25,0,0,1-.3-1.43ZM91.22,103l.83-4.91a20.73,20.73,0,0,0,4.92.68,29.73,29.73,0,0,0,3.52-.17V97.1l-2.67-.24q-3.63-.33-5-1.74a5.8,5.8,0,0,1-1.36-4.18q0-3.81,1.65-5.23c1.1-1,3-1.43,5.61-1.43a31.77,31.77,0,0,1,7.14.74l-.75,4.76a29,29,0,0,0-4.43-.45,22.39,22.39,0,0,0-2.82.15v1.46l2.14.21q3.9.39,5.38,1.86a5.49,5.49,0,0,1,1.49,4.09,8.84,8.84,0,0,1-.5,3.16,5.4,5.4,0,0,1-1.21,2,4.52,4.52,0,0,1-2,1,11,11,0,0,1-2.24.43c-.65.06-1.51.08-2.58.08a31.56,31.56,0,0,1-7.16-.77Z"/><path class="cls-2" d="M82.69,4.21C82.69,1.87,85,0,87.84,0S93,1.91,93,4.21v18.5c0,2.34-2.3,4.21-5.16,4.21s-5.15-1.9-5.15-4.21V4.21ZM64,60.85V56.14H61.9a4.64,4.64,0,0,0-2.37.44c-.45.3-.67,1-.67,2.06v4.72H61a4.54,4.54,0,0,0,2.38-.45c.44-.3.67-1,.67-2.06Zm10-7.91a18.53,18.53,0,0,1,1,6.6,18.57,18.57,0,0,1-1,6.6,8,8,0,0,1-3,4,12.37,12.37,0,0,1-4.25,1.79,25.74,25.74,0,0,1-5.33.48q-7.78,0-10.72-4.65T47.78,52.85a46.22,46.22,0,0,1,.67-8.59,16.08,16.08,0,0,1,2.42-6q3.36-5,13.09-5a35.79,35.79,0,0,1,5.18.5,29.74,29.74,0,0,1,4.77,1L72.36,44a40.31,40.31,0,0,0-8-.84,20.55,20.55,0,0,0-5.54.54v3.05h2.58a26.51,26.51,0,0,1,5.33.47A12.56,12.56,0,0,1,71,49a8.08,8.08,0,0,1,3,4ZM29.67,4.21C29.67,1.87,32,0,34.83,0S40,1.91,40,4.21v18.5c0,2.34-2.3,4.21-5.16,4.21s-5.16-1.9-5.16-4.21V4.21ZM6.76,111.3a2.66,2.66,0,0,0,.76,1.87,2.56,2.56,0,0,0,1.87.75h104a2.65,2.65,0,0,0,1.86-.75,2.56,2.56,0,0,0,.75-1.87v-91a2.56,2.56,0,0,0-2.57-2.58h-8.33c-1.59,0-2.86-2.35-2.86-3.94a2.85,2.85,0,0,1,2.86-2.86h9.41a8.4,8.4,0,0,1,8.34,8.34v93.2a8.38,8.38,0,0,1-8.34,8.34H8.34a8.28,8.28,0,0,1-5.88-2.45A8.37,8.37,0,0,1,0,112.42V19.22a8.29,8.29,0,0,1,2.46-5.88,8.35,8.35,0,0,1,5.88-2.46H18.43a2.85,2.85,0,0,1,2.86,2.86c0,1.59-1.27,3.94-2.86,3.94h-9a2.69,2.69,0,0,0-1.87.75A2.59,2.59,0,0,0,6.8,20.3c0,28.81,0,62.06,0,91ZM51.55,17.64c-1.59,0-2.86-2.35-2.86-3.94a2.85,2.85,0,0,1,2.86-2.86H70.77a2.84,2.84,0,0,1,2.85,2.86c0,1.59-1.26,3.94-2.85,3.94Z"/></svg>