<svg xmlns="http://www.w3.org/2000/svg" shape-rendering="geometricPrecision" text-rendering="geometricPrecision" image-rendering="optimizeQuality" fill-rule="evenodd" clip-rule="evenodd" viewBox="0 0 512 488.58"><path fill-rule="nonzero" d="m202.79 10.53 123.29 123.2c21.18 23.62 34.07 38.86 33.91 73.56l152.01 152-17.96 17.96-146.28-146.28c-12.01-12.01-11.87-12.61-10.56-18.47 4.28-18.55-7-43.1-20.01-56.11-43.36-43.36-86.77-86.67-130.13-130.03-13.66-13.67-35.46 8.08-21.82 21.72l45.59 45.59.24.23c1.3 1.31 1.3 3.45 0 4.75l-11.03 11.03a3.35 3.35 0 0 1-4.74 0l-71.56-71.56c-13.44-13.44-35.49 8.06-21.77 21.78l71.55 71.55c1.31 1.31 1.31 3.45 0 4.75l-11.67 11.67a3.362 3.362 0 0 1-4.75 0l-95.7-95.7c-13.5-13.5-35.46 8-21.78 21.68l95.75 95.75a3.362 3.362 0 0 1 0 4.75l-11.39 11.4a3.38 3.38 0 0 1-4.75 0l-71.32-71.32c-13.7-13.71-35.25 8.29-21.72 21.82 17.3 17.3 36.6 36.8 55.92 56.19 16.98 17.18 33.96 34.25 55.72 56.02 3.54 4.01 34.66 32.19 11.74 36.38-16.16 4.45-40.53-.02-53.74 6.1-8.76 4.28-12.94 13.16-7.96 21.72 2.05 3.44 5.54 6.38 10.56 8.24 8.43 3.15 22.44 1.86 31.73 1.86 23.8 0 67.37-.04 98.3-4.25 15.86-2.13 25.04 4.76 34.45 14.17l137.84 137.85-18.04 18.05-147.12-147.12c-29.73 4.43-69.56 3.86-96.92 3.49-15.3-.24-36.57 1.7-50.42-4.09-31.26-13.16-33.22-52.86-3.3-68.81 12.45-6.57 24.51-6.03 38.05-6.43-37.65-37.64-74.97-75.9-112.69-113.6-19.2-19.21-10.04-51.94 14.71-61.13-32.14-32.14 7.8-76.43 40.38-62.66 5.17 2.19 8.92 5.22 12.79 9.11 9.69-24.9 41.67-34.74 61.28-15.13l2.37 2.37C153.06.59 183.1-9.15 202.79 10.53zm240.08 346.15c7.52 0 14.33 3.05 19.24 7.97a27.123 27.123 0 0 1 7.97 19.24c0 7.52-3.05 14.33-7.97 19.24a27.106 27.106 0 0 1-19.24 7.97c-7.51 0-14.33-3.05-19.24-7.97a27.147 27.147 0 0 1-7.97-19.24c0-7.51 3.06-14.33 7.97-19.24a27.123 27.123 0 0 1 19.24-7.97zm10 17.21a14.11 14.11 0 0 0-10-4.14c-3.9 0-7.44 1.59-10 4.14a14.145 14.145 0 0 0 0 20c2.56 2.55 6.1 4.14 10 4.14 3.91 0 7.45-1.59 10-4.14 2.56-2.55 4.14-6.1 4.14-10 0-3.9-1.58-7.44-4.14-10zm-85.71-22.41c7.07 0 12.8 5.73 12.8 12.8s-5.73 12.8-12.8 12.8-12.8-5.73-12.8-12.8 5.73-12.8 12.8-12.8zm-56.36-73.85c7.52 0 14.33 3.05 19.24 7.97a27.123 27.123 0 0 1 7.97 19.24c0 7.52-3.05 14.33-7.97 19.24a27.106 27.106 0 0 1-19.24 7.97c-7.51 0-14.33-3.05-19.24-7.97a27.106 27.106 0 0 1-7.97-19.24c0-7.51 3.05-14.33 7.97-19.24a27.123 27.123 0 0 1 19.24-7.97zm10 17.21a14.11 14.11 0 0 0-10-4.14c-3.9 0-7.44 1.59-10 4.14-2.55 2.55-4.14 6.1-4.14 10 0 3.9 1.59 7.45 4.14 10 2.56 2.55 6.1 4.14 10 4.14 3.91 0 7.45-1.59 10-4.14s4.14-6.1 4.14-10c0-3.9-1.59-7.45-4.14-10zm-35.97-89.02c6.15 0 11.14 4.99 11.14 11.14s-4.99 11.14-11.14 11.14-11.14-4.99-11.14-11.14 4.99-11.14 11.14-11.14zm-50.44 50.17c7.07 0 12.8 5.73 12.8 12.8 0 7.06-5.73 12.8-12.8 12.8s-12.8-5.74-12.8-12.8c0-7.07 5.73-12.8 12.8-12.8zm-62.38-76.04c7.07 0 12.8 5.74 12.8 12.8 0 7.07-5.73 12.8-12.8 12.8s-12.8-5.73-12.8-12.8c0-7.06 5.73-12.8 12.8-12.8zm70.47-49.64c7.51 0 14.32 3.06 19.24 7.97 4.91 4.92 7.97 11.73 7.97 19.24 0 7.52-3.06 14.33-7.97 19.25-4.92 4.91-11.73 7.97-19.24 7.97-7.52 0-14.33-3.06-19.25-7.97-4.91-4.92-7.97-11.73-7.97-19.25 0-7.51 3.06-14.32 7.97-19.24 4.92-4.91 11.73-7.97 19.25-7.97zm9.99 17.21a14.104 14.104 0 0 0-9.99-4.14c-3.91 0-7.45 1.59-10 4.14-2.56 2.56-4.15 6.1-4.15 10 0 3.91 1.59 7.45 4.15 10 2.55 2.56 6.09 4.15 10 4.15 3.9 0 7.44-1.59 9.99-4.15 2.56-2.55 4.15-6.09 4.15-10 0-3.9-1.59-7.44-4.15-10z"/></svg>