<?xml version="1.0" encoding="utf-8"?><svg version="1.1" id="Layer_1" xmlns="http://www.w3.org/2000/svg" xmlns:xlink="http://www.w3.org/1999/xlink" x="0px" y="0px" viewBox="0 0 86.54 122.88" style="enable-background:new 0 0 86.54 122.88" xml:space="preserve"><style type="text/css"><![CDATA[
	.st0{fill-rule:evenodd;clip-rule:evenodd;}
]]></style><g><path class="st0" d="M64.95,23.79c-3.03-1.49-6.62-1.82-10.06-0.64s-6.08,3.64-7.57,6.67s-1.82,6.62-0.64,10.06 c1.18,3.44,3.64,6.08,6.67,7.57c3.03,1.49,6.62,1.82,10.06,0.64c3.44-1.18,6.08-3.64,7.57-6.67c1.48-3.03,1.82-6.62,0.64-10.06 C70.44,27.92,67.98,25.28,64.95,23.79L64.95,23.79L64.95,23.79L64.95,23.79z M13.35,10.27c-1.23-2.31-2.39-4.67-3.43-7.08 C11.85,0.22,21-0.93,23.98,0.84L22.5,6.99c1.02-1.93,1.34-2.7,1.96-3.78c0.36,0.16,0.71,0.35,1.04,0.56 c0.79,0.51,1.52,1.1,1.8,2.04c0.18,0.61,0.11,1.27-0.34,2.01l-4.49,7.39c-0.73,0-1.46-0.06-2.18-0.19 c0.19-0.79,0.44-1.67,0.63-2.47l-1.66,2.52c-2.18-0.1-3.83,0.45-5.27,1.54l-6.75-5.84c-0.4-0.35-0.62-0.73-0.68-1.13 C6.3,8.02,8.5,6.21,9.69,5.46L13.35,10.27L13.35,10.27L13.35,10.27z M22.59,21.3l-1.93-4.85c4.86,0.1,13.98,8.44,17.14,12.4 c1.61,2.02,3.11,4.29,4.45,6.88c1.69,3.73,2.14,7.5,0.82,10.52c8.56,1.41,12.89,6.26,16.31,10.12c1.31,1.47,2.93,4.72,5.18,4.31 c4.23-0.76,16.87-1.46,18.11-1.9l3.86,11.12c-3.67,1.13-25.92,4.67-28.14,3.95c-3.82-1.47-6.09-3.4-8.06-5.38l-7.32,10.95 c2.24,1.35,4.48,2.39,6.6,3.38l0,0c7.44,3.47,13.56,6.33,14.89,18.15c0.12,1.04,0.15,2.07,0.13,3.12 c-0.01,1.06-0.07,2.02-0.12,3.02v0.03c-0.02,0.33-0.04,0.68-0.07,1.37l-0.33,9.91l-14.78,0.04c0.27-8.49,0.22-3.68,0.22-12.14 c0.06-1.13,0.12-2.18,0.06-3.13c-0.05-0.84-0.2-1.62-0.53-2.34l-0.1-0.23c-0.36-0.78-0.68-1.5-0.93-1.62 c-1.16-0.54-3.05-1.23-5.23-1.94c-2.18-0.72-4.56-1.44-6.73-2.06c-3.89,12.7-3.91,15.99-10.04,27.8l-15.55,0.09 c5.96-14.65,6.73-20.11,11.32-35.26c-6.49-9.25,4.51-15.32,6.82-27.27c-1.96-0.18-6.76-0.27-10.9,0.93 c-5.16,1.49-8.97,4.14-12.13,8.32L0,59.18c0.34-0.04,0.99-1.23,7.23-4.67C5.9,53.95,4.78,53.09,4,51.8 c-4.71-7.9-0.28-18.95,4.26-26.02c0.6-0.93,1.23-1.81,1.9-2.63c1.73-2.11,3.56-4.58,6.01-5.88l-1.74,5.09l2.85-5.43l1.92-0.32 L22.59,21.3L22.59,21.3L22.59,21.3z"/></g></svg>