<?xml version="1.0" encoding="utf-8"?><svg version="1.1" id="Layer_1" xmlns="http://www.w3.org/2000/svg" xmlns:xlink="http://www.w3.org/1999/xlink" x="0px" y="0px" viewBox="0 0 122.88 121.24" style="enable-background:new 0 0 122.88 121.24" xml:space="preserve"><g><path d="M52.12,105.03c-0.68,4.24-2.58,7.71-5.25,10.34c-2.39,2.36-5.38,4.03-8.63,4.97c-3.23,0.94-6.72,1.15-10.14,0.61 c-4.56-0.73-8.99-2.82-12.5-6.37c-7.01-7.1-6.75-12.83-6.4-20.61c0.05-1.04,0.1-2.12,0.13-3.15c0.16-5.38-0.23-10.57-1.28-16.08 C6.99,69.23,5.26,63.4,2.73,56.76C1.31,53.04,0.39,48.1,0.1,43.12c-0.28-4.85,0.02-9.77,1.03-13.69c0.91-3.51,1.91-6.82,3.12-9.84 c1.23-3.07,2.68-5.88,4.46-8.36c3.58-4.98,8.52-8.64,14-10.27c5.17-1.55,10.82-1.3,16.25,1.31c1.26,0.6,2.47,1.33,3.62,2.18 c1.13,0.83,2.2,1.78,3.2,2.86c5,5.33,7.42,11.1,8.2,17.2c0.77,6-0.08,12.28-1.63,18.75c-0.49,2.04-0.87,3.56-1.26,5.08l-0.02,0.1 c1.42,7.46,0.4,11.06-1.81,20.65l-1.92,8.29c0.14,1.43,0.35,2.87,0.63,4.33c0.21,1.08,0.41,2.1,0.64,3.09 c0.22,0.95,0.48,1.86,0.79,2.74c0.97,2.74,1.89,5.55,2.45,8.44C52.42,98.94,52.62,101.95,52.12,105.03L52.12,105.03z M29.56,17.94 c0.09-1.35,1.26-2.37,2.61-2.28c1.35,0.09,2.37,1.26,2.28,2.61l-0.27,4.09c-0.01,0.09-0.02,0.17-0.03,0.25 c2.56,0.69,5.06,2.07,7.38,4.3c3.83,3.69,6.34,8.95,8.03,15.17c1.4-5.98,2.15-11.76,1.46-17.21c-0.7-5.5-2.89-10.71-7.42-15.53 c-0.89-0.95-1.83-1.78-2.81-2.51c-1-0.74-2.05-1.37-3.12-1.89c-4.71-2.27-9.61-2.48-14.11-1.14c-4.85,1.45-9.23,4.7-12.43,9.15 c-1.62,2.26-2.96,4.86-4.11,7.72c-1.17,2.92-2.14,6.1-3.01,9.47c-0.93,3.6-1.21,8.21-0.94,12.78c0.27,4.68,1.12,9.3,2.44,12.75 l0.07,0.19c-0.53-5.76-0.24-10.71,1.12-14.85c3.03-9.26,12.71-18.43,22.57-18.92c0-0.02,0-0.05,0-0.07L29.56,17.94L29.56,17.94z M44.58,79.5l-0.09-0.16c-3.24-6.05-3.45-5.9-0.81-13.41c0.45-0.97,0.84-1.96,1.18-2.95c0.41-2.77,0.96-5.49,1.58-8.19 c0.27-5.02-0.65-10.23-2.6-15.6c-1.75-4.59-3.6-8.09-5.75-10.4c-9.13-9.82-22.4,2.34-25.19,12.24c-1.66,5.91-1.86,13.53-0.8,22.7 l2.03,7.19c1.02,3.78,0.3,7.97-1.95,12.53c0.16,2.47,0.2,4.94,0.13,7.44c-0.03,1.17-0.08,2.2-0.13,3.2 c-0.32,7.03-0.55,12.21,5.55,18.38c3.04,3.08,6.88,4.88,10.84,5.52c2.99,0.48,6.03,0.29,8.84-0.52c2.79-0.81,5.34-2.23,7.37-4.24 c2.23-2.2,3.82-5.11,4.39-8.67c0.43-2.69,0.25-5.37-0.26-8.01c-0.52-2.7-1.4-5.39-2.33-8.01c-0.35-1-0.64-2.01-0.88-3.06 c-0.24-1.01-0.45-2.08-0.67-3.21C44.85,81.34,44.7,80.41,44.58,79.5L44.58,79.5z M117.28,55.89c0.53-5.76,0.24-10.71-1.12-14.85 c-3.03-9.26-12.71-18.43-22.57-18.92c0-0.02,0-0.05,0-0.07l-0.27-4.09c-0.09-1.35-1.26-2.37-2.61-2.28 c-1.35,0.09-2.37,1.26-2.28,2.61l0.27,4.09c0.01,0.09,0.02,0.17,0.03,0.25c-2.56,0.68-5.06,2.07-7.38,4.3 c-3.83,3.69-6.34,8.95-8.03,15.17c-1.4-5.98-2.15-11.76-1.46-17.21c0.7-5.5,2.89-10.71,7.42-15.53c0.89-0.95,1.83-1.78,2.81-2.51 c1-0.74,2.05-1.37,3.12-1.89c4.71-2.27,9.61-2.48,14.11-1.14c4.85,1.45,9.23,4.7,12.43,9.15c1.62,2.26,2.96,4.86,4.11,7.72 c1.17,2.92,2.14,6.1,3.01,9.47c0.93,3.6,1.21,8.21,0.94,12.78c-0.27,4.68-1.12,9.3-2.44,12.74L117.28,55.89L117.28,55.89z M71.81,48.44c-1.42,7.46-0.4,11.06,1.81,20.65l1.92,8.29c-0.14,1.43-0.35,2.87-0.63,4.33c-0.21,1.08-0.41,2.1-0.64,3.09 c-0.22,0.95-0.48,1.86-0.79,2.74c-0.97,2.74-1.89,5.55-2.45,8.44c-0.57,2.95-0.77,5.97-0.27,9.04c0.68,4.24,2.58,7.71,5.25,10.34 c2.39,2.36,5.38,4.03,8.63,4.97c3.23,0.94,6.72,1.15,10.14,0.61c4.56-0.73,8.99-2.82,12.5-6.37c7.01-7.1,6.75-12.83,6.4-20.61 c-0.05-1.04-0.1-2.12-0.13-3.15c-0.16-5.38,0.23-10.57,1.28-16.08c1.05-5.51,2.78-11.34,5.32-17.98c1.42-3.72,2.34-8.66,2.63-13.65 c0.28-4.85-0.02-9.77-1.03-13.69c-0.91-3.51-1.91-6.82-3.12-9.84c-1.23-3.07-2.68-5.88-4.46-8.36c-3.58-4.98-8.52-8.64-14-10.27 c-5.17-1.55-10.82-1.3-16.25,1.31c-1.26,0.6-2.47,1.33-3.62,2.18c-1.13,0.83-2.2,1.78-3.2,2.86c-5,5.33-7.42,11.1-8.2,17.2 c-0.77,6,0.08,12.28,1.63,18.75c0.49,2.05,0.88,3.58,1.26,5.11L71.81,48.44L71.81,48.44z M78.3,79.5l0.09-0.16 c3.24-6.05,3.45-5.9,0.81-13.41c-0.45-0.97-0.84-1.96-1.18-2.95c-0.41-2.77-0.96-5.49-1.58-8.19c-0.27-5.02,0.65-10.23,2.6-15.6 c1.75-4.59,3.6-8.09,5.75-10.4c9.13-9.82,22.4,2.34,25.19,12.24c1.66,5.91,1.86,13.53,0.8,22.7l-2.03,7.19 c-1.02,3.78-0.3,7.97,1.95,12.53c-0.16,2.47-0.2,4.94-0.13,7.44c0.03,1.17,0.08,2.2,0.13,3.2c0.32,7.03,0.55,12.21-5.55,18.38 c-3.04,3.08-6.88,4.88-10.84,5.52c-2.99,0.48-6.03,0.29-8.84-0.52c-2.79-0.81-5.34-2.23-7.37-4.24c-2.23-2.2-3.82-5.11-4.39-8.67 c-0.43-2.69-0.25-5.37,0.26-8.01c0.52-2.7,1.4-5.39,2.33-8.01c0.36-1,0.64-2.01,0.88-3.06c0.24-1.01,0.45-2.08,0.67-3.21 C78.03,81.34,78.18,80.41,78.3,79.5L78.3,79.5z"/></g></svg>