<?xml version="1.0" encoding="utf-8"?><svg version="1.1" id="Layer_1" xmlns="http://www.w3.org/2000/svg" xmlns:xlink="http://www.w3.org/1999/xlink" x="0px" y="0px" viewBox="0 0 122.88 101.9" style="enable-background:new 0 0 122.88 101.9" xml:space="preserve"><style type="text/css"><![CDATA[
	.st0{fill-rule:evenodd;clip-rule:evenodd;}
]]></style><g><path class="st0" d="M3.34,0h116.2c1.84,0,3.34,1.5,3.34,3.34v76.98c0,1.84-1.5,3.34-3.34,3.34l-116.2,0C1.5,83.66,0,82.16,0,80.32 V3.34C0,1.5,1.5,0,3.34,0L3.34,0z M43.55,25.82l0.13-0.19l-3.25,0.46c-0.53,0.08-1.03-0.07-1.43-0.37 c-0.39-0.3-0.68-0.75-0.75-1.28c-0.08-0.53,0.07-1.03,0.37-1.43c0.3-0.39,0.75-0.68,1.28-0.75l8.43-1.19l0.02,0 c0.05-0.01,0.1-0.01,0.16-0.01l0,0c0.52-0.02,1.01,0.18,1.36,0.51c0.36,0.34,0.59,0.8,0.61,1.33c0.11,2.89,0.22,5.79,0.31,8.68 c0.02,0.53-0.18,1.02-0.51,1.38c-0.34,0.36-0.8,0.59-1.34,0.61h-0.02c-0.53,0.02-1.02-0.18-1.38-0.51 c-0.36-0.33-0.59-0.8-0.61-1.33c-0.05-1.28-0.09-2.56-0.14-3.84c-0.28,0.4-0.56,0.84-0.83,1.33c-0.94,1.67-1.6,3.45-2,5.28 c-0.4,1.85-0.52,3.74-0.35,5.61c0.16,1.85,0.6,3.67,1.31,5.4c0.69,1.67,1.65,3.27,2.86,4.71h0c0.45,0.54,0.92,1.04,1.4,1.51 c0.49,0.48,1,0.93,1.53,1.36c1.17,0.94,2.42,1.73,3.71,2.35c1.32,0.63,2.68,1.1,4.08,1.41l0.46,0.1v3.92l-0.68-0.13 c-1.79-0.34-3.55-0.9-5.24-1.68c-1.65-0.77-3.25-1.76-4.74-2.96c-0.62-0.49-1.21-1.03-1.79-1.6c-0.57-0.55-1.12-1.16-1.66-1.8 c-1.48-1.76-2.64-3.7-3.49-5.73c-0.87-2.1-1.4-4.31-1.59-6.53c-0.2-2.25-0.05-4.54,0.43-6.76c0.48-2.2,1.28-4.34,2.41-6.35 C42.91,26.79,43.23,26.29,43.55,25.82L43.55,25.82L43.55,25.82z M70.81,59.4c-1.55,0.65-3.14,1.12-4.75,1.41l-0.68,0.12v-3.91 l0.46-0.09c1.18-0.24,2.35-0.6,3.48-1.08c1.12-0.47,2.2-1.07,3.24-1.78l0.4-0.27l2.76,2.76l-0.56,0.4 C73.79,57.94,72.33,58.75,70.81,59.4L70.81,59.4L70.81,59.4z M83.12,47.13c-0.65,1.53-1.47,2.99-2.46,4.35l-0.4,0.55l-2.76-2.76 l0.28-0.4c0.71-1.02,1.3-2.1,1.78-3.23s0.84-2.3,1.08-3.51l0.09-0.47h3.9l-0.12,0.68C84.25,43.99,83.78,45.59,83.12,47.13 L83.12,47.13L83.12,47.13z M84.02,32.66c0.18,0.64,0.32,1.27,0.44,1.91l0.13,0.68h-3.91l-0.1-0.46c-0.1-0.46-0.21-0.91-0.34-1.34 c-0.13-0.45-0.28-0.89-0.44-1.33c-0.27-0.73-0.58-1.44-0.92-2.13c-0.34-0.69-0.71-1.34-1.11-1.97l-0.25-0.39l2.77-2.77l0.39,0.58 c0.54,0.81,1.05,1.66,1.5,2.56c0.46,0.9,0.87,1.82,1.22,2.77C83.65,31.41,83.85,32.04,84.02,32.66L84.02,32.66L84.02,32.66z M71.94,17.91c1.19,0.54,2.32,1.2,3.36,1.95l0.55,0.4l-2.76,2.76l-0.39-0.27c-0.8-0.54-1.66-1.02-2.56-1.42 c-0.89-0.39-1.82-0.71-2.79-0.94c-0.43-0.11-0.89-0.2-1.37-0.27c-0.46-0.07-0.93-0.12-1.39-0.15c-0.48-0.03-0.96-0.04-1.44-0.03 c-0.48,0.01-0.97,0.05-1.47,0.1h0c-0.53,0.06-1.03-0.11-1.42-0.42c-0.39-0.31-0.65-0.77-0.71-1.3c-0.06-0.53,0.11-1.03,0.42-1.42 s0.77-0.65,1.3-0.71c0.6-0.06,1.2-0.11,1.81-0.12c0.6-0.02,1.19,0,1.76,0.03c0.58,0.04,1.15,0.1,1.71,0.18 c0.57,0.09,1.14,0.2,1.72,0.34C69.54,16.95,70.77,17.38,71.94,17.91L71.94,17.91L71.94,17.91z M46.29,88.27h30.3 c0.08,5.24,2.24,9.94,8.09,13.63H38.2C42.88,98.51,46.31,94.39,46.29,88.27L46.29,88.27L46.29,88.27L46.29,88.27z M7.33,4.77 h108.23c1.63,0,2.95,1.33,2.95,2.95v60.24c0,1.62-1.33,2.95-2.95,2.95H7.33c-1.62,0-2.95-1.33-2.95-2.95V7.72 C4.37,6.09,5.71,4.77,7.33,4.77L7.33,4.77z"/></g></svg>