<?xml version="1.0" encoding="utf-8"?><svg version="1.1" id="Layer_1" xmlns="http://www.w3.org/2000/svg" xmlns:xlink="http://www.w3.org/1999/xlink" x="0px" y="0px" viewBox="0 0 68.51 122.88" style="enable-background:new 0 0 68.51 122.88" xml:space="preserve"><style type="text/css"><![CDATA[
	.st0{fill-rule:evenodd;clip-rule:evenodd;}
]]></style><g><path class="st0" d="M12.2,0h44.12c3.36,0,6.4,1.37,8.62,3.58c2.21,2.21,3.58,5.25,3.58,8.62v98.49c0,3.36-1.37,6.4-3.58,8.62 c-2.21,2.21-5.26,3.58-8.62,3.58H12.2c-3.36,0-6.4-1.37-8.62-3.58C1.37,117.09,0,114.05,0,110.68V12.2c0-3.36,1.37-6.4,3.58-8.62 C5.79,1.37,8.84,0,12.2,0L12.2,0L12.2,0L12.2,0z M16.89,49.13l0.13-0.19l-3.16,0.45c-0.51,0.07-1-0.07-1.39-0.36 c-0.38-0.29-0.66-0.73-0.73-1.24c-0.07-0.51,0.07-1,0.36-1.39s0.73-0.66,1.24-0.73l8.19-1.15l0.02,0c0.05-0.01,0.1-0.01,0.15-0.01 l0,0c0.51-0.01,0.98,0.18,1.32,0.5c0.35,0.33,0.57,0.78,0.59,1.29c0.11,2.81,0.22,5.62,0.3,8.43c0.02,0.51-0.17,0.99-0.5,1.33 c-0.33,0.35-0.78,0.57-1.3,0.59h-0.02c-0.51,0.02-0.99-0.17-1.34-0.5c-0.35-0.32-0.57-0.78-0.59-1.29 c-0.05-1.24-0.09-2.49-0.14-3.73c-0.27,0.39-0.54,0.81-0.81,1.29c-0.91,1.62-1.56,3.35-1.94,5.12c-0.39,1.79-0.51,3.63-0.34,5.45 c0.16,1.79,0.58,3.56,1.28,5.24c0.67,1.63,1.6,3.17,2.78,4.58h0c0.44,0.52,0.89,1.01,1.36,1.47c0.48,0.47,0.97,0.91,1.48,1.32 c1.14,0.92,2.35,1.68,3.6,2.29c1.28,0.62,2.6,1.07,3.96,1.37l0.44,0.1v3.8l-0.66-0.12c-1.74-0.33-3.44-0.87-5.09-1.64 c-1.61-0.75-3.15-1.71-4.6-2.87c-0.6-0.48-1.18-1-1.74-1.55c-0.55-0.54-1.09-1.12-1.61-1.75c-1.44-1.71-2.57-3.59-3.38-5.56 c-0.85-2.04-1.36-4.18-1.55-6.34c-0.19-2.19-0.05-4.4,0.42-6.56c0.46-2.13,1.24-4.21,2.34-6.16 C16.27,50.07,16.57,49.59,16.89,49.13L16.89,49.13L16.89,49.13z M43.35,81.73c-1.5,0.63-3.05,1.09-4.61,1.37l-0.66,0.12v-3.79 l0.45-0.09c1.14-0.23,2.28-0.58,3.38-1.05c1.09-0.46,2.14-1.04,3.15-1.72l0.38-0.26l2.68,2.68l-0.54,0.38 C46.24,80.32,44.82,81.11,43.35,81.73L43.35,81.73L43.35,81.73z M55.31,69.82c-0.63,1.49-1.43,2.9-2.39,4.23l-0.38,0.53l-2.68-2.68 l0.27-0.39c0.69-0.99,1.26-2.04,1.73-3.13c0.46-1.09,0.82-2.24,1.05-3.41L53,64.52h3.79l-0.11,0.66 C56.4,66.77,55.94,68.32,55.31,69.82L55.31,69.82L55.31,69.82z M56.18,55.77c0.17,0.62,0.32,1.24,0.43,1.86l0.13,0.66h-3.79 l-0.1-0.44c-0.1-0.44-0.21-0.88-0.33-1.31c-0.13-0.43-0.27-0.86-0.43-1.29c-0.26-0.7-0.56-1.39-0.89-2.06 c-0.33-0.67-0.69-1.31-1.08-1.91l-0.24-0.38l2.69-2.69l0.38,0.56c0.53,0.79,1.02,1.61,1.46,2.48c0.44,0.87,0.84,1.77,1.18,2.69 C55.81,54.56,56.01,55.17,56.18,55.77L56.18,55.77L56.18,55.77z M44.45,41.45c1.16,0.53,2.25,1.16,3.26,1.89l0.54,0.39l-2.68,2.68 l-0.38-0.26c-0.78-0.53-1.61-0.99-2.49-1.38c-0.86-0.38-1.76-0.69-2.71-0.92c-0.42-0.1-0.87-0.19-1.34-0.26 c-0.45-0.07-0.9-0.12-1.35-0.15c-0.46-0.03-0.93-0.04-1.4-0.03c-0.46,0.01-0.94,0.04-1.43,0.1h0c-0.51,0.05-1-0.1-1.38-0.4 s-0.63-0.74-0.69-1.26c-0.06-0.51,0.1-1,0.4-1.38s0.74-0.63,1.26-0.69c0.58-0.06,1.17-0.1,1.76-0.12c0.59-0.01,1.15,0,1.71,0.03 c0.56,0.04,1.12,0.1,1.66,0.18c0.55,0.08,1.11,0.19,1.67,0.33C42.12,40.52,43.32,40.94,44.45,41.45L44.45,41.45L44.45,41.45z M34.26,109.61c2.75,0,4.99,2.24,4.99,4.99s-2.24,4.99-4.99,4.99s-4.99-2.24-4.99-4.99S31.49,109.61,34.26,109.61L34.26,109.61 L34.26,109.61L34.26,109.61z M3.51,105.78h61.5V15.33H3.51V105.78L3.51,105.78L3.51,105.78z"/></g></svg>