<?xml version="1.0" encoding="utf-8"?><svg version="1.1" id="Layer_1" xmlns="http://www.w3.org/2000/svg" xmlns:xlink="http://www.w3.org/1999/xlink" x="0px" y="0px" viewBox="0 0 122.88 70.51" style="enable-background:new 0 0 122.88 70.51" xml:space="preserve"><style type="text/css"><![CDATA[
	.st0{fill-rule:evenodd;clip-rule:evenodd;}
]]></style><g><path class="st0" d="M2.54,65.44h12.59c-0.93-0.24-1.63-1.1-1.63-2.1V2.17C13.5,0.98,14.48,0,15.67,0h90.97 c1.19,0,2.17,0.98,2.17,2.17v61.16c0,1.01-0.69,1.86-1.63,2.1h13.16c1.4,0,2.54,1.14,2.54,2.54l0,0c0,1.4-1.14,2.54-2.54,2.54H2.54 c-1.4,0-2.54-1.14-2.54-2.54l0,0C0,66.58,1.14,65.44,2.54,65.44L2.54,65.44L2.54,65.44z M46.39,22.16L46.5,22l-2.74,0.39 c-0.45,0.06-0.87-0.06-1.2-0.31c-0.33-0.25-0.57-0.63-0.63-1.07c-0.06-0.45,0.06-0.87,0.31-1.2s0.63-0.57,1.07-0.63l7.1-1l0.02,0 c0.04-0.01,0.09-0.01,0.13-0.01l0,0c0.44-0.01,0.85,0.15,1.15,0.43c0.3,0.28,0.5,0.68,0.52,1.12c0.1,2.43,0.19,4.87,0.26,7.31 c0.02,0.44-0.15,0.85-0.43,1.16c-0.28,0.3-0.68,0.5-1.13,0.52h-0.02c-0.44,0.02-0.85-0.15-1.16-0.43c-0.3-0.28-0.5-0.68-0.52-1.12 c-0.04-1.08-0.08-2.15-0.12-3.23c-0.23,0.34-0.47,0.71-0.7,1.12c-0.79,1.4-1.35,2.9-1.68,4.44c-0.34,1.55-0.44,3.15-0.3,4.72 c0.14,1.55,0.5,3.09,1.11,4.54c0.58,1.41,1.39,2.75,2.41,3.97h0c0.38,0.45,0.77,0.88,1.18,1.27c0.41,0.4,0.84,0.79,1.28,1.14 c0.99,0.79,2.03,1.46,3.12,1.98c1.11,0.53,2.26,0.93,3.43,1.18l0.38,0.08v3.3l-0.58-0.11c-1.51-0.28-2.98-0.76-4.41-1.42 c-1.39-0.65-2.73-1.48-3.99-2.49c-0.52-0.42-1.02-0.86-1.51-1.34c-0.48-0.47-0.94-0.97-1.4-1.51c-1.25-1.48-2.22-3.11-2.93-4.82 c-0.73-1.77-1.18-3.62-1.34-5.5c-0.17-1.9-0.04-3.82,0.36-5.69c0.4-1.85,1.08-3.65,2.03-5.34C45.85,22.97,46.12,22.55,46.39,22.16 L46.39,22.16L46.39,22.16z M69.32,50.41c-1.3,0.55-2.64,0.94-3.99,1.18l-0.57,0.1V48.4l0.39-0.08c0.99-0.2,1.97-0.51,2.93-0.91 c0.94-0.4,1.85-0.9,2.73-1.49l0.33-0.23l2.32,2.32l-0.47,0.33C71.83,49.18,70.6,49.87,69.32,50.41L69.32,50.41L69.32,50.41z M79.68,40.08c-0.54,1.29-1.24,2.52-2.07,3.66l-0.33,0.46l-2.32-2.32l0.23-0.33c0.59-0.86,1.09-1.77,1.5-2.72 c0.4-0.95,0.71-1.94,0.91-2.95l0.08-0.39h3.28l-0.1,0.57C80.63,37.44,80.23,38.79,79.68,40.08L79.68,40.08L79.68,40.08z M80.44,27.91c0.15,0.54,0.27,1.07,0.37,1.61l0.11,0.58h-3.29l-0.08-0.38c-0.08-0.38-0.18-0.76-0.29-1.13 c-0.11-0.38-0.23-0.75-0.37-1.12c-0.23-0.61-0.49-1.21-0.77-1.79c-0.29-0.58-0.6-1.13-0.93-1.66l-0.21-0.33l2.33-2.33l0.33,0.49 c0.46,0.68,0.88,1.4,1.26,2.15s0.73,1.53,1.03,2.33C80.12,26.86,80.29,27.39,80.44,27.91L80.44,27.91L80.44,27.91z M70.27,15.5 c1.01,0.46,1.95,1.01,2.83,1.64l0.47,0.33l-2.32,2.32l-0.33-0.23c-0.68-0.46-1.4-0.86-2.16-1.2c-0.75-0.33-1.53-0.59-2.35-0.79 c-0.37-0.09-0.75-0.17-1.16-0.23c-0.39-0.06-0.78-0.1-1.17-0.13c-0.4-0.03-0.81-0.03-1.21-0.03c-0.4,0.01-0.81,0.04-1.24,0.09h0 c-0.44,0.05-0.87-0.09-1.19-0.35c-0.32-0.26-0.55-0.65-0.6-1.09c-0.05-0.44,0.09-0.87,0.35-1.19c0.26-0.32,0.65-0.55,1.09-0.6 c0.51-0.05,1.01-0.09,1.52-0.1c0.51-0.01,1,0,1.48,0.03c0.49,0.03,0.97,0.08,1.44,0.15c0.47,0.07,0.96,0.17,1.45,0.29 C68.26,14.69,69.29,15.06,70.27,15.5L70.27,15.5L70.27,15.5z M17.21,3.4h88.19v59.32H17.21V3.4L17.21,3.4L17.21,3.4z M57.87,66.39 h7.14c0.67,0,1.22,0.55,1.22,1.22l0,0c0,0.67-0.55,1.22-1.22,1.22h-7.14c-0.67,0-1.22-0.55-1.22-1.22l0,0 C56.65,66.93,57.2,66.39,57.87,66.39L57.87,66.39L57.87,66.39z"/></g></svg>