<?xml version="1.0" encoding="utf-8"?><svg version="1.1" id="Layer_1" xmlns="http://www.w3.org/2000/svg" xmlns:xlink="http://www.w3.org/1999/xlink" x="0px" y="0px" viewBox="0 0 122.88 95.28" style="enable-background:new 0 0 122.88 95.28" xml:space="preserve"><g><path d="M2.08,12.22h27.17c0.13,1.41,0.35,2.8,0.66,4.15H4.15v65.05h114.57V16.37h0.01l0,0H92.54c0.31-1.35,0.53-2.74,0.66-4.15 h27.6h2.08v2.08v69.2v2.08h-2.08H77.57v4.55h16.61v5.15H28.55v-5.15h16.61v-4.55H2.08H0V83.5V14.3v-2.08H2.08L2.08,12.22 L2.08,12.22L2.08,12.22z M28.11,52.99h-6.88v-1.88c0-0.88-0.09-1.44-0.26-1.68c-0.17-0.24-0.46-0.36-0.87-0.36 c-0.44,0-0.78,0.16-1.01,0.49c-0.23,0.32-0.34,0.81-0.34,1.47c0,0.85,0.13,1.49,0.39,1.91c0.25,0.42,0.95,0.94,2.1,1.55 c3.29,1.75,5.36,3.2,6.21,4.32c0.86,1.12,1.29,2.93,1.29,5.42c0,1.81-0.24,3.15-0.71,4.01c-0.48,0.86-1.39,1.58-2.75,2.16 c-1.36,0.58-2.94,0.87-4.75,0.87c-1.98,0-3.67-0.34-5.08-1.01c-1.4-0.67-2.31-1.52-2.75-2.56c-0.43-1.04-0.65-2.51-0.65-4.42v-1.67 h6.88v3.09c0,0.95,0.1,1.57,0.29,1.84c0.19,0.27,0.54,0.41,1.03,0.41c0.49,0,0.86-0.17,1.1-0.52c0.24-0.34,0.36-0.86,0.36-1.53 c0-1.5-0.23-2.48-0.68-2.93c-0.48-0.46-1.63-1.23-3.47-2.32c-1.84-1.09-3.05-1.88-3.65-2.38c-0.59-0.49-1.09-1.17-1.48-2.04 c-0.39-0.87-0.59-1.98-0.59-3.33c0-1.95,0.28-3.37,0.83-4.27c0.56-0.9,1.45-1.6,2.7-2.11c1.24-0.51,2.74-0.76,4.5-0.76 c1.92,0,3.56,0.28,4.91,0.83c1.35,0.56,2.25,1.25,2.69,2.1c0.44,0.84,0.66,2.27,0.66,4.29V52.99L28.11,52.99z M54.3,45.27v25.45 h-6.49L47.8,53.54l-2.58,17.18h-4.54l-2.72-16.79l-0.02,16.79h-6.49V45.27h9.58c0.27,1.54,0.56,3.35,0.88,5.42l1.05,6.46 l1.69-11.88H54.3L54.3,45.27z M70.46,45.27l4.24,25.45h-7.58l-0.4-4.57h-2.67l-0.4,4.57h-7.67l3.76-25.45H70.46L70.46,45.27z M66.52,61.64c-0.35-2.88-0.73-6.46-1.12-10.72c-0.73,4.89-1.2,8.46-1.39,10.72H66.52L66.52,61.64z M76.35,45.27h5.25 c3.5,0,5.86,0.12,7.1,0.36c1.24,0.24,2.25,0.86,3.03,1.85c0.78,0.99,1.17,2.57,1.17,4.73c0,1.98-0.28,3.31-0.83,3.99 c-0.55,0.68-1.63,1.09-3.26,1.22c1.47,0.33,2.46,0.76,2.96,1.31c0.5,0.54,0.82,1.04,0.94,1.5c0.13,0.46,0.19,1.71,0.19,3.76v6.72 h-6.88v-8.47c0-1.36-0.12-2.2-0.36-2.53c-0.23-0.33-0.86-0.49-1.87-0.49v11.49h-7.43V45.27L76.35,45.27z M83.78,49.61v5.66 c0.83,0,1.41-0.1,1.74-0.31c0.33-0.2,0.5-0.87,0.5-1.99v-1.4c0-0.81-0.16-1.34-0.48-1.59S84.62,49.61,83.78,49.61L83.78,49.61z M111.06,45.27v5.08h-4.36v20.36h-7.42V50.35h-4.4v-5.08H111.06L111.06,45.27z M61.44,25.47c1.64,0,3.12,0.67,4.19,1.74 c1.07,1.07,1.74,2.56,1.74,4.19c0,1.64-0.67,3.12-1.74,4.19s-2.56,1.74-4.19,1.74c-1.64,0-3.12-0.67-4.19-1.74 c-1.07-1.07-1.74-2.56-1.74-4.19c0-1.63,0.67-3.12,1.74-4.19l0,0C58.32,26.13,59.8,25.47,61.44,25.47L61.44,25.47L61.44,25.47z M51.21,22.25c-0.58,0.47-1.3,0.67-1.99,0.59c-0.66-0.07-1.29-0.38-1.75-0.9c-0.05-0.05-0.1-0.11-0.14-0.17 c-0.42-0.56-0.59-1.24-0.52-1.9s0.38-1.29,0.9-1.75c0.05-0.05,0.1-0.09,0.15-0.13c2.11-1.71,4.32-3.01,6.59-3.89 c2.3-0.9,4.66-1.36,7.04-1.36c2.35-0.01,4.7,0.43,7.01,1.32c2.25,0.87,4.46,2.17,6.59,3.92c0.58,0.47,0.91,1.14,0.99,1.82 c0.07,0.69-0.12,1.41-0.59,1.99l0,0.01c-0.47,0.58-1.13,0.91-1.82,0.98c-0.69,0.07-1.41-0.12-1.99-0.59l0,0 c-1.66-1.36-3.35-2.36-5.05-3.03c-1.72-0.68-3.43-1-5.14-1c-1.72,0.01-3.44,0.35-5.16,1.04C54.58,19.87,52.87,20.9,51.21,22.25 L51.21,22.25L51.21,22.25z M42.62,13.52c-0.04,0.04-0.09,0.08-0.14,0.12c-0.54,0.44-1.21,0.64-1.86,0.6 c-0.67-0.04-1.33-0.33-1.82-0.86c-0.05-0.04-0.08-0.09-0.12-0.14c-0.44-0.54-0.64-1.22-0.6-1.87c0.04-0.69,0.35-1.37,0.91-1.87 c3.6-3.19,7.32-5.59,11.1-7.19c3.79-1.6,7.66-2.38,11.54-2.31c3.84,0.06,7.68,0.95,11.46,2.69c3.68,1.7,7.32,4.21,10.88,7.55 l0.07,0.06c0.5,0.5,0.76,1.16,0.78,1.83c0.02,0.69-0.22,1.39-0.73,1.93l-0.06,0.07c-0.51,0.5-1.16,0.77-1.83,0.79 c-0.69,0.02-1.39-0.22-1.93-0.73c-3.08-2.91-6.2-5.07-9.31-6.52c-3.14-1.47-6.29-2.21-9.4-2.27c-3.17-0.05-6.34,0.61-9.49,1.95 C48.87,8.73,45.71,10.79,42.62,13.52L42.62,13.52L42.62,13.52z"/></g></svg>