<?xml version="1.0" encoding="utf-8"?><svg version="1.1" id="Layer_1" xmlns="http://www.w3.org/2000/svg" xmlns:xlink="http://www.w3.org/1999/xlink" x="0px" y="0px" viewBox="0 0 113.34 122.88" style="enable-background:new 0 0 113.34 122.88" xml:space="preserve"><style type="text/css">.st0{fill-rule:evenodd;clip-rule:evenodd;}</style><g><path class="st0" d="M11.89,0H46.4c3.27,0,6.27,1.34,8.41,3.48c2.17,2.17,3.48,5.14,3.48,8.41v5.76c0.08-0.08,0.16-0.17,0.24-0.25 c2.17-2.17,5.14-3.48,8.41-3.48h34.51c3.27,0,6.27,1.34,8.41,3.48c2.17,2.17,3.48,5.14,3.48,8.41v85.17c0,3.27-1.34,6.27-3.48,8.41 c-2.17,2.17-5.14,3.48-8.41,3.48H66.94c-3.27,0-6.27-1.34-8.41-3.48c-2.17-2.17-3.48-5.14-3.48-8.41v-5.76 c-0.08,0.08-0.16,0.17-0.24,0.25c-2.17,2.17-5.14,3.48-8.41,3.48H11.89c-3.27,0-6.27-1.34-8.41-3.48C1.31,103.3,0,100.34,0,97.07 V11.89c0-3.27,1.34-6.27,3.48-8.41C5.65,1.31,8.62,0,11.89,0L11.89,0z M19.21,63.58l18.06-12.12l-1.52,7.55 c7.01,2.99,13.33,3.29,19.14,0.48V18.44H3.38v72.18h51.5V66.36c-5.51,6.79-13.83,9.04-22.18,7.71l-1.56,7.7L19.21,63.58 L19.21,63.58L19.21,63.58L19.21,63.58z M58.43,55.5c5.5-6.32,13.58-8.41,21.68-7.11l1.56-7.7L93.6,58.87v0v0L75.54,70.99l1.53-7.55 c-6.81-2.91-12.97-3.27-18.64-0.72v41.82h51.5V32.36h-51.5V55.5L58.43,55.5z M84.18,108.27c2.69,0,4.89,2.17,4.89,4.89 c0,2.69-2.17,4.89-4.89,4.89c-2.69,0-4.89-2.17-4.89-4.89C79.28,110.47,81.46,108.27,84.18,108.27L84.18,108.27z M29.13,94.34 c2.69,0,4.89,2.17,4.89,4.89c0,2.69-2.17,4.89-4.89,4.89c-2.69,0-4.89-2.17-4.89-4.89C24.23,96.55,26.4,94.34,29.13,94.34 L29.13,94.34z"/></g></svg>