<?xml version="1.0" encoding="utf-8"?><svg version="1.1" id="Layer_1" xmlns="http://www.w3.org/2000/svg" xmlns:xlink="http://www.w3.org/1999/xlink" x="0px" y="0px" viewBox="0 0 122.88 107.91" style="enable-background:new 0 0 122.88 107.91" xml:space="preserve"><style type="text/css"><![CDATA[
	.st0{fill-rule:evenodd;clip-rule:evenodd;}
]]></style><g><path class="st0" d="M99.09,0.05c13.22,0,23.79,10.57,23.79,23.79l0,35.87c0,13.23-10.57,23.79-23.79,23.79H76.26 c-9.97,12.63-22.9,20.21-38.22,24.3c-1.2,0.32-2.49-0.05-3.37-1.01c-1.24-1.38-1.11-3.5,0.28-4.75c1.94-1.71,3.6-3.46,4.93-5.21 c2.97-3.93,4.71-8.7,6.18-13.37H23.79C10.57,83.45,0,72.88,0,59.66V23.79C0,10.57,10.57,0,23.79,0C48.89,0,73.97,0.05,99.09,0.05 L99.09,0.05z M15.31,47.48l8.26-0.6c0.18,1.54,0.55,2.72,1.1,3.52c0.9,1.3,2.18,1.96,3.84,1.96c1.24,0,2.2-0.33,2.87-1 c0.67-0.67,1.01-1.45,1.01-2.33c0-0.84-0.32-1.59-0.95-2.25c-0.64-0.66-2.12-1.28-4.45-1.88c-3.82-0.98-6.53-2.3-8.16-3.93 c-1.63-1.63-2.46-3.71-2.46-6.25c0-1.66,0.42-3.23,1.26-4.71c0.84-1.49,2.1-2.65,3.78-3.49c1.68-0.84,3.99-1.27,6.93-1.27 c3.6,0,6.34,0.77,8.23,2.32c1.89,1.54,3.01,3.99,3.37,7.36l-8.19,0.56c-0.22-1.47-0.68-2.54-1.37-3.21c-0.7-0.67-1.67-1-2.89-1 c-1.01,0-1.78,0.25-2.29,0.74c-0.51,0.49-0.77,1.09-0.77,1.8c0,0.51,0.22,0.97,0.62,1.39c0.41,0.42,1.37,0.81,2.91,1.19 c3.8,0.93,6.53,1.9,8.17,2.87c1.64,0.97,2.85,2.16,3.59,3.59c0.75,1.43,1.12,3.03,1.12,4.8c0,2.07-0.49,3.99-1.5,5.75 c-1,1.75-2.4,3.08-4.19,3.99c-1.79,0.9-4.05,1.36-6.78,1.36c-4.79,0-8.11-1.06-9.95-3.18C16.59,53.44,15.55,50.75,15.31,47.48 L15.31,47.48z M82.03,47.48l8.26-0.6c0.18,1.54,0.55,2.72,1.09,3.52c0.9,1.3,2.18,1.96,3.84,1.96c1.24,0,2.2-0.33,2.87-1 c0.67-0.67,1.01-1.45,1.01-2.33c0-0.84-0.32-1.59-0.95-2.25c-0.63-0.66-2.12-1.29-4.45-1.88c-3.82-0.98-6.53-2.3-8.16-3.93 c-1.63-1.63-2.46-3.71-2.46-6.25c0-1.66,0.42-3.23,1.26-4.71c0.84-1.48,2.1-2.65,3.78-3.49c1.68-0.84,3.99-1.27,6.93-1.27 c3.6,0,6.34,0.77,8.23,2.32c1.89,1.54,3.01,3.99,3.37,7.36l-8.19,0.56c-0.22-1.47-0.68-2.54-1.37-3.21c-0.7-0.67-1.67-1-2.89-1 c-1.01,0-1.78,0.25-2.29,0.74c-0.51,0.49-0.77,1.09-0.77,1.8c0,0.51,0.22,0.97,0.62,1.39c0.41,0.42,1.38,0.82,2.91,1.19 c3.8,0.93,6.53,1.9,8.17,2.87c1.64,0.96,2.85,2.16,3.6,3.59c0.74,1.42,1.12,3.03,1.12,4.8c0,2.07-0.5,4-1.5,5.75 c-1,1.75-2.4,3.09-4.19,3.99c-1.79,0.9-4.05,1.36-6.78,1.36c-4.79,0-8.11-1.06-9.95-3.18C83.32,53.44,82.27,50.75,82.03,47.48 L82.03,47.48z M45.97,25.79h11.48l4.38,19.72l4.39-19.72h11.43V58.2h-7.12V33.49l-5.5,24.71h-6.46l-5.48-24.71V58.2h-7.12V25.79 L45.97,25.79z"/></g></svg>