<svg xmlns="http://www.w3.org/2000/svg" viewBox="0 0 333333 333333" shape-rendering="geometricPrecision" text-rendering="geometricPrecision" image-rendering="optimizeQuality" fill-rule="evenodd" clip-rule="evenodd"><path d="M249582 140587c13281-66721-12640-122620-82883-123139-50273-371-96180 32438-83600 118439 1578 10786-3626 9396-11583 7661-6737-1470-13474-2940-20212-4410-3313 578-5813 1788-7535 3603-9754 10275 9780 18156 17170 20917 9673 3613 20194 7037 18868 18396-521 4467-1962 8873-3788 13307-9144 22207-33426 42769-56546 49352-12038 3428-18135 4795 207 14750 8169 4433 18553 7007 31922 8958 1939 35426 15194 12693 44159 18507 3647 731 7545 1222 11699 3032 7391 3222 14964 9657 23531 14602 25924 14962 49236 15852 74404-1861 14564-10250 28537-20515 54447-17226 18215 2312 17080 7904 23218-17690 22831-4003 43452-8511 42310-21009-29897-6389-48914-21965-64754-47537-6247-10084-14219-24872 2389-31919 4268-1811 10142-2822 16866-5223 5870-2096 11220-5686 12483-8507 3335-7444-2196-14045-9230-14557-13413-977-19684 7790-27873 5107-1769-580-3630-1693-5670-3553zm11249-31323c-65 8924-896 18111-2477 27445 1341 25 3370-799 5686-1741 5107-2076 10991-4467 19642-3838 2333 170 4590 756 6665 1686 3315 1485 6138 3843 8072 6793 2026 3088 3101 6790 2809 10808-152 2080-682 4229-1653 6396-1249 2788-3877 5527-7225 7809-2795 1905-6256 3673-9814 4944-3170 1132-6568 2063-9648 2907-2635 722-4982 1365-6785 2130-4162 1766-5286 4154-4993 6609 513 4295 3553 9554 6230 13875 7395 11938 15487 21510 25154 28793 9542 7189 20753 12208 34519 15149l-3 14c3304 700 5912 3481 6232 7021 967 10581-5892 17218-17061 21747-7333 2973-16685 5035-26657 6870-5694 23350-6925 23110-23150 19927-2201-431-4874-956-7522-1292-22351-2837-35053 6109-48060 15271l-840 591c-13940 9810-27541 14472-41412 14609-13699 136-27310-4196-41483-12376-4001-2309-7395-4622-10674-6857-4330-2950-8447-5757-12082-7341-2572-1121-5318-1632-7920-2116-1559-291-1146-185-2168-390l6-30-6-1c-8879-1782-16454-326-22373 811-2958 568-5576 1072-8289 1220-10976 600-17246-3085-19325-21448-4483-787-8670-1689-12611-2763-5874-1601-11074-3572-15715-6092-14678-7966-18215-14088-14573-20800 2547-4693 7971-6233 15172-8279l462-131c113-38 227-73 343-106 10596-3017 21511-9317 30819-17441 9080-7924 16541-17478 20583-27293 804-1954 1526-3906 2104-5867 525-1778 919-3554 1126-5333 557-4773-6141-7261-12614-9666l-1141-425c-4142-1548-11710-4548-17153-8819-8296-6509-12512-14932-2992-24959 1507-1589 3337-2904 5495-3939 1962-941 4098-1616 6410-2019 978-171 2006-161 3037 62l20212 4409 554 121 1399 304c-1457-10220-2109-19808-2044-28783 225-30524 8941-53106 22741-68904 13958-15980 32906-24832 53459-27838 5630-823 11468-1199 17432-1155 8267 61 15896 819 22897 2213 24294 4836 42254 17135 54134 34499 11648 17025 17249 38796 17070 63007zM78738 136822c881-129 487-83-298 3 126 8 226 7 298-3z" fill="#2b2a29" fill-rule="nonzero"/><path d="M249582 140587c13281-66720-12640-122619-82883-123138-50273-372-96179 32437-83600 118439 1578 10786-3626 9396-11583 7661-6737-1470-13474-2940-20212-4410-3313 578-5813 1788-7535 3603-9755 10274 9780 18156 17170 20917 9672 3613 20194 7037 18868 18396-521 4467-1962 8873-3788 13307-9144 22207-33426 42769-56546 49352-12038 3428-18135 4795 207 14750 8169 4434 18553 7008 31922 8958 1939 35426 15194 12693 44159 18507 3647 732 7545 1222 11699 3033 7391 3221 14964 9657 23531 14602 25924 14962 49236 15852 74404-1861 14563-10250 28537-20515 54447-17226 18215 2312 17080 7904 23218-17690 22831-4003 43452-8511 42310-21008-29897-6389-48914-21965-64754-47538-6247-10084-14219-24872 2389-31919 4268-1811 10142-2822 16866-5223 5870-2096 11220-5686 12483-8507 3335-7444-2196-14045-9230-14557-13413-976-19684 7790-27873 5107-1769-580-3629-1693-5669-3553z" fill="#fffc00"/></svg>