<svg xmlns="http://www.w3.org/2000/svg" viewBox="0 0 3333 3333" shape-rendering="geometricPrecision" text-rendering="geometricPrecision" image-rendering="optimizeQuality" fill-rule="evenodd" clip-rule="evenodd"><path d="M3021 0H313C141 0 0 141 0 313v2708c0 172 141 313 313 313h2708c172 0 313-141 313-313V313c0-172-141-313-313-313zm-816 1497c87-433-82-796-538-799-326-2-624 211-543 769 11 70-23 61-75 49-44-9-88-19-131-28-22 4-38 12-49 23-63 67 64 118 111 136 63 23 131 46 122 119-3 29-13 57-25 87-59 144-217 278-367 320-78 22-117 31 1 96 53 29 121 46 207 58 12 230 99 82 287 120 23 5 49 8 76 20 48 21 97 62 153 95 168 97 320 103 483-12 95-67 185-133 354-112 118 15 111 51 151-115 148-26 282-55 274-137-194-41-318-143-420-308-41-66-92-161 15-207 28-12 66-19 109-34 38-14 73-37 81-55 22-48-14-91-60-95-87-6-128 51-181 33-12-4-23-11-37-23h1z"/></svg>