<?xml version="1.0" encoding="utf-8"?><svg version="1.1" id="Layer_1" xmlns="http://www.w3.org/2000/svg" xmlns:xlink="http://www.w3.org/1999/xlink" x="0px" y="0px" viewBox="0 0 122.88 57.62" style="enable-background:new 0 0 122.88 57.62" xml:space="preserve"><g><path d="M88.05,15.67c-0.44,0.03-0.78,0.13-1.02,0.29c-0.15,0.1-0.26,0.23-0.32,0.37c-0.08,0.17-0.11,0.37-0.11,0.6 c0.02,0.69,0.38,1.59,1.08,2.63l0.01,0.02l2.27,3.61c0.91,1.45,1.86,2.92,3.05,4c1.14,1.04,2.52,1.74,4.34,1.75 c1.98,0,3.42-0.73,4.6-1.83c1.22-1.14,2.19-2.71,3.14-4.28l2.55-4.21c0.53-1.21,0.69-1.96,0.51-2.34 c-0.14-0.28-0.63-0.35-1.45-0.28c-0.14,0.01-0.28-0.02-0.39-0.09c-0.13,0.01-0.26,0-0.39-0.01l0.08-0.43 c0-0.02-0.01-0.04-0.01-0.06c-0.01-0.15,0.03-0.29,0.1-0.41l0.58-2.93C102,12.03,98.8,11.21,95.02,8.8C93.78,8,93.4,7.1,92.16,7.19 c-0.94,0.18-1.73,0.6-2.35,1.28c-0.6,0.65-1.05,1.53-1.35,2.66l0.58,4.58C88.69,15.77,88.36,15.76,88.05,15.67L88.05,15.67 L88.05,15.67z M76.02,26.23c0.04,0.03,0.07,0.06,0.11,0.09l0,0l0.01,0.01l0.01,0.01l0.01,0.01l0.01,0.01l0.01,0.01l0.01,0.01 l0.01,0.01l0.01,0.01l0.01,0.01l0,0c0.03,0.04,0.06,0.07,0.09,0.11l0.01,0.01l0.01,0.02c0.02,0.03,0.04,0.06,0.06,0.09l0,0l0,0.01 l0.01,0.02l0,0.01l0.01,0.03l0,0l0.01,0.03l0,0l0.01,0.03l0,0l0.01,0.03l0,0l0.01,0.03v0l0.01,0.03l0,0l0.01,0.03l0,0l0.01,0.03 l0,0l0.02,0.06l0,0l0.01,0.03l0.01,0.07l0,0l0,0.03l0,0.03l0,0.01l0,0.03l0,0.01l0,0.03l0,0.01l0,0.03l0,0.01l0,0.03v0.01l0,0.03 v0.01v0.03v0.01l0,0.03v0.01l0,0.03l0,0.01l0,0.03l0,0.01l0,0.03l0,0.01l0,0.03l0,0.01l0,0.03l0,0.03l0,0l-0.01,0.07l-0.01,0.03 l0,0l-0.02,0.06l0,0l-0.01,0.03l0,0l-0.01,0.03l0,0l-0.01,0.03v0l-0.01,0.03l0,0l-0.01,0.03l0,0l-0.01,0.03l0,0l-0.01,0.03l0,0 l-0.01,0.03l0,0.01l-0.01,0.02l0,0.01l0,0c-0.02,0.03-0.04,0.06-0.06,0.09l-0.01,0.02l-0.01,0.01c-0.03,0.04-0.06,0.08-0.09,0.11 l0,0l-0.01,0.01l-0.01,0.01l-0.01,0.01l-0.01,0.01l-0.01,0.01l-0.01,0.01l-0.01,0.01l-0.01,0.01l-0.01,0.01l0,0 c-0.04,0.03-0.07,0.06-0.11,0.09l-0.01,0.01l0,0l-6.42,4.66c-0.63,0.46-1.51,0.32-1.96-0.31c-0.46-0.63-0.32-1.51,0.31-1.96 l2.93-2.13H52.01l2.93,2.13c0.63,0.46,0.77,1.33,0.31,1.96c-0.46,0.63-1.33,0.77-1.96,0.31l-6.37-4.63 c-0.39-0.25-0.65-0.69-0.65-1.18c0-0.5,0.26-0.93,0.65-1.18l6.37-4.63c0.63-0.46,1.51-0.32,1.96,0.31 c0.46,0.63,0.32,1.51-0.31,1.96l-2.93,2.13h18.85l-2.93-2.13c-0.63-0.46-0.77-1.33-0.31-1.96c0.46-0.63,1.33-0.77,1.96-0.31 l6.42,4.66l0,0L76.02,26.23L76.02,26.23z M90.01,32.73l4.06,11.94l2.04-7.08l-1-1.09c-0.45-0.66-0.55-1.23-0.3-1.73 c0.54-1.07,1.66-0.87,2.71-0.87c1.1,0,2.45-0.21,2.8,1.17c0.11,0.46-0.03,0.94-0.35,1.44l-1,1.09l2.04,7.08l3.68-11.94 c2.65,2.39,10.5,2.86,13.42,4.49c0.92,0.51,1.76,1.17,2.43,2.06c1.02,1.34,1.64,3.1,1.81,5.33l0.55,13.01H71.8l0.54-13.01 c0.17-2.23,0.79-3.98,1.81-5.33c0.67-0.89,1.5-1.54,2.43-2.06C79.51,35.6,87.35,35.12,90.01,32.73L90.01,32.73z M108.23,14.83 c0.49,0.15,0.85,0.44,1.07,0.88c0.37,0.74,0.22,1.86-0.49,3.46l0,0c-0.01,0.03-0.02,0.05-0.04,0.07l-2.58,4.26 c-1,1.64-2.01,3.29-3.36,4.55c-1.4,1.31-3.12,2.18-5.48,2.18c-2.2-0.01-3.86-0.85-5.22-2.09c-1.31-1.2-2.32-2.75-3.27-4.27 l-2.27-3.61c-0.83-1.24-1.26-2.37-1.29-3.3c-0.01-0.44,0.06-0.84,0.22-1.18c0.17-0.37,0.43-0.67,0.78-0.91 c0.17-0.11,0.35-0.21,0.55-0.28c-0.15-1.96-0.2-4.42-0.11-6.48c0.05-0.49,0.14-0.98,0.28-1.47c0.58-2.07,2.03-3.74,3.83-4.88 c0.63-0.4,1.33-0.74,2.06-1c4.36-1.58,10.13-0.71,13.22,2.63c1.26,1.36,2.05,3.17,2.22,5.56L108.23,14.83L108.23,14.83 L108.23,14.83z M16.24,15.67c-0.44,0.03-0.78,0.13-1.02,0.29c-0.15,0.1-0.26,0.23-0.32,0.37c-0.08,0.17-0.11,0.37-0.11,0.6 c0.02,0.69,0.38,1.59,1.08,2.63l0.01,0.02l2.27,3.61c0.91,1.45,1.86,2.92,3.05,4c1.14,1.04,2.52,1.74,4.34,1.75 c1.98,0.01,3.42-0.73,4.6-1.82c1.22-1.14,2.19-2.71,3.14-4.28l2.55-4.21c0.53-1.21,0.69-1.96,0.51-2.34 c-0.14-0.28-0.63-0.35-1.45-0.28c-0.14,0.01-0.28-0.02-0.39-0.09c-0.13,0.01-0.26,0-0.39-0.01l0.08-0.43 c0-0.02-0.01-0.04-0.01-0.06c-0.01-0.15,0.03-0.29,0.1-0.41l0.58-2.93C30.19,12.03,27,11.21,23.22,8.8 c-1.24-0.79-1.62-1.7-2.86-1.61c-0.94,0.18-1.73,0.6-2.35,1.28c-0.6,0.65-1.05,1.53-1.35,2.66l0.58,4.58 C16.89,15.77,16.56,15.76,16.24,15.67L16.24,15.67L16.24,15.67z M18.2,32.73l4.06,11.94l2.04-7.08l-1-1.09 c-0.45-0.66-0.55-1.23-0.3-1.73c0.54-1.07,1.66-0.87,2.71-0.87c1.1,0,2.45-0.21,2.8,1.17c0.12,0.46-0.03,0.94-0.35,1.44l-1,1.09 l2.04,7.08l3.68-11.94c2.65,2.39,10.5,2.86,13.42,4.49c0.92,0.51,1.76,1.17,2.43,2.06c1.02,1.34,1.64,3.1,1.81,5.33l0.54,13.01H0 l0.55-13.01c0.17-2.23,0.79-3.98,1.81-5.33c0.67-0.89,1.5-1.54,2.43-2.06C7.71,35.6,15.55,35.12,18.2,32.73L18.2,32.73L18.2,32.73z M36.43,14.83c0.49,0.15,0.85,0.44,1.07,0.88c0.37,0.74,0.22,1.86-0.49,3.46l0,0c-0.01,0.03-0.02,0.05-0.04,0.07l-2.58,4.26 c-1,1.64-2.01,3.29-3.36,4.55c-1.4,1.31-3.12,2.18-5.48,2.18c-2.2-0.01-3.86-0.85-5.22-2.09c-1.31-1.2-2.32-2.75-3.27-4.27 l-2.27-3.61c-0.83-1.24-1.26-2.37-1.29-3.3c-0.01-0.44,0.06-0.84,0.22-1.18c0.17-0.37,0.43-0.67,0.78-0.91 c0.16-0.11,0.35-0.21,0.55-0.28c-0.15-1.95-0.2-4.42-0.11-6.48c0.05-0.49,0.14-0.98,0.28-1.47c0.58-2.07,2.03-3.74,3.83-4.88 c0.63-0.4,1.33-0.74,2.06-1c4.36-1.58,10.13-0.71,13.22,2.63c1.26,1.36,2.05,3.17,2.22,5.56L36.43,14.83L36.43,14.83L36.43,14.83z"/></g></svg>