<svg id="Layer_1" data-name="Layer 1" xmlns="http://www.w3.org/2000/svg" viewBox="0 0 122.88 65.17"><title>sold-out-tag</title><path d="M34,6.13,7,34.08,33.89,58.71l79.07.67v0h.27a3.62,3.62,0,0,0,2.32-1,3.22,3.22,0,0,0,1-2.31h0v-.38c.18-15.35.53-30.81.53-46.15a3.4,3.4,0,0,0-1-2.44,3.46,3.46,0,0,0-2.46-1c-25.91-.86-53.58.06-79.7.08ZM57.14,17.8c-2.39-.25-4.13-.38-5.21-.38a10.24,10.24,0,0,0-1.9.09c-.4.13-.33,1.14,0,1.32,1.08.55,5.85,1.26,6.42,1.69a3,3,0,0,1,1.1,1.55,9.47,9.47,0,0,1,.26,2.46c0,2.13-.56,3.66-1.67,4.57a7.92,7.92,0,0,1-5.06,1.36,27.69,27.69,0,0,1-3.43-.23c-1.19-.15-2.11-.31-2.75-.46l-1-.24L44.2,25a45.72,45.72,0,0,0,6.38.57c1.91,0,2.06-1.39-.63-1.81-2.38-.37-4-.45-4.85-1.25a5.18,5.18,0,0,1-1.28-3.93q0-3.48,1.65-4.77a8.23,8.23,0,0,1,5.09-1.29,34.63,34.63,0,0,1,5.67.49l1.06.18-.15,4.64Zm-.67,29.32a2,2,0,0,0,3.49,0,12.54,12.54,0,0,0,0-6.35c-.54-1.29-2.94-1.28-3.51,0a11.89,11.89,0,0,0,0,6.32ZM66.32,44c0,3.15-.65,5.44-1.93,6.85s-3.34,2.12-6.17,2.12S53.34,52.22,52,50.8,50.1,47.09,50.1,44s.65-5.42,1.93-6.83S55.38,35,58.21,35s4.9.71,6.18,2.13,1.93,3.7,1.93,6.84Zm7.76-8.63V46.64c0,1.9,3.18,1.93,3.18,0V35.33h5.9v11c0,2.43-.61,4.16-1.81,5.14s-3.1,1.48-5.68,1.48-4.48-.48-5.69-1.44-1.8-2.65-1.8-5.08V35.33ZM84.84,40.2V35.33H98.55V40.2h-3.8V52.6h-5.9V40.2ZM65.42,21.46a8.53,8.53,0,0,0,.42,3.16,1.71,1.71,0,0,0,1.76,1,1.69,1.69,0,0,0,1.74-.95,8.92,8.92,0,0,0,.41-3.19,9,9,0,0,0-.4-3.17,1.68,1.68,0,0,0-1.74-.94,1.72,1.72,0,0,0-1.77,1,8.51,8.51,0,0,0-.42,3.15Zm10.27,0q0,4.72-1.93,6.85c-1.28,1.42-3.34,2.13-6.16,2.13s-4.89-.72-6.18-2.14-2-3.71-2-6.85.65-5.42,1.93-6.83,3.35-2.13,6.18-2.13,4.9.71,6.18,2.13,1.93,3.7,1.93,6.84ZM89.27,30.1H77.82V12.83h5.9v12.4h5.55V30.1Zm9.4,0H91.22V12.83h7.19c2.93,0,5,.67,6.33,2s1.93,3.48,1.93,6.43-.61,5.16-1.85,6.63-3.3,2.2-6.15,2.2Zm2.06-8.53a6.76,6.76,0,0,0-.48-3.1c-.55-.91-2.18-.77-3.14-.77v7.53c1,0,2.27.12,3-.67a4.9,4.9,0,0,0,.61-3ZM23,28.06a6.49,6.49,0,0,1,4.68-2,6.61,6.61,0,0,1,4.86,1.83,6.72,6.72,0,0,1,.15,9.48A6.29,6.29,0,0,1,28,39.42a6.39,6.39,0,0,1-4.8-1.84,6.54,6.54,0,0,1-2.08-4.76A6.43,6.43,0,0,1,23,28.06ZM.81,32.2l29.85-31A2.89,2.89,0,0,1,32.75.35C59.52.32,87.13-.37,113.8.27a9.18,9.18,0,0,1,9.08,9.32c-.12,15.39-.36,30.78-.53,46.17v.31h0v0a9,9,0,0,1-2.8,6.49,9.44,9.44,0,0,1-6.16,2.57l-.42,0h0L32.9,64.49a2.87,2.87,0,0,1-2.11-.76L.89,36.3a2.9,2.9,0,0,1-.08-4.1Z"/></svg>