<svg id="Layer_1" data-name="Layer 1" xmlns="http://www.w3.org/2000/svg" viewBox="0 0 122.88 98.47"><defs><style>.cls-1{fill-rule:evenodd;}</style></defs><title>sold-board</title><path class="cls-1" d="M8.79,38.9H20.17a3.13,3.13,0,0,1,.62-.64L49,16.38a12.94,12.94,0,1,1,25,0L102.1,38.26a3.36,3.36,0,0,1,.61.64h11.38a8.76,8.76,0,0,1,6.2,2.58h0a8.76,8.76,0,0,1,2.58,6.19v42a8.76,8.76,0,0,1-2.58,6.2h0a8.78,8.78,0,0,1-6.2,2.58H8.77A8.79,8.79,0,0,1,0,89.71v-42A8.81,8.81,0,0,1,8.79,38.9ZM30,38.9H92.86l-22-17.09-.27.28a12.94,12.94,0,0,1-18.3,0L52,21.81,30,38.9ZM61.44,7.47a5.46,5.46,0,1,1-3.87,1.6,5.46,5.46,0,0,1,3.87-1.6ZM33.6,62.74c-3.55-.38-6.14-.57-7.75-.57-1.14,0-3.26-.44-3.22,1.06a1.25,1.25,0,0,0,.46,1c1.6.81,8.69,1.86,9.55,2.51a4.41,4.41,0,0,1,1.62,2.29,13.6,13.6,0,0,1,.4,3.65q0,4.74-2.5,6.77t-7.52,2a39.51,39.51,0,0,1-5.08-.34,41.47,41.47,0,0,1-4.1-.69L14,80.14l.37-6.77c3.86.56,7,1,9.49.84,1.89-.16,1.86-2.43-.94-2.67-3.56-.31-5.94-.68-7.2-1.86s-1.91-3.13-1.91-5.83q0-5.16,2.45-7.07c1.64-1.28,4.16-1.91,7.56-1.91a50.83,50.83,0,0,1,8.43.72l1.59.27-.23,6.88Zm12.93,5.43a12.78,12.78,0,0,0,.62,4.68,2.55,2.55,0,0,0,2.61,1.44,2.52,2.52,0,0,0,2.59-1.42,13.13,13.13,0,0,0,.6-4.72,13.38,13.38,0,0,0-.58-4.7,2.5,2.5,0,0,0-2.59-1.4,2.56,2.56,0,0,0-2.63,1.44,12.78,12.78,0,0,0-.62,4.68Zm15.27,0q0,7-2.87,10.15t-9.17,3.16c-4.19,0-7.26-1.06-9.18-3.18s-2.89-5.5-2.89-10.15,1-8,2.87-10.13,5-3.15,9.18-3.15S57,55.92,58.93,58s2.87,5.49,2.87,10.15ZM82.59,81h-17V55.36h8.77V73.75h8.24V81Zm14.59,0H86.11V55.36h10.7q6.54,0,9.4,3c1.91,2,2.88,5.17,2.88,9.54s-.93,7.65-2.76,9.83S101.42,81,97.18,81Zm3.06-12.65c0-2.3-.24-3.84-.69-4.6-.82-1.35-3.25-1.14-4.67-1.14V73.75c1.48,0,3.37.19,4.46-1,.6-.65.9-2.14.9-4.43Z"/></svg>