<?xml version="1.0" encoding="utf-8"?><svg version="1.1" id="Layer_1" xmlns="http://www.w3.org/2000/svg" xmlns:xlink="http://www.w3.org/1999/xlink" x="0px" y="0px" viewBox="0 0 122.88 67.54" style="enable-background:new 0 0 122.88 67.54" xml:space="preserve"><style type="text/css"><![CDATA[
	.st0{fill-rule:evenodd;clip-rule:evenodd;fill:#D8182B;}
]]></style><g><path class="st0" d="M15.95,38.51l8.7-0.6c0.18,1.55,0.57,2.73,1.16,3.53c0.95,1.31,2.28,1.95,4.04,1.95 c1.31,0,2.31-0.33,3.02-1.01s1.05-1.44,1.05-2.33c0-0.84-0.33-1.59-1.01-2.25c-0.68-0.66-2.24-1.29-4.69-1.88 c-4.01-0.99-6.86-2.3-8.58-3.92c-1.73-1.64-2.58-3.71-2.58-6.25c0-1.67,0.44-3.23,1.32-4.72c0.89-1.47,2.21-2.64,3.98-3.48 c1.77-0.84,4.19-1.26,7.27-1.26c3.78,0,6.67,0.77,8.65,2.31c1.98,1.53,3.15,3.99,3.54,7.34l-8.62,0.56 c-0.22-1.46-0.71-2.52-1.44-3.18c-0.74-0.66-1.74-0.99-3.03-0.99c-1.07,0-1.86,0.25-2.4,0.74c-0.54,0.5-0.81,1.1-0.81,1.8 c0,0.51,0.23,0.98,0.66,1.38c0.44,0.44,1.46,0.83,3.06,1.19c3.99,0.95,6.85,1.89,8.58,2.87c1.73,0.96,2.99,2.16,3.77,3.59 c0.78,1.43,1.17,3.02,1.17,4.79c0,2.07-0.53,3.99-1.58,5.74c-1.05,1.76-2.52,3.08-4.4,3.98s-4.25,1.35-7.12,1.35 c-5.03,0-8.52-1.07-10.45-3.18C17.3,44.47,16.21,41.77,15.95,38.51L15.95,38.51L15.95,38.51z M46.23,33.04 c0-5.29,1.34-9.39,4.04-12.35c2.69-2.94,6.44-4.42,11.23-4.42c4.93,0,8.71,1.44,11.38,4.34c2.66,2.88,4,6.94,4,12.15 c0,3.78-0.59,6.89-1.74,9.31c-1.17,2.42-2.84,4.31-5.05,5.65c-2.19,1.35-4.94,2.03-8.21,2.03c-3.33,0-6.1-0.59-8.29-1.74 c-2.18-1.17-3.96-3-5.32-5.53C46.9,39.98,46.23,36.83,46.23,33.04L46.23,33.04L46.23,33.04z M55.37,33.09 c0,3.27,0.56,5.62,1.67,7.04c1.11,1.43,2.63,2.15,4.54,2.15c1.97,0,3.48-0.71,4.57-2.1s1.62-3.92,1.62-7.52 c0-3.05-0.57-5.27-1.68-6.68c-1.13-1.41-2.66-2.12-4.57-2.12c-1.83,0-3.32,0.72-4.43,2.15C55.93,27.42,55.37,29.8,55.37,33.09 L55.37,33.09L55.37,33.09z M80.2,38.51l8.7-0.6c0.18,1.55,0.57,2.73,1.16,3.53c0.95,1.31,2.28,1.95,4.04,1.95 c1.31,0,2.31-0.33,3.02-1.01s1.05-1.44,1.05-2.33c0-0.84-0.33-1.59-1.01-2.25c-0.68-0.66-2.24-1.29-4.69-1.88 c-4.01-0.99-6.86-2.3-8.58-3.92c-1.73-1.64-2.58-3.71-2.58-6.25c0-1.67,0.44-3.23,1.32-4.72c0.89-1.47,2.21-2.64,3.98-3.48 c1.77-0.84,4.19-1.26,7.27-1.26c3.78,0,6.67,0.77,8.65,2.31c1.98,1.53,3.15,3.99,3.54,7.34l-8.62,0.56 c-0.23-1.46-0.71-2.52-1.44-3.18c-0.74-0.66-1.74-0.99-3.03-0.99c-1.07,0-1.86,0.25-2.4,0.74c-0.54,0.5-0.81,1.1-0.81,1.8 c0,0.51,0.23,0.98,0.66,1.38c0.44,0.44,1.46,0.83,3.06,1.19c4,0.95,6.85,1.89,8.58,2.87c1.73,0.96,2.99,2.16,3.77,3.59 c0.78,1.43,1.17,3.02,1.17,4.79c0,2.07-0.53,3.99-1.58,5.74c-1.05,1.76-2.52,3.08-4.4,3.98s-4.25,1.35-7.12,1.35 c-5.03,0-8.52-1.07-10.45-3.18C81.56,44.47,80.45,41.77,80.2,38.51L80.2,38.51L80.2,38.51z M15.21,0C11.01,0,7.42,1.47,4.43,4.43 C1.44,7.39,0,10.98,0,15.21v37.11c0,4.24,1.47,7.84,4.43,10.78c2.96,2.94,6.55,4.43,10.78,4.43c28.17,0,30.27-0.01,92.45-0.01 c4.21,0,7.79-1.52,10.78-4.43c2.99-2.96,4.43-6.55,4.43-10.8V15.2c0-4.21-1.47-7.79-4.43-10.78C115.49,1.44,111.89,0,107.65,0 C94.13,0,28.73,0,15.21,0L15.21,0L15.21,0L15.21,0z"/></g></svg>