<svg id="Layer_1" data-name="Layer 1" xmlns="http://www.w3.org/2000/svg" viewBox="0 0 122.88 122.88"><defs><style>.cls-1{fill-rule:evenodd;}</style></defs><title>south-korean-won</title><path class="cls-1" d="M61.44,0A61.44,61.44,0,1,1,0,61.44,61.44,61.44,0,0,1,61.44,0ZM38.32,36.67,41.7,49.4h11l3.48-12.73H66.67L70.14,49.4H81.2l3.36-12.73H95.34L92,49.4h3.2v5.32H90.58l-.88,3.36h5.49v5.33h-6.9l-6,22.8H70.09l-6.38-22.8H59.25L52.8,86.21H40.6l-6-22.8H27.68V58.08h5.5l-.88-3.36H27.68V49.4h3.21L27.54,36.67Zm4.79,18,.9,3.36h6.35l.92-3.36Zm28.49,0,.92,3.36H78.9l.89-3.36ZM45.42,63.41,47,69.14h.39l1.57-5.73Zm28.55,0,1.59,5.8H76l1.53-5.8ZM62.22,58.08l-.53-1.91H61.3l-.54,1.91Zm-.78-47.6a51,51,0,1,1-51,51,51,51,0,0,1,51-51Z"/></svg>