<svg id="Layer_1" data-name="Layer 1" xmlns="http://www.w3.org/2000/svg" viewBox="0 0 94.56 122.88"><defs><style>.cls-1{fill-rule:evenodd;}</style></defs><title>south-korean-won-money-bag</title><path class="cls-1" d="M54.64,49.06,52.12,37.57c10.76,2,28,23.89,33.58,33.84a94.1,94.1,0,0,1,7.38,16.93c4.06,15.14.15,29.31-16.28,32.6-10.29,2.07-29.48,2.22-40.3,1.66C24.87,122,6.86,122,2.16,110.07c-7.59-19.28,6.31-42.25,19-56.31a68.26,68.26,0,0,1,5.18-5.17c4.62-4.06,9.59-8.87,15.53-10.87L36.12,48.39l8.33-11h4.39l5.8,11.71ZM38.14,21.15c-1.9-5.6-3.6-11.26-5-17,5.38-5.9,26.16-5.12,32.13-.1L59.69,17.21c3-3.91,4-5.52,5.75-7.69a17.45,17.45,0,0,1,2.11,1.63c1.57,1.43,3,3,3.26,5.2a5.38,5.38,0,0,1-1.49,4.34L56.63,35.48a27,27,0,0,1-4.78-1.22c.72-1.69,1.59-3.55,2.31-5.25l-4.62,5a17.34,17.34,0,0,0-12.3,1.5L24.37,20.05a4.3,4.3,0,0,1-1.11-2.76c0-3.73,5.58-7,8.5-8.18l6.38,12Zm32,65.59H63.44L60.1,102.6H51.5L47.78,86.74H47L43.37,102.6h-8.6L31.43,86.74h-7V81.9h5.91l-.58-2.75H24.45V74.31h4.32l-1.3-6.23h8.21l1.17,6.23H43l1.35-6.23h6l1.41,6.23H58l1.12-6.23H67.4l-1.31,6.23h4v4.84H65l-.59,2.75h5.67v4.84Zm-14.36,0H54.54l.68,3,.54-3Zm-15.48,0H39.12l.52,3,.64-3ZM38.2,81.9h3.14L42,79.15H37.71l.49,2.75Zm15.28,0h3.14l.54-2.75H52.85l.63,2.75Z"/></svg>