<svg id="Layer_1" data-name="Layer 1" xmlns="http://www.w3.org/2000/svg" viewBox="0 0 117.88 122.88"><defs><style>.cls-1{fill:#eb0100;}.cls-2{fill:#313131;}</style></defs><title>spam-email-mail</title><path class="cls-1" d="M58.94,15.17a25.62,25.62,0,0,1,5,.49,25.63,25.63,0,0,1,9.19,3.81A24.86,24.86,0,0,1,77,22.64a25.48,25.48,0,0,1,3.18,3.88,26.26,26.26,0,0,1,2.36,4.41A25.9,25.9,0,0,1,84,35.71a25.45,25.45,0,0,1,0,9.94,25.63,25.63,0,0,1-3.81,9.19,25.71,25.71,0,0,1-7.05,7,25.63,25.63,0,0,1-9.19,3.81,26,26,0,0,1-9.94,0,25.9,25.9,0,0,1-4.78-1.45,26.26,26.26,0,0,1-4.41-2.36,25.48,25.48,0,0,1-3.88-3.18l-.07-.08a25.21,25.21,0,0,1-3.1-3.8,26.26,26.26,0,0,1-2.36-4.41,25.9,25.9,0,0,1-1.45-4.78,25.92,25.92,0,0,1,0-9.93,25.9,25.9,0,0,1,1.45-4.78,25.38,25.38,0,0,1,2.37-4.42,25.64,25.64,0,0,1,7-7,25.56,25.56,0,0,1,4.41-2.36A25.9,25.9,0,0,1,54,15.66a25.46,25.46,0,0,1,5-.49Zm-2.79,9L69.64,53.6l.47-.41q.3-.27.69-.66A16.94,16.94,0,0,0,72.9,50a16.64,16.64,0,0,0,1.54-2.89,16.8,16.8,0,0,0,0-12.84,16.47,16.47,0,0,0-1.55-2.9,16.69,16.69,0,0,0-2.09-2.54l-.07-.08a17.66,17.66,0,0,0-2.48-2,16.74,16.74,0,0,0-2.89-1.55,16.09,16.09,0,0,0-3.14-.94,16.92,16.92,0,0,0-3.29-.32c-.46,0-.91,0-1.34.05s-.92.09-1.32.15l-.12,0Zm5.58,33.09L48.24,27.75l-.48.41c-.22.2-.45.42-.68.65a16.77,16.77,0,0,0-3.65,5.44,16.09,16.09,0,0,0-.94,3.14,17,17,0,0,0,0,6.57,16.3,16.3,0,0,0,.94,3.14A18.23,18.23,0,0,0,45,50a17.15,17.15,0,0,0,4.65,4.65,16.64,16.64,0,0,0,2.89,1.54,16.76,16.76,0,0,0,6.42,1.27c.47,0,.92,0,1.35-.05s.92-.09,1.32-.16l.12,0Z"/><path class="cls-2" d="M102.31,30.86,78,5.74V5.49H12.44V46h0L46.66,76.6l.15.14L58.36,87.06,105,46.36v-10l-2.64-5.49Zm8.13,10.71a3.59,3.59,0,0,1,2.43-.93,4,4,0,0,1,2.06.6,5.09,5.09,0,0,1,1.26,1.07,7.06,7.06,0,0,1,1.69,4.26v70.64a5.71,5.71,0,0,1-1.66,4h0a5.67,5.67,0,0,1-4,1.66H5.67a5.71,5.71,0,0,1-4-1.66h0a5.62,5.62,0,0,1-1.66-4V46.57a7.1,7.1,0,0,1,1.73-4.32,5.5,5.5,0,0,1,1.26-1,4,4,0,0,1,2-.58,3.59,3.59,0,0,1,2,.57V2.74A2.74,2.74,0,0,1,9.7,0H78.9A2.71,2.71,0,0,1,81,1l28.65,29.59a2.71,2.71,0,0,1,.78,1.9h0v.79c0,.11,0,.22,0,.34s0,.22,0,.33v7.63ZM56.52,92.74,44.9,82.36,5.49,116.9v.31a.17.17,0,0,0,0,.13h0a.22.22,0,0,0,.13,0H112.21a.22.22,0,0,0,.13,0h0a.17.17,0,0,0,0-.13V117L72.45,82,60.15,92.76h0a2.73,2.73,0,0,1-3.62,0Zm-15.73-14L5.49,47.15v62.48l35.3-30.94Zm71.6,31.06V47.12L76.6,78.39l35.79,31.36Z"/></svg>