<?xml version="1.0" encoding="utf-8"?><svg version="1.1" id="Layer_1" xmlns="http://www.w3.org/2000/svg" xmlns:xlink="http://www.w3.org/1999/xlink" x="0px" y="0px" viewBox="0 0 122.88 100.06" style="enable-background:new 0 0 122.88 100.06" xml:space="preserve"><style type="text/css">.st0{fill-rule:evenodd;clip-rule:evenodd;}</style><g><path class="st0" d="M6.38,0h110.11c3.51,0,6.38,2.87,6.38,6.38v87.29c0,3.51-2.87,6.38-6.38,6.38H6.38 c-3.51,0-6.38-2.87-6.38-6.38V6.38C0,2.87,2.87,0,6.38,0L6.38,0z M28.05,31.43h30.77v7.95H39.59v5.92h17.83v7.59H39.59v7.33h19.8 v8.42H28.05V31.43L28.05,31.43z M61.1,56.33l10.91-0.68c0.23,1.77,0.72,3.12,1.45,4.04c1.19,1.5,2.88,2.25,5.08,2.25 c1.64,0,2.9-0.38,3.79-1.15c0.89-0.77,1.33-1.66,1.33-2.68c0-0.96-0.42-1.83-1.26-2.59c-0.84-0.76-2.8-1.47-5.87-2.16 c-5.04-1.13-8.63-2.63-10.78-4.51c-2.17-1.87-3.25-4.26-3.25-7.17c0-1.91,0.55-3.71,1.66-5.41c1.11-1.71,2.77-3.04,5-4.01 c2.23-0.97,5.28-1.46,9.15-1.46c4.76,0,8.38,0.88,10.87,2.66c2.49,1.77,3.98,4.58,4.45,8.45l-10.81,0.64 c-0.29-1.69-0.89-2.92-1.81-3.68c-0.93-0.77-2.2-1.15-3.82-1.15c-1.33,0-2.35,0.29-3.02,0.85c-0.68,0.56-1.01,1.26-1.01,2.07 c0,0.59,0.28,1.12,0.82,1.59c0.53,0.49,1.81,0.94,3.84,1.37c5.02,1.08,8.62,2.18,10.78,3.29c2.17,1.11,3.76,2.48,4.75,4.12 c0.99,1.64,1.48,3.47,1.48,5.51c0,2.38-0.66,4.58-1.97,6.6c-1.33,2.01-3.16,3.54-5.53,4.58c-2.36,1.04-5.34,1.56-8.95,1.56 c-6.32,0-10.71-1.22-13.14-3.66C62.8,63.17,61.42,60.08,61.1,56.33L61.1,56.33z"/></g></svg>