<svg id="Layer_1" data-name="Layer 1" xmlns="http://www.w3.org/2000/svg" viewBox="0 0 122.88 50.91"><defs><style>.cls-1{fill:#fddd00;}</style></defs><title>sprint-mobile</title><path d="M5.07,40.35A18.72,18.72,0,0,1,.5,39.81l.2-3.45a14.52,14.52,0,0,0,4.7.84c2.49,0,4.5-1,4.5-3.49C9.9,28.94,0,31,0,23.64,0,19.75,3.05,17,8.32,17a24,24,0,0,1,4.1.4l-.2,3.26a14.09,14.09,0,0,0-4.1-.64c-2.82,0-4.26,1.31-4.26,3.19,0,4.53,9.9,2.85,9.9,9.93,0,4.16-3.29,7.18-8.69,7.18Z"/><path d="M24.19,26c-2.68,0-4.12,3.16-4.12,6V37.1a9,9,0,0,0,2.61.33c2.86,0,4.8-1.74,4.8-6.24,0-3.36-1-5.24-3.29-5.24Zm-1.61,14.3a12.1,12.1,0,0,1-2.51-.2v7.26H16.48v-24h3.39a19.55,19.55,0,0,1-.21,3.12h.07A5.66,5.66,0,0,1,25.13,23c4,0,6.14,2.82,6.14,7.85,0,5.88-3.11,9.4-8.69,9.4Z"/><path d="M42.79,26.52c-3.32-.6-4.93,1.72-4.93,6.72V40H34.27V23.34h3.42A22,22,0,0,1,37.35,27h.07c.74-2.25,2.42-4.33,5.54-4l-.17,3.52Z"/><path d="M49.7,40H46.11V23.34H49.7V40ZM47.92,20.85a2.25,2.25,0,1,1,0-4.49,2.25,2.25,0,1,1,0,4.49Z"/><path d="M64.47,40V29.28C64.47,27.2,63.89,26,62,26c-2.52,0-4.36,2.65-4.36,6V40H54V23.34h3.42a22.9,22.9,0,0,1-.23,3.25l0,0A6.1,6.1,0,0,1,63.06,23c3.79,0,5,2.38,5,5.34V40Z"/><path d="M77.92,40.32c-3.56,0-4.64-1.38-4.64-5.1v-9.1H70.1V23.34h3.18V18l3.56-1v6.28h4.4v2.78H76.88v8c0,2.48.5,3.15,2.18,3.15A9.5,9.5,0,0,0,81.24,37v3a17.57,17.57,0,0,1-3.32.37Z"/><path class="cls-1" d="M97.55,35.4c4.89-6.3,8.74-13.7,8.74-19,0-2.78-2-4.72-4.58-6.19.05,5.77-1.95,19.31-4.16,25.2Z"/><path class="cls-1" d="M81.51,50.91C93,47.08,109.59,38.14,121.15,30.16c1-.67,1.73-1.29,1.73-2.38,0-1.88-3.45-4.41-5.13-5.42-9.1,9.46-27.2,23.63-36.24,28.55Z"/><path class="cls-1" d="M92.14,42.88C99.21,38,109.48,28.8,113,23.79c.82-1.17,1.43-1.86,1.43-3.09,0-2-2.36-3.5-4-4.53-4.06,9.57-13.18,21.49-18.2,26.71Z"/><path class="cls-1" d="M98.58,29.32a50,50,0,0,0-.79-17.91,10.2,10.2,0,0,0-5-6.18,141.93,141.93,0,0,1,5.74,24.09Z"/><path class="cls-1" d="M96.57,20.85C94.43,15.06,89.09,3,81.24,0c5.11,5.64,12.69,16.84,15.33,20.85Z"/></svg>