<?xml version="1.0" encoding="utf-8"?><svg version="1.1" id="Layer_1" xmlns="http://www.w3.org/2000/svg" xmlns:xlink="http://www.w3.org/1999/xlink" x="0px" y="0px" viewBox="0 0 122.88 94.58" style="enable-background:new 0 0 122.88 94.58" xml:space="preserve"><g><path d="M6.52,91.32c0,1.8-1.46,3.26-3.26,3.26c-1.8,0-3.26-1.46-3.26-3.26V73.45c0-0.11,0.01-0.22,0.02-0.32 c0.05-1.86,0.64-3.37,1.75-4.55c1.16-1.23,2.74-1.93,4.72-2.14c0.17-0.02,0.34-0.02,0.51-0.01l22.24,0.04V49.07 c0-0.11,0.01-0.22,0.02-0.33c0.05-1.17,0.41-2.17,1.1-2.98c0.85-1,2-1.52,3.44-1.55l0.09,0V44.2h24.66V27.61 c0-0.17,0.01-0.34,0.04-0.51c0.14-1.42,0.7-2.53,1.59-3.38c0.91-0.87,2.04-1.33,3.33-1.49c0.13-0.02,0.26-0.02,0.38-0.02l25.08,0 c0-5.09,0.28-10.99,0-15.99c0-0.95,0.32-2.38,1.11-3.58c0.9-1.37,2.34-2.5,4.5-2.63L94.93,0h24.69c1.8,0,3.26,1.46,3.26,3.26 c0,1.8-1.46,3.26-3.26,3.26H95.49v18.95c0,1.8-1.46,3.26-3.26,3.26H65.06v18.73c0,1.8-1.46,3.26-3.26,3.26H35.76v19h-0.01 c0,1.79-1.45,3.25-3.25,3.25L7.03,72.92C6.72,72.96,6.54,73,6.5,73.03l0,0.09c0.01,0.11,0.02,0.21,0.02,0.32V91.32L6.52,91.32z"/></g></svg>