<?xml version="1.0" encoding="utf-8"?><svg version="1.1" id="Layer_1" xmlns="http://www.w3.org/2000/svg" xmlns:xlink="http://www.w3.org/1999/xlink" x="0px" y="0px" viewBox="0 0 122.88 112.79" style="enable-background:new 0 0 122.88 112.79" xml:space="preserve"><g><path d="M6.52,109.53c0,1.8-1.46,3.26-3.26,3.26c-1.8,0-3.26-1.46-3.26-3.26V91.66c0-0.11,0.01-0.22,0.02-0.32 c0.05-1.86,0.64-3.37,1.75-4.55c1.16-1.23,2.74-1.93,4.72-2.14c0.17-0.02,0.34-0.02,0.51-0.01l22.24,0.04V67.29 c0-0.11,0.01-0.22,0.02-0.33c0.05-1.18,0.41-2.17,1.1-2.98c0.85-1,2-1.52,3.44-1.55l0.09,0v-0.01h24.66V45.83 c0-0.17,0.01-0.34,0.04-0.51c0.14-1.42,0.7-2.53,1.59-3.38c0.91-0.87,2.04-1.33,3.33-1.49c0.13-0.02,0.26-0.02,0.38-0.02l25.08,0 c0-5.09,0.28-10.99,0-15.99c0-0.95,0.32-2.38,1.11-3.58c0.9-1.37,2.34-2.5,4.5-2.63l0.36-0.02h24.69c1.8,0,3.26,1.46,3.26,3.26 c0,1.8-1.46,3.26-3.26,3.26H95.49v18.95c0,1.8-1.46,3.26-3.26,3.26H65.06v18.73c0,1.8-1.46,3.26-3.26,3.26H35.76v19h-0.01 c0,1.79-1.45,3.25-3.25,3.25L7.03,91.14c-0.31,0.04-0.49,0.07-0.53,0.11l0,0.09c0.01,0.11,0.02,0.21,0.02,0.32V109.53L6.52,109.53z M29.48,37.88l5.77,2.37c1.68,0.69,2.48,2.61,1.79,4.3c-0.69,1.68-2.61,2.48-4.3,1.79L19,40.69c-0.98-0.34-1.78-1.14-2.08-2.22 c-0.27-0.96-0.09-1.93,0.42-2.7l8.11-13.24c0.95-1.55,2.97-2.04,4.53-1.1c1.55,0.95,2.04,2.97,1.1,4.53l-3.39,5.54 c6.27-2.55,12.09-5.82,17.34-9.59c8.19-5.89,15.02-12.99,20.06-20.45c1.02-1.51,3.07-1.91,4.58-0.89c1.51,1.02,1.91,3.07,0.89,4.58 c-5.44,8.06-12.83,15.74-21.69,22.1C43,31.45,36.5,35.09,29.48,37.88L29.48,37.88z"/></g></svg>