<?xml version="1.0" encoding="utf-8"?><svg version="1.1" id="Layer_1" xmlns="http://www.w3.org/2000/svg" xmlns:xlink="http://www.w3.org/1999/xlink" x="0px" y="0px" viewBox="0 0 122.88 107.32" style="enable-background:new 0 0 122.88 107.32" xml:space="preserve"><g><path d="M6.52,104.06c0,1.8-1.46,3.26-3.26,3.26c-1.8,0-3.26-1.46-3.26-3.26V86.18c0-0.11,0.01-0.22,0.02-0.32 c0.05-1.86,0.64-3.37,1.75-4.55c1.16-1.23,2.74-1.93,4.72-2.14c0.17-0.02,0.34-0.02,0.51-0.01l22.24,0.04V61.81 c0-0.11,0.01-0.22,0.02-0.33c0.05-1.18,0.41-2.17,1.1-2.99c0.85-1,2-1.52,3.44-1.55l0.09,0v-0.01h24.66V40.35 c0-0.17,0.01-0.34,0.04-0.51c0.14-1.42,0.7-2.53,1.59-3.38c0.91-0.87,2.04-1.33,3.33-1.49c0.13-0.02,0.26-0.02,0.38-0.02l25.08,0 c0-5.09,0.28-10.99,0-15.99c0-0.95,0.32-2.38,1.11-3.58c0.9-1.37,2.34-2.5,4.5-2.63l0.36-0.02h24.69c1.8,0,3.26,1.46,3.26,3.26 c0,1.8-1.46,3.26-3.26,3.26H95.49v18.95c0,1.8-1.46,3.26-3.26,3.26H65.06v18.73c0,1.8-1.46,3.26-3.26,3.26H35.76v19h-0.01 c0,1.79-1.45,3.25-3.25,3.25L7.03,85.66c-0.31,0.04-0.49,0.07-0.53,0.11l0,0.09c0.01,0.11,0.02,0.21,0.02,0.32V104.06L6.52,104.06z M58.35,0.25c0.24-0.1,0.5-0.17,0.77-0.21c1.8-0.26,3.48,0.98,3.74,2.79l2.21,14.87c0.26,1.8-0.98,3.48-2.79,3.74 c-1.8,0.26-3.48-0.98-3.74-2.79l-0.91-6.16c-4.39,6.15-9.47,11.59-14.95,16.26c-8.3,7.08-17.53,12.4-26.67,15.76 c-1.71,0.63-3.6-0.25-4.23-1.96c-0.63-1.71,0.25-3.6,1.96-4.23c8.44-3.1,16.97-8.03,24.65-14.57c4.93-4.2,9.51-9.07,13.49-14.55 l-6.2,1.97c-1.73,0.55-3.58-0.41-4.13-2.14C41.01,7.3,41.97,5.45,43.7,4.9L58.35,0.25L58.35,0.25z"/></g></svg>