<?xml version="1.0" encoding="utf-8"?><svg version="1.1" id="Layer_1" xmlns="http://www.w3.org/2000/svg" xmlns:xlink="http://www.w3.org/1999/xlink" x="0px" y="0px" viewBox="0 0 114.4 122.88" style="enable-background:new 0 0 114.4 122.88" xml:space="preserve"><style type="text/css">.st0{fill-rule:evenodd;clip-rule:evenodd;}</style><g><path class="st0" d="M41.95,30.79c-5.37-12.61-1.91-21.87,4.5-26.86c7.42-5.78,20.51-5.43,26.11,2.76 c4.88,7.14,2.79,14.1,0.64,21.79c-1.03,3.69-2.12,6.79-3.12,9.7c-4.16,12.17-9.13,43.83,11.04,42.93h22.24 c6.44,0.44,10.96,3.14,11.04,11.04v17.39c-0.73,1.55-1.63,2.7-3.38,2.7h-0.19v9.5c0,0.63-0.51,1.14-1.14,1.14H4.98 c-0.63,0-1.14-0.51-1.14-1.14l-0.04-9.5c-2.7,0-3.33-0.37-3.8-3.54V91.3c-0.06-2.76,0.75-4.97,2.35-6.66 c1.7-1.8,4.29-3.02,7.69-3.71h23.41c17.18,0.65,16.49-20.49,12.76-36.57C44.94,38.9,43.33,34.03,41.95,30.79L41.95,30.79z M108.53,120.59v-7.62c-22.38,0-66.99,0.02-88.71,0.07c-4.74,0.01-8.61,0.02-11.25,0.03c-0.84,0-1.66,0-2.45-0.02v7.53H108.53 L108.53,120.59z"/></g></svg>