<?xml version="1.0" encoding="utf-8"?><svg version="1.1" id="Layer_1" xmlns="http://www.w3.org/2000/svg" xmlns:xlink="http://www.w3.org/1999/xlink" x="0px" y="0px" viewBox="0 0 122.88 101.25" style="enable-background:new 0 0 122.88 101.25" xml:space="preserve"><style type="text/css"><![CDATA[
	.st0{fill-rule:evenodd;clip-rule:evenodd;fill:#72BD39;}
	.st1{fill:#FFFFFF;}
	.st2{fill:#3E9C2A;}
]]></style><g><path class="st2" d="M61.44,0c16.77,0,32.01,5.55,43.09,14.53c11.34,9.18,18.35,21.94,18.35,36.1s-7.01,26.91-18.35,36.09 c-11.08,8.98-26.32,14.53-43.09,14.53s-32.01-5.55-43.09-14.53C7.01,77.54,0,64.78,0,50.62s7.01-26.91,18.35-36.1 C29.43,5.55,44.67,0,61.44,0L61.44,0z"/><path class="st0" d="M61.44,4.5c31.44,0,56.94,20.65,56.94,46.12c0,25.47-25.49,46.12-56.94,46.12C30,96.74,4.5,76.09,4.5,50.62 C4.5,25.15,30,4.5,61.44,4.5L61.44,4.5z"/><path class="st2" d="M39.43,45.68h-6.82l0.13,0.08c1.75,1.04,3.17,2,4.27,2.85l0.06,0.05c1.12,0.88,1.93,1.68,2.42,2.4 c0.51,0.75,0.89,1.71,1.14,2.88c0.24,1.12,0.36,2.43,0.36,3.94c0,1.09-0.07,2.05-0.2,2.89c-0.14,0.87-0.35,1.59-0.64,2.18 c-0.3,0.61-0.73,1.16-1.29,1.66l-0.05,0.04c-0.53,0.46-1.18,0.87-1.93,1.23l-0.04,0.02c-0.76,0.36-1.57,0.63-2.45,0.81 c-0.89,0.18-1.83,0.28-2.82,0.28c-1.09,0-2.1-0.11-3.06-0.32c-0.96-0.21-1.84-0.54-2.64-0.96c-0.81-0.43-1.49-0.93-2.03-1.5 c-0.56-0.59-0.98-1.24-1.25-1.95l0,0c-0.25-0.66-0.43-1.46-0.55-2.39c-0.12-0.91-0.18-1.93-0.18-3.07v-1.94c0-0.5,0.4-0.9,0.9-0.9 h6.18l-0.95-0.64c-0.93-0.61-1.73-1.17-2.4-1.65c-0.68-0.5-1.19-0.9-1.52-1.2l0,0c-0.36-0.34-0.69-0.74-0.99-1.2 c-0.29-0.44-0.55-0.95-0.77-1.5c-0.23-0.57-0.4-1.21-0.51-1.92l0-0.03c-0.11-0.7-0.16-1.45-0.16-2.26c0-1.18,0.08-2.21,0.23-3.1 c0.16-0.92,0.41-1.7,0.75-2.31c0.34-0.62,0.78-1.16,1.33-1.64c0.53-0.47,1.16-0.87,1.89-1.2c0.71-0.33,1.5-0.57,2.34-0.73 c0.84-0.16,1.74-0.24,2.71-0.24c1.05,0,2.03,0.09,2.94,0.26c0.92,0.17,1.77,0.44,2.54,0.79c0.78,0.36,1.44,0.77,1.97,1.24 c0.56,0.49,0.98,1.04,1.27,1.65c0.26,0.57,0.46,1.32,0.59,2.25c0.12,0.88,0.18,1.93,0.18,3.13v1.17 C40.33,45.28,39.93,45.68,39.43,45.68L39.43,45.68z M33.17,43.88h5.35v-0.27c0-1.15-0.05-2.11-0.16-2.89 c-0.1-0.74-0.25-1.32-0.44-1.73c-0.17-0.38-0.45-0.73-0.81-1.05c-0.4-0.35-0.91-0.67-1.54-0.96c-0.63-0.29-1.34-0.51-2.12-0.66 c-0.79-0.15-1.66-0.22-2.61-0.22c-0.87,0-1.66,0.07-2.37,0.2c-0.71,0.13-1.35,0.33-1.93,0.6c-0.56,0.26-1.05,0.57-1.45,0.92 c-0.39,0.34-0.7,0.73-0.94,1.16c-0.24,0.43-0.42,1.01-0.55,1.75c-0.13,0.77-0.2,1.71-0.2,2.79c0,0.74,0.05,1.4,0.13,1.98l0,0.03 c0.09,0.58,0.23,1.09,0.41,1.53c0.18,0.45,0.38,0.85,0.61,1.19c0.22,0.33,0.45,0.62,0.71,0.86c0.3,0.28,0.75,0.63,1.35,1.07 c0.59,0.43,1.37,0.96,2.33,1.6c0.97,0.64,1.76,1.19,2.37,1.65c0.65,0.49,1.12,0.88,1.4,1.19l0.01,0.01 c0.35,0.39,0.59,0.94,0.75,1.67c0.13,0.64,0.2,1.42,0.2,2.35c0,0.45-0.04,0.86-0.12,1.22c-0.08,0.4-0.22,0.75-0.4,1.04 c-0.21,0.34-0.48,0.6-0.82,0.78c-0.32,0.17-0.69,0.26-1.09,0.26c-0.38,0-0.72-0.07-1.01-0.2c-0.33-0.14-0.59-0.36-0.78-0.65 l-0.04-0.05c-0.17-0.27-0.28-0.64-0.35-1.13c-0.06-0.41-0.09-0.91-0.09-1.49v-2.7h-5.35v1.04c0,1.08,0.05,2.03,0.16,2.83 c0.1,0.78,0.26,1.45,0.46,2c0.18,0.49,0.47,0.93,0.86,1.34c0.41,0.43,0.94,0.81,1.58,1.16c0.66,0.35,1.38,0.62,2.18,0.79 c0.8,0.18,1.69,0.27,2.67,0.27c0.89,0,1.71-0.08,2.46-0.23c0.73-0.15,1.41-0.38,2.04-0.67l0.05-0.02c0.62-0.29,1.12-0.61,1.53-0.96 l0.04-0.04c0.39-0.34,0.68-0.71,0.87-1.1c0.21-0.42,0.37-0.98,0.48-1.67c0.11-0.72,0.17-1.58,0.17-2.6c0-1.39-0.1-2.58-0.31-3.56 c-0.2-0.94-0.49-1.68-0.87-2.24c-0.38-0.57-1.06-1.23-2.04-2l-0.05-0.04c-1.06-0.82-2.42-1.73-4.08-2.73 c-0.63-0.38-1.15-0.73-1.55-1.07c-0.43-0.36-0.74-0.7-0.93-1.03l-0.03-0.06c-0.18-0.33-0.31-0.73-0.4-1.2 c-0.08-0.44-0.12-0.92-0.12-1.45c0-0.44,0.04-0.83,0.11-1.19c0.08-0.39,0.21-0.73,0.39-1.01c0.2-0.32,0.46-0.57,0.77-0.74 c0.31-0.17,0.65-0.25,1.03-0.25c0.34,0,0.65,0.06,0.92,0.19c0.31,0.14,0.56,0.36,0.74,0.65c0.16,0.26,0.28,0.61,0.34,1.07 c0.05,0.38,0.08,0.84,0.08,1.38V43.88L33.17,43.88z M31.37,44.82l0-2.23c0-0.48-0.02-0.86-0.06-1.13 c-0.02-0.18-0.05-0.29-0.06-0.33c-0.03-0.01-0.08-0.02-0.16-0.02c-0.08,0-0.14,0.01-0.18,0.03c-0.03,0.02-0.07,0.06-0.1,0.11 l0,0.01c-0.06,0.1-0.11,0.23-0.15,0.41c-0.04,0.22-0.07,0.49-0.07,0.82c0,0.45,0.03,0.83,0.08,1.14c0.05,0.27,0.12,0.5,0.21,0.67 l0.02,0.03C30.98,44.46,31.14,44.62,31.37,44.82L31.37,44.82z M30.78,55.29v3.13c0,0.52,0.02,0.94,0.06,1.25 c0.03,0.23,0.06,0.37,0.1,0.42l0.02,0.01c0.06,0.03,0.16,0.04,0.29,0.04c0.11,0,0.2-0.02,0.25-0.04c0.04-0.02,0.09-0.07,0.13-0.13 l0-0.01c0.07-0.11,0.12-0.26,0.16-0.46c0.05-0.23,0.07-0.52,0.07-0.86c0-0.82-0.05-1.48-0.16-1.98c-0.08-0.4-0.19-0.68-0.31-0.83 C31.25,55.69,31.05,55.51,30.78,55.29L30.78,55.29z M51.93,37.92v2.92h1.16c0.5,0,0.9,0.4,0.9,0.9v3.86c0,0.5-0.4,0.9-0.9,0.9 h-1.16v12.08c0,0.79,0.02,1.38,0.06,1.77c0.02,0.24-0.1,0.22-0.04,0.28c0.06,0.07-0.02-0.09,0.11-0.07 c0.3,0.04,0.74,0.06,1.33,0.06c0.5,0,0.9,0.4,0.9,0.9v3.9c0,0.5-0.4,0.9-0.9,0.9H50.4c-0.83,0-1.57-0.02-2.22-0.06 c-0.65-0.04-1.17-0.1-1.57-0.17c-0.44-0.09-0.86-0.23-1.25-0.43c-0.39-0.2-0.75-0.45-1.09-0.76c-0.34-0.31-0.62-0.65-0.83-1.01 c-0.22-0.38-0.38-0.78-0.47-1.21c-0.08-0.37-0.13-0.96-0.17-1.78c-0.04-0.82-0.05-1.82-0.05-2.99V46.5h-0.67 c-0.5,0-0.9-0.4-0.9-0.9v-3.86c0-0.5,0.4-0.9,0.9-0.9h0.67v-2.92c0-0.5,0.4-0.9,0.9-0.9h7.38C51.53,37.02,51.93,37.43,51.93,37.92 L51.93,37.92z M50.13,41.75v-2.92h-5.58v2.92c0,0.5-0.4,0.9-0.9,0.9h-0.67v2.06h0.67c0.5,0,0.9,0.4,0.9,0.9v12.31 c0,1.24,0.02,2.21,0.05,2.92c0.03,0.72,0.08,1.22,0.13,1.49c0.05,0.23,0.13,0.44,0.25,0.64c0.13,0.21,0.3,0.42,0.51,0.61 c0.21,0.19,0.44,0.35,0.69,0.48c0.24,0.12,0.5,0.21,0.78,0.27c0.33,0.06,0.77,0.11,1.33,0.15c0.56,0.03,1.27,0.05,2.12,0.05h2.09 v-2.12c-0.25-0.01-0.47-0.03-0.66-0.06c-0.57-0.07-0.97-0.24-1.2-0.48c-0.22-0.24-0.37-0.69-0.43-1.34 c-0.05-0.5-0.07-1.14-0.07-1.94V45.6c0-0.5,0.4-0.9,0.9-0.9h1.16v-2.06h-1.16C50.53,42.65,50.13,42.24,50.13,41.75L50.13,41.75z M61.23,50.73h-5.89c-0.5,0-0.9-0.4-0.9-0.9v-0.91c0-0.98,0.06-1.85,0.17-2.62c0.12-0.8,0.3-1.49,0.55-2.08 c0.26-0.61,0.65-1.18,1.16-1.71c0.49-0.51,1.1-0.97,1.82-1.41c0.73-0.44,1.57-0.77,2.51-0.98c0.92-0.21,1.93-0.32,3.04-0.32 c1.31,0,2.48,0.12,3.49,0.36c1.06,0.25,1.95,0.63,2.68,1.13c0.72,0.5,1.3,1.07,1.74,1.7c0.45,0.65,0.76,1.35,0.91,2.12 c0.13,0.68,0.24,1.71,0.3,3.1c0.07,1.38,0.1,3.05,0.1,5.03v12.19c0,0.5-0.4,0.9-0.9,0.9h-7.19c-0.4,0-0.74-0.26-0.86-0.63 c-0.14,0.1-0.28,0.2-0.42,0.29c-0.43,0.26-0.9,0.46-1.42,0.59c-0.51,0.13-1.04,0.2-1.6,0.2c-0.73,0-1.44-0.11-2.12-0.31 c-0.68-0.21-1.33-0.52-1.94-0.93l-0.06-0.04c-0.68-0.48-1.18-1.2-1.51-2.16c-0.3-0.89-0.45-2-0.45-3.32v-2 c0-0.97,0.08-1.8,0.24-2.49c0.18-0.76,0.46-1.37,0.84-1.81c0.36-0.42,0.95-0.84,1.75-1.27c0.74-0.4,1.7-0.82,2.87-1.28L61.23,50.73 L61.23,50.73z M56.25,48.93h5.13v-0.92c0-0.67,0.02-1.23,0.05-1.68l0-0.02c0.04-0.51,0.1-0.89,0.2-1.13 c0.14-0.37,0.39-0.66,0.75-0.84c0.29-0.15,0.63-0.23,1.03-0.23c0.39,0,0.73,0.09,1.03,0.27c0.31,0.19,0.55,0.46,0.72,0.8 c0.14,0.29,0.24,0.69,0.3,1.21c0.05,0.45,0.08,1.01,0.08,1.67c0,0.53-0.02,0.99-0.07,1.38c-0.06,0.44-0.15,0.79-0.28,1.05 c-0.18,0.34-0.68,0.72-1.52,1.13c-0.67,0.33-1.63,0.74-2.86,1.22c-1.09,0.43-1.99,0.82-2.67,1.19c-0.62,0.33-1.03,0.62-1.25,0.87 c-0.19,0.22-0.34,0.56-0.45,1.04c-0.13,0.55-0.19,1.25-0.19,2.09v2c0,1.13,0.12,2.05,0.35,2.74c0.2,0.58,0.47,1,0.83,1.25 l0.04,0.03c0.47,0.32,0.95,0.55,1.45,0.7c0.5,0.15,1.04,0.23,1.6,0.23c0.43,0,0.82-0.04,1.16-0.13c0.33-0.08,0.64-0.22,0.92-0.39 c0.27-0.17,0.51-0.37,0.74-0.61l0.04-0.04c0.23-0.26,0.43-0.56,0.61-0.9c0.14-0.32,0.46-0.54,0.83-0.54c0.5,0,0.9,0.4,0.9,0.9v1.27 h5.39V53.23c0-2.03-0.03-3.67-0.09-4.95c-0.06-1.28-0.16-2.23-0.28-2.84c-0.1-0.52-0.31-1-0.62-1.43c-0.32-0.45-0.75-0.87-1.3-1.25 c-0.54-0.38-1.23-0.66-2.06-0.86c-0.87-0.21-1.9-0.31-3.08-0.31c-0.98,0-1.86,0.09-2.64,0.27c-0.76,0.17-1.42,0.43-1.99,0.77 c-0.58,0.35-1.07,0.72-1.45,1.12c-0.36,0.37-0.62,0.76-0.79,1.16c-0.18,0.44-0.33,0.98-0.42,1.64 C56.3,47.23,56.25,48.02,56.25,48.93L56.25,48.93L56.25,48.93z M63.18,49.86l0.41-0.19c0.04-0.07,0.07-0.22,0.1-0.45 c0.04-0.28,0.05-0.66,0.05-1.15c0-0.61-0.02-1.1-0.06-1.47c-0.04-0.31-0.08-0.52-0.13-0.61c-0.02-0.03-0.03-0.05-0.04-0.06 c-0.01-0.01-0.05-0.01-0.1-0.01l-0.12,0c-0.02,0.11-0.04,0.29-0.06,0.53l0,0.02c-0.03,0.38-0.04,0.9-0.04,1.55L63.18,49.86 L63.18,49.86z M62.57,54.45c0.38-0.39,0.87-0.82,1.49-1.27c0.16-0.13,0.36-0.21,0.57-0.21c0.5,0,0.9,0.4,0.9,0.9v5 c0,0.61-0.02,1.13-0.06,1.56c-0.05,0.49-0.13,0.86-0.25,1.1c-0.16,0.33-0.41,0.57-0.76,0.73c-0.27,0.13-0.59,0.2-0.96,0.2 c-0.4,0-0.75-0.08-1.05-0.25c-0.34-0.19-0.59-0.47-0.75-0.83c-0.12-0.28-0.21-0.66-0.26-1.16c-0.05-0.45-0.07-1-0.07-1.64 c0-0.56,0.03-1.07,0.08-1.53l0-0.03c0.05-0.47,0.14-0.89,0.25-1.24C61.85,55.36,62.13,54.91,62.57,54.45L62.57,54.45z M63.74,55.84 c-0.17,0.2-0.28,0.36-0.32,0.49c-0.08,0.23-0.13,0.53-0.18,0.9l0,0.02c-0.04,0.37-0.06,0.81-0.06,1.33c0,0.62,0.02,1.1,0.06,1.46 c0.03,0.31,0.07,0.51,0.11,0.61c0,0-0.02-0.01-0.01,0l0.01,0c0.03,0.01,0.09,0.02,0.17,0.02l0.13,0c0.02-0.08,0.03-0.21,0.05-0.38 c0.03-0.32,0.04-0.79,0.04-1.4V55.84L63.74,55.84z M80.65,44.27l0.18-2.23h-5.46v22.47h5.58v-8.69c0-1.15,0.02-2.13,0.06-2.94 c0.04-0.81,0.1-1.4,0.18-1.77c0.1-0.46,0.29-0.86,0.57-1.22c0.27-0.35,0.61-0.65,1.03-0.89c0.41-0.24,0.91-0.41,1.51-0.52 c0.32-0.06,0.66-0.1,1.03-0.13v-6.6c-0.45,0.14-0.87,0.36-1.25,0.65c-0.66,0.51-1.22,1.26-1.69,2.24c-0.14,0.36-0.5,0.61-0.91,0.58 C80.99,45.2,80.62,44.77,80.65,44.27L80.65,44.27z M82.71,41.22L82.98,41c0.92-0.72,1.99-1.12,3.19-1.2 c0.5-0.03,0.92,0.34,0.96,0.84l0,8.6c0,0.5-0.4,0.9-0.9,0.9c-0.63,0-1.17,0.04-1.6,0.12c-0.4,0.07-0.71,0.17-0.94,0.31 c-0.22,0.13-0.38,0.27-0.51,0.42c-0.12,0.15-0.2,0.33-0.24,0.52c-0.06,0.27-0.11,0.76-0.14,1.46c-0.03,0.7-0.05,1.65-0.05,2.86 v9.59c0,0.5-0.4,0.9-0.9,0.9h-7.38c-0.5,0-0.9-0.4-0.9-0.9V41.15c0-0.5,0.4-0.9,0.9-0.9h7.34c0.5,0,0.9,0.4,0.9,0.9L82.71,41.22 L82.71,41.22z M98.21,37.92v2.92h1.16c0.5,0,0.9,0.4,0.9,0.9v3.86c0,0.5-0.4,0.9-0.9,0.9h-1.16v12.08c0,0.79,0.02,1.38,0.06,1.77 c0.02,0.24-0.1,0.22-0.04,0.28c0.06,0.07-0.02-0.09,0.11-0.07c0.3,0.04,0.74,0.06,1.33,0.06c0.5,0,0.9,0.4,0.9,0.9v3.9 c0,0.5-0.4,0.9-0.9,0.9h-2.99c-0.83,0-1.57-0.02-2.21-0.06c-0.65-0.04-1.17-0.1-1.57-0.17c-0.45-0.09-0.86-0.23-1.26-0.43 l-0.05-0.03c-0.37-0.19-0.72-0.44-1.04-0.73c-0.34-0.31-0.62-0.65-0.83-1.01l0,0c-0.22-0.37-0.38-0.77-0.47-1.2 c-0.08-0.37-0.13-0.96-0.17-1.78c-0.04-0.82-0.05-1.82-0.05-2.99V46.5h-0.67c-0.5,0-0.9-0.4-0.9-0.9v-3.86c0-0.5,0.4-0.9,0.9-0.9 h0.67v-2.92c0-0.5,0.4-0.9,0.9-0.9h7.38C97.8,37.02,98.21,37.43,98.21,37.92L98.21,37.92z M96.41,41.75v-2.92h-5.58v2.92 c0,0.5-0.4,0.9-0.9,0.9h-0.67v2.06h0.67c0.5,0,0.9,0.4,0.9,0.9v12.31c0,1.24,0.02,2.21,0.05,2.91c0.03,0.72,0.08,1.22,0.13,1.5 c0.05,0.22,0.13,0.44,0.25,0.65c0.13,0.21,0.29,0.41,0.5,0.61c0.2,0.19,0.42,0.34,0.65,0.46l0.04,0.02 c0.25,0.12,0.5,0.21,0.78,0.27c0.33,0.06,0.77,0.11,1.33,0.15s1.26,0.05,2.12,0.05h2.09v-2.12c-0.25-0.01-0.47-0.03-0.66-0.06 c-0.57-0.07-0.97-0.24-1.2-0.48c-0.22-0.24-0.36-0.69-0.43-1.34c-0.05-0.49-0.07-1.14-0.07-1.94V45.6c0-0.5,0.4-0.9,0.9-0.9h1.16 v-2.06h-1.16C96.81,42.65,96.41,42.24,96.41,41.75L96.41,41.75z"/><path class="st1" d="M39.43,44.78h-7.16v-2.19c0-1.02-0.09-1.68-0.27-1.96c-0.18-0.28-0.48-0.42-0.9-0.42 c-0.46,0-0.81,0.19-1.05,0.57c-0.24,0.37-0.36,0.94-0.36,1.71c0,0.99,0.14,1.73,0.41,2.23c0.26,0.49,0.99,1.1,2.18,1.81 c3.42,2.04,5.57,3.72,6.46,5.03c0.89,1.3,1.34,3.41,1.34,6.31c0,2.11-0.25,3.67-0.74,4.67c-0.49,1-1.44,1.83-2.86,2.51 c-1.41,0.68-3.05,1.02-4.93,1.02c-2.06,0-3.82-0.39-5.28-1.17c-1.45-0.78-2.4-1.77-2.86-2.98c-0.45-1.21-0.67-2.93-0.67-5.14v-1.94 h7.16v3.6c0,1.11,0.1,1.82,0.3,2.14c0.2,0.32,0.56,0.47,1.07,0.47c0.51,0,0.89-0.2,1.14-0.61c0.25-0.4,0.37-1,0.37-1.79 c0-1.74-0.24-2.88-0.71-3.42c-0.49-0.54-1.69-1.44-3.6-2.7c-1.91-1.27-3.17-2.19-3.8-2.77c-0.62-0.57-1.14-1.37-1.54-2.38 s-0.61-2.3-0.61-3.88c0-2.27,0.29-3.93,0.87-4.98c0.58-1.05,1.51-1.87,2.8-2.46c1.29-0.59,2.85-0.89,4.68-0.89 c2,0,3.7,0.32,5.11,0.97c1.4,0.65,2.34,1.46,2.79,2.45c0.46,0.98,0.69,2.65,0.69,5V44.78L39.43,44.78z M51.03,37.92v3.82h2.06v3.86 h-2.06v12.98c0,1.59,0.09,2.49,0.26,2.67c0.17,0.18,0.87,0.27,2.1,0.27v3.9H50.4c-1.69,0-2.89-0.07-3.61-0.21 c-0.72-0.14-1.36-0.46-1.9-0.97c-0.55-0.51-0.9-1.08-1.03-1.74c-0.13-0.65-0.2-2.18-0.2-4.59V45.6h-1.57v-3.86h1.57v-3.82H51.03 L51.03,37.92z M62.28,49.83h-6.93v-0.91c0-1.88,0.22-3.33,0.65-4.35c0.43-1.02,1.31-1.92,2.61-2.7c1.3-0.78,3-1.17,5.09-1.17 c2.5,0,4.38,0.45,5.65,1.33c1.26,0.88,2.03,1.97,2.29,3.25c0.25,1.29,0.39,3.94,0.39,7.96v12.19h-7.19v-2.17 c-0.45,0.87-1.04,1.52-1.75,1.96c-0.71,0.44-1.56,0.66-2.55,0.66c-1.29,0-2.48-0.36-3.56-1.09c-1.08-0.73-1.62-2.32-1.62-4.77v-2 c0-1.82,0.29-3.05,0.86-3.71c0.57-0.66,2-1.42,4.27-2.3c2.43-0.95,3.73-1.59,3.9-1.92c0.17-0.33,0.26-1,0.26-2.02 c0-1.27-0.1-2.09-0.29-2.48C64.16,45.2,63.84,45,63.4,45c-0.51,0-0.81,0.17-0.94,0.49c-0.12,0.32-0.19,1.16-0.19,2.52V49.83 L62.28,49.83z M64.64,53.88c-1.19,0.87-1.88,1.59-2.07,2.18c-0.19,0.59-0.29,1.42-0.29,2.52c0,1.26,0.08,2.07,0.25,2.43 c0.16,0.37,0.49,0.55,0.99,0.55c0.47,0,0.77-0.14,0.91-0.43c0.14-0.29,0.21-1.04,0.21-2.26V53.88L64.64,53.88z M81.81,41.15 l-0.26,3.2c1.08-2.3,2.64-3.51,4.68-3.65v8.54c-1.36,0-2.36,0.18-2.99,0.55c-0.64,0.37-1.03,0.88-1.17,1.53 c-0.14,0.65-0.22,2.16-0.22,4.51v9.59h-7.38V41.15H81.81L81.81,41.15z M97.31,37.92v3.82h2.06v3.86h-2.06v12.98 c0,1.59,0.09,2.49,0.26,2.67c0.17,0.18,0.87,0.27,2.1,0.27v3.9h-2.99c-1.68,0-2.89-0.07-3.62-0.21c-0.72-0.14-1.35-0.46-1.9-0.97 c-0.55-0.51-0.9-1.08-1.03-1.74c-0.13-0.65-0.2-2.18-0.2-4.59V45.6h-1.57v-3.86h1.57v-3.82H97.31L97.31,37.92z"/></g></svg>