<svg id="Layer_1" data-name="Layer 1" xmlns="http://www.w3.org/2000/svg" viewBox="0 0 121.01 122.88"><title>sticky-note</title><path d="M86.32,110,108.8,86.38H86.32V110ZM35.61,86.34a3.66,3.66,0,1,1,0-7.31H60a3.66,3.66,0,1,1,0,7.31Zm0-24.66a3.66,3.66,0,1,1,0-7.32H85.13a3.66,3.66,0,1,1,0,7.32Zm0-24.67a3.66,3.66,0,1,1,0-7.31H85.13a3.66,3.66,0,1,1,0,7.31Zm77.73,42V7.35H7.35V115.29H79V82.71A3.68,3.68,0,0,1,82.65,79ZM87,120a5.1,5.1,0,0,1-4.31,2.9,3.58,3.58,0,0,1-1.31-.24h-74a7.25,7.25,0,0,1-4.87-1.88l-.3-.26A7.29,7.29,0,0,1,0,115.33V7.31A7.31,7.31,0,0,1,7.31,0H113.39a7.32,7.32,0,0,1,7.3,7.31V81.2a3.66,3.66,0,0,1-.68,4L87,120Z"/></svg>