<?xml version="1.0" encoding="utf-8"?><svg version="1.1" id="Layer_1" xmlns="http://www.w3.org/2000/svg" xmlns:xlink="http://www.w3.org/1999/xlink" x="0px" y="0px" viewBox="0 0 122.88 116.33" style="enable-background:new 0 0 122.88 116.33" xml:space="preserve"><g><path d="M59.24,110.15c-0.7-0.29-1.03-1.1-0.74-1.8c0.29-0.7,1.1-1.03,1.8-0.74c0.4,0.17,0.79,0.26,1.17,0.27 c0.39,0.01,0.79-0.05,1.19-0.19c0.71-0.26,1.5,0.12,1.75,0.83c0.26,0.71-0.12,1.5-0.83,1.75c-0.74,0.27-1.47,0.38-2.2,0.36 C60.64,110.6,59.93,110.44,59.24,110.15L59.24,110.15L59.24,110.15z M58.14,80.7l3.98,2.99l2.66-9.21l1.14,14.4l-3.83-2.5 l-2.36,9.39L58.14,80.7L58.14,80.7L58.14,80.7z M40.82,91.84L46,92.45l-2.79-9.83L52.36,95l-4.87-0.1l3.07,9.76L40.82,91.84 L40.82,91.84L40.82,91.84z M73.05,86.74l2,4.96l7.47-7.34L75.9,98.67l-2.31-4.43l-7.09,7.69L73.05,86.74L73.05,86.74L73.05,86.74z M72.68,1.46C72.63,0.7,73.21,0.05,73.96,0c0.76-0.05,1.41,0.53,1.46,1.29c0.13,1.99,0.65,3.73,1.61,5.18l0,0 c0.96,1.44,2.37,2.61,4.31,3.5c2.68,0.91,5.68,2.23,9.04,4.04c3.32,1.78,7.01,4.02,11.11,6.8c3.48,0.96,6.49,2.37,9.03,4.24 c2.62,1.92,4.72,4.32,6.3,7.2c0.01,0.02,0.03,0.05,0.04,0.07c1.03,2,1.78,4.41,2.3,7.09c0.55,2.82,0.83,5.95,0.91,9.18 c1.41,4.96,2.21,10.13,2.56,15.5c0.36,5.41,0.29,11.03-0.03,16.85c-0.04,0.76-0.68,1.34-1.44,1.3c-0.76-0.04-1.34-0.68-1.3-1.44 c0.31-5.71,0.39-11.23,0.03-16.53c-0.35-5.25-1.12-10.27-2.49-15.04c-0.04-0.13-0.07-0.27-0.07-0.41 c-0.06-3.12-0.33-6.15-0.87-8.89c-0.47-2.43-1.14-4.59-2.04-6.35l0-0.01c-1.39-2.53-3.23-4.62-5.52-6.31 c-2.31-1.7-5.09-2.98-8.33-3.86l0,0c-0.14-0.04-0.28-0.1-0.42-0.19c-4.1-2.78-7.77-5.02-11.06-6.78c-3.23-1.73-6.1-3-8.65-3.86 c-0.07-0.02-0.13-0.04-0.2-0.07C77.8,11.38,75.99,9.86,74.75,8l0,0l0,0C73.5,6.13,72.84,3.93,72.68,1.46L72.68,1.46L72.68,1.46z M100.64,45.63c0.11-0.75,0.81-1.27,1.56-1.16c0.75,0.11,1.27,0.81,1.16,1.56c-1.02,6.99-2.69,11.92-4.4,16.42 c0.35,4.43,0.83,8.11,1.52,11.1c0.68,2.96,1.54,5.25,2.67,6.95c0.42,0.63,0.24,1.48-0.39,1.9c-0.63,0.42-1.48,0.24-1.9-0.39 c-1.32-1.99-2.31-4.57-3.06-7.84c-0.41-1.78-0.75-3.78-1.03-6c-0.82,2.24-1.58,4.54-2.2,7.14c-2.63,11.1-2.3,18.42-1.81,29.4 l0.02,0.48l0.43,9.71c0.03,0.76-0.55,1.4-1.31,1.43c-0.76,0.03-1.4-0.56-1.43-1.31l-0.43-9.71l-0.02-0.48 c-0.5-11.21-0.83-18.69,1.88-30.14c0.97-4.1,2.28-7.49,3.64-10.98C97.47,58.72,99.49,53.52,100.64,45.63L100.64,45.63L100.64,45.63 z M66.93,30.4c-0.67,0.35-1.5,0.1-1.86-0.58c-0.35-0.67-0.1-1.5,0.58-1.85c3.23-1.7,6.72-3.06,10.53-3.99 c3.79-0.93,7.9-1.44,12.38-1.45c0.76,0,1.37,0.61,1.37,1.37c0,0.76-0.61,1.37-1.37,1.37c-4.25,0.01-8.14,0.49-11.73,1.38 C73.25,27.52,69.97,28.8,66.93,30.4L66.93,30.4L66.93,30.4z M82.97,60.22c-0.63-0.42-0.81-1.27-0.39-1.9 c0.42-0.63,1.27-0.81,1.9-0.39c0.37,0.25,0.71,0.38,0.99,0.38c0.25,0,0.52-0.1,0.81-0.32c0.6-0.46,1.46-0.35,1.93,0.25 c0.46,0.6,0.35,1.46-0.25,1.93c-0.79,0.61-1.63,0.9-2.51,0.89C84.61,61.04,83.78,60.76,82.97,60.22L82.97,60.22L82.97,60.22z M64.79,61.72c-0.64-0.42-0.81-1.27-0.4-1.9c0.42-0.64,1.27-0.81,1.9-0.4c3.92,2.57,7.91,4.11,11.98,4.52 c4.06,0.41,8.24-0.31,12.54-2.27c0.69-0.31,1.5-0.01,1.82,0.68c0.31,0.69,0.01,1.5-0.68,1.82c-4.76,2.17-9.41,2.97-13.95,2.51 C73.47,66.22,69.07,64.52,64.79,61.72L64.79,61.72L64.79,61.72z M47.46,1.29c0.05-0.76,0.7-1.33,1.46-1.29 c0.76,0.05,1.33,0.7,1.29,1.46c-0.16,2.47-0.82,4.66-2.07,6.53l0,0l0,0c-1.25,1.87-3.06,3.38-5.51,4.49 c-0.06,0.03-0.13,0.05-0.2,0.07c-2.54,0.86-5.41,2.13-8.65,3.86c-3.3,1.76-6.97,4-11.06,6.78c-0.13,0.09-0.27,0.15-0.42,0.19l0,0 c-3.24,0.87-6.02,2.16-8.33,3.86c-2.29,1.68-4.13,3.78-5.52,6.31l0,0.01c-0.9,1.75-1.57,3.92-2.04,6.35 c-0.53,2.74-0.8,5.77-0.87,8.89c0,0.14-0.03,0.28-0.07,0.41c-1.37,4.77-2.14,9.8-2.49,15.04c-0.35,5.3-0.28,10.81,0.03,16.53 c0.04,0.76-0.54,1.4-1.3,1.44c-0.76,0.04-1.4-0.54-1.44-1.3c-0.32-5.82-0.39-11.44-0.03-16.85c0.36-5.37,1.15-10.54,2.56-15.5 c0.07-3.23,0.36-6.36,0.9-9.18c0.52-2.67,1.27-5.09,2.3-7.09c0.01-0.02,0.02-0.05,0.04-0.07c1.58-2.88,3.68-5.28,6.3-7.2 c2.54-1.87,5.55-3.28,9.03-4.24c4.1-2.77,7.79-5.02,11.11-6.8c3.37-1.8,6.37-3.13,9.04-4.04c1.93-0.88,3.35-2.06,4.31-3.5l0,0 C46.81,5.02,47.33,3.28,47.46,1.29L47.46,1.29L47.46,1.29z M19.52,46.03c-0.11-0.75,0.41-1.45,1.16-1.56 c0.75-0.11,1.45,0.41,1.56,1.16c1.15,7.88,3.17,13.09,5.1,18.07c1.35,3.49,2.67,6.88,3.64,10.98c2.71,11.45,2.38,18.92,1.88,30.14 l-0.02,0.48l-0.43,9.71c-0.03,0.76-0.67,1.35-1.43,1.31c-0.76-0.03-1.35-0.67-1.31-1.43l0.43-9.71l0.02-0.48 c0.49-10.98,0.82-18.29-1.81-29.4c-0.61-2.59-1.37-4.9-2.2-7.14c-0.28,2.22-0.62,4.22-1.03,6c-0.75,3.27-1.74,5.85-3.06,7.84 c-0.42,0.63-1.27,0.81-1.9,0.39c-0.63-0.42-0.81-1.27-0.39-1.9c1.12-1.7,1.99-3.99,2.67-6.95c0.69-3,1.17-6.67,1.52-11.1 C22.21,57.96,20.54,53.02,19.52,46.03L19.52,46.03L19.52,46.03z M57.14,27.93c0.69,0.31,1.01,1.12,0.7,1.81 c-0.31,0.69-1.12,1.01-1.81,0.7c-3.55-1.56-7.13-2.78-10.74-3.64c-3.62-0.86-7.29-1.38-11.03-1.53c-0.76-0.03-1.35-0.67-1.32-1.43 c0.03-0.76,0.67-1.35,1.43-1.32c3.9,0.16,7.75,0.7,11.55,1.61C49.73,25.04,53.47,26.31,57.14,27.93L57.14,27.93L57.14,27.93z M38.39,57.93c0.63-0.42,1.49-0.25,1.9,0.39s0.25,1.48-0.39,1.9c-0.81,0.54-1.64,0.83-2.49,0.83c-0.88,0.01-1.72-0.28-2.51-0.89 c-0.6-0.46-0.71-1.33-0.25-1.93c0.46-0.6,1.33-0.71,1.93-0.25c0.29,0.22,0.56,0.32,0.81,0.32C37.69,58.31,38.02,58.18,38.39,57.93 L38.39,57.93L38.39,57.93z M56.58,59.42c0.64-0.42,1.49-0.24,1.9,0.4c0.42,0.64,0.24,1.49-0.4,1.9c-4.28,2.8-8.68,4.5-13.21,4.95 c-4.54,0.46-9.19-0.34-13.95-2.51c-0.69-0.31-0.99-1.13-0.68-1.82c0.31-0.69,1.13-0.99,1.82-0.68c4.3,1.96,8.48,2.68,12.54,2.27 C48.68,63.53,52.67,61.99,56.58,59.42L56.58,59.42L56.58,59.42z"/></g></svg>