<svg id="Layer_1" data-name="Layer 1" xmlns="http://www.w3.org/2000/svg" viewBox="0 0 110.2 122.88"><defs><style>.cls-1{fill-rule:evenodd;}</style></defs><title>teacher</title><path class="cls-1" d="M52.09,62.42a.83.83,0,0,1,0-.69.79.79,0,0,1,1.08-.32,7.61,7.61,0,0,0,3.6,1,7.23,7.23,0,0,0,3.55-1,.79.79,0,0,1,1.08.31.8.8,0,0,1-.31,1.08A8.69,8.69,0,0,1,56.81,64,8.92,8.92,0,0,1,53,63.07c-.31-.14-.76-.31-.91-.65Zm1.69,56.66V92.27a17.37,17.37,0,0,0-9.33-6.49A32.19,32.19,0,0,0,31,84.57l-.23,28.84A45.15,45.15,0,0,1,44.19,115a37.53,37.53,0,0,1,9.59,4.13ZM80.85,90.76a1.84,1.84,0,0,1,0-.26,1.06,1.06,0,0,1,0-.25V84.64A35.81,35.81,0,0,0,67.24,86a18.53,18.53,0,0,0-9.45,6.28v27.09a51,51,0,0,1,10.46-4.58,34.9,34.9,0,0,1,12.6-1.53V90.76ZM85.46,119A66.33,66.33,0,0,0,73,117.66c-5.37,0-10.73,2.92-16.11,4.94a2.48,2.48,0,0,1-2.28,0c-5.39-2-10.76-5-16.11-4.94A66.78,66.78,0,0,0,25.93,119c0-4.54.08-8.41.21-12H0C2.19,98.88,1.6,93.6,5.68,85.93c1.66-3.12,3.79-5.05,7.89-7.63C20,74.25,28.72,71,37.26,67.69c-1.27,6.67,1.08,11.23,5.11,14a34.34,34.34,0,0,1,3.49.9,27.19,27.19,0,0,1,5,2.17,29.47,29.47,0,0,0,12.92-1.14c.58-.23,1.16-.45,1.75-.64,6.65-2.74,10.91-8.13,7.45-15.29C81.48,71,90.18,74.25,96.63,78.3c4.1,2.58,6.23,4.51,7.89,7.63C108.61,93.6,108,98.88,110.2,107H85.33c.07,3.54.13,7.39.13,12ZM30.2,43.71c.77-2.13,1.93-2.81,3.47-2.77l-1-.68c-.54-6.85,1.07-18.77-6.38-21C40.37,1.81,56.63-7.68,68.84,7.83c14.69.77,20.6,24.13,8.88,34,0,.2,0,.4-.07.6A6.73,6.73,0,0,1,79,42.13a4.48,4.48,0,0,1,2.4.45,3.45,3.45,0,0,1,1.67,2A6.22,6.22,0,0,1,83,48.1a.88.88,0,0,1,0,.15l-1.79,5.06,0,.09A3.68,3.68,0,0,1,80,55.22a3.42,3.42,0,0,1-2.48.6h0a4.4,4.4,0,0,1-.51,0c-.12,5.8-3,8.46-6.67,11.95L68.9,69.08c-3.75,3.62-7.86,5.38-12,5.38s-8.5-1.81-12.45-5.33c-.4-.36-.91-.8-1.4-1.22l-.08-.08c-3.6-3.1-6.6-5.72-7.17-12h-.32a4.32,4.32,0,0,1-2.16-.58l0,0a6,6,0,0,1-2.3-2.82,13,13,0,0,1-.94-4.3c0-.45,0-1.35,0-2.21s.05-1.41.11-1.81a1.89,1.89,0,0,1,.09-.34Zm6,.68c-1.67-.58-2.85-.86-3.31.19-.26,2.58-.44,9.47,3.76,8.22a1.42,1.42,0,0,1,.42-.07,1.4,1.4,0,0,1,1.43,1.37c.14,6.27,2.9,8.71,6.28,11.61l.09.07L46.27,67c3.43,3,7,4.63,10.59,4.63S63.75,70.16,67,67.06c.51-.5,1-.94,1.44-1.37,3.59-3.37,6.23-5.85,5.72-11.9a1.41,1.41,0,0,1,2.17-1.28,3.86,3.86,0,0,0,.75.39,2,2,0,0,0,.61.13,1.73,1.73,0,0,0,.6,0c.1-.08,5.35-12.1-1.47-7.11a1.4,1.4,0,0,1-2.3-1.28c1.32-7.7.71-12.71-.93-16.13a13.81,13.81,0,0,0-6.21-6.17C61.84,26.55,58,27,54.09,27.51a20.84,20.84,0,0,0-10.63,3.72,10.24,10.24,0,0,0-4,5,12.67,12.67,0,0,0-.16,7,1.49,1.49,0,0,1-.05.78,1.4,1.4,0,0,1-1.79.83l-.23-.08-1-.37Zm16.59-6.47c.91.59,1,1.49.35,1.86-.92.52-2.1-.25-3-.54-2.36-.75-5.17-.84-7.2.43A11.51,11.51,0,0,0,41.27,41a5.79,5.79,0,0,1,1-2c1.67-2.1,5.39-2.59,8.19-1.93a9.33,9.33,0,0,1,2.3.89Zm7.53.16c-.7.58-.74,1.37-.13,1.7.93.52,2.09-.25,3-.54,2.36-.75,5.15-.84,7.19.43A12.09,12.09,0,0,1,72,41a5.65,5.65,0,0,0-1-2c-1.5-1.9-4.68-2.48-7.35-2.09a8.78,8.78,0,0,0-3.35,1.21ZM44.5,42.69a.58.58,0,0,1-.38-.42.67.67,0,0,1,.36-.83,9.66,9.66,0,0,1,7,0,.67.67,0,0,1,.38.82.55.55,0,0,1-.72.42c-.39-.13-.77-.25-1.16-.34a2.22,2.22,0,0,1,.06.44,1.63,1.63,0,1,1-3.13-.63,8.65,8.65,0,0,0-1.9.47.69.69,0,0,1-.53.07Zm19.21-.48a1.79,1.79,0,0,0-.09.57,1.62,1.62,0,0,0,3.24,0,1.6,1.6,0,0,0-.16-.73,10.59,10.59,0,0,1,2.14.48.55.55,0,0,0,.71-.45.66.66,0,0,0-.38-.82,11.17,11.17,0,0,0-3.52-.57,10.75,10.75,0,0,0-3.47.58.67.67,0,0,0-.4.81.56.56,0,0,0,.71.45,12.37,12.37,0,0,1,1.22-.33s0,0,0,0ZM54.82,57.59a.76.76,0,0,1,1-1.16,1.51,1.51,0,0,0,2.21,0,.77.77,0,0,1,1.07.09A.75.75,0,0,1,59,57.58a3.2,3.2,0,0,1-2.1.83,3.08,3.08,0,0,1-2-.82Z"/></svg>