<svg id="Layer_1" data-name="Layer 1" xmlns="http://www.w3.org/2000/svg" viewBox="0 0 122.88 75.13"><defs><style>.cls-1{fill-rule:evenodd;}</style></defs><title>study-group</title><path class="cls-1" d="M54,24.53l-.23-8.33-13.69,4-.29.06c-.9.07-1.81.13-2.72.15-1.32,0-2.65,0-4-.12l-.44-.09-13.08-4v7.52A10.06,10.06,0,0,0,19.7,26c.19,1.35.45,2.76.67,4.11l-.17,1.73a1.61,1.61,0,0,0-1.29.85,5,5,0,0,0-.4,3,10.14,10.14,0,0,0,1,3.3c.64,1.27,1.54,2.18,2.61,2.19.1.28.2.59.3.89.84,2.52,1.49,5.28,3.05,7.11A15.88,15.88,0,0,0,30.52,53a15.36,15.36,0,0,0,6.15,1.58,14.54,14.54,0,0,0,6.45-1.5A14.76,14.76,0,0,0,48.32,49c1.28-1.62,1.77-4.09,2.39-6.2.12-.42.25-.86.39-1.28,1.21-.16,2.25-1.53,2.9-3.2a11.16,11.16,0,0,0,.71-2.94,4.54,4.54,0,0,0-.36-2.54,1.61,1.61,0,0,0-1.26-.9L52.92,30c.14-1,.32-2.1.47-3.16h0l.06-.43A4.83,4.83,0,0,0,54,24.53ZM99.75,55.46c5.57,2.16,17.21,4.7,20.18,10.28,2.13,4,2,3.69,2.95,7.75H77.74c-.89-5.54-1-11.83-5.18-16.12,2.36-.78,3.82-1.26,5.49-1.91,3.4,12.68,21.7,10.48,21.7,0ZM81,38.83a.49.49,0,0,1-.71-.08.56.56,0,0,1,.07-.76c1-.9,2.68-.59,4.1-.32a8.49,8.49,0,0,0,1.51.2.52.52,0,0,1,.53.52A.54.54,0,0,1,86,39a9.39,9.39,0,0,1-1.73-.22c-1.2-.23-2.6-.5-3.28.1Zm24.46-7.78-.21-7.68L92.64,27a16.94,16.94,0,0,1-3.36.37A16.83,16.83,0,0,1,85.81,27l-12-3.68v6.07A34.28,34.28,0,0,0,72,38.73v2.81c0,8.82,2.8,11.32,9.46,12.79A13.85,13.85,0,0,0,84,56a12,12,0,0,0,5.12,1.38,11.44,11.44,0,0,0,5.36-1.31,13,13,0,0,0,2.35-1.54h0c9.77-.79,11-11.83,7.94-21.47l.11-.15a4.3,4.3,0,0,0,.6-1.84ZM76.55,34c3.75,1.78,10.21,2.42,12.71,2.54a48.8,48.8,0,0,0,12.43-1.92L102,38c2.64-.61.76,7.58-1.54,7.16-.75,2.5-1,5.06-2.27,6.72a11.63,11.63,0,0,1-17.8.14c-1.42-1.77-1.88-4.49-2.76-7.2-2.45.73-4.09-7.58-1.43-6.86l.37-4Zm34-16.17v9.38h.29a.36.36,0,0,1,.37.36v2.52a.37.37,0,0,1-.37.37h-.29v.88a.82.82,0,0,1,.66.8h0a.82.82,0,0,1-.81.82H109a.82.82,0,0,1-.81-.82h0a.82.82,0,0,1,.66-.8v-.88h-.29a.37.37,0,0,1-.37-.37V27.59a.36.36,0,0,1,.37-.36h.29V18.4L93.47,23.17a17.3,17.3,0,0,1-8.34,0L68.19,18.11l-1.53-.45c-1.91-.78-1.43-2.62.35-3L86.16,8.9a9.91,9.91,0,0,1,5.93,0l18.81,5.65c2,.5,2.45,2.39.07,3.17l-.4.13ZM97,40.64a.56.56,0,0,1,.31.67.45.45,0,0,1-.56.37,5.71,5.71,0,0,0-1.44-.31,1,1,0,0,1,.06.34.93.93,0,1,1-1.85,0,1.1,1.1,0,0,1,0-.18,3.68,3.68,0,0,0-.47.15.45.45,0,0,1-.56-.37.56.56,0,0,1,.31-.67,6.18,6.18,0,0,1,2.07-.36,6,6,0,0,1,2.11.36ZM81.31,41.77a.43.43,0,0,1-.57-.33.58.58,0,0,1,.28-.69,5.48,5.48,0,0,1,2.11-.42,6,6,0,0,1,2.1.42.56.56,0,0,1,.29.68.43.43,0,0,1-.56.35l-.46-.16a1.23,1.23,0,0,1,0,.2.93.93,0,1,1-1.85,0,1.06,1.06,0,0,1,.08-.4,5,5,0,0,0-1.44.35Zm16.41-3.88a.56.56,0,0,1,.07.76.49.49,0,0,1-.71.08c-.68-.6-2.08-.33-3.28-.1a8.43,8.43,0,0,1-1.73.21.54.54,0,0,1,0-1.07,7.65,7.65,0,0,0,1.52-.2c1.41-.27,3.05-.59,4.09.32Zm-10.09,8.7a.56.56,0,0,1,0-.76.49.49,0,0,1,.72,0,1,1,0,0,0,.7.35,1.18,1.18,0,0,0,.71-.36.49.49,0,0,1,.72.05.57.57,0,0,1,0,.76,2.07,2.07,0,0,1-1.38.62,1.89,1.89,0,0,1-1.38-.63Zm-2,3.31a.56.56,0,0,1-.08-.76.48.48,0,0,1,.71-.08,4.53,4.53,0,0,0,2.85,1.28,3.49,3.49,0,0,0,2.49-1.25.5.5,0,0,1,.72,0,.57.57,0,0,1,0,.76,4.42,4.42,0,0,1-3.2,1.55,5.38,5.38,0,0,1-3.48-1.51Zm-37,2c5,1.93,13.35,3.83,17.12,6.19,2.4,1.51,3.64,2.64,4.61,4.46,2,3.76,2.08,9,2.81,12.62H0c.73-3.62.8-8.86,2.81-12.62,1-1.82,2.21-2.95,4.61-4.46,3.77-2.36,12.13-4.26,17.12-6.19,0,13.52,27.34,12,24.12,0ZM32.41,48.18a.6.6,0,0,1-.1-.85.61.61,0,0,1,.85-.1,5.72,5.72,0,0,0,3.52,1.49,4.45,4.45,0,0,0,3.09-1.45.6.6,0,1,1,.84.86,5.56,5.56,0,0,1-3.92,1.8,6.85,6.85,0,0,1-4.28-1.75Zm2.42-3.84a.62.62,0,0,1,0-.86.61.61,0,0,1,.86,0,1.35,1.35,0,0,0,.87.42,1.49,1.49,0,0,0,.9-.43.61.61,0,0,1,.79.92,2.66,2.66,0,0,1-1.67.72,2.55,2.55,0,0,1-1.71-.73Zm-3.72-6.1a.91.91,0,0,1,0,.23,1.11,1.11,0,0,1-2.22,0A1.34,1.34,0,0,1,29,38a5.65,5.65,0,0,0-1.72.4A.53.53,0,0,1,26.6,38a.64.64,0,0,1,.34-.77,6.69,6.69,0,0,1,2.54-.48,7.63,7.63,0,0,1,2.51.47.62.62,0,0,1,.35.76.53.53,0,0,1-.67.4c-.18-.07-.37-.12-.56-.18Zm10.9-.1a1.49,1.49,0,0,0,0,.21,1.11,1.11,0,0,0,2.22,0,1.23,1.23,0,0,0-.07-.39,7.19,7.19,0,0,1,1.73.35.53.53,0,0,0,.66-.42.62.62,0,0,0-.37-.75,7.91,7.91,0,0,0-2.52-.41,8,8,0,0,0-2.5.41.62.62,0,0,0-.36.75.53.53,0,0,0,.66.42l.57-.17Zm5.24-3.79a.6.6,0,1,1-.77.93c-.84-.69-2.57-.38-4-.11a11.36,11.36,0,0,1-2.13.25.61.61,0,0,1,0-1.21A9.26,9.26,0,0,0,42.21,34c1.75-.31,3.77-.68,5,.38Zm-20.61,1a.6.6,0,0,1-.85-.08.62.62,0,0,1,.08-.86c1.27-1.05,3.3-.68,5-.37a11.09,11.09,0,0,0,1.87.24.61.61,0,0,1,.63.58.62.62,0,0,1-.59.63,10.67,10.67,0,0,1-2.13-.26c-1.48-.27-3.2-.58-4.05.12ZM21.49,36a.36.36,0,1,1,.62.36,1.33,1.33,0,0,0-.2.6,1,1,0,0,0,.18.56A.36.36,0,0,1,22,38a.36.36,0,0,1-.5-.1,1.61,1.61,0,0,1-.3-1,2,2,0,0,1,.29-.94Zm29.42.35a.35.35,0,0,1,.13-.48.36.36,0,0,1,.49.13,2,2,0,0,1,.29.94,1.68,1.68,0,0,1-.3,1,.36.36,0,1,1-.6-.4A.91.91,0,0,0,51.1,37a1.24,1.24,0,0,0-.19-.61ZM52,32.88,50.19,34l-.75-5.14a25,25,0,0,1-12.89,3.56,24,24,0,0,1-12.92-3.58l-.83,5-1.61-.91a.61.61,0,0,1-.6.17.53.53,0,0,0-.64.23,3.79,3.79,0,0,0-.23,2.21,9,9,0,0,0,.84,2.9c.5,1,1.14,1.66,1.78,1.48h0a.59.59,0,0,1,.73.39l.47,1.36c.8,2.39,1.42,5,2.83,6.7a13.5,13.5,0,0,0,21-.14c1.13-1.43,1.59-3.8,2.18-5.78.15-.51.31-1.05.52-1.69a.6.6,0,0,1,.69-.47c.77.14,1.57-1,2.12-2.43a10,10,0,0,0,.63-2.6,3.59,3.59,0,0,0-.21-1.85.5.5,0,0,0-.62-.25H52.6a.6.6,0,0,1-.57-.29ZM59.56,10.2V20.38h.32a.4.4,0,0,1,.4.4v2.74a.4.4,0,0,1-.4.39h-.32v1a.89.89,0,0,1,.72.87h0a.89.89,0,0,1-.88.88H57.82a.88.88,0,0,1-.88-.88h0a.89.89,0,0,1,.72-.87v-1h-.33a.4.4,0,0,1-.39-.39V20.78a.4.4,0,0,1,.39-.4h.33V10.8L41,16a18.85,18.85,0,0,1-9,0L13.57,10.49,11.9,10c-2.07-.84-1.55-2.83.38-3.29L33.07.49a10.77,10.77,0,0,1,6.43,0L59.92,6.63c2.22.54,2.66,2.59.08,3.44l-.44.13Z"/></svg>