<?xml version="1.0" encoding="utf-8"?><svg version="1.1" id="Layer_1" xmlns="http://www.w3.org/2000/svg" xmlns:xlink="http://www.w3.org/1999/xlink" x="0px" y="0px" viewBox="0 0 122.88 90.332" enable-background="new 0 0 122.88 90.332" xml:space="preserve"><g><path fill-rule="evenodd" clip-rule="evenodd" fill="#262626" d="M19.962,0h82.962c1.578,0,3.023,0.653,4.07,1.7l0,0l0.008,0.007 l0.007,0.009l0.009,0.007c1.046,1.054,1.691,2.492,1.691,4.069v11.784h5.303c2.443,0,4.66,1.004,6.262,2.605 c1.608,1.608,2.606,3.834,2.606,6.266v37.439c0,2.433-1.004,4.653-2.61,6.26c-0.122,0.122-0.249,0.236-0.38,0.343 c-1.569,1.403-3.637,2.267-5.878,2.267h-5.303v11.791c0,1.593-0.653,3.038-1.7,4.085c-1.045,1.046-2.492,1.7-4.085,1.7H19.962 c-1.578,0-3.023-0.647-4.078-1.7l-0.007-0.009l-0.009-0.007l-0.007-0.008c-1.047-1.054-1.693-2.492-1.693-4.07V72.756H8.871 c-2.432,0-4.657-0.997-6.265-2.607C1.004,68.547,0,66.332,0,63.887V26.447c0-2.446,0.998-4.664,2.602-6.269 c0.122-0.122,0.249-0.237,0.382-0.344c1.569-1.402,3.633-2.258,5.887-2.258h5.297V5.777c0.016-1.592,0.662-3.039,1.709-4.085 c0.061-0.063,0.122-0.124,0.192-0.178C17.1,0.577,18.468,0,19.962,0L19.962,0L19.962,0z M52.729,7.431 c2.056,0,3.724,1.669,3.724,3.724c0,2.057-1.668,3.726-3.724,3.726c-2.057,0-3.725-1.669-3.725-3.726 C49.004,9.1,50.671,7.431,52.729,7.431L52.729,7.431z M39.558,7.431c2.055,0,3.724,1.669,3.724,3.724 c0,2.057-1.669,3.726-3.724,3.726c-2.057,0-3.727-1.669-3.727-3.726C35.831,9.1,37.5,7.431,39.558,7.431L39.558,7.431z M26.387,7.431c2.055,0,3.724,1.669,3.724,3.724c0,2.057-1.669,3.726-3.724,3.726c-2.057,0-3.727-1.669-3.727-3.726 C22.66,9.1,24.33,7.431,26.387,7.431L26.387,7.431z M8.873,22.378h105.154c2.24,0,4.068,1.894,4.068,4.069v37.439 c0,2.175-1.894,4.068-4.068,4.068H8.873c-2.175,0-4.069-1.829-4.069-4.068V26.447C4.804,24.208,6.633,22.378,8.873,22.378 L8.873,22.378z M103.485,72.756H19.408v0.102v11.674v0.002v0.026l0.003,0.029l0.002,0.026l0.002,0.002l0.003,0.026l0.005,0.027 h0.002l0.005,0.025h0.002l0.007,0.026h0.001l0.008,0.025h0.001l0.009,0.023h0.001l0.011,0.025h0.002 c0.025,0.047,0.052,0.089,0.086,0.127l0,0l0.009,0.007c0.098,0.101,0.229,0.154,0.393,0.154h82.962l0.041-0.002 c0.306,0,0.553-0.245,0.553-0.55V72.857c0-0.028-0.013-0.056-0.032-0.073V72.756L103.485,72.756z"/><path fill="#FF0000" d="M22.952,49.383l7.328-0.459c0.157,1.187,0.483,2.094,0.972,2.71c0.797,1.006,1.931,1.513,3.408,1.513 c1.099,0,1.948-0.257,2.542-0.774c0.599-0.518,0.896-1.116,0.896-1.797c0-0.646-0.279-1.228-0.843-1.739s-1.878-0.988-3.943-1.447 c-3.385-0.757-5.793-1.769-7.235-3.031c-1.454-1.256-2.181-2.861-2.181-4.816c0-1.279,0.372-2.489,1.117-3.629 c0.744-1.146,1.861-2.042,3.356-2.693s3.542-0.977,6.142-0.977c3.193,0,5.624,0.593,7.299,1.785 c1.675,1.187,2.669,3.077,2.989,5.671l-7.258,0.43c-0.192-1.134-0.599-1.959-1.216-2.472c-0.622-0.518-1.477-0.773-2.564-0.773 c-0.896,0-1.576,0.192-2.03,0.57c-0.454,0.378-0.68,0.843-0.68,1.39c0,0.396,0.186,0.75,0.552,1.07 c0.355,0.332,1.216,0.634,2.577,0.919c3.374,0.727,5.787,1.465,7.241,2.21c1.459,0.745,2.524,1.664,3.187,2.769 c0.663,1.099,0.995,2.333,0.995,3.699c0,1.6-0.442,3.077-1.326,4.432c-0.89,1.35-2.123,2.379-3.716,3.077 c-1.588,0.698-3.588,1.047-6.008,1.047c-4.246,0-7.188-0.82-8.823-2.454C24.092,53.978,23.167,51.901,22.952,49.383L22.952,49.383z M47.037,32.662h8.067l5.63,17.984l5.549-17.984h7.834L64.84,57.647h-8.364L47.037,32.662L47.037,32.662z M87.993,48.609v-5.2 h11.936v10.626c-2.286,1.559-4.305,2.623-6.055,3.187c-1.757,0.564-3.839,0.844-6.247,0.844c-2.966,0-5.386-0.506-7.252-1.518 c-1.867-1.007-3.315-2.513-4.345-4.514c-1.03-1.995-1.542-4.292-1.542-6.88c0-2.728,0.564-5.095,1.688-7.113 c1.122-2.012,2.769-3.542,4.938-4.589c1.692-0.808,3.973-1.209,6.834-1.209c2.757,0,4.821,0.25,6.188,0.75 c1.372,0.5,2.506,1.274,3.408,2.327c0.901,1.053,1.582,2.384,2.035,3.996l-7.433,1.338c-0.309-0.948-0.826-1.675-1.559-2.175 c-0.733-0.506-1.664-0.756-2.804-0.756c-1.687,0-3.036,0.587-4.042,1.763c-1.007,1.174-1.507,3.036-1.507,5.577 c0,2.699,0.507,4.63,1.524,5.787c1.012,1.157,2.431,1.739,4.245,1.739c0.861,0,1.682-0.122,2.467-0.372 c0.779-0.25,1.675-0.675,2.687-1.269v-2.338H87.993L87.993,48.609z"/></g></svg>