<svg xmlns="http://www.w3.org/2000/svg" viewBox="0 0 512 512"><defs><style>.a{fill:#f90;}.b{fill:#ffb13b;}.c{fill:#de8500;}.d,.f{fill:#fff;}.e{fill:#3f3f3f;}.f{stroke:#000;stroke-miterlimit:20.48;stroke-width:2.58px;}</style></defs><title>svg</title><rect class="a" width="512" height="512" rx="20.48"/><rect class="b" width="256" height="256" rx="20.48"/><rect class="c" x="256" y="256" width="256" height="256" rx="20.48"/><circle class="a" cx="256" cy="94.21" r="94.21"/><circle class="a" cx="370.69" cy="141.31" r="94.21"/><circle class="a" cx="417.79" cy="256" r="94.21"/><circle class="a" cx="370.69" cy="370.69" r="94.21"/><circle class="a" cx="256" cy="417.79" r="94.21"/><circle class="a" cx="141.31" cy="370.69" r="94.21"/><circle class="a" cx="94.21" cy="256" r="94.21"/><circle class="a" cx="141.31" cy="141.31" r="94.21"/><path d="M323,94.13a67.06,67.06,0,0,0-134.12,0A67,67,0,0,0,94.17,189a67,67,0,1,0,0,134.06,67,67,0,0,0,94.71,94.8,67.06,67.06,0,0,0,134.12,0A67,67,0,0,0,417.79,323a67,67,0,0,0,0-134.06A67,67,0,0,0,323,94.13Z"/><path class="d" d="M281.62,119.83V194l52.51-52.49a36.27,36.27,0,1,1,36.23,36.32L318,230.31h74.18a36.27,36.27,0,1,1,0,51.34H318l52.37,52.45a36.32,36.32,0,1,1-36.21,36.31L281.6,317.92v74.24a36.32,36.32,0,1,1-51.34,0V317.92l-52.4,52.49a36.28,36.28,0,1,1-36.33-36.32L194,281.65H119.88a36.3,36.3,0,1,1,0-51.34h74.18l-52.51-52.46a36.25,36.25,0,1,1,36.34-36.32L230.29,194V119.84a36.35,36.35,0,1,1,51.33,0Z"/><path d="M27.14,256H484.76V460.8q0,25.6-25.6,25.6H52.74q-25.6,0-25.6-25.6Z"/><path class="e" d="M75,277.56H440.58a27.31,27.31,0,0,1,27.2,27.21v91.7c-141.23-17.42-281.22-41.6-419.9-39.33V304.77A27.26,27.26,0,0,1,75,277.56Z"/><path class="f" d="M93.76,373.39a59.76,59.76,0,1,1,102-42.26h-35a24.77,24.77,0,1,0-42.28,17.51h0A24.85,24.85,0,0,0,136,355.83v.07a59.34,59.34,0,0,1,42.21,17.49h0A59.74,59.74,0,1,1,76.31,415.62h35a24.77,24.77,0,0,0,49.53,0,24.5,24.5,0,0,0-7.32-17.45h0A24.44,24.44,0,0,0,136,390.91h0a59.74,59.74,0,0,1-42.28-17.52Z"/><polygon class="f" points="315.33 271.39 273.12 475.41 238.05 475.41 195.77 271.39 230.82 271.39 255.59 390.87 280.35 271.39 315.33 271.39"/><path class="f" d="M375.07,355.91h59.81v59.72h0a59.74,59.74,0,1,1-119.47,0h0V331.14h-.09a59.78,59.78,0,1,1,119.55,0H399.81a24.72,24.72,0,1,0-49.43,0v84.49h0a24.72,24.72,0,1,0,49.43.05V390.9H375.06v-35Z"/></svg>