<?xml version="1.0" encoding="utf-8"?><svg version="1.1" id="Layer_1" xmlns="http://www.w3.org/2000/svg" xmlns:xlink="http://www.w3.org/1999/xlink" x="0px" y="0px" viewBox="0 0 122.88 102.98" style="enable-background:new 0 0 122.88 102.98" xml:space="preserve"><g><path d="M19.35,46.03l9.61-11.81c0.45-0.56,1.28-0.64,1.84-0.19c0.32,0.26,0.48,0.63,0.48,1.01h0v55.29h60.64v-56.3 c0-0.72,0.59-1.31,1.31-1.31c0.48,0,0.89,0.25,1.12,0.64l9.39,13.24c0.18,0.25,0.26,0.54,0.24,0.83l-0.23,25.02h12.08l4.39-34.64 c-5.1-10.15-10.78-18.93-17.51-25.18c-6.41-5.95-13.81-9.62-22.61-9.99C79.44,9.2,75.74,14.17,70.88,17 c-2.58,1.5-5.48,2.4-8.43,2.61c-2.96,0.21-5.97-0.27-8.76-1.52c-5.19-2.33-9.57-7.3-11.29-15.44c-7.47,0.4-14.39,3.66-20.84,9.34 c-6.8,5.99-13.07,14.65-18.91,25.5l4.32,35.45h11.85l0.24-26.1C19.06,46.53,19.17,46.25,19.35,46.03L19.35,46.03L19.35,46.03z M5.74,84.45l-1.22-9.99c-0.01-0.04-0.01-0.08-0.01-0.12l-4.5-36.96l0,0c-0.03-0.26,0.01-0.52,0.14-0.77 c6.05-11.3,12.57-20.34,19.68-26.6c7.19-6.34,14.99-9.85,23.5-10.02c0.68-0.07,1.3,0.4,1.42,1.08c1.37,7.83,5.3,12.52,9.99,14.62 c2.38,1.07,4.97,1.47,7.52,1.29c2.56-0.18,5.07-0.96,7.31-2.26c4.45-2.59,7.77-7.27,8.02-13.48h0C77.62,0.56,78.2,0,78.9,0 c10.07,0.08,18.43,4.06,25.6,10.72c7.07,6.56,12.97,15.72,18.24,26.27l0,0c0.11,0.22,0.16,0.48,0.13,0.74l-4.59,36.18l0,0 l-1.3,10.26c-0.03,0.7-0.6,1.26-1.31,1.26h-13.33v-0.01h-0.01c-0.72-0.01-1.3-0.59-1.29-1.31l0.09-10.26v0c0-0.03,0-0.07,0-0.1 c0-0.04,0-0.08,0.01-0.13l0.24-25.86l-6.83-9.63v53.5v10.03c0,0.72-0.59,1.31-1.31,1.31H29.98c-0.72,0-1.31-0.59-1.31-1.31V91.64 V38.72l-7.01,8.6L21.33,84.2c0,0.03,0,0.07,0,0.1c0,0.72-0.59,1.31-1.31,1.31H7.04v0C6.38,85.61,5.82,85.12,5.74,84.45L5.74,84.45z"/></g></svg>