<svg xmlns="http://www.w3.org/2000/svg" shape-rendering="geometricPrecision" text-rendering="geometricPrecision" image-rendering="optimizeQuality" fill-rule="evenodd" clip-rule="evenodd" viewBox="0 0 363 512.18"><path fill-rule="nonzero" d="M321.32 307.82c-21.47 66.24-39.91 134.11-39.32 204.36H82.14c-2.42-67.66-20.08-137.55-40.07-202.64l-3.88-1.33C21.7 295.57 9.81 279.74 4.03 263.48.6 253.82-.72 243.96.37 234.42c1.13-9.77 4.74-19.11 11.13-27.44 6.17-8.05 14.91-15.11 26.44-20.62-.56-1.8-1.05-3.61-1.48-5.4-4.07-17.07-2.6-34.23 4.23-49.12 6.89-15.02 19.14-27.58 36.51-35.25 2.13-.94 4.34-1.81 6.61-2.6-.57-12.25 1.14-23.66 4.72-34.02 5.67-16.39 15.98-30.01 29.35-40.1C131.09 9.91 147.31 3.37 165.03 1c17.57-2.36 36.65-.6 55.72 6h.04c3.27 1.14 5.94 3.02 7.93 5.3v.04c2.01 2.33 3.35 5.11 3.95 8.06.6 2.99.42 6.12-.62 9.08-.98 2.81-2.71 5.44-5.22 7.62l-.08.08c-3.04 2.57-5.24 4.79-6.72 6.7-1.08 1.4-1.68 2.45-1.89 3.2v.04c.13.36.51.84 1.06 1.4 2.29 1.79 4.96 3.61 7.92 5.61 14.24 9.68 33.83 22.99 39.8 44.41 16.87 6.49 29.05 15.97 36.63 28.22 7.27 11.75 10.09 25.65 8.52 41.52 20.61 8.54 35.64 24.11 43.83 42.11 3.78 8.32 6.11 17.15 6.84 26.04.75 8.95-.12 18.02-2.72 26.74v.04c-5.33 17.93-17.88 34.13-38.7 44.61zM285.83 137.7c-5.74-9.28-16.08-16.46-31.11-21.36l-6.22-2.02-.89-6.51c-2.2-16.09-19.74-28.01-32.17-36.45-3.77-2.56-7.15-4.86-9.61-6.81l-.77-.69c-2.78-2.7-5.02-5.69-6.39-9.19-1.57-4-1.93-8.32-.61-13.1.94-3.38 2.71-6.84 5.48-10.43 1.51-1.94 3.32-3.95 5.48-6.05-14.19-4.17-28.23-5.17-41.22-3.43-14.12 1.89-26.97 7.04-37.34 14.86-10.19 7.69-18.01 17.96-22.25 30.23-3.41 9.85-4.58 21.1-2.92 33.47l1.26 9.37-9.18 2.19c-4.27 1.01-8.19 2.33-11.76 3.91-12.47 5.51-21.17 14.33-25.97 24.8-4.86 10.6-5.85 23.05-2.84 35.65.94 3.96 2.27 7.92 3.99 11.8l4.54 10.26-10.62 3.78c-12.48 4.44-21.2 10.57-26.64 17.66-4 5.23-6.27 11.05-6.96 17.11v.05c-.71 6.31.22 13.02 2.6 19.73 4.15 11.67 12.6 23.21 24.41 32.94h263.26c15.54-7.65 24.82-19.37 28.64-32.22 1.83-6.14 2.44-12.63 1.9-19.1-.54-6.55-2.26-13.06-5.04-19.19-6.92-15.19-20.48-28.1-39.33-33.71l-9.03-2.69 1.76-9.23c2.74-14.4 1.29-26.35-4.45-35.63zm-67.7-90.59c-.02-.02-.04-.06-.03-.03l.03.03zm-97.06 299.46 16.76 133.5h22.35l-11.41-133.53-27.7.03zm92.15-.14-5.92 133.64h22.28l11.27-133.68-27.63.04z"/></svg>