<svg xmlns="http://www.w3.org/2000/svg" shape-rendering="geometricPrecision" text-rendering="geometricPrecision" image-rendering="optimizeQuality" fill-rule="evenodd" clip-rule="evenodd" viewBox="0 0 512 495.18"><path fill-rule="nonzero" d="M229.23 289.48c-.54-.28-1.22-.69-1.77-1.1-7.23-5.77-15.15-12.21-21.97-17.83-9.96-8.23-21.43-17.7-29.47-24.42-5.46-4.53-11.75-7.69-17.62-8.94-3.83-.69-7.25-.7-9.99.39-2.19.95-4.11 2.73-5.34 5.46-1.65 3.68-2.48 8.88-2.09 15.99.39 6.29 2.56 13.14 5.42 19.84 4.21 9.72 10.07 18.76 14.43 24.52.27.41.55.68.68 1.09l86.25 123.84c1.09 1.64 1.77 3.42 1.9 5.2 1.74 14.23 4.72 25.04 9.08 31.75 3.27 4.93 7.37 7.4 12.7 7.27l136.19.35c8.48-.12 16.15-2.56 23.27-7.46 7.81-5.32 14.8-13.64 21.26-24.84.14-.13.27-.41.41-.54 2.47-4.24 5.77-9.7 8.92-14.89 13.87-22.66 25.96-42.46 27.4-70.63l-.73-38.83c-.13-.55-.13-1.09-.13-1.64 0-.55.01-4.24.16-9.16.34-25.71.83-57.43-22.68-61.46l-15.18-.04c-.15 7.25-.58 14.63-1.01 21.74-.43 6.43-.85 12.44-.87 18.32a11.323 11.323 0 0 1-11.38 11.32 11.32 11.32 0 0 1-11.32-11.37c.02-5.88.44-12.72.87-19.83 1.57-24.2 3.42-51.96-15.86-55.42l-15.04-.04c-.82 0-1.64-.14-2.46-.28.12 8.75-.45 17.78-1.02 26.52-.43 6.43-.85 12.45-.87 18.33-.01 6.29-5.09 11.33-11.38 11.32a11.323 11.323 0 0 1-11.32-11.38c.02-5.88.44-12.72.87-19.82 1.57-24.2 3.41-51.96-15.86-55.43l-15.04-.04c-1.1 0-2.05-.13-3.01-.41l-.11 44.16c-.02 6.3-5.09 11.34-11.38 11.33a11.329 11.329 0 0 1-11.32-11.38l.3-118.56c.05-19.82-7.99-32.42-18.37-37.65-7.61-3.83-16.16-3.85-23.79-.06-10.27 5.17-18.23 17.73-18.28 38.11l-.53 207.71a11.308 11.308 0 0 1-11.37 11.32 11.316 11.316 0 0 1-11.32-11.38l.05-21.05h-.28zM88.01 96.61l17.35 37.01c.55 1.14.62 2.51.05 3.75a4.383 4.383 0 0 1-5.81 2.16L2.83 95.13l-.89-.46C-.07 93.32-.6 90.58.75 88.57l58.4-86.64C59.85.9 60.99.17 62.33.02c2.41-.25 4.57 1.5 4.83 3.9l3.76 34.61c7.08-1.29 15.15-1.83 23.74-1.51 21.35.81 46.13 7 67.47 20.27l.29.17c21.58 13.5 39.63 34.25 47.07 63.97 2.72 10.88 4.01 22.98 3.52 36.36.01 1.7-1 3.34-2.67 4.05-2.22.94-4.81-.1-5.75-2.32-15.55-36.27-36.52-53.82-58.24-61.21-19.81-6.75-40.49-5.19-58.34-1.7zm247.68 58.3c.96-.27 1.91-.4 3.01-.4l15.72.04c.82 0 1.78.14 2.6.28 20.91 3.33 30.32 15.53 34.11 31.4 1.5-.68 3.14-1.09 4.79-1.08l15.72.04c.82 0 1.78.14 2.6.28 22.55 3.61 31.54 17.45 34.78 34.96.55-.14 1.09-.14 1.78-.14l15.72.04c.83.01 1.78.14 2.6.28 43.2 6.81 42.54 49.75 42.04 84.34l-.02 9.03.86 39.93-.01 1.23c-1.72 34.04-15.18 56.03-30.7 81.42-2.6 4.24-5.21 8.61-8.78 14.61-.14.14-.14.28-.28.41-8.1 14.06-17.43 24.84-28.11 32.2-10.82 7.5-22.86 11.3-36 11.4l-136.05-.34c-13.54.24-24.05-5.67-31.82-17.31-6.27-9.32-10.34-22.46-12.48-38.87l-84.48-121.37-.41-.41c-5.04-6.71-11.85-17.26-17.02-28.9-3.81-8.76-6.66-18.2-7.32-27.5-.65-11.08.88-19.83 4.04-26.79 3.85-8.61 10.15-14.2 17.68-17.19 6.98-2.85 14.92-3.24 22.84-1.58 9.57 1.94 19.4 6.75 27.73 13.75 6.82 5.75 18.28 15.08 29.47 24.27l9.28 7.68.4-157.66c.07-30.22 13.52-49.61 30.91-58.31 13.9-7.04 30.44-7 44.31.11 17.34 8.79 30.96 28.38 30.89 58.05l-.13 52.24-.27-.14z"/></svg>