<?xml version="1.0" encoding="UTF-8"?>
<!DOCTYPE svg PUBLIC "-//W3C//DTD SVG 1.1//EN" "http://www.w3.org/Graphics/SVG/1.1/DTD/svg11.dtd">
<!-- Creator: CorelDRAW 2021 (64-Bit) -->
<svg xmlns="http://www.w3.org/2000/svg" xml:space="preserve" width="437px" height="512px" version="1.1" shape-rendering="geometricPrecision" text-rendering="geometricPrecision" image-rendering="optimizeQuality" fill-rule="evenodd" clip-rule="evenodd"
viewBox="0 0 437 511.59"
 xmlns:xlink="http://www.w3.org/1999/xlink"
 xmlns:xodm="http://www.corel.com/coreldraw/odm/2003">
 <g id="Layer_x0020_1">
  <metadata id="CorelCorpID_0Corel-Layer"/>
  <path id="cursor-hand.svg" fill="black" fill-rule="nonzero" d="M109.21 308.92c-0.54,-0.27 -1.21,-0.68 -1.75,-1.08 -7.13,-5.68 -14.93,-12.03 -21.65,-17.57 -9.81,-8.11 -21.11,-17.43 -29.04,-24.05 -5.38,-4.46 -11.57,-7.58 -17.35,-8.81 -3.78,-0.68 -7.15,-0.69 -9.84,0.38 -2.16,0.94 -4.05,2.69 -5.27,5.38 -1.63,3.63 -2.45,8.75 -2.06,15.75 0.39,6.21 2.53,12.95 5.34,19.56 4.15,9.57 9.92,18.48 14.22,24.15 0.27,0.4 0.54,0.67 0.67,1.08l84.98 122.01c1.07,1.61 1.74,3.37 1.87,5.12 1.71,14.02 4.65,24.67 8.95,31.28 3.22,4.86 7.26,7.3 12.51,7.17l134.19 0.34c8.35,-0.11 15.9,-2.52 22.92,-7.35 7.69,-5.24 14.59,-13.44 20.94,-24.47 0.14,-0.13 0.28,-0.4 0.41,-0.54 2.44,-4.17 5.69,-9.55 8.79,-14.66 13.67,-22.33 25.58,-41.84 26.99,-69.59l-0.71 -38.26c-0.13,-0.54 -0.13,-1.08 -0.13,-1.62 0,-0.54 0.01,-4.18 0.16,-9.02 0.33,-25.34 0.81,-56.59 -22.35,-60.56l-14.95 -0.04c-0.16,7.15 -0.58,14.42 -1,21.43 -0.42,6.33 -0.84,12.25 -0.86,18.05 -0.01,6.19 -5.01,11.17 -11.2,11.15 -6.21,-0.01 -11.18,-5.01 -11.16,-11.21 0.02,-5.79 0.43,-12.53 0.86,-19.53 1.54,-23.84 3.36,-51.19 -15.63,-54.6l-14.82 -0.04c-0.81,0 -1.61,-0.14 -2.42,-0.28 0.11,8.62 -0.45,17.51 -1.01,26.13 -0.42,6.34 -0.84,12.26 -0.86,18.06 -0.01,6.19 -5.01,11.17 -11.21,11.15 -6.19,-0.01 -11.17,-5.01 -11.15,-11.21 0.01,-5.79 0.44,-12.53 0.86,-19.53 1.54,-23.85 3.36,-51.19 -15.63,-54.61l-14.82 -0.04c-1.08,0 -2.02,-0.13 -2.96,-0.41l-0.11 43.52c-0.02,6.2 -5.02,11.17 -11.21,11.16 -6.2,-0.02 -11.17,-5.02 -11.16,-11.22l0.3 -116.81c0.04,-19.53 -7.87,-31.94 -18.1,-37.09 -7.5,-3.77 -15.92,-3.79 -23.44,-0.06 -10.12,5.1 -17.96,17.47 -18.01,37.54l-0.52 204.66c-0.01,6.19 -5.01,11.17 -11.21,11.15 -6.2,-0.01 -11.17,-5.01 -11.15,-11.21l0.05 -20.75 -0.27 0zm223.98 -177.27l17.09 -36.46c-17.58,-3.44 -37.95,-4.98 -57.47,1.67 -21.4,7.28 -42.06,24.57 -57.38,60.31 -0.93,2.19 -3.48,3.22 -5.67,2.28 -1.65,-0.7 -2.64,-2.31 -2.63,-3.99 -0.48,-13.18 0.79,-25.1 3.47,-35.81 7.33,-29.29 25.11,-49.73 46.38,-63.04l0.28 -0.16c21.03,-13.08 45.45,-19.18 66.47,-19.97 8.47,-0.32 16.42,0.21 23.39,1.49l3.71 -34.1c0.25,-2.38 2.39,-4.1 4.76,-3.85 1.32,0.15 2.44,0.87 3.13,1.89l57.54 85.36c1.33,1.97 0.81,4.67 -1.17,6l-0.88 0.46 -95.34 43.75c-2.17,0.99 -4.73,0.03 -5.72,-2.13 -0.56,-1.23 -0.5,-2.58 0.04,-3.7zm-119.1 44.69c0.95,-0.26 1.89,-0.4 2.97,-0.4l15.49 0.04c0.81,0.01 1.75,0.14 2.56,0.28 20.61,3.29 29.87,15.3 33.61,30.94 1.48,-0.67 3.1,-1.07 4.71,-1.07l15.5 0.04c0.81,0 1.75,0.14 2.56,0.28 22.22,3.56 31.07,17.19 34.26,34.44 0.54,-0.13 1.08,-0.13 1.76,-0.13l15.49 0.04c0.81,0 1.75,0.14 2.56,0.27 42.56,6.71 41.91,49.02 41.42,83.1l-0.02 8.89 0.84 39.35 0 1.21c-1.7,33.54 -14.96,55.2 -30.25,80.22 -2.57,4.17 -5.14,8.48 -8.66,14.4 -0.13,0.13 -0.13,0.26 -0.26,0.4 -7.99,13.85 -17.18,24.47 -27.71,31.73 -10.66,7.38 -22.52,11.12 -35.46,11.22l-134.05 -0.34c-13.34,0.24 -23.7,-5.58 -31.35,-17.05 -6.17,-9.18 -10.19,-22.12 -12.3,-38.29l-83.23 -119.58 -0.4 -0.41c-4.97,-6.61 -11.68,-17 -16.77,-28.47 -3.76,-8.63 -6.56,-17.94 -7.21,-27.1 -0.65,-10.91 0.86,-19.53 3.97,-26.4 3.8,-8.47 10.01,-13.98 17.43,-16.93 6.88,-2.81 14.69,-3.19 22.5,-1.56 9.42,1.92 19.11,6.66 27.31,13.55 6.73,5.67 18.02,14.86 29.05,23.92l9.14 7.57 0.39 -155.35c0.08,-29.77 13.33,-48.87 30.46,-57.45 13.69,-6.93 29.99,-6.9 43.65,0.11 17.09,8.66 30.51,27.97 30.44,57.2l-0.13 51.47 -0.27 -0.14z"/>
 </g>
</svg>
