<svg id="Layer_1" data-name="Layer 1" xmlns="http://www.w3.org/2000/svg" viewBox="0 0 93.18 122.88"><defs><style>.cls-1{fill-rule:evenodd;}</style></defs><title>swiss-franc</title><path class="cls-1" d="M14.25,0H91.1a2.09,2.09,0,0,1,2.08,2.08v19A2.09,2.09,0,0,1,91.1,23.2H36.75V46H77.59a2.09,2.09,0,0,1,2.07,2.08v19a2.1,2.1,0,0,1-2.07,2.08H36.75V87.24H49.12a2.05,2.05,0,0,1,2,2V103.9a2.06,2.06,0,0,1-2,2H36.75V120.8a2.1,2.1,0,0,1-2.08,2.08H16.33a2.09,2.09,0,0,1-2.08-2.08V105.93H2a2,2,0,0,1-2-2V89.27a2,2,0,0,1,2-2H14.25V0Z"/></svg>