<?xml version="1.0" encoding="utf-8"?><svg version="1.1" id="Layer_1" xmlns="http://www.w3.org/2000/svg" xmlns:xlink="http://www.w3.org/1999/xlink" x="0px" y="0px" viewBox="0 0 122.88 122.88" style="enable-background:new 0 0 122.88 122.88" xml:space="preserve"><style type="text/css"><![CDATA[
	.st0{fill-rule:evenodd;clip-rule:evenodd;}
]]></style><g><path class="st0" d="M71.13,50.16l2.13,2.13c0.56,0.56,0.56,1.48,0,2.04l-1.71,1.71c0.47,0.88,0.83,1.83,1.06,2.84h2.22 c0.79,0,1.44,0.65,1.44,1.44v3.01c0,0.79-0.65,1.44-1.44,1.44H72.4c-0.3,0.98-0.72,1.91-1.26,2.76l1.57,1.57 c0.56,0.56,0.56,1.48,0,2.04l-2.13,2.13c-0.56,0.56-1.48,0.56-2.04,0l-1.71-1.71c-0.88,0.47-1.83,0.83-2.84,1.06v2.22 c0,0.79-0.65,1.44-1.44,1.44h-3.01c-0.79,0-1.44-0.65-1.44-1.44v-2.42c-0.98-0.3-1.91-0.72-2.76-1.26l-1.57,1.57 c-0.56,0.56-1.48,0.56-2.04,0l-2.13-2.13c-0.56-0.56-0.56-1.48,0-2.04l1.71-1.71c-0.47-0.88-0.83-1.83-1.06-2.84h-2.22 c-0.79,0-1.44-0.65-1.44-1.44v-3.01c0-0.79,0.65-1.44,1.44-1.44h2.42c0.3-0.98,0.72-1.91,1.26-2.76l-1.57-1.57 c-0.56-0.56-0.56-1.48,0-2.04l2.13-2.13c0.56-0.56,1.48-0.56,2.04,0l1.71,1.71c0.88-0.47,1.83-0.83,2.84-1.06v-2.22 c0-0.79,0.65-1.44,1.44-1.44h3.01c0.79,0,1.44,0.65,1.44,1.44v2.42c0.98,0.3,1.91,0.72,2.76,1.26l1.57-1.57 C69.65,49.6,70.57,49.6,71.13,50.16L71.13,50.16L71.13,50.16z M25.39,40.73l15.34-15.34c-0.28-1.37-0.43-2.79-0.43-4.25 c0-5.84,2.37-11.12,6.19-14.95C50.32,2.37,55.6,0,61.44,0s11.12,2.37,14.95,6.19c3.83,3.83,6.19,9.11,6.19,14.95 c0,1.46-0.15,2.88-0.43,4.25l15.33,15.34c1.37-0.28,2.79-0.43,4.25-0.43c5.84,0,11.12,2.37,14.95,6.19s6.19,9.11,6.19,14.95 c0,5.84-2.37,11.12-6.19,14.95c-3.83,3.83-9.11,6.19-14.95,6.19c-1.46,0-2.88-0.15-4.25-0.43L82.15,97.49 c0.28,1.37,0.43,2.79,0.43,4.25c0,5.84-2.37,11.12-6.19,14.95s-9.11,6.19-14.95,6.19s-11.12-2.37-14.95-6.19 c-3.83-3.83-6.19-9.11-6.19-14.95c0-1.46,0.15-2.88,0.43-4.25L25.39,82.15c-1.37,0.28-2.79,0.43-4.25,0.43 c-5.84,0-11.12-2.37-14.95-6.19C2.37,72.56,0,67.28,0,61.44c0-5.84,2.37-11.12,6.19-14.95c3.83-3.83,9.11-6.19,14.95-6.19 C22.6,40.3,24.02,40.45,25.39,40.73L25.39,40.73z M43.34,32.07L32.07,43.34c1.46,0.89,2.81,1.95,4.02,3.15 c3.83,3.83,6.19,9.11,6.19,14.95c0,5.84-2.37,11.12-6.19,14.95c-1.2,1.2-2.55,2.26-4.02,3.15l11.27,11.27 c0.89-1.46,1.95-2.81,3.15-4.02c3.83-3.83,9.11-6.19,14.95-6.19s11.12,2.37,14.95,6.19c1.2,1.2,2.26,2.55,3.15,4.02L90.8,79.54 c-1.46-0.89-2.81-1.95-4.02-3.15c-3.83-3.83-6.19-9.11-6.19-14.95c0-5.84,2.37-11.12,6.19-14.95c1.2-1.2,2.55-2.26,4.02-3.15 L79.54,32.07c-0.89,1.46-1.95,2.81-3.15,4.02c-3.83,3.83-9.11,6.19-14.95,6.19s-11.12-2.37-14.95-6.19 C45.29,34.89,44.23,33.54,43.34,32.07L43.34,32.07z M73.24,9.34c-3.02-3.02-7.19-4.89-11.8-4.89c-4.61,0-8.78,1.87-11.8,4.89 s-4.89,7.19-4.89,11.8c0,4.61,1.87,8.78,4.89,11.8c3.02,3.02,7.19,4.89,11.8,4.89c4.61,0,8.78-1.87,11.8-4.89 c3.02-3.02,4.89-7.19,4.89-11.8C78.13,16.53,76.26,12.36,73.24,9.34L73.24,9.34z M10.07,61.45c0-3.49,0.97-6.2,2.92-8.14 c1.94-1.94,4.65-2.92,8.12-2.92c3.56,0,6.3,0.96,8.22,2.86c1.93,1.91,2.89,4.59,2.89,8.02c0,2.5-0.42,4.54-1.26,6.14 c-0.84,1.6-2.06,2.84-3.65,3.73c-1.59,0.89-3.57,1.33-5.94,1.33c-2.41,0-4.4-0.38-5.98-1.15c-1.58-0.77-2.86-1.98-3.84-3.65 C10.56,66.03,10.07,63.95,10.07,61.45L10.07,61.45z M16.66,61.47c0,2.15,0.4,3.71,1.2,4.65c0.81,0.94,1.9,1.41,3.28,1.41 c1.42,0,2.52-0.46,3.3-1.38c0.78-0.92,1.17-2.58,1.17-4.97c0-2.01-0.41-3.48-1.22-4.4c-0.82-0.93-1.92-1.39-3.31-1.39 c-1.33,0-2.41,0.47-3.21,1.41C17.07,57.73,16.66,59.3,16.66,61.47L16.66,61.47z M32.94,73.24c3.02-3.02,4.89-7.19,4.89-11.8 s-1.87-8.78-4.89-11.8c-3.02-3.02-7.19-4.89-11.8-4.89c-4.61,0-8.78,1.87-11.8,4.89s-4.89,7.19-4.89,11.8s1.87,8.78,4.89,11.8 s7.19,4.89,11.8,4.89C25.75,78.13,29.92,76.26,32.94,73.24L32.94,73.24z M52.35,92.06h18.19v4.78h-6.11v14.57h-5.97V96.85h-6.11 V92.06L52.35,92.06z M73.24,89.94c-3.02-3.02-7.19-4.89-11.8-4.89c-4.61,0-8.78,1.87-11.8,4.89s-4.89,7.19-4.89,11.8 s1.87,8.78,4.89,11.8s7.19,4.89,11.8,4.89c4.61,0,8.78-1.87,11.8-4.89s4.89-7.19,4.89-11.8S76.26,92.96,73.24,89.94L73.24,89.94z M89.66,52.8h5.07l1.82,9.64l2.67-9.64h5.03l2.69,9.66l1.83-9.66h5.04l-3.81,17.28h-5.24l-3.03-10.88l-3.01,10.88H93.5L89.66,52.8 L89.66,52.8z M113.54,73.24c3.02-3.02,4.89-7.19,4.89-11.8s-1.87-8.78-4.89-11.8s-7.19-4.89-11.8-4.89s-8.78,1.87-11.8,4.89 s-4.89,7.19-4.89,11.8s1.87,8.78,4.89,11.8s7.19,4.89,11.8,4.89S110.52,76.26,113.54,73.24L113.54,73.24z M52.08,24.64l6.06-0.38 c0.13,0.98,0.4,1.73,0.8,2.24c0.66,0.83,1.6,1.25,2.82,1.25c0.91,0,1.61-0.21,2.1-0.64c0.5-0.43,0.74-0.92,0.74-1.49 c0-0.53-0.23-1.01-0.7-1.44c-0.47-0.42-1.55-0.82-3.26-1.2c-2.8-0.63-4.79-1.46-5.98-2.5c-1.2-1.04-1.8-2.37-1.8-3.98 c0-1.06,0.31-2.06,0.92-3c0.61-0.95,1.54-1.69,2.77-2.23c1.23-0.54,2.93-0.81,5.08-0.81c2.64,0,4.65,0.49,6.03,1.48 c1.38,0.98,2.21,2.54,2.47,4.69l-6,0.35c-0.16-0.94-0.5-1.62-1-2.04c-0.51-0.43-1.22-0.64-2.12-0.64c-0.74,0-1.3,0.16-1.68,0.47 s-0.56,0.7-0.56,1.15c0,0.33,0.15,0.62,0.46,0.88c0.29,0.27,1,0.52,2.13,0.76c2.79,0.6,4.78,1.21,5.98,1.83 c1.21,0.61,2.09,1.37,2.63,2.29c0.55,0.91,0.82,1.93,0.82,3.06c0,1.32-0.37,2.54-1.1,3.66c-0.74,1.11-1.75,1.97-3.07,2.54 c-1.31,0.58-2.97,0.86-4.97,0.86c-3.51,0-5.94-0.68-7.29-2.03C53.02,28.43,52.26,26.72,52.08,24.64L52.08,24.64z M61.44,55.52 c3.27,0,5.92,2.65,5.92,5.92c0,3.27-2.65,5.92-5.92,5.92c-3.27,0-5.92-2.65-5.92-5.92C55.52,58.17,58.17,55.52,61.44,55.52 L61.44,55.52L61.44,55.52z"/></g></svg>