<svg xmlns="http://www.w3.org/2000/svg" shape-rendering="geometricPrecision" text-rendering="geometricPrecision" image-rendering="optimizeQuality" fill-rule="evenodd" clip-rule="evenodd" viewBox="0 0 469 512.42"><path fill-rule="nonzero" d="M191.84 93.36c27.84 0 53.07 11.31 71.3 29.54 18.24 18.24 29.54 43.46 29.54 71.3 0 27.85-11.3 53.07-29.54 71.31-18.23 18.23-43.46 29.53-71.3 29.53-27.84 0-53.09-11.3-71.32-29.53-18.24-18.24-29.54-43.46-29.54-71.31 0-27.84 11.3-53.06 29.54-71.3 18.23-18.23 43.48-29.54 71.32-29.54zm146.51 353 9.88-50.2 10 15.08c21.59-8.66 33.7-22.92 35.49-44.91 17.72 30.97 6.95 58.76-15.5 75.02l10.22 15.38-50.09-10.37zm19.29-109.92-9.88 50.19-10.01-15.08c-21.58 8.66-33.69 22.94-35.48 44.91-17.72-30.97-6.95-58.74 15.5-75.02l-10.22-15.38 50.09 10.38zm-9.65-66.05c33.4 0 63.67 13.55 85.56 35.45l.61.65C455.69 328.32 469 358.33 469 391.4c0 33.39-13.55 63.68-35.45 85.58l-.65.61c-21.83 21.52-51.84 34.83-84.91 34.83-33.39 0-63.64-13.57-85.54-35.44-21.93-21.9-35.48-52.19-35.48-85.58 0-33.38 13.57-63.63 35.44-85.52 21.9-21.94 52.19-35.49 85.58-35.49zm69.06 51.95c-17.66-17.67-42.1-28.59-69.06-28.59-26.95 0-51.41 10.92-69.07 28.59-17.65 17.64-28.6 42.1-28.6 69.06 0 26.95 10.93 51.41 28.6 69.07 17.64 17.65 42.1 28.6 69.07 28.6 26.71 0 50.95-10.74 68.57-28.07l.49-.53c17.67-17.66 28.59-42.12 28.59-69.07 0-26.71-10.73-50.95-28.06-68.57l-.53-.49zM197.53 485.88c7.56-4.81 14.91-9.91 22.02-15.29 4.03 6.54 8.56 12.77 13.51 18.57a366.056 366.056 0 0 1-28.85 19.58c-3.71 2.73-8.88 3.07-13 .47C146.29 480.7 108.6 446.3 78.91 409 38.03 357.68 12.25 300.78 3.43 246.01-5.53 190.46 2.9 137 30.53 93.5 41.4 76.37 55.36 60.72 72.39 47.15 111.36 16.07 156-.37 200.29.01c42.69.35 84.97 16.28 121.48 49.6a179.21 179.21 0 0 1 32.37 39.46c26.56 43.85 34.52 98.6 26.54 154.99-7.38-1.63-14.98-2.71-22.72-3.23 7.26-51.33.25-100.76-23.43-139.86-7.61-12.53-17-24.09-28.24-34.35-32.14-29.32-69.08-43.36-106.2-43.65-38.95-.32-78.55 14.37-113.4 42.18C71.8 77 59.55 90.77 49.98 105.83c-24.53 38.61-31.94 86.5-23.86 136.6 8.19 50.86 32.37 104.05 70.79 152.27 26.78 33.62 60.51 64.83 100.62 91.18zm49.35-346.71c-14.06-14.06-33.56-22.81-55.04-22.81-21.48 0-41 8.75-55.06 22.81-14.06 14.06-22.8 33.55-22.8 55.03 0 21.49 8.74 40.98 22.8 55.04 14.06 14.06 33.58 22.8 55.06 22.8 21.48 0 40.98-8.74 55.04-22.8 14.06-14.06 22.8-33.55 22.8-55.04 0-21.48-8.74-40.97-22.8-55.03z"/></svg>