<?xml version="1.0" encoding="utf-8"?><svg version="1.1" id="Layer_1" xmlns="http://www.w3.org/2000/svg" xmlns:xlink="http://www.w3.org/1999/xlink" x="0px" y="0px" viewBox="0 0 122.88 70.52" style="enable-background:new 0 0 122.88 70.52" xml:space="preserve"><g><path d="M35.78,21.88h16.66v4.64h-5.6v14.12h-5.47V26.51h-5.6V21.88L35.78,21.88z M14.89,0h93.1c4.09,0,7.81,1.68,10.51,4.38 c2.7,2.7,4.38,6.43,4.38,10.51v40.74c0,4.08-1.68,7.8-4.39,10.5c-2.7,2.7-6.43,4.39-10.5,4.39h-93.1c-4.08,0-7.81-1.68-10.51-4.38 C1.68,63.44,0,59.72,0,55.63V14.89c0-4.1,1.67-7.82,4.37-10.52C7.07,1.67,10.79,0,14.89,0L14.89,0z M107.99,3.21h-93.1 c-3.21,0-6.13,1.31-8.25,3.43c-2.12,2.12-3.43,5.04-3.43,8.25v35.21c0.56,2.09,1.66,3.96,3.15,5.45c2.19,2.19,5.21,3.55,8.54,3.55 h93.1c0.13,0,0.26,0,0.4-0.01l0.82-0.06c2.84-0.29,5.4-1.57,7.32-3.49c1.49-1.49,2.59-3.36,3.15-5.44V14.89 c0-3.2-1.32-6.12-3.44-8.25C114.11,4.53,111.19,3.21,107.99,3.21L107.99,3.21z M57.83,31.44l-4.7-0.52 c0.18-0.87,0.43-1.56,0.77-2.06c0.33-0.5,0.81-0.93,1.44-1.3c0.45-0.27,1.07-0.47,1.86-0.62c0.79-0.14,1.64-0.22,2.56-0.22 c1.47,0,2.65,0.09,3.55,0.26c0.89,0.17,1.64,0.54,2.23,1.1c0.42,0.38,0.75,0.93,0.99,1.63c0.24,0.7,0.36,1.37,0.36,2.02v6.01 c0,0.64,0.04,1.14,0.12,1.51c0.07,0.36,0.24,0.83,0.5,1.39h-4.61c-0.19-0.35-0.31-0.61-0.36-0.79c-0.05-0.18-0.11-0.47-0.17-0.86 c-0.64,0.65-1.28,1.12-1.92,1.4c-0.87,0.38-1.88,0.56-3.03,0.56c-1.53,0-2.7-0.38-3.49-1.13c-0.8-0.75-1.19-1.68-1.19-2.78 c0-1.03,0.28-1.89,0.86-2.55c0.57-0.67,1.63-1.17,3.17-1.49c1.85-0.39,3.04-0.67,3.59-0.83c0.55-0.16,1.13-0.36,1.74-0.62 c0-0.64-0.12-1.09-0.38-1.34c-0.25-0.26-0.69-0.38-1.31-0.38c-0.81,0-1.41,0.14-1.81,0.41C58.27,30.44,58.02,30.84,57.83,31.44 L57.83,31.44z M62.09,34.16c-0.68,0.26-1.38,0.48-2.12,0.69c-1,0.28-1.63,0.56-1.9,0.84c-0.28,0.28-0.41,0.61-0.41,0.97 c0,0.41,0.14,0.76,0.4,1.02c0.27,0.26,0.67,0.39,1.19,0.39c0.55,0,1.06-0.14,1.54-0.43c0.47-0.28,0.8-0.63,1-1.04 c0.2-0.41,0.3-0.94,0.3-1.6V34.16L62.09,34.16z M70.1,21.88h4.98v6.48c0.49-0.55,1.05-0.95,1.68-1.23 c0.62-0.27,1.31-0.41,2.07-0.41c1.56,0,2.86,0.59,3.88,1.79c1.02,1.19,1.54,2.9,1.54,5.13c0,1.48-0.24,2.79-0.7,3.93 c-0.47,1.13-1.11,1.98-1.94,2.54c-0.83,0.56-1.74,0.84-2.75,0.84c-0.86,0-1.65-0.2-2.37-0.59c-0.54-0.31-1.13-0.89-1.77-1.74v2.01 H70.1V21.88L70.1,21.88z M75.04,33.78c0,1.17,0.21,2.03,0.62,2.55c0.41,0.53,0.94,0.79,1.57,0.79c0.59,0,1.08-0.26,1.48-0.78 c0.4-0.52,0.6-1.39,0.6-2.61c0-1.08-0.19-1.87-0.59-2.37c-0.39-0.51-0.86-0.76-1.42-0.76c-0.67,0-1.21,0.26-1.63,0.79 C75.25,31.91,75.04,32.71,75.04,33.78L75.04,33.78z"/></g></svg>