<?xml version="1.0" encoding="utf-8"?><svg version="1.1" id="Layer_1" xmlns="http://www.w3.org/2000/svg" xmlns:xlink="http://www.w3.org/1999/xlink" x="0px" y="0px" viewBox="0 0 88.65 122.88" style="enable-background:new 0 0 88.65 122.88" xml:space="preserve"><style type="text/css">.st0{fill-rule:evenodd;clip-rule:evenodd;}</style><g><path class="st0" d="M88.65,3.62v115.63c0,1.99-1.63,3.62-3.62,3.62H3.62c-1.99,0-3.62-1.63-3.62-3.62V3.62C0,1.63,1.63,0,3.62,0 h81.4C87.02,0,88.65,1.63,88.65,3.62L88.65,3.62z M14.83,84.84c-0.59,0-1.08-0.49-1.08-1.09c0-0.6,0.48-1.09,1.08-1.09H74 c0.59,0,1.08,0.49,1.08,1.09c0,0.6-0.48,1.09-1.08,1.09H14.83L14.83,84.84z M14.83,95.14c-0.59,0-1.08-0.49-1.08-1.09 c0-0.6,0.48-1.09,1.08-1.09H74c0.59,0,1.08,0.49,1.08,1.09c0,0.6-0.48,1.09-1.08,1.09H14.83L14.83,95.14z M65.18,30.07l8.95,0.03 c-0.01,2.39-0.97,4.67-2.67,6.35c-0.4,0.4-0.84,0.75-1.31,1.07L65.18,30.07L65.18,30.07L65.18,30.07z M27,23.05h2.73 c0.15,0,0.26,0.12,0.26,0.26v9.72c0,0.14-0.12,0.26-0.26,0.26H27c-0.14,0-0.26-0.12-0.26-0.26v-9.72 C26.74,23.17,26.86,23.05,27,23.05L27,23.05z M14.67,19.77h2.73c0.15,0,0.26,0.12,0.26,0.26v13c0,0.15-0.12,0.26-0.26,0.26h-2.73 c-0.15,0-0.26-0.12-0.26-0.26v-13C14.4,19.88,14.52,19.77,14.67,19.77L14.67,19.77z M20.83,17.92h2.73c0.15,0,0.26,0.12,0.26,0.26 v14.85c0,0.15-0.12,0.26-0.26,0.26h-2.73c-0.15,0-0.26-0.12-0.26-0.26V18.18C20.57,18.04,20.69,17.92,20.83,17.92L20.83,17.92z M14.83,63.46c-0.59,0-1.08-0.49-1.08-1.09c0-0.6,0.48-1.09,1.08-1.09H74c0.59,0,1.08,0.49,1.08,1.09c0,0.6-0.48,1.09-1.08,1.09 H14.83L14.83,63.46z M14.65,53.07c-0.59,0-1.08-0.49-1.08-1.09c0-0.6,0.48-1.09,1.08-1.09h16.73c0.59,0,1.08,0.49,1.08,1.09 c0,0.6-0.48,1.09-1.08,1.09H14.65L14.65,53.07z M35.57,53.07c-0.59,0-1.08-0.49-1.08-1.09c0-0.6,0.48-1.09,1.08-1.09H74 c0.59,0,1.08,0.49,1.08,1.09c0,0.6-0.48,1.09-1.08,1.09H35.57L35.57,53.07z M14.65,43.53c-0.59,0-1.08-0.49-1.08-1.09 c0-0.6,0.48-1.09,1.08-1.09h32.33c0.59,0,1.08,0.49,1.08,1.09c0,0.6-0.48,1.09-1.08,1.09H14.65L14.65,43.53z M64.27,28.3 l-0.48-9.57c-0.01-0.19,0.14-0.35,0.33-0.36c0.05,0,0.12-0.01,0.19-0.01c0.06,0,0.12,0,0.19,0c2.63-0.03,5.04,0.97,6.84,2.63 c1.8,1.66,2.99,3.98,3.18,6.6c0.01,0.19-0.13,0.35-0.32,0.37l-9.57,0.68c-0.19,0.01-0.35-0.13-0.37-0.32 C64.27,28.32,64.27,28.31,64.27,28.3L64.27,28.3L64.27,28.3z M64.49,19.05l0.44,8.89l8.87-0.63c-0.25-2.3-1.33-4.33-2.93-5.81 c-1.68-1.55-3.92-2.47-6.37-2.45L64.49,19.05L64.49,19.05L64.49,19.05z M63.19,29.66l4.8,8.31c-1.46,0.84-3.11,1.29-4.8,1.29 c-5.3,0-9.6-4.3-9.6-9.6c0-4.76,3.49-8.8,8.2-9.49L63.19,29.66L63.19,29.66z M14.65,74.46c-0.59,0-1.08-0.49-1.08-1.09 c0-0.6,0.48-1.09,1.08-1.09h16.73c0.59,0,1.08,0.49,1.08,1.09c0,0.6-0.48,1.09-1.08,1.09H14.65L14.65,74.46z M35.57,74.46 c-0.59,0-1.08-0.49-1.08-1.09c0-0.6,0.48-1.09,1.08-1.09H74c0.59,0,1.08,0.49,1.08,1.09c0,0.6-0.48,1.09-1.08,1.09H35.57 L35.57,74.46z M44.32,110.82c2.29,0,4.15,1.86,4.15,4.15c0,2.29-1.86,4.15-4.15,4.15c-2.29,0-4.15-1.86-4.15-4.15 C40.18,112.68,42.03,110.82,44.32,110.82L44.32,110.82z M83.74,6.46v100.67H5.42V6.46H83.74L83.74,6.46z"/></g></svg>