<svg id="Layer_1" data-name="Layer 1" xmlns="http://www.w3.org/2000/svg" viewBox="0 0 122.88 92.34"><defs><style>.cls-1{fill-rule:evenodd;}</style></defs><title>tax-cut</title><path class="cls-1" d="M113.44,46.06c2.46-5.26,2.42-9.61,0-13.1L98.75,58.53,102.41,65l11-19ZM64.11,83.67h0l-8,7.66a2.32,2.32,0,0,1-3.24.09L44.44,83.6l-7.69,7.91-.13.15a2.31,2.31,0,0,1-3.28,0L25.28,83.6,17,91.52h0a2.31,2.31,0,0,1-3.23,0l-7.9-8L4.19,85.38A2.32,2.32,0,0,1,0,84V2.32A2.32,2.32,0,0,1,2.32,0H97.85a2.32,2.32,0,0,1,2.32,2.32V30.65L98,37l-2.44-2.89V4.65H4.65V78a2.33,2.33,0,0,1,2.59.31.69.69,0,0,1,.13.11h0l8.06,8.15,8.29-7.9a2.32,2.32,0,0,1,3.24,0h0l8,8,7.73-8a2.32,2.32,0,0,1,3.23-.09h0l8.53,7.87,8.08-7.75a2.3,2.3,0,0,1,1.58-.65v5.53Zm6-35a1.72,1.72,0,1,1,0,3.43H21.72a1.72,1.72,0,0,1,0-3.43Zm-6.24,11.4a1.72,1.72,0,1,1,0,3.43H22.21a1.72,1.72,0,0,1,0-3.43Zm-30.5-45.4L33,19.78l-4.61-.21h-.42l-.18,9.89L28,36.8H21l.35-6.64-.17-10.59h-.46l-4.64.21-.42-.49.38-5.1H33l.39.49ZM53.54,36.8h-7.1l-.62-3.74,0-.1-3.42-.07L39.49,33l-.6,3.77H32l6.85-22.61h8.46L53.54,36.8Zm-8.81-8.94-1.54-7.41h-.42l-2,7.41,2,0,2,0Zm24.47-3L76,36.8H67.66L66.47,34l-2-3.67-2.58,4L60.74,36.8h-7.1l6.72-10.87L53.44,14.19h8.38L63.05,17l2,3.57,2.27-3.95,1-2.45h7.3L69.2,24.85ZM82,46.06c-2.46-5.26-2.41-9.61,0-13.1L99.75,63.9a6.07,6.07,0,0,1,1.41,3.43,8.69,8.69,0,0,1-.45,2.57,3.43,3.43,0,0,0,.49,2.57l.74.81c.67.73,1.24,1.61,2.37,1.46.75-.09,1.38-.73,1.93-1.75a7.28,7.28,0,0,1,2.47-1.8,8.34,8.34,0,0,1,3.09-.69c3.59.18,6.7,1.86,9,5.9,2.83,4.61,2.5,8.51.4,12a7,7,0,0,1-5.79,3.06,10.58,10.58,0,0,1-8.27-4.16,34.87,34.87,0,0,1-3.66-5.67l-4.3-5.5-.5-1.28L82,46.06ZM97.81,65.23a1.71,1.71,0,1,1-1.7,1.71,1.7,1.7,0,0,1,1.7-1.71ZM108.4,75.81c1.22-1.85,3.26-2,5.21-1.36a8.15,8.15,0,0,1,4.06,3.48,10.16,10.16,0,0,1,1.52,6c-.37,4-4,4.78-7.07,3a8,8,0,0,1-3.29-3.5,11.56,11.56,0,0,1-1.17-3.59,5.81,5.81,0,0,1,.74-4ZM94.69,71.32a3.48,3.48,0,0,1-.48,1.14l-.74.82c-.67.73-1.24,1.6-2.37,1.46-.75-.1-1.38-.73-1.93-1.76a7.42,7.42,0,0,0-2.47-1.8,8.54,8.54,0,0,0-3.08-.69c-3.6.19-6.71,1.86-9,5.91-2.83,4.61-2.5,8.5-.4,12A7,7,0,0,0,80,91.45a10.64,10.64,0,0,0,8.27-4.16,34.55,34.55,0,0,0,3.66-5.68L97,75.15l-.17-.29-.05-.08-2-3.46ZM87,75.81c-1.22-1.85-3.27-2-5.22-1.36a8.23,8.23,0,0,0-4.06,3.48,10.15,10.15,0,0,0-1.51,6c.37,4,4,4.79,7.07,3a8.14,8.14,0,0,0,3.3-3.51,11.73,11.73,0,0,0,1.16-3.59,5.81,5.81,0,0,0-.74-4Z"/></svg>