<svg id="Layer_1" data-name="Layer 1" xmlns="http://www.w3.org/2000/svg" viewBox="0 0 122.88 122.88"><defs><style>.cls-1{fill:#d92d27;fill-rule:evenodd;}</style></defs><title>tax-free-no-tax</title><path d="M44.8,48.24,44.29,55l-6.13-.28H37.6l-.23,13.15.37,9.76H28.45l.46-8.83-.23-14.08h-.6L21.9,55l-.56-.65.51-6.78H44.29l.51.65ZM71.66,77.65H62.23l-.84-5,0-.14-4.56-.09L53,72.63l-.79,5h-9.1l9.1-30.06H63.44l8.22,30.06ZM60,65.76l-2-9.85h-.56l-2.6,9.85,2.6,0,2.6,0Zm32.53-4,9.06,15.89H90.43L88.85,74,86.16,69.1l-3.44,5.35-1.49,3.2H71.8L80.72,63.2l-9.2-15.61H82.67l1.63,3.76L87,56.09l3-5.25,1.39-3.25h9.71L92.48,61.76Z"/><path class="cls-1" d="M38,4.66A61.61,61.61,0,1,1,18,18,61.29,61.29,0,0,1,38,4.66ZM29.21,23.72l69.95,70A49.61,49.61,0,0,0,29.21,23.72ZM93.67,99.16,23.72,29.21a49.61,49.61,0,0,0,70,69.95Z"/></svg>