<?xml version="1.0" encoding="utf-8"?><svg version="1.1" id="Layer_1" xmlns="http://www.w3.org/2000/svg" xmlns:xlink="http://www.w3.org/1999/xlink" x="0px" y="0px" viewBox="0 0 122.88 66.97" style="enable-background:new 0 0 122.88 66.97" xml:space="preserve"><style type="text/css">.st0{fill-rule:evenodd;clip-rule:evenodd;}</style><g><path class="st0" d="M7.58,0H115.3c4.17,0,7.58,3.42,7.58,7.58V59.4c0,4.16-3.42,7.58-7.58,7.58H7.58C3.42,66.97,0,63.56,0,59.4 V7.58C0,3.41,3.41,0,7.58,0L7.58,0z M47.17,14.49v7.59h-6.15v30.41H30.56V22.08h-6.2v-7.59H47.17L47.17,14.49z M66,14.49l5.98,38 H61.3l-0.57-6.82h-3.77l-0.57,6.82H45.58l5.3-38H66L66,14.49z M60.45,38.94c-0.5-4.31-1.02-9.64-1.58-16 c-1.03,7.3-1.69,12.63-1.96,16H60.45L60.45,38.94z M96.64,14.49l-3.66,16.8l5.54,21.19h-9.65c-1.15-3.79-2.22-8.41-3.2-13.87 c-0.3,2.43-0.68,4.99-1.15,7.68l-0.93,6.2H73.42l3.81-21.19l-3.81-16.8h10.11c0.21,1.05,0.57,2.8,1.08,5.25 c0.41,1.86,0.77,3.58,1.06,5.15l2.24-10.4H96.64L96.64,14.49z"/></g></svg>