<?xml version="1.0" encoding="utf-8"?><svg version="1.1" id="Layer_1" xmlns="http://www.w3.org/2000/svg" xmlns:xlink="http://www.w3.org/1999/xlink" x="0px" y="0px" viewBox="0 0 122.88 120.33" style="enable-background:new 0 0 122.88 120.33" xml:space="preserve"><style type="text/css"><![CDATA[
	.st0{fill:#1C80BE;}
]]></style><g><path class="st0" d="M0.2,64.21c0.2-1.91-0.2-4.13,0.2-6.44c0.6-3.72,2.72-6.64,6.04-8.25c0.81-0.4,1.21-0.81,1.41-1.91 c1.41-8.05,4.73-15.5,9.56-22.14c0.6-0.81,1.01-1.21,0.2-2.31c-0.81-1.21-0.2-2.52,0.6-3.52c6.84-7.65,14.89-13.28,24.45-16.4 c22.94-7.24,43.06-2.31,60.47,14.69c1.61,1.61,3.72,3.12,1.61,5.84c-0.4,0.4,0.2,0.81,0.6,1.21c4.93,6.84,8.25,14.49,9.76,22.74 c0.2,0.81,0.8,1.21,1.41,1.61c4.13,2.11,6.24,5.63,6.24,10.36c0,4.13,0.4,8.25-0.2,12.38c-1.01,6.04-7.04,10.16-12.88,8.85 c-1.61-0.4-2.31-1.61-2.31-3.32c0-6.84,0.2-13.68,0-20.52c-0.6-18.41-8.65-32.3-24.65-41.15C56.34,1.42,22.14,17.82,16.4,47.81 c-1.01,5.13-0.81,10.56-0.81,15.69c0,4.93,0,9.76-0.2,14.69c0,1.61-1.01,2.72-2.92,2.72C4.93,81.31,0,76.58,0,68.94 C0.2,67.73,0.2,66.22,0.2,64.21L0.2,64.21z M107.46,86.54c-0.6-0.6-1.61-0.2-2.11,0.6c-1.91,6.04-10.77,26.26-40.95,28.37 c-35.62,2.51,19.02,10.16,34.61-1.41c5.33-4.13,11.37-8.25,11.17-20.12C110.17,91.67,109.07,87.75,107.46,86.54L107.46,86.54z M74.55,90.27c3.12,0.4,6.04,1.01,9.16,1.21c4.13,0.2,7.24-1.01,9.56-3.52c2.92-3.12,4.33-7.04,4.13-11.17 c-0.2-4.33-3.72-6.84-8.45-6.04c-4.33,0.6-8.05,2.51-11.97,3.92c-3.52,1.41-6.64,3.12-9.16,5.33c-3.52,3.32-1.61,7.85,3.92,9.56 C72.44,89.86,73.45,90.06,74.55,90.27L74.55,90.27z M52.42,88.35c2.72-1.01,4.73-2.92,5.33-6.04c0.6-3.12-2.92-7.45-7.65-11.97 c-4.93-4.73-11.37-9.76-14.89-11.57c-5.13-3.12-9.96-0.4-10.97,5.63c-1.21,6.64,0,12.88,3.52,18.41c2.51,3.92,6.04,5.63,10.36,6.04 C40.55,88.76,50.31,89.26,52.42,88.35L52.42,88.35z"/></g></svg>