<?xml version="1.0" encoding="utf-8"?><svg version="1.1" id="Layer_1" xmlns="http://www.w3.org/2000/svg" xmlns:xlink="http://www.w3.org/1999/xlink" x="0px" y="0px" viewBox="0 0 122.88 83.53" style="enable-background:new 0 0 122.88 83.53" xml:space="preserve"><g><path d="M39.05,14.23c1.86-1.79,4.15-2.82,6.71-3.19c2.61-0.37,5.5-0.03,8.49,0.92c1.64,0.52,2.91,0.96,3.95,1.32 c1.97,0.68,3.03,1.05,4,1.06c1.16,0,2.55-0.5,5.56-1.58c0.94-0.34,1.96-0.7,2.06-0.74c2.61-0.92,5.14-1.37,7.48-1.32 c2.36,0.05,4.52,0.61,6.34,1.71c2.6,1.57,4.03,3.67,4.77,6.06c0.71,2.28,0.77,4.77,0.63,7.28c-0.19,3.63-0.82,7.19-1.89,10.66 c-1.02,3.32-2.43,6.57-4.24,9.75c0.92,5.77,1.17,10.96,1.02,15.55c-0.16,4.74-0.75,8.82-1.49,12.23c-0.81,3.73-1.97,6.62-3.25,8.11 c-0.73,0.86-1.56,1.34-2.45,1.4c-0.95,0.06-1.83-0.35-2.62-1.3c-1.1-1.32-2.1-3.95-2.85-8.17c-0.21-1.17-0.33-2.45-0.38-3.01 l-0.02-0.16h0l-0.03-0.33c-0.82-8.3-1.63-16.47-8.91-16.55c-3.47,0.79-5.3,2.43-6.32,4.85c-1.12,2.65-1.38,6.35-1.69,10.88l0,0.02 c-0.04,0.63-0.18,2.74-0.44,4.29c-0.71,4.27-1.72,6.94-2.85,8.27c-0.79,0.92-1.67,1.33-2.61,1.28c-0.89-0.05-1.72-0.52-2.46-1.36 c-1.3-1.48-2.45-4.36-3.19-8.14c-0.61-3.12-1.08-7.27-1.32-12.34c-0.21-4.48-0.23-9.69-0.01-15.59c-1.25-2.86-2.37-5.74-3.27-8.65 c-0.94-3.01-1.66-6.06-2.07-9.17c-0.35-2.6-0.6-4.98-0.25-7.27C35.83,18.59,36.85,16.36,39.05,14.23L39.05,14.23L39.05,14.23z M14.63,0l1.77,7.68L1.18,5.13l20.11,11.69l-0.96-7.3l15.18,2.99L14.63,0L14.63,0L14.63,0z M8.66,25.35l3.91,5.33L0,33.77 l19.37,2.33l-3.16-5.31l12.7-2.46L8.66,25.35L8.66,25.35L8.66,25.35z M106.74,0.21l-1.77,7.68l15.23-2.55l-20.11,11.69l0.96-7.3 l-15.18,2.99L106.74,0.21L106.74,0.21L106.74,0.21z M114.22,25.35l-3.91,5.33l12.58,3.08l-19.37,2.33l3.16-5.31l-12.7-2.46 L114.22,25.35L114.22,25.35L114.22,25.35z M46.14,13.7c-2.01,0.28-3.79,1.08-5.22,2.46c-1.72,1.66-2.51,3.38-2.79,5.23 c-0.3,1.97-0.06,4.14,0.25,6.52c0.39,2.93,1.07,5.83,1.97,8.72c0.9,2.9,2.03,5.77,3.29,8.65l0,0c0.08,0.18,0.12,0.38,0.11,0.59 c-0.23,5.94-0.21,11.19,0,15.69c0.23,4.91,0.68,8.92,1.27,11.94c0.65,3.32,1.58,5.75,2.57,6.89c0.25,0.29,0.45,0.44,0.59,0.45 c0.08,0,0.22-0.1,0.42-0.33c0.84-0.99,1.63-3.21,2.25-6.96c0.23-1.4,0.37-3.43,0.41-4.04l0-0.02c0.32-4.77,0.6-8.67,1.9-11.74 c1.38-3.27,3.8-5.46,8.35-6.46l0,0c0.09-0.02,0.18-0.03,0.28-0.03c9.87-0.04,10.79,9.39,11.74,18.96l0.03,0.33h0l0,0.01l0.02,0.17 c0.05,0.5,0.16,1.65,0.36,2.8c0.66,3.74,1.45,5.94,2.26,6.92c0.19,0.23,0.32,0.34,0.39,0.33c0.13-0.01,0.32-0.17,0.58-0.46 c1-1.16,1.95-3.63,2.66-6.94c0.71-3.3,1.28-7.22,1.43-11.75c0.15-4.54-0.11-9.71-1.06-15.48c-0.06-0.3-0.01-0.63,0.16-0.92 c1.82-3.13,3.24-6.33,4.24-9.6c1-3.26,1.59-6.6,1.77-10.01c0.12-2.24,0.08-4.44-0.52-6.35c-0.56-1.79-1.64-3.38-3.6-4.56 c-1.42-0.86-3.12-1.29-5.01-1.33c-2.01-0.04-4.22,0.36-6.54,1.18c-1.42,0.5-1.76,0.62-2.05,0.73c-3.32,1.19-4.85,1.74-6.47,1.73 c-1.42,0-2.62-0.42-4.87-1.2c-1.03-0.36-2.28-0.79-3.89-1.3C50.85,13.69,48.35,13.39,46.14,13.7L46.14,13.7L46.14,13.7z"/></g></svg>