<svg id="Layer_1" data-name="Layer 1" xmlns="http://www.w3.org/2000/svg" viewBox="0 0 122.88 35"><defs><style>.cls-1{fill:#053041;}</style></defs><title>telefonica</title><path class="cls-1" d="M12.44,34.91C5.6,34.83,0,34.59,0,34.38c0-.63,48-1.05,86.28-.75,20,.15,36.4.37,36.52.49a.35.35,0,0,1,0,.48c-.29.29-91.29.55-110.32.31Zm-1.62-7.76a3.39,3.39,0,0,1,.82-1.22,72.46,72.46,0,0,0,4.14-9.33c3.79-9.62,4.77-11.5,7-13.43l1.62-1.38L20.33,2c-4.7.28-7.46,1.11-9.19,2.76A5.82,5.82,0,0,0,9.39,9.67c.32,1.21-.55,1.1-1.89-.24C5.91,7.84,6.31,5.68,8.59,3.54,11.44.87,13.38.5,26.18.2,32.36.05,37.49,0,37.57,0s-.4.44-1.06.87c-.9.59-2.25.83-5.34.94-3.73.13-4.24.25-5.3,1.25-1.22,1.16-3.68,6.65-6.82,15.26-1.79,4.9-3.22,7.4-4.68,8.16-1.12.59-3.55,1-3.55.66Zm36.77.06a5.21,5.21,0,0,1,.8-1.46,11.16,11.16,0,0,0,1-1.8c.13-.35.65-1.66,1.14-2.9l.9-2.26-1.94,1.48c-3.33,2.54-6.89,3.09-8.65,1.32s-1.13-5.91,1.78-9.87c3.25-4.45,9.27-6.1,9.27-2.54,0,1.64-2.45,4.41-5.61,6.36-2.63,1.63-3.41,3-2.56,4.62.52,1,1.45,1,3.63-.06a13.78,13.78,0,0,0,6.46-7.55c.61-1.64,1.11-3,1.11-3.11a2.21,2.21,0,0,0-1-.32c-.9-.17-.87-.22.39-.75a5.17,5.17,0,0,0,2.11-1.91C58.81,2.37,61.91.52,66.92.25c3.35-.19,3.6-.14,4.65.92a4,4,0,0,1,1.12,1.6c0,.67-2.41,3-3.09,3-.43,0-.43-.11,0-.52a2.81,2.81,0,0,0,.52-1.72c0-2.61-4-3.3-7-1.2-1.23.88-3.87,4.44-3.87,5.22,0,.17,1.95.2,4.33.07,4.59-.26,5.47.14,3.08,1.37-3.49,1.8-6.84,11.45-4.11,11.84,2.07.3,5.79-6.32,5.79-10.29,0-1.15.15-1.23,3.89-2.1,4.72-1.1,5.37-.95,5.07,1.18A12.7,12.7,0,0,1,76.77,12c-.18.45.59-.17,1.71-1.36,2.26-2.42,4-3.36,5.63-3,2.1.53,1.9,1.67-1.64,9.57a15.12,15.12,0,0,0-1.56,5.3c0,2.12-.46,2.28-2,.72S77.64,19.77,80,14.6a33.28,33.28,0,0,0,1.79-4.44c0-2-4.36,3.06-7.14,8.25-2,3.7-2.28,4-3.57,4.17-.77.07-1.4,0-1.4-.19s1-2.82,2.16-5.87c2.56-6.57,2.68-7.41,1-7S71,10.05,71,11.11c0,1.21-2.22,5.93-3.73,7.9-2.33,3.06-6.18,4.44-8.28,3s-.58-8,2.83-11.29L63.49,9,61,9.17l-2.5.15-1.82,5c-2.5,7-4.48,11.14-5.68,11.91s-3.39,1.37-3.39.93Zm.08-14.36C49.29,11.14,50,9.3,49.08,9c-1.23-.47-3.72,2.63-4.73,5.87l-.32,1L45.27,15a20.26,20.26,0,0,0,2.4-2.12ZM34.45,23.49a2.75,2.75,0,0,1-1.14-2.65V19.09L31.8,20.25c-3.43,2.61-6.49,3.09-8.29,1.29-1-1-1.09-1.32-.82-3.3.69-5.23,4.7-10,9.19-10.93a2.06,2.06,0,0,1,2.25.59c.74.74.81,1.08.43,2.16-.55,1.59-4,4.85-6.38,6.08-1.64.83-1.79,1.05-1.79,2.61a3.34,3.34,0,0,0,.39,1.93c1,.64,3.4-.46,5.46-2.53,1.79-1.81,2.72-3.4,5.2-8.88,2.85-6.29,3.11-6.7,4.46-7A5.36,5.36,0,0,1,43.71,2c.2.08-1.06,3.38-2.8,7.34-3.76,8.54-4.69,11.19-4.69,13.42,0,1.91-.2,2-1.77.76ZM29.89,13.38c2-1.91,2.84-3.59,2.13-4.3-.33-.33-.68-.33-1.21,0-1.69,1.05-4.91,7.21-3.3,6.31a21,21,0,0,0,2.38-2ZM111,23.46c-1-.78-1.15-1.19-1-2.6.09-.91,0-1.66-.17-1.66a.39.39,0,0,0-.34.43c0,.85-3.57,3-5,3a2.69,2.69,0,0,1-2.82-2.38c0-.75-.06-.75-1,.09-2.7,2.47-6.14,3-7.92,1.22l-1.07-1.07-1.57,1.07c-1.82,1.24-4.09,1.39-5.14.34s-.63-2.79,2-8.58C89.21,8.42,89.22,8.41,91,8A7.88,7.88,0,0,1,93,7.77a50.44,50.44,0,0,1-2.27,5.49c-2.5,5.57-2.91,7.23-1.75,7.23s3.23-1.8,3.23-2.64c0-1.29,1.71-4.82,3.26-6.71a9.74,9.74,0,0,1,7-3.63c2.86,0,3.71,1.79,1.62,3.43-1.39,1.1-2.08,1.16-1.67.14,1-2.34-.48-3-2.46-1.12-3.68,3.49-5.49,11.65-2.38,10.73A10,10,0,0,0,103,15.64c3-5.55,6.08-7.81,10.87-7.87a9.67,9.67,0,0,1,3.2.28c.17.17-.19,1.43-.8,2.81-1.87,4.18-3.43,9.3-3.49,11.47,0,1.13-.18,2.06-.33,2.06a5.67,5.67,0,0,1-1.45-.93ZM108.29,19c1.43-1.47,5.74-9.63,5.32-10.06s-2.69.5-3.91,1.79a19.42,19.42,0,0,0-4.06,7.51c-.63,2.82.38,3.11,2.65.76ZM92.7,5.05C92,4.77,92,3,92.78,2.34c1-.81,2.19-.37,2.19.8S93.59,5.39,92.7,5.05Z"/></svg>