<svg id="Layer_1" data-name="Layer 1" xmlns="http://www.w3.org/2000/svg" viewBox="0 0 122.88 38.52"><defs><style>.cls-1{fill-rule:evenodd;}.cls-2{fill:#fff;}.cls-3{fill:#646364;}.cls-4{fill:#b1aeaf;}.cls-5{fill:#ed2127;}</style></defs><title>telkomsel</title><polygon points="42.06 12.77 41.67 15.06 44.81 15.06 43 25.75 45.17 25.75 46.98 15.06 50.12 15.06 50.51 12.77 42.06 12.77 42.06 12.77"/><polygon points="51.06 12.77 48.85 25.75 56.74 25.75 57.13 23.45 51.37 23.45 51.94 20.09 57 20.09 57.39 17.8 52.33 17.8 52.79 15.06 58.3 15.06 58.7 12.77 51.06 12.77 51.06 12.77"/><polygon points="59.96 12.77 57.76 25.75 65.09 25.75 65.49 23.4 60.33 23.4 62.13 12.77 59.96 12.77 59.96 12.77"/><polygon points="68.22 12.77 66.02 25.75 68.18 25.75 68.93 21.36 70.16 20.05 72.41 25.75 75.2 25.75 72.02 18.08 77.16 12.77 74.35 12.77 69.49 18.05 70.39 12.77 68.22 12.77 68.22 12.77"/><path class="cls-1" d="M82.34,12.42c-2.28,0-5.27,1.63-6.15,6.84S77.64,26.1,80,26.1s5.27-1.61,6.16-6.86-1.58-6.82-3.84-6.82Zm-.4,2.3c1.79,0,2.53,1.77,2.07,4.52-.51,3-1.92,4.56-3.6,4.56s-2.52-1.77-2-4.54c.51-3,2-4.54,3.58-4.54Z"/><polygon points="88.15 12.77 85.95 25.75 87.97 25.75 89.81 14.92 89.84 14.92 89.9 25.75 92.02 25.75 95.8 14.9 95.84 14.88 93.99 25.75 96.02 25.75 98.22 12.77 95.08 12.77 91.49 23 91.46 23 91.32 12.77 88.15 12.77 88.15 12.77"/><path d="M103.22,12.42a4.53,4.53,0,0,0-4.68,4c-.48,2.82,1,3.4,2.66,3.79l1.07.33c1,.33,1.76.6,1.59,1.63a2.18,2.18,0,0,1-2.44,1.66c-1.2,0-2.06-.54-1.86-2.1H97.48c-.47,2.77.93,4.35,3.66,4.35A4.74,4.74,0,0,0,106,21.85c.43-2.54-1-3.13-2.2-3.51l-2.33-.76a1.05,1.05,0,0,1-.86-1.38,1.93,1.93,0,0,1,2.07-1.53,1.58,1.58,0,0,1,1.79,2h2.09c.25-1.59-.16-4.2-3.34-4.2Z"/><polygon points="108.44 12.77 106.24 25.75 114.13 25.75 114.52 23.45 108.76 23.45 109.33 20.09 114.39 20.09 114.78 17.8 109.72 17.8 110.18 15.06 115.69 15.06 116.08 12.77 108.44 12.77 108.44 12.77"/><polygon points="117.35 12.77 115.15 25.75 122.48 25.75 122.88 23.4 117.72 23.4 119.52 12.77 117.35 12.77 117.35 12.77"/><polygon class="cls-2" points="8.52 17.73 12.92 7.39 24.09 6.03 30.87 14.99 26.47 25.33 15.29 26.7 8.52 17.73 8.52 17.73"/><path class="cls-2" d="M11.25,21.35c.07-1,.19-2.11.35-3.2a39.65,39.65,0,0,1,3.14-11l5.15-.63a30.63,30.63,0,0,0-4.1,10.86,32.54,32.54,0,0,0-.5,9.29l-4-5.34Z"/><path class="cls-2" d="M30.68,15.42A38.89,38.89,0,0,0,19.48,15,40.34,40.34,0,0,0,8.6,17.84l-.08-.11L11,11.83a43.18,43.18,0,0,1,8.18-1.66A45.79,45.79,0,0,1,27.1,10l3.77,5-.19.43Z"/><polygon class="cls-3" points="28.96 26.32 18.17 27.65 11.63 18.99 15.88 9.01 26.67 7.69 33.21 16.35 28.96 26.32 28.96 26.32"/><path class="cls-4" d="M27.21,26.87c-2.29,7.32-6.07,12.07-9.76,11.62C13,37.94,10,28.84,11.6,18.16S17.88-.3,22.6,0c3.09.2,5.5,4.38,6.18,10-.86-3.18-2.15-6.49-4.35-6.78-3-.4-7,5.72-8.64,14.16-1.52,7.84-.31,15.65,3.24,16.11,2.29.3,6.2-2.09,8.18-6.64Z"/><path class="cls-4" d="M29.24,26.19c4.13-1.86,8.32-4,7.92-6.61-.6-3.92-9.7-5.39-17.68-4.61-3.52.35-16.1,2.88-15.91,8.18.06,1.55,4.19,3.58,7.65,4.58C5.84,27.13.41,24.46,0,21.24c-.58-4.87,8-9.87,19.18-11.07S40,11.88,40.65,16.74c.5,3.66-4.26,7.18-11.41,9.45Z"/><polygon class="cls-5" points="26.25 25.04 15.44 26.36 8.88 17.68 13.14 7.68 23.95 6.36 30.5 15.04 26.25 25.04 26.25 25.04"/><path class="cls-2" d="M11.29,20.87c.07-.89.17-1.8.31-2.72a40.32,40.32,0,0,1,3-10.64l5.09-.62A31.18,31.18,0,0,0,15.79,17.4a32.94,32.94,0,0,0-.56,8.69l-3.94-5.22Z"/><path class="cls-2" d="M30.37,15.36A39.48,39.48,0,0,0,19.48,15,40.38,40.38,0,0,0,8.9,17.71l0,0,2.54-6a43.33,43.33,0,0,1,7.79-1.54A45.2,45.2,0,0,1,26.69,10L30.5,15l-.13.32Z"/></svg>