<svg id="Layer_1" data-name="Layer 1" xmlns="http://www.w3.org/2000/svg" viewBox="0 0 122.88 122.88"><defs><style>.cls-1{fill-rule:evenodd;}.cls-2{fill:#fff;}</style></defs><title>ten-number-round</title><path class="cls-1" d="M61.44,0A61.46,61.46,0,1,1,18,18,61.21,61.21,0,0,1,61.44,0Z"/><path class="cls-2" d="M48.68,38.9V84.59H36.28V50.33H36l-10,6V45.78L37.26,38.9Zm28,46.94A19.77,19.77,0,0,1,66,83a18.51,18.51,0,0,1-7-8.23,30.8,30.8,0,0,1-2.43-12.89A30.56,30.56,0,0,1,59,49a17.8,17.8,0,0,1,7-8A20.28,20.28,0,0,1,76.7,38.29,20.25,20.25,0,0,1,87.45,41a17.85,17.85,0,0,1,7,8,29.6,29.6,0,0,1,2.43,12.78,30.88,30.88,0,0,1-2.45,12.93,18.41,18.41,0,0,1-7,8.23A19.7,19.7,0,0,1,76.7,85.84Zm0-10.08q3.21,0,5.27-3.35t2-10.57a26.36,26.36,0,0,0-.94-7.69,9.38,9.38,0,0,0-2.58-4.43,5.64,5.64,0,0,0-3.8-1.45,6,6,0,0,0-5.24,3.26q-2,3.27-2.08,10.31a27.32,27.32,0,0,0,.92,7.89,9.65,9.65,0,0,0,2.6,4.56,5.62,5.62,0,0,0,3.8,1.47Z"/></svg>