<?xml version="1.0" encoding="utf-8"?><svg version="1.1" id="Layer_1" xmlns="http://www.w3.org/2000/svg" xmlns:xlink="http://www.w3.org/1999/xlink" x="0px" y="0px" viewBox="0 0 122.88 116.41" style="enable-background:new 0 0 122.88 116.41" xml:space="preserve"><style type="text/css">.st0{fill:#393939;} .st1{fill:#38AE48;}</style><g><path class="st0" d="M72.31,7.31H32.67c-2.59,0-4.97,0.45-7.11,1.34c-2.14,0.9-4.13,2.24-5.92,4.03c-1.48,1.48-2.65,3.09-3.52,4.81 H8.23c0.18-0.57,0.39-1.13,0.61-1.68c1.24-3.03,3.13-5.82,5.62-8.31c2.49-2.49,5.27-4.38,8.31-5.62C25.81,0.64,29.09,0,32.62,0 h17.95l0.05,0.05l0,0h39.64c3.48,0,6.77,0.65,9.85,1.89c3.03,1.24,5.82,3.13,8.31,5.62c2.49,2.49,4.38,5.27,5.62,8.31 c1.06,2.59,1.69,5.36,1.85,8.31c-0.19,0-0.39-0.01-0.58-0.01c-1.98,0-3.88,0.28-5.7,0.85c-0.32,0.1-0.63,0.21-0.94,0.32 c-0.05-2.4-0.5-4.63-1.34-6.64c-0.9-2.14-2.24-4.13-4.03-5.92c-1.79-1.79-3.78-3.13-5.92-4.03c-2.14-0.9-4.53-1.34-7.11-1.34H72.31 V7.31L72.31,7.31L72.31,7.31z M14.27,62.4v2.01c0,2.59,0.45,4.97,1.34,7.11c0.9,2.14,2.24,4.13,4.03,5.92 c1.84,1.79,3.83,3.18,5.97,4.03c2.14,0.9,4.48,1.34,7.06,1.34h17.01c1.99,0,3.63,1.64,3.63,3.63c0,0.45-0.1,0.85-0.2,1.24 c-0.65,2.39-1.34,4.78-2.14,7.06c-0.85,2.44-1.74,4.73-2.74,6.96c-0.5,1.14-1.09,2.24-1.74,3.38c3.48-1.54,6.76-3.33,9.8-5.32 c3.18-2.09,6.17-4.43,8.9-6.96c2.79-2.59,5.27-5.42,7.56-8.46c0.7-0.94,1.79-1.44,2.88-1.44h14.62c2.59,0,4.92-0.45,7.06-1.34 c2.14-0.9,4.13-2.24,5.97-4.03c1.79-1.79,3.13-3.78,4.03-5.92c0.89-2.14,1.34-4.53,1.34-7.11v-0.46c1.38,0.27,2.81,0.41,4.29,0.41 c1,0,1.99-0.07,2.97-0.22v0.17c0,3.53-0.65,6.81-1.89,9.85c-1.24,3.03-3.13,5.82-5.62,8.31c-2.49,2.49-5.27,4.33-8.31,5.62 c-3.03,1.24-6.32,1.89-9.85,1.89H77.43c-2.24,2.83-4.67,5.52-7.26,7.96c-3.08,2.88-6.37,5.47-9.9,7.76 c-3.53,2.34-7.31,4.38-11.34,6.12c-3.98,1.74-8.26,3.18-12.73,4.38c-1.29,0.35-2.69-0.05-3.63-1.1c-1.34-1.49-1.19-3.78,0.3-5.12 c2.09-1.84,3.88-3.73,5.32-5.62c1.39-1.84,2.54-3.73,3.38-5.67v-0.05c0.95-2.09,1.79-4.23,2.54-6.37c0.25-0.75,0.5-1.54,0.75-2.34 H32.62c-3.48,0-6.76-0.65-9.85-1.89c-3.03-1.24-5.82-3.13-8.31-5.62c-2.49-2.49-4.38-5.27-5.62-8.31 c-1.24-3.08-1.89-6.36-1.89-9.85v-0.45h2.74V63.9C11.38,63.9,12.97,63.35,14.27,62.4L14.27,62.4z"/><path class="st1" d="M7.62,30.38H0l0.72-5.14h20.92l-0.72,5.14H13.3L9.69,56.17H4.01L7.62,30.38L7.62,30.38z M24.73,23.58h5.36 l-1.62,11.36c1.65-2.01,3.61-3.02,5.86-3.02c1.86,0,3.28,0.53,4.26,1.6c0.98,1.07,1.46,2.56,1.46,4.49c0,0.36-0.05,0.89-0.14,1.6 c-0.09,0.71-0.24,1.83-0.45,3.36l-1.8,13.21h-5.32c1.47-10.61,2.21-16.06,2.21-16.36c0-1.05-0.2-1.81-0.61-2.28 c-0.41-0.47-1.07-0.7-2.01-0.7c-1.08,0-2.03,0.45-2.84,1.35c-0.81,0.9-1.32,2.15-1.53,3.74l-1.98,14.24h-5.36L24.73,23.58 L24.73,23.58z M48.65,56.71c-2.04,0-3.62-0.71-4.73-2.12c-1.11-1.41-1.67-3.5-1.67-6.27c0-3.64,0.42-6.69,1.26-9.15 c0.84-2.46,1.95-4.29,3.31-5.48c1.37-1.19,2.83-1.78,4.39-1.78c2.4,0,4.06,1.13,4.96,3.38l0.9-2.84h4.19 c-0.3,1.86-0.84,5.35-1.62,10.46c-0.78,5.11-1.17,7.77-1.17,7.98c0,0.84,0.36,1.26,1.08,1.26h0.81l-0.54,3.83 c-0.81,0.48-1.7,0.72-2.66,0.72c-0.99,0-1.8-0.28-2.43-0.83c-0.63-0.56-1.07-1.33-1.31-2.32c-0.54,1.05-1.25,1.84-2.14,2.37 C50.4,56.45,49.52,56.71,48.65,56.71L48.65,56.71z M50.04,52.07c1.14,0,2.06-0.64,2.75-1.92c0.69-1.28,1.17-2.77,1.44-4.49 c0.27-1.71,0.41-3.29,0.41-4.73c0-1.47-0.18-2.57-0.54-3.29c-0.36-0.72-0.98-1.08-1.85-1.08c-1.14,0-2.06,0.68-2.75,2.03 c-0.69,1.35-1.18,2.89-1.46,4.62c-0.29,1.73-0.43,3.19-0.43,4.39C47.61,50.58,48.42,52.07,50.04,52.07L50.04,52.07z M65.62,32.46 H70v3.16c1.65-2.46,3.8-3.7,6.45-3.7c1.86,0,3.28,0.53,4.26,1.6c0.98,1.07,1.46,2.56,1.46,4.49c0,0.36-0.05,0.89-0.14,1.6 c-0.09,0.71-0.24,1.83-0.45,3.36l-1.8,13.21h-5.32l1.71-12.58c0.33-2.43,0.5-3.7,0.5-3.79c0-1.05-0.2-1.81-0.61-2.28 c-0.41-0.47-1.07-0.7-2.01-0.7c-1.08,0-2.04,0.45-2.86,1.35c-0.83,0.9-1.34,2.15-1.56,3.74L67.7,56.17h-5.36L65.62,32.46 L65.62,32.46z M88.91,23.58h5.36l-2.48,17.76l7.48-8.88h6.09l-8.29,9.74l5.32,13.97h-5.68l-3.43-9.69l-2.52,2.48l-0.99,7.21H84.4 L88.91,23.58L88.91,23.58z M112.96,56.71c-2.64,0-4.73-0.54-6.27-1.62c-1.53-1.08-2.3-2.58-2.3-4.51c0-0.42,0.04-0.85,0.11-1.28 c0.08-0.44,0.13-0.71,0.16-0.83h5.5c-0.03,0.09-0.07,0.25-0.11,0.47c-0.05,0.23-0.07,0.44-0.07,0.65c0,0.99,0.31,1.69,0.92,2.1 c0.62,0.41,1.42,0.61,2.41,0.61c0.75,0,1.43-0.2,2.03-0.61c0.6-0.41,0.9-1.01,0.9-1.83c0-0.9-0.31-1.59-0.92-2.05 c-0.62-0.47-1.59-0.97-2.91-1.51c-1.26-0.51-2.28-0.99-3.04-1.44c-0.77-0.45-1.43-1.13-1.98-2.03c-0.56-0.9-0.83-2.07-0.83-3.52 c0-2.34,0.83-4.16,2.5-5.45c1.67-1.29,3.75-1.94,6.24-1.94c2.7,0,4.64,0.7,5.81,2.1c1.17,1.4,1.76,3.19,1.76,5.39h-5.45 c0-0.99-0.18-1.75-0.54-2.28c-0.36-0.53-1.07-0.79-2.12-0.79c-0.72,0-1.34,0.22-1.85,0.65c-0.51,0.44-0.77,1-0.77,1.69 c0,0.84,0.32,1.48,0.95,1.92c0.63,0.44,1.59,0.88,2.89,1.33c1.23,0.45,2.25,0.9,3.07,1.35c0.81,0.45,1.5,1.12,2.07,2.01 c0.57,0.89,0.86,2.04,0.86,3.45c0,2.7-0.86,4.71-2.57,6.02C117.7,56.06,115.55,56.71,112.96,56.71L112.96,56.71z"/></g></svg>