<svg xmlns="http://www.w3.org/2000/svg" shape-rendering="geometricPrecision" text-rendering="geometricPrecision" image-rendering="optimizeQuality" fill-rule="evenodd" clip-rule="evenodd" viewBox="0 0 512 511.99"><path fill-rule="nonzero" d="m248.87 248.87 68.29-236.85c1.36-4.1 3.95-7.21 7.08-9.24l.04-.03C327 .98 330.19.05 333.38 0c3.27-.05 6.58.84 9.42 2.69 3.01 1.96 5.48 4.93 6.82 8.93L511.3 489.58c.93 3.49.9 6.84.1 9.86-.79 2.96-2.3 5.55-4.38 7.61a16.793 16.793 0 0 1-7.54 4.34c-3.02.8-6.38.83-9.86-.09-152.04-46.31-329.78-106.29-478.63-161.88-3.68-1.39-6.45-3.75-8.3-6.62-1.86-2.84-2.74-6.14-2.69-9.41.05-3.17.99-6.36 2.75-9.1 2.03-3.17 5.14-5.76 9.23-7.13l236.89-68.29zm84.76-223.25-67.42 233.86a9.793 9.793 0 0 1-6.74 6.73L25.62 333.64l465.46 157.44L333.63 25.62z"/></svg>