<svg xmlns="http://www.w3.org/2000/svg" shape-rendering="geometricPrecision" text-rendering="geometricPrecision" image-rendering="optimizeQuality" fill-rule="evenodd" clip-rule="evenodd" viewBox="0 0 507 511.73"><path fill-rule="nonzero" d="M253.5 384.3 26.77 509.55l-1.32.61c-3.78 1.64-7.64 1.92-11.17 1.16l-.04-.01c-3.35-.71-6.4-2.38-8.81-4.7l-.09-.1c-2.43-2.37-4.2-5.45-4.95-8.94-.8-3.73-.42-7.8 1.57-11.77C84.59 331.3 154.33 163.9 237.35 9.85c1.9-3.3 4.42-5.77 7.27-7.42 2.76-1.6 5.8-2.39 8.87-2.39V0c3.01 0 6.03.82 8.82 2.43h.04c2.85 1.65 5.39 4.13 7.3 7.42L505.03 485.8c1.99 3.97 2.38 8.04 1.58 11.77l-.16.66c-.83 3.25-2.54 6.11-4.84 8.34l-.04.04c-2.39 2.3-5.45 3.98-8.82 4.7-3.86.84-8.1.46-12.15-1.56L253.5 384.3zM24.31 487.27l224.21-123.85c3-1.64 6.74-1.76 9.96 0l224.21 123.85L253.5 23.77 24.31 487.27z"/></svg>