<svg xmlns="http://www.w3.org/2000/svg" shape-rendering="geometricPrecision" text-rendering="geometricPrecision" image-rendering="optimizeQuality" fill-rule="evenodd" clip-rule="evenodd" viewBox="0 0 507 511.73"><path fill-rule="nonzero" d="M248.52 148.31 24.31 24.46l229.19 463.5 229.19-463.5-224.21 123.85a10.36 10.36 0 0 1-9.96 0zM26.77 2.18 253.5 127.43 480.6 1.98c4.05-2.02 8.29-2.4 12.15-1.57 3.37.74 6.43 2.41 8.82 4.72l.04.03c2.29 2.23 4.01 5.09 4.84 8.34l.16.67c.8 3.72.41 7.79-1.57 11.77L269.65 501.88c-1.9 3.28-4.45 5.77-7.29 7.42h-.05c-2.79 1.61-5.81 2.43-8.82 2.43v-.04c-3.07 0-6.11-.79-8.87-2.39-2.85-1.65-5.37-4.13-7.27-7.42C155.22 346.65 84.66 180.55 1.96 25.94-.02 21.96-.41 17.89.39 14.17c.75-3.49 2.52-6.58 4.95-8.95l.09-.09c2.41-2.33 5.47-4 8.82-4.72 3.56-.76 7.43-.48 11.2 1.17l1.32.6z"/></svg>