<svg xmlns="http://www.w3.org/2000/svg" shape-rendering="geometricPrecision" text-rendering="geometricPrecision" image-rendering="optimizeQuality" fill-rule="evenodd" clip-rule="evenodd" viewBox="0 0 512 511.99"><path fill-rule="nonzero" d="m263.13 263.12-68.29 236.85c-1.36 4.1-3.94 7.21-7.08 9.24l-.04.03c-2.72 1.77-5.91 2.7-9.1 2.75-3.26.05-6.57-.83-9.42-2.68-3.01-1.96-5.48-4.94-6.82-8.94L.7 22.41c-.93-3.48-.9-6.84-.1-9.85.79-2.97 2.3-5.55 4.38-7.62C7.04 2.88 9.62 1.38 12.52.61c3.02-.81 6.38-.84 9.86.08 150.61 45.88 331.79 106.16 478.63 161.89 3.68 1.38 6.45 3.75 8.3 6.61 1.86 2.85 2.74 6.15 2.69 9.41-.05 3.17-.99 6.36-2.75 9.1-2.03 3.17-5.14 5.76-9.23 7.13l-236.89 68.29zm-84.76 223.25 67.42-233.85c.9-3.15 3.36-5.77 6.74-6.74l233.85-67.42L20.92 20.91l157.45 465.46z"/></svg>