<svg id="Layer_1" data-name="Layer 1" xmlns="http://www.w3.org/2000/svg" viewBox="0 0 96.06 122.88"><title>three-mobile</title><path d="M5.66,29.57c-.56-.34-.92-.69-.92-1.23,0-1.48,1.4-3.83,4-6.42C16.5,14.13,34.48,4.16,53.11,4.16c9.41,0,17.08,2.32,22.18,6.64a19.42,19.42,0,0,1,6.84,15c0,9.14-4.29,15.39-6.91,19.19-1.33,1.91-2.13,3-2.14,4.33A3.79,3.79,0,0,0,74.36,52a28.24,28.24,0,0,0,3.32,2.66C83.11,58.71,92,65.27,92,78.8c0,15.39-8.13,24.73-15,29.91a52.07,52.07,0,0,1-30.75,10c-27.84,0-42.16-15.43-42.16-30.55A19.09,19.09,0,0,1,8.88,75.62,17.09,17.09,0,0,1,22,69.8a18.8,18.8,0,0,1,10.16,2.82c3.12,2.1,5.46,5.5,5.47,11v.48a8.74,8.74,0,0,0-1.21-1.86,6.89,6.89,0,0,0-5.56-2.6A5.52,5.52,0,0,0,25.3,85a3.07,3.07,0,0,1-.14,1,.67.67,0,0,1-.06.12,3.12,3.12,0,0,1-2.29-1.5,7.68,7.68,0,0,1-1.2-4.42,11.66,11.66,0,0,1,.06-1.18l.09-.89-.59.67c-2.81,3.12-3.83,6-3.83,8.37,0,4,2.69,6.83,4.27,8.31.29.27.65.6.94.89l.34.39L23,97c0,.15-.32.52-1.06.83a10.55,10.55,0,0,1-3.9.6,15.78,15.78,0,0,1-2.1-.1l-.7-.07.45.54c5.32,6.33,11.19,8.07,16.27,8.06a34.76,34.76,0,0,0,9.5-1.6,14.28,14.28,0,0,1,2.79-.71c.27,0,.38.06.43.14a.92.92,0,0,1,.11.48,8.77,8.77,0,0,1-1.16,3.45,14.36,14.36,0,0,1-2.86,3.84l-.68.62.91-.12c15.52-2,20.71-11,23.26-15.63a21.08,21.08,0,0,1,1.19-2c.34-.53.69-.78.78-.75a1.21,1.21,0,0,1,.64.51c.76,1.13,1.4,4,1.4,6.92a18,18,0,0,1-.38,3.8l-.19.9.67-.63c5.86-5.43,7.48-11.13,7.48-15.88a27.73,27.73,0,0,0-1.6-8.74,11.36,11.36,0,0,1-.65-2.5,1.05,1.05,0,0,1,.15-.69.77.77,0,0,1,.44-.24c2.5,0,5.42.89,9,2.57l.69.33-.3-.7C78.72,69,68.07,64.17,57.69,61.54c-5.2-1.31-10.32-2.07-14.65-2.82a50.54,50.54,0,0,1-7.86-1.8l-1-.41c5.94-.75,13.09-4.93,19.44-9a54.6,54.6,0,0,0,5.72-4.32c.77-.64,1.49-1.24,2.1-1.66a3.09,3.09,0,0,1,1.34-.67.78.78,0,0,1,.59.3c.59.63.94,2.37.93,4.26a17.15,17.15,0,0,1-.58,4.45l-.2.73.64-.41c5-3.25,7.48-8.16,7.48-12.78s-2.56-7.48-4.22-9.35c-.25-.28-.55-.62-.78-.91a3.12,3.12,0,0,1-.39-.56,1.13,1.13,0,0,1,.46-.55,8.5,8.5,0,0,1,5-1.28,14.37,14.37,0,0,1,3.33.39l.83.18-.5-.64C71,19.11,66,17.51,61.56,17.51a28.68,28.68,0,0,0-9,1.74,16.56,16.56,0,0,1-3.33.83h-.18a7.31,7.31,0,0,1,1.71-3.64,17.83,17.83,0,0,1,5-4.37l.78-.48-.91-.06c-.4,0-.84,0-1.23,0C45.49,11.48,34,18,25.46,22.37,20.14,25.1,9,31.58,5.66,29.57Zm90.4,51V77.34c-.64-14.63-10.64-22-16-25.93h0a29.64,29.64,0,0,1-2.73-2.15c.29-.49.83-1.26,1.26-1.9,2.65-3.85,7.63-11.13,7.63-21.51A23.84,23.84,0,0,0,78.85,8.39C73.58,3.45,65.28,0,53.11,0,41.55,0,28.54,3.8,17.31,10.44a55.79,55.79,0,0,0-12.1,9.3c-2.9,3.1-4.58,6-4.59,8.61A4.53,4.53,0,0,0,2,31.58C3.66,33.2,6.55,34,10.3,34.35s8.26.39,13.13.39h.84a125.65,125.65,0,0,1,16.22.7,13,13,0,0,1,3.68,1c.76.4,1,.77,1,1.19a1.78,1.78,0,0,1-.66,1c-1.66,1.67-5.88,4.05-9.72,6.7a33.86,33.86,0,0,0-5.09,4.16c-1.36,1.45-2.29,2.87-2.29,4.42V54A5.86,5.86,0,0,0,30,58.6c4.66,3.57,14.33,4.51,19.38,5.44,3.11.56,4.77,1.66,5.66,2.88a6.11,6.11,0,0,1,1.05,3.71A14.28,14.28,0,0,1,51.6,81.44a14.14,14.14,0,0,1-10.16,3.89H40.9a20.85,20.85,0,0,0,.16-2.5,15.86,15.86,0,0,0-5.41-12.3c-3.4-2.94-8.19-4.61-13.74-4.61a21.1,21.1,0,0,0-16.09,7A23.2,23.2,0,0,0,0,88.18C0,96.83,4,105.51,11.77,112s19.33,10.85,34.47,10.85a56.41,56.41,0,0,0,33.24-10.8A40.28,40.28,0,0,0,96.06,80.59Zm-55,8.66a19.11,19.11,0,0,0,13.3-4.81,18.64,18.64,0,0,0,5.82-13.82A9.29,9.29,0,0,0,57.9,64.2c8,1.92,16.3,6,20.92,12.25a15.36,15.36,0,0,0-5-.83c-1.49,0-2.67,1.58-2.68,3.32a12,12,0,0,0,.78,3.33,24.53,24.53,0,0,1,1.52,7.85,18.77,18.77,0,0,1-3,10,11.56,11.56,0,0,0-1.93-6.71,2.78,2.78,0,0,0-3.85-.79,2.82,2.82,0,0,0-.76.74,17.47,17.47,0,0,0-1.77,2.81c-2.2,3.93-5.62,10.23-16.5,13.48a10.05,10.05,0,0,0,1.49-4.81,3.91,3.91,0,0,0-.26-1.48A2,2,0,0,0,45,102a18.94,18.94,0,0,0-4.15.88A32.19,32.19,0,0,1,32,104.44a17.83,17.83,0,0,1-11.09-3.83,6.84,6.84,0,0,0,3.4-1.41A3,3,0,0,0,25.46,97c0-1.27-1-2.14-2.15-3.18-1.66-1.56-3.63-3.4-3.63-6.5a9.23,9.23,0,0,1,.55-3,8.32,8.32,0,0,0,1.53,2.62,4.92,4.92,0,0,0,3.41,1.76,2.26,2.26,0,0,0,2.25-1.37A5.66,5.66,0,0,0,27.74,85a2.86,2.86,0,0,1,.92-2A3.18,3.18,0,0,1,30.8,82,4.9,4.9,0,0,1,35,84.54,10.42,10.42,0,0,1,36.41,90a8.45,8.45,0,0,1-.57,3.22l-.41,1,.83-.67a12.48,12.48,0,0,0,3.49-4.37,6.42,6.42,0,0,0,1.34.11ZM32.37,52.5a53.64,53.64,0,0,1,7.72-5.68,58.94,58.94,0,0,0,6.45-4.54c1.66-1.45,2.74-2.94,2.75-4.65a5,5,0,0,0-1.48-3.56c-1.77-1.74-4.9-2.55-8.79-3a128.5,128.5,0,0,0-13.45-.44H24.24c-4,0-7.2-.06-9.75-.16a121.24,121.24,0,0,0,12.1-6c7.24-3.87,15.26-8.17,22.81-10.08a10,10,0,0,0-2.86,6.16A2,2,0,0,0,47.05,22a2.33,2.33,0,0,0,1.73.66,16.66,16.66,0,0,0,4.6-1.08,26,26,0,0,1,8.09-1.66,14.81,14.81,0,0,1,8.46,2.69,8.63,8.63,0,0,0-4.69,1.51,3.16,3.16,0,0,0-1.38,2.49c0,1.12.78,1.95,1.76,3.06,1.55,1.74,3.59,4.05,3.59,7.74a14,14,0,0,1-2.57,7.76v-.48a8.46,8.46,0,0,0-1.45-5.19,3.11,3.11,0,0,0-2.38-1.1c-1.58,0-3,1.23-5,2.9a51.53,51.53,0,0,1-5.5,4.16c-9.53,6-14.64,8.32-18.26,8.58-1.34.14-3.32.12-1.7-1.52Z"/></svg>