<svg id="Layer_1" data-name="Layer 1" xmlns="http://www.w3.org/2000/svg" viewBox="0 0 122.87 122.88"><title>thursday</title><path d="M81.6,4.73C81.6,2.12,84.18,0,87.37,0s5.77,2.12,5.77,4.73V25.45c0,2.61-2.58,4.73-5.77,4.73s-5.77-2.12-5.77-4.73V4.73ZM44.48,75.93H38.06V96.49H29.22V75.93H22.81V68.85H44.48v7.08ZM63.05,96.49V86.72H56.42v9.77H47.57V68.85h8.85v9.78h6.63V68.85H71.9V96.49ZM85.16,68.85V89.59H88.3a4.41,4.41,0,0,0,2.3-.42c.42-.28.62-.92.62-1.92V68.85h8.85V84.38a30.57,30.57,0,0,1-.49,6.05,9,9,0,0,1-1.81,3.9,6.94,6.94,0,0,1-3.63,2.21,23.69,23.69,0,0,1-6,.62,23.47,23.47,0,0,1-6-.62,6.85,6.85,0,0,1-3.6-2.21,8.87,8.87,0,0,1-1.82-3.9,30.68,30.68,0,0,1-.48-6.05V68.85ZM29.61,4.73C29.61,2.12,32.19,0,35.38,0s5.77,2.12,5.77,4.73V25.45c0,2.61-2.58,4.73-5.77,4.73s-5.77-2.12-5.77-4.73V4.73ZM6.4,38.76H116.46V21.47a3,3,0,0,0-.86-2.07,2.92,2.92,0,0,0-2.07-.86H103a3.2,3.2,0,1,1,0-6.4h10.55a9.36,9.36,0,0,1,9.33,9.33v92.08a9.36,9.36,0,0,1-9.33,9.33H9.33A9.36,9.36,0,0,1,0,113.54V21.47a9.36,9.36,0,0,1,9.33-9.33H20.6a3.2,3.2,0,1,1,0,6.4H9.33a3,3,0,0,0-2.07.86,2.92,2.92,0,0,0-.86,2.07V38.76Zm110.07,6.41H6.4v68.37a3,3,0,0,0,.86,2.07,2.92,2.92,0,0,0,2.07.86H113.54a3,3,0,0,0,2.07-.86,2.92,2.92,0,0,0,.86-2.07V45.17Zm-66-26.63a3.2,3.2,0,0,1,0-6.4H71.91a3.2,3.2,0,1,1,0,6.4Z"/></svg>