<svg id="Layer_1" data-name="Layer 1" xmlns="http://www.w3.org/2000/svg" viewBox="0 0 122.38 122.88"><title>timezone</title><path d="M86.12,49.57l-.35-2-10.09-3.4c.24.39.48.77.73,1.14A18.15,18.15,0,0,1,79.24,51l0,.18A43.34,43.34,0,0,0,49.51,98.38a2,2,0,0,1-.79-1.59,14.45,14.45,0,0,0-.32-2.9,24,24,0,0,0-1-3.41,33.38,33.38,0,0,1-1.2-3.71,12.93,12.93,0,0,1-.43-3.06,10,10,0,0,1,.19-2.07,5.42,5.42,0,0,1,.76-1.86,1.55,1.55,0,0,0,.13-.46,9.64,9.64,0,0,0,.1-1.61,5.43,5.43,0,0,0-.26-1.64,10.65,10.65,0,0,0-.91-2c-.51-.89-.9-1.62-1.16-2.16A4.8,4.8,0,0,1,44,70c0-3.3-1.13-4-2.7-4a24,24,0,0,0-3.1.29,30.92,30.92,0,0,1-4.2.38,4.57,4.57,0,0,1-3.12-1.44,14.94,14.94,0,0,1-2.35-3.06c-.73-1.21-1.29-2.19-1.66-2.92a5.79,5.79,0,0,1-.78-2.31V55.37c-.05-5.59-.1-10.88,5.29-14.78,2.24-3.18,4.25-5.24,6.68-6.56s5.33-1.84,9.12-1.84a2,2,0,0,1,2,2v2.85l2.42,1.06,0-.16a2,2,0,0,1,2.39-1.55h0a16.6,16.6,0,0,1,2,.57,8.71,8.71,0,0,1,1.73.84,3.65,3.65,0,0,0,1.26.4,5.13,5.13,0,0,0,1.83,0,1.47,1.47,0,0,0,.59-.2h0V38c.05-.3.09-.6.13-.91l-2.39.22a2,2,0,0,1-2-1.15h0c-.79-1.66-2.45-2.51-4.55-3.58-10.6-5.41-20.43-1.22-21.24-3.48-.45-1.26.2-2.27,1.08-3.63s1.91-3,1.91-4.6a2,2,0,0,1,1.35-1.9l8.1-3.7c-.87-.16-2-.35-2.85-4.71a2,2,0,0,1,1-2.18S44.18,7.08,44.34,7c.86-.58,1.9-1.34,3.1-2.26l.08,0A49.52,49.52,0,0,0,35.63,8.05h0a54.41,54.41,0,0,0-8.86,4.79,49.32,49.32,0,0,0-7.62,6.28h0a49.65,49.65,0,0,0-6.27,7.61,54.2,54.2,0,0,0-4.8,8.87L8,35.71a49.69,49.69,0,0,0-3,9.65A54.2,54.2,0,0,0,5,66.19c0,.18.08.36.11.54l9.33,4.46a2,2,0,0,1,1.14,1.74h0a16.5,16.5,0,0,1-1.34,6.66,16.35,16.35,0,0,0-1.19,4.85A2.05,2.05,0,0,1,13,85a50.63,50.63,0,0,0,6.14,7.42h0a50.32,50.32,0,0,0,7.62,6.27,54.45,54.45,0,0,0,8.86,4.8l.1,0a49.39,49.39,0,0,0,9.64,3,53.67,53.67,0,0,0,6.39.86,42.28,42.28,0,0,0,1.78,4.14,57.42,57.42,0,0,1-9-1.05,53.34,53.34,0,0,1-10.43-3.23l-.11,0A58.77,58.77,0,0,1,24.52,102a54.48,54.48,0,0,1-8.23-6.77h0A53.91,53.91,0,0,1,9.52,87a58.42,58.42,0,0,1-5.16-9.51h0A52.93,52.93,0,0,1,1.09,67a58.09,58.09,0,0,1,0-22.4A52.47,52.47,0,0,1,4.32,34.14a.49.49,0,0,1,0-.11,58.77,58.77,0,0,1,5.16-9.51,54.48,54.48,0,0,1,6.77-8.23h0a53.91,53.91,0,0,1,8.22-6.77A58,58,0,0,1,34,4.36h0A54.67,54.67,0,0,1,55.77,0,56.57,56.57,0,0,1,67,1.09,53.41,53.41,0,0,1,77.41,4.31l.11.05A59.19,59.19,0,0,1,87,9.52a54.4,54.4,0,0,1,8.22,6.77h0A53.91,53.91,0,0,1,102,24.52,58.77,58.77,0,0,1,107.19,34h0a53,53,0,0,1,3.27,10.53,57.55,57.55,0,0,1,1.05,9,43.35,43.35,0,0,0-25.39-4Zm1.33,31.3a2.74,2.74,0,1,1,5.47,0v13.6l9.24,4.06a2.74,2.74,0,0,1-2.2,5L89.23,98.82a2.74,2.74,0,0,1-1.78-2.57V80.87Zm25.88-10.62a2.5,2.5,0,0,1,.15.75,2.47,2.47,0,0,1-1.71,2.77l-6.6,2a2.47,2.47,0,0,1-1.5-4.7,24.53,24.53,0,1,0-19.83,44.78l.22.07c.64.23,1.29.43,1.94.61a1.71,1.71,0,0,1,.27.09,24.5,24.5,0,0,0,6.15.78,2.72,2.72,0,0,1,1.74.62l.28-.27a2.85,2.85,0,0,1,1.34-.57,29.12,29.12,0,0,0,5-1.19,2.74,2.74,0,0,1,1.59,5.23,31.12,31.12,0,0,1-5.85,1.39,2.8,2.8,0,0,1-2.11-.6,2.72,2.72,0,0,1-2,.86,30,30,0,1,1,14.15-56.43l-.33-.88a2.48,2.48,0,0,1,4.63-1.76l2.46,6.44Zm4.29,6.38a2.74,2.74,0,0,0-4.61,3h0A25.21,25.21,0,0,1,115.26,84a2.74,2.74,0,0,0,5.09-2,29.22,29.22,0,0,0-2.73-5.34ZM109,111.07a2.74,2.74,0,0,0,3.58,4.14,29,29,0,0,0,4.12-4.59,2.74,2.74,0,0,0-4.42-3.23,23.91,23.91,0,0,1-3.28,3.68Zm7.3-12.56a2.74,2.74,0,0,0,5,2,2.65,2.65,0,0,0,.31-.78,31.27,31.27,0,0,0,.77-5.94,2.74,2.74,0,0,0-5.47-.17,25.4,25.4,0,0,1-.64,4.9Z"/></svg>