<?xml version="1.0" encoding="utf-8"?><svg version="1.1" id="Layer_1" xmlns="http://www.w3.org/2000/svg" xmlns:xlink="http://www.w3.org/1999/xlink" x="0px" y="0px" viewBox="0 0 122.88 103.91" style="enable-background:new 0 0 122.88 103.91" xml:space="preserve"><style type="text/css">.st0{fill-rule:evenodd;clip-rule:evenodd;}</style><g><path class="st0" d="M49.74,0h23.39c7.28,0,13.23,5.95,13.23,13.23v7.06h-8.43V13.2c0-2.55-2.09-4.63-4.63-4.63H49.58 c-2.55,0-4.63,2.09-4.63,4.63v7.09h-8.43v-7.06C36.51,5.95,42.47,0,49.74,0L49.74,0z M11.75,22.79h3.87v81.12h-3.87 C5.29,103.91,0,98.62,0,92.15V34.54C0,28.08,5.29,22.79,11.75,22.79L11.75,22.79z M62.9,48.12c-1.14-0.44-2.31-0.68-3.52-0.68 c-1.82,0-3.32,0.58-4.49,1.74L44.76,59.3l1.06,1.06l-3.85,3.87l-6.47-6.48l3.85-3.85l1.19,1.17l10.07-10.07 c1.39-1.38,2.87-2.06,4.46-2.06C57.74,42.95,60.35,44.67,62.9,48.12L62.9,48.12L62.9,48.12z M74.01,62.82l-5.06,5.06l11.47,10.94 l-4.91,4.92c-4.32-4.09-7.12-7.03-11.29-11.13L53.88,82.95c-1.82-1.82-2.85-2.85-4.67-4.67l9.81-9.81L48.63,57.6l4.66-4.66 c3.8,3.1,7.59,6.81,11.02,10.24L69.49,58c-0.41-1.06-1.02-2.6-1.02-3.8c0-6.8,6.37-10.97,12.55-8.81 c-10.16,5.82,0.8,14.94,6.06,6.56c1.53,5.9-2.83,11.92-9.2,11.93C76.65,63.87,75.09,63.24,74.01,62.82L74.01,62.82z M20.75,22.79 h4.33h0.42h70.34h0.42h5.88v81.12h-5.88h-0.42H25.49h-0.42h-4.33V22.79L20.75,22.79z M107.26,22.79h3.87 c6.46,0,11.75,5.29,11.75,11.75v57.61c0,6.46-5.29,11.75-11.75,11.75h-3.87V22.79L107.26,22.79z"/></g></svg>