<?xml version="1.0" encoding="utf-8"?><svg version="1.1" id="Layer_1" xmlns="http://www.w3.org/2000/svg" xmlns:xlink="http://www.w3.org/1999/xlink" x="0px" y="0px" viewBox="0 0 122.14 122.88" style="enable-background:new 0 0 122.14 122.88" xml:space="preserve"><g><path d="M48.5,78.96l8.81,14.56l-3.72,2.24L44.78,81.2L48.5,78.96L48.5,78.96z M35.45,78.06c1.76,2.74,3.33,5.1,4.68,7.14 c8.16,12.27,9.01,13.55,9.06,33.33h19.09c0.49-19.65,2.42-24.13,8.82-38.99c0.8-1.86,1.67-3.88,2.57-6 c-0.49-0.37-0.97-0.77-1.46-1.19c-0.95,0.98-1.9,1.87-2.85,2.65c-4.4,3.64-8.9,5.33-13.42,5.16C57.45,80,53.04,78,48.78,74.29 c-1.08-0.95-2.15-2-3.21-3.15C42.29,74.23,38.86,76.51,35.45,78.06L35.45,78.06z M31.29,79.6c-1.92,0.55-3.81,0.86-5.66,0.96 c-4.34,0.23-8.39-0.74-11.83-2.77c-3.44-2.03-6.25-5.13-8.09-9.12c-2.74-5.98-3.27-13.98-0.4-23.46c-4.4-6.5-5.88-13.01-5.12-18.91 c0.65-4.98,2.89-9.49,6.34-13.15c3.4-3.61,7.98-6.4,13.34-8.01C28.41,2.58,39,3.02,50.01,7.95c1.15-0.91,2.29-1.74,3.43-2.48 c6.58-4.31,13.39-6.24,20.21-5.18c6.76,1.05,13.4,5.04,19.66,12.56c1.28,1.54,2.54,3.21,3.76,5.01c7.43-0.18,13.65,1.73,18.02,4.92 c2.95,2.15,5.07,4.89,6.19,7.98c1.12,3.12,1.21,6.57,0.07,10.09c-1.5,4.68-5.17,9.49-11.44,13.81c-0.53,5.73-2.01,10.66-4.2,14.49 c-2.08,3.62-4.81,6.29-8.01,7.76c-3.27,1.51-6.97,1.75-10.9,0.49c-1.12-0.36-2.26-0.84-3.42-1.46c-0.84,1.98-1.59,3.71-2.27,5.31 c-6.37,14.8-8.14,18.9-8.53,39.48l-0.04,2.14H70.4H47.02h-2.17v-2.17c0-20.59-0.56-21.43-8.33-33.11 C35.06,85.4,33.35,82.83,31.29,79.6L31.29,79.6z M63.76,95.79v11.5v2.17h-2.17h-3.45v-4.34h1.27v-9.32H63.76L63.76,95.79z"/></g></svg>