<svg xmlns="http://www.w3.org/2000/svg" shape-rendering="geometricPrecision" text-rendering="geometricPrecision" image-rendering="optimizeQuality" fill-rule="evenodd" clip-rule="evenodd" viewBox="0 0 512 438.22"><path d="M309.22 235.44c46.38-46.39 121.59-46.39 167.98 0 46.4 46.39 46.4 121.6 0 167.99-46.39 46.38-121.6 46.38-167.98 0-46.4-46.39-46.4-121.6 0-167.99zM109.95 390.19l70.24-67.37c2.64-2.54 6.04-3.8 9.44-3.8l53.68-.01v.42c0 8.99.8 17.99 2.4 26.87h-50.65l-88.6 84.98c-2.5 2.79-6.14 4.55-10.17 4.55-7.54 0-13.66-6.13-13.66-13.67V346.3h-47.1c-9.78 0-18.66-4.02-25.08-10.44C4.01 329.35 0 320.45 0 310.77V35.53c0-9.68 4.06-18.6 10.49-25.04C16.93 4.06 25.85 0 35.53 0h341.85c9.66 0 18.57 4.03 25.03 10.47 6.46 6.47 10.5 15.32 10.5 25.06v135.3c-6.54-.87-13.12-1.3-19.7-1.3-2.54 0-5.08.07-7.62.2V35.53c0-2.22-.95-4.28-2.42-5.76-1.51-1.5-3.58-2.45-5.79-2.45H35.53c-2.15 0-4.2.98-5.72 2.49-1.51 1.52-2.49 3.57-2.49 5.72v275.24c0 2.23.94 4.3 2.43 5.8 1.52 1.47 3.57 2.4 5.78 2.4h60.76c7.54 0 13.66 6.13 13.66 13.67v57.55zM271.41 97.4l19.81 19.83c.96.96 1.43 2.22 1.43 3.46l-.02.22c-.06 1.16-.53 2.33-1.38 3.2L182.92 232.46c-.53.52-1.14.9-1.79 1.14l-.06.02-.06.02-.16.05-.06.02c-.49.16-.98.25-1.49.25-1.24 0-2.53-.45-3.46-1.39l-55.16-55.17a4.988 4.988 0 0 1-1.42-3.48l.02-.21c.05-1.17.51-2.36 1.42-3.25l19.89-19.89c.96-.94 2.21-1.41 3.44-1.42 1.26-.01 2.52.46 3.46 1.4l31.83 31.84L264.4 97.3a4.92 4.92 0 0 1 3.46-1.44 4.9 4.9 0 0 1 3.46 1.43l.09.11zm141.41 164.62c7.51 7.54 4.75 19.21-3.1 25.61-7.6 6.14-21.33 9.08-29.15 1.87-7.88-7.34-4.75-19.18 2.81-25.63 7.3-6.14 21.74-9.54 29.44-1.85zm-44.6 101.42h6.45v-44.33h-12.2c0-16.62 30.52-5.84 53-11.52v55.85h8.48v17.84h-55.73v-17.84z"/></svg>