<svg xmlns="http://www.w3.org/2000/svg" viewBox="0 0 122.88 63.89"><path d="M0 0h122.88v63.89H0V0zm59.58 20.68v2.95l6.34-2.03c.41-.11.37-.11.37.29v2.69c0 .26.04.29-.18.37l-6.49 2.06v1.55l6.71-2.14v3.39l-6.71 2.14v7.96c4.06.04 7.56-3.02 8.07-7.48.07-.66-.11-.7.59-.7h2.18c1.22 0 1.07.81 1.03 1.88-.18 3.87-3.65 8.11-8.63 9.59-2.03.59-4.17.52-6.27.52-1.11 0-1.07-.04-1.07-1.18v-9.29l-3.32 1.11c-.7.22-.7.41-.7-.37v-2.21c0-.52-.07-.52.41-.7l3.61-1.18v-1.55l-3.61 1.22c-.52.15-.41.15-.41-.37v-2.51c0-.48 0-.41.44-.55l3.58-1.18v-4.28c0-.29-.04-.29.26-.29h3.58c.37 0 .29.04.29.41l-.07-.12zm1.88-7.52c10.4 0 18.8 8.41 18.8 18.8 0 10.4-8.41 18.8-18.8 18.8-10.4 0-18.8-8.41-18.8-18.8s8.4-18.8 18.8-18.8zM20.54 9.73h81.7c0 5.2 4.24 9.44 9.44 9.44v25.25c-5.2 0-9.44 4.24-9.44 9.44h-81.7c0-5.2-4.24-9.44-9.44-9.44V19.17c5.2 0 9.44-4.24 9.44-9.44z" fill-rule="evenodd" clip-rule="evenodd"/></svg>