<?xml version="1.0" encoding="utf-8"?><svg version="1.1" id="Layer_1" xmlns="http://www.w3.org/2000/svg" xmlns:xlink="http://www.w3.org/1999/xlink" x="0px" y="0px" viewBox="0 0 122.88 122.88" style="enable-background:new 0 0 122.88 122.88" xml:space="preserve"><style type="text/css"><![CDATA[
	.st0{fill-rule:evenodd;clip-rule:evenodd;}
]]></style><g><path class="st0" d="M61.44,0c16.96,0,32.33,6.88,43.44,18c11.12,11.12,18,26.48,18,43.44c0,16.97-6.88,32.33-18,43.45 c-11.12,11.12-26.48,18-43.44,18S29.11,116,18,104.88C6.88,93.77,0,78.41,0,61.44C0,44.48,6.88,29.11,18,18 C29.11,6.88,44.48,0,61.44,0L61.44,0z M40.89,67.85v-6.41l5.07-2.3V54.8l-5.07,2.3v-6.41l5.07-2.3V37.54h13.35v4.81l7.08-3.21v6.41 l-7.08,3.21v4.34l7.08-3.21v6.41l-7.08,3.21v14.76c2.07,0,3.79-0.33,5.2-1.01s2.53-1.61,3.37-2.83c0.85-1.2,1.46-2.64,1.82-4.3 c0.37-1.65,0.56-3.46,0.56-5.42h13.49c0,3.75-0.5,7.15-1.5,10.18s-2.52,5.62-4.54,7.76c-2.01,2.14-4.56,3.78-7.61,4.95 c-3.06,1.17-6.66,1.75-10.8,1.75H45.96v-19.8L40.89,67.85L40.89,67.85z M61.44,17.24c24.41,0,44.2,19.79,44.2,44.19 c0,24.41-19.79,44.2-44.2,44.2c-24.41,0-44.2-19.79-44.2-44.2C17.24,37.03,37.03,17.24,61.44,17.24L61.44,17.24z M61.44,8.74 c29.11,0,52.7,23.6,52.7,52.7c0,29.11-23.6,52.7-52.7,52.7c-29.11,0-52.7-23.59-52.7-52.7C8.74,32.33,32.33,8.74,61.44,8.74 L61.44,8.74z"/></g></svg>