<svg id="Layer_1" data-name="Layer 1" xmlns="http://www.w3.org/2000/svg" viewBox="0 0 122.87 122.88"><title>tuesday</title><path d="M81.6,4.73C81.6,2.12,84.18,0,87.37,0s5.77,2.12,5.77,4.73V25.45c0,2.61-2.58,4.73-5.77,4.73s-5.77-2.12-5.77-4.73V4.73ZM47.31,75.42H40.9V96H32.06V75.42H25.64V68.34H47.31v7.08Zm11.1-7.08V89.08h3.14a4.41,4.41,0,0,0,2.3-.42c.41-.28.62-.92.62-1.92V68.34h8.84V83.86a30.68,30.68,0,0,1-.49,6.06A8.76,8.76,0,0,1,71,93.81,6.84,6.84,0,0,1,67.38,96a23.69,23.69,0,0,1-6,.62A23.38,23.38,0,0,1,55.47,96a6.86,6.86,0,0,1-3.61-2.21,8.81,8.81,0,0,1-1.81-3.89,29.87,29.87,0,0,1-.49-6.06V68.34Zm36.35,17.2H85.91V88.9H96.75V96H77.07V68.34H96.53l-1.11,7.08H85.91v3.71h8.85v6.41ZM29.61,4.73C29.61,2.12,32.19,0,35.38,0s5.77,2.12,5.77,4.73V25.45c0,2.61-2.58,4.73-5.77,4.73s-5.77-2.12-5.77-4.73V4.73ZM6.4,38.76H116.46V21.47a3,3,0,0,0-.86-2.07,2.92,2.92,0,0,0-2.07-.86H103a3.2,3.2,0,1,1,0-6.4h10.55a9.36,9.36,0,0,1,9.33,9.33v92.08a9.36,9.36,0,0,1-9.33,9.33H9.33A9.36,9.36,0,0,1,0,113.54V21.47a9.36,9.36,0,0,1,9.33-9.33H20.6a3.2,3.2,0,1,1,0,6.4H9.33a3,3,0,0,0-2.07.86,2.92,2.92,0,0,0-.86,2.07V38.76Zm110.07,6.41H6.4v68.37a3,3,0,0,0,.86,2.07,2.92,2.92,0,0,0,2.07.86H113.54a3,3,0,0,0,2.07-.86,2.92,2.92,0,0,0,.86-2.07V45.17Zm-66-26.63a3.2,3.2,0,0,1,0-6.4H71.91a3.2,3.2,0,1,1,0,6.4Z"/></svg>