<svg xmlns="http://www.w3.org/2000/svg" width="64" height="64" shape-rendering="geometricPrecision" text-rendering="geometricPrecision" image-rendering="optimizeQuality" fill-rule="evenodd" clip-rule="evenodd" viewBox="0 0 640 640"><path d="M579.999 0H60C27 0 0 27 0 60v520c0 33 27 60 60 60h519.999c33 0 60-27 60-60V60c0-33-27-60-60-60zM457.364 515.357c-18.886 8.87-36 15.118-51.237 18.756-15.236 3.532-31.878 5.374-49.63 5.374-20.245 0-32.127-2.527-47.635-7.642-15.52-5.102-28.76-12.366-39.768-21.744-11.008-9.532-18.52-19.524-22.748-30.119-4.229-10.594-6.367-26.008-6.367-46.252V278.85l-60.024-.012v-62.516c17.362-5.646 37.524-13.76 49.76-24.237 12.367-10.524 22.36-23.114 29.765-37.89 7.512-14.752 12.638-33.485 15.531-56.233h62.753v102h102.25v78.888l-102.132-.012v113.234c0 25.642-.354 40.359 2.362 47.634 2.717 7.276 9.52 14.753 16.89 19.005 9.768 5.881 21 8.752 33.509 8.752 22.358 0 44.646-7.24 66.768-21.757v69.64l-.047.01z"/></svg>