<svg xmlns="http://www.w3.org/2000/svg" viewBox="0 0 333333 333333" shape-rendering="geometricPrecision" text-rendering="geometricPrecision" image-rendering="optimizeQuality" fill-rule="evenodd" clip-rule="evenodd"><path d="M166667 0c46023 0 87690 18655 117851 48816s48816 71828 48816 117851-18655 87690-48816 117851-71828 48816-117851 48816-87690-18655-117851-48816S0 212690 0 166667 18655 78977 48816 48816 120644 0 166667 0zm10411 156250v38126c0 9670-126 15245 899 17996 1021 2729 3567 5565 6345 7200 3692 2210 7901 3310 12651 3310 8439 0 13430-1113 21777-6596v25059c-7116 3344-13326 5304-19100 6661-5781 1343-12024 2019-18734 2019-7627 0-12117-957-17974-2874-5856-1926-10858-4689-14984-8231-4148-3578-7003-7357-8606-11372-1603-4011-2400-9836-2400-17460v-58470l-22368 3v-23611c6544-2126 13869-5179 18525-9135 4676-3985 8427-8744 11254-14316 2837-5566 4781-12652 5846-21248l26869-3v41678l41671 6 1 31263-41671-6h-1zm96217-96211c-27287-27287-64987-44165-106628-44165-41642 0-79341 16878-106628 44165s-44165 64987-44165 106628c0 41642 16878 79341 44165 106628s64987 44165 106628 44165c41642 0 79341-16878 106628-44165s44165-64987 44165-106628c0-41642-16878-79341-44165-106628z" fill="#35465c" fill-rule="nonzero"/></svg>