<svg xmlns="http://www.w3.org/2000/svg"  viewBox="0 0 333333 333333" shape-rendering="geometricPrecision" text-rendering="geometricPrecision" image-rendering="optimizeQuality" fill-rule="evenodd" clip-rule="evenodd"><path d="M187483 145837v76230c0 19335-252 30480 1797 35980 2041 5457 7130 11128 12685 14396 7382 4417 15797 6618 25295 6618 16874 0 26852-2226 43541-13189v50104c-14228 6687-26644 10606-38189 13319-11559 2683-24041 4035-37457 4035-15250 0-24226-1913-35939-5746-11707-3850-21709-9376-29959-16457-8293-7154-14002-14709-17207-22736-3205-8022-4799-19667-4799-34909V136576l-44722 6V89375c13085-4252 27730-10354 37039-18264 9350-7967 16848-17482 22502-28624 5671-11128 9559-25295 11689-42484l53722-6v83331l83317 12 2 62508-83317-12h-2z" fill="#35465c"/></svg>