<svg xmlns="http://www.w3.org/2000/svg" width="64" height="64" shape-rendering="geometricPrecision" text-rendering="geometricPrecision" image-rendering="optimizeQuality" fill-rule="evenodd" clip-rule="evenodd" viewBox="0 0 640 640"><path d="M359.969 280.007v146.364c0 37.123-.484 58.524 3.449 69.084 3.921 10.476 13.689 21.366 24.354 27.638 14.174 8.48 30.332 12.708 48.568 12.708 32.398 0 51.556-4.275 83.6-25.323v96.202c-27.32 12.839-51.155 20.363-73.324 25.572-22.193 5.15-46.158 7.748-71.918 7.748-29.28 0-46.513-3.674-69.001-11.032-22.477-7.394-41.682-18-57.52-31.595-15.922-13.736-26.883-28.24-33.036-43.654-6.154-15.402-9.213-37.76-9.213-67.028V262.23l-85.867.012v-90.638c25.122-8.162 53.244-19.879 71.115-35.068 17.953-15.295 32.35-33.567 43.205-54.957 10.89-21.367 18.355-48.568 22.441-81.568L359.97 0v159.994l159.97.024V280.03l-159.97-.024z"/></svg>