<svg id="Layer_1" data-name="Layer 1" xmlns="http://www.w3.org/2000/svg" viewBox="0 0 94.56 122.88"><defs><style>.cls-1{fill-rule:evenodd;}</style></defs><title>turkish-lira-money-bag</title><path class="cls-1" d="M38.14,21.15c-1.9-5.6-3.6-11.26-5-17,5.38-5.9,26.16-5.12,32.13-.1L59.69,17.21c3-3.91,4-5.52,5.75-7.69a17.45,17.45,0,0,1,2.11,1.63c1.57,1.43,3,3,3.26,5.2a5.38,5.38,0,0,1-1.49,4.34L56.63,35.48a27,27,0,0,1-4.78-1.22c.72-1.69,1.59-3.55,2.31-5.25l-4.62,5a17.34,17.34,0,0,0-12.3,1.5L24.37,20.05a4.3,4.3,0,0,1-1.11-2.76c0-3.73,5.58-7,8.5-8.18l6.38,12Zm16.5,27.91L52.12,37.57c10.76,2,28,23.89,33.58,33.84a94.1,94.1,0,0,1,7.38,16.93c4.06,15.14.15,29.31-16.28,32.6-10.29,2.07-29.48,2.22-40.3,1.66C24.87,122,6.86,122,2.16,110.07c-7.59-19.28,6.31-42.25,19-56.31a68.26,68.26,0,0,1,5.18-5.17c4.62-4.06,9.59-8.87,15.53-10.87L36.12,48.39l8.33-11h4.39l5.8,11.71ZM29.07,90.8V85.39l4.54-2.2V79.52l-4.54,2.21V76.32l4.54-2.2V65H44.88V69l6-2.7v5.4l-6,2.71v3.66l6-2.71v5.41l-6,2.71V96a10,10,0,0,0,4.38-.86,7.3,7.3,0,0,0,2.85-2.38,10.12,10.12,0,0,0,1.54-3.63,21.06,21.06,0,0,0,.46-4.57H65.49a27.49,27.49,0,0,1-1.26,8.59,17.32,17.32,0,0,1-3.83,6.55A17,17,0,0,1,54,103.82a25.35,25.35,0,0,1-9.1,1.48H33.61V88.59L29.07,90.8Z"/></svg>