<svg id="Layer_1" data-name="Layer 1" xmlns="http://www.w3.org/2000/svg" viewBox="0 0 122.88 122.88"><title>turkish-lira-try</title><path d="M30.27,0H92.61a30.35,30.35,0,0,1,30.27,30.27V92.61a30.35,30.35,0,0,1-30.27,30.27H30.27A30.35,30.35,0,0,1,0,92.61V30.27A30.35,30.35,0,0,1,30.27,0Zm5.21,70.53V61.91l6.14-2.8V54.72l-6.14,2.79V48.88l6.14-2.79v-14H57.8v6.69l8.57-3.88v8.63L57.8,47.4v4.39l8.57-3.88v8.63L57.8,60.42v17a14.41,14.41,0,0,0,6.3-1.22,10.3,10.3,0,0,0,4.08-3.43,14.09,14.09,0,0,0,2.21-5.2A29.9,29.9,0,0,0,71.07,61H87.4a39,39,0,0,1-1.82,12.33A23.73,23.73,0,0,1,70.86,88.74a36.44,36.44,0,0,1-13.07,2.12H41.62V67.74l-6.14,2.79ZM92.61,12.1H30.27A18.23,18.23,0,0,0,12.1,30.27V92.61a18.23,18.23,0,0,0,18.17,18.17H92.61a18.23,18.23,0,0,0,18.17-18.17V30.27A18.23,18.23,0,0,0,92.61,12.1Z"/></svg>