<svg id="Layer_1" data-name="Layer 1" xmlns="http://www.w3.org/2000/svg" viewBox="0 0 122.88 122.88"><defs><style>.cls-1{fill-rule:evenodd;}</style></defs><title>turkish-lira-sign</title><path class="cls-1" d="M61.44,0A61.44,61.44,0,1,1,0,61.44,61.44,61.44,0,0,1,61.44,0ZM68.1,48.92V58l-8.22,2V80.09A10.43,10.43,0,0,0,66.26,78a12.76,12.76,0,0,0,4.07-6.09,30.26,30.26,0,0,0,1.37-9.78H86.28A33.55,33.55,0,0,1,82.84,77.8,25.28,25.28,0,0,1,73.37,88,26.52,26.52,0,0,1,59.56,91.6c-3,0-5.71-.1-8-.27s-4.31-.39-5.94-.64V63.45L40,64.82V55.68l5.63-1.36v-4L40,51.66V42.5l5.63-1.38V30.71h14.3V37.6l8.22-2v9.24l-8.22,2v4.08l8.22-2ZM61.44,10.48a51,51,0,1,1-51,51,51,51,0,0,1,51-51Z"/></svg>