<svg id="Layer_1" data-name="Layer 1" xmlns="http://www.w3.org/2000/svg" viewBox="0 0 122.88 44.27"><defs><style>.cls-1{fill:#0d4ba0;}.cls-2{fill:#ffcb05;}.cls-3{fill:#fff;}</style></defs><title>turkcell</title><path class="cls-1" d="M61.74,20.93a1.57,1.57,0,0,1-1.06.35H58.74V18.81h1.94a1.53,1.53,0,0,1,1.06.35,1.09,1.09,0,0,1,.39.88,1.12,1.12,0,0,1-.39.89ZM64.1,22a3,3,0,0,0,.67-2,3.27,3.27,0,0,0-1-2.48,4.08,4.08,0,0,0-2.89-1H56.1V27.73h2.64V23.42h1.32l2.26,4.31h3.06L62.75,23a3.37,3.37,0,0,0,1.35-1Z"/><path class="cls-1" d="M52.06,23.76a1.7,1.7,0,0,1-.5,1.32,1.77,1.77,0,0,1-1.32.48,1.79,1.79,0,0,1-1.33-.48,1.77,1.77,0,0,1-.48-1.32V16.54H45.79v7.3a3.68,3.68,0,0,0,1.28,2.89,5.1,5.1,0,0,0,6.33,0,3.66,3.66,0,0,0,1.29-2.89v-7.3H52.06v7.22Z"/><polygon class="cls-1" points="36 18.81 39.02 18.81 39.02 27.73 41.67 27.73 41.67 18.81 44.69 18.81 44.69 16.54 36 16.54 36 18.81 36 18.81"/><polygon class="cls-1" points="75.98 16.54 72.71 16.54 68.91 20.92 68.91 16.54 66.27 16.54 66.27 27.73 68.91 27.73 68.91 24.37 70.18 22.95 73.08 27.73 76.17 27.73 71.95 21.05 75.98 16.54 75.98 16.54"/><polygon class="cls-1" points="106.8 25.46 106.8 16.54 104.15 16.54 104.15 27.73 111.78 27.73 111.78 25.46 106.8 25.46 106.8 25.46"/><polygon class="cls-1" points="98.41 16.54 95.77 16.54 95.77 27.73 103.16 27.73 103.16 25.46 98.41 25.46 98.41 16.54 98.41 16.54"/><path class="cls-1" d="M80.74,18.68a1.69,1.69,0,0,1,1.79,1.41l0,.14h2.7l0-.23a4.19,4.19,0,0,0-1.53-2.68,4.77,4.77,0,0,0-3-.93,5.08,5.08,0,0,0-1.32.17A4.69,4.69,0,0,0,75.89,20a7,7,0,0,0-.28,2.06A8.13,8.13,0,0,0,75.84,24a5.22,5.22,0,0,0,1.34,2.38,3.45,3.45,0,0,0,.26.28,5,5,0,0,0,6.21.34,4.16,4.16,0,0,0,1.57-2.7l0-.23h-2.7l0,.15a1.69,1.69,0,0,1-1.79,1.4,2.11,2.11,0,0,1-1.57-.53,2.76,2.76,0,0,1-.59-.85,5.27,5.27,0,0,1-.34-2.15,3.68,3.68,0,0,1,.94-2.85,2.14,2.14,0,0,1,1.56-.53Z"/><polygon class="cls-1" points="86.33 27.73 94.34 27.73 94.34 25.46 88.98 25.46 88.98 23.23 93.55 23.23 93.55 20.96 88.98 20.96 88.98 18.81 94.34 18.81 94.34 16.54 86.33 16.54 86.33 27.73 86.33 27.73"/><path class="cls-2" d="M31.47,16.17a10.87,10.87,0,0,0-7-5,11,11,0,0,0-7.13.71A10.84,10.84,0,0,0,14,14.28a11.19,11.19,0,0,0-2.62,4.23v0a1,1,0,0,0-.05.16c-.55,1.82,0,2.83.76,2l.1-.11,0,0a12.36,12.36,0,0,1,2.43-2.17h0c.38-.26.77-.51,1.18-.74A9.72,9.72,0,0,1,17.26,17a1.12,1.12,0,0,0,.54-.79v-.05a2.32,2.32,0,0,1,2.09-1.94,2.36,2.36,0,0,1,1.34.22h0a2.45,2.45,0,0,1,1.39,1.85,2.54,2.54,0,0,1-.4,1.77l-.07.08,0,0h0a2.41,2.41,0,0,1-1.12.8,2.65,2.65,0,0,1-.82.16h0a1.46,1.46,0,0,1-.54-.05,2,2,0,0,1-.57-.2,3.1,3.1,0,0,1-.61-.37.39.39,0,0,0-.21-.11.64.64,0,0,0-.38,0h0l-.12.07a13.05,13.05,0,0,0-1,.94,18.19,18.19,0,0,0-1.89,2.4q-.27.42-.51.87c-.14.27-.28.55-.41.84-.19.44-.38.92-.55,1.44l0,.07,0,.1,0,.09c-1,3.52.82,5.55,2.37,3.43l.26-.4h0a16.45,16.45,0,0,1,5-4.84h0l.62-.38h0l0,0a16,16,0,0,1,1.76-.88,9.54,9.54,0,0,1,1.58-.57,1.08,1.08,0,0,0,.71-.83h0a2.31,2.31,0,0,1,1.26-1.59,2.56,2.56,0,0,1,.58-.22,2.81,2.81,0,0,1,.64-.05h0a1.25,1.25,0,0,1,.35,0,2.45,2.45,0,0,1-.14,4.84,2.35,2.35,0,0,1-1.77-.45,1.4,1.4,0,0,0-1.17,0,12,12,0,0,0-1.44.91,14.93,14.93,0,0,0-1.8,1.56,14.27,14.27,0,0,0-1.57,1.95l-.07.12,0,0A14.22,14.22,0,0,0,19.1,30.7L19,31c-.44,1.48.51,2.07,1.6,2.28a8.69,8.69,0,0,0,2.1.08l.19,0c.31,0,.62-.07.93-.13a11.19,11.19,0,0,0,9.25-9.48,10.85,10.85,0,0,0-1.61-7.53Z"/><polygon class="cls-1" points="0 44.27 122.88 44.27 122.88 0 0 0 0 44.27 0 44.27"/><path class="cls-3" d="M61.74,20.93a1.57,1.57,0,0,1-1.06.35H58.74V18.81h1.94a1.53,1.53,0,0,1,1.06.35,1.09,1.09,0,0,1,.39.88,1.12,1.12,0,0,1-.39.89ZM64.1,22a3,3,0,0,0,.67-2,3.27,3.27,0,0,0-1-2.48,4.08,4.08,0,0,0-2.89-1H56.1V27.73h2.64V23.42h1.32l2.26,4.31h3.06L62.75,23a3.37,3.37,0,0,0,1.35-1Z"/><path class="cls-3" d="M52.06,23.76a1.7,1.7,0,0,1-.5,1.32,1.77,1.77,0,0,1-1.32.48,1.79,1.79,0,0,1-1.33-.48,1.77,1.77,0,0,1-.48-1.32V16.54H45.79v7.3a3.68,3.68,0,0,0,1.28,2.89,5.1,5.1,0,0,0,6.33,0,3.66,3.66,0,0,0,1.29-2.89v-7.3H52.06v7.22Z"/><polygon class="cls-3" points="36 18.81 39.02 18.81 39.02 27.73 41.67 27.73 41.67 18.81 44.69 18.81 44.69 16.54 36 16.54 36 18.81 36 18.81"/><polygon class="cls-3" points="75.98 16.54 72.71 16.54 68.91 20.92 68.91 16.54 66.27 16.54 66.27 27.73 68.91 27.73 68.91 24.37 70.18 22.95 73.08 27.73 76.17 27.73 71.95 21.05 75.98 16.54 75.98 16.54"/><polygon class="cls-3" points="106.8 25.46 106.8 16.54 104.15 16.54 104.15 27.73 111.78 27.73 111.78 25.46 106.8 25.46 106.8 25.46"/><polygon class="cls-3" points="98.41 16.54 95.77 16.54 95.77 27.73 103.16 27.73 103.16 25.46 98.41 25.46 98.41 16.54 98.41 16.54"/><path class="cls-3" d="M80.74,18.68a1.69,1.69,0,0,1,1.79,1.41l0,.14h2.7l0-.23a4.19,4.19,0,0,0-1.53-2.68,4.77,4.77,0,0,0-3-.93,5.08,5.08,0,0,0-1.32.17A4.69,4.69,0,0,0,75.89,20a7,7,0,0,0-.28,2.06A8.13,8.13,0,0,0,75.84,24a5.22,5.22,0,0,0,1.34,2.38,3.45,3.45,0,0,0,.26.28,5,5,0,0,0,6.21.34,4.16,4.16,0,0,0,1.57-2.7l0-.23h-2.7l0,.15a1.69,1.69,0,0,1-1.79,1.4,2.11,2.11,0,0,1-1.57-.53,2.76,2.76,0,0,1-.59-.85,5.27,5.27,0,0,1-.34-2.15,3.68,3.68,0,0,1,.94-2.85,2.14,2.14,0,0,1,1.56-.53Z"/><polygon class="cls-3" points="86.33 27.73 94.34 27.73 94.34 25.46 88.98 25.46 88.98 23.23 93.55 23.23 93.55 20.96 88.98 20.96 88.98 18.81 94.34 18.81 94.34 16.54 86.33 16.54 86.33 27.73 86.33 27.73"/><path class="cls-2" d="M31.47,16.17a10.87,10.87,0,0,0-7-5,11,11,0,0,0-7.13.71A10.84,10.84,0,0,0,14,14.28a11.19,11.19,0,0,0-2.62,4.23v0a1,1,0,0,0-.05.16c-.55,1.82,0,2.83.76,2l.1-.11,0,0a12.36,12.36,0,0,1,2.43-2.17h0c.38-.26.77-.51,1.18-.74A9.72,9.72,0,0,1,17.26,17a1.12,1.12,0,0,0,.54-.79v-.05a2.32,2.32,0,0,1,2.09-1.94,2.36,2.36,0,0,1,1.34.22h0a2.45,2.45,0,0,1,1.39,1.85,2.54,2.54,0,0,1-.4,1.77l-.07.08,0,0h0a2.41,2.41,0,0,1-1.12.8,2.65,2.65,0,0,1-.82.16h0a1.46,1.46,0,0,1-.54-.05,2,2,0,0,1-.57-.2,3.1,3.1,0,0,1-.61-.37.39.39,0,0,0-.21-.11.64.64,0,0,0-.38,0h0l-.12.07a13.05,13.05,0,0,0-1,.94,18.19,18.19,0,0,0-1.89,2.4q-.27.42-.51.87c-.14.27-.28.55-.41.84-.19.44-.38.92-.55,1.44l0,.07,0,.1,0,.09c-1,3.52.82,5.55,2.37,3.43l.26-.4h0a16.45,16.45,0,0,1,5-4.84h0l.62-.38h0l0,0a16,16,0,0,1,1.76-.88,9.54,9.54,0,0,1,1.58-.57,1.08,1.08,0,0,0,.71-.83h0a2.31,2.31,0,0,1,1.26-1.59,2.56,2.56,0,0,1,.58-.22,2.81,2.81,0,0,1,.64-.05h0a1.25,1.25,0,0,1,.35,0,2.45,2.45,0,0,1-.14,4.84,2.35,2.35,0,0,1-1.77-.45,1.4,1.4,0,0,0-1.17,0,12,12,0,0,0-1.44.91,14.93,14.93,0,0,0-1.8,1.56,14.27,14.27,0,0,0-1.57,1.95l-.07.12,0,0A14.22,14.22,0,0,0,19.1,30.7L19,31c-.44,1.48.51,2.07,1.6,2.28a8.69,8.69,0,0,0,2.1.08l.19,0c.31,0,.62-.07.93-.13a11.19,11.19,0,0,0,9.25-9.48,10.85,10.85,0,0,0-1.61-7.53Z"/></svg>