<svg id="Layer_1" data-name="Layer 1" xmlns="http://www.w3.org/2000/svg" viewBox="0 0 115.96 122.88"><title>turn-bottom-arrow</title><path d="M116,0H78.14C59.48,0,45.79,2.57,36,11.19,25.94,20,21.67,33.5,22.57,54.7h0V73.52H5.66c-2.24.11-3.84.87-4.77,2.27-2.35,3.52.44,7,2.69,9.53,6.51,7.3,25,31.36,28.54,35.44a5.58,5.58,0,0,0,8.76,0C44.26,116.79,62,93.55,68.77,86c2.39-2.66,5.89-6.43,3.35-10.25-.93-1.4-2.53-2.16-4.78-2.27H48.29V54.7l0-.55c-.6-13,.91-20.28,4.75-23.65,4.16-3.66,12.63-4.76,25.15-4.76H116V0Z"/></svg>