<svg id="Layer_1" data-name="Layer 1" xmlns="http://www.w3.org/2000/svg" viewBox="0 0 122.88 115.96"><title>turn-right-arrow</title><path d="M0,116V78.14C0,59.48,2.57,45.79,11.19,36,20,25.94,33.5,21.67,54.7,22.57v0H73.52V5.66c.11-2.24.87-3.84,2.27-4.77,3.52-2.35,7,.44,9.53,2.69,7.3,6.51,31.36,25,35.44,28.54a5.58,5.58,0,0,1,0,8.76C116.79,44.26,93.55,62,86,68.77c-2.66,2.39-6.43,5.89-10.25,3.35-1.4-.93-2.16-2.53-2.27-4.78V48.29H54.7l-.55,0c-13-.6-20.28.91-23.65,4.75-3.66,4.16-4.76,12.63-4.76,25.15V116Z"/></svg>