<svg id="Layer_1" data-name="Layer 1" xmlns="http://www.w3.org/2000/svg" viewBox="0 0 122.88 120.77"><defs><style>.cls-1{fill:#ef4136;}.cls-2{fill:#1a1a1a;}</style></defs><title>twelve-years</title><path class="cls-1" d="M23.45,84.2l1.68,6.73h.21l1.72-6.73h6.76L28.31,98.12v5.2H22.19v-5.2L16.69,84.2ZM48,96.1H41.92v2.32h7.5v4.9H35.8V84.2H49.26l-.76,4.89H41.92v2.57H48V96.1Zm9,7.22H50.58l5-19.12H65l5,19.12H63.49l-.71-3h-5l-.71,3Zm3.06-13.25-1.25,5.35h2.81l-1.22-5.35Zm28.15,13.25H81.51L79,97.63H77.69v5.69H71.57V84.2H81.2q6.58,0,6.58,6.7c0,3.06-1,5.07-2.85,6l3.31,6.37ZM77.69,89.09v3.82h1.4a4.25,4.25,0,0,0,1.61-.22,1.06,1.06,0,0,0,.5-1.06V90.37a1.05,1.05,0,0,0-.5-1.05,4.21,4.21,0,0,0-1.61-.23ZM90.07,103l.86-5a21.08,21.08,0,0,0,5.06.71,27.15,27.15,0,0,0,3.63-.19V96.92l-2.76-.24c-2.48-.23-4.19-.82-5.12-1.79a6,6,0,0,1-1.39-4.3c0-2.61.56-4.4,1.7-5.39s3-1.46,5.76-1.46a32.43,32.43,0,0,1,7.35.76l-.77,4.9a29.7,29.7,0,0,0-4.56-.46,23.67,23.67,0,0,0-2.9.15v1.5l2.2.21q4,.4,5.54,1.92a5.64,5.64,0,0,1,1.52,4.2,9.14,9.14,0,0,1-.51,3.26,5.59,5.59,0,0,1-1.24,2,4.67,4.67,0,0,1-2,1,11.78,11.78,0,0,1-2.31.45c-.66,0-1.54.07-2.64.07a32.37,32.37,0,0,1-7.38-.79Z"/><path class="cls-2" d="M82.68,4.21C82.68,1.87,85,0,87.84,0S93,1.91,93,4.21v18.5c0,2.34-2.3,4.21-5.16,4.21s-5.16-1.9-5.16-4.21V4.21ZM58.87,71.57H33v-9h9.2V47.67l-9.2.68v-9l11.88-2.92h8.16V62.58h5.79v9Zm6-25.47-1.35-8.38a41.49,41.49,0,0,1,13-2.13c1.72,0,3.16,0,4.31.17a14.53,14.53,0,0,1,3.59.84,7.42,7.42,0,0,1,3,1.85q2.48,2.7,2.48,8.27t-2.9,8.21Q84,57.57,74.75,61v1.58H89.32v9H62.82v-7a16.88,16.88,0,0,1,1.08-6,12.38,12.38,0,0,1,3.26-3.94,16.15,16.15,0,0,1,3.74-2.47l4.44-2.22c1.4-.7,2.53-1.27,3.39-1.72v-3a37.53,37.53,0,0,0-4.29-.28,38.34,38.34,0,0,0-9.55,1.24ZM29.67,4.21C29.67,1.87,32,0,34.83,0S40,1.91,40,4.21v18.5c0,2.34-2.31,4.21-5.16,4.21s-5.16-1.9-5.16-4.21V4.21ZM6.76,111.3a2.66,2.66,0,0,0,.76,1.87,2.56,2.56,0,0,0,1.87.75h104a2.65,2.65,0,0,0,1.86-.75,2.56,2.56,0,0,0,.75-1.87v-91a2.56,2.56,0,0,0-2.57-2.58h-8.33c-1.59,0-2.86-2.35-2.86-3.94a2.85,2.85,0,0,1,2.86-2.86h9.41a8.4,8.4,0,0,1,8.34,8.34v93.21a8.4,8.4,0,0,1-8.34,8.34H8.34A8.4,8.4,0,0,1,0,112.43V19.22a8.29,8.29,0,0,1,2.46-5.88,8.35,8.35,0,0,1,5.88-2.46H18.43a2.85,2.85,0,0,1,2.86,2.86c0,1.59-1.27,3.94-2.86,3.94h-9a2.69,2.69,0,0,0-1.87.75A2.59,2.59,0,0,0,6.8,20.3c0,28.81,0,62.06,0,91ZM51.55,17.64c-1.59,0-2.86-2.35-2.86-3.94a2.85,2.85,0,0,1,2.86-2.86H70.76a2.85,2.85,0,0,1,2.86,2.86c0,1.59-1.27,3.94-2.86,3.94Z"/></svg>