<svg id="Layer_1" data-name="Layer 1" xmlns="http://www.w3.org/2000/svg" viewBox="0 0 122.88 120.76"><defs><style>.cls-1{fill:#ef4136;}.cls-2{fill:#1a1a1a;}</style></defs><title>two-weeks</title><path class="cls-1" d="M33.42,84.19h6.39l-3,19.12h-8l-1.41-7h-.37l-1.37,7h-8l-3-19.12h6.4l1.43,10.68h.19l2.2-10.68h4.68l2.18,10.68H32l1.47-10.68Zm20.39,11.9H47.69v2.33h7.49v4.89H41.57V84.19H55l-.76,4.9H47.69v2.57h6.12v4.43Zm16.44,0H64.13v2.33h7.5v4.89H58V84.19H71.48l-.77,4.9H64.13v2.57h6.12v4.43ZM80.58,95v8.32H74.46V84.19h6.12V92h.12A4.25,4.25,0,0,1,81,90.52l3-6.33h6.61L86,93.58l4.75,9.73H84.16L81,96.46A4.25,4.25,0,0,1,80.7,95Zm11.48,8,.86-5a21.09,21.09,0,0,0,5.06.7,29.25,29.25,0,0,0,3.63-.18V96.92l-2.75-.25q-3.73-.33-5.13-1.79a6,6,0,0,1-1.39-4.29q0-3.91,1.7-5.39t5.77-1.47a32.31,32.31,0,0,1,7.34.77l-.77,4.89a30.78,30.78,0,0,0-4.56-.46,21.63,21.63,0,0,0-2.9.16v1.5l2.2.21c2.67.27,4.52.9,5.54,1.91a5.67,5.67,0,0,1,1.53,4.21,9.17,9.17,0,0,1-.52,3.26,5.59,5.59,0,0,1-1.24,2,4.69,4.69,0,0,1-2,1,11.86,11.86,0,0,1-2.32.45c-.66,0-1.54.07-2.64.07a32.43,32.43,0,0,1-7.38-.79Z"/><path class="cls-2" d="M82.69,4.21C82.69,1.87,85,0,87.84,0S93,1.91,93,4.21v18.5c0,2.34-2.3,4.21-5.16,4.21s-5.15-1.9-5.15-4.21V4.21ZM50,44.44l-1.34-8.89a38.87,38.87,0,0,1,12.94-2.27,42.57,42.57,0,0,1,4.3.18,13.56,13.56,0,0,1,3.59.89,7.32,7.32,0,0,1,2.93,2c1.65,1.91,2.48,4.84,2.48,8.77S74,51.94,72,53.81s-6,4-12.16,6.44v1.68H74.4v9.55H48V64a19,19,0,0,1,1.09-6.39,12.68,12.68,0,0,1,3.24-4.18A16.26,16.26,0,0,1,56,50.83q2.34-1.26,4.43-2.36c1.39-.74,2.52-1.35,3.37-1.82V43.42a35.33,35.33,0,0,0-4.27-.3A35.85,35.85,0,0,0,50,44.44ZM29.67,4.21C29.67,1.87,32,0,34.83,0S40,1.91,40,4.21v18.5c0,2.34-2.3,4.21-5.16,4.21s-5.16-1.9-5.16-4.21V4.21ZM6.76,111.3a2.66,2.66,0,0,0,.76,1.87,2.56,2.56,0,0,0,1.87.75h104a2.65,2.65,0,0,0,1.86-.75,2.56,2.56,0,0,0,.75-1.87v-91a2.56,2.56,0,0,0-2.57-2.58h-8.33c-1.59,0-2.86-2.35-2.86-3.94a2.85,2.85,0,0,1,2.86-2.86h9.41a8.4,8.4,0,0,1,8.34,8.34v93.2a8.38,8.38,0,0,1-8.34,8.34H8.34a8.28,8.28,0,0,1-5.88-2.45A8.37,8.37,0,0,1,0,112.42V19.22a8.29,8.29,0,0,1,2.46-5.88,8.35,8.35,0,0,1,5.88-2.46H18.43a2.85,2.85,0,0,1,2.86,2.86c0,1.59-1.27,3.94-2.86,3.94h-9a2.69,2.69,0,0,0-1.87.75A2.59,2.59,0,0,0,6.8,20.3c0,28.81,0,62.06,0,91ZM51.55,17.64c-1.59,0-2.86-2.35-2.86-3.94a2.85,2.85,0,0,1,2.86-2.86H70.77a2.84,2.84,0,0,1,2.85,2.86c0,1.59-1.26,3.94-2.85,3.94Z"/></svg>