<?xml version="1.0" encoding="utf-8"?><svg version="1.1" id="Layer_1" xmlns="http://www.w3.org/2000/svg" xmlns:xlink="http://www.w3.org/1999/xlink" x="0px" y="0px" viewBox="0 0 122.88 107.27" style="enable-background:new 0 0 122.88 107.27" xml:space="preserve"><g><path d="M22.48,0h77.92c6.15,0,11.75,2.53,15.82,6.6c4.11,4.11,6.67,9.8,6.67,16.06v61.96c0,6.26-2.55,11.94-6.67,16.06 c-4.07,4.07-9.67,6.6-15.82,6.6H22.48c-6.15,0-11.75-2.53-15.82-6.6C2.55,96.56,0,90.88,0,84.62V22.65 c0-6.26,2.55-11.95,6.66-16.06C10.73,2.53,16.33,0,22.48,0L22.48,0z M67.89,28.62h11.68v22.54c0,2.23-0.35,4.34-1.05,6.32 c-0.7,1.99-1.79,3.73-3.28,5.21c-1.49,1.49-3.05,2.53-4.68,3.14c-2.27,0.84-5,1.26-8.18,1.26c-1.84,0-3.85-0.13-6.02-0.39 c-2.18-0.26-4-0.77-5.46-1.53c-1.46-0.77-2.8-1.85-4.01-3.26c-1.22-1.41-2.04-2.86-2.49-4.36c-0.72-2.4-1.08-4.54-1.08-6.39V28.62 h11.68V51.7c0,2.06,0.57,3.67,1.71,4.83c1.14,1.16,2.73,1.74,4.76,1.74c2,0,3.58-0.57,4.72-1.72c1.14-1.14,1.71-2.76,1.71-4.85 V28.62L67.89,28.62z M4.54,76.22c0.79,3.18,2.34,6.02,4.44,8.29c3.09,3.33,7.35,5.4,12.05,5.4h80.83c0.19,0,0.38,0,0.57-0.01 l1.15-0.08c4.01-0.44,7.62-2.39,10.33-5.31c2.1-2.26,3.65-5.1,4.44-8.28V22.65c0-4.85-2-9.28-5.21-12.49 c-3.26-3.26-7.76-5.28-12.73-5.28H22.48c-4.97,0-9.48,2.02-12.73,5.28c-3.22,3.22-5.21,7.64-5.21,12.49V76.22L4.54,76.22z"/></g></svg>