<svg id="Layer_1" data-name="Layer 1" xmlns="http://www.w3.org/2000/svg" viewBox="0 0 122.88 122.88"><defs><style>.cls-1{fill:#02b3e4;fill-rule:evenodd;}</style></defs><title>udacity</title><path class="cls-1" d="M118.78,2.05l4.1,2.05V57.35C122.88,80.09,111,93,98.32,98.72h0l-31.21,18-.73.42-.35.2h0a43.93,43.93,0,0,1-21,5.58C24.58,122.88,0,106.5,0,73.73V24.58l8.19,4.09V73.73c0,32.77,24.58,41,36.87,41,7.61,0,19.94-3.14,28.22-13.33C58.09,97.78,41,84.7,41,57.34V9L8.19,28.67,0,24.58,41,0l4.1,2.05L49.15,4.1V57.34c0,28.43,18.5,35.28,28.75,36.6a47.61,47.61,0,0,0,4-20.21V20.48l8.19,4.1V73.73a54.92,54.92,0,0,1-3.6,20.13c10.35-1.5,28.18-8.61,28.18-36.52V9.22L90.11,24.58l-8.19-4.1L114.69,0l4.09,2.05Z"/></svg>