<svg xmlns="http://www.w3.org/2000/svg" shape-rendering="geometricPrecision" text-rendering="geometricPrecision" image-rendering="optimizeQuality" fill-rule="evenodd" clip-rule="evenodd" viewBox="0 0 512 498.93"><path d="M389.76 0c33.74 0 64.31 13.69 86.42 35.8C498.31 57.92 512 88.5 512 122.24c0 33.75-13.69 64.33-35.8 86.44-22.13 22.12-52.7 35.82-86.44 35.82-33.71 0-64.27-13.68-86.4-35.82-22.19-22.2-35.86-52.76-35.86-86.44 0-33.74 13.69-64.32 35.82-86.44C325.43 13.69 356.01 0 389.76 0zM127.13 93.07 45.4 179.44h81.73V93.07zM0 195.82c0-1.15.15-2.27.41-3.35.13-3.14 1.36-6.27 3.69-8.73L128.47 52.32c2.31-4.18 6.78-7.01 11.9-7.01h113.41c-4.87 8.6-8.97 17.7-12.16 27.2h-87.3v120.52c0 7.5-6.09 13.59-13.59 13.59H27.2v265.11h392.02V275.68c9.4-1.8 18.49-4.44 27.21-7.83V471.9c0 7.39-3.05 14.15-7.93 19.05-4.96 4.94-11.72 7.98-19.11 7.98H27.04c-7.43 0-14.21-3.06-19.09-7.94C3.07 486.1 0 479.32 0 471.9V195.82zm324.89 79.39c7.53 0 13.66 6.05 13.66 13.52s-6.13 13.52-13.66 13.52H121.54c-7.54 0-13.66-6.05-13.66-13.52s6.12-13.52 13.66-13.52h203.35zm0 91.23c7.53 0 13.66 6.05 13.66 13.52s-6.13 13.52-13.66 13.52H121.54c-7.54 0-13.66-6.05-13.66-13.52s6.12-13.52 13.66-13.52h203.35zm34.24-266.68a6.44 6.44 0 0 1 4.33-5.85c-.3-5.05-.92-12.69.45-17.56 1.56-5.11 4.99-9.45 9.58-12.17 1.65-1 3.39-1.84 5.21-2.49 3.31-1.19 1.66-6.73 5.27-6.81 8.44-.21 22.31 7.5 27.72 13.36 3.43 3.81 5.41 8.74 5.52 13.88l-.34 12.37c1.61.33 2.96 1.47 3.55 3.02 1.8 7.29-15.94 24.46-15.94 26.31.04.63.29 1.23.71 1.71 12.31 16.92 45.47 9.37 45.47 43.02H328.84c0-33.66 33.17-26.09 45.47-43 .6-.89.89-1.38.88-1.76 0-1.65-16.06-18.07-16.06-24.03z"/></svg>