<svg id="Layer_1" data-name="Layer 1" xmlns="http://www.w3.org/2000/svg" viewBox="0 0 122.88 27.24"><defs><style>.cls-1{fill:#d52b1e;}</style></defs><title>verizon-mobile</title><polygon class="cls-1" points="120.17 0 113.46 14.36 110.93 8.92 108.2 8.92 112.35 17.82 114.56 17.82 122.88 0 120.17 0 120.17 0"/><path d="M91.37,26.66h5.41V16.77c0-2.26,1.31-3.85,3.25-3.85s2.84,1.31,2.84,3.2V26.66h5.41V15.09c0-3.93-2.36-6.69-6.17-6.69a6.09,6.09,0,0,0-5.41,2.95h-.11V8.92H91.36V26.66ZM80.75,8.43a9.06,9.06,0,0,0-9.42,9.41,9.43,9.43,0,0,0,18.85,0,9.05,9.05,0,0,0-9.43-9.41Zm0,14.81c-2.56,0-3.93-2.15-3.93-5.4s1.35-5.41,3.93-5.41,4,2.12,4,5.41-1.4,5.4-4,5.4Zm-24.8,3.42H71.11V22.4h-8.6v-.11l8.22-9.22V8.9H55.92v4.28h8.32v.11l-8.32,9.3v4.07Zm-6.93,0h5.44V8.92H49V26.66Zm-12.62,0h5.42V18.51c0-3.7,2.22-5.35,5.61-4.88h.11V9a2.79,2.79,0,0,0-1.1-.13c-2.12,0-3.54,1-4.75,3h-.11V8.92H36.37V26.66Zm-9.95-3.4c-2.39,0-3.85-1.55-4.13-4H35.08c0-3.81-1-6.86-3.09-8.76A8.39,8.39,0,0,0,26,8.4c-5.35,0-9,4-9,9.36s3.53,9.43,9.4,9.43a9.37,9.37,0,0,0,5.44-1.59,7,7,0,0,0,3-4.19H29.6a3.2,3.2,0,0,1-3.18,1.85Zm-.28-11c1.91,0,3.22,1.42,3.44,3.49H22.32c.43-2.09,1.58-3.49,3.82-3.49Zm-20,14.39h5.68L18,8.92H12.58L9.12,20.32H9.05L5.59,8.92H0L6.17,26.66ZM49,2.6h5.44V7.42H49V2.6Z"/></svg>