<?xml version="1.0" encoding="utf-8"?><svg version="1.1" id="Layer_1" xmlns="http://www.w3.org/2000/svg" xmlns:xlink="http://www.w3.org/1999/xlink" x="0px" y="0px" viewBox="0 0 122.88 110.35" style="enable-background:new 0 0 122.88 110.35" xml:space="preserve"><g><path d="M6.32,0v6.22h12.22V0h6.32v14.88h73.15V0h6.32v6.22h12.22V0h6.32v110.35h-6.32v-7.19h-12.22v7.19h-6.32V94.79H24.87v15.56 h-6.32v-7.19H6.32v7.19H0V0H6.32L6.32,0z M82.49,62.98c0.85,0.59,1.4,0.97,1.67,1.12c0.39,0.22,0.92,0.48,1.57,0.77l-1.89,3.82 c-0.95-0.46-1.9-1.01-2.83-1.64c-0.94-0.64-1.59-1.12-1.96-1.43c-1.51,0.65-3.39,0.98-5.66,0.98c-3.36,0-6-0.87-7.94-2.62 c-2.29-2.07-3.44-4.97-3.44-8.71c0-3.63,1-6.46,3.01-8.47c2-2.01,4.8-3.02,8.4-3.02c3.66,0,6.49,0.98,8.49,2.95 c1.99,1.96,2.99,4.78,2.99,8.44C84.89,58.41,84.09,61.02,82.49,62.98L82.49,62.98z M77.26,59.48c0.54-0.97,0.82-2.43,0.82-4.36 c0-2.23-0.42-3.81-1.24-4.77c-0.83-0.95-1.97-1.43-3.43-1.43c-1.36,0-2.46,0.49-3.31,1.46c-0.85,0.97-1.27,2.49-1.27,4.56 c0,2.41,0.41,4.1,1.23,5.07c0.83,0.97,1.96,1.46,3.39,1.46c0.46,0,0.9-0.05,1.31-0.13c-0.58-0.55-1.48-1.07-2.72-1.57l1.07-2.45 c0.61,0.11,1.08,0.25,1.41,0.41c0.34,0.16,1,0.58,1.98,1.26C76.73,59.14,76.99,59.31,77.26,59.48L77.26,59.48z M37.16,44.13h6.82 v7.71h7.46v-7.71h6.85v22.08h-6.85v-8.94h-7.46v8.94h-6.82V44.13L37.16,44.13z M98.01,21.2H24.87v67.27h73.15V21.2L98.01,21.2z M116.56,96.84v-11.8h-12.22v11.8H116.56L116.56,96.84z M116.56,78.72v-11.8h-12.22v11.8H116.56L116.56,78.72z M116.56,60.59v-11.8 h-12.22v11.8H116.56L116.56,60.59z M116.56,42.47v-11.8h-12.22v11.8H116.56L116.56,42.47z M116.56,24.35v-11.8h-12.22v11.8H116.56 L116.56,24.35z M18.54,96.84v-11.8H6.32v11.8H18.54L18.54,96.84z M18.54,78.72v-11.8H6.32v11.8H18.54L18.54,78.72z M18.54,60.59 v-11.8H6.32v11.8H18.54L18.54,60.59z M18.54,42.47v-11.8H6.32v11.8H18.54L18.54,42.47z M18.54,24.35v-11.8H6.32v11.8H18.54 L18.54,24.35z"/></g></svg>