<svg xmlns="http://www.w3.org/2000/svg" shape-rendering="geometricPrecision" text-rendering="geometricPrecision" image-rendering="optimizeQuality" fill-rule="evenodd" clip-rule="evenodd" viewBox="0 0 494 511.63"><path d="M494 42.43v337.84c0 11.65-4.78 22.27-12.47 29.95-7.64 7.69-18.26 12.47-29.96 12.47H234.25l-70.65 81.67c-14.46 15.26-40.26 4.88-40.26-16.09l-3.13-65.58H42.43c-11.62 0-22.24-4.79-29.92-12.46C4.79 402.49 0 391.88 0 380.27V42.43c0-11.62 4.8-22.27 12.48-29.95l.79-.71C20.91 4.5 31.22 0 42.43 0h409.14c11.65 0 22.27 4.8 29.95 12.48C489.2 20.16 494 30.78 494 42.43zM139.71 135.2h143.78c12.22 0 22.22 10 22.22 22.23v23.67l70.81-42.55v134.28l-70.81-38.21v30.8c0 12.21-10 22.2-22.22 22.2H139.71c-12.23 0-22.23-9.99-22.23-22.2V157.43c0-12.23 10-22.23 22.23-22.23z"/></svg>