<?xml version="1.0" encoding="utf-8"?><svg version="1.1" id="Layer_1" xmlns="http://www.w3.org/2000/svg" xmlns:xlink="http://www.w3.org/1999/xlink" x="0px" y="0px" width="122.88px" height="111.73px" viewBox="0 0 122.88 111.73" enable-background="new 0 0 122.88 111.73" xml:space="preserve"><g><path fill-rule="evenodd" clip-rule="evenodd" d="M70.93,1.671h29.542c2.943,0,5.354,2.411,5.354,5.354v5.702L122.88,2.48v32.346 l-17.055-9.203v7.416c0,2.944-2.41,5.35-5.354,5.35H70.93c-2.946,0-5.356-2.406-5.356-5.35V7.025 C65.573,4.082,67.983,1.671,70.93,1.671L70.93,1.671z M85.296,11.732c4.583,0,8.298,3.715,8.298,8.298 c0,4.583-3.715,8.298-8.298,8.298s-8.298-3.715-8.298-8.298C76.998,15.447,80.713,11.732,85.296,11.732L85.296,11.732z M30.926,45.924c3.773,6.806,8.12,13.343,13.781,19.307c5.661,5.997,12.703,11.456,21.834,16.106 c0.674,0.337,1.313,0.337,1.887,0.101c0.876-0.337,1.753-1.044,2.629-1.92c0.674-0.675,1.516-1.753,2.392-2.932 c3.505-4.616,7.852-10.345,13.983-7.48c0.135,0.067,0.236,0.135,0.371,0.202l20.452,11.76c0.067,0.033,0.135,0.101,0.202,0.134 c2.696,1.854,3.808,4.718,3.842,7.952c0,3.302-1.213,7.008-2.999,10.143c-2.359,4.144-5.83,6.873-9.839,8.692 c-3.808,1.752-8.053,2.696-12.13,3.303c-6.402,0.943-12.399,0.337-18.532-1.55c-5.997-1.854-12.029-4.92-18.633-8.996l-0.471-0.304 c-3.033-1.888-6.301-3.909-9.502-6.301c-11.76-8.862-23.722-21.666-31.505-35.75C2.15,46.564-1.42,33.794,0.533,21.63 C1.612,14.959,4.476,8.895,9.462,4.884c4.346-3.504,10.209-5.425,17.792-4.75c0.875,0.067,1.65,0.573,2.055,1.313l13.107,22.171 c1.921,2.494,2.157,4.954,1.112,7.413c-0.876,2.021-2.628,3.875-5.021,5.627c-0.708,0.607-1.55,1.213-2.426,1.854 c-2.931,2.123-6.267,4.582-5.122,7.48L30.926,45.924L30.926,45.924L30.926,45.924z"/></g></svg>