<?xml version="1.0" encoding="utf-8"?><svg version="1.1" id="Layer_1" xmlns="http://www.w3.org/2000/svg" xmlns:xlink="http://www.w3.org/1999/xlink" x="0px" y="0px" viewBox="0 0 122.88 97.05" style="enable-background:new 0 0 122.88 97.05" xml:space="preserve"><g><path d="M9.35,37.38c0.85-0.9,2.27-0.93,3.17-0.08c0.9,0.85,0.93,2.27,0.08,3.16l-7.26,7.6l7.26,7.62c0.85,0.9,0.82,2.31-0.08,3.16 c-0.9,0.85-2.31,0.82-3.17-0.08l-8.73-9.17c-0.82-0.86-0.83-2.22,0-3.09L9.35,37.38L9.35,37.38L9.35,37.38z M39.83,83.13 c-1.39,0-2.51-1.13-2.51-2.51c0-1.39,1.12-2.51,2.51-2.51h42.5c1.39,0,2.51,1.13,2.51,2.51c0,1.39-1.12,2.51-2.51,2.51H39.83 L39.83,83.13L39.83,83.13z M67.69,37.87c1.11-0.72,1.11-1.52,0-2.16L56.18,29.1c-0.91-0.57-1.86-0.24-1.83,0.95l0.04,13.37 c0.08,1.29,0.81,1.64,1.89,1.04L67.69,37.87L67.69,37.87L67.69,37.87z M40.3,71.05c-1.39,0-2.51-1.13-2.51-2.51 c0-1.39,1.12-2.51,2.51-2.51h21.96c1.39,0,2.51,1.13,2.51,2.51c0,1.39-1.12,2.51-2.51,2.51H40.3L40.3,71.05L40.3,71.05z M40.93,16.14h41.02c1.16,0,2.22,0.48,2.98,1.24l0.01,0.01c0.77,0.77,1.24,1.82,1.24,2.98v32.23c0,1.16-0.48,2.22-1.24,2.98 l-0.01,0.01c-0.77,0.77-1.82,1.24-2.98,1.24H40.93c-1.16,0-2.22-0.48-2.98-1.24l-0.01-0.01c-0.77-0.77-1.24-1.82-1.24-2.98V20.38 c0-1.16,0.48-2.22,1.24-2.98l0.01-0.01C38.71,16.62,39.77,16.14,40.93,16.14L40.93,16.14L40.93,16.14z M81.7,20.62H41.17v31.74 h40.53L81.7,20.62L81.7,20.62L81.7,20.62z M110.28,40.47c-0.85-0.9-0.82-2.31,0.08-3.16c0.9-0.85,2.31-0.82,3.17,0.08l8.73,9.14 c0.83,0.87,0.82,2.23,0,3.09l-8.73,9.17c-0.85,0.9-2.27,0.93-3.17,0.08c-0.9-0.85-0.93-2.27-0.08-3.16l7.26-7.62L110.28,40.47 L110.28,40.47L110.28,40.47z M25.31,0h72.26c1.21,0,2.31,0.5,3.11,1.3l0.01,0.01c0.8,0.8,1.29,1.9,1.29,3.11v88.22 c0,1.21-0.5,2.31-1.3,3.11l-0.01,0.01c-0.8,0.8-1.9,1.29-3.11,1.29l-72.25,0c-1.2,0-2.31-0.5-3.11-1.3l-0.01-0.01 c-0.8-0.8-1.29-1.9-1.29-3.11V4.42c0-1.21,0.5-2.31,1.3-3.11l0.01-0.01C23,0.49,24.1,0,25.31,0L25.31,0L25.31,0z M97.5,4.47H25.37 v88.1h72.15V4.47H97.5L97.5,4.47z"/></g></svg>