<?xml version="1.0" encoding="utf-8"?><svg version="1.1" id="Layer_1" xmlns="http://www.w3.org/2000/svg" xmlns:xlink="http://www.w3.org/1999/xlink" x="0px" y="0px" viewBox="0 0 122.88 110.35" style="enable-background:new 0 0 122.88 110.35" xml:space="preserve"><g><path d="M6.32,0v6.22h12.22V0h6.32v14.88h73.15V0h6.32v6.22h12.22V0h6.32v110.35h-6.32v-7.19h-12.22v7.19h-6.32V94.79H24.87v15.56 h-6.32v-7.19H6.32v7.19H0V0H6.32L6.32,0z M64.23,44.13h10.14c1.99,0,3.61,0.27,4.84,0.81c1.23,0.54,2.25,1.32,3.05,2.33 c0.8,1.02,1.38,2.19,1.74,3.54c0.36,1.35,0.54,2.77,0.54,4.28c0,2.36-0.27,4.19-0.81,5.49c-0.53,1.3-1.28,2.39-2.24,3.27 c-0.96,0.88-1.98,1.46-3.07,1.76c-1.5,0.4-2.85,0.6-4.07,0.6H64.23V44.13L64.23,44.13z M71.04,49.13v12.06h1.68 c1.43,0,2.45-0.16,3.05-0.47c0.6-0.32,1.07-0.87,1.42-1.65c0.34-0.79,0.51-2.07,0.51-3.83c0-2.34-0.38-3.94-1.15-4.8 c-0.77-0.86-2.04-1.3-3.81-1.3H71.04L71.04,49.13z M39.61,58.91l6.48-0.41c0.14,1.05,0.43,1.85,0.86,2.4 c0.7,0.89,1.71,1.34,3.01,1.34c0.97,0,1.72-0.23,2.25-0.68c0.53-0.46,0.79-0.99,0.79-1.59c0-0.57-0.25-1.08-0.75-1.54 c-0.5-0.45-1.66-0.87-3.48-1.28c-2.99-0.67-5.12-1.56-6.39-2.68c-1.28-1.11-1.93-2.53-1.93-4.26c0-1.13,0.33-2.2,0.99-3.21 c0.66-1.01,1.64-1.8,2.97-2.38c1.32-0.58,3.13-0.86,5.43-0.86c2.82,0,4.97,0.52,6.45,1.58c1.48,1.05,2.36,2.72,2.64,5.01 l-6.41,0.38c-0.17-1-0.53-1.73-1.07-2.18c-0.55-0.46-1.31-0.68-2.27-0.68c-0.79,0-1.39,0.17-1.79,0.5c-0.4,0.33-0.6,0.75-0.6,1.23 c0,0.35,0.16,0.66,0.49,0.95c0.31,0.29,1.07,0.56,2.28,0.81c2.98,0.64,5.11,1.3,6.4,1.95c1.29,0.66,2.23,1.47,2.82,2.45 c0.59,0.97,0.88,2.06,0.88,3.27c0,1.41-0.39,2.72-1.17,3.92c-0.79,1.19-1.88,2.1-3.28,2.72c-1.4,0.62-3.17,0.93-5.31,0.93 c-3.75,0-6.35-0.72-7.8-2.17C40.61,62.97,39.8,61.14,39.61,58.91L39.61,58.91z M98.01,21.2H24.87v67.27h73.15V21.2L98.01,21.2z M116.56,96.84v-11.8h-12.22v11.8H116.56L116.56,96.84z M116.56,78.72v-11.8h-12.22v11.8H116.56L116.56,78.72z M116.56,60.59v-11.8 h-12.22v11.8H116.56L116.56,60.59z M116.56,42.47v-11.8h-12.22v11.8H116.56L116.56,42.47z M116.56,24.35v-11.8h-12.22v11.8H116.56 L116.56,24.35z M18.54,96.84v-11.8H6.32v11.8H18.54L18.54,96.84z M18.54,78.72v-11.8H6.32v11.8H18.54L18.54,78.72z M18.54,60.59 v-11.8H6.32v11.8H18.54L18.54,60.59z M18.54,42.47v-11.8H6.32v11.8H18.54L18.54,42.47z M18.54,24.35v-11.8H6.32v11.8H18.54 L18.54,24.35z"/></g></svg>