<svg xmlns="http://www.w3.org/2000/svg" viewBox="0 0 333333 333333" shape-rendering="geometricPrecision" text-rendering="geometricPrecision" image-rendering="optimizeQuality" fill-rule="evenodd" clip-rule="evenodd"><path d="M166667 0c46023 0 87690 18655 117851 48816s48816 71828 48816 117851-18655 87690-48816 117851-71828 48816-117851 48816-87690-18655-117851-48816S0 212690 0 166667 18655 78977 48816 48816 120644 0 166667 0zm85437 126855c-773 16628-12388 39442-34865 68348-23243 30186-42913 45319-59004 45319-9944 0-18395-9180-25278-27581-4602-16861-9180-33723-13795-50578-5107-18400-10591-27581-16465-27581-1274 0-5748 2704-13420 8044l-8046-10353c8447-7215 16787-14797 24875-22127 11250-9713 19704-14820 25345-15366 13291-1271 21511 7811 24571 27281 3303 21006 5609 34063 6915 39174 3836 17423 8044 26142 12652 26142 3569 0 8953-5644 16126-16972 7145-11281 10985-19893 11518-25811 1038-9744-2801-14660-11518-14660-4104 0-8312 940-12654 2811 8407-27515 24436-40869 48146-40102 17537 466 25814 11848 24815 34130l16-10 66-109zm21191-66816c-27287-27287-64987-44165-106628-44165-41642 0-79341 16878-106628 44165s-44165 64987-44165 106628c0 41642 16878 79341 44165 106628s64987 44165 106628 44165c41642 0 79341-16878 106628-44165s44165-64987 44165-106628c0-41642-16878-79341-44165-106628z" fill="#1ab7ea" fill-rule="nonzero"/></svg>