<svg id="Layer_1" data-name="Layer 1" xmlns="http://www.w3.org/2000/svg" viewBox="0 0 105.32 122.88"><defs><style>.cls-1{fill:#ffcb23;}.cls-2{fill:#2d2d2c;}</style></defs><title>vimpelcom</title><polygon class="cls-1" points="78.99 0 52.65 45.6 26.33 0 0 0 52.65 91.21 105.32 0 78.99 0 78.99 0"/><path class="cls-2" d="M61.29,121.75a7,7,0,1,1,7-7,7,7,0,0,1-7,7Zm0-15.2a8.17,8.17,0,1,0,8.17,8.17,8.18,8.18,0,0,0-8.17-8.17Z"/><polygon class="cls-2" points="81.02 106.88 81.02 120.76 73.01 106.88 71.53 106.88 71.53 122.55 72.7 122.55 72.7 108.67 80.71 122.55 82.19 122.55 82.19 106.88 81.02 106.88 81.02 106.88"/><polygon class="cls-2" points="42.9 106.88 42.9 122.55 51.88 122.55 51.88 121.42 44.08 121.42 44.08 115.14 50.74 115.14 50.74 114.01 44.08 114.01 44.08 108.01 51.88 108.01 51.88 106.88 42.9 106.88 42.9 106.88"/><polygon class="cls-2" points="40.06 106.88 32.25 120.43 24.43 106.88 23.12 106.88 32.25 122.69 41.39 106.88 40.06 106.88 40.06 106.88"/></svg>