<?xml version="1.0" encoding="utf-8"?><svg version="1.1" id="Layer_1" xmlns="http://www.w3.org/2000/svg" xmlns:xlink="http://www.w3.org/1999/xlink" x="0px" y="0px" viewBox="0 0 98.05 122.88" style="enable-background:new 0 0 98.05 122.88" xml:space="preserve"><style type="text/css">.st0{fill-rule:evenodd;clip-rule:evenodd;}</style><g><path class="st0" d="M40.42,61.1h4.25c-1.33-4.29-5.5-10.69-10.24-7.04c-7.45,10.66-16.92-0.51-9.96-6.64 c-7.9-10.14-3.29-20.08,6.39-21.71c-1.3-1.15-2.76-2.51-4.39-4.12c5.57-1.39,9.65-1.26,12.74,0.21c4.95-6.87,14.88-6.24,20.04-0.18 c3.04-1.3,7.01-1.37,12.35-0.04c-1.36,1.34-2.6,2.5-3.72,3.52c8.63,2.14,13.96,11.69,5.38,21.62c8.84,6.85-2.82,20.03-10.87,7.76 c-3.7-1.03-6.85,1.53-8.14,6.61h3.77c1.43,0,2.68,0.79,3.33,1.96l36.1,53.95c1.14,1.77,0.62,4.12-1.15,5.26 c-0.64,0.41-1.35,0.6-2.06,0.6v0.01H3.81c-2.11,0-3.81-1.71-3.81-3.81c0-0.88,0.3-1.69,0.8-2.33l36.44-53.88 c0.73-1.12,1.95-1.73,3.19-1.73V61.1L40.42,61.1z M47.99,4.58c0.96,0,1.84,0.39,2.47,1.03l0,0c0.63,0.63,1.03,1.51,1.03,2.47 c0,0.96-0.39,1.84-1.03,2.47l0,0c-0.63,0.63-1.51,1.03-2.47,1.03c-0.97,0-1.84-0.39-2.47-1.03l-0.07-0.07 c-0.59-0.63-0.96-1.47-0.96-2.4c0-0.96,0.39-1.83,1.03-2.47l0.01-0.01C46.16,4.97,47.03,4.58,47.99,4.58L47.99,4.58z M23.29,22.27 c0.69,0.62,0.74,1.68,0.12,2.37c-0.62,0.69-1.68,0.74-2.37,0.12l-9.5-8.59c-0.69-0.62-0.74-1.68-0.12-2.37 c0.62-0.69,1.68-0.74,2.37-0.12L23.29,22.27L23.29,22.27z M79.54,24.75c-0.69,0.62-1.75,0.57-2.37-0.12 c-0.62-0.69-0.57-1.75,0.12-2.37l9.5-8.59c0.69-0.62,1.75-0.57,2.37,0.12c0.62,0.69,0.57,1.75-0.12,2.37L79.54,24.75L79.54,24.75z M38.35,15.23c0.28,0.88-0.2,1.83-1.08,2.11c-0.88,0.28-1.83-0.2-2.11-1.09L30.61,2.19c-0.28-0.88,0.2-1.83,1.09-2.11 c0.88-0.28,1.83,0.2,2.11,1.09L38.35,15.23L38.35,15.23z M61.85,16.28c-0.3,0.88-1.25,1.35-2.13,1.05 c-0.88-0.3-1.35-1.25-1.05-2.13l3.56-10.43c0.3-0.88,1.25-1.35,2.13-1.05c0.88,0.3,1.35,1.25,1.05,2.13L61.85,16.28L61.85,16.28z M73.26,1.4c0.97,0,1.84,0.39,2.47,1.03L75.8,2.5c0.59,0.63,0.96,1.47,0.96,2.4c0,0.96-0.39,1.84-1.03,2.47l0,0 C75.1,8,74.23,8.4,73.26,8.4c-0.96,0-1.84-0.39-2.47-1.03l0,0c-0.63-0.63-1.03-1.51-1.03-2.47c0-0.97,0.39-1.84,1.03-2.47 l0.07-0.07C71.49,1.76,72.33,1.4,73.26,1.4L73.26,1.4z M74.15,4.01c-0.23-0.23-0.54-0.37-0.89-0.37c-0.33,0-0.63,0.12-0.85,0.32 l-0.04,0.04c-0.23,0.23-0.37,0.54-0.37,0.89c0,0.35,0.14,0.66,0.37,0.89v0c0.22,0.22,0.54,0.36,0.89,0.36 c0.35,0,0.66-0.14,0.89-0.37h0c0.22-0.22,0.36-0.54,0.36-0.89c0-0.33-0.12-0.63-0.32-0.85L74.15,4.01L74.15,4.01z M14.73,34.37 c0.96,0,1.84,0.39,2.47,1.03l0,0c0.63,0.63,1.02,1.51,1.02,2.47s-0.39,1.84-1.02,2.47l-0.07,0.07c-0.63,0.59-1.47,0.96-2.4,0.96 c-0.97,0-1.84-0.39-2.47-1.02l-0.07-0.07c-0.59-0.63-0.96-1.47-0.96-2.4c0-0.96,0.39-1.84,1.03-2.47l0,0 C12.89,34.76,13.77,34.37,14.73,34.37L14.73,34.37z M85.22,34.37c0.97,0,1.84,0.39,2.47,1.03l0.07,0.07 c0.59,0.63,0.96,1.47,0.96,2.4c0,0.96-0.39,1.84-1.03,2.47l0,0c-0.63,0.63-1.51,1.02-2.47,1.02c-0.96,0-1.84-0.39-2.47-1.03l0,0 c-0.63-0.63-1.03-1.51-1.03-2.47s0.39-1.84,1.03-2.47l0.07-0.07C83.44,34.74,84.29,34.37,85.22,34.37L85.22,34.37z M86.1,36.98 c-0.23-0.23-0.54-0.37-0.89-0.37c-0.33,0-0.63,0.12-0.85,0.32l-0.04,0.04c-0.23,0.23-0.37,0.54-0.37,0.89 c0,0.35,0.14,0.66,0.37,0.89v0c0.22,0.22,0.54,0.36,0.89,0.36c0.35,0,0.66-0.14,0.89-0.37h0c0.22-0.22,0.36-0.54,0.36-0.89 c0-0.33-0.12-0.63-0.32-0.85L86.1,36.98L86.1,36.98z M15.62,36.98c-0.22-0.22-0.54-0.36-0.89-0.36c-0.35,0-0.66,0.14-0.89,0.37h0 c-0.22,0.22-0.36,0.54-0.36,0.89c0,0.33,0.12,0.62,0.32,0.85l0.04,0.04c0.23,0.23,0.54,0.37,0.89,0.37c0.33,0,0.63-0.12,0.85-0.32 l0.04-0.04c0.23-0.23,0.37-0.54,0.37-0.89C15.99,37.52,15.85,37.21,15.62,36.98L15.62,36.98L15.62,36.98z M20.68,97.03L40.63,65.6 h17.03L73.04,89.5c-9.77,4.84-0.69,13.54-18.04,13.39C35.81,102.73,47.59,79.43,20.68,97.03L20.68,97.03z"/></g></svg>