<svg xmlns="http://www.w3.org/2000/svg" shape-rendering="geometricPrecision" text-rendering="geometricPrecision" image-rendering="optimizeQuality" fill-rule="evenodd" clip-rule="evenodd"
viewBox="0 0 512 247.23">
 <g id="Layer_x0020_1">
  <path fill="black" d="M473.87 109.79l19.06 0c10.49,0 19.07,8.58 19.07,19.07l0 61c0,10.49 -8.58,19.07 -19.07,19.07l-19.06 0c5.96,-41.64 6.16,-74.99 0,-99.14zm-435.74 0l-19.07 0c-10.49,0 -19.06,8.58 -19.06,19.07l0 61c0,10.49 8.57,19.07 19.06,19.07l19.07 0c-5.96,-41.64 -6.16,-74.99 0,-99.14zm7.89 100.02l0 -95.55c3.02,-24.5 16.69,-37.18 36.75,-42.77l129.72 0 0 -58.37c0,-7.22 5.9,-13.12 13.12,-13.12l56.79 0c9.41,0 17.1,7.72 17.1,17.1l0 54.39 122.72 0c26.36,2.2 43.69,13.64 43.75,42.77l0 90.87c0.32,32.54 -16.78,43.88 -45.75,40.76l-68.83 0c-44.67,0 -51.01,-26.04 -70.28,-38.4 -12.78,-8.2 -31.73,-8.47 -45.03,-1.35 -21.27,11.38 -27.37,38.37 -76.46,41.09l-76.18 0c-20.33,-1.84 -33.98,-12.72 -37.42,-37.42zm187.46 -138.32l45.03 0 0 -27.61c0,-3.79 -3.1,-6.9 -6.9,-6.9l-32.84 0c-2.91,0 -5.29,2.38 -5.29,5.29l0 29.22zm194.72 87.79c-2.09,-47.9 -14.08,-63.22 -28.96,-63.45 7.48,38.12 10.25,77.46 -0.5,124.01 16.6,1.12 27.38,-18.67 29.46,-60.56z"/>
 </g>
</svg>
