<svg id="Layer_1" data-name="Layer 1" xmlns="http://www.w3.org/2000/svg" viewBox="0 0 99.28 122.88"><defs><style>.cls-1{fill-rule:evenodd;}</style></defs><title>waiting-room-area</title><path class="cls-1" d="M41.29,77.05H58.38A6.6,6.6,0,0,1,65,83.63v8.23h-.07v22.41H51.73V93.74c0-2.89-1.09-1.88-4.34-1.88-7.74,0-15.39,0-23.11,0a9.92,9.92,0,0,1-9.89-9.89V53.78A10.08,10.08,0,0,1,24.45,43.73c24,0,17.12,16.68,16.84,33.32ZM5.4,116.34a1.91,1.91,0,0,1,.54-1.1,24.37,24.37,0,0,1,8.43-5.44A28.58,28.58,0,0,1,21.78,108l-.5-2.88H3.45a3.4,3.4,0,0,1-3.38-3.38c0-14,3.29-25,0-40.91-1-4.72,8.77-5.4,8.77.26V95.79H42.57c3,0,3.38,6.33,3.38,8.62a.76.76,0,0,1-.75.75H27.31l-.69,2.8a28.4,28.4,0,0,1,7.86,1.64,24.66,24.66,0,0,1,8.19,4.89,2,2,0,0,1,.57,1.9,3.09,3.09,0,0,1,1.44,2.88,3.88,3.88,0,0,1-3.59,3.6,3.89,3.89,0,0,1-3.6-3.6,3.11,3.11,0,0,1,1.47-2.9,21.36,21.36,0,0,0-5.78-3.17,24.45,24.45,0,0,0-7.54-1.44l-.4,3.89v.17a3.47,3.47,0,0,1,2.63,3.47,3.59,3.59,0,0,1-7.18,0,3.44,3.44,0,0,1,2.6-3.45l0-.19L23,111.8a24.32,24.32,0,0,0-7.2,1.59h0A20.36,20.36,0,0,0,10,116.73a2.88,2.88,0,0,1,1.07,2.56,4,4,0,0,1-3.59,3.59,3.88,3.88,0,0,1-3.59-3.59,3.1,3.1,0,0,1,1.48-3ZM27.57,15A13.23,13.23,0,1,1,14.35,28.25,13.24,13.24,0,0,1,27.57,15Zm47-15a24.74,24.74,0,1,1-17.5,7.25A24.65,24.65,0,0,1,74.55,0ZM64.88,8.08a1.6,1.6,0,1,1-.59,2.18,1.59,1.59,0,0,1,.59-2.18Zm-7,7.07a1.59,1.59,0,1,1,.58,2.18,1.59,1.59,0,0,1-.58-2.18Zm-2.56,9.63a1.6,1.6,0,1,1,1.6,1.6,1.6,1.6,0,0,1-1.6-1.6Zm2.6,9.62a1.6,1.6,0,1,1,2.18.59,1.59,1.59,0,0,1-2.18-.59Zm7.07,7a1.6,1.6,0,1,1,2.18-.59,1.6,1.6,0,0,1-2.18.59ZM74.59,44a1.6,1.6,0,1,1,1.6-1.59A1.6,1.6,0,0,1,74.59,44Zm9.62-2.6a1.59,1.59,0,1,1,.59-2.18,1.6,1.6,0,0,1-.59,2.18Zm7-7.06a1.6,1.6,0,1,1-.58-2.18,1.6,1.6,0,0,1,.58,2.18Zm2.56-9.64a1.6,1.6,0,1,1-1.6-1.59,1.6,1.6,0,0,1,1.6,1.59Zm-2.6-9.62A1.6,1.6,0,1,1,89,14.49a1.59,1.59,0,0,1,2.18.58ZM84.13,8A1.59,1.59,0,1,1,82,8.62,1.59,1.59,0,0,1,84.13,8ZM74.5,5.48a1.6,1.6,0,1,1-1.6,1.6,1.6,1.6,0,0,1,1.6-1.6Zm4.44,21V25a.28.28,0,0,1,.29-.29l10.32.74L79.23,26.76a.29.29,0,0,1-.29-.3Zm-5.65-5.75H75.9a.29.29,0,0,0,.29-.29L74.68,10.1,73,20.42a.3.3,0,0,0,.3.29Zm1.3,1.93a3.1,3.1,0,1,1-3.09,3.09,3.09,3.09,0,0,1,3.09-3.09ZM90.41,8.87A22.44,22.44,0,1,0,97,24.74,22.36,22.36,0,0,0,90.41,8.87Z"/></svg>