<svg id="Layer_1" data-name="Layer 1" xmlns="http://www.w3.org/2000/svg" viewBox="0 0 122.88 108.95"><defs><style>.cls-1{fill-rule:evenodd;}</style></defs><title>waiting</title><path class="cls-1" d="M61.3,23.35A30.9,30.9,0,0,1,87,37.09,53.55,53.55,0,0,0,96.93,8.63H25.67a53.6,53.6,0,0,0,9.91,28.46A30.9,30.9,0,0,1,61.3,23.35ZM90,42.75a31,31,0,0,1,0,23c.32.38.63.77.94,1.16,6.79,8.69,11.21,20.39,11.87,33.35H117.4c2.87,0,5.2,1.94,5.2,4.32s-2.33,4.32-5.2,4.32H5.2C2.33,109,0,107,0,104.63s2.33-4.32,5.2-4.32H19.77c.67-13,5.08-24.66,11.87-33.35l.94-1.16a31.09,31.09,0,0,1,0-23l-1-1.17C24.92,33,20.53,21.43,19.79,8.63H5.48C2.61,8.63.28,6.7.28,4.32S2.61,0,5.48,0h112.2c2.87,0,5.2,1.93,5.2,4.32s-2.33,4.31-5.2,4.31H102.81C102.07,21.43,97.68,33,91,41.58L90,42.75ZM87,71.46a30.94,30.94,0,0,1-51.46,0,53.72,53.72,0,0,0-9.92,28.85H97A53.72,53.72,0,0,0,87,71.46ZM55.28,42a4,4,0,1,1,7.91,0V56.62L71.46,61a3.94,3.94,0,1,1-3.65,7L57.73,62.65A4,4,0,0,1,55.28,59V42Z"/></svg>