<svg xmlns="http://www.w3.org/2000/svg" shape-rendering="geometricPrecision" text-rendering="geometricPrecision" image-rendering="optimizeQuality" fill-rule="evenodd" clip-rule="evenodd" viewBox="0 0 512 480.46"><path fill="#333" d="M212.91 10.86c79.68 50.5 151.66 74.39 213.43 68.75 10.79 218.21-69.8 347.07-212.6 400.85C75.83 430.12-5.74 306.8.32 76.29c72.51 3.8 143.65-11.88 212.59-65.43z"/><path fill="#fff" d="M213.05 47.21c66.08 41.88 129.5 65.42 180.73 60.73 8.94 180.97-61.61 291.57-180.04 336.17C99.37 402.36 27.99 296.37 33.01 105.2c66.37 3.48 127.19-16.93 180.04-57.99z"/><path fill="#fff" d="M383.13 0C454.31 0 512 57.69 512 128.87c0 71.17-57.69 128.87-128.87 128.87-71.17 0-128.87-57.7-128.87-128.87C254.26 57.69 311.96 0 383.13 0z"/><circle fill="#56B320" cx="383.13" cy="128.87" r="97.51"/><path fill="#fff" fill-rule="nonzero" d="M361.57 126.74a80.28 80.28 0 0 1 7.57 7.33c7.4-11.91 15.29-22.85 23.62-32.9 23.55-28.45 12.88-22.97 45.55-22.97l-4.54 5.04c-13.95 15.5-18.66 23.57-30.09 40.09a467.51 467.51 0 0 0-30.76 51.18l-2.83 5.46-2.6-5.56c-4.8-10.31-10.55-19.76-17.4-28.2-6.85-8.45-12.84-13.96-22.13-20.34 4.26-13.98 24.52-6.83 33.61.87z"/><path fill="#2196F3" d="M213.62 123.96c2.97 12.98 7.76 25.56 13.48 37.7 21.75 46.13 75.1 98.54 49.85 149-24.72 49.43-103.78 48.91-127.34-1.6-23.22-49.77 28.11-100.45 49.72-145.48 6.09-12.7 11.19-25.93 14.29-39.62zm-36.57 134.47c8.1-.76 7.75 7.79 8.61 13.25 2.55 16.16 9.17 29.77 24.01 38.64 8.18 4.89.87 17.49-7.25 12.62-18.78-11.21-27.66-28.39-30.92-48.98-.88-5.57-2.75-14.77 5.55-15.53z"/></svg>