<svg xmlns="http://www.w3.org/2000/svg" shape-rendering="geometricPrecision" text-rendering="geometricPrecision" image-rendering="optimizeQuality" fill-rule="evenodd" clip-rule="evenodd" viewBox="0 0 512 455.88"><path d="M428.62 16.33c2.69-22.52 36.91-21.01 36.91 0v356.32c3.9-.39 7.74-1.45 11.35-3.22 7.29-3.58 13.78-10.21 18.2-20.24 1.96-4.47 7.18-6.49 11.64-4.53 4.47 1.97 6.5 7.18 4.53 11.65-6.21 14.08-15.73 23.59-26.63 28.94-7.12 3.5-14.79 5.19-22.49 5.2-7.65 0-15.29-1.64-22.41-4.78-8.29-3.65-15.95-9.36-22.18-16.91-3.52 4.72-7.5 8.81-12.01 12.19-18.58 13.92-40.78 13.92-59.35 0-4.52-3.38-8.5-7.47-12.01-12.19-6.23 7.55-13.9 13.26-22.18 16.91-7.12 3.14-14.77 4.78-22.41 4.78-7.7-.01-15.38-1.7-22.5-5.2-6.98-3.43-13.39-8.56-18.72-15.5-9.84 13.85-20.42 21.56-33.18 23.85-14.34 2.57-30.37-2.15-50.37-13a59.098 59.098 0 0 1-10.64 6.9c-10.22 5.14-22.08 7.39-33.99 5.85-11.92-1.55-23.83-6.85-34.15-16.78-2.54-2.44-4.98-5.17-7.3-8.18-2.8 4.42-5.92 8.24-9.36 11.41-15.74 14.47-35.73 14.69-51.69.32-6.99-6.3-12.64-15.23-17.07-26.51-1.78-4.54.47-9.67 5.01-11.44 4.54-1.78 9.66.47 11.44 5.01 3.43 8.71 7.55 15.4 12.44 19.81 3.98 3.58 8.57 5.67 13.83 6.14 1.98-.17 3.85-.57 5.64-1.19V16.33c2.69-22.52 36.91-21.01 36.91 0v14.49c43.6 29.12 103.69 41.69 163.63 42.1 68.42.48 136.26-14.81 179.11-39.34V16.33zm-82.44 426.21c-4.51-3.39-8.5-7.47-12.01-12.19-6.23 7.55-13.89 13.26-22.18 16.91-7.12 3.14-14.77 4.78-22.41 4.78-7.7-.01-15.38-1.7-22.5-5.2-6.98-3.43-13.39-8.56-18.72-15.5-9.84 13.85-20.42 21.56-33.18 23.85-14.34 2.57-30.37-2.15-50.37-13a58.169 58.169 0 0 1-10.64 6.89c-10.23 5.15-22.08 7.4-33.98 5.85-11.93-1.54-23.84-6.84-34.15-16.77-2.55-2.44-4.99-5.17-7.31-8.18-2.8 4.42-5.92 8.24-9.36 11.4-15.75 14.48-35.73 14.7-51.69.33-6.99-6.3-12.64-15.24-17.07-26.51-1.78-4.54.47-9.67 5.01-11.44 4.54-1.78 9.66.47 11.44 5 3.43 8.72 7.55 15.41 12.44 19.82 3.97 3.57 8.55 5.67 13.8 6.14 5.39-.46 10.08-2.62 14.11-6.33 4.8-4.41 8.85-11.03 12.23-19.63a8.84 8.84 0 0 1 4.25-4.66c4.35-2.19 9.67-.44 11.86 3.91 3.64 7.23 7.9 12.99 12.52 17.44 7.41 7.13 15.82 10.92 24.13 12 8.32 1.08 16.63-.51 23.82-4.13 4.04-2.03 7.72-4.71 10.83-7.9 2.73-3 7.28-3.8 10.94-1.68 19.03 10.98 33.08 16.07 44.08 14.1 10.41-1.87 19.31-10.72 28.68-27.66.89-1.69 2.35-3.1 4.23-3.93 4.46-1.97 9.68.06 11.65 4.52 4.42 10.03 10.9 16.66 18.2 20.25 4.65 2.28 9.68 3.39 14.75 3.39 5.12 0 10.34-1.14 15.29-3.32 8.68-3.83 16.42-10.87 21.38-20.63a8.794 8.794 0 0 1 4.34-4.66c4.39-2.14 9.68-.31 11.82 4.07 3.86 7.93 8.58 14.25 14.34 18.57 5.25 3.93 11.56 6.35 19.1 6.99 7.55-.64 13.86-3.06 19.1-6.99 5.77-4.32 10.49-10.64 14.34-18.57 2.14-4.38 7.43-6.21 11.82-4.07 2.06 1 3.55 2.69 4.34 4.66 4.96 9.76 12.7 16.8 21.38 20.63 4.96 2.18 10.18 3.32 15.3 3.32 5.06 0 10.1-1.11 14.75-3.39 7.29-3.59 13.78-10.22 18.2-20.25 1.96-4.46 7.18-6.49 11.64-4.52 4.47 1.96 6.5 7.18 4.53 11.64-6.21 14.08-15.72 23.59-26.63 28.95-7.12 3.5-14.79 5.19-22.49 5.2-7.65 0-15.3-1.64-22.42-4.78-8.28-3.65-15.94-9.36-22.17-16.91-3.52 4.72-7.5 8.8-12.01 12.19-18.58 13.92-40.77 13.91-59.35 0zm52.24-78.65V261.57c-2.04-.04-4.1-.65-5.91-1.89-5.02-3.42-9.07-6.02-12.33-6.17-3.52-.16-8.19 1.99-15.56 7.95l-7.34 5.95-7.13-6.62c-4.16-3.82-8.52-6.07-12.58-6.29-3.48-.18-7.11 1.37-10.55 5.06l-6.58 7.13-7.78-5.43c-5.83-4.08-9.97-6.5-13.34-6.78-3.04-.24-6.82 1.34-12.51 5.15a10.83 10.83 0 0 1-5.83 1.83v110.26c2.81.74 5.7 1.1 8.6 1.1 5.12 0 10.34-1.14 15.29-3.32 8.68-3.83 16.42-10.87 21.38-20.63a8.794 8.794 0 0 1 4.34-4.66c4.39-2.14 9.68-.31 11.82 4.07 3.86 7.93 8.58 14.25 14.34 18.57 5.25 3.93 11.56 6.35 19.1 7 7.55-.65 13.86-3.07 19.1-7 1.21-.9 2.36-1.89 3.47-2.96zm-164.9-3.74v-98.58c-2.11 0-4.25-.61-6.12-1.89-5.02-3.42-9.07-6.02-12.34-6.17-3.51-.16-8.19 1.99-15.55 7.95l-7.34 5.95-7.14-6.62c-4.15-3.82-8.52-6.07-12.57-6.29-3.48-.18-7.12 1.37-10.55 5.06l-6.58 7.13-7.78-5.43c-5.83-4.08-9.97-6.5-13.34-6.78-3.05-.24-6.82 1.34-12.51 5.15a10.9 10.9 0 0 1-5.63 1.83v113.05c2.11.63 4.22 1.08 6.33 1.35 8.32 1.08 16.63-.5 23.82-4.12 4.04-2.04 7.72-4.72 10.83-7.91a8.851 8.851 0 0 1 10.94-1.68c19.03 10.99 33.08 16.07 44.08 14.1 7.71-1.39 14.59-6.6 21.45-16.1zm164.84-122.57c-1.37-31.09-27.23-56.12-58.66-56.12-31.48 0-57.38 25.12-58.66 56.3 13.35-7.26 24.01-6.6 36.89 1.04 12.62-8.75 27.47-7.52 40.01.64 13.91-9.2 26.02-10.49 40.42-1.86zm-164.9.12c-1.32-31.13-27.2-56.23-58.66-56.23-31.45 0-57.31 25.05-58.66 56.17 7.18-3.86 13.38-5.38 19.85-4.85 5.76.48 11 2.56 16.82 6.01 12.63-8.75 27.48-7.52 40.01.64 14.04-9.29 26.15-10.48 40.64-1.74zm101.33 46.29c0-3.13 2.54-5.66 5.66-5.66 3.13 0 5.67 2.53 5.67 5.66v29.76c0 3.12-2.54 5.66-5.67 5.66-3.12 0-5.66-2.54-5.66-5.66v-29.76zm-30.13 13.79c0-3.13 2.54-5.67 5.66-5.67 3.13 0 5.67 2.54 5.67 5.67v29.75c0 3.13-2.54 5.67-5.67 5.67-3.12 0-5.66-2.54-5.66-5.67v-29.75zm58.76 1.4c0-3.13 2.53-5.67 5.66-5.67 3.12 0 5.66 2.54 5.66 5.67v29.75a5.661 5.661 0 0 1-11.32 0v-29.75zm-193.74 16.26a5.661 5.661 0 0 1 11.32 0v29.75a5.661 5.661 0 0 1-11.32 0v-29.75zm-30.13-19.21c0-3.12 2.54-5.66 5.66-5.66 3.13 0 5.67 2.54 5.67 5.66v29.76c0 3.13-2.54 5.66-5.67 5.66-3.12 0-5.66-2.53-5.66-5.66v-29.76zm58.76-13.36c0-3.13 2.53-5.67 5.66-5.67 3.12 0 5.66 2.54 5.66 5.67v29.75a5.661 5.661 0 0 1-11.32 0v-29.75zm92.85-195.91v45.18h36.27V82.52a463.599 463.599 0 0 1-36.27 4.44zm-15.71 45.18V88c-8.64.42-17.32.61-26.01.55-3.27-.02-6.54-.08-9.82-.18v43.77h35.83zm-51.54 0v-44.5c-12.21-.79-24.34-2.09-36.27-3.95v48.45h36.27zm-51.99 0V80.9c-12.27-2.46-24.26-5.54-35.82-9.28v60.52h35.82zm-51.54 0V66.02c-12.15-4.75-23.72-10.31-34.5-16.74v82.86h34.5zm222.77-52.46v52.46h35.82v-61.3c-11.41 3.39-23.41 6.36-35.82 8.84zm51.54-13.64v66.1h33.93V51.33c-10.52 5.41-22.2 10.34-34.76 14.71h.83z"/></svg>