<?xml version="1.0" encoding="utf-8"?><svg version="1.1" id="Layer_1" xmlns="http://www.w3.org/2000/svg" xmlns:xlink="http://www.w3.org/1999/xlink" x="0px" y="0px" viewBox="0 0 97.89 122.88" style="enable-background:new 0 0 97.89 122.88" xml:space="preserve"><style type="text/css">.st0{fill-rule:evenodd;clip-rule:evenodd;}</style><g><path class="st0" d="M2.98,83.61l-0.03-0.06C2.23,81.73,2,80.7,2.41,79.56c0.58-1.63,1.98-2.42,3.66-2.18 c0.8,0.11,1.6,0.38,2.39,0.75L79.12,7.47l-0.24-0.24c-1.24-1.24-1.24-3.28,0-4.53l2.38-2.38c0.43-0.43,1.13-0.43,1.56,0l1.72,1.72 l0.57-0.57c1.14-1.14,3.01-1.14,4.16,0L94.1,6.3L33.44,66.96l-2.78-2.78c-0.49-0.49-1.28-0.49-1.76,0c-0.49,0.49-0.49,1.27,0,1.76 l2.78,2.78l-2.11,2.11l-2.78-2.78c-0.49-0.49-1.27-0.49-1.76,0c-0.49,0.49-0.49,1.27,0,1.76l2.78,2.78l-2.11,2.11l-2.78-2.78 c-0.49-0.49-1.28-0.49-1.76,0c-0.49,0.49-0.49,1.28,0,1.76l2.78,2.78l-2.11,2.11l-2.78-2.78c-0.49-0.49-1.28-0.49-1.76,0 c-0.49,0.49-0.49,1.27,0,1.76l2.78,2.78l-2.11,2.11l-2.78-2.78c-0.49-0.49-1.27-0.49-1.76,0c-0.49,0.49-0.49,1.28,0,1.76l2.78,2.78 l-2.11,2.11l-2.78-2.78c-0.49-0.49-1.28-0.49-1.76,0c-0.49,0.49-0.49,1.27,0,1.76l2.78,2.78L10.2,90.2l-2.78-2.78 c-0.49-0.49-1.28-0.49-1.76,0c-0.49,0.49-0.49,1.27,0,1.76l2.78,2.78L5.8,94.6c-0.03,0.03-0.06,0.06-0.08,0.09 c-0.32-0.28-0.64-0.58-0.98-0.92l-3.88-3.88c-1.14-1.14-1.14-3.01,0-4.15L2.98,83.61L2.98,83.61L2.98,83.61z M95.86,8.06l1.18,1.18 c1.14,1.14,1.14,3.01,0,4.16L48.84,64.89l-4.9-4.9L95.86,8.06L95.86,8.06z M47.27,66.83l-1.9,2.35c4.19,3.47,6.23,6.57,5.54,10.44 c-0.64,3.64-3.83,7.76-10.09,13.4c-0.06,0.05-0.12,0.1-0.18,0.14l2.82,4.94l-16.08,16.08c-0.19-0.48-0.39-0.99-0.6-1.55 c-0.71-1.88-1.25-3.8-1.62-5.74c-1.42-5.56-3.07-10.02-4.97-12.21c-4.44-5.12-5.77,5.37-12.46,1.5l34.44-34.44l5,5 C47.21,66.77,47.24,66.8,47.27,66.83L47.27,66.83z M44.46,99.83l1.68,2.95c3.27,0.61,5.14,1.84,5.34,3.83 c0.29,2.88-2.41,4.76-4.22,6.57l-8.46,8.47c-2.48,2.08-4.9,1.46-7.26-1.16c-1.61-1.61-2.53-2.87-3.31-4.42L44.46,99.83L44.46,99.83 z M43.81,71.1l-4.63,5.72c-0.55,0.58-1.03,1.18-1.44,1.79c0.09,0.05,0.18,0.11,0.26,0.19c0.92,0.87,1.97,1.29,2.98,1.33 c1.08,0.05,2.13-0.34,2.94-1.05c0.51-0.45,1.3-0.4,1.75,0.11c0.45,0.51,0.4,1.3-0.11,1.75c-1.28,1.13-2.96,1.74-4.68,1.67 c-1.46-0.06-2.95-0.61-4.27-1.73c-0.83,2.52-0.39,5.35,1.97,8.65l0.82,1.43c5.68-5.15,8.55-8.78,9.08-11.78 C48.97,76.4,47.27,73.97,43.81,71.1L43.81,71.1L43.81,71.1z"/></g></svg>