<?xml version="1.0" encoding="utf-8"?><svg version="1.1" id="Layer_1" xmlns="http://www.w3.org/2000/svg" xmlns:xlink="http://www.w3.org/1999/xlink" x="0px" y="0px" viewBox="0 0 110.37 122.88" style="enable-background:new 0 0 110.37 122.88" xml:space="preserve"><style type="text/css">.st0{fill-rule:evenodd;clip-rule:evenodd;}</style><g><path class="st0" d="M32.12,42.26c-1.27,0.05-2.24,0.31-2.9,0.76c-0.38,0.25-0.65,0.57-0.83,0.96c-0.2,0.43-0.29,0.94-0.27,1.54 c0.05,1.75,0.97,4.03,2.74,6.66l0.02,0.04l0,0l5.74,9.13c2.3,3.66,4.72,7.4,7.72,10.14c2.89,2.64,6.39,4.42,11.01,4.44 c5.01,0.01,8.68-1.84,11.66-4.63c3.1-2.9,5.54-6.87,7.94-10.83l6.47-10.66c1.21-2.75,1.65-4.59,1.37-5.67 c-0.16-0.64-0.87-0.96-2.08-1.02c-0.26-0.01-0.52-0.02-0.79-0.01c-0.29,0.01-0.59,0.03-0.9,0.06c-0.17,0.02-0.34,0-0.5-0.03 c-0.58,0.03-1.17-0.01-1.77-0.1l2.22-9.81c-16.44,2.59-28.74-9.62-46.12-2.44l1.25,11.56C33.4,42.38,32.73,42.35,32.12,42.26 L32.12,42.26L32.12,42.26z M37.2,84.36c2.21,13.7,7.72,23.72,17.44,33.84c10.59-9.32,17.26-19.6,18.32-33.79 c-1.57-1.83-3.23-4.27-4.67-6.38c-0.57-0.83-1.1-1.62-1.59-2.3c-3.06,2.13-6.72,3.45-11.33,3.44c-5.57-0.01-9.76-2.14-13.2-5.29 c-0.16-0.15-0.33-0.3-0.49-0.46c-0.1,0.29-0.02,0.06-0.22,0.69c-0.95,2.88-2.64,8.02-4.23,10.22L37.2,84.36L37.2,84.36z M68.73,74.12c0.5,0.69,1.07,1.54,1.69,2.45c0.89,1.31,1.87,2.75,2.85,4.07c6.61,5.8,17.87,7,25.06,11.01 c2.29,1.28,4.36,2.91,6.03,5.11c4.12,5.44,4.44,12.97,6.02,19.62c-0.37,3.92-2.59,6.17-6.96,6.51H6.96 c-4.37-0.33-6.59-2.59-6.96-6.51c1.57-6.65,1.89-14.18,6.02-19.62c1.67-2.2,3.74-3.83,6.03-5.11c7.07-3.94,17.5-5.17,24.12-10.72 c1.06-2.29,2.14-5.56,2.82-7.63c0.03-0.09-0.06,0.17,0.29-0.85c0.06-0.18,0.43-0.94,0.54-1.07c0.13-0.14-1.03-1.13-1.66-1.96 c-1.54-2.02-2.92-4.19-4.27-6.33l-5.74-9.13c-2.1-3.13-3.19-6-3.26-8.34c-0.03-1.11,0.16-2.11,0.56-2.99 c0.43-0.92,1.09-1.7,1.97-2.29c0.42-0.28,0.88-0.52,1.39-0.71c-0.37-4.95-0.51-11.2-0.27-16.42c0.12-1.24,0.36-2.48,0.71-3.72 C31.35,11.96,37.8,6.54,45.18,4c3.58-1.24,2.2-4.19,5.81-3.99C59.57,0.48,72.8,6,77.88,11.86c7.12,8.21,5.29,18.32,5.04,28.34v0 c1.59,0.49,2.61,1.5,3.03,3.13c0.46,1.81-0.04,4.36-1.57,7.85l0,0c-0.03,0.06-0.06,0.13-0.1,0.19l-6.55,10.78 c-2.52,4.15-5.08,8.32-8.5,11.52C69.06,73.82,68.9,73.97,68.73,74.12L68.73,74.12z M50.19,66.03c-0.46-0.4-0.4-1,0.14-1.34 c0.54-0.34,1.36-0.29,1.82,0.1c0.65,0.56,1.97,0.85,3.34,0.84c1.34,0,2.66-0.28,3.36-0.86c0.47-0.39,1.29-0.43,1.82-0.08 c0.53,0.35,0.58,0.94,0.11,1.34c-1.22,1.01-3.28,1.5-5.3,1.5C53.43,67.53,51.35,67.02,50.19,66.03L50.19,66.03z M63.33,48.06 c-0.42-0.28-0.54-0.86-0.25-1.28c0.28-0.42,0.86-0.54,1.28-0.25c0.71,0.47,1.9,0.72,3.15,0.7c1.18-0.02,2.39-0.29,3.25-0.84 c0.43-0.27,1-0.15,1.28,0.28c0.27,0.43,0.15,1-0.28,1.28c-1.17,0.75-2.72,1.1-4.22,1.13C65.94,49.1,64.35,48.74,63.33,48.06 L63.33,48.06z M64.17,42.69c-0.42,0.3-1,0.2-1.29-0.22c-0.3-0.42-0.2-1,0.22-1.29c1.74-1.23,3.52-1.87,5.35-1.88 c1.82-0.01,3.64,0.61,5.46,1.87c0.42,0.29,0.53,0.87,0.24,1.29c-0.29,0.42-0.87,0.53-1.29,0.24c-1.51-1.04-2.97-1.55-4.4-1.54 C67.02,41.16,65.59,41.68,64.17,42.69L64.17,42.69z M38.15,42.69c-0.42,0.3-1,0.2-1.29-0.22c-0.3-0.42-0.2-1,0.22-1.29 c1.74-1.23,3.52-1.87,5.35-1.88c1.82-0.01,3.64,0.61,5.46,1.87c0.42,0.29,0.53,0.87,0.24,1.29c-0.29,0.42-0.87,0.53-1.29,0.24 c-1.51-1.04-2.97-1.55-4.4-1.54C41.01,41.16,39.58,41.68,38.15,42.69L38.15,42.69z M38.95,48.06c-0.42-0.28-0.54-0.86-0.25-1.28 c0.28-0.42,0.86-0.54,1.28-0.25c0.72,0.48,1.92,0.75,3.21,0.75c1.2-0.01,2.44-0.26,3.4-0.82c0.44-0.26,1.01-0.11,1.27,0.34 c0.26,0.44,0.11,1.01-0.34,1.27c-1.25,0.73-2.82,1.06-4.32,1.07C41.56,49.12,39.97,48.74,38.95,48.06L38.95,48.06z M42.53,92.74 c-3.17-3.6-3.44-7.38,0-11.37c4.34,1.09,8.27,3.04,11.86,5.69c3.94,2.97,8.2,5.11,12.88,6.18c4.56-3.87,5.06-8.02,0.42-12.54 c-4.3,2.06-9.29,3.05-12.9,6.17C51.16,90.02,46.99,91.74,42.53,92.74L42.53,92.74z M86.11,107.75h13.78c0.47,0,0.86,0.39,0.86,0.86 v1.02c0,0.47-0.39,0.86-0.86,0.86H86.11c-0.47,0-0.86-0.39-0.86-0.86v-1.02C85.25,108.14,85.64,107.75,86.11,107.75L86.11,107.75z"/></g></svg>