<svg id="Layer_1" data-name="Layer 1" xmlns="http://www.w3.org/2000/svg" viewBox="0 0 122.88 122.89"><title>wednesday</title><path d="M81.61,4.73C81.61,2.12,84.19,0,87.38,0s5.77,2.12,5.77,4.73V25.45c0,2.61-2.58,4.73-5.77,4.73s-5.77-2.12-5.77-4.73V4.73ZM44.81,68.86h9.24L49.72,96.5H38.18l-2-10.17h-.53l-2,10.17H22.08L17.74,68.86H27l2.08,15.43h.27l3.18-15.43h6.77l3.14,15.43h.27l2.12-15.43ZM74,86.06H65.11v3.36H75.94V96.5H56.26V68.86H75.72l-1.1,7.08H65.11v3.71H74v6.41ZM79.71,96.5V68.86H92.09q7.47,0,10.26,3.18t2.79,10.64q0,7.45-2.79,10.64T92.09,96.5ZM92.22,75.94H88.55V89.42h3.67A6.26,6.26,0,0,0,94.85,89c.55-.29.82-.93.82-1.93v-8.8c0-1-.27-1.65-.82-1.92a6.08,6.08,0,0,0-2.63-.42ZM29.61,4.73C29.61,2.12,32.19,0,35.38,0s5.77,2.12,5.77,4.73V25.45c0,2.61-2.58,4.73-5.77,4.73s-5.77-2.12-5.77-4.73V4.73ZM6.4,38.76H116.47V21.47a3,3,0,0,0-.86-2.07,2.92,2.92,0,0,0-2.07-.86H103a3.2,3.2,0,0,1,0-6.4h10.55a9.36,9.36,0,0,1,9.33,9.33v92.09a9.36,9.36,0,0,1-9.33,9.33H9.33A9.36,9.36,0,0,1,0,113.55V21.47a9.36,9.36,0,0,1,9.33-9.33H20.6a3.2,3.2,0,1,1,0,6.4H9.33a3,3,0,0,0-2.07.86,2.92,2.92,0,0,0-.86,2.07V38.76Zm110.08,6.41H6.4v68.38a3,3,0,0,0,.86,2.07,2.92,2.92,0,0,0,2.07.86H113.55a3,3,0,0,0,2.07-.86,2.92,2.92,0,0,0,.86-2.07V45.17ZM50.43,18.54a3.2,3.2,0,0,1,0-6.4H71.92a3.2,3.2,0,1,1,0,6.4Z"/></svg>