<?xml version="1.0" encoding="utf-8"?><svg version="1.1" id="Layer_1" xmlns="http://www.w3.org/2000/svg" xmlns:xlink="http://www.w3.org/1999/xlink" x="0px" y="0px" viewBox="0 0 122.88 82.45" style="enable-background:new 0 0 122.88 82.45" xml:space="preserve"><g><path d="M6.93,39.84L79.05,4.16l-19,35.68H6.93L6.93,39.84L6.93,39.84z M122.88,28.02v0.66c-0.48,0.04-0.89,0.18-1.22,0.41 c-0.33,0.24-0.62,0.6-0.88,1.08c-0.07,0.16-0.47,1.14-1.18,2.96l-8.08,21.3h-0.69l-6.39-16.8l-7.08,16.8h-0.68l-8.52-21.08 c-0.86-2.14-1.46-3.43-1.8-3.88c-0.34-0.45-0.92-0.71-1.73-0.79v-0.66h11.18v0.66c-0.9,0.03-1.5,0.16-1.8,0.42 c-0.3,0.25-0.45,0.56-0.45,0.93c0,0.49,0.31,1.52,0.93,3.1l5.06,12.53l4.1-9.89l-1.03-2.67c-0.58-1.5-1.03-2.51-1.35-3.01 c-0.32-0.5-0.68-0.86-1.1-1.08c-0.41-0.21-1.01-0.32-1.81-0.32v-0.66h12.4v0.66c-0.87,0.01-1.5,0.08-1.88,0.21 c-0.27,0.08-0.47,0.24-0.62,0.45c-0.16,0.21-0.23,0.45-0.23,0.72c0,0.3,0.28,1.2,0.85,2.71L113.58,45l4.2-11.06 c0.44-1.15,0.71-1.93,0.82-2.36c0.1-0.42,0.15-0.81,0.15-1.17c0-0.53-0.18-0.93-0.53-1.24c-0.35-0.3-1.03-0.46-2.03-0.49v-0.66 H122.88L122.88,28.02z M0.85,42.39l80.69,39.92c0.65,0.32,1.43,0.05,1.75-0.6c0.2-0.39,0.17-0.83-0.03-1.2h0.01L62.31,41.16 L83.28,1.79L81.54,0L0.73,39.98v0.01C0.3,40.2,0,40.64,0,41.16l0,0C0,41.71,0.34,42.2,0.85,42.39L0.85,42.39L0.85,42.39L0.85,42.39 z"/></g></svg>