<svg id="Layer_1" data-name="Layer 1" xmlns="http://www.w3.org/2000/svg" viewBox="0 0 122.88 92.3"><defs><style>.cls-1{fill:#ff4141;}</style></defs><title>when</title><path class="cls-1" d="M49.14,65.24q-1.68,0-2.91-4A26.13,26.13,0,0,1,45,53.63c0-.56.62-1.19,1.85-1.89a21,21,0,0,1,5.63-1.85,39,39,0,0,1,8.2-.81q17.18,0,17.18,12a11.87,11.87,0,0,1-1.4,5.9,9.39,9.39,0,0,1-3.39,3.62,16,16,0,0,1-7.36,2.27l-1.38.06a11.63,11.63,0,0,0,.3,2.1,12.56,12.56,0,0,1,.3,2.51c0,.64-1.09,1.13-3.26,1.47a37.38,37.38,0,0,1-5.66.51q-3.65,0-4.52-1.8c-.58-1.19-.87-3.73-.87-7.6q0-1.38,5.15-2a9.47,9.47,0,0,0,3.5-1.26,3,3,0,0,0,1.59-2.64c0-1.11-.9-1.67-2.69-1.67a13.55,13.55,0,0,0-5.66,1.37,18,18,0,0,1-3.38,1.38Zm9.4,16.28a14.59,14.59,0,0,1,6.22,1q2.16,1.05,2.16,4.34,0,5.39-8.38,5.39t-8.38-5.39q0-5.39,8.38-5.39Z"/><path d="M24,41a5.48,5.48,0,0,1-2-.23,1.18,1.18,0,0,1-.66-.75l-7-19.23c0-.4.75-.87,2.25-1.39a13.64,13.64,0,0,1,4.56-.79c2,0,3,.62,3.15,1.86l1.07,10h.45l.88-10q.15-1.86,4.25-1.86a3.6,3.6,0,0,1,2.12.43,1.59,1.59,0,0,1,.6,1.12l1,10.3h.44l.82-10c.06-.61.78-1.07,2.16-1.39a18.56,18.56,0,0,1,4.1-.47,4.6,4.6,0,0,1,2.77.6,1.67,1.67,0,0,1,.74,1.26L39.07,40c-.23.65-1.78,1-4.66,1a4.43,4.43,0,0,1-1.74-.23,1.16,1.16,0,0,1-.6-.75l-1.64-5.49h-.37L28.39,40c-.19.65-1.64,1-4.36,1ZM10.33,0H112.55a10.35,10.35,0,0,1,10.33,10.33V57.74a10.35,10.35,0,0,1-10.33,10.33L84.42,68A20.4,20.4,0,0,0,85,66h0a23.05,23.05,0,0,0,.45-2.57H111a6.87,6.87,0,0,0,6.85-6.85V11.87A6.87,6.87,0,0,0,111,5H11.1C7.33,5,5,8.11,5,11.87V56.58a6.86,6.86,0,0,0,6.84,6.85H14a1.75,1.75,0,0,1,1.62,1.85l-.16,8.86L26.7,63.93a1.71,1.71,0,0,1,1.22-.5H38.85l0,.09A20.8,20.8,0,0,0,40.79,68l-11.08,0L14,81.55a1.74,1.74,0,0,1-2.87-1.44l-.7-12h-.14A10.35,10.35,0,0,1,0,57.74V10.33A10.35,10.35,0,0,1,10.33,0ZM57.84,40.26V31.49a21.45,21.45,0,0,0-.19-3.43c-.12-.72-.43-1.08-.91-1.08s-.63.29-.63.86V40.26c0,.23-.61.41-1.83.55a32.87,32.87,0,0,1-3.75.21,9.6,9.6,0,0,1-2.43-.18c-.34-.11-.51-.31-.51-.58V18.41c0-.44.61-.88,1.83-1.33a11.25,11.25,0,0,1,3.85-.66c1.41,0,2.3.27,2.68.79a.87.87,0,0,1,.19.54v4.63l-.35,2.18H56a3.84,3.84,0,0,1,1.39-1.17,8,8,0,0,1,3.85-.94c2,0,3.34.63,4,1.9s1,3.34,1,6.2v9.71c0,.23-.61.41-1.84.55a33.14,33.14,0,0,1-3.75.21,9.45,9.45,0,0,1-2.41-.18c-.34-.11-.51-.31-.51-.58Zm19.37-6.37c0,1.37.65,2,2,2a8.21,8.21,0,0,0,3-.77q1.83-.78,1.92-.78c.4,0,.92.6,1.58,1.8a6.5,6.5,0,0,1,1,2.65q0,1.23-2.52,1.86a20.33,20.33,0,0,1-4.93.63,18.28,18.28,0,0,1-4-.38,10,10,0,0,1-2.65-1,7.37,7.37,0,0,1-1.79-1.43,7.29,7.29,0,0,1-1.16-1.63,7.73,7.73,0,0,1-.59-1.72,12.88,12.88,0,0,1-.32-2.87q0-5.73,3-7.91a9,9,0,0,1,3.31-1.54,18.24,18.24,0,0,1,4.32-.44q8,0,8,5.54,0,5.9-9,5.9Zm-.07-4.6v2.08a1.83,1.83,0,0,0,1.5-.73,2.71,2.71,0,0,0,.59-1.76c0-1.26-.33-1.9-1-1.9s-1.11.77-1.11,2.31Zm31.32,1.26v9.71c0,.23-.6.41-1.8.55A31.87,31.87,0,0,1,103,41a10.18,10.18,0,0,1-2.46-.18c-.37-.11-.55-.31-.55-.58v-10a10.07,10.07,0,0,0-.11-1.86c-.08-.29-.14-.55-.21-.79a.79.79,0,0,0-.79-.6.77.77,0,0,0-.88.86V40.26c0,.23-.59.41-1.78.55a31.57,31.57,0,0,1-3.69.21A10.28,10.28,0,0,1,90,40.84c-.38-.11-.57-.31-.57-.58V24.71c0-.44.6-.88,1.81-1.32a11.13,11.13,0,0,1,3.83-.66c1.35,0,2.1.39,2.27,1.17l.29,1.38h.22A5.05,5.05,0,0,1,101,22.73a6.76,6.76,0,0,1,2-.28c2.12,0,3.56.63,4.3,1.9s1.12,3.34,1.12,6.2Z"/></svg>