<svg id="Layer_1" data-name="Layer 1" xmlns="http://www.w3.org/2000/svg" viewBox="0 0 122.88 78.08"><defs><style>.cls-1{fill:#ff4141;}</style></defs><title>where</title><path class="cls-1" d="M51,55.19c-.94,0-1.76-1.13-2.45-3.37a22,22,0,0,1-1-6.46c0-.47.52-1,1.57-1.59a17.48,17.48,0,0,1,4.76-1.57,32.87,32.87,0,0,1,6.94-.68q14.53,0,14.53,10.12a10,10,0,0,1-1.19,5,7.88,7.88,0,0,1-2.86,3.06,13.54,13.54,0,0,1-6.23,1.93l-1.16.05a9.62,9.62,0,0,0,.25,1.77,10.5,10.5,0,0,1,.25,2.13c0,.54-.92,1-2.76,1.24a31.19,31.19,0,0,1-4.78.43c-2.06,0-3.34-.51-3.83-1.52s-.73-3.16-.73-6.43q0-1.17,4.35-1.72a8.13,8.13,0,0,0,3-1.07A2.49,2.49,0,0,0,61,54.28c0-1-.76-1.42-2.28-1.42A11.5,11.5,0,0,0,53.89,54,15,15,0,0,1,51,55.19ZM59,69a12.39,12.39,0,0,1,5.27.89c1.22.59,1.82,1.81,1.82,3.67q0,4.56-7.09,4.56c-4.72,0-7.09-1.52-7.09-4.56S54.26,69,59,69Z"/><path d="M22.74,34.69a5,5,0,0,1-1.68-.18,1.08,1.08,0,0,1-.56-.64L14.61,17.6c0-.34.63-.73,1.9-1.17a11.53,11.53,0,0,1,3.86-.67c1.67,0,2.56.52,2.66,1.57l.91,8.46h.38l.74-8.46c.09-1,1.29-1.57,3.6-1.57a3.08,3.08,0,0,1,1.79.36,1.33,1.33,0,0,1,.51.95l.88,8.72h.37l.69-8.46c.06-.51.66-.9,1.83-1.17a15.28,15.28,0,0,1,3.47-.4,3.86,3.86,0,0,1,2.34.51,1.39,1.39,0,0,1,.63,1.06L35.46,33.87c-.19.55-1.51.82-3.94.82a3.93,3.93,0,0,1-1.47-.18,1,1,0,0,1-.51-.64l-1.38-4.64h-.32l-1.42,4.64c-.16.55-1.38.82-3.68.82ZM8.74,0H114.15a8.76,8.76,0,0,1,8.73,8.73V48.84a8.76,8.76,0,0,1-8.73,8.74l-33.27,0a16.62,16.62,0,0,0,.51-1.7h0a18.08,18.08,0,0,0,.38-2.18h31.08a5.8,5.8,0,0,0,5.79-5.78V10a5.81,5.81,0,0,0-5.79-5.79H9.39C6.2,4.25,4.25,6.86,4.25,10V47.87A5.8,5.8,0,0,0,10,53.65h1.79a1.48,1.48,0,0,1,1.37,1.57l-.13,7.5,9.52-8.65a1.47,1.47,0,0,1,1-.43H42.33l0,.08A17.1,17.1,0,0,0,44,57.5l-18.85,0L11.87,69a1.46,1.46,0,0,1-2.07-.16,1.49,1.49,0,0,1-.35-1l-.6-10.2H8.74A8.75,8.75,0,0,1,0,48.84V8.73A8.76,8.76,0,0,1,8.74,0ZM51,34.05V26.64a18.35,18.35,0,0,0-.16-2.91q-.16-.9-.78-.9c-.35,0-.53.24-.53.72v10.5c0,.2-.51.36-1.55.47a27.32,27.32,0,0,1-3.17.17,8.4,8.4,0,0,1-2.05-.14c-.29-.1-.43-.26-.43-.5V15.57c0-.37.52-.74,1.55-1.12a9.53,9.53,0,0,1,3.25-.56c1.19,0,1.95.22,2.27.67a.71.71,0,0,1,.16.45v3.92l-.29,1.84h.18a3.11,3.11,0,0,1,1.18-1,6.69,6.69,0,0,1,3.25-.8c1.69,0,2.83.53,3.43,1.61a11.5,11.5,0,0,1,.89,5.24v8.21c0,.2-.52.36-1.56.47a27.69,27.69,0,0,1-3.17.17,8.29,8.29,0,0,1-2-.14c-.29-.1-.43-.26-.43-.5Zm16.08-5.38c0,1.15.55,1.73,1.65,1.73a7,7,0,0,0,2.51-.65c1-.44,1.57-.66,1.63-.66.34,0,.78.51,1.33,1.52a5.59,5.59,0,0,1,.83,2.24c0,.7-.71,1.22-2.14,1.58a17.4,17.4,0,0,1-4.17.53,14.9,14.9,0,0,1-3.41-.32,8.13,8.13,0,0,1-2.24-.81,6.66,6.66,0,0,1-2.5-2.59,6.68,6.68,0,0,1-.5-1.45,10.77,10.77,0,0,1-.27-2.43q0-4.86,2.53-6.69a7.58,7.58,0,0,1,2.8-1.31A15.75,15.75,0,0,1,68.83,19q6.75,0,6.75,4.69,0,5-7.58,5Zm-.05-3.9v1.76a1.53,1.53,0,0,0,1.26-.61,2.31,2.31,0,0,0,.5-1.49c0-1.07-.28-1.6-.83-1.6s-.93.65-.93,1.94Zm17.31,1.5v7.78c0,.2-.51.36-1.51.47a26.46,26.46,0,0,1-3.12.17,9,9,0,0,1-2.09-.14c-.32-.1-.48-.26-.48-.5V20.91c0-.34.49-.71,1.48-1.1a8.66,8.66,0,0,1,3.22-.58c1.17,0,1.82.32,2,1l.27,1.22h.19a3.36,3.36,0,0,1,1.78-1.72,6.32,6.32,0,0,1,2.83-.7,3.33,3.33,0,0,1,2,.45,1.42,1.42,0,0,1,.57,1.16c0,.47,0,1.07-.11,1.8a10.94,10.94,0,0,1-.52,2.37c-.27.86-.63,1.28-1.08,1.28a10.6,10.6,0,0,1-1.68-.4,9.21,9.21,0,0,0-2.33-.4c-.61,0-1,.09-1.15.27a1.14,1.14,0,0,0-.22.75Zm15.44,2.4c0,1.15.55,1.73,1.65,1.73a7,7,0,0,0,2.51-.65c1-.44,1.57-.66,1.63-.66.33,0,.78.51,1.33,1.52a5.59,5.59,0,0,1,.83,2.24c0,.7-.72,1.22-2.14,1.58a17.4,17.4,0,0,1-4.17.53A15,15,0,0,1,98,34.64a8.39,8.39,0,0,1-2.24-.81,6.42,6.42,0,0,1-1.52-1.22,6,6,0,0,1-1-1.37,7.26,7.26,0,0,1-.51-1.45,11.38,11.38,0,0,1-.26-2.43q0-4.86,2.53-6.69a7.58,7.58,0,0,1,2.8-1.31,15.66,15.66,0,0,1,3.65-.37q6.75,0,6.75,4.69,0,5-7.57,5Zm-.06-3.9v1.76a1.55,1.55,0,0,0,1.27-.61,2.3,2.3,0,0,0,.49-1.49c0-1.07-.27-1.6-.82-1.6s-.94.65-.94,1.94Z"/></svg>