<svg id="Layer_1" data-name="Layer 1" xmlns="http://www.w3.org/2000/svg" viewBox="0 0 122.88 87.89"><defs><style>.cls-1{fill-rule:evenodd;}.cls-2{fill:#ff4141;}</style></defs><title>which</title><path class="cls-1" d="M9.83,0H113.05a9.85,9.85,0,0,1,9.83,9.83V55a9.85,9.85,0,0,1-9.83,9.83l-30.51,0a18.43,18.43,0,0,0,.58-1.92h0a19.06,19.06,0,0,0,.43-2.45h28.05a6.55,6.55,0,0,0,6.52-6.52V11.31a6.54,6.54,0,0,0-6.52-6.52h-101C7,4.79,4.79,7.72,4.79,11.31V53.88a6.54,6.54,0,0,0,6.52,6.52h2a1.66,1.66,0,0,1,1.54,1.76l1.32,8.44,9.24-9.73a1.64,1.64,0,0,1,1.17-.48H39.15l0,.09A19.29,19.29,0,0,0,41,64.72l-12.71,0-13.46,13a1.65,1.65,0,0,1-2.72-1.36L10,64.81H9.83A9.85,9.85,0,0,1,0,55V9.83A9.85,9.85,0,0,1,9.83,0ZM23.26,38.84a5.28,5.28,0,0,1-1.86-.2,1.22,1.22,0,0,1-.62-.71L14.27,20c0-.37.7-.8,2.11-1.29a12.56,12.56,0,0,1,4.25-.74c1.85,0,2.83.58,2.95,1.74l1,9.34H25l.82-9.34c.1-1.16,1.43-1.74,4-1.74a3.4,3.4,0,0,1,2,.4,1.45,1.45,0,0,1,.56,1l1,9.64h.41l.77-9.34c.06-.57.73-1,2-1.3a17.32,17.32,0,0,1,3.83-.44,4.34,4.34,0,0,1,2.59.56,1.54,1.54,0,0,1,.69,1.18l-6.3,18.27c-.22.61-1.67.91-4.37.91a4.19,4.19,0,0,1-1.62-.2,1.13,1.13,0,0,1-.56-.71L29.24,32.8h-.35l-1.56,5.13c-.18.61-1.54.91-4.07.91Zm31.27-.7v-8.2a20.25,20.25,0,0,0-.18-3.21c-.12-.67-.4-1-.85-1s-.59.26-.59.79V38.14c0,.21-.57.39-1.71.51a31,31,0,0,1-3.51.19,9.27,9.27,0,0,1-2.27-.16c-.31-.11-.47-.29-.47-.54V17.71c0-.41.57-.82,1.71-1.24a10.54,10.54,0,0,1,3.59-.61c1.32,0,2.16.24,2.51.73a.83.83,0,0,1,.18.5v4.34l-.33,2h.21a3.43,3.43,0,0,1,1.3-1.09,7.46,7.46,0,0,1,3.59-.89c1.87,0,3.13.6,3.79,1.79a12.58,12.58,0,0,1,1,5.79v9.08c0,.21-.58.39-1.73.51a31.23,31.23,0,0,1-3.51.19A9.12,9.12,0,0,1,55,38.68c-.31-.11-.47-.29-.47-.54ZM72.65,23.61V38.14c0,.21-.56.39-1.69.51a30.45,30.45,0,0,1-3.48.19,9.81,9.81,0,0,1-2.3-.16q-.51-.16-.51-.54v-14c0-.43.55-.86,1.66-1.28A10,10,0,0,1,70,22.22c1.79,0,2.68.46,2.68,1.39Zm-4-7.75a6.77,6.77,0,0,1,3,.57,2.14,2.14,0,0,1,1.1,2.08q0,2.65-4.12,2.65t-4.13-2.65c0-1.77,1.36-2.65,4.1-2.65Zm10,22.48a7.32,7.32,0,0,1-1.52-1,5.6,5.6,0,0,1-1.34-1.53,10.88,10.88,0,0,1-1.24-5.54,10,10,0,0,1,.68-3.79,7.18,7.18,0,0,1,1.65-2.58,8.29,8.29,0,0,1,2.24-1.5,9.57,9.57,0,0,1,4.07-.95A14.36,14.36,0,0,1,88,22a1.84,1.84,0,0,1,1.34,1.79,8.7,8.7,0,0,1-.46,2.7c-.3.95-.7,1.43-1.19,1.43a6.51,6.51,0,0,1-1.43-.5,5.42,5.42,0,0,0-2.07-.5,1.48,1.48,0,0,0-1.32.69,5.29,5.29,0,0,0-.46,2.68A6.13,6.13,0,0,0,82.79,33a1.4,1.4,0,0,0,1.29.73,5.5,5.5,0,0,0,2.16-.59,8.45,8.45,0,0,1,1.45-.59c.37,0,.73.44,1.07,1.32a6.53,6.53,0,0,1,.52,2.36,2.27,2.27,0,0,1-1.65,2.23,12.86,12.86,0,0,1-4.47.63,11,11,0,0,1-4.49-.77Zm22-.2v-8.2a20.55,20.55,0,0,0-.17-3.21c-.12-.67-.41-1-.86-1S99,26,99,26.52V38.14c0,.21-.57.39-1.71.51a30.93,30.93,0,0,1-3.5.19,9.21,9.21,0,0,1-2.27-.16c-.32-.11-.47-.29-.47-.54V17.71c0-.41.56-.82,1.7-1.24a10.55,10.55,0,0,1,3.6-.61c1.32,0,2.15.24,2.51.73a.88.88,0,0,1,.17.5v4.34l-.32,2H99a3.39,3.39,0,0,1,1.29-1.09,7.5,7.5,0,0,1,3.6-.89c1.86,0,3.13.6,3.78,1.79a12.58,12.58,0,0,1,1,5.79v9.08c0,.21-.57.39-1.72.51a31.23,31.23,0,0,1-3.51.19,9.07,9.07,0,0,1-2.25-.16q-.48-.16-.48-.54Z"/><path class="cls-2" d="M49,62.12q-1.61,0-2.77-3.79A24.53,24.53,0,0,1,45,51.07c0-.54.59-1.13,1.77-1.8a20.25,20.25,0,0,1,5.36-1.77A37.47,37.47,0,0,1,60,46.73q16.35,0,16.36,11.4A11.26,11.26,0,0,1,75,63.75a8.94,8.94,0,0,1-3.22,3.45,15.31,15.31,0,0,1-7,2.17l-1.32,0a11.29,11.29,0,0,0,.29,2A11.88,11.88,0,0,1,64,73.81c0,.61-1,1.07-3.1,1.4a36,36,0,0,1-5.39.48Q52,75.69,51.2,74t-.83-7.24q0-1.3,4.9-1.94a9.08,9.08,0,0,0,3.34-1.19,2.83,2.83,0,0,0,1.51-2.51c0-1.06-.86-1.6-2.57-1.6a12.81,12.81,0,0,0-5.38,1.31A16.66,16.66,0,0,1,49,62.12ZM57.9,77.63a13.82,13.82,0,0,1,5.92,1q2.05,1,2.06,4.13,0,5.13-8,5.13t-8-5.13q0-5.13,8-5.13Z"/></svg>