<svg id="Layer_1" data-name="Layer 1" xmlns="http://www.w3.org/2000/svg" viewBox="0 0 122.88 104.37"><defs><style>.cls-1{fill-rule:evenodd;}.cls-2{fill:#ff4141;}</style></defs><title>who</title><path class="cls-1" d="M11.68,0H111.2a11.71,11.71,0,0,1,11.68,11.68V65.29A11.71,11.71,0,0,1,111.2,77l-23.66,0a17.65,17.65,0,0,0,.69-2.28h0a24.64,24.64,0,0,0,.51-2.91h20.74A7.77,7.77,0,0,0,117.19,64V13.42a7.76,7.76,0,0,0-7.74-7.73H12.55c-4.26,0-6.86,3.48-6.86,7.73V64a7.76,7.76,0,0,0,7.73,7.74h2.4a2,2,0,0,1,1.83,2.09l-.18,10L30.19,72.29a2,2,0,0,1,1.39-.57H36l0,.1a22.86,22.86,0,0,0,2.16,5H33.6L15.87,92.21a2,2,0,0,1-3.24-1.62L11.83,77h-.15A11.7,11.7,0,0,1,0,65.29V11.68A11.71,11.71,0,0,1,11.68,0ZM30.36,46.38a6.47,6.47,0,0,1-2.24-.25,1.4,1.4,0,0,1-.75-.86L19.49,23.53c0-.46.85-1,2.55-1.57a15.34,15.34,0,0,1,5.15-.89c2.23,0,3.42.7,3.56,2.1L32,34.47h.5l1-11.3q.18-2.1,4.82-2.1a4.08,4.08,0,0,1,2.38.48,1.7,1.7,0,0,1,.68,1.26l1.18,11.66H43l.92-11.3c.08-.69.89-1.21,2.45-1.57A20.43,20.43,0,0,1,51,21.07a5.27,5.27,0,0,1,3.14.67A1.9,1.9,0,0,1,55,23.17l-7.63,22.1q-.39,1.11-5.28,1.11a5.18,5.18,0,0,1-2-.25,1.33,1.33,0,0,1-.68-.86l-1.85-6.2h-.43l-1.89,6.2q-.31,1.11-4.92,1.11Zm38.23-.86V35.61a23.71,23.71,0,0,0-.22-3.88c-.14-.81-.48-1.22-1-1.22s-.71.32-.71,1v14q0,.39-2.07.63a39.16,39.16,0,0,1-4.24.23,11.26,11.26,0,0,1-2.75-.2Q57,46,57,45.52V20.82q0-.75,2.07-1.5a12.67,12.67,0,0,1,4.35-.75c1.59,0,2.6.3,3,.89a1,1,0,0,1,.21.61v5.24l-.39,2.46h.25a4.21,4.21,0,0,1,1.57-1.32,9.1,9.1,0,0,1,4.35-1.07c2.26,0,3.78.72,4.58,2.16s1.19,3.77,1.19,7v11c0,.26-.69.47-2.08.63a39.58,39.58,0,0,1-4.24.23,11.11,11.11,0,0,1-2.73-.2q-.57-.2-.57-.66Zm23.5,1.18a20.47,20.47,0,0,1-4.6-.46A9.36,9.36,0,0,1,84,44.59c-2.16-1.56-3.25-4.49-3.25-8.76q0-5.71,3.32-8.17a13.21,13.21,0,0,1,8-2.28,28.35,28.35,0,0,1,3.6.2,12.29,12.29,0,0,1,3,.83,6.5,6.5,0,0,1,2.5,1.75,8.86,8.86,0,0,1,1.55,3.05,15.7,15.7,0,0,1,.6,4.62q0,5.41-3.06,8.14a12,12,0,0,1-8.24,2.73Zm-1.25-7a3.53,3.53,0,0,0,.52,1.53,1.15,1.15,0,0,0,1.43,0,3.51,3.51,0,0,0,.49-1.53,18.06,18.06,0,0,0,.24-3.23c0-1.29,0-2.29-.09-3a12,12,0,0,0-.22-1.63,2.47,2.47,0,0,0-.34-.89.9.9,0,0,0-.76-.46,1,1,0,0,0-.73.27,3.45,3.45,0,0,0-.54,1.56,21.48,21.48,0,0,0-.25,3.69,21.19,21.19,0,0,0,.25,3.68Z"/><path class="cls-2" d="M47.65,73.77c-1.26,0-2.36-1.5-3.28-4.5A29.13,29.13,0,0,1,43,60.64q0-.95,2.1-2.13a23.63,23.63,0,0,1,6.36-2.1,44.3,44.3,0,0,1,9.28-.92q19.43,0,19.42,13.54a13.3,13.3,0,0,1-1.59,6.67,10.59,10.59,0,0,1-3.82,4.1,18.23,18.23,0,0,1-8.33,2.57l-1.55.06a13.37,13.37,0,0,0,.33,2.37,14,14,0,0,1,.34,2.85c0,.72-1.23,1.27-3.69,1.66a42.67,42.67,0,0,1-6.39.57q-4.14,0-5.11-2t-1-8.6q0-1.55,5.83-2.3a10.8,10.8,0,0,0,4-1.42,3.33,3.33,0,0,0,1.79-3c0-1.26-1-1.89-3.05-1.89a15.25,15.25,0,0,0-6.39,1.55,20.23,20.23,0,0,1-3.83,1.56ZM58.28,92.18a16.54,16.54,0,0,1,7,1.19c1.62.79,2.44,2.42,2.44,4.9q0,6.11-9.48,6.1t-9.48-6.1q0-6.09,9.48-6.09Z"/></svg>