<?xml version="1.0" encoding="utf-8"?><svg version="1.1" id="Layer_1" xmlns="http://www.w3.org/2000/svg" xmlns:xlink="http://www.w3.org/1999/xlink" x="0px" y="0px" viewBox="0 0 122.88 41.04" style="enable-background:new 0 0 122.88 41.04" xml:space="preserve"><g><path d="M115.39,6.09c0-2.07,1.68-3.75,3.75-3.75c2.07,0,3.75,1.68,3.75,3.75v28.86c0,2.07-1.68,3.75-3.75,3.75 c-2.07,0-3.75-1.68-3.75-3.75V6.09L115.39,6.09z M0,6.09c0-2.07,1.68-3.75,3.75-3.75c2.07,0,3.75,1.68,3.75,3.75v28.86 c0,2.07-1.68,3.75-3.75,3.75C1.68,38.69,0,37.02,0,34.95V6.09L0,6.09z M13.27,22.03c-0.18-0.41-0.29-0.85-0.31-1.29l0,0l0-0.09l0,0 l0-0.09v0v-0.09v0l0-0.09l0,0l0-0.09l0,0c0.03-0.44,0.13-0.88,0.31-1.29l0-0.01l0.01-0.01l0.03-0.07l0.01-0.01l0.03-0.07l0.01-0.02 l0.01-0.01c0.12-0.24,0.27-0.47,0.45-0.68L27.33,1.4c1.29-1.61,3.65-1.86,5.25-0.57c1.61,1.29,1.86,3.65,0.57,5.25l-8.67,10.73 l71-0.02L86.84,6.08c-1.29-1.61-1.04-3.96,0.57-5.25c1.61-1.29,3.96-1.04,5.25,0.57l13.52,16.72c0.18,0.21,0.33,0.44,0.45,0.68 l0.01,0.01l0.01,0.02l0.03,0.07l0.01,0.01l0.03,0.07l0.01,0.01l0,0.01c0.18,0.41,0.29,0.85,0.31,1.29l0,0l0,0.09l0,0l0,0.09v0v0.09 v0l0,0.09l0,0l0,0.09l0,0c-0.03,0.44-0.13,0.88-0.31,1.29l0,0.01l-0.01,0.01l-0.03,0.07l-0.01,0.01l-0.03,0.07l-0.01,0.02 l-0.01,0.01c-0.12,0.24-0.27,0.47-0.45,0.68L92.66,39.64c-1.29,1.61-3.65,1.86-5.25,0.57c-1.61-1.29-1.86-3.65-0.57-5.25l8.65-10.7 l-70.97,0.02l8.63,10.68c1.29,1.61,1.04,3.96-0.57,5.25c-1.61,1.29-3.96,1.04-5.25-0.57L13.82,22.92 c-0.18-0.21-0.33-0.44-0.45-0.68l-0.01-0.01l-0.01-0.02l-0.03-0.07l-0.01-0.01l-0.03-0.07l-0.01-0.01L13.27,22.03L13.27,22.03z"/></g></svg>