<svg id="Layer_1" data-name="Layer 1" xmlns="http://www.w3.org/2000/svg" viewBox="0 0 110.32 122.88"><defs><style>.cls-1{fill-rule:evenodd;}</style></defs><title>wifi-internet-bill</title><path class="cls-1" d="M46.79,8ZM16.85,24.35a2.24,2.24,0,1,1-3-3.35c4.33-3.83,8.95-5.79,13.65-5.71S36.68,17.37,41,21.45a2.24,2.24,0,0,1-3.08,3.26c-3.48-3.28-7-4.88-10.47-4.94s-7.14,1.51-10.61,4.58Zm10.57,7.73a3.74,3.74,0,1,1-3.74,3.73,3.73,3.73,0,0,1,3.74-3.73ZM21.86,30.6A2.24,2.24,0,0,1,19,27.12a13.25,13.25,0,0,1,8.4-3.24,13,13,0,0,1,8.35,3.2A2.24,2.24,0,1,1,33,30.56a8.71,8.71,0,0,0-5.53-2.2,8.94,8.94,0,0,0-5.58,2.24ZM88.23,85.49H29.7V80.06H88.23v5.43Zm0-18H29.7v-5c1.17-.08,2.31-.21,3.44-.39H88.23v5.43Zm2.21-18H62.31V44H90.44v5.44ZM103,107.93l1.88,1.1V22.19H62.1a33.76,33.76,0,0,0-1.26-5.43h46.77a2.72,2.72,0,0,1,2.71,2.72v94.26a2.65,2.65,0,0,1-.37,1.36,2.7,2.7,0,0,1-3.7,1L102,113.64,93.11,122a2.7,2.7,0,0,1-3.68,0l-8.58-7.84-8.47,7.64a2.72,2.72,0,0,1-3.59,0l-8.92-7.74-8.21,8a2.71,2.71,0,0,1-3.75,0l-8.49-8-8.65,7.75a2.71,2.71,0,0,1-3.77,0l-8.81-8.38L14.06,116a2.68,2.68,0,0,1-1.52.47,2.72,2.72,0,0,1-2.72-2.72v-56a35.44,35.44,0,0,0,5.43,2.56V109l1.95-1.15a2.72,2.72,0,0,1,3.33.45l8.4,8,8.74-7.82a2.7,2.7,0,0,1,3.65.05l8.42,7.92,8.14-7.89a2.71,2.71,0,0,1,3.71-.07l8.94,7.76L79,108.55a2.72,2.72,0,0,1,3.8.16l8.38,7.67,8.58-8.08a2.71,2.71,0,0,1,3.21-.37ZM27.42,4.06A23.36,23.36,0,1,1,4.06,27.42,23.36,23.36,0,0,1,27.42,4.06ZM46.8,46.79Zm-38.75,0ZM8.05,8A27.38,27.38,0,1,1,0,27.42,27.31,27.31,0,0,1,8.05,8Z"/></svg>