<svg id="Layer_1" data-name="Layer 1" xmlns="http://www.w3.org/2000/svg" viewBox="0 0 92.53 122.88"><defs><style>.cls-1{fill-rule:evenodd;}</style></defs><title>wifi-location</title><path class="cls-1" d="M46.27,18.21A28.62,28.62,0,1,1,17.64,46.83,28.62,28.62,0,0,1,46.27,18.21Zm1.36,97.49A82.87,82.87,0,0,0,64,101.81,85.44,85.44,0,0,0,84.56,62.23c2.81-13.67,1.5-27-4.75-37.34a36.74,36.74,0,0,0-6.63-8.06C65.62,9.93,57,6.64,48.23,6.56,39.07,6.49,29.77,10,21.55,16.5a38.54,38.54,0,0,0-8.63,9.56C7.15,35.15,5.41,46.43,7.31,58.24c1.94,12,7.66,24.61,16.77,36A102.46,102.46,0,0,0,47.63,115.7Zm21.24-9.46a89.32,89.32,0,0,1-19.33,16,3.28,3.28,0,0,1-3.71.13,109.25,109.25,0,0,1-26.9-24c-9.8-12.31-16-26-18.1-39.1C-1.33,45.89.7,33,7.36,22.53a45.3,45.3,0,0,1,10.1-11.18C26.85,3.87,37.6-.09,48.29,0,58.6.09,68.79,3.92,77.6,12a43.1,43.1,0,0,1,7.82,9.52c7.15,11.8,8.71,26.83,5.57,42.05a92.2,92.2,0,0,1-22.12,42.7ZM46.26,54a4.08,4.08,0,1,1-4.07,4.08A4.08,4.08,0,0,1,46.26,54Zm-6.63-2.19a2.93,2.93,0,1,1-3.69-4.54,16.44,16.44,0,0,1,10.36-4,16.08,16.08,0,0,1,10.29,4,2.93,2.93,0,0,1-3.69,4.54,10.36,10.36,0,0,0-6.6-2.64,10.63,10.63,0,0,0-6.67,2.69Zm-6.1-9a2.93,2.93,0,0,1-3.88-4.38c5.31-4.7,11-7.1,16.76-7S57.64,34,63,39a2.93,2.93,0,0,1-4,4.27c-4.2-4-8.46-5.9-12.61-6s-8.6,1.82-12.79,5.53Z"/></svg>