<svg xmlns="http://www.w3.org/2000/svg" shape-rendering="geometricPrecision" text-rendering="geometricPrecision" image-rendering="optimizeQuality" fill-rule="evenodd" clip-rule="evenodd" viewBox="0 0 512 429.55"><path d="M40.69 0h430.62C493.69 0 512 18.31 512 40.69v348.18c0 22.37-18.31 40.68-40.69 40.68H40.69C18.31 429.55 0 411.24 0 388.87V40.69C0 18.31 18.31 0 40.69 0zm166.47 220.68v-39.57c0-6.94 5.64-12.57 12.58-12.57h126.32c6.94 0 12.58 5.63 12.58 12.57v103.66c0 6.94-5.64 12.57-12.58 12.57h-28.65v39.57c0 6.94-5.63 12.57-12.57 12.57h-138.9c-6.94 0-12.58-5.63-12.58-12.57V233.25c0-6.94 5.64-12.57 12.58-12.57h41.22zm110.25 51.51h16.08v-78.5H232.31v26.99h72.53c6.94 0 12.57 5.63 12.57 12.57v38.94zm-25.15-26.36H178.51v78.5h113.75v-78.5zm182.79-118.97H38.78v253.05c0 6.25 5.02 11.26 11.27 11.26h413.57c6.25 0 11.26-5.01 11.26-11.26V126.86h.17zm-42.47-81.12c11.1 0 20.1 9 20.1 20.1 0 11.1-9 20.09-20.1 20.09-11.09 0-20.09-8.99-20.09-20.09s9-20.1 20.09-20.1zm-136.21 0c11.1 0 20.09 9 20.09 20.1 0 11.1-8.99 20.09-20.09 20.09s-20.1-8.99-20.1-20.09 9-20.1 20.1-20.1zm68.11 0c11.1 0 20.09 9 20.09 20.1 0 11.1-9 20.09-20.09 20.09-11.1 0-20.1-8.99-20.1-20.09s9-20.1 20.1-20.1z"/></svg>