<?xml version="1.0" encoding="utf-8"?><svg version="1.1" id="Layer_1" xmlns="http://www.w3.org/2000/svg" xmlns:xlink="http://www.w3.org/1999/xlink" x="0px" y="0px" viewBox="0 0 122.88 119.59" style="enable-background:new 0 0 122.88 119.59" xml:space="preserve"><g><path d="M25.25,0h72.37c6.95,0,13.26,2.84,17.84,7.42c4.58,4.58,7.42,10.89,7.42,17.84v69.08c0,6.95-2.84,13.26-7.42,17.84 c-4.58,4.58-10.89,7.42-17.84,7.42H25.25c-6.95,0-13.26-2.84-17.84-7.42C2.84,107.6,0,101.29,0,94.34V25.26 c0-6.95,2.84-13.26,7.42-17.84C11.99,2.84,18.31,0,25.25,0L25.25,0z M36.79,49.51l-0.02-16.04l19.74-2.68v18.72L36.79,49.51 L36.79,49.51L36.79,49.51z M59.8,30.31l26.31-3.83v23.03H59.8V30.31L59.8,30.31z M86.11,52.8l-0.01,23.03l-26.31-3.7V52.8H86.11 L86.11,52.8L86.11,52.8z M56.51,71.7L36.79,69v-16.2h19.72V71.7L56.51,71.7z M98.33,100.22l1.33-0.09 c4.83-0.48,9.18-2.66,12.44-5.92c2.52-2.52,4.4-5.7,5.34-9.24V25.26c0-5.45-2.23-10.4-5.82-13.99c-3.59-3.59-8.55-5.82-13.99-5.82 H25.25c-5.45,0-10.4,2.23-13.99,5.82c-3.59,3.59-5.82,8.55-5.82,13.99v59.72c0.94,3.54,2.82,6.71,5.34,9.23 c3.72,3.72,8.84,6.02,14.48,6.02h72.37C97.86,100.23,98.1,100.23,98.33,100.22L98.33,100.22z"/></g></svg>