<?xml version="1.0" encoding="utf-8"?><svg version="1.1" id="Layer_1" xmlns="http://www.w3.org/2000/svg" xmlns:xlink="http://www.w3.org/1999/xlink" x="0px" y="0px" viewBox="0 0 122.88 103.91" style="enable-background:new 0 0 122.88 103.91" xml:space="preserve"><g><path d="M79.66,87.99c-5.78,0.78-11.59,1.2-17.43,1.24c-8.87,0.06-17.8-0.75-26.8-2.45c-7.87-1.47-15.74-3.6-23.61-6.38 c-2.84,0.86-4.88,1.93-6.2,3.24c-1.26,1.25-1.85,2.78-1.81,4.58c0.09,4.71,6.32,7.72,15.81,9.57c10.27,2.01,24.09,2.51,38.31,2.27 c15.3-0.26,30.92-0.68,42.73-2.49c10.94-1.68,18.35-4.39,18.42-9.06c0.02-1.47-0.56-2.86-1.83-4.22c-1.31-1.4-3.32-2.76-6.09-4.11 C100.66,84,90.16,86.6,79.66,87.99L79.66,87.99z M61.52,0c2.58,0,4.92,1.05,6.61,2.74c1.44,1.44,2.41,3.34,2.67,5.46h1.96v0 c0.05,0,0.09,0,0.14,0.01l0.26,0.02c0.35-0.07,0.73-0.04,1.07,0.09c11.37,1.06,20.74,4.28,27.45,10.12 c6.55,5.7,10.51,13.83,11.27,24.78c0.01,0.08,0.02,0.17,0.02,0.25v33.35c3.12,1.53,5.44,3.15,7.06,4.87 c1.98,2.12,2.89,4.38,2.86,6.86c-0.11,7.08-8.82,10.82-21.66,12.78c-11.96,1.83-27.76,2.25-43.24,2.52 c-14.47,0.25-28.57-0.27-39.09-2.33C7.57,99.31,0.13,95.22,0,88.27c-0.05-2.87,0.89-5.31,2.93-7.33c1.61-1.6,3.89-2.89,6.91-3.9 l-0.43-33.6c-0.01-0.13,0-0.26,0.01-0.39C10.95,32.1,14.9,24.03,20.9,18.35c5.96-5.64,13.87-8.85,23.36-10.1 c0.13-0.03,0.27-0.05,0.42-0.05h4.31c0.13-0.01,0.26-0.01,0.39,0h2.87c0.26-2.12,1.23-4.03,2.67-5.46C56.6,1.05,58.94,0,61.52,0 L61.52,0z M13.21,43.44l0.43,33.49c4.65,1.65,9.28,3.05,13.89,4.21c-0.55-13.16-0.74-26.48,1.59-38.7 c2.19-11.48,6.61-21.95,14.99-30.34c-8.41,1.2-15.39,4.07-20.6,9C18.17,26.17,14.62,33.48,13.21,43.44L13.21,43.44z M35.18,82.86 c8.09,1.56,16.18,2.4,24.27,2.52V12.02h-9.61c-9.77,8.19-14.66,19.05-16.97,31.14c-2.33,12.17-2.06,25.64-1.49,38.9 C32.64,82.35,33.91,82.61,35.18,82.86L35.18,82.86z M63.26,85.38c6.57-0.09,13.15-0.67,19.72-1.73c2.79-0.46,5.58-1.01,8.35-1.65 c0.57-13.25,0.83-26.69-1.49-38.85c-2.31-12.09-7.2-22.94-16.96-31.13l-0.18-0.02h-9.45V85.38L63.26,85.38z M109.15,76.7V43.49 c-0.68-9.87-4.19-17.13-9.98-22.17c-5-4.36-11.75-7.11-19.88-8.5c7.93,8.27,12.16,18.47,14.29,29.62 c2.33,12.2,2.14,25.49,1.6,38.62C99.86,79.86,104.51,78.4,109.15,76.7L109.15,76.7z"/></g></svg>