<?xml version="1.0" encoding="utf-8"?><svg version="1.1" id="Layer_1" xmlns="http://www.w3.org/2000/svg" xmlns:xlink="http://www.w3.org/1999/xlink" x="0px" y="0px" viewBox="0 0 122.88 85.02" style="enable-background:new 0 0 122.88 85.02" xml:space="preserve"><g><path d="M57.62,55.52L57.62,55.52L57.62,55.52z M121.32,55.52L121.32,55.52L121.32,55.52z M84.1,33.22c1.59,0,2.89,1.29,2.89,2.89 c0,1.59-1.29,2.89-2.89,2.89c-1.59,0-2.89-1.29-2.89-2.89C81.22,34.51,82.51,33.22,84.1,33.22L84.1,33.22z M87.63,51.6 c-0.62-0.43-0.77-1.28-0.34-1.9c0.43-0.62,1.28-0.77,1.9-0.34c1.39,0.96,2.75,1.44,4.08,1.44c1.33,0,2.69-0.49,4.08-1.44 c0.62-0.43,1.46-0.27,1.89,0.35c0.43,0.62,0.27,1.46-0.35,1.89c-1.85,1.27-3.73,1.92-5.63,1.92C91.35,53.53,89.48,52.89,87.63,51.6 L87.63,51.6z M103.05,33.22c1.59,0,2.89,1.29,2.89,2.89c0,1.59-1.29,2.89-2.89,2.89c-1.59,0-2.89-1.29-2.89-2.89 C100.16,34.51,101.45,33.22,103.05,33.22L103.05,33.22z M66.14,85.02c2.31-8.33,5.36-10.85,11.56-15.98 c0.94-0.78,1.95-1.62,2.93-2.44c0.02-0.02,0.04-0.03,0.06-0.05c0.22-0.28,0.37-0.47,0.51-0.65c0.72-0.92,1.32-1.68,1.8-2.7 c-3.06-1.64-5.9-4.08-8.33-7.4c-1.82,0.46-3.37,0.86-4.66,1.2c-1.49,0.39-2.65,0.69-3.41,0.86c-0.11,0.02-0.22,0.04-0.33,0.03 c-0.75-0.02-1.34-0.64-1.33-1.39c-2.37-16.58-3.23-44.62,15.38-53.7c4.2-2.05,9.01-2.94,14.35-2.8c4.59,0.11,9.04,1.25,12.99,3.52 c12.61,7.23,15.14,21.83,15.21,35.07c0.03,5.64-0.52,11.28-1.56,16.91c0,0.43-0.2,0.85-0.58,1.11c-0.61,0.43-1.46,0.28-1.9-0.33 c-0.62-0.88-1.41-1.61-2.36-2.23c-0.71-0.46-1.52-0.86-2.39-1.2c-2.82,4.59-6.52,8.02-10.6,10.18c0.37,1.06,0.88,1.87,1.51,2.87 l0.27,0.43c2.15,0.97,4.25,2.22,6.23,4.05c2.05,1.9,3.97,4.4,5.65,7.86c1.08,2.22,1.9,4.47,2.59,6.76h-2.86 c-0.6-1.9-1.3-3.76-2.18-5.57c-1.53-3.13-3.23-5.38-5.04-7.05c-1.51-1.4-3.12-2.41-4.77-3.22c-1.04,1.3-2.25,2.38-3.58,3.25 c-2.53,1.66-5.49,2.52-8.44,2.53c-2.96,0.01-5.9-0.84-8.42-2.59c-0.48-0.34-0.95-0.71-1.4-1.11c-0.6-0.51-1.18-1.07-1.72-1.68 c-0.69,0.57-1.3,1.08-1.89,1.57c-5.53,4.57-8.35,6.91-10.46,13.88H66.14L66.14,85.02z M100.1,60.15c0.31-0.14,0.62-0.29,0.94-0.44 c0.04-0.02,0.08-0.04,0.12-0.05c4.64-2.32,8.73-6.59,11.31-12.47c0.91-2.07,1.32-3.95,1.5-5.82c0.54-5.77,0.04-13.57,0.04-19.56 c-4.74,0.73-6.71-2.44-7.59-7.17c-9.68,8.83-20.96,10.77-33.59,6.87c0,5.93-0.47,13.37-0.01,19.1c0.14,1.73,0.48,3.48,1.22,5.43 C79.52,60.37,90.74,64.16,100.1,60.15L100.1,60.15z M85.49,64.35c-0.58,1.24-1.29,2.14-2.14,3.23c0.49,0.64,1.03,1.22,1.61,1.73 c0.1,0.08,0.21,0.17,0.31,0.25c2.24,1.73,4.86,2.62,7.48,2.66c2.62,0.04,5.25-0.77,7.5-2.46c0.89-0.66,1.71-1.46,2.46-2.38 l-0.01-0.01c-0.7-1.1-1.27-2.01-1.71-3.17C95.97,66.16,90.53,66.27,85.49,64.35L85.49,64.35z M66.6,57.88L66.6,57.88L66.6,57.88z M20.4,33.22c1.59,0,2.89,1.29,2.89,2.89c0,1.59-1.29,2.89-2.89,2.89c-1.59,0-2.89-1.29-2.89-2.89 C17.52,34.51,18.81,33.22,20.4,33.22L20.4,33.22z M23.93,51.6c-0.62-0.43-0.77-1.28-0.34-1.9c0.43-0.62,1.28-0.77,1.9-0.34 c1.39,0.96,2.75,1.44,4.08,1.44c1.33,0,2.69-0.49,4.08-1.44c0.62-0.43,1.46-0.27,1.89,0.35c0.43,0.62,0.27,1.46-0.35,1.89 c-1.85,1.27-3.73,1.92-5.63,1.92C27.66,53.53,25.78,52.89,23.93,51.6L23.93,51.6z M39.35,33.22c1.59,0,2.89,1.29,2.89,2.89 c0,1.59-1.29,2.89-2.89,2.89c-1.59,0-2.89-1.29-2.89-2.89C36.46,34.51,37.75,33.22,39.35,33.22L39.35,33.22z M2.44,85.02 c2.31-8.33,5.36-10.85,11.56-15.98c0.94-0.78,1.95-1.62,2.93-2.44c0.02-0.02,0.04-0.03,0.06-0.05c0.22-0.28,0.37-0.47,0.51-0.65 c0.72-0.92,1.32-1.68,1.8-2.7c-3.06-1.64-5.9-4.08-8.33-7.4c-1.82,0.46-3.37,0.86-4.66,1.2c-1.49,0.39-2.65,0.69-3.41,0.86 c-0.11,0.02-0.22,0.04-0.33,0.03c-0.75-0.02-1.34-0.64-1.33-1.39C-1.13,39.94-1.98,11.9,16.63,2.82c4.2-2.05,9.01-2.94,14.35-2.8 c4.59,0.11,9.04,1.25,12.99,3.52c12.61,7.23,15.14,21.83,15.21,35.07c0.03,5.64-0.52,11.28-1.56,16.91c0,0.43-0.2,0.85-0.58,1.11 c-0.61,0.43-1.46,0.28-1.9-0.33c-0.62-0.88-1.41-1.61-2.36-2.23c-0.71-0.46-1.52-0.86-2.39-1.2c-2.82,4.59-6.52,8.02-10.6,10.18 c0.37,1.06,0.88,1.87,1.51,2.87l0.27,0.43c2.15,0.97,4.25,2.22,6.23,4.05c2.05,1.9,3.97,4.4,5.65,7.86 c1.08,2.22,1.9,4.47,2.59,6.76h-2.85c-0.6-1.9-1.3-3.76-2.18-5.57c-1.53-3.13-3.23-5.38-5.04-7.05c-1.51-1.4-3.12-2.41-4.77-3.22 c-1.04,1.3-2.25,2.38-3.58,3.25c-2.53,1.66-5.49,2.52-8.44,2.53c-2.96,0.01-5.9-0.84-8.42-2.59c-0.48-0.34-0.95-0.71-1.4-1.11 c-0.6-0.51-1.18-1.07-1.72-1.68c-0.69,0.57-1.3,1.08-1.89,1.57c-5.53,4.57-8.35,6.91-10.46,13.88H2.44L2.44,85.02z M36.4,60.15 c0.31-0.14,0.62-0.29,0.94-0.44c0.04-0.02,0.08-0.04,0.12-0.05c4.64-2.32,8.73-6.59,11.31-12.47c0.91-2.07,1.32-3.95,1.5-5.82 c0.54-5.77,0.04-13.57,0.04-19.56c-4.74,0.73-6.71-2.44-7.59-7.17c-9.68,8.83-20.96,10.77-33.59,6.87c0,5.93-0.47,13.37-0.01,19.1 c0.14,1.73,0.48,3.48,1.22,5.43C15.82,60.37,27.04,64.16,36.4,60.15L36.4,60.15z M21.79,64.35c-0.58,1.24-1.29,2.14-2.14,3.23 c0.49,0.64,1.03,1.22,1.61,1.73c0.1,0.08,0.21,0.17,0.31,0.25c2.24,1.73,4.86,2.62,7.48,2.66c2.62,0.04,5.25-0.77,7.5-2.46 c0.89-0.66,1.71-1.46,2.46-2.38L39,67.37c-0.7-1.1-1.27-2.01-1.71-3.17C32.27,66.16,26.83,66.27,21.79,64.35L21.79,64.35z M2.9,57.88L2.9,57.88L2.9,57.88z"/></g></svg>