<?xml version="1.0" encoding="utf-8"?><svg version="1.1" id="Layer_1" xmlns="http://www.w3.org/2000/svg" xmlns:xlink="http://www.w3.org/1999/xlink" x="0px" y="0px" viewBox="0 0 87.71 122.88" style="enable-background:new 0 0 87.71 122.88" xml:space="preserve"><g><path d="M55.35,82.36c0.17-0.24,0.36-0.45,0.58-0.64c-0.61,0.11-1.24,0.26-1.87,0.46c-1.15,0.36-2.34,0.86-3.58,1.5 c-0.43,0.22-0.9,0.25-1.33,0.12c-0.42-0.13-0.8-0.43-1.02-0.86c-0.22-0.43-0.25-0.9-0.12-1.33c0.13-0.42,0.43-0.8,0.86-1.02 c1.87-0.97,3.67-1.67,5.41-2.09c1.74-0.42,3.41-0.55,5.03-0.41c1.66,0.15,3.24,0.6,4.73,1.35c1.48,0.74,2.88,1.78,4.19,3.13 c0.34,0.34,0.5,0.79,0.49,1.24c-0.01,0.45-0.18,0.89-0.53,1.23c-0.34,0.34-0.79,0.5-1.24,0.49c-0.45-0.01-0.89-0.18-1.23-0.53 c-1.01-1.04-2.08-1.84-3.2-2.41c-0.89-0.45-1.81-0.76-2.77-0.93c0.23,0.18,0.43,0.4,0.61,0.64c0.48,0.65,0.77,1.5,0.77,2.43 c0,1.03-0.36,1.96-0.94,2.64c-0.59,0.69-1.41,1.12-2.32,1.12c-0.91,0-1.73-0.43-2.32-1.12c-0.58-0.68-0.94-1.61-0.94-2.64 C54.61,83.84,54.89,83.01,55.35,82.36L55.35,82.36z M4.33,86.35c-0.02-0.04-0.05-0.08-0.07-0.12c-0.04-0.08-0.08-0.17-0.11-0.26 c-1.05-3.17-1.94-6.32-2.63-9.44c-0.69-3.12-1.17-6.2-1.39-9.23c-0.22-3.07-0.18-6.09,0.18-9.05c0.36-2.96,1.04-5.86,2.09-8.69 c1.31-3.54,3.29-6.96,5.76-10.14c2.55-3.29,5.62-6.32,9.01-8.92c0.95-0.73,1.92-1.42,2.92-2.08c0.91-0.6,1.85-1.18,2.8-1.72 c-1.38-2.2-2.27-4.31-2.74-6.33c-0.51-2.23-0.5-4.34-0.06-6.3c0.35-1.56,0.97-3.01,1.82-4.35c0.88-1.39,2.01-2.65,3.33-3.77 c1.23-1.04,2.63-1.96,4.15-2.75c1.55-0.8,3.23-1.46,4.99-1.97c3.88-1.13,8.17-1.51,12.3-1.02c3.86,0.46,7.6,1.67,10.76,3.75 c1.28,0.84,2.52,1.76,3.64,2.77c1.13,1.01,2.15,2.12,3,3.32c0.89,1.26,1.59,2.63,2.05,4.12c0.46,1.49,0.67,3.11,0.58,4.86 c-0.05,0.84-0.17,1.67-0.36,2.5c-0.19,0.83-0.46,1.65-0.8,2.47c-0.22,0.53-0.46,1.05-0.73,1.57c-0.23,0.44-0.49,0.89-0.76,1.34 c3.57,1.94,6.91,4.3,9.87,6.97c2.96,2.67,5.54,5.66,7.57,8.85c1.77,2.8,3.19,5.8,4.21,9.02c1.03,3.22,1.67,6.64,1.91,10.29 c0.24,3.61,0.08,7.43-0.5,11.48c-0.57,4.05-1.56,8.32-2.97,12.82c-0.09,0.29-0.25,0.53-0.45,0.73c-0.15,0.14-0.32,0.26-0.5,0.34 l0.05,0.19c0.03,0.14,0.06,0.28,0.09,0.42c0.19,0.96,0.25,1.9,0.18,2.83c-0.07,0.96-0.28,1.89-0.6,2.77 c-0.31,0.86-0.74,1.68-1.26,2.44c-0.52,0.75-1.14,1.44-1.84,2.04c-1.12,0.96-2.44,1.69-3.9,2.13c-1.33,0.39-2.77,0.54-4.28,0.38 c-0.73,1.61-1.58,3.23-2.53,4.82c-0.97,1.62-2.04,3.2-3.19,4.7c-1.58,2.05-3.32,3.98-5.18,5.66c-1.76,1.6-3.62,2.99-5.56,4.08 c-0.56,0.32-1.13,0.61-1.71,0.88c-0.58,0.27-1.18,0.52-1.8,0.74c-0.62,0.22-1.26,0.42-1.91,0.6c-0.65,0.17-1.33,0.32-2.02,0.44 c-0.83,0.14-1.67,0.24-2.51,0.3c-0.84,0.06-1.7,0.08-2.56,0.05c-0.87-0.03-1.74-0.11-2.61-0.23c-0.88-0.13-1.76-0.31-2.64-0.54 l-0.16-0.05c-4.36-1.62-8.21-3.93-11.54-6.92c-3.31-2.98-6.1-6.64-8.37-10.98c-0.31-0.6-0.61-1.21-0.9-1.83 c-0.26-0.56-0.52-1.13-0.76-1.73c-1.53,0.18-2.98,0.04-4.32-0.35c-1.48-0.43-2.82-1.17-3.95-2.14c-0.7-0.6-1.32-1.29-1.84-2.04 c-0.52-0.75-0.95-1.57-1.26-2.44c-0.32-0.88-0.53-1.82-0.6-2.77c-0.07-0.92-0.01-1.87,0.18-2.83c0.06-0.3,0.13-0.6,0.22-0.9 C4.15,86.86,4.24,86.6,4.33,86.35L4.33,86.35z M31.07,23.01c1.39-0.47,2.79-0.85,4.19-1.16c1.37-0.3,2.76-0.51,4.13-0.64l0.39-0.03 l0.38-0.03c0.54-0.04,1.1-0.08,1.66-0.09c0.55-0.02,1.1-0.03,1.66-0.02c2.22,0.03,4.43,0.25,6.63,0.68c2.2,0.43,4.4,1.06,6.59,1.9 l0,0c0.73,0.26,1.48,0.54,2.22,0.85c0.67,0.27,1.34,0.56,2,0.87c0.26-0.42,0.51-0.83,0.73-1.24c0.25-0.47,0.48-0.95,0.67-1.42 c0.26-0.64,0.47-1.28,0.62-1.92c0.15-0.64,0.25-1.28,0.28-1.92c0.07-1.32-0.09-2.53-0.44-3.65c-0.35-1.12-0.89-2.16-1.56-3.12 c-0.71-1.01-1.57-1.94-2.54-2.8c-0.97-0.87-2.04-1.66-3.16-2.4c-2.72-1.79-5.97-2.83-9.35-3.22c-3.63-0.41-7.4-0.07-10.83,0.93 c-1.52,0.44-2.97,1.01-4.31,1.7c-1.3,0.67-2.5,1.45-3.54,2.34c-1.03,0.88-1.92,1.86-2.6,2.93c-0.65,1.02-1.13,2.12-1.39,3.29 c-0.34,1.52-0.33,3.19,0.12,4.98c0.41,1.64,1.18,3.38,2.36,5.22c0.81-0.38,1.63-0.73,2.44-1.06c0.88-0.36,1.77-0.68,2.64-0.97 L31.07,23.01L31.07,23.01z M81.33,83.56c1.13-3.87,1.93-7.54,2.39-11.02c0.48-3.63,0.61-7.06,0.4-10.29 c-0.22-3.35-0.81-6.49-1.74-9.43c-0.94-2.94-2.22-5.68-3.84-8.23c-1.94-3.06-4.44-5.92-7.33-8.47c-2.93-2.59-6.26-4.86-9.8-6.68 c-0.13,0-0.27-0.01-0.4-0.04c-0.14-0.03-0.28-0.08-0.41-0.15l-0.02-0.01c-0.89-0.48-1.78-0.92-2.66-1.33 c-0.89-0.41-1.77-0.78-2.66-1.11c-2.48-0.86-5.01-1.49-7.53-1.86c-2.44-0.36-4.87-0.48-7.24-0.32c-1.51,0.12-3.03,0.35-4.55,0.67 c-1.52,0.33-3.05,0.76-4.57,1.3l-0.01,0c-2.09,0.75-4.16,1.7-6.16,2.81c-2.04,1.13-4.01,2.43-5.89,3.86 c-3.14,2.41-5.97,5.19-8.33,8.22c-2.27,2.92-4.08,6.06-5.28,9.28c-0.96,2.58-1.58,5.23-1.91,7.95c-0.33,2.72-0.37,5.5-0.16,8.33 c0.19,2.56,0.57,5.17,1.12,7.82c0.52,2.51,1.19,5.05,1.97,7.62c0.46-0.51,0.97-1.01,1.54-1.48c0.67-0.56,1.43-1.1,2.26-1.61 c0.07-0.04,0.14-0.08,0.22-0.11l0.02-0.01c-0.09-1.03-0.17-2.08-0.24-3.14c-0.06-1.02-0.11-2.07-0.15-3.14 c-0.31,0.07-0.65,0.13-1,0.21c-0.46,0.09-0.9,0.18-1.31,0.26l-0.01,0c-0.47,0.09-0.93-0.03-1.3-0.28 c-0.37-0.25-0.64-0.64-0.73-1.12l0-0.01c-0.09-0.47,0.03-0.93,0.28-1.3c0.25-0.37,0.64-0.64,1.12-0.73 c4.37-0.83,8.49-1.86,12.29-3.17C23.5,65.57,26.96,64,30,62.08c2.97-1.87,5.55-4.08,7.66-6.7c2.1-2.61,3.73-5.62,4.8-9.11 c0.14-0.46,0.46-0.82,0.85-1.03c0.39-0.21,0.87-0.27,1.33-0.13c0.32,0.1,0.59,0.28,0.8,0.51c0.2,0.23,0.35,0.52,0.4,0.82l0.01,0.03 c0.58,3.37,1.77,6.33,3.53,8.93c1.76,2.6,4.08,4.84,6.92,6.75c2.92,1.96,6.39,3.59,10.34,4.91c3.96,1.32,8.4,2.34,13.28,3.09 c0.48,0.07,0.88,0.33,1.14,0.69c0.27,0.36,0.39,0.82,0.32,1.3c-0.07,0.48-0.33,0.88-0.69,1.14c-0.36,0.27-0.82,0.39-1.3,0.32 c-0.51-0.08-1.04-0.16-1.58-0.25c-0.42-0.07-0.84-0.14-1.26-0.22c-0.02,1.06-0.05,2.08-0.1,3.08c-0.04,1.03-0.1,2.03-0.16,3 l0.09,0.03c0.1,0.04,0.2,0.09,0.29,0.14c1.09,0.66,2.03,1.37,2.84,2.11C80.21,82.17,80.82,82.86,81.33,83.56L81.33,83.56z M73.07,72.46c-3.69-0.81-7.1-1.81-10.21-3.02c-3.17-1.23-6.02-2.68-8.52-4.36c-2.56-1.72-4.76-3.68-6.56-5.9 c-1.68-2.07-3.02-4.37-3.99-6.91c-1.31,2.6-2.94,4.91-4.86,6.98c-2.05,2.2-4.43,4.12-7.09,5.8c-2.57,1.62-5.41,3.01-8.46,4.21 c-2.99,1.17-6.19,2.15-9.56,2.98c0.17,6.2,0.81,11.81,1.89,16.83c1.1,5.1,2.67,9.59,4.69,13.48c2.05,3.94,4.58,7.26,7.56,9.95 c3,2.71,6.46,4.79,10.37,6.26c0.75,0.2,1.49,0.35,2.22,0.45c0.74,0.11,1.47,0.17,2.19,0.2c0.73,0.02,1.47,0.01,2.2-0.05 c0.73-0.05,1.46-0.14,2.19-0.27c0.59-0.1,1.15-0.22,1.71-0.37c0.55-0.15,1.09-0.31,1.61-0.5c0.52-0.19,1.03-0.4,1.53-0.63 c0.5-0.23,0.98-0.48,1.45-0.75c1.72-0.98,3.39-2.23,4.98-3.67c1.68-1.53,3.26-3.28,4.7-5.16c1.53-1.99,2.89-4.11,4.04-6.26 c1.17-2.18,2.12-4.38,2.81-6.5c0.51-1.58,0.96-3.24,1.34-5.01c0.38-1.77,0.7-3.64,0.96-5.61c0.24-1.84,0.42-3.79,0.56-5.85 C72.96,76.76,73.04,74.66,73.07,72.46L73.07,72.46z M11.18,83.15c-1.06,0.77-1.88,1.6-2.51,2.45c-0.74,1.01-1.2,2.06-1.41,3.09 c-0.13,0.63-0.16,1.26-0.12,1.88c0.05,0.64,0.19,1.26,0.4,1.85c0.21,0.58,0.5,1.13,0.85,1.64c0.35,0.51,0.77,0.97,1.25,1.38 c0.68,0.58,1.47,1.04,2.35,1.34c0.73,0.25,1.53,0.39,2.36,0.39c-0.72-2.1-1.35-4.32-1.88-6.67C11.95,88.17,11.52,85.72,11.18,83.15 L11.18,83.15z M75.95,83.12l-0.08,0.76c-0.04,0.36-0.09,0.75-0.14,1.17c-0.27,2.1-0.61,4.07-1.01,5.94 c-0.4,1.87-0.88,3.63-1.42,5.32c-0.07,0.23-0.14,0.43-0.2,0.6L73,97.17c0.8-0.02,1.56-0.16,2.26-0.41c0.85-0.3,1.62-0.75,2.28-1.32 c0.47-0.41,0.89-0.87,1.25-1.38c0.35-0.51,0.64-1.06,0.85-1.64c0.21-0.59,0.35-1.21,0.4-1.85c0.05-0.62,0.01-1.25-0.12-1.88 c-0.21-1.04-0.67-2.09-1.42-3.11C77.86,84.72,77.02,83.89,75.95,83.12L75.95,83.12z M52.34,104.41l0.01-0.01 c0.33-0.34,0.77-0.51,1.21-0.51c0.45-0.01,0.89,0.16,1.24,0.49l0.01,0.01c0.34,0.33,0.51,0.77,0.51,1.21 c0.01,0.45-0.16,0.89-0.49,1.24c-1.31,1.34-2.71,2.38-4.19,3.13c-1.49,0.75-3.07,1.2-4.73,1.35c-1.61,0.15-3.29,0.01-5.03-0.41 c-1.74-0.42-3.55-1.12-5.41-2.09l-0.01,0c-0.42-0.22-0.72-0.6-0.85-1.02c-0.13-0.42-0.1-0.9,0.12-1.33l0-0.01 c0.22-0.42,0.6-0.72,1.02-0.85c0.42-0.13,0.9-0.1,1.32,0.12l0.01,0c1.57,0.82,3.07,1.41,4.49,1.76c1.41,0.35,2.75,0.47,4.02,0.35 c1.23-0.11,2.41-0.45,3.53-1.03C50.26,106.25,51.32,105.45,52.34,104.41L52.34,104.41L52.34,104.41z M19.2,85.42 c-0.34,0.34-0.78,0.52-1.23,0.53c-0.45,0.01-0.89-0.16-1.24-0.49c-0.34-0.34-0.52-0.78-0.53-1.23c-0.01-0.45,0.16-0.89,0.49-1.24 c1.31-1.34,2.71-2.38,4.19-3.13c1.49-0.75,3.07-1.2,4.73-1.35c1.61-0.15,3.29-0.01,5.03,0.41c1.74,0.42,3.55,1.12,5.41,2.09 c0.43,0.22,0.72,0.6,0.86,1.02c0.13,0.42,0.11,0.88-0.11,1.3c-0.01,0.02-0.01,0.03-0.02,0.05c-0.22,0.41-0.59,0.7-1.01,0.83 c-0.42,0.13-0.88,0.11-1.3-0.11c-0.02-0.01-0.03-0.01-0.04-0.02c-1.23-0.64-2.41-1.14-3.56-1.49c-0.64-0.2-1.26-0.35-1.87-0.46 c0.22,0.18,0.41,0.4,0.58,0.64c0.46,0.65,0.74,1.48,0.74,2.38c0,1.03-0.36,1.96-0.94,2.64c-0.59,0.69-1.41,1.12-2.32,1.12 c-0.91,0-1.73-0.43-2.32-1.12c-0.58-0.68-0.94-1.61-0.94-2.64c0-0.93,0.29-1.78,0.77-2.43c0.18-0.24,0.38-0.46,0.61-0.64 c-0.96,0.16-1.88,0.47-2.77,0.93C21.28,83.58,20.21,84.39,19.2,85.42L19.2,85.42z"/></g></svg>