<?xml version="1.0" encoding="utf-8"?><svg version="1.1" id="Layer_1" xmlns="http://www.w3.org/2000/svg" xmlns:xlink="http://www.w3.org/1999/xlink" x="0px" y="0px" viewBox="0 0 88.77 122.88" style="enable-background:new 0 0 88.77 122.88" xml:space="preserve"><style type="text/css">.st0{fill-rule:evenodd;clip-rule:evenodd;}</style><g><path class="st0" d="M9.38,71.09c1.97-0.44,6.14-1.61,11.52-2.94c2.04,2.98,4.34,5.42,6.81,7.36c1.08,0.85,2.19,1.6,3.33,2.25 c-0.26,0.78-0.54,1.52-0.85,2.23l0,0l0,0.01c-0.61,1.4-1.32,2.67-2.16,3.82c-9.52,2.67-16.93,8.36-21.75,16.21 c-3.91,6.37-6.1,14.14-6.29,22.85h3.51c0.19-8.06,2.19-15.21,5.77-21.03c4.24-6.91,10.73-11.97,19.05-14.47 c0.81,0.97,1.69,1.85,2.61,2.63c0.58,0.53,1.19,1.01,1.82,1.44c3.24,2.25,7.04,3.35,10.85,3.34c3.8-0.01,7.6-1.11,10.87-3.25 c1.77-1.16,3.38-2.61,4.75-4.36c16.38,4.84,22.2,21.27,25.93,35.69h3.62C84.79,107.2,78.6,88.83,59.56,83.63 c-0.67-1.19-1.25-2.45-1.71-3.78c-0.26-0.74-0.48-1.51-0.67-2.32c0.81-0.46,1.61-0.96,2.4-1.5c4.11-2.85,7.77-6.82,10.59-11.79 c3.58,1.13,6.48,2.9,8.33,5.53c11.47-26.3,10.04-68.7-32.6-69.74C7.64-0.92,0.7,42.37,9.38,71.09L9.38,71.09z M21.96,40.48 l-4.42-0.13c-0.04,3.58,0,7.09,0.25,10.2c0.18,2.23,0.62,4.49,1.57,6.99c10.87,28.47,39.33,24.68,49.5,1.48 c1.17-2.66,1.7-5.09,1.93-7.5c0.31-3.34,0.36-7.2,0.31-11.15l-3.13,0.15c-0.46,0.54-0.94,1.03-1.11,1.28 c-0.62,0.9-1.15,1.95-1.61,3.09c-0.68,2.02-1.49,3.62-2.46,4.78c-0.92,1.09-1.97,1.78-3.17,2.03c-0.16,0.03-0.31,0.07-0.47,0.09 c-2.11,0.34-5.94,0.36-7.93-0.4c-0.58-0.22-1.1-0.57-1.58-0.99c-0.67-0.52-1.7-2.44-2.49-4.18c-0.55-1.21-1.51-1.97-2.08-2 c-0.62-0.03-1.64,0.68-2.23,1.9c-0.44,0.92-1.05,1.8-1.42,2.63c-1.23,2.79-4.33,3.28-7.53,3.27c-0.86,0-1.72-0.08-2.59-0.23 c-3.13-0.57-4.02-0.95-5.31-3.78C24.54,44.78,24.22,42.91,21.96,40.48L21.96,40.48z M17.58,37.72l4.83,0.14 c0.4-0.07,0.87-0.12,1.4-0.15c5.41-0.72,10.79-0.17,16.13,2.04c1.98,0.82,3.93,2.37,6.1,1.81c1.43-0.38,3.53-1.76,5.25-2.39 c5.5-2,10.4-1.94,15.97-1.25l0.09,0.01l0.02,0l3.69-0.17c-0.08-3.98-0.21-7.94-0.21-11.42c-6.1,0.94-8.65-3.14-9.77-9.23 c-12.47,11.37-27,13.88-43.27,8.85C17.8,29.58,17.66,33.65,17.58,37.72L17.58,37.72z M63.61,45.32c0.4-1.48,1.2-3.65,0.41-5.07 c-1.05-1.88-4.89-1.44-7.85-0.75c-2.63,0.61-7.32,1.62-7.26,4.94c-0.07,3.55,1.2,5.18,3.27,5.66c2.91,1.02,7.89,1.08,9.96-1.65 C62.76,47.64,63.25,46.59,63.61,45.32L63.61,45.32z M26.36,45.32c-0.4-1.48-1.2-3.65-0.41-5.07c1.05-1.88,4.89-1.44,7.85-0.75 c2.63,0.61,7.32,1.62,7.26,4.94c0.07,3.55-1.2,5.18-3.27,5.66c-2.91,1.02-7.89,1.08-9.96-1.65C27.2,47.64,26.72,46.59,26.36,45.32 L26.36,45.32z M37.31,66.64c-0.6-0.41-0.74-1.24-0.33-1.83c0.41-0.6,1.24-0.74,1.83-0.33c1.86,1.29,3.69,1.93,5.5,1.93 c1.81,0,3.65-0.65,5.51-1.93c0.6-0.41,1.42-0.26,1.83,0.33c0.41,0.6,0.26,1.42-0.33,1.83c-2.31,1.59-4.64,2.39-7,2.39 C41.96,69.03,39.62,68.24,37.31,66.64L37.31,66.64z M69.1,122.88l-0.19-1.23c-0.72-4.64-2-9.17-3.17-9 c-1.18,0.17-0.71,5.78-0.17,10.23H69.1L69.1,122.88z M23.8,122.88c0.47-4.13,0.88-9.6-0.29-9.77c-0.8-0.11-2.39,4.24-3.04,8.73 l-0.15,1.03H23.8L23.8,122.88z M33.42,87.52c0.13,0.11,0.27,0.22,0.4,0.32c2.88,2.22,6.25,3.38,9.63,3.43 c3.37,0.05,6.76-1,9.66-3.16c1.16-0.86,2.23-1.9,3.19-3.1c-0.68-1.25-1.27-2.58-1.77-4.02c-0.21-0.62-0.41-1.25-0.58-1.9 c-3.3,1.37-6.77,2.08-10.24,2.08c-3.21,0-6.42-0.6-9.5-1.86c-0.25,0.71-0.52,1.41-0.81,2.08l0,0c-0.61,1.4-1.3,2.69-2.1,3.87 C31.95,86.1,32.66,86.86,33.42,87.52L33.42,87.52z"/></g></svg>