<?xml version="1.0" encoding="utf-8"?><svg version="1.1" id="Layer_1" xmlns="http://www.w3.org/2000/svg" xmlns:xlink="http://www.w3.org/1999/xlink" x="0px" y="0px" viewBox="0 0 122.88 102" style="enable-background:new 0 0 122.88 102" xml:space="preserve"><style type="text/css">.st0{fill-rule:evenodd;clip-rule:evenodd;}</style><g><path class="st0" d="M75.08,2.04c4.69-3.17,10.02-2.47,14.43,0.89c1.16,0.89,2.14,1.98,2.93,3.29c0.67,1.12,1.84,3.42-0.35,3.77 c-0.86,0.13-2.36-1.03-3.53-1.41c-1.49-0.48-3.03-0.79-4.55-0.95c-2.84-0.29-5.63-0.06-8.03,0.61c-1.3,0.36-2.57,0.8-3.78,1.36 c-0.57,0.26-1.72,1.03-2.03,0.04C69.44,7.35,73.4,3.18,75.08,2.04L75.08,2.04L75.08,2.04z M30.07,67.8 c-0.31-0.15-0.43-0.52-0.28-0.83c0.15-0.31,0.52-0.43,0.83-0.28c0.66,0.33,1.31,0.48,1.93,0.46c0.62-0.01,1.23-0.19,1.84-0.51 c0.3-0.16,0.67-0.04,0.83,0.26c0.16,0.3,0.04,0.67-0.26,0.83c-0.77,0.4-1.57,0.63-2.39,0.65C31.75,68.4,30.92,68.22,30.07,67.8 L30.07,67.8z M27.34,23.21c3.69-2.5,7.9-1.95,11.37,0.7c0.91,0.7,1.69,1.56,2.31,2.6c0.53,0.88,1.45,2.69-0.27,2.97 c-0.68,0.11-1.86-0.81-2.78-1.11c-1.18-0.38-2.39-0.63-3.59-0.75c-2.24-0.23-4.44-0.05-6.33,0.48c-1.02,0.29-2.02,0.63-2.98,1.07 c-0.45,0.21-1.36,0.81-1.6,0.03C22.89,27.39,26.02,24.11,27.34,23.21L27.34,23.21L27.34,23.21z M44.12,71.55 c1.2,0.47,2.35,0.9,3.45,1.34c0.81-0.68,1.78-1.36,2.98-2.11c4.83-3.03,9.91-4.91,16.29-7.39c3.35,13.67,29.53,9.83,29.53-0.02l0,0 c6.39,2.47,11.52,4.37,16.35,7.4c3.07,1.92,4.66,3.38,5.91,5.71c2.64,4.96,2.93,9.4,3.33,14.78l0.92,10.73h-13.37L108,92.31 l-1.09,9.69c-30.79,0-61.59,0-92.38,0l-1.14-7.64L12.49,102H0l0.73-8.46c0.31-4.24,0.54-7.75,2.62-11.65 c0.98-1.84,2.23-2.98,4.66-4.5c3.81-2.39,7.81-3.87,12.84-5.82C23.49,82.34,44.12,79.31,44.12,71.55L44.12,71.55L44.12,71.55z M37.28,56.33c-0.25-0.18-0.31-0.52-0.14-0.77c0.17-0.26,0.53-0.33,0.79-0.15c0.43,0.29,1.16,0.44,1.92,0.43 c0.73-0.01,1.46-0.17,1.98-0.51c0.26-0.17,0.61-0.09,0.78,0.17c0.12,0.3,0.06,0.56-0.17,0.78C40.72,57.07,39,57.13,37.28,56.33 L37.28,56.33z M22.43,56.35c-0.23-0.23-0.38-0.47-0.17-0.8c0.17-0.26,0.53-0.33,0.79-0.15c1,0.67,3.03,0.54,4.03-0.05 c0.27-0.16,0.62-0.07,0.77,0.21c0.04,0.15,0.04,0.29,0,0.42c-0.12,0.42-0.52,0.48-0.91,0.61C25.31,57.15,24.28,57.13,22.43,56.35 L22.43,56.35z M37.8,53.06c-0.25,0.18-0.61,0.12-0.79-0.13c-0.18-0.25-0.12-0.61,0.13-0.79c1.06-0.75,2.15-1.14,3.26-1.14 c1.11-0.01,2.22,0.37,3.33,1.14c0.26,0.18,0.32,0.53,0.15,0.79c-0.18,0.26-0.53,0.32-0.79,0.15c-0.92-0.63-1.82-0.94-2.69-0.94 C39.54,52.13,38.67,52.45,37.8,53.06L37.8,53.06L37.8,53.06z M21.93,53.06c-0.25,0.18-0.61,0.12-0.79-0.13 c-0.18-0.25-0.12-0.61,0.13-0.79c1.06-0.75,2.15-1.14,3.26-1.14c1.11-0.01,2.22,0.37,3.33,1.14c0.26,0.18,0.32,0.53,0.15,0.79 c-0.18,0.26-0.53,0.32-0.79,0.15c-0.92-0.63-1.82-0.94-2.69-0.94C23.67,52.13,22.8,52.45,21.93,53.06L21.93,53.06L21.93,53.06z M14.79,50.27c0.16-0.1,0.35-0.15,0.52-0.13c-0.31-1.61-0.27-3.15-0.2-4.96c0.17-4.73,1.37-8.51,5.1-11.79 c5.62-4.95,16.76-5.38,22.96-1.12c0.92,0.63,1.77,1.38,2.54,2.26c2.52,2.88,4.75,9.22,4.7,13.12c-0.01,0.91-0.16,1.82-0.47,2.75 c-0.01,0.09-0.03,0.19-0.06,0.31c0.68,0.43,1.21,0.95,1.6,1.54c0.58,0.88,0.83,1.9,0.77,2.98c-0.06,1.03-0.41,2.12-1.05,3.17 c-0.75,1.23-1.88,2.44-3.4,3.47c-1.32,3.09-3.17,6.18-5.42,8.66c-1.88,2.09-4.05,3.75-6.41,4.62c-2.42,0.89-5.02,0.96-7.72-0.17 c-1.4-0.59-2.82-1.5-4.25-2.78c-1.3-1.18-2.49-2.64-3.56-4.33c-0.99-1.57-1.88-3.35-2.69-5.32c-0.36-0.11-0.7-0.24-1.02-0.39 c-0.46-0.21-0.88-0.47-1.26-0.76c-1.12-0.86-1.86-2.02-2.29-3.31c-0.48-1.43-0.57-3.01-0.37-4.47c0.1-0.76,0.31-1.41,0.63-1.96 C13.79,51.09,14.23,50.62,14.79,50.27L14.79,50.27L14.79,50.27z M15.72,51.7l-0.02,0.01c-0.31,0.2-0.57,0.47-0.76,0.81 c-0.21,0.36-0.35,0.81-0.42,1.34c-0.17,1.22-0.09,2.54,0.3,3.71c0.33,0.98,0.88,1.86,1.7,2.49c0.29,0.22,0.61,0.41,0.94,0.57 c0.35,0.16,0.72,0.29,1.12,0.39c0.28,0.07,0.49,0.27,0.59,0.51c0.81,2.03,1.72,3.85,2.71,5.44c0.99,1.56,2.07,2.89,3.26,3.97 c1.28,1.15,2.54,1.96,3.76,2.48c2.26,0.95,4.45,0.89,6.47,0.15c2.08-0.77,4.02-2.26,5.73-4.16c2.16-2.39,3.95-5.41,5.2-8.42 c0.07-0.17,0.19-0.31,0.34-0.4c1.4-0.93,2.43-1.98,3.08-3.05c0.49-0.81,0.76-1.62,0.81-2.38c0.04-0.72-0.12-1.38-0.49-1.95 c-0.2-0.3-0.45-0.58-0.77-0.82c-0.65,1.46-1.72,3.39-3.12,5.3l0-8.75c-4.01-1.86-6.63-5.94-7.97-12.08 c-1.6,11.69-15.95,11.19-19.56,13.32v6.82c-0.69-0.96-1.3-1.94-1.85-2.93C16.32,53.21,15.98,52.44,15.72,51.7L15.72,51.7 L15.72,51.7z M78.34,59.43c-0.41-0.2-0.58-0.71-0.38-1.12c0.2-0.41,0.71-0.58,1.12-0.38c0.9,0.45,1.77,0.64,2.61,0.63 c0.84-0.02,1.67-0.26,2.49-0.68c0.41-0.21,0.91-0.05,1.13,0.35c0.21,0.41,0.06,0.91-0.35,1.13c-1.05,0.55-2.12,0.85-3.23,0.87 C80.61,60.25,79.49,59.99,78.34,59.43L78.34,59.43z M87.69,44.07c-0.31-0.23-0.39-0.66-0.18-0.98c0.22-0.33,0.67-0.41,1-0.19 c0.55,0.36,1.47,0.56,2.44,0.54c0.92-0.02,1.85-0.22,2.52-0.65c0.33-0.21,0.78-0.12,0.99,0.22c0.15,0.39,0.08,0.71-0.22,0.99 C92.05,45,89.87,45.08,87.69,44.07L87.69,44.07z M68.85,44.08c-0.29-0.29-0.49-0.6-0.21-1.01c0.22-0.33,0.67-0.41,1-0.19 c1.27,0.85,3.84,0.68,5.12-0.07c0.35-0.2,0.78-0.08,0.98,0.26c0.05,0.19,0.05,0.37,0,0.53c-0.15,0.54-0.67,0.61-1.15,0.78 C72.5,45.1,71.2,45.07,68.85,44.08L68.85,44.08z M88.35,39.92c-0.32,0.23-0.77,0.15-1-0.17s-0.15-0.77,0.17-1 c1.35-0.95,2.73-1.44,4.14-1.45c1.41-0.01,2.82,0.47,4.23,1.44c0.33,0.23,0.41,0.68,0.19,1c-0.23,0.33-0.68,0.41-1,0.19 c-1.16-0.8-2.3-1.2-3.41-1.19C90.56,38.73,89.45,39.14,88.35,39.92L88.35,39.92L88.35,39.92z M68.21,39.92 c-0.32,0.23-0.77,0.15-1-0.17c-0.23-0.32-0.15-0.77,0.17-1c1.35-0.95,2.73-1.44,4.14-1.45c1.41-0.01,2.82,0.47,4.23,1.44 c0.33,0.23,0.41,0.68,0.19,1c-0.23,0.33-0.68,0.41-1,0.19c-1.17-0.8-2.3-1.2-3.41-1.19C70.42,38.73,69.32,39.14,68.21,39.92 L68.21,39.92L68.21,39.92z M59.16,36.37c0.2-0.13,0.44-0.19,0.66-0.17c-0.4-2.04-0.34-4-0.25-6.3c0.22-6,1.74-10.8,6.47-14.96 c7.13-6.28,21.26-6.83,29.12-1.42c1.17,0.8,2.25,1.76,3.22,2.87c3.19,3.66,6.03,11.69,5.97,16.65c-0.02,1.15-0.2,2.31-0.59,3.49 c-0.02,0.12-0.04,0.24-0.08,0.39c0.86,0.54,1.54,1.21,2.03,1.96c0.73,1.12,1.06,2.41,0.98,3.78c-0.08,1.31-0.52,2.68-1.33,4.03 c-0.95,1.56-2.39,3.09-4.31,4.4c-1.68,3.92-4.03,7.84-6.87,10.99c-2.39,2.65-5.13,4.75-8.13,5.86c-3.06,1.13-6.37,1.22-9.79-0.22 c-1.77-0.74-3.58-1.9-5.39-3.53c-1.65-1.49-3.16-3.34-4.52-5.5c-1.26-1.99-2.39-4.25-3.42-6.75c-0.46-0.13-0.89-0.3-1.29-0.49 c-0.58-0.27-1.11-0.59-1.6-0.96c-1.42-1.09-2.35-2.57-2.9-4.2c-0.61-1.82-0.72-3.82-0.47-5.67c0.13-0.96,0.4-1.79,0.79-2.49 C57.9,37.41,58.45,36.82,59.16,36.37L59.16,36.37L59.16,36.37z M60.34,38.19l-0.03,0.02c-0.4,0.25-0.72,0.59-0.96,1.02 c-0.26,0.46-0.44,1.02-0.53,1.7c-0.21,1.54-0.12,3.22,0.38,4.7c0.41,1.24,1.11,2.36,2.16,3.16c0.37,0.28,0.77,0.52,1.2,0.73 c0.44,0.2,0.91,0.37,1.43,0.5c0.35,0.08,0.62,0.34,0.75,0.65c1.03,2.57,2.18,4.89,3.44,6.9c1.25,1.98,2.63,3.67,4.14,5.04 c1.62,1.46,3.22,2.49,4.77,3.14c2.87,1.21,5.64,1.13,8.21,0.19c2.64-0.97,5.1-2.87,7.27-5.28c2.74-3.03,5.01-6.86,6.6-10.68 c0.09-0.22,0.24-0.39,0.43-0.51c1.78-1.17,3.08-2.52,3.91-3.87c0.62-1.03,0.96-2.06,1.02-3.02c0.05-0.91-0.15-1.76-0.62-2.47 c-0.25-0.38-0.57-0.73-0.98-1.04c-0.82,1.86-2.19,4.3-3.96,6.72v-11.1c-5.09-2.36-8.42-7.54-10.11-15.33 c-2.03,14.83-20.23,14.19-24.81,16.89v8.65c-0.87-1.22-1.65-2.47-2.35-3.72C61.1,40.11,60.67,39.13,60.34,38.19L60.34,38.19 L60.34,38.19z"/></g></svg>