<?xml version="1.0" encoding="utf-8"?><svg version="1.1" id="Layer_1" xmlns="http://www.w3.org/2000/svg" xmlns:xlink="http://www.w3.org/1999/xlink" x="0px" y="0px" viewBox="0 0 122.88 77.87" style="enable-background:new 0 0 122.88 77.87" xml:space="preserve"><style type="text/css">.st0{fill-rule:evenodd;clip-rule:evenodd;}</style><g><path class="st0" d="M56.52,1.56c3.58-2.42,7.65-1.89,11.01,0.68c0.88,0.68,1.64,1.51,2.24,2.51c0.51,0.86,1.4,2.61-0.26,2.88 c-0.66,0.1-1.8-0.79-2.69-1.08c-1.14-0.37-2.32-0.61-3.47-0.73c-2.17-0.22-4.3-0.04-6.13,0.47c-0.99,0.28-1.96,0.61-2.89,1.04 c-0.43,0.2-1.32,0.79-1.55,0.03C52.21,5.61,55.23,2.43,56.52,1.56L56.52,1.56L56.52,1.56z M94.12,17.72 c2.82-1.91,6.03-1.49,8.68,0.53c0.7,0.53,1.29,1.19,1.76,1.98c0.4,0.67,1.11,2.06-0.21,2.27c-0.52,0.08-1.42-0.62-2.13-0.85 c-0.9-0.29-1.82-0.48-2.74-0.58c-1.71-0.17-3.39-0.03-4.83,0.37c-0.78,0.22-1.55,0.48-2.28,0.82c-0.34,0.16-1.04,0.62-1.22,0.02 C90.72,20.91,93.1,18.41,94.12,17.72L94.12,17.72L94.12,17.72z M96.2,51.76c-0.23-0.12-0.33-0.4-0.21-0.63 c0.11-0.23,0.4-0.33,0.63-0.21c0.51,0.25,1,0.36,1.47,0.35c0.47-0.01,0.94-0.14,1.4-0.38c0.23-0.12,0.52-0.03,0.64,0.2 c0.12,0.23,0.03,0.52-0.2,0.63c-0.59,0.31-1.2,0.48-1.82,0.49C97.48,52.22,96.85,52.08,96.2,51.76L96.2,51.76z M106.93,54.63 c3.85,1.49,6.94,2.63,9.84,4.46c1.85,1.16,2.81,2.03,3.56,3.44c1.59,2.98,1.76,5.66,2,8.9l0.56,6.46h-8.05l-0.91-5.83l-0.65,5.83 c-34.13,0-68,0-102.18,0l-0.87-5.83l-0.68,5.83H0l0.56-6.46c0.24-3.24,0.41-5.92,2-8.9c0.75-1.4,1.7-2.28,3.56-3.44 c2.9-1.82,5.96-2.96,9.8-4.45c2.02,8.23,17.77,5.91,17.77-0.01l0,0c0.72,0.28,1.42,0.55,2.09,0.81c0.57-0.45,1.23-0.9,2.01-1.4 c3.69-2.32,7.57-3.75,12.44-5.64c2.56,10.43,22.54,7.5,22.54-0.01l0,0c4.88,1.89,8.8,3.34,12.48,5.65 c0.76,0.48,1.41,0.92,1.96,1.35c0.63-0.24,1.27-0.49,1.94-0.75C91.18,62.86,106.93,60.55,106.93,54.63L106.93,54.63L106.93,54.63z M101.7,43.01c-0.19-0.14-0.23-0.4-0.11-0.59c0.13-0.2,0.4-0.25,0.6-0.12c0.33,0.22,0.89,0.33,1.47,0.33 c0.56-0.01,1.11-0.13,1.51-0.39c0.2-0.13,0.47-0.07,0.59,0.13c0.09,0.23,0.05,0.43-0.13,0.59 C104.33,43.57,103.01,43.62,101.7,43.01L101.7,43.01z M90.37,43.02c-0.18-0.17-0.29-0.36-0.13-0.61c0.13-0.2,0.4-0.25,0.6-0.12 c0.76,0.51,2.32,0.41,3.08-0.04c0.21-0.12,0.47-0.05,0.59,0.16c0.03,0.11,0.03,0.22,0,0.32c-0.09,0.33-0.4,0.37-0.69,0.47 C92.56,43.63,91.78,43.61,90.37,43.02L90.37,43.02z M102.1,40.51c-0.19,0.14-0.46,0.09-0.6-0.1c-0.13-0.19-0.09-0.46,0.1-0.6 c0.81-0.57,1.64-0.87,2.49-0.87c0.85,0,1.7,0.29,2.55,0.87c0.2,0.14,0.24,0.41,0.11,0.6c-0.13,0.2-0.4,0.25-0.6,0.11 c-0.7-0.48-1.39-0.72-2.05-0.71C103.43,39.8,102.76,40.04,102.1,40.51L102.1,40.51L102.1,40.51z M89.98,40.51 c-0.19,0.14-0.46,0.09-0.6-0.1c-0.14-0.19-0.09-0.46,0.1-0.6c0.81-0.57,1.64-0.87,2.49-0.87c0.85,0,1.7,0.29,2.54,0.87 c0.2,0.14,0.24,0.41,0.11,0.6c-0.14,0.2-0.41,0.25-0.6,0.11c-0.7-0.48-1.39-0.72-2.05-0.71C91.31,39.8,90.65,40.04,89.98,40.51 L89.98,40.51L89.98,40.51z M84.53,38.38c0.12-0.08,0.27-0.11,0.4-0.1c-0.24-1.23-0.21-2.41-0.15-3.79c0.13-3.61,1.05-6.5,3.89-9 c4.29-3.78,12.8-4.11,17.53-0.86c0.7,0.48,1.35,1.06,1.94,1.73c1.92,2.2,3.62,7.04,3.59,10.02c-0.01,0.69-0.12,1.39-0.36,2.1 c-0.01,0.07-0.02,0.15-0.05,0.23c0.52,0.33,0.92,0.73,1.22,1.18c0.44,0.67,0.63,1.45,0.59,2.28c-0.05,0.79-0.31,1.62-0.8,2.42 c-0.57,0.94-1.44,1.86-2.6,2.65c-1.01,2.36-2.42,4.72-4.13,6.61c-1.44,1.59-3.09,2.86-4.89,3.52c-1.84,0.68-3.83,0.73-5.89-0.13 c-1.07-0.44-2.15-1.14-3.24-2.12c-1-0.9-1.9-2.01-2.72-3.31c-0.76-1.2-1.44-2.56-2.06-4.06c-0.28-0.08-0.53-0.18-0.78-0.29 c-0.35-0.16-0.67-0.36-0.96-0.58c-0.85-0.66-1.42-1.54-1.75-2.52c-0.36-1.09-0.43-2.3-0.28-3.41c0.08-0.58,0.24-1.08,0.48-1.5 C83.77,39,84.11,38.65,84.53,38.38L84.53,38.38L84.53,38.38z M85.24,39.47l-0.02,0.01c-0.24,0.15-0.43,0.35-0.58,0.61 c-0.16,0.27-0.26,0.61-0.32,1.02c-0.13,0.93-0.07,1.94,0.23,2.83c0.25,0.75,0.67,1.42,1.3,1.9c0.22,0.17,0.46,0.32,0.72,0.44 c0.26,0.12,0.55,0.22,0.86,0.3c0.21,0.05,0.38,0.21,0.45,0.39c0.62,1.55,1.31,2.94,2.07,4.15c0.75,1.2,1.58,2.21,2.49,3.03 c0.98,0.88,1.94,1.5,2.87,1.89c1.73,0.72,3.39,0.68,4.94,0.11c1.59-0.59,3.07-1.73,4.37-3.17c1.65-1.82,3.01-4.13,3.97-6.43 c0.06-0.13,0.15-0.23,0.26-0.3c1.07-0.71,1.86-1.52,2.35-2.33c0.38-0.62,0.58-1.24,0.62-1.82c0.03-0.55-0.09-1.06-0.38-1.49 c-0.15-0.23-0.35-0.44-0.59-0.63c-0.49,1.12-1.32,2.59-2.38,4.05v-6.68c-3.06-1.42-5.07-4.54-6.09-9.22 c-1.22,8.93-12.18,8.54-14.93,10.17v5.21c-0.52-0.73-0.99-1.48-1.41-2.24C85.7,40.62,85.44,40.03,85.24,39.47L85.24,39.47 L85.24,39.47z M20.88,17.72c2.82-1.91,6.03-1.49,8.68,0.53c0.7,0.53,1.29,1.19,1.76,1.98c0.4,0.67,1.11,2.06-0.21,2.27 c-0.52,0.08-1.42-0.62-2.13-0.85c-0.9-0.29-1.82-0.48-2.74-0.58c-1.71-0.17-3.39-0.03-4.83,0.37c-0.78,0.22-1.55,0.48-2.28,0.82 c-0.34,0.16-1.04,0.62-1.22,0.02C17.48,20.91,19.86,18.41,20.88,17.72L20.88,17.72L20.88,17.72z M22.96,51.76 c-0.23-0.12-0.33-0.4-0.21-0.63c0.11-0.23,0.4-0.33,0.63-0.21c0.51,0.25,1,0.36,1.47,0.35c0.47-0.01,0.94-0.14,1.4-0.38 c0.23-0.12,0.52-0.03,0.64,0.2c0.12,0.23,0.03,0.52-0.2,0.63c-0.59,0.31-1.2,0.48-1.82,0.49C24.24,52.22,23.6,52.08,22.96,51.76 L22.96,51.76z M28.46,43.01c-0.19-0.14-0.23-0.4-0.11-0.59c0.13-0.2,0.4-0.25,0.6-0.12c0.33,0.22,0.88,0.33,1.47,0.33 c0.56-0.01,1.11-0.13,1.52-0.39c0.2-0.13,0.47-0.07,0.59,0.13c0.09,0.23,0.05,0.43-0.13,0.59C31.08,43.57,29.77,43.62,28.46,43.01 L28.46,43.01z M17.12,43.02c-0.18-0.17-0.29-0.36-0.13-0.61c0.13-0.2,0.4-0.25,0.6-0.12c0.76,0.51,2.32,0.41,3.08-0.04 c0.21-0.12,0.47-0.05,0.59,0.16c0.03,0.11,0.03,0.22,0,0.32c-0.09,0.33-0.4,0.37-0.69,0.47C19.32,43.63,18.54,43.61,17.12,43.02 L17.12,43.02z M28.86,40.51c-0.19,0.14-0.46,0.09-0.6-0.1c-0.13-0.19-0.09-0.46,0.1-0.6c0.82-0.57,1.64-0.87,2.49-0.87 c0.85,0,1.7,0.29,2.55,0.87c0.2,0.14,0.25,0.41,0.11,0.6c-0.14,0.2-0.41,0.25-0.6,0.11c-0.7-0.48-1.39-0.72-2.05-0.71 C30.19,39.8,29.52,40.04,28.86,40.51L28.86,40.51L28.86,40.51z M16.74,40.51c-0.19,0.14-0.46,0.09-0.6-0.1 c-0.14-0.19-0.09-0.46,0.1-0.6c0.81-0.57,1.64-0.87,2.49-0.87c0.85,0,1.7,0.29,2.55,0.87c0.2,0.14,0.24,0.41,0.11,0.6 c-0.14,0.2-0.4,0.25-0.6,0.11c-0.7-0.48-1.39-0.72-2.05-0.71C18.07,39.8,17.4,40.04,16.74,40.51L16.74,40.51L16.74,40.51z M11.29,38.38c0.12-0.08,0.26-0.11,0.4-0.1c-0.24-1.23-0.2-2.41-0.15-3.79c0.13-3.61,1.05-6.5,3.89-9 c4.29-3.78,12.8-4.11,17.53-0.86c0.7,0.48,1.35,1.06,1.94,1.73c1.92,2.2,3.63,7.04,3.59,10.02c-0.01,0.69-0.12,1.39-0.36,2.1 c-0.01,0.07-0.02,0.15-0.05,0.23c0.52,0.33,0.93,0.73,1.22,1.18c0.44,0.67,0.63,1.45,0.59,2.28c-0.04,0.79-0.31,1.62-0.8,2.42 c-0.57,0.94-1.44,1.86-2.6,2.65c-1.01,2.36-2.42,4.72-4.13,6.61c-1.44,1.59-3.09,2.86-4.89,3.52c-1.85,0.68-3.84,0.73-5.89-0.13 c-1.07-0.44-2.15-1.14-3.24-2.12c-0.99-0.9-1.9-2.01-2.72-3.31c-0.76-1.2-1.44-2.56-2.06-4.06c-0.27-0.08-0.53-0.18-0.78-0.29 c-0.35-0.16-0.67-0.36-0.96-0.58c-0.85-0.66-1.42-1.54-1.75-2.52c-0.37-1.09-0.43-2.3-0.29-3.41c0.08-0.58,0.24-1.08,0.48-1.5 C10.53,39,10.87,38.65,11.29,38.38L11.29,38.38L11.29,38.38z M12,39.47l-0.01,0.01c-0.24,0.15-0.43,0.35-0.58,0.61 c-0.16,0.27-0.26,0.61-0.32,1.02c-0.13,0.93-0.07,1.94,0.23,2.83c0.25,0.75,0.67,1.42,1.3,1.9c0.22,0.17,0.46,0.32,0.72,0.44 c0.26,0.12,0.55,0.22,0.86,0.3c0.21,0.05,0.38,0.21,0.45,0.39c0.62,1.55,1.31,2.94,2.07,4.15c0.75,1.2,1.58,2.21,2.49,3.03 c0.98,0.88,1.94,1.5,2.87,1.89c1.73,0.72,3.4,0.68,4.94,0.11c1.59-0.59,3.07-1.73,4.37-3.17c1.65-1.82,3.01-4.13,3.97-6.43 c0.06-0.13,0.15-0.23,0.26-0.3c1.07-0.71,1.86-1.52,2.35-2.33c0.38-0.62,0.58-1.24,0.62-1.82c0.03-0.55-0.09-1.06-0.38-1.49 c-0.15-0.23-0.34-0.44-0.59-0.63c-0.49,1.12-1.32,2.59-2.38,4.05v-6.68c-3.06-1.42-5.06-4.54-6.08-9.22 c-1.22,8.93-12.18,8.54-14.93,10.17v5.21c-0.52-0.73-0.99-1.48-1.41-2.24C12.46,40.62,12.2,40.03,12,39.47L12,39.47L12,39.47z M59,45.37c-0.32-0.16-0.45-0.54-0.29-0.86c0.16-0.32,0.54-0.45,0.86-0.29c0.69,0.34,1.35,0.49,1.99,0.48 c0.64-0.01,1.28-0.2,1.9-0.52c0.31-0.16,0.7-0.04,0.86,0.27c0.16,0.31,0.04,0.7-0.27,0.86c-0.8,0.42-1.62,0.65-2.47,0.67 C60.74,46,59.88,45.8,59,45.37L59,45.37z M66.14,33.64c-0.24-0.17-0.29-0.5-0.14-0.75c0.17-0.25,0.51-0.32,0.76-0.15 c0.42,0.28,1.12,0.43,1.86,0.41c0.7-0.01,1.41-0.17,1.92-0.5c0.25-0.16,0.59-0.09,0.75,0.17c0.12,0.29,0.06,0.55-0.17,0.75 C69.47,34.36,67.8,34.42,66.14,33.64L66.14,33.64z M51.76,33.66c-0.23-0.23-0.37-0.46-0.16-0.78c0.17-0.25,0.51-0.32,0.76-0.15 c0.97,0.65,2.93,0.52,3.91-0.05c0.26-0.15,0.6-0.06,0.74,0.2c0.04,0.14,0.04,0.28,0.01,0.41c-0.11,0.41-0.51,0.47-0.88,0.59 C54.55,34.43,53.55,34.41,51.76,33.66L51.76,33.66z M66.65,30.48c-0.25,0.17-0.59,0.11-0.76-0.13c-0.17-0.25-0.12-0.59,0.13-0.76 c1.03-0.73,2.08-1.1,3.16-1.11c1.08-0.01,2.15,0.36,3.23,1.1c0.25,0.17,0.31,0.52,0.14,0.76c-0.18,0.25-0.52,0.31-0.76,0.14 c-0.89-0.61-1.76-0.92-2.6-0.91C68.33,29.57,67.49,29.88,66.65,30.48L66.65,30.48L66.65,30.48z M51.27,30.48 c-0.25,0.17-0.59,0.11-0.76-0.13c-0.17-0.25-0.12-0.59,0.13-0.76c1.03-0.73,2.08-1.1,3.16-1.11c1.08-0.01,2.15,0.36,3.23,1.1 c0.25,0.17,0.31,0.52,0.14,0.76c-0.17,0.25-0.52,0.31-0.76,0.14c-0.89-0.61-1.76-0.92-2.6-0.91 C52.96,29.57,52.12,29.88,51.27,30.48L51.27,30.48L51.27,30.48z M44.36,27.77c0.16-0.1,0.34-0.14,0.5-0.13 c-0.3-1.56-0.26-3.05-0.19-4.81c0.17-4.58,1.33-8.24,4.94-11.42c5.45-4.79,16.24-5.21,22.23-1.08c0.89,0.61,1.71,1.34,2.46,2.19 c2.44,2.79,4.6,8.92,4.56,12.71c-0.02,0.88-0.16,1.77-0.45,2.67c-0.01,0.09-0.03,0.19-0.06,0.3c0.66,0.41,1.17,0.92,1.55,1.49 c0.56,0.86,0.81,1.84,0.75,2.89c-0.06,1-0.4,2.05-1.02,3.07c-0.72,1.19-1.82,2.36-3.29,3.36C75.06,42,73.27,45,71.1,47.4 c-1.82,2.02-3.92,3.63-6.2,4.47c-2.34,0.86-4.87,0.93-7.48-0.17c-1.36-0.57-2.73-1.45-4.11-2.7c-1.26-1.14-2.41-2.55-3.45-4.2 c-0.96-1.52-1.82-3.25-2.61-5.15c-0.35-0.1-0.68-0.23-0.99-0.37c-0.44-0.21-0.85-0.45-1.22-0.73c-1.08-0.83-1.8-1.96-2.22-3.2 c-0.46-1.38-0.55-2.92-0.36-4.33c0.1-0.73,0.3-1.36,0.61-1.9C43.4,28.56,43.82,28.11,44.36,27.77L44.36,27.77L44.36,27.77z M45.27,29.16l-0.02,0.01c-0.3,0.19-0.55,0.45-0.73,0.78c-0.2,0.35-0.34,0.78-0.41,1.3c-0.16,1.18-0.09,2.45,0.29,3.59 c0.32,0.95,0.85,1.8,1.65,2.41c0.28,0.21,0.59,0.4,0.91,0.56c0.33,0.15,0.7,0.28,1.09,0.38c0.27,0.06,0.48,0.26,0.57,0.5 c0.79,1.97,1.67,3.73,2.63,5.27c0.95,1.51,2,2.8,3.16,3.85c1.24,1.12,2.46,1.9,3.64,2.4c2.19,0.92,4.31,0.86,6.26,0.14 c2.02-0.74,3.89-2.19,5.55-4.03c2.09-2.32,3.82-5.24,5.04-8.15c0.07-0.17,0.19-0.29,0.33-0.39c1.36-0.9,2.35-1.92,2.98-2.96 c0.48-0.79,0.74-1.57,0.78-2.31c0.04-0.7-0.12-1.34-0.48-1.89c-0.19-0.29-0.44-0.56-0.75-0.79c-0.63,1.42-1.67,3.28-3.02,5.13 v-8.47c-3.89-1.8-6.43-5.76-7.72-11.71c-1.55,11.33-15.45,10.83-18.94,12.9v6.61c-0.67-0.93-1.26-1.88-1.79-2.84 C45.85,30.62,45.51,29.87,45.27,29.16L45.27,29.16L45.27,29.16z"/></g></svg>