<svg xmlns="http://www.w3.org/2000/svg" shape-rendering="geometricPrecision" text-rendering="geometricPrecision" image-rendering="optimizeQuality" fill-rule="evenodd" clip-rule="evenodd" viewBox="0 0 512 443.03"><path fill-rule="nonzero" d="M38.65 443.03C20.98 312.3 48.46 245.99 72.51 187.98c8.59-20.72 23.75-59.11 29.09-98.28 4.44-32.62 1.18-65.78-.7-89.7h12.55c1.94 25.7 4.94 60.61.16 94.59-5.53 39.21-20.82 77.16-29.53 98.19-.92 2.22-1.85 4.45-2.78 6.7 124.41 38.26 240.3 36.08 349.01-.23l-2.33-5.65c-8.41-20.45-30.45-56.89-35.98-95.01-5.1-35.2 3.14-71.81 6.26-98.59h12.57c-3.03 25.51-11.49 61.28-6.55 95.78 5.34 37.37 27.13 73.28 35.27 93.06 23.99 58.29 51.35 124.78 33.9 254.19h-12.64c14.08-102.92-.71-165.16-19.29-215.35-63.81 26.7-114.46 67.28-160.51 118.51.18.85.2 1.75 0 2.65-3.97 18.75-6.8 42.13-8.37 67.93a797.7 797.7 0 0 0-1.13 26.26h-12.52c.24-9.22.63-18.24 1.15-27 1.21-19.95 3.17-38.52 5.82-54.75h-22.78c2.98 16.23 5.17 34.62 6.52 54.29.62 8.9 1.06 18.08 1.33 27.46H238.5c-.27-9.08-.7-17.98-1.3-26.63-1.75-25.35-4.9-48.49-9.41-67.41-.04-.18-.07-.35-.11-.52-45.96-53.91-96.74-93.22-158.23-118.9-18.14 49.56-32.15 111.48-18.17 213.46H38.65zM478.64 60.01a8.076 8.076 0 0 0-.1-11.43c-3.17-3.12-8.29-3.08-11.41.1l-22.35 25.25c-3.1 3.14-3.09 8.19 0 11.33l21.9 24.79c3.12 3.18 8.24 3.22 11.41.09a8.052 8.052 0 0 0 .1-11.41l-9.54-11.23 35.33-.16a8.092 8.092 0 0 0 8.02-8.15c-.04-4.45-3.69-8.04-8.15-8l-34.87.16 9.66-11.34zm-445.29 0c-3.12-3.18-3.08-8.3.1-11.43 3.18-3.12 8.3-3.08 11.42.1l22.35 25.25c3.1 3.14 3.08 8.19 0 11.33l-21.9 24.79c-3.12 3.18-8.24 3.22-11.42.09-3.18-3.12-3.22-8.24-.09-11.41l9.54-11.23-35.33-.16a8.075 8.075 0 1 1 .13-16.15l34.87.16-9.67-11.34zM256 173.22c7 0 12.67 4.24 12.67 9.46 0 5.22-5.67 9.46-12.67 9.46s-12.68-4.24-12.68-9.46c0-5.22 5.68-9.46 12.68-9.46z"/></svg>