<?xml version="1.0" encoding="utf-8"?><svg version="1.1" id="Layer_1" xmlns="http://www.w3.org/2000/svg" xmlns:xlink="http://www.w3.org/1999/xlink" x="0px" y="0px" viewBox="0 0 122.88 88.84" style="enable-background:new 0 0 122.88 88.84" xml:space="preserve"><g><path d="M59.28,62.82L4.64,35.56v19.49l6.59,3.44l1.42-4.74c0.36-1.23,1.65-1.92,2.88-1.56c0.21,0.06,0.41,0.16,0.59,0.27 l29.54,16.37c0.82,0.46,1.25,1.34,1.18,2.22l0.01,0l-0.54,6.2l12.97,6.1V62.82L59.28,62.82z M62.28,88.16 c-0.67,0.67-1.71,0.89-2.62,0.47l-16.6-7.8c-0.96-0.35-1.6-1.31-1.51-2.38l0.55-6.31L16.26,57.82l-1.4,4.67l-0.01,0 c-0.04,0.14-0.1,0.28-0.17,0.41c-0.59,1.13-1.98,1.57-3.11,0.98L1.44,58.59C0.59,58.24,0,57.41,0,56.44V31.81 c0-0.95,0.58-1.77,1.4-2.13L58.09,0.26c0.69-0.36,1.49-0.33,2.13,0.01L79.1,9.82l-0.02-0.01l0.02,0.01l0.01,0l0.06,0.03l0.01,0 l19.3,9.77l0.06,0.03l19.26,9.75c0.72,0.36,1.16,1.05,1.25,1.79l-0.01-0.09l3.81,23.65c0.15,0.95-0.31,1.94-1.21,2.41L62.86,87.89 C62.68,88,62.48,88.1,62.28,88.16L62.28,88.16z M115.65,29.45L93.8,41.29l17.97-9.74l-14.29-7.23l1.06-0.56L46.36,51.2l15.19,7.58 L115.65,29.45L115.65,29.45z M92.42,21.75L78.1,14.5l-55.9,28.76l4.06-2.09l15.01,7.49l-1.05,0.55L92.42,21.75L92.42,21.75z M73,11.92L59.16,4.91L7.42,31.77l13.7,6.84l-1.05,0.54L73,11.92L73,11.92z"/></g></svg>