<svg id="Layer_1" data-name="Layer 1" xmlns="http://www.w3.org/2000/svg" viewBox="0 0 122.88 93.61"><defs><style>.cls-1{fill-rule:evenodd;}</style></defs><title>workflow</title><path class="cls-1" d="M115.64,35.41l3,3a2,2,0,0,1,0,2.87l-2.42,2.42a16.16,16.16,0,0,1,1.5,4h3.13a2,2,0,0,1,2,2V54a2,2,0,0,1-2,2h-3.42a16.06,16.06,0,0,1-1.77,3.88l2.22,2.21a2,2,0,0,1,0,2.87l-3,3A2,2,0,0,1,112,68l-2.42-2.42a15.63,15.63,0,0,1-4,1.5v3.13a2,2,0,0,1-2,2H99.32a2,2,0,0,1-2-2V66.75A16.45,16.45,0,0,1,93.41,65L91.2,67.2a2,2,0,0,1-2.87,0l-3-3a2,2,0,0,1,0-2.87l2.42-2.42a15.77,15.77,0,0,1-1.5-4H83.12a2,2,0,0,1-2-2V48.64a2,2,0,0,1,2-2h3.42a16.06,16.06,0,0,1,1.77-3.88L86.1,40.52a2,2,0,0,1,0-2.87l3-3a2,2,0,0,1,2.87,0l2.42,2.42a15.77,15.77,0,0,1,4-1.5V32.44a2,2,0,0,1,2-2h4.24a2,2,0,0,1,2,2v3.41a16.06,16.06,0,0,1,3.88,1.77l2.21-2.21a2,2,0,0,1,2.86,0ZM44.12,53a2.2,2.2,0,0,1-2-2.36,2.15,2.15,0,0,1,2-2.36H69.19a2.21,2.21,0,0,1,2,2.36,2.16,2.16,0,0,1-2,2.36ZM27.56,46H36a.75.75,0,0,1,.79.79v8.45A.74.74,0,0,1,36,56H27.56a.74.74,0,0,1-.79-.78V46.76a.75.75,0,0,1,.79-.79Zm0,20.85H36a.75.75,0,0,1,.79.79v8.44a.75.75,0,0,1-.79.79H27.56a.75.75,0,0,1-.79-.79V67.61a.75.75,0,0,1,.79-.79Zm16.56,7a2.2,2.2,0,0,1-2-2.35,2.15,2.15,0,0,1,2-2.36h17.1a2.2,2.2,0,0,1,2,2.36,2.15,2.15,0,0,1-2,2.35ZM30,35.17a1.35,1.35,0,0,1-1.81-.23L28,34.78l-2.52-2.59a1.43,1.43,0,0,1,.24-2,1.68,1.68,0,0,1,2.2-.08l1.34,1.42L34.17,27a1.39,1.39,0,0,1,2,.47,1.58,1.58,0,0,1-.16,2.2l-6,5.52Zm14-2c-1.1,0-1.83-1.1-1.83-2.36s.73-2.36,1.83-2.36H73a2.21,2.21,0,0,1,2,2.36,2.16,2.16,0,0,1-2,2.36ZM3.5,70.32c2.93-3.08,4.12-3.47,8.06-4.19V3c-9.19.9-8.13,9.41-8.07,17.32,0,1.06,0,1.62,0,1.88V70.32ZM15,12.09h86.23a2.36,2.36,0,0,1,1.7.71,2.4,2.4,0,0,1,.71,1.7v7H99.19V16H15V67.86h0a1.46,1.46,0,0,1-1.25,1.45C.63,71.34,0,86.9,13.37,89.13H99.19V82.6h4.47v8.6a2.41,2.41,0,0,1-.71,1.7h0a2.4,2.4,0,0,1-1.7.71h-88c-3.6,0-8.59-2.82-10.68-5.8S-.17,81.18,0,76.84V20.36C0,10.69-.1.24,13.37,0h.18A1.47,1.47,0,0,1,15,1.48V12.09ZM102,43a8.34,8.34,0,1,1-8.34,8.34A8.34,8.34,0,0,1,102,43Z"/></svg>