<?xml version="1.0" encoding="utf-8"?><svg version="1.1" id="Layer_1" xmlns="http://www.w3.org/2000/svg" xmlns:xlink="http://www.w3.org/1999/xlink" x="0px" y="0px" viewBox="0 0 122.88 120.58" style="enable-background:new 0 0 122.88 120.58" xml:space="preserve"><style type="text/css"><![CDATA[
	.st0{fill:#EF4136;}
	.st1{fill:#262626;}
]]></style><g><path class="st1" d="M108.57,87.83c0.18,0,0.35,0.02,0.52,0.05c1.13-1.96,2.15-4.02,3.08-6.17c0.02-0.04,0.04-0.08,0.06-0.13 c1.39-3.28,2.44-6.69,3.15-10.22c0.55-2.74,0.89-5.55,1.02-8.43h-7.12c0.62-1.74,1.17-3.5,1.67-5.28h5.45 c-0.13-2.88-0.47-5.69-1.02-8.43l-0.08-0.39c1.43,0.39,2.9,0.52,4.35,0.41c0.36-0.03,0.72-0.07,1.08-0.13c0.67,3.63,1,7.36,1,11.18 c0,4.15-0.39,8.19-1.17,12.1c-0.77,3.86-1.93,7.61-3.48,11.26c-0.02,0.05-0.04,0.1-0.06,0.14c-1.56,3.63-3.42,7.06-5.58,10.28 c-2.15,3.21-4.59,6.17-7.32,8.9c-2.72,2.73-5.69,5.17-8.9,7.32c-3.21,2.16-6.64,4.01-10.28,5.58l0,0l-0.01,0 c-3.69,1.58-7.49,2.76-11.39,3.54c-3.92,0.78-7.95,1.18-12.1,1.18c-4.15,0-8.19-0.39-12.1-1.18c-3.86-0.77-7.61-1.93-11.26-3.48 c-0.05-0.02-0.1-0.04-0.14-0.06c-1.19-0.51-2.36-1.06-3.51-1.63c3.14,0.04,6.31-0.11,9.51-0.45l0.26-0.02 c0.9-0.1,1.81-0.21,2.72-0.35c1.14,0.31,2.29,0.58,3.46,0.81c1.31,0.26,2.64,0.48,3.98,0.64l0,0c-0.91-0.76-1.8-1.52-2.67-2.28 l0.6-0.13c1.9-0.4,3.8-0.87,5.7-1.41c0.27,0.22,0.54,0.45,0.81,0.67l0,0v-0.91c0.5-0.15,1.01-0.3,1.51-0.46 c1.28-0.4,2.54-0.83,3.78-1.29v2.66c2.1-1.73,4.1-3.46,5.98-5.19c3.85-1.83,7.5-3.96,10.94-6.37c2.36-1.65,4.61-3.42,6.74-5.31 c-4.92,6.75-11.34,13.42-19.22,20.02c1.34-0.17,2.67-0.38,3.98-0.64c3.58-0.71,7.03-1.78,10.35-3.2l0,0 c3.38-1.45,6.52-3.15,9.43-5.1c2.91-1.96,5.61-4.18,8.1-6.67l0.01-0.01l0,0c1.92-1.91,3.68-3.95,5.28-6.12l0,0H89.65 c1.78-1.68,3.48-3.45,5.08-5.29H108.57L108.57,87.83L108.57,87.83z M26.66,87.83h3.9c-4.68-8.19-7.19-16.48-7.49-24.9H6.49 c0.13,2.88,0.47,5.69,1.01,8.43c0.72,3.58,1.78,7.03,3.2,10.35l0,0c0.11,0.25,0.21,0.5,0.32,0.74c-1.12-0.61-2.21-1.26-3.27-1.95 c-0.58-0.38-1.02-0.67-1.33-0.89L5.7,79.09c-0.61-0.54-1.3-0.99-2.04-1.33c-0.53-1.76-0.98-3.55-1.34-5.36 c-0.78-3.92-1.18-7.95-1.18-12.1c0-4.15,0.39-8.19,1.18-12.1c0.77-3.86,1.93-7.61,3.48-11.26c0.02-0.05,0.04-0.1,0.06-0.14 c1.56-3.64,3.42-7.06,5.58-10.28c2.15-3.21,4.59-6.17,7.32-8.9c2.72-2.73,5.69-5.17,8.9-7.32c3.21-2.16,6.64-4.01,10.28-5.58l0,0 l0.01,0c3.69-1.57,7.49-2.75,11.39-3.54l0,0C53.25,0.39,57.29,0,61.44,0c4.15,0,8.18,0.39,12.1,1.18 c3.86,0.77,7.61,1.93,11.26,3.48c0.05,0.02,0.1,0.04,0.15,0.06c2.39,1.03,4.69,2.19,6.9,3.47c-1.51,0.9-2.86,2.13-3.92,3.66 l-0.01,0.02l0.02,0.01l-0.08,0.11c-1.6-0.87-3.27-1.68-5-2.42c-0.04-0.02-0.08-0.04-0.13-0.06c-3.28-1.39-6.69-2.44-10.22-3.15 c-1.43-0.29-2.88-0.52-4.35-0.69l0,0c5.43,4.8,10.15,9.57,14.17,14.33l-3.1,4.49C75.05,19.41,70,14.27,64.08,9.09l0,0v18.37h13.09 l-3.65,5.28h-9.45l0,0v24.9h19.64c-0.79,1.81-1.68,3.58-2.67,5.28H64.08l0,0v17.66c-1.68,1.05-3.45,2-5.29,2.86V62.93H28.34 c0.33,8.36,3.14,16.66,8.37,24.9h7.54c-0.88,0.14-1.77,0.26-2.65,0.36l-0.24,0.02C36.31,88.77,31.38,88.62,26.66,87.83L26.66,87.83 z M6.49,57.65h16.68c0.61-8.24,3.35-16.54,8.25-24.9H13.76c-1.11,1.94-2.13,3.99-3.05,6.12c-0.02,0.04-0.04,0.08-0.06,0.12 c-1.39,3.28-2.44,6.69-3.15,10.23C6.96,51.96,6.62,54.77,6.49,57.65L6.49,57.65L6.49,57.65z M17.21,27.47h17.6 c5.01-7.22,11.64-14.49,19.91-21.8c-1.47,0.17-2.92,0.4-4.35,0.69c-3.58,0.72-7.03,1.78-10.35,3.2l0,0 c-3.38,1.45-6.52,3.15-9.43,5.1c-2.91,1.96-5.61,4.18-8.1,6.67l-0.01,0.01l0,0C20.56,23.26,18.81,25.3,17.21,27.47L17.21,27.47 L17.21,27.47z M58.8,57.65v-24.9H37.6c-5.43,8.42-8.46,16.72-9.14,24.9H58.8L58.8,57.65L58.8,57.65z M58.8,27.47V9.09 c-7.07,6.19-12.9,12.31-17.49,18.38H58.8L58.8,27.47L58.8,27.47z"/><path class="st0" d="M104.78,30.14c0.36,3.27,0.52,6.58,0.3,10.43c-0.78,14.12-5.83,27.49-14.19,38.38 c-8.17,10.64-19.51,18.91-33.14,23.18c-4.89,1.53-9.74,2.55-14.5,3.07c-13.33,1.46-26.14-0.83-37.3-6.19 C3.4,94.77,1.42,90.24,0,85.55c1.01,0.75,2.04,1.47,3.09,2.16c11.13,7.25,24.79,10.65,39.21,9.06c4.28-0.47,8.59-1.36,12.9-2.72 c11.87-3.72,21.77-10.96,28.94-20.27c7.34-9.56,11.78-21.31,12.47-33.7c0.2-3.74,0.02-6.95-0.38-10.19l-9.67,14.02 c-1.33,1.93-3.96,2.42-5.88,1.08c-1.93-1.33-2.42-3.96-1.08-5.88l15.41-22.33c1.33-1.93,3.96-2.42,5.88-1.08 c5.07,3.22,15.33,13.07,20.52,17.5c1.78,1.52,2,4.19,0.47,5.97c-1.52,1.78-4.19,2-5.97,0.47L104.78,30.14L104.78,30.14 L104.78,30.14z"/></g></svg>