<?xml version="1.0" encoding="utf-8"?><svg version="1.1" id="Layer_1" xmlns="http://www.w3.org/2000/svg" xmlns:xlink="http://www.w3.org/1999/xlink" x="0px" y="0px" viewBox="0 0 69.44 44.81" style="enable-background:new 0 0 69.44 44.81" xml:space="preserve"><style type="text/css">.st0{fill-rule:evenodd;clip-rule:evenodd;}</style><g><path class="st0" d="M7.86,0h53.73c2.16,0,4.13,0.89,5.55,2.31c1.42,1.42,2.31,3.39,2.31,5.55v20.08c0,2.16-0.88,4.14-2.31,5.58 c-1.42,1.42-3.37,2.31-5.55,2.31h-47.1L2.22,44.55c-0.63,0.45-1.51,0.3-1.95-0.33C0.09,43.97,0,43.69,0,43.41h0V7.86 C0,5.7,0.88,3.74,2.31,2.31L2.32,2.3C3.74,0.88,5.7,0,7.86,0L7.86,0z M30.76,8.89l-1.97,17.04h-5.52c-0.5-2.62-0.94-5.6-1.35-8.95 c-0.18,1.44-0.6,4.42-1.24,8.95h-5.49L13.21,8.89h4.31l0.47,5.95l0.45,5.75c0.17-2.98,0.58-6.88,1.23-11.7h4.59 c0.05,0.51,0.21,2.38,0.47,5.63l0.5,6.48c0.26-4.13,0.67-8.16,1.24-12.11H30.76L30.76,8.89z M41.11,16.87v3.42 c0,1.26-0.06,2.18-0.19,2.76c-0.13,0.59-0.39,1.13-0.81,1.64c-0.41,0.51-0.94,0.88-1.59,1.13c-0.65,0.24-1.39,0.36-2.23,0.36 c-0.94,0-1.74-0.1-2.39-0.31c-0.65-0.21-1.16-0.52-1.52-0.94c-0.36-0.42-0.62-0.93-0.78-1.52c-0.15-0.59-0.23-1.48-0.23-2.67v-3.58 c0-1.3,0.14-2.31,0.42-3.04c0.28-0.73,0.79-1.31,1.52-1.76c0.73-0.44,1.66-0.66,2.8-0.66c0.95,0,1.77,0.14,2.46,0.43 c0.68,0.28,1.21,0.65,1.58,1.11c0.37,0.46,0.62,0.93,0.76,1.41C41.04,15.15,41.11,15.88,41.11,16.87L41.11,16.87z M36.87,15.82 c0-0.71-0.04-1.17-0.12-1.35c-0.08-0.19-0.24-0.28-0.5-0.28c-0.26,0-0.42,0.09-0.51,0.28c-0.08,0.18-0.13,0.64-0.13,1.35v6.3 c0,0.66,0.04,1.09,0.13,1.29c0.09,0.2,0.25,0.3,0.5,0.3c0.25,0,0.42-0.09,0.5-0.27c0.08-0.18,0.12-0.57,0.12-1.18V15.82 L36.87,15.82z M56.24,11.97l-1.68,13.96h-4.62c-0.24-1.71-0.53-3.96-0.88-6.75c-0.13,1.23-0.3,2.47-0.51,3.72l-0.45,3.04h-4.6 l-1.8-13.96h3.64c0.04,0.37,0.36,3.03,0.94,8.01c0.06-0.52,0.37-3.19,0.94-8.01h3.52l0.88,8.01c0.14-2.34,0.46-5.01,0.97-8.01 H56.24L56.24,11.97z"/></g></svg>