<?xml version="1.0" encoding="utf-8"?><svg version="1.1" id="Layer_1" xmlns="http://www.w3.org/2000/svg" xmlns:xlink="http://www.w3.org/1999/xlink" x="0px" y="0px" viewBox="0 0 123.56 99.23" style="enable-background:new 0 0 123.56 99.23" xml:space="preserve"><style type="text/css">.st0{fill-rule:evenodd;clip-rule:evenodd;stroke:#000000;stroke-width:0.5;stroke-miterlimit:2.6131;}</style><g><path class="st0" d="M49.25,2.3l15.04,20c4.91-4.8,8.57-15.53,12.56-22.17l4.6,23.5c8.25-3.18,15.27-11.98,22.52-16.06l-7.92,20.99 l23.02-1.4l-3.17,4.04h2.52c1.25,0,2.26,1.01,2.26,2.26c0,0.24-0.04,0.47-0.11,0.68l-3.59,16.29l6.03,4.59l-7.57,2.36l-1.31,5.94 c-0.23,1.05-1.16,1.76-2.19,1.76v0.01h-5.99l0.36,10.99L93.71,70.5c-0.98,5.34-3.97,17.89-7.53,28.63L74.62,74.57L59.16,84.72 L48.2,70.42c-6.56,4.43-12.27,11.4-17.6,19.51l-0.65-24.46L0.14,73.47l12.16-8.39h-0.04c-1.15,0-2.09-0.86-2.24-1.97L3.54,33.94 c-0.27-1.21,0.5-2.41,1.71-2.68c0.16-0.04,0.32-0.05,0.48-0.05V31.2h8.62c1.16,0,2.11,0.87,2.24,2l0.92,4.88l0.95-0.3l1.36-4.92 c0.28-1,1.18-1.65,2.17-1.65V31.2h7.2c-1.74-6.02-4.12-10.71-6.45-15.29l20.2,7.72L49.25,2.3L49.25,2.3z M77.67,33.45h8.31 l3.1,16.39l4.54-16.39h8.55l4.57,16.42l3.12-16.42h8.57l-6.48,29.37h-8.9l-5.16-18.5l-5.12,18.5h-8.89l-1.82-8.21 c0.06-0.25,0.12-0.51,0.17-0.77c0.38-1.84,0.56-3.82,0.56-5.95c0-3.03-0.44-5.77-1.32-8.22C80.62,37.28,79.35,35.2,77.67,33.45 L77.67,33.45z M5.74,33.45h8.62l3.1,16.39l4.54-16.39h8.55l4.57,16.42l3.12-16.42h8.57l-0.13,0.61c-1.47,1.67-2.6,3.6-3.38,5.77 c-0.88,2.46-1.32,5.24-1.32,8.32c0,1.82,0.15,3.53,0.46,5.13l-2.1,9.54h-8.9l-5.16-18.5l-5.12,18.5h-8.89L5.74,33.45L5.74,33.45z M44.99,48.16c0-5.48,1.52-9.74,4.58-12.79c3.05-3.05,7.31-4.58,12.76-4.58c5.59,0,9.89,1.5,12.91,4.49c3.02,3,4.53,7.2,4.53,12.6 c0,3.92-0.66,7.13-1.98,9.64c-1.32,2.51-3.23,4.46-5.73,5.86c-2.5,1.4-5.61,2.09-9.34,2.09c-3.78,0-6.91-0.6-9.4-1.8 c-2.48-1.21-4.49-3.12-6.03-5.73C45.77,55.35,44.99,52.08,44.99,48.16L44.99,48.16z M55.35,48.19c0,3.38,0.63,5.82,1.89,7.3 c1.27,1.48,2.98,2.22,5.16,2.22c2.23,0,3.96-0.73,5.18-2.17c1.23-1.45,1.84-4.05,1.84-7.81c0-3.16-0.64-5.46-1.91-6.91 c-1.28-1.46-3.01-2.19-5.2-2.19c-2.09,0-3.78,0.74-5.05,2.22C55.99,42.32,55.35,44.77,55.35,48.19L55.35,48.19z"/></g></svg>