<?xml version="1.0" encoding="utf-8"?><svg version="1.1" id="Layer_1" xmlns="http://www.w3.org/2000/svg" xmlns:xlink="http://www.w3.org/1999/xlink" x="0px" y="0px" viewBox="0 0 122.88 79.38" style="enable-background:new 0 0 122.88 79.38" xml:space="preserve"><g><path d="M14.03,0h94.82c3.86,0,7.37,1.58,9.91,4.12l0.15,0.16c2.46,2.53,3.98,5.98,3.98,9.75v35.42c0,3.86-1.57,7.4-4.12,9.96 c-2.53,2.54-6.02,4.13-9.91,4.13H25.78L4.18,78.9c-1.19,0.84-2.83,0.57-3.68-0.62c-0.33-0.46-0.49-1-0.49-1.53H0V14.03 c0-3.85,1.58-7.36,4.12-9.9l0.02-0.02C6.68,1.58,10.19,0,14.03,0L14.03,0z M54.45,15.87l-3.48,30.06h-9.74 c-0.87-4.62-1.67-9.88-2.38-15.78c-0.32,2.54-1.05,7.8-2.19,15.78h-9.68l-3.5-30.06h7.6l0.82,10.5l0.79,10.15 c0.3-5.25,1.02-12.14,2.17-20.65h8.09c0.09,0.89,0.37,4.2,0.83,9.93l0.88,11.44c0.46-7.28,1.19-14.4,2.19-21.37H54.45L54.45,15.87z M72.71,29.95v6.04c0,2.22-0.11,3.84-0.34,4.88c-0.22,1.03-0.7,2-1.43,2.89c-0.73,0.9-1.67,1.56-2.81,1.99 c-1.15,0.42-2.46,0.64-3.94,0.64c-1.66,0-3.07-0.18-4.21-0.54c-1.15-0.37-2.05-0.92-2.68-1.65c-0.64-0.74-1.1-1.63-1.37-2.68 c-0.27-1.05-0.41-2.62-0.41-4.71v-6.32c0-2.29,0.25-4.08,0.74-5.37c0.49-1.29,1.39-2.32,2.67-3.1c1.29-0.78,2.93-1.17,4.93-1.17 c1.68,0,3.12,0.25,4.33,0.75c1.2,0.5,2.13,1.15,2.79,1.96c0.65,0.8,1.1,1.63,1.34,2.49C72.59,26.9,72.71,28.2,72.71,29.95 L72.71,29.95z M65.23,28.1c0-1.26-0.07-2.06-0.2-2.38c-0.14-0.33-0.43-0.49-0.88-0.49c-0.45,0-0.75,0.16-0.9,0.49 c-0.15,0.32-0.22,1.12-0.22,2.38v11.12c0,1.17,0.08,1.93,0.22,2.27c0.15,0.35,0.44,0.53,0.88,0.53c0.45,0,0.74-0.16,0.89-0.48 c0.15-0.32,0.22-1.01,0.22-2.08V28.1L65.23,28.1z M99.4,21.31l-2.97,24.63h-8.15c-0.42-3.01-0.94-6.98-1.55-11.91 c-0.23,2.17-0.53,4.36-0.9,6.56l-0.8,5.36h-8.11l-3.17-24.63h6.42c0.08,0.65,0.63,5.35,1.66,14.12c0.11-0.91,0.66-5.62,1.67-14.12 h6.21l1.55,14.12c0.25-4.13,0.82-8.84,1.71-14.12H99.4L99.4,21.31z M108.85,5.29H14.03c-2.41,0-4.59,0.98-6.17,2.56L7.85,7.86 c-1.58,1.58-2.56,3.76-2.56,6.17v57.6l17.96-12.77c0.46-0.38,1.05-0.61,1.69-0.61h83.9c2.43,0,4.61-0.98,6.17-2.56 c1.59-1.6,2.57-3.81,2.57-6.24V14.03c0-2.34-0.94-4.48-2.45-6.06l-0.12-0.11C113.43,6.28,111.25,5.29,108.85,5.29L108.85,5.29z"/></g></svg>