<?xml version="1.0" encoding="utf-8"?><svg version="1.1" id="Layer_1" xmlns="http://www.w3.org/2000/svg" xmlns:xlink="http://www.w3.org/1999/xlink" x="0px" y="0px" viewBox="0 0 99.81 122.88" style="enable-background:new 0 0 99.81 122.88" xml:space="preserve"><style type="text/css">.st0{fill-rule:evenodd;clip-rule:evenodd;}</style><g><path class="st0" d="M28.99,8.46h12.65C42.22,3.69,46.07,0,50.74,0c4.64,0,8.47,3.64,9.09,8.36l13.82,0.1 c0.56,0,1.01,0.45,1.01,1.01V23.9c0,0.56-0.45,1.01-1.01,1.01l-44.65,0c-0.55,0-1.01-0.45-1.01-1.01l0-14.43 C27.98,8.91,28.43,8.46,28.99,8.46L28.99,8.46L28.99,8.46z M98.8,12.46h0.92v110.42l-0.92,0v-0.78H0V11.46h24.04v9.05H9.23v92.08 H91.2V22.43H78.86V11.46h20.95L98.8,12.46L98.8,12.46z M46.98,12.61c0.62,0.85,1.51,1.69,2.45,2.12c0.77,0.23,1.61,0.25,2.39,0.04 c1.22-0.56,2.34-1.91,2.86-3.04c0.06-0.32,0.1-0.65,0.1-1.01c0-2.39-1.83-4.33-4.09-4.33c-2.26,0-4.09,1.94-4.09,4.33 C46.61,11.44,46.74,12.08,46.98,12.61L46.98,12.61L46.98,12.61z"/></g></svg>