<?xml version="1.0" encoding="utf-8"?><svg version="1.1" id="Layer_1" xmlns="http://www.w3.org/2000/svg" xmlns:xlink="http://www.w3.org/1999/xlink" x="0px" y="0px" viewBox="0 0 121.05 122.88" style="enable-background:new 0 0 121.05 122.88" xml:space="preserve"><style type="text/css">.st0{fill-rule:evenodd;clip-rule:evenodd;}</style><g><path class="st0" d="M30.31,58.08l5.63-0.14l2.66-0.07l4.05,4.7c0.95,1.1,1.92,2.21,2.98,3.28c-0.75,1.12-4.12,3.98-7.11,6.51 c-1.32,1.12-2.58,2.19-3.55,3.06c-7.59,2.95-15.01,5.97-20.76,9.59c-8.04,5.04-12.1,13.44-14.02,22.51 c-0.59,7.98-0.01,7.58,5.6,7.49c24.86-0.24,49.78,0.2,74.66,0.23c-0.34-3.39-0.03-6.98,1.01-10.65 c2.63-9.22,9.36-17.05,17.85-21.93c-5.06-2.66-10.94-5.03-16.93-7.34c-0.69-0.62-1.47-1.29-2.26-1.99c-2.52-2.2-5.35-4.69-6.5-6.11 c1.8-1.58,3.32-3.39,4.82-5.2l2.54-3.06c0.04-0.05,0.23-0.27,0.52-0.6c0.14-0.17,0.3-0.34,0.46-0.54h5.55 C95.7,40.29,90.5,14.28,73.77,3.26C68.62-0.13,64.93,0,58.91,0c-6.9,0-10.42,0.22-16.33,4.13C33.86,9.89,28.51,19.86,26.26,33.7 C25.79,40.6,25.49,52.52,30.31,58.08L30.31,58.08L30.31,58.08z M112.92,87.71l7.28,5.61c0.96,0.74,1.14,2.13,0.4,3.09l-1.89,2.36 l-10.77-8.31l1.89-2.36C110.57,87.15,111.96,86.97,112.92,87.71L112.92,87.71L112.92,87.71z M105.08,117.28 c-2.48,1.13-4.95,2.26-7.43,3.39c-5.82,2.66-5.64,3.91-4.73-2.15l1.42-9.53l0,0l-0.01-0.01l11.93-16.4l10.77,8.31l-11.94,16.4 L105.08,117.28L105.08,117.28L105.08,117.28z M96.17,110.41l7.07,5.46c-1.63,0.74-3.26,1.48-4.88,2.22 c-3.83,1.74-3.7,2.56-3.11-1.42L96.17,110.41L96.17,110.41L96.17,110.41z M39.92,55.57c-4.58-15.9-2.35-30.52,10.18-43.04 c2.22,7.19,7.21,13.13,15.7,17.51c4.06,3.01,7.99,6.65,11.78,10.83c0.67-2.77-1.9-6.15-5.01-9.61c2.89,1.43,5.53,3.41,7.41,7.25 c2.18,4.45,2.15,8.2,1.43,13.03c-0.21,1.4-0.5,2.73-0.87,4.01c-0.25,0.1-0.47,0.24-0.62,0.43c-0.34,0.42-0.69,0.83-1.01,1.2 c-0.1,0.12-0.18,0.21-0.53,0.63l-2.54,3.06c-1.94,2.33-3.9,4.66-6.38,6.36c-2.37,1.62-5.28,2.69-9.27,2.68 c-3.67-0.01-6.46-1.04-8.75-2.58c-2.41-1.6-4.34-3.8-6.2-5.94l-4.64-5.39C40.43,55.8,40.19,55.66,39.92,55.57L39.92,55.57 L39.92,55.57z M77.75,74.62c-2.4-2.1-4.91-4.34-6.14-5.85l-0.09,0.06c-2.9,1.97-6.46,3.3-11.35,3.29 c-4.56-0.01-7.99-1.28-10.8-3.15c-0.67-0.45-1.3-0.93-1.9-1.43c-1.4,1.75-4.51,4.39-7.31,6.76l-0.61,0.52 C39.11,90.54,73.16,95.3,77.75,74.62L77.75,74.62L77.75,74.62z"/></g></svg>