<?xml version="1.0" encoding="utf-8"?><svg version="1.1" id="Layer_1" xmlns="http://www.w3.org/2000/svg" xmlns:xlink="http://www.w3.org/1999/xlink" x="0px" y="0px" viewBox="0 0 122.88 83.35" style="enable-background:new 0 0 122.88 83.35" xml:space="preserve"><g><path d="M95.54,1.28l17.5,2.49c1.54,0.22,2.95,0.71,4.23,1.45c1.26,0.74,2.37,1.75,3.31,3c0.94,1.25,1.6,2.6,1.96,4.02 c0.36,1.42,0.44,2.91,0.22,4.47l-2.43,17.08c-0.22,1.56-0.71,2.97-1.45,4.23c-0.74,1.26-1.75,2.37-3,3.31 c-1.25,0.94-2.6,1.58-4.02,1.96c-1.42,0.36-2.91,0.44-4.47,0.22l-5.67-0.81c-1.17,1.11-2.41,2.14-3.71,3.06 c-1.54,1.08-3.15,2.02-4.86,2.8c-1.71,0.81-3.5,1.47-5.39,1.99c-1.87,0.52-3.84,0.89-5.9,1.13c-0.59,0.07-1.18-0.19-1.53-0.71 c-0.5-0.74-0.29-1.74,0.45-2.24c1.04-0.68,1.95-1.4,2.7-2.15c0.73-0.73,1.35-1.49,1.85-2.29l0-0.02c0.55-0.86,1.06-1.75,1.52-2.65 c0.16-0.31,0.32-0.65,0.48-0.99l-5.4-0.77c-1.54-0.22-2.95-0.71-4.23-1.45c-1.26-0.74-2.37-1.75-3.31-3 c-0.94-1.25-1.6-2.6-1.96-4.02c-0.35-1.44-0.43-2.93-0.22-4.47l2.43-17.08c0.22-1.54,0.71-2.95,1.45-4.23 c0.74-1.26,1.75-2.37,3-3.31c1.25-0.94,2.6-1.6,4.02-1.96c1.42-0.36,2.91-0.44,4.47-0.22l7.93,1.13L95.54,1.28L95.54,1.28 L95.54,1.28z M47.21,70.32h1.31c1.19,0,2.16-0.97,2.16-2.16v-3.51c0-1.19-0.97-2.16-2.16-2.16H40.7c-1.19,0-2.16,0.97-2.16,2.16 v3.51c0,1.19,0.97,2.16,2.16,2.16h1.33l-2.55,13.03h10.19L47.21,70.32L47.21,70.32z M0,83.35c1.01-13.14-1.57-12.57,9.44-16.7 c5.49-2.06,12.51-4.67,17.56-7.81l9.43,24.51L0,83.35L0,83.35z M33.54,51.3c0.24-2.02-5.74-9.72-6.83-13.41 c-2.34-3.73-3.17-9.64-0.62-13.58c1.02-1.56,0.58-4.35,0.58-6.5c0-21.42,37.53-21.43,37.53,0c0,2.71-0.62,4.77,0.85,6.9 c2.46,3.56,1.19,9.87-0.88,13.18c-1.33,3.88-7.61,11.21-7.17,13.41C57.37,62.3,33.47,61.93,33.54,51.3L33.54,51.3z M62.66,57.71 c4.61,2.95,11.15,5.37,16.38,7.12c10.27,3.43,10.24,3.9,10.17,18.52l-36.3,0L62.66,57.71L62.66,57.71z M101.81,15.58 c0-0.01,0.07-0.04,0.08-0.05c0.93-0.5,2.09-0.16,2.61,0.76c0.52,0.93,0.2,2.1-0.72,2.63l-3.62,2.89l-0.01,0.01 c1.04,1.23,2.14,2.55,3.48,4.19c0.01,0,0.04,0.07,0.05,0.08c0.5,0.93,0.16,2.09-0.76,2.61c-0.93,0.52-2.1,0.2-2.63-0.72l-2.93-3.73 l-3.69,3.2c-0.7,0.8-1.91,0.89-2.72,0.2c-0.81-0.69-0.92-1.89-0.24-2.71c0.01-0.01,0.05-0.07,0.06-0.07 c1.62-1.35,2.92-2.45,4.14-3.49l-3.14-3.51c-0.8-0.7-0.89-1.91-0.2-2.72c0.69-0.81,1.89-0.92,2.71-0.24 c0.01,0.01,0.07,0.05,0.07,0.06c1.3,1.56,2.37,2.83,3.38,4.01C98.92,17.96,100.21,16.88,101.81,15.58L101.81,15.58L101.81,15.58z M104.65,5.85l-17.5-2.49c-1.14-0.16-2.22-0.11-3.22,0.15c-1,0.26-1.96,0.73-2.87,1.41c-0.9,0.68-1.62,1.47-2.15,2.36 c-0.53,0.89-0.88,1.91-1.04,3.06l-2.43,17.08c-0.16,1.14-0.11,2.22,0.15,3.22c0.26,1,0.73,1.96,1.41,2.87 c0.7,0.91,1.49,1.65,2.38,2.15c0.89,0.53,1.89,0.87,3.03,1.04l7.51,1.07c0.88,0.13,1.5,0.95,1.38,1.83 c-0.03,0.2-0.1,0.37-0.17,0.54c-0.44,1.01-0.89,2.02-1.39,2.98c-0.53,1.02-1.06,1.98-1.65,2.9c-0.29,0.47-0.62,0.92-0.98,1.38 c1.63-0.46,3.2-1.05,4.66-1.73c1.54-0.72,3-1.57,4.37-2.52c1.39-0.97,2.67-2.06,3.87-3.26c0.37-0.37,0.88-0.52,1.36-0.46l6.46,0.92 c1.14,0.16,2.2,0.11,3.2-0.15c1-0.26,1.96-0.73,2.89-1.4c0.9-0.68,1.62-1.47,2.15-2.36c0.53-0.89,0.88-1.91,1.04-3.06l2.43-17.08 c0.16-1.14,0.11-2.22-0.15-3.22c-0.26-1-0.73-1.96-1.41-2.87c-0.68-0.9-1.47-1.62-2.36-2.15c-0.89-0.53-1.91-0.88-3.06-1.04 l-7.93-1.13L104.65,5.85L104.65,5.85L104.65,5.85z"/></g></svg>