<?xml version="1.0" encoding="utf-8"?><svg version="1.1" id="Layer_1" xmlns="http://www.w3.org/2000/svg" xmlns:xlink="http://www.w3.org/1999/xlink" x="0px" y="0px" viewBox="0 0 115.28 122.88" style="enable-background:new 0 0 115.28 122.88" xml:space="preserve"><style type="text/css">.st0{fill-rule:evenodd;clip-rule:evenodd;}</style><g><path class="st0" d="M25.38,57h64.88V37.34H69.59c-2.17,0-5.19-1.17-6.62-2.6c-1.43-1.43-2.3-4.01-2.3-6.17V7.64l0,0H8.15 c-0.18,0-0.32,0.09-0.41,0.18C7.59,7.92,7.55,8.05,7.55,8.24v106.45c0,0.14,0.09,0.32,0.18,0.41c0.09,0.14,0.28,0.18,0.41,0.18 c22.78,0,58.09,0,81.51,0c0.18,0,0.17-0.09,0.27-0.18c0.14-0.09,0.33-0.28,0.33-0.41v-11.16H25.38c-4.14,0-7.56-3.4-7.56-7.56 V64.55C17.82,60.4,21.22,57,25.38,57L25.38,57z M29.9,69.38h6.47l2.33,12.31l3.41-12.31h6.42l3.43,12.33l2.34-12.33h6.44 l-4.86,22.06h-6.68l-3.87-13.89l-3.85,13.89h-6.67L29.9,69.38L29.9,69.38z M61.83,84.14l6.47-0.41c0.14,1.05,0.43,1.85,0.86,2.39 c0.7,0.89,1.7,1.33,3.01,1.33c0.97,0,1.72-0.23,2.24-0.68c0.53-0.46,0.79-0.99,0.79-1.59c0-0.57-0.25-1.08-0.74-1.54 c-0.5-0.45-1.66-0.87-3.48-1.28c-2.99-0.67-5.11-1.56-6.39-2.67c-1.28-1.11-1.93-2.53-1.93-4.25c0-1.13,0.33-2.2,0.99-3.2 c0.66-1.01,1.64-1.8,2.96-2.38c1.32-0.57,3.13-0.86,5.42-0.86c2.82,0,4.96,0.52,6.44,1.58c1.48,1.05,2.36,2.72,2.64,5.01 l-6.41,0.38c-0.17-1-0.53-1.73-1.07-2.18c-0.55-0.46-1.3-0.68-2.26-0.68c-0.79,0-1.39,0.17-1.79,0.5c-0.4,0.33-0.6,0.74-0.6,1.23 c0,0.35,0.16,0.66,0.49,0.94c0.31,0.29,1.07,0.56,2.27,0.81c2.98,0.64,5.11,1.29,6.39,1.95c1.29,0.66,2.23,1.47,2.81,2.44 c0.59,0.97,0.88,2.06,0.88,3.27c0,1.41-0.39,2.72-1.17,3.91c-0.79,1.19-1.87,2.1-3.28,2.72c-1.4,0.62-3.17,0.92-5.3,0.92 c-3.75,0-6.35-0.72-7.79-2.17C62.84,88.19,62.02,86.36,61.83,84.14L61.83,84.14z M85.34,69.38h16.85v4.74H92.18v3.85h8.56v4.47 h-8.56v8.99h-6.84V69.38L85.34,69.38z M97.79,57h9.93c4.16,0,7.56,3.41,7.56,7.56v31.42c0,4.15-3.41,7.56-7.56,7.56h-9.93v13.55 c0,1.61-0.65,3.04-1.7,4.1c-1.06,1.06-2.49,1.7-4.1,1.7c-29.44,0-56.59,0-86.18,0c-1.61,0-3.04-0.64-4.1-1.7 c-1.06-1.06-1.7-2.49-1.7-4.1V5.85c0-1.61,0.65-3.04,1.7-4.1c1.06-1.06,2.53-1.7,4.1-1.7h58.72C64.66,0,64.8,0,64.94,0 c0.64,0,1.29,0.28,1.75,0.69h0.09c0.09,0.05,0.14,0.09,0.23,0.18l29.99,30.36c0.51,0.51,0.88,1.2,0.88,1.98 c0,0.23-0.05,0.41-0.09,0.65V57L97.79,57z M67.52,27.97V8.94l21.43,21.7H70.19c-0.74,0-1.38-0.32-1.89-0.78 C67.84,29.4,67.52,28.71,67.52,27.97L67.52,27.97z"/></g></svg>