<?xml version="1.0" encoding="utf-8"?><svg version="1.1" id="Layer_1" xmlns="http://www.w3.org/2000/svg" xmlns:xlink="http://www.w3.org/1999/xlink" x="0px" y="0px" viewBox="0 0 153.11 122.88" style="enable-background:new 0 0 153.11 122.88" xml:space="preserve"><g><path d="M45.64,6.76L4.03,23.15L9.32,47.3H31.4c1.01,0,1.88,0.83,1.88,1.88v70.07h86.05V49.69c0-1.01,0.83-1.88,1.88-1.88h21.44 l6.34-23.97L107.81,6.85L90.82,37.66l-12.44-9.73l-0.09,0.09c-0.73,0.73-1.88,0.78-2.62,0.05l-0.05-0.05l-0.09-0.09l-12.72,9.83 L45.73,6.71L45.64,6.76L45.64,6.76z M52.72,81.31h8.58l4.46,7.75l4.33-7.75h8.48l-7.83,12.2l8.56,12.98h-8.76l-4.94-8.09 l-4.98,8.09h-8.69l8.68-13.12L52.72,81.31L52.72,81.31z M81.22,81.31h7.77v18.99h12.17v6.19H81.22V81.31L81.22,81.31z M76.54,34.63 c0.87,0,1.56,0.69,1.56,1.56c0,0.87-0.69,1.61-1.56,1.61c-0.87,0-1.61-0.69-1.61-1.61C74.93,35.32,75.62,34.63,76.54,34.63 L76.54,34.63z M76.54,43.72c0.87,0,1.56,0.69,1.56,1.61c0,0.87-0.69,1.56-1.56,1.56c-0.87,0-1.61-0.69-1.61-1.56 C74.93,44.45,75.62,43.72,76.54,43.72L76.54,43.72z M53.03,0.33c7.9,1.65,15.8,2.43,23.65,2.43c7.67,0,15.29-0.78,22.91-2.34 c0.51-0.41,1.24-0.55,1.88-0.28l50.42,20.8c0.92,0.32,1.42,1.29,1.15,2.2l-7.12,26.77c-0.18,0.87-0.92,1.52-1.84,1.52H123.1V121 c0,1.01-0.83,1.88-1.88,1.88H31.45c-1.01,0-1.88-0.83-1.88-1.88V50.93H7.85c-0.87,0-1.65-0.6-1.84-1.47L0.04,22.32 c-0.18-0.87,0.28-1.79,1.15-2.11L51.7,0.28c0.41-0.18,0.87-0.18,1.33,0V0.33L53.03,0.33z M58.03,5.01l3.9,3.95L76.9,23.88 L95.09,5.01c-6.11,0.96-12.26,1.47-18.41,1.47C70.48,6.48,64.28,5.98,58.03,5.01L58.03,5.01z"/></g></svg>