<?xml version="1.0" encoding="utf-8"?><svg version="1.1" id="Layer_1" xmlns="http://www.w3.org/2000/svg" xmlns:xlink="http://www.w3.org/1999/xlink" x="0px" y="0px" viewBox="0 0 122.88 98.62" style="enable-background:new 0 0 122.88 98.62" xml:space="preserve"><g><path d="M36.62,5.42L3.24,18.58l4.24,19.38H25.2c0.81,0,1.51,0.66,1.51,1.51v56.23h69.06V39.88c0-0.81,0.66-1.51,1.51-1.51h17.21 l5.09-19.24L86.52,5.5L72.89,30.22l-9.99-7.81l-0.07,0.07c-0.59,0.59-1.51,0.63-2.1,0.04l-0.04-0.04l-0.07-0.07L50.41,30.3 L36.7,5.38L36.62,5.42L36.62,5.42z M41.69,65.26h6.89l3.58,6.22l3.48-6.22h6.8l-6.28,9.79l6.87,10.42H56l-3.97-6.49l-3.99,6.49 h-6.97l6.97-10.53L41.69,65.26L41.69,65.26z M63.49,78.78l5.93-0.37c0.13,0.96,0.39,1.69,0.79,2.19c0.64,0.81,1.56,1.22,2.76,1.22 c0.89,0,1.58-0.21,2.06-0.63c0.48-0.42,0.72-0.9,0.72-1.45c0-0.52-0.23-0.99-0.68-1.41c-0.46-0.41-1.52-0.8-3.19-1.17 c-2.74-0.61-4.69-1.43-5.85-2.45c-1.18-1.02-1.76-2.31-1.76-3.9c0-1.03,0.3-2.01,0.9-2.94c0.6-0.93,1.51-1.65,2.71-2.18 c1.21-0.53,2.86-0.79,4.97-0.79c2.58,0,4.55,0.48,5.9,1.44c1.35,0.96,2.16,2.49,2.42,4.59l-5.87,0.35c-0.16-0.92-0.48-1.59-0.98-2 c-0.5-0.42-1.2-0.63-2.07-0.63c-0.72,0-1.28,0.16-1.64,0.46c-0.37,0.31-0.55,0.68-0.55,1.12c0,0.32,0.15,0.61,0.45,0.87 c0.29,0.27,0.98,0.51,2.08,0.74c2.73,0.59,4.68,1.19,5.86,1.79c1.18,0.6,2.04,1.35,2.58,2.24c0.54,0.89,0.8,1.89,0.8,2.99 c0,1.29-0.36,2.49-1.07,3.58c-0.72,1.09-1.72,1.92-3.01,2.49c-1.28,0.56-2.9,0.85-4.86,0.85c-3.43,0-5.81-0.66-7.14-1.99 C64.41,82.5,63.66,80.82,63.49,78.78L63.49,78.78z M61.43,27.79c0.7,0,1.25,0.55,1.25,1.25c0,0.7-0.55,1.29-1.25,1.29 s-1.29-0.55-1.29-1.29C60.14,28.34,60.69,27.79,61.43,27.79L61.43,27.79z M61.43,35.09c0.7,0,1.25,0.55,1.25,1.29 c0,0.7-0.55,1.25-1.25,1.25s-1.29-0.55-1.29-1.25C60.14,35.68,60.69,35.09,61.43,35.09L61.43,35.09z M42.56,0.26 c6.34,1.33,12.68,1.95,18.98,1.95c6.15,0,12.27-0.63,18.39-1.88c0.41-0.33,0.99-0.44,1.51-0.22l40.46,16.69 c0.74,0.26,1.14,1.03,0.92,1.77l-5.71,21.48c-0.15,0.7-0.74,1.22-1.47,1.22H98.79v55.83c0,0.81-0.66,1.51-1.51,1.51H25.24 c-0.81,0-1.51-0.66-1.51-1.51V40.87H6.3c-0.7,0-1.33-0.48-1.47-1.18L0.03,17.91c-0.15-0.7,0.22-1.44,0.92-1.7L41.49,0.23 c0.33-0.15,0.7-0.15,1.07,0V0.26L42.56,0.26z M46.57,4.02l3.13,3.17l12.01,11.98L76.31,4.02C71.41,4.8,66.47,5.2,61.54,5.2 C56.56,5.2,51.59,4.8,46.57,4.02L46.57,4.02z"/></g></svg>