<svg xmlns="http://www.w3.org/2000/svg" viewBox="0 0 122.88 63.89"><path d="M0 0h122.88v63.89H0V0zm61.46 29.68L65 21.05h5.68L65.3 31.7h3.02v2.84h-4.28v1.51h4.28v2.84h-4.28v3.94h-5.2V38.9h-4.76v-2.84h4.76v-1.51h-4.76v-2.84h3.61l-5.42-10.65h5.68l3.54 8.63h-.03v-.01zm0-16.52c10.4 0 18.8 8.41 18.8 18.8 0 10.4-8.41 18.8-18.8 18.8-10.4 0-18.8-8.41-18.8-18.8s8.4-18.8 18.8-18.8zM20.54 9.73h81.7c0 5.2 4.24 9.44 9.44 9.44v25.25c-5.2 0-9.44 4.24-9.44 9.44h-81.7c0-5.2-4.24-9.44-9.44-9.44V19.17c5.2 0 9.44-4.24 9.44-9.44z" fill-rule="evenodd" clip-rule="evenodd"/></svg>