<?xml version="1.0" encoding="utf-8"?><svg version="1.1" id="Layer_1" xmlns="http://www.w3.org/2000/svg" xmlns:xlink="http://www.w3.org/1999/xlink" x="0px" y="0px" viewBox="0 0 122.88 122.88" style="enable-background:new 0 0 122.88 122.88" xml:space="preserve"><style type="text/css"><![CDATA[
	.st0{fill-rule:evenodd;clip-rule:evenodd;}
]]></style><g><path class="st0" d="M61.44,0c16.96,0,32.33,6.88,43.44,18c11.12,11.12,18,26.48,18,43.44c0,16.97-6.88,32.33-18,43.45 c-11.12,11.12-26.48,18-43.44,18S29.11,116,18,104.88C6.88,93.77,0,78.41,0,61.44C0,44.48,6.88,29.11,18,18 C29.11,6.88,44.48,0,61.44,0L61.44,0z M39.2,37.64h14.83l7.48,16.13l7.3-16.13h14.87L72.34,58.18h9.67v7.18h-13.7v3.92h13.7v7.25 h-13.7v8.71H54.83v-8.71H40.93v-7.25h13.89v-3.92H40.93v-7.18h9.94L39.2,37.64L39.2,37.64z M61.44,17.24 c24.41,0,44.2,19.79,44.2,44.19c0,24.41-19.79,44.2-44.2,44.2c-24.41,0-44.2-19.79-44.2-44.2C17.24,37.03,37.03,17.24,61.44,17.24 L61.44,17.24z M61.44,8.74c29.11,0,52.7,23.6,52.7,52.7c0,29.11-23.6,52.7-52.7,52.7c-29.11,0-52.7-23.59-52.7-52.7 C8.74,32.33,32.33,8.74,61.44,8.74L61.44,8.74z"/></g></svg>