<?xml version="1.0" encoding="utf-8"?><svg version="1.1" id="Layer_1" xmlns="http://www.w3.org/2000/svg" xmlns:xlink="http://www.w3.org/1999/xlink" x="0px" y="0px" viewBox="0 0 122.88 88.46" style="enable-background:new 0 0 122.88 88.46" xml:space="preserve"><style type="text/css">.st0{fill-rule:evenodd;clip-rule:evenodd;}</style><g><path class="st0" d="M15.51,0h91.85c4.27,0,8.15,1.75,10.96,4.56c2.81,2.81,4.56,6.69,4.56,10.96v39.63 c0,4.27-1.73,8.18-4.55,11.02c-2.8,2.81-6.66,4.56-10.96,4.56H28.6L4.38,87.95c-1.24,0.89-2.97,0.59-3.86-0.65 c-0.35-0.49-0.51-1.05-0.51-1.6H0V15.51c0-4.26,1.74-8.13,4.56-10.95l0.02-0.02C7.39,1.74,11.26,0,15.51,0L15.51,0z M52.25,17.55 l-6.38,21.46v12.18h-8.08V39.01l-6.17-21.46h8.03c1.24,6.58,1.96,11.01,2.13,13.28c0.5-3.59,1.31-8.01,2.44-13.28H52.25 L52.25,17.55z M70.58,37.88H59.7v5.97c0,1.25,0.09,2.06,0.27,2.42c0.18,0.36,0.53,0.54,1.05,0.54c0.64,0,1.08-0.24,1.29-0.72 c0.22-0.48,0.33-1.41,0.33-2.79v-3.64h7.95v2.04c0,1.71-0.11,3.02-0.32,3.93c-0.22,0.91-0.72,1.89-1.51,2.93 c-0.79,1.04-1.79,1.82-3.01,2.35c-1.21,0.52-2.73,0.78-4.56,0.78c-1.77,0-3.34-0.26-4.7-0.77c-1.35-0.51-2.41-1.21-3.17-2.1 c-0.76-0.89-1.28-1.88-1.57-2.96c-0.29-1.07-0.44-2.63-0.44-4.68v-8.04c0-2.41,0.33-4.31,0.98-5.71c0.65-1.39,1.71-2.46,3.2-3.2 c1.49-0.74,3.19-1.11,5.12-1.11c2.35,0,4.3,0.45,5.83,1.34c1.53,0.89,2.61,2.08,3.22,3.55c0.62,1.47,0.92,3.54,0.92,6.22V37.88 L70.58,37.88z M62.21,33.41V31.4c0-1.43-0.08-2.35-0.23-2.76c-0.16-0.42-0.48-0.62-0.96-0.62c-0.6,0-0.96,0.18-1.11,0.53 c-0.14,0.35-0.21,1.3-0.21,2.86v2.01H62.21L62.21,33.41z M90.45,32.44h-7.4v-1.5c0-1.28-0.07-2.08-0.22-2.42 c-0.14-0.34-0.51-0.51-1.09-0.51c-0.47,0-0.82,0.16-1.06,0.47c-0.23,0.31-0.35,0.78-0.35,1.4c0,0.84,0.06,1.47,0.18,1.86 c0.11,0.4,0.47,0.83,1.06,1.3c0.58,0.47,1.79,1.16,3.61,2.06c2.43,1.19,4.02,2.31,4.78,3.37c0.76,1.05,1.14,2.58,1.14,4.59 c0,2.25-0.29,3.94-0.87,5.08c-0.58,1.14-1.55,2.03-2.91,2.64c-1.37,0.62-3.01,0.92-4.93,0.92c-2.13,0-3.96-0.33-5.46-0.99 c-1.52-0.67-2.56-1.57-3.13-2.7c-0.57-1.13-0.85-2.85-0.85-5.15v-1.33h7.44v1.74c0,1.47,0.09,2.43,0.28,2.88 c0.19,0.44,0.56,0.66,1.11,0.66c0.6,0,1.01-0.15,1.24-0.45c0.23-0.3,0.35-0.93,0.35-1.88c0-1.32-0.15-2.14-0.45-2.47 c-0.32-0.33-1.94-1.32-4.87-2.96c-2.46-1.38-3.96-2.64-4.5-3.77c-0.54-1.13-0.81-2.47-0.81-4.02c0-2.2,0.29-3.83,0.87-4.87 c0.58-1.05,1.57-1.86,2.96-2.42c1.39-0.57,3.01-0.85,4.84-0.85c1.83,0,3.38,0.23,4.66,0.7c1.28,0.47,2.26,1.08,2.95,1.84 c0.68,0.76,1.1,1.47,1.24,2.12c0.15,0.65,0.22,1.67,0.22,3.05V32.44L90.45,32.44z"/></g></svg>