<?xml version="1.0" encoding="utf-8"?><svg version="1.1" id="Layer_1" xmlns="http://www.w3.org/2000/svg" xmlns:xlink="http://www.w3.org/1999/xlink" x="0px" y="0px" viewBox="0 0 122.88 88.54" style="enable-background:new 0 0 122.88 88.54" xml:space="preserve"><g><path d="M15.65,0h91.58c4.3,0,8.22,1.76,11.05,4.6c2.84,2.84,4.6,6.75,4.6,11.05v39.5c0,4.3-1.75,8.25-4.59,11.11 c-2.82,2.84-6.72,4.6-11.06,4.6H28.75L4.66,87.99c-1.32,0.94-3.16,0.63-4.1-0.69c-0.37-0.52-0.55-1.11-0.54-1.71H0V15.65 c0-4.29,1.76-8.2,4.6-11.04l0.02-0.02C7.45,1.76,11.36,0,15.65,0L15.65,0z M90.44,32.53h-7.37v-1.49c0-1.27-0.07-2.07-0.22-2.41 c-0.14-0.34-0.51-0.51-1.09-0.51c-0.47,0-0.82,0.16-1.05,0.47c-0.23,0.31-0.35,0.78-0.35,1.4c0,0.84,0.06,1.46,0.18,1.85 c0.11,0.4,0.47,0.83,1.05,1.29c0.58,0.47,1.78,1.16,3.6,2.06c2.42,1.19,4.01,2.3,4.76,3.36c0.76,1.05,1.14,2.57,1.14,4.57 c0,2.24-0.29,3.93-0.87,5.06c-0.58,1.14-1.55,2.02-2.9,2.63c-1.36,0.61-2.99,0.92-4.92,0.92c-2.12,0-3.94-0.33-5.45-0.99 c-1.51-0.66-2.55-1.56-3.11-2.69c-0.56-1.13-0.85-2.84-0.85-5.13V41.6h7.42v1.73c0,1.47,0.09,2.42,0.28,2.87 c0.19,0.44,0.56,0.66,1.1,0.66c0.59,0,1-0.15,1.24-0.45c0.23-0.3,0.35-0.93,0.35-1.87c0-1.31-0.15-2.13-0.45-2.46 c-0.32-0.33-1.94-1.31-4.85-2.95c-2.45-1.38-3.95-2.63-4.49-3.76c-0.54-1.12-0.81-2.46-0.81-4.01c0-2.2,0.29-3.81,0.87-4.85 c0.58-1.05,1.56-1.85,2.95-2.42c1.38-0.56,3-0.85,4.82-0.85c1.82,0,3.37,0.23,4.64,0.69c1.28,0.47,2.25,1.07,2.94,1.84 c0.68,0.76,1.1,1.46,1.24,2.11c0.15,0.65,0.22,1.67,0.22,3.04V32.53L90.44,32.53z M70.64,37.96H59.79v5.95 c0,1.24,0.09,2.05,0.27,2.41c0.18,0.36,0.53,0.54,1.05,0.54c0.64,0,1.07-0.24,1.29-0.71c0.22-0.48,0.33-1.41,0.33-2.78v-3.63h7.93 v2.03c0,1.7-0.11,3.01-0.32,3.92c-0.22,0.91-0.72,1.89-1.5,2.92c-0.78,1.04-1.79,1.82-3,2.34c-1.21,0.52-2.72,0.78-4.54,0.78 c-1.77,0-3.33-0.25-4.68-0.77c-1.35-0.51-2.4-1.21-3.16-2.1c-0.76-0.89-1.27-1.87-1.56-2.95c-0.29-1.07-0.44-2.62-0.44-4.67v-8.02 c0-2.4,0.32-4.3,0.97-5.69c0.65-1.38,1.71-2.45,3.19-3.19c1.48-0.74,3.18-1.11,5.1-1.11c2.35,0,4.28,0.45,5.81,1.34 c1.53,0.89,2.6,2.07,3.21,3.54c0.61,1.46,0.92,3.53,0.92,6.2V37.96L70.64,37.96z M62.29,33.51V31.5c0-1.43-0.08-2.34-0.23-2.76 c-0.16-0.42-0.47-0.62-0.95-0.62c-0.59,0-0.96,0.18-1.1,0.53c-0.14,0.35-0.21,1.3-0.21,2.85v2.01H62.29L62.29,33.51z M52.36,17.7 L46,39.09v12.14h-8.05V39.09L31.81,17.7h8c1.24,6.56,1.95,10.97,2.13,13.23c0.5-3.57,1.31-7.98,2.43-13.23H52.36L52.36,17.7z M107.23,5.9H15.65c-2.68,0-5.12,1.09-6.88,2.85L8.76,8.77C7,10.53,5.9,12.96,5.9,15.65v64.24l20.03-14.24 c0.51-0.43,1.17-0.68,1.89-0.68h79.41c2.71,0,5.14-1.1,6.88-2.85c1.77-1.78,2.86-4.25,2.86-6.96v-39.5c0-2.67-1.1-5.11-2.87-6.88 C112.34,7,109.91,5.9,107.23,5.9L107.23,5.9z"/></g></svg>