<svg id="Layer_1" data-name="Layer 1" xmlns="http://www.w3.org/2000/svg" viewBox="0 0 108.6 122.88"><defs><style>.cls-1{fill:#202020;}.cls-1,.cls-2,.cls-3{fill-rule:evenodd;}.cls-2{fill:red;}.cls-3{fill:#fff;}</style></defs><title>youtube-live</title><path class="cls-1" d="M102.74,0H5.87A5.89,5.89,0,0,0,0,5.87V76.06H108.6V5.87A5.88,5.88,0,0,0,102.74,0Z"/><path class="cls-2" d="M0,79.34V117a5.89,5.89,0,0,0,5.87,5.87h96.87A5.88,5.88,0,0,0,108.6,117V79.34Z"/><path class="cls-3" d="M69.68,88.84H80.94v4.9H76.45v4.69h4.2v4.65h-4.2v5.4h5v4.9H69.68V88.84ZM34,88.84v19.63H38v4.9H27.2V88.84Zm13.6,0v24.53H40.81V88.84Zm19.83,0L64,113.37H53.76L49.84,88.84H57Q58.16,99,58.72,106q.54-7.1,1.11-12.6l.45-4.57Z"/><path class="cls-2" d="M77.18,28.69s-.46-3.22-1.86-4.63a6.7,6.7,0,0,0-4.68-2c-6.53-.48-16.34-.48-16.34-.48h0s-9.8,0-16.34.48a6.7,6.7,0,0,0-4.68,2c-1.4,1.41-1.85,4.63-1.85,4.63A71.79,71.79,0,0,0,31,36.26V39.8a72,72,0,0,0,.46,7.56s.45,3.22,1.85,4.64c1.78,1.86,4.11,1.8,5.16,2,3.74.35,15.88.46,15.88.46s9.82,0,16.35-.49a6.6,6.6,0,0,0,4.68-2c1.41-1.41,1.86-4.63,1.86-4.63a70.28,70.28,0,0,0,.47-7.57V36.25a72,72,0,0,0-.48-7.56Z"/><polygon class="cls-3" points="49.46 44.09 49.46 30.96 62.08 37.55 49.46 44.09 49.46 44.09 49.46 44.09"/></svg>