<svg xmlns="http://www.w3.org/2000/svg" viewBox="0 0 122.88 63.89"><path d="M0 0h122.88v63.89H0V0zm61.46 29.75l3.43-8.41h5.53l-6.49 13.2v1.14h4.2v2.77h-4.2v4.13h-5.09v-4.13h-4.65v-2.77h4.65v-1.14l-6.38-13.2h5.53l3.47 8.41zm0-16.59c10.4 0 18.8 8.41 18.8 18.8 0 10.4-8.41 18.8-18.8 18.8-10.4 0-18.8-8.41-18.8-18.8s8.4-18.8 18.8-18.8zM20.54 9.73h81.7c0 5.2 4.24 9.44 9.44 9.44v25.25c-5.2 0-9.44 4.24-9.44 9.44h-81.7c0-5.2-4.24-9.44-9.44-9.44V19.17c5.2 0 9.44-4.24 9.44-9.44z" fill-rule="evenodd" clip-rule="evenodd"/></svg>