<svg id="Layer_1" data-name="Layer 1" xmlns="http://www.w3.org/2000/svg" viewBox="0 0 122.88 59.39"><defs><style>.cls-1{fill:#0085cc;}</style></defs><title>zte-mobile</title><path class="cls-1" d="M37.85,0H6.08a4.1,4.1,0,0,0,0,8.19h18a2.86,2.86,0,0,1,2.84,2.86,3,3,0,0,1-.47,1.58L.79,52.86l-.24.41A4.07,4.07,0,0,0,4,59.38H37.85a4.1,4.1,0,0,0,0-8.2H17.91A2.86,2.86,0,0,1,15,48.33,2.61,2.61,0,0,1,15.37,47l26-40.77A4.12,4.12,0,0,0,37.85,0Zm80.93,51.18H101.29a4.1,4.1,0,0,1-4.1-4.06V37.85a4.11,4.11,0,0,1,4.1-4.1h14.46a4.1,4.1,0,1,0,0-8.19h-14.5a4.1,4.1,0,0,1-4.06-4.09V12.22a4.1,4.1,0,0,1,4.09-4h17.55a4.1,4.1,0,0,0,0-8.19H92.08A4.08,4.08,0,0,0,88,4.09V55.3a4.1,4.1,0,0,0,4,4.09h26.81a4.11,4.11,0,0,0,0-8.21ZM80.82,0H49.12a4.1,4.1,0,0,0,0,8.19h7.16a4.11,4.11,0,0,1,4.11,4.09V54.76a4.6,4.6,0,1,0,9.2,0V12.28a4.09,4.09,0,0,1,4.09-4.09h7.14a4.1,4.1,0,1,0,0-8.19Z"/></svg>