<?xml version="1.0" encoding="iso-8859-1"?>
<!-- Uploaded to: SVG Repo, www.svgrepo.com, Generator: SVG Repo Mixer Tools -->
<svg version="1.1" id="Layer_1" xmlns="http://www.w3.org/2000/svg" xmlns:xlink="http://www.w3.org/1999/xlink" 
	 viewBox="0 0 511.999 511.999" xml:space="preserve">
<polygon style="fill:#F95428;" points="283.289,7.673 228.929,7.673 222.121,61.861 290.096,61.861 "/>
<g>
	<rect x="130.352" y="155.803" style="fill:#4288BC;" width="251.519" height="311.187"/>
	<rect x="121.1" y="466.989" style="fill:#4288BC;" width="270.022" height="36.14"/>
	<rect x="121.1" y="97.998" style="fill:#4288BC;" width="270.022" height="57.804"/>
	<rect x="142.791" y="61.862" style="fill:#4288BC;" width="226.641" height="36.14"/>
</g>
<g>
	<rect x="171.748" y="183.371" style="fill:#CCCCCC;" width="63.841" height="64.844"/>
	<rect x="276.627" y="183.371" style="fill:#CCCCCC;" width="63.841" height="64.844"/>
</g>
<g>
	<rect x="171.748" y="278.976" style="fill:#3679A3;" width="63.841" height="64.844"/>
	<rect x="276.627" y="278.976" style="fill:#3679A3;" width="63.841" height="64.844"/>
	<rect x="171.748" y="374.582" style="fill:#3679A3;" width="63.841" height="64.844"/>
	<rect x="276.627" y="374.582" style="fill:#3679A3;" width="63.841" height="64.844"/>
</g>
<path d="M235.482,175.704h-63.841c-4.569,0-8.27,3.703-8.27,8.27v64.844c0,4.567,3.702,8.27,8.27,8.27h63.841
	c4.569,0,8.27-3.703,8.27-8.27v-64.844C243.752,179.406,240.05,175.704,235.482,175.704z M227.211,240.548h-47.3v-48.303h47.3
	V240.548z"/>
<path d="M340.358,175.704h-63.841c-4.569,0-8.27,3.703-8.27,8.27v64.844c0,4.567,3.702,8.27,8.27,8.27h63.841
	c4.569,0,8.27-3.703,8.27-8.27v-64.844C348.628,179.406,344.925,175.704,340.358,175.704z M332.087,240.548h-47.3v-48.303h47.3
	L332.087,240.548L332.087,240.548z"/>
<path d="M235.482,271.306h-63.841c-4.569,0-8.27,3.703-8.27,8.27v64.844c0,4.567,3.702,8.27,8.27,8.27h63.841
	c4.569,0,8.27-3.703,8.27-8.27v-64.844C243.752,275.009,240.05,271.306,235.482,271.306z M227.211,336.149h-47.3v-48.303h47.3
	V336.149z"/>
<path d="M340.358,271.306h-63.841c-4.569,0-8.27,3.703-8.27,8.27v64.844c0,4.567,3.702,8.27,8.27,8.27h63.841
	c4.569,0,8.27-3.703,8.27-8.27v-64.844C348.628,275.009,344.925,271.306,340.358,271.306z M332.087,336.149h-47.3v-48.303h47.3
	L332.087,336.149L332.087,336.149z"/>
<path d="M235.482,366.907h-63.841c-4.569,0-8.27,3.703-8.27,8.27v17.856c0,4.567,3.702,8.27,8.27,8.27s8.27-3.703,8.27-8.27v-9.586
	h47.3v48.303h-47.3v-15.56c0-4.567-3.702-8.27-8.27-8.27s-8.27,3.703-8.27,8.27v23.831c0,4.567,3.702,8.27,8.27,8.27h63.841
	c4.569,0,8.27-3.703,8.27-8.27v-64.844C243.752,370.61,240.05,366.907,235.482,366.907z"/>
<path d="M340.358,366.907h-63.841c-4.569,0-8.27,3.703-8.27,8.27v64.844c0,4.567,3.702,8.27,8.27,8.27h63.841
	c4.569,0,8.27-3.703,8.27-8.27v-64.844C348.628,370.61,344.925,366.907,340.358,366.907z M332.087,431.751h-47.3v-48.303h47.3
	L332.087,431.751L332.087,431.751z"/>
<path d="M391.008,164.676c4.569,0,8.27-3.703,8.27-8.27V98.599c0-4.567-3.702-8.27-8.27-8.27h-13.421v-27.87
	c0-4.567-3.702-8.27-8.27-8.27h-72.034l-5.898-46.949C290.866,3.103,287.348,0,283.179,0h-54.359c-4.168,0-7.687,3.103-8.205,7.239
	l-5.898,46.949h-72.034c-4.569,0-8.27,3.703-8.27,8.27v27.87h-13.42c-4.569,0-8.27,3.703-8.27,8.27v57.807
	c0,4.567,3.702,8.27,8.27,8.27h0.978v294.641h-0.978c-4.569,0-8.27,3.703-8.27,8.27v36.14c0,4.567,3.702,8.27,8.27,8.27h270.017
	c4.569,0,8.27-3.703,8.27-8.27v-36.14c0-4.567-3.702-8.27-8.27-8.27h-0.979V164.676H391.008z M275.883,16.541l1.758,13.993h-43.284
	l1.759-13.993H275.883z M232.279,47.075h47.44l0.894,7.114h-49.227L232.279,47.075z M150.952,70.729h71.059h67.976h71.059v19.6
	H150.952V70.729z M382.737,495.459H129.262v-19.6h0.978h251.52h0.979v19.6H382.737z M373.489,459.319H138.51V164.676h197.992
	c4.569,0,8.27-3.703,8.27-8.27c0-4.567-3.702-8.27-8.27-8.27h-207.24V106.87h13.42h226.635h13.421v41.266H360.76
	c-4.569,0-8.27,3.703-8.27,8.27c0,4.567,3.702,8.27,8.27,8.27h12.728v294.642H373.489z"/>
</svg>