<?xml version="1.0" encoding="iso-8859-1"?>
<!-- Uploaded to: SVG Repo, www.svgrepo.com, Generator: SVG Repo Mixer Tools -->
<svg fill="#000000" height="800px" width="800px" version="1.1" id="Layer_1" xmlns="http://www.w3.org/2000/svg" xmlns:xlink="http://www.w3.org/1999/xlink" 
	 viewBox="0 0 511.999 511.999" xml:space="preserve">
<g>
	<g>
		<path d="M235.482,175.703h-63.841c-4.569,0-8.27,3.703-8.27,8.27v64.844c0,4.568,3.702,8.27,8.27,8.27h63.841
			c4.569,0,8.27-3.703,8.27-8.27v-64.844C243.752,179.406,240.05,175.703,235.482,175.703z M227.211,240.548h-47.3v-48.303h47.3
			V240.548z"/>
	</g>
</g>
<g>
	<g>
		<path d="M340.358,175.703h-63.841c-4.569,0-8.27,3.703-8.27,8.27v64.844c0,4.568,3.702,8.27,8.27,8.27h63.841
			c4.569,0,8.27-3.703,8.27-8.27v-64.844C348.628,179.406,344.925,175.703,340.358,175.703z M332.087,240.548L332.087,240.548h-47.3
			v-48.303h47.3V240.548z"/>
	</g>
</g>
<g>
	<g>
		<path d="M235.482,271.306h-63.841c-4.569,0-8.27,3.703-8.27,8.27v64.844c0,4.567,3.702,8.27,8.27,8.27h63.841
			c4.569,0,8.27-3.703,8.27-8.27v-64.844C243.752,275.009,240.05,271.306,235.482,271.306z M227.211,336.149h-47.3v-48.303h47.3
			V336.149z"/>
	</g>
</g>
<g>
	<g>
		<path d="M340.358,271.306h-63.841c-4.569,0-8.27,3.703-8.27,8.27v64.844c0,4.567,3.702,8.27,8.27,8.27h63.841
			c4.569,0,8.27-3.703,8.27-8.27v-64.844C348.628,275.009,344.925,271.306,340.358,271.306z M332.087,336.149L332.087,336.149h-47.3
			v-48.303h47.3V336.149z"/>
	</g>
</g>
<g>
	<g>
		<path d="M235.482,366.907h-63.841c-4.569,0-8.27,3.703-8.27,8.27v17.856c0,4.567,3.702,8.27,8.27,8.27s8.27-3.703,8.27-8.27
			v-9.586h47.3v48.303h-47.3v-15.56c0-4.567-3.702-8.27-8.27-8.27s-8.27,3.703-8.27,8.27v23.831c0,4.567,3.702,8.27,8.27,8.27
			h63.841c4.569,0,8.27-3.703,8.27-8.27v-64.844C243.752,370.61,240.05,366.907,235.482,366.907z"/>
	</g>
</g>
<g>
	<g>
		<path d="M340.358,366.907h-63.841c-4.569,0-8.27,3.703-8.27,8.27v64.844c0,4.567,3.702,8.27,8.27,8.27h63.841
			c4.569,0,8.27-3.703,8.27-8.27v-64.844C348.628,370.61,344.925,366.907,340.358,366.907z M332.087,431.751L332.087,431.751h-47.3
			v-48.303h47.3V431.751z"/>
	</g>
</g>
<g>
	<g>
		<path d="M391.008,164.676c4.569,0,8.27-3.703,8.27-8.27V98.599c0-4.567-3.702-8.27-8.27-8.27h-13.421v-27.87
			c0-4.568-3.702-8.27-8.27-8.27h-72.034l-5.898-46.949C290.866,3.103,287.348,0,283.179,0h-54.359
			c-4.168,0-7.687,3.103-8.205,7.239l-5.898,46.949h-72.034c-4.569,0-8.27,3.703-8.27,8.27v27.87h-13.42
			c-4.569,0-8.27,3.703-8.27,8.27v57.807c0,4.567,3.702,8.27,8.27,8.27h0.978v294.641h-0.978c-4.569,0-8.27,3.703-8.27,8.27v36.14
			c0,4.568,3.702,8.27,8.27,8.27h270.017c4.569,0,8.27-3.703,8.27-8.27v-36.14c0-4.567-3.702-8.27-8.27-8.27h-0.979V164.676H391.008
			z M236.116,16.541h39.767l1.758,13.993h-43.284L236.116,16.541z M232.279,47.075h47.44l0.894,7.114h-49.227L232.279,47.075z
			 M150.952,70.729h71.059h67.976h71.059v19.6H150.952V70.729z M129.262,106.87h13.42h226.635h13.421v41.266H360.76
			c-4.569,0-8.27,3.703-8.27,8.27s3.702,8.27,8.27,8.27h12.728v294.643H138.51V164.676h197.992c4.569,0,8.27-3.703,8.27-8.27
			s-3.702-8.27-8.27-8.27h-207.24V106.87z M382.739,495.459h-0.001H129.262v-19.6h0.978h251.52h0.979V495.459z"/>
	</g>
</g>
</svg>